<svg width="39" height="39" viewBox="0 0 39 39" fill="none" xmlns="http://www.w3.org/2000/svg">
<g clip-path="url(#clip0)">
<path d="M35.2708 39.2695C35.2117 37.2378 34.3683 36.659 32.5919 35.9024L31.9657 35.6357C32.6397 35.003 33.0608 34.1566 33.0608 33.3929V31.446C33.0608 29.7883 31.7122 28.4397 30.0545 28.4397H29.2116C28.9608 28.4397 28.7174 28.471 28.4844 28.5291C28.173 28.3635 27.8308 28.212 27.5253 28.0819L26.8991 27.8152C27.5731 27.1825 27.9941 26.3361 27.9941 25.5725V23.6255C27.9941 22.018 26.726 20.7013 25.1377 20.623V17.751H27.4228V14.3232H25.1377V12.8462L25.1375 12.8296C25.0784 10.7979 24.235 10.2191 22.4586 9.46248L21.8324 9.19581C22.5064 8.56327 22.9275 7.71685 22.9275 6.95323V5.00628C22.9275 3.34862 21.5789 2 19.9212 2H19.0783C17.4206 2 16.072 3.34862 16.072 5.00628V6.95323C16.072 7.71685 16.4931 8.56327 17.1671 9.19588L16.5409 9.46256C14.7645 10.2192 13.9211 10.798 13.8621 12.8297L13.862 14.3232H11.5767V17.751H13.8619V20.623C12.2736 20.7014 11.0054 22.018 11.0054 23.6255V24.0277H12.148V23.6255C12.148 22.5979 12.9841 21.7618 14.0116 21.7618H14.8546C15.8823 21.7618 16.7183 22.5979 16.7183 23.6255V25.5725C16.7183 26.3905 15.6946 27.6441 14.4332 27.6441C13.1718 27.6441 12.148 26.3905 12.148 25.5725V25.1703H11.0054V25.5725C11.0054 26.3361 11.4265 27.1825 12.1006 27.8152L11.4744 28.0819C11.1689 28.212 10.8269 28.3633 10.5152 28.5291C10.2822 28.471 10.0387 28.4397 9.78799 28.4397H8.94507C7.28742 28.4397 5.93887 29.7883 5.93887 31.446V33.3929C5.93887 34.1566 6.35995 35.003 7.03399 35.6357L6.40778 35.9024C4.63138 36.659 3.78793 37.2379 3.72897 39.2695L3.72852 41H17.7859V39.8574H15.0044V39.2958C15.0456 37.9196 15.4188 37.6223 16.9887 36.9536L18.3324 36.3812C18.6965 36.5247 19.0895 36.6071 19.4998 36.6071C19.9102 36.6071 20.3031 36.5247 20.6672 36.3812L22.011 36.9536C23.5834 37.6233 23.9552 37.9203 23.9954 39.3023L23.9951 39.8574H21.2136V41H35.271V39.2861L35.2708 39.2695ZM30.0545 29.5824C31.0821 29.5824 31.9182 30.4184 31.9182 31.4461V33.393C31.9182 34.211 30.8945 35.4646 29.633 35.4646C28.3716 35.4646 27.3479 34.211 27.3479 33.393V31.4461C27.3479 30.4184 28.184 29.5824 29.2116 29.5824H30.0545ZM26.8516 23.6256V25.5726C26.8516 26.3906 25.8279 27.6442 24.5665 27.6442C23.3051 27.6442 22.2813 26.3906 22.2813 25.5726V23.6256C22.2813 22.5979 23.1174 21.7619 24.1449 21.7619H24.9879C26.0155 21.7619 26.8516 22.5979 26.8516 23.6256ZM23.9951 12.8547V14.3233H20.4723L22.4807 10.7204C23.6568 11.2595 23.9582 11.6289 23.9951 12.8547ZM17.2146 5.57756H21.7849V6.95323C21.7849 7.77124 20.7612 9.0248 19.4997 9.0248C18.2383 9.0248 17.2146 7.77124 17.2146 6.95323V5.57756ZM19.0783 3.14258H19.9212C20.7496 3.14258 21.4532 3.68606 21.6949 4.43499H17.3045C17.5463 3.68606 18.2498 3.14258 19.0783 3.14258ZM19.4997 10.1674C19.9101 10.1674 20.3031 10.085 20.6672 9.94145L21.4265 10.2648L19.4997 13.7213L17.5731 10.2649L18.3323 9.94153C18.6964 10.085 19.0894 10.1674 19.4997 10.1674ZM15.0044 12.8549C15.0413 11.629 15.3427 11.2595 16.5188 10.7204L18.5273 14.3233H15.0044V12.8549ZM12.7192 15.4659H26.2802V16.6085H12.7192V15.4659ZM15.0044 20.6231V17.751H23.9951V20.6231C22.4068 20.7015 21.1387 22.0181 21.1387 23.6256V25.5726C21.1387 26.3362 21.5598 27.1826 22.2339 27.8153L21.6077 28.0819C21.3023 28.212 20.9602 28.3634 20.6485 28.5292C20.4155 28.4711 20.172 28.4398 19.9213 28.4398H19.0784C18.8277 28.4398 18.5842 28.4711 18.3512 28.5292C18.0397 28.3635 17.6976 28.2121 17.3921 28.0819L16.7659 27.8152C17.4398 27.1825 17.861 26.3361 17.861 25.5725V23.6255C17.8608 22.0181 16.5927 20.7015 15.0044 20.6231ZM7.0813 31.4461C7.0813 30.4184 7.91736 29.5824 8.94492 29.5824H9.78784C10.8155 29.5824 11.6515 30.4184 11.6515 31.4461V33.393C11.6515 34.211 10.6278 35.4646 9.36638 35.4646C8.10497 35.4646 7.08122 34.211 7.08122 33.393V31.4461H7.0813ZM13.8618 39.8574H4.87109V39.2945C4.91245 37.9192 5.28585 37.6221 6.85537 36.9536L8.19904 36.3812C8.56314 36.5247 8.95612 36.6071 9.36645 36.6071C9.77679 36.6071 10.1698 36.5247 10.5339 36.3812L11.8776 36.9536C13.4471 37.6221 13.8204 37.9191 13.8618 39.2945V39.8574ZM16.5409 35.9025C15.5644 36.3184 14.8705 36.6811 14.4332 37.2604C13.9959 36.6811 13.3019 36.3184 12.3253 35.9025L11.6991 35.6357C12.3732 35.0031 12.7943 34.1566 12.7943 33.393V31.4461C12.7943 30.551 12.4005 29.7464 11.7777 29.1953C11.8244 29.175 11.8717 29.1546 11.9221 29.1331L13.2658 28.5608C13.6299 28.7043 14.0228 28.7868 14.4333 28.7868C14.8437 28.7868 15.2366 28.7043 15.6007 28.5608L16.9444 29.1331C16.9947 29.1545 17.042 29.175 17.0887 29.1953C16.4657 29.7464 16.072 30.551 16.072 31.4461V33.393C16.072 34.1566 16.4931 35.0031 17.1671 35.6357L16.5409 35.9025ZM17.2146 33.393V31.4461C17.2146 30.4184 18.0507 29.5824 19.0783 29.5824H19.9212C20.9488 29.5824 21.7849 30.4184 21.7849 31.4461V33.393C21.7849 34.211 20.7612 35.4646 19.4997 35.4646C18.2383 35.4646 17.2146 34.2111 17.2146 33.393ZM22.4586 35.9025L21.8324 35.6357C22.5064 35.0031 22.9275 34.1566 22.9275 33.393V31.4461C22.9275 30.551 22.5338 29.7464 21.911 29.1953C21.9577 29.175 22.005 29.1546 22.0553 29.1331L23.3989 28.5608C23.763 28.7043 24.156 28.7868 24.5663 28.7868C24.9767 28.7868 25.3696 28.7043 25.7337 28.5608L27.0773 29.1331C27.1277 29.1545 27.1749 29.175 27.2217 29.1953C26.5989 29.7464 26.2052 30.551 26.2052 31.4461V33.393C26.2052 34.1566 26.6263 35.0031 27.3003 35.6357L26.6741 35.9025C25.6975 36.3184 25.0035 36.6811 24.5662 37.2604C24.1291 36.6811 23.4351 36.3184 22.4586 35.9025ZM34.1284 39.8574H25.1377V39.2945C25.179 37.9192 25.5524 37.6221 27.122 36.9536L28.4657 36.3812C28.8298 36.5247 29.2228 36.6071 29.6331 36.6071C30.0435 36.6071 30.4364 36.5247 30.8005 36.3812L32.1443 36.9536C33.7137 37.6221 34.0871 37.9191 34.1285 39.2945V39.8574H34.1284Z" fill="white"/>
<path d="M20.0711 18.8937H21.2137V20.0363H20.0711V18.8937Z" fill="white"/>
<path d="M17.786 18.8937H18.9285V20.0363H17.786V18.8937Z" fill="white"/>
</g>
<defs>
<clipPath id="clip0">
<rect width="39" height="39" fill="white"/>
</clipPath>
</defs>
</svg>
