<svg width="39" height="39" viewBox="0 0 39 39" fill="none" xmlns="http://www.w3.org/2000/svg">
<g clip-path="url(#clip0)">
<path d="M36.441 19.5048C37.2617 17.8689 37.9076 16.2244 38.356 14.6039C39.7619 9.52658 39.0812 5.27493 36.4386 2.63272C33.7964 -0.00949677 29.5448 -0.690581 24.4674 0.715327C22.847 1.16373 21.2025 1.81 19.5665 2.63034C17.5313 1.60886 15.4931 0.861423 13.5293 0.430872C8.96792 -0.568885 5.12332 0.213068 2.70396 2.63272C1.15106 4.18562 0.250389 6.36753 0.0998307 8.94279C-0.0355532 11.2595 0.433976 13.9181 1.45724 16.6567C0.616967 17.3211 0.0763245 18.3482 0.0763245 19.5C0.0763245 20.6519 0.616967 21.679 1.45724 22.3434C0.433976 25.082 -0.0355532 27.7409 0.0998307 30.0573C0.250687 32.6326 1.15106 34.8145 2.70396 36.3674C4.43806 38.1018 6.87111 38.9959 9.80998 38.9959C10.4 38.9959 11.0106 38.9599 11.6402 38.8873C14.1601 38.5966 16.8526 37.7382 19.5704 36.3715C21.2051 37.1913 22.8485 37.8367 24.4674 38.2848C26.1953 38.7632 27.8276 39.0001 29.3335 39.0001C32.2522 39.0001 34.6956 38.1104 36.4386 36.3674C38.8583 33.948 39.6402 30.1034 38.6405 25.5417C38.2099 23.5782 37.4625 21.54 36.441 19.5048ZM24.7727 1.81833C29.4356 0.527277 33.2912 1.10392 35.6293 3.44205C37.9674 5.78017 38.5441 9.63578 37.253 14.2986C36.8915 15.6049 36.3949 16.9289 35.7772 18.2518C34.6703 16.2669 33.309 14.3001 31.7317 12.4241C32.215 11.8082 32.5042 11.0331 32.5042 10.1913C32.5042 9.37751 32.2408 8.60865 31.7422 7.96773L30.8388 8.67024C31.1798 9.10853 31.3598 9.63459 31.3598 10.1913C31.3598 11.5588 30.2473 12.6711 28.8801 12.6711C27.5128 12.6711 26.4003 11.5588 26.4003 10.1913C26.4003 8.82377 27.5128 7.71154 28.8801 7.71154C29.3264 7.71154 29.7641 7.83116 30.1452 8.05789L30.7302 7.0742C30.172 6.74243 29.5323 6.56688 28.8801 6.56688C28.0383 6.56688 27.2632 6.85639 26.6476 7.33961C24.7712 5.76232 22.8044 4.40104 20.8195 3.29387C22.1424 2.67646 23.4665 2.17985 24.7727 1.81833ZM3.51329 3.44205C6.60748 0.347857 12.2811 0.463305 18.3183 3.29059C15.3711 4.93424 12.4805 7.1352 9.8433 9.77206C7.88782 11.7275 6.16681 13.8279 4.72103 16.0205C4.39522 15.9259 4.05244 15.8756 3.70074 15.8756C3.26781 15.8756 2.85273 15.9524 2.46741 16.0919C0.484559 10.6876 0.855897 6.09914 3.51329 3.44205ZM9.83973 37.8474C7.25078 37.8474 5.04982 37.0946 3.51299 35.5581C0.855897 32.901 0.484261 28.3128 2.46741 22.9081C2.85273 23.048 3.26781 23.1245 3.70074 23.1245C4.05453 23.1245 4.39611 23.0724 4.71984 22.9775C6.16562 25.171 7.88723 27.272 9.8433 29.228C12.4796 31.864 15.3693 34.0644 18.3157 35.708C15.2893 37.1243 12.3778 37.8477 9.83973 37.8474ZM19.568 35.0853C16.4768 33.4615 13.4243 31.1901 10.6526 28.4187C8.79028 26.5561 7.14753 24.5601 5.76245 22.4785C6.70567 21.8236 7.32486 20.7331 7.32486 19.5003C7.32486 19.3929 7.3204 19.2843 7.31088 19.1775L6.17068 19.2784C6.17723 19.3516 6.1805 19.426 6.1805 19.5C6.1805 20.8676 5.06797 21.9798 3.70074 21.9798C2.33352 21.9798 1.22099 20.8676 1.22099 19.5C1.22099 18.1325 2.33352 17.0203 3.70074 17.0203C4.64516 17.0203 5.49525 17.5452 5.91896 18.3899L6.94192 17.8769C6.66223 17.319 6.25459 16.8569 5.76483 16.5174C7.14961 14.4376 8.79147 12.4425 10.6526 10.5814C13.4249 7.80914 16.4786 5.53707 19.5707 3.91336C21.6753 5.02113 23.8045 6.44935 25.8674 8.17899C25.4812 8.75504 25.2556 9.44713 25.2556 10.1913C25.2556 12.1896 26.8817 13.8154 28.8801 13.8154C29.6242 13.8154 30.3163 13.5899 30.8924 13.2037C32.622 15.2666 34.0499 17.3961 35.1577 19.5003C33.534 22.5925 31.2619 25.6462 28.49 28.4187C28.185 28.7234 27.8717 29.0263 27.5551 29.323C26.9234 28.7886 26.1078 28.4654 25.2176 28.4654C24.4038 28.4654 23.6349 28.7291 22.994 29.2274L23.6968 30.1308C24.1348 29.7901 24.6608 29.6101 25.2176 29.6098C26.5848 29.6098 27.6973 30.7223 27.6973 32.0896C27.6973 33.4571 26.5848 34.5693 25.2176 34.5693C23.8503 34.5693 22.7378 33.4571 22.7378 32.0896C22.7378 31.6432 22.8574 31.2058 23.0841 30.8247L22.1004 30.2394C21.7687 30.7976 21.5931 31.4373 21.5931 32.0896C21.5931 32.6638 21.7279 33.2065 21.9666 33.6895C21.1647 34.2012 20.3637 34.6666 19.568 35.0853ZM35.6293 35.5581C33.2912 37.8965 29.4356 38.4728 24.7727 37.1821C23.4674 36.8205 22.1445 36.3245 20.8225 35.7074C21.4253 35.3706 22.0284 35.0091 22.6298 34.6241C23.2883 35.2959 24.2047 35.714 25.2176 35.714C27.2159 35.714 28.842 34.0882 28.842 32.0898C28.842 31.3939 28.6444 30.7437 28.3031 30.1909C28.6405 29.8752 28.9744 29.5527 29.299 29.228C31.9362 26.5906 34.1368 23.6999 35.7808 20.7527C38.6081 26.7902 38.7235 32.4639 35.6293 35.5581Z" fill="white"/>
<path d="M28.9562 25.4135H27.7737V22.5299C27.7737 21.2546 26.9165 20.1222 25.6891 19.7758L25.2612 19.6553L24.9506 20.7569L25.3785 20.8777C26.1146 21.0853 26.6291 21.7646 26.6291 22.5299V25.4135H24.5689V23.8493H23.4245V25.4135H18.274V26.5578H28.9562V25.4135Z" fill="white"/>
<path d="M21.4637 19.7734L23.8489 20.4464L24.1598 19.3446L21.822 18.6853V17.1654C22.8804 16.4435 23.5769 15.2287 23.5769 13.8537V12.1749C23.5769 9.96625 21.78 8.16907 19.571 8.16907C17.3624 8.16907 15.5652 9.96625 15.5652 12.1749V13.8537C15.5652 15.2287 16.2617 16.4435 17.3201 17.1654V18.6853L13.4532 19.7758C12.2258 20.1221 11.3686 21.2546 11.3686 22.5299V25.4134H10.1861V26.5578H17.1294V25.4134H15.7178V23.8492H14.5735V25.4134H12.5132V22.5299C12.5132 21.7646 13.0277 21.0853 13.7638 20.8776L17.6783 19.7737C18.1604 20.3009 18.8412 20.6065 19.571 20.6065C20.3009 20.6065 20.982 20.3006 21.4637 19.7734ZM19.571 9.31373C21.1486 9.31373 22.4322 10.5973 22.4322 12.1752V12.8126L21.2293 11.2213H16.8738C17.2674 10.1112 18.3276 9.31373 19.571 9.31373ZM16.7098 13.8537V12.366H20.6598L22.3373 14.5845C22.0133 15.8095 20.896 16.7149 19.571 16.7149C17.9935 16.7149 16.7098 15.4313 16.7098 13.8537ZM18.4648 18.9337V17.7028C18.8162 17.8042 19.1872 17.8596 19.571 17.8596C19.9549 17.8596 20.3256 17.8042 20.6773 17.7028V18.9337C20.4083 19.2667 20.0055 19.4619 19.571 19.4619C19.1366 19.4619 18.7334 19.2667 18.4648 18.9337Z" fill="white"/>
<path d="M22.5937 22.4704L20.9816 22.0157L21.2925 20.9142L22.9043 21.3688L22.5937 22.4704Z" fill="white"/>
<path d="M25.106 21.9881L24.7951 23.0896L23.6936 22.779L24.0045 21.6774L25.106 21.9881Z" fill="white"/>
<path d="M28.3076 9.61914H29.452V10.7638H28.3076V9.61914Z" fill="white"/>
<path d="M24.6452 31.5176H25.7896V32.6619H24.6452V31.5176Z" fill="white"/>
<path d="M3.12817 18.9279H4.27284V20.0722H3.12817V18.9279Z" fill="white"/>
</g>
<defs>
<clipPath id="clip0">
<rect width="39" height="39" fill="white"/>
</clipPath>
</defs>
</svg>
