<svg width="41" height="42" viewBox="0 0 41 42" fill="none" xmlns="http://www.w3.org/2000/svg">
<g clip-path="url(#clip0)">
<path d="M38.2668 8.91422C36.7593 8.91422 35.5335 10.1401 35.5335 11.6475C35.5335 13.1549 36.7594 14.3808 38.2668 14.3808C39.7742 14.3808 41.0001 13.155 41.0001 11.6475C41.0001 10.1401 39.7742 8.91422 38.2668 8.91422ZM38.2668 13.0142C37.5131 13.0142 36.9001 12.4013 36.9001 11.6475C36.9001 10.8938 37.513 10.2808 38.2668 10.2808C39.0206 10.2808 39.6335 10.8937 39.6335 11.6475C39.6334 12.4013 39.0205 13.0142 38.2668 13.0142Z" fill="white"/>
<path d="M2.73331 31.4641C1.22592 31.4641 0 32.69 0 34.1974C0 35.7048 1.22592 36.9307 2.73331 36.9307C4.24078 36.9307 5.46661 35.7048 5.46661 34.1974C5.46661 32.69 4.24078 31.4641 2.73331 31.4641ZM2.73331 35.5641C1.97961 35.5641 1.36661 34.9512 1.36661 34.1974C1.36661 33.4436 1.97953 32.8307 2.73331 32.8307C3.487 32.8307 4.1 33.4436 4.1 34.1974C4.1 34.9512 3.48708 35.5641 2.73331 35.5641Z" fill="white"/>
<path d="M36.9419 9.77777L31.0468 6.93171C30.7064 6.76699 30.2985 6.91049 30.1345 7.25018C29.9705 7.58979 30.1133 7.99843 30.453 8.16243L36.3481 11.0085C36.4438 11.0549 36.5449 11.0768 36.6446 11.0768C36.8988 11.0768 37.1428 10.9347 37.2603 10.69C37.4243 10.3504 37.2815 9.94177 36.9419 9.77777Z" fill="white"/>
<path d="M30.7498 36.2475C29.2424 36.2475 28.0165 37.4734 28.0165 38.9808C28.0165 40.4882 29.2424 41.7142 30.7498 41.7142C32.2573 41.7142 33.4832 40.4883 33.4832 38.9809C33.4832 37.4735 32.2573 36.2475 30.7498 36.2475ZM30.7498 40.3475C29.9962 40.3475 29.3832 39.7346 29.3832 38.9808C29.3832 38.227 29.9962 37.6142 30.7498 37.6142C31.5035 37.6142 32.1165 38.2271 32.1165 38.9809C32.1165 39.7347 31.5035 40.3475 30.7498 40.3475Z" fill="white"/>
<path d="M29.4249 37.1112L23.5298 34.2652C23.1895 34.1005 22.7815 34.2433 22.6175 34.5837C22.4535 34.9233 22.5963 35.3319 22.936 35.4959L28.8311 38.342C28.9268 38.3884 29.028 38.4103 29.1277 38.4103C29.3818 38.4103 29.6258 38.2681 29.7434 38.0235C29.9073 37.6838 29.7645 37.2752 29.4249 37.1112Z" fill="white"/>
<path d="M20.4998 19.1642C18.9924 19.1642 17.7665 20.3901 17.7665 21.8975C17.7665 23.405 18.9925 24.6308 20.4998 24.6308C22.0073 24.6308 23.2332 23.4049 23.2332 21.8975C23.2332 20.3901 22.0073 19.1642 20.4998 19.1642ZM20.4998 23.2642C19.7462 23.2642 19.1332 22.6513 19.1332 21.8975C19.1332 21.1438 19.7461 20.5308 20.4998 20.5308C21.2535 20.5308 21.8665 21.1437 21.8665 21.8975C21.8665 22.6513 21.2535 23.2642 20.4998 23.2642Z" fill="white"/>
<path d="M19.2986 20.1044L14.7702 16.5749C14.4722 16.3446 14.0431 16.3959 13.8108 16.6938C13.5791 16.9918 13.6317 17.4209 13.9297 17.6532L18.4581 21.1827C18.5832 21.2797 18.7308 21.3269 18.8777 21.3269C19.0813 21.3269 19.2823 21.2367 19.4175 21.0638C19.6492 20.7658 19.5966 20.3367 19.2986 20.1044Z" fill="white"/>
<path d="M32.8001 18.4809C28.6556 18.4809 25.2834 21.8531 25.2834 25.9976C25.2834 30.142 28.6556 33.5143 32.8001 33.5143C36.9445 33.5143 40.3168 30.142 40.3168 25.9976C40.3168 21.8531 36.9445 18.4809 32.8001 18.4809ZM32.8001 32.1475C29.4087 32.1475 26.6501 29.3889 26.6501 25.9975C26.6501 22.6061 29.4087 19.8475 32.8001 19.8475C36.1915 19.8475 38.9501 22.6061 38.9501 25.9975C38.9501 29.3889 36.1915 32.1475 32.8001 32.1475Z" fill="white"/>
<path d="M32.8002 21.2141C31.2927 21.2141 30.0669 22.44 30.0669 23.9474C30.0669 25.4549 31.2928 26.6807 32.8002 26.6807C34.3077 26.6807 35.5335 25.4548 35.5335 23.9474C35.5335 22.44 34.3077 21.2141 32.8002 21.2141ZM32.8002 25.3141C32.0465 25.3141 31.4335 24.7012 31.4335 23.9474C31.4335 23.1937 32.0464 22.5807 32.8002 22.5807C33.5539 22.5807 34.1669 23.1936 34.1669 23.9474C34.1669 24.7012 33.5539 25.3141 32.8002 25.3141Z" fill="white"/>
<path d="M34.7824 28.0474H30.8177C29.65 28.0474 28.7001 28.972 28.7001 30.1077V31.9089C28.7001 32.1529 28.8299 32.3784 29.041 32.5007C30.1863 33.1635 31.486 33.5141 32.8001 33.5141C34.1142 33.5141 35.4138 33.1635 36.5591 32.5007C36.7703 32.3791 36.9001 32.1529 36.9001 31.9097V30.1084C36.9001 28.972 35.9503 28.0474 34.7824 28.0474ZM35.5334 31.5017C33.8326 32.349 31.7675 32.349 30.0667 31.5017V30.1084C30.0667 29.7257 30.4036 29.4141 30.8177 29.4141H34.7823C35.1964 29.4141 35.5333 29.7257 35.5333 30.1084V31.5017H35.5334Z" fill="white"/>
<path d="M16.3999 26.6807C12.2555 26.6807 8.88321 30.053 8.88321 34.1974C8.88321 38.3418 12.2555 41.714 16.3999 41.714C20.5443 41.714 23.9166 38.3418 23.9166 34.1973C23.9166 30.0529 20.5443 26.6807 16.3999 26.6807ZM16.3999 40.3473C13.0085 40.3473 10.2499 37.5887 10.2499 34.1973C10.2499 30.8059 13.0085 28.0473 16.3999 28.0473C19.7913 28.0473 22.5499 30.8059 22.5499 34.1973C22.5499 37.5887 19.7913 40.3473 16.3999 40.3473Z" fill="white"/>
<path d="M16.4 29.4142C14.8926 29.4142 13.6667 30.6401 13.6667 32.1475C13.6667 33.655 14.8926 34.8808 16.4 34.8808C17.9074 34.8808 19.1333 33.6549 19.1333 32.1475C19.1333 30.6401 17.9075 29.4142 16.4 29.4142ZM16.4 33.5142C15.6463 33.5142 15.0333 32.9013 15.0333 32.1475C15.0333 31.3938 15.6462 30.7808 16.4 30.7808C17.1537 30.7808 17.7667 31.3937 17.7667 32.1475C17.7667 32.9013 17.1537 33.5142 16.4 33.5142Z" fill="white"/>
<path d="M18.3823 36.2475H14.4176C13.2498 36.2475 12.2999 37.1721 12.2999 38.3077V40.109C12.2999 40.3529 12.4297 40.5784 12.6409 40.7008C13.7862 41.3636 15.0858 41.7142 16.3999 41.7142C17.714 41.7142 19.0137 41.3636 20.159 40.7008C20.3701 40.5792 20.4999 40.353 20.4999 40.1097V38.3085C20.4999 37.1721 19.5501 36.2475 18.3823 36.2475ZM19.1332 39.7017C17.4324 40.5491 15.3674 40.5491 13.6665 39.7017V38.3085C13.6665 37.9258 14.0034 37.6142 14.4175 37.6142H18.3822C18.7963 37.6142 19.1332 37.9258 19.1332 38.3085V39.7017H19.1332Z" fill="white"/>
<path d="M7.51669 9.59732C3.37225 9.59732 0 12.9696 0 17.114C0 21.2584 3.37225 24.6307 7.51669 24.6307C11.6611 24.6307 15.0334 21.2584 15.0334 17.114C15.0333 12.9696 11.6611 9.59732 7.51669 9.59732ZM7.51669 23.264C4.1253 23.264 1.36669 20.5054 1.36669 17.114C1.36669 13.7226 4.1253 10.964 7.51669 10.964C10.9081 10.964 13.6667 13.7226 13.6667 17.114C13.6667 20.5054 10.9081 23.264 7.51669 23.264Z" fill="white"/>
<path d="M7.51678 12.3309C6.00931 12.3309 4.78348 13.5568 4.78348 15.0642C4.78348 16.5716 6.00939 17.7975 7.51678 17.7975C9.02425 17.7975 10.2501 16.5716 10.2501 15.0642C10.2501 13.5568 9.02417 12.3309 7.51678 12.3309ZM7.51678 16.4309C6.76309 16.4309 6.15009 15.818 6.15009 15.0642C6.15009 14.3104 6.76301 13.6975 7.51678 13.6975C8.27048 13.6975 8.88348 14.3104 8.88348 15.0642C8.88348 15.818 8.27048 16.4309 7.51678 16.4309Z" fill="white"/>
<path d="M9.49903 19.1642H5.53435C4.36657 19.1642 3.41669 20.0888 3.41669 21.2244V23.0257C3.41669 23.2696 3.54649 23.4951 3.75766 23.6175C4.90294 24.2803 6.20261 24.6309 7.51669 24.6309C8.83077 24.6309 10.1304 24.2803 11.2757 23.6175C11.4869 23.4958 11.6167 23.2696 11.6167 23.0264V21.2252C11.6167 20.0888 10.6668 19.1642 9.49903 19.1642ZM10.25 22.6184C8.54922 23.4657 6.48416 23.4657 4.7833 22.6184V21.2252C4.7833 20.8425 5.12019 20.5309 5.53428 20.5309H9.49895C9.91303 20.5309 10.2499 20.8425 10.2499 21.2252V22.6184H10.25Z" fill="white"/>
<path d="M23.9169 0.714111C19.7724 0.714111 16.4002 4.08636 16.4002 8.2308C16.4002 12.3752 19.7724 15.7475 23.9169 15.7475C28.0613 15.7475 31.4335 12.3752 31.4335 8.2308C31.4335 4.08636 28.0612 0.714111 23.9169 0.714111ZM23.9169 14.3808C20.5255 14.3808 17.7669 11.6222 17.7669 8.2308C17.7669 4.83942 20.5255 2.0808 23.9169 2.0808C27.3082 2.0808 30.0669 4.83942 30.0669 8.2308C30.0669 11.6222 27.3082 14.3808 23.9169 14.3808Z" fill="white"/>
<path d="M23.9165 3.44736C22.4091 3.44736 21.1832 4.67327 21.1832 6.18066C21.1832 7.68805 22.4091 8.91397 23.9165 8.91397C25.4239 8.91397 26.6498 7.68813 26.6498 6.18074C26.6498 4.67335 25.4239 3.44736 23.9165 3.44736ZM23.9165 7.54736C23.1628 7.54736 22.5498 6.93444 22.5498 6.18066C22.5498 5.42697 23.1628 4.81397 23.9165 4.81397C24.6703 4.81397 25.2832 5.42689 25.2832 6.18066C25.2831 6.93444 24.6702 7.54736 23.9165 7.54736Z" fill="white"/>
<path d="M25.8992 10.2808H21.9345C20.7667 10.2808 19.8169 11.2053 19.8169 12.341V14.1423C19.8169 14.3862 19.9467 14.6117 20.1578 14.7341C21.3031 15.3969 22.6028 15.7474 23.9169 15.7474C25.2309 15.7474 26.5306 15.3969 27.6759 14.7341C27.887 14.6124 28.0169 14.3862 28.0169 14.143V12.3417C28.0169 11.2053 27.067 10.2808 25.8992 10.2808ZM26.6502 13.735C24.9494 14.5823 22.8843 14.5823 21.1835 13.735V12.3417C21.1835 11.959 21.5204 11.6475 21.9344 11.6475H25.8991C26.3132 11.6475 26.6501 11.959 26.6501 12.3417V13.735H26.6502Z" fill="white"/>
<path d="M17.6034 7.78577C17.3581 7.50014 16.9269 7.46594 16.6399 7.7113L11.9044 11.7635C11.6174 12.0088 11.5839 12.44 11.8292 12.727C11.9645 12.8848 12.1558 12.9662 12.3485 12.9662C12.5057 12.9662 12.6635 12.9122 12.7927 12.8015L17.5282 8.74928C17.8153 8.504 17.8487 8.07278 17.6034 7.78577Z" fill="white"/>
<path d="M32.6633 18.7548L28.5633 13.2881C28.3371 12.9854 27.9087 12.9259 27.6066 13.1514C27.3046 13.3777 27.2438 13.8061 27.47 14.1074L31.57 19.5741C31.7046 19.7532 31.9096 19.8474 32.1173 19.8474C32.2594 19.8474 32.4036 19.803 32.5266 19.7107C32.8287 19.4846 32.8896 19.0562 32.6633 18.7548Z" fill="white"/>
<path d="M27.0552 28.2572C26.829 27.9552 26.4006 27.8944 26.0985 28.1205L22.2815 30.983C21.9794 31.2092 21.9186 31.6376 22.1448 31.939C22.2794 32.118 22.4844 32.2123 22.6921 32.2123C22.8349 32.2123 22.9784 32.1672 23.1015 32.0756L26.9185 29.2131C27.2206 28.9871 27.2814 28.5586 27.0552 28.2572Z" fill="white"/>
<path d="M9.56652 33.514H4.78313C4.40596 33.514 4.09982 33.8195 4.09982 34.1973C4.09982 34.5752 4.40596 34.8806 4.78313 34.8806H9.56644C9.9436 34.8806 10.2497 34.5752 10.2497 34.1973C10.2497 33.8195 9.94368 33.514 9.56652 33.514Z" fill="white"/>
<path d="M7.51677 0.714111C6.0093 0.714111 4.78339 1.94003 4.78339 3.44742C4.78339 4.95489 6.0093 6.18072 7.51669 6.18072C9.02416 6.18072 10.25 4.95481 10.25 3.44742C10.2501 1.94003 9.02416 0.714111 7.51677 0.714111ZM7.51677 4.81411C6.76308 4.81411 6.15008 4.20119 6.15008 3.44742C6.15008 2.69372 6.763 2.08072 7.51677 2.08072C8.27047 2.08072 8.88347 2.69364 8.88347 3.44742C8.88339 4.20119 8.27047 4.81411 7.51677 4.81411Z" fill="white"/>
<path d="M7.51671 4.81415C7.13954 4.81415 6.8334 5.11957 6.8334 5.49745V10.2808C6.8334 10.6587 7.13954 10.9641 7.51671 10.9641C7.89388 10.9641 8.20002 10.6587 8.20002 10.2808V5.49745C8.20002 5.11957 7.89388 4.81415 7.51671 4.81415Z" fill="white"/>
</g>
<defs>
<clipPath id="clip0">
<rect width="41" height="41" fill="white" transform="translate(0 0.714111)"/>
</clipPath>
</defs>
</svg>
