<svg width="37" height="38" viewBox="0 0 37 38" fill="none" xmlns="http://www.w3.org/2000/svg">
<path d="M32.8195 12.4772V14.6689L25.6598 7.31578L19.6947 13.4496L6.98502 0.396484L6.14014 1.2642L19.6947 15.1776L25.6598 9.05121L31.9819 15.5366H29.8405V16.7634H34.014V12.4772H32.8195Z" fill="white"/>
<path d="M35.8055 36.3769V27.797H29.8404V36.3769H28.6459V17.9903H22.6807V36.3769H21.4862V21.6706H15.5138V36.3769H14.3193V13.0907H8.35413V36.3844H7.15965V9.4104H1.19449V36.3769H0V37.6037H37V36.3769H35.8055ZM5.97244 36.3769H2.38898V10.6372H5.97244V36.3769ZM13.1321 36.3769H9.54862V14.31H13.1321V36.3769ZM20.2917 36.3844H16.7083V22.8974H20.2917V36.3844ZM27.4514 36.3769H23.8679V19.2171H27.4514V36.3769ZM34.6183 36.3769H31.0348V29.0238H34.6183V36.3769Z" fill="white"/>
</svg>
