<svg width="44" height="44" viewBox="0 0 44 44" fill="none" xmlns="http://www.w3.org/2000/svg">
<g clip-path="url(#clip0)">
<path d="M21.9998 44C20.5845 44 19.402 42.922 19.2718 41.514L16.0653 6.93183C16.0617 6.88233 16.058 6.83283 16.058 6.7815C16.047 6.6275 16.0415 6.47167 16.0415 6.314C16.0415 2.8325 18.7145 0 21.9998 0C25.2852 0 27.9582 2.8325 27.9582 6.314C27.9582 6.47167 27.9527 6.62933 27.9417 6.78333C27.9417 6.83283 27.938 6.88233 27.9343 6.93183L24.7278 41.514C24.5977 42.922 23.4152 44 21.9998 44Z" fill="white"/>
<path d="M28.2244 18.3314C27.1647 18.3314 26.1289 18.2544 25.1151 18.1022L25.6632 14.4759C29.6782 15.0791 34.2011 14.2266 39.4536 11.8597L34.8336 9.71474C32.9947 8.85674 30.4372 9.02358 28.8862 10.0942L27.1574 11.3042L25.0564 8.29941L26.7944 7.08208C29.4234 5.26708 33.3669 4.98658 36.3809 6.38908L42.0239 9.00524C43.2577 9.58091 43.9966 10.6442 44.0002 11.8506C44.0039 13.0532 43.2742 14.1166 42.0514 14.6959C36.9712 17.1287 32.4136 18.3314 28.2244 18.3314Z" fill="white"/>
<path d="M15.7996 18.3314C11.6104 18.3314 7.04539 17.1287 1.94139 14.6922C0.725892 14.1166 -0.00377498 13.0532 -0.000108316 11.8506C0.00355835 10.6442 0.742392 9.5809 1.97623 9.00707L7.62289 6.38907C10.6424 4.98657 14.5749 5.2689 17.1984 7.07474L18.9676 8.31774L16.8592 11.3189L15.1011 10.0851C13.5647 9.02357 11.0091 8.85857 9.16839 9.7129L4.54656 11.8561C9.89073 14.2632 14.2944 15.0882 18.3552 14.4759L18.9034 18.1022C17.8914 18.2544 16.8574 18.3314 15.7996 18.3314Z" fill="white"/>
<path d="M33.6693 27.5971C33.0973 27.5971 32.5344 27.3294 32.1769 26.8308C31.5884 26.0076 31.7773 24.8618 32.6004 24.2733C33.2348 23.8204 33.4584 23.4391 33.4584 23.2503C33.4584 23.1659 33.3906 22.9954 33.1981 22.7681C32.5454 21.9926 32.6444 20.8358 33.4199 20.1849C34.1954 19.5323 35.3523 19.6331 36.0013 20.4068C36.7346 21.2794 37.1233 22.2621 37.1233 23.2503C37.1233 24.2971 36.7071 25.8426 34.7326 27.2561C34.4118 27.4871 34.0378 27.5971 33.6693 27.5971Z" fill="white"/>
<path d="M14.5749 38.9913C14.2394 38.9913 13.902 38.8997 13.5977 38.709C11.5499 37.4147 10.4205 35.6547 10.4205 33.7535C10.4205 32.7415 11.24 31.9202 12.2539 31.9202C13.2677 31.9202 14.0872 32.7415 14.0872 33.7535C14.0872 34.342 14.6225 35.0185 15.5575 35.607C16.4137 36.1478 16.6685 37.2808 16.1295 38.1352C15.7775 38.6888 15.1835 38.9913 14.5749 38.9913Z" fill="white"/>
<path d="M22 40.8375C20.9862 40.8375 20.1667 40.0161 20.1667 39.0042C20.1667 37.9922 20.9862 37.1708 22 37.1708C26.8308 37.1708 29.9127 35.1468 29.9127 33.7535C29.9127 32.3602 26.8308 30.3343 22 30.3343C21.175 30.3343 20.3702 30.2977 19.5855 30.2427C13.2623 29.8192 6.875 27.4908 6.875 23.2503C6.875 22.2383 7.6945 21.417 8.70833 21.417C9.72217 21.417 10.5417 22.2383 10.5417 23.2503C10.5417 23.9965 13.3998 26.1525 19.8367 26.5852C20.5462 26.6347 21.263 26.6677 22 26.6677C28.6018 26.6677 33.5793 29.7128 33.5793 33.7517C33.5793 37.7905 28.6018 40.8375 22 40.8375Z" fill="white"/>
</g>
<defs>
<clipPath id="clip0">
<rect width="44" height="44" fill="white"/>
</clipPath>
</defs>
</svg>
