<svg width="26" height="49" viewBox="0 0 26 49" fill="none" xmlns="http://www.w3.org/2000/svg">
<path d="M25.474 0.806531C25.2241 0.365625 24.7571 0.09375 24.2504 0.09375H7.37537C6.7299 0.09375 6.16824 0.53325 6.01168 1.15941L0.386678 23.7532C0.280928 24.1733 0.37571 24.6184 0.642147 24.9589C0.908584 25.3008 1.3178 25.4999 1.75037 25.4999H8.15818L0.43346 46.1931C0.186241 46.8522 0.465054 47.5925 1.08437 47.9261C1.70649 48.2595 2.47618 48.0811 2.88746 47.5141L25.3875 16.4828C25.6992 16.0557 25.7431 15.4899 25.5042 15.0175C25.2639 14.5465 24.7791 14.2499 24.2504 14.2499H18.2971L25.4561 2.22366C25.7171 1.78838 25.7239 1.24734 25.474 0.806531Z" fill="white"/>
</svg>
