<svg width="47" height="48" viewBox="0 0 47 48" fill="none" xmlns="http://www.w3.org/2000/svg">
<path d="M43.019 10.9711L42.3159 11.194L38.5713 11.5277L37.5136 13.2167L36.7461 12.9729L33.7659 10.2859L33.3336 8.88863L32.7546 7.39856L30.8815 5.71849L28.6719 5.28613L28.621 6.29746L30.7858 8.40989L31.845 9.6576L30.6541 10.28L29.6847 9.99421L28.232 9.38831L28.2814 8.2169L26.3754 7.43297L25.7426 10.1872L23.8217 10.6226L24.0117 12.159L26.5146 12.6407L26.9469 10.1857L29.013 10.4909L29.9734 11.0534H31.5144L32.5691 13.1658L35.3652 16.0024L35.1603 17.105L32.9057 16.8177L29.01 18.785L26.2049 22.1496L25.8399 23.6397H24.833L22.957 22.775L21.1348 23.6397L21.5881 25.5621L22.381 24.6481L23.7753 24.6047L23.6781 26.3311L24.833 26.6692L25.9865 27.9648L27.87 27.4352L30.0213 27.7748L32.5197 28.4465L33.7674 28.5931L35.8829 30.9943L39.9656 33.3955L37.325 38.4402L34.5379 39.7357L33.4802 42.6186L29.4468 45.3115L29.0175 46.8644C39.3283 44.381 46.9985 35.1189 46.9985 24.0451C46.9955 19.2084 45.5294 14.7068 43.019 10.9711Z" fill="white"/>
<path d="M26.2032 36.3283L24.4918 33.1551L26.0626 29.8818L24.4918 29.412L22.7279 27.6407L18.8202 26.764L17.5231 24.0501V25.6614H16.9517L13.584 21.0954V17.3448L11.1155 13.3309L7.19589 14.0296H4.55536L3.22686 13.1589L4.92189 11.8154L3.23135 12.2059C1.19373 15.6857 0.00585938 19.7236 0.00585938 24.0487C0.00585938 37.0239 10.5246 47.5472 23.5014 47.5472C24.5007 47.5472 25.4806 47.4589 26.4501 47.3422L26.2047 44.4952C26.2047 44.4952 27.2834 40.2674 27.2834 40.1237C27.2819 39.9786 26.2032 36.3283 26.2032 36.3283Z" fill="white"/>
<path d="M8.73605 8.12438L12.91 7.54242L14.834 6.4877L16.9987 7.11156L20.4576 6.92006L21.6425 5.05747L23.3704 5.34172L27.5669 4.94826L28.7233 3.67363L30.354 2.5845L32.6609 2.93158L33.5017 2.80442C30.4632 1.37419 27.0821 0.546875 23.4991 0.546875C16.2058 0.546875 9.68455 3.8711 5.37891 9.09083H5.39087L8.73605 8.12438ZM24.4925 2.88371L26.8921 1.56269L28.4331 2.45285L26.2025 4.15087L24.0721 4.3648L23.1131 3.74244L24.4925 2.88371ZM17.3847 3.0767L18.4439 3.51804L19.8308 3.0767L20.5863 4.38575L17.3847 5.22653L15.8453 4.3259C15.8438 4.3259 17.3503 3.35646 17.3847 3.0767Z" fill="white"/>
</svg>
