<svg width="67" height="67" viewBox="0 0 67 67" fill="none" xmlns="http://www.w3.org/2000/svg">
<path d="M14.2812 39.9061C14.2808 40.4848 14.4373 41.0528 14.7341 41.5496C15.0308 42.0464 15.4567 42.4535 15.9664 42.7276C16.4761 43.0016 17.0506 43.1323 17.6287 43.1059C18.2068 43.0794 18.7669 42.8967 19.2494 42.5771L24.4225 47.7502C24.1624 48.1442 23.9926 48.5908 23.9253 49.058C23.858 49.5253 23.8948 50.0016 24.0331 50.453C24.1714 50.9044 24.4078 51.3196 24.7253 51.6689C25.0429 52.0182 25.4337 52.293 25.8699 52.4736C26.3061 52.6543 26.7768 52.7362 27.2483 52.7136C27.7199 52.691 28.1806 52.5645 28.5975 52.343C29.0144 52.1215 29.3772 51.8106 29.6599 51.4326C29.9426 51.0545 30.1383 50.6186 30.2328 50.1561H36.768C36.862 50.6192 37.0573 51.0557 37.3399 51.4344C37.6225 51.8132 37.9853 52.1247 38.4025 52.3467C38.8197 52.5686 39.2808 52.6955 39.7528 52.7183C40.2248 52.7411 40.6959 52.6591 41.1325 52.4783C41.5691 52.2975 41.9603 52.0224 42.278 51.6726C42.5958 51.3229 42.8322 50.9071 42.9703 50.4552C43.1084 50.0033 43.1449 49.5264 43.077 49.0588C43.0091 48.5912 42.8386 48.1443 42.5777 47.7504L45.3644 44.9636L44.4584 44.0576L41.6717 46.8444C41.2348 46.5549 40.7334 46.3773 40.2117 46.3269C39.6901 46.2765 39.164 46.3551 38.6797 46.5555C38.1955 46.756 37.7679 47.0724 37.4345 47.4768C37.1011 47.8811 36.8721 48.3612 36.7676 48.8748H30.2328C30.061 48.0408 29.5651 47.3092 28.8539 46.8408L29.2265 45.9095L28.0368 45.4337L27.6647 46.3641C26.8533 46.216 26.0161 46.3882 25.3291 46.8446L20.156 41.6715C20.6124 40.9845 20.7846 40.1473 20.6365 39.3359L25.4107 37.4263L24.9348 36.2366L20.159 38.1463C19.6906 37.4352 18.959 36.9392 18.125 36.7674V30.2326C18.959 30.0608 19.6906 29.5648 20.159 28.8537L24.934 30.7638L25.4099 29.5741L20.6356 27.6641C20.7837 26.8527 20.6115 26.0155 20.1551 25.3285L24.143 21.3406L23.2374 20.4345L19.2495 24.4224C18.8556 24.1622 18.409 23.9924 17.9417 23.9251C17.4744 23.8577 16.998 23.8945 16.5466 24.0328C16.0952 24.1711 15.68 24.4075 15.3306 24.7251C14.9813 25.0426 14.7065 25.4335 14.5259 25.8697C14.3452 26.3059 14.2633 26.7766 14.2859 27.2482C14.3085 27.7198 14.4351 28.1805 14.6566 28.5974C14.8781 29.0143 15.189 29.3771 15.5671 29.6598C15.9453 29.9425 16.3812 30.1381 16.8437 30.2326V36.7678C16.1208 36.9164 15.4713 37.3097 15.0045 37.8813C14.5377 38.453 14.2823 39.1681 14.2812 39.9061ZM39.9062 47.5936C40.2864 47.5936 40.6579 47.7063 40.974 47.9175C41.29 48.1286 41.5364 48.4288 41.6818 48.78C41.8273 49.1311 41.8653 49.5176 41.7912 49.8904C41.717 50.2632 41.534 50.6056 41.2652 50.8744C40.9964 51.1432 40.654 51.3262 40.2812 51.4004C39.9084 51.4745 39.5219 51.4365 39.1708 51.291C38.8196 51.1456 38.5194 50.8992 38.3083 50.5832C38.0971 50.2671 37.9844 49.8955 37.9844 49.5154C37.985 49.0059 38.1876 48.5174 38.5479 48.1571C38.9082 47.7968 39.3967 47.5942 39.9062 47.5936ZM27.0937 47.5936C27.4739 47.5936 27.8454 47.7063 28.1615 47.9175C28.4775 48.1286 28.7239 48.4288 28.8693 48.78C29.0148 49.1311 29.0528 49.5176 28.9787 49.8904C28.9045 50.2632 28.7215 50.6056 28.4527 50.8744C28.1839 51.1432 27.8415 51.3262 27.4687 51.4004C27.0959 51.4745 26.7094 51.4365 26.3583 51.291C26.0071 51.1456 25.7069 50.8992 25.4958 50.5832C25.2846 50.2671 25.1719 49.8955 25.1719 49.5154C25.1725 49.0059 25.3751 48.5174 25.7354 48.1571C26.0957 47.7968 26.5842 47.5942 27.0937 47.5936ZM15.5625 27.0936C15.5625 26.7134 15.6752 26.3419 15.8864 26.0258C16.0976 25.7098 16.3977 25.4634 16.7489 25.318C17.1001 25.1725 17.4865 25.1345 17.8593 25.2086C18.2321 25.2828 18.5746 25.4658 18.8433 25.7346C19.1121 26.0034 19.2952 26.3458 19.3693 26.7186C19.4435 27.0914 19.4054 27.4779 19.2599 27.829C19.1145 28.1802 18.8682 28.4804 18.5521 28.6915C18.2361 28.9027 17.8645 29.0154 17.4844 29.0154C16.9748 29.0148 16.4863 28.8122 16.1261 28.4519C15.7658 28.0916 15.5631 27.6031 15.5625 27.0936ZM17.4844 37.9842C17.8645 37.9842 18.2361 38.0969 18.5521 38.3081C18.8682 38.5193 19.1145 38.8194 19.2599 39.1706C19.4054 39.5218 19.4435 39.9082 19.3693 40.281C19.2952 40.6538 19.1121 40.9963 18.8433 41.265C18.5746 41.5338 18.2321 41.7169 17.8593 41.791C17.4865 41.8652 17.1001 41.8271 16.7489 41.6816C16.3977 41.5362 16.0976 41.2898 15.8864 40.9738C15.6752 40.6577 15.5625 40.2862 15.5625 39.9061C15.5631 39.3965 15.7658 38.908 16.1261 38.5477C16.4863 38.1875 16.9748 37.9848 17.4844 37.9842ZM52.7187 27.0936C52.7191 26.5149 52.5626 25.9469 52.2659 25.45C51.9691 24.9532 51.5433 24.5461 51.0335 24.272C50.5238 23.998 49.9494 23.8673 49.3713 23.8938C48.7932 23.9203 48.233 24.103 47.7505 24.4225L42.5775 19.2494C42.8378 18.8555 43.0077 18.4088 43.0752 17.9415C43.1426 17.4742 43.1059 16.9977 42.9676 16.5463C42.8294 16.0948 42.593 15.6795 42.2754 15.3301C41.9579 14.9806 41.567 14.7058 41.1307 14.5251C40.6945 14.3445 40.2237 14.2625 39.7521 14.2851C39.2804 14.3078 38.8196 14.4344 38.4027 14.6559C37.9857 14.8775 37.6229 15.1885 37.3402 15.5667C37.0576 15.9449 36.862 16.3809 36.7676 16.8436H30.2328C30.1073 16.2247 29.8019 15.6566 29.3548 15.2106C28.9078 14.7646 28.339 14.4606 27.7198 14.3366C27.1006 14.2126 26.4586 14.2742 25.8743 14.5137C25.2899 14.7531 24.7893 15.1598 24.4352 15.6826C24.0811 16.2055 23.8893 16.8212 23.8837 17.4527C23.8782 18.0842 24.0593 18.7032 24.4042 19.2322C24.7491 19.7611 25.2425 20.1765 25.8226 20.4261C26.4026 20.6757 27.0434 20.7486 27.6647 20.6354L28.0368 21.5658L29.2265 21.09L28.8535 20.1588C29.5648 19.6905 30.0609 18.9589 30.2328 18.1248H36.768C36.9397 18.9588 37.4357 19.6904 38.1468 20.1588L37.5181 21.7307L38.7076 22.2066L39.3361 20.6355C40.1475 20.7836 40.9847 20.6114 41.6717 20.155L46.8448 25.3281C46.3884 26.0151 46.2162 26.8523 46.3643 27.6637L41.5901 29.5733L42.0659 30.763L46.841 28.8529C47.0728 29.2052 47.3718 29.5083 47.7208 29.7451C48.0698 29.9818 48.462 30.1475 48.875 30.2326V36.7678C48.041 36.9396 47.3093 37.4356 46.841 38.1467L44.9488 37.3898L44.4729 38.5794L46.3643 39.3359C46.2162 40.1473 46.3884 40.9845 46.8448 41.6715L45.5795 42.9368L46.4855 43.8428L47.7508 42.5775C48.1447 42.8378 48.5914 43.0077 49.0587 43.075C49.526 43.1424 50.0025 43.1057 50.4539 42.9674C50.9053 42.8291 51.3206 42.5927 51.67 42.2751C52.0194 41.9575 52.2942 41.5666 52.4748 41.1303C52.6554 40.6941 52.7373 40.2233 52.7147 39.7517C52.6921 39.2801 52.5654 38.8193 52.3438 38.4024C52.1223 37.9855 51.8113 37.6227 51.4331 37.34C51.0549 37.0574 50.6189 36.8618 50.1562 36.7674V30.2326C50.8793 30.084 51.5289 29.6906 51.9957 29.1188C52.4625 28.547 52.7179 27.8317 52.7187 27.0936ZM27.0937 19.4061C26.7136 19.4061 26.3421 19.2933 26.026 19.0822C25.71 18.871 25.4636 18.5708 25.3182 18.2197C25.1727 17.8685 25.1346 17.4821 25.2088 17.1092C25.283 16.7364 25.466 16.394 25.7348 16.1252C26.0036 15.8564 26.346 15.6734 26.7188 15.5992C27.0916 15.5251 27.478 15.5631 27.8292 15.7086C28.1804 15.8541 28.4805 16.1004 28.6917 16.4164C28.9029 16.7325 29.0156 17.1041 29.0156 17.4842C29.015 17.9937 28.8124 18.4822 28.4521 18.8425C28.0918 19.2028 27.6033 19.4055 27.0937 19.4061ZM39.9062 19.4061C39.5261 19.4061 39.1546 19.2933 38.8385 19.0822C38.5225 18.871 38.2761 18.5708 38.1307 18.2197C37.9852 17.8685 37.9471 17.4821 38.0213 17.1092C38.0954 16.7364 38.2785 16.394 38.5473 16.1252C38.816 15.8564 39.1585 15.6734 39.5313 15.5992C39.9041 15.5251 40.2905 15.5631 40.6417 15.7086C40.9929 15.8541 41.293 16.1004 41.5042 16.4164C41.7154 16.7325 41.8281 17.1041 41.8281 17.4842C41.8275 17.9937 41.6248 18.4822 41.2646 18.8425C40.9043 19.2028 40.4158 19.4055 39.9062 19.4061ZM51.4375 39.9061C51.4375 40.2862 51.3248 40.6577 51.1136 40.9738C50.9024 41.2898 50.6023 41.5362 50.2511 41.6816C49.8999 41.8271 49.5135 41.8652 49.1407 41.791C48.7679 41.7169 48.4254 41.5338 48.1566 41.265C47.8879 40.9963 47.7048 40.6538 47.6307 40.281C47.5565 39.9082 47.5946 39.5218 47.74 39.1706C47.8855 38.8194 48.1318 38.5193 48.4479 38.3081C48.7639 38.0969 49.1355 37.9842 49.5156 37.9842C50.0251 37.9848 50.5136 38.1875 50.8739 38.5477C51.2342 38.908 51.4369 39.3965 51.4375 39.9061ZM49.5156 29.0154C49.1355 29.0154 48.7639 28.9027 48.4479 28.6915C48.1318 28.4804 47.8855 28.1802 47.74 27.829C47.5946 27.4779 47.5565 27.0914 47.6307 26.7186C47.7048 26.3458 47.8879 26.0034 48.1566 25.7346C48.4254 25.4658 48.7679 25.2828 49.1407 25.2086C49.5135 25.1345 49.8999 25.1725 50.2511 25.318C50.6023 25.4634 50.9024 25.7098 51.1136 26.0258C51.3248 26.3419 51.4375 26.7134 51.4375 27.0936C51.4369 27.6031 51.2342 28.0916 50.8739 28.4519C50.5136 28.8122 50.0251 29.0148 49.5156 29.0154ZM27.7344 27.7342V42.4686C27.7348 42.8082 27.8699 43.1339 28.1101 43.3741C28.3503 43.6143 28.6759 43.7494 29.0156 43.7498H36.0625V45.0311H29.0156C28.3362 45.0303 27.6849 44.7601 27.2045 44.2797C26.7241 43.7993 26.4539 43.1479 26.4531 42.4686V27.7342H27.7344ZM42.4687 43.1092V36.1078C42.4697 35.7712 42.4038 35.4377 42.275 35.1267C42.1462 34.8156 41.9569 34.5333 41.7182 34.2959L40.5469 33.1246V37.7188L41.6405 38.8124L40.7345 39.7184L39.4532 38.4372L37.2887 36.2727C37.222 36.206 37.1428 36.1531 37.0557 36.117C36.9685 36.0809 36.8751 36.0623 36.7808 36.0623C36.6864 36.0623 36.593 36.0809 36.5059 36.117C36.4187 36.1531 36.3396 36.206 36.2729 36.2728C36.2062 36.3395 36.1533 36.4187 36.1172 36.5058C36.0811 36.593 36.0625 36.6864 36.0625 36.7807C36.0625 36.875 36.0811 36.9684 36.1172 37.0556C36.1533 37.1427 36.2062 37.2219 36.2729 37.2886L38.4374 39.4531C38.5421 39.5578 38.6073 39.6956 38.6219 39.8429C38.6365 39.9903 38.5996 40.1382 38.5174 40.2614C38.1916 40.7516 38.0008 41.319 37.9643 41.9065C37.9277 42.4939 38.0467 43.0806 38.3092 43.6074L38.5575 44.1039C38.6019 44.1929 38.6251 44.291 38.625 44.3904V45.0311H37.3437V44.5417L37.1631 44.1804C36.84 43.5321 36.6735 42.8172 36.6768 42.0929C36.6801 41.3686 36.8532 40.6552 37.1822 40.0099L35.3668 38.1946C34.9945 37.819 34.7861 37.3112 34.7873 36.7824C34.7884 36.2535 34.999 35.7467 35.373 35.3727C35.747 34.9988 36.2538 34.7882 36.7827 34.7871C37.3115 34.786 37.8193 34.9944 38.1948 35.3668L39.2656 36.4376V25.1717C39.2652 24.832 39.1301 24.5063 38.8899 24.2662C38.6497 24.026 38.3241 23.8908 37.9844 23.8904H36.4584L35.9948 24.8176C35.9416 24.924 35.8598 25.0135 35.7586 25.076C35.6574 25.1386 35.5408 25.1717 35.4219 25.1717H31.5781C31.4592 25.1717 31.3425 25.1386 31.2413 25.076C31.1401 25.0135 31.0584 24.924 31.0052 24.8176L30.5416 23.8904H29.0156C28.6759 23.8908 28.3503 24.026 28.1101 24.2662C27.8699 24.5063 27.7348 24.832 27.7344 25.1717V26.4529H26.4531V25.1717C26.4539 24.4923 26.7241 23.841 27.2045 23.3606C27.6849 22.8802 28.3362 22.6099 29.0156 22.6092H37.9844C38.6637 22.6099 39.3151 22.8802 39.7955 23.3606C40.2759 23.841 40.5461 24.4923 40.5469 25.1717V31.3126L42.6242 33.3899C42.9822 33.746 43.2661 34.1695 43.4593 34.6361C43.6526 35.1026 43.7514 35.6028 43.75 36.1078V43.1092H42.4687ZM32.2187 41.1873H34.7812V42.4686H32.2187V41.1873ZM34.9689 33.3122C34.579 32.9232 34.0507 32.7047 33.5 32.7047C32.9492 32.7047 32.421 32.9232 32.0311 33.3122L31.1251 32.4062C31.7555 31.7773 32.6096 31.4241 33.5 31.4241C34.3904 31.4241 35.2445 31.7773 35.8749 32.4062L34.9689 33.3122ZM36.8907 31.7012C36.4455 31.2559 35.9168 30.9027 35.3351 30.6617C34.7533 30.4207 34.1297 30.2967 33.5 30.2967C32.8703 30.2967 32.2467 30.4207 31.6649 30.6617C31.0831 30.9027 30.5545 31.2559 30.1092 31.7012L29.2032 30.7953C30.3437 29.6574 31.889 29.0183 33.5 29.0183C35.111 29.0183 36.6563 29.6574 37.7967 30.7953L36.8907 31.7012ZM34.1406 35.4217V36.7029H32.8594V35.4217H34.1406ZM30.2969 35.4217H31.5781V36.7029H30.2969V35.4217Z" fill="white"/>
<circle cx="33.5" cy="33.5" r="33" stroke="white"/>
</svg>
