<svg width="67" height="67" viewBox="0 0 67 67" fill="none" xmlns="http://www.w3.org/2000/svg">
<path d="M42.3125 18.2656C38.7114 18.2656 35.7812 21.2729 35.7812 24.9688C35.7812 28.6646 38.7114 31.6719 42.3125 31.6719C45.9136 31.6719 48.8438 28.6646 48.8438 24.9688C48.8438 21.2729 45.9136 18.2656 42.3125 18.2656ZM42.3125 30.4531C39.3663 30.4531 36.9688 27.9925 36.9688 24.9688C36.9688 21.945 39.3663 19.4844 42.3125 19.4844C45.2587 19.4844 47.6562 21.945 47.6562 24.9688C47.6562 27.9925 45.2587 30.4531 42.3125 30.4531Z" fill="white"/>
<path d="M50.7829 22.162C50.6357 21.6915 50.4528 21.2363 50.2373 20.8037L51.0163 19.2504L47.8848 16.0365L46.3714 16.836C45.9498 16.6148 45.5063 16.4271 45.0479 16.276L44.5266 14.6094H40.0978L39.5777 16.2754C39.1193 16.4265 38.6758 16.6142 38.2542 16.8354L36.7408 16.0359L33.6093 19.2498L34.3372 20.7031H17.375C16.3929 20.7031 15.5938 21.5233 15.5938 22.5312V48.125C15.5938 49.1329 16.3929 49.9531 17.375 49.9531H38.563C39.2315 51.3919 40.6589 52.3906 42.3125 52.3906C44.6044 52.3906 46.4688 50.4772 46.4688 48.125C46.4688 45.9806 44.9173 44.2055 42.9062 43.9081V36.5469H41.7188V43.9081C39.7077 44.2055 38.1562 45.9806 38.1562 48.125C38.1562 48.3322 38.1758 48.5345 38.2038 48.7344H17.375C17.0478 48.7344 16.7812 48.4608 16.7812 48.125V29.2344H34.3378L33.6093 30.6871L36.7408 33.901L38.2542 33.1015C38.6758 33.3227 39.1193 33.5104 39.5777 33.6615L40.0984 35.3281H44.5272L45.0473 33.6621C45.5057 33.511 45.9492 33.3233 46.3708 33.1021L47.8843 33.9016L51.0157 30.6877L50.2367 29.135C50.4522 28.703 50.6345 28.2478 50.7823 27.7767L52.4062 27.2411V22.6958L50.7829 22.162ZM42.3125 45.0781C43.9495 45.0781 45.2812 46.445 45.2812 48.125C45.2812 49.805 43.9495 51.1719 42.3125 51.1719C40.6755 51.1719 39.3438 49.805 39.3438 48.125C39.3438 46.445 40.6755 45.0781 42.3125 45.0781ZM16.7812 22.5312C16.7812 22.1955 17.0478 21.9219 17.375 21.9219H33.9282C33.9002 22.0023 33.8682 22.0803 33.8427 22.162L32.2188 22.6964V27.2417L33.8421 27.7755C33.8676 27.8572 33.9002 27.9352 33.9276 28.0156H16.7812V22.5312ZM51.2188 26.3526L49.8199 26.8127L49.7332 27.1278C49.5675 27.7298 49.3372 28.3026 49.0486 28.831L48.8924 29.1168L49.5634 30.4543L47.6568 32.411L46.3536 31.7231L46.0757 31.8827C45.5597 32.1789 45.001 32.4159 44.4156 32.5853L44.1086 32.6743L43.6609 34.1094H40.9647L40.5164 32.6737L40.2094 32.5847C39.624 32.4147 39.0653 32.1783 38.5493 31.8821L38.2714 31.7225L36.9682 32.4104L35.0616 30.4537L35.7326 29.1162L35.5764 28.8304C35.2878 28.302 35.0575 27.7286 34.8918 27.1272L34.8051 26.8121L33.4062 26.3526V23.5855L34.8051 23.1254L34.8918 22.8103C35.0575 22.2095 35.2878 21.6361 35.5764 21.1065L35.732 20.8213L35.0616 19.4838L36.9682 17.5271L38.2714 18.215L38.5493 18.0554C39.0653 17.7592 39.624 17.5222 40.2094 17.3528L40.5164 17.2638L40.9641 15.8281H43.6603L44.1086 17.2638L44.4156 17.3528C45.001 17.5228 45.5597 17.7592 46.0757 18.0554L46.3536 18.215L47.6568 17.5271L49.5634 19.4838L48.893 20.8213L49.0486 21.1065C49.3372 21.6361 49.5681 22.2095 49.7332 22.8103L49.8199 23.1254L51.2188 23.5849V26.3526Z" fill="white"/>
<path d="M43.6185 22.8973L45.1326 24.9691L43.6185 27.041L44.5685 27.7723L46.617 24.9691L44.5685 22.166L43.6185 22.8973Z" fill="white"/>
<path d="M40.0563 22.166L38.0078 24.9691L40.0563 27.7723L41.0063 27.041L39.4922 24.9691L41.0063 22.8973L40.0563 22.166Z" fill="white"/>
<path d="M41.1398 29.1497L42.3322 20.6181L43.5078 20.7911L42.3155 29.3227L41.1398 29.1497Z" fill="white"/>
<path d="M25.0938 23.1406H19.1562C18.5013 23.1406 17.9688 23.6872 17.9688 24.3594V25.5781C17.9688 26.2503 18.5013 26.7969 19.1562 26.7969H25.0938C25.7487 26.7969 26.2812 26.2503 26.2812 25.5781V24.3594C26.2812 23.6872 25.7487 23.1406 25.0938 23.1406ZM22.7188 24.3594V25.5781H21.5312V24.3594H22.7188ZM19.1562 24.3594H20.3438V25.5781H19.1562V24.3594ZM23.9062 25.5781V24.3594H25.0938L25.0943 25.5781H23.9062Z" fill="white"/>
<path d="M42.3125 49.9531C43.2946 49.9531 44.0938 49.1329 44.0938 48.125C44.0938 47.1171 43.2946 46.2969 42.3125 46.2969C41.3304 46.2969 40.5312 47.1171 40.5312 48.125C40.5312 49.1329 41.3304 49.9531 42.3125 49.9531ZM42.3125 47.5156C42.6397 47.5156 42.9062 47.7892 42.9062 48.125C42.9062 48.4608 42.6397 48.7344 42.3125 48.7344C41.9853 48.7344 41.7188 48.4608 41.7188 48.125C41.7188 47.7892 41.9853 47.5156 42.3125 47.5156Z" fill="white"/>
<path d="M50.0312 43.9715V41.779L47.6562 39.3415V34.7188H46.4688V39.846L48.8438 42.2835V43.9715C48.1544 44.2238 47.6562 44.8941 47.6562 45.6875C47.6562 46.6954 48.4554 47.5156 49.4375 47.5156C50.4196 47.5156 51.2188 46.6954 51.2188 45.6875C51.2188 44.8941 50.7206 44.2238 50.0312 43.9715ZM49.4375 46.2969C49.1103 46.2969 48.8438 46.0233 48.8438 45.6875C48.8438 45.3517 49.1103 45.0781 49.4375 45.0781C49.7647 45.0781 50.0312 45.3517 50.0312 45.6875C50.0312 46.0233 49.7647 46.2969 49.4375 46.2969Z" fill="white"/>
<path d="M38.1562 39.846V34.7188H36.9688V39.3415L34.5938 41.779V43.9715C33.9044 44.2238 33.4062 44.8941 33.4062 45.6875C33.4062 46.6954 34.2054 47.5156 35.1875 47.5156C36.1696 47.5156 36.9688 46.6954 36.9688 45.6875C36.9688 44.8941 36.4706 44.2238 35.7812 43.9715V42.2835L38.1562 39.846ZM35.1875 46.2969C34.8603 46.2969 34.5938 46.0233 34.5938 45.6875C34.5938 45.3517 34.8603 45.0781 35.1875 45.0781C35.5147 45.0781 35.7812 45.3517 35.7812 45.6875C35.7812 46.0233 35.5147 46.2969 35.1875 46.2969Z" fill="white"/>
<path d="M20.9375 31.6719H21.5312V30.4531H20.9375C19.9554 30.4531 19.1562 31.2733 19.1562 32.2812C19.1562 32.617 18.8897 32.8906 18.5625 32.8906H17.9688V34.1094H18.5625C18.8897 34.1094 19.1562 34.383 19.1562 34.7188C19.1562 35.7267 19.9554 36.5469 20.9375 36.5469H21.5312V35.3281H20.9375C20.6103 35.3281 20.3438 35.0545 20.3438 34.7188C20.3438 34.2489 20.165 33.8242 19.8806 33.5C20.165 33.1758 20.3438 32.7511 20.3438 32.2812C20.3438 31.9455 20.6103 31.6719 20.9375 31.6719Z" fill="white"/>
<path d="M22.7188 30.4531H29.8438V31.6719H22.7188V30.4531Z" fill="white"/>
<path d="M22.7188 32.8906H29.8438V34.1094H22.7188V32.8906Z" fill="white"/>
<path d="M28.6562 35.3281H29.8438V36.5469H28.6562V35.3281Z" fill="white"/>
<path d="M22.7188 35.3281H27.4688V36.5469H22.7188V35.3281Z" fill="white"/>
<path d="M31.0312 44.4688C31.0312 44.133 31.2978 43.8594 31.625 43.8594H32.2188V42.6406H31.625C31.2978 42.6406 31.0312 42.367 31.0312 42.0312C31.0312 41.0233 30.2321 40.2031 29.25 40.2031H28.6562V41.4219H29.25C29.5772 41.4219 29.8438 41.6955 29.8438 42.0312C29.8438 42.5011 30.0225 42.9258 30.3069 43.25C30.0219 43.5742 29.8438 43.9989 29.8438 44.4688C29.8438 44.8045 29.5772 45.0781 29.25 45.0781H28.6562V46.2969H29.25C30.2321 46.2969 31.0312 45.4767 31.0312 44.4688Z" fill="white"/>
<path d="M20.3438 45.0781H27.4688V46.2969H20.3438V45.0781Z" fill="white"/>
<path d="M22.7188 42.6406H27.4688V43.8594H22.7188V42.6406Z" fill="white"/>
<path d="M20.3438 42.6406H21.5312V43.8594H20.3438V42.6406Z" fill="white"/>
<path d="M20.3438 40.2031H27.4688V41.4219H20.3438V40.2031Z" fill="white"/>
<path d="M17.9688 37.7656H29.8438V38.9844H17.9688V37.7656Z" fill="white"/>
<circle cx="33.5" cy="33.5" r="33" stroke="white"/>
</svg>
