<svg width="67" height="67" viewBox="0 0 67 67" fill="none" xmlns="http://www.w3.org/2000/svg">
<path d="M36.4838 33.9323V32.3182H41.714C41.8984 32.3182 42.0828 32.2709 42.2481 32.1815L47.5564 29.3011C48.0881 29.0122 48.4193 28.4306 48.4193 27.7841C48.4193 27.1377 48.0881 26.556 47.5558 26.2672L42.2475 23.3867C42.0828 23.2974 41.8978 23.2501 41.714 23.2501H33.7649C33.3508 22.4793 32.5893 21.9546 31.7097 21.9546C31.2149 21.9546 30.7548 22.1191 30.3735 22.3996C30.047 21.3898 29.1698 20.6592 28.129 20.6592C27.4123 20.6592 26.7767 21.0102 26.3387 21.5543C25.9007 21.0102 25.2651 20.6592 24.5484 20.6592C23.5076 20.6592 22.6303 21.3898 22.3039 22.3996C21.9226 22.1191 21.4625 21.9546 20.9677 21.9546C20.0881 21.9546 19.3266 22.4793 18.9125 23.2501H17.9839C16.3386 23.2501 15 24.7029 15 26.4887V29.0796C15 30.8653 16.3386 32.3182 17.9839 32.3182H18.5806V35.1649C18.5806 36.7512 18.9954 38.2876 19.7742 39.6258V43.9772C19.7742 44.6916 20.3095 45.2726 20.9677 45.2726V49.159H32.9032V45.2726C33.5614 45.2726 34.0968 44.6916 34.0968 43.9772V39.6711L35.0456 38.3841C35.973 37.1249 36.4838 35.5438 36.4838 33.9323ZM17.9839 31.0227C16.9968 31.0227 16.1935 30.1509 16.1935 29.0796V26.4887C16.1935 25.4173 16.9968 24.5455 17.9839 24.5455H18.5806V31.0227H17.9839ZM42.4516 24.9458L44.8387 26.2412V29.327L42.4516 30.6224V24.9458ZM41.258 31.0227H36.047C35.1071 30.4702 34.4512 29.5304 34.2078 28.4318H41.258V31.0227ZM47.2258 27.7841C47.2258 27.937 47.1476 28.0737 47.0217 28.1423L46.0322 28.6793V26.889L47.0217 27.4259C47.1476 27.4946 47.2258 27.6313 47.2258 27.7841ZM41.258 24.5455V27.1364H34.0968V24.5455H41.258ZM26.6747 42.1305L26.1006 43.584C26.0057 43.823 25.7909 43.9772 25.5521 43.9772H20.9677V40.0908H25.7419C25.7419 40.9232 26.1113 41.6564 26.6747 42.1305ZM28.129 41.3863C27.4708 41.3863 26.9355 40.8053 26.9355 40.0908C26.9355 39.3764 27.4708 38.7954 28.129 38.7954C28.7873 38.7954 29.3226 39.3764 29.3226 40.0908C29.3226 40.8053 28.7873 41.3863 28.129 41.3863ZM31.7097 47.8635H22.1613V45.2726H25.5521C26.2689 45.2726 26.9146 44.8101 27.1975 44.0951L27.771 42.6429C27.8885 42.6617 28.0061 42.6817 28.129 42.6817C28.252 42.6817 28.3695 42.6617 28.4871 42.6422L29.0606 44.0951C29.3435 44.8101 29.9892 45.2726 30.7059 45.2726H31.7097V47.8635ZM32.9032 43.9772H30.7059C30.4672 43.9772 30.2517 43.823 30.1574 43.5853L29.5834 42.1312C30.1467 41.6564 30.5161 40.9232 30.5161 40.0908H32.9032V43.9772ZM33.2129 38.7954H30.1843C29.7701 38.0246 29.0087 37.5 28.129 37.5C27.2494 37.5 26.4879 38.0246 26.0737 38.7954H20.704C20.097 37.6975 19.7742 36.4506 19.7742 35.1649V24.5455C19.7742 23.8311 20.3095 23.2501 20.9677 23.2501C21.626 23.2501 22.1613 23.8311 22.1613 24.5455V29.7273H23.3548V23.2501C23.3548 22.5356 23.8901 21.9546 24.5484 21.9546C25.2066 21.9546 25.7419 22.5356 25.7419 23.2501V29.7273H26.9355V23.2501C26.9355 22.5356 27.4708 21.9546 28.129 21.9546C28.7873 21.9546 29.3226 22.5356 29.3226 23.2501V29.7273H30.5161V24.5455C30.5161 23.8311 31.0514 23.2501 31.7097 23.2501C32.3679 23.2501 32.9032 23.8311 32.9032 24.5455V27.4784C32.9032 29.3749 33.8091 31.0933 35.2903 32.0539V33.9323C35.2903 35.2511 34.8726 36.5446 34.1129 37.5738L33.2129 38.7954Z" fill="white"/>
<path d="M47.2256 47.8634H46.032V42.6816H41.2578V47.8634H40.0642V40.0907H35.29V49.1588H51.9998V33.6135H47.2256V47.8634ZM38.8707 47.8634H36.4836V41.3862H38.8707V47.8634ZM42.4513 43.9771H44.8384V47.8634H42.4513V43.9771ZM48.4191 34.909H50.8062V47.8634H48.4191V34.909Z" fill="white"/>
<path d="M47.226 16.7726C48.5424 16.7726 49.613 15.6106 49.613 14.1817C49.613 12.7528 48.5424 11.5908 47.226 11.5908C45.9095 11.5908 44.8389 12.7528 44.8389 14.1817C44.8389 15.6106 45.9095 16.7726 47.226 16.7726ZM47.226 12.8863C47.8842 12.8863 48.4195 13.4673 48.4195 14.1817C48.4195 14.8961 47.8842 15.4772 47.226 15.4772C46.5677 15.4772 46.0324 14.8961 46.0324 14.1817C46.0324 13.4673 46.5677 12.8863 47.226 12.8863Z" fill="white"/>
<path d="M20.3709 20.659C21.358 20.659 22.1613 19.7872 22.1613 18.7158C22.1613 18.5656 22.1422 18.4211 22.1123 18.2812L25.3128 16.0705C25.7389 16.5026 26.3071 16.7727 26.9355 16.7727C27.6516 16.7727 28.2878 16.4216 28.7258 15.8775L34.1511 18.8221C34.1165 18.997 34.0968 19.1777 34.0968 19.3636C34.0968 20.7924 35.1674 21.9545 36.4839 21.9545C37.8003 21.9545 38.871 20.7924 38.871 19.3636C38.871 19.2185 38.8525 19.0786 38.8316 18.94L43.1457 16.8588C43.9835 18.357 45.4964 19.3636 47.2258 19.3636C49.8582 19.3636 52 17.0389 52 14.1818C52 11.3247 49.8582 9 47.2258 9C44.5934 9 42.4516 11.3247 42.4516 14.1818C42.4516 14.7019 42.5244 15.2032 42.6563 15.6774L38.3428 17.7579C37.9054 17.1626 37.2388 16.7727 36.4839 16.7727C35.7677 16.7727 35.1316 17.1237 34.6935 17.6678L29.2683 14.7233C29.3029 14.5484 29.3226 14.3677 29.3226 14.1818C29.3226 12.7529 28.252 11.5909 26.9355 11.5909C25.619 11.5909 24.5484 12.7529 24.5484 14.1818C24.5484 14.4603 24.5997 14.7239 24.6749 14.9752L21.4672 17.1911C21.1635 16.9327 20.7857 16.7727 20.3709 16.7727C19.3839 16.7727 18.5806 17.6445 18.5806 18.7158C18.5806 19.7872 19.3839 20.659 20.3709 20.659ZM47.2258 10.2954C49.2005 10.2954 50.8064 12.0385 50.8064 14.1818C50.8064 16.3251 49.2005 18.0681 47.2258 18.0681C45.2511 18.0681 43.6452 16.3251 43.6452 14.1818C43.6452 12.0385 45.2511 10.2954 47.2258 10.2954ZM36.4839 18.0681C37.1421 18.0681 37.6774 18.6491 37.6774 19.3636C37.6774 20.078 37.1421 20.659 36.4839 20.659C35.8256 20.659 35.2903 20.078 35.2903 19.3636C35.2903 18.6491 35.8256 18.0681 36.4839 18.0681ZM26.9355 12.8863C27.5937 12.8863 28.129 13.4674 28.129 14.1818C28.129 14.8962 27.5937 15.4772 26.9355 15.4772C26.2772 15.4772 25.7419 14.8962 25.7419 14.1818C25.7419 13.4674 26.2772 12.8863 26.9355 12.8863ZM20.3709 18.0681C20.7004 18.0681 20.9677 18.3589 20.9677 18.7158C20.9677 19.0727 20.7004 19.3636 20.3709 19.3636C20.0415 19.3636 19.7742 19.0727 19.7742 18.7158C19.7742 18.3589 20.0415 18.0681 20.3709 18.0681Z" fill="white"/>
<path d="M44.8389 21.9546H46.0323V23.2501H44.8389V21.9546Z" fill="white"/>
<path d="M47.2256 21.9546H48.4191V23.2501H47.2256V21.9546Z" fill="white"/>
<path d="M49.6133 21.9546H50.8068V23.2501H49.6133V21.9546Z" fill="white"/>
<circle cx="33.5" cy="33.5" r="33" stroke="white"/>
</svg>
