<svg width="177" height="187" viewBox="0 0 177 187" fill="none" xmlns="http://www.w3.org/2000/svg">
<g filter="url(#filter0_dd)">
<path d="M83.3539 97V100H86.3539V97H83.3539ZM23.8227 97H20.8227V100H23.8227V97ZM23.8227 84.1094L21.649 82.0417L20.8227 82.9104V84.1094H23.8227ZM51.2445 55.2812L53.4182 57.3489L53.4593 57.3057L53.4987 57.2608L51.2445 55.2812ZM44.682 29.5586L47.0953 31.3407L47.1018 31.3319L47.1082 31.3231L44.682 29.5586ZM41.8695 39.1094V42.1094H44.8695V39.1094H41.8695ZM22.0648 39.1094H19.0648V42.1094H22.0648V39.1094ZM25.9906 24.6367L28.5711 26.1668L28.577 26.1568L25.9906 24.6367ZM73.7445 16.8438L71.7907 19.1203L71.7995 19.1278L73.7445 16.8438ZM79.3695 45.0273L82.1597 46.1296L82.1643 46.118L79.3695 45.0273ZM73.5102 55.0469L71.1165 53.2384L71.1134 53.2426L73.5102 55.0469ZM60.7953 69.0508L58.674 66.9295L58.5981 67.0053L58.5279 67.0864L60.7953 69.0508ZM49.7797 81.7656L47.5123 79.8012L43.2113 84.7656H49.7797V81.7656ZM83.3539 81.7656H86.3539V78.7656H83.3539V81.7656ZM83.3539 94H23.8227V100H83.3539V94ZM26.8227 97V84.1094H20.8227V97H26.8227ZM25.9963 86.177L53.4182 57.3489L49.0709 53.2136L21.649 82.0417L25.9963 86.177ZM53.4987 57.2608C56.9606 53.3186 59.6427 49.6869 61.4727 46.376C63.2864 43.0947 64.3812 39.9172 64.3812 36.9414H58.3812C58.3812 38.4968 57.7867 40.6417 56.2214 43.4736C54.6725 46.276 52.2862 49.5486 48.9903 53.3017L53.4987 57.2608ZM64.3812 36.9414C64.3812 32.8877 63.5037 29.2953 61.2797 26.6373L56.6781 30.4877C57.6572 31.6579 58.3812 33.6514 58.3812 36.9414H64.3812ZM61.2797 26.6373C58.9832 23.8927 55.7263 22.6914 52.0062 22.6914V28.6914C54.3799 28.6914 55.7715 29.4041 56.6781 30.4877L61.2797 26.6373ZM52.0062 22.6914C47.9732 22.6914 44.6557 24.4942 42.2558 27.7941L47.1082 31.3231C48.4583 29.4667 50.0237 28.6914 52.0062 28.6914V22.6914ZM42.2687 27.7765C39.9373 30.9336 38.8695 34.7794 38.8695 39.1094H44.8695C44.8695 35.7831 45.6768 33.2617 47.0953 31.3407L42.2687 27.7765ZM41.8695 36.1094H22.0648V42.1094H41.8695V36.1094ZM25.0648 39.1094C25.0648 34.4021 26.2343 30.108 28.5711 26.1668L23.4101 23.1067C20.5126 27.9935 19.0648 33.3479 19.0648 39.1094H25.0648ZM28.577 26.1568C30.9095 22.1881 34.1344 19.0949 38.31 16.8492L35.4681 11.5649C30.3469 14.3192 26.3061 18.1791 23.4042 23.1166L28.577 26.1568ZM38.31 16.8492C42.484 14.6044 47.1841 13.457 52.475 13.457V7.45703C46.2815 7.45703 40.591 8.8097 35.4681 11.5649L38.31 16.8492ZM52.475 13.457C61.268 13.457 67.5599 15.4891 71.7907 19.1203L75.6984 14.5672C70.0073 9.68274 62.1195 7.45703 52.475 7.45703V13.457ZM71.7995 19.1278C75.9881 22.6947 78.2445 27.8885 78.2445 35.1836H84.2445C84.2445 26.5412 81.5009 19.5085 75.6895 14.5597L71.7995 19.1278ZM78.2445 35.1836C78.2445 38.161 77.6924 41.0729 76.5748 43.9367L82.1643 46.118C83.5467 42.5756 84.2445 38.925 84.2445 35.1836H78.2445ZM76.5794 43.9251C75.4533 46.7753 73.6547 49.8791 71.1166 53.2384L75.9038 56.8554C78.6781 53.1834 80.7857 49.6075 82.1597 46.1296L76.5794 43.9251ZM71.1134 53.2426C68.625 56.5481 64.5058 61.0976 58.674 66.9295L62.9166 71.1721C68.8036 65.2852 73.161 60.4988 75.9069 56.8512L71.1134 53.2426ZM58.5279 67.0864L47.5123 79.8012L52.0471 83.73L63.0627 71.0152L58.5279 67.0864ZM49.7797 84.7656H83.3539V78.7656H49.7797V84.7656ZM80.3539 81.7656V97H86.3539V81.7656H80.3539ZM152.56 88.7969L150.253 86.8792L150.246 86.8877L152.56 88.7969ZM108.615 19.8906L106.308 17.9729L106.301 17.9815L108.615 19.8906ZM152.56 19.9492L150.247 21.8599L152.56 19.9492ZM138.205 30.3203L135.549 31.7161L135.553 31.7232L135.557 31.7303L138.205 30.3203ZM123.146 29.9688L120.524 28.5118L120.516 28.5258L120.508 28.5399L123.146 29.9688ZM120.685 42.7422L117.686 42.6806L117.685 42.7114V42.7422H120.685ZM123.087 78.543L120.447 79.9673L120.451 79.9747L120.455 79.982L123.087 78.543ZM138.146 78.6602L140.762 80.1292L140.766 80.1217L140.77 80.1141L138.146 78.6602ZM140.607 65.125L143.607 65.1441L143.607 65.1346V65.125H140.607ZM157.353 62.1367C157.353 73.2476 154.846 81.3541 150.253 86.8792L154.867 90.7146C160.665 83.7396 163.353 74.0727 163.353 62.1367H157.353ZM150.246 86.8877C145.755 92.3311 139.385 95.1719 130.705 95.1719V101.172C140.852 101.172 149.053 97.7626 154.874 90.706L150.246 86.8877ZM130.705 95.1719C121.944 95.1719 115.515 92.3101 110.986 86.8276L106.361 90.6489C112.222 97.7446 120.481 101.172 130.705 101.172V95.1719ZM110.986 86.8276C106.385 81.257 103.88 73.162 103.88 62.1367H97.8805C97.8805 74.002 100.572 83.6414 106.361 90.6489L110.986 86.8276ZM103.88 62.1367V46.5508H97.8805V62.1367H103.88ZM103.88 46.5508C103.88 35.4353 106.37 27.3253 110.929 21.7998L106.301 17.9815C100.547 24.956 97.8805 34.6194 97.8805 46.5508H103.88ZM110.922 21.8083C115.451 16.3596 121.864 13.5156 130.587 13.5156V7.51562C120.405 7.51562 112.169 10.9216 106.308 17.9729L110.922 21.8083ZM130.587 13.5156C139.305 13.5156 145.716 16.3744 150.247 21.8599L154.873 18.0386C149.014 10.9459 140.777 7.51562 130.587 7.51562V13.5156ZM150.247 21.8599C154.848 27.4289 157.353 35.5421 157.353 46.6094H163.353C163.353 34.7079 160.663 25.0477 154.873 18.0386L150.247 21.8599ZM157.353 46.6094V62.1367H163.353V46.6094H157.353ZM143.607 44.0312C143.607 37.7418 142.804 32.5741 140.853 28.9103L135.557 31.7303C136.809 34.0821 137.607 38.0551 137.607 44.0312H143.607ZM140.86 28.9245C139.846 26.9946 138.456 25.408 136.643 24.3201C134.831 23.2332 132.774 22.75 130.587 22.75V28.75C131.878 28.75 132.828 29.0285 133.556 29.4651C134.282 29.9006 134.962 30.5991 135.549 31.7161L140.86 28.9245ZM130.587 22.75C128.469 22.75 126.47 23.191 124.699 24.1949C122.919 25.2037 121.537 26.687 120.524 28.5118L125.769 31.4257C126.317 30.438 126.957 29.812 127.658 29.4145C128.368 29.0121 129.307 28.75 130.587 28.75V22.75ZM120.508 28.5399C118.642 31.9846 117.806 36.819 117.686 42.6806L123.685 42.8038C123.798 37.2591 124.603 33.5779 125.784 31.3976L120.508 28.5399ZM117.685 42.7422V64.5391H123.685V42.7422H117.685ZM117.685 64.5391C117.685 71.0352 118.481 76.3231 120.447 79.9673L125.728 77.1186C124.491 74.8254 123.685 70.7773 123.685 64.5391H117.685ZM120.455 79.982C121.483 81.8614 122.884 83.3932 124.694 84.4374C126.497 85.478 128.538 85.9375 130.705 85.9375V79.9375C129.394 79.9375 128.428 79.6646 127.692 79.2403C126.963 78.8197 126.294 78.1543 125.72 77.104L120.455 79.982ZM130.705 85.9375C132.817 85.9375 134.811 85.4858 136.58 84.4691C138.352 83.4501 139.735 81.9577 140.762 80.1292L135.53 77.1911C134.956 78.2142 134.297 78.8605 133.59 79.2672C132.878 79.6763 131.952 79.9375 130.705 79.9375V85.9375ZM140.77 80.1141C142.745 76.5501 143.567 71.4173 143.607 65.1441L137.607 65.1059C137.569 71.0983 136.75 74.989 135.522 77.2062L140.77 80.1141ZM143.607 65.125V44.0312H137.607V65.125H143.607ZM29.0293 145.324L26.1407 146.134L28.9554 156.175L31.9066 146.173L29.0293 145.324ZM33.8633 128.942V125.942H31.6206L30.9859 128.093L33.8633 128.942ZM43.5581 128.942L46.3904 129.931L47.7832 125.942H43.5581V128.942ZM31.7148 162.861L34.4876 164.006L34.5196 163.929L34.5472 163.85L31.7148 162.861ZM31.2046 164.096L33.9428 165.322L33.9607 165.282L33.9774 165.241L31.2046 164.096ZM18.5557 169.199H15.5557V171.487L17.763 172.092L18.5557 169.199ZM18.5557 162.727V159.727H15.5557V162.727H18.5557ZM22.6377 162.163L21.2405 159.508L21.1983 159.53L21.1569 159.554L22.6377 162.163ZM24.1416 160.202L21.3326 159.149L21.3161 159.193L21.301 159.237L24.1416 160.202ZM24.8667 158.269L27.6757 159.322L28.0545 158.312L27.7033 157.292L24.8667 158.269ZM14.769 128.942V125.942H10.5632L11.9325 129.919L14.769 128.942ZM24.437 128.942L27.3257 128.133L26.7117 125.942H24.437V128.942ZM31.9066 146.173L36.7406 129.791L30.9859 128.093L26.152 144.475L31.9066 146.173ZM33.8633 131.942H43.5581V125.942H33.8633V131.942ZM40.7258 127.953L28.8825 161.872L34.5472 163.85L46.3904 129.931L40.7258 127.953ZM28.9421 161.716L28.4318 162.951L33.9774 165.241L34.4876 164.006L28.9421 161.716ZM28.4664 162.871C27.8238 164.306 27.0162 165.217 26.1097 165.791C25.1964 166.368 23.9723 166.736 22.2886 166.736V172.736C24.8659 172.736 27.2584 172.164 29.3171 170.861C31.3826 169.555 32.9024 167.646 33.9428 165.322L28.4664 162.871ZM22.2886 166.736C21.4106 166.736 20.4341 166.603 19.3484 166.305L17.763 172.092C19.2912 172.511 20.8033 172.736 22.2886 172.736V166.736ZM21.5557 169.199V162.727H15.5557V169.199H21.5557ZM18.5557 165.727H19.7373V159.727H18.5557V165.727ZM19.7373 165.727C21.2203 165.727 22.7968 165.522 24.1185 164.772L21.1569 159.554C21.1772 159.542 21.0961 159.592 20.8432 159.641C20.5936 159.689 20.2329 159.727 19.7373 159.727V165.727ZM24.0349 164.817C25.5818 164.003 26.4904 162.615 26.9822 161.167L21.301 159.237C21.2232 159.466 21.157 159.561 21.1436 159.578C21.1378 159.585 21.1436 159.577 21.1634 159.56C21.1837 159.542 21.2102 159.524 21.2405 159.508L24.0349 164.817ZM26.9506 161.256L27.6757 159.322L22.0577 157.215L21.3326 159.149L26.9506 161.256ZM27.7033 157.292L17.6056 127.966L11.9325 129.919L22.0301 159.245L27.7033 157.292ZM14.769 131.942H24.437V125.942H14.769V131.942ZM21.5484 129.752L26.1407 146.134L31.9179 144.514L27.3257 128.133L21.5484 129.752ZM52.3699 154.562L50.2839 156.719L50.2912 156.726L52.3699 154.562ZM49.8724 135.549L47.1765 134.233L47.1723 134.241L47.1681 134.25L49.8724 135.549ZM54.7063 130.285L56.2207 132.875L56.2288 132.87L56.237 132.865L54.7063 130.285ZM71.8938 132.219L69.6966 134.261L69.7038 134.269L71.8938 132.219ZM75.4388 146.318V149.318H78.4388V146.318H75.4388ZM57.4456 146.318V143.318H53.7941L54.5026 146.9L57.4456 146.318ZM59.5672 150.158L61.5134 147.875L59.5672 150.158ZM70.5242 148.547L72.8144 146.609L70.4645 143.832L68.1857 146.668L70.5242 148.547ZM74.66 153.435L77.0898 155.194L78.4681 153.291L76.9501 151.497L74.66 153.435ZM69.8528 157.167L71.069 159.91L71.08 159.905L69.8528 157.167ZM57.4456 140.651L54.4758 140.227L53.9866 143.651H57.4456V140.651ZM66.5765 140.651V143.651H69.5765V140.651H66.5765ZM66.5765 139.953L63.5774 139.879L63.5765 139.916V139.953H66.5765ZM65.4754 136.596L63.3064 138.669L63.3181 138.681L63.3298 138.693L65.4754 136.596ZM63.1927 155.537C59.3718 155.537 56.5549 154.424 54.4487 152.399L50.2912 156.726C53.6992 160.001 58.0976 161.537 63.1927 161.537V155.537ZM54.456 152.406C52.3505 150.369 51.2342 147.717 51.2342 144.169H45.2342C45.2342 149.144 46.875 153.42 50.2839 156.719L54.456 152.406ZM51.2342 144.169V143.417H45.2342V144.169H51.2342ZM51.2342 143.417C51.2342 140.816 51.7109 138.65 52.5766 136.848L47.1681 134.25C45.8496 136.995 45.2342 140.075 45.2342 143.417H51.2342ZM52.5683 136.865C53.428 135.104 54.6369 133.801 56.2207 132.875L53.192 127.695C50.5505 129.24 48.5368 131.446 47.1765 134.233L52.5683 136.865ZM56.237 132.865C57.8086 131.933 59.7659 131.405 62.2259 131.405V125.405C58.885 125.405 55.8294 126.131 53.1757 127.705L56.237 132.865ZM62.2259 131.405C65.6342 131.405 68.0013 132.438 69.6966 134.261L74.0911 130.176C71.0599 126.915 66.9817 125.405 62.2259 125.405V131.405ZM69.7038 134.269C71.4015 136.083 72.4388 138.789 72.4388 142.8H78.4388C78.4388 137.752 77.1127 133.404 74.0839 130.168L69.7038 134.269ZM72.4388 142.8V146.318H78.4388V142.8H72.4388ZM75.4388 143.318H57.4456V149.318H75.4388V143.318ZM54.5026 146.9C54.9345 149.083 55.9357 151.005 57.621 152.441L61.5134 147.875C61.0144 147.45 60.6013 146.811 60.3886 145.736L54.5026 146.9ZM57.621 152.441C59.3641 153.927 61.5167 154.555 63.8103 154.555V148.555C62.6307 148.555 61.9545 148.251 61.5134 147.875L57.621 152.441ZM63.8103 154.555C67.4667 154.555 70.6124 153.227 72.8627 150.426L68.1857 146.668C67.2134 147.878 65.8831 148.555 63.8103 148.555V154.555ZM68.2341 150.485L72.3698 155.372L76.9501 151.497L72.8144 146.609L68.2341 150.485ZM72.2301 151.675C71.4628 152.735 70.3113 153.674 68.6257 154.43L71.08 159.905C73.548 158.799 75.6013 157.25 77.0898 155.194L72.2301 151.675ZM68.6366 154.425C66.9824 155.159 65.1793 155.537 63.1927 155.537V161.537C65.9684 161.537 68.6054 161.002 71.069 159.91L68.6366 154.425ZM62.1722 132.388C60.1127 132.388 58.2016 133.106 56.7711 134.699C55.4332 136.189 54.7708 138.162 54.4758 140.227L60.4155 141.076C60.6217 139.632 60.9977 138.973 61.2354 138.708C61.3804 138.547 61.5819 138.388 62.1722 138.388V132.388ZM57.4456 143.651H66.5765V137.651H57.4456V143.651ZM69.5765 140.651V139.953H63.5765V140.651H69.5765ZM69.5756 140.027C69.6247 138.035 69.1194 136.033 67.621 134.499L63.3298 138.693C63.3711 138.735 63.5998 138.971 63.5774 139.879L69.5756 140.027ZM67.6444 134.524C66.1583 132.968 64.1774 132.388 62.1722 132.388V138.388C63.0315 138.388 63.2528 138.613 63.3064 138.669L67.6444 134.524ZM99.048 158L96.4143 159.437L97.2671 161H99.048V158ZM98.1886 155.395L101.119 154.754L99.7697 148.585L95.8401 153.528L98.1886 155.395ZM84.2237 156.066L82.2557 158.331L82.2618 158.336L82.2679 158.341L84.2237 156.066ZM84.8414 142.666L83.1338 140.199L84.8414 142.666ZM97.7857 140.249V143.249H100.786V140.249H97.7857ZM91.0987 137.885V140.885H94.0987V137.885H91.0987ZM82.0484 137.885H79.0484V140.885H82.0484V137.885ZM85.6202 131.037L83.8493 128.616L83.8406 128.622L85.6202 131.037ZM103.56 131.118L105.491 128.822L103.56 131.118ZM106.863 138.557H109.863V138.531L109.862 138.506L106.863 138.557ZM106.863 151.42H103.863V151.441L103.863 151.461L106.863 151.42ZM108.098 157.543H111.098V156.764L110.719 156.084L108.098 157.543ZM108.098 158V161H111.098V158H108.098ZM96.1744 151.367L94.5521 148.843L94.5382 148.852L94.5244 148.861L96.1744 151.367ZM97.7857 149.729L100.437 151.132L100.786 150.474V149.729H97.7857ZM97.7857 145.083H100.786V142.083H97.7857V145.083ZM91.2599 151.34L89.2104 153.531L89.2295 153.549L89.249 153.566L91.2599 151.34ZM101.682 156.563C101.56 156.341 101.347 155.795 101.119 154.754L95.2579 156.036C95.5314 157.286 95.8911 158.477 96.4143 159.437L101.682 156.563ZM95.8401 153.528C94.816 154.817 93.4035 155.537 91.2062 155.537V161.537C94.9887 161.537 98.231 160.163 100.537 157.262L95.8401 153.528ZM91.2062 155.537C89.1194 155.537 87.5036 154.93 86.1796 153.792L82.2679 158.341C84.7753 160.497 87.8144 161.537 91.2062 161.537V155.537ZM86.1917 153.802C84.9221 152.699 84.3502 151.435 84.3502 149.809H78.3502C78.3502 153.197 79.694 156.104 82.2557 158.331L86.1917 153.802ZM84.3502 149.809C84.3502 147.512 85.1323 146.113 86.549 145.132L83.1338 140.199C79.8956 142.441 78.3502 145.804 78.3502 149.809H84.3502ZM86.549 145.132C88.1634 144.014 90.8419 143.249 94.9928 143.249V137.249C90.2635 137.249 86.1743 138.094 83.1338 140.199L86.549 145.132ZM94.9928 143.249H97.7857V137.249H94.9928V143.249ZM100.786 140.249V138.718H94.7857V140.249H100.786ZM100.786 138.718C100.786 137.019 100.427 135.185 99.1877 133.753C97.8765 132.239 96.0603 131.716 94.3214 131.716V137.716C94.617 137.716 94.7427 137.76 94.7591 137.766C94.7654 137.768 94.7503 137.763 94.7237 137.745C94.6964 137.726 94.6711 137.703 94.6516 137.68C94.5667 137.582 94.7857 137.749 94.7857 138.718H100.786ZM94.3214 131.716C92.7973 131.716 91.1007 132.091 89.801 133.369C88.4919 134.657 88.0987 136.354 88.0987 137.885H94.0987C94.0987 137.603 94.1357 137.479 94.1413 137.462C94.1432 137.457 94.1363 137.478 94.1128 137.517C94.0887 137.556 94.0538 137.602 94.0078 137.648C93.9619 137.693 93.9172 137.725 93.882 137.746C93.8479 137.766 93.8324 137.77 93.8459 137.765C93.879 137.754 94.021 137.716 94.3214 137.716V131.716ZM91.0987 134.885H82.0484V140.885H91.0987V134.885ZM85.0484 137.885C85.0484 136.085 85.739 134.676 87.3998 133.452L83.8406 128.622C80.7391 130.907 79.0484 134.064 79.0484 137.885H85.0484ZM87.3912 133.459C89.1611 132.164 91.5494 131.405 94.7779 131.405V125.405C90.5944 125.405 86.8775 126.401 83.8493 128.616L87.3912 133.459ZM94.7779 131.405C98.0057 131.405 100.173 132.188 101.628 133.413L105.491 128.822C102.65 126.431 98.9623 125.405 94.7779 125.405V131.405ZM101.628 133.413C103.027 134.591 103.822 136.205 103.863 138.608L109.862 138.506C109.796 134.606 108.389 131.261 105.491 128.822L101.628 133.413ZM103.863 138.557V151.42H109.863V138.557H103.863ZM103.863 151.461C103.902 154.34 104.339 156.959 105.477 159.003L110.719 156.084C110.282 155.299 109.896 153.836 109.863 151.38L103.863 151.461ZM105.098 157.543V158H111.098V157.543H105.098ZM108.098 155H99.048V161H108.098V155ZM93.3814 155.092C94.9311 155.092 96.479 154.758 97.8244 153.872L94.5244 148.861C94.4018 148.942 94.0877 149.092 93.3814 149.092V155.092ZM97.7967 153.89C98.8564 153.209 99.8123 152.312 100.437 151.132L95.1344 148.325C95.1147 148.362 94.9963 148.558 94.5521 148.843L97.7967 153.89ZM100.786 149.729V145.083H94.7857V149.729H100.786ZM97.7857 142.083H95.1539V148.083H97.7857V142.083ZM95.1539 142.083C93.191 142.083 91.1587 142.516 89.6049 143.911C87.9896 145.361 87.4273 147.36 87.4273 149.326H93.4273C93.4273 148.889 93.4889 148.638 93.5351 148.514C93.5749 148.407 93.6057 148.382 93.6131 148.376C93.6348 148.356 93.9657 148.083 95.1539 148.083V142.083ZM87.4273 149.326C87.4273 150.902 87.9947 152.393 89.2104 153.531L93.3093 149.149C93.316 149.155 93.3333 149.173 93.3542 149.203C93.3754 149.233 93.3939 149.267 93.408 149.301C93.4382 149.374 93.4273 149.397 93.4273 149.326H87.4273ZM89.249 153.566C90.4373 154.639 91.8974 155.092 93.3814 155.092V149.092C93.2443 149.092 93.1974 149.072 93.2087 149.076C93.2135 149.078 93.2252 149.083 93.2401 149.092C93.255 149.1 93.2656 149.109 93.2707 149.114L89.249 153.566ZM133.05 137.133L132.835 140.126L135.989 140.353L136.05 137.191L133.05 137.133ZM130.069 136.918L130.285 133.926L130.177 133.918H130.069V136.918ZM124.591 139.604L121.855 138.373L121.591 138.96V139.604H124.591ZM124.591 158V161H127.591V158H124.591ZM115.54 158H112.54V161H115.54V158ZM115.54 128.942V125.942H112.54V128.942H115.54ZM124.027 128.942L127.017 128.706L126.799 125.942H124.027V128.942ZM124.322 132.675L121.332 132.912L122.139 143.122L126.968 134.09L124.322 132.675ZM133.211 128.728L136.211 128.785L136.254 126.508L134.073 125.854L133.211 128.728ZM133.266 134.141L130.285 133.926L129.854 139.911L132.835 140.126L133.266 134.141ZM130.069 133.918C126.655 133.918 123.354 135.041 121.855 138.373L127.326 140.835C127.438 140.587 127.79 139.918 130.069 139.918V133.918ZM121.591 139.604V158H127.591V139.604H121.591ZM124.591 155H115.54V161H124.591V155ZM118.54 158V128.942H112.54V158H118.54ZM115.54 131.942H124.027V125.942H115.54V131.942ZM121.036 129.179L121.332 132.912L127.313 132.439L127.017 128.706L121.036 129.179ZM126.968 134.09C128.085 132.001 129.3 131.405 130.687 131.405V125.405C126.631 125.405 123.603 127.657 121.676 131.261L126.968 134.09ZM130.687 131.405C131.442 131.405 131.981 131.49 132.349 131.601L134.073 125.854C133.01 125.535 131.865 125.405 130.687 125.405V131.405ZM130.212 128.67L130.051 137.076L136.05 137.191L136.211 128.785L130.212 128.67ZM143.715 144.572L142.247 147.189L142.259 147.196L142.272 147.202L143.715 144.572ZM142.507 131.01L144.352 133.375L144.358 133.371L144.364 133.366L142.507 131.01ZM160.392 131.01L158.598 133.415L160.392 131.01ZM163.883 137.858V140.858H166.883V137.858H163.883ZM154.806 137.858H151.806V140.858H154.806V137.858ZM148.737 135.173L150.619 137.509L150.638 137.493L150.658 137.478L148.737 135.173ZM152.712 140.329L152.159 143.278L152.164 143.279L152.712 140.329ZM157.277 141.484L158.254 138.647L158.249 138.646L157.277 141.484ZM160.285 156.04L158.557 153.587L158.548 153.593L160.285 156.04ZM138.29 148.681V145.681H135.29V148.681H138.29ZM146.75 148.681L149.749 148.601L149.671 145.681H146.75V148.681ZM148.092 151.635L146.325 154.059L146.342 154.071L146.358 154.083L148.092 151.635ZM154.162 151.796L152.288 149.454L152.271 149.467L152.255 149.481L154.162 151.796ZM158.102 149.836C158.102 147.755 156.9 146.255 155.394 145.385L152.392 150.581C152.491 150.638 152.401 150.61 152.287 150.434C152.229 150.346 152.179 150.24 152.145 150.124C152.112 150.008 152.102 149.908 152.102 149.836H158.102ZM155.394 145.385C154.143 144.663 152.193 144.102 149.952 143.604L148.65 149.461C150.921 149.966 152.032 150.372 152.392 150.581L155.394 145.385ZM149.952 143.604C147.876 143.143 146.304 142.571 145.158 141.942L142.272 147.202C144.063 148.185 146.214 148.92 148.65 149.461L149.952 143.604ZM145.183 141.956C144.046 141.318 143.318 140.628 142.86 139.936L137.856 143.247C138.938 144.882 140.448 146.179 142.247 147.189L145.183 141.956ZM142.86 139.936C142.441 139.302 142.203 138.553 142.203 137.59H136.203C136.203 139.634 136.736 141.553 137.856 143.247L142.86 139.936ZM142.203 137.59C142.203 135.896 142.839 134.557 144.352 133.375L140.661 128.645C137.77 130.901 136.203 133.949 136.203 137.59H142.203ZM144.364 133.366C145.908 132.148 148.08 131.405 151.154 131.405V125.405C147.102 125.405 143.509 126.399 140.649 128.655L144.364 133.366ZM151.154 131.405C154.544 131.405 156.933 132.172 158.598 133.415L162.186 128.606C159.197 126.375 155.426 125.405 151.154 125.405V131.405ZM158.598 133.415C160.191 134.603 160.883 136.006 160.883 137.858H166.883C166.883 134.053 165.249 130.891 162.186 128.606L158.598 133.415ZM163.883 134.858H154.806V140.858H163.883V134.858ZM157.806 137.858C157.806 136.191 157.359 134.4 155.952 133.064C154.573 131.756 152.778 131.367 151.127 131.367V137.367C151.929 137.367 151.973 137.56 151.822 137.416C151.751 137.349 151.735 137.295 151.746 137.325C151.762 137.372 151.806 137.532 151.806 137.858H157.806ZM151.127 131.367C149.574 131.367 148.071 131.823 146.816 132.868L150.658 137.478C150.692 137.448 150.783 137.367 151.127 137.367V131.367ZM146.855 132.837C145.545 133.892 144.77 135.386 144.77 137.133H150.77C150.77 137.142 150.769 137.174 150.758 137.222C150.747 137.272 150.729 137.326 150.703 137.379C150.646 137.494 150.59 137.532 150.619 137.509L146.855 132.837ZM144.77 137.133C144.77 139.142 145.849 140.675 147.341 141.625L150.562 136.563C150.474 136.506 150.545 136.53 150.635 136.679C150.679 136.752 150.716 136.837 150.74 136.927C150.764 137.016 150.77 137.088 150.77 137.133H144.77ZM147.341 141.625C148.622 142.44 150.334 142.936 152.159 143.278L153.264 137.38C151.652 137.078 150.857 136.75 150.562 136.563L147.341 141.625ZM152.164 143.279C153.794 143.581 155.169 143.933 156.305 144.322L158.249 138.646C156.771 138.14 155.102 137.721 153.259 137.379L152.164 143.279ZM156.301 144.32C158.125 144.949 159.222 145.733 159.861 146.522C160.468 147.27 160.83 148.225 160.83 149.567H166.83C166.83 147.025 166.099 144.689 164.522 142.744C162.977 140.838 160.797 139.523 158.254 138.647L156.301 144.32ZM160.83 149.567C160.83 151.142 160.208 152.424 158.557 153.587L162.013 158.492C165.089 156.325 166.83 153.292 166.83 149.567H160.83ZM158.548 153.593C156.844 154.803 154.46 155.537 151.154 155.537V161.537C155.332 161.537 159.035 160.606 162.022 158.486L158.548 153.593ZM151.154 155.537C149.029 155.537 147.246 155.156 145.745 154.468L143.243 159.921C145.645 161.023 148.302 161.537 151.154 161.537V155.537ZM145.745 154.468C144.205 153.761 143.123 152.86 142.375 151.806L137.481 155.278C138.918 157.303 140.88 158.837 143.243 159.921L145.745 154.468ZM142.375 151.806C141.602 150.716 141.29 149.692 141.29 148.681H135.29C135.29 151.072 136.071 153.289 137.481 155.278L142.375 151.806ZM138.29 151.681H146.75V145.681H138.29V151.681ZM143.751 148.761C143.804 150.765 144.52 152.743 146.325 154.059L149.86 149.211C149.85 149.204 149.851 149.203 149.855 149.208C149.859 149.213 149.854 149.209 149.843 149.185C149.821 149.135 149.758 148.965 149.749 148.601L143.751 148.761ZM146.358 154.083C147.848 155.139 149.603 155.548 151.396 155.548V149.548C150.503 149.548 150.055 149.349 149.827 149.187L146.358 154.083ZM151.396 155.548C152.954 155.548 154.693 155.246 156.069 154.112L152.255 149.481C152.34 149.41 152.363 149.428 152.227 149.465C152.084 149.504 151.821 149.548 151.396 149.548V155.548ZM156.036 154.139C157.377 153.066 158.102 151.549 158.102 149.836H152.102C152.102 149.84 152.103 149.755 152.162 149.633C152.188 149.578 152.219 149.532 152.246 149.498C152.273 149.465 152.291 149.451 152.288 149.454L156.036 154.139Z" fill="white"/>
</g>
<defs>
<filter id="filter0_dd" x="0.563232" y="0.457031" width="176.32" height="186.279" filterUnits="userSpaceOnUse" color-interpolation-filters="sRGB">
<feFlood flood-opacity="0" result="BackgroundImageFix"/>
<feColorMatrix in="SourceAlpha" type="matrix" values="0 0 0 0 0 0 0 0 0 0 0 0 0 0 0 0 0 0 127 0"/>
<feOffset dy="4"/>
<feGaussianBlur stdDeviation="5"/>
<feColorMatrix type="matrix" values="0 0 0 0 0 0 0 0 0 0 0 0 0 0 0 0 0 0 0.25 0"/>
<feBlend mode="normal" in2="BackgroundImageFix" result="effect1_dropShadow"/>
<feColorMatrix in="SourceAlpha" type="matrix" values="0 0 0 0 0 0 0 0 0 0 0 0 0 0 0 0 0 0 127 0"/>
<feOffset/>
<feGaussianBlur stdDeviation="3.5"/>
<feColorMatrix type="matrix" values="0 0 0 0 0.150903 0 0 0 0 0.883333 0 0 0 0 0.795442 0 0 0 1 0"/>
<feBlend mode="normal" in2="effect1_dropShadow" result="effect2_dropShadow"/>
<feBlend mode="normal" in="SourceGraphic" in2="effect2_dropShadow" result="shape"/>
</filter>
</defs>
</svg>
