<svg width="1212" height="824" viewBox="0 0 1212 824" fill="none" xmlns="http://www.w3.org/2000/svg">
<g clip-path="url(#clip0)">
<path d="M499.869 374.001C491.173 350.975 486.886 311.122 485.829 294.738L503.04 286.768L522.062 279.682L551.049 270.827L580.942 265.07L629.404 262.413L659.296 265.07L687.83 271.269L709.57 276.583L731.311 284.111L761.203 300.052L758.032 319.092L753.957 350.089L743.086 381.529L722.252 425.81L694.624 463.006L660.202 496.659L624.422 522.785L604.494 510.386L584.565 495.33L561.466 472.747L539.726 448.836C530.064 433.485 508.566 397.027 499.869 374.001Z" fill="#2A365C"/>
<mask id="mask0" mask-type="alpha" maskUnits="userSpaceOnUse" x="152" y="-6" width="623" height="581">
<path fill-rule="evenodd" clip-rule="evenodd" d="M775 -6H152V192.981H400.157V332.867H152V575H775V-6Z" fill="#C4C4C4"/>
</mask>
<g mask="url(#mask0)">
<path d="M761.204 282.325C761.204 437.668 633.137 563.629 475.121 563.629C317.104 563.629 189.038 437.668 189.038 282.325C189.038 126.982 317.104 1.02148 475.121 1.02148C633.137 1.02148 761.204 126.982 761.204 282.325Z" stroke="#626A84" stroke-width="2" stroke-dasharray="10 10"/>
</g>
<path d="M906.029 542.696C906.029 697.469 777.74 822.978 619.436 822.978C461.133 822.978 332.844 697.469 332.844 542.696C332.844 387.922 461.133 262.413 619.436 262.413C777.74 262.413 906.029 387.922 906.029 542.696Z" stroke="#626A84" stroke-width="2" stroke-dasharray="10 10"/>
<mask id="mask1" mask-type="alpha" maskUnits="userSpaceOnUse" x="464" y="-32" width="591" height="599">
<path fill-rule="evenodd" clip-rule="evenodd" d="M1055 -32H464V567H1055V332.867H850.954V192.981H1055V-32Z" fill="#C4C4C4"/>
</mask>
<g mask="url(#mask1)">
<path d="M1056.98 282.325C1056.98 437.668 928.909 563.629 770.892 563.629C612.876 563.629 484.81 437.668 484.81 282.325C484.81 126.982 612.876 1.02148 770.892 1.02148C928.909 1.02148 1056.98 126.982 1056.98 282.325Z" stroke="#626A84" stroke-width="2" stroke-dasharray="10 10"/>
</g>
<path d="M564.156 346.849H551.447V359.234H546.607V330.198H566.188V334.086H551.447V342.961H564.156V346.849ZM575.221 359.234H570.381V328.124H575.221V359.234ZM594.035 359.234C593.863 358.689 593.717 358.158 593.598 357.639C593.491 357.12 593.418 356.602 593.379 356.083C592.715 357.094 591.837 357.944 590.749 358.635C589.673 359.313 588.465 359.652 587.124 359.652C584.879 359.652 583.153 359.075 581.944 357.918C580.749 356.761 580.151 355.172 580.151 353.151C580.151 351.064 580.975 349.442 582.622 348.286C584.268 347.116 586.586 346.531 589.573 346.531H593.339V344.636C593.339 343.506 593.006 342.622 592.342 341.984C591.678 341.346 590.729 341.026 589.494 341.026C588.391 341.026 587.515 341.293 586.864 341.824C586.214 342.356 585.888 343.041 585.888 343.878H581.227L581.207 343.759C581.114 342.056 581.871 340.547 583.478 339.231C585.098 337.915 587.203 337.257 589.793 337.257C592.303 337.257 594.328 337.896 595.868 339.172C597.409 340.448 598.179 342.283 598.179 344.675V354.268C598.179 355.159 598.238 356.016 598.359 356.841C598.478 357.652 598.671 358.45 598.936 359.234H594.035ZM588.1 355.764C589.321 355.764 590.417 355.458 591.387 354.846C592.369 354.235 593.02 353.537 593.339 352.753V349.562H589.494C588.086 349.562 586.984 349.915 586.187 350.619C585.391 351.31 584.992 352.128 584.992 353.072C584.992 353.896 585.258 354.554 585.788 355.046C586.333 355.524 587.103 355.764 588.1 355.764ZM602.79 348.744C602.79 345.314 603.541 342.542 605.041 340.428C606.541 338.314 608.627 337.257 611.296 337.257C612.584 337.257 613.713 337.536 614.682 338.095C615.665 338.64 616.495 339.431 617.172 340.468L617.65 337.656H621.675V359.234C621.675 362.013 620.818 364.159 619.105 365.676C617.391 367.191 614.962 367.949 611.814 367.949C610.765 367.949 609.63 367.796 608.408 367.49C607.199 367.198 606.104 366.806 605.121 366.314L606.157 362.504C606.953 362.917 607.83 363.236 608.786 363.462C609.755 363.701 610.752 363.82 611.775 363.82C613.527 363.82 614.809 363.442 615.619 362.684C616.428 361.94 616.833 360.79 616.833 359.234V357.02C616.156 357.885 615.353 358.543 614.423 358.995C613.507 359.434 612.452 359.652 611.256 359.652C608.614 359.652 606.541 358.689 605.041 356.761C603.541 354.833 602.79 352.301 602.79 349.163V348.744ZM607.631 349.163C607.631 351.144 608.022 352.733 608.806 353.929C609.603 355.113 610.831 355.704 612.492 355.704C613.527 355.704 614.397 355.492 615.1 355.066C615.817 354.628 616.396 354.003 616.833 353.191V343.738C616.382 342.954 615.798 342.342 615.081 341.904C614.377 341.452 613.527 341.226 612.531 341.226C610.871 341.226 609.636 341.924 608.826 343.32C608.029 344.716 607.631 346.524 607.631 348.744V349.163ZM631.604 337.656L631.863 340.468C632.566 339.445 633.45 338.653 634.512 338.095C635.575 337.536 636.803 337.257 638.197 337.257C639.606 337.257 640.813 337.576 641.823 338.214C642.833 338.852 643.589 339.81 644.094 341.086C644.758 339.89 645.634 338.952 646.724 338.274C647.812 337.596 649.087 337.257 650.548 337.257C652.712 337.257 654.419 338.002 655.667 339.491C656.929 340.967 657.56 343.213 657.56 346.232V359.234H652.72V346.211C652.72 344.376 652.4 343.087 651.763 342.342C651.139 341.598 650.196 341.226 648.935 341.226C647.898 341.226 647.022 341.505 646.305 342.064C645.587 342.622 645.07 343.373 644.751 344.317C644.751 344.516 644.758 344.689 644.771 344.836C644.785 344.982 644.791 345.122 644.791 345.254V359.234H639.95V346.211C639.95 344.444 639.625 343.174 638.974 342.403C638.337 341.618 637.395 341.226 636.146 341.226C635.163 341.226 634.327 341.418 633.636 341.804C632.959 342.177 632.42 342.708 632.023 343.399V359.234H627.182V337.656H631.604ZM676.055 359.234C675.883 358.689 675.737 358.158 675.616 357.639C675.51 357.12 675.438 356.602 675.398 356.083C674.733 357.094 673.857 357.944 672.768 358.635C671.693 359.313 670.484 359.652 669.143 359.652C666.898 359.652 665.172 359.075 663.964 357.918C662.769 356.761 662.171 355.172 662.171 353.151C662.171 351.064 662.994 349.442 664.641 348.286C666.287 347.116 668.605 346.531 671.593 346.531H675.357V344.636C675.357 343.506 675.026 342.622 674.362 341.984C673.698 341.346 672.748 341.026 671.513 341.026C670.411 341.026 669.535 341.293 668.884 341.824C668.233 342.356 667.908 343.041 667.908 343.878H663.246L663.227 343.759C663.134 342.056 663.891 340.547 665.498 339.231C667.118 337.915 669.223 337.257 671.812 337.257C674.322 337.257 676.348 337.896 677.888 339.172C679.428 340.448 680.199 342.283 680.199 344.675V354.268C680.199 355.159 680.258 356.016 680.377 356.841C680.498 357.652 680.689 358.45 680.956 359.234H676.055ZM670.119 355.764C671.341 355.764 672.436 355.458 673.405 354.846C674.388 354.235 675.039 353.537 675.357 352.753V349.562H671.513C670.106 349.562 669.003 349.915 668.207 350.619C667.41 351.31 667.011 352.128 667.011 353.072C667.011 353.896 667.277 354.554 667.808 355.046C668.353 355.524 669.123 355.764 670.119 355.764ZM690.068 337.656L690.347 340.767C691.051 339.664 691.934 338.806 692.997 338.195C694.073 337.57 695.281 337.257 696.622 337.257C698.866 337.257 700.612 337.942 701.861 339.312C703.122 340.668 703.753 342.788 703.753 345.673V359.234H698.913V345.713C698.913 344.091 698.574 342.941 697.897 342.263C697.233 341.571 696.217 341.226 694.849 341.226C693.906 341.226 693.063 341.439 692.319 341.865C691.576 342.276 690.965 342.848 690.487 343.579V359.234H685.646V337.656H690.068ZM554.949 401.808C554.949 400.598 554.497 399.608 553.594 398.836C552.705 398.065 551.124 397.374 548.854 396.762C545.612 395.912 543.117 394.788 541.364 393.392C539.624 391.982 538.754 390.141 538.754 387.868C538.754 385.528 539.716 383.601 541.642 382.084C543.581 380.569 546.078 379.811 549.132 379.811C552.319 379.811 554.875 380.668 556.802 382.383C558.741 384.099 559.677 386.159 559.61 388.566L559.57 388.685H554.929C554.929 387.197 554.424 385.993 553.415 385.076C552.406 384.145 550.965 383.68 549.092 383.68C547.326 383.68 545.965 384.065 545.009 384.836C544.066 385.608 543.594 386.605 543.594 387.828C543.594 388.932 544.106 389.848 545.128 390.58C546.164 391.312 547.87 392.003 550.248 392.654C553.369 393.492 555.739 394.648 557.359 396.124C558.979 397.599 559.789 399.481 559.789 401.768C559.789 404.187 558.82 406.115 556.881 407.552C554.956 408.974 552.419 409.685 549.272 409.685C546.244 409.685 543.588 408.887 541.303 407.292C539.02 405.683 537.91 403.483 537.976 400.691L538.017 400.572H542.678C542.678 402.339 543.289 403.662 544.511 404.54C545.733 405.404 547.32 405.836 549.272 405.836C551.065 405.836 552.459 405.477 553.455 404.759C554.451 404.028 554.949 403.045 554.949 401.808ZM563.783 398.278C563.783 395.074 564.659 392.441 566.412 390.38C568.192 388.32 570.602 387.29 573.643 387.29C576.738 387.29 579.161 388.32 580.914 390.38C582.68 392.428 583.563 395.061 583.563 398.278V398.697C583.563 401.941 582.68 404.587 580.914 406.634C579.161 408.668 576.751 409.685 573.683 409.685C570.602 409.685 568.179 408.662 566.412 406.614C564.659 404.566 563.783 401.928 563.783 398.697V398.278ZM568.624 398.697C568.624 400.797 569.036 402.513 569.859 403.842C570.668 405.158 571.943 405.816 573.683 405.816C575.369 405.816 576.631 405.158 577.468 403.842C578.318 402.513 578.743 400.797 578.743 398.697V398.278C578.743 396.217 578.318 394.522 577.468 393.192C576.631 391.85 575.356 391.178 573.643 391.178C571.957 391.178 570.695 391.85 569.859 393.192C569.036 394.535 568.624 396.23 568.624 398.278V398.697ZM593.354 409.266H588.513V378.156H593.354V409.266ZM612.626 406.115C611.949 407.259 611.092 408.143 610.056 408.768C609.021 409.379 607.826 409.685 606.471 409.685C604.16 409.685 602.354 408.947 601.052 407.471C599.751 405.996 599.1 403.702 599.1 400.591V387.688H603.921V400.631C603.921 402.519 604.226 403.842 604.837 404.6C605.448 405.357 606.371 405.736 607.606 405.736C608.775 405.736 609.751 405.53 610.534 405.118C611.331 404.693 611.955 404.081 612.407 403.284V387.688H617.247V409.266H613.024L612.626 406.115ZM628.73 382.444V387.688H632.595V391.278H628.73V403.204C628.73 404.094 628.923 404.733 629.309 405.118C629.693 405.49 630.205 405.677 630.843 405.677C631.108 405.677 631.367 405.657 631.619 405.617C631.872 405.564 632.11 405.497 632.336 405.418L632.854 408.967C632.443 409.194 631.951 409.366 631.38 409.486C630.809 409.618 630.219 409.685 629.608 409.685C627.828 409.685 626.434 409.167 625.424 408.13C624.415 407.079 623.91 405.437 623.91 403.204V391.278H620.623V387.688H623.91V382.444H628.73ZM642.465 409.266H637.625V387.688H642.465V409.266ZM642.465 382.404H637.625V378.156H642.465V382.404ZM647.415 398.278C647.415 395.074 648.291 392.441 650.044 390.38C651.824 388.32 654.234 387.29 657.276 387.29C660.37 387.29 662.793 388.32 664.546 390.38C666.312 392.428 667.195 395.061 667.195 398.278V398.697C667.195 401.941 666.312 404.587 664.546 406.634C662.793 408.668 660.383 409.685 657.315 409.685C654.234 409.685 651.811 408.662 650.044 406.614C648.291 404.566 647.415 401.928 647.415 398.697V398.278ZM652.256 398.697C652.256 400.797 652.668 402.513 653.491 403.842C654.3 405.158 655.575 405.816 657.315 405.816C659.001 405.816 660.263 405.158 661.1 403.842C661.95 402.513 662.375 400.797 662.375 398.697V398.278C662.375 396.217 661.95 394.522 661.1 393.192C660.263 391.85 658.988 391.178 657.276 391.178C655.589 391.178 654.327 391.85 653.491 393.192C652.668 394.535 652.256 396.23 652.256 398.278V398.697ZM676.209 387.688L676.487 390.799C677.191 389.696 678.074 388.839 679.137 388.227C680.213 387.602 681.422 387.29 682.763 387.29C685.007 387.29 686.753 387.974 688.001 389.344C689.263 390.7 689.894 392.82 689.894 395.705V409.266H685.054V395.745C685.054 394.124 684.715 392.973 684.038 392.295C683.374 391.604 682.358 391.259 680.989 391.259C680.047 391.259 679.203 391.471 678.46 391.897C677.716 392.308 677.105 392.88 676.627 393.611V409.266H671.787V387.688H676.209ZM707.453 403.403C707.453 402.659 707.134 402.04 706.497 401.549C705.86 401.057 704.67 400.625 702.931 400.252C700.355 399.707 698.403 398.936 697.074 397.939C695.759 396.929 695.103 395.559 695.103 393.831C695.103 392.022 695.867 390.481 697.393 389.204C698.92 387.928 700.932 387.29 703.429 387.29C706.058 387.29 708.143 387.941 709.684 389.244C711.238 390.534 711.981 392.136 711.915 394.05L711.875 394.17H707.233C707.233 393.279 706.895 392.514 706.218 391.876C705.54 391.238 704.611 390.92 703.429 390.92C702.26 390.92 701.371 391.185 700.76 391.717C700.149 392.236 699.843 392.874 699.843 393.632C699.843 394.389 700.129 394.994 700.7 395.446C701.284 395.885 702.459 396.277 704.226 396.622C706.935 397.181 708.941 397.972 710.242 398.996C711.557 400.006 712.214 401.389 712.214 403.144C712.214 405.085 711.41 406.66 709.804 407.87C708.209 409.08 706.105 409.685 703.489 409.685C700.687 409.685 698.475 408.967 696.856 407.531C695.235 406.096 694.465 404.447 694.545 402.585L694.585 402.466H699.086C699.139 403.716 699.591 404.626 700.441 405.198C701.291 405.77 702.327 406.056 703.549 406.056C704.797 406.056 705.76 405.816 706.437 405.338C707.114 404.859 707.453 404.214 707.453 403.403Z" fill="white"/>
<path d="M878.381 251.182V222.145H886.946C889.509 222.145 891.78 222.716 893.759 223.86C895.751 225.004 897.291 226.626 898.38 228.726C899.469 230.827 900.014 233.233 900.014 235.945V237.401C900.014 240.153 899.462 242.573 898.36 244.66C897.271 246.748 895.711 248.356 893.679 249.487C891.66 250.617 889.343 251.182 886.727 251.182H878.381ZM883.42 226.213V247.154H886.707C889.35 247.154 891.375 246.328 892.783 244.68C894.203 243.018 894.928 240.638 894.954 237.541V235.926C894.954 232.775 894.27 230.368 892.902 228.706C891.534 227.045 889.549 226.213 886.946 226.213H883.42ZM917.851 251.182C917.639 250.769 917.453 250.098 917.294 249.167C915.753 250.776 913.867 251.581 911.637 251.581C909.471 251.581 907.705 250.962 906.337 249.726C904.97 248.489 904.286 246.961 904.286 245.139C904.286 242.838 905.136 241.077 906.836 239.854C908.548 238.617 910.992 238 914.166 238H917.134V236.583C917.134 235.466 916.822 234.576 916.198 233.911C915.573 233.233 914.624 232.894 913.349 232.894C912.248 232.894 911.344 233.173 910.64 233.732C909.936 234.277 909.585 234.975 909.585 235.826H904.744C904.744 234.642 905.136 233.539 905.919 232.515C906.702 231.478 907.765 230.667 909.106 230.082C910.461 229.497 911.968 229.205 913.629 229.205C916.152 229.205 918.163 229.843 919.664 231.12C921.165 232.383 921.935 234.164 921.974 236.464V246.196C921.974 248.137 922.247 249.686 922.791 250.843V251.182H917.851ZM912.533 247.692C913.489 247.692 914.385 247.459 915.222 246.993C916.072 246.529 916.71 245.904 917.134 245.119V241.051H914.525C912.732 241.051 911.384 241.363 910.481 241.988C909.577 242.613 909.127 243.497 909.127 244.641C909.127 245.571 909.432 246.315 910.043 246.874C910.667 247.419 911.497 247.692 912.533 247.692ZM933.518 224.358V229.603H937.323V233.193H933.518V245.239C933.518 246.063 933.678 246.661 933.996 247.034C934.328 247.392 934.913 247.572 935.749 247.572C936.307 247.572 936.871 247.506 937.442 247.373V251.121C936.34 251.428 935.278 251.581 934.255 251.581C930.536 251.581 928.677 249.526 928.677 245.418V233.193H925.132V229.603H928.677V224.358H933.518ZM954.324 251.182C954.112 250.769 953.926 250.098 953.766 249.167C952.226 250.776 950.34 251.581 948.109 251.581C945.944 251.581 944.178 250.962 942.81 249.726C941.442 248.489 940.759 246.961 940.759 245.139C940.759 242.838 941.609 241.077 943.309 239.854C945.021 238.617 947.465 238 950.639 238H953.607V236.583C953.607 235.466 953.295 234.576 952.67 233.911C952.046 233.233 951.097 232.894 949.822 232.894C948.72 232.894 947.817 233.173 947.113 233.732C946.409 234.277 946.057 234.975 946.057 235.826H941.217C941.217 234.642 941.609 233.539 942.392 232.515C943.175 231.478 944.238 230.667 945.579 230.082C946.933 229.497 948.441 229.205 950.101 229.205C952.624 229.205 954.636 229.843 956.137 231.12C957.637 232.383 958.407 234.164 958.447 236.464V246.196C958.447 248.137 958.719 249.686 959.264 250.843V251.182H954.324ZM949.006 247.692C949.962 247.692 950.858 247.459 951.694 246.993C952.545 246.529 953.182 245.904 953.607 245.119V241.051H950.998C949.205 241.051 947.856 241.363 946.954 241.988C946.05 242.613 945.599 243.497 945.599 244.641C945.599 245.571 945.904 246.315 946.515 246.874C947.139 247.419 947.97 247.692 949.006 247.692ZM882.464 272.488L882.603 274.742C884.118 272.973 886.189 272.09 888.818 272.09C891.701 272.09 893.672 273.193 894.735 275.4C896.301 273.193 898.506 272.09 901.348 272.09C903.725 272.09 905.492 272.748 906.646 274.064C907.815 275.38 908.413 277.321 908.439 279.887V294.066H903.599V280.027C903.599 278.657 903.3 277.654 902.702 277.016C902.105 276.377 901.115 276.058 899.734 276.058C898.632 276.058 897.729 276.357 897.026 276.955C896.335 277.54 895.851 278.311 895.571 279.269L895.592 294.066H890.751V279.867C890.684 277.328 889.39 276.058 886.866 276.058C884.927 276.058 883.553 276.849 882.743 278.432V294.066H877.902V272.488H882.464ZM926.696 294.066C926.483 293.654 926.298 292.983 926.138 292.052C924.598 293.661 922.712 294.466 920.481 294.466C918.316 294.466 916.55 293.847 915.182 292.61C913.814 291.374 913.131 289.845 913.131 288.024C913.131 285.723 913.98 283.962 915.681 282.739C917.393 281.502 919.837 280.884 923.011 280.884H925.979V279.468C925.979 278.351 925.666 277.461 925.042 276.796C924.418 276.118 923.469 275.779 922.194 275.779C921.091 275.779 920.189 276.058 919.485 276.616C918.781 277.162 918.429 277.86 918.429 278.711H913.589C913.589 277.527 913.98 276.423 914.764 275.4C915.547 274.363 916.61 273.552 917.951 272.967C919.305 272.382 920.813 272.09 922.473 272.09C924.996 272.09 927.008 272.728 928.509 274.004C930.009 275.268 930.779 277.048 930.819 279.349V289.081C930.819 291.022 931.091 292.571 931.636 293.727V294.066H926.696ZM921.377 290.576C922.333 290.576 923.23 290.344 924.066 289.878C924.916 289.413 925.553 288.789 925.979 288.003V283.935H923.37C921.577 283.935 920.228 284.248 919.326 284.873C918.422 285.498 917.971 286.382 917.971 287.525C917.971 288.456 918.276 289.2 918.887 289.759C919.511 290.304 920.341 290.576 921.377 290.576ZM940.789 272.488L940.928 274.982C942.521 273.054 944.613 272.09 947.203 272.09C951.691 272.09 953.976 274.662 954.055 279.807V294.066H949.215V280.087C949.215 278.717 948.916 277.707 948.318 277.055C947.734 276.391 946.771 276.058 945.43 276.058C943.478 276.058 942.024 276.942 941.068 278.711V294.066H936.228V272.488H940.789ZM972.292 294.066C972.079 293.654 971.894 292.983 971.734 292.052C970.193 293.661 968.308 294.466 966.077 294.466C963.912 294.466 962.146 293.847 960.778 292.61C959.41 291.374 958.727 289.845 958.727 288.024C958.727 285.723 959.576 283.962 961.276 282.739C962.989 281.502 965.432 280.884 968.606 280.884H971.574V279.468C971.574 278.351 971.262 277.461 970.638 276.796C970.014 276.118 969.064 275.779 967.789 275.779C966.688 275.779 965.784 276.058 965.081 276.616C964.377 277.162 964.025 277.86 964.025 278.711H959.185C959.185 277.527 959.576 276.423 960.359 275.4C961.144 274.363 962.205 273.552 963.547 272.967C964.901 272.382 966.408 272.09 968.069 272.09C970.592 272.09 972.604 272.728 974.105 274.004C975.605 275.268 976.375 277.048 976.415 279.349V289.081C976.415 291.022 976.687 292.571 977.232 293.727V294.066H972.292ZM966.974 290.576C967.929 290.576 968.826 290.344 969.662 289.878C970.513 289.413 971.15 288.789 971.574 288.003V283.935H968.965C967.172 283.935 965.824 284.248 964.921 284.873C964.019 285.498 963.567 286.382 963.567 287.525C963.567 288.456 963.872 289.2 964.483 289.759C965.107 290.304 965.937 290.576 966.974 290.576ZM981.046 283.118C981.046 279.767 981.829 277.095 983.397 275.101C984.977 273.094 987.069 272.09 989.671 272.09C992.128 272.09 994.061 272.947 995.469 274.662L995.688 272.488H1000.05V293.408C1000.05 296.24 999.167 298.473 997.4 300.109C995.648 301.745 993.277 302.562 990.29 302.562C988.709 302.562 987.161 302.23 985.648 301.565C984.147 300.914 983.005 300.056 982.221 298.992L984.513 296.081C986 297.848 987.833 298.733 990.01 298.733C991.617 298.733 992.885 298.295 993.815 297.417C994.744 296.553 995.21 295.276 995.21 293.588V292.131C993.815 293.688 991.956 294.466 989.632 294.466C987.108 294.466 985.043 293.462 983.437 291.453C981.843 289.446 981.046 286.668 981.046 283.118ZM985.867 283.537C985.867 285.704 986.305 287.412 987.182 288.662C988.071 289.898 989.3 290.516 990.867 290.516C992.819 290.516 994.266 289.679 995.21 288.003V278.511C994.293 276.876 992.859 276.058 990.907 276.058C989.313 276.058 988.071 276.69 987.182 277.953C986.305 279.216 985.867 281.077 985.867 283.537ZM1014.94 294.466C1011.87 294.466 1009.38 293.502 1007.47 291.574C1005.57 289.633 1004.62 287.054 1004.62 283.835V283.238C1004.62 281.084 1005.03 279.163 1005.86 277.474C1006.69 275.772 1007.86 274.45 1009.36 273.505C1010.86 272.562 1012.54 272.09 1014.38 272.09C1017.32 272.09 1019.58 273.027 1021.17 274.901C1022.78 276.776 1023.59 279.428 1023.59 282.858V284.813H1009.5C1009.65 286.594 1010.24 288.003 1011.27 289.041C1012.32 290.078 1013.64 290.597 1015.22 290.597C1017.44 290.597 1019.24 289.699 1020.64 287.904L1023.25 290.397C1022.38 291.686 1021.23 292.69 1019.78 293.408C1018.35 294.113 1016.73 294.466 1014.94 294.466ZM1014.36 275.978C1013.03 275.978 1011.96 276.444 1011.14 277.374C1010.32 278.305 1009.81 279.601 1009.58 281.263H1018.8V280.904C1018.7 279.282 1018.27 278.059 1017.51 277.235C1016.75 276.397 1015.7 275.978 1014.36 275.978ZM1032.32 272.488L1032.46 274.742C1033.97 272.973 1036.04 272.09 1038.67 272.09C1041.55 272.09 1043.53 273.193 1044.59 275.4C1046.15 273.193 1048.36 272.09 1051.2 272.09C1053.58 272.09 1055.34 272.748 1056.51 274.064C1057.67 275.38 1058.27 277.321 1058.29 279.887V294.066H1053.46V280.027C1053.46 278.657 1053.16 277.654 1052.56 277.016C1051.96 276.377 1050.97 276.058 1049.59 276.058C1048.49 276.058 1047.58 276.357 1046.88 276.955C1046.19 277.54 1045.7 278.311 1045.43 279.269L1045.45 294.066H1040.61V279.867C1040.54 277.328 1039.24 276.058 1036.72 276.058C1034.78 276.058 1033.41 276.849 1032.6 278.432V294.066H1027.76V272.488H1032.32ZM1073.16 294.466C1070.1 294.466 1067.61 293.502 1065.7 291.574C1063.8 289.633 1062.85 287.054 1062.85 283.835V283.238C1062.85 281.084 1063.26 279.163 1064.08 277.474C1064.92 275.772 1066.08 274.45 1067.59 273.505C1069.09 272.562 1070.76 272.09 1072.61 272.09C1075.54 272.09 1077.81 273.027 1079.4 274.901C1081 276.776 1081.81 279.428 1081.81 282.858V284.813H1067.72C1067.88 286.594 1068.46 288.003 1069.5 289.041C1070.55 290.078 1071.87 290.597 1073.45 290.597C1075.66 290.597 1077.46 289.699 1078.86 287.904L1081.47 290.397C1080.61 291.686 1079.45 292.69 1078.01 293.408C1076.57 294.113 1074.96 294.466 1073.16 294.466ZM1072.59 275.978C1071.26 275.978 1070.18 276.444 1069.36 277.374C1068.55 278.305 1068.03 279.601 1067.81 281.263H1077.03V280.904C1076.92 279.282 1076.5 278.059 1075.73 277.235C1074.98 276.397 1073.93 275.978 1072.59 275.978ZM1090.49 272.488L1090.62 274.982C1092.22 273.054 1094.31 272.09 1096.9 272.09C1101.39 272.09 1103.68 274.662 1103.75 279.807V294.066H1098.91V280.087C1098.91 278.717 1098.61 277.707 1098.02 277.055C1097.43 276.391 1096.47 276.058 1095.13 276.058C1093.17 276.058 1091.72 276.942 1090.76 278.711V294.066H1085.92V272.488H1090.49ZM1115.17 267.243V272.488H1118.98V276.078H1115.17V288.124C1115.17 288.948 1115.33 289.546 1115.65 289.919C1115.99 290.277 1116.57 290.457 1117.4 290.457C1117.97 290.457 1118.53 290.391 1119.1 290.258V294.006C1118 294.312 1116.93 294.466 1115.92 294.466C1112.19 294.466 1110.34 292.411 1110.34 288.302V276.078H1106.79V272.488H1110.34V267.243H1115.17Z" fill="white"/>
<path d="M1180.89 293.047C1197.51 293.047 1210.98 279.561 1210.98 262.925C1210.98 246.29 1197.51 232.804 1180.89 232.804C1164.28 232.804 1150.81 246.29 1150.81 262.925C1150.81 279.561 1164.28 293.047 1180.89 293.047Z" fill="#C4C4C4"/>
<path d="M51.8606 293.047C68.4772 293.047 81.9477 279.561 81.9477 262.925C81.9477 246.29 68.4772 232.804 51.8606 232.804C35.2439 232.804 21.7734 246.29 21.7734 262.925C21.7734 279.561 35.2439 293.047 51.8606 293.047Z" fill="#C4C4C4"/>
<path d="M618.927 610.596C635.544 610.596 649.014 597.111 649.014 580.475C649.014 563.839 635.544 550.354 618.927 550.354C602.31 550.354 588.84 563.839 588.84 580.475C588.84 597.111 602.31 610.596 618.927 610.596Z" fill="#C4C4C4"/>
<path d="M113.454 244.034V214.997H123.394C126.674 214.997 129.171 215.656 130.883 216.972C132.596 218.288 133.453 220.25 133.453 222.855C133.453 224.185 133.094 225.381 132.377 226.444C131.66 227.508 130.612 228.332 129.23 228.917C130.797 229.343 132.006 230.148 132.856 231.331C133.718 232.5 134.151 233.91 134.151 235.558C134.151 238.284 133.274 240.378 131.52 241.841C129.782 243.303 127.285 244.034 124.031 244.034H113.454ZM118.493 230.932V240.006H124.09C125.671 240.006 126.906 239.614 127.796 238.829C128.686 238.045 129.131 236.954 129.131 235.558C129.131 232.54 127.59 230.998 124.509 230.932H118.493ZM118.493 227.222H123.434C125 227.222 126.222 226.87 127.099 226.166C127.989 225.448 128.433 224.437 128.433 223.134C128.433 221.699 128.021 220.661 127.198 220.023C126.388 219.385 125.12 219.066 123.394 219.066H118.493V227.222ZM144.279 244.034H139.439V213.402H144.279V244.034ZM149.07 233.046C149.07 230.932 149.488 229.031 150.324 227.342C151.161 225.641 152.337 224.338 153.85 223.433C155.365 222.516 157.104 222.058 159.069 222.058C161.978 222.058 164.335 222.995 166.141 224.869C167.961 226.744 168.943 229.23 169.09 232.328L169.109 233.464C169.109 235.592 168.698 237.493 167.874 239.168C167.064 240.843 165.895 242.14 164.369 243.057C162.854 243.974 161.102 244.434 159.109 244.434C156.069 244.434 153.631 243.423 151.798 241.402C149.98 239.368 149.07 236.662 149.07 233.286V233.046ZM153.91 233.464C153.91 235.685 154.368 237.427 155.284 238.69C156.201 239.94 157.476 240.565 159.109 240.565C160.743 240.565 162.012 239.927 162.914 238.65C163.83 237.374 164.289 235.505 164.289 233.046C164.289 230.866 163.817 229.137 162.874 227.861C161.944 226.584 160.676 225.946 159.069 225.946C157.489 225.946 156.234 226.578 155.305 227.841C154.375 229.091 153.91 230.966 153.91 233.464ZM182.465 240.565C183.673 240.565 184.676 240.212 185.473 239.507C186.27 238.802 186.695 237.931 186.748 236.895H191.309C191.256 238.238 190.838 239.494 190.055 240.664C189.271 241.821 188.209 242.738 186.868 243.417C185.526 244.095 184.079 244.434 182.525 244.434C179.51 244.434 177.12 243.456 175.354 241.502C173.587 239.547 172.704 236.848 172.704 233.405V232.907C172.704 229.622 173.581 226.997 175.333 225.029C177.087 223.048 179.477 222.058 182.505 222.058C185.068 222.058 187.153 222.808 188.759 224.311C190.38 225.8 191.23 227.761 191.309 230.194H186.748C186.695 228.957 186.27 227.94 185.473 227.143C184.689 226.345 183.686 225.946 182.465 225.946C180.898 225.946 179.689 226.518 178.84 227.662C177.989 228.792 177.558 230.513 177.545 232.826V233.604C177.545 235.944 177.963 237.692 178.8 238.849C179.65 239.993 180.872 240.565 182.465 240.565ZM202.375 234.781L200.223 236.994V244.034H195.383V213.402H200.223V231.072L201.738 229.177L207.693 222.456H213.51L205.502 231.451L214.366 244.034H208.769L202.375 234.781ZM225.551 240.565C226.76 240.565 227.763 240.212 228.559 239.507C229.356 238.802 229.781 237.931 229.834 236.895H234.396C234.343 238.238 233.924 239.494 233.141 240.664C232.357 241.821 231.295 242.738 229.953 243.417C228.612 244.095 227.165 244.434 225.611 244.434C222.597 244.434 220.206 243.456 218.44 241.502C216.673 239.547 215.79 236.848 215.79 233.405V232.907C215.79 229.622 216.667 226.997 218.42 225.029C220.173 223.048 222.563 222.058 225.591 222.058C228.154 222.058 230.239 222.808 231.846 224.311C233.466 225.8 234.317 227.761 234.396 230.194H229.834C229.781 228.957 229.356 227.94 228.559 227.143C227.776 226.345 226.773 225.946 225.551 225.946C223.984 225.946 222.775 226.518 221.926 227.662C221.076 228.792 220.645 230.513 220.631 232.826V233.604C220.631 235.944 221.05 237.692 221.886 238.849C222.736 239.993 223.957 240.565 225.551 240.565ZM243.229 224.81C244.81 222.975 246.808 222.058 249.225 222.058C253.82 222.058 256.152 224.683 256.218 229.934V244.034H251.377V230.114C251.377 228.625 251.052 227.575 250.401 226.963C249.764 226.338 248.821 226.026 247.572 226.026C245.633 226.026 244.186 226.891 243.229 228.618V244.034H238.389V213.402H243.229V224.81ZM274.414 244.034C274.202 243.622 274.016 242.951 273.856 242.02C272.316 243.629 270.43 244.434 268.199 244.434C266.034 244.434 264.268 243.815 262.9 242.578C261.533 241.342 260.848 239.813 260.848 237.992C260.848 235.691 261.699 233.93 263.398 232.707C265.111 231.47 267.555 230.852 270.729 230.852H273.697V229.436C273.697 228.319 273.385 227.429 272.761 226.764C272.137 226.086 271.187 225.747 269.912 225.747C268.81 225.747 267.907 226.026 267.203 226.584C266.5 227.13 266.148 227.828 266.148 228.679H261.307C261.307 227.495 261.699 226.391 262.482 225.368C263.265 224.331 264.328 223.52 265.669 222.935C267.024 222.35 268.531 222.058 270.192 222.058C272.714 222.058 274.726 222.696 276.227 223.972C277.728 225.235 278.498 227.016 278.537 229.317V239.048C278.537 240.989 278.81 242.538 279.354 243.695V244.034H274.414ZM269.095 240.544C270.052 240.544 270.948 240.312 271.785 239.846C272.634 239.381 273.272 238.756 273.697 237.971V233.903H271.087C269.295 233.903 267.947 234.216 267.044 234.841C266.141 235.466 265.689 236.35 265.689 237.493C265.689 238.424 265.995 239.168 266.606 239.726C267.23 240.272 268.06 240.544 269.095 240.544ZM289.165 244.034H284.324V222.456H289.165V244.034ZM284.026 216.853C284.026 216.108 284.257 215.489 284.722 214.997C285.2 214.506 285.878 214.26 286.754 214.26C287.631 214.26 288.308 214.506 288.786 214.997C289.264 215.489 289.503 216.108 289.503 216.853C289.503 217.584 289.264 218.195 288.786 218.687C288.308 219.166 287.631 219.405 286.754 219.405C285.878 219.405 285.2 219.166 284.722 218.687C284.257 218.195 284.026 217.584 284.026 216.853ZM299.354 222.456L299.492 224.95C301.087 223.022 303.178 222.058 305.768 222.058C310.256 222.058 312.54 224.63 312.62 229.775V244.034H307.779V230.055C307.779 228.685 307.48 227.675 306.883 227.023C306.298 226.359 305.335 226.026 303.994 226.026C302.042 226.026 300.588 226.91 299.632 228.679V244.034H294.792V222.456H299.354ZM124.27 269.768C123.633 269.662 122.976 269.609 122.298 269.609C120.08 269.609 118.586 270.459 117.816 272.162V286.919H112.975V265.341H117.597L117.716 267.754C118.885 265.88 120.505 264.943 122.577 264.943C123.267 264.943 123.839 265.036 124.29 265.221L124.27 269.768ZM136.829 287.318C133.761 287.318 131.272 286.354 129.359 284.427C127.46 282.486 126.511 279.906 126.511 276.688V276.091C126.511 273.936 126.923 272.016 127.746 270.327C128.582 268.625 129.751 267.302 131.251 266.358C132.753 265.414 134.425 264.943 136.271 264.943C139.206 264.943 141.471 265.88 143.064 267.754C144.671 269.628 145.475 272.281 145.475 275.711V277.666H131.391C131.537 279.447 132.128 280.856 133.164 281.893C134.213 282.931 135.528 283.449 137.109 283.449C139.326 283.449 141.132 282.552 142.526 280.757L145.136 283.249C144.272 284.539 143.118 285.543 141.67 286.26C140.236 286.966 138.622 287.318 136.829 287.318ZM136.252 268.831C134.924 268.831 133.848 269.297 133.025 270.227C132.214 271.158 131.697 272.454 131.471 274.116H140.693V273.757C140.587 272.135 140.156 270.912 139.399 270.088C138.641 269.25 137.593 268.831 136.252 268.831ZM161.739 281.056C161.739 280.191 161.38 279.534 160.663 279.081C159.959 278.63 158.784 278.231 157.137 277.885C155.49 277.54 154.116 277.101 153.014 276.569C150.597 275.398 149.388 273.703 149.388 271.484C149.388 269.622 150.171 268.066 151.739 266.816C153.306 265.568 155.297 264.943 157.715 264.943C160.291 264.943 162.369 265.581 163.95 266.857C165.543 268.133 166.34 269.789 166.34 271.823H161.5C161.5 270.891 161.155 270.12 160.464 269.509C159.774 268.884 158.857 268.572 157.715 268.572C156.653 268.572 155.783 268.818 155.106 269.31C154.442 269.802 154.109 270.459 154.109 271.284C154.109 272.029 154.421 272.607 155.046 273.019C155.67 273.431 156.931 273.85 158.83 274.275C160.729 274.688 162.217 275.186 163.293 275.771C164.382 276.343 165.184 277.034 165.703 277.845C166.234 278.657 166.5 279.64 166.5 280.797C166.5 282.738 165.696 284.313 164.089 285.523C162.483 286.72 160.378 287.318 157.775 287.318C156.008 287.318 154.435 286.999 153.054 286.361C151.673 285.722 150.597 284.845 149.827 283.728C149.057 282.611 148.671 281.408 148.671 280.119H153.372C153.439 281.262 153.871 282.147 154.667 282.771C155.464 283.382 156.519 283.688 157.834 283.688C159.109 283.688 160.079 283.449 160.743 282.971C161.407 282.478 161.739 281.84 161.739 281.056ZM180.633 287.318C177.565 287.318 175.074 286.354 173.162 284.427C171.263 282.486 170.314 279.906 170.314 276.688V276.091C170.314 273.936 170.726 272.016 171.549 270.327C172.386 268.625 173.554 267.302 175.055 266.358C176.555 265.414 178.229 264.943 180.075 264.943C183.009 264.943 185.273 265.88 186.868 267.754C188.474 269.628 189.278 272.281 189.278 275.711V277.666H175.195C175.341 279.447 175.931 280.856 176.967 281.893C178.016 282.931 179.331 283.449 180.911 283.449C183.13 283.449 184.935 282.552 186.33 280.757L188.939 283.249C188.076 284.539 186.921 285.543 185.473 286.26C184.038 286.966 182.425 287.318 180.633 287.318ZM180.055 268.831C178.727 268.831 177.651 269.297 176.828 270.227C176.018 271.158 175.5 272.454 175.274 274.116H184.497V273.757C184.39 272.135 183.959 270.912 183.202 270.088C182.445 269.25 181.396 268.831 180.055 268.831ZM206.339 286.919C206.126 286.507 205.941 285.836 205.781 284.905C204.241 286.514 202.355 287.318 200.124 287.318C197.959 287.318 196.193 286.7 194.825 285.463C193.457 284.227 192.773 282.698 192.773 280.876C192.773 278.576 193.623 276.815 195.323 275.591C197.036 274.355 199.48 273.737 202.654 273.737H205.622V272.321C205.622 271.204 205.309 270.313 204.685 269.649C204.061 268.971 203.112 268.632 201.837 268.632C200.734 268.632 199.832 268.911 199.128 269.469C198.424 270.014 198.072 270.713 198.072 271.563H193.232C193.232 270.38 193.623 269.276 194.407 268.253C195.19 267.216 196.253 266.405 197.594 265.82C198.948 265.235 200.456 264.943 202.116 264.943C204.639 264.943 206.651 265.581 208.152 266.857C209.652 268.12 210.422 269.901 210.462 272.201V281.933C210.462 283.874 210.734 285.423 211.279 286.58V286.919H206.339ZM201.02 283.429C201.976 283.429 202.873 283.196 203.709 282.731C204.559 282.266 205.196 281.641 205.622 280.856V276.788H203.013C201.22 276.788 199.871 277.101 198.969 277.725C198.065 278.35 197.614 279.235 197.614 280.378C197.614 281.308 197.919 282.053 198.53 282.611C199.154 283.156 199.985 283.429 201.02 283.429ZM227.224 269.768C226.587 269.662 225.93 269.609 225.253 269.609C223.034 269.609 221.54 270.459 220.77 272.162V286.919H215.93V265.341H220.551L220.671 267.754C221.839 265.88 223.46 264.943 225.531 264.943C226.222 264.943 226.793 265.036 227.244 265.221L227.224 269.768ZM239.146 283.449C240.354 283.449 241.357 283.097 242.154 282.392C242.951 281.687 243.376 280.816 243.429 279.78H247.99C247.937 281.122 247.519 282.378 246.736 283.549C245.953 284.705 244.89 285.622 243.549 286.301C242.208 286.979 240.76 287.318 239.206 287.318C236.191 287.318 233.801 286.341 232.035 284.387C230.269 282.431 229.385 279.733 229.385 276.29V275.791C229.385 272.507 230.262 269.882 232.015 267.914C233.768 265.933 236.158 264.943 239.187 264.943C241.75 264.943 243.834 265.693 245.441 267.196C247.061 268.685 247.911 270.645 247.99 273.079H243.429C243.376 271.842 242.951 270.825 242.154 270.028C241.37 269.23 240.368 268.831 239.146 268.831C237.579 268.831 236.371 269.403 235.521 270.546C234.67 271.677 234.239 273.398 234.226 275.711V276.489C234.226 278.829 234.644 280.577 235.481 281.734C236.331 282.878 237.553 283.449 239.146 283.449ZM256.825 267.694C258.406 265.86 260.404 264.943 262.821 264.943C267.415 264.943 269.746 267.568 269.812 272.819V286.919H264.972V272.999C264.972 271.51 264.646 270.459 263.996 269.848C263.358 269.223 262.416 268.911 261.167 268.911C259.229 268.911 257.781 269.775 256.825 271.503V286.919H251.984V256.287H256.825V267.694ZM284.931 279.081C284.931 277.739 285.296 276.509 286.027 275.392C286.757 274.262 288.198 272.926 290.349 271.384C289.221 269.961 288.431 268.751 287.979 267.754C287.54 266.757 287.322 265.793 287.322 264.862C287.322 262.589 288.012 260.794 289.393 259.478C290.774 258.149 292.634 257.484 294.971 257.484C297.082 257.484 298.809 258.109 300.15 259.358C301.505 260.595 302.182 262.131 302.182 263.965C302.182 265.174 301.876 266.291 301.266 267.316C300.655 268.325 299.652 269.336 298.257 270.347L296.286 271.783L301.883 278.403C302.693 276.808 303.098 275.033 303.098 273.079H307.301C307.301 276.655 306.464 279.587 304.792 281.874L309.054 286.919H303.436L301.803 284.984C299.732 286.54 297.262 287.318 294.393 287.318C291.525 287.318 289.227 286.56 287.5 285.044C285.788 283.516 284.931 281.528 284.931 279.081ZM294.533 283.449C296.166 283.449 297.693 282.904 299.114 281.814L292.779 274.335L292.162 274.774C290.568 275.983 289.772 277.367 289.772 278.922C289.772 280.265 290.203 281.355 291.067 282.193C291.93 283.03 293.085 283.449 294.533 283.449ZM291.864 264.743C291.864 265.86 292.547 267.263 293.915 268.95L296.126 267.435L296.744 266.937C297.567 266.206 297.979 265.268 297.979 264.125C297.979 263.367 297.693 262.722 297.122 262.19C296.551 261.645 295.827 261.372 294.951 261.372C294.008 261.372 293.258 261.692 292.7 262.33C292.142 262.968 291.864 263.773 291.864 264.743ZM112.079 318.855C112.079 315.531 112.849 312.865 114.39 310.858C115.93 308.837 117.995 307.827 120.585 307.827C122.869 307.827 124.715 308.625 126.122 310.22V299.172H130.964V329.804H126.581L126.341 327.57C124.894 329.325 122.962 330.203 120.545 330.203C118.022 330.203 115.977 329.186 114.41 327.151C112.856 325.117 112.079 322.352 112.079 318.855ZM116.92 319.275C116.92 321.468 117.338 323.183 118.175 324.42C119.025 325.642 120.226 326.254 121.78 326.254C123.759 326.254 125.206 325.37 126.122 323.602V314.388C125.233 312.66 123.799 311.795 121.82 311.795C120.253 311.795 119.044 312.42 118.195 313.67C117.345 314.906 116.92 316.775 116.92 319.275ZM145.912 330.203C142.845 330.203 140.355 329.239 138.443 327.311C136.544 325.37 135.594 322.791 135.594 319.573V318.975C135.594 316.821 136.006 314.9 136.829 313.212C137.665 311.509 138.834 310.187 140.336 309.243C141.836 308.299 143.509 307.827 145.355 307.827C148.29 307.827 150.554 308.765 152.148 310.638C153.754 312.513 154.558 315.166 154.558 318.596V320.551H140.474C140.621 322.332 141.212 323.741 142.248 324.778C143.296 325.816 144.611 326.334 146.192 326.334C148.409 326.334 150.215 325.437 151.61 323.642L154.219 326.134C153.357 327.424 152.201 328.427 150.753 329.145C149.319 329.851 147.705 330.203 145.912 330.203ZM145.335 311.716C144.007 311.716 142.931 312.181 142.108 313.111C141.298 314.043 140.78 315.338 140.554 317.001H149.777V316.641C149.671 315.02 149.239 313.797 148.482 312.973C147.726 312.134 146.676 311.716 145.335 311.716ZM166.062 323.661L170.624 308.226H175.623L168.153 329.804H163.95L156.42 308.226H161.44L166.062 323.661ZM188.282 330.203C185.214 330.203 182.724 329.239 180.811 327.311C178.912 325.37 177.963 322.791 177.963 319.573V318.975C177.963 316.821 178.375 314.9 179.198 313.212C180.035 311.509 181.203 310.187 182.704 309.243C184.205 308.299 185.878 307.827 187.724 307.827C190.659 307.827 192.923 308.765 194.517 310.638C196.123 312.513 196.927 315.166 196.927 318.596V320.551H182.844C182.99 322.332 183.58 323.741 184.617 324.778C185.665 325.816 186.981 326.334 188.561 326.334C190.779 326.334 192.584 325.437 193.979 323.642L196.588 326.134C195.725 327.424 194.57 328.427 193.123 329.145C191.688 329.851 190.074 330.203 188.282 330.203ZM187.704 311.716C186.376 311.716 185.3 312.181 184.477 313.111C183.667 314.043 183.149 315.338 182.924 317.001H192.147V316.641C192.039 315.02 191.608 313.797 190.851 312.973C190.095 312.134 189.045 311.716 187.704 311.716ZM206.259 329.804H201.419V299.172H206.259V329.804ZM211.049 318.815C211.049 316.702 211.468 314.8 212.304 313.111C213.141 311.41 214.316 310.107 215.831 309.203C217.344 308.286 219.084 307.827 221.05 307.827C223.957 307.827 226.314 308.765 228.121 310.638C229.94 312.513 230.923 314.999 231.069 318.097L231.089 319.234C231.089 321.362 230.677 323.263 229.854 324.937C229.044 326.613 227.875 327.91 226.348 328.827C224.834 329.744 223.081 330.203 221.089 330.203C218.048 330.203 215.611 329.192 213.779 327.172C211.959 325.138 211.049 322.432 211.049 319.055V318.815ZM215.89 319.234C215.89 321.455 216.348 323.196 217.265 324.46C218.181 325.709 219.455 326.334 221.089 326.334C222.722 326.334 223.991 325.696 224.894 324.42C225.811 323.143 226.268 321.275 226.268 318.815C226.268 316.635 225.797 314.906 224.854 313.63C223.925 312.354 222.656 311.716 221.05 311.716C219.469 311.716 218.214 312.348 217.284 313.611C216.355 314.861 215.89 316.735 215.89 319.234ZM254.465 319.234C254.465 322.572 253.708 325.237 252.193 327.231C250.68 329.213 248.648 330.203 246.098 330.203C243.734 330.203 241.842 329.425 240.421 327.869V338.1H235.58V308.226H240.042L240.242 310.42C241.663 308.691 243.595 307.827 246.038 307.827C248.668 307.827 250.727 308.811 252.214 310.778C253.714 312.733 254.465 315.452 254.465 318.935V319.234ZM249.644 318.815C249.644 316.662 249.212 314.953 248.349 313.69C247.5 312.427 246.278 311.795 244.684 311.795C242.705 311.795 241.284 312.613 240.421 314.249V323.821C241.298 325.496 242.732 326.334 244.724 326.334C246.265 326.334 247.466 325.715 248.329 324.479C249.206 323.229 249.644 321.341 249.644 318.815ZM263.538 308.226L263.677 310.479C265.191 308.711 267.262 307.827 269.893 307.827C272.774 307.827 274.746 308.93 275.808 311.138C277.376 308.93 279.58 307.827 282.422 307.827C284.799 307.827 286.565 308.485 287.721 309.801C288.889 311.117 289.487 313.058 289.514 315.624V329.804H284.673V315.764C284.673 314.395 284.374 313.391 283.777 312.753C283.179 312.115 282.19 311.795 280.809 311.795C279.706 311.795 278.804 312.094 278.099 312.693C277.408 313.278 276.924 314.049 276.646 315.007L276.665 329.804H271.824V315.605C271.758 313.065 270.463 311.795 267.941 311.795C266.001 311.795 264.627 312.587 263.817 314.169V329.804H258.976V308.226H263.538ZM304.384 330.203C301.316 330.203 298.825 329.239 296.913 327.311C295.014 325.37 294.064 322.791 294.064 319.573V318.975C294.064 316.821 294.476 314.9 295.3 313.212C296.137 311.509 297.305 310.187 298.806 309.243C300.306 308.299 301.98 307.827 303.826 307.827C306.76 307.827 309.024 308.765 310.619 310.638C312.225 312.513 313.029 315.166 313.029 318.596V320.551H298.945C299.092 322.332 299.682 323.741 300.718 324.778C301.767 325.816 303.081 326.334 304.662 326.334C306.88 326.334 308.686 325.437 310.08 323.642L312.69 326.134C311.827 327.424 310.672 328.427 309.224 329.145C307.789 329.851 306.176 330.203 304.384 330.203ZM303.806 311.716C302.478 311.716 301.402 312.181 300.579 313.111C299.769 314.043 299.251 315.338 299.025 317.001H308.248V316.641C308.141 315.02 307.71 313.797 306.953 312.973C306.196 312.134 305.147 311.716 303.806 311.716ZM321.704 308.226L321.843 310.719C323.437 308.791 325.528 307.827 328.118 307.827C332.607 307.827 334.89 310.399 334.97 315.545V329.804H330.129V315.824C330.129 314.454 329.83 313.444 329.233 312.793C328.648 312.128 327.686 311.795 326.344 311.795C324.392 311.795 322.939 312.68 321.982 314.448V329.804H317.142V308.226H321.704ZM346.394 302.98V308.226H350.199V311.816H346.394V323.861C346.394 324.685 346.553 325.284 346.872 325.656C347.203 326.015 347.788 326.194 348.625 326.194C349.183 326.194 349.747 326.128 350.318 325.995V329.744C349.216 330.05 348.153 330.203 347.131 330.203C343.412 330.203 341.553 328.149 341.553 324.04V311.816H338.007V308.226H341.553V302.98H346.394Z" fill="white"/>
<path d="M520.134 665.404C520.134 664.127 519.682 663.143 518.779 662.452C517.89 661.76 516.276 661.062 513.939 660.358C511.601 659.653 509.742 658.869 508.361 658.005C505.718 656.343 504.396 654.176 504.396 651.503C504.396 649.164 505.346 647.236 507.245 645.72C509.157 644.204 511.635 643.447 514.676 643.447C516.694 643.447 518.494 643.818 520.074 644.564C521.654 645.308 522.895 646.371 523.799 647.755C524.702 649.124 525.154 650.646 525.154 652.321H520.134C520.134 650.805 519.655 649.622 518.7 648.772C517.756 647.907 516.402 647.475 514.636 647.475C512.989 647.475 511.707 647.827 510.791 648.532C509.889 649.236 509.437 650.22 509.437 651.484C509.437 652.547 509.928 653.438 510.911 654.156C511.894 654.86 513.513 655.551 515.771 656.229C518.028 656.894 519.842 657.659 521.21 658.524C522.577 659.374 523.58 660.358 524.217 661.475C524.855 662.578 525.174 663.874 525.174 665.364C525.174 667.784 524.244 669.712 522.384 671.147C520.538 672.57 518.028 673.281 514.855 673.281C512.757 673.281 510.825 672.895 509.058 672.124C507.305 671.34 505.938 670.263 504.954 668.894C503.985 667.524 503.501 665.928 503.501 664.107H508.54C508.54 665.756 509.085 667.032 510.174 667.936C511.262 668.841 512.823 669.292 514.855 669.292C516.608 669.292 517.922 668.94 518.8 668.235C519.689 667.517 520.134 666.574 520.134 665.404ZM542.593 670.768C541.172 672.443 539.154 673.281 536.538 673.281C534.2 673.281 532.427 672.596 531.219 671.227C530.024 669.858 529.426 667.877 529.426 665.284V651.304H534.266V665.224C534.266 667.962 535.401 669.332 537.673 669.332C540.024 669.332 541.611 668.488 542.434 666.799V651.304H547.274V672.882H542.712L542.593 670.768ZM571.487 662.312C571.487 665.65 570.73 668.315 569.215 670.309C567.702 672.291 565.67 673.281 563.12 673.281C560.756 673.281 558.864 672.503 557.443 670.947V681.178H552.602V651.304H557.064L557.264 653.498C558.685 651.769 560.617 650.906 563.06 650.906C565.69 650.906 567.749 651.889 569.236 653.856C570.736 655.811 571.487 658.53 571.487 662.013V662.312ZM566.666 661.893C566.666 659.74 566.234 658.032 565.371 656.769C564.522 655.505 563.3 654.873 561.706 654.873C559.727 654.873 558.306 655.691 557.443 657.327V666.9C558.32 668.574 559.754 669.412 561.746 669.412C563.287 669.412 564.488 668.794 565.351 667.557C566.228 666.307 566.666 664.419 566.666 661.893ZM594.882 662.312C594.882 665.65 594.125 668.315 592.611 670.309C591.097 672.291 589.066 673.281 586.516 673.281C584.152 673.281 582.26 672.503 580.838 670.947V681.178H575.998V651.304H580.46L580.66 653.498C582.08 651.769 584.012 650.906 586.456 650.906C589.085 650.906 591.144 651.889 592.631 653.856C594.132 655.811 594.882 658.53 594.882 662.013V662.312ZM590.061 661.893C590.061 659.74 589.63 658.032 588.767 656.769C587.917 655.505 586.695 654.873 585.101 654.873C583.123 654.873 581.702 655.691 580.838 657.327V666.9C581.715 668.574 583.149 669.412 585.141 669.412C586.682 669.412 587.884 668.794 588.746 667.557C589.624 666.307 590.061 664.419 590.061 661.893ZM604.553 672.882H599.712V642.25H604.553V672.882ZM617.789 665.942L622.172 651.304H627.331L618.765 676.152C617.451 679.782 615.22 681.597 612.073 681.597C611.369 681.597 610.592 681.477 609.742 681.238V677.489L610.658 677.548C611.88 677.548 612.796 677.323 613.407 676.87C614.031 676.432 614.522 675.687 614.881 674.637L615.578 672.782L608.008 651.304H613.228L617.789 665.942ZM649.959 669.412C651.168 669.412 652.17 669.06 652.968 668.355C653.764 667.65 654.189 666.779 654.243 665.743H658.804C658.751 667.085 658.332 668.341 657.549 669.511C656.766 670.668 655.703 671.585 654.362 672.264C653.021 672.942 651.572 673.281 650.019 673.281C647.004 673.281 644.614 672.304 642.848 670.35C641.082 668.394 640.198 665.696 640.198 662.253V661.754C640.198 658.47 641.075 655.844 642.828 653.877C644.581 651.896 646.972 650.906 649.999 650.906C652.562 650.906 654.647 651.656 656.254 653.159C657.874 654.648 658.724 656.608 658.804 659.041H654.243C654.189 657.805 653.764 656.788 652.968 655.99C652.183 655.193 651.181 654.794 649.959 654.794C648.392 654.794 647.184 655.366 646.334 656.509C645.484 657.64 645.052 659.361 645.039 661.674V662.452C645.039 664.792 645.457 666.54 646.294 667.697C647.144 668.841 648.366 669.412 649.959 669.412ZM667.638 653.657C669.218 651.822 671.217 650.906 673.634 650.906C678.229 650.906 680.559 653.531 680.625 658.782V672.882H675.785V658.962C675.785 657.473 675.46 656.422 674.809 655.811C674.171 655.186 673.229 654.873 671.981 654.873C670.042 654.873 668.594 655.738 667.638 657.466V672.882H662.798V642.25H667.638V653.657ZM698.822 672.882C698.609 672.469 698.424 671.799 698.265 670.867C696.723 672.477 694.838 673.281 692.607 673.281C690.443 673.281 688.676 672.662 687.309 671.426C685.941 670.189 685.257 668.661 685.257 666.839C685.257 664.539 686.106 662.777 687.807 661.554C689.52 660.318 691.963 659.7 695.137 659.7H698.105V658.284C698.105 657.167 697.793 656.276 697.169 655.612C696.545 654.934 695.595 654.595 694.321 654.595C693.218 654.595 692.315 654.873 691.611 655.432C690.907 655.977 690.555 656.676 690.555 657.526H685.715C685.715 656.343 686.106 655.239 686.891 654.216C687.674 653.178 688.736 652.368 690.078 651.783C691.432 651.198 692.94 650.906 694.599 650.906C697.122 650.906 699.135 651.544 700.635 652.82C702.135 654.083 702.906 655.864 702.946 658.164V667.896C702.946 669.837 703.218 671.386 703.762 672.543V672.882H698.822ZM693.504 669.392C694.459 669.392 695.356 669.159 696.193 668.694C697.043 668.229 697.68 667.604 698.105 666.819V662.751H695.496C693.703 662.751 692.355 663.063 691.452 663.688C690.549 664.313 690.097 665.197 690.097 666.341C690.097 667.271 690.403 668.016 691.013 668.574C691.637 669.119 692.467 669.392 693.504 669.392ZM713.572 672.882H708.732V651.304H713.572V672.882ZM708.433 645.7C708.433 644.956 708.666 644.337 709.131 643.845C709.609 643.354 710.286 643.108 711.162 643.108C712.038 643.108 712.716 643.354 713.194 643.845C713.672 644.337 713.911 644.956 713.911 645.7C713.911 646.431 713.672 647.043 713.194 647.535C712.716 648.014 712.038 648.253 711.162 648.253C710.286 648.253 709.609 648.014 709.131 647.535C708.666 647.043 708.433 646.431 708.433 645.7ZM723.761 651.304L723.901 653.797C725.494 651.869 727.586 650.906 730.175 650.906C734.664 650.906 736.948 653.478 737.028 658.623V672.882H732.188V658.903C732.188 657.532 731.889 656.522 731.291 655.871C730.707 655.206 729.744 654.873 728.403 654.873C726.451 654.873 724.996 655.758 724.04 657.526V672.882H719.199V651.304H723.761ZM535.123 698.616C534.486 698.51 533.828 698.457 533.151 698.457C530.933 698.457 529.439 699.307 528.669 701.009V715.767H523.829V694.188H528.45L528.569 696.601C529.738 694.728 531.359 693.79 533.43 693.79C534.12 693.79 534.692 693.883 535.143 694.069L535.123 698.616ZM547.682 716.166C544.614 716.166 542.125 715.202 540.212 713.274C538.313 711.333 537.364 708.754 537.364 705.536V704.938C537.364 702.784 537.776 700.863 538.599 699.174C539.435 697.472 540.604 696.15 542.104 695.205C543.606 694.262 545.278 693.79 547.124 693.79C550.06 693.79 552.324 694.728 553.917 696.601C555.524 698.476 556.328 701.129 556.328 704.558V706.514H542.244C542.39 708.294 542.981 709.704 544.017 710.741C545.066 711.778 546.381 712.297 547.962 712.297C550.179 712.297 551.985 711.4 553.379 709.605L555.989 712.097C555.125 713.387 553.97 714.39 552.523 715.108C551.089 715.814 549.475 716.166 547.682 716.166ZM547.105 697.678C545.777 697.678 544.701 698.144 543.878 699.074C543.067 700.005 542.55 701.301 542.324 702.964H551.547V702.604C551.44 700.983 551.009 699.759 550.252 698.935C549.495 698.097 548.446 697.678 547.105 697.678ZM572.592 709.904C572.592 709.039 572.233 708.381 571.516 707.929C570.813 707.478 569.637 707.078 567.99 706.732C566.343 706.387 564.969 705.948 563.867 705.416C561.45 704.246 560.241 702.551 560.241 700.331C560.241 698.47 561.025 696.914 562.592 695.664C564.159 694.415 566.151 693.79 568.568 693.79C571.144 693.79 573.223 694.428 574.803 695.705C576.396 696.981 577.193 698.636 577.193 700.67H572.353C572.353 699.739 572.008 698.968 571.317 698.356C570.626 697.732 569.71 697.419 568.568 697.419C567.506 697.419 566.636 697.665 565.959 698.157C565.295 698.65 564.962 699.307 564.962 700.132C564.962 700.876 565.274 701.454 565.899 701.867C566.523 702.278 567.784 702.698 569.683 703.123C571.583 703.535 573.07 704.034 574.146 704.619C575.235 705.19 576.037 705.882 576.556 706.692C577.087 707.504 577.353 708.488 577.353 709.644C577.353 711.585 576.549 713.161 574.942 714.371C573.336 715.568 571.231 716.166 568.628 716.166C566.861 716.166 565.288 715.846 563.907 715.208C562.526 714.57 561.45 713.693 560.68 712.576C559.91 711.459 559.524 710.256 559.524 708.966H564.225C564.292 710.11 564.724 710.994 565.52 711.619C566.317 712.23 567.372 712.536 568.687 712.536C569.962 712.536 570.932 712.297 571.596 711.818C572.26 711.326 572.592 710.688 572.592 709.904ZM591.486 716.166C588.418 716.166 585.927 715.202 584.015 713.274C582.116 711.333 581.167 708.754 581.167 705.536V704.938C581.167 702.784 581.579 700.863 582.402 699.174C583.239 697.472 584.407 696.15 585.908 695.205C587.408 694.262 589.082 693.79 590.928 693.79C593.862 693.79 596.126 694.728 597.721 696.601C599.327 698.476 600.131 701.129 600.131 704.558V706.514H586.047C586.194 708.294 586.784 709.704 587.82 710.741C588.869 711.778 590.183 712.297 591.764 712.297C593.982 712.297 595.788 711.4 597.182 709.605L599.792 712.097C598.929 713.387 597.774 714.39 596.326 715.108C594.891 715.814 593.278 716.166 591.486 716.166ZM590.908 697.678C589.58 697.678 588.504 698.144 587.681 699.074C586.871 700.005 586.353 701.301 586.127 702.964H595.35V702.604C595.243 700.983 594.812 699.759 594.055 698.935C593.298 698.097 592.249 697.678 590.908 697.678ZM617.192 715.767C616.979 715.354 616.794 714.683 616.634 713.752C615.094 715.361 613.208 716.166 610.976 716.166C608.812 716.166 607.046 715.547 605.678 714.311C604.31 713.074 603.626 711.546 603.626 709.724C603.626 707.424 604.476 705.662 606.176 704.439C607.889 703.202 610.333 702.585 613.507 702.585H616.475V701.168C616.475 700.051 616.162 699.161 615.538 698.496C614.914 697.818 613.965 697.479 612.69 697.479C611.587 697.479 610.685 697.758 609.981 698.317C609.277 698.862 608.925 699.56 608.925 700.411H604.085C604.085 699.227 604.476 698.124 605.26 697.101C606.043 696.063 607.106 695.252 608.447 694.667C609.801 694.082 611.309 693.79 612.969 693.79C615.492 693.79 617.504 694.428 619.005 695.705C620.505 696.968 621.275 698.749 621.315 701.049V710.781C621.315 712.722 621.587 714.271 622.132 715.428V715.767H617.192ZM611.873 712.277C612.829 712.277 613.726 712.044 614.562 711.578C615.412 711.114 616.049 710.489 616.475 709.704V705.636H613.866C612.073 705.636 610.724 705.948 609.822 706.573C608.918 707.198 608.467 708.082 608.467 709.226C608.467 710.156 608.772 710.9 609.383 711.459C610.007 712.004 610.838 712.277 611.873 712.277ZM638.077 698.616C637.44 698.51 636.783 698.457 636.106 698.457C633.887 698.457 632.393 699.307 631.623 701.009V715.767H626.783V694.188H631.404L631.524 696.601C632.692 694.728 634.313 693.79 636.384 693.79C637.075 693.79 637.646 693.883 638.097 694.069L638.077 698.616ZM649.999 712.297C651.207 712.297 652.21 711.945 653.007 711.239C653.804 710.535 654.229 709.664 654.282 708.627H658.843C658.79 709.97 658.372 711.226 657.589 712.396C656.806 713.553 655.743 714.47 654.402 715.149C653.061 715.827 651.612 716.166 650.059 716.166C647.044 716.166 644.654 715.189 642.888 713.234C641.122 711.279 640.238 708.58 640.238 705.137V704.639C640.238 701.354 641.114 698.729 642.868 696.762C644.621 694.781 647.011 693.79 650.039 693.79C652.602 693.79 654.687 694.541 656.294 696.044C657.914 697.532 658.764 699.493 658.843 701.926H654.282C654.229 700.69 653.804 699.673 653.007 698.875C652.223 698.078 651.221 697.678 649.999 697.678C648.432 697.678 647.224 698.25 646.374 699.394C645.523 700.524 645.092 702.246 645.079 704.558V705.336C645.079 707.677 645.497 709.425 646.334 710.582C647.184 711.725 648.406 712.297 649.999 712.297ZM667.678 696.542C669.258 694.707 671.257 693.79 673.674 693.79C678.268 693.79 680.599 696.415 680.665 701.667V715.767H675.825V701.846C675.825 700.358 675.499 699.307 674.849 698.695C674.211 698.071 673.269 697.758 672.02 697.758C670.082 697.758 668.634 698.623 667.678 700.351V715.767H662.837V685.135H667.678V696.542ZM695.784 707.929C695.784 706.586 696.149 705.357 696.88 704.24C697.61 703.11 699.051 701.774 701.202 700.231C700.074 698.809 699.283 697.599 698.832 696.601C698.393 695.605 698.175 694.641 698.175 693.71C698.175 691.437 698.865 689.642 700.246 688.326C701.627 686.996 703.487 686.331 705.824 686.331C707.935 686.331 709.662 686.956 711.003 688.206C712.358 689.443 713.035 690.978 713.035 692.813C713.035 694.022 712.729 695.139 712.118 696.163C711.507 697.173 710.504 698.184 709.11 699.195L707.139 700.63L712.736 707.251C713.546 705.656 713.951 703.88 713.951 701.926H718.154C718.154 705.503 717.317 708.434 715.644 710.722L719.907 715.767H714.289L712.656 713.832C710.585 715.388 708.115 716.166 705.246 716.166C702.378 716.166 700.08 715.407 698.353 713.892C696.641 712.363 695.784 710.375 695.784 707.929ZM705.386 712.297C707.018 712.297 708.546 711.752 709.967 710.661L703.632 703.183L703.015 703.621C701.421 704.831 700.625 706.215 700.625 707.77C700.625 709.112 701.056 710.203 701.919 711.04C702.783 711.877 703.938 712.297 705.386 712.297ZM702.716 693.59C702.716 694.707 703.4 696.11 704.768 697.798L706.979 696.283L707.597 695.784C708.42 695.053 708.832 694.116 708.832 692.972C708.832 692.215 708.546 691.569 707.975 691.037C707.404 690.492 706.68 690.22 705.804 690.22C704.861 690.22 704.111 690.539 703.553 691.177C702.995 691.816 702.716 692.62 702.716 693.59ZM502.076 747.702C502.076 744.379 502.846 741.713 504.386 739.706C505.927 737.685 507.992 736.675 510.582 736.675C512.866 736.675 514.712 737.472 516.119 739.067V728.019H520.96V758.651H516.577L516.338 756.417C514.891 758.172 512.959 759.051 510.541 759.051C508.019 759.051 505.973 758.034 504.407 755.999C502.852 753.965 502.076 751.2 502.076 747.702ZM506.917 748.122C506.917 750.315 507.335 752.031 508.171 753.267C509.022 754.489 510.223 755.101 511.776 755.101C513.756 755.101 515.203 754.218 516.119 752.449V743.235C515.23 741.508 513.796 740.643 511.816 740.643C510.25 740.643 509.041 741.268 508.192 742.517C507.341 743.754 506.917 745.623 506.917 748.122ZM535.909 759.051C532.842 759.051 530.352 758.087 528.44 756.159C526.541 754.218 525.591 751.639 525.591 748.42V747.823C525.591 745.669 526.003 743.748 526.826 742.059C527.662 740.357 528.831 739.035 530.332 738.09C531.833 737.147 533.505 736.675 535.352 736.675C538.287 736.675 540.551 737.612 542.144 739.486C543.751 741.361 544.555 744.013 544.555 747.443V749.398H530.471C530.617 751.179 531.209 752.588 532.244 753.626C533.293 754.663 534.608 755.182 536.189 755.182C538.406 755.182 540.212 754.284 541.607 752.489L544.216 754.982C543.353 756.271 542.197 757.275 540.75 757.993C539.316 758.698 537.702 759.051 535.909 759.051ZM535.332 740.563C534.004 740.563 532.928 741.029 532.105 741.959C531.294 742.89 530.777 744.186 530.551 745.848H539.774V745.489C539.668 743.867 539.236 742.644 538.48 741.82C537.722 740.982 536.673 740.563 535.332 740.563ZM556.059 752.509L560.62 737.073H565.62L558.149 758.651H553.946L546.416 737.073H551.436L556.059 752.509ZM578.278 759.051C575.21 759.051 572.721 758.087 570.808 756.159C568.909 754.218 567.96 751.639 567.96 748.42V747.823C567.96 745.669 568.372 743.748 569.195 742.059C570.031 740.357 571.2 739.035 572.701 738.09C574.202 737.147 575.875 736.675 577.72 736.675C580.656 736.675 582.92 737.612 584.514 739.486C586.12 741.361 586.924 744.013 586.924 747.443V749.398H572.84C572.987 751.179 573.577 752.588 574.614 753.626C575.662 754.663 576.977 755.182 578.558 755.182C580.775 755.182 582.581 754.284 583.975 752.489L586.585 754.982C585.721 756.271 584.567 757.275 583.119 757.993C581.685 758.698 580.071 759.051 578.278 759.051ZM577.701 740.563C576.373 740.563 575.297 741.029 574.474 741.959C573.664 742.89 573.146 744.186 572.92 745.848H582.143V745.489C582.037 743.867 581.605 742.644 580.848 741.82C580.092 740.982 579.042 740.563 577.701 740.563ZM596.256 758.651H591.416V728.019H596.256V758.651ZM601.046 747.663C601.046 745.549 601.465 743.648 602.301 741.959C603.138 740.258 604.313 738.955 605.827 738.05C607.341 737.133 609.08 736.675 611.046 736.675C613.954 736.675 616.311 737.612 618.118 739.486C619.937 741.361 620.919 743.847 621.066 746.945L621.086 748.081C621.086 750.209 620.675 752.11 619.85 753.785C619.041 755.461 617.872 756.757 616.345 757.674C614.83 758.591 613.078 759.051 611.085 759.051C608.045 759.051 605.608 758.04 603.776 756.019C601.956 753.985 601.046 751.279 601.046 747.903V747.663ZM605.887 748.081C605.887 750.302 606.345 752.044 607.261 753.307C608.178 754.557 609.453 755.182 611.085 755.182C612.719 755.182 613.988 754.544 614.891 753.267C615.807 751.991 616.265 750.122 616.265 747.663C616.265 745.483 615.793 743.754 614.851 742.478C613.921 741.201 612.653 740.563 611.046 740.563C609.466 740.563 608.21 741.195 607.281 742.458C606.352 743.708 605.887 745.583 605.887 748.081ZM644.462 748.081C644.462 751.419 643.705 754.084 642.19 756.078C640.677 758.06 638.645 759.051 636.095 759.051C633.731 759.051 631.838 758.273 630.418 756.716V766.948H625.577V737.073H630.039L630.238 739.267C631.66 737.539 633.592 736.675 636.035 736.675C638.665 736.675 640.723 737.658 642.211 739.626C643.711 741.58 644.462 744.299 644.462 747.782V748.081ZM639.641 747.663C639.641 745.509 639.209 743.801 638.346 742.538C637.496 741.275 636.274 740.643 634.681 740.643C632.702 740.643 631.282 741.461 630.418 743.096V752.669C631.295 754.343 632.729 755.182 634.721 755.182C636.261 755.182 637.463 754.563 638.326 753.326C639.202 752.077 639.641 750.189 639.641 747.663ZM653.535 737.073L653.674 739.327C655.188 737.558 657.259 736.675 659.889 736.675C662.771 736.675 664.742 737.778 665.805 739.985C667.373 737.778 669.577 736.675 672.418 736.675C674.796 736.675 676.562 737.333 677.718 738.649C678.886 739.965 679.484 741.906 679.511 744.472V758.651H674.669V744.612C674.669 743.242 674.371 742.239 673.774 741.601C673.176 740.962 672.187 740.643 670.805 740.643C669.703 740.643 668.8 740.942 668.096 741.54C667.405 742.125 666.921 742.896 666.641 743.854L666.662 758.651H661.821V744.452C661.755 741.913 660.46 740.643 657.937 740.643C655.998 740.643 654.624 741.434 653.813 743.017V758.651H648.973V737.073H653.535ZM694.38 759.051C691.312 759.051 688.822 758.087 686.91 756.159C685.011 754.218 684.061 751.639 684.061 748.42V747.823C684.061 745.669 684.473 743.748 685.297 742.059C686.133 740.357 687.302 739.035 688.802 738.09C690.303 737.147 691.976 736.675 693.822 736.675C696.757 736.675 699.021 737.612 700.615 739.486C702.222 741.361 703.026 744.013 703.026 747.443V749.398H688.942C689.087 751.179 689.679 752.588 690.714 753.626C691.764 754.663 693.078 755.182 694.659 755.182C696.877 755.182 698.683 754.284 700.077 752.489L702.687 754.982C701.823 756.271 700.668 757.275 699.22 757.993C697.786 758.698 696.173 759.051 694.38 759.051ZM693.803 740.563C692.475 740.563 691.399 741.029 690.576 741.959C689.766 742.89 689.248 744.186 689.021 745.848H698.244V745.489C698.138 743.867 697.707 742.644 696.95 741.82C696.193 740.982 695.144 740.563 693.803 740.563ZM711.7 737.073L711.839 739.567C713.434 737.639 715.524 736.675 718.114 736.675C722.603 736.675 724.887 739.247 724.967 744.392V758.651H720.126V744.672C720.126 743.302 719.827 742.292 719.23 741.64C718.645 740.976 717.682 740.643 716.341 740.643C714.389 740.643 712.935 741.527 711.979 743.296V758.651H707.139V737.073H711.7ZM736.391 731.828V737.073H740.195V740.663H736.391V752.709C736.391 753.533 736.55 754.131 736.869 754.504C737.2 754.862 737.785 755.042 738.621 755.042C739.179 755.042 739.744 754.976 740.315 754.843V758.591C739.213 758.897 738.15 759.051 737.128 759.051C733.409 759.051 731.55 756.996 731.55 752.887V740.663H728.004V737.073H731.55V731.828H736.391Z" fill="white"/>
<path d="M1182.94 276.05H1179.2V256.841H1174.64V254.034L1182.94 253.219V276.05Z" fill="#1B2546"/>
<path d="M60.1849 273.975H41.9257V271.159L50.8759 262.441C52.3362 261.013 53.3432 259.844 53.8972 258.934C54.451 258.012 54.728 257.112 54.728 256.235C54.728 255.133 54.3692 254.212 53.6517 253.47C52.9341 252.728 51.9648 252.357 50.7438 252.357C49.1325 252.357 47.9366 252.762 47.1561 253.571C46.3756 254.381 45.9854 255.493 45.9854 256.91H41.5481L41.5103 256.808C41.4474 254.628 42.2467 252.795 43.9083 251.312C45.57 249.816 47.8485 249.068 50.7438 249.068C53.3873 249.068 55.4769 249.72 57.0127 251.024C58.5485 252.328 59.3164 254.032 59.3164 256.134C59.3164 257.539 58.8695 258.883 57.9757 260.165C57.0946 261.446 55.7224 263.003 53.8593 264.836L47.7415 270.602L47.7981 270.704H60.1849V273.975Z" fill="#1B2546"/>
<path d="M616.068 578.14H619.355C620.886 578.14 621.988 577.792 622.662 577.095C623.337 576.387 623.674 575.39 623.674 574.105C623.674 572.844 623.311 571.872 622.584 571.187C621.859 570.491 620.789 570.142 619.375 570.142C618.092 570.142 617.041 570.485 616.224 571.169C615.42 571.841 615.018 572.73 615.018 573.835H610.466L610.427 573.727C610.35 571.721 611.154 570.041 612.84 568.684C614.538 567.315 616.697 566.63 619.317 566.63C622.078 566.63 624.283 567.278 625.93 568.575C627.577 569.872 628.401 571.715 628.401 574.105C628.401 575.222 628.031 576.303 627.292 577.347C626.553 578.392 625.502 579.202 624.14 579.779C625.749 580.307 626.929 581.112 627.681 582.192C628.446 583.273 628.828 584.504 628.828 585.885C628.828 588.286 627.934 590.178 626.144 591.558C624.367 592.928 622.092 593.612 619.317 593.612C616.697 593.612 614.493 592.97 612.703 591.684C610.927 590.388 610.077 588.598 610.155 586.317L610.194 586.209H614.745C614.745 587.374 615.167 588.317 616.01 589.037C616.853 589.757 617.975 590.117 619.375 590.117C620.84 590.117 621.995 589.751 622.838 589.019C623.681 588.286 624.102 587.248 624.102 585.903C624.102 584.426 623.713 583.34 622.935 582.643C622.169 581.934 620.977 581.58 619.355 581.58H616.068V578.14Z" fill="#1B2546"/>
</g>
<defs>
<clipPath id="clip0">
<rect width="1212" height="824" fill="white"/>
</clipPath>
</defs>
</svg>
