<svg width="1366" height="689" viewBox="0 0 1366 689" fill="none" xmlns="http://www.w3.org/2000/svg">
<path d="M0.586914 178.316V128.551H17.6426C23.2708 128.551 27.5547 129.679 30.4941 131.935C33.4336 134.19 34.9033 137.551 34.9033 142.018C34.9033 144.296 34.2881 146.347 33.0576 148.17C31.8271 149.993 30.027 151.406 27.6572 152.408C30.346 153.137 32.4196 154.516 33.8779 156.544C35.359 158.549 36.0996 160.965 36.0996 163.79C36.0996 168.461 34.5957 172.05 31.5879 174.557C28.6029 177.063 24.319 178.316 18.7363 178.316H0.586914ZM9.23438 155.86V171.412H18.8389C21.5505 171.412 23.6696 170.74 25.1963 169.396C26.723 168.051 27.4863 166.183 27.4863 163.79C27.4863 158.618 24.8431 155.974 19.5566 155.86H9.23438ZM9.23438 149.503H17.7109C20.3997 149.503 22.4961 148.899 24 147.691C25.5267 146.461 26.29 144.729 26.29 142.496C26.29 140.035 25.5837 138.258 24.1709 137.164C22.7809 136.07 20.6048 135.523 17.6426 135.523H9.23438V149.503ZM52.7793 178.316H44.4736V125.816H52.7793V178.316ZM60.2988 159.483C60.2988 155.86 61.0166 152.602 62.4521 149.708C63.8877 146.791 65.9043 144.558 68.502 143.009C71.0996 141.437 74.0846 140.65 77.457 140.65C82.4473 140.65 86.4919 142.257 89.5908 145.47C92.7126 148.683 94.3988 152.944 94.6494 158.253L94.6836 160.201C94.6836 163.847 93.9772 167.105 92.5645 169.977C91.1745 172.848 89.1693 175.069 86.5488 176.642C83.9512 178.214 80.9434 179 77.5254 179C72.3073 179 68.126 177.268 64.9814 173.805C61.8597 170.318 60.2988 165.681 60.2988 159.894V159.483ZM68.6045 160.201C68.6045 164.007 69.3906 166.992 70.9629 169.156C72.5352 171.298 74.7227 172.369 77.5254 172.369C80.3281 172.369 82.5042 171.275 84.0537 169.088C85.626 166.9 86.4121 163.699 86.4121 159.483C86.4121 155.746 85.6032 152.784 83.9854 150.597C82.3903 148.409 80.2142 147.315 77.457 147.315C74.7454 147.315 72.5921 148.398 70.9971 150.562C69.402 152.704 68.6045 155.917 68.6045 160.201ZM116.9 172.369C118.974 172.369 120.694 171.765 122.062 170.558C123.429 169.35 124.158 167.857 124.249 166.08H132.076C131.985 168.382 131.267 170.535 129.923 172.54C128.578 174.522 126.756 176.095 124.454 177.257C122.153 178.419 119.669 179 117.003 179C111.83 179 107.729 177.325 104.698 173.976C101.668 170.626 100.152 166 100.152 160.099V159.244C100.152 153.616 101.656 149.116 104.664 145.743C107.672 142.348 111.773 140.65 116.969 140.65C121.367 140.65 124.944 141.938 127.701 144.513C130.481 147.065 131.939 150.426 132.076 154.596H124.249C124.158 152.477 123.429 150.733 122.062 149.366C120.717 147.999 118.997 147.315 116.9 147.315C114.212 147.315 112.138 148.295 110.68 150.255C109.221 152.192 108.481 155.143 108.458 159.107V160.44C108.458 164.451 109.176 167.447 110.611 169.43C112.07 171.389 114.166 172.369 116.9 172.369ZM150.362 162.457L146.671 166.251V178.316H138.365V125.816H146.671V156.1L149.269 152.853L159.488 141.334H169.469L155.729 156.749L170.938 178.316H161.334L150.362 162.457ZM189.43 172.369C191.503 172.369 193.224 171.765 194.591 170.558C195.958 169.35 196.687 167.857 196.778 166.08H204.605C204.514 168.382 203.797 170.535 202.452 172.54C201.108 174.522 199.285 176.095 196.983 177.257C194.682 178.419 192.198 179 189.532 179C184.36 179 180.258 177.325 177.228 173.976C174.197 170.626 172.682 166 172.682 160.099V159.244C172.682 153.616 174.186 149.116 177.193 145.743C180.201 142.348 184.303 140.65 189.498 140.65C193.896 140.65 197.473 141.938 200.23 144.513C203.01 147.065 204.469 150.426 204.605 154.596H196.778C196.687 152.477 195.958 150.733 194.591 149.366C193.246 147.999 191.526 147.315 189.43 147.315C186.741 147.315 184.667 148.295 183.209 150.255C181.751 152.192 181.01 155.143 180.987 159.107V160.44C180.987 164.451 181.705 167.447 183.141 169.43C184.599 171.389 186.695 172.369 189.43 172.369ZM219.063 145.367C221.775 142.223 225.204 140.65 229.352 140.65C237.236 140.65 241.235 145.151 241.349 154.151V178.316H233.043V154.459C233.043 151.907 232.485 150.107 231.368 149.059C230.274 147.988 228.657 147.452 226.515 147.452C223.188 147.452 220.704 148.933 219.063 151.896V178.316H210.758V125.816H219.063V145.367ZM271.871 178.316C271.507 177.61 271.188 176.459 270.914 174.864C268.271 177.621 265.035 179 261.207 179C257.493 179 254.462 177.94 252.115 175.821C249.768 173.702 248.595 171.082 248.595 167.96C248.595 164.018 250.053 160.999 252.97 158.902C255.909 156.783 260.102 155.724 265.548 155.724H270.641V153.297C270.641 151.383 270.105 149.856 269.034 148.717C267.963 147.555 266.334 146.974 264.146 146.974C262.255 146.974 260.706 147.452 259.498 148.409C258.29 149.343 257.687 150.54 257.687 151.998H249.381C249.381 149.97 250.053 148.079 251.397 146.324C252.742 144.547 254.565 143.157 256.866 142.154C259.19 141.152 261.777 140.65 264.625 140.65C268.954 140.65 272.407 141.744 274.981 143.932C277.556 146.096 278.878 149.15 278.946 153.092V169.771C278.946 173.098 279.413 175.753 280.348 177.735V178.316H271.871ZM262.745 172.335C264.386 172.335 265.924 171.936 267.359 171.139C268.818 170.341 269.911 169.27 270.641 167.926V160.953H266.163C263.087 160.953 260.774 161.489 259.225 162.56C257.675 163.631 256.9 165.146 256.9 167.105C256.9 168.701 257.424 169.977 258.473 170.934C259.544 171.868 260.968 172.335 262.745 172.335ZM296.48 178.316H288.175V141.334H296.48V178.316ZM287.662 131.729C287.662 130.453 288.061 129.394 288.858 128.551C289.679 127.708 290.841 127.286 292.345 127.286C293.849 127.286 295.011 127.708 295.831 128.551C296.651 129.394 297.062 130.453 297.062 131.729C297.062 132.983 296.651 134.031 295.831 134.874C295.011 135.694 293.849 136.104 292.345 136.104C290.841 136.104 289.679 135.694 288.858 134.874C288.061 134.031 287.662 132.983 287.662 131.729ZM313.263 141.334L313.502 145.606C316.236 142.302 319.825 140.65 324.269 140.65C331.97 140.65 335.89 145.06 336.026 153.878V178.316H327.721V154.356C327.721 152.009 327.208 150.278 326.183 149.161C325.18 148.022 323.528 147.452 321.227 147.452C317.877 147.452 315.382 148.967 313.741 151.998V178.316H305.436V141.334H313.263ZM360.636 164.884C360.636 162.582 361.262 160.475 362.516 158.561C363.769 156.624 366.241 154.334 369.933 151.69C367.996 149.252 366.64 147.179 365.865 145.47C365.113 143.761 364.737 142.109 364.737 140.514C364.737 136.617 365.922 133.541 368.292 131.285C370.662 129.007 373.852 127.867 377.862 127.867C381.485 127.867 384.448 128.938 386.749 131.08C389.073 133.199 390.235 135.831 390.235 138.976C390.235 141.049 389.711 142.963 388.663 144.718C387.615 146.45 385.895 148.181 383.502 149.913L380.118 152.374L389.723 163.722C391.113 160.987 391.808 157.945 391.808 154.596H399.02C399.02 160.725 397.584 165.75 394.713 169.669L402.027 178.316H392.389L389.586 175.001C386.031 177.667 381.793 179 376.871 179C371.949 179 368.007 177.701 365.045 175.104C362.105 172.483 360.636 169.076 360.636 164.884ZM377.11 172.369C379.913 172.369 382.534 171.435 384.972 169.566L374.103 156.749L373.043 157.501C370.309 159.575 368.941 161.944 368.941 164.61C368.941 166.912 369.682 168.78 371.163 170.216C372.644 171.651 374.627 172.369 377.11 172.369ZM372.53 140.309C372.53 142.223 373.704 144.627 376.051 147.521L379.845 144.923L380.904 144.068C382.317 142.815 383.023 141.209 383.023 139.249C383.023 137.95 382.534 136.845 381.554 135.934C380.574 134.999 379.332 134.532 377.828 134.532C376.21 134.532 374.923 135.079 373.966 136.173C373.009 137.267 372.53 138.645 372.53 140.309Z" fill="white"/>
<path d="M959.75 178.316V128.551H974.447C978.845 128.551 982.742 129.531 986.137 131.49C989.555 133.45 992.198 136.23 994.066 139.83C995.935 143.43 996.869 147.555 996.869 152.203V154.698C996.869 159.415 995.924 163.562 994.032 167.14C992.164 170.717 989.486 173.474 986 175.411C982.536 177.348 978.56 178.316 974.071 178.316H959.75ZM968.397 135.523V171.412H974.037C978.572 171.412 982.047 169.999 984.462 167.174C986.9 164.326 988.142 160.247 988.188 154.938V152.169C988.188 146.769 987.014 142.644 984.667 139.796C982.32 136.948 978.913 135.523 974.447 135.523H968.397ZM1020.97 179C1015.7 179 1011.43 177.348 1008.15 174.044C1004.89 170.717 1003.26 166.297 1003.26 160.782V159.757C1003.26 156.065 1003.97 152.773 1005.38 149.879C1006.82 146.962 1008.82 144.695 1011.4 143.077C1013.97 141.459 1016.84 140.65 1020.01 140.65C1025.04 140.65 1028.93 142.257 1031.66 145.47C1034.42 148.683 1035.8 153.229 1035.8 159.107V162.457H1011.63C1011.89 165.51 1012.9 167.926 1014.68 169.703C1016.48 171.48 1018.73 172.369 1021.44 172.369C1025.25 172.369 1028.35 170.831 1030.74 167.755L1035.22 172.027C1033.74 174.238 1031.76 175.958 1029.27 177.188C1026.81 178.396 1024.04 179 1020.97 179ZM1019.97 147.315C1017.7 147.315 1015.85 148.113 1014.44 149.708C1013.05 151.303 1012.16 153.525 1011.77 156.373H1027.6V155.758C1027.41 152.978 1026.67 150.882 1025.38 149.469C1024.08 148.033 1022.28 147.315 1019.97 147.315ZM1054.84 167.789L1062.67 141.334H1071.24L1058.43 178.316H1051.21L1038.29 141.334H1046.91L1054.84 167.789ZM1092.26 179C1087 179 1082.73 177.348 1079.45 174.044C1076.19 170.717 1074.56 166.297 1074.56 160.782V159.757C1074.56 156.065 1075.27 152.773 1076.68 149.879C1078.11 146.962 1080.12 144.695 1082.69 143.077C1085.27 141.459 1088.14 140.65 1091.31 140.65C1096.34 140.65 1100.23 142.257 1102.96 145.47C1105.72 148.683 1107.1 153.229 1107.1 159.107V162.457H1082.93C1083.18 165.51 1084.2 167.926 1085.98 169.703C1087.78 171.48 1090.03 172.369 1092.74 172.369C1096.55 172.369 1099.65 170.831 1102.04 167.755L1106.52 172.027C1105.04 174.238 1103.05 175.958 1100.57 177.188C1098.11 178.396 1095.34 179 1092.26 179ZM1091.27 147.315C1088.99 147.315 1087.15 148.113 1085.74 149.708C1084.35 151.303 1083.46 153.525 1083.07 156.373H1098.9V155.758C1098.71 152.978 1097.97 150.882 1096.67 149.469C1095.38 148.033 1093.57 147.315 1091.27 147.315ZM1122.41 178.316H1114.11V125.816H1122.41V178.316ZM1129.93 159.483C1129.93 155.86 1130.65 152.602 1132.08 149.708C1133.52 146.791 1135.54 144.558 1138.13 143.009C1140.73 141.437 1143.72 140.65 1147.09 140.65C1152.08 140.65 1156.12 142.257 1159.22 145.47C1162.34 148.683 1164.03 152.944 1164.28 158.253L1164.32 160.201C1164.32 163.847 1163.61 167.105 1162.2 169.977C1160.81 172.848 1158.8 175.069 1156.18 176.642C1153.58 178.214 1150.58 179 1147.16 179C1141.94 179 1137.76 177.268 1134.61 173.805C1131.49 170.318 1129.93 165.681 1129.93 159.894V159.483ZM1138.24 160.201C1138.24 164.007 1139.02 166.992 1140.59 169.156C1142.17 171.298 1144.35 172.369 1147.16 172.369C1149.96 172.369 1152.14 171.275 1153.69 169.088C1155.26 166.9 1156.04 163.699 1156.04 159.483C1156.04 155.746 1155.24 152.784 1153.62 150.597C1152.02 148.409 1149.85 147.315 1147.09 147.315C1144.38 147.315 1142.22 148.398 1140.63 150.562C1139.03 152.704 1138.24 155.917 1138.24 160.201ZM1203.72 160.201C1203.72 165.921 1202.43 170.489 1199.83 173.907C1197.23 177.302 1193.74 179 1189.37 179C1185.31 179 1182.07 177.667 1179.63 175.001V192.535H1171.32V141.334H1178.98L1179.32 145.094C1181.76 142.132 1185.07 140.65 1189.27 140.65C1193.78 140.65 1197.31 142.337 1199.86 145.709C1202.44 149.059 1203.72 153.718 1203.72 159.688V160.201ZM1195.45 159.483C1195.45 155.792 1194.71 152.864 1193.23 150.699C1191.77 148.535 1189.68 147.452 1186.94 147.452C1183.55 147.452 1181.11 148.854 1179.63 151.656V168.062C1181.13 170.934 1183.59 172.369 1187.01 172.369C1189.65 172.369 1191.72 171.31 1193.2 169.19C1194.7 167.049 1195.45 163.813 1195.45 159.483ZM1218.59 141.334L1218.83 145.196C1221.43 142.166 1224.98 140.65 1229.5 140.65C1234.44 140.65 1237.82 142.542 1239.65 146.324C1242.34 142.542 1246.12 140.65 1251 140.65C1255.07 140.65 1258.1 141.778 1260.09 144.034C1262.09 146.29 1263.12 149.617 1263.16 154.015V178.316H1254.86V154.254C1254.86 151.907 1254.34 150.187 1253.32 149.093C1252.29 147.999 1250.6 147.452 1248.23 147.452C1246.34 147.452 1244.79 147.965 1243.58 148.99C1242.39 149.993 1241.56 151.314 1241.08 152.955L1241.12 178.316H1232.81V153.98C1232.7 149.628 1230.48 147.452 1226.15 147.452C1222.82 147.452 1220.46 148.808 1219.07 151.52V178.316H1210.77V141.334H1218.59ZM1287.98 179C1282.71 179 1278.44 177.348 1275.16 174.044C1271.9 170.717 1270.27 166.297 1270.27 160.782V159.757C1270.27 156.065 1270.98 152.773 1272.39 149.879C1273.83 146.962 1275.83 144.695 1278.41 143.077C1280.98 141.459 1283.85 140.65 1287.02 140.65C1292.06 140.65 1295.94 142.257 1298.68 145.47C1301.43 148.683 1302.81 153.229 1302.81 159.107V162.457H1278.65C1278.9 165.51 1279.91 167.926 1281.69 169.703C1283.49 171.48 1285.74 172.369 1288.46 172.369C1292.26 172.369 1295.36 170.831 1297.75 167.755L1302.23 172.027C1300.75 174.238 1298.77 175.958 1296.28 177.188C1293.82 178.396 1291.05 179 1287.98 179ZM1286.99 147.315C1284.71 147.315 1282.86 148.113 1281.45 149.708C1280.06 151.303 1279.17 153.525 1278.78 156.373H1294.61V155.758C1294.43 152.978 1293.69 150.882 1292.39 149.469C1291.09 148.033 1289.29 147.315 1286.99 147.315ZM1317 141.334L1317.24 145.606C1319.97 142.302 1323.56 140.65 1328 140.65C1335.7 140.65 1339.62 145.06 1339.76 153.878V178.316H1331.45V154.356C1331.45 152.009 1330.94 150.278 1329.92 149.161C1328.91 148.022 1327.26 147.452 1324.96 147.452C1321.61 147.452 1319.12 148.967 1317.47 151.998V178.316H1309.17V141.334H1317ZM1358.66 132.345V141.334H1365.19V147.486H1358.66V168.131C1358.66 169.544 1358.93 170.569 1359.48 171.207C1360.05 171.822 1361.05 172.13 1362.49 172.13C1363.45 172.13 1364.41 172.016 1365.39 171.788V178.214C1363.5 178.738 1361.68 179 1359.93 179C1353.55 179 1350.36 175.479 1350.36 168.438V147.486H1344.27V141.334H1350.36V132.345H1358.66Z" fill="white"/>
<path d="M488.5 6C488.5 3.23857 490.739 1 493.5 1H870.629C873.391 1 875.629 3.23857 875.629 6V79.9062C875.629 82.6676 873.391 84.9062 870.629 84.9062H493.5C490.739 84.9062 488.5 82.6676 488.5 79.9062V6Z" stroke="#626A84" stroke-width="2"/>
<path d="M596.308 48.9878H604.377V51.4536H593.22V33.6802H596.308V48.9878ZM614.35 51.4536C614.22 51.2013 614.106 50.7904 614.008 50.2207C613.064 51.2054 611.909 51.6978 610.541 51.6978C609.215 51.6978 608.133 51.3193 607.294 50.5625C606.456 49.8057 606.037 48.8698 606.037 47.7549C606.037 46.347 606.558 45.2687 607.6 44.52C608.649 43.7632 610.147 43.3848 612.092 43.3848H613.911V42.5181C613.911 41.8345 613.719 41.2892 613.337 40.8823C612.954 40.4673 612.373 40.2598 611.591 40.2598C610.916 40.2598 610.362 40.4307 609.931 40.7725C609.5 41.1061 609.284 41.5334 609.284 42.0542H606.318C606.318 41.3299 606.558 40.6545 607.038 40.0278C607.518 39.3931 608.169 38.8967 608.991 38.5386C609.821 38.1805 610.745 38.0015 611.762 38.0015C613.308 38.0015 614.541 38.3921 615.461 39.1734C616.381 39.9465 616.853 41.037 616.877 42.4448V48.4019C616.877 49.59 617.044 50.5381 617.377 51.2461V51.4536H614.35ZM611.091 49.3174C611.677 49.3174 612.226 49.175 612.739 48.8901C613.26 48.6053 613.65 48.2228 613.911 47.7427V45.2525H612.311C611.213 45.2525 610.387 45.4437 609.833 45.8262C609.28 46.2087 609.003 46.7498 609.003 47.4497C609.003 48.0194 609.191 48.4751 609.565 48.8169C609.947 49.1506 610.456 49.3174 611.091 49.3174ZM626.899 40.9556C626.508 40.8905 626.105 40.8579 625.69 40.8579C624.331 40.8579 623.416 41.3788 622.944 42.4204V51.4536H619.978V38.2456H622.81L622.883 39.7227C623.599 38.5752 624.592 38.0015 625.861 38.0015C626.284 38.0015 626.634 38.0584 626.911 38.1724L626.899 40.9556ZM628.01 44.752C628.01 42.7012 628.49 41.0654 629.45 39.8447C630.419 38.6159 631.7 38.0015 633.295 38.0015C634.801 38.0015 635.985 38.5264 636.848 39.5762L636.982 38.2456H639.655V51.0508C639.655 52.7842 639.114 54.1514 638.032 55.1524C636.957 56.1533 635.505 56.6538 633.674 56.6538C632.705 56.6538 631.757 56.4504 630.83 56.0435C629.91 55.6447 629.21 55.1198 628.73 54.4688L630.134 52.6865C631.045 53.7689 632.168 54.3101 633.503 54.3101C634.488 54.3101 635.265 54.0415 635.834 53.5044C636.404 52.9754 636.689 52.1942 636.689 51.1607V50.2695C635.834 51.2217 634.695 51.6978 633.271 51.6978C631.725 51.6978 630.459 51.0833 629.475 49.8545C628.498 48.6257 628.01 46.9248 628.01 44.752ZM630.964 45.0083C630.964 46.3348 631.232 47.3805 631.77 48.1455C632.315 48.9024 633.068 49.2808 634.028 49.2808C635.224 49.2808 636.111 48.7681 636.689 47.7427V41.9321C636.127 40.9312 635.249 40.4307 634.052 40.4307C633.076 40.4307 632.315 40.8172 631.77 41.5903C631.232 42.3635 630.964 43.5028 630.964 45.0083ZM648.53 51.6978C646.65 51.6978 645.124 51.1078 643.952 49.9277C642.788 48.7396 642.207 47.1608 642.207 45.1914V44.8252C642.207 43.5068 642.459 42.3309 642.963 41.2974C643.476 40.2557 644.192 39.446 645.112 38.8682C646.031 38.2904 647.057 38.0015 648.188 38.0015C649.986 38.0015 651.374 38.5752 652.351 39.7227C653.335 40.8701 653.828 42.4937 653.828 44.5933V45.7896H645.197C645.287 46.8801 645.649 47.7427 646.284 48.3775C646.927 49.0122 647.732 49.3296 648.701 49.3296C650.06 49.3296 651.166 48.7803 652.021 47.6817L653.62 49.2075C653.091 49.9969 652.383 50.6113 651.496 51.0508C650.617 51.4821 649.628 51.6978 648.53 51.6978ZM648.176 40.3818C647.362 40.3818 646.703 40.6667 646.198 41.2363C645.702 41.806 645.384 42.5995 645.246 43.6167H650.898V43.397C650.833 42.4041 650.568 41.6554 650.104 41.1509C649.641 40.6382 648.998 40.3818 648.176 40.3818ZM668.183 51.6978C666.303 51.6978 664.777 51.1078 663.605 49.9277C662.442 48.7396 661.86 47.1608 661.86 45.1914V44.8252C661.86 43.5068 662.112 42.3309 662.617 41.2974C663.129 40.2557 663.846 39.446 664.765 38.8682C665.685 38.2904 666.71 38.0015 667.841 38.0015C669.64 38.0015 671.027 38.5752 672.004 39.7227C672.989 40.8701 673.481 42.4937 673.481 44.5933V45.7896H664.851C664.94 46.8801 665.302 47.7427 665.937 48.3775C666.58 49.0122 667.386 49.3296 668.354 49.3296C669.713 49.3296 670.82 48.7803 671.674 47.6817L673.273 49.2075C672.744 49.9969 672.036 50.6113 671.149 51.0508C670.27 51.4821 669.282 51.6978 668.183 51.6978ZM667.829 40.3818C667.015 40.3818 666.356 40.6667 665.852 41.2363C665.355 41.806 665.038 42.5995 664.899 43.6167H670.551V43.397C670.486 42.4041 670.222 41.6554 669.758 41.1509C669.294 40.6382 668.651 40.3818 667.829 40.3818ZM678.547 38.2456L678.632 39.7715C679.609 38.5915 680.891 38.0015 682.478 38.0015C685.228 38.0015 686.628 39.5762 686.677 42.7256V51.4536H683.71V42.8965C683.71 42.0583 683.527 41.4398 683.161 41.041C682.803 40.6341 682.213 40.4307 681.391 40.4307C680.195 40.4307 679.304 40.9719 678.718 42.0542V51.4536H675.751V38.2456H678.547ZM693.427 35.0352V38.2456H695.759V40.4429H693.427V47.8159C693.427 48.3205 693.525 48.6867 693.72 48.9146C693.924 49.1343 694.282 49.2442 694.794 49.2442C695.136 49.2442 695.482 49.2035 695.832 49.1221V51.417C695.157 51.6042 694.506 51.6978 693.879 51.6978C691.6 51.6978 690.461 50.4404 690.461 47.9258V40.4429H688.288V38.2456H690.461V35.0352H693.427ZM703.852 51.6978C701.972 51.6978 700.446 51.1078 699.274 49.9277C698.111 48.7396 697.529 47.1608 697.529 45.1914V44.8252C697.529 43.5068 697.781 42.3309 698.286 41.2974C698.798 40.2557 699.514 39.446 700.434 38.8682C701.354 38.2904 702.379 38.0015 703.51 38.0015C705.309 38.0015 706.696 38.5752 707.673 39.7227C708.658 40.8701 709.15 42.4937 709.15 44.5933V45.7896H700.52C700.609 46.8801 700.971 47.7427 701.606 48.3775C702.249 49.0122 703.054 49.3296 704.023 49.3296C705.382 49.3296 706.489 48.7803 707.343 47.6817L708.942 49.2075C708.413 49.9969 707.705 50.6113 706.818 51.0508C705.939 51.4821 704.951 51.6978 703.852 51.6978ZM703.498 40.3818C702.684 40.3818 702.025 40.6667 701.52 41.2363C701.024 41.806 700.707 42.5995 700.568 43.6167H706.22V43.397C706.155 42.4041 705.891 41.6554 705.427 41.1509C704.963 40.6382 704.32 40.3818 703.498 40.3818ZM718.378 40.9556C717.988 40.8905 717.585 40.8579 717.17 40.8579C715.811 40.8579 714.895 41.3788 714.423 42.4204V51.4536H711.457V38.2456H714.289L714.362 39.7227C715.078 38.5752 716.071 38.0015 717.341 38.0015C717.764 38.0015 718.114 38.0584 718.391 38.1724L718.378 40.9556ZM731.818 44.9839C731.818 47.0265 731.354 48.6582 730.427 49.8789C729.499 51.0915 728.254 51.6978 726.691 51.6978C725.243 51.6978 724.083 51.2217 723.212 50.2695V56.5317H720.246V38.2456H722.98L723.103 39.5884C723.973 38.5304 725.157 38.0015 726.655 38.0015C728.266 38.0015 729.527 38.6037 730.439 39.8081C731.359 41.0044 731.818 42.6686 731.818 44.8008V44.9839ZM728.864 44.7276C728.864 43.4092 728.6 42.3635 728.071 41.5903C727.55 40.8172 726.801 40.4307 725.825 40.4307C724.612 40.4307 723.741 40.9312 723.212 41.9321V47.7915C723.749 48.8169 724.628 49.3296 725.849 49.3296C726.793 49.3296 727.53 48.9512 728.059 48.1943C728.596 47.4294 728.864 46.2738 728.864 44.7276ZM741.254 40.9556C740.864 40.8905 740.461 40.8579 740.046 40.8579C738.687 40.8579 737.771 41.3788 737.299 42.4204V51.4536H734.333V38.2456H737.165L737.238 39.7227C737.954 38.5752 738.947 38.0015 740.217 38.0015C740.64 38.0015 740.99 38.0584 741.267 38.1724L741.254 40.9556ZM746.284 51.4536H743.317V38.2456H746.284V51.4536ZM743.134 34.8154C743.134 34.3597 743.277 33.9813 743.561 33.6802C743.854 33.3791 744.27 33.2285 744.807 33.2285C745.344 33.2285 745.759 33.3791 746.052 33.6802C746.345 33.9813 746.491 34.3597 746.491 34.8154C746.491 35.263 746.345 35.6374 746.052 35.9385C745.759 36.2315 745.344 36.3779 744.807 36.3779C744.27 36.3779 743.854 36.2315 743.561 35.9385C743.277 35.6374 743.134 35.263 743.134 34.8154ZM756.928 47.8648C756.928 47.3358 756.708 46.933 756.269 46.6563C755.838 46.3796 755.117 46.1354 754.108 45.9238C753.099 45.7123 752.257 45.4437 751.582 45.1182C750.1 44.402 749.36 43.3644 749.36 42.0054C749.36 40.8661 749.84 39.9139 750.8 39.1489C751.761 38.384 752.981 38.0015 754.462 38.0015C756.041 38.0015 757.315 38.3921 758.283 39.1734C759.26 39.9546 759.748 40.9678 759.748 42.2129H756.782C756.782 41.6432 756.57 41.1712 756.147 40.7969C755.724 40.4144 755.162 40.2232 754.462 40.2232C753.811 40.2232 753.278 40.3737 752.863 40.6748C752.456 40.9759 752.253 41.3788 752.253 41.8833C752.253 42.339 752.444 42.693 752.827 42.9453C753.209 43.1976 753.982 43.454 755.146 43.7144C756.31 43.9666 757.221 44.2718 757.88 44.6299C758.548 44.9798 759.04 45.403 759.357 45.8994C759.683 46.3958 759.846 46.9981 759.846 47.7061C759.846 48.8942 759.353 49.8586 758.369 50.5991C757.384 51.3316 756.094 51.6978 754.499 51.6978C753.417 51.6978 752.452 51.5025 751.606 51.1118C750.76 50.7212 750.1 50.1841 749.628 49.5005C749.156 48.8169 748.92 48.0804 748.92 47.291H751.801C751.842 47.9909 752.106 48.5321 752.595 48.9146C753.083 49.2889 753.73 49.4761 754.536 49.4761C755.317 49.4761 755.911 49.3296 756.318 49.0366C756.725 48.7355 756.928 48.3449 756.928 47.8648ZM768.256 51.6978C766.376 51.6978 764.851 51.1078 763.679 49.9277C762.515 48.7396 761.933 47.1608 761.933 45.1914V44.8252C761.933 43.5068 762.185 42.3309 762.69 41.2974C763.203 40.2557 763.919 39.446 764.838 38.8682C765.758 38.2904 766.783 38.0015 767.915 38.0015C769.713 38.0015 771.101 38.5752 772.077 39.7227C773.062 40.8701 773.554 42.4937 773.554 44.5933V45.7896H764.924C765.013 46.8801 765.375 47.7427 766.01 48.3775C766.653 49.0122 767.459 49.3296 768.427 49.3296C769.786 49.3296 770.893 48.7803 771.748 47.6817L773.347 49.2075C772.818 49.9969 772.11 50.6113 771.223 51.0508C770.344 51.4821 769.355 51.6978 768.256 51.6978ZM767.902 40.3818C767.089 40.3818 766.429 40.6667 765.925 41.2363C765.428 41.806 765.111 42.5995 764.973 43.6167H770.624V43.397C770.559 42.4041 770.295 41.6554 769.831 41.1509C769.367 40.6382 768.724 40.3818 767.902 40.3818Z" fill="white"/>
<path d="M488.5 315C488.5 312.239 490.739 310 493.5 310H870.629C873.391 310 875.629 312.239 875.629 315V388.906C875.629 391.668 873.391 393.906 870.629 393.906H493.5C490.739 393.906 488.5 391.668 488.5 388.906V315Z" stroke="#626A84" stroke-width="2"/>
<path d="M644.448 360.453V342.68H650.54C652.55 342.68 654.08 343.083 655.129 343.888C656.179 344.694 656.704 345.894 656.704 347.489C656.704 348.303 656.484 349.035 656.045 349.687C655.605 350.338 654.963 350.842 654.116 351.2C655.076 351.461 655.817 351.953 656.338 352.677C656.867 353.393 657.131 354.256 657.131 355.265C657.131 356.933 656.594 358.215 655.52 359.11C654.454 360.006 652.924 360.453 650.93 360.453H644.448ZM647.537 352.433V357.987H650.967C651.935 357.987 652.692 357.747 653.237 357.267C653.783 356.787 654.055 356.12 654.055 355.265C654.055 353.418 653.111 352.474 651.223 352.433H647.537ZM647.537 350.163H650.564C651.524 350.163 652.273 349.947 652.81 349.516C653.355 349.076 653.628 348.458 653.628 347.66C653.628 346.781 653.376 346.146 652.871 345.756C652.375 345.365 651.597 345.17 650.54 345.17H647.537V350.163ZM663.088 360.453H660.122V341.703H663.088V360.453ZM665.774 353.727C665.774 352.433 666.03 351.269 666.543 350.236C667.056 349.194 667.776 348.397 668.704 347.843C669.631 347.282 670.697 347.001 671.902 347.001C673.684 347.001 675.129 347.575 676.235 348.722C677.35 349.87 677.952 351.391 678.042 353.288L678.054 353.983C678.054 355.285 677.802 356.449 677.297 357.475C676.801 358.5 676.085 359.293 675.149 359.855C674.221 360.417 673.147 360.697 671.926 360.697C670.063 360.697 668.569 360.079 667.446 358.842C666.331 357.597 665.774 355.941 665.774 353.874V353.727ZM668.74 353.983C668.74 355.342 669.021 356.409 669.582 357.182C670.144 357.947 670.925 358.329 671.926 358.329C672.927 358.329 673.704 357.938 674.258 357.157C674.819 356.376 675.1 355.233 675.1 353.727C675.1 352.392 674.811 351.334 674.233 350.553C673.664 349.772 672.887 349.381 671.902 349.381C670.933 349.381 670.164 349.768 669.595 350.541C669.025 351.306 668.74 352.453 668.74 353.983ZM685.989 358.329C686.729 358.329 687.344 358.113 687.832 357.682C688.32 357.251 688.581 356.718 688.613 356.083H691.409C691.376 356.905 691.12 357.674 690.64 358.39C690.159 359.098 689.508 359.66 688.686 360.075C687.865 360.49 686.978 360.697 686.025 360.697C684.178 360.697 682.713 360.099 681.631 358.903C680.548 357.707 680.007 356.055 680.007 353.947V353.642C680.007 351.632 680.544 350.024 681.619 348.82C682.693 347.607 684.158 347.001 686.013 347.001C687.584 347.001 688.861 347.461 689.846 348.38C690.839 349.292 691.36 350.492 691.409 351.981H688.613C688.581 351.225 688.32 350.602 687.832 350.114C687.352 349.625 686.737 349.381 685.989 349.381C685.028 349.381 684.288 349.731 683.767 350.431C683.246 351.123 682.982 352.177 682.974 353.593V354.069C682.974 355.501 683.23 356.571 683.743 357.279C684.263 357.979 685.012 358.329 685.989 358.329ZM697.939 354.789L696.621 356.144V360.453H693.655V341.703H696.621V352.519L697.549 351.359L701.199 347.245H704.763L699.856 352.75L705.288 360.453H701.858L697.939 354.789ZM711.892 358.329C712.633 358.329 713.247 358.113 713.735 357.682C714.224 357.251 714.484 356.718 714.517 356.083H717.312C717.279 356.905 717.023 357.674 716.543 358.39C716.063 359.098 715.412 359.66 714.59 360.075C713.768 360.49 712.881 360.697 711.929 360.697C710.081 360.697 708.617 360.099 707.534 358.903C706.452 357.707 705.911 356.055 705.911 353.947V353.642C705.911 351.632 706.448 350.024 707.522 348.82C708.596 347.607 710.061 347.001 711.916 347.001C713.487 347.001 714.765 347.461 715.749 348.38C716.742 349.292 717.263 350.492 717.312 351.981H714.517C714.484 351.225 714.224 350.602 713.735 350.114C713.255 349.625 712.641 349.381 711.892 349.381C710.932 349.381 710.191 349.731 709.67 350.431C709.15 351.123 708.885 352.177 708.877 353.593V354.069C708.877 355.501 709.133 356.571 709.646 357.279C710.167 357.979 710.915 358.329 711.892 358.329ZM722.476 348.686C723.444 347.562 724.669 347.001 726.15 347.001C728.966 347.001 730.394 348.608 730.435 351.823V360.453H727.468V351.933C727.468 351.021 727.269 350.378 726.87 350.004C726.479 349.621 725.902 349.43 725.137 349.43C723.949 349.43 723.061 349.959 722.476 351.017V360.453H719.509V341.703H722.476V348.686ZM741.335 360.453C741.205 360.201 741.091 359.79 740.994 359.22C740.05 360.205 738.894 360.697 737.527 360.697C736.2 360.697 735.118 360.319 734.28 359.562C733.442 358.805 733.022 357.869 733.022 356.754C733.022 355.347 733.543 354.268 734.585 353.52C735.635 352.763 737.132 352.384 739.077 352.384H740.896V351.518C740.896 350.834 740.705 350.289 740.322 349.882C739.94 349.467 739.358 349.259 738.577 349.259C737.901 349.259 737.348 349.43 736.916 349.772C736.485 350.106 736.27 350.533 736.27 351.054H733.303C733.303 350.329 733.543 349.654 734.023 349.027C734.504 348.393 735.155 347.896 735.977 347.538C736.807 347.18 737.73 347.001 738.748 347.001C740.294 347.001 741.527 347.392 742.446 348.173C743.366 348.946 743.838 350.036 743.862 351.444V357.401C743.862 358.59 744.029 359.538 744.363 360.246V360.453H741.335ZM738.076 358.317C738.662 358.317 739.211 358.174 739.724 357.89C740.245 357.605 740.636 357.222 740.896 356.742V354.252H739.297C738.198 354.252 737.372 354.443 736.819 354.826C736.265 355.208 735.989 355.749 735.989 356.449C735.989 357.019 736.176 357.475 736.55 357.816C736.933 358.15 737.441 358.317 738.076 358.317ZM750.124 360.453H747.158V347.245H750.124V360.453ZM746.975 343.815C746.975 343.359 747.117 342.981 747.402 342.68C747.695 342.379 748.11 342.228 748.647 342.228C749.185 342.228 749.6 342.379 749.893 342.68C750.186 342.981 750.332 343.359 750.332 343.815C750.332 344.263 750.186 344.637 749.893 344.938C749.6 345.231 749.185 345.377 748.647 345.377C748.11 345.377 747.695 345.231 747.402 344.938C747.117 344.637 746.975 344.263 746.975 343.815ZM756.118 347.245L756.204 348.771C757.18 347.591 758.462 347.001 760.049 347.001C762.799 347.001 764.199 348.576 764.248 351.725V360.453H761.282V351.896C761.282 351.058 761.099 350.439 760.732 350.041C760.374 349.634 759.784 349.43 758.962 349.43C757.766 349.43 756.875 349.971 756.289 351.054V360.453H753.323V347.245H756.118Z" fill="white"/>
<path d="M627.18 346.663C627.28 346.605 627.363 346.522 627.42 346.422C627.478 346.322 627.508 346.209 627.508 346.094V340.844C627.508 340.728 627.478 340.616 627.42 340.516C627.363 340.416 627.28 340.332 627.18 340.274L622.586 337.649C622.487 337.592 622.375 337.562 622.26 337.562C622.146 337.562 622.034 337.592 621.935 337.649L617.341 340.274C617.24 340.331 617.156 340.414 617.098 340.514C617.039 340.614 617.008 340.728 617.008 340.844V342.408L613.07 340.438V335.594C613.071 335.478 613.04 335.366 612.983 335.266C612.925 335.166 612.842 335.082 612.742 335.024L608.148 332.399C608.049 332.342 607.937 332.312 607.823 332.312C607.709 332.312 607.597 332.342 607.497 332.399L602.904 335.024C602.803 335.081 602.719 335.164 602.66 335.264C602.602 335.364 602.571 335.478 602.57 335.594V340.438L598.633 342.408V340.844C598.633 340.728 598.603 340.616 598.545 340.516C598.488 340.416 598.405 340.332 598.305 340.274L593.711 337.649C593.612 337.592 593.5 337.562 593.385 337.562C593.271 337.562 593.159 337.592 593.06 337.649L588.466 340.274C588.365 340.331 588.281 340.414 588.223 340.514C588.164 340.614 588.133 340.728 588.133 340.844V346.094C588.133 346.209 588.163 346.322 588.22 346.422C588.278 346.522 588.361 346.605 588.461 346.663L592.727 349.099V354.9L588.461 357.336C588.361 357.394 588.278 357.477 588.22 357.577C588.163 357.677 588.133 357.791 588.133 357.906V363.156C588.133 363.271 588.163 363.385 588.22 363.485C588.278 363.585 588.361 363.669 588.461 363.727L593.055 366.352C593.154 366.408 593.266 366.438 593.38 366.438C593.494 366.438 593.607 366.408 593.706 366.352L597.959 363.923L602.57 366.802V368.406C602.57 368.521 602.6 368.635 602.658 368.735C602.716 368.835 602.798 368.919 602.898 368.977L607.492 371.602C607.591 371.658 607.704 371.688 607.818 371.688C607.932 371.688 608.044 371.658 608.143 371.602L612.737 368.977C612.838 368.92 612.922 368.836 612.98 368.736C613.039 368.636 613.07 368.522 613.07 368.406V366.802L617.679 363.921L621.932 366.349C622.031 366.405 622.144 366.435 622.258 366.435C622.372 366.435 622.484 366.405 622.583 366.349L627.177 363.724C627.277 363.666 627.361 363.584 627.419 363.484C627.477 363.385 627.507 363.271 627.508 363.156V357.906C627.508 357.791 627.478 357.677 627.42 357.577C627.363 357.477 627.28 357.394 627.18 357.336L622.914 354.9V349.099L627.18 346.663ZM622.914 347.589V343.847L626.195 341.972V345.714L622.914 347.589ZM622.258 359.775L618.986 357.906L622.258 356.037L625.529 357.906L622.258 359.775ZM618.32 341.974L621.602 343.849V347.59L618.32 345.714V341.974ZM622.258 338.975L625.529 340.844L622.258 342.714L618.986 340.844L622.258 338.975ZM607.82 365.029L604.549 363.156L607.82 361.287L611.092 363.156L607.82 365.029ZM603.883 350.507L607.164 352.38V356.121L603.883 354.244V350.507ZM608.477 352.38L611.758 350.507V354.246L608.477 356.121V352.38ZM607.82 351.244L604.549 349.375L607.82 347.507L611.092 349.375L607.82 351.244ZM603.883 336.724L607.164 338.599V342.34L603.883 340.464V336.724ZM608.477 338.599L611.758 336.724V340.465L608.477 342.34V338.599ZM607.82 333.725L611.092 335.594L607.82 337.464L604.549 335.594L607.82 333.725ZM594.039 343.849L597.32 341.974V345.715L594.039 347.59V343.849ZM593.383 338.975L596.654 340.844L593.383 342.714L590.111 340.844L593.383 338.975ZM589.445 341.974L592.727 343.849V347.59L589.445 345.714V341.974ZM593.383 359.775L590.111 357.906L593.383 356.037L596.654 357.906L593.383 359.775ZM589.445 359.037L592.727 360.912V364.652L589.445 362.775V359.037ZM594.039 364.65V360.91L597.32 359.035V362.775L594.039 364.65ZM598.633 362.792V357.906C598.633 357.791 598.603 357.677 598.545 357.577C598.488 357.477 598.405 357.394 598.305 357.336L594.039 354.9V349.099L598.305 346.663C598.405 346.605 598.488 346.522 598.545 346.422C598.603 346.322 598.633 346.209 598.633 346.094V343.874L603.206 341.589L607.164 343.849V346.369L602.898 348.805C602.798 348.863 602.716 348.946 602.658 349.046C602.6 349.146 602.57 349.259 602.57 349.375V354.625C602.57 354.74 602.6 354.854 602.658 354.954C602.716 355.054 602.798 355.137 602.898 355.194L607.164 357.63V360.15L602.898 362.586C602.798 362.644 602.716 362.727 602.658 362.827C602.6 362.927 602.57 363.041 602.57 363.156V365.257L598.633 362.792ZM603.883 364.287L607.164 366.162V369.902L603.883 368.025V364.287ZM608.477 369.9V366.16L611.758 364.285V368.025L608.477 369.9ZM612.742 362.586L608.477 360.15V357.63L612.742 355.194C612.842 355.137 612.925 355.054 612.983 354.954C613.04 354.854 613.071 354.74 613.07 354.625V349.375C613.071 349.259 613.04 349.146 612.983 349.046C612.925 348.946 612.842 348.863 612.742 348.805L608.477 346.369V343.849L612.434 341.589L617.008 343.874V346.094C617.008 346.209 617.038 346.322 617.095 346.422C617.153 346.522 617.236 346.605 617.336 346.663L621.602 349.099V354.9L617.336 357.336C617.236 357.394 617.153 357.477 617.095 357.577C617.038 357.677 617.008 357.791 617.008 357.906V362.792L613.07 365.257V363.156C613.071 363.041 613.04 362.927 612.983 362.827C612.925 362.727 612.842 362.644 612.742 362.586ZM618.32 359.037L621.602 360.912V364.652L618.32 362.775V359.037ZM622.914 364.65V360.91L626.195 359.035V362.775L622.914 364.65Z" fill="white"/>
<path d="M47.5 503C47.5 500.239 49.7386 498 52.5 498H261.5C264.261 498 266.5 500.239 266.5 503V577C266.5 579.761 264.261 582 261.5 582H52.5C49.7386 582 47.5 579.761 47.5 577V503Z" stroke="#626A84" stroke-width="2"/>
<path d="M95.623 544.411C95.623 543.882 95.4033 543.479 94.9639 543.203C94.5326 542.926 93.8123 542.682 92.8032 542.47C91.7941 542.259 90.9518 541.99 90.2764 541.665C88.7952 540.948 88.0547 539.911 88.0547 538.552C88.0547 537.412 88.5348 536.46 89.4951 535.695C90.4554 534.93 91.6761 534.548 93.1572 534.548C94.736 534.548 96.0096 534.938 96.978 535.72C97.9546 536.501 98.4429 537.514 98.4429 538.759H95.4766C95.4766 538.19 95.265 537.718 94.8418 537.343C94.4186 536.961 93.8571 536.77 93.1572 536.77C92.5062 536.77 91.9731 536.92 91.5581 537.221C91.1512 537.522 90.9478 537.925 90.9478 538.43C90.9478 538.885 91.139 539.239 91.5215 539.492C91.904 539.744 92.6771 540 93.8408 540.261C95.0046 540.513 95.916 540.818 96.5752 541.176C97.2425 541.526 97.7349 541.949 98.0522 542.446C98.3778 542.942 98.5405 543.544 98.5405 544.252C98.5405 545.441 98.0482 546.405 97.0635 547.146C96.0788 547.878 94.7889 548.244 93.1938 548.244C92.1115 548.244 91.1471 548.049 90.3008 547.658C89.4544 547.268 88.7952 546.73 88.3232 546.047C87.8512 545.363 87.6152 544.627 87.6152 543.837H90.4961C90.5368 544.537 90.8013 545.078 91.2896 545.461C91.7778 545.835 92.4248 546.022 93.2305 546.022C94.0117 546.022 94.6058 545.876 95.0127 545.583C95.4196 545.282 95.623 544.891 95.623 544.411ZM109.136 546.706C108.265 547.731 107.028 548.244 105.425 548.244C103.993 548.244 102.907 547.825 102.166 546.987C101.434 546.149 101.067 544.936 101.067 543.349V534.792H104.034V543.312C104.034 544.989 104.729 545.827 106.121 545.827C107.562 545.827 108.534 545.31 109.039 544.277V534.792H112.005V548H109.209L109.136 546.706ZM126.592 541.53C126.592 543.573 126.128 545.205 125.201 546.425C124.273 547.638 123.028 548.244 121.465 548.244C120.017 548.244 118.857 547.768 117.986 546.816V553.078H115.02V534.792H117.754L117.876 536.135C118.747 535.077 119.931 534.548 121.429 534.548C123.04 534.548 124.301 535.15 125.213 536.354C126.132 537.551 126.592 539.215 126.592 541.347V541.53ZM123.638 541.274C123.638 539.956 123.374 538.91 122.845 538.137C122.324 537.364 121.575 536.977 120.599 536.977C119.386 536.977 118.515 537.478 117.986 538.479V544.338C118.523 545.363 119.402 545.876 120.623 545.876C121.567 545.876 122.304 545.498 122.833 544.741C123.37 543.976 123.638 542.82 123.638 541.274ZM140.679 541.53C140.679 543.573 140.215 545.205 139.288 546.425C138.36 547.638 137.115 548.244 135.552 548.244C134.104 548.244 132.944 547.768 132.073 546.816V553.078H129.107V534.792H131.841L131.963 536.135C132.834 535.077 134.018 534.548 135.516 534.548C137.127 534.548 138.388 535.15 139.3 536.354C140.219 537.551 140.679 539.215 140.679 541.347V541.53ZM137.725 541.274C137.725 539.956 137.461 538.91 136.932 538.137C136.411 537.364 135.662 536.977 134.686 536.977C133.473 536.977 132.602 537.478 132.073 538.479V544.338C132.61 545.363 133.489 545.876 134.71 545.876C135.654 545.876 136.39 545.498 136.919 544.741C137.457 543.976 137.725 542.82 137.725 541.274ZM146.355 548H143.389V529.25H146.355V548ZM154.217 543.752L156.902 534.792H160.064L154.815 550.002C154.009 552.224 152.642 553.334 150.713 553.334C150.282 553.334 149.806 553.261 149.285 553.115V550.82L149.847 550.856C150.595 550.856 151.157 550.718 151.531 550.441C151.914 550.173 152.215 549.717 152.435 549.074L152.862 547.939L148.223 534.792H151.421L154.217 543.752ZM173.431 545.876C174.171 545.876 174.786 545.66 175.274 545.229C175.762 544.798 176.023 544.265 176.055 543.63H178.851C178.818 544.452 178.562 545.221 178.082 545.937C177.601 546.645 176.95 547.207 176.128 547.622C175.306 548.037 174.419 548.244 173.467 548.244C171.62 548.244 170.155 547.646 169.073 546.45C167.99 545.253 167.449 543.601 167.449 541.494V541.188C167.449 539.178 167.986 537.571 169.061 536.367C170.135 535.154 171.6 534.548 173.455 534.548C175.026 534.548 176.303 535.008 177.288 535.927C178.281 536.839 178.802 538.039 178.851 539.528H176.055C176.023 538.771 175.762 538.149 175.274 537.661C174.794 537.172 174.179 536.928 173.431 536.928C172.47 536.928 171.73 537.278 171.209 537.978C170.688 538.67 170.424 539.724 170.416 541.14V541.616C170.416 543.048 170.672 544.118 171.185 544.826C171.705 545.526 172.454 545.876 173.431 545.876ZM184.014 536.232C184.983 535.109 186.207 534.548 187.688 534.548C190.504 534.548 191.932 536.155 191.973 539.37V548H189.007V539.479C189.007 538.568 188.807 537.925 188.409 537.551C188.018 537.168 187.44 536.977 186.675 536.977C185.487 536.977 184.6 537.506 184.014 538.564V548H181.048V529.25H184.014V536.232ZM202.874 548C202.744 547.748 202.63 547.337 202.532 546.767C201.588 547.752 200.433 548.244 199.065 548.244C197.739 548.244 196.657 547.866 195.818 547.109C194.98 546.352 194.561 545.416 194.561 544.301C194.561 542.893 195.082 541.815 196.124 541.066C197.173 540.31 198.671 539.931 200.616 539.931H202.435V539.064C202.435 538.381 202.243 537.836 201.861 537.429C201.478 537.014 200.896 536.806 200.115 536.806C199.44 536.806 198.886 536.977 198.455 537.319C198.024 537.653 197.808 538.08 197.808 538.601H194.842C194.842 537.876 195.082 537.201 195.562 536.574C196.042 535.939 196.693 535.443 197.515 535.085C198.345 534.727 199.269 534.548 200.286 534.548C201.832 534.548 203.065 534.938 203.985 535.72C204.904 536.493 205.376 537.583 205.401 538.991V544.948C205.401 546.136 205.568 547.084 205.901 547.792V548H202.874ZM199.615 545.864C200.201 545.864 200.75 545.721 201.263 545.437C201.784 545.152 202.174 544.769 202.435 544.289V541.799H200.835C199.737 541.799 198.911 541.99 198.357 542.373C197.804 542.755 197.527 543.296 197.527 543.996C197.527 544.566 197.715 545.021 198.089 545.363C198.471 545.697 198.98 545.864 199.615 545.864ZM211.663 548H208.697V534.792H211.663V548ZM208.514 531.362C208.514 530.906 208.656 530.528 208.941 530.227C209.234 529.925 209.649 529.775 210.186 529.775C210.723 529.775 211.138 529.925 211.431 530.227C211.724 530.528 211.871 530.906 211.871 531.362C211.871 531.809 211.724 532.184 211.431 532.485C211.138 532.778 210.723 532.924 210.186 532.924C209.649 532.924 209.234 532.778 208.941 532.485C208.656 532.184 208.514 531.809 208.514 531.362ZM217.657 534.792L217.742 536.318C218.719 535.138 220 534.548 221.587 534.548C224.338 534.548 225.738 536.123 225.787 539.272V548H222.82V539.443C222.82 538.605 222.637 537.986 222.271 537.587C221.913 537.181 221.323 536.977 220.501 536.977C219.305 536.977 218.414 537.518 217.828 538.601V548H214.861V534.792H217.657Z" fill="white"/>
<path d="M397.5 503C397.5 500.239 399.739 498 402.5 498H611.5C614.261 498 616.5 500.239 616.5 503V577C616.5 579.761 614.261 582 611.5 582H402.5C399.739 582 397.5 579.761 397.5 577V503Z" stroke="#626A84" stroke-width="2"/>
<path d="M491.375 541.152H487.933V548H484.844V530.227H491.094C493.145 530.227 494.728 530.686 495.843 531.606C496.958 532.526 497.515 533.856 497.515 535.598C497.515 536.786 497.226 537.783 496.648 538.588C496.079 539.386 495.281 540 494.256 540.432L498.248 547.841V548H494.939L491.375 541.152ZM487.933 538.674H491.106C492.148 538.674 492.962 538.413 493.548 537.893C494.134 537.364 494.427 536.643 494.427 535.732C494.427 534.78 494.154 534.043 493.609 533.522C493.072 533.002 492.266 532.733 491.192 532.717H487.933V538.674ZM499.688 543.203C499.688 542.381 499.912 541.628 500.359 540.944C500.807 540.253 501.69 539.435 503.008 538.491C502.317 537.62 501.832 536.879 501.556 536.269C501.287 535.659 501.153 535.069 501.153 534.499C501.153 533.107 501.576 532.009 502.422 531.203C503.269 530.389 504.408 529.982 505.84 529.982C507.134 529.982 508.192 530.365 509.014 531.13C509.844 531.887 510.259 532.827 510.259 533.95C510.259 534.69 510.072 535.374 509.698 536C509.323 536.619 508.709 537.237 507.854 537.856L506.646 538.735L510.076 542.788C510.573 541.811 510.821 540.725 510.821 539.528H513.396C513.396 541.717 512.884 543.512 511.858 544.912L514.471 548H511.028L510.027 546.816C508.758 547.768 507.244 548.244 505.486 548.244C503.729 548.244 502.321 547.78 501.263 546.853C500.213 545.917 499.688 544.7 499.688 543.203ZM505.572 545.876C506.573 545.876 507.509 545.542 508.379 544.875L504.498 540.297L504.119 540.566C503.143 541.306 502.654 542.153 502.654 543.105C502.654 543.927 502.919 544.594 503.448 545.107C503.977 545.62 504.685 545.876 505.572 545.876ZM503.936 534.426C503.936 535.109 504.355 535.968 505.193 537.001L506.548 536.074L506.927 535.769C507.431 535.321 507.684 534.747 507.684 534.047C507.684 533.583 507.509 533.189 507.159 532.863C506.809 532.53 506.365 532.363 505.828 532.363C505.25 532.363 504.791 532.558 504.449 532.949C504.107 533.339 503.936 533.832 503.936 534.426ZM516.436 548V530.227H521.685C523.256 530.227 524.647 530.576 525.86 531.276C527.081 531.976 528.025 532.969 528.692 534.255C529.359 535.541 529.693 537.014 529.693 538.674V539.565C529.693 541.25 529.355 542.731 528.68 544.008C528.012 545.286 527.056 546.271 525.811 546.962C524.574 547.654 523.154 548 521.551 548H516.436ZM519.524 532.717V545.534H521.539C523.158 545.534 524.399 545.03 525.262 544.021C526.132 543.003 526.576 541.547 526.592 539.65V538.662C526.592 536.733 526.173 535.26 525.335 534.243C524.497 533.225 523.28 532.717 521.685 532.717H519.524Z" fill="white"/>
<path d="M747.5 503C747.5 500.239 749.739 498 752.5 498H961.5C964.261 498 966.5 500.239 966.5 503V577C966.5 579.761 964.261 582 961.5 582H752.5C749.739 582 747.5 579.761 747.5 577V503Z" stroke="#626A84" stroke-width="2"/>
<path d="M809.771 541.53C809.771 543.573 809.307 545.205 808.379 546.425C807.452 547.638 806.207 548.244 804.644 548.244C803.195 548.244 802.036 547.768 801.165 546.816V553.078H798.199V534.792H800.933L801.055 536.135C801.926 535.077 803.11 534.548 804.607 534.548C806.219 534.548 807.48 535.15 808.392 536.354C809.311 537.551 809.771 539.215 809.771 541.347V541.53ZM806.817 541.274C806.817 539.956 806.552 538.91 806.023 538.137C805.503 537.364 804.754 536.977 803.777 536.977C802.565 536.977 801.694 537.478 801.165 538.479V544.338C801.702 545.363 802.581 545.876 803.802 545.876C804.746 545.876 805.482 545.498 806.011 544.741C806.548 543.976 806.817 542.82 806.817 541.274ZM819.207 537.502C818.816 537.437 818.414 537.404 817.999 537.404C816.639 537.404 815.724 537.925 815.252 538.967V548H812.286V534.792H815.118L815.191 536.269C815.907 535.122 816.9 534.548 818.169 534.548C818.593 534.548 818.943 534.605 819.219 534.719L819.207 537.502ZM820.086 541.274C820.086 539.98 820.342 538.816 820.855 537.783C821.368 536.741 822.088 535.944 823.016 535.39C823.943 534.829 825.009 534.548 826.214 534.548C827.996 534.548 829.441 535.122 830.547 536.269C831.662 537.417 832.264 538.938 832.354 540.834L832.366 541.53C832.366 542.832 832.114 543.996 831.609 545.021C831.113 546.047 830.397 546.84 829.461 547.402C828.533 547.963 827.459 548.244 826.238 548.244C824.375 548.244 822.881 547.626 821.758 546.389C820.643 545.144 820.086 543.487 820.086 541.42V541.274ZM823.052 541.53C823.052 542.889 823.333 543.955 823.895 544.729C824.456 545.493 825.237 545.876 826.238 545.876C827.239 545.876 828.016 545.485 828.57 544.704C829.131 543.923 829.412 542.779 829.412 541.274C829.412 539.939 829.123 538.881 828.545 538.1C827.976 537.319 827.199 536.928 826.214 536.928C825.245 536.928 824.476 537.315 823.907 538.088C823.337 538.853 823.052 540 823.052 541.53ZM834.319 541.298C834.319 539.264 834.791 537.632 835.735 536.403C836.679 535.166 837.945 534.548 839.532 534.548C840.931 534.548 842.063 535.036 842.925 536.013V529.25H845.892V548H843.206L843.06 546.633C842.173 547.707 840.988 548.244 839.507 548.244C837.961 548.244 836.708 547.622 835.748 546.376C834.795 545.131 834.319 543.439 834.319 541.298ZM837.286 541.555C837.286 542.897 837.542 543.947 838.055 544.704C838.576 545.453 839.312 545.827 840.264 545.827C841.477 545.827 842.364 545.286 842.925 544.204V538.564C842.38 537.506 841.501 536.977 840.289 536.977C839.328 536.977 838.588 537.36 838.067 538.125C837.546 538.881 837.286 540.025 837.286 541.555ZM856.988 546.706C856.117 547.731 854.88 548.244 853.277 548.244C851.845 548.244 850.758 547.825 850.018 546.987C849.285 546.149 848.919 544.936 848.919 543.349V534.792H851.885V543.312C851.885 544.989 852.581 545.827 853.973 545.827C855.413 545.827 856.386 545.31 856.89 544.277V534.792H859.856V548H857.061L856.988 546.706ZM868.304 545.876C869.044 545.876 869.659 545.66 870.147 545.229C870.635 544.798 870.896 544.265 870.928 543.63H873.724C873.691 544.452 873.435 545.221 872.955 545.937C872.474 546.645 871.823 547.207 871.001 547.622C870.18 548.037 869.292 548.244 868.34 548.244C866.493 548.244 865.028 547.646 863.946 546.45C862.863 545.253 862.322 543.601 862.322 541.494V541.188C862.322 539.178 862.859 537.571 863.934 536.367C865.008 535.154 866.473 534.548 868.328 534.548C869.899 534.548 871.176 535.008 872.161 535.927C873.154 536.839 873.675 538.039 873.724 539.528H870.928C870.896 538.771 870.635 538.149 870.147 537.661C869.667 537.172 869.052 536.928 868.304 536.928C867.343 536.928 866.603 537.278 866.082 537.978C865.561 538.67 865.297 539.724 865.289 541.14V541.616C865.289 543.048 865.545 544.118 866.058 544.826C866.578 545.526 867.327 545.876 868.304 545.876ZM879.681 531.582V534.792H882.012V536.989H879.681V544.362C879.681 544.867 879.778 545.233 879.974 545.461C880.177 545.681 880.535 545.791 881.048 545.791C881.39 545.791 881.736 545.75 882.085 545.668V547.963C881.41 548.151 880.759 548.244 880.132 548.244C877.854 548.244 876.714 546.987 876.714 544.472V536.989H874.542V534.792H876.714V531.582H879.681ZM887.444 548H884.478V534.792H887.444V548ZM884.295 531.362C884.295 530.906 884.437 530.528 884.722 530.227C885.015 529.925 885.43 529.775 885.967 529.775C886.504 529.775 886.919 529.925 887.212 530.227C887.505 530.528 887.652 530.906 887.652 531.362C887.652 531.809 887.505 532.184 887.212 532.485C886.919 532.778 886.504 532.924 885.967 532.924C885.43 532.924 885.015 532.778 884.722 532.485C884.437 532.184 884.295 531.809 884.295 531.362ZM890.13 541.274C890.13 539.98 890.386 538.816 890.899 537.783C891.412 536.741 892.132 535.944 893.06 535.39C893.987 534.829 895.053 534.548 896.258 534.548C898.04 534.548 899.485 535.122 900.591 536.269C901.706 537.417 902.308 538.938 902.398 540.834L902.41 541.53C902.41 542.832 902.158 543.996 901.653 545.021C901.157 546.047 900.441 546.84 899.505 547.402C898.577 547.963 897.503 548.244 896.282 548.244C894.419 548.244 892.925 547.626 891.802 546.389C890.687 545.144 890.13 543.487 890.13 541.42V541.274ZM893.096 541.53C893.096 542.889 893.377 543.955 893.938 544.729C894.5 545.493 895.281 545.876 896.282 545.876C897.283 545.876 898.06 545.485 898.614 544.704C899.175 543.923 899.456 542.779 899.456 541.274C899.456 539.939 899.167 538.881 898.589 538.1C898.02 537.319 897.243 536.928 896.258 536.928C895.289 536.928 894.52 537.315 893.951 538.088C893.381 538.853 893.096 540 893.096 541.53ZM907.671 534.792L907.757 536.318C908.733 535.138 910.015 534.548 911.602 534.548C914.353 534.548 915.752 536.123 915.801 539.272V548H912.835V539.443C912.835 538.605 912.652 537.986 912.286 537.587C911.928 537.181 911.338 536.977 910.516 536.977C909.319 536.977 908.428 537.518 907.842 538.601V548H904.876V534.792H907.671Z" fill="white"/>
<path d="M1097.5 503C1097.5 500.239 1099.74 498 1102.5 498H1311.5C1314.26 498 1316.5 500.239 1316.5 503V577C1316.5 579.761 1314.26 582 1311.5 582H1102.5C1099.74 582 1097.5 579.761 1097.5 577V503Z" stroke="#626A84" stroke-width="2"/>
<path d="M1141.01 541.298C1141.01 539.248 1141.49 537.612 1142.45 536.391C1143.42 535.162 1144.7 534.548 1146.29 534.548C1147.8 534.548 1148.98 535.073 1149.85 536.123L1149.98 534.792H1152.65V547.597C1152.65 549.331 1152.11 550.698 1151.03 551.699C1149.96 552.7 1148.5 553.2 1146.67 553.2C1145.7 553.2 1144.76 552.997 1143.83 552.59C1142.91 552.191 1142.21 551.666 1141.73 551.015L1143.13 549.233C1144.04 550.315 1145.17 550.856 1146.5 550.856C1147.49 550.856 1148.26 550.588 1148.83 550.051C1149.4 549.522 1149.69 548.741 1149.69 547.707V546.816C1148.83 547.768 1147.69 548.244 1146.27 548.244C1144.72 548.244 1143.46 547.63 1142.47 546.401C1141.5 545.172 1141.01 543.471 1141.01 541.298ZM1143.96 541.555C1143.96 542.881 1144.23 543.927 1144.77 544.692C1145.31 545.449 1146.07 545.827 1147.03 545.827C1148.22 545.827 1149.11 545.314 1149.69 544.289V538.479C1149.13 537.478 1148.25 536.977 1147.05 536.977C1146.07 536.977 1145.31 537.364 1144.77 538.137C1144.23 538.91 1143.96 540.049 1143.96 541.555ZM1155.16 541.274C1155.16 539.98 1155.41 538.816 1155.93 537.783C1156.44 536.741 1157.16 535.944 1158.09 535.39C1159.01 534.829 1160.08 534.548 1161.28 534.548C1163.07 534.548 1164.51 535.122 1165.62 536.269C1166.73 537.417 1167.34 538.938 1167.42 540.834L1167.44 541.53C1167.44 542.832 1167.18 543.996 1166.68 545.021C1166.18 546.047 1165.47 546.84 1164.53 547.402C1163.6 547.963 1162.53 548.244 1161.31 548.244C1159.45 548.244 1157.95 547.626 1156.83 546.389C1155.71 545.144 1155.16 543.487 1155.16 541.42V541.274ZM1158.12 541.53C1158.12 542.889 1158.4 543.955 1158.97 544.729C1159.53 545.493 1160.31 545.876 1161.31 545.876C1162.31 545.876 1163.09 545.485 1163.64 544.704C1164.2 543.923 1164.48 542.779 1164.48 541.274C1164.48 539.939 1164.19 538.881 1163.62 538.1C1163.05 537.319 1162.27 536.928 1161.28 536.928C1160.32 536.928 1159.55 537.315 1158.98 538.088C1158.41 538.853 1158.12 540 1158.12 541.53ZM1174.41 544.24L1177.2 534.792H1180.27L1175.69 548H1173.11L1168.5 534.792H1171.58L1174.41 544.24ZM1187.77 548.244C1185.89 548.244 1184.37 547.654 1183.2 546.474C1182.03 545.286 1181.45 543.707 1181.45 541.738V541.372C1181.45 540.053 1181.7 538.877 1182.21 537.844C1182.72 536.802 1183.44 535.992 1184.36 535.415C1185.28 534.837 1186.3 534.548 1187.43 534.548C1189.23 534.548 1190.62 535.122 1191.59 536.269C1192.58 537.417 1193.07 539.04 1193.07 541.14V542.336H1184.44C1184.53 543.426 1184.89 544.289 1185.53 544.924C1186.17 545.559 1186.98 545.876 1187.94 545.876C1189.3 545.876 1190.41 545.327 1191.27 544.228L1192.86 545.754C1192.34 546.543 1191.63 547.158 1190.74 547.597C1189.86 548.028 1188.87 548.244 1187.77 548.244ZM1187.42 536.928C1186.61 536.928 1185.95 537.213 1185.44 537.783C1184.95 538.352 1184.63 539.146 1184.49 540.163H1190.14V539.943C1190.08 538.951 1189.81 538.202 1189.35 537.697C1188.88 537.185 1188.24 536.928 1187.42 536.928ZM1202.3 537.502C1201.91 537.437 1201.51 537.404 1201.09 537.404C1199.73 537.404 1198.82 537.925 1198.35 538.967V548H1195.38V534.792H1198.21L1198.28 536.269C1199 535.122 1199.99 534.548 1201.26 534.548C1201.69 534.548 1202.04 534.605 1202.31 534.719L1202.3 537.502ZM1206.93 534.792L1207.01 536.318C1207.99 535.138 1209.27 534.548 1210.86 534.548C1213.61 534.548 1215.01 536.123 1215.06 539.272V548H1212.09V539.443C1212.09 538.605 1211.91 537.986 1211.54 537.587C1211.18 537.181 1210.59 536.977 1209.77 536.977C1208.57 536.977 1207.68 537.518 1207.1 538.601V548H1204.13V534.792H1206.93ZM1220.88 534.792L1220.96 536.171C1221.89 535.089 1223.16 534.548 1224.77 534.548C1226.54 534.548 1227.75 535.223 1228.4 536.574C1229.36 535.223 1230.71 534.548 1232.45 534.548C1233.91 534.548 1234.99 534.951 1235.7 535.756C1236.41 536.562 1236.78 537.75 1236.8 539.321V548H1233.83V539.406C1233.83 538.568 1233.65 537.954 1233.28 537.563C1232.92 537.172 1232.31 536.977 1231.46 536.977C1230.79 536.977 1230.23 537.16 1229.8 537.526C1229.38 537.884 1229.08 538.356 1228.91 538.942L1228.92 548H1225.96V539.309C1225.92 537.754 1225.12 536.977 1223.58 536.977C1222.39 536.977 1221.55 537.461 1221.05 538.43V548H1218.08V534.792H1220.88ZM1245.66 548.244C1243.78 548.244 1242.25 547.654 1241.08 546.474C1239.92 545.286 1239.34 543.707 1239.34 541.738V541.372C1239.34 540.053 1239.59 538.877 1240.09 537.844C1240.61 536.802 1241.32 535.992 1242.24 535.415C1243.16 534.837 1244.19 534.548 1245.32 534.548C1247.12 534.548 1248.5 535.122 1249.48 536.269C1250.47 537.417 1250.96 539.04 1250.96 541.14V542.336H1242.33C1242.42 543.426 1242.78 544.289 1243.41 544.924C1244.06 545.559 1244.86 545.876 1245.83 545.876C1247.19 545.876 1248.3 545.327 1249.15 544.228L1250.75 545.754C1250.22 546.543 1249.51 547.158 1248.63 547.597C1247.75 548.028 1246.76 548.244 1245.66 548.244ZM1245.31 536.928C1244.49 536.928 1243.83 537.213 1243.33 537.783C1242.83 538.352 1242.51 539.146 1242.38 540.163H1248.03V539.943C1247.96 538.951 1247.7 538.202 1247.23 537.697C1246.77 537.185 1246.13 536.928 1245.31 536.928ZM1256.02 534.792L1256.11 536.318C1257.09 535.138 1258.37 534.548 1259.95 534.548C1262.7 534.548 1264.1 536.123 1264.15 539.272V548H1261.19V539.443C1261.19 538.605 1261 537.986 1260.64 537.587C1260.28 537.181 1259.69 536.977 1258.87 536.977C1257.67 536.977 1256.78 537.518 1256.19 538.601V548H1253.23V534.792H1256.02ZM1270.9 531.582V534.792H1273.24V536.989H1270.9V544.362C1270.9 544.867 1271 545.233 1271.2 545.461C1271.4 545.681 1271.76 545.791 1272.27 545.791C1272.61 545.791 1272.96 545.75 1273.31 545.668V547.963C1272.63 548.151 1271.98 548.244 1271.36 548.244C1269.08 548.244 1267.94 546.987 1267.94 544.472V536.989H1265.76V534.792H1267.94V531.582H1270.9Z" fill="white"/>
<path d="M658.916 161.286C658.916 159.26 659.396 157.632 660.356 156.403C661.317 155.166 662.574 154.548 664.128 154.548C665.675 154.548 666.899 155.077 667.803 156.135V149.25H670.061V168H667.986L667.876 166.584C666.973 167.691 665.715 168.244 664.104 168.244C662.574 168.244 661.325 167.618 660.356 166.364C659.396 165.111 658.916 163.475 658.916 161.457V161.286ZM661.174 161.542C661.174 163.04 661.484 164.212 662.102 165.058C662.721 165.904 663.575 166.328 664.666 166.328C666.098 166.328 667.144 165.685 667.803 164.399V158.332C667.127 157.087 666.09 156.464 664.69 156.464C663.583 156.464 662.721 156.892 662.102 157.746C661.484 158.601 661.174 159.866 661.174 161.542ZM681.731 168C681.601 167.74 681.495 167.276 681.414 166.608C680.364 167.699 679.111 168.244 677.654 168.244C676.352 168.244 675.282 167.878 674.443 167.146C673.613 166.405 673.198 165.469 673.198 164.338C673.198 162.963 673.719 161.896 674.761 161.14C675.811 160.375 677.284 159.992 679.18 159.992H681.377V158.955C681.377 158.165 681.141 157.539 680.669 157.075C680.197 156.603 679.501 156.367 678.582 156.367C677.776 156.367 677.1 156.57 676.555 156.977C676.01 157.384 675.737 157.876 675.737 158.454H673.467C673.467 157.795 673.699 157.16 674.163 156.55C674.635 155.931 675.269 155.443 676.067 155.085C676.873 154.727 677.756 154.548 678.716 154.548C680.238 154.548 681.43 154.93 682.292 155.695C683.155 156.452 683.603 157.498 683.635 158.833V164.912C683.635 166.124 683.79 167.089 684.099 167.805V168H681.731ZM677.983 166.279C678.691 166.279 679.363 166.096 679.998 165.729C680.632 165.363 681.092 164.887 681.377 164.301V161.591H679.607C676.84 161.591 675.457 162.401 675.457 164.021C675.457 164.729 675.693 165.282 676.165 165.681C676.637 166.079 677.243 166.279 677.983 166.279ZM690.239 151.594V154.792H692.705V156.538H690.239V164.729C690.239 165.257 690.349 165.656 690.569 165.925C690.789 166.185 691.163 166.315 691.692 166.315C691.952 166.315 692.31 166.267 692.766 166.169V168C692.172 168.163 691.594 168.244 691.033 168.244C690.024 168.244 689.263 167.939 688.75 167.329C688.237 166.718 687.981 165.852 687.981 164.729V156.538H685.576V154.792H687.981V151.594H690.239ZM703.508 168C703.378 167.74 703.272 167.276 703.191 166.608C702.141 167.699 700.888 168.244 699.431 168.244C698.129 168.244 697.059 167.878 696.221 167.146C695.391 166.405 694.976 165.469 694.976 164.338C694.976 162.963 695.496 161.896 696.538 161.14C697.588 160.375 699.061 159.992 700.957 159.992H703.154V158.955C703.154 158.165 702.918 157.539 702.446 157.075C701.974 156.603 701.278 156.367 700.359 156.367C699.553 156.367 698.878 156.57 698.333 156.977C697.787 157.384 697.515 157.876 697.515 158.454H695.244C695.244 157.795 695.476 157.16 695.94 156.55C696.412 155.931 697.047 155.443 697.844 155.085C698.65 154.727 699.533 154.548 700.493 154.548C702.015 154.548 703.207 154.93 704.07 155.695C704.932 156.452 705.38 157.498 705.413 158.833V164.912C705.413 166.124 705.567 167.089 705.876 167.805V168H703.508ZM699.761 166.279C700.469 166.279 701.14 166.096 701.775 165.729C702.41 165.363 702.869 164.887 703.154 164.301V161.591H701.384C698.617 161.591 697.234 162.401 697.234 164.021C697.234 164.729 697.47 165.282 697.942 165.681C698.414 166.079 699.02 166.279 699.761 166.279Z" fill="white"/>
<path d="M156.793 497.707C157.183 498.098 157.817 498.098 158.207 497.707L164.571 491.343C164.962 490.953 164.962 490.319 164.571 489.929C164.181 489.538 163.547 489.538 163.157 489.929L157.5 495.586L151.843 489.929C151.453 489.538 150.819 489.538 150.429 489.929C150.038 490.319 150.038 490.953 150.429 491.343L156.793 497.707ZM156.5 447V497H158.5V447H156.5Z" fill="#626A84"/>
<path d="M506.793 497.707C507.183 498.098 507.817 498.098 508.207 497.707L514.571 491.343C514.962 490.953 514.962 490.319 514.571 489.929C514.181 489.538 513.547 489.538 513.157 489.929L507.5 495.586L501.843 489.929C501.453 489.538 500.819 489.538 500.429 489.929C500.038 490.319 500.038 490.953 500.429 491.343L506.793 497.707ZM506.5 447V497H508.5V447H506.5Z" fill="#626A84"/>
<path d="M856.793 497.707C857.183 498.098 857.817 498.098 858.207 497.707L864.571 491.343C864.962 490.953 864.962 490.319 864.571 489.929C864.181 489.538 863.547 489.538 863.157 489.929L857.5 495.586L851.843 489.929C851.453 489.538 850.819 489.538 850.429 489.929C850.038 490.319 850.038 490.953 850.429 491.343L856.793 497.707ZM856.5 447V497H858.5V447H856.5Z" fill="#626A84"/>
<path d="M681.793 445.707C682.183 446.098 682.817 446.098 683.207 445.707L689.571 439.343C689.962 438.953 689.962 438.319 689.571 437.929C689.181 437.538 688.547 437.538 688.157 437.929L682.5 443.586L676.843 437.929C676.453 437.538 675.819 437.538 675.429 437.929C675.038 438.319 675.038 438.953 675.429 439.343L681.793 445.707ZM681.5 395V445H683.5V395H681.5Z" fill="#626A84"/>
<path d="M241.207 582.293C240.817 581.902 240.183 581.902 239.793 582.293L233.429 588.657C233.038 589.047 233.038 589.681 233.429 590.071C233.819 590.462 234.453 590.462 234.843 590.071L240.5 584.414L246.157 590.071C246.547 590.462 247.181 590.462 247.571 590.071C247.962 589.681 247.962 589.047 247.571 588.657L241.207 582.293ZM241.5 617V583H239.5V617H241.5Z" fill="white"/>
<path d="M158.207 582.293C157.817 581.902 157.183 581.902 156.793 582.293L150.429 588.657C150.038 589.047 150.038 589.681 150.429 590.071C150.819 590.462 151.453 590.462 151.843 590.071L157.5 584.414L163.157 590.071C163.547 590.462 164.181 590.462 164.571 590.071C164.962 589.681 164.962 589.047 164.571 588.657L158.207 582.293ZM158.5 689V583H156.5V689H158.5Z" fill="#626A84"/>
<path d="M1208.21 582.293C1207.82 581.902 1207.18 581.902 1206.79 582.293L1200.43 588.657C1200.04 589.047 1200.04 589.681 1200.43 590.071C1200.82 590.462 1201.45 590.462 1201.84 590.071L1207.5 584.414L1213.16 590.071C1213.55 590.462 1214.18 590.462 1214.57 590.071C1214.96 589.681 1214.96 589.047 1214.57 588.657L1208.21 582.293ZM1208.5 689V583H1206.5V689H1208.5Z" fill="#626A84"/>
<path d="M1141.21 582.293C1140.82 581.902 1140.18 581.902 1139.79 582.293L1133.43 588.657C1133.04 589.047 1133.04 589.681 1133.43 590.071C1133.82 590.462 1134.45 590.462 1134.84 590.071L1140.5 584.414L1146.16 590.071C1146.55 590.462 1147.18 590.462 1147.57 590.071C1147.96 589.681 1147.96 589.047 1147.57 588.657L1141.21 582.293ZM1141.5 651V583H1139.5V651H1141.5Z" fill="white"/>
<path d="M508.207 582.293C507.817 581.902 507.183 581.902 506.793 582.293L500.429 588.657C500.038 589.047 500.038 589.681 500.429 590.071C500.819 590.462 501.453 590.462 501.843 590.071L507.5 584.414L513.157 590.071C513.547 590.462 514.181 590.462 514.571 590.071C514.962 589.681 514.962 589.047 514.571 588.657L508.207 582.293ZM508.5 651V583H506.5V651H508.5Z" fill="white"/>
<path d="M681.793 308.707C682.183 309.098 682.817 309.098 683.207 308.707L689.571 302.343C689.962 301.953 689.962 301.319 689.571 300.929C689.181 300.538 688.547 300.538 688.157 300.929L682.5 306.586L676.843 300.929C676.453 300.538 675.819 300.538 675.429 300.929C675.038 301.319 675.038 301.953 675.429 302.343L681.793 308.707ZM681.5 258V308H683.5V258H681.5Z" fill="#626A84"/>
<path d="M681.793 136.707C682.183 137.098 682.817 137.098 683.207 136.707L689.571 130.343C689.962 129.953 689.962 129.319 689.571 128.929C689.181 128.538 688.547 128.538 688.157 128.929L682.5 134.586L676.843 128.929C676.453 128.538 675.819 128.538 675.429 128.929C675.038 129.319 675.038 129.953 675.429 130.343L681.793 136.707ZM681.5 86V136H683.5V86H681.5Z" fill="#626A84"/>
<path d="M1206.79 497.707C1207.18 498.098 1207.82 498.098 1208.21 497.707L1214.57 491.343C1214.96 490.953 1214.96 490.319 1214.57 489.929C1214.18 489.538 1213.55 489.538 1213.16 489.929L1207.5 495.586L1201.84 489.929C1201.45 489.538 1200.82 489.538 1200.43 489.929C1200.04 490.319 1200.04 490.953 1200.43 491.343L1206.79 497.707ZM1206.5 447V497H1208.5V447H1206.5Z" fill="#626A84"/>
<path d="M157.5 446H1207.5" stroke="#626A84" stroke-width="2"/>
<path d="M240.5 616H860.5" stroke="white" stroke-width="2"/>
<path d="M506.5 650H1140.5" stroke="white" stroke-width="2"/>
<path d="M157.5 688H1207.5" stroke="#626A84" stroke-width="2"/>
<path d="M860.5 583V617" stroke="white" stroke-width="2"/>
<path d="M657.78 192.144V180.939C657.78 179.809 657.118 178.771 656.093 178.295C655.068 177.819 653.848 177.982 652.985 178.711L651.139 180.269C650.544 180.771 650.18 181.475 650.115 182.251C650.049 183.027 650.289 183.782 650.792 184.377C651.105 184.747 651.505 185.032 651.95 185.207V192.144C650.563 192.367 649.5 193.573 649.5 195.022C649.5 196.629 650.808 197.937 652.415 197.937H657.315C658.922 197.937 660.23 196.629 660.23 195.022C660.23 193.573 659.167 192.367 657.78 192.144ZM657.315 196.003H652.415C651.874 196.003 651.434 195.563 651.434 195.022C651.434 194.481 651.874 194.041 652.415 194.041H652.917C653.451 194.041 653.883 193.608 653.883 193.074V184.442C653.883 183.928 653.481 183.504 652.968 183.477C652.694 183.462 652.446 183.339 652.269 183.13C652.1 182.929 652.019 182.675 652.041 182.414C652.063 182.152 652.186 181.916 652.386 181.746L654.232 180.189C654.523 179.944 654.933 179.889 655.278 180.049C655.623 180.209 655.846 180.559 655.846 180.939V193.074C655.846 193.608 656.279 194.04 656.813 194.04H657.315C657.856 194.04 658.296 194.481 658.296 195.022C658.296 195.563 657.856 196.003 657.315 196.003Z" fill="#495680"/>
<path d="M669.179 181.92H667.855C666.57 181.92 665.524 182.965 665.524 184.251V191.709C665.524 192.995 666.57 194.04 667.855 194.04H669.179C670.464 194.04 671.51 192.995 671.51 191.709V184.251C671.51 182.965 670.464 181.92 669.179 181.92ZM669.576 191.709C669.576 191.928 669.398 192.106 669.179 192.106H667.855C667.636 192.106 667.458 191.928 667.458 191.709V184.251C667.458 184.032 667.636 183.854 667.855 183.854H669.179C669.398 183.854 669.576 184.032 669.576 184.251V191.709Z" fill="#495680"/>
<path d="M675.406 184.251C675.406 180.817 672.612 178.023 669.179 178.023H667.855C664.421 178.023 661.628 180.817 661.628 184.251V191.709C661.628 195.143 664.421 197.936 667.855 197.936H669.179C672.612 197.936 675.406 195.143 675.406 191.709V184.251ZM673.472 191.709C673.472 194.077 671.546 196.003 669.179 196.003H667.855C665.488 196.003 663.562 194.077 663.562 191.709V184.251C663.562 181.883 665.488 179.957 667.855 179.957H669.179C671.546 179.957 673.472 181.883 673.472 184.251V191.709Z" fill="#495680"/>
<path d="M677.095 195.022C677.095 196.629 678.402 197.937 680.01 197.937H684.91C686.517 197.937 687.825 196.629 687.825 195.022C687.825 193.573 686.762 192.367 685.375 192.144V180.939C685.375 179.809 684.713 178.771 683.688 178.295C682.663 177.819 681.443 177.982 680.58 178.711L678.734 180.269C678.139 180.771 677.775 181.475 677.709 182.251C677.644 183.027 677.884 183.781 678.386 184.377C678.699 184.747 679.1 185.031 679.545 185.207V192.144C678.158 192.367 677.095 193.573 677.095 195.022ZM680.562 183.476C680.289 183.462 680.041 183.339 679.864 183.129C679.695 182.929 679.614 182.675 679.636 182.414C679.658 182.152 679.781 181.915 679.981 181.746L681.827 180.189C682.117 179.943 682.528 179.888 682.873 180.049C683.218 180.209 683.441 180.558 683.441 180.939V193.073C683.441 193.607 683.874 194.04 684.408 194.04H684.91C685.451 194.04 685.891 194.481 685.891 195.022C685.891 195.563 685.451 196.003 684.91 196.003H680.01C679.469 196.003 679.028 195.563 679.028 195.022C679.028 194.48 679.469 194.04 680.01 194.04H680.512C681.045 194.04 681.478 193.607 681.478 193.073V184.442C681.478 183.928 681.076 183.503 680.562 183.476Z" fill="#495680"/>
<path d="M695.45 197.936H696.773C700.207 197.936 703.001 195.143 703.001 191.709V184.251C703.001 180.817 700.207 178.023 696.773 178.023H695.45C692.016 178.023 689.223 180.817 689.223 184.251V191.709C689.223 195.143 692.016 197.936 695.45 197.936ZM691.156 184.251C691.156 181.883 693.082 179.957 695.45 179.957H696.773C699.141 179.957 701.067 181.883 701.067 184.251V191.709C701.067 194.077 699.141 196.003 696.773 196.003H695.45C693.082 196.003 691.156 194.077 691.156 191.709V184.251Z" fill="#495680"/>
<path d="M695.45 194.04H696.774C698.059 194.04 699.104 192.994 699.104 191.709V184.251C699.104 182.965 698.059 181.92 696.774 181.92H695.45C694.165 181.92 693.119 182.965 693.119 184.251V185.408C693.119 185.942 693.552 186.375 694.086 186.375C694.62 186.375 695.053 185.942 695.053 185.408V184.251C695.053 184.032 695.231 183.854 695.45 183.854H696.774C696.993 183.854 697.171 184.032 697.171 184.251V191.709C697.171 191.928 696.993 192.106 696.774 192.106H695.45C695.231 192.106 695.053 191.928 695.053 191.709V190.181C695.053 189.647 694.62 189.214 694.086 189.214C693.552 189.214 693.119 189.647 693.119 190.181V191.709C693.119 192.994 694.165 194.04 695.45 194.04Z" fill="#495680"/>
<path d="M657.78 214.163V210.176C657.78 209.642 657.347 209.209 656.813 209.209C656.279 209.209 655.846 209.642 655.846 210.176V215.093C655.846 215.627 656.279 216.06 656.813 216.06H657.315C657.856 216.06 658.296 216.5 658.296 217.041C658.296 217.582 657.856 218.023 657.315 218.023H652.415C651.874 218.023 651.434 217.582 651.434 217.041C651.434 216.5 651.874 216.06 652.415 216.06H652.917C653.451 216.06 653.883 215.627 653.883 215.093V206.461C653.883 205.947 653.481 205.523 652.968 205.496C652.694 205.481 652.446 205.358 652.269 205.149C652.1 204.948 652.019 204.694 652.041 204.433C652.063 204.172 652.186 203.935 652.386 203.766L654.232 202.208C654.523 201.963 654.934 201.908 655.278 202.068C655.623 202.228 655.846 202.578 655.846 202.958V205.403C655.846 205.937 656.279 206.37 656.813 206.37C657.347 206.37 657.78 205.937 657.78 205.403V202.958C657.78 201.828 657.118 200.791 656.093 200.315C655.068 199.839 653.848 200.002 652.985 200.731L651.139 202.288C650.544 202.79 650.18 203.494 650.115 204.27C650.049 205.046 650.289 205.801 650.792 206.396C651.105 206.767 651.505 207.051 651.95 207.227V214.163C650.563 214.387 649.5 215.592 649.5 217.041C649.5 218.649 650.808 219.956 652.415 219.956H657.315C658.922 219.956 660.23 218.649 660.23 217.041C660.23 215.592 659.167 214.387 657.78 214.163Z" fill="#495680"/>
<path d="M657.78 236.183V224.978C657.78 223.848 657.118 222.81 656.093 222.334C655.068 221.858 653.848 222.021 652.985 222.75L651.139 224.308C649.911 225.344 649.755 227.187 650.792 228.415C651.104 228.786 651.505 229.07 651.95 229.246V236.183C650.563 236.406 649.5 237.612 649.5 239.061C649.5 240.668 650.808 241.976 652.415 241.976H657.315C658.922 241.976 660.23 240.668 660.23 239.061C660.23 237.612 659.167 236.406 657.78 236.183ZM657.315 240.042H652.415C651.874 240.042 651.434 239.602 651.434 239.061C651.434 238.52 651.874 238.079 652.415 238.079H652.917C653.451 238.079 653.883 237.646 653.883 237.112V228.481C653.883 227.967 653.481 227.543 652.968 227.515C652.694 227.501 652.446 227.378 652.269 227.168C651.92 226.755 651.973 226.134 652.386 225.785L654.232 224.228C654.523 223.982 654.934 223.927 655.279 224.088C655.624 224.248 655.846 224.597 655.846 224.978V237.113C655.846 237.646 656.279 238.079 656.813 238.079H657.315C657.856 238.079 658.296 238.52 658.296 239.061C658.296 239.602 657.856 240.042 657.315 240.042Z" fill="#495680"/>
<path d="M669.908 236.183V224.978C669.908 223.848 669.246 222.81 668.221 222.334C667.196 221.858 665.976 222.021 665.113 222.75L663.267 224.308C662.672 224.81 662.308 225.514 662.243 226.289C662.177 227.065 662.417 227.82 662.919 228.415C663.232 228.786 663.633 229.07 664.078 229.246V236.183C662.691 236.406 661.628 237.611 661.628 239.061C661.628 240.668 662.936 241.976 664.543 241.976H669.443C671.05 241.976 672.358 240.668 672.358 239.061C672.358 237.612 671.295 236.406 669.908 236.183ZM669.443 240.042H664.543C664.002 240.042 663.562 239.602 663.562 239.061C663.562 238.52 664.002 238.079 664.543 238.079H665.045C665.579 238.079 666.011 237.646 666.011 237.112V228.481C666.011 227.967 665.609 227.543 665.096 227.515C664.822 227.501 664.574 227.378 664.397 227.168C664.228 226.968 664.147 226.714 664.169 226.453C664.191 226.191 664.314 225.954 664.514 225.785L666.36 224.228C666.651 223.982 667.061 223.927 667.406 224.088C667.751 224.248 667.974 224.597 667.974 224.978V237.113C667.974 237.646 668.407 238.079 668.941 238.079H669.443C669.984 238.079 670.424 238.52 670.424 239.061C670.424 239.602 669.984 240.042 669.443 240.042Z" fill="#495680"/>
<path d="M671.101 214.163V202.958C671.101 201.828 670.439 200.791 669.414 200.315C668.39 199.839 667.17 200.002 666.306 200.731L664.461 202.288C663.866 202.79 663.502 203.494 663.436 204.27C663.37 205.046 663.611 205.801 664.113 206.396C664.426 206.767 664.826 207.051 665.271 207.227V214.163C663.884 214.387 662.821 215.592 662.821 217.041C662.821 218.649 664.129 219.956 665.736 219.956H670.636C672.243 219.956 673.551 218.649 673.551 217.041C673.551 215.592 672.488 214.386 671.101 214.163ZM670.636 218.023H665.736C665.195 218.023 664.755 217.582 664.755 217.041C664.755 216.5 665.195 216.06 665.736 216.06H666.238C666.772 216.06 667.205 215.627 667.205 215.093V206.461C667.205 205.947 666.802 205.523 666.289 205.496C666.015 205.481 665.767 205.358 665.591 205.149C665.421 204.948 665.341 204.694 665.363 204.433C665.385 204.172 665.507 203.935 665.708 203.766L667.553 202.208C667.844 201.963 668.255 201.908 668.6 202.068C668.945 202.228 669.168 202.578 669.168 202.958V215.093C669.168 215.627 669.6 216.06 670.134 216.06H670.636C671.177 216.06 671.617 216.5 671.617 217.041C671.617 217.582 671.177 218.023 670.636 218.023Z" fill="#495680"/>
<path d="M704.771 195.022C704.771 196.629 706.078 197.937 707.685 197.937H712.586C714.194 197.937 715.5 196.629 715.5 195.022C715.5 193.573 714.438 192.367 713.05 192.144V180.939C713.05 179.809 712.389 178.771 711.365 178.295C710.34 177.819 709.119 177.982 708.255 178.711L706.41 180.269C705.181 181.305 705.026 183.148 706.062 184.376C706.375 184.747 706.776 185.031 707.22 185.207V192.144C705.833 192.367 704.771 193.573 704.771 195.022ZM708.238 183.476C707.964 183.462 707.716 183.339 707.54 183.129C707.191 182.716 707.243 182.095 707.657 181.746L709.503 180.189C709.794 179.943 710.204 179.888 710.549 180.049C710.894 180.209 711.117 180.558 711.117 180.939V193.073C711.117 193.607 711.549 194.04 712.083 194.04H712.586C713.127 194.04 713.568 194.481 713.568 195.022C713.568 195.563 713.127 196.003 712.586 196.003H707.685C707.144 196.003 706.704 195.563 706.704 195.022C706.704 194.48 707.144 194.04 707.685 194.04H708.188C708.721 194.04 709.154 193.607 709.154 193.073V184.442C709.154 183.928 708.752 183.503 708.238 183.476Z" fill="#495680"/>
<path d="M704.898 234.549L710.464 240.115C710.653 240.303 710.9 240.398 711.148 240.398C711.395 240.398 711.643 240.303 711.831 240.115C712.209 239.737 712.209 239.125 711.831 238.747L707.058 233.974C707.423 233.77 707.762 233.515 708.066 233.212C708.372 232.905 708.625 232.564 708.826 232.203L713.601 236.978C713.79 237.167 714.037 237.261 714.285 237.261C714.532 237.261 714.78 237.167 714.968 236.978C715.346 236.6 715.346 235.988 714.968 235.611L709.401 230.043C709.418 228.851 708.973 227.654 708.066 226.746L707.123 225.803C708.14 224.027 708.852 222.054 709.188 219.957H709.273C712.707 219.957 715.501 217.164 715.501 213.73V206.271C715.501 202.838 712.707 200.044 709.273 200.044H707.949C705.634 200.044 703.537 201.33 702.465 203.326C700.14 201.582 697.403 200.438 694.499 200.029C693.971 199.955 693.481 200.323 693.407 200.851C693.332 201.38 693.701 201.869 694.229 201.944C701.78 203.007 707.473 209.568 707.473 217.205C707.473 225.705 700.558 232.62 692.059 232.62C683.559 232.62 676.644 225.705 676.644 217.205C676.644 209.644 682.272 203.092 689.736 201.965C690.264 201.885 690.627 201.392 690.547 200.864C690.467 200.336 689.974 199.973 689.447 200.053C687.525 200.343 685.678 200.957 683.979 201.853C683.704 201.186 683.188 200.629 682.514 200.316C681.488 199.839 680.268 200.002 679.406 200.732L677.56 202.289C676.965 202.791 676.601 203.495 676.535 204.271C676.469 205.047 676.71 205.803 677.212 206.396C677.436 206.662 677.702 206.879 677.995 207.047C675.868 209.991 674.71 213.544 674.71 217.206C674.71 219.527 675.17 221.742 676 223.767C674.755 224.942 674.047 226.57 674.047 228.291V235.75C674.047 239.184 676.841 241.977 680.274 241.977H681.598C685.032 241.977 687.825 239.184 687.825 235.75V234.031C689.073 234.345 690.373 234.523 691.711 234.549V236.184C690.323 236.407 689.26 237.613 689.26 239.063C689.26 240.67 690.568 241.977 692.176 241.977H697.076C698.683 241.977 699.99 240.67 699.99 239.063C699.99 237.613 698.927 236.407 697.54 236.184V233.666C698.631 233.302 699.674 232.832 700.657 232.269L701.6 233.212C702.463 234.075 703.677 234.549 704.898 234.549ZM678.462 204.434C678.484 204.172 678.606 203.936 678.806 203.767L680.654 202.208C680.944 201.963 681.354 201.908 681.699 202.069C682.022 202.219 682.236 202.536 682.262 202.888C681.177 203.632 680.172 204.5 679.272 205.482C679.045 205.444 678.84 205.328 678.69 205.149C678.52 204.949 678.439 204.695 678.462 204.434ZM681.995 231.328V235.749C681.995 235.968 681.817 236.146 681.598 236.146H680.274C680.055 236.146 679.877 235.968 679.877 235.749V229.544C680.534 230.193 681.242 230.79 681.995 231.328ZM685.892 235.749C685.892 238.117 683.966 240.043 681.598 240.043H680.274C677.906 240.043 675.98 238.117 675.98 235.749V228.291C675.98 227.318 676.31 226.388 676.902 225.637C677.26 226.278 677.657 226.893 678.09 227.48C677.993 227.74 677.943 228.011 677.943 228.291V235.749C677.943 237.034 678.989 238.08 680.274 238.08H681.598C682.883 238.08 683.929 237.034 683.929 235.749V232.526C684.561 232.863 685.216 233.162 685.892 233.42V235.749ZM696.573 238.08H697.076C697.617 238.08 698.057 238.52 698.057 239.062C698.057 239.603 697.617 240.043 697.076 240.043H692.176C691.634 240.043 691.194 239.603 691.194 239.062C691.194 238.52 691.634 238.08 692.176 238.08H692.677C693.211 238.08 693.644 237.647 693.644 237.113V234.48C694.31 234.42 694.964 234.322 695.606 234.188V237.113C695.606 237.647 696.039 238.08 696.573 238.08ZM706.698 228.113C707.727 229.142 707.727 230.815 706.698 231.844C706.2 232.342 705.537 232.617 704.833 232.617C704.128 232.617 703.465 232.342 702.967 231.844L702.312 231.189C703.737 230.142 704.996 228.883 706.043 227.458L706.698 228.113ZM709.132 214.126C708.835 212.478 708.301 210.884 707.548 209.393C707.55 209.37 707.552 209.348 707.552 209.325V206.271C707.552 206.052 707.73 205.874 707.949 205.874H709.273C709.492 205.874 709.67 206.052 709.67 206.271V213.729C709.67 213.948 709.492 214.126 709.273 214.126H709.132ZM713.567 213.729C713.567 216.059 711.702 217.959 709.387 218.02C709.4 217.75 709.407 217.478 709.407 217.205C709.407 216.82 709.394 216.437 709.368 216.055C710.609 216.005 711.603 214.982 711.603 213.73V206.271C711.603 204.986 710.558 203.94 709.273 203.94H707.949C706.664 203.94 705.618 204.986 705.618 206.271V206.384C705.455 206.179 705.286 205.978 705.113 205.78C704.756 205.373 704.382 204.984 703.992 204.615C704.657 203.027 706.213 201.977 707.949 201.977H709.273C711.64 201.977 713.567 203.904 713.567 206.271V213.729Z" fill="#495680"/>
<path d="M679.439 217.205C679.439 224.109 685.057 229.726 691.961 229.726C698.865 229.726 704.482 224.109 704.482 217.205C704.482 210.301 698.865 204.684 691.961 204.684C685.056 204.684 679.439 210.301 679.439 217.205ZM682.294 213.153C682.996 213.153 683.568 213.724 683.568 214.427C683.568 215.129 682.996 215.7 682.294 215.7H681.482C681.609 214.811 681.846 213.957 682.181 213.153H682.294ZM695.703 227.107C694.896 227.413 694.042 227.623 693.156 227.723V225.911C693.156 225.397 692.754 224.973 692.241 224.945C691.885 224.926 691.563 224.766 691.334 224.494C690.881 223.958 690.95 223.153 691.486 222.7L693.608 220.91C693.985 220.591 694.519 220.52 694.966 220.728C695.414 220.936 695.703 221.389 695.703 221.883V227.107ZM696.393 213.153H696.97C697.672 213.153 698.242 213.724 698.242 214.427C698.242 215.129 697.672 215.7 696.97 215.7H691.336C690.633 215.7 690.062 215.129 690.062 214.427C690.062 213.724 690.633 213.153 691.336 213.153H691.913C692.447 213.153 692.88 212.72 692.88 212.186V206.66C693.764 206.736 694.617 206.921 695.426 207.203V212.186C695.426 212.72 695.858 213.153 696.393 213.153ZM690.946 206.667V211.243C689.361 211.436 688.129 212.79 688.129 214.427C688.129 216.195 689.567 217.634 691.336 217.634H696.97C698.738 217.634 700.176 216.195 700.176 214.427C700.176 212.79 698.944 211.436 697.359 211.243V208.102C700.463 209.95 702.548 213.338 702.548 217.205C702.548 220.955 700.586 224.254 697.637 226.136V221.883C697.637 220.639 696.908 219.497 695.781 218.974C694.654 218.451 693.312 218.63 692.361 219.432L690.239 221.223C688.888 222.364 688.716 224.391 689.856 225.741C690.222 226.174 690.696 226.5 691.222 226.69V227.764C685.869 227.393 681.6 223.027 681.384 217.634H682.294C684.063 217.634 685.501 216.195 685.501 214.427C685.501 212.956 684.506 211.714 683.153 211.337C684.876 208.759 687.699 206.977 690.946 206.667Z" fill="#495680"/>
</svg>
