<svg width="1532" height="706" viewBox="0 0 1532 706" fill="none" xmlns="http://www.w3.org/2000/svg">
<path d="M1530.09 34.8652H1V172.649H1530.09V34.8652Z" stroke="#626A84" stroke-width="2"/>
<path d="M26.5195 5.50833C26.5195 2.46616 28.9852 0 32.027 0H210.058C213.1 0 215.565 2.46616 215.565 5.50833V73.3584C215.565 76.4005 213.1 78.8667 210.058 78.8667H32.027C28.9852 78.8667 26.5195 76.4005 26.5195 73.3584V5.50833Z" fill="#2A365C"/>
<path d="M70.0044 39.5049C70.0044 41.1037 69.728 42.5082 69.1753 43.7186C68.6225 44.9214 67.8306 45.8479 66.7998 46.4978C65.7764 47.1404 64.5962 47.4616 63.259 47.4616C61.9368 47.4616 60.7565 47.1404 59.7182 46.4978C58.6874 45.8479 57.888 44.9252 57.3203 43.7298C56.7601 42.5344 56.4762 41.156 56.4688 39.5945V38.6755C56.4688 37.0842 56.7489 35.6797 57.3091 34.4618C57.8768 33.244 58.6724 32.3139 59.6958 31.6713C60.7267 31.0213 61.9069 30.6964 63.2365 30.6964C64.5662 30.6964 65.7427 31.0177 66.7662 31.6601C67.797 32.2952 68.5926 33.2141 69.1529 34.4171C69.7131 35.6124 69.9969 37.0058 70.0044 38.5971V39.5049ZM67.1695 38.6531C67.1695 36.8451 66.8259 35.4592 66.1387 34.4955C65.4589 33.5317 64.4915 33.0498 63.2365 33.0498C62.0115 33.0498 61.0516 33.5317 60.3569 34.4955C59.6696 35.4518 59.3185 36.8078 59.3036 38.5635V39.5049C59.3036 41.298 59.651 42.6839 60.3457 43.6626C61.0479 44.6413 62.0189 45.1307 63.259 45.1307C64.5139 45.1307 65.4775 44.6525 66.1499 43.6962C66.8296 42.7399 67.1695 41.3428 67.1695 39.5049V38.6531ZM83.1815 41.298C83.1815 43.1732 82.7557 44.6712 81.9042 45.7919C81.0525 46.9051 79.9096 47.4616 78.4754 47.4616C77.1457 47.4616 76.0813 47.0246 75.282 46.1504V51.8995H72.5592V35.1118H75.0691L75.1811 36.3446C75.9804 35.3733 77.0673 34.8877 78.4418 34.8877C79.9208 34.8877 81.0787 35.4406 81.9154 36.5463C82.7595 37.6446 83.1815 39.1724 83.1815 41.1299V41.298ZM80.4699 41.0626C80.4699 39.8523 80.2271 38.8922 79.7416 38.1825C79.2635 37.4727 78.5763 37.1179 77.6798 37.1179C76.5668 37.1179 75.7675 37.5773 75.282 38.4962V43.8755C75.775 44.8169 76.5817 45.2876 77.7022 45.2876C78.5687 45.2876 79.2448 44.9402 79.7304 44.2453C80.2234 43.5431 80.4699 42.4822 80.4699 41.0626ZM88.9072 32.1644V35.1118H91.0474V37.1291H88.9072V43.8979C88.9072 44.3612 88.9969 44.6973 89.1762 44.9065C89.363 45.1083 89.6916 45.2091 90.1622 45.2091C90.4759 45.2091 90.7934 45.1717 91.1146 45.0971V47.2039C90.4947 47.3758 89.897 47.4616 89.3218 47.4616C87.2303 47.4616 86.1844 46.3073 86.1844 43.9988V37.1291H84.19V35.1118H86.1844V32.1644H88.9072ZM96.0334 47.2375H93.3109V35.1118H96.0334V47.2375ZM93.1429 31.9627C93.1429 31.5444 93.2733 31.197 93.5349 30.9205C93.8038 30.6441 94.1848 30.5059 94.6777 30.5059C95.1706 30.5059 95.5515 30.6441 95.8205 30.9205C96.0894 31.197 96.2244 31.5444 96.2244 31.9627C96.2244 32.3736 96.0894 32.7174 95.8205 32.9938C95.5515 33.2627 95.1706 33.3972 94.6777 33.3972C94.1848 33.3972 93.8038 33.2627 93.5349 32.9938C93.2733 32.7174 93.1429 32.3736 93.1429 31.9627ZM101.568 35.1118L101.647 36.3782C102.499 35.3845 103.664 34.8877 105.144 34.8877C106.764 34.8877 107.874 35.5078 108.471 36.748C109.352 35.5078 110.592 34.8877 112.192 34.8877C113.528 34.8877 114.522 35.2575 115.172 35.9972C115.829 36.7368 116.165 37.8276 116.18 39.2695V47.2375H113.457V39.348C113.457 38.5784 113.289 38.0144 112.953 37.6558C112.617 37.2972 112.06 37.1179 111.284 37.1179C110.664 37.1179 110.156 37.286 109.76 37.6222C109.372 37.9508 109.099 38.3842 108.942 38.9221L108.953 47.2375H106.231V39.2583C106.193 37.8313 105.464 37.1179 104.045 37.1179C102.955 37.1179 102.182 37.5624 101.725 38.4514V47.2375H99.0029V35.1118H101.568ZM121.873 47.2375H119.149V35.1118H121.873V47.2375ZM118.981 31.9627C118.981 31.5444 119.113 31.197 119.373 30.9205C119.642 30.6441 120.023 30.5059 120.517 30.5059C121.01 30.5059 121.391 30.6441 121.66 30.9205C121.929 31.197 122.063 31.5444 122.063 31.9627C122.063 32.3736 121.929 32.7174 121.66 32.9938C121.391 33.2627 121.01 33.3972 120.517 33.3972C120.023 33.3972 119.642 33.2627 119.373 32.9938C119.113 32.7174 118.981 32.3736 118.981 31.9627ZM127.755 45.0634H134.21V47.2375H124.371V45.4557L130.522 37.3084H124.483V35.1118H133.974V36.8377L127.755 45.0634ZM143.633 47.2375C143.513 47.0059 143.409 46.6287 143.319 46.1056C142.452 47.0097 141.391 47.4616 140.137 47.4616C138.919 47.4616 137.925 47.1142 137.156 46.4194C136.387 45.7246 136.002 44.8654 136.002 43.8419C136.002 42.5494 136.48 41.5594 137.436 40.8721C138.4 40.1773 139.774 39.8299 141.559 39.8299H143.229V39.0342C143.229 38.4066 143.054 37.906 142.703 37.5325C142.351 37.1515 141.817 36.961 141.1 36.961C140.48 36.961 139.972 37.1179 139.577 37.4317C139.18 37.7379 138.983 38.1302 138.983 38.6083H136.259C136.259 37.9434 136.48 37.3233 136.921 36.748C137.362 36.1653 137.959 35.7095 138.714 35.3808C139.476 35.0521 140.324 34.8877 141.257 34.8877C142.676 34.8877 143.808 35.2463 144.653 35.9635C145.496 36.6733 145.929 37.6744 145.952 38.9669V44.4358C145.952 45.5266 146.105 46.397 146.411 47.047V47.2375H143.633ZM140.64 45.2764C141.178 45.2764 141.683 45.1456 142.153 44.8841C142.631 44.6226 142.99 44.2715 143.229 43.8307V41.5445H141.761C140.752 41.5445 139.994 41.7201 139.487 42.0712C138.979 42.4224 138.725 42.9192 138.725 43.5617C138.725 44.0847 138.896 44.5031 139.241 44.8169C139.591 45.1231 140.058 45.2764 140.64 45.2764ZM152.215 32.1644V35.1118H154.356V37.1291H152.215V43.8979C152.215 44.3612 152.305 44.6973 152.484 44.9065C152.672 45.1083 153 45.2091 153.47 45.2091C153.784 45.2091 154.102 45.1717 154.423 45.0971V47.2039C153.803 47.3758 153.206 47.4616 152.63 47.4616C150.538 47.4616 149.493 46.3073 149.493 43.9988V37.1291H147.498V35.1118H149.493V32.1644H152.215ZM159.342 47.2375H156.619V35.1118H159.342V47.2375ZM156.452 31.9627C156.452 31.5444 156.582 31.197 156.843 30.9205C157.112 30.6441 157.493 30.5059 157.986 30.5059C158.479 30.5059 158.86 30.6441 159.129 30.9205C159.398 31.197 159.532 31.5444 159.532 31.9627C159.532 32.3736 159.398 32.7174 159.129 32.9938C158.86 33.2627 158.479 33.3972 157.986 33.3972C157.493 33.3972 157.112 33.2627 156.843 32.9938C156.582 32.7174 156.452 32.3736 156.452 31.9627ZM161.807 41.0626C161.807 39.8747 162.043 38.8063 162.513 37.8575C162.983 36.9012 163.644 36.169 164.496 35.6609C165.348 35.1454 166.326 34.8877 167.432 34.8877C169.068 34.8877 170.394 35.4144 171.41 36.4678C172.433 37.5213 172.986 38.9184 173.069 40.6592L173.08 41.298C173.08 42.4934 172.847 43.5617 172.385 44.5031C171.929 45.4445 171.271 46.1728 170.412 46.6884C169.561 47.2039 168.575 47.4616 167.455 47.4616C165.744 47.4616 164.373 46.8939 163.342 45.7583C162.319 44.6152 161.807 43.0948 161.807 41.1971V41.0626ZM164.53 41.298C164.53 42.5456 164.788 43.5243 165.303 44.2341C165.819 44.9364 166.536 45.2876 167.455 45.2876C168.373 45.2876 169.087 44.929 169.594 44.2117C170.11 43.4945 170.368 42.4448 170.368 41.0626C170.368 39.8373 170.103 38.8661 169.572 38.1489C169.049 37.4317 168.336 37.073 167.432 37.073C166.543 37.073 165.837 37.4279 165.314 38.1377C164.792 38.84 164.53 39.8933 164.53 41.298ZM177.909 35.1118L177.987 36.5127C178.884 35.4294 180.06 34.8877 181.517 34.8877C184.041 34.8877 185.326 36.3334 185.371 39.2247V47.2375H182.649V39.3816C182.649 38.6121 182.48 38.0443 182.144 37.6782C181.815 37.3046 181.274 37.1179 180.519 37.1179C179.421 37.1179 178.604 37.6146 178.066 38.6083V47.2375H175.343V35.1118H177.909Z" fill="white"/>
<path d="M240.451 5.50833C240.451 2.46616 242.917 0 245.959 0H423.989C427.031 0 429.497 2.46616 429.497 5.50833V73.3584C429.497 76.4005 427.031 78.8667 423.989 78.8667H245.959C242.918 78.8667 240.451 76.4005 240.451 73.3584V5.50833Z" fill="#2A365C"/>
<path d="M291.229 40.95H288.07V47.237H285.234V30.92H290.971C292.854 30.92 294.307 31.3421 295.331 32.1864C296.354 33.0306 296.865 34.2521 296.865 35.851C296.865 36.9417 296.6 37.8569 296.07 38.5966C295.547 39.3288 294.815 39.8928 293.874 40.2888L297.538 47.0913V47.237H294.502L291.229 40.95ZM288.07 38.675H290.983C291.939 38.675 292.686 38.4359 293.224 37.9578C293.762 37.4722 294.031 36.811 294.031 35.9742C294.031 35.1001 293.78 34.424 293.28 33.9458C292.787 33.4676 292.047 33.2211 291.061 33.2062H288.07V38.675ZM304.631 47.4611C302.905 47.4611 301.504 46.9194 300.429 45.8361C299.36 44.7454 298.826 43.296 298.826 41.4879V41.1517C298.826 39.9414 299.058 38.8618 299.521 37.913C299.992 36.9567 300.649 36.2133 301.493 35.6829C302.337 35.1524 303.279 34.8872 304.317 34.8872C305.967 34.8872 307.241 35.4139 308.137 36.4673C309.041 37.5207 309.494 39.0112 309.494 40.9388V42.037H301.571C301.654 43.0382 301.986 43.8302 302.569 44.4129C303.158 44.9956 303.898 45.287 304.788 45.287C306.035 45.287 307.05 44.7827 307.835 43.7741L309.303 45.1749C308.817 45.8997 308.168 46.4637 307.353 46.8672C306.547 47.2631 305.639 47.4611 304.631 47.4611ZM304.306 37.0725C303.559 37.0725 302.954 37.334 302.49 37.8569C302.035 38.3799 301.743 39.1083 301.616 40.0423H306.804V39.8406C306.745 38.929 306.502 38.2417 306.076 37.7785C305.651 37.3078 305.06 37.0725 304.306 37.0725ZM311.107 41.0844C311.107 39.2167 311.54 37.7188 312.406 36.5906C313.273 35.4549 314.435 34.8872 315.892 34.8872C317.176 34.8872 318.215 35.3354 319.006 36.232V30.0234H321.73V47.237H319.264L319.13 45.9818C318.316 46.968 317.228 47.4611 315.869 47.4611C314.45 47.4611 313.3 46.8896 312.418 45.7465C311.544 44.6034 311.107 43.0494 311.107 41.0844ZM313.83 41.3198C313.83 42.5526 314.065 43.5164 314.536 44.2112C315.014 44.8985 315.69 45.2422 316.564 45.2422C317.677 45.2422 318.491 44.7454 319.006 43.7517V38.5742C318.506 37.6029 317.699 37.1173 316.587 37.1173C315.705 37.1173 315.025 37.4684 314.547 38.1707C314.069 38.8656 313.83 39.9152 313.83 41.3198ZM331.915 46.0491C331.115 46.9905 329.98 47.4611 328.509 47.4611C327.194 47.4611 326.196 47.0763 325.517 46.3068C324.844 45.5373 324.508 44.4241 324.508 42.9672V35.1113H327.231V42.9336C327.231 44.4726 327.87 45.2422 329.147 45.2422C330.469 45.2422 331.362 44.7678 331.825 43.819V35.1113H334.548V47.237H331.982L331.915 46.0491ZM342.302 45.287C342.981 45.287 343.546 45.089 343.994 44.693C344.442 44.2971 344.681 43.8078 344.711 43.225H347.277C347.247 43.9795 347.012 44.6856 346.571 45.343C346.13 45.993 345.532 46.5085 344.778 46.8896C344.024 47.2706 343.209 47.4611 342.335 47.4611C340.64 47.4611 339.295 46.912 338.302 45.8137C337.308 44.7155 336.811 43.1988 336.811 41.2638V40.9836C336.811 39.1383 337.304 37.6627 338.291 36.557C339.277 35.4437 340.621 34.8872 342.324 34.8872C343.766 34.8872 344.938 35.3093 345.842 36.1536C346.754 36.9903 347.232 38.0923 347.277 39.4595H344.711C344.681 38.7647 344.442 38.1931 343.994 37.7449C343.553 37.2966 342.989 37.0725 342.302 37.0725C341.42 37.0725 340.741 37.3938 340.262 38.0362C339.784 38.6713 339.542 39.6388 339.535 40.9388V41.3758C339.535 42.6908 339.77 43.6733 340.24 44.3233C340.718 44.9657 341.405 45.287 342.302 45.287ZM352.745 32.1639V35.1113H354.885V37.1285H352.745V43.8974C352.745 44.3606 352.834 44.6968 353.014 44.9059C353.2 45.1077 353.529 45.2085 354 45.2085C354.314 45.2085 354.631 45.1712 354.952 45.0965V47.2034C354.332 47.3752 353.735 47.4611 353.159 47.4611C351.068 47.4611 350.022 46.3068 350.022 43.9983V37.1285H348.028V35.1113H350.022V32.1639H352.745ZM359.871 47.237H357.148V35.1113H359.871V47.237ZM356.98 31.9622C356.98 31.5438 357.111 31.1964 357.372 30.92C357.641 30.6436 358.022 30.5053 358.515 30.5053C359.008 30.5053 359.389 30.6436 359.658 30.92C359.927 31.1964 360.062 31.5438 360.062 31.9622C360.062 32.3731 359.927 32.7168 359.658 32.9933C359.389 33.2622 359.008 33.3967 358.515 33.3967C358.022 33.3967 357.641 33.2622 357.372 32.9933C357.111 32.7168 356.98 32.3731 356.98 31.9622ZM362.336 41.062C362.336 39.8742 362.571 38.8057 363.042 37.8569C363.513 36.9007 364.174 36.1684 365.026 35.6604C365.877 35.1449 366.855 34.8872 367.961 34.8872C369.597 34.8872 370.924 35.4139 371.939 36.4673C372.962 37.5207 373.515 38.9178 373.597 40.6587L373.608 41.2974C373.608 42.4928 373.377 43.5612 372.914 44.5026C372.458 45.4439 371.801 46.1723 370.942 46.6879C370.09 47.2034 369.104 47.4611 367.983 47.4611C366.273 47.4611 364.902 46.8934 363.871 45.7577C362.848 44.6146 362.336 43.0943 362.336 41.1965V41.062ZM365.059 41.2974C365.059 42.5451 365.317 43.5238 365.832 44.2336C366.348 44.9359 367.065 45.287 367.983 45.287C368.902 45.287 369.616 44.9284 370.124 44.2112C370.639 43.494 370.897 42.4443 370.897 41.062C370.897 39.8368 370.632 38.8656 370.101 38.1483C369.579 37.4311 368.866 37.0725 367.961 37.0725C367.072 37.0725 366.366 37.4274 365.844 38.1371C365.321 38.8394 365.059 39.8928 365.059 41.2974ZM378.438 35.1113L378.517 36.5122C379.412 35.4289 380.589 34.8872 382.046 34.8872C384.571 34.8872 385.855 36.3329 385.9 39.2242V47.237H383.178V39.3811C383.178 38.6116 383.01 38.0438 382.674 37.6776C382.345 37.3041 381.804 37.1173 381.049 37.1173C379.95 37.1173 379.132 37.6141 378.595 38.6078V47.237H375.872V35.1113H378.438Z" fill="white"/>
<path d="M454.385 5.50833C454.385 2.46616 456.85 0 459.892 0H637.923C640.965 0 643.43 2.46616 643.43 5.50833V73.3584C643.43 76.4005 640.965 78.8667 637.923 78.8667H459.892C456.85 78.8667 454.385 76.4005 454.385 73.3584V5.50833Z" fill="#2A365C"/>
<path d="M509.545 47.237V30.92H514.363C515.805 30.92 517.082 31.2412 518.195 31.8838C519.315 32.5262 520.182 33.4378 520.795 34.6182C521.407 35.7987 521.714 37.1509 521.714 38.675V39.4931C521.714 41.0396 521.403 42.3994 520.784 43.5724C520.171 44.7454 519.293 45.6494 518.15 46.2844C517.015 46.9194 515.712 47.237 514.24 47.237H509.545ZM512.379 33.2062V44.9732H514.228C515.715 44.9732 516.854 44.51 517.646 43.5836C518.445 42.6497 518.853 41.3124 518.867 39.5716V38.6638C518.867 36.8932 518.483 35.5409 517.713 34.607C516.944 33.6731 515.827 33.2062 514.363 33.2062H512.379ZM529.613 47.4611C527.888 47.4611 526.487 46.9194 525.411 45.8361C524.343 44.7454 523.808 43.2959 523.808 41.4879V41.1517C523.808 39.9414 524.041 38.8618 524.503 37.913C524.974 36.9567 525.631 36.2133 526.476 35.6829C527.319 35.1524 528.261 34.8872 529.299 34.8872C530.95 34.8872 532.224 35.4139 533.121 36.4673C534.024 37.5207 534.476 39.0112 534.476 40.9388V42.037H526.554C526.637 43.0382 526.969 43.8302 527.552 44.4129C528.142 44.9956 528.881 45.287 529.77 45.287C531.018 45.287 532.033 44.7827 532.818 43.7741L534.285 45.1749C533.8 45.8996 533.15 46.4637 532.336 46.8672C531.529 47.2631 530.621 47.4611 529.613 47.4611ZM529.288 37.0725C528.541 37.0725 527.936 37.334 527.473 37.8569C527.017 38.3799 526.726 39.1083 526.599 40.0423H531.787V39.8406C531.727 38.929 531.484 38.2417 531.058 37.7785C530.633 37.3078 530.043 37.0725 529.288 37.0725ZM539.496 47.237H536.773V30.0234H539.496V47.237ZM545.367 47.237H542.644V35.1113H545.367V47.237ZM542.476 31.9622C542.476 31.5438 542.607 31.1964 542.869 30.92C543.138 30.6436 543.519 30.5053 544.012 30.5053C544.505 30.5053 544.886 30.6436 545.155 30.92C545.423 31.1964 545.558 31.5438 545.558 31.9622C545.558 32.3731 545.423 32.7168 545.155 32.9933C544.886 33.2622 544.505 33.3966 544.012 33.3966C543.519 33.3966 543.138 33.2622 542.869 32.9933C542.607 32.7168 542.476 32.3731 542.476 31.9622ZM552.617 43.7853L555.183 35.1113H557.995L553.793 47.237H551.429L547.194 35.1113H550.018L552.617 43.7853ZM564.886 47.4611C563.161 47.4611 561.761 46.9194 560.685 45.8361C559.616 44.7454 559.082 43.2959 559.082 41.4879V41.1517C559.082 39.9414 559.313 38.8618 559.777 37.913C560.248 36.9567 560.905 36.2133 561.749 35.6829C562.593 35.1524 563.534 34.8872 564.573 34.8872C566.223 34.8872 567.498 35.4139 568.393 36.4673C569.298 37.5207 569.749 39.0112 569.749 40.9388V42.037H561.828C561.909 43.0382 562.242 43.8302 562.824 44.4129C563.415 44.9956 564.154 45.287 565.043 45.287C566.29 45.287 567.307 44.7827 568.091 43.7741L569.559 45.1749C569.074 45.8996 568.424 46.4637 567.61 46.8672C566.803 47.2631 565.895 47.4611 564.886 47.4611ZM564.561 37.0725C563.815 37.0725 563.209 37.334 562.746 37.8569C562.29 38.3799 561.999 39.1083 561.873 40.0423H567.061V39.8406C567.001 38.929 566.758 38.2417 566.332 37.7785C565.906 37.3078 565.316 37.0725 564.561 37.0725ZM578.221 37.5992C577.862 37.5395 577.492 37.5095 577.111 37.5095C575.863 37.5095 575.023 37.9877 574.59 38.944V47.237H571.867V35.1113H574.466L574.534 36.4673C575.191 35.4139 576.103 34.8872 577.268 34.8872C577.656 34.8872 577.977 34.9394 578.232 35.0441L578.221 37.5992ZM584.383 43.3371L586.848 35.1113H589.751L584.932 49.0749C584.193 51.1145 582.938 52.1343 581.167 52.1343C580.772 52.1343 580.335 52.0671 579.856 51.9326V49.8257L580.372 49.8594C581.059 49.8594 581.575 49.7323 581.918 49.4783C582.27 49.2318 582.546 48.8134 582.747 48.2232L583.14 47.181L578.882 35.1113H581.817L584.383 43.3371Z" fill="white"/>
<path d="M370.543 140.967C370.543 137.925 373.008 135.459 376.05 135.459H722.223C725.265 135.459 727.73 137.925 727.73 140.967V208.817C727.73 211.86 725.265 214.325 722.223 214.325H376.05C373.008 214.325 370.543 211.86 370.543 208.817V140.967Z" fill="#2A365C"/>
<path d="M494.68 183.613V167.296H500.103C501.911 167.296 503.323 167.67 504.339 168.417C505.354 169.157 505.863 170.266 505.863 171.745C505.863 172.485 505.65 173.146 505.224 173.729C504.798 174.312 504.208 174.745 503.453 175.029C504.424 175.245 505.171 175.713 505.695 176.43C506.217 177.147 506.479 177.98 506.479 178.929C506.479 180.46 505.978 181.626 504.977 182.425C503.976 183.217 502.594 183.613 500.832 183.613H494.68ZM497.402 176.195V181.439H500.832C501.772 181.439 502.498 181.226 503.005 180.8C503.513 180.367 503.767 179.743 503.767 178.929C503.767 178.062 503.554 177.39 503.128 176.912C502.702 176.433 502.038 176.195 501.134 176.195H497.402ZM497.402 174.166H500.406C501.249 174.166 501.915 173.968 502.4 173.572C502.893 173.169 503.139 172.6 503.139 171.869C503.139 171.062 502.882 170.464 502.366 170.076C501.851 169.679 501.097 169.482 500.103 169.482H497.402V174.166ZM511.936 183.613H509.213V166.131H511.936V183.613ZM514.49 177.439C514.49 175.637 514.983 174.158 515.969 173.001C516.97 171.842 518.326 171.264 520.037 171.264C521.777 171.264 523.141 171.842 524.126 173.001C525.121 174.151 525.617 175.63 525.617 177.439V177.674C525.617 179.497 525.121 180.983 524.126 182.133C523.141 183.277 521.785 183.848 520.059 183.848C518.326 183.848 516.963 183.273 515.969 182.122C514.983 180.972 514.49 179.489 514.49 177.674V177.439ZM517.213 177.674C517.213 178.854 517.445 179.818 517.908 180.565C518.364 181.304 519.081 181.674 520.059 181.674C521.008 181.674 521.718 181.304 522.188 180.565C522.666 179.818 522.906 178.854 522.906 177.674V177.439C522.906 176.28 522.666 175.328 522.188 174.581C521.718 173.826 521 173.449 520.037 173.449C519.088 173.449 518.378 173.826 517.908 174.581C517.445 175.335 517.213 176.287 517.213 177.439V177.674ZM533.001 181.674C533.665 181.674 534.226 181.48 534.681 181.091C535.138 180.696 535.365 180.203 535.365 179.613H537.83L537.853 179.68C537.89 180.815 537.427 181.794 536.463 182.615C535.507 183.437 534.353 183.848 533.001 183.848C531.215 183.848 529.845 183.273 528.889 182.122C527.94 180.972 527.466 179.515 527.466 177.752V177.36C527.466 175.604 527.94 174.151 528.889 173.001C529.845 171.842 531.215 171.264 533.001 171.264C534.458 171.264 535.638 171.689 536.542 172.541C537.453 173.385 537.894 174.461 537.864 175.769L537.842 175.836H535.365C535.365 175.171 535.145 174.606 534.704 174.144C534.271 173.68 533.703 173.449 533.001 173.449C531.977 173.449 531.253 173.822 530.827 174.57C530.401 175.309 530.188 176.24 530.188 177.36V177.752C530.188 178.896 530.401 179.837 530.827 180.576C531.253 181.308 531.977 181.674 533.001 181.674ZM543.993 178.313H542.772V183.613H540.061V166.131H542.772V176.127H543.904L546.962 171.488H550.167L546.166 177.002L550.761 183.613H547.601L543.993 178.313ZM556.823 181.674C557.488 181.674 558.048 181.48 558.503 181.091C558.959 180.696 559.187 180.203 559.187 179.613H561.653L561.675 179.68C561.712 180.815 561.249 181.794 560.285 182.615C559.329 183.437 558.175 183.848 556.823 183.848C555.037 183.848 553.667 183.273 552.71 182.122C551.762 180.972 551.287 179.515 551.287 177.752V177.36C551.287 175.604 551.762 174.151 552.71 173.001C553.667 171.842 555.037 171.264 556.823 171.264C558.279 171.264 559.46 171.689 560.364 172.541C561.275 173.385 561.716 174.461 561.686 175.769L561.664 175.836H559.187C559.187 175.171 558.967 174.606 558.526 174.144C558.093 173.68 557.525 173.449 556.823 173.449C555.799 173.449 555.075 173.822 554.649 174.57C554.223 175.309 554.01 176.24 554.01 177.36V177.752C554.01 178.896 554.223 179.837 554.649 180.576C555.075 181.308 555.799 181.674 556.823 181.674ZM566.56 173.057C566.964 172.488 567.453 172.048 568.028 171.734C568.61 171.42 569.253 171.264 569.955 171.264C571.24 171.264 572.241 171.67 572.958 172.485C573.683 173.292 574.044 174.539 574.044 176.228V183.613H571.322V176.206C571.322 175.249 571.132 174.558 570.751 174.133C570.37 173.707 569.798 173.494 569.036 173.494C568.506 173.494 568.028 173.606 567.602 173.83C567.184 174.046 566.836 174.349 566.56 174.738V183.613H563.837V166.131H566.56V173.057ZM584.163 183.613C584.066 183.307 583.984 183.008 583.917 182.716C583.857 182.425 583.816 182.133 583.794 181.842C583.42 182.411 582.927 182.888 582.314 183.277C581.709 183.658 581.03 183.848 580.275 183.848C579.012 183.848 578.041 183.523 577.362 182.873C576.689 182.223 576.353 181.331 576.353 180.195C576.353 179.022 576.817 178.111 577.743 177.461C578.669 176.803 579.972 176.475 581.653 176.475H583.771V175.41C583.771 174.774 583.584 174.278 583.211 173.92C582.837 173.561 582.303 173.382 581.608 173.382C580.989 173.382 580.496 173.53 580.129 173.83C579.763 174.129 579.58 174.514 579.58 174.984H576.958L576.947 174.917C576.895 173.96 577.32 173.113 578.225 172.373C579.136 171.633 580.319 171.264 581.776 171.264C583.188 171.264 584.327 171.622 585.193 172.339C586.06 173.057 586.494 174.088 586.494 175.433V180.823C586.494 181.323 586.527 181.805 586.594 182.268C586.662 182.724 586.77 183.173 586.919 183.613H584.163ZM580.824 181.663C581.511 181.663 582.128 181.492 582.673 181.147C583.225 180.804 583.592 180.412 583.771 179.971V178.178H581.608C580.817 178.178 580.196 178.376 579.748 178.772C579.3 179.16 579.076 179.62 579.076 180.15C579.076 180.613 579.225 180.983 579.524 181.259C579.83 181.528 580.263 181.663 580.824 181.663ZM592.253 183.613H589.531V171.488H592.253V183.613ZM592.253 168.518H589.531V166.131H592.253V168.518ZM597.777 171.488L597.934 173.236C598.33 172.616 598.826 172.134 599.424 171.79C600.03 171.439 600.709 171.264 601.464 171.264C602.726 171.264 603.709 171.648 604.411 172.418C605.12 173.18 605.475 174.371 605.475 175.993V183.613H602.752V176.015C602.752 175.104 602.561 174.458 602.18 174.077C601.807 173.687 601.236 173.494 600.467 173.494C599.936 173.494 599.462 173.613 599.043 173.852C598.625 174.084 598.281 174.405 598.012 174.816V183.613H595.29V171.488H597.777Z" fill="white"/>
<path d="M797.951 140.967C797.951 137.925 800.417 135.459 803.459 135.459H1149.63C1152.67 135.459 1155.14 137.925 1155.14 140.967V208.817C1155.14 211.86 1152.67 214.325 1149.63 214.325H803.459C800.417 214.325 797.951 211.86 797.951 208.817V140.967Z" fill="#2A365C"/>
<path d="M921.956 178.491C921.956 177.774 921.699 177.221 921.194 176.832C920.689 176.444 919.78 176.052 918.468 175.656C917.154 175.26 916.109 174.819 915.331 174.333C913.845 173.4 913.102 172.182 913.102 170.68C913.102 169.366 913.636 168.281 914.704 167.43C915.779 166.578 917.173 166.152 918.881 166.152C920.019 166.152 921.029 166.362 921.919 166.78C922.809 167.198 923.507 167.797 924.012 168.573C924.526 169.343 924.774 170.198 924.774 171.139H921.956C921.956 170.288 921.68 169.623 921.148 169.144C920.616 168.659 919.854 168.416 918.862 168.416C917.935 168.416 917.214 168.615 916.698 169.01C916.19 169.406 915.936 169.959 915.936 170.669C915.936 171.267 916.212 171.767 916.766 172.17C917.319 172.567 918.229 172.955 919.496 173.336C920.772 173.71 921.791 174.14 922.562 174.625C923.324 175.104 923.893 175.656 924.251 176.283C924.609 176.904 924.792 177.632 924.792 178.469C924.792 179.829 924.269 180.912 923.223 181.719C922.185 182.518 920.772 182.918 918.982 182.918C917.807 182.918 916.717 182.701 915.723 182.268C914.737 181.827 913.968 181.222 913.416 180.452C912.87 179.683 912.598 178.787 912.598 177.763H915.432C915.432 178.689 915.739 179.406 916.351 179.914C916.963 180.423 917.844 180.676 918.982 180.676C919.973 180.676 920.707 180.479 921.203 180.082C921.699 179.679 921.956 179.148 921.956 178.491ZM934.357 181.506C933.558 182.447 932.42 182.918 930.951 182.918C929.639 182.918 928.638 182.533 927.959 181.764C927.289 180.994 926.949 179.881 926.949 178.424V170.568H929.675V178.39C929.675 179.93 930.309 180.699 931.594 180.699C932.916 180.699 933.806 180.224 934.265 179.276V170.568H936.991V182.694H934.421L934.357 181.506ZM950.384 176.754C950.384 178.63 949.952 180.127 949.108 181.248C948.254 182.362 947.107 182.918 945.675 182.918C944.344 182.918 943.279 182.481 942.48 181.607V187.356H939.754V170.568H942.269L942.379 171.8C943.178 170.83 944.27 170.344 945.638 170.344C947.116 170.344 948.282 170.897 949.117 172.002C949.961 173.101 950.384 174.629 950.384 176.586V176.754ZM947.667 176.519C947.667 175.308 947.428 174.349 946.941 173.638C946.464 172.929 945.776 172.574 944.876 172.574C943.765 172.574 942.967 173.033 942.48 173.952V179.332C942.976 180.273 943.784 180.744 944.904 180.744C945.767 180.744 946.446 180.396 946.932 179.701C947.419 178.999 947.667 177.938 947.667 176.519ZM963.308 176.754C963.308 178.63 962.886 180.127 962.032 181.248C961.178 182.362 960.04 182.918 958.608 182.918C957.277 182.918 956.212 182.481 955.414 181.607V187.356H952.688V170.568H955.203L955.313 171.8C956.111 170.83 957.195 170.344 958.571 170.344C960.049 170.344 961.206 170.897 962.041 172.002C962.886 173.101 963.308 174.629 963.308 176.586V176.754ZM960.6 176.519C960.6 175.308 960.361 174.349 959.875 173.638C959.398 172.929 958.709 172.574 957.81 172.574C956.699 172.574 955.9 173.033 955.414 173.952V179.332C955.9 180.273 956.708 180.744 957.828 180.744C958.7 180.744 959.37 180.396 959.857 179.701C960.352 178.999 960.6 177.938 960.6 176.519ZM968.522 182.694H965.795V165.48H968.522V182.694ZM975.736 178.794L978.206 170.568H981.106L976.287 184.532C975.544 186.571 974.295 187.591 972.524 187.591C972.129 187.591 971.688 187.524 971.211 187.389V185.283L971.725 185.316C972.414 185.316 972.928 185.189 973.276 184.935C973.625 184.689 973.901 184.27 974.103 183.68L974.497 182.638L970.238 170.568H973.175L975.736 178.794ZM993.379 180.744C994.058 180.744 994.618 180.546 995.068 180.15C995.517 179.753 995.756 179.264 995.784 178.682H998.354C998.317 179.437 998.088 180.143 997.647 180.8C997.206 181.45 996.601 181.965 995.848 182.346C995.095 182.727 994.278 182.918 993.406 182.918C991.708 182.918 990.368 182.369 989.377 181.27C988.376 180.172 987.88 178.655 987.88 176.72V176.44C987.88 174.595 988.376 173.12 989.367 172.013C990.35 170.901 991.69 170.344 993.397 170.344C994.838 170.344 996.013 170.766 996.913 171.61C997.831 172.447 998.308 173.549 998.354 174.916H995.784C995.756 174.221 995.517 173.65 995.068 173.201C994.627 172.753 994.058 172.529 993.379 172.529C992.488 172.529 991.809 172.851 991.332 173.493C990.855 174.128 990.616 175.095 990.607 176.395V176.832C990.607 178.148 990.845 179.13 991.313 179.78C991.791 180.423 992.479 180.744 993.379 180.744ZM1003.09 171.89C1003.98 170.859 1005.1 170.344 1006.46 170.344C1009.05 170.344 1010.36 171.82 1010.4 174.77V182.694H1007.67V174.871C1007.67 174.035 1007.49 173.445 1007.12 173.101C1006.76 172.75 1006.23 172.574 1005.53 172.574C1004.44 172.574 1003.62 173.06 1003.09 174.031V182.694H1000.36V165.48H1003.09V171.89ZM1020.4 182.694C1020.28 182.462 1020.17 182.084 1020.09 181.562C1019.22 182.466 1018.16 182.918 1016.9 182.918C1015.68 182.918 1014.69 182.57 1013.92 181.876C1013.15 181.181 1012.77 180.322 1012.77 179.298C1012.77 178.006 1013.25 177.016 1014.21 176.328C1015.17 175.633 1016.55 175.286 1018.33 175.286H1020V174.49C1020 173.863 1019.82 173.362 1019.48 172.988C1019.12 172.607 1018.58 172.417 1017.87 172.417C1017.24 172.417 1016.74 172.574 1016.35 172.888C1015.95 173.194 1015.75 173.586 1015.75 174.064H1013.03C1013.03 173.4 1013.25 172.78 1013.69 172.204C1014.13 171.621 1014.73 171.166 1015.48 170.837C1016.24 170.509 1017.09 170.344 1018.02 170.344C1019.45 170.344 1020.58 170.702 1021.42 171.419C1022.27 172.13 1022.7 173.131 1022.72 174.423V179.892C1022.72 180.983 1022.87 181.853 1023.18 182.503V182.694H1020.4ZM1017.41 180.733C1017.95 180.733 1018.45 180.602 1018.92 180.34C1019.4 180.078 1019.76 179.728 1020 179.287V177.001H1018.53C1017.52 177.001 1016.77 177.177 1016.25 177.527C1015.75 177.879 1015.49 178.375 1015.49 179.018C1015.49 179.54 1015.67 179.959 1016.01 180.273C1016.36 180.58 1016.82 180.733 1017.41 180.733ZM1028.47 182.694H1025.74V170.568H1028.47V182.694ZM1025.58 167.419C1025.58 167.001 1025.71 166.653 1025.97 166.377C1026.24 166.1 1026.62 165.962 1027.11 165.962C1027.61 165.962 1027.98 166.1 1028.26 166.377C1028.53 166.653 1028.66 167.001 1028.66 167.419C1028.66 167.83 1028.53 168.173 1028.26 168.45C1027.98 168.719 1027.61 168.853 1027.11 168.853C1026.62 168.853 1026.24 168.719 1025.97 168.45C1025.71 168.173 1025.58 167.83 1025.58 167.419ZM1033.97 170.568L1034.05 171.969C1034.94 170.886 1036.12 170.344 1037.58 170.344C1040.1 170.344 1041.39 171.789 1041.43 174.681V182.694H1038.71V174.838C1038.71 174.068 1038.54 173.501 1038.21 173.134C1037.88 172.761 1037.34 172.574 1036.58 172.574C1035.48 172.574 1034.67 173.071 1034.13 174.064V182.694H1031.41V170.568H1033.97Z" fill="white"/>
<path d="M668.318 5.50833C668.318 2.46616 670.784 0 673.826 0H851.856C854.898 0 857.364 2.46616 857.364 5.50833V73.3584C857.364 76.4005 854.898 78.8667 851.856 78.8667H673.826C670.784 78.8667 668.318 76.4005 668.318 73.3584V5.50833Z" fill="#2A365C"/>
<path d="M723.667 41.1741V47.2369H720.832V30.9199H727.073C728.896 30.9199 730.342 31.3943 731.41 32.3432C732.485 33.292 733.023 34.5472 733.023 36.1086C733.023 37.7075 732.497 38.9513 731.443 39.8405C730.398 40.7295 728.93 41.1741 727.04 41.1741H723.667ZM723.667 38.8991H727.073C728.082 38.8991 728.851 38.6637 729.381 38.193C729.912 37.7149 730.177 37.0276 730.177 36.131C730.177 35.2495 729.908 34.5472 729.37 34.0241C728.833 33.4937 728.093 33.221 727.152 33.2061H723.667V38.8991ZM742.357 47.2369C742.238 47.0053 742.133 46.628 742.043 46.105C741.177 47.009 740.116 47.461 738.861 47.461C737.644 47.461 736.65 47.1136 735.88 46.4188C735.111 45.724 734.726 44.8648 734.726 43.8413C734.726 42.5487 735.205 41.5588 736.16 40.8715C737.124 40.1767 738.498 39.8293 740.284 39.8293H741.953V39.0336C741.953 38.406 741.778 37.9054 741.427 37.5318C741.076 37.1509 740.541 36.9604 739.825 36.9604C739.205 36.9604 738.697 37.1173 738.301 37.431C737.905 37.7373 737.707 38.1296 737.707 38.6077H734.984C734.984 37.9428 735.205 37.3227 735.645 36.7474C736.086 36.1647 736.684 35.7089 737.438 35.3802C738.2 35.0514 739.048 34.8871 739.982 34.8871C741.401 34.8871 742.532 35.2457 743.377 35.9629C744.22 36.6726 744.654 37.6738 744.677 38.9663V44.4352C744.677 45.526 744.829 46.3964 745.136 47.0464V47.2369H742.357ZM739.365 45.2757C739.903 45.2757 740.408 45.145 740.877 44.8835C741.356 44.622 741.715 44.2708 741.953 43.8301V41.5438H740.486C739.478 41.5438 738.719 41.7195 738.211 42.0706C737.703 42.4218 737.449 42.9185 737.449 43.5611C737.449 44.0841 737.621 44.5025 737.965 44.8163C738.316 45.1225 738.783 45.2757 739.365 45.2757ZM753.876 37.5991C753.517 37.5394 753.147 37.5094 752.766 37.5094C751.519 37.5094 750.679 37.9876 750.246 38.9439V47.2369H747.522V35.1112H750.122L750.189 36.4672C750.847 35.4138 751.758 34.8871 752.923 34.8871C753.312 34.8871 753.633 34.9394 753.887 35.044L753.876 37.5991ZM759.568 32.1638V35.1112H761.708V37.1285H759.568V43.8973C759.568 44.3605 759.657 44.6967 759.837 44.9059C760.023 45.1076 760.352 45.2084 760.823 45.2084C761.137 45.2084 761.454 45.1711 761.776 45.0964V47.2033C761.155 47.3752 760.558 47.461 759.982 47.461C757.891 47.461 756.845 46.3067 756.845 43.9982V37.1285H754.851V35.1112H756.845V32.1638H759.568ZM766.325 35.1112L766.403 36.5121C767.3 35.4288 768.475 34.8871 769.932 34.8871C772.457 34.8871 773.743 36.3328 773.787 39.2241V47.2369H771.064V39.381C771.064 38.6115 770.896 38.0437 770.56 37.6775C770.231 37.304 769.69 37.1173 768.935 37.1173C767.838 37.1173 767.019 37.614 766.482 38.6077V47.2369H763.758V35.1112H766.325ZM781.911 47.461C780.185 47.461 778.785 46.9193 777.709 45.836C776.64 44.7453 776.106 43.2959 776.106 41.4878V41.1517C776.106 39.9413 776.338 38.8617 776.801 37.9129C777.272 36.9566 777.929 36.2132 778.774 35.6828C779.617 35.1523 780.559 34.8871 781.597 34.8871C783.247 34.8871 784.522 35.4138 785.417 36.4672C786.322 37.5206 786.773 39.0111 786.773 40.9388V42.0369H778.852C778.934 43.0381 779.266 43.8301 779.849 44.4128C780.439 44.9956 781.179 45.2869 782.067 45.2869C783.315 45.2869 784.331 44.7827 785.115 43.774L786.583 45.1748C786.098 45.8996 785.448 46.4636 784.634 46.8671C783.827 47.2631 782.919 47.461 781.911 47.461ZM781.586 37.0724C780.839 37.0724 780.234 37.3339 779.77 37.8568C779.315 38.3799 779.023 39.1082 778.897 40.0422H784.085V39.8405C784.025 38.9289 783.782 38.2416 783.356 37.7784C782.93 37.3078 782.341 37.0724 781.586 37.0724ZM795.245 37.5991C794.886 37.5394 794.517 37.5094 794.135 37.5094C792.887 37.5094 792.048 37.9876 791.614 38.9439V47.2369H788.892V35.1112H791.491L791.558 36.4672C792.216 35.4138 793.127 34.8871 794.292 34.8871C794.681 34.8871 795.001 34.9394 795.256 35.044L795.245 37.5991ZM803.76 43.9421C803.76 43.4565 803.559 43.0866 803.155 42.8326C802.76 42.5787 802.099 42.3545 801.172 42.1602C800.245 41.966 799.473 41.7195 798.853 41.4206C797.494 40.7631 796.813 39.8106 796.813 38.5629C796.813 37.5169 797.254 36.6428 798.135 35.9405C799.017 35.2382 800.137 34.8871 801.497 34.8871C802.946 34.8871 804.115 35.2457 805.004 35.9629C805.901 36.6802 806.349 37.6103 806.349 38.7534H803.626C803.626 38.2304 803.432 37.7971 803.043 37.4534C802.655 37.1023 802.139 36.9267 801.497 36.9267C800.899 36.9267 800.41 37.0649 800.029 37.3414C799.655 37.6178 799.469 37.9876 799.469 38.4508C799.469 38.8692 799.644 39.1942 799.996 39.4258C800.346 39.6574 801.056 39.8927 802.124 40.1318C803.193 40.3634 804.029 40.6436 804.634 40.9724C805.247 41.2936 805.699 41.6821 805.991 42.1378C806.289 42.5935 806.439 43.1464 806.439 43.7964C806.439 44.8872 805.986 45.7726 805.083 46.4524C804.179 47.1248 802.995 47.461 801.531 47.461C800.537 47.461 799.652 47.2817 798.875 46.9231C798.098 46.5645 797.494 46.0714 797.06 45.4438C796.626 44.8163 796.409 44.1401 796.409 43.4154H799.054C799.092 44.0579 799.335 44.5548 799.783 44.9059C800.231 45.2496 800.825 45.4214 801.564 45.4214C802.281 45.4214 802.827 45.2869 803.2 45.0179C803.574 44.7415 803.76 44.3829 803.76 43.9421Z" fill="white"/>
<path d="M882.252 5.50833C882.252 2.46616 884.717 0 887.759 0H1065.79C1068.83 0 1071.3 2.46616 1071.3 5.50833V73.3584C1071.3 76.4005 1068.83 78.8667 1065.79 78.8667H887.759C884.717 78.8667 882.252 76.4005 882.252 73.3584V5.50833Z" fill="#2A365C"/>
<path d="M928.6 45.1184C928.012 45.8879 927.196 46.4707 926.149 46.8667C925.103 47.2626 923.919 47.4606 922.588 47.4606C921.22 47.4606 920.008 47.1505 918.953 46.5305C917.906 45.9103 917.089 45.0251 916.514 43.8745C915.946 42.7164 915.651 41.3679 915.629 39.8289V38.5513C915.629 36.0858 916.219 34.162 917.401 32.7798C918.576 31.3902 920.229 30.6953 922.34 30.6953C924.157 30.6953 925.598 31.1436 926.663 32.0402C927.737 32.9367 928.38 34.2292 928.591 35.9177H925.819C925.497 33.9528 924.359 32.9703 922.395 32.9703C921.128 32.9703 920.155 33.4297 919.494 34.3487C918.833 35.2603 918.494 36.6013 918.475 38.3719V39.6271C918.475 41.3903 918.843 42.7612 919.586 43.74C920.33 44.7113 921.367 45.1968 922.689 45.1968C924.139 45.1968 925.167 44.8682 925.782 44.2106V41.0167H922.422V38.8651H928.6V45.1184ZM930.95 41.0615C930.95 39.8737 931.179 38.8052 931.647 37.8564C932.125 36.9002 932.786 36.1679 933.639 35.6599C934.484 35.1444 935.466 34.8867 936.567 34.8867C938.211 34.8867 939.532 35.4134 940.551 36.4668C941.57 37.5202 942.121 38.9173 942.204 40.6581L942.222 41.2969C942.222 42.4923 941.983 43.5607 941.524 44.502C941.065 45.4434 940.414 46.1718 939.551 46.6874C938.697 47.2029 937.715 47.4606 936.595 47.4606C934.879 47.4606 933.511 46.8928 932.483 45.7572C931.455 44.6141 930.95 43.0937 930.95 41.196V41.0615ZM933.667 41.2969C933.667 42.5446 933.924 43.5233 934.438 44.233C934.961 44.9354 935.677 45.2865 936.595 45.2865C937.513 45.2865 938.229 44.9279 938.734 44.2106C939.248 43.4935 939.505 42.4438 939.505 41.0615C939.505 39.8363 939.239 38.8651 938.715 38.1478C938.192 37.4306 937.476 37.0719 936.567 37.0719C935.686 37.0719 934.979 37.4269 934.456 38.1366C933.933 38.8389 933.667 39.8923 933.667 41.2969ZM948.62 43.7848L951.181 35.1108H953.999L949.795 47.2365H947.426L943.195 35.1108H946.013L948.62 43.7848ZM960.883 47.4606C959.157 47.4606 957.762 46.9189 956.688 45.8356C955.614 44.7449 955.082 43.2954 955.082 41.4874V41.1512C955.082 39.9409 955.311 38.8613 955.779 37.9125C956.248 36.9562 956.908 36.2128 957.753 35.6824C958.588 35.1519 959.534 34.8867 960.571 34.8867C962.223 34.8867 963.499 35.4134 964.389 36.4668C965.298 37.5202 965.748 39.0107 965.748 40.9383V42.0365H957.826C957.909 43.0377 958.239 43.8297 958.827 44.4123C959.414 44.9951 960.158 45.2865 961.039 45.2865C962.288 45.2865 963.306 44.7822 964.087 43.7736L965.555 45.1744C965.069 45.8991 964.426 46.4632 963.609 46.8667C962.801 47.2626 961.893 47.4606 960.883 47.4606ZM960.562 37.0719C959.818 37.0719 959.212 37.3335 958.744 37.8564C958.295 38.3794 958.001 39.1078 957.872 40.0418H963.059V39.8401C963.003 38.9285 962.756 38.2412 962.333 37.778C961.902 37.3073 961.315 37.0719 960.562 37.0719ZM974.22 37.5987C973.862 37.539 973.495 37.509 973.11 37.509C971.861 37.509 971.026 37.9871 970.585 38.9435V47.2365H967.868V35.1108H970.466L970.53 36.4668C971.191 35.4134 972.1 34.8867 973.266 34.8867C973.66 34.8867 973.973 34.9389 974.23 35.0436L974.22 37.5987ZM978.47 35.1108L978.544 36.5117C979.443 35.4283 980.618 34.8867 982.078 34.8867C984.602 34.8867 985.887 36.3324 985.933 39.2237V47.2365H983.207V39.3806C983.207 38.6111 983.042 38.0432 982.702 37.6771C982.371 37.3036 981.83 37.1168 981.077 37.1168C979.976 37.1168 979.159 37.6136 978.626 38.6073V47.2365H975.9V35.1108H978.47ZM991.275 35.1108L991.349 36.3772C992.202 35.3835 993.368 34.8867 994.846 34.8867C996.471 34.8867 997.581 35.5067 998.178 36.7469C999.059 35.5067 1000.3 34.8867 1001.9 34.8867C1003.24 34.8867 1004.23 35.2565 1004.88 35.9962C1005.53 36.7357 1005.87 37.8266 1005.89 39.2685V47.2365H1003.16V39.347C1003.16 38.5774 1003 38.0133 1002.66 37.6547C1002.32 37.2961 1001.77 37.1168 1000.99 37.1168C1000.37 37.1168 999.858 37.2849 999.463 37.6211C999.078 37.9498 998.802 38.3832 998.646 38.9211L998.655 47.2365H995.938V39.2573C995.901 37.8303 995.167 37.1168 993.754 37.1168C992.661 37.1168 991.89 37.5614 991.431 38.4504V47.2365H988.705V35.1108H991.275ZM1014.02 47.4606C1012.3 47.4606 1010.89 46.9189 1009.82 45.8356C1008.75 44.7449 1008.22 43.2954 1008.22 41.4874V41.1512C1008.22 39.9409 1008.45 38.8613 1008.91 37.9125C1009.39 36.9562 1010.04 36.2128 1010.88 35.6824C1011.73 35.1519 1012.67 34.8867 1013.71 34.8867C1015.36 34.8867 1016.63 35.4134 1017.53 36.4668C1018.43 37.5202 1018.89 39.0107 1018.89 40.9383V42.0365H1010.96C1011.05 43.0377 1011.38 43.8297 1011.96 44.4123C1012.55 44.9951 1013.29 45.2865 1014.18 45.2865C1015.43 45.2865 1016.44 44.7822 1017.22 43.7736L1018.69 45.1744C1018.21 45.8991 1017.56 46.4632 1016.75 46.8667C1015.94 47.2626 1015.03 47.4606 1014.02 47.4606ZM1013.69 37.0719C1012.95 37.0719 1012.34 37.3335 1011.88 37.8564C1011.42 38.3794 1011.13 39.1078 1011.01 40.0418H1016.2V39.8401C1016.13 38.9285 1015.89 38.2412 1015.46 37.778C1015.04 37.3073 1014.45 37.0719 1013.69 37.0719ZM1023.53 35.1108L1023.61 36.5117C1024.5 35.4283 1025.69 34.8867 1027.14 34.8867C1029.66 34.8867 1030.95 36.3324 1030.99 39.2237V47.2365H1028.28V39.3806C1028.28 38.6111 1028.1 38.0432 1027.77 37.6771C1027.44 37.3036 1026.9 37.1168 1026.15 37.1168C1025.05 37.1168 1024.23 37.6136 1023.69 38.6073V47.2365H1020.97V35.1108H1023.53ZM1037.19 32.1634V35.1108H1039.33V37.128H1037.19V43.8969C1037.19 44.3601 1037.28 44.6963 1037.46 44.9054C1037.65 45.1072 1037.98 45.208 1038.45 45.208C1038.76 45.208 1039.08 45.1707 1039.4 45.096V47.2029C1038.78 47.3747 1038.18 47.4606 1037.6 47.4606C1035.52 47.4606 1034.47 46.3063 1034.47 43.9978V37.128H1032.47V35.1108H1034.47V32.1634H1037.19Z" fill="white"/>
<path d="M1096.18 5.50833C1096.18 2.46616 1098.65 0 1101.69 0H1279.72C1282.77 0 1285.23 2.46616 1285.23 5.50833V73.3584C1285.23 76.4005 1282.77 78.8667 1279.72 78.8667H1101.69C1098.65 78.8667 1096.18 76.4005 1096.18 73.3584V5.50833Z" fill="#2A365C"/>
<path d="M1133.16 47.237V30.92H1137.98C1139.42 30.92 1140.69 31.2412 1141.81 31.8838C1142.92 32.5262 1143.8 33.4378 1144.41 34.6182C1145.02 35.7987 1145.33 37.1509 1145.33 38.675V39.4931C1145.33 41.0396 1145.02 42.3994 1144.39 43.5724C1143.79 44.7454 1142.91 45.6494 1141.76 46.2844C1140.63 46.9194 1139.33 47.237 1137.85 47.237H1133.16ZM1135.99 33.2062V44.9732H1137.84C1139.33 44.9732 1140.46 44.51 1141.26 43.5836C1142.06 42.6497 1142.47 41.3124 1142.48 39.5716V38.6638C1142.48 36.8932 1142.1 35.5409 1141.33 34.607C1140.56 33.6731 1139.44 33.2062 1137.98 33.2062H1135.99ZM1150.78 47.237H1148.07V35.1113H1150.78V47.237ZM1147.89 31.9622C1147.89 31.5438 1148.02 31.1964 1148.29 30.92C1148.55 30.6436 1148.94 30.5053 1149.42 30.5053C1149.92 30.5053 1150.3 30.6436 1150.57 30.92C1150.84 31.1964 1150.97 31.5438 1150.97 31.9622C1150.97 32.3731 1150.84 32.7168 1150.57 32.9933C1150.3 33.2622 1149.92 33.3967 1149.42 33.3967C1148.94 33.3967 1148.55 33.2622 1148.29 32.9933C1148.02 32.7168 1147.89 32.3731 1147.89 31.9622ZM1160.56 43.9422C1160.56 43.4566 1160.36 43.0867 1159.95 42.8327C1159.56 42.5788 1158.9 42.3546 1157.97 42.1603C1157.04 41.9661 1156.26 41.7196 1155.65 41.4207C1154.29 40.7632 1153.61 39.8106 1153.61 38.563C1153.61 37.517 1154.05 36.6429 1154.93 35.9406C1155.81 35.2383 1156.93 34.8872 1158.29 34.8872C1159.74 34.8872 1160.91 35.2458 1161.8 35.963C1162.7 36.6803 1163.15 37.6104 1163.15 38.7535H1160.42C1160.42 38.2305 1160.23 37.7972 1159.83 37.4535C1159.45 37.1024 1158.93 36.9268 1158.29 36.9268C1157.69 36.9268 1157.21 37.065 1156.82 37.3414C1156.45 37.6179 1156.26 37.9877 1156.26 38.4509C1156.26 38.8693 1156.44 39.1943 1156.79 39.4259C1157.14 39.6575 1157.85 39.8928 1158.91 40.1319C1159.99 40.3635 1160.82 40.6437 1161.43 40.9724C1162.05 41.2937 1162.49 41.6822 1162.79 42.1379C1163.08 42.5936 1163.23 43.1465 1163.23 43.7965C1163.23 44.8873 1162.78 45.7727 1161.88 46.4525C1160.97 47.1249 1159.79 47.4611 1158.33 47.4611C1157.33 47.4611 1156.45 47.2818 1155.67 46.9232C1154.89 46.5646 1154.29 46.0715 1153.86 45.4439C1153.42 44.8163 1153.21 44.1402 1153.21 43.4155H1155.85C1155.89 44.058 1156.12 44.5549 1156.57 44.9059C1157.02 45.2497 1157.62 45.4215 1158.36 45.4215C1159.07 45.4215 1159.62 45.287 1160 45.018C1160.37 44.7416 1160.56 44.383 1160.56 43.9422ZM1169.02 32.1639V35.1113H1171.17V37.1285H1169.02V43.8974C1169.02 44.3606 1169.11 44.6968 1169.3 44.9059C1169.48 45.1077 1169.81 45.2085 1170.28 45.2085C1170.59 45.2085 1170.91 45.1712 1171.23 45.0965V47.2034C1170.61 47.3752 1170.01 47.4611 1169.44 47.4611C1167.35 47.4611 1166.3 46.3068 1166.3 43.9983V37.1285H1164.31V35.1113H1166.3V32.1639H1169.02ZM1179.6 37.5992C1179.25 37.5395 1178.87 37.5095 1178.49 37.5095C1177.25 37.5095 1176.4 37.9877 1175.97 38.944V47.237H1173.25V35.1113H1175.85L1175.91 36.4673C1176.58 35.4139 1177.48 34.8872 1178.65 34.8872C1179.04 34.8872 1179.36 34.9394 1179.61 35.0441L1179.6 37.5992ZM1184.22 47.237H1181.5V35.1113H1184.22V47.237ZM1181.33 31.9622C1181.33 31.5438 1181.46 31.1964 1181.73 30.92C1181.99 30.6436 1182.37 30.5053 1182.86 30.5053C1183.36 30.5053 1183.74 30.6436 1184.01 30.92C1184.28 31.1964 1184.41 31.5438 1184.41 31.9622C1184.41 32.3731 1184.28 32.7168 1184.01 32.9933C1183.74 33.2622 1183.36 33.3967 1182.86 33.3967C1182.37 33.3967 1181.99 33.2622 1181.73 32.9933C1181.46 32.7168 1181.33 32.3731 1181.33 31.9622ZM1197.83 41.2974C1197.83 43.1802 1197.41 44.6781 1196.57 45.7913C1195.73 46.9046 1194.58 47.4611 1193.11 47.4611C1191.68 47.4611 1190.58 46.9494 1189.78 45.9258L1189.66 47.237H1187.19V30.0234H1189.91V36.2768C1190.69 35.3504 1191.75 34.8872 1193.08 34.8872C1194.56 34.8872 1195.72 35.4363 1196.57 36.5346C1197.41 37.6328 1197.83 39.1681 1197.83 41.1405V41.2974ZM1195.11 41.062C1195.11 39.7471 1194.88 38.7609 1194.42 38.1035C1193.95 37.446 1193.28 37.1173 1192.4 37.1173C1191.22 37.1173 1190.39 37.6328 1189.91 38.6638V43.6621C1190.4 44.7155 1191.23 45.2422 1192.42 45.2422C1193.27 45.2422 1193.93 44.9247 1194.39 44.2897C1194.86 43.6545 1195.1 42.6945 1195.11 41.4094V41.062ZM1207.47 46.0491C1206.67 46.9905 1205.54 47.4611 1204.07 47.4611C1202.75 47.4611 1201.75 47.0763 1201.07 46.3068C1200.4 45.5373 1200.07 44.4241 1200.07 42.9672V35.1113H1202.78V42.9336C1202.78 44.4726 1203.42 45.2422 1204.7 45.2422C1206.02 45.2422 1206.91 44.7678 1207.38 43.819V35.1113H1210.11V47.237H1207.54L1207.47 46.0491ZM1216.28 32.1639V35.1113H1218.43V37.1285H1216.28V43.8974C1216.28 44.3606 1216.38 44.6968 1216.56 44.9059C1216.74 45.1077 1217.07 45.2085 1217.54 45.2085C1217.85 45.2085 1218.18 45.1712 1218.5 45.0965V47.2034C1217.87 47.3752 1217.28 47.4611 1216.71 47.4611C1214.61 47.4611 1213.57 46.3068 1213.57 43.9983V37.1285H1211.57V35.1113H1213.57V32.1639H1216.28ZM1223.42 47.237H1220.69V35.1113H1223.42V47.237ZM1220.53 31.9622C1220.53 31.5438 1220.65 31.1964 1220.92 30.92C1221.19 30.6436 1221.56 30.5053 1222.06 30.5053C1222.55 30.5053 1222.93 30.6436 1223.21 30.92C1223.47 31.1964 1223.6 31.5438 1223.6 31.9622C1223.6 32.3731 1223.47 32.7168 1223.21 32.9933C1222.93 33.2622 1222.55 33.3967 1222.06 33.3967C1221.56 33.3967 1221.19 33.2622 1220.92 32.9933C1220.65 32.7168 1220.53 32.3731 1220.53 31.9622ZM1225.88 41.062C1225.88 39.8742 1226.12 38.8057 1226.58 37.8569C1227.05 36.9007 1227.71 36.1684 1228.57 35.6604C1229.42 35.1449 1230.4 34.8872 1231.5 34.8872C1233.14 34.8872 1234.47 35.4139 1235.48 36.4673C1236.51 37.5207 1237.06 38.9178 1237.14 40.6587L1237.15 41.2974C1237.15 42.4928 1236.92 43.5612 1236.46 44.5026C1236 45.4439 1235.34 46.1723 1234.49 46.6879C1233.63 47.2034 1232.65 47.4611 1231.53 47.4611C1229.81 47.4611 1228.45 46.8934 1227.42 45.7577C1226.39 44.6146 1225.88 43.0943 1225.88 41.1965V41.062ZM1228.6 41.2974C1228.6 42.5451 1228.86 43.5238 1229.37 44.2336C1229.89 44.9359 1230.6 45.287 1231.53 45.287C1232.45 45.287 1233.16 44.9284 1233.67 44.2112C1234.18 43.494 1234.44 42.4443 1234.44 41.062C1234.44 39.8368 1234.17 38.8656 1233.64 38.1483C1233.12 37.4311 1232.41 37.0725 1231.5 37.0725C1230.61 37.0725 1229.91 37.4274 1229.38 38.1371C1228.86 38.8394 1228.6 39.8928 1228.6 41.2974ZM1241.98 35.1113L1242.06 36.5122C1242.96 35.4289 1244.13 34.8872 1245.59 34.8872C1248.12 34.8872 1249.4 36.3329 1249.44 39.2242V47.237H1246.72V39.3811C1246.72 38.6116 1246.55 38.0438 1246.22 37.6776C1245.89 37.3041 1245.35 37.1173 1244.59 37.1173C1243.49 37.1173 1242.67 37.6141 1242.14 38.6078V47.237H1239.42V35.1113H1241.98Z" fill="white"/>
<path d="M1310.36 5.50833C1310.36 2.46616 1312.83 0 1315.88 0H1493.91C1496.95 0 1499.42 2.46616 1499.42 5.50833V73.3584C1499.42 76.4005 1496.95 78.8667 1493.91 78.8667H1315.88C1312.83 78.8667 1310.36 76.4005 1310.36 73.3584V5.50833Z" fill="#2A365C"/>
<path d="M1360.09 40.3225H1353.52V47.237H1350.7V30.92H1361.06V33.2062H1353.52V38.0586H1360.09V40.3225ZM1365.94 47.237H1363.22V35.1113H1365.94V47.237ZM1363.05 31.9622C1363.05 31.5438 1363.18 31.1964 1363.45 30.92C1363.71 30.6436 1364.09 30.5053 1364.58 30.5053C1365.08 30.5053 1365.46 30.6436 1365.73 30.92C1366 31.1964 1366.13 31.5438 1366.13 31.9622C1366.13 32.3731 1366 32.7168 1365.73 32.9933C1365.46 33.2622 1365.08 33.3967 1364.58 33.3967C1364.09 33.3967 1363.71 33.2622 1363.45 32.9933C1363.18 32.7168 1363.05 32.3731 1363.05 31.9622ZM1371.44 35.1113L1371.52 36.5122C1372.41 35.4289 1373.6 34.8872 1375.05 34.8872C1377.57 34.8872 1378.86 36.3329 1378.9 39.2242V47.237H1376.19V39.3811C1376.19 38.6116 1376.01 38.0438 1375.68 37.6776C1375.35 37.3041 1374.81 37.1173 1374.06 37.1173C1372.95 37.1173 1372.14 37.6141 1371.6 38.6078V47.237H1368.88V35.1113H1371.44ZM1388.94 47.237C1388.82 47.0054 1388.71 46.6281 1388.62 46.1051C1387.75 47.0091 1386.7 47.4611 1385.44 47.4611C1384.22 47.4611 1383.23 47.1137 1382.46 46.4189C1381.68 45.7241 1381.3 44.8649 1381.3 43.8414C1381.3 42.5488 1381.79 41.5589 1382.74 40.8716C1383.7 40.1768 1385.07 39.8294 1386.86 39.8294H1388.53V39.0337C1388.53 38.4061 1388.36 37.9055 1388 37.5319C1387.65 37.1509 1387.12 36.9605 1386.4 36.9605C1385.78 36.9605 1385.27 37.1173 1384.88 37.4311C1384.48 37.7374 1384.28 38.1297 1384.28 38.6078H1381.56C1381.56 37.9429 1381.79 37.3228 1382.23 36.7475C1382.67 36.1648 1383.26 35.709 1384.02 35.3803C1384.78 35.0515 1385.62 34.8872 1386.56 34.8872C1387.98 34.8872 1389.11 35.2458 1389.95 35.963C1390.8 36.6727 1391.23 37.6739 1391.25 38.9664V44.4353C1391.25 45.5261 1391.4 46.3965 1391.72 47.0465V47.237H1388.94ZM1385.94 45.2758C1386.48 45.2758 1386.98 45.1451 1387.46 44.8835C1387.94 44.6221 1388.29 44.2709 1388.53 43.8302V41.5439H1387.06C1386.05 41.5439 1385.29 41.7196 1384.79 42.0707C1384.28 42.4219 1384.02 42.9186 1384.02 43.5612C1384.02 44.0842 1384.2 44.5026 1384.54 44.8163C1384.9 45.1226 1385.36 45.2758 1385.94 45.2758ZM1397 47.237H1394.28V30.0234H1397V47.237ZM1410.67 45.287C1411.35 45.287 1411.91 45.089 1412.36 44.693C1412.81 44.2971 1413.05 43.8078 1413.08 43.225H1415.65C1415.62 43.9795 1415.38 44.6856 1414.94 45.343C1414.5 45.993 1413.9 46.5085 1413.15 46.8896C1412.4 47.2706 1411.58 47.4611 1410.71 47.4611C1409.01 47.4611 1407.66 46.912 1406.67 45.8137C1405.68 44.7155 1405.18 43.1988 1405.18 41.2638V40.9836C1405.18 39.1383 1405.68 37.6627 1406.66 36.557C1407.64 35.4437 1408.99 34.8872 1410.69 34.8872C1412.13 34.8872 1413.31 35.3093 1414.21 36.1536C1415.12 36.9903 1415.6 38.0923 1415.65 39.4595H1413.08C1413.05 38.7647 1412.81 38.1931 1412.36 37.7449C1411.92 37.2966 1411.36 37.0725 1410.67 37.0725C1409.79 37.0725 1409.11 37.3938 1408.63 38.0362C1408.16 38.6713 1407.91 39.6388 1407.9 40.9388V41.3758C1407.9 42.6908 1408.14 43.6733 1408.61 44.3233C1409.08 44.9657 1409.77 45.287 1410.67 45.287ZM1420.59 47.237H1417.88V30.0234H1420.59V47.237ZM1426.47 47.237H1423.75V35.1113H1426.47V47.237ZM1423.58 31.9622C1423.58 31.5438 1423.71 31.1964 1423.97 30.92C1424.24 30.6436 1424.62 30.5053 1425.11 30.5053C1425.61 30.5053 1425.99 30.6436 1426.26 30.92C1426.52 31.1964 1426.66 31.5438 1426.66 31.9622C1426.66 32.3731 1426.52 32.7168 1426.26 32.9933C1425.99 33.2622 1425.61 33.3967 1425.11 33.3967C1424.62 33.3967 1424.24 33.2622 1423.97 32.9933C1423.71 32.7168 1423.58 32.3731 1423.58 31.9622ZM1434.79 47.4611C1433.06 47.4611 1431.66 46.9194 1430.58 45.8361C1429.52 44.7454 1428.98 43.296 1428.98 41.4879V41.1517C1428.98 39.9414 1429.21 38.8618 1429.67 37.913C1430.15 36.9567 1430.8 36.2133 1431.65 35.6829C1432.49 35.1524 1433.44 34.8872 1434.47 34.8872C1436.13 34.8872 1437.39 35.4139 1438.29 36.4673C1439.19 37.5207 1439.65 39.0112 1439.65 40.9388V42.037H1431.73C1431.81 43.0382 1432.14 43.8302 1432.72 44.4129C1433.32 44.9956 1434.05 45.287 1434.94 45.287C1436.19 45.287 1437.21 44.7827 1437.99 43.7741L1439.46 45.1749C1438.97 45.8997 1438.32 46.4637 1437.51 46.8672C1436.7 47.2631 1435.8 47.4611 1434.79 47.4611ZM1434.46 37.0725C1433.71 37.0725 1433.11 37.334 1432.65 37.8569C1432.19 38.3799 1431.89 39.1083 1431.77 40.0423H1436.96V39.8406C1436.9 38.929 1436.66 38.2417 1436.23 37.7785C1435.8 37.3078 1435.22 37.0725 1434.46 37.0725ZM1444.3 35.1113L1444.38 36.5122C1445.27 35.4289 1446.45 34.8872 1447.9 34.8872C1450.43 34.8872 1451.71 36.3329 1451.76 39.2242V47.237H1449.04V39.3811C1449.04 38.6116 1448.87 38.0438 1448.54 37.6776C1448.21 37.3041 1447.66 37.1173 1446.91 37.1173C1445.81 37.1173 1444.99 37.6141 1444.45 38.6078V47.237H1441.73V35.1113H1444.3ZM1457.95 32.1639V35.1113H1460.09V37.1285H1457.95V43.8974C1457.95 44.3606 1458.05 44.6968 1458.23 44.9059C1458.41 45.1077 1458.74 45.2085 1459.21 45.2085C1459.52 45.2085 1459.84 45.1712 1460.17 45.0965V47.2034C1459.54 47.3752 1458.94 47.4611 1458.37 47.4611C1456.28 47.4611 1455.24 46.3068 1455.24 43.9983V37.1285H1453.24V35.1113H1455.24V32.1639H1457.95Z" fill="white"/>
<path d="M762.443 172.131V273.475" stroke="#626A84" stroke-width="2"/>
<path d="M549.826 211.547V312.891" stroke="#626A84" stroke-width="2"/>
<path d="M974.258 210.203V311.547" stroke="#626A84" stroke-width="2"/>
<path d="M776.469 705.937C1110.05 705.937 1380.47 609.231 1380.47 489.938C1380.47 370.644 1110.05 273.938 776.469 273.938C442.889 273.938 172.469 370.644 172.469 489.938C172.469 609.231 442.889 705.937 776.469 705.937Z" fill="#28345A"/>
<path d="M1173.7 480.497V445.938H1183.89C1186.93 445.938 1189.63 446.618 1191.98 447.979C1194.35 449.34 1196.18 451.27 1197.48 453.77C1198.77 456.271 1199.42 459.135 1199.42 462.363V464.096C1199.42 467.371 1198.76 470.251 1197.45 472.736C1196.16 475.22 1194.3 477.135 1191.89 478.48C1189.49 479.825 1186.73 480.497 1183.62 480.497H1173.7ZM1179.69 450.78V475.703H1183.6C1186.74 475.703 1189.15 474.721 1190.82 472.759C1192.51 470.781 1193.37 467.949 1193.4 464.262V462.339C1193.4 458.589 1192.59 455.725 1190.96 453.747C1189.34 451.769 1186.98 450.78 1183.89 450.78H1179.69ZM1220.14 480.497C1219.88 480.007 1219.66 479.208 1219.47 478.1C1217.64 480.015 1215.4 480.972 1212.75 480.972C1210.18 480.972 1208.08 480.236 1206.45 478.764C1204.83 477.293 1204.01 475.473 1204.01 473.305C1204.01 470.568 1205.02 468.471 1207.04 467.015C1209.08 465.543 1211.98 464.808 1215.76 464.808H1219.29V463.122C1219.29 461.793 1218.91 460.733 1218.17 459.942C1217.43 459.135 1216.3 458.731 1214.79 458.731C1213.48 458.731 1212.4 459.064 1211.57 459.728C1210.73 460.377 1210.31 461.208 1210.31 462.22H1204.56C1204.56 460.812 1205.02 459.499 1205.95 458.28C1206.89 457.046 1208.15 456.081 1209.74 455.384C1211.35 454.688 1213.14 454.34 1215.12 454.34C1218.12 454.34 1220.51 455.1 1222.29 456.619C1224.08 458.122 1224.99 460.242 1225.04 462.98V474.563C1225.04 476.873 1225.36 478.717 1226.01 480.094V480.497H1220.14ZM1213.82 476.343C1214.95 476.343 1216.02 476.067 1217.01 475.513C1218.02 474.959 1218.78 474.215 1219.29 473.281V468.439H1216.18C1214.05 468.439 1212.45 468.811 1211.38 469.555C1210.3 470.299 1209.77 471.351 1209.77 472.712C1209.77 473.819 1210.13 474.706 1210.86 475.37C1211.6 476.019 1212.58 476.343 1213.82 476.343ZM1238.28 448.572V454.815H1242.8V459.087H1238.28V473.424C1238.28 474.405 1238.46 475.117 1238.84 475.56C1239.24 475.987 1239.93 476.201 1240.93 476.201C1241.59 476.201 1242.26 476.122 1242.94 475.964V480.426C1241.63 480.79 1240.37 480.972 1239.15 480.972C1234.73 480.972 1232.52 478.527 1232.52 473.638V459.087H1228.31V454.815H1232.52V448.572H1238.28ZM1262.52 480.497C1262.27 480.007 1262.05 479.208 1261.86 478.1C1260.03 480.015 1257.79 480.972 1255.13 480.972C1252.56 480.972 1250.46 480.236 1248.84 478.764C1247.21 477.293 1246.4 475.473 1246.4 473.305C1246.4 470.568 1247.41 468.471 1249.43 467.015C1251.46 465.543 1254.37 464.808 1258.14 464.808H1261.67V463.122C1261.67 461.793 1261.3 460.733 1260.56 459.942C1259.82 459.135 1258.69 458.731 1257.17 458.731C1255.86 458.731 1254.79 459.064 1253.95 459.728C1253.11 460.377 1252.7 461.208 1252.7 462.22H1246.94C1246.94 460.812 1247.41 459.499 1248.34 458.28C1249.27 457.046 1250.53 456.081 1252.13 455.384C1253.74 454.688 1255.53 454.34 1257.5 454.34C1260.5 454.34 1262.89 455.1 1264.68 456.619C1266.46 458.122 1267.38 460.242 1267.42 462.98V474.563C1267.42 476.873 1267.75 478.717 1268.4 480.094V480.497H1262.52ZM1256.2 476.343C1257.34 476.343 1258.4 476.067 1259.4 475.513C1260.41 474.959 1261.16 474.215 1261.67 473.281V468.439H1258.57C1256.44 468.439 1254.84 468.811 1253.76 469.555C1252.69 470.299 1252.15 471.351 1252.15 472.712C1252.15 473.819 1252.51 474.706 1253.24 475.37C1253.98 476.019 1254.97 476.343 1256.2 476.343ZM1154 518.484C1154 517.456 1153.58 516.673 1152.72 516.135C1151.89 515.597 1150.49 515.122 1148.53 514.71C1146.57 514.299 1144.94 513.777 1143.63 513.144C1140.76 511.751 1139.32 509.734 1139.32 507.091C1139.32 504.876 1140.25 503.024 1142.12 501.537C1143.98 500.049 1146.35 499.306 1149.22 499.306C1152.28 499.306 1154.75 500.065 1156.63 501.584C1158.52 503.103 1159.47 505.074 1159.47 507.495H1153.72C1153.72 506.387 1153.31 505.469 1152.49 504.741C1151.67 503.997 1150.58 503.626 1149.22 503.626C1147.96 503.626 1146.92 503.918 1146.12 504.504C1145.33 505.089 1144.93 505.873 1144.93 506.854C1144.93 507.74 1145.3 508.428 1146.05 508.919C1146.79 509.409 1148.29 509.908 1150.55 510.414C1152.8 510.905 1154.57 511.498 1155.85 512.194C1157.14 512.875 1158.1 513.698 1158.71 514.663C1159.35 515.628 1159.66 516.799 1159.66 518.176C1159.66 520.486 1158.71 522.361 1156.8 523.801C1154.89 525.225 1152.38 525.938 1149.29 525.938C1147.19 525.938 1145.32 525.558 1143.68 524.798C1142.04 524.039 1140.76 522.994 1139.84 521.665C1138.93 520.336 1138.47 518.904 1138.47 517.369H1144.06C1144.14 518.73 1144.65 519.782 1145.6 520.526C1146.54 521.254 1147.8 521.618 1149.36 521.618C1150.88 521.618 1152.03 521.333 1152.82 520.763C1153.61 520.178 1154 519.418 1154 518.484ZM1175.22 521.333C1176.65 521.333 1177.85 520.913 1178.79 520.075C1179.74 519.236 1180.25 518.2 1180.31 516.965H1185.73C1185.67 518.564 1185.17 520.059 1184.24 521.451C1183.31 522.828 1182.05 523.92 1180.45 524.727C1178.86 525.534 1177.14 525.938 1175.29 525.938C1171.71 525.938 1168.86 524.774 1166.77 522.448C1164.67 520.122 1163.62 516.91 1163.62 512.811V512.218C1163.62 508.31 1164.66 505.184 1166.74 502.842C1168.83 500.485 1171.67 499.306 1175.27 499.306C1178.31 499.306 1180.79 500.2 1182.7 501.988C1184.63 503.76 1185.64 506.094 1185.73 508.99H1180.31C1180.25 507.518 1179.74 506.308 1178.79 505.358C1177.86 504.409 1176.67 503.934 1175.22 503.934C1173.36 503.934 1171.92 504.615 1170.91 505.975C1169.9 507.321 1169.39 509.37 1169.37 512.123V513.049C1169.37 515.834 1169.87 517.915 1170.86 519.291C1171.87 520.652 1173.32 521.333 1175.22 521.333ZM1196.2 525.463H1190.44V499.78H1196.2V525.463ZM1190.09 493.111C1190.09 492.224 1190.37 491.489 1190.92 490.903C1191.49 490.318 1192.29 490.025 1193.33 490.025C1194.37 490.025 1195.18 490.318 1195.75 490.903C1196.32 491.489 1196.6 492.224 1196.6 493.111C1196.6 493.981 1196.32 494.709 1195.75 495.294C1195.18 495.864 1194.37 496.149 1193.33 496.149C1192.29 496.149 1191.49 495.864 1190.92 495.294C1190.37 494.709 1190.09 493.981 1190.09 493.111ZM1213.77 525.938C1210.12 525.938 1207.16 524.79 1204.89 522.496C1202.63 520.186 1201.5 517.116 1201.5 513.286V512.574C1201.5 510.011 1201.99 507.724 1202.97 505.714C1203.96 503.689 1205.35 502.114 1207.14 500.991C1208.92 499.867 1210.91 499.306 1213.1 499.306C1216.59 499.306 1219.29 500.421 1221.18 502.652C1223.09 504.884 1224.04 508.041 1224.04 512.123V514.449H1207.3C1207.48 516.57 1208.18 518.247 1209.41 519.481C1210.66 520.716 1212.22 521.333 1214.1 521.333C1216.74 521.333 1218.88 520.265 1220.54 518.128L1223.64 521.095C1222.62 522.63 1221.24 523.825 1219.52 524.68C1217.82 525.518 1215.9 525.938 1213.77 525.938ZM1213.08 503.934C1211.5 503.934 1210.22 504.488 1209.25 505.596C1208.28 506.703 1207.67 508.246 1207.4 510.224H1218.36V509.797C1218.24 507.866 1217.72 506.411 1216.82 505.43C1215.92 504.433 1214.68 503.934 1213.08 503.934ZM1233.87 499.78L1234.04 502.747C1235.93 500.453 1238.42 499.306 1241.5 499.306C1246.83 499.306 1249.55 502.368 1249.64 508.492V525.463H1243.89V508.824C1243.89 507.194 1243.53 505.991 1242.82 505.216C1242.13 504.425 1240.98 504.029 1239.39 504.029C1237.07 504.029 1235.34 505.081 1234.2 507.186V525.463H1228.45V499.78H1233.87ZM1266.05 521.333C1267.49 521.333 1268.68 520.913 1269.63 520.075C1270.57 519.236 1271.08 518.2 1271.14 516.965H1276.56C1276.5 518.564 1276 520.059 1275.07 521.451C1274.14 522.828 1272.88 523.92 1271.28 524.727C1269.69 525.534 1267.97 525.938 1266.12 525.938C1262.54 525.938 1259.7 524.774 1257.6 522.448C1255.5 520.122 1254.45 516.91 1254.45 512.811V512.218C1254.45 508.31 1255.49 505.184 1257.57 502.842C1259.66 500.485 1262.5 499.306 1266.1 499.306C1269.14 499.306 1271.62 500.2 1273.53 501.988C1275.46 503.76 1276.47 506.094 1276.56 508.99H1271.14C1271.08 507.518 1270.57 506.308 1269.63 505.358C1268.69 504.409 1267.5 503.934 1266.05 503.934C1264.19 503.934 1262.75 504.615 1261.74 505.975C1260.73 507.321 1260.22 509.37 1260.2 512.123V513.049C1260.2 515.834 1260.7 517.915 1261.69 519.291C1262.7 520.652 1264.16 521.333 1266.05 521.333ZM1292.19 525.938C1288.55 525.938 1285.59 524.79 1283.31 522.496C1281.06 520.186 1279.93 517.116 1279.93 513.286V512.574C1279.93 510.011 1280.42 507.724 1281.4 505.714C1282.39 503.689 1283.78 502.114 1285.56 500.991C1287.35 499.867 1289.34 499.306 1291.53 499.306C1295.02 499.306 1297.71 500.421 1299.6 502.652C1301.51 504.884 1302.47 508.041 1302.47 512.123V514.449H1285.73C1285.9 516.57 1286.6 518.247 1287.84 519.481C1289.08 520.716 1290.65 521.333 1292.52 521.333C1295.16 521.333 1297.31 520.265 1298.97 518.128L1302.07 521.095C1301.04 522.63 1299.67 523.825 1297.95 524.68C1296.24 525.518 1294.32 525.938 1292.19 525.938ZM1291.51 503.934C1289.93 503.934 1288.65 504.488 1287.67 505.596C1286.71 506.703 1286.09 508.246 1285.82 510.224H1296.79V509.797C1296.66 507.866 1296.15 506.411 1295.25 505.43C1294.35 504.433 1293.1 503.934 1291.51 503.934Z" fill="white"/>
<path d="M629.843 680.179C882.176 680.179 1086.73 593.04 1086.73 485.549C1086.73 378.057 882.176 290.918 629.843 290.918C377.509 290.918 172.953 378.057 172.953 485.549C172.953 593.04 377.509 680.179 629.843 680.179Z" fill="#34416A"/>
<path d="M495.783 623.071C674.078 623.071 818.614 561.5 818.614 485.547C818.614 409.595 674.078 348.023 495.783 348.023C317.488 348.023 172.951 409.595 172.951 485.547C172.951 561.5 317.488 623.071 495.783 623.071Z" fill="#3C4870"/>
<path d="M376.807 572.389C489.394 572.389 580.663 533.509 580.663 485.548C580.663 437.587 489.394 398.707 376.807 398.707C264.221 398.707 172.951 437.587 172.951 485.548C172.951 533.509 264.221 572.389 376.807 572.389Z" fill="#475582"/>
<path d="M376.62 493.713H363.476L360.726 501.614H354.596L367.414 467.676H372.705L385.547 501.614H379.394L376.62 493.713ZM365.131 488.957H374.966L370.048 474.878L365.131 488.957ZM395.638 501.614H389.766V467.676H395.638V501.614Z" fill="white"/>
<path d="M659.082 467.676L668.871 493.69L678.636 467.676H686.258V501.614H680.384V490.426L680.967 475.461L670.945 501.614H666.726L656.728 475.484L657.31 490.426V501.614H651.438V467.676H659.082ZM699.146 496.906H714.551V501.614H693.249V467.676H699.146V496.906Z" fill="white"/>
<path d="M882.739 477.284V443.346H892.762C895.764 443.346 898.417 444.013 900.739 445.35C903.061 446.687 904.87 448.582 906.146 451.038C907.412 453.493 908.055 456.306 908.055 459.476V461.177C908.055 464.394 907.412 467.223 906.118 469.663C904.842 472.102 903.016 473.982 900.638 475.303C898.279 476.624 895.571 477.284 892.505 477.284H882.739ZM888.641 448.1V472.576H892.487C895.58 472.576 897.949 471.613 899.592 469.686C901.253 467.743 902.107 464.961 902.134 461.341V459.453C902.134 455.77 901.336 452.957 899.729 451.014C898.132 449.072 895.81 448.1 892.762 448.1H888.641ZM924.486 477.751C920.896 477.751 917.977 476.624 915.747 474.371C913.526 472.102 912.415 469.087 912.415 465.327V464.627C912.415 462.11 912.892 459.864 913.856 457.89C914.838 455.902 916.206 454.355 917.959 453.252C919.712 452.149 921.677 451.597 923.834 451.597C927.267 451.597 929.91 452.692 931.783 454.884C933.655 457.075 934.601 460.176 934.601 464.185V466.469H918.124C918.29 468.551 918.987 470.199 920.199 471.411C921.42 472.623 922.962 473.228 924.807 473.228C927.404 473.228 929.516 472.18 931.15 470.082L934.206 472.995C933.196 474.503 931.838 475.676 930.149 476.515C928.469 477.339 926.578 477.751 924.486 477.751ZM923.806 456.142C922.255 456.142 920.997 456.686 920.034 457.774C919.088 458.862 918.482 460.377 918.216 462.32H929.002V461.901C928.882 460.004 928.377 458.574 927.487 457.611C926.606 456.632 925.376 456.142 923.806 456.142ZM950.123 477.751C946.534 477.751 943.615 476.624 941.384 474.371C939.163 472.102 938.052 469.087 938.052 465.327V464.627C938.052 462.11 938.53 459.864 939.493 457.89C940.476 455.902 941.843 454.355 943.596 453.252C945.35 452.149 947.305 451.597 949.471 451.597C952.904 451.597 955.548 452.692 957.42 454.884C959.293 457.075 960.238 460.176 960.238 464.185V466.469H943.762C943.927 468.551 944.625 470.199 945.836 471.411C947.057 472.623 948.599 473.228 950.444 473.228C953.042 473.228 955.153 472.18 956.787 470.082L959.844 472.995C958.834 474.503 957.475 475.676 955.786 476.515C954.107 477.339 952.216 477.751 950.123 477.751ZM949.444 456.142C947.892 456.142 946.635 456.686 945.671 457.774C944.725 458.862 944.12 460.377 943.853 462.32H954.639V461.901C954.52 460.004 954.015 458.574 953.124 457.611C952.243 456.632 951.013 456.142 949.444 456.142ZM986.738 464.93C986.738 468.831 985.848 471.947 984.077 474.278C982.305 476.593 979.928 477.751 976.944 477.751C974.181 477.751 971.969 476.842 970.308 475.023V486.982H964.644V452.064H969.858L970.097 454.628C971.758 452.607 974.016 451.597 976.88 451.597C979.955 451.597 982.36 452.747 984.104 455.047C985.857 457.331 986.738 460.51 986.738 464.58V464.93ZM981.093 464.441C981.093 461.923 980.588 459.927 979.579 458.45C978.587 456.974 977.155 456.236 975.292 456.236C972.979 456.236 971.318 457.192 970.308 459.103V470.292C971.327 472.25 973.007 473.228 975.338 473.228C977.137 473.228 978.551 472.506 979.56 471.061C980.579 469.6 981.093 467.393 981.093 464.441ZM850.07 521.233H865.473V525.941H844.168V492.003H850.07V521.233ZM880.554 526.408C876.965 526.408 874.046 525.281 871.816 523.028C869.594 520.759 868.484 517.744 868.484 513.984V513.284C868.484 510.767 868.961 508.521 869.925 506.547C870.907 504.559 872.275 503.012 874.028 501.909C875.781 500.806 877.736 500.254 879.902 500.254C883.335 500.254 885.979 501.349 887.842 503.541C889.724 505.732 890.67 508.832 890.67 512.842V515.126H874.193C874.358 517.208 875.056 518.856 876.267 520.068C877.488 521.28 879.03 521.885 880.875 521.885C883.473 521.885 885.584 520.837 887.218 518.739L890.275 521.652C889.265 523.16 887.907 524.333 886.218 525.172C884.538 525.996 882.647 526.408 880.554 526.408ZM879.875 504.799C878.324 504.799 877.066 505.343 876.102 506.431C875.157 507.519 874.551 509.034 874.285 510.977H885.07V510.558C884.951 508.661 884.446 507.231 883.556 506.268C882.675 505.289 881.445 504.799 879.875 504.799ZM910.148 525.941C909.9 525.46 909.689 524.675 909.496 523.587C907.697 525.468 905.494 526.408 902.878 526.408C900.344 526.408 898.279 525.685 896.682 524.24C895.075 522.795 894.277 521.008 894.277 518.879C894.277 516.191 895.277 514.131 897.26 512.701C899.27 511.256 902.125 510.534 905.843 510.534H909.312V508.878C909.312 507.574 908.945 506.532 908.22 505.755C907.486 504.963 906.375 504.566 904.888 504.566C903.594 504.566 902.538 504.893 901.712 505.546C900.895 506.183 900.482 506.998 900.482 507.993H894.819C894.819 506.61 895.278 505.32 896.186 504.124C897.104 502.911 898.352 501.964 899.922 501.28C901.501 500.596 903.263 500.254 905.209 500.254C908.165 500.254 910.515 501 912.268 502.491C914.03 503.968 914.93 506.051 914.976 508.739V520.114C914.976 522.383 915.297 524.193 915.931 525.546V525.941H910.148ZM903.924 521.862C905.044 521.862 906.1 521.591 907.073 521.046C908.073 520.503 908.817 519.772 909.312 518.856V514.1H906.256C904.163 514.1 902.584 514.466 901.528 515.196C900.473 515.926 899.94 516.959 899.94 518.296C899.94 519.384 900.299 520.254 901.014 520.907C901.749 521.544 902.713 521.862 903.924 521.862ZM934.114 505.895C933.362 505.771 932.591 505.708 931.801 505.708C929.204 505.708 927.46 506.703 926.56 508.692V525.941H920.896V500.721H926.303L926.441 503.541C927.808 501.349 929.708 500.254 932.132 500.254C932.939 500.254 933.61 500.362 934.133 500.58L934.114 505.895ZM942.945 500.721L943.11 503.634C944.973 501.381 947.415 500.254 950.444 500.254C955.704 500.254 958.375 503.261 958.467 509.275V525.941H952.803V509.602C952.803 508.001 952.454 506.82 951.757 506.058C951.068 505.281 949.939 504.893 948.37 504.893C946.093 504.893 944.386 505.926 943.266 507.993V525.941H937.603V500.721H942.945ZM970.28 525.941H964.617V500.721H970.28V525.941ZM964.268 494.17C964.268 493.3 964.543 492.577 965.085 492.003C965.645 491.427 966.434 491.14 967.462 491.14C968.49 491.14 969.28 491.427 969.84 492.003C970.4 492.577 970.675 493.3 970.675 494.17C970.675 495.025 970.4 495.74 969.84 496.315C969.28 496.874 968.49 497.154 967.462 497.154C966.434 497.154 965.645 496.874 965.085 496.315C964.543 495.74 964.268 495.025 964.268 494.17ZM981.727 500.721L981.892 503.634C983.755 501.381 986.197 500.254 989.226 500.254C994.486 500.254 997.157 503.261 997.249 509.275V525.941H991.585V509.602C991.585 508.001 991.236 506.82 990.539 506.058C989.85 505.281 988.721 504.893 987.152 504.893C984.875 504.893 983.168 505.926 982.048 507.993V525.941H976.384V500.721H981.727ZM1002.05 513.145C1002.05 509.228 1002.97 506.105 1004.79 503.774C1006.65 501.427 1009.1 500.254 1012.14 500.254C1015.01 500.254 1017.28 501.257 1018.92 503.261L1019.18 500.721H1024.28V525.172C1024.28 528.483 1023.25 531.094 1021.18 533.005C1019.13 534.916 1016.36 535.872 1012.86 535.872C1011.02 535.872 1009.2 535.484 1007.43 534.706C1005.68 533.945 1004.34 532.942 1003.43 531.699L1006.11 528.296C1007.84 530.363 1009.99 531.396 1012.53 531.396C1014.41 531.396 1015.9 530.883 1016.98 529.858C1018.08 528.848 1018.62 527.356 1018.62 525.382V523.68C1016.98 525.499 1014.81 526.408 1012.09 526.408C1009.14 526.408 1006.72 525.234 1004.85 522.888C1002.98 520.541 1002.05 517.293 1002.05 513.145ZM1007.69 513.634C1007.69 516.167 1008.2 518.164 1009.23 519.624C1010.26 521.07 1011.71 521.793 1013.54 521.793C1015.82 521.793 1017.52 520.813 1018.62 518.856V507.76C1017.54 505.849 1015.87 504.893 1013.59 504.893C1011.72 504.893 1010.26 505.631 1009.23 507.107C1008.2 508.584 1007.69 510.759 1007.69 513.634Z" fill="white"/>
</svg>
