<svg width="1813" height="1210" viewBox="0 0 1813 1210" fill="none" xmlns="http://www.w3.org/2000/svg">
<g opacity="0.7">
<g opacity="0.3">
<path d="M1562.65 975.058C1565.34 976.739 1569.72 976.739 1572.41 975.058C1575.1 973.378 1575.1 971.025 1572.41 969.344C1569.72 967.664 1565.34 967.664 1562.65 969.344C1559.96 971.025 1559.96 973.378 1562.65 975.058Z" fill="#42E8E0"/>
<path d="M1364.45 962.285C1367.15 963.965 1371.52 963.965 1374.21 962.285C1376.9 960.604 1376.9 958.251 1374.21 956.571C1371.52 954.89 1367.15 954.89 1364.45 956.571C1361.76 958.251 1361.76 960.604 1364.45 962.285Z" fill="#42E8E0"/>
<path d="M1275.62 1011.02C1278.31 1012.7 1282.69 1012.7 1285.38 1011.02C1288.07 1009.34 1288.07 1006.99 1285.38 1005.31C1282.69 1003.63 1278.31 1003.63 1275.62 1005.31C1272.93 1006.99 1272.93 1009.34 1275.62 1011.02Z" fill="#42E8E0"/>
<path d="M1674.36 804.313C1677.06 805.994 1681.43 805.994 1684.12 804.313C1686.81 802.633 1686.81 800.28 1684.12 798.599C1681.43 796.919 1677.06 796.919 1674.36 798.599C1671.67 800.28 1671.67 802.633 1674.36 804.313Z" fill="#42E8E0"/>
<path d="M1014.84 735.076L1014.5 734.74L829.097 627.856L830.106 627.184L1014.84 520.637L1015.18 520.973L1200.58 627.856L1199.57 628.528L1014.84 735.076ZM832.125 627.856L1014.84 733.059L1197.56 627.856L1014.84 522.653L832.125 627.856Z" fill="#42E8E0"/>
<path d="M1083.15 561.641L1082.47 560.297L1210.01 486.688V366.025H1210.34L1578.13 153.938L1578.8 155.283L1211.69 367.033V487.697L1211.01 488.033L1083.15 561.641Z" fill="#42E8E0"/>
<path d="M1248.7 345.186H1247.02V233.934L1247.36 233.597L1404.5 143.184L1405.17 144.528L1248.7 234.606V345.186Z" fill="#42E8E0"/>
<path d="M1107.38 575.422L1106.37 574.077L1231.21 502.149H1448.24L1638.36 392.577H1671.67H1672.01L1806.27 470.219L1805.6 471.563L1671.34 394.258H1638.7L1448.58 503.83H1231.54L1107.38 575.422Z" fill="#42E8E0"/>
<path d="M922.305 575.422L671.619 430.894H522.216L427.662 376.444V288.047H429.345V375.436L522.553 429.55H671.955H672.292L922.978 574.078L922.305 575.422Z" fill="#42E8E0"/>
<path d="M952.253 558.281L697.865 411.4V324.347L606.676 271.578L607.349 270.233L699.211 323.339V410.392L953.262 556.936L952.253 558.281Z" fill="#42E8E0"/>
<path d="M983.883 540.13L833.808 453.749V378.796L834.144 378.46L1093.92 228.555L1094.59 229.899L835.49 379.805V452.741L984.556 538.785L983.883 540.13Z" fill="#42E8E0"/>
<path d="M176.64 872.545H176.303L74.6826 814.062L75.3556 812.717L176.976 871.2H406.464L572.354 775.409H709.643L898.415 666.509L899.088 667.853L709.98 777.089H572.691L406.8 872.545H176.64Z" fill="#42E8E0"/>
<path d="M459.292 805.994L458.619 804.65L540.723 757.258H698.202L876.879 654.072L877.552 655.417L698.538 758.939H541.06L459.292 805.994Z" fill="#42E8E0"/>
<path d="M795.11 702.808L663.878 627.183H570.333L509.765 662.138L509.092 660.794L569.997 625.502H664.215H664.551L795.783 701.463L795.11 702.808Z" fill="#42E8E0"/>
<path d="M438.767 891.365L438.094 890.021L511.113 848.007V811.707H512.459V849.015H512.122L438.767 891.365Z" fill="#42E8E0"/>
<path d="M959.656 342.16H900.097V340.816H959.319L1065.65 279.308L1066.32 280.652L959.656 342.16Z" fill="#42E8E0"/>
<path d="M956.29 522.988H954.944V484.335L880.916 441.985V400.308H882.598V440.977L956.29 483.663V522.988Z" fill="#42E8E0"/>
<path d="M1368.83 959.934L1240.29 885.989V765.325L1100.98 684.995L1101.66 683.65L1241.97 764.317V884.981L1369.84 958.589L1368.83 959.934Z" fill="#42E8E0"/>
<path d="M1282.35 1010.01L1231.21 980.436V927.33L1181.74 898.761V757.594L1078.44 697.766L1079.45 696.422L1183.42 756.586V898.089L1232.89 926.658V979.763L1283.02 1008.67L1282.35 1010.01Z" fill="#42E8E0"/>
<path d="M1678.74 801.962L1638.7 778.77H1552.89L1398.44 689.701H1262.5H1262.16L1177.37 640.629L1178.37 639.284L1262.83 688.356H1398.78H1399.11L1553.23 777.426H1639.03H1639.37L1679.75 800.617L1678.74 801.962Z" fill="#42E8E0"/>
<path d="M1591.25 741.125L1537.41 710.203H1433.77V708.522H1537.75H1538.08L1591.92 739.781L1591.25 741.125Z" fill="#42E8E0"/>
<path d="M1567.36 972.705L1368.16 858.091V797.927L1136.65 664.491L1137.32 663.146L1369.5 796.919V857.083L1568.03 971.36L1567.36 972.705Z" fill="#42E8E0"/>
<path d="M1132.28 589.876L1131.27 588.531L1221.11 536.77H1472.47L1654.18 431.903L1654.85 433.248L1473.14 538.114H1221.78L1132.28 589.876Z" fill="#42E8E0"/>
<path d="M1335.52 568.028L1335.18 567.692L1283.7 538.114L1284.71 536.77L1335.85 566.347H1474.15V568.028H1335.52Z" fill="#42E8E0"/>
<path d="M963.693 1099.42H962.011V1015.39L761.798 899.77V807.003L762.134 806.667L951.579 697.431L952.589 698.775L763.48 807.675V898.761L963.693 1014.38V1099.42Z" fill="#42E8E0"/>
<path d="M1002.73 991.527L933.746 951.866H852.314V950.186H934.419L1003.74 990.183L1002.73 991.527Z" fill="#42E8E0"/>
<path d="M978.783 712.794L839.444 793.044L840.285 794.5L979.623 714.25L978.783 712.794Z" fill="#42E8E0"/>
<path d="M1129.58 995.897H1127.9V760.619L1048.83 714.908L1049.5 713.563L1129.58 759.947V995.897Z" fill="#42E8E0"/>
<path d="M1088.53 961.949H1086.85V879.602L1087.19 879.266L1128.24 855.738L1128.91 857.083L1088.53 880.274V961.949Z" fill="#42E8E0"/>
<path d="M1644.75 666.173L1519.91 594.245H1327.1L1263.17 557.273H1232.55L1154.15 602.648L1153.47 601.304L1232.21 555.929H1263.84L1327.44 592.565H1520.25L1520.59 592.901L1645.43 664.829L1644.75 666.173Z" fill="#42E8E0"/>
<path d="M843.903 822.127H793.429V820.446H843.566L1004.41 727.68L1005.42 729.024L843.903 822.127Z" fill="#42E8E0"/>
<path d="M929.708 860.781L929.035 859.437L1060.6 783.475V752.889L1021.91 730.37L1022.92 729.025L1062.29 751.881V784.484H1061.95L929.708 860.781Z" fill="#42E8E0"/>
<path d="M920.958 836.916L920.285 835.571L979.508 801.624H1028.97V803.305H979.844L920.958 836.916Z" fill="#42E8E0"/>
<path d="M922.305 909.853L921.296 908.509L981.864 873.553V845.32H982.537L1050.85 805.659V789.525H1052.53V806.667H1052.19L983.547 846.328V874.562H983.21L922.305 909.853Z" fill="#42E8E0"/>
<path d="M915.912 839.268C918.604 840.949 922.978 840.949 925.67 839.268C928.362 837.588 928.362 835.235 925.67 833.554C922.978 831.874 918.604 831.874 915.912 833.554C913.22 835.235 913.22 837.588 915.912 839.268Z" fill="#42E8E0"/>
<path d="M924.325 862.796C927.016 864.477 931.391 864.477 934.083 862.796C936.775 861.116 936.775 858.763 934.083 857.083C931.391 855.402 927.016 855.402 924.325 857.083C921.633 858.763 921.633 861.116 924.325 862.796Z" fill="#42E8E0"/>
<path d="M1065.31 849.016C1068.01 850.697 1072.38 850.697 1075.07 849.016C1077.76 847.336 1077.76 844.983 1075.07 843.302C1072.38 841.622 1068.01 841.622 1065.31 843.302C1062.62 844.983 1062.62 847.672 1065.31 849.016Z" fill="#42E8E0"/>
<path d="M1360.75 636.93C1363.45 638.611 1367.82 638.611 1370.51 636.93C1373.2 635.25 1373.2 632.897 1370.51 631.216C1367.82 629.536 1363.45 629.536 1360.75 631.216C1358.06 632.897 1358.06 635.586 1360.75 636.93Z" fill="#42E8E0"/>
<path d="M1551.21 679.616C1553.9 681.297 1558.27 681.297 1560.97 679.616C1563.66 677.935 1563.66 675.583 1560.97 673.902C1558.27 672.221 1553.9 672.221 1551.21 673.902C1548.52 675.247 1548.52 677.935 1551.21 679.616Z" fill="#42E8E0"/>
<path d="M1300.18 608.025C1302.88 609.706 1307.25 609.706 1309.94 608.025C1312.64 606.345 1312.64 603.992 1309.94 602.311C1307.25 600.631 1302.88 600.631 1300.18 602.311C1297.49 603.656 1297.49 606.345 1300.18 608.025Z" fill="#42E8E0"/>
<path d="M1278.65 655.081C1281.34 656.761 1285.72 656.761 1288.41 655.081C1291.1 653.4 1291.1 651.047 1288.41 649.367C1285.72 647.686 1281.34 647.686 1278.65 649.367C1275.96 651.047 1275.96 653.4 1278.65 655.081Z" fill="#42E8E0"/>
<path d="M957.974 1102.44C960.666 1104.12 965.04 1104.12 967.732 1102.44C970.424 1100.76 970.424 1098.41 967.732 1096.73C965.04 1095.05 960.666 1095.05 957.974 1096.73C955.282 1098.07 955.282 1100.76 957.974 1102.44Z" fill="#42E8E0"/>
<path d="M998.353 993.546C1001.04 995.226 1005.42 995.226 1008.11 993.546C1010.8 991.865 1010.8 989.512 1008.11 987.832C1005.42 986.151 1001.04 986.151 998.353 987.832C995.661 989.512 995.661 992.201 998.353 993.546Z" fill="#42E8E0"/>
<path d="M341.857 1092.36C344.549 1094.04 348.923 1094.04 351.615 1092.36C354.307 1090.68 354.307 1088.33 351.615 1086.65C348.923 1084.97 344.549 1084.97 341.857 1086.65C339.165 1088.33 339.165 1091.02 341.857 1092.36Z" fill="#42E8E0"/>
<path d="M582.449 1097.74C585.141 1099.42 589.515 1099.42 592.207 1097.74C594.899 1096.06 594.899 1093.71 592.207 1092.03C589.515 1090.34 585.141 1090.34 582.449 1092.03C579.757 1093.37 579.757 1096.06 582.449 1097.74Z" fill="#42E8E0"/>
<path d="M654.456 933.716C657.148 935.397 661.523 935.397 664.215 933.716C666.907 932.036 666.907 929.683 664.215 928.003C661.523 926.322 657.148 926.322 654.456 928.003C651.765 929.683 651.765 932.372 654.456 933.716Z" fill="#42E8E0"/>
<path d="M1469.1 570.045C1471.8 571.725 1476.17 571.725 1478.86 570.045C1481.55 568.364 1481.55 566.011 1478.86 564.331C1476.17 562.65 1471.8 562.65 1469.1 564.331C1466.41 565.675 1466.41 568.364 1469.1 570.045Z" fill="#42E8E0"/>
<path d="M1649.46 435.6C1652.16 437.281 1656.53 437.281 1659.22 435.6C1661.91 433.92 1661.91 431.567 1659.22 429.886C1656.53 428.206 1652.16 428.206 1649.46 429.886C1646.77 431.567 1646.77 433.92 1649.46 435.6Z" fill="#42E8E0"/>
<path d="M1801.22 473.917C1803.91 475.597 1808.29 475.597 1810.98 473.917C1813.67 472.236 1813.67 469.883 1810.98 468.203C1808.29 466.522 1803.91 466.522 1801.22 468.203C1798.19 469.547 1798.19 472.236 1801.22 473.917Z" fill="#42E8E0"/>
<path d="M1401.13 147.217C1403.82 148.897 1408.2 148.897 1410.89 147.217C1413.58 145.536 1413.58 143.183 1410.89 141.503C1408.2 139.822 1403.82 139.822 1401.13 141.503C1398.1 143.183 1398.1 145.536 1401.13 147.217Z" fill="#42E8E0"/>
<path d="M916.921 911.869C919.613 913.549 923.988 913.549 926.68 911.869C929.372 910.188 929.372 907.835 926.68 906.155C923.988 904.474 919.613 904.474 916.921 906.155C914.229 907.835 914.229 910.524 916.921 911.869Z" fill="#42E8E0"/>
<path d="M1082.81 964.975C1085.5 966.656 1089.88 966.656 1092.57 964.975C1095.26 963.295 1095.26 960.942 1092.57 959.261C1089.88 957.581 1085.5 957.581 1082.81 959.261C1080.12 960.606 1080.12 963.295 1082.81 964.975Z" fill="#42E8E0"/>
<path d="M1123.86 1000.27C1126.55 1001.95 1130.93 1001.95 1133.62 1000.27C1136.31 998.587 1136.31 996.234 1133.62 994.553C1130.93 992.873 1126.55 992.873 1123.86 994.553C1121.17 996.234 1121.17 998.923 1123.86 1000.27Z" fill="#42E8E0"/>
<path d="M1586.54 743.142C1589.23 744.823 1593.61 744.823 1596.3 743.142C1598.99 741.462 1598.99 739.109 1596.3 737.428C1593.61 735.748 1589.23 735.748 1586.54 737.428C1583.85 739.109 1583.85 741.798 1586.54 743.142Z" fill="#42E8E0"/>
<path d="M1462.04 795.911C1464.73 797.591 1469.1 797.591 1471.8 795.911C1474.49 794.23 1474.49 791.877 1471.8 790.197C1469.1 788.516 1464.73 788.516 1462.04 790.197C1459.35 791.877 1459.35 794.23 1462.04 795.911Z" fill="#42E8E0"/>
<path d="M1640.04 668.524C1642.74 670.205 1647.11 670.205 1649.8 668.524C1652.49 666.844 1652.49 664.491 1649.8 662.81C1647.11 661.13 1642.74 661.13 1640.04 662.81C1637.35 664.155 1637.35 666.844 1640.04 668.524Z" fill="#42E8E0"/>
<path d="M788.381 824.144C791.073 825.825 795.448 825.825 798.14 824.144C800.832 822.464 800.832 820.111 798.14 818.43C795.448 816.75 791.073 816.75 788.381 818.43C785.689 820.111 785.689 822.8 788.381 824.144Z" fill="#42E8E0"/>
<path d="M507.746 662.475C510.438 664.156 514.813 664.156 517.505 662.475C520.197 660.795 520.197 658.442 517.505 656.761C514.813 655.081 510.438 655.081 507.746 656.761C505.055 658.106 505.055 660.795 507.746 662.475Z" fill="#42E8E0"/>
<path d="M626.529 561.977C629.221 563.658 633.595 563.658 636.287 561.977C638.979 560.297 638.979 557.944 636.287 556.263C633.595 554.583 629.221 554.583 626.529 556.263C623.837 557.944 623.837 560.297 626.529 561.977Z" fill="#42E8E0"/>
<path d="M693.828 596.933C696.519 598.614 700.894 598.614 703.586 596.933C706.278 595.253 706.278 592.9 703.586 591.219C700.894 589.539 696.519 589.539 693.828 591.219C691.136 592.564 691.136 595.253 693.828 596.933Z" fill="#42E8E0"/>
<path d="M758.433 542.483C761.125 544.164 765.5 544.164 768.192 542.483C770.883 540.802 770.883 538.45 768.192 536.769C765.5 535.089 761.125 535.089 758.433 536.769C755.405 538.114 755.405 540.802 758.433 542.483Z" fill="#42E8E0"/>
<path d="M876.879 403.333C879.571 405.013 883.946 405.013 886.637 403.333C889.329 401.652 889.329 399.299 886.637 397.619C883.946 395.938 879.571 395.938 876.879 397.619C874.187 398.963 874.187 401.652 876.879 403.333Z" fill="#42E8E0"/>
<path d="M422.278 291.743C424.97 293.423 429.344 293.423 432.036 291.743C434.728 290.062 434.728 287.71 432.036 286.029C429.344 284.348 424.97 284.348 422.278 286.029C419.25 287.71 419.25 290.398 422.278 291.743Z" fill="#42E8E0"/>
<path d="M602.301 273.929C604.993 275.61 609.368 275.61 612.059 273.929C614.751 272.249 614.751 269.896 612.059 268.215C609.368 266.535 604.993 266.535 602.301 268.215C599.609 269.896 599.609 272.249 602.301 273.929Z" fill="#42E8E0"/>
<path d="M959.656 412.744C962.348 414.424 966.722 414.424 969.414 412.744C972.106 411.063 972.106 408.711 969.414 407.03C966.722 405.349 962.348 405.349 959.656 407.03C956.964 408.711 956.964 411.063 959.656 412.744Z" fill="#42E8E0"/>
<path d="M968.741 361.991C971.433 363.672 975.807 363.672 978.499 361.991C981.191 360.31 981.191 357.958 978.499 356.277C975.807 354.596 971.433 354.596 968.741 356.277C966.049 357.958 966.049 360.646 968.741 361.991Z" fill="#42E8E0"/>
<path d="M1111.41 302.164C1114.11 303.844 1118.48 303.844 1121.17 302.164C1123.86 300.483 1123.86 298.13 1121.17 296.45C1118.48 294.769 1114.11 294.769 1111.41 296.45C1108.72 298.13 1108.72 300.819 1111.41 302.164Z" fill="#42E8E0"/>
<path d="M1060.94 283.006C1063.63 284.686 1068.01 284.686 1070.7 283.006C1073.39 281.325 1073.39 278.972 1070.7 277.292C1068.01 275.611 1063.63 275.611 1060.94 277.292C1058.25 278.972 1058.25 281.325 1060.94 283.006Z" fill="#42E8E0"/>
<path d="M1573.75 157.3C1576.45 158.98 1580.82 158.98 1583.51 157.3C1586.2 155.619 1586.2 153.266 1583.51 151.586C1580.82 149.905 1576.45 149.905 1573.75 151.586C1571.06 153.266 1571.06 155.619 1573.75 157.3Z" fill="#42E8E0"/>
<path d="M1089.54 232.253C1092.23 233.933 1096.61 233.933 1099.3 232.253C1101.99 230.572 1101.99 228.219 1099.3 226.539C1096.61 224.858 1092.23 224.858 1089.54 226.539C1086.85 228.219 1086.85 230.572 1089.54 232.253Z" fill="#42E8E0"/>
<path d="M786.7 654.408C789.392 656.088 793.766 656.088 796.458 654.408C799.15 652.727 799.15 650.375 796.458 648.694C793.766 647.013 789.392 647.013 786.7 648.694C784.008 650.375 784.008 652.727 786.7 654.408Z" fill="#42E8E0"/>
<path d="M1118.48 486.352C1121.17 488.033 1125.55 488.033 1128.24 486.352C1130.93 484.672 1130.93 482.319 1128.24 480.638C1125.55 478.958 1121.17 478.958 1118.48 480.638C1115.79 482.319 1115.79 484.672 1118.48 486.352Z" fill="#42E8E0"/>
<path d="M1404.5 387.536C1407.19 389.217 1411.56 389.217 1414.26 387.536C1416.95 385.855 1416.95 383.503 1414.26 381.822C1411.56 380.141 1407.19 380.141 1404.5 381.822C1401.81 383.166 1401.81 385.855 1404.5 387.536Z" fill="#42E8E0"/>
<path d="M1613.8 279.309C1616.49 280.99 1620.86 280.99 1623.55 279.309C1626.25 277.629 1626.25 275.276 1623.55 273.595C1620.86 271.915 1616.49 271.915 1613.8 273.595C1611.1 275.276 1611.1 277.965 1613.8 279.309Z" fill="#42E8E0"/>
<path d="M1548.52 261.831C1551.21 263.511 1555.58 263.511 1558.28 261.831C1560.97 260.15 1560.97 257.797 1558.28 256.117C1555.58 254.436 1551.21 254.436 1548.52 256.117C1545.83 257.797 1545.83 260.486 1548.52 261.831Z" fill="#42E8E0"/>
<path d="M668.926 661.466C671.618 663.147 675.993 663.147 678.684 661.466C681.376 659.786 681.376 657.433 678.684 655.753C675.993 654.072 671.618 654.072 668.926 655.753C666.234 657.433 666.234 659.786 668.926 661.466Z" fill="#42E8E0"/>
<path d="M433.383 893.72C436.075 895.401 440.45 895.401 443.142 893.72C445.833 892.04 445.833 889.687 443.142 888.007C440.45 886.326 436.075 886.326 433.383 888.007C430.691 889.687 430.691 892.04 433.383 893.72Z" fill="#42E8E0"/>
<path d="M338.828 645.67C341.519 647.35 345.894 647.35 348.586 645.67C351.278 643.989 351.278 641.636 348.586 639.956C345.894 638.275 341.519 638.275 338.828 639.956C336.136 641.636 336.136 643.989 338.828 645.67Z" fill="#42E8E0"/>
<path d="M453.909 806.666C456.601 808.346 460.975 808.346 463.667 806.666C466.359 804.985 466.359 802.632 463.667 800.952C460.975 799.271 456.601 799.271 453.909 800.952C451.217 802.632 451.217 805.321 453.909 806.666Z" fill="#42E8E0"/>
<path d="M70.307 816.077C72.999 817.757 77.3734 817.757 80.0653 816.077C82.7572 814.396 82.7572 812.043 80.0653 810.363C77.3734 808.682 72.999 808.682 70.307 810.363C67.6151 812.043 67.6151 814.396 70.307 816.077Z" fill="#42E8E0"/>
<path d="M834.818 796.583C837.51 798.263 841.884 798.263 844.576 796.583C847.268 794.902 847.268 792.549 844.576 790.869C841.884 789.188 837.51 789.188 834.818 790.869C832.126 792.549 832.126 794.902 834.818 796.583Z" fill="#42E8E0"/>
<path d="M1128.09 812.271L1069.79 845.862L1070.63 847.318L1128.93 813.727L1128.09 812.271Z" fill="#42E8E0"/>
<path d="M853.996 668.86H820.347L790.399 651.718L791.072 650.374L820.684 667.516H853.996V668.86Z" fill="#42E8E0"/>
<path d="M631.912 559.962L631.239 558.617L713.007 511.226H768.528V511.562L840.537 552.903H886.3V554.584H840.201L768.192 512.906H713.343L631.912 559.962Z" fill="#42E8E0"/>
<path d="M844.911 620.125L763.144 573.069H736.225L700.556 593.908L699.547 592.564L735.888 571.389H763.48L763.817 571.725L845.584 618.781L844.911 620.125Z" fill="#42E8E0"/>
<path d="M823.713 606.681H822.03V574.414L762.808 540.131L763.481 538.786L823.713 573.406V606.681Z" fill="#42E8E0"/>
<path d="M1297.16 674.575H1236.25V672.894H1296.48L1365.13 633.569L1365.8 634.914L1297.16 674.575Z" fill="#42E8E0"/>
<path d="M347.24 1090.34L346.567 1089L555.192 968.672V892.039L555.529 891.703L922.305 680.289L922.978 681.634L556.875 893.047V969.345L556.538 969.681L347.24 1090.34Z" fill="#42E8E0"/>
<path d="M1304.9 605.672L1253.08 575.758H1232.21L1204.62 591.555H1172.99V590.211H1204.28L1231.88 574.077H1253.41L1253.75 574.413L1305.57 604.327L1304.9 605.672Z" fill="#42E8E0"/>
<path d="M1061.95 549.204L1060.94 547.86L1159.53 491.057V426.86L1047.82 362.327V338.127L1048.15 337.791L1115.79 298.802L1116.8 300.146L1049.16 339.135V361.318L1161.21 425.852V492.066L1160.54 492.402L1061.95 549.204Z" fill="#42E8E0"/>
<path d="M1085.5 535.425H1083.82V505.511L1084.16 505.175L1123.19 482.991L1123.86 484.336L1085.5 506.519V535.425Z" fill="#42E8E0"/>
<path d="M1287.74 503.831L1286.73 502.486L1520.59 367.369V332.414L1520.92 332.078L1618.17 275.947L1618.84 277.292L1522.27 333.086V368.378L1521.93 368.714L1287.74 503.831Z" fill="#42E8E0"/>
<path d="M1373.54 405.686H1371.86V363L1372.2 362.664L1552.89 258.47L1553.9 259.814L1373.54 363.672V405.686Z" fill="#42E8E0"/>
<path d="M1231.2 503.157L1230.2 501.813L1347.97 433.919V419.13L1348.3 418.793L1409.21 383.838L1409.88 385.182L1349.65 420.138V434.927H1349.31L1231.2 503.157Z" fill="#42E8E0"/>
<path d="M659.841 931.7L658.831 930.355L728.485 890.358V845.656L762.134 826.161L762.807 827.506L729.831 846.328V891.367H729.494L659.841 931.7Z" fill="#42E8E0"/>
<path d="M767.854 687.01H721.419H721.082L673.637 659.449L674.31 658.104L721.755 685.33H767.854V687.01Z" fill="#42E8E0"/>
<path d="M514.476 742.133H514.14V741.797L345.221 644.325L345.894 642.98L514.476 740.453H727.476V742.133H514.476Z" fill="#42E8E0"/>
<path d="M1035.03 533.072H1033.35V450.389L965.375 411.4L966.048 410.056L1035.03 449.717V533.072Z" fill="#42E8E0"/>
<path d="M1034.69 484.673L1033.68 483.328L1083.48 454.759V423.5L973.451 359.975L974.124 358.631L1084.83 422.492V455.767H1084.49L1034.69 484.673Z" fill="#42E8E0"/>
<path d="M1466.75 793.894L1342.58 721.967H1236.59V720.622H1342.92L1467.42 792.55L1466.75 793.894Z" fill="#42E8E0"/>
<path d="M1480.88 677.264L1446.9 657.769H1326.1V656.089H1447.23L1447.57 656.425L1481.22 675.919H1555.92V677.264H1480.88Z" fill="#42E8E0"/>
<path d="M1282.69 652.727L1226.49 620.124H1184.09V618.443H1226.83L1227.17 618.779L1283.7 651.382L1282.69 652.727Z" fill="#42E8E0"/>
<path d="M587.832 1095.39L586.822 1094.04L669.936 1046.31V974.387L670.272 974.051L781.651 909.854L782.661 911.198L671.618 975.395V1046.99L671.282 1047.32L587.832 1095.39Z" fill="#42E8E0"/>
</g>
<path d="M1040.33 493.561C1039.19 493.561 1037.49 492.994 1035.79 492.427L1007.97 476.55L1009.1 474.282L1036.92 490.159C1038.62 491.293 1040.33 491.293 1041.46 490.726C1042.6 490.159 1043.17 488.458 1043.17 486.19V479.385C1043.17 476.55 1044.3 473.715 1046 472.58C1048.27 471.446 1050.55 471.446 1053.38 473.147L1059.06 476.55L1057.93 478.818L1052.25 475.416C1050.55 474.282 1048.84 474.282 1047.71 474.849C1046.57 475.416 1046 477.117 1046 479.385V486.19C1046 489.025 1044.87 491.86 1043.17 492.994C1042.6 493.561 1041.46 493.561 1040.33 493.561Z" fill="#42E8E0"/>
<path d="M1029.54 499.798C1028.4 499.798 1026.7 499.231 1025 498.664L997.181 482.787L998.316 480.519L1026.13 496.396C1027.84 497.53 1029.54 497.53 1030.67 496.963C1031.81 496.396 1032.38 494.695 1032.38 492.427V485.622C1032.38 482.787 1033.51 479.952 1035.22 478.818C1037.49 477.684 1039.76 477.684 1042.6 479.385L1048.27 482.787L1047.14 485.055L1041.46 481.653C1039.76 480.519 1038.05 480.519 1036.92 481.086C1035.78 481.653 1035.22 483.354 1035.22 485.622V492.427C1035.22 495.262 1034.08 498.097 1032.38 499.231C1031.81 499.799 1030.67 499.798 1029.54 499.798Z" fill="#42E8E0"/>
<path d="M1018.76 506.037C1017.62 506.037 1015.92 505.47 1014.21 504.903L986.965 489.025L988.1 486.757L1015.92 502.634C1017.62 503.768 1019.32 503.769 1020.46 503.201C1021.59 502.634 1022.16 500.933 1022.16 498.665V491.861C1022.16 489.025 1023.3 486.19 1025 485.056C1027.27 483.922 1029.54 483.922 1032.38 485.623L1038.06 489.025L1036.92 491.293L1031.24 487.891C1029.54 486.757 1027.84 486.757 1026.7 487.324C1025.57 487.891 1025 489.592 1025 491.861V498.665C1025 501.5 1023.86 504.336 1022.16 505.47C1021.03 506.037 1019.89 506.037 1018.76 506.037Z" fill="#42E8E0"/>
<path d="M1007.97 512.274C1006.83 512.274 1005.13 511.707 1003.43 511.14L975.609 495.263L976.745 492.994L1004.56 508.872C1006.26 510.006 1007.97 510.006 1009.1 509.439C1010.24 508.872 1010.81 507.171 1010.81 504.903V498.098C1010.81 495.263 1011.94 492.427 1013.64 491.293C1015.92 490.159 1018.19 490.159 1021.02 491.86L1026.7 495.263L1025.57 497.531L1019.89 494.129C1018.19 492.994 1016.48 492.995 1015.35 493.562C1014.21 494.129 1013.64 495.83 1013.64 498.098V504.903C1013.64 507.738 1012.51 510.573 1010.81 511.707C1010.24 512.274 1009.1 512.274 1007.97 512.274Z" fill="#42E8E0"/>
<path d="M997.181 518.51C996.045 518.51 994.342 517.943 992.639 517.376L964.822 501.499L965.958 499.231L993.775 515.108C995.478 516.242 997.181 516.242 998.316 515.675C999.451 515.108 1000.02 513.407 1000.02 511.139V504.334C1000.02 501.499 1001.15 498.664 1002.86 497.53C1005.13 496.396 1007.4 496.396 1010.24 498.097L1015.91 501.499L1014.78 503.767L1009.1 500.365C1007.4 499.231 1005.7 499.231 1004.56 499.798C1003.43 500.365 1002.86 502.066 1002.86 504.334V511.139C1002.86 513.974 1001.72 516.809 1000.02 517.943C999.451 518.511 998.316 518.51 997.181 518.51Z" fill="#42E8E0"/>
<path d="M986.964 524.748C985.828 524.748 984.125 524.181 982.422 523.614L954.605 507.736L955.741 505.468L983.558 521.345C985.261 522.479 986.964 522.48 988.099 521.912C989.235 521.345 989.802 519.644 989.802 517.376V510.572C989.802 507.736 990.938 504.901 992.641 503.767C994.911 502.633 997.182 502.633 1000.02 504.334L1005.7 507.736L1004.56 510.004L998.885 506.602C997.182 505.468 995.479 505.468 994.344 506.035C993.208 506.602 992.641 508.303 992.641 510.572V517.376C992.641 520.211 991.505 523.047 989.802 524.181C988.667 524.181 987.532 524.748 986.964 524.748Z" fill="#42E8E0"/>
<path d="M976.176 530.985C975.04 530.985 973.337 530.418 971.634 529.851L943.817 513.974L944.953 511.705L972.77 527.583C974.473 528.717 976.176 528.717 977.311 528.15C978.446 527.583 979.014 525.882 979.014 523.613V516.809C979.014 513.974 980.15 511.138 981.853 510.004C984.123 508.87 986.394 508.87 989.233 510.571L994.909 513.974L993.774 516.242L988.097 512.839C986.394 511.705 984.691 511.705 983.556 512.272C982.42 512.84 981.853 514.541 981.853 516.809V523.613C981.853 526.449 980.717 529.284 979.014 530.418C977.879 530.418 976.743 530.985 976.176 530.985Z" fill="#42E8E0"/>
<path d="M965.392 537.225C964.256 537.225 962.553 536.658 960.85 536.091L933.033 520.214L934.169 517.946L961.986 533.823C963.689 534.957 965.392 534.957 966.527 534.39C967.663 533.823 968.23 532.122 968.23 529.854V523.049C968.23 520.214 969.366 517.379 971.069 516.245C973.34 515.11 975.61 515.11 978.449 516.812L984.126 520.214L982.99 522.482L977.313 519.08C975.61 517.946 973.907 517.946 972.772 518.513C971.636 519.08 971.069 520.781 971.069 523.049V529.854C971.069 532.689 969.933 535.524 968.23 536.658C967.095 536.658 966.527 537.225 965.392 537.225Z" fill="#42E8E0"/>
<path d="M954.605 542.895C953.47 542.895 951.767 542.328 950.064 541.761L922.247 525.884L923.382 523.616L951.199 539.493C952.903 540.627 954.606 540.627 955.741 540.06C956.876 539.493 957.444 537.792 957.444 535.523V528.719C957.444 525.884 958.579 523.049 960.282 521.914C962.553 520.78 964.824 520.78 967.662 522.481L973.339 525.884L972.204 528.152L966.527 524.75C964.824 523.616 963.121 523.616 961.986 524.183C960.85 524.75 960.282 526.451 960.282 528.719V535.523C960.282 538.359 959.147 541.194 957.444 542.328C956.309 542.895 955.741 542.895 954.605 542.895Z" fill="#42E8E0"/>
<path d="M943.819 549.133C942.684 549.133 940.981 548.566 939.278 547.998L911.461 532.121L912.596 529.853L940.413 545.73C942.116 546.864 943.819 546.864 944.955 546.297C946.09 545.73 946.658 544.029 946.658 541.761V534.956C946.658 532.121 947.793 529.286 949.496 528.152C951.767 527.018 954.038 527.018 956.876 528.719L962.553 532.121L961.418 534.389L955.741 530.987C954.038 529.853 952.335 529.853 951.199 530.42C950.064 530.987 949.496 532.688 949.496 534.956V541.761C949.496 544.596 948.361 547.431 946.658 548.566C945.522 549.133 944.955 549.133 943.819 549.133Z" fill="#42E8E0"/>
<path d="M933.033 555.369C931.898 555.369 930.195 554.802 928.492 554.235L900.675 538.357L901.81 536.089L929.627 551.966C931.33 553.101 933.033 553.1 934.169 552.533C935.304 551.966 935.872 550.265 935.872 547.997V541.193C935.872 538.357 937.007 535.522 938.71 534.388C940.981 533.254 943.252 533.254 946.09 534.955L951.767 538.357L950.632 540.626L944.955 537.223C943.252 536.089 941.548 536.089 940.413 536.656C939.278 537.223 938.71 538.924 938.71 541.193V547.997C938.71 550.832 937.575 553.668 935.872 554.802C935.304 555.369 934.169 555.369 933.033 555.369Z" fill="#42E8E0"/>
<path d="M922.245 561.606C921.11 561.606 919.407 561.039 917.704 560.472L889.887 544.595L891.022 542.326L918.839 558.204C920.542 559.338 922.245 559.338 923.38 558.771C924.516 558.204 925.084 556.503 925.084 554.234V547.43C925.084 544.595 926.219 541.759 927.922 540.625C930.193 539.491 932.464 539.491 935.302 541.192L940.979 544.595L939.844 546.863L934.167 543.461C932.464 542.327 930.76 542.326 929.625 542.894C928.49 543.461 927.922 545.162 927.922 547.43V554.234C927.922 557.07 926.787 559.905 925.084 561.039C924.516 561.606 923.381 561.606 922.245 561.606Z" fill="#42E8E0"/>
<path d="M911.461 567.843C910.326 567.843 908.622 567.276 906.919 566.709L879.103 550.832L880.238 548.564L908.055 564.441C909.758 565.575 911.461 565.575 912.596 565.008C913.732 564.441 914.299 562.74 914.299 560.472V553.667C914.299 550.832 915.435 547.997 917.138 546.863C919.409 545.729 921.679 545.729 924.518 547.43L930.195 550.832L929.059 553.1L923.382 549.698C921.679 548.564 919.976 548.564 918.841 549.131C917.706 549.698 917.138 551.399 917.138 553.667V560.472C917.138 563.307 916.003 566.142 914.299 567.276C913.732 567.276 912.596 567.843 911.461 567.843Z" fill="#42E8E0"/>
<path d="M900.674 574.082C899.538 574.082 897.835 573.515 896.132 572.948L868.315 557.07L869.451 554.802L897.268 570.679C898.971 571.813 900.674 571.813 901.809 571.246C902.944 570.679 903.512 568.978 903.512 566.71V559.905C903.512 557.07 904.647 554.235 906.35 553.101C908.621 551.967 910.892 551.967 913.73 553.668L919.407 557.07L918.272 559.338L912.595 555.936C910.892 554.802 909.189 554.802 908.054 555.369C906.918 555.936 906.35 557.637 906.35 559.905V566.71C906.35 569.545 905.215 572.38 903.512 573.515C902.944 573.515 901.809 574.082 900.674 574.082Z" fill="#42E8E0"/>
<path d="M889.888 580.319C888.753 580.319 887.05 579.752 885.347 579.185L857.53 563.308L858.666 561.039L886.482 576.917C888.185 578.051 889.888 578.051 891.024 577.484C892.159 576.917 892.727 575.216 892.727 572.948V566.143C892.727 563.308 893.862 560.472 895.565 559.338C897.836 558.204 900.107 558.204 902.945 559.905L908.622 563.308L907.487 565.576L901.81 562.173C900.107 561.039 898.404 561.039 897.268 561.606C896.133 562.174 895.565 563.875 895.565 566.143V572.948C895.565 575.783 894.43 578.618 892.727 579.752C892.159 579.752 891.024 580.319 889.888 580.319Z" fill="#42E8E0"/>
<path d="M879.669 586.556C878.534 586.556 876.83 585.989 875.127 585.422L847.311 569.545L848.446 567.277L876.263 583.154C877.966 584.288 879.669 584.288 880.804 583.721C881.94 583.154 882.507 581.453 882.507 579.185V572.38C882.507 569.545 883.643 566.71 885.346 565.576C887.617 564.441 889.887 564.441 892.726 566.143L898.403 569.545L897.267 571.813L891.59 568.411C889.887 567.277 888.184 567.277 887.049 567.844C885.913 568.411 885.346 570.112 885.346 572.38V579.185C885.346 582.02 884.21 584.855 882.507 585.989C881.372 585.989 880.237 586.556 879.669 586.556Z" fill="#42E8E0"/>
<path d="M868.884 592.228C867.748 592.228 866.045 591.661 864.342 591.094L836.525 575.217L837.661 572.949L865.478 588.826C867.181 589.96 868.884 589.96 870.019 589.393C871.154 588.826 871.722 587.125 871.722 584.857V578.052C871.722 575.217 872.858 572.382 874.561 571.247C876.831 570.113 879.102 570.113 881.941 571.814L887.617 575.217L886.482 577.485L880.805 574.083C879.102 572.949 877.399 572.949 876.264 573.516C875.128 574.083 874.561 575.784 874.561 578.052V584.857C874.561 587.692 873.425 590.527 871.722 591.661C870.587 592.228 869.451 592.228 868.884 592.228Z" fill="#42E8E0"/>
<path d="M858.098 598.465C856.962 598.465 855.259 597.898 853.556 597.331L825.739 581.453L826.875 579.185L854.692 595.062C856.395 596.196 858.098 596.196 859.233 595.629C860.368 595.062 860.936 593.361 860.936 591.093V584.288C860.936 581.453 862.071 578.618 863.774 577.484C866.045 576.35 868.316 576.35 871.155 578.051L876.831 581.453L875.696 583.721L870.019 580.319C868.316 579.185 866.613 579.185 865.478 579.752C864.342 580.319 863.774 582.02 863.774 584.288V591.093C863.774 593.928 862.639 596.763 860.936 597.898C859.801 598.465 859.233 598.465 858.098 598.465Z" fill="#42E8E0"/>
<path d="M847.313 604.701C846.178 604.701 844.475 604.134 842.772 603.567L814.955 587.69L816.09 585.422L843.907 601.299C845.61 602.433 847.313 602.433 848.449 601.866C849.584 601.299 850.152 599.598 850.152 597.33V591.092C850.152 588.257 851.287 585.422 852.99 584.287C855.261 583.153 857.532 583.153 860.37 584.854L866.047 588.257L864.911 590.525L859.235 587.123C857.531 585.989 855.828 585.989 854.693 586.556C853.558 587.123 852.99 588.824 852.99 591.092V597.897C852.99 600.732 851.855 603.567 850.152 604.701C849.016 604.701 848.448 604.701 847.313 604.701Z" fill="#42E8E0"/>
<path d="M836.525 610.941C835.39 610.941 833.687 610.374 831.984 609.807L804.167 593.93L805.302 591.662L833.119 607.539C834.822 608.673 836.525 608.673 837.661 608.106C838.796 607.539 839.364 605.838 839.364 603.569V596.765C839.364 593.93 840.499 591.094 842.202 589.96C844.473 588.826 846.744 588.826 849.582 590.527L855.259 593.93L854.124 596.198L848.447 592.796C846.744 591.661 845.041 591.661 843.905 592.229C842.77 592.796 842.202 594.497 842.202 596.765V603.569C842.202 606.405 841.067 609.24 839.364 610.374C838.228 610.941 837.661 610.941 836.525 610.941Z" fill="#42E8E0"/>
<path d="M1084.04 494.127C1082.9 494.127 1082.33 494.127 1081.2 493.56C1078.93 492.426 1078.36 490.157 1078.36 486.755V479.95C1078.36 477.682 1077.79 476.548 1076.66 475.414C1075.52 474.847 1073.82 474.847 1072.12 475.981L1066.44 479.383L1065.3 477.115L1070.98 473.713C1073.82 472.012 1076.09 472.012 1078.36 473.146C1080.63 474.28 1081.2 476.548 1081.2 479.95V486.755C1081.2 489.023 1081.77 490.157 1082.9 491.291C1084.04 491.858 1085.74 491.858 1087.44 490.724L1115.26 474.847L1116.39 477.115L1088.58 492.993C1087.44 494.127 1085.74 494.127 1084.04 494.127Z" fill="#42E8E0"/>
<path d="M1094.82 500.364C1093.69 500.364 1093.12 500.364 1091.99 499.797C1089.71 498.663 1089.15 496.395 1089.15 492.992V486.188C1089.15 483.92 1088.58 482.785 1087.44 481.651C1086.31 481.084 1084.61 481.084 1082.9 482.218L1077.23 485.621L1076.09 483.353L1081.77 479.95C1084.61 478.249 1086.88 478.249 1089.15 479.383C1091.42 480.517 1091.99 482.785 1091.99 486.188V492.992C1091.99 495.261 1092.55 496.395 1093.69 497.529C1094.82 498.096 1096.53 498.096 1098.23 496.962L1126.05 481.084L1127.18 483.353L1099.37 499.23C1097.66 499.797 1096.53 500.364 1094.82 500.364Z" fill="#42E8E0"/>
<path d="M1105.61 506.602C1104.47 506.602 1103.9 506.602 1102.77 506.035C1100.5 504.901 1099.93 502.633 1099.93 499.231V492.426C1099.93 490.158 1099.36 489.024 1098.23 487.89C1097.09 487.323 1095.39 487.323 1093.69 488.457L1088.01 491.859L1086.87 489.591L1092.55 486.189C1095.39 484.487 1097.66 484.487 1099.93 485.621C1102.2 486.756 1102.77 489.024 1102.77 492.426V499.231C1102.77 501.499 1103.34 502.633 1104.47 503.767C1105.61 504.334 1107.31 504.334 1109.01 503.2L1136.83 487.323L1137.97 489.591L1110.15 505.468C1108.45 506.035 1107.31 506.602 1105.61 506.602Z" fill="#42E8E0"/>
<path d="M1116.39 512.84C1115.26 512.84 1114.69 512.84 1113.56 512.273C1111.28 511.138 1110.72 508.87 1110.72 505.468V498.663C1110.72 496.395 1110.15 495.261 1109.01 494.127C1107.88 493.56 1106.18 493.56 1104.47 494.694L1098.8 498.096L1097.66 495.828L1103.34 492.426C1106.18 490.725 1108.45 490.725 1110.72 491.859C1112.99 492.993 1113.56 495.261 1113.56 498.663V505.468C1113.56 507.736 1114.12 508.87 1115.26 510.004C1116.39 510.571 1118.1 510.571 1119.8 509.437L1147.62 493.56L1148.75 495.828L1120.94 511.705C1119.23 512.273 1118.1 512.84 1116.39 512.84Z" fill="#42E8E0"/>
<path d="M1127.18 519.076C1126.04 519.076 1125.48 519.076 1124.34 518.509C1122.07 517.375 1121.5 515.107 1121.5 511.704V504.9C1121.5 502.631 1120.94 501.497 1119.8 500.363C1118.66 499.796 1116.96 499.796 1115.26 500.93L1109.58 504.333L1108.45 502.064L1114.12 498.662C1116.96 496.961 1119.23 496.961 1121.5 498.095C1123.77 499.229 1124.34 501.497 1124.34 504.9V511.704C1124.34 513.972 1124.91 515.107 1126.04 516.241C1127.18 516.808 1128.88 516.808 1130.59 515.674L1158.4 499.796L1159.54 502.064L1131.72 517.942C1130.02 518.509 1128.32 519.076 1127.18 519.076Z" fill="#42E8E0"/>
<path d="M1137.97 525.313C1136.83 525.313 1136.26 525.313 1135.13 524.746C1132.86 523.612 1132.29 521.344 1132.29 517.942V511.137C1132.29 508.869 1131.72 507.735 1130.59 506.601C1129.45 506.034 1127.75 506.034 1126.04 507.168L1120.37 510.57L1119.23 508.302L1124.91 504.899C1127.75 503.198 1130.02 503.198 1132.29 504.332C1134.56 505.466 1135.13 507.735 1135.13 511.137V517.942C1135.13 520.21 1135.7 521.344 1136.83 522.478C1137.97 523.045 1139.67 523.045 1141.37 521.911L1169.19 506.034L1170.32 508.302L1142.51 524.179C1140.8 524.746 1139.1 525.313 1137.97 525.313Z" fill="#42E8E0"/>
<path d="M1148.75 531.551C1147.62 531.551 1147.05 531.551 1145.91 530.983C1143.64 529.849 1143.08 527.581 1143.08 524.179V517.374C1143.08 515.106 1142.51 513.972 1141.37 512.838C1140.24 512.271 1138.53 512.271 1136.83 513.405L1131.15 516.807L1130.02 514.539L1135.7 511.137C1138.53 509.436 1140.81 509.436 1143.08 510.57C1145.35 511.704 1145.91 513.972 1145.91 517.374V524.179C1145.91 526.447 1146.48 527.581 1147.62 528.715C1148.75 529.282 1150.46 529.282 1152.16 528.148L1179.98 512.271L1181.11 514.539L1153.29 530.416C1151.59 530.984 1149.89 531.551 1148.75 531.551Z" fill="#42E8E0"/>
<path d="M1159.54 537.222C1158.4 537.222 1157.84 537.222 1156.7 536.655C1154.43 535.521 1153.86 533.253 1153.86 529.851V523.046C1153.86 520.778 1153.29 519.644 1152.16 518.51C1151.02 517.943 1149.32 517.943 1147.62 519.077L1141.94 522.479L1140.8 520.211L1146.48 516.809C1149.32 515.107 1151.59 515.107 1153.86 516.242C1156.13 517.376 1156.7 519.644 1156.7 523.046V529.851C1156.7 532.119 1157.27 533.253 1158.4 534.387C1159.54 534.954 1161.24 534.954 1162.94 533.82L1190.76 517.943L1191.9 520.211L1164.08 536.088C1162.38 537.222 1160.67 537.222 1159.54 537.222Z" fill="#42E8E0"/>
<path d="M1170.33 543.461C1169.19 543.461 1168.62 543.461 1167.49 542.894C1165.22 541.76 1164.65 539.491 1164.65 536.089V529.284C1164.65 527.016 1164.08 525.882 1162.95 524.748C1161.81 524.181 1160.11 524.181 1158.4 525.315L1152.73 528.717L1151.59 526.449L1157.27 523.047C1160.11 521.346 1162.38 521.346 1164.65 522.48C1166.92 523.614 1167.49 525.882 1167.49 529.284V536.089C1167.49 538.357 1168.05 539.491 1169.19 540.625C1170.33 541.192 1172.03 541.192 1173.73 540.058L1201.55 524.181L1202.68 526.449L1174.87 542.327C1173.16 543.461 1171.46 543.461 1170.33 543.461Z" fill="#42E8E0"/>
<path d="M1181.11 549.698C1179.97 549.698 1178.84 549.698 1178.27 549.131C1176 547.997 1175.43 545.728 1175.43 542.326V535.522C1175.43 533.253 1174.87 532.119 1173.73 530.985C1172.59 530.418 1170.89 530.418 1169.19 531.552L1163.51 534.955L1162.38 532.686L1168.05 529.284C1170.89 527.583 1173.16 527.583 1175.43 528.717C1177.7 529.851 1178.27 532.119 1178.27 535.522V542.326C1178.27 544.594 1178.84 545.728 1179.97 546.863C1181.11 547.43 1182.81 547.43 1184.52 546.296L1212.33 530.418L1213.47 532.686L1185.65 548.564C1183.95 549.131 1182.25 549.698 1181.11 549.698Z" fill="#42E8E0"/>
<path d="M1191.33 555.935C1190.19 555.935 1189.63 555.935 1188.49 555.368C1186.22 554.234 1185.65 551.966 1185.65 548.563V541.759C1185.65 539.491 1185.08 538.357 1183.95 537.223C1182.81 536.656 1181.11 536.656 1179.41 537.79L1173.73 541.192L1172.6 538.924L1178.27 535.521C1181.11 533.82 1183.38 533.82 1185.65 534.954C1187.92 536.089 1188.49 538.357 1188.49 541.759V548.563C1188.49 550.832 1189.06 551.966 1190.19 553.1C1191.33 553.667 1193.03 553.667 1194.74 552.533L1222.55 536.656L1223.69 538.924L1195.87 554.801C1194.17 555.368 1193.03 555.935 1191.33 555.935Z" fill="#42E8E0"/>
<path d="M1202.12 562.172C1200.98 562.172 1200.41 562.172 1199.28 561.605C1197.01 560.471 1196.44 558.202 1196.44 554.8V547.995C1196.44 545.727 1195.87 544.593 1194.74 543.459C1193.6 542.892 1191.9 542.892 1190.19 544.026L1184.52 547.428L1183.38 545.16L1189.06 541.758C1191.9 540.057 1194.17 540.057 1196.44 541.191C1198.71 542.325 1199.28 544.593 1199.28 547.995V554.8C1199.28 557.068 1199.84 558.202 1200.98 559.336C1202.12 559.903 1203.82 559.904 1205.52 558.769L1233.34 542.892L1234.47 545.16L1206.66 561.038C1204.95 561.605 1203.82 562.172 1202.12 562.172Z" fill="#42E8E0"/>
<path d="M1212.9 568.409C1211.77 568.409 1210.63 568.409 1210.06 567.842C1207.79 566.707 1207.22 564.439 1207.22 561.037V554.233C1207.22 551.964 1206.66 550.83 1205.52 549.696C1204.39 549.129 1202.68 549.129 1200.98 550.263L1195.3 553.666L1194.17 551.397L1199.84 547.995C1202.68 546.294 1204.95 546.294 1207.22 547.428C1209.5 548.562 1210.06 550.83 1210.06 554.233V561.037C1210.06 563.305 1210.63 564.439 1211.77 565.573C1212.9 566.14 1214.6 566.14 1216.31 565.006L1244.12 549.129L1245.26 551.397L1217.44 567.275C1215.74 567.842 1214.6 568.409 1212.9 568.409Z" fill="#42E8E0"/>
<path d="M1223.69 574.647C1222.55 574.647 1221.98 574.647 1220.85 574.08C1218.58 572.946 1218.01 570.678 1218.01 567.276V560.471C1218.01 558.203 1217.44 557.069 1216.31 555.935C1215.17 555.368 1213.47 555.368 1211.76 556.502L1206.09 559.904L1204.95 557.636L1210.63 554.233C1213.47 552.532 1215.74 552.532 1218.01 553.666C1220.28 554.8 1220.85 557.069 1220.85 560.471V567.276C1220.85 569.544 1221.42 570.678 1222.55 571.812C1223.69 572.379 1225.39 572.379 1227.09 571.245L1254.91 555.368L1256.04 557.636L1228.23 573.513C1226.52 574.08 1225.39 574.647 1223.69 574.647Z" fill="#42E8E0"/>
<path d="M1234.47 580.884C1233.34 580.884 1232.77 580.884 1231.64 580.317C1229.36 579.183 1228.8 576.915 1228.8 573.513V566.708C1228.8 564.44 1228.23 563.306 1227.09 562.172C1225.96 561.605 1224.26 561.605 1222.55 562.739L1216.88 566.141L1215.74 563.873L1221.42 560.471C1224.26 558.77 1226.53 558.77 1228.8 559.904C1231.07 561.038 1231.64 563.306 1231.64 566.708V573.513C1231.64 575.781 1232.2 576.915 1233.34 578.049C1234.47 578.616 1236.18 578.616 1237.88 577.482L1265.7 561.605L1266.83 563.873L1239.02 579.75C1237.31 580.317 1235.61 580.884 1234.47 580.884Z" fill="#42E8E0"/>
<path d="M1245.26 586.556C1244.13 586.556 1243.56 586.556 1242.42 585.989C1240.15 584.855 1239.59 582.587 1239.59 579.185V572.38C1239.59 570.112 1239.02 568.978 1237.88 567.844C1236.75 567.277 1235.04 567.277 1233.34 568.411L1227.66 571.813L1226.53 569.545L1232.21 566.143C1235.04 564.441 1237.31 564.441 1239.59 565.576C1241.86 566.71 1242.42 568.978 1242.42 572.38V579.185C1242.42 581.453 1242.99 582.587 1244.13 583.721C1245.26 584.288 1246.97 584.288 1248.67 583.154L1276.48 567.277L1277.62 569.545L1249.8 585.422C1248.1 586.556 1246.4 586.556 1245.26 586.556Z" fill="#42E8E0"/>
<path d="M1256.05 592.794C1254.91 592.794 1254.34 592.794 1253.21 592.227C1250.94 591.093 1250.37 588.824 1250.37 585.422V578.617C1250.37 576.349 1249.8 575.215 1248.67 574.081C1247.53 573.514 1245.83 573.514 1244.12 574.648L1238.45 578.05L1237.31 575.782L1242.99 572.38C1245.83 570.679 1248.1 570.679 1250.37 571.813C1252.64 572.947 1253.21 575.215 1253.21 578.617V585.422C1253.21 587.69 1253.78 588.824 1254.91 589.958C1256.05 590.526 1257.75 590.525 1259.45 589.391L1287.27 573.514L1288.4 575.782L1260.59 591.66C1258.88 592.227 1257.18 592.794 1256.05 592.794Z" fill="#42E8E0"/>
<path d="M1266.83 599.03C1265.69 599.03 1265.13 599.03 1263.99 598.463C1261.72 597.329 1261.15 595.061 1261.15 591.659V585.421C1261.15 583.153 1260.59 582.019 1259.45 580.885C1258.32 580.318 1256.61 580.318 1254.91 581.452L1249.23 584.854L1248.1 582.586L1253.77 579.184C1256.61 577.482 1258.88 577.482 1261.15 578.617C1263.42 579.751 1263.99 582.019 1263.99 585.421V592.226C1263.99 594.494 1264.56 595.628 1265.7 596.762C1266.83 597.329 1268.53 597.329 1270.24 596.195L1298.05 580.318L1299.19 582.586L1271.37 598.463C1269.67 598.463 1267.97 599.03 1266.83 599.03Z" fill="#42E8E0"/>
<path d="M1277.62 605.267C1276.48 605.267 1275.92 605.267 1274.78 604.7C1272.51 603.566 1271.94 601.298 1271.94 597.895V591.091C1271.94 588.823 1271.37 587.689 1270.24 586.555C1269.1 585.988 1267.4 585.988 1265.7 587.122L1260.02 590.524L1258.88 588.256L1264.56 584.853C1267.4 583.152 1269.67 583.152 1271.94 584.287C1274.21 585.421 1274.78 587.689 1274.78 591.091V597.895C1274.78 600.164 1275.35 601.298 1276.48 602.432C1277.62 602.999 1279.32 602.999 1281.02 601.865L1308.84 585.988L1309.98 588.256L1282.16 604.133C1280.46 604.7 1278.75 605.267 1277.62 605.267Z" fill="#42E8E0"/>
<path d="M1287.84 611.507C1286.7 611.507 1286.13 611.507 1285 610.94C1282.73 609.805 1282.16 607.537 1282.16 604.135V597.33C1282.16 595.062 1281.59 593.928 1280.46 592.794C1279.32 592.227 1277.62 592.227 1275.92 593.361L1270.24 596.763L1269.1 594.495L1274.78 591.093C1277.62 589.392 1279.89 589.392 1282.16 590.526C1284.43 591.66 1285 593.928 1285 597.33V604.135C1285 606.403 1285.57 607.537 1286.7 608.671C1287.84 609.238 1289.54 609.238 1291.24 608.104L1319.06 592.227L1320.2 594.495L1292.38 610.372C1291.24 610.94 1289.54 611.507 1287.84 611.507Z" fill="#42E8E0"/>
<path opacity="0.8" d="M1062.47 773.115L850.719 650.633L1062.47 528.718L1274.21 650.633L1062.47 773.115Z" fill="url(#paint0_radial)"/>
<path d="M1274.21 598.465V622.848L1062.47 745.33L850.719 622.848V598.465H1274.21Z" fill="url(#paint1_linear)"/>
<path d="M1062.47 720.381L850.719 598.466L1062.47 475.983L1274.21 598.466L1062.47 720.381Z" fill="#BCBEFF"/>
<path d="M1062.47 717.544L852.989 596.764L850.719 598.465L1062.47 720.38L1274.21 598.465L1271.94 596.764L1062.47 717.544Z" fill="white"/>
<path d="M1062.47 692.596L899.539 598.467L1062.47 504.337L1225.39 598.467L1062.47 692.596Z" fill="#0F054C"/>
<path opacity="0.5" d="M1062.47 692.596L899.539 598.467L1062.47 504.337L1225.39 598.467L1062.47 692.596Z" fill="url(#paint2_linear)"/>
<path opacity="0.5" d="M1062.47 480.521L1225.39 574.65V598.466L1062.47 504.336V480.521Z" fill="url(#paint3_linear)"/>
<path opacity="0.5" d="M1062.47 504.336L899.539 598.466V574.65L1062.47 480.521V504.336Z" fill="url(#paint4_linear)"/>
<path opacity="0.5" d="M1062.47 668.78L899.539 574.65L1062.47 480.521L1225.39 574.65L1062.47 668.78Z" fill="url(#paint5_linear)"/>
<path opacity="0.5" d="M1062.47 612.075L997.182 574.65L1062.47 537.225L1127.75 574.65L1062.47 612.075Z" fill="#42E8E0"/>
<path opacity="0.5" d="M1062.47 540.627L1124.34 576.351L1127.75 574.65L1062.47 537.225L997.182 574.65L1000.02 576.351L1062.47 540.627Z" fill="#42E8E0"/>
<path opacity="0.5" d="M1062.47 668.778V692.594L1225.39 598.464V574.648L1062.47 668.778Z" fill="url(#paint6_linear)"/>
<path opacity="0.5" d="M899.539 574.648V598.464L1062.47 692.594V668.778L899.539 574.648Z" fill="url(#paint7_linear)"/>
<path opacity="0.8" d="M1062.47 665.943L901.81 573.515L899.539 574.649L1062.47 668.778L1225.39 574.649L1223.12 573.515L1062.47 665.943Z" fill="#42E8E0"/>
<path d="M1114.69 774.817L1086.88 758.94C1081.77 756.105 1077.79 749.3 1077.79 743.063V736.258C1077.79 731.155 1074.39 725.484 1069.85 722.649L1064.17 719.247L1065.31 716.979L1070.98 720.381C1076.09 723.216 1080.07 730.021 1080.07 736.258V743.063C1080.07 748.166 1083.47 753.836 1088.01 756.672L1115.83 772.549L1114.69 774.817Z" fill="#42E8E0"/>
<path d="M1125.48 768.579L1097.67 752.702C1092.56 749.866 1088.58 743.062 1088.58 736.824V730.02C1088.58 724.916 1085.18 719.246 1080.63 716.411L1074.96 713.008L1076.09 710.74L1081.77 714.142C1086.88 716.978 1090.85 723.782 1090.85 730.02V736.824C1090.85 741.928 1094.26 747.598 1098.8 750.434L1126.62 766.311L1125.48 768.579Z" fill="#42E8E0"/>
<path d="M1136.27 762.341L1108.45 746.463C1103.34 743.628 1099.37 736.824 1099.37 730.586V723.782C1099.37 718.678 1095.96 713.008 1091.42 710.172L1085.74 706.77L1086.88 704.502L1092.55 707.904C1097.66 710.74 1101.64 717.544 1101.64 723.782V730.586C1101.64 735.69 1105.04 741.36 1109.59 744.195L1137.4 760.073L1136.27 762.341Z" fill="#42E8E0"/>
<path d="M1147.05 756.106L1119.24 740.228C1114.13 737.393 1110.15 730.588 1110.15 724.351V717.546C1110.15 712.443 1106.75 706.772 1102.21 703.937L1096.53 700.535L1097.66 698.267L1103.34 701.669C1108.45 704.504 1112.42 711.309 1112.42 717.546V724.351C1112.42 729.454 1115.83 735.125 1120.37 737.96L1148.19 753.837L1147.05 756.106Z" fill="#42E8E0"/>
<path d="M1157.84 749.868L1130.02 733.991C1124.91 731.156 1120.94 724.351 1120.94 718.113V711.309C1120.94 706.205 1117.53 700.535 1112.99 697.7L1107.31 694.297L1108.45 692.029L1114.13 695.432C1119.24 698.267 1123.21 705.071 1123.21 711.309V718.113C1123.21 723.217 1126.62 728.887 1131.16 731.723L1158.97 747.6L1157.84 749.868Z" fill="#42E8E0"/>
<path d="M1168.62 743.632L1140.81 727.754C1135.7 724.919 1131.72 718.115 1131.72 711.877V705.073C1131.72 699.969 1128.32 694.299 1123.78 691.463L1118.1 688.061L1119.23 685.793L1124.91 689.195C1130.02 692.031 1133.99 698.835 1133.99 705.073V711.877C1133.99 716.981 1137.4 722.651 1141.94 725.486L1169.76 741.364L1168.62 743.632Z" fill="#42E8E0"/>
<path d="M1179.41 737.39L1151.59 721.513C1146.48 718.678 1142.51 711.873 1142.51 705.636V698.831C1142.51 693.728 1139.1 688.057 1134.56 685.222L1128.89 681.82L1130.02 679.552L1135.7 682.954C1140.81 685.789 1144.78 692.594 1144.78 698.831V705.636C1144.78 710.739 1148.19 716.41 1152.73 719.245L1180.55 735.122L1179.41 737.39Z" fill="#42E8E0"/>
<path d="M1190.2 731.154L1162.38 715.276C1157.27 712.441 1153.3 705.636 1153.3 699.399V693.161C1153.3 688.058 1149.89 682.388 1145.35 679.552L1139.67 676.15L1140.81 673.882L1146.48 677.284C1151.59 680.119 1155.57 686.924 1155.57 693.161V699.966C1155.57 705.069 1158.97 710.74 1163.51 713.575L1191.33 729.452L1190.2 731.154Z" fill="#42E8E0"/>
<path d="M1200.98 724.917L1173.17 709.04C1168.06 706.205 1164.08 699.4 1164.08 693.162V686.358C1164.08 681.254 1160.68 675.584 1156.13 672.749L1150.46 669.346L1151.59 667.078L1157.27 670.48C1162.38 673.316 1166.35 680.12 1166.35 686.358V693.162C1166.35 698.266 1169.76 703.936 1174.3 706.772L1202.12 722.649L1200.98 724.917Z" fill="#42E8E0"/>
<path d="M1211.77 719.247L1183.95 703.37C1178.84 700.534 1174.87 693.73 1174.87 687.492V680.688C1174.87 675.584 1171.46 669.914 1166.92 667.079L1161.24 663.676L1162.38 661.408L1168.06 664.811C1173.17 667.646 1177.14 674.45 1177.14 680.688V687.492C1177.14 692.596 1180.55 698.266 1185.09 701.101L1212.9 716.979L1211.77 719.247Z" fill="#42E8E0"/>
<path d="M1221.99 713.01L1194.17 697.132C1189.06 694.297 1185.09 687.493 1185.09 681.255V674.45C1185.09 669.347 1181.68 663.677 1177.14 660.841L1171.46 657.439L1172.6 655.171L1178.28 658.573C1183.39 661.408 1187.36 668.213 1187.36 674.45V681.255C1187.36 686.358 1190.77 692.029 1195.31 694.864L1223.12 710.741L1221.99 713.01Z" fill="#42E8E0"/>
<path d="M1232.77 706.773L1204.96 690.895C1199.85 688.06 1195.87 681.255 1195.87 675.018V668.213C1195.87 663.11 1192.47 657.439 1187.92 654.604L1182.25 651.202L1183.38 648.934L1189.06 652.336C1194.17 655.171 1198.14 661.976 1198.14 668.213V675.018C1198.14 680.121 1201.55 685.792 1206.09 688.627L1233.91 704.504L1232.77 706.773Z" fill="#42E8E0"/>
<path d="M1243.56 700.534L1215.74 684.657C1210.63 681.821 1206.66 675.017 1206.66 668.779V661.975C1206.66 656.871 1203.25 651.201 1198.71 648.366L1193.04 644.963L1194.17 642.695L1199.85 646.098C1204.96 648.933 1208.93 655.737 1208.93 661.975V668.779C1208.93 673.883 1212.34 679.553 1216.88 682.389L1244.7 698.266L1243.56 700.534Z" fill="#42E8E0"/>
<path d="M1254.34 694.297L1226.53 678.419C1221.42 675.584 1217.44 668.78 1217.44 662.542V655.738C1217.44 650.634 1214.04 644.964 1209.5 642.128L1203.82 638.726L1204.96 636.458L1210.63 639.86C1215.74 642.696 1219.72 649.5 1219.72 655.738V662.542C1219.72 667.646 1223.12 673.316 1227.66 676.151L1255.48 692.029L1254.34 694.297Z" fill="#42E8E0"/>
<path d="M1265.13 688.06L1237.32 672.183C1232.21 669.348 1228.23 662.543 1228.23 656.306V649.501C1228.23 644.398 1224.83 638.727 1220.28 635.892L1214.61 632.49L1215.74 630.222L1221.42 633.624C1226.53 636.459 1230.5 643.264 1230.5 649.501V656.306C1230.5 661.409 1233.91 667.08 1238.45 669.915L1266.27 685.792L1265.13 688.06Z" fill="#42E8E0"/>
<path d="M1275.92 681.819L1248.1 665.942C1242.99 663.107 1239.02 656.302 1239.02 650.065V643.26C1239.02 638.157 1235.61 632.486 1231.07 629.651L1225.39 626.249L1226.53 623.98L1232.21 627.383C1237.32 630.218 1241.29 637.023 1241.29 643.26V650.065C1241.29 655.168 1244.7 660.839 1249.24 663.674L1277.05 679.551L1275.92 681.819Z" fill="#42E8E0"/>
<path d="M1286.7 675.583L1258.89 659.706C1253.78 656.87 1249.8 650.066 1249.8 643.828V637.024C1249.8 631.92 1246.4 626.25 1241.86 623.415L1236.18 620.012L1237.32 617.744L1242.99 621.146C1248.1 623.982 1252.07 630.786 1252.07 637.024V643.828C1252.07 648.932 1255.48 654.602 1260.02 657.437L1287.84 673.315L1286.7 675.583Z" fill="#42E8E0"/>
<path d="M1297.49 669.346L1269.68 653.468C1264.57 650.633 1260.59 643.828 1260.59 637.591V630.786C1260.59 625.683 1257.19 620.013 1252.64 617.177L1246.97 613.775L1248.1 611.507L1253.78 614.909C1258.89 617.744 1262.86 624.549 1262.86 630.786V637.591C1262.86 642.694 1266.27 648.365 1270.81 651.2L1298.63 667.077L1297.49 669.346Z" fill="#42E8E0"/>
<path d="M1308.28 663.675L1280.46 647.797C1275.35 644.962 1271.38 638.158 1271.38 631.92V625.116C1271.38 620.012 1267.97 614.342 1263.43 611.506L1257.75 608.104L1258.89 605.836L1264.56 609.238C1269.67 612.073 1273.65 618.878 1273.65 625.116V631.92C1273.65 637.023 1277.05 642.694 1281.59 645.529L1309.41 661.407L1308.28 663.675Z" fill="#42E8E0"/>
<path d="M1319.06 657.438L1291.25 641.561C1286.14 638.726 1282.16 631.921 1282.16 625.684V618.879C1282.16 613.776 1278.76 608.105 1274.21 605.27L1268.54 601.868L1269.67 599.6L1275.35 603.002C1280.46 605.837 1284.43 612.642 1284.43 618.879V625.684C1284.43 630.787 1287.84 636.458 1292.38 639.293L1320.2 655.17L1319.06 657.438Z" fill="#42E8E0"/>
<path d="M1009.1 774.817L1007.97 772.549L1035.78 756.672C1039.76 754.404 1043.73 748.166 1043.73 743.063V736.258C1043.73 730.588 1047.71 723.783 1052.82 720.381L1058.49 716.979L1059.63 719.247L1053.95 722.649C1049.98 724.917 1046 731.155 1046 736.258V743.063C1046 748.733 1042.03 755.538 1036.92 758.94L1009.1 774.817Z" fill="#42E8E0"/>
<path d="M998.316 768.579L997.181 766.311L1025 750.434C1028.97 748.165 1032.95 741.928 1032.95 736.824V730.02C1032.95 724.349 1036.92 717.545 1042.03 714.142L1047.7 710.74L1048.84 713.008L1043.16 716.411C1039.19 718.679 1035.22 724.916 1035.22 730.02V736.824C1035.22 742.495 1031.24 749.299 1026.13 752.702L998.316 768.579Z" fill="#42E8E0"/>
<path d="M987.53 762.34L986.395 760.072L1014.21 744.194C1018.19 741.926 1022.16 735.689 1022.16 730.585V723.781C1022.16 718.11 1026.13 711.306 1031.24 707.903L1036.92 704.501L1038.05 706.769L1032.38 710.171C1028.4 712.44 1024.43 718.677 1024.43 723.781V730.585C1024.43 736.256 1020.46 743.06 1015.35 746.462L987.53 762.34Z" fill="#42E8E0"/>
<path d="M976.744 756.105L975.608 753.836L1003.43 737.959C1007.4 735.691 1011.37 729.453 1011.37 724.35V717.545C1011.37 711.875 1015.35 705.07 1020.46 701.668L1026.13 698.266L1027.27 700.534L1021.59 703.936C1017.62 706.204 1013.64 712.442 1013.64 717.545V724.35C1013.64 730.02 1009.67 736.825 1004.56 740.227L976.744 756.105Z" fill="#42E8E0"/>
<path d="M965.958 749.868L964.822 747.6L992.639 731.723C996.613 729.454 1000.59 723.217 1000.59 718.113V711.309C1000.59 705.638 1004.56 698.834 1009.67 695.432L1015.35 692.029L1016.48 694.297L1010.81 697.7C1006.83 699.968 1002.86 706.205 1002.86 711.309V718.113C1002.86 723.784 998.884 730.589 993.774 733.991L965.958 749.868Z" fill="#42E8E0"/>
<path d="M955.74 743.631L954.604 741.363L982.422 725.485C986.395 723.217 990.369 716.98 990.369 711.876V705.072C990.369 699.401 994.343 692.597 999.452 689.194L1005.13 685.792L1006.26 688.06L1000.59 691.462C996.614 693.731 992.64 699.968 992.64 705.072V711.876C992.64 717.547 988.666 724.351 983.557 727.753L955.74 743.631Z" fill="#42E8E0"/>
<path d="M944.952 737.39L943.816 735.122L971.633 719.245C975.607 716.977 979.581 710.739 979.581 705.636V698.831C979.581 693.161 983.555 686.356 988.664 682.954L994.341 679.552L995.476 681.82L989.799 685.222C985.825 687.49 981.852 693.728 981.852 698.831V705.636C981.852 711.306 977.878 718.111 972.769 721.513L944.952 737.39Z" fill="#42E8E0"/>
<path d="M934.168 731.153L933.032 728.884L960.849 713.007C964.823 710.739 968.797 704.501 968.797 699.398V693.16C968.797 687.49 972.771 680.685 977.88 677.283L983.557 673.881L984.692 676.149L979.015 679.551C975.042 681.82 971.068 688.057 971.068 693.16V699.965C971.068 705.635 967.094 712.44 961.985 715.842L934.168 731.153Z" fill="#42E8E0"/>
<path d="M923.381 724.917L922.246 722.649L950.063 706.772C954.037 704.503 958.01 698.266 958.01 693.162V686.358C958.01 680.687 961.984 673.883 967.093 670.48L972.77 667.078L973.906 669.346L968.229 672.749C964.255 675.017 960.281 681.254 960.281 686.358V693.162C960.281 698.833 956.307 705.637 951.198 709.04L923.381 724.917Z" fill="#42E8E0"/>
<path d="M912.595 719.246L911.46 716.978L939.277 701.1C943.251 698.832 947.224 692.595 947.224 687.491V680.687C947.224 675.016 951.198 668.212 956.307 664.81L961.984 661.407L963.12 663.675L957.443 667.078C953.469 669.346 949.495 675.583 949.495 680.687V687.491C949.495 693.162 945.521 699.966 940.412 703.369L912.595 719.246Z" fill="#42E8E0"/>
<path d="M901.81 713.01L900.675 710.741L928.492 694.864C932.465 692.596 936.439 686.358 936.439 681.255V674.45C936.439 668.78 940.413 661.975 945.522 658.573L951.199 655.171L952.334 657.439L946.658 660.841C942.684 663.11 938.71 669.347 938.71 674.45V681.255C938.71 686.925 934.736 693.73 929.627 697.132L901.81 713.01Z" fill="#42E8E0"/>
<path d="M891.022 706.773L889.887 704.504L917.704 688.627C921.677 686.359 925.651 680.121 925.651 675.018V668.213C925.651 662.543 929.625 655.738 934.734 652.336L940.411 648.934L941.547 651.202L935.87 654.604C931.896 656.872 927.922 663.11 927.922 668.213V675.018C927.922 680.688 923.948 687.493 918.839 690.895L891.022 706.773Z" fill="#42E8E0"/>
<path d="M880.238 700.533L879.103 698.265L906.919 682.388C910.893 680.119 914.867 673.882 914.867 668.778V661.974C914.867 656.303 918.841 649.499 923.95 646.097L929.627 642.694L930.762 644.962L925.085 648.365C921.112 650.633 917.138 656.87 917.138 661.974V668.778C917.138 674.449 913.164 681.253 908.055 684.656L880.238 700.533Z" fill="#42E8E0"/>
<path d="M869.45 694.297L868.314 692.029L896.131 676.151C900.105 673.883 904.079 667.646 904.079 662.542V655.738C904.079 650.067 908.053 643.263 913.162 639.86L918.839 636.458L919.974 638.726L914.297 642.128C910.323 644.397 906.349 650.634 906.349 655.738V662.542C906.349 668.213 902.376 675.017 897.267 678.419L869.45 694.297Z" fill="#42E8E0"/>
<path d="M858.666 688.059L857.53 685.791L885.347 669.914C889.321 667.646 893.295 661.408 893.295 656.305V649.5C893.295 643.83 897.269 637.025 902.378 633.623L908.055 630.221L909.19 632.489L903.513 635.891C899.539 638.159 895.565 644.397 895.565 649.5V656.305C895.565 661.975 891.592 668.78 886.482 672.182L858.666 688.059Z" fill="#42E8E0"/>
<path d="M848.446 681.819L847.311 679.551L875.127 663.674C879.101 661.406 883.075 655.168 883.075 650.065V643.26C883.075 637.59 887.049 630.785 892.158 627.383L897.835 623.98L898.97 626.249L893.293 629.651C889.32 631.919 885.346 638.157 885.346 643.26V650.065C885.346 655.735 881.372 662.54 876.263 665.942L848.446 681.819Z" fill="#42E8E0"/>
<path d="M837.66 675.582L836.524 673.314L864.341 657.436C868.315 655.168 872.289 648.931 872.289 643.827V637.023C872.289 631.352 876.263 624.548 881.372 621.145L887.049 617.743L888.184 620.011L882.508 623.414C878.534 625.682 874.56 631.919 874.56 637.023V643.827C874.56 649.498 870.586 656.302 865.477 659.705L837.66 675.582Z" fill="#42E8E0"/>
<path d="M826.874 669.345L825.738 667.077L853.555 651.2C857.529 648.932 861.503 642.694 861.503 637.591V630.786C861.503 625.116 865.477 618.311 870.586 614.909L876.263 611.507L877.398 613.775L871.722 617.177C867.748 619.445 863.774 625.683 863.774 630.786V637.591C863.774 643.261 859.8 650.066 854.691 653.468L826.874 669.345Z" fill="#42E8E0"/>
<path d="M816.089 663.675L814.954 661.407L842.771 645.529C846.745 643.261 850.718 637.023 850.718 631.92V625.116C850.718 619.445 854.692 612.64 859.801 609.238L865.478 605.836L866.613 608.104L860.937 611.506C856.963 613.775 852.989 620.012 852.989 625.116V631.92C852.989 637.591 849.015 644.395 843.906 647.797L816.089 663.675Z" fill="#42E8E0"/>
<path d="M805.302 657.438L804.167 655.17L831.984 639.293C835.958 637.025 839.932 630.787 839.932 625.684V618.879C839.932 613.209 843.906 606.404 849.015 603.002L854.692 599.6L855.827 601.868L850.15 605.27C846.176 607.538 842.202 613.776 842.202 618.879V625.684C842.202 631.354 838.229 638.159 833.119 641.561L805.302 657.438Z" fill="#42E8E0"/>
<path opacity="0.5" d="M1062.53 669.177L899.899 574.962V501.746L1061.4 591.989L1225.17 498.341V574.962L1062.53 669.177Z" fill="url(#paint8_linear)"/>
<path opacity="0.7" d="M1225.17 516.482V498.341L1061.14 591.881L898.812 501.742V517.049L1051.49 604.92C1057.17 608.322 1066.25 607.755 1072.49 603.786L1225.17 516.482Z" fill="#42E8E0"/>
<path d="M1072.69 592.794L1229.94 502.067C1233.34 499.798 1235.04 497.53 1235.04 495.262V466.91L1229.94 471.446L1225.39 468.611C1225.96 468.044 1226.53 467.477 1225.96 467.477C1225.96 466.91 1223.69 463.507 1223.69 463.507L1112.99 398.297L1077.79 377.883L1064.17 373.914L902.379 466.91L902.947 470.879L898.405 473.147L891.593 470.312V498.664C891.593 500.932 892.728 502.634 894.999 504.335L1051.68 594.495C1057.36 596.763 1066.44 596.763 1072.69 592.794ZM1136.83 523.047L1065.31 562.173L1059.06 561.606L939.846 495.262L906.92 478.251L1062.47 388.657C1064.17 388.09 1065.87 387.523 1067.01 388.657L1218.01 475.982L1136.83 523.047Z" fill="url(#paint9_linear)"/>
<path d="M1072.69 592.794L1229.94 502.067C1233.34 499.798 1235.04 497.53 1235.04 495.262V466.91L1229.94 471.446L1225.39 468.611C1225.96 468.044 1226.53 467.477 1225.96 467.477C1225.96 466.91 1223.69 463.507 1223.69 463.507L1112.99 398.297L1077.79 377.883L1064.17 373.914L902.379 466.91L902.947 470.879L898.405 473.147L891.593 470.312V498.664C891.593 500.932 892.728 502.634 894.999 504.335L1051.68 594.495C1057.36 596.763 1066.44 596.763 1072.69 592.794ZM1136.83 523.047L1065.31 562.173L1059.06 561.606L939.846 495.262L906.92 478.251L1062.47 388.657C1064.17 388.09 1065.87 387.523 1067.01 388.657L1218.01 475.982L1136.83 523.047Z" fill="url(#paint10_linear)"/>
<path opacity="0.6" d="M1061.33 595.628V561.605H1065.31L1136.83 522.478L1218.58 474.847L1215.74 473.145C1218.01 471.444 1232.77 467.475 1235.04 466.341V492.425V494.693C1235.04 496.961 1233.34 499.797 1229.94 501.498L1072.69 592.225C1069.85 595.06 1065.31 595.628 1061.33 595.628Z" fill="#0F054C"/>
<path d="M1072.68 564.441L1229.93 473.714C1236.18 470.311 1236.75 464.641 1231.64 461.806L1074.96 371.645C1069.28 368.243 1060.2 368.81 1053.95 372.779L896.701 463.507C890.456 466.909 889.888 472.579 894.997 475.415L1051.68 565.575C1057.36 568.41 1066.44 567.843 1072.68 564.441ZM1064.17 558.771C1062.47 559.338 1060.76 559.905 1059.63 558.771L905.784 470.311C904.648 469.744 904.648 468.61 906.351 467.476L1063.03 377.316C1064.74 376.749 1066.44 376.182 1067.58 377.316L1221.42 465.775C1222.55 466.342 1222.55 467.476 1220.85 468.61L1064.17 558.771Z" fill="url(#paint11_linear)"/>
<path d="M1072.68 564.441L1229.93 473.714C1236.18 470.311 1236.75 464.641 1231.64 461.806L1074.96 371.645C1069.28 368.243 1060.2 368.81 1053.95 372.779L896.701 463.507C890.456 466.909 889.888 472.579 894.997 475.415L1051.68 565.575C1057.36 568.41 1066.44 567.843 1072.68 564.441ZM1064.17 558.771C1062.47 559.338 1060.76 559.905 1059.63 558.771L905.784 470.311C904.648 469.744 904.648 468.61 906.351 467.476L1063.03 377.316C1064.74 376.749 1066.44 376.182 1067.58 377.316L1221.42 465.775C1222.55 466.342 1222.55 467.476 1220.85 468.61L1064.17 558.771Z" fill="url(#paint12_linear)"/>
<path d="M1221.42 464.641L1067.58 375.615C1066.44 375.048 1064.17 375.048 1063.03 375.615L905.785 466.342C904.65 466.909 904.082 468.043 904.649 468.61C904.649 468.61 905.217 468.043 905.785 468.043L1062.47 377.883C1064.17 377.316 1065.87 376.749 1067.01 377.883L1220.85 466.342L1221.42 466.909C1222.56 465.775 1222.56 464.641 1221.42 464.641Z" fill="#42E8E0"/>
<path d="M1230.5 472.011L1073.25 562.739C1067.01 566.141 1057.36 566.708 1052.25 563.873L895.565 473.712C893.294 472.578 892.159 470.877 892.159 469.176C891.591 471.444 892.726 473.712 895.565 475.414L1052.25 565.574C1057.92 568.976 1067.01 568.409 1073.25 564.44L1230.5 473.712C1234.48 471.444 1236.18 468.609 1235.61 466.341C1235.04 468.042 1233.34 470.31 1230.5 472.011Z" fill="#42E8E0"/>
<path d="M1067.58 388.657C1066.44 388.09 1064.17 388.09 1063.03 388.657L913.164 474.848L905.785 470.312C904.649 469.745 904.649 468.61 906.352 467.476L1063.03 377.316C1064.74 376.749 1066.44 376.182 1067.58 377.316L1221.42 465.775C1222.55 466.342 1222.55 467.476 1220.85 468.61L1213.47 472.58L1067.58 388.657Z" fill="#251C72"/>
<path opacity="0.7" d="M1221.42 468.61C1223.12 468.043 1223.12 466.342 1221.99 465.775L1068.14 377.316C1067.01 376.749 1064.74 376.749 1063.6 377.316L906.921 467.476C905.217 468.043 905.217 469.744 906.353 470.311L1060.2 558.771C1061.33 559.338 1063.6 559.338 1064.74 558.771L1221.42 468.61Z" fill="#42E8E0"/>
<path d="M1072.68 544.025L1229.93 453.298C1233.34 451.03 1235.04 448.762 1235.04 446.493V418.141L1229.93 422.677L1225.39 419.842C1225.96 419.275 1226.53 418.708 1225.96 418.708C1225.96 418.141 1223.69 414.739 1223.69 414.739L1112.42 349.528L1077.23 329.115L1063.6 325.146L901.809 418.141L902.377 422.11L897.836 424.379L891.023 421.543V449.896C891.023 452.164 892.159 453.865 894.43 455.566L1051.11 545.727C1057.36 547.995 1066.44 547.428 1072.68 544.025ZM1136.83 474.279L1065.3 513.405L1059.06 512.838L939.845 446.493L906.919 429.482L1062.47 339.889C1064.17 339.322 1065.87 338.755 1067.01 339.889L1218.01 427.214L1136.83 474.279Z" fill="url(#paint13_linear)"/>
<path d="M1072.68 544.025L1229.93 453.298C1233.34 451.03 1235.04 448.762 1235.04 446.493V418.141L1229.93 422.677L1225.39 419.842C1225.96 419.275 1226.53 418.708 1225.96 418.708C1225.96 418.141 1223.69 414.739 1223.69 414.739L1112.42 349.528L1077.23 329.115L1063.6 325.146L901.809 418.141L902.377 422.11L897.836 424.379L891.023 421.543V449.896C891.023 452.164 892.159 453.865 894.43 455.566L1051.11 545.727C1057.36 547.995 1066.44 547.428 1072.68 544.025ZM1136.83 474.279L1065.3 513.405L1059.06 512.838L939.845 446.493L906.919 429.482L1062.47 339.889C1064.17 339.322 1065.87 338.755 1067.01 339.889L1218.01 427.214L1136.83 474.279Z" fill="url(#paint14_linear)"/>
<path opacity="0.6" d="M1061.33 546.862V512.839H1065.3L1136.83 473.713L1218.58 426.081L1215.74 424.38C1218.01 422.679 1232.77 418.709 1235.04 417.575V443.659V445.928C1235.04 448.196 1233.34 451.031 1229.93 452.732L1072.68 543.46C1069.85 545.728 1065.3 546.862 1061.33 546.862Z" fill="#0F054C"/>
<path d="M1072.68 515.107L1229.93 424.379C1236.18 420.977 1236.75 415.307 1231.64 412.471L1074.95 322.311C1069.28 318.909 1060.19 319.476 1053.95 323.445L896.7 414.173C890.455 417.575 889.887 423.245 894.997 426.081L1051.68 516.241C1057.36 519.076 1066.44 519.076 1072.68 515.107ZM1064.17 510.003C1062.47 510.57 1060.76 511.138 1059.63 510.003L905.783 421.544C904.647 420.977 904.647 419.843 906.35 418.709L1063.03 328.549C1064.74 327.982 1066.44 327.415 1067.57 328.549L1221.42 417.008C1222.55 417.575 1222.55 418.709 1220.85 419.843L1064.17 510.003Z" fill="url(#paint15_linear)"/>
<path d="M1072.68 515.107L1229.93 424.379C1236.18 420.977 1236.75 415.307 1231.64 412.471L1074.95 322.311C1069.28 318.909 1060.19 319.476 1053.95 323.445L896.7 414.173C890.455 417.575 889.887 423.245 894.997 426.081L1051.68 516.241C1057.36 519.076 1066.44 519.076 1072.68 515.107ZM1064.17 510.003C1062.47 510.57 1060.76 511.138 1059.63 510.003L905.783 421.544C904.647 420.977 904.647 419.843 906.35 418.709L1063.03 328.549C1064.74 327.982 1066.44 327.415 1067.57 328.549L1221.42 417.008C1222.55 417.575 1222.55 418.709 1220.85 419.843L1064.17 510.003Z" fill="url(#paint16_linear)"/>
<path d="M1221.42 415.308L1067.58 326.849C1066.44 326.282 1064.17 326.282 1063.04 326.849L906.353 417.009C905.218 417.576 904.65 418.71 905.218 419.278C905.218 419.278 905.785 418.711 906.353 418.711L1063.04 328.55C1064.74 327.983 1066.44 327.416 1067.58 328.55L1221.42 417.009L1221.99 417.576C1222.56 416.442 1222.56 415.875 1221.42 415.308Z" fill="#42E8E0"/>
<path d="M1230.5 423.246L1073.25 513.973C1067.01 517.375 1057.36 517.943 1052.25 515.107L895.564 424.947C893.293 423.813 892.158 422.112 892.158 420.41C891.59 422.679 892.725 424.947 895.564 426.648L1052.25 516.808C1057.92 520.211 1067.01 519.644 1073.25 515.674L1230.5 424.947C1234.47 422.679 1236.18 419.843 1235.61 417.575C1235.04 419.276 1233.34 421.545 1230.5 423.246Z" fill="#42E8E0"/>
<path d="M1067.57 339.322C1066.44 338.755 1064.17 338.755 1063.03 339.322L913.163 426.08L905.784 421.544C904.648 420.977 904.648 419.843 906.351 418.709L1063.03 328.548C1064.74 327.981 1066.44 327.414 1067.57 328.548L1221.42 417.008C1222.55 417.575 1222.55 418.709 1220.85 419.843L1213.47 423.812L1067.57 339.322Z" fill="#251C72"/>
<path opacity="0.7" d="M1221.42 419.843C1223.12 419.276 1223.12 417.575 1221.99 417.008L1068.14 328.548C1067.01 327.981 1064.74 327.981 1063.6 328.548L906.92 418.709C905.216 419.276 905.216 420.977 906.352 421.544L1060.2 510.003C1061.33 510.57 1063.6 510.57 1064.74 510.003L1221.42 419.843Z" fill="#42E8E0"/>
<path d="M1072.68 494.695L1229.93 403.968C1233.34 402.267 1235.04 399.431 1235.04 397.163V368.811L1229.93 373.347L1225.39 370.512C1225.96 369.945 1226.53 369.378 1225.96 369.378C1225.96 368.811 1223.69 365.409 1223.69 365.409L1112.42 300.198L1077.23 279.785L1063.6 275.815L901.809 368.811L902.377 372.78L897.836 375.048L891.023 372.213V400.566C891.023 402.834 892.159 404.535 894.43 406.236L1051.11 496.396C1057.36 498.665 1066.44 498.665 1072.68 494.695ZM1136.83 424.949L1065.3 464.075L1059.06 463.508L939.845 397.163L906.919 380.152L1062.47 290.559C1064.17 289.992 1065.87 289.425 1067.01 290.559L1218.01 377.884L1136.83 424.949Z" fill="url(#paint17_linear)"/>
<path d="M1072.68 494.695L1229.93 403.968C1233.34 402.267 1235.04 399.431 1235.04 397.163V368.811L1229.93 373.347L1225.39 370.512C1225.96 369.945 1226.53 369.378 1225.96 369.378C1225.96 368.811 1223.69 365.409 1223.69 365.409L1112.42 300.198L1077.23 279.785L1063.6 275.815L901.809 368.811L902.377 372.78L897.836 375.048L891.023 372.213V400.566C891.023 402.834 892.159 404.535 894.43 406.236L1051.11 496.396C1057.36 498.665 1066.44 498.665 1072.68 494.695ZM1136.83 424.949L1065.3 464.075L1059.06 463.508L939.845 397.163L906.919 380.152L1062.47 290.559C1064.17 289.992 1065.87 289.425 1067.01 290.559L1218.01 377.884L1136.83 424.949Z" fill="url(#paint18_linear)"/>
<path opacity="0.6" d="M1061.33 498.097V464.075H1065.3L1136.83 424.948L1218.58 377.316L1215.74 375.615C1218.01 373.914 1232.77 369.945 1235.04 368.811V394.895V397.163C1235.04 399.431 1233.34 402.266 1229.93 403.967L1072.68 494.695C1069.85 496.963 1065.3 497.53 1061.33 498.097Z" fill="#0F054C"/>
<path d="M1072.68 466.342L1229.93 375.615C1236.18 372.213 1236.75 366.542 1231.64 363.707L1074.95 273.547C1069.28 270.144 1060.19 270.711 1053.95 274.681L896.7 365.408C890.455 368.81 889.887 374.481 894.997 377.316L1051.68 467.476C1057.36 470.312 1066.44 469.745 1072.68 466.342ZM1064.17 460.672C1062.47 461.239 1060.76 461.806 1059.63 460.672L905.783 372.213C904.647 371.645 904.647 370.511 906.35 369.377L1063.03 279.217C1064.74 278.65 1066.44 278.083 1067.57 279.217L1221.42 367.676C1222.55 368.243 1222.55 369.377 1220.85 370.511L1064.17 460.672Z" fill="url(#paint19_linear)"/>
<path d="M1072.68 466.342L1229.93 375.615C1236.18 372.213 1236.75 366.542 1231.64 363.707L1074.95 273.547C1069.28 270.144 1060.19 270.711 1053.95 274.681L896.7 365.408C890.455 368.81 889.887 374.481 894.997 377.316L1051.68 467.476C1057.36 470.312 1066.44 469.745 1072.68 466.342ZM1064.17 460.672C1062.47 461.239 1060.76 461.806 1059.63 460.672L905.783 372.213C904.647 371.645 904.647 370.511 906.35 369.377L1063.03 279.217C1064.74 278.65 1066.44 278.083 1067.57 279.217L1221.42 367.676C1222.55 368.243 1222.55 369.377 1220.85 370.511L1064.17 460.672Z" fill="url(#paint20_linear)"/>
<path d="M1221.42 366.544L1067.58 278.084C1066.44 277.517 1064.17 277.517 1063.04 278.084L906.353 368.245C905.218 368.812 904.65 369.946 905.218 370.513C905.218 370.513 905.785 369.946 906.353 369.946L1063.04 279.786C1064.74 279.219 1066.44 278.651 1067.58 279.786L1221.42 368.245L1221.99 368.812C1222.56 367.678 1222.56 367.111 1221.42 366.544Z" fill="#42E8E0"/>
<path d="M1230.5 373.915L1073.25 464.642C1067.01 468.044 1057.36 468.611 1052.25 465.776L895.564 375.616C893.293 374.482 892.158 372.781 892.158 371.079C891.59 373.348 892.725 375.616 895.564 377.317L1052.25 467.477C1057.92 470.879 1067.01 470.312 1073.25 466.343L1230.5 375.616C1234.47 373.348 1236.18 370.512 1235.61 368.244C1235.04 369.945 1233.34 372.213 1230.5 373.915Z" fill="#42E8E0"/>
<path d="M1067.57 290.558C1066.44 289.991 1064.17 289.991 1063.03 290.558L913.163 376.749L905.784 372.213C904.648 371.646 904.648 370.512 906.351 369.378L1063.03 279.217C1064.74 278.65 1066.44 278.083 1067.57 279.217L1221.42 367.677C1222.55 368.244 1222.55 369.378 1220.85 370.512L1213.47 374.481L1067.57 290.558Z" fill="#251C72"/>
<path opacity="0.7" d="M1221.42 370.512C1223.12 369.945 1223.12 368.244 1221.99 367.677L1067.57 279.217C1066.44 278.65 1064.17 278.65 1063.03 279.217L906.351 369.378C904.648 369.945 904.648 371.646 905.784 372.213L1059.63 460.672C1060.76 461.239 1063.03 461.239 1064.17 460.672L1221.42 370.512Z" fill="#42E8E0"/>
<path d="M1072.68 445.927L1229.93 355.199C1233.34 353.498 1235.04 350.663 1235.04 348.395V320.042L1229.93 324.579L1225.39 321.744C1225.96 321.177 1226.53 320.61 1225.96 320.61C1225.96 320.042 1223.69 316.64 1223.69 316.64L1112.42 251.43L1077.23 231.016L1063.6 227.047L901.809 320.042L902.377 324.012L897.836 326.28L891.023 323.445V351.797C891.023 354.065 892.159 355.766 894.43 357.468L1051.11 447.628C1057.36 449.896 1066.44 449.329 1072.68 445.927ZM1136.83 376.18L1065.3 415.306L1059.06 414.739L939.845 348.395L906.919 331.383L1062.47 241.79C1064.17 241.223 1065.87 240.656 1067.01 241.79L1218.01 329.115L1136.83 376.18Z" fill="url(#paint21_linear)"/>
<path d="M1072.68 445.927L1229.93 355.199C1233.34 353.498 1235.04 350.663 1235.04 348.395V320.042L1229.93 324.579L1225.39 321.744C1225.96 321.177 1226.53 320.61 1225.96 320.61C1225.96 320.042 1223.69 316.64 1223.69 316.64L1112.42 251.43L1077.23 231.016L1063.6 227.047L901.809 320.042L902.377 324.012L897.836 326.28L891.023 323.445V351.797C891.023 354.065 892.159 355.766 894.43 357.468L1051.11 447.628C1057.36 449.896 1066.44 449.329 1072.68 445.927ZM1136.83 376.18L1065.3 415.306L1059.06 414.739L939.845 348.395L906.919 331.383L1062.47 241.79C1064.17 241.223 1065.87 240.656 1067.01 241.79L1218.01 329.115L1136.83 376.18Z" fill="url(#paint22_linear)"/>
<path opacity="0.6" d="M1061.33 448.763V414.74H1065.3L1136.83 375.614L1218.58 327.982L1215.74 326.281C1218.01 324.58 1232.77 320.611 1235.04 319.477V345.561V347.829C1235.04 350.097 1233.34 352.932 1229.93 354.633L1072.68 445.361C1069.85 447.629 1065.3 448.763 1061.33 448.763Z" fill="#0F054C"/>
<path d="M1072.68 417.008L1229.93 326.281C1236.18 322.879 1236.75 317.208 1231.64 314.373L1074.95 224.213C1069.28 220.81 1060.19 221.377 1053.95 225.347L896.7 316.074C890.455 319.476 889.887 325.147 894.997 327.982L1051.68 418.142C1057.36 420.978 1066.44 420.978 1072.68 417.008ZM1064.17 411.905C1062.47 412.472 1060.76 413.039 1059.63 411.905L905.783 323.446C904.647 322.879 904.647 321.745 906.35 320.61L1063.03 230.45C1064.74 229.883 1066.44 229.316 1067.57 230.45L1221.42 318.909C1222.55 319.476 1222.55 320.61 1220.85 321.744L1064.17 411.905Z" fill="url(#paint23_linear)"/>
<path d="M1072.68 417.008L1229.93 326.281C1236.18 322.879 1236.75 317.208 1231.64 314.373L1074.95 224.213C1069.28 220.81 1060.19 221.377 1053.95 225.347L896.7 316.074C890.455 319.476 889.887 325.147 894.997 327.982L1051.68 418.142C1057.36 420.978 1066.44 420.978 1072.68 417.008ZM1064.17 411.905C1062.47 412.472 1060.76 413.039 1059.63 411.905L905.783 323.446C904.647 322.879 904.647 321.745 906.35 320.61L1063.03 230.45C1064.74 229.883 1066.44 229.316 1067.57 230.45L1221.42 318.909C1222.55 319.476 1222.55 320.61 1220.85 321.744L1064.17 411.905Z" fill="url(#paint24_linear)"/>
<path d="M1221.42 317.21L1067.58 228.75C1066.44 228.183 1064.17 228.183 1063.03 228.75L905.784 318.911C904.649 319.478 904.081 320.612 904.648 321.179C904.648 321.179 905.216 320.612 905.784 320.612L1062.47 230.452C1064.17 229.885 1065.87 229.318 1067.01 230.452L1220.85 318.911L1221.42 319.478C1222.55 318.344 1222.55 317.777 1221.42 317.21Z" fill="#42E8E0"/>
<path d="M1230.5 325.149L1073.25 415.876C1067.01 419.279 1057.36 419.846 1052.25 417.01L895.564 326.85C893.293 325.716 892.158 324.015 892.158 322.314C891.59 324.582 892.725 326.85 895.564 328.551L1052.25 418.711C1057.92 422.114 1067.01 421.547 1073.25 417.577L1230.5 326.85C1234.47 324.582 1236.18 321.747 1235.61 319.479C1235.04 321.18 1233.34 323.448 1230.5 325.149Z" fill="#42E8E0"/>
<path d="M1067.57 241.224C1066.44 240.657 1064.17 240.657 1063.03 241.224L913.163 327.982L905.784 323.445C904.648 322.878 904.648 321.744 906.351 320.61L1063.03 230.45C1064.74 229.883 1066.44 229.316 1067.57 230.45L1221.42 318.909C1222.55 319.476 1222.55 320.61 1220.85 321.744L1213.47 325.713L1067.57 241.224Z" fill="#251C72"/>
<path opacity="0.7" d="M1221.42 321.744C1223.12 321.177 1223.12 319.476 1221.99 318.909L1068.14 230.45C1067.01 229.883 1064.74 229.883 1063.6 230.45L906.92 320.61C905.216 321.177 905.216 322.878 906.352 323.445L1060.2 411.904C1061.33 412.472 1063.6 412.472 1064.74 411.904L1221.42 321.744Z" fill="#42E8E0"/>
<path d="M1200.98 358.6C1200.98 360.302 1199.85 362.003 1198.14 363.137C1197.01 363.704 1195.3 363.137 1195.3 361.436C1195.3 359.734 1196.44 358.033 1198.14 356.899C1199.85 356.332 1200.98 356.899 1200.98 358.6Z" fill="#42E8E0"/>
<path d="M1210.06 353.498C1210.06 355.199 1208.93 356.9 1207.22 358.034C1206.09 358.601 1204.38 358.034 1204.38 356.333C1204.38 354.632 1205.52 352.931 1207.22 351.797C1208.93 351.23 1210.06 351.797 1210.06 353.498Z" fill="#42E8E0"/>
<path d="M1218.58 348.394C1218.58 350.095 1217.44 351.797 1215.74 352.931C1214.61 353.498 1212.9 352.931 1212.9 351.229C1212.9 349.528 1214.04 347.827 1215.74 346.693C1217.44 346.126 1218.58 346.693 1218.58 348.394Z" fill="#42E8E0"/>
<path d="M1200.98 408.5C1200.98 410.202 1199.85 411.903 1198.14 413.037C1197.01 413.604 1195.3 413.037 1195.3 411.336C1195.3 409.634 1196.44 407.933 1198.14 406.799C1199.85 406.232 1200.98 407.366 1200.98 408.5Z" fill="#42E8E0"/>
<path d="M1210.06 403.399C1210.06 405.1 1208.93 406.801 1207.22 407.935C1206.09 408.502 1204.38 407.935 1204.38 406.234C1204.38 404.533 1205.52 402.832 1207.22 401.698C1208.93 401.131 1210.06 401.698 1210.06 403.399Z" fill="#42E8E0"/>
<path d="M1218.58 398.296C1218.58 399.997 1217.44 401.698 1215.74 402.832C1214.61 403.399 1212.9 402.832 1212.9 401.131C1212.9 399.43 1214.04 397.729 1215.74 396.594C1217.44 396.027 1218.58 396.594 1218.58 398.296Z" fill="#42E8E0"/>
<path d="M1200.98 505.467C1200.98 507.168 1199.85 508.87 1198.14 510.004C1197.01 510.571 1195.3 510.004 1195.3 508.303C1195.3 506.601 1196.44 504.9 1198.14 503.766C1199.85 503.199 1200.98 503.766 1200.98 505.467Z" fill="#706EC4"/>
<path d="M1210.06 500.364C1210.06 502.065 1208.93 503.766 1207.22 504.9C1206.09 505.467 1204.38 504.9 1204.38 503.199C1204.38 501.498 1205.52 499.797 1207.22 498.663C1208.93 497.528 1210.06 498.663 1210.06 500.364Z" fill="#706EC4"/>
<path d="M1218.58 494.694C1218.58 496.395 1217.44 498.096 1215.74 499.23C1214.61 499.797 1212.9 499.23 1212.9 497.529C1212.9 495.828 1214.04 494.127 1215.74 492.993C1217.44 492.426 1218.58 493.56 1218.58 494.694Z" fill="#706EC4"/>
</g>
<defs>
<radialGradient id="paint0_radial" cx="0" cy="0" r="1" gradientUnits="userSpaceOnUse" gradientTransform="translate(1063.45 604.933) scale(198.405 198.18)">
<stop stop-color="#03002D"/>
<stop offset="0.1597" stop-color="#413F61"/>
<stop offset="0.3263" stop-color="#7A7890"/>
<stop offset="0.4878" stop-color="#AAA9B8"/>
<stop offset="0.6398" stop-color="#CFCED7"/>
<stop offset="0.78" stop-color="#E9E9ED"/>
<stop offset="0.9044" stop-color="#F9F9FA"/>
<stop offset="1" stop-color="white"/>
</radialGradient>
<linearGradient id="paint1_linear" x1="745.67" y1="671.727" x2="1288.85" y2="671.727" gradientUnits="userSpaceOnUse">
<stop stop-color="#706EC4"/>
<stop offset="0.0222208" stop-color="#6D6BC2"/>
<stop offset="0.2509" stop-color="#5651AC"/>
<stop offset="0.4865" stop-color="#463F9D"/>
<stop offset="0.7314" stop-color="#3C3494"/>
<stop offset="1" stop-color="#393091"/>
</linearGradient>
<linearGradient id="paint2_linear" x1="899.39" y1="598.413" x2="1225.42" y2="598.413" gradientUnits="userSpaceOnUse">
<stop stop-color="#42E8E0"/>
<stop offset="0.1507" stop-color="#43E3E0"/>
<stop offset="0.3285" stop-color="#45D5DF"/>
<stop offset="0.5199" stop-color="#49BDDD"/>
<stop offset="0.7209" stop-color="#4E9CDB"/>
<stop offset="0.9274" stop-color="#5472D8"/>
<stop offset="1" stop-color="#5761D7"/>
</linearGradient>
<linearGradient id="paint3_linear" x1="1062.4" y1="539.555" x2="1225.42" y2="539.555" gradientUnits="userSpaceOnUse">
<stop stop-color="#42E8E0"/>
<stop offset="0.1507" stop-color="#43E3E0"/>
<stop offset="0.3285" stop-color="#45D5DF"/>
<stop offset="0.5199" stop-color="#49BDDD"/>
<stop offset="0.7209" stop-color="#4E9CDB"/>
<stop offset="0.9274" stop-color="#5472D8"/>
<stop offset="1" stop-color="#5761D7"/>
</linearGradient>
<linearGradient id="paint4_linear" x1="899.39" y1="539.553" x2="1062.41" y2="539.553" gradientUnits="userSpaceOnUse">
<stop stop-color="#42E8E0"/>
<stop offset="0.1507" stop-color="#43E3E0"/>
<stop offset="0.3285" stop-color="#45D5DF"/>
<stop offset="0.5199" stop-color="#49BDDD"/>
<stop offset="0.7209" stop-color="#4E9CDB"/>
<stop offset="0.9274" stop-color="#5472D8"/>
<stop offset="1" stop-color="#5761D7"/>
</linearGradient>
<linearGradient id="paint5_linear" x1="899.39" y1="574.706" x2="1225.42" y2="574.706" gradientUnits="userSpaceOnUse">
<stop stop-color="#42E8E0"/>
<stop offset="0.1507" stop-color="#43E3E0"/>
<stop offset="0.3285" stop-color="#45D5DF"/>
<stop offset="0.5199" stop-color="#49BDDD"/>
<stop offset="0.7209" stop-color="#4E9CDB"/>
<stop offset="0.9274" stop-color="#5472D8"/>
<stop offset="1" stop-color="#5761D7"/>
</linearGradient>
<linearGradient id="paint6_linear" x1="1062.41" y1="633.563" x2="1225.42" y2="633.563" gradientUnits="userSpaceOnUse">
<stop stop-color="#42E8E0"/>
<stop offset="0.1507" stop-color="#43E3E0"/>
<stop offset="0.3285" stop-color="#45D5DF"/>
<stop offset="0.5199" stop-color="#49BDDD"/>
<stop offset="0.7209" stop-color="#4E9CDB"/>
<stop offset="0.9274" stop-color="#5472D8"/>
<stop offset="1" stop-color="#5761D7"/>
</linearGradient>
<linearGradient id="paint7_linear" x1="899.39" y1="633.561" x2="1062.41" y2="633.561" gradientUnits="userSpaceOnUse">
<stop stop-color="#42E8E0"/>
<stop offset="0.1507" stop-color="#43E3E0"/>
<stop offset="0.3285" stop-color="#45D5DF"/>
<stop offset="0.5199" stop-color="#49BDDD"/>
<stop offset="0.7209" stop-color="#4E9CDB"/>
<stop offset="0.9274" stop-color="#5472D8"/>
<stop offset="1" stop-color="#5761D7"/>
</linearGradient>
<linearGradient id="paint8_linear" x1="899.75" y1="583.614" x2="1225.2" y2="583.614" gradientUnits="userSpaceOnUse">
<stop stop-color="#42E8E0"/>
<stop offset="0.1507" stop-color="#43E3E0"/>
<stop offset="0.3285" stop-color="#45D5DF"/>
<stop offset="0.5199" stop-color="#49BDDD"/>
<stop offset="0.7209" stop-color="#4E9CDB"/>
<stop offset="0.9274" stop-color="#5472D8"/>
<stop offset="1" stop-color="#5761D7"/>
</linearGradient>
<linearGradient id="paint9_linear" x1="1034.22" y1="432.538" x2="1113.95" y2="571.12" gradientUnits="userSpaceOnUse">
<stop stop-color="#BCBEFF"/>
<stop offset="0.1659" stop-color="#B6B8FC"/>
<stop offset="0.3956" stop-color="#A4A8F5"/>
<stop offset="0.6625" stop-color="#868DEA"/>
<stop offset="0.9554" stop-color="#5E67DA"/>
<stop offset="1" stop-color="#5761D7"/>
</linearGradient>
<linearGradient id="paint10_linear" x1="1034.22" y1="432.538" x2="1113.95" y2="571.12" gradientUnits="userSpaceOnUse">
<stop stop-color="#706EC4"/>
<stop offset="0.0222208" stop-color="#6D6BC2"/>
<stop offset="0.2509" stop-color="#5651AC"/>
<stop offset="0.4865" stop-color="#463F9D"/>
<stop offset="0.7314" stop-color="#3C3494"/>
<stop offset="1" stop-color="#393091"/>
</linearGradient>
<linearGradient id="paint11_linear" x1="1019.53" y1="391.911" x2="1107.31" y2="544.485" gradientUnits="userSpaceOnUse">
<stop stop-color="#BCBEFF"/>
<stop offset="0.1659" stop-color="#B6B8FC"/>
<stop offset="0.3956" stop-color="#A4A8F5"/>
<stop offset="0.6625" stop-color="#868DEA"/>
<stop offset="0.9554" stop-color="#5E67DA"/>
<stop offset="1" stop-color="#5761D7"/>
</linearGradient>
<linearGradient id="paint12_linear" x1="1007.39" y1="370.85" x2="1165.76" y2="646.117" gradientUnits="userSpaceOnUse">
<stop stop-color="#706EC4"/>
<stop offset="0.0222208" stop-color="#6D6BC2"/>
<stop offset="0.2509" stop-color="#5651AC"/>
<stop offset="0.4865" stop-color="#463F9D"/>
<stop offset="0.7314" stop-color="#3C3494"/>
<stop offset="1" stop-color="#393091"/>
</linearGradient>
<linearGradient id="paint13_linear" x1="1034.22" y1="383.523" x2="1113.95" y2="522.105" gradientUnits="userSpaceOnUse">
<stop stop-color="#BCBEFF"/>
<stop offset="0.1659" stop-color="#B6B8FC"/>
<stop offset="0.3956" stop-color="#A4A8F5"/>
<stop offset="0.6625" stop-color="#868DEA"/>
<stop offset="0.9554" stop-color="#5E67DA"/>
<stop offset="1" stop-color="#5761D7"/>
</linearGradient>
<linearGradient id="paint14_linear" x1="1034.22" y1="383.523" x2="1113.95" y2="522.105" gradientUnits="userSpaceOnUse">
<stop stop-color="#706EC4"/>
<stop offset="0.0222208" stop-color="#6D6BC2"/>
<stop offset="0.2509" stop-color="#5651AC"/>
<stop offset="0.4865" stop-color="#463F9D"/>
<stop offset="0.7314" stop-color="#3C3494"/>
<stop offset="1" stop-color="#393091"/>
</linearGradient>
<linearGradient id="paint15_linear" x1="1019.53" y1="342.897" x2="1107.31" y2="495.471" gradientUnits="userSpaceOnUse">
<stop stop-color="#BCBEFF"/>
<stop offset="0.1659" stop-color="#B6B8FC"/>
<stop offset="0.3956" stop-color="#A4A8F5"/>
<stop offset="0.6625" stop-color="#868DEA"/>
<stop offset="0.9554" stop-color="#5E67DA"/>
<stop offset="1" stop-color="#5761D7"/>
</linearGradient>
<linearGradient id="paint16_linear" x1="1007.39" y1="321.836" x2="1165.76" y2="597.104" gradientUnits="userSpaceOnUse">
<stop stop-color="#706EC4"/>
<stop offset="0.0222208" stop-color="#6D6BC2"/>
<stop offset="0.2509" stop-color="#5651AC"/>
<stop offset="0.4865" stop-color="#463F9D"/>
<stop offset="0.7314" stop-color="#3C3494"/>
<stop offset="1" stop-color="#393091"/>
</linearGradient>
<linearGradient id="paint17_linear" x1="1034.22" y1="334.514" x2="1113.95" y2="473.096" gradientUnits="userSpaceOnUse">
<stop stop-color="#BCBEFF"/>
<stop offset="0.1659" stop-color="#B6B8FC"/>
<stop offset="0.3956" stop-color="#A4A8F5"/>
<stop offset="0.6625" stop-color="#868DEA"/>
<stop offset="0.9554" stop-color="#5E67DA"/>
<stop offset="1" stop-color="#5761D7"/>
</linearGradient>
<linearGradient id="paint18_linear" x1="1034.22" y1="334.514" x2="1113.95" y2="473.096" gradientUnits="userSpaceOnUse">
<stop stop-color="#706EC4"/>
<stop offset="0.0222208" stop-color="#6D6BC2"/>
<stop offset="0.2509" stop-color="#5651AC"/>
<stop offset="0.4865" stop-color="#463F9D"/>
<stop offset="0.7314" stop-color="#3C3494"/>
<stop offset="1" stop-color="#393091"/>
</linearGradient>
<linearGradient id="paint19_linear" x1="1019.53" y1="293.887" x2="1107.31" y2="446.46" gradientUnits="userSpaceOnUse">
<stop stop-color="#BCBEFF"/>
<stop offset="0.1659" stop-color="#B6B8FC"/>
<stop offset="0.3956" stop-color="#A4A8F5"/>
<stop offset="0.6625" stop-color="#868DEA"/>
<stop offset="0.9554" stop-color="#5E67DA"/>
<stop offset="1" stop-color="#5761D7"/>
</linearGradient>
<linearGradient id="paint20_linear" x1="1007.39" y1="272.826" x2="1165.76" y2="548.093" gradientUnits="userSpaceOnUse">
<stop stop-color="#706EC4"/>
<stop offset="0.0222208" stop-color="#6D6BC2"/>
<stop offset="0.2509" stop-color="#5651AC"/>
<stop offset="0.4865" stop-color="#463F9D"/>
<stop offset="0.7314" stop-color="#3C3494"/>
<stop offset="1" stop-color="#393091"/>
</linearGradient>
<linearGradient id="paint21_linear" x1="1034.22" y1="285.499" x2="1113.95" y2="424.081" gradientUnits="userSpaceOnUse">
<stop stop-color="#BCBEFF"/>
<stop offset="0.1659" stop-color="#B6B8FC"/>
<stop offset="0.3956" stop-color="#A4A8F5"/>
<stop offset="0.6625" stop-color="#868DEA"/>
<stop offset="0.9554" stop-color="#5E67DA"/>
<stop offset="1" stop-color="#5761D7"/>
</linearGradient>
<linearGradient id="paint22_linear" x1="1034.22" y1="285.499" x2="1113.95" y2="424.081" gradientUnits="userSpaceOnUse">
<stop stop-color="#706EC4"/>
<stop offset="0.0222208" stop-color="#6D6BC2"/>
<stop offset="0.2509" stop-color="#5651AC"/>
<stop offset="0.4865" stop-color="#463F9D"/>
<stop offset="0.7314" stop-color="#3C3494"/>
<stop offset="1" stop-color="#393091"/>
</linearGradient>
<linearGradient id="paint23_linear" x1="1019.53" y1="244.874" x2="1107.31" y2="397.448" gradientUnits="userSpaceOnUse">
<stop stop-color="#BCBEFF"/>
<stop offset="0.1659" stop-color="#B6B8FC"/>
<stop offset="0.3956" stop-color="#A4A8F5"/>
<stop offset="0.6625" stop-color="#868DEA"/>
<stop offset="0.9554" stop-color="#5E67DA"/>
<stop offset="1" stop-color="#5761D7"/>
</linearGradient>
<linearGradient id="paint24_linear" x1="1007.39" y1="223.813" x2="1165.76" y2="499.08" gradientUnits="userSpaceOnUse">
<stop stop-color="#706EC4"/>
<stop offset="0.0222208" stop-color="#6D6BC2"/>
<stop offset="0.2509" stop-color="#5651AC"/>
<stop offset="0.4865" stop-color="#463F9D"/>
<stop offset="0.7314" stop-color="#3C3494"/>
<stop offset="1" stop-color="#393091"/>
</linearGradient>
</defs>
</svg>
