<svg width="48" height="28" viewBox="0 0 48 28" fill="none" xmlns="http://www.w3.org/2000/svg">
<g clip-path="url(#clip0)">
<path d="M6.81188 27.9997C6.75908 27.9997 6.70627 27.9997 6.65347 27.9997C6.44224 27.9468 6.33663 27.841 6.28383 27.7351L0.105611 18.2606C0 18.1548 0 17.996 0 17.8372C0 17.6784 0 17.3608 0 16.9374C0 14.6614 0 14.6614 0.369637 14.5555L0.528053 15.0319L1.05611 15.0848C1.05611 15.2436 1.05611 16.2493 1.05611 16.8844C1.05611 17.3608 1.05611 17.6255 1.05611 17.7842L6.9703 26.8353L8.92409 26.1472C8.92409 25.4591 8.92409 23.8183 8.92409 23.6595H9.45214L9.92739 23.3419C10.1386 23.6065 9.9802 26.7824 9.92739 26.7824C9.87459 26.9411 9.71617 27.047 9.55776 27.0999L7.07591 27.9468C6.9703 27.9997 6.91749 27.9997 6.81188 27.9997ZM6.70627 26.9411C6.70627 26.9411 6.70627 26.9941 6.70627 26.9411V26.9411ZM19.538 23.3948C18.9043 23.3948 18.3234 23.289 17.7426 23.0243L7.0231 18.5253C6.75908 18.4194 6.44224 18.4194 6.17822 18.5253L5.86139 17.5196C6.38944 17.3608 6.91749 17.3608 7.44554 17.5725L18.165 22.0716C19.0627 22.4421 19.9076 22.4421 20.8581 22.1245L25.6634 20.4837C25.6634 19.7956 25.6634 18.1548 25.6634 17.996H26.1914L26.6667 17.6784C26.8779 17.996 26.7195 21.0659 26.7195 21.0659C26.6667 21.2247 26.5083 21.3306 26.3498 21.3835L21.2805 23.1302C20.6469 23.289 20.066 23.3948 19.538 23.3948ZM20.4356 18.1548L16.7921 12.5442C16.6865 12.3854 16.6865 12.2266 16.6865 12.1207C16.6865 12.0149 16.6865 11.6973 16.6865 11.2738C16.6865 8.94492 16.6865 8.94492 17.0561 8.78613L17.2145 9.2625L17.7426 9.31543C17.7426 9.47422 17.7426 10.5858 17.7426 11.2209C17.7426 11.6444 17.7426 11.8561 17.7426 12.0149L21.3333 17.4667L20.4356 18.1548Z" fill="white"/>
<path d="M30.3101 19.637C30.2572 19.637 30.2044 19.637 30.1516 19.637C29.9932 19.5841 29.8348 19.4782 29.782 19.3724L28.3035 17.414C28.1978 17.2552 28.145 17.0964 28.1978 16.9376C28.1978 16.8317 28.1978 16.5142 28.1978 16.1966C28.1978 15.6144 28.1978 15.1909 28.1978 14.9263C27.9338 14.8733 27.6698 14.8204 27.4058 14.7675C26.1912 14.4499 25.2407 13.8677 24.7127 13.0208L24.6071 12.862C24.2903 12.3327 24.1318 11.8563 24.1318 11.327V11.2212C24.1318 8.4688 24.1318 8.41587 24.1318 8.41587L25.1879 8.4688C25.1879 8.57466 25.1879 10.7977 25.1879 11.2212V11.327C25.1879 11.6446 25.2936 11.9622 25.5048 12.2798L25.6104 12.4386C26.0328 13.0737 26.7193 13.4972 27.7226 13.7618C28.5147 13.9735 29.2539 13.9735 30.046 13.8147L30.7325 13.603L31.0493 14.6087C30.7853 14.7145 30.5213 14.7675 30.3101 14.8204L29.3596 15.0851C29.3596 15.4026 29.3596 15.879 29.3596 16.1966C29.3596 16.5671 29.3596 16.7788 29.3596 16.9376L30.5741 18.5784L44.9371 13.6559C45.8876 13.3384 46.5213 12.862 46.8381 12.1739C46.9965 11.9093 47.0493 11.5917 47.0493 11.3799V11.2741C47.0493 10.7977 47.0493 8.62759 47.0493 8.4688L48.1054 8.41587C48.1054 8.41587 48.1054 8.4688 48.1054 11.2212V11.327C48.1054 11.7505 47.9998 12.1739 47.7886 12.6503C47.3134 13.5501 46.4685 14.2382 45.2539 14.6616L30.5213 19.5841C30.4157 19.5841 30.3629 19.637 30.3101 19.637ZM42.9305 5.55764L42.5609 4.55197C42.4553 4.6049 42.4025 4.65783 42.3497 4.76369C42.2969 4.92248 42.2969 5.08127 42.3497 5.24006L42.244 5.1342V2.27598H42.5609L43.1417 1.85254L43.353 2.11719V4.92248C43.353 5.02834 43.353 5.18713 43.3002 5.29299C43.1945 5.39885 43.0889 5.50471 42.9305 5.55764Z" fill="white"/>
<path d="M6.81176 25.1414C6.75895 25.1414 6.70615 25.1414 6.65334 25.1414C6.49493 25.0884 6.33651 24.9826 6.28371 24.8767L0.105489 15.4022C-0.000121366 15.1905 -0.0529266 14.9788 0.0526839 14.7671C0.105489 14.6083 0.263905 14.5024 0.422321 14.4495L5.49163 12.7028C6.70615 12.3323 7.86786 12.3852 8.97678 12.8087L19.6434 17.3077C19.9075 17.4136 20.2243 17.4136 20.4883 17.3607L21.5972 16.9901L16.792 9.6858C16.6863 9.52701 16.6335 9.26236 16.7391 9.10357C16.792 8.99771 16.8976 8.83892 17.1088 8.78599L19.5906 7.93911C19.6962 7.88618 19.8547 7.88618 19.9603 7.93911C20.1187 7.99204 20.2771 8.0979 20.3299 8.20376L26.5081 17.6253C26.6137 17.7841 26.6137 18.0488 26.5609 18.2075C26.5081 18.3663 26.3497 18.4722 26.1913 18.5251L21.122 20.2718C19.9075 20.6423 18.7458 20.6423 17.6368 20.166L6.97017 15.6669C6.70615 15.561 6.38932 15.561 6.12529 15.6669L5.01638 16.0374L9.82166 23.3418C9.92727 23.5005 9.92727 23.7652 9.87446 23.924C9.82166 24.0828 9.66324 24.1886 9.50483 24.2416L7.02298 25.0884C6.97017 25.0884 6.91737 25.1414 6.81176 25.1414ZM1.32001 15.2964L7.02298 23.9769L8.71275 23.3947L3.48503 15.4552L5.86126 14.6612C6.38932 14.5024 6.91737 14.5024 7.44542 14.7142L18.1649 19.2132C19.0626 19.5837 19.9075 19.5837 20.858 19.2661L25.3992 17.7312L19.6962 8.99771L18.0065 9.57994L23.2342 17.5195L20.858 18.3134C20.3299 18.4722 19.8019 18.4722 19.2738 18.2605L8.60714 13.7614C7.70945 13.3909 6.86456 13.3909 5.91407 13.6556L1.32001 15.2964Z" fill="white"/>
<path d="M30.2574 16.7259C30.2046 16.7259 30.1518 16.7259 30.099 16.7259C29.9406 16.673 29.7822 16.5671 29.7294 16.4612L28.7789 14.9792C28.6733 14.7675 28.6733 14.5558 28.7261 14.397C28.8317 14.2382 28.9373 14.1323 29.0957 14.0794L43.7228 8.99811C43.9868 8.89225 44.0396 8.78639 44.0924 8.73346C44.1452 8.68053 44.1452 8.6276 44.0924 8.57467L43.6172 7.88658C43.5644 7.78072 43.406 7.67486 43.1947 7.62193C42.9835 7.569 42.7195 7.569 42.5083 7.62193L30.8383 11.6446C29.6766 12.0681 28.4621 12.0681 27.3003 11.8034C26.0858 11.4858 25.1353 10.9036 24.6073 10.0567L24.5017 9.89792C23.9208 8.99811 23.868 7.99244 24.3433 7.0397C24.8185 6.13989 25.6634 5.4518 26.8779 5.02836L41.505 0C41.6106 0 41.769 0 41.8746 0C42.0858 0.0529301 42.1914 0.15879 42.2442 0.26465L43.1947 1.74669C43.3003 1.95841 43.3003 2.17013 43.2475 2.32892C43.1947 2.48771 43.0363 2.59357 42.8779 2.6465L28.2508 7.67486C27.9868 7.78072 27.934 7.93951 27.934 7.93951C27.8812 7.99244 27.8812 8.04537 27.934 8.0983L28.3565 8.78639C28.4093 8.83932 28.4621 8.94518 28.7789 9.05104C28.9901 9.10397 29.2541 9.10397 29.4654 9.05104L41.1353 5.02836C42.297 4.60492 43.5116 4.60491 44.6733 4.86957C45.8878 5.18715 46.8383 5.76938 47.4192 6.66919L47.5248 6.82798C48.1056 7.72779 48.1584 8.73346 47.6832 9.6862C47.2079 10.586 46.363 11.2741 45.1485 11.6975L30.5215 16.7259C30.4159 16.7259 30.3631 16.7259 30.2574 16.7259ZM29.9406 14.8733L30.4159 15.6144L44.7789 10.6919C45.7294 10.3743 46.363 9.89792 46.6799 9.20983C46.9967 8.57467 46.9439 7.99244 46.5743 7.41021L46.4687 7.25142C46.0462 6.61626 45.3597 6.13989 44.3564 5.92817C43.3531 5.66352 42.3498 5.71645 41.3994 6.03403L29.7822 10.0567C29.3598 10.2155 28.9373 10.2155 28.5149 10.1096C28.0396 10.0038 27.7228 9.73913 27.4588 9.42155L27.0363 8.73346C26.7723 8.36295 26.7723 7.88658 26.9835 7.51607C27.1947 7.14556 27.5116 6.88091 27.934 6.72212L42.033 1.90548L41.5578 1.16446L27.1947 6.08696C26.2442 6.40454 25.6106 6.88091 25.2937 7.569C24.9769 8.20416 25.0297 8.78639 25.3994 9.36862L25.505 9.52741C25.9274 10.1626 26.6139 10.586 27.6172 10.8507C28.6205 11.1153 29.6238 11.0624 30.5743 10.7448L42.2442 6.72212C42.6667 6.56333 43.0891 6.56333 43.5116 6.66919C43.9868 6.77505 44.3036 7.0397 44.5677 7.35728L45.0429 8.04537C45.3069 8.41588 45.3069 8.83932 45.0957 9.26276C44.8845 9.63327 44.5677 9.89792 44.1452 10.0567L29.9406 14.8733Z" fill="white"/>
<path d="M7.34029 24.6123H6.28418V27.4705H7.34029V24.6123Z" fill="white"/>
<path d="M30.9438 16.1963H29.8877V19.0545H30.9438V16.1963Z" fill="white"/>
</g>
<defs>
<clipPath id="clip0">
<rect width="48" height="28" fill="white"/>
</clipPath>
</defs>
</svg>
