<svg width="31" height="32" viewBox="0 0 31 32" fill="none" xmlns="http://www.w3.org/2000/svg">
<g clip-path="url(#clip0)">
<path d="M5.54137 4.39062H5.53405C4.41278 4.40703 3.50082 5.33304 3.50082 6.45485V9.40469H0.456281C0.204285 9.40469 0 9.60898 0 9.86097C0 10.113 0.204285 10.3173 0.456281 10.3173H3.50088V12.7162H0.456281C0.204285 12.7162 0 12.9205 0 13.1725C0 13.4245 0.204285 13.6288 0.456281 13.6288H3.50088V16.0277H0.456281C0.204285 16.0278 0 16.2321 0 16.4841C0 16.7361 0.204285 16.9404 0.456281 16.9404H3.50088V19.3393H0.456281C0.204285 19.3393 0 19.5436 0 19.7956C0 20.0476 0.204285 20.2518 0.456281 20.2518H3.50088V22.6508H0.456281C0.204285 22.6508 0 22.8551 0 23.1071C0 23.3591 0.204285 23.5634 0.456281 23.5634H3.50088V25.1237C3.50088 25.3756 3.70529 25.58 3.95716 25.58C4.20904 25.58 4.41344 25.3756 4.41344 25.1237V6.45491C4.41344 5.82886 4.92204 5.31239 5.54809 5.30264C5.79997 5.29901 6.00135 5.09212 5.99711 4.83964C5.99341 4.59019 5.79022 4.39062 5.54137 4.39062Z" fill="white"/>
<path d="M24.8345 27.4763H5.56583C5.09556 27.4763 4.677 27.1952 4.49875 26.7602C4.40321 26.5266 4.13735 26.4153 3.90376 26.5107C3.67011 26.6063 3.55882 26.8728 3.65431 27.1057C3.97309 27.8851 4.72326 28.3888 5.56583 28.3888H8.4208V31.5277C8.4208 31.7797 8.62508 31.9839 8.87708 31.9839C9.12908 31.9839 9.33336 31.7797 9.33336 31.5277V28.3888H11.7323V31.5277C11.7323 31.7797 11.9366 31.9839 12.1886 31.9839C12.4406 31.9839 12.6449 31.7797 12.6449 31.5277V28.3888H15.0438V31.5277C15.0438 31.7797 15.2481 31.9839 15.5001 31.9839C15.7521 31.9839 15.9564 31.7797 15.9564 31.5277V28.3888H18.3553V31.5277C18.3553 31.7797 18.5596 31.9839 18.8116 31.9839C19.0636 31.9839 19.2679 31.7797 19.2679 31.5277V28.3888H21.6669V31.5277C21.6669 31.7797 21.8712 31.9839 22.1232 31.9839C22.3752 31.9839 22.5794 31.7797 22.5794 31.5277V28.3888H24.8345C25.0864 28.3888 25.2908 28.1844 25.2908 27.9325C25.2908 27.6801 25.0864 27.4763 24.8345 27.4763Z" fill="white"/>
<path d="M21.6887 8.74316H9.31179C8.50748 8.74316 7.85352 9.39719 7.85352 10.2014V22.579C7.85352 23.3833 8.50754 24.0372 9.31179 24.0372H21.6887C22.493 24.0372 23.147 23.3832 23.147 22.579V10.2014C23.147 9.39713 22.493 8.74316 21.6887 8.74316ZM8.76602 10.2014C8.76602 9.90028 9.01057 9.65573 9.31173 9.65573H18.7501V14.4212C17.9252 14.5994 17.2736 15.251 17.0954 16.076H13.7329V13.7362C14.5949 13.5677 15.2471 12.8065 15.2471 11.8958C15.2471 10.8621 14.4057 10.0208 13.3715 10.0208C12.4608 10.0208 11.6998 10.6729 11.5311 11.5344H8.76602V10.2014ZM19.2065 15.2851C19.8939 15.2851 20.4531 15.8448 20.4531 16.5323C20.4531 17.2198 19.894 17.7789 19.2065 17.7789C18.5141 17.7789 17.9593 17.2143 17.9593 16.5323C17.9593 15.849 18.5156 15.2851 19.2065 15.2851ZM13.3715 12.8588C12.8438 12.8588 12.4085 12.4297 12.4085 11.8958C12.4085 11.3653 12.8404 10.9333 13.3715 10.9333C13.9026 10.9333 14.3346 11.3653 14.3346 11.8958C14.3346 12.4315 13.8984 12.8588 13.3715 12.8588ZM11.401 20.3164C11.1363 20.1679 10.9575 19.8839 10.9575 19.5596C10.9575 19.0808 11.3474 18.6914 11.8262 18.6914C12.305 18.6914 12.6944 19.0808 12.6944 19.5596C12.6944 20.223 11.9768 20.6419 11.401 20.3164ZM15.0913 23.1247H12.03V21.3287C12.9164 21.2277 13.607 20.4727 13.607 19.5596C13.607 18.5776 12.8082 17.7788 11.8262 17.7788C10.8437 17.7788 10.0449 18.5776 10.0449 19.5596C10.0449 20.2896 10.4866 20.9193 11.1175 21.1937V23.1247H9.31179C9.01063 23.1247 8.76608 22.8795 8.76608 22.579V12.4469H11.5786C11.5825 12.4532 11.8277 13.3837 12.8203 13.6887V16.5323C12.8203 16.7842 13.0247 16.9886 13.2766 16.9886H15.0913V23.1247ZM22.2344 22.579C22.2344 22.8795 21.9899 23.1247 21.6887 23.1247H16.0039V21.1515H22.2344V22.579ZM22.2344 20.2389H16.0039V16.9886H17.0954C17.3053 17.9608 18.1722 18.6914 19.2065 18.6914C20.3971 18.6914 21.3656 17.7229 21.3656 16.5323C21.3656 15.498 20.635 14.6311 19.6628 14.4212C19.6628 14.4212 19.6627 14.4212 19.6626 14.4212V9.65573H21.6887C21.9898 9.65573 22.2344 9.90028 22.2344 10.2014V20.2389H22.2344Z" fill="white"/>
<path d="M30.5436 13.6292C30.7956 13.6292 30.9999 13.4249 30.9999 13.1729C30.9999 12.9209 30.7956 12.7166 30.5436 12.7166H27.499V10.3176H30.5436C30.7956 10.3176 30.9999 10.1133 30.9999 9.86133C30.9999 9.60934 30.7956 9.40505 30.5436 9.40505H27.499V6.45521C27.499 5.31693 26.5731 4.39038 25.4342 4.39038H22.5792V1.44066C22.5792 1.18866 22.3749 0.984375 22.1229 0.984375C21.8709 0.984375 21.6666 1.18866 21.6666 1.44066V4.39032H19.2677V1.44066C19.2677 1.18866 19.0634 0.984375 18.8114 0.984375C18.5594 0.984375 18.3551 1.18866 18.3551 1.44066V4.39032H15.9562V1.44066C15.9562 1.18866 15.7519 0.984375 15.4999 0.984375C15.2479 0.984375 15.0436 1.18866 15.0436 1.44066V4.39032H12.6447V1.44066C12.6447 1.18866 12.4404 0.984375 12.1884 0.984375C11.9364 0.984375 11.7321 1.18866 11.7321 1.44066V4.39032H9.33312V1.44066C9.33312 1.18866 9.12884 0.984375 8.87684 0.984375C8.62484 0.984375 8.42056 1.18866 8.42056 1.44066V4.39032H7.36644C7.11396 4.39032 6.91016 4.59472 6.91016 4.8466C6.91016 5.09847 7.11396 5.30288 7.36644 5.30288C9.75665 5.30288 23.5213 5.30288 25.4342 5.30288C26.0699 5.30288 26.5864 5.82001 26.5864 6.45515V26.3243C26.5864 26.6425 26.4599 26.9388 26.2293 27.1584C26.0468 27.3324 26.0395 27.6214 26.2135 27.8033C26.3036 27.8976 26.4234 27.9451 26.5439 27.9451C26.657 27.9451 26.7702 27.9031 26.859 27.8191C27.2715 27.4255 27.4991 26.8944 27.4991 26.3243V23.5637H30.5437C30.7957 23.5637 30.9999 23.3594 30.9999 23.1074C30.9999 22.8554 30.7957 22.6511 30.5437 22.6511H27.4991V20.2521H30.5437C30.7957 20.2521 30.9999 20.0479 30.9999 19.7959C30.9999 19.5439 30.7957 19.3396 30.5437 19.3396H27.4991V16.9407H30.5437C30.7957 16.9407 30.9999 16.7364 30.9999 16.4844C30.9999 16.2324 30.7957 16.0281 30.5437 16.0281H27.4991V13.6292H30.5436Z" fill="white"/>
</g>
<defs>
<clipPath id="clip0">
<rect width="31" height="31" fill="white" transform="translate(0 0.984375)"/>
</clipPath>
</defs>
</svg>
