<svg width="31" height="32" viewBox="0 0 31 32" fill="none" xmlns="http://www.w3.org/2000/svg">
<g clip-path="url(#clip0)">
<path d="M15.4866 1.01661C12.8004 1.01686 10.1606 1.71895 7.82919 3.05337C7.12458 2.39181 6.04628 2.33245 5.27291 2.91245C4.49967 3.49207 4.25472 4.54389 4.69216 5.40573C-0.623296 10.5764 -1.53131 18.7877 2.52565 24.9952C6.58249 31.2024 14.468 33.6664 21.3374 30.8732C28.2069 28.0799 32.1352 20.8123 30.7092 13.535C29.2831 6.2579 22.9022 1.01033 15.4866 1.01661ZM29.9884 16.031H26.9806C26.9019 14.2091 26.3892 12.4323 25.4849 10.8486C26.148 10.1152 26.1724 9.00642 25.5425 8.2446C24.9125 7.4829 23.8189 7.29881 22.9738 7.81217C21.0225 6.13016 18.5613 5.15476 15.9873 5.04395V2.02991C23.6044 2.30171 29.717 8.41375 29.9884 16.031ZM10.4818 20.5354C11.0347 20.5354 11.4827 20.9837 11.4827 21.5364C11.4827 22.0893 11.0347 22.5373 10.4818 22.5373C9.92894 22.5373 9.48083 22.0893 9.48083 21.5364C9.48083 20.9837 9.92894 20.5354 10.4818 20.5354ZM10.4818 19.5346C10.244 19.5362 10.0084 19.5809 9.78627 19.6663C9.33891 18.8543 9.07087 17.9561 9.00047 17.0323H12.0233C12.2465 18.5667 13.4517 19.7719 14.9862 19.9949V23.0179C14.0623 22.9474 13.164 22.6794 12.3522 22.2323C12.5874 21.6189 12.5043 20.9288 12.1298 20.3891C11.7558 19.8493 11.1386 19.5293 10.4818 19.5346ZM15.4866 19.0341C14.1047 19.0341 12.9843 17.9135 12.9843 16.5316C12.9843 15.1497 14.1047 14.0291 15.4866 14.0291C16.8688 14.0291 17.9892 15.1497 17.9892 16.5316C17.9878 17.913 16.8681 19.0322 15.4866 19.0341ZM14.9862 13.0683C13.4517 13.2914 12.2465 14.4966 12.0233 16.031H9.006C9.25521 12.8374 11.7924 10.3002 14.9862 10.0507V13.0683ZM15.9873 19.9949C16.6783 19.8952 17.3233 19.5905 17.8392 19.1201L20.1705 21.0361C19.0667 22.187 17.5772 22.8906 15.9873 23.0124V19.9949ZM18.4765 18.3482C18.722 17.9464 18.8831 17.4983 18.95 17.0323H21.9677C21.8796 18.1943 21.4789 19.3115 20.8076 20.2643L18.4765 18.3482ZM18.95 16.031C18.727 14.4966 17.5216 13.2914 15.9873 13.0683V10.0507C19.1812 10.3002 21.7185 12.8374 21.9677 16.031H18.95ZM14.9862 9.04972C11.2412 9.30408 8.25935 12.2856 8.00487 16.031H5.00211C5.26438 10.6293 9.58436 6.30935 14.9862 6.04684V9.04972ZM7.99759 17.0323C8.07301 18.1624 8.40404 19.2605 8.96597 20.2443C8.65438 20.6027 8.48172 21.0615 8.47983 21.5364C8.47983 22.6419 9.37618 23.5383 10.4818 23.5383C10.9569 23.5363 11.4156 23.3639 11.7741 23.0524C12.7578 23.6141 13.856 23.9453 14.9862 24.0208V27.0163C9.58436 26.7539 5.26438 22.4337 5.00211 17.0323H7.99759ZM15.9873 24.0135C17.8757 23.8883 19.6461 23.0517 20.9423 21.6722L22.1853 22.6941C21.9007 23.2831 21.9322 23.9758 22.269 24.5366C20.5073 26.036 18.298 26.9088 15.9873 27.0184V24.0135ZM22.9939 23.5383C22.9939 22.9857 23.4423 22.5373 23.9948 22.5373C24.5477 22.5373 24.9959 22.9857 24.9959 23.5383C24.9959 24.0912 24.5477 24.5393 23.9948 24.5393C23.4423 24.5393 22.9939 24.0912 22.9939 23.5383ZM24.6521 21.6559C24.037 21.4289 23.3488 21.5293 22.8239 21.9224L21.5803 20.8999C22.3964 19.7662 22.8776 18.4259 22.9687 17.0323H25.9795C25.9024 18.6558 25.4482 20.2388 24.6521 21.6559ZM22.9687 16.031C22.7143 12.2856 19.7325 9.30408 15.9873 9.04972V6.04684C18.2986 6.15626 20.5079 7.02902 22.2699 8.5287C22.091 8.83037 21.9956 9.17407 21.9929 9.52481C21.9929 10.6305 22.8894 11.5268 23.9948 11.5268C24.2193 11.5243 24.4414 11.4838 24.6521 11.4072C25.4482 12.8245 25.9024 14.4075 25.9795 16.031H22.9687ZM23.9948 10.5259C23.4423 10.5259 22.9939 10.0776 22.9939 9.52481C22.9939 8.97191 23.4423 8.52368 23.9948 8.52368C24.5477 8.52368 24.9959 8.97191 24.9959 9.52481C24.9959 10.0776 24.5477 10.5259 23.9948 10.5259ZM6.47796 3.51892C7.03072 3.51892 7.47883 3.96716 7.47883 4.5198C7.47883 5.07269 7.03072 5.5208 6.47796 5.5208C5.92506 5.5208 5.47695 5.07269 5.47695 4.5198C5.47695 3.96716 5.92506 3.51892 6.47796 3.51892ZM5.34607 6.16843C6.05017 6.66737 6.99621 6.65406 7.68626 6.13581C8.37656 5.61755 8.65338 4.71292 8.37079 3.89726C10.3932 2.75158 12.663 2.11248 14.9862 2.03455V5.03266C9.02607 5.29944 4.25447 10.0708 3.98819 16.031H0.985183C1.11983 12.3061 2.68088 8.7749 5.34607 6.16843ZM0.985183 17.0323H3.98819C4.25447 22.9925 9.02607 27.7637 14.9862 28.0303V31.0333C7.36878 30.7615 1.25673 24.6494 0.985183 17.0323ZM15.9873 31.0333V28.0193C18.5613 27.9085 21.0225 26.9331 22.9738 25.251C23.2817 25.4386 23.6348 25.5387 23.9948 25.5405C24.7836 25.544 25.5004 25.0824 25.8227 24.3624C26.1452 23.6427 26.0129 22.8006 25.4849 22.2146C26.3892 20.6308 26.9019 18.8542 26.9806 17.0323H29.9884C29.717 24.6494 23.6044 30.7615 15.9873 31.0333Z" fill="white"/>
<path d="M23.7012 23.9433L23.7156 23.9533L24.2592 23.1123L23.7012 23.9433Z" fill="white"/>
</g>
<defs>
<clipPath id="clip0">
<rect width="31" height="31" fill="white" transform="translate(0 0.984375)"/>
</clipPath>
</defs>
</svg>
