<svg width="32" height="32" viewBox="0 0 32 32" fill="none" xmlns="http://www.w3.org/2000/svg">
<g clip-path="url(#clip0)">
<path d="M17.3959 30.1592C17.1359 30.1592 16.925 29.9484 16.925 29.6883V28.4361C16.925 28.2567 16.7791 28.1108 16.5998 28.1108H15.3355C15.1561 28.1108 15.0102 28.2567 15.0102 28.4361V29.6883C15.0102 29.9484 14.7994 30.1592 14.5393 30.1592C14.2792 30.1592 14.0684 29.9484 14.0684 29.6883V28.4361C14.0684 27.7374 14.6368 27.1689 15.3355 27.1689H16.5998C17.2984 27.1689 17.8669 27.7374 17.8669 28.4361V29.6883C17.8669 29.9484 17.6561 30.1592 17.3959 30.1592Z" fill="white"/>
<path d="M20.4952 12.944C20.3405 12.7349 20.0456 12.691 19.8365 12.8457C19.6274 13.0005 19.5835 13.2954 19.7382 13.5044L22.0767 16.6629C22.3369 17.0142 22.318 17.5433 22.0339 17.8675L19.5144 20.7428H12.4204L9.9009 17.8675C9.61678 17.5433 9.59794 17.0142 9.85808 16.6629L14.5009 10.3922V13.9653C13.9123 14.4176 13.5683 15.1094 13.5683 15.8645C13.5683 17.1874 14.6445 18.2636 15.9674 18.2636C17.2903 18.2636 18.3665 17.1874 18.3665 15.8645C18.3665 15.1434 18.0456 14.47 17.4967 14.0163V10.4771L18.5308 11.8737C18.6856 12.0828 18.9805 12.1267 19.1895 11.972C19.3986 11.8172 19.4425 11.5223 19.2878 11.3132L17.2678 8.58499C16.9499 8.15551 16.4759 7.90918 15.9675 7.90918C15.459 7.90918 14.985 8.15551 14.6671 8.58499L9.10114 16.1024C8.57917 16.8075 8.61847 17.8331 9.19263 18.4884L11.2938 20.8861C10.7691 21.1308 10.4044 21.6629 10.4044 22.279V24.5257C10.4044 25.2135 10.8588 25.7971 11.4832 25.9923L11.6117 29.704C11.6205 29.9585 11.8294 30.1587 12.0821 30.1587C12.0876 30.1587 12.0931 30.1586 12.0986 30.1585C12.3586 30.1494 12.562 29.9315 12.553 29.6715L12.428 26.0618H19.5697L19.4447 29.6715C19.4357 29.9315 19.6392 30.1494 19.8991 30.1585C19.9046 30.1586 19.9101 30.1587 19.9157 30.1587C20.1682 30.1587 20.3772 29.9585 20.386 29.704L20.5152 25.9707C21.1067 25.7569 21.5305 25.1899 21.5305 24.5257V22.279C21.5305 21.6629 21.1658 21.1308 20.6411 20.8861L22.7423 18.4884C23.3164 17.8332 23.3558 16.8075 22.8338 16.1024L20.4952 12.944ZM15.9674 8.85097C16.1772 8.85097 16.3703 8.95552 16.5108 9.14533L16.5549 9.20486V14.253C16.5549 14.4114 16.6345 14.5592 16.7669 14.6463C17.1787 14.9173 17.4246 15.3728 17.4246 15.8644C17.4246 16.6679 16.7709 17.3216 15.9674 17.3216C15.1639 17.3216 14.5102 16.6679 14.5102 15.8644C14.5102 15.3495 14.7738 14.8828 15.2153 14.616C15.3564 14.5307 15.4427 14.3778 15.4427 14.213V9.12254C15.5815 8.94773 15.7665 8.85097 15.9674 8.85097ZM20.5886 24.5255C20.5886 24.8532 20.322 25.1198 19.9944 25.1198H11.9405C11.6128 25.1198 11.3462 24.8532 11.3462 24.5255V22.2788C11.3462 21.9512 11.6128 21.6846 11.9405 21.6846H19.9944C20.3221 21.6846 20.5886 21.9512 20.5886 22.2788V24.5255Z" fill="white"/>
<path d="M6.5965 13.0884C6.65835 11.5964 7.07333 10.1356 7.80779 8.84111C7.93613 8.61488 7.85683 8.32749 7.6306 8.19914C7.40436 8.07074 7.11697 8.1501 6.98863 8.37634C6.17461 9.81091 5.71693 11.4307 5.65389 13.0839C4.8412 13.2905 4.23828 14.0282 4.23828 14.9043C4.23828 15.94 5.08087 16.7826 6.11653 16.7826C7.1522 16.7826 7.99478 15.94 7.99478 14.9043C7.99478 14.0345 7.40041 13.3011 6.5965 13.0884ZM6.11653 15.8407C5.60021 15.8407 5.18014 15.4207 5.18014 14.9043C5.18014 14.388 5.60021 13.968 6.11653 13.968C6.63286 13.968 7.05292 14.388 7.05292 14.9043C7.05292 15.4207 6.63286 15.8407 6.11653 15.8407Z" fill="white"/>
<path d="M31.0029 1.8418H29.4895C28.9397 1.8418 28.4924 2.28912 28.4924 2.83891V3.12467H17.7538V2.83891C17.7538 2.28912 17.3065 1.8418 16.7567 1.8418H15.2433C14.6935 1.8418 14.2462 2.28912 14.2462 2.83891V3.12467H3.5076V2.83891C3.5076 2.28912 3.06028 1.8418 2.51049 1.8418H0.997112C0.447319 1.8418 0 2.28912 0 2.83891V4.35228C0 4.90207 0.447319 5.34939 0.997112 5.34939H2.51049C3.06028 5.34939 3.5076 4.90207 3.5076 4.35228V4.06652H11.6827C10.3753 4.66705 9.19509 5.5394 8.22592 6.64036C8.05406 6.83558 8.07296 7.13314 8.26824 7.305C8.35772 7.38374 8.46867 7.42248 8.57924 7.42248C8.70985 7.42248 8.83982 7.36848 8.93288 7.26274C10.3254 5.68086 12.1962 4.61745 14.2462 4.23059V4.35234C14.2462 4.90214 14.6935 5.34946 15.2433 5.34946H16.7567C17.3065 5.34946 17.7538 4.90214 17.7538 4.35234V4.23053C22.029 5.03607 25.2232 8.72281 25.4036 13.0887C24.5995 13.3012 24.0048 14.0347 24.0048 14.9048C24.0048 15.9404 24.8474 16.783 25.883 16.783C26.9187 16.783 27.7613 15.9404 27.7613 14.9048C27.7613 14.0288 27.1584 13.2911 26.3458 13.0844C26.1953 9.12297 23.7893 5.66479 20.3175 4.06665H28.4924V4.35241C28.4924 4.9022 28.9397 5.34952 29.4895 5.34952H31.0029C31.5527 5.34952 32 4.9022 32 4.35241V2.83891C32 2.28912 31.5527 1.8418 31.0029 1.8418ZM2.56574 4.35228C2.56574 4.38274 2.54094 4.40754 2.51049 4.40754H0.997112C0.966658 4.40754 0.941856 4.38274 0.941856 4.35228V2.83891C0.941856 2.80845 0.966658 2.78365 0.997112 2.78365H2.51049C2.54094 2.78365 2.56574 2.80845 2.56574 2.83891V4.35228ZM26.8194 14.9046C26.8194 15.421 26.3993 15.841 25.883 15.841C25.3667 15.841 24.9466 15.421 24.9466 14.9046C24.9466 14.3883 25.3667 13.9683 25.883 13.9683C26.3993 13.9683 26.8194 14.3883 26.8194 14.9046ZM16.8119 4.35228C16.8119 4.38274 16.7871 4.40754 16.7567 4.40754H15.2433C15.2129 4.40754 15.1881 4.38274 15.1881 4.35228V2.83891C15.1881 2.80845 15.2129 2.78365 15.2433 2.78365H16.7567C16.7871 2.78365 16.8119 2.80845 16.8119 2.83891V4.35228ZM31.0581 4.35228C31.0581 4.38274 31.0333 4.40754 31.0029 4.40754H29.4895C29.4591 4.40754 29.4343 4.38274 29.4343 4.35228V2.83891C29.4343 2.80845 29.4591 2.78365 29.4895 2.78365H31.0029C31.0333 2.78365 31.0581 2.80845 31.0581 2.83891V4.35228Z" fill="white"/>
</g>
<defs>
<clipPath id="clip0">
<rect width="32" height="32" fill="white"/>
</clipPath>
</defs>
</svg>
