<svg width="30" height="30" viewBox="0 0 30 30" fill="none" xmlns="http://www.w3.org/2000/svg">
<g clip-path="url(#clip0)">
<path d="M9.48952 14.8361C10.3047 14.8361 11.1317 14.6495 11.9069 14.2556C12.2399 14.0864 12.5551 13.8826 12.8439 13.6497C13.0329 13.4974 13.0625 13.2207 12.9102 13.0318C12.7578 12.8428 12.4811 12.8132 12.2922 12.9655C12.0509 13.1601 11.7874 13.3305 11.5088 13.472C10.8607 13.8013 10.1696 13.9573 9.48806 13.9572C7.85517 13.9571 6.27847 13.0615 5.48956 11.5089C4.75538 10.064 4.8629 8.32773 5.77017 6.97755C5.90552 6.77611 5.85191 6.50306 5.65046 6.36771C5.44913 6.23236 5.17603 6.28591 5.04062 6.48736C3.95593 8.10167 3.82767 10.1784 4.70599 11.907C5.64999 13.7647 7.53595 14.8361 9.48952 14.8361Z" fill="white"/>
<path d="M10.2476 7.60406C10.1374 7.27371 9.82953 7.05176 9.48136 7.05176C9.13314 7.05176 8.82523 7.27371 8.71507 7.60406L8.00041 9.74812C8.00023 9.74871 8 9.74929 7.99982 9.74988L7.47189 11.3336C7.39513 11.5639 7.51959 11.8127 7.7498 11.8895C7.97996 11.9661 8.22886 11.8417 8.30568 11.6115L8.73634 10.3195H10.2262L10.6569 11.6115C10.7183 11.7957 10.8897 11.9121 11.0737 11.9121C11.1198 11.9121 11.1666 11.9048 11.2127 11.8894C11.443 11.8127 11.5674 11.5638 11.4907 11.3336L10.9626 9.74935C10.9625 9.74924 10.9625 9.74918 10.9626 9.74912L10.2476 7.60406ZM9.0292 9.44051L9.48119 8.08459L9.93318 9.44051H9.0292Z" fill="white"/>
<path d="M20.1267 12.7947L21.8509 13.6627C21.9143 13.6947 21.9817 13.7098 22.0482 13.7098C22.209 13.7098 22.3638 13.6213 22.4411 13.4679C22.5502 13.2511 22.4629 12.9869 22.2462 12.8778L21.4671 12.4855C24.3056 12.412 27.1223 13.4346 29.2697 15.3351C29.3534 15.409 29.4572 15.4454 29.5608 15.4454C29.6822 15.4454 29.8032 15.3953 29.89 15.2972C30.0509 15.1154 30.034 14.8377 29.8522 14.6768C27.4804 12.5778 24.3495 11.4729 21.2123 11.6155L21.5849 10.8754C21.694 10.6587 21.6067 10.3944 21.39 10.2853C21.1731 10.1761 20.909 10.2635 20.7998 10.4802L19.9318 12.2045C19.8227 12.4213 19.9099 12.6855 20.1267 12.7947Z" fill="white"/>
<path d="M22.2574 19.8271H21.2363C20.9936 19.8271 20.7969 20.0239 20.7969 20.2666V21.7983V24.0959C20.7969 24.3386 20.9936 24.5353 21.2363 24.5353H22.8957C23.7714 24.5353 24.4839 23.8228 24.4839 22.9471C24.4839 22.2443 24.0248 21.647 23.3909 21.4384C23.4366 21.3113 23.4628 21.175 23.4628 21.0325C23.4628 20.3679 22.9221 19.8271 22.2574 19.8271ZM21.6758 20.7061H22.2575C22.4374 20.7061 22.5839 20.8525 22.5839 21.0325C22.5839 21.2125 22.4374 21.3589 22.2575 21.3589H21.6758V20.7061ZM23.605 22.9472C23.605 23.3383 23.2868 23.6565 22.8957 23.6565H21.6758V22.2378H22.8957C23.2868 22.2378 23.605 22.556 23.605 22.9472Z" fill="white"/>
<path d="M6.87663 5.84116C7.05886 5.71091 7.25321 5.59314 7.45413 5.49101C9.65491 4.37281 12.3551 5.25341 13.4734 7.45413C14.1904 8.86519 14.1021 10.5721 13.2432 11.9088C13.112 12.113 13.1712 12.3849 13.3753 12.516C13.4489 12.5633 13.5311 12.5858 13.6125 12.5858C13.7571 12.5858 13.8987 12.5145 13.9826 12.3839C15.0096 10.7857 15.1147 8.74413 14.2569 7.05599C12.919 4.42308 9.68855 3.36968 7.05599 4.70743C6.81587 4.82943 6.58366 4.97023 6.36564 5.12597C6.16817 5.26706 6.12247 5.54152 6.26357 5.73898C6.40466 5.93661 6.67923 5.98214 6.87663 5.84116Z" fill="white"/>
<path d="M20.7601 18.1493C20.5138 18.2405 20.2751 18.3538 20.0506 18.4859C19.8414 18.6091 19.7717 18.8784 19.8948 19.0875C20.018 19.2967 20.2874 19.3664 20.4964 19.2433C20.6762 19.1375 20.8677 19.0467 21.0652 18.9735C22.8968 18.2956 24.9385 19.234 25.6165 21.0655C26.0432 22.2183 25.8472 23.4896 25.0921 24.4662C24.9437 24.6582 24.979 24.9342 25.171 25.0827C25.2511 25.1445 25.3456 25.1745 25.4395 25.1745C25.5709 25.1745 25.7009 25.1158 25.7875 25.0038C26.7292 23.7858 26.9734 22.1994 26.4407 20.7604C25.5945 18.4743 23.0463 17.3029 20.7601 18.1493Z" fill="white"/>
<path d="M24.1267 25.327C23.9367 25.4416 23.7341 25.5391 23.5244 25.6167C23.1203 25.7663 22.7061 25.8373 22.2984 25.8372C20.8584 25.8371 19.5016 24.9521 18.9731 23.5247C18.556 22.3979 18.7367 21.1468 19.4565 20.1782C19.6013 19.9834 19.5606 19.7081 19.3659 19.5633C19.1711 19.4186 18.8958 19.459 18.7511 19.6539C17.8533 20.8621 17.6282 22.4231 18.1489 23.8298C18.8085 25.6116 20.502 26.7162 22.2994 26.7162C22.8081 26.7162 23.3252 26.6276 23.8295 26.441C24.0909 26.3442 24.3436 26.2226 24.5808 26.0794C24.7887 25.954 24.8554 25.6839 24.73 25.4762C24.6046 25.2684 24.3345 25.2016 24.1267 25.327Z" fill="white"/>
<path d="M5.18349 15.58L4.78142 16.813C4.68679 17.103 4.71082 17.4123 4.84892 17.6843C4.98709 17.9561 5.22287 18.158 5.51285 18.2526L7.51599 18.9059C7.63248 18.9439 7.75213 18.9627 7.87119 18.9627C8.04849 18.9627 8.22457 18.9209 8.38722 18.8383C8.6591 18.7001 8.86095 18.4643 8.95552 18.1743L9.3576 16.9414C9.82687 16.9497 10.2952 16.9143 10.7559 16.8349L11.3425 17.9892C11.6276 18.5504 12.3164 18.7752 12.8776 18.4899L14.756 17.5354C15.3173 17.2502 15.5419 16.5616 15.2567 16.0003L14.6701 14.846C15.006 14.5208 15.3107 14.1637 15.5806 13.7793L16.8136 14.1815C17.1036 14.2761 17.4129 14.252 17.6849 14.1139C17.9568 13.9757 18.1586 13.7399 18.2531 13.45L18.9064 11.4468C19.1016 10.8483 18.7736 10.2025 18.175 10.0073L16.942 9.60518C16.9506 9.13567 16.915 8.66762 16.8355 8.20684L17.9897 7.62032C18.2616 7.48215 18.4635 7.24637 18.558 6.95639C18.6526 6.66647 18.6285 6.35704 18.4904 6.08516L17.536 4.20676C17.2509 3.64555 16.5622 3.4209 16.0008 3.70608L14.8465 4.29266C14.5212 3.9568 14.1642 3.65206 13.7798 3.38223L14.182 2.14918C14.3771 1.55065 14.049 0.904947 13.4505 0.709712L11.4473 0.0563918C10.8489 -0.138843 10.203 0.189224 10.0079 0.787818L9.60568 2.02086C9.13576 2.01213 8.66801 2.04788 8.20734 2.12733L7.62082 0.973091C7.48271 0.701157 7.24693 0.499302 6.95695 0.404732C6.66709 0.31022 6.35771 0.334126 6.08566 0.472349L4.20738 1.42678C3.93545 1.56489 3.73359 1.80067 3.63902 2.09065C3.54439 2.38063 3.56847 2.69006 3.70658 2.96194L4.29316 4.11624C3.9573 4.44155 3.6525 4.79856 3.38273 5.18288L2.14968 4.78075C1.8597 4.68612 1.55027 4.7102 1.27845 4.84836C1.00658 4.98653 0.804724 5.22231 0.710212 5.51223L0.0568915 7.51538C-0.0377374 7.80536 -0.013714 8.11473 0.12445 8.38667C0.262614 8.65854 0.498395 8.86034 0.788376 8.95491L2.02131 9.35704C2.01269 9.82672 2.04838 10.2947 2.12783 10.7554L0.973532 11.342C0.412263 11.6271 0.187673 12.3158 0.472849 12.8771L1.42734 14.7555C1.71258 15.3168 2.40134 15.5413 2.9625 15.2561L4.11674 14.6696C4.44205 15.0055 4.79906 15.3102 5.18349 15.58ZM2.56435 14.4726C2.43515 14.5381 2.27648 14.4865 2.21091 14.3573L1.25642 12.4789C1.19074 12.3497 1.24248 12.1912 1.37168 12.1255L2.82205 11.3884C3.0007 11.2977 3.09533 11.0975 3.05209 10.9019C2.9199 10.3033 2.87291 9.68715 2.91252 9.07057C2.92541 8.87036 2.80101 8.68684 2.61023 8.62461L1.06084 8.1193C0.994099 8.09756 0.939841 8.0511 0.908024 7.98846C0.876208 7.92582 0.870641 7.85463 0.89238 7.78789L1.54582 5.78469C1.59064 5.64688 1.73941 5.57141 1.87722 5.61629L3.42668 6.12161C3.61734 6.18377 3.82611 6.10901 3.93375 5.93961C4.26509 5.41842 4.66623 4.94844 5.12607 4.54274C5.27636 4.4102 5.31791 4.19276 5.22715 4.01417L4.49015 2.56379C4.45834 2.50116 4.45277 2.42997 4.47457 2.36317C4.49631 2.29643 4.54277 2.24211 4.60541 2.2103L6.48375 1.25569C6.54638 1.22387 6.61758 1.21836 6.68443 1.2401C6.75111 1.2619 6.80537 1.30831 6.83718 1.37094L7.57418 2.82137C7.665 2.99997 7.8651 3.09465 8.06074 3.05141C8.65945 2.91917 9.27551 2.87229 9.89197 2.91184C10.0941 2.92479 10.2757 2.80028 10.3379 2.60956L10.8433 1.0601C10.8882 0.92229 11.0369 0.846763 11.1748 0.891704L13.1779 1.54502C13.3157 1.58997 13.3913 1.73862 13.3464 1.87643L12.841 3.42588C12.7787 3.61667 12.8536 3.82538 13.0229 3.93301C13.5442 4.26442 14.0142 4.66561 14.4199 5.1254C14.5524 5.27569 14.77 5.31717 14.9484 5.22647L16.3989 4.48948C16.528 4.42379 16.6866 4.47542 16.7523 4.60473L17.7067 6.48313C17.7386 6.54577 17.7441 6.61702 17.7224 6.68375C17.7006 6.75049 17.6541 6.80481 17.5915 6.83657L16.1412 7.57356C15.9625 7.66438 15.8679 7.86448 15.9111 8.06012C16.0433 8.65895 16.0903 9.27512 16.0506 9.89141C16.0378 10.0917 16.1621 10.2752 16.3529 10.3374L17.9023 10.8427C18.0402 10.8877 18.1157 11.0363 18.0708 11.1741L17.4174 13.1773C17.3957 13.2441 17.3492 13.2984 17.2866 13.3302C17.224 13.362 17.1528 13.3675 17.086 13.3457L15.5366 12.8404C15.3459 12.7783 15.1372 12.8531 15.0295 13.0224C14.698 13.5438 14.2969 14.0138 13.8371 14.4194C13.6869 14.5519 13.6453 14.7693 13.7361 14.9479L14.4731 16.3983C14.5387 16.5275 14.487 16.6861 14.3578 16.7517L12.4794 17.7062C12.3503 17.7719 12.1916 17.7202 12.126 17.591L11.389 16.1406C11.2982 15.962 11.0979 15.8674 10.9024 15.9106C10.3037 16.0428 9.6876 16.0896 9.07119 16.0501C8.87015 16.0369 8.6874 16.1616 8.62517 16.3524L8.11992 17.9018C8.09812 17.9686 8.05166 18.0229 7.98908 18.0547C7.92644 18.0865 7.85525 18.0921 7.7884 18.0703L5.78525 17.417C5.71857 17.3952 5.66425 17.3487 5.63244 17.2861C5.60062 17.2235 5.59511 17.1523 5.61691 17.0855L6.12222 15.536C6.18445 15.3453 6.10957 15.1366 5.94017 15.029C5.41898 14.6976 4.949 14.2965 4.5433 13.8366C4.45769 13.7396 4.3367 13.6879 4.21359 13.6879C4.14609 13.6879 4.07795 13.7035 4.01472 13.7356L2.56435 14.4726Z" fill="white"/>
<path d="M13.5337 19.8285L11.6592 19.3669C11.4236 19.309 11.1855 19.4528 11.1275 19.6885C11.0695 19.9241 11.2135 20.1622 11.4491 20.2203L12.2959 20.4288C9.54529 21.1336 6.57148 20.7651 4.0543 19.3917C3.84119 19.2753 3.5743 19.354 3.45805 19.567C3.34185 19.78 3.42025 20.047 3.63336 20.1632C5.44508 21.1517 7.47687 21.6571 9.51014 21.6571C10.5969 21.6571 11.6841 21.5122 12.7384 21.2201L12.5403 22.0246C12.4823 22.2602 12.6263 22.4983 12.8619 22.5564C12.8973 22.565 12.9325 22.5692 12.9673 22.5692C13.1649 22.5692 13.3443 22.4351 13.3937 22.2348L13.8553 20.3603C13.8832 20.2471 13.8649 20.1275 13.8046 20.0278C13.7444 19.928 13.6469 19.8563 13.5337 19.8285Z" fill="white"/>
<path d="M29.9373 20.3751L29.345 18.7749C29.2514 18.5224 29.0652 18.3213 28.8205 18.2089C28.5757 18.0964 28.302 18.0859 28.0495 18.1795L27.1237 18.5222C26.9125 18.2523 26.6784 18.0003 26.4238 17.7689L26.8367 16.8705C26.9492 16.6258 26.9597 16.352 26.8662 16.0994C26.7727 15.8468 26.5865 15.6458 26.3418 15.5333L24.7913 14.8206C24.2863 14.5885 23.6864 14.8105 23.4542 15.3156L23.0413 16.2141C22.6998 16.1715 22.3562 16.158 22.0138 16.1734L21.6711 15.2476C21.5775 14.9951 21.3913 14.794 21.1466 14.6815C20.9018 14.5691 20.6281 14.5586 20.3755 14.6521L18.7754 15.2445C18.254 15.4375 17.9869 16.0187 18.1799 16.54L18.5226 17.4658C18.2527 17.6771 18.0007 17.9112 17.7694 18.1658L16.8709 17.7528C16.3659 17.5206 15.7659 17.7426 15.5338 18.2478L14.8212 19.7981C14.7087 20.0429 14.6982 20.3167 14.7917 20.5693C14.8852 20.8218 15.0714 21.0228 15.3161 21.1353L16.2146 21.5483C16.1721 21.8897 16.1584 22.2334 16.1739 22.5757L15.248 22.9185C14.7268 23.1114 14.4596 23.6926 14.6526 24.214L15.2449 25.814C15.3384 26.0666 15.5246 26.2677 15.7693 26.3802C16.0141 26.4926 16.2879 26.5031 16.5404 26.4096L17.4663 26.0669C17.6774 26.3368 17.9115 26.5887 18.1662 26.8202L17.7532 27.7186C17.6407 27.9633 17.6302 28.2371 17.7237 28.4897C17.8172 28.7423 18.0034 28.9433 18.2482 29.0558L19.7985 29.7684C20.0431 29.8809 20.317 29.8914 20.5696 29.7978C20.8221 29.7043 21.0232 29.5181 21.1356 29.2734L21.5487 28.3751C21.8901 28.4176 22.2338 28.4312 22.5761 28.4157L22.9188 29.3415C23.0123 29.594 23.1985 29.7951 23.4432 29.9076C23.5775 29.9693 23.7204 30.0003 23.8638 30.0003C23.9819 30.0002 24.1003 29.9792 24.2143 29.937L25.8145 29.3446C26.3358 29.1517 26.6029 28.5705 26.41 28.049L26.0673 27.1233C26.3372 26.912 26.5891 26.678 26.8205 26.4234L27.7189 26.8363C27.9637 26.9487 28.2375 26.9592 28.49 26.8657C28.7426 26.7722 28.9436 26.586 29.0561 26.3413L29.7687 24.7909C29.8812 24.5463 29.8917 24.2724 29.7982 24.0198C29.7047 23.7673 29.5185 23.5662 29.2738 23.4538L28.3753 23.0408C28.4178 22.6994 28.4315 22.3558 28.416 22.0134L29.3419 21.6707C29.8631 21.4776 30.1302 20.8965 29.9373 20.3751ZM29.0368 20.8464L27.8012 21.3037C27.6133 21.3733 27.4962 21.5611 27.5166 21.7605C27.5662 22.2467 27.5468 22.7389 27.4587 23.2232C27.4228 23.4206 27.5252 23.6173 27.7075 23.701L28.9068 24.2523C28.947 24.2708 28.9655 24.302 28.974 24.3249C28.9825 24.3478 28.9887 24.3835 28.9703 24.4237L28.2576 25.9741C28.2279 26.0388 28.1509 26.0674 28.0861 26.0376L26.8868 25.4864C26.7045 25.4025 26.4886 25.4529 26.3622 25.6087C26.0518 25.991 25.6911 26.3262 25.2897 26.605C25.1252 26.7194 25.0589 26.9306 25.1284 27.1185L25.5858 28.3539C25.6106 28.4208 25.5763 28.4954 25.5095 28.5201L23.9092 29.1125C23.8679 29.1279 23.8326 29.119 23.8104 29.1088C23.7883 29.0985 23.7586 29.0777 23.7432 29.0361L23.2857 27.8006C23.2214 27.6269 23.056 27.5137 22.8739 27.5137C22.859 27.5137 22.844 27.5144 22.829 27.516C22.3428 27.5655 21.8508 27.5461 21.3662 27.4581C21.1686 27.4223 20.9722 27.5246 20.8884 27.7069L20.3371 28.9062C20.3187 28.9464 20.2875 28.9649 20.2646 28.9734C20.2417 28.9819 20.2059 28.9881 20.1657 28.9697L18.6154 28.2571C18.5506 28.2273 18.5221 28.1504 18.5519 28.0856L19.1031 26.8864C19.1869 26.7041 19.1365 26.4882 18.9808 26.3617C18.5985 26.0514 18.2633 25.6905 17.9844 25.2892C17.87 25.1247 17.6587 25.0583 17.4709 25.1279L16.2353 25.5854C16.1939 25.6008 16.1586 25.5918 16.1364 25.5816C16.1143 25.5714 16.0846 25.5505 16.0692 25.509L15.4769 23.9088C15.4521 23.842 15.4864 23.7674 15.5532 23.7426L16.7888 23.2853C16.9767 23.2157 17.0938 23.0279 17.0734 22.8285C17.0238 22.3424 17.0433 21.8502 17.1313 21.3658C17.1671 21.1684 17.0648 20.9717 16.8825 20.888L15.6832 20.3367C15.643 20.3182 15.6245 20.287 15.616 20.2641C15.6075 20.2412 15.6013 20.2055 15.6197 20.1652L16.3323 18.6149C16.3622 18.5501 16.4393 18.5217 16.5038 18.5514L17.7031 19.1026C17.8854 19.1865 18.1013 19.1361 18.2277 18.9803C18.538 18.5981 18.8988 18.2629 19.3002 17.9839C19.4647 17.8696 19.531 17.6584 19.4615 17.4705L19.0041 16.235C18.9888 16.1934 18.9977 16.1583 19.0079 16.1361C19.0181 16.1139 19.039 16.0841 19.0805 16.0688L20.6806 15.4764C20.722 15.4611 20.7572 15.47 20.7795 15.4802C20.8016 15.4904 20.8313 15.5113 20.8468 15.5528L21.3041 16.7883C21.3737 16.9763 21.5619 17.0933 21.7609 17.073C22.247 17.0233 22.7393 17.0428 23.2237 17.1308C23.4207 17.1667 23.6177 17.0643 23.7015 16.882L24.2527 15.6828C24.2825 15.618 24.3597 15.5896 24.4242 15.6193L25.9746 16.3319C26.0148 16.3504 26.0334 16.3816 26.0419 16.4045C26.0504 16.4274 26.0566 16.4631 26.0381 16.5034L25.4869 17.7026C25.403 17.8849 25.4534 18.1008 25.6092 18.2273C25.9915 18.5376 26.3267 18.8985 26.6055 19.2997C26.72 19.4642 26.9311 19.5307 27.119 19.4611L28.3546 19.0037C28.396 18.9883 28.4312 18.9973 28.4535 19.0075C28.4756 19.0177 28.5053 19.0386 28.5207 19.0801L29.113 20.6803C29.1378 20.7472 29.1035 20.8217 29.0368 20.8464Z" fill="white"/>
</g>
<defs>
<clipPath id="clip0">
<rect width="30" height="30" fill="white"/>
</clipPath>
</defs>
</svg>
