<svg width="47" height="39" viewBox="0 0 47 39" fill="none" xmlns="http://www.w3.org/2000/svg">
<g clip-path="url(#clip0)">
<path fill-rule="evenodd" clip-rule="evenodd" d="M38.7353 26C39.5856 30.3606 38.7767 34.0294 36.4385 36.3673C34.6955 38.1103 32.252 39 29.3334 39C27.8275 39 26.1951 38.7631 24.4673 38.2846C22.8483 37.8365 21.205 37.1912 19.5703 36.3714C16.8525 37.7381 14.16 38.5965 11.64 38.8872C11.0104 38.9598 10.3999 38.9958 9.80982 38.9958C6.87095 38.9958 4.43791 38.1017 2.70381 36.3673C1.15091 34.8144 0.250534 32.6325 0.0996781 30.0572C-0.0357058 27.7408 0.433823 25.0819 1.45709 22.3433C0.616815 21.6789 0.0761719 20.6517 0.0761719 19.4999C0.0761719 18.3481 0.616815 17.321 1.45709 16.6566C0.433823 13.9179 -0.0357058 11.2594 0.0996781 8.94267C0.250237 6.3674 1.15091 4.18549 2.70381 2.6326C5.12316 0.212946 8.96777 -0.569007 13.5292 0.43075C15.493 0.8613 17.5312 1.60874 19.5664 2.63022C21.2023 1.80988 22.8468 1.16361 24.4673 0.715205C29.5446 -0.690704 33.7963 -0.00961876 36.4385 2.6326C38.9756 5.16938 39.7043 9.18972 38.5142 14H37.3333C38.5184 9.47118 37.9172 5.72996 35.6292 3.44192C33.291 1.1038 29.4354 0.527155 24.7726 1.81821C23.4663 2.17973 22.1423 2.67634 20.8194 3.29375C22.8043 4.40092 24.7711 5.76219 26.6474 7.33949C27.263 6.85627 28.0381 6.56676 28.8799 6.56676C29.5321 6.56676 30.1719 6.74231 30.73 7.07408L30.1451 8.05777C29.7639 7.83104 29.3262 7.71142 28.8799 7.71142C27.5127 7.71142 26.4001 8.82365 26.4001 10.1912C26.4001 11.5587 27.5127 12.6709 28.8799 12.6709C30.2471 12.6709 31.3597 11.5587 31.3597 10.1912C31.3597 9.63447 31.1796 9.1084 30.8387 8.67012L31.742 7.96761C32.2407 8.60853 32.504 9.37739 32.504 10.1912C32.504 11.0329 32.2148 11.808 31.7316 12.424C32.1679 12.9429 32.5876 13.4687 32.99 14H31.5425C31.3307 13.7335 31.1139 13.468 30.8922 13.2035C30.3162 13.5898 29.6241 13.8153 28.8799 13.8153C26.8816 13.8153 25.2555 12.1895 25.2555 10.1912C25.2555 9.44701 25.481 8.75492 25.8672 8.17887C23.8043 6.44923 21.6751 5.021 19.5706 3.91324C16.4784 5.53695 13.4247 7.80902 10.6525 10.5813C8.79132 12.4424 7.14946 14.4375 5.76467 16.5173C6.25444 16.8568 6.66208 17.3189 6.94177 17.8768L5.9188 18.3898C5.4951 17.545 4.645 17.0202 3.70059 17.0202C2.33336 17.0202 1.22083 18.1324 1.22083 19.4999C1.22083 20.8675 2.33336 21.9797 3.70059 21.9797C5.06782 21.9797 6.18035 20.8675 6.18035 19.4999C6.18035 19.4258 6.17707 19.3515 6.17053 19.2783L7.31073 19.1774C7.32025 19.2842 7.32471 19.3928 7.32471 19.5002C7.32471 20.733 6.70552 21.8235 5.76229 22.4784C7.14737 24.56 8.79013 26.556 10.6525 28.4186C13.4241 31.1899 16.4767 33.4614 19.5679 35.0851C20.3635 34.6665 21.1645 34.2011 21.9664 33.6893C21.7278 33.2064 21.593 32.6637 21.593 32.0894C21.593 31.4372 21.7685 30.7975 22.1003 30.2393L23.084 30.8246C22.8573 31.2057 22.7376 31.6431 22.7376 32.0894C22.7376 33.457 23.8502 34.5692 25.2174 34.5692C26.5846 34.5692 27.6972 33.457 27.6972 32.0894C27.6972 30.7222 26.5846 29.6097 25.2174 29.6097C24.6607 29.61 24.1346 29.79 23.6966 30.1307L22.9938 29.2273C23.6347 28.7289 24.4036 28.4653 25.2174 28.4653C26.1077 28.4653 26.9232 28.7884 27.5549 29.3228C27.8715 29.0262 28.1848 28.7233 28.4898 28.4186C29.2751 27.6331 30.0203 26.8251 30.722 26H32.209C31.3118 27.1073 30.3393 28.1873 29.2988 29.2279C28.9742 29.5525 28.6404 29.8751 28.303 30.1908C28.6442 30.7436 28.8418 31.3938 28.8418 32.0897C28.8418 34.0881 27.2157 35.7138 25.2174 35.7138C24.2045 35.7138 23.2881 35.2958 22.6296 34.6239C22.0283 35.009 21.4252 35.3705 20.8223 35.7073C22.1443 36.3244 23.4672 36.8204 24.7726 37.1819C29.4354 38.4727 33.291 37.8964 35.6292 35.5579C37.8003 33.3868 38.3911 29.9457 37.5737 26H38.7353ZM18.3182 3.29047C12.281 0.463183 6.60733 0.347735 3.51314 3.44192C0.855745 6.09902 0.484406 10.6875 2.46726 16.0918C2.85258 15.9523 3.26766 15.8755 3.70059 15.8755C4.05229 15.8755 4.39507 15.9258 4.72088 16.0204C6.16666 13.8278 7.88767 11.7274 9.84315 9.77193C12.4803 7.13507 15.371 4.93412 18.3182 3.29047ZM3.51284 35.5579C5.04967 37.0945 7.25062 37.8473 9.83958 37.8473C12.3777 37.8476 15.2892 37.1242 18.3155 35.7079C15.3692 34.0642 12.4794 31.8639 9.84315 29.2279C7.88708 27.2718 6.16547 25.1709 4.71969 22.9774C4.39596 23.0723 4.05437 23.1243 3.70059 23.1243C3.26766 23.1243 2.85258 23.0479 2.46726 22.908C0.484109 28.3127 0.855745 32.9008 3.51284 35.5579Z" fill="white"/>
<path d="M28.9566 25.4134H27.7742V22.5299C27.7742 21.2546 26.917 20.1221 25.6896 19.7758L25.2617 19.6553L24.9511 20.7568L25.3789 20.8776C26.1151 21.0853 26.6295 21.7646 26.6295 22.5299V25.4134H24.5693V23.8492H23.4249V25.4134H18.2744V26.5578H28.9566V25.4134Z" fill="white"/>
<path d="M21.4641 19.7733L23.8493 20.4463L24.1602 19.3445L21.8224 18.6851V17.1653C22.8808 16.4434 23.5773 15.2285 23.5773 13.8536V12.1748C23.5773 9.96613 21.7804 8.16895 19.5714 8.16895C17.3628 8.16895 15.5656 9.96613 15.5656 12.1748V13.8536C15.5656 15.2285 16.2621 16.4434 17.3205 17.1653V18.6851L13.4536 19.7756C12.2262 20.122 11.369 21.2545 11.369 22.5297V25.4133H10.1865V26.5576H17.1298V25.4133H15.7182V23.8491H14.5738V25.4133H12.5136V22.5297C12.5136 21.7645 13.0281 21.0852 13.7642 20.8775L17.6787 19.7736C18.1608 20.3008 18.8416 20.6064 19.5714 20.6064C20.3013 20.6064 20.9824 20.3005 21.4641 19.7733ZM19.5714 9.31361C21.149 9.31361 22.4326 10.5972 22.4326 12.1751V12.8125L21.2297 11.2212H16.8742C17.2678 10.111 18.328 9.31361 19.5714 9.31361ZM16.7102 13.8536V12.3658H20.6602L22.3377 14.5844C22.0137 15.8094 20.8964 16.7148 19.5714 16.7148C17.9938 16.7148 16.7102 15.4312 16.7102 13.8536ZM18.4652 18.9336V17.7026C18.8166 17.8041 19.1876 17.8594 19.5714 17.8594C19.9553 17.8594 20.326 17.8041 20.6777 17.7026V18.9336C20.4087 19.2665 20.0059 19.4617 19.5714 19.4617C19.137 19.4617 18.7338 19.2665 18.4652 18.9336Z" fill="white"/>
<path d="M22.5935 22.4702L20.9814 22.0156L21.2924 20.9141L22.9042 21.3687L22.5935 22.4702Z" fill="white"/>
<path d="M25.1058 21.9884L24.7949 23.0899L23.6934 22.7793L24.0043 21.6777L25.1058 21.9884Z" fill="white"/>
<path d="M28.3076 9.61914H29.452V10.7638H28.3076V9.61914Z" fill="white"/>
<path d="M24.6455 31.5176H25.7899V32.6619H24.6455V31.5176Z" fill="white"/>
<path d="M3.12793 18.9277H4.27259V20.0721H3.12793V18.9277Z" fill="white"/>
<path d="M33.082 23H31.4316V17.7461L29.8105 18.2197V16.9697L32.9307 15.8906H33.082V23ZM36.7295 18.7568H37.5059C38.1211 18.7568 38.4287 18.4557 38.4287 17.8535C38.4287 17.6191 38.3555 17.4287 38.209 17.2822C38.0625 17.1325 37.8558 17.0576 37.5889 17.0576C37.3708 17.0576 37.1803 17.1211 37.0176 17.248C36.8581 17.375 36.7783 17.5329 36.7783 17.7217H35.1328C35.1328 17.3473 35.237 17.0137 35.4453 16.7207C35.6536 16.4277 35.9417 16.1999 36.3096 16.0371C36.6807 15.8711 37.0876 15.7881 37.5303 15.7881C38.3213 15.7881 38.943 15.9688 39.3955 16.3301C39.848 16.6914 40.0742 17.1878 40.0742 17.8193C40.0742 18.1253 39.9798 18.415 39.791 18.6885C39.6055 18.9587 39.3337 19.1784 38.9756 19.3477C39.3532 19.4844 39.6494 19.6927 39.8643 19.9727C40.0791 20.2493 40.1865 20.5928 40.1865 21.0029C40.1865 21.6377 39.9424 22.1455 39.4541 22.5264C38.9658 22.9072 38.3245 23.0977 37.5303 23.0977C37.0648 23.0977 36.6318 23.0098 36.2314 22.834C35.8343 22.6549 35.5332 22.4092 35.3281 22.0967C35.123 21.7809 35.0205 21.4229 35.0205 21.0225H36.6758C36.6758 21.2406 36.7637 21.4294 36.9395 21.5889C37.1152 21.7484 37.3317 21.8281 37.5889 21.8281C37.8786 21.8281 38.1097 21.7484 38.2822 21.5889C38.4548 21.4261 38.541 21.2194 38.541 20.9688C38.541 20.6107 38.4515 20.3568 38.2725 20.207C38.0934 20.0573 37.846 19.9824 37.5303 19.9824H36.7295V18.7568ZM45.9531 20.0947C45.9531 21.055 45.7367 21.7956 45.3037 22.3164C44.874 22.8372 44.2669 23.0977 43.4824 23.0977C42.6914 23.0977 42.0794 22.8356 41.6465 22.3115C41.2135 21.7874 40.9971 21.0485 40.9971 20.0947V18.7959C40.9971 17.8356 41.2119 17.0951 41.6416 16.5742C42.0745 16.0534 42.6849 15.793 43.4727 15.793C44.2604 15.793 44.8708 16.055 45.3037 16.5791C45.7367 17.1032 45.9531 17.8438 45.9531 18.8008V20.0947ZM44.3076 18.5859C44.3076 18.0749 44.2409 17.694 44.1074 17.4434C43.974 17.1895 43.7624 17.0625 43.4727 17.0625C43.1895 17.0625 42.9827 17.1797 42.8525 17.4141C42.7256 17.6484 42.6572 18.0033 42.6475 18.4785V20.2949C42.6475 20.8255 42.7142 21.2145 42.8477 21.4619C42.9811 21.7061 43.1927 21.8281 43.4824 21.8281C43.7624 21.8281 43.9691 21.7093 44.1025 21.4717C44.236 21.2308 44.3044 20.8548 44.3076 20.3438V18.5859Z" fill="white"/>
</g>
<defs>
<clipPath id="clip0">
<rect width="47" height="39" fill="white"/>
</clipPath>
</defs>
</svg>
