<svg width="30" height="30" viewBox="0 0 30 30" fill="none" xmlns="http://www.w3.org/2000/svg">
<path d="M16.005 17.1291L16.9252 15.5794L14.4206 13.0748L12.8709 13.995C12.4641 13.7803 12.0352 13.6031 11.5913 13.4663L11.1455 11.7188H7.60406L7.15875 13.4667C6.71484 13.6036 6.28594 13.7808 5.87906 13.9955L4.32938 13.0753L1.82484 15.5798L2.745 17.1295C2.53031 17.5364 2.35313 17.9653 2.21625 18.4092L0.46875 18.8545V22.3959L2.21672 22.8413C2.35359 23.2852 2.53078 23.7141 2.74547 24.1209L1.82531 25.6706L4.32984 28.1752L5.87953 27.255C6.28641 27.4697 6.71531 27.6469 7.15922 27.7838L7.60453 29.5312H11.1459L11.5913 27.7833C12.0352 27.6464 12.4641 27.4692 12.8709 27.2545L14.4206 28.1747L16.9252 25.6702L16.005 24.1205C16.2197 23.7136 16.3969 23.2847 16.5338 22.8408L18.2812 22.3955V18.8541L16.5333 18.4087C16.3964 17.9648 16.2197 17.5359 16.005 17.1291ZM17.3438 21.667L15.7762 22.0669L15.705 22.3312C15.5569 22.883 15.3394 23.4094 15.0586 23.8955L14.9217 24.1331L15.7467 25.5234L14.273 26.9972L12.8827 26.1722L12.645 26.3091C12.1589 26.5898 11.6325 26.8069 11.0808 26.9555L10.8164 27.0267L10.417 28.5938H8.33344L7.93359 27.0262L7.66922 26.955C7.1175 26.8069 6.59109 26.5894 6.105 26.3086L5.86734 26.1717L4.47703 26.9967L3.00328 25.523L3.82828 24.1327L3.69141 23.895C3.41062 23.4089 3.19359 22.8825 3.045 22.3308L2.97375 22.0664L1.40625 21.667V19.5834L2.97375 19.1836L3.045 18.9192C3.19313 18.3675 3.41062 17.8411 3.69141 17.355L3.82828 17.1173L3.00328 15.727L4.47703 14.2533L5.86734 15.0783L6.105 14.9414C6.59109 14.6606 7.1175 14.4436 7.66922 14.295L7.93359 14.2237L8.33297 12.6562H10.4166L10.8164 14.2237L11.0808 14.295C11.6325 14.4431 12.1589 14.6606 12.645 14.9414L12.8827 15.0783L14.273 14.2533L15.7467 15.727L14.9217 17.1173L15.0586 17.355C15.3394 17.8411 15.5564 18.3675 15.705 18.9192L15.7762 19.1836L17.3438 19.583V21.667Z" fill="white"/>
<path d="M9.375 15C6.27328 15 3.75 17.5233 3.75 20.625C3.75 23.7267 6.27328 26.25 9.375 26.25C12.4767 26.25 15 23.7267 15 20.625C15 17.5233 12.4767 15 9.375 15ZM9.375 25.3125C6.79031 25.3125 4.6875 23.2097 4.6875 20.625C4.6875 18.0403 6.79031 15.9375 9.375 15.9375C11.9597 15.9375 14.0625 18.0403 14.0625 20.625C14.0625 23.2097 11.9597 25.3125 9.375 25.3125Z" fill="white"/>
<path d="M9.375 17.8125C7.82391 17.8125 6.5625 19.0739 6.5625 20.625C6.5625 22.1761 7.82391 23.4375 9.375 23.4375C10.9261 23.4375 12.1875 22.1761 12.1875 20.625C12.1875 19.0739 10.9261 17.8125 9.375 17.8125ZM9.375 22.5C8.34094 22.5 7.5 21.6591 7.5 20.625C7.5 19.5909 8.34094 18.75 9.375 18.75C10.4091 18.75 11.25 19.5909 11.25 20.625C11.25 21.6591 10.4091 22.5 9.375 22.5Z" fill="white"/>
<path d="M28.125 4.21875H16.875C16.0997 4.21875 15.4688 4.84969 15.4688 5.625V12.1875C15.4688 12.9628 16.0997 13.5938 16.875 13.5938H17.8125V15.7584L22.1419 13.5938H28.125C28.9003 13.5938 29.5312 12.9628 29.5312 12.1875V5.625C29.5312 4.84969 28.9003 4.21875 28.125 4.21875ZM28.5938 12.1875C28.5938 12.4462 28.3837 12.6562 28.125 12.6562H21.9206L18.75 14.2416V12.6562H16.875C16.6163 12.6562 16.4062 12.4462 16.4062 12.1875V5.625C16.4062 5.36625 16.6163 5.15625 16.875 5.15625H28.125C28.3837 5.15625 28.5938 5.36625 28.5938 5.625V12.1875Z" fill="white"/>
<path d="M1.875 8.90625H6.43266L9.375 10.672V8.90625H13.125C13.9003 8.90625 14.5312 8.27531 14.5312 7.5V1.875C14.5312 1.09969 13.9003 0.46875 13.125 0.46875H1.875C1.09969 0.46875 0.46875 1.09969 0.46875 1.875V7.5C0.46875 8.27531 1.09969 8.90625 1.875 8.90625ZM1.40625 1.875C1.40625 1.61625 1.61625 1.40625 1.875 1.40625H13.125C13.3837 1.40625 13.5938 1.61625 13.5938 1.875V7.5C13.5938 7.75875 13.3837 7.96875 13.125 7.96875H8.4375V9.01547L6.69234 7.96875H1.875C1.61625 7.96875 1.40625 7.75875 1.40625 7.5V1.875Z" fill="white"/>
<path d="M26.7188 10.7812H25.7812V7.03125H24.8438V10.7812H23.9062V6.09375H22.9688V10.7812H22.0312V7.96875H21.0938V10.7812H20.1562V8.90625H19.2188V10.7812H18.2812V11.7188H27.6562V6.09375H26.7188V10.7812Z" fill="white"/>
<path d="M3.75 6.09375C4.52531 6.09375 5.15625 5.46281 5.15625 4.6875C5.15625 3.91219 4.52531 3.28125 3.75 3.28125C2.97469 3.28125 2.34375 3.91219 2.34375 4.6875C2.34375 5.46281 2.97469 6.09375 3.75 6.09375ZM3.75 4.21875C4.00875 4.21875 4.21875 4.42875 4.21875 4.6875C4.21875 4.94625 4.00875 5.15625 3.75 5.15625C3.49125 5.15625 3.28125 4.94625 3.28125 4.6875C3.28125 4.42875 3.49125 4.21875 3.75 4.21875Z" fill="white"/>
<path d="M7.5 6.09375C8.27531 6.09375 8.90625 5.46281 8.90625 4.6875C8.90625 3.91219 8.27531 3.28125 7.5 3.28125C6.72469 3.28125 6.09375 3.91219 6.09375 4.6875C6.09375 5.46281 6.72469 6.09375 7.5 6.09375ZM7.5 4.21875C7.75875 4.21875 7.96875 4.42875 7.96875 4.6875C7.96875 4.94625 7.75875 5.15625 7.5 5.15625C7.24125 5.15625 7.03125 4.94625 7.03125 4.6875C7.03125 4.42875 7.24125 4.21875 7.5 4.21875Z" fill="white"/>
<path d="M11.25 6.09375C12.0253 6.09375 12.6562 5.46281 12.6562 4.6875C12.6562 3.91219 12.0253 3.28125 11.25 3.28125C10.4747 3.28125 9.84375 3.91219 9.84375 4.6875C9.84375 5.46281 10.4747 6.09375 11.25 6.09375ZM11.25 4.21875C11.5087 4.21875 11.7188 4.42875 11.7188 4.6875C11.7188 4.94625 11.5087 5.15625 11.25 5.15625C10.9913 5.15625 10.7812 4.94625 10.7812 4.6875C10.7812 4.42875 10.9913 4.21875 11.25 4.21875Z" fill="white"/>
<path d="M24.3746 19.2188C23.4578 19.2188 22.5601 19.4644 21.767 19.9313L18.9404 19.5956L19.8911 21.8362C19.45 22.6125 19.2184 23.4848 19.2184 24.375C19.2184 27.218 21.5317 29.5312 24.3746 29.5312C27.2176 29.5312 29.5309 27.218 29.5309 24.375C29.5309 21.532 27.2176 19.2188 24.3746 19.2188ZM21.7286 27.6562H27.0203C26.2961 28.2413 25.3759 28.5938 24.3742 28.5938C23.3725 28.5938 22.4532 28.2413 21.7286 27.6562ZM23.7512 24.5995C23.5487 24.4172 23.4371 24.1706 23.4371 23.9062V23.0484C23.4371 22.5136 23.8351 22.0584 24.3236 22.0327C24.5804 22.0177 24.8317 22.1095 25.0201 22.2891C25.2081 22.4681 25.3121 22.7091 25.3121 22.9688V23.9062C25.3121 24.1706 25.2006 24.4172 24.9981 24.5995L24.8434 24.7392V25.6022L26.139 26.25C26.3476 26.3541 26.5098 26.5195 26.6092 26.7188H22.1406C22.24 26.5195 22.4026 26.3541 22.6107 26.25L23.9059 25.6022V24.7392L23.7512 24.5995ZM27.6451 27.0352C27.5926 26.3405 27.189 25.7269 26.5581 25.4114L25.8489 25.057C26.1062 24.7289 26.2497 24.3234 26.2497 23.9062V22.9688C26.2497 22.4569 26.0368 21.9614 25.6656 21.6089C25.2887 21.2517 24.8012 21.0773 24.2743 21.0961C23.2792 21.1481 22.4996 22.0059 22.4996 23.0484V23.9062C22.4996 24.3234 22.6431 24.7289 22.9 25.057L22.1907 25.4114C21.5598 25.7269 21.1562 26.3405 21.1037 27.0352C20.5121 26.3086 20.1559 25.3828 20.1559 24.375C20.1559 23.58 20.3823 22.8014 20.8112 22.1236L20.9425 21.9159L20.4339 20.7169L21.9821 20.9011L22.1232 20.812C22.8011 20.3827 23.5796 20.1562 24.3746 20.1562C26.7011 20.1562 28.5934 22.0486 28.5934 24.375C28.5934 25.3828 28.2372 26.3086 27.6451 27.0352Z" fill="white"/>
</svg>
