<svg width="29" height="29" viewBox="0 0 29 29" fill="none" xmlns="http://www.w3.org/2000/svg">
<path d="M26.5917 7.22654H26.2978C26.124 6.61625 25.8813 6.03071 25.5727 5.47712L25.7816 5.26812C26.0207 5.02916 26.1523 4.71045 26.1523 4.37068C26.1523 4.0309 26.0207 3.71225 25.7815 3.473L24.3893 2.08245C24.1502 1.84191 23.8311 1.70948 23.4907 1.70948C23.1503 1.70948 22.8312 1.84191 22.5933 2.08126L22.3846 2.28998C21.8306 1.98045 21.2448 1.73724 20.6349 1.56352V1.26962C20.635 0.569564 20.0655 0 19.3654 0H17.397C16.697 0 16.1274 0.569564 16.1274 1.26962V1.56352C15.5176 1.73718 14.9315 1.98045 14.3764 2.29021L14.1687 2.08245C13.9295 1.84191 13.6104 1.70948 13.27 1.70954C12.9297 1.70954 12.6106 1.84202 12.3727 2.08132L10.9808 3.47328C10.7417 3.71225 10.6101 4.03095 10.6101 4.37073C10.6101 4.71051 10.7417 5.02916 10.9807 5.26812L11.1896 5.47707C10.8797 6.03236 10.6369 6.618 10.4641 7.22654H10.169C9.46898 7.22654 8.89941 7.7961 8.89941 8.49616V10.4662C8.89941 11.1662 9.46898 11.7358 10.169 11.7358H10.4641C10.6369 12.3443 10.8797 12.9299 11.1896 13.4853L10.9807 13.6942C10.7417 13.9332 10.6101 14.2519 10.6101 14.5917C10.6101 14.9314 10.7417 15.2501 10.9807 15.4891L12.3715 16.8799C12.6106 17.1204 12.9296 17.2529 13.27 17.2529H13.27C13.6104 17.2529 13.9295 17.1204 14.1675 16.8811L14.3764 16.6721C14.9321 16.9822 15.5182 17.2251 16.1274 17.3979V17.6928C16.1274 18.3928 16.6969 18.9624 17.397 18.9624H19.3653C20.0654 18.9624 20.6349 18.3928 20.6349 17.6928V17.3979C21.2443 17.2251 21.83 16.9822 22.3846 16.6724L22.5921 16.8799C22.8312 17.1204 23.1503 17.2529 23.4906 17.2529C23.831 17.2529 24.1502 17.1204 24.3879 16.8813L25.7816 15.4891C26.0206 15.25 26.1522 14.9313 26.1522 14.5916C26.1522 14.2518 26.0206 13.9332 25.7816 13.6942L25.5726 13.4852C25.8812 12.9316 26.1239 12.3461 26.2977 11.7358H26.5917C27.2917 11.7358 27.8613 11.1662 27.8613 10.4662V8.49616C27.8614 7.7961 27.2919 7.22654 26.5917 7.22654ZM19.5022 17.6927C19.5022 17.7669 19.4396 17.8296 19.3654 17.8296H17.397C17.3229 17.8296 17.2602 17.7669 17.2602 17.6927V16.9574V13.3867C17.2602 13.1498 17.1128 12.938 16.8908 12.8556C15.3688 12.2912 14.3462 10.8264 14.3462 9.21066C14.3462 7.93022 14.9838 6.72992 16.0515 6.00013C16.0994 5.96739 16.1418 5.94066 16.1788 5.91874C16.1768 5.99237 16.1715 6.06237 16.1688 6.09891C16.1645 6.1564 16.1611 6.20176 16.1611 6.24679V8.91999C16.1611 10.147 17.1199 11.1717 18.3437 11.2528C18.3686 11.2545 18.3937 11.2545 18.4186 11.2528C19.6416 11.1717 20.5996 10.147 20.5996 8.91999V6.24679C20.5996 6.20199 20.5963 6.15691 20.5921 6.09976C20.5893 6.06305 20.5841 5.99265 20.5822 5.91868C20.6191 5.94054 20.6612 5.96722 20.709 5.9999C21.7769 6.72987 22.4145 7.93016 22.4145 9.21061C22.4145 10.8261 21.3925 12.291 19.8714 12.8556C19.6494 12.938 19.5021 13.1498 19.5021 13.3866V16.9573V17.6927H19.5022ZM26.7286 10.4662C26.7286 10.5391 26.6646 10.603 26.5917 10.603H25.858C25.5934 10.603 25.364 10.7863 25.3056 11.0444C25.1263 11.8369 24.8156 12.5864 24.3822 13.2719C24.2408 13.4957 24.2733 13.7877 24.4605 13.975L24.9808 14.4952C25.0145 14.529 25.0196 14.5701 25.0196 14.5916C25.0196 14.6131 25.0145 14.6543 24.9809 14.6878L23.586 16.0812C23.5541 16.1133 23.5165 16.12 23.4907 16.12C23.4649 16.12 23.4274 16.1133 23.3943 16.08L22.8741 15.5597C22.6866 15.3723 22.3943 15.34 22.1704 15.4818C21.687 15.7882 21.1723 16.0313 20.635 16.2109V13.7634C22.3922 12.9456 23.5474 11.1636 23.5474 9.21055C23.5474 7.55572 22.7253 6.00585 21.3484 5.06468C21.1374 4.92053 20.496 4.48197 19.935 4.80487C19.3841 5.12205 19.439 5.86555 19.4624 6.18307C19.4644 6.21066 19.4664 6.23382 19.4669 6.24679V8.91999C19.4669 9.53996 18.993 10.0597 18.3812 10.1195C17.7685 10.0597 17.294 9.53991 17.294 8.91999L17.2939 6.25087C17.2944 6.23382 17.2965 6.21066 17.2985 6.18296C17.3221 5.86561 17.3775 5.1225 16.827 4.80515C16.2662 4.48169 15.6238 4.92042 15.4125 5.06468C14.0355 6.00591 13.2135 7.55578 13.2135 9.21061C13.2135 11.1639 14.3693 12.9461 16.1274 13.7636V16.211C15.59 16.0313 15.0747 15.7881 14.5898 15.4816C14.4966 15.4227 14.3917 15.394 14.2873 15.394C14.141 15.394 13.9959 15.4505 13.8867 15.5599L13.3654 16.0812C13.3335 16.1133 13.2959 16.1201 13.2701 16.1201C13.2443 16.1201 13.2068 16.1133 13.1737 16.0801L11.7818 14.6881C11.748 14.6543 11.7429 14.6131 11.7429 14.5917C11.7429 14.5701 11.748 14.529 11.7818 14.4952L12.302 13.975C12.4892 13.7877 12.5217 13.4957 12.3802 13.2719C11.9447 12.5827 11.6341 11.8336 11.4571 11.0453C11.3991 10.7868 11.1695 10.603 10.9044 10.603H10.1692C10.0963 10.603 10.0323 10.539 10.0323 10.4661V8.4961C10.0323 8.42191 10.095 8.35926 10.1692 8.35926H10.9044C11.1695 8.35926 11.399 8.17547 11.4571 7.91691C11.6341 7.12861 11.9446 6.37944 12.3802 5.69037C12.5217 5.46653 12.4892 5.1745 12.302 4.98725L11.7817 4.46702C11.748 4.43326 11.7429 4.39214 11.7429 4.37062C11.7429 4.3491 11.748 4.30798 11.7818 4.27416L13.1749 2.88095C13.2068 2.84889 13.2443 2.84215 13.2701 2.84215C13.296 2.84215 13.3335 2.84889 13.3665 2.88214L13.8867 3.40237C14.0741 3.58968 14.3661 3.62213 14.5899 3.48065C15.2781 3.04555 16.0281 2.73431 16.8187 2.55573C17.077 2.49739 17.2603 2.26795 17.2603 2.00327V1.26962C17.2603 1.19543 17.323 1.13278 17.3972 1.13278H19.3655C19.4397 1.13278 19.5023 1.19543 19.5023 1.26962V2.00338C19.5023 2.26812 19.6857 2.4975 19.9439 2.55584C20.7352 2.7346 21.4844 3.04566 22.1705 3.48048C22.3944 3.6223 22.6867 3.59002 22.8742 3.40254L23.3956 2.88112C23.4275 2.84906 23.465 2.84232 23.4908 2.84232C23.5166 2.84232 23.5541 2.84906 23.5874 2.88254L24.9809 4.27433C25.0146 4.30809 25.0197 4.34921 25.0197 4.37073C25.0197 4.39225 25.0146 4.43338 24.9808 4.46719L24.4606 4.98742C24.2734 5.17467 24.2409 5.4667 24.3824 5.69054C24.8156 6.37604 25.1264 7.12544 25.3057 7.91804C25.3641 8.17615 25.5935 8.35938 25.8582 8.35938H26.5919C26.6661 8.35938 26.7287 8.42202 26.7287 8.49622V10.4662H26.7286Z" fill="white"/>
<path d="M21.6805 24.9396C21.4594 25.1608 21.4594 25.5195 21.6805 25.7407C21.7912 25.8513 21.9361 25.9066 22.081 25.9066C22.226 25.9066 22.3709 25.8513 22.4815 25.7407L22.4831 25.7391C22.7043 25.518 22.7035 25.1601 22.4823 24.9389C22.261 24.7177 21.9017 24.7186 21.6805 24.9396Z" fill="white"/>
<path d="M24.3048 19.4525L19.8082 21.7618C19.427 21.367 18.8929 21.1207 18.3021 21.1207H15.2212C15.0486 21.1207 15.0065 21.107 15.0037 21.1061C14.9787 21.0929 14.8997 21.0187 14.8364 20.9592L14.8083 20.9328C12.3157 18.5864 10.2101 18.735 7.81571 19.68C7.4283 19.8329 7.42082 19.8333 7.03177 19.8499L6.3351 19.8504C6.13664 19.2516 5.57183 18.8184 4.9074 18.8184H2.64206C1.8136 18.8184 1.13965 19.4931 1.13965 20.3224V26.2678C1.13965 27.0962 1.8136 27.7702 2.64206 27.7702H4.9074C5.57178 27.7702 6.13653 27.3374 6.33505 26.7394H7.60943C7.72197 26.7394 7.72197 26.7394 7.85286 26.7763C7.90044 26.7897 7.95833 26.806 8.03309 26.8261L13.8949 28.3944C14.1533 28.4641 14.3903 28.5328 14.6195 28.5992C15.3705 28.8168 16.0018 28.9998 16.6598 28.9998C17.4035 28.9998 18.1811 28.7661 19.2038 28.0845C19.2087 28.0812 19.2137 28.0778 19.2185 28.0743L20.3376 27.2763C20.5923 27.0947 20.6516 26.7411 20.4699 26.4863C20.2883 26.2316 19.9345 26.1724 19.68 26.354L18.5683 27.1467C17.0841 28.1339 16.4539 27.9514 14.9347 27.5112C14.7007 27.4434 14.4587 27.3733 14.1891 27.3004L8.32682 25.7321C8.25817 25.7137 8.20431 25.6985 8.16013 25.686C7.94626 25.6258 7.86629 25.6067 7.60949 25.6067H6.41145V20.9836H7.02355C7.03171 20.9836 7.03975 20.9834 7.04791 20.9831L7.08019 20.9818C7.555 20.9615 7.68782 20.9485 8.23167 20.7338C10.3346 19.9039 11.9579 19.8053 14.0326 21.7584L14.0606 21.7847C14.4152 22.1179 14.6194 22.2536 15.2212 22.2536H18.3022C18.6638 22.2536 18.9791 22.4544 19.1434 22.7501C19.1452 22.7534 19.1472 22.7565 19.149 22.7598C19.2224 22.8955 19.2642 23.0508 19.2642 23.2158C19.2642 23.7454 18.8327 24.1763 18.3022 24.1763H13.3091C12.9963 24.1763 12.7427 24.4298 12.7427 24.7427C12.7427 25.0555 12.9963 25.309 13.3091 25.309H18.3022C19.4573 25.309 20.397 24.37 20.397 23.2158C20.397 23.0589 20.3791 22.9062 20.3463 22.7591L24.8224 20.4604C25.246 20.2429 25.8253 20.2662 26.1129 20.7329C26.3674 21.1443 26.2274 21.6911 25.7876 22.0047L23.8241 23.4031C23.5693 23.5845 23.5098 23.9382 23.6913 24.193C23.8018 24.3482 23.9761 24.4309 24.1531 24.4309C24.2668 24.4309 24.3815 24.3968 24.4812 24.3258L26.4449 22.9273C27.3775 22.2624 27.6489 21.0629 27.0768 20.1379C26.5141 19.2247 25.3225 18.9301 24.3048 19.4525ZM5.27861 26.2678C5.27861 26.4682 5.10864 26.6374 4.9074 26.6374H2.64206C2.44167 26.6374 2.27243 26.4681 2.27243 26.2678V20.3225C2.27243 20.1178 2.43827 19.9512 2.64206 19.9512H4.9074C5.10864 19.9512 5.27861 20.1212 5.27861 20.3225V26.2678Z" fill="white"/>
</svg>
