<svg width="27" height="27" viewBox="0 0 27 27" fill="none" xmlns="http://www.w3.org/2000/svg">
<g clip-path="url(#clip0)">
<path d="M25.2004 5.40039C24.2076 5.40039 23.4004 6.2077 23.4004 7.20038C23.4004 8.19305 24.2077 9.00036 25.2004 9.00036C26.193 9.00036 27.0004 8.1931 27.0004 7.20038C27.0004 6.2077 26.193 5.40039 25.2004 5.40039ZM25.2004 8.10039C24.704 8.10039 24.3004 7.69677 24.3004 7.20038C24.3004 6.70404 24.704 6.30036 25.2004 6.30036C25.6968 6.30036 26.1004 6.70399 26.1004 7.20038C26.1003 7.69677 25.6967 8.10039 25.2004 8.10039Z" fill="white"/>
<path d="M1.79998 20.25C0.807311 20.25 0 21.0573 0 22.05C0 23.0427 0.807311 23.85 1.79998 23.85C2.79271 23.85 3.59996 23.0427 3.59996 22.05C3.59996 21.0573 2.79271 20.25 1.79998 20.25ZM1.79998 22.95C1.30365 22.95 0.899965 22.5464 0.899965 22.05C0.899965 21.5536 1.30359 21.15 1.79998 21.15C2.29632 21.15 2.7 21.5536 2.7 22.05C2.7 22.5464 2.29637 22.95 1.79998 22.95Z" fill="white"/>
<path d="M24.3275 5.96904L20.4453 4.0948C20.2212 3.98633 19.9526 4.08083 19.8446 4.30453C19.7366 4.52818 19.8306 4.79728 20.0543 4.90528L23.9365 6.77952C23.9995 6.8101 24.0661 6.8245 24.1317 6.8245C24.2991 6.8245 24.4598 6.7309 24.5372 6.56979C24.6452 6.34614 24.5511 6.07704 24.3275 5.96904Z" fill="white"/>
<path d="M20.2502 23.4004C19.2575 23.4004 18.4502 24.2077 18.4502 25.2004C18.4502 26.193 19.2575 27.0004 20.2502 27.0004C21.2429 27.0004 22.0502 26.1931 22.0502 25.2004C22.0502 24.2078 21.2429 23.4004 20.2502 23.4004ZM20.2502 26.1004C19.7538 26.1004 19.3502 25.6968 19.3502 25.2004C19.3502 24.704 19.7538 24.3004 20.2502 24.3004C20.7465 24.3004 21.1502 24.704 21.1502 25.2004C21.1502 25.6968 20.7465 26.1004 20.2502 26.1004Z" fill="white"/>
<path d="M19.3773 23.9691L15.4952 22.0949C15.271 21.9864 15.0024 22.0805 14.8944 22.3046C14.7864 22.5282 14.8804 22.7974 15.1041 22.9054L18.9863 24.7796C19.0493 24.8102 19.1159 24.8246 19.1816 24.8246C19.3489 24.8246 19.5096 24.731 19.587 24.5699C19.695 24.3462 19.601 24.0771 19.3773 23.9691Z" fill="white"/>
<path d="M13.5002 12.1504C12.5075 12.1504 11.7002 12.9577 11.7002 13.9504C11.7002 14.9431 12.5075 15.7504 13.5002 15.7504C14.4929 15.7504 15.3002 14.943 15.3002 13.9504C15.3002 12.9577 14.4929 12.1504 13.5002 12.1504ZM13.5002 14.8504C13.0038 14.8504 12.6002 14.4468 12.6002 13.9504C12.6002 13.454 13.0038 13.0504 13.5002 13.0504C13.9965 13.0504 14.4002 13.454 14.4002 13.9504C14.4002 14.4468 13.9965 14.8504 13.5002 14.8504Z" fill="white"/>
<path d="M12.709 12.7695L9.72687 10.4453C9.53064 10.2936 9.24809 10.3273 9.09506 10.5236C8.94249 10.7198 8.97714 11.0023 9.17337 11.1554L12.1555 13.4796C12.2379 13.5436 12.3351 13.5746 12.4318 13.5746C12.5659 13.5746 12.6982 13.5152 12.7873 13.4014C12.9399 13.2051 12.9052 12.9225 12.709 12.7695Z" fill="white"/>
<path d="M21.6004 11.7002C18.8711 11.7002 16.6504 13.9209 16.6504 16.6502C16.6504 19.3795 18.8711 21.6002 21.6004 21.6002C24.3297 21.6002 26.5504 19.3795 26.5504 16.6502C26.5504 13.9209 24.3297 11.7002 21.6004 11.7002ZM21.6004 20.7002C19.3671 20.7002 17.5504 18.8835 17.5504 16.6502C17.5504 14.4168 19.3671 12.6002 21.6004 12.6002C23.8338 12.6002 25.6504 14.4168 25.6504 16.6502C25.6504 18.8835 23.8338 20.7002 21.6004 20.7002Z" fill="white"/>
<path d="M21.6008 13.5C20.608 13.5 19.8008 14.3073 19.8008 15.3C19.8008 16.2927 20.6081 17.1 21.6008 17.1C22.5935 17.1 23.4007 16.2927 23.4007 15.3C23.4007 14.3073 22.5935 13.5 21.6008 13.5ZM21.6008 16.2C21.1044 16.2 20.7007 15.7964 20.7007 15.3C20.7007 14.8036 21.1044 14.4 21.6008 14.4C22.0971 14.4 22.5008 14.8036 22.5008 15.3C22.5008 15.7964 22.0971 16.2 21.6008 16.2Z" fill="white"/>
<path d="M22.9058 18H20.295C19.5259 18 18.9004 18.6089 18.9004 19.3567V20.543C18.9004 20.7036 18.9859 20.8521 19.1249 20.9327C19.8791 21.3691 20.735 21.6 21.6004 21.6C22.4658 21.6 23.3216 21.3691 24.0758 20.9327C24.2149 20.8526 24.3004 20.7036 24.3004 20.5434V19.3572C24.3004 18.6089 23.6749 18 22.9058 18ZM23.4004 20.2747C22.2803 20.8327 20.9204 20.8327 19.8004 20.2747V19.3572C19.8004 19.1052 20.0222 18.9 20.2949 18.9H22.9058C23.1785 18.9 23.4003 19.1052 23.4003 19.3572V20.2747H23.4004Z" fill="white"/>
<path d="M10.7996 17.0996C8.07036 17.0996 5.84961 19.3204 5.84961 22.0496C5.84961 24.7789 8.07036 26.9996 10.7996 26.9996C13.5289 26.9996 15.7496 24.7788 15.7496 22.0496C15.7496 19.3203 13.5289 17.0996 10.7996 17.0996ZM10.7996 26.0996C8.56627 26.0996 6.74963 24.2829 6.74963 22.0496C6.74963 19.8162 8.56627 17.9996 10.7996 17.9996C13.033 17.9996 14.8496 19.8162 14.8496 22.0496C14.8496 24.2829 13.033 26.0996 10.7996 26.0996Z" fill="white"/>
<path d="M10.8 18.9004C9.80726 18.9004 9 19.7077 9 20.7004C9 21.6931 9.80731 22.5004 10.8 22.5004C11.7927 22.5004 12.6 21.693 12.6 20.7004C12.6 19.7077 11.7927 18.9004 10.8 18.9004ZM10.8 21.6004C10.3036 21.6004 9.89996 21.1968 9.89996 20.7004C9.89996 20.204 10.3036 19.8004 10.8 19.8004C11.2963 19.8004 11.7 20.204 11.7 20.7004C11.7 21.1968 11.2963 21.6004 10.8 21.6004Z" fill="white"/>
<path d="M12.105 23.4004H9.49417C8.72514 23.4004 8.09961 24.0093 8.09961 24.7571V25.9433C8.09961 26.104 8.18509 26.2525 8.32415 26.3331C9.07836 26.7695 9.93424 27.0004 10.7996 27.0004C11.665 27.0004 12.5209 26.7695 13.2751 26.3331C13.4141 26.253 13.4996 26.104 13.4996 25.9438V24.7576C13.4996 24.0093 12.8741 23.4004 12.105 23.4004ZM12.5996 25.6751C11.4795 26.2331 10.1197 26.2331 8.99957 25.6751V24.7576C8.99957 24.5056 9.22143 24.3004 9.49412 24.3004H12.105C12.3777 24.3004 12.5995 24.5056 12.5995 24.7576V25.6751H12.5996Z" fill="white"/>
<path d="M4.95002 5.84961C2.22075 5.84961 0 8.07036 0 10.7996C0 13.5289 2.22075 15.7496 4.95002 15.7496C7.67929 15.7496 9.90003 13.5289 9.90003 10.7996C9.89998 8.07036 7.67923 5.84961 4.95002 5.84961ZM4.95002 14.8496C2.71666 14.8496 0.900018 13.033 0.900018 10.7996C0.900018 8.56627 2.71666 6.74963 4.95002 6.74963C7.18337 6.74963 9.00002 8.56627 9.00002 10.7996C9.00002 13.033 7.18337 14.8496 4.95002 14.8496Z" fill="white"/>
<path d="M4.95037 7.65039C3.95765 7.65039 3.15039 8.4577 3.15039 9.45037C3.15039 10.443 3.9577 11.2504 4.95037 11.2504C5.9431 11.2504 6.75036 10.443 6.75036 9.45037C6.75036 8.4577 5.94304 7.65039 4.95037 7.65039ZM4.95037 10.3504C4.45404 10.3504 4.05036 9.94676 4.05036 9.45037C4.05036 8.95398 4.45398 8.55036 4.95037 8.55036C5.44671 8.55036 5.85039 8.95398 5.85039 9.45037C5.85039 9.94676 5.44671 10.3504 4.95037 10.3504Z" fill="white"/>
<path d="M6.25544 12.1504H3.64456C2.87554 12.1504 2.25 12.7593 2.25 13.5071V14.6933C2.25 14.854 2.33548 15.0025 2.47454 15.0831C3.22875 15.5195 4.08463 15.7504 4.95 15.7504C5.81537 15.7504 6.67125 15.5195 7.42546 15.0831C7.56452 15.0029 7.65 14.854 7.65 14.6938V13.5076C7.65 12.7593 7.02447 12.1504 6.25544 12.1504ZM6.74999 14.4251C5.62996 14.9831 4.27004 14.9831 3.14997 14.4251V13.5076C3.14997 13.2556 3.37182 13.0504 3.64451 13.0504H6.25539C6.52808 13.0504 6.74993 13.2556 6.74993 13.5076V14.4251H6.74999Z" fill="white"/>
<path d="M15.7498 0C13.0206 0 10.7998 2.22075 10.7998 4.95002C10.7998 7.67929 13.0206 9.90003 15.7498 9.90003C18.4791 9.90003 20.6998 7.67929 20.6998 4.95002C20.6998 2.22075 18.479 0 15.7498 0ZM15.7498 9.00002C13.5165 9.00002 11.6998 7.18337 11.6998 4.95002C11.6998 2.71666 13.5165 0.900018 15.7498 0.900018C17.9832 0.900018 19.7998 2.71666 19.7998 4.95002C19.7998 7.18337 17.9832 9.00002 15.7498 9.00002Z" fill="white"/>
<path d="M15.7502 1.7998C14.7575 1.7998 13.9502 2.60712 13.9502 3.59979C13.9502 4.59246 14.7575 5.39977 15.7502 5.39977C16.7428 5.39977 17.5502 4.59251 17.5502 3.59984C17.5502 2.60717 16.7428 1.7998 15.7502 1.7998ZM15.7502 4.4998C15.2538 4.4998 14.8502 4.09618 14.8502 3.59979C14.8502 3.10345 15.2538 2.69977 15.7502 2.69977C16.2466 2.69977 16.6502 3.1034 16.6502 3.59979C16.6501 4.09618 16.2465 4.4998 15.7502 4.4998Z" fill="white"/>
<path d="M17.0562 6.2998H14.4453C13.6763 6.2998 13.0508 6.90868 13.0508 7.65655V8.84276C13.0508 9.00339 13.1363 9.15189 13.2753 9.23246C14.0295 9.66895 14.8854 9.89982 15.7508 9.89982C16.6161 9.89982 17.472 9.66895 18.2262 9.23246C18.3653 9.15236 18.4508 9.00339 18.4508 8.84323V7.65703C18.4508 6.90862 17.8252 6.2998 17.0562 6.2998ZM17.5508 8.57455C16.4307 9.13253 15.0708 9.13253 13.9507 8.57455V7.65703C13.9507 7.40501 14.1726 7.19982 14.4453 7.19982H17.0562C17.3288 7.19982 17.5507 7.40501 17.5507 7.65703V8.57455H17.5508Z" fill="white"/>
<path d="M11.5922 4.65702C11.4307 4.46892 11.1467 4.4464 10.9577 4.60798L7.83921 7.2765C7.65021 7.43803 7.62817 7.722 7.7897 7.911C7.87882 8.01494 8.0048 8.06852 8.13168 8.06852C8.2352 8.06852 8.33914 8.03298 8.4242 7.96004L11.5427 5.29152C11.7318 5.13 11.7538 4.84602 11.5922 4.65702Z" fill="white"/>
<path d="M21.51 11.8805L18.81 8.28051C18.661 8.08117 18.3789 8.04199 18.18 8.19049C17.9811 8.33947 17.941 8.6216 18.09 8.82004L20.79 12.42C20.8786 12.538 21.0136 12.6 21.1504 12.6C21.244 12.6 21.339 12.5708 21.42 12.51C21.6189 12.3611 21.659 12.079 21.51 11.8805Z" fill="white"/>
<path d="M17.8169 18.138C17.6679 17.9391 17.3857 17.899 17.1868 18.048L14.6731 19.933C14.4742 20.082 14.4342 20.3641 14.5831 20.5626C14.6718 20.6805 14.8068 20.7425 14.9436 20.7425C15.0376 20.7425 15.1321 20.7129 15.2131 20.6525L17.7268 18.7675C17.9257 18.6186 17.9658 18.3364 17.8169 18.138Z" fill="white"/>
<path d="M6.30021 21.5996H3.15018C2.9018 21.5996 2.7002 21.8007 2.7002 22.0496C2.7002 22.2984 2.9018 22.4996 3.15018 22.4996H6.30016C6.54854 22.4996 6.75014 22.2984 6.75014 22.0496C6.75014 21.8007 6.54859 21.5996 6.30021 21.5996Z" fill="white"/>
<path d="M4.95043 0C3.9577 0 3.15039 0.807311 3.15039 1.79998C3.15039 2.79271 3.9577 3.59996 4.95037 3.59996C5.9431 3.59996 6.75036 2.79265 6.75036 1.79998C6.75041 0.807311 5.9431 0 4.95043 0ZM4.95043 2.7C4.45409 2.7 4.05041 2.29637 4.05041 1.79998C4.05041 1.30365 4.45404 0.899965 4.95043 0.899965C5.44676 0.899965 5.85044 1.30359 5.85044 1.79998C5.85039 2.29637 5.44676 2.7 4.95043 2.7Z" fill="white"/>
<path d="M4.94998 2.7002C4.7016 2.7002 4.5 2.90132 4.5 3.15018V6.30016C4.5 6.54901 4.7016 6.75014 4.94998 6.75014C5.19836 6.75014 5.39996 6.54901 5.39996 6.30016V3.15018C5.39996 2.90132 5.19836 2.7002 4.94998 2.7002Z" fill="white"/>
</g>
<defs>
<clipPath id="clip0">
<rect width="27" height="27" fill="white"/>
</clipPath>
</defs>
</svg>
