<svg width="28" height="28" viewBox="0 0 28 28" fill="none" xmlns="http://www.w3.org/2000/svg">
<path d="M27.5118 18.1349C27.5037 18.1255 27.4951 18.1164 27.4863 18.1076C27.0434 17.6647 26.4441 17.4367 25.8393 17.4553V9.33547L27.6421 8.61912C27.7875 8.56131 27.9012 8.44406 27.9544 8.29684C28.0076 8.14968 27.9952 7.98682 27.9204 7.84934C27.9204 7.84934 25.7501 3.86715 25.7499 3.86682C25.7036 3.79605 25.6429 3.73885 25.5735 3.69734C25.5728 3.69691 25.5721 3.69647 25.5714 3.69609C25.5691 3.69472 25.4735 3.65031 25.4621 3.64659L16.9054 0.782166C16.7928 0.744486 16.6708 0.744486 16.5582 0.782166L8.00534 3.64517C7.88841 3.68241 7.78429 3.75876 7.71374 3.86649C7.71341 3.86698 7.69094 3.90445 7.69077 3.90483L5.54308 7.84928C5.46827 7.98677 5.45591 8.14963 5.50912 8.29679C5.56233 8.44395 5.67603 8.56126 5.82144 8.61907L7.62422 9.33542V16.6254C7.0384 16.8644 6.52702 17.1959 6.09548 17.5475C6.00164 17.3813 5.82346 17.2692 5.61904 17.2692H0.546876C0.244836 17.2692 0 17.514 0 17.816V25.0849C0 25.3869 0.244836 25.6318 0.546876 25.6318H3.43482C3.73686 25.6318 3.9817 25.3869 3.9817 25.0849V24.5575H5.61893C5.71245 24.5575 5.8005 24.534 5.87744 24.4926L6.01635 24.526C6.69201 24.6883 7.36412 24.8957 8.01392 25.1423L12.0245 26.6649C13.039 27.05 14.1036 27.2453 15.1886 27.2453C16.9525 27.2453 18.6611 26.7285 20.1295 25.7508C22.7996 23.9729 27.1059 21.0948 27.149 21.0659C27.1528 21.0633 27.1567 21.0607 27.1605 21.058C27.6182 20.735 27.919 20.2308 27.9858 19.6745C28.0528 19.1184 27.88 18.5571 27.5118 18.1349ZM2.88794 24.538H1.09375V18.3629H2.88794V24.538ZM5.07211 23.4637H3.9817V18.3629H5.07206V23.4637H5.07211ZM26.6648 7.83047L19.3527 10.736L17.538 7.74105L25.0415 4.84917L26.6648 7.83047ZM16.7318 12.8639C16.4297 12.8639 16.1849 13.1088 16.1849 13.4107V18.2355H14.8935C14.0028 18.2355 13.2342 17.6802 12.7749 17.3484C12.6445 17.2541 12.5415 17.1796 12.4474 17.1258C11.0374 16.318 9.787 16.1464 8.71802 16.3172V9.77007L14.1369 11.9233C14.2028 11.9495 14.2712 11.9621 14.3387 11.9621C14.5252 11.9621 14.705 11.8663 14.8066 11.6986L16.7319 8.52112L18.6571 11.6985C18.7588 11.8663 18.9384 11.9621 19.125 11.9621C19.1925 11.9621 19.2609 11.9495 19.3268 11.9233L24.7457 9.77007V17.7678L21.5032 19.2578C21.109 18.6434 20.42 18.2356 19.6376 18.2356H17.2787V13.4108C17.2787 13.1088 17.0338 12.8639 16.7318 12.8639ZM16.7318 1.87739L23.6778 4.2026L16.7318 6.87962L9.78575 4.2026L16.7318 1.87739ZM6.79871 7.83047L8.422 4.84917L15.9255 7.74105L14.1108 10.736L6.79871 7.83047ZM26.9 19.5441C26.8699 19.7951 26.7403 20.0139 26.535 20.1608C26.3442 20.2883 22.1449 23.0948 19.5234 24.8403C18.2352 25.6981 16.7363 26.1515 15.1887 26.1515C14.2368 26.1515 13.3029 25.9801 12.4129 25.6423L8.40226 24.1197C7.70926 23.8566 6.99252 23.6355 6.27196 23.4624L6.16592 23.4369V18.9743C7.36555 17.6984 9.29963 16.5828 11.9038 18.0748C11.9478 18.1 12.0426 18.1686 12.1344 18.2348C12.6637 18.6173 13.649 19.3292 14.8935 19.3292H19.6377C20.256 19.3292 20.7591 19.8326 20.7591 20.4514C20.7591 21.0702 20.256 21.5736 19.6377 21.5736H11.3775C11.0754 21.5736 10.8306 21.8185 10.8306 22.1205C10.8306 22.4225 11.0754 22.6674 11.3775 22.6674H19.6376C20.859 22.6674 21.8527 21.6733 21.8527 20.4514C21.8527 20.4016 21.851 20.3521 21.8478 20.3031L25.5112 18.6196C25.9218 18.4664 26.3845 18.5632 26.6993 18.8676C26.8585 19.0577 26.9297 19.2971 26.9 19.5441Z" fill="white"/>
<path d="M9.71031 22.0142C9.7032 21.9792 9.69281 21.9448 9.67914 21.912C9.66547 21.8791 9.64852 21.8474 9.62883 21.8179C9.60859 21.7878 9.58563 21.7599 9.56047 21.7347C9.53526 21.7096 9.50742 21.6866 9.47734 21.6664C9.44781 21.6467 9.41609 21.6297 9.38328 21.6161C9.34992 21.6024 9.31547 21.592 9.28102 21.5849C9.21047 21.5707 9.13768 21.5707 9.06719 21.5849C9.03219 21.592 8.99773 21.6024 8.96492 21.6161C8.93156 21.6297 8.89984 21.6467 8.87031 21.6664C8.84023 21.6866 8.81234 21.7096 8.78719 21.7347C8.76203 21.7599 8.73906 21.7878 8.71938 21.8179C8.69969 21.8474 8.68273 21.8791 8.66906 21.912C8.65539 21.9447 8.645 21.9792 8.63789 22.0142C8.63078 22.0498 8.62695 22.0853 8.62695 22.1214C8.62695 22.1569 8.63078 22.193 8.63789 22.2281C8.645 22.2631 8.65539 22.2975 8.66906 22.3303C8.68273 22.3631 8.69969 22.3954 8.71938 22.4249C8.73906 22.455 8.76203 22.4829 8.78719 22.508C8.81234 22.5332 8.84023 22.5562 8.87031 22.5758C8.89984 22.5955 8.93156 22.6125 8.96492 22.6261C8.99773 22.6398 9.03219 22.6502 9.06719 22.6573C9.10219 22.6644 9.13828 22.6683 9.17383 22.6683C9.20938 22.6683 9.24547 22.6644 9.28102 22.6573C9.31547 22.6502 9.34992 22.6398 9.38328 22.6261C9.41609 22.6125 9.44781 22.5955 9.47734 22.5758C9.50742 22.5562 9.53531 22.5332 9.56047 22.508C9.58563 22.4829 9.60859 22.455 9.62883 22.4249C9.64852 22.3954 9.66547 22.3631 9.67914 22.3303C9.69281 22.2975 9.7032 22.2631 9.71031 22.2281C9.71742 22.1931 9.7207 22.1569 9.7207 22.1214C9.7207 22.0853 9.71742 22.0498 9.71031 22.0142Z" fill="white"/>
</svg>
