<svg width="27" height="27" viewBox="0 0 27 27" fill="none" xmlns="http://www.w3.org/2000/svg">
<path d="M21.1372 20.5147C21.1372 19.8021 20.7013 19.1894 20.0822 18.9291C20.2077 18.6906 20.2788 18.4191 20.2788 18.1315C20.2788 17.1837 19.5076 16.4125 18.5597 16.4125H16.2736V13.4926C19.2246 12.7279 21.4102 10.0422 21.4102 6.85545C21.4102 3.07536 18.3349 0 14.5547 0C13.6101 0 12.6945 0.189105 11.8331 0.562095C11.5659 0.677794 11.443 0.988293 11.5587 1.25555C11.6744 1.52281 11.9851 1.64573 12.2522 1.52993C12.9804 1.21458 13.7552 1.05469 14.5547 1.05469C17.7533 1.05469 20.3555 3.65691 20.3555 6.85545C20.3555 10.054 17.7533 12.6562 14.5547 12.6562C11.3562 12.6562 8.7539 10.054 8.7539 6.85545C8.7539 6.05563 8.91384 5.28092 9.2293 4.55265C9.34505 4.2854 9.22229 3.9749 8.95503 3.85915C8.68793 3.74339 8.37727 3.86616 8.26157 4.13347C7.88843 4.99478 7.69921 5.91061 7.69921 6.85545C7.69921 10.0422 9.88484 12.7279 12.8357 13.4926V15.8758H12.7483C11.2042 15.8758 9.73771 16.5171 8.68677 17.6436H6.11719C5.97728 17.6436 5.84313 17.6992 5.7442 17.7981C5.64532 17.8971 5.58974 18.0313 5.58984 18.1712L5.59354 24.7051C5.59369 24.9963 5.82973 25.2321 6.12088 25.2321H8.68951C9.74325 26.3587 11.2087 26.9999 12.7483 26.9999L18.1536 27C19.1014 27 19.8726 26.2289 19.8726 25.281C19.8726 24.9867 19.7983 24.7095 19.6674 24.4671C20.2665 24.1982 20.6848 23.5959 20.6848 22.8979C20.6848 22.5406 20.5752 22.2085 20.388 21.9333C20.8401 21.6234 21.1372 21.103 21.1372 20.5147ZM14.5547 13.7109C14.7788 13.7109 15.0003 13.6997 15.219 13.6786V16.4125H13.8905V16.4031V13.6786C14.1091 13.6998 14.3306 13.7109 14.5547 13.7109ZM19.4182 21.179H18.9659C18.6747 21.179 18.4386 21.4151 18.4386 21.7064C18.4386 21.9976 18.6747 22.2337 18.9659 22.2337C19.3321 22.2337 19.6301 22.5317 19.6301 22.8979C19.6301 23.2641 19.3322 23.5621 18.9659 23.5621H18.1536C17.8624 23.5621 17.6262 23.7982 17.6262 24.0895C17.6262 24.3807 17.8623 24.6168 18.1536 24.6168C18.5199 24.6168 18.8179 24.9148 18.8179 25.2811C18.8179 25.6474 18.5199 25.9454 18.1536 25.9454L12.7483 25.9453C11.4351 25.9453 10.1876 25.3681 9.32564 24.3618C9.2255 24.2448 9.07917 24.1774 8.92513 24.1774H6.64796L6.64485 18.6983H8.92276C9.07711 18.6983 9.22366 18.6306 9.32385 18.5133C10.1824 17.5074 11.4306 16.9304 12.7483 16.9304H12.8357V16.9398C12.8357 17.2311 13.0718 17.4672 13.363 17.4672H18.5597C18.926 17.4672 19.224 17.7651 19.224 18.1314C19.224 18.4977 18.926 18.7957 18.5597 18.7957C18.2685 18.7957 18.0323 19.0318 18.0323 19.323C18.0323 19.6143 18.2685 19.8504 18.5597 19.8504H19.4182C19.7845 19.8504 20.0825 20.1484 20.0825 20.5146C20.0825 20.881 19.7846 21.179 19.4182 21.179Z" fill="white"/>
<path d="M12.8322 9.26113C13.1406 9.56952 13.5457 9.72371 13.9508 9.72371C14.3559 9.72371 14.7609 9.56952 15.0694 9.26113L17.6435 6.68706C18.2602 6.07027 18.2602 5.06663 17.6435 4.44985C17.0266 3.83312 16.0231 3.83312 15.4062 4.44985L13.9508 5.90532L13.7035 5.658C13.0866 5.04127 12.0831 5.04127 11.4663 5.658C11.1675 5.95679 11.0029 6.35404 11.0029 6.7766C11.0029 7.19916 11.1675 7.59641 11.4663 7.8952L12.8322 9.26113ZM12.212 6.40382C12.3148 6.30104 12.4498 6.24968 12.5848 6.24968C12.7198 6.24968 12.8549 6.30109 12.9576 6.40382L13.5778 7.02403C13.7838 7.22996 14.1176 7.22996 14.3237 7.02403L16.152 5.19567C16.3576 4.99012 16.692 4.99012 16.8976 5.19567C16.9972 5.29524 17.0521 5.42765 17.0521 5.56845C17.0521 5.70925 16.9972 5.84167 16.8976 5.94123L14.3236 8.51531C14.118 8.72086 13.7836 8.72086 13.578 8.51531L12.212 7.14938C12.1124 7.04982 12.0576 6.91745 12.0576 6.7766C12.0576 6.63575 12.1124 6.50338 12.212 6.40382Z" fill="white"/>
<path d="M10.0801 2.90727C10.2151 2.90727 10.3502 2.85574 10.4532 2.75275C10.6591 2.54683 10.6591 2.21291 10.4532 2.00698C10.2472 1.80106 9.9134 1.80106 9.70736 2.00698L9.7071 2.00725C9.50117 2.21318 9.50133 2.54693 9.70726 2.75286C9.81025 2.8558 9.9452 2.90727 10.0801 2.90727Z" fill="white"/>
</svg>
