<svg width="571" height="436" viewBox="0 0 571 436" fill="none" xmlns="http://www.w3.org/2000/svg">
<circle cx="351" cy="205" r="205" fill="#27335B"/>
<circle cx="530.5" cy="395.5" r="40.5" fill="#27335B"/>
<circle cx="76" cy="375" r="58" fill="#323F6B"/>
<circle cx="18" cy="153" r="18" fill="#323F6B"/>
<path d="M435.7 241.2C437.5 239.3 439.5 238.4 441.8 238.4H455.3C455.4 238.4 455.5 238.4 455.5 238.5C455.6 238.6 455.6 238.6 455.6 238.7V244.4C455.6 244.5 455.6 244.5 455.5 244.6C455.4 244.7 455.4 244.7 455.3 244.7H449.1C449 244.7 448.8 244.7 448.8 244.7H443.2C442.4 244.7 441.8 245 441.2 245.6L414 275C413.9 275 413.9 275.1 413.8 275.1H405.2C405.1 275.1 405 275 404.9 274.9C404.9 274.8 404.9 274.7 405 274.6L435.7 241.2Z" fill="white"/>
<path d="M425.1 260.7L405 238.9C404.9 238.8 404.9 238.7 404.9 238.6C404.9 238.5 405 238.4 405.2 238.4H413.8C413.9 238.4 413.9 238.4 414 238.5L428.8 254.5" fill="white"/>
<path d="M93.2002 238.7C93.2002 238.6 93.2002 238.5 93.3002 238.5C93.4002 238.4 93.4002 238.4 93.5002 238.4H99.7002C99.8002 238.4 99.8002 238.4 99.9002 238.5C100 238.6 100 238.6 100 238.7V274.8C100 274.9 100 274.9 99.9002 275C99.8002 275.1 99.8002 275.1 99.7002 275.1H87.2002H87.1002C84.5002 275 82.5002 273.8 81.0002 271.5L65.3002 246.1C64.6002 245.2 63.8002 244.7 62.9002 244.7H58.6002V274.8C58.6002 274.9 58.6002 274.9 58.5002 275C58.4002 275.1 58.4002 275.1 58.3002 275.1H52.0002C51.9002 275.1 51.9002 275.1 51.8002 275C51.7002 274.9 51.7002 274.9 51.7002 274.8V238.7C51.7002 238.6 51.7002 238.5 51.8002 238.5C51.9002 238.4 51.9002 238.4 52.0002 238.4H64.6002H64.7002C67.3002 238.5 69.3002 239.7 70.8002 242L86.5002 267.4C87.1002 268.4 87.9002 268.8 88.9002 268.8H93.2002V238.7Z" fill="white"/>
<path d="M148.7 238.4C151.4 238.4 153.7 239.4 155.5 241.5C157.3 243.6 158.3 246 158.3 248.9V264.6C158.3 267.5 157.4 270 155.5 272C153.6 274 151.3 275.1 148.7 275.1H119.8C117.1 275.1 114.9 274.1 113 272C111.1 269.9 110.2 267.5 110.2 264.6V248.9C110.2 246 111.1 243.5 113 241.5C114.9 239.5 117.2 238.4 119.8 238.4H148.7ZM151.6 247.8C151.6 246.9 151.3 246.2 150.8 245.6C150.3 245 149.6 244.7 148.7 244.7H119.8C119 244.7 118.3 245 117.8 245.6C117.3 246.2 116.9 247 116.9 247.8V265.6C116.9 266.5 117.2 267.2 117.8 267.8C118.4 268.4 119.1 268.7 119.8 268.7H148.7C149.5 268.7 150.2 268.4 150.8 267.8C151.4 267.2 151.6 266.4 151.6 265.6V247.8Z" fill="white"/>
<path d="M216.7 252.6C216.7 254.7 216.2 256.6 215.1 258.3C214.1 260 212.7 261.3 211 262.1L211.1 262.4L216.5 274.7C216.5 274.8 216.5 274.9 216.5 275C216.5 275.1 216.4 275.1 216.3 275.1H209.4C209.3 275.1 209.2 275 209.1 274.9L203.9 263H175.2V274.7C175.2 274.8 175.2 274.8 175.1 274.9C175 275 175 275 174.9 275H168.7C168.6 275 168.6 275 168.5 274.9C168.4 274.8 168.4 274.8 168.4 274.7V238.7C168.4 238.6 168.4 238.5 168.5 238.5C168.6 238.4 168.6 238.4 168.7 238.4H207C209.7 238.4 211.9 239.4 213.8 241.5C215.7 243.6 216.6 246 216.6 248.9V252.6H216.7ZM175.2 256.8H207C207.8 256.8 208.5 256.5 209 255.9C209.6 255.3 209.8 254.5 209.8 253.7V247.9C209.8 247 209.5 246.3 209 245.7C208.4 245.1 207.8 244.8 207 244.8H175.2V256.8Z" fill="white"/>
<path d="M277 274.8C277 274.9 277 275 276.9 275C276.8 275.1 276.8 275.1 276.7 275.1H270.5C270.4 275.1 270.4 275.1 270.3 275C270.2 274.9 270.2 274.9 270.2 274.8V244.7H266.5C265.3 244.7 264.4 245.4 263.8 246.8L254.7 274.9C254.7 275 254.6 275.1 254.4 275.1H249.4C249.3 275.1 249.2 275 249.1 274.9L240 246.8C239.4 245.4 238.5 244.7 237.3 244.7H233.6V274.8C233.6 274.9 233.6 275 233.5 275C233.4 275.1 233.4 275.1 233.3 275.1H227.1C227 275.1 227 275.1 226.9 275C226.8 274.9 226.8 274.9 226.8 274.8V238.8C226.8 238.7 226.8 238.6 226.9 238.6C227 238.5 227 238.5 227.1 238.5H239.5C239.7 238.5 240 238.5 240.2 238.5C241.5 238.7 242.6 239.2 243.6 240.1C244.6 241 245.2 242.1 245.7 243.4L252 262.9L258.2 243.4C258.7 242.1 259.4 240.9 260.3 240C261.3 239.1 262.4 238.6 263.7 238.4C263.9 238.4 264.1 238.4 264.3 238.4H276.7C276.8 238.4 276.9 238.4 276.9 238.5C277 238.6 277 238.6 277 238.7V274.8Z" fill="white"/>
<path d="M316.901 241.2C318.701 239.3 320.701 238.4 323.001 238.4H336.501C336.601 238.4 336.701 238.4 336.701 238.5C336.801 238.6 336.801 238.6 336.801 238.7V274.8C336.801 274.9 336.801 274.9 336.701 275C336.601 275.1 336.601 275.1 336.501 275.1H330.301C330.201 275.1 330.201 275.1 330.101 275C330.001 274.9 330.001 274.9 330.001 274.8V244.7H324.401C323.601 244.7 323.001 245 322.401 245.6L295.201 275C295.101 275 295.101 275.1 295.001 275.1H286.401C286.301 275.1 286.201 275 286.101 274.9C286.101 274.8 286.101 274.7 286.201 274.6L316.901 241.2Z" fill="white"/>
<path d="M353.7 250.5C353.7 251.4 354 252.1 354.5 252.7C355.1 253.3 355.7 253.6 356.5 253.6H385.5C388.2 253.6 390.4 254.6 392.3 256.7C394.2 258.8 395.1 261.2 395.1 264.1V264.6C395.1 267.5 394.2 270 392.3 272C390.4 274.1 388.2 275.1 385.5 275.1H349.1C349 275.1 349 275.1 348.9 275C348.8 274.9 348.8 274.9 348.8 274.8V269.1C348.8 269 348.8 268.9 348.9 268.9C349 268.8 349 268.8 349.1 268.8H385.5C386.3 268.8 387 268.5 387.5 267.9C388.1 267.3 388.3 266.6 388.3 265.7V263C388.3 262.1 388 261.4 387.5 260.8C387 260.2 386.3 259.9 385.5 259.9H356.5C353.8 259.9 351.6 258.9 349.7 256.8C347.8 254.7 346.9 252.3 346.9 249.4V248.9C346.9 246 347.8 243.5 349.7 241.5C351.6 239.5 353.8 238.4 356.5 238.4H393C393.1 238.4 393.1 238.4 393.2 238.5C393.3 238.6 393.3 238.6 393.3 238.7V244.4C393.3 244.5 393.3 244.5 393.2 244.6C393.1 244.7 393.1 244.7 393 244.7H356.6C355.8 244.7 355.1 245 354.6 245.6C354.1 246.2 353.8 247 353.8 247.8V250.5H353.7Z" fill="white"/>
<path d="M470.6 250.5C470.6 251.4 470.9 252.1 471.4 252.7C472 253.3 472.6 253.6 473.4 253.6H502.4C505.1 253.6 507.3 254.6 509.2 256.7C511.1 258.8 512 261.2 512 264.1V264.6C512 267.5 511.1 270 509.2 272C507.3 274.1 505.1 275.1 502.4 275.1H460C459.9 275.1 459.9 275.1 459.8 275C459.7 274.9 459.7 274.9 459.7 274.8V269.1C459.7 269 459.7 268.9 459.8 268.9C459.9 268.8 459.9 268.8 460 268.8H502.4C503.2 268.8 503.9 268.5 504.4 267.9C505 267.3 505.2 266.6 505.2 265.7V263C505.2 262.1 504.9 261.4 504.4 260.8C503.9 260.2 503.2 259.9 502.4 259.9H473.4C470.7 259.9 468.5 258.9 466.6 256.8C464.7 254.7 463.8 252.3 463.8 249.4V248.9C463.8 246 464.7 243.5 466.6 241.5C468.5 239.5 470.7 238.4 473.4 238.4H509.8C509.9 238.4 509.9 238.4 510 238.5C510.1 238.6 510.1 238.6 510.1 238.7V244.4C510.1 244.5 510.1 244.5 510 244.6C509.9 244.7 509.9 244.7 509.8 244.7H473.4C472.6 244.7 471.9 245 471.4 245.6C470.9 246.2 470.6 247 470.6 247.8V250.5Z" fill="white"/>
<g clip-path="url(#clip0)">
<path d="M303.498 157C303.246 157 302.994 157 302.743 157C301.735 156.746 301.231 156.24 300.979 155.733L271.504 110.391C271 109.884 271 109.124 271 108.365C271 107.605 271 106.085 271 104.058C271 93.166 271 93.166 272.763 92.6594L273.519 94.9392L276.039 95.1925C276.039 95.9524 276.039 100.765 276.039 103.805C276.039 106.085 276.039 107.351 276.039 108.111L304.254 151.427L313.575 148.134C313.575 144.841 313.575 136.988 313.575 136.228H316.095L318.362 134.709C319.37 135.975 318.614 151.174 318.362 151.174C318.11 151.934 317.354 152.44 316.598 152.693L304.758 156.746C304.254 157 304.002 157 303.498 157ZM302.994 151.934C302.994 151.934 302.994 152.187 302.994 151.934V151.934ZM364.212 134.962C361.189 134.962 358.418 134.455 355.647 133.189L304.506 111.658C303.246 111.151 301.735 111.151 300.475 111.658L298.964 106.845C301.483 106.085 304.002 106.085 306.521 107.098L357.662 128.629C361.945 130.402 365.976 130.402 370.51 128.882L393.436 121.03C393.436 117.737 393.436 109.884 393.436 109.124H395.955L398.222 107.605C399.23 109.124 398.474 123.816 398.474 123.816C398.222 124.576 397.466 125.083 396.711 125.336L372.526 133.695C369.503 134.455 366.732 134.962 364.212 134.962ZM368.495 109.884L351.112 83.0337C350.608 82.2738 350.608 81.5139 350.608 81.0072C350.608 80.5006 350.608 78.9808 350.608 76.9543C350.608 65.8087 350.608 65.8088 352.372 65.0488L353.128 67.3286L355.647 67.5819C355.647 68.3418 355.647 73.6613 355.647 76.701C355.647 78.7275 355.647 79.7407 355.647 80.5006L372.778 106.591L368.495 109.884Z" fill="white"/>
<path d="M415.605 116.978C415.353 116.978 415.101 116.978 414.849 116.978C414.094 116.724 413.338 116.218 413.086 115.711L406.032 106.339C405.528 105.579 405.276 104.819 405.528 104.059C405.528 103.552 405.528 102.033 405.528 100.513C405.528 97.7263 405.528 95.6999 405.528 94.4333C404.268 94.18 403.009 93.9267 401.749 93.6734C395.955 92.1535 391.42 89.3672 388.901 85.3142L388.397 84.5543C386.886 82.0212 386.13 79.7414 386.13 77.2084V76.7018C386.13 63.5297 386.13 63.2764 386.13 63.2764L391.168 63.5297C391.168 64.0363 391.168 74.6753 391.168 76.7018V77.2084C391.168 78.7282 391.672 80.2481 392.68 81.7679L393.184 82.5278C395.199 85.5675 398.474 87.594 403.261 88.8605C407.04 89.8738 410.567 89.8738 414.346 89.1138L417.621 88.1006L419.132 92.9135C417.872 93.4201 416.613 93.6734 415.605 93.9267L411.07 95.1932C411.07 96.7131 411.07 98.9929 411.07 100.513C411.07 102.286 411.07 103.299 411.07 104.059L416.865 111.912L485.388 88.3539C489.923 86.8341 492.946 84.5543 494.458 81.2613C495.213 79.9948 495.465 78.4749 495.465 77.4617V76.9551C495.465 74.6753 495.465 64.2896 495.465 63.5297L500.504 63.2764C500.504 63.2764 500.504 63.5297 500.504 76.7018V77.2084C500.504 79.2348 500 81.2613 498.992 83.5411C496.725 87.8473 492.694 91.1403 486.9 93.1668L416.613 116.724C416.109 116.724 415.857 116.978 415.605 116.978ZM475.815 49.5978L474.052 44.7849C473.548 45.0382 473.296 45.2915 473.044 45.7982C472.792 46.5581 472.792 47.318 473.044 48.0779L472.54 47.5713V33.8927H474.052L476.823 31.8662L477.831 33.1328V46.5581C477.831 47.0647 477.831 47.8246 477.579 48.3312C477.075 48.8379 476.571 49.3445 475.815 49.5978Z" fill="white"/>
<path d="M303.498 143.322C303.246 143.322 302.994 143.322 302.742 143.322C301.986 143.068 301.23 142.562 300.978 142.055L271.503 96.7131C270.999 95.6998 270.747 94.6866 271.251 93.6734C271.503 92.9134 272.259 92.4068 273.015 92.1535L297.199 83.7944C302.994 82.0212 308.536 82.2745 313.827 84.301L364.715 105.832C365.975 106.339 367.487 106.339 368.746 106.085L374.037 104.312L351.111 69.3558C350.608 68.5959 350.356 67.3293 350.86 66.5694C351.111 66.0628 351.615 65.3029 352.623 65.0496L364.464 60.9966C364.967 60.7433 365.723 60.7433 366.227 60.9966C366.983 61.2499 367.739 61.7565 367.99 62.2632L397.466 107.352C397.97 108.112 397.97 109.378 397.718 110.138C397.466 110.898 396.71 111.405 395.954 111.658L371.769 120.017C365.975 121.791 360.433 121.791 355.142 119.511L304.253 97.9796C302.994 97.473 301.482 97.473 300.223 97.9796L294.932 99.7528L317.857 134.709C318.361 135.469 318.361 136.736 318.109 137.496C317.857 138.256 317.102 138.762 316.346 139.016L304.505 143.068C304.253 143.068 304.001 143.322 303.498 143.322ZM277.297 96.2065L304.505 137.749L312.567 134.963L287.626 96.9664L298.963 93.1668C301.482 92.4068 304.001 92.4068 306.521 93.4201L357.662 114.951C361.944 116.724 365.975 116.724 370.51 115.205L392.175 107.859L364.967 66.0628L356.906 68.8492L381.846 106.845L370.51 110.645C367.99 111.405 365.471 111.405 362.952 110.392L312.063 88.8605C307.78 87.0874 303.75 87.0874 299.215 88.3539L277.297 96.2065Z" fill="white"/>
<path d="M415.352 103.045C415.101 103.045 414.849 103.045 414.597 103.045C413.841 102.792 413.085 102.285 412.833 101.779L408.299 94.6862C407.795 93.673 407.795 92.6597 408.047 91.8998C408.551 91.1399 409.054 90.6333 409.81 90.38L479.593 66.0624C480.853 65.5558 481.105 65.0491 481.357 64.7958C481.609 64.5425 481.609 64.2892 481.357 64.0359L479.09 60.7429C478.838 60.2363 478.082 59.7297 477.074 59.4764C476.066 59.2231 474.807 59.2231 473.799 59.4764L418.124 78.7278C412.581 80.7543 406.787 80.7543 401.245 79.4877C395.45 77.9679 390.916 75.1815 388.397 71.1285L387.893 70.3686C385.121 66.0624 384.87 61.2495 387.137 56.69C389.404 52.3837 393.435 49.0907 399.229 47.0643L469.013 23C469.516 23 470.272 23 470.776 23C471.784 23.2533 472.288 23.7599 472.539 24.2665L477.074 31.3592C477.578 32.3724 477.578 33.3856 477.326 34.1456C477.074 34.9055 476.318 35.4121 475.563 35.6654L405.779 59.7297C404.52 60.2363 404.268 60.9962 404.268 60.9962C404.016 61.2495 404.016 61.5028 404.268 61.7561L406.283 65.0491C406.535 65.3025 406.787 65.8091 408.299 66.3157C409.306 66.569 410.566 66.569 411.574 66.3157L467.249 47.0643C472.791 45.0378 478.586 45.0378 484.128 46.3043C489.922 47.8242 494.457 50.6106 497.228 54.9168L497.732 55.6767C500.503 59.983 500.755 64.7958 498.488 69.3554C496.22 73.6616 492.19 76.9546 486.395 78.9811L416.612 103.045C416.108 103.045 415.856 103.045 415.352 103.045ZM413.841 94.1796L416.108 97.7259L484.632 74.1682C489.167 72.6484 492.19 70.3686 493.701 67.0756C495.213 64.0359 494.961 61.2495 493.197 58.4631L492.694 57.7032C490.678 54.6635 487.403 52.3837 482.617 51.3705C477.83 50.104 473.043 50.3573 468.509 51.8771L413.085 71.1285C411.07 71.8885 409.054 71.8885 407.039 71.3819C404.772 70.8752 403.26 69.6087 402 68.0888L399.985 64.7958C398.725 63.0227 398.725 60.7429 399.733 58.9698C400.741 57.1966 402.252 55.9301 404.268 55.1701L471.532 32.1191L469.264 28.5728L400.741 52.1304C396.206 53.6503 393.183 55.9301 391.672 59.2231C390.16 62.2628 390.412 65.0492 392.175 67.8355L392.679 68.5955C394.695 71.6352 397.97 73.6616 402.756 74.9282C407.543 76.1947 412.329 75.9414 416.864 74.4215L472.539 55.1701C474.555 54.4102 476.57 54.4102 478.586 54.9168C480.853 55.4234 482.365 56.69 483.624 58.2098L485.892 61.5028C487.151 63.276 487.151 65.3025 486.143 67.3289C485.136 69.1021 483.624 70.3686 481.609 71.1285L413.841 94.1796Z" fill="white"/>
<path d="M306.016 140.789H300.978V154.468H306.016V140.789Z" fill="white"/>
<path d="M418.629 100.512H413.591V114.19H418.629V100.512Z" fill="white"/>
</g>
<defs>
<clipPath id="clip0">
<rect width="229" height="134" fill="white" transform="translate(271 23)"/>
</clipPath>
</defs>
</svg>
