<svg width="110" height="32" viewBox="0 0 110 32" fill="none" xmlns="http://www.w3.org/2000/svg">
<path d="M89.8644 10.5421C88.4224 10.5421 87.7387 13.1007 88.1753 16.8811C88.7039 21.4831 92.8099 21.4678 95.5906 20.3034L95.5868 22.5748C93.8785 23.0401 92.4843 23.157 91.2778 23.157C84.2685 23.157 83.5541 17.3925 83.5541 15.6689C83.5541 12.7426 84.5921 8.69783 90.1479 8.69783C93.8326 8.69783 95.9353 11.0956 95.9698 14.3091H91.5344C91.5267 12.304 91.1054 10.5478 89.8644 10.5478V10.5421ZM104.745 13.8399V13.5527C104.687 12.147 104.4 10.5402 103.194 10.5402C102.029 10.5402 101.635 11.8865 101.47 13.7499L101.46 13.838H104.743L104.745 13.8399ZM109.429 15.8508H101.411L101.414 15.9351C101.702 21.6038 105.919 21.4831 108.895 20.3015L108.893 22.5767C107.189 23.042 106.001 23.1589 104.684 23.1589C97.8658 23.1589 96.8508 18.0972 96.8508 15.508C96.8508 12.5147 98.153 8.69017 103.362 8.69592C107.206 8.69783 109.429 11.1224 109.429 14.4872V15.847V15.8508ZM61.4824 20.8148L61.4671 15.4716L61.379 15.4793C60.2299 15.5808 58.5446 16.0978 58.5446 18.4151C58.5427 20.583 59.5979 20.7707 60.6034 20.8129L61.4843 20.8148H61.4824ZM66.1113 22.7299L58.6174 22.728C55.8558 22.7241 53.8679 21.6019 53.8718 18.5415C53.8756 16.0519 55.3158 14.853 56.9781 14.2708C57.8111 13.9797 58.6978 13.8457 59.4869 13.7825C60.2759 13.7193 60.9615 13.7308 61.3867 13.7288H61.4671V13.296C61.4709 10.094 58.2746 10.4368 56.4687 10.9634C56.1239 11.0687 55.8118 11.1798 55.5494 11.289V9.19576C57.1447 8.8204 58.2306 8.69209 59.9254 8.69209C63.9338 8.69209 66.1113 10.5727 66.1113 13.7154V22.728V22.7299ZM53.7875 10.6972C52.692 10.747 51.0106 11.1377 51.0106 13.6963L51.0029 22.7299H46.3568L46.3626 13.5488C46.3664 10.7911 48.8905 8.694 52.8414 8.694H53.7837L53.7856 10.6972H53.7875ZM46.2898 3.43893L46.2879 5.40575L44.9339 5.44022C44.4685 5.47852 44.0261 5.55513 43.6431 5.71217C42.8618 6.03774 42.3408 6.69845 42.3408 8.00456V9.16321H45.6157L45.6138 11.1549H42.3313L42.3351 22.7299H37.6948V9.07511C37.6948 4.02878 41.1554 3.43701 45.3495 3.43701H46.2879L46.2898 3.43893ZM81.4896 22.7318H76.8206L76.811 14.5581C76.811 11.3369 75.5892 11.1683 73.8885 11.1588H73.5591L73.563 22.7318H68.9092L68.9054 9.10001C69.2827 9.1249 70.5409 9.16512 74.7369 9.16512C81.4647 9.16512 81.4839 12.2868 81.4858 14.8243L81.4877 22.7337L81.4896 22.7318ZM32.4014 31.5375C30.7506 31.5375 29.4138 30.1969 29.4138 28.5442C29.4138 26.8914 30.7544 25.5508 32.4014 25.5508C34.0484 25.5508 35.389 26.8914 35.389 28.5442C35.389 30.1969 34.0484 31.5375 32.4014 31.5375Z" fill="#FFCD00"/>
<path d="M34.7281 9.16151L34.7204 22.7301H30.0763L30.0801 9.16151H34.7281ZM32.4031 6.35778C30.7523 6.35778 29.4155 5.0172 29.4155 3.36637C29.4155 1.71554 30.7561 0.373047 32.4031 0.373047C34.0501 0.373047 35.3907 1.71363 35.3907 3.36637C35.3907 5.01912 34.0501 6.35778 32.4031 6.35778ZM8.72656 15.784C8.72656 12.8232 8.03711 11 5.90751 11H5.52448V20.859H5.97453C8.04286 20.859 8.72464 18.8865 8.72464 15.784H8.72656ZM0.855431 22.7282V3.43723H5.52448L5.52257 9.16343H7.00104C10.2376 9.16343 11.8367 10.4274 12.6315 11.8771C13.4358 13.3365 13.4358 14.9988 13.4358 15.8185C13.4358 17.971 12.756 22.732 7.42236 22.732L0.853516 22.7282H0.855431ZM20.1406 10.9962V20.859H20.5237C22.6552 20.859 23.3389 19.0358 23.3389 16.0712C23.3389 12.9726 22.6552 10.9962 20.5888 10.9962H20.1406ZM28.0539 16.0751C28.0539 16.8928 28.0539 18.5571 27.2496 20.0164C26.451 21.4661 24.8518 22.7301 21.6191 22.7301H20.1406V28.4563H15.4735V9.16343L22.0424 9.16343C27.3779 9.16151 28.0558 13.9225 28.0558 16.077L28.0539 16.0751Z" fill="#5E514D"/>
</svg>
