<svg width="67" height="67" viewBox="0 0 67 67" fill="none" xmlns="http://www.w3.org/2000/svg">
<g clip-path="url(#clip0)">
<path d="M21.3022 24.6011C23.1503 24.6011 24.6485 23.1029 24.6485 21.2548C24.6485 19.4071 23.1503 17.9089 21.3022 17.9089C19.4545 17.9089 17.9563 19.4071 17.9563 21.2548C17.9585 23.102 19.4551 24.5988 21.3022 24.6011ZM21.3022 19.2074C22.4333 19.2074 23.35 20.1241 23.35 21.2548C23.35 22.3859 22.4333 23.3026 21.3022 23.3026C20.1715 23.3026 19.2547 22.3859 19.2547 21.2548C19.256 20.1247 20.1721 19.2089 21.3022 19.2074Z" fill="white"/>
<path d="M50.4143 42.8399L50.1636 36.2895L51.3853 34.6094L49.904 31.8864L50.2013 30.9712L53.0001 29.6389V26.9267L50.2013 25.5943L49.904 24.6792L51.3853 21.9562L49.7908 19.7632L46.7435 20.33L45.9646 19.7638L45.562 16.6911L42.9845 15.853L40.8521 18.1024H39.8897L37.7573 15.853L35.1791 16.6911L35.0533 17.6494L26.0363 17.1124L25.4286 16.5048L25.2606 15.1413L22.8273 14.1301L21.7432 14.9771H20.8642L19.7772 14.1301L17.3426 15.1401L17.1753 16.5035L16.5521 17.1267L15.1886 17.2944L14.1771 19.7302L15.0257 20.8169V21.6978L14.1771 22.78L14.9816 24.7207L14.0858 36.2064C14.0655 36.3529 14.0541 36.5003 14.0513 36.6477V36.6718H14.0475V36.7225C14.0456 38.0396 14.7106 39.2683 15.8144 39.9873C16.9182 40.7062 18.3111 40.8175 19.515 40.2833L23.357 38.6825C22.7344 40.4403 23.4537 42.3923 25.0685 43.3256L19.134 45.2377C17.1708 45.6292 15.8242 47.4453 16.0195 49.4376C16.2148 51.4299 17.8885 52.9496 19.8904 52.9528H19.9246L43.83 51.699L44.1961 52.5768L46.2604 53.0003L47.936 51.3725L48.3627 51.2312L50.6796 51.5298L52.0789 49.9533L51.5067 47.6884L51.5977 47.2475L53.0143 45.3902L52.3509 43.3906L50.4143 42.8399ZM36.3593 17.6719L37.3788 17.341L39.3315 19.4008H41.4091L43.3618 17.341L44.3819 17.6719L44.7499 20.4866L46.4313 21.7083L49.2227 21.189L49.852 22.0557L48.4965 24.5498L49.139 26.5266L51.7016 27.7471V28.8185L49.139 30.0389L48.4965 32.0157L49.852 34.5092L49.2227 35.3759L46.4313 34.8567L44.7499 36.0784L44.3819 38.8927L43.3618 39.2239L41.4091 37.1641H39.3315L37.3788 39.2239L36.3593 38.8927L35.9906 36.0796L34.3093 34.8573L31.5175 35.3765L30.8879 34.5099L32.2434 32.017L31.6015 30.0396L29.0389 28.8191V27.7477L31.6015 26.5273L32.2434 24.5498L30.8879 22.057L31.5175 21.1903L34.3093 21.7095L35.9906 20.4859L36.3593 17.6719ZM15.6705 19.5283L16.0987 18.4895L17.1566 18.3595L18.4106 17.1074L18.5406 16.0499L19.5794 15.6213L20.4188 16.2768H22.1943L23.0299 15.6232L24.0687 16.0518L24.1983 17.1086L25.4495 18.363L26.507 18.4926L26.9362 19.5314L26.2804 20.3709V22.1464L26.9362 22.9858L26.507 24.0246L25.4495 24.1545L24.1952 25.4089L24.0652 26.4664L23.0267 26.8953L22.1873 26.2397H20.415L19.5753 26.8953L18.5368 26.4664L18.4068 25.4089L17.1537 24.1479L16.0968 24.0182L15.6686 22.9794L16.3241 22.14V20.3677L15.6705 19.5283ZM15.3459 36.7342L15.3535 36.6328C15.4844 35.2951 16.6681 34.3118 18.0074 34.4287C19.3467 34.5457 20.3421 35.7192 20.2387 37.0598C20.1357 38.4001 18.9726 39.4075 17.6314 39.3184C16.2899 39.229 15.2704 38.0764 15.3459 36.7342ZM27.0317 37.3717C28.4658 37.3717 29.6285 38.5345 29.6285 39.9686C29.6285 41.4027 28.4658 42.5654 27.0317 42.5654C25.5972 42.5654 24.4348 41.4027 24.4348 39.9686C24.4348 38.5345 25.5972 37.3717 27.0317 37.3717ZM17.2935 49.0575C17.2964 48.0488 17.8831 47.1333 18.7983 46.7092L19.4259 46.5073C20.388 46.3364 21.3644 46.7206 21.9521 47.5011C22.5398 48.2818 22.6387 49.3263 22.2086 50.2035C21.7781 51.0806 20.8911 51.6414 19.9144 51.6544H19.8824C18.4512 51.6499 17.2935 50.4888 17.2935 49.0575ZM22.9246 51.4939C23.6325 50.6175 23.9248 49.4766 23.7257 48.3677C23.5263 47.2589 22.8549 46.2911 21.8858 45.716L28.2267 43.6762C29.5965 43.2489 30.6204 42.1026 30.8914 40.6935C31.1625 39.2845 30.6369 37.8406 29.5236 36.9352C28.41 36.0302 26.889 35.8105 25.5649 36.3634L21.6205 38.0073C22.1902 36.3862 21.6281 34.5834 20.2381 33.5731C18.8477 32.5632 16.9597 32.5857 15.5938 33.6283L16.243 25.3458L16.5578 25.3848L17.181 26.008L17.3487 27.3714L19.7838 28.3788L20.868 27.535H21.7489L22.8324 28.3788L25.2606 27.374L25.4286 26.0105L26.0518 25.3873L27.4152 25.219L28.423 22.7854L27.5788 21.7016V20.8169L28.423 19.7327L27.9243 18.5278L34.8872 18.9399L34.7794 19.7644L34.0002 20.33L30.9536 19.7632L29.3591 21.9562L30.8397 24.6792L30.543 25.5924L27.7443 26.9267V29.6389L30.5424 30.9712L30.8397 31.8864L29.3591 34.6094L30.9536 36.8024L34.0002 36.2356L34.7794 36.8011L35.1817 39.8744L37.7598 40.7126L39.8926 38.4631H40.8546L42.9871 40.7126L45.5652 39.8744L45.9678 36.8018L46.7467 36.2356L48.8813 36.6328L49.0367 40.6951L48.8709 40.2982L46.8059 39.8738L45.1265 41.5006L44.6998 41.6429L42.3829 41.3443L40.9837 42.9204L41.5546 45.1857L41.4636 45.6263L40.0469 47.4833L40.7123 49.4832L42.9592 50.1223L43.2962 50.4209V50.4254L22.9246 51.4939ZM50.3864 46.6956L50.1759 47.7176L50.6518 49.6046L50.1642 50.1534L48.234 49.9061L47.2447 50.2345L45.8483 51.5894L45.1297 51.4426L44.3803 49.6471L43.6014 48.9542L41.7296 48.4219L41.4972 47.7245L42.6777 46.1776L42.8872 45.1565L42.4114 43.2691L42.899 42.7198L44.8292 42.968L45.8191 42.6393L47.2161 41.2838L47.9348 41.4318L48.6848 43.2282L49.4636 43.9196L51.3355 44.4512L51.5672 45.1486L50.3864 46.6956Z" fill="white"/>
<path d="M19.2411 36.722C19.2411 37.439 18.6597 38.0204 17.9426 38.0204C17.2256 38.0204 16.6442 37.439 16.6442 36.722C16.6442 36.005 17.2256 35.4236 17.9426 35.4236C18.6597 35.4236 19.2411 36.005 19.2411 36.722Z" fill="white"/>
<path d="M28.3301 39.9681C28.3301 40.6851 27.7487 41.2665 27.0317 41.2665C26.3147 41.2665 25.7333 40.6851 25.7333 39.9681C25.7333 39.251 26.3147 38.6697 27.0317 38.6697C27.7487 38.6697 28.3301 39.251 28.3301 39.9681Z" fill="white"/>
<path d="M21.1889 49.0577C21.1889 49.7747 20.6075 50.3561 19.8905 50.3561C19.1734 50.3561 18.592 49.7747 18.592 49.0577C18.592 48.3406 19.1734 47.7593 19.8905 47.7593C20.6075 47.7593 21.1889 48.3406 21.1889 49.0577Z" fill="white"/>
<path d="M46.5079 43.2144C44.715 43.2144 43.2619 44.6678 43.2619 46.4604C43.2619 48.253 44.715 49.7065 46.5079 49.7065C48.3005 49.7065 49.754 48.253 49.754 46.4604C49.7518 44.6684 48.2996 43.2166 46.5079 43.2144ZM46.5079 48.408C45.4324 48.408 44.5603 47.536 44.5603 46.4604C44.5603 45.3848 45.4324 44.5128 46.5079 44.5128C47.5835 44.5128 48.4556 45.3848 48.4556 46.4604C48.4556 47.536 47.5835 48.408 46.5079 48.408Z" fill="white"/>
<path d="M40.0158 34.775C43.6014 34.775 46.5079 31.8684 46.5079 28.2829C46.5079 24.6973 43.6014 21.7908 40.0158 21.7908C36.4303 21.7908 33.5237 24.6973 33.5237 28.2829C33.5275 31.8668 36.4318 34.7712 40.0158 34.775ZM40.0158 23.0892C42.884 23.0892 45.2095 25.4144 45.2095 28.2829C45.2095 31.1514 42.884 33.4766 40.0158 33.4766C37.1473 33.4766 34.8221 31.1514 34.8221 28.2829C34.8253 25.416 37.1486 23.0924 40.0158 23.0892Z" fill="white"/>
<path d="M40.0159 32.1782C42.167 32.1782 43.9111 30.4341 43.9111 28.283C43.9111 26.1318 42.167 24.3877 40.0159 24.3877C37.8644 24.3877 36.1206 26.1318 36.1206 28.283C36.1228 30.4335 37.8654 32.176 40.0159 32.1782ZM40.0159 25.6861C41.45 25.6861 42.6127 26.8489 42.6127 28.283C42.6127 29.7171 41.45 30.8798 40.0159 30.8798C38.5815 30.8798 37.419 29.7171 37.419 28.283C37.419 26.8489 38.5815 25.6861 40.0159 25.6861Z" fill="white"/>
<path d="M49.1049 15.9476C49.1049 17.0232 49.977 17.8953 51.0526 17.8953C52.1281 17.8953 53.0002 17.0232 53.0002 15.9476C53.0002 14.8721 52.1281 14 51.0526 14C49.977 14 49.1049 14.8721 49.1049 15.9476ZM51.7018 15.9476C51.7018 16.3062 51.4111 16.5968 51.0526 16.5968C50.694 16.5968 50.4033 16.3062 50.4033 15.9476C50.4033 15.5891 50.694 15.2984 51.0526 15.2984C51.4111 15.2984 51.7018 15.5891 51.7018 15.9476Z" fill="white"/>
<path d="M32.2253 15.2984C32.2253 16.0155 31.6439 16.5968 30.9269 16.5968C30.2099 16.5968 29.6285 16.0155 29.6285 15.2984C29.6285 14.5814 30.2099 14 30.9269 14C31.6439 14 32.2253 14.5814 32.2253 15.2984Z" fill="white"/>
</g>
<circle cx="33.5" cy="33.5" r="33" stroke="white"/>
<defs>
<clipPath id="clip0">
<rect width="39" height="39" fill="white" transform="translate(14 14)"/>
</clipPath>
</defs>
</svg>
