<svg width="67" height="67" viewBox="0 0 67 67" fill="none" xmlns="http://www.w3.org/2000/svg">
<path d="M26.8125 21.3125H39.1875C39.2778 21.3125 39.3672 21.3303 39.4506 21.3648C39.534 21.3994 39.6098 21.45 39.6736 21.5139L47.2361 29.0764C47.3 29.1402 47.3506 29.216 47.3852 29.2994C47.4197 29.3828 47.4375 29.4722 47.4375 29.5625V31.625H46.0625V29.8472L42.9688 26.7535L41.7361 27.9862L40.7639 27.0139L41.9965 25.7813L40.5625 24.3472L38.5 26.4097V27.5H37.125V26.125C37.125 26.0347 37.1428 25.9453 37.1773 25.8619C37.2119 25.7785 37.2625 25.7027 37.3264 25.6389L39.5903 23.375L38.9028 22.6875H37.4097L35.0625 25.0347V26.3111C35.3246 26.4624 35.5295 26.696 35.6453 26.9757C35.7612 27.2553 35.7815 27.5653 35.7031 27.8577C35.6248 28.1501 35.4522 28.4084 35.212 28.5927C34.9719 28.777 34.6777 28.8768 34.375 28.8768C34.0723 28.8768 33.7781 28.777 33.538 28.5927C33.2978 28.4084 33.1252 28.1501 33.0469 27.8577C32.9685 27.5653 32.9888 27.2553 33.1047 26.9757C33.2205 26.696 33.4254 26.4624 33.6875 26.3111V25.4375H31.625V24.0625H34.0902L35.4652 22.6875H30.25V24.0625H28.875V22.6875H27.0783L26.0079 23.6606L27.2986 24.9514L26.3264 25.9237L24.9893 24.5867L24.2503 25.2588L23.3253 24.2415L26.3503 21.4915C26.4768 21.3765 26.6415 21.3126 26.8125 21.3125ZM12.375 17.875C12.3752 17.3886 12.5473 16.9179 12.8609 16.5461C13.1744 16.1743 13.6093 15.9253 14.0887 15.843C14.5681 15.7608 15.0611 15.8506 15.4807 16.0966C15.9003 16.3426 16.2194 16.729 16.3818 17.1875H17.875C18.0391 17.1875 18.1979 17.2462 18.3225 17.353L22.9418 21.3125H24.0625V22.6875H22.6875C22.5234 22.6875 22.3646 22.6288 22.24 22.522L17.6207 18.5625H16.3818C16.2194 19.021 15.9003 19.4074 15.4807 19.6534C15.0611 19.8994 14.5681 19.9892 14.0887 19.907C13.6093 19.8247 13.1744 19.5757 12.8609 19.2039C12.5473 18.8321 12.3752 18.3614 12.375 17.875ZM13.75 17.875C13.75 18.011 13.7903 18.1439 13.8659 18.257C13.9414 18.37 14.0488 18.4581 14.1744 18.5102C14.3 18.5622 14.4383 18.5758 14.5716 18.5493C14.705 18.5228 14.8275 18.4573 14.9236 18.3611C15.0198 18.265 15.0853 18.1425 15.1118 18.0091C15.1383 17.8758 15.1247 17.7375 15.0727 17.6119C15.0206 17.4863 14.9325 17.3789 14.8195 17.3034C14.7064 17.2278 14.5735 17.1875 14.4375 17.1875C14.2552 17.1877 14.0805 17.2602 13.9516 17.3891C13.8227 17.518 13.7502 17.6927 13.75 17.875ZM12.375 37.125C12.3752 36.6386 12.5473 36.1679 12.8609 35.7961C13.1744 35.4243 13.6093 35.1753 14.0887 35.093C14.5681 35.0108 15.0611 35.1006 15.4807 35.3466C15.9003 35.5926 16.2194 35.979 16.3818 36.4375H17.1875V37.8125H16.3818C16.2194 38.271 15.9003 38.6574 15.4807 38.9034C15.0611 39.1494 14.5681 39.2392 14.0887 39.157C13.6093 39.0747 13.1744 38.8257 12.8609 38.4539C12.5473 38.0821 12.3752 37.6114 12.375 37.125ZM13.75 37.125C13.75 37.261 13.7903 37.3939 13.8659 37.507C13.9414 37.62 14.0488 37.7081 14.1744 37.7602C14.3 37.8122 14.4383 37.8258 14.5716 37.7993C14.705 37.7728 14.8275 37.7073 14.9236 37.6111C15.0198 37.515 15.0853 37.3925 15.1118 37.2591C15.1383 37.1258 15.1247 36.9875 15.0727 36.8619C15.0206 36.7363 14.9325 36.6289 14.8195 36.5534C14.7064 36.4778 14.5735 36.4375 14.4375 36.4375C14.2552 36.4377 14.0805 36.5102 13.9516 36.6391C13.8227 36.768 13.7502 36.9427 13.75 37.125ZM12.375 29.5625C12.3752 29.0761 12.5473 28.6054 12.8609 28.2336C13.1744 27.8618 13.6093 27.6128 14.0887 27.5305C14.5681 27.4483 15.0611 27.5381 15.4807 27.7841C15.9003 28.0301 16.2194 28.4165 16.3818 28.875H17.1875V30.25H16.3818C16.2194 30.7085 15.9003 31.0949 15.4807 31.3409C15.0611 31.5869 14.5681 31.6767 14.0887 31.5945C13.6093 31.5122 13.1744 31.2632 12.8609 30.8914C12.5473 30.5196 12.3752 30.0489 12.375 29.5625ZM13.75 29.5625C13.75 29.6985 13.7903 29.8314 13.8659 29.9445C13.9414 30.0575 14.0488 30.1456 14.1744 30.1977C14.3 30.2497 14.4383 30.2633 14.5716 30.2368C14.705 30.2103 14.8275 30.1448 14.9236 30.0486C15.0198 29.9525 15.0853 29.83 15.1118 29.6966C15.1383 29.5633 15.1247 29.425 15.0727 29.2994C15.0206 29.1738 14.9325 29.0664 14.8195 28.9909C14.7064 28.9153 14.5735 28.875 14.4375 28.875C14.2552 28.8752 14.0805 28.9477 13.9516 29.0766C13.8227 29.2055 13.7502 29.3802 13.75 29.5625ZM12.375 48.125C12.3752 47.6386 12.5473 47.1679 12.8609 46.7961C13.1744 46.4243 13.6093 46.1753 14.0887 46.093C14.5681 46.0108 15.0611 46.1006 15.4807 46.3466C15.9003 46.5926 16.2194 46.979 16.3818 47.4375H18.2777L24.2639 41.4514L25.2361 42.4237L19.0486 48.6112C18.9848 48.675 18.909 48.7256 18.8256 48.7602C18.7422 48.7947 18.6528 48.8125 18.5625 48.8125H16.3818C16.2194 49.271 15.9003 49.6574 15.4807 49.9034C15.0611 50.1494 14.5681 50.2392 14.0887 50.157C13.6093 50.0747 13.1744 49.8257 12.8609 49.4539C12.5473 49.0821 12.3752 48.6114 12.375 48.125ZM13.75 48.125C13.75 48.261 13.7903 48.3939 13.8659 48.507C13.9414 48.62 14.0488 48.7081 14.1744 48.7602C14.3 48.8122 14.4383 48.8258 14.5716 48.7993C14.705 48.7728 14.8275 48.7073 14.9236 48.6111C15.0198 48.515 15.0853 48.3925 15.1118 48.2591C15.1383 48.1258 15.1247 47.9875 15.0727 47.8619C15.0206 47.7363 14.9325 47.6289 14.8195 47.5534C14.7064 47.4778 14.5735 47.4375 14.4375 47.4375C14.2552 47.4377 14.0805 47.5102 13.9516 47.6391C13.8227 47.768 13.7502 47.9427 13.75 48.125ZM12.375 42.625C12.3752 42.1386 12.5473 41.6679 12.8609 41.2961C13.1744 40.9243 13.6093 40.6753 14.0887 40.593C14.5681 40.5108 15.0611 40.6006 15.4807 40.8466C15.9003 41.0926 16.2194 41.479 16.3818 41.9375H17.5903L19.4514 40.0764L20.4236 41.0487L18.3611 43.1112C18.2973 43.175 18.2215 43.2256 18.1381 43.2602C18.0547 43.2947 17.9653 43.3125 17.875 43.3125H16.3818C16.2194 43.771 15.9003 44.1574 15.4807 44.4034C15.0611 44.6494 14.5681 44.7392 14.0887 44.657C13.6093 44.5747 13.1744 44.3257 12.8609 43.9539C12.5473 43.5821 12.3752 43.1114 12.375 42.625ZM13.75 42.625C13.75 42.761 13.7903 42.8939 13.8659 43.007C13.9414 43.12 14.0488 43.2081 14.1744 43.2602C14.3 43.3122 14.4383 43.3258 14.5716 43.2993C14.705 43.2728 14.8275 43.2073 14.9236 43.1111C15.0198 43.015 15.0853 42.8925 15.1118 42.7591C15.1383 42.6258 15.1247 42.4875 15.0727 42.3619C15.0206 42.2363 14.9325 42.1289 14.8195 42.0534C14.7064 41.9778 14.5735 41.9375 14.4375 41.9375C14.2552 41.9377 14.0805 42.0102 13.9516 42.1391C13.8227 42.268 13.7502 42.4427 13.75 42.625ZM19.5938 23.375C19.684 23.375 19.7734 23.3928 19.8569 23.4273C19.9403 23.4619 20.0161 23.5125 20.0799 23.5764L21.1111 24.6076L20.1389 25.5799L19.309 24.75H18.4443C18.2821 25.2087 17.963 25.5953 17.5433 25.8415C17.1236 26.0877 16.6305 26.1776 16.1509 26.0953C15.6714 26.013 15.2364 25.7639 14.9228 25.3919C14.6092 25.0199 14.4372 24.549 14.4372 24.0625C14.4372 23.576 14.6092 23.1051 14.9228 22.7331C15.2364 22.3611 15.6714 22.112 16.1509 22.0297C16.6305 21.9474 17.1236 22.0373 17.5433 22.2835C17.963 22.5297 18.2821 22.9163 18.4443 23.375H19.5938ZM17.1875 24.0625C17.1875 23.9265 17.1472 23.7936 17.0716 23.6805C16.9961 23.5675 16.8887 23.4794 16.7631 23.4273C16.6375 23.3753 16.4992 23.3617 16.3659 23.3882C16.2325 23.4147 16.11 23.4802 16.0139 23.5764C15.9177 23.6725 15.8522 23.795 15.8257 23.9284C15.7992 24.0617 15.8128 24.2 15.8648 24.3256C15.9169 24.4512 16.005 24.5586 16.118 24.6341C16.2311 24.7097 16.364 24.75 16.5 24.75C16.6823 24.7498 16.857 24.6773 16.9859 24.5484C17.1148 24.4195 17.1873 24.2448 17.1875 24.0625ZM15.125 33.6875H17.1875V32.3125H15.125V33.6875ZM53.625 33C53.6248 33.4864 53.4527 33.9571 53.1391 34.3289C52.8256 34.7007 52.3907 34.9497 51.9113 35.032C51.4319 35.1142 50.9389 35.0244 50.5193 34.7784C50.0997 34.5324 49.7806 34.146 49.6183 33.6875H48.8125V32.3125H49.6183C49.7806 31.854 50.0997 31.4676 50.5193 31.2216C50.9389 30.9756 51.4319 30.8858 51.9113 30.968C52.3907 31.0503 52.8256 31.2993 53.1391 31.6711C53.4527 32.0429 53.6248 32.5136 53.625 33ZM52.25 33C52.25 32.864 52.2097 32.7311 52.1341 32.618C52.0586 32.505 51.9512 32.4169 51.8256 32.3648C51.7 32.3128 51.5617 32.2992 51.4284 32.3257C51.295 32.3522 51.1725 32.4177 51.0764 32.5139C50.9802 32.61 50.9147 32.7325 50.8882 32.8659C50.8617 32.9992 50.8753 33.1375 50.9273 33.2631C50.9794 33.3887 51.0675 33.4961 51.1805 33.5716C51.2936 33.6472 51.4265 33.6875 51.5625 33.6875C51.7448 33.6873 51.9195 33.6148 52.0484 33.4859C52.1773 33.357 52.2498 33.1823 52.25 33ZM53.625 17.875C53.6248 18.3614 53.4527 18.8321 53.1391 19.2039C52.8256 19.5757 52.3907 19.8247 51.9113 19.907C51.4319 19.9892 50.9389 19.8994 50.5193 19.6534C50.0997 19.4074 49.7806 19.021 49.6183 18.5625H47.0347L43.1111 22.4862L42.1389 21.5139L46.2639 17.3889C46.3277 17.325 46.4035 17.2744 46.4869 17.2398C46.5703 17.2053 46.6597 17.1875 46.75 17.1875H49.6183C49.7806 16.729 50.0997 16.3426 50.5193 16.0966C50.9389 15.8506 51.4319 15.7608 51.9113 15.843C52.3907 15.9253 52.8256 16.1743 53.1391 16.5461C53.4527 16.9179 53.6248 17.3886 53.625 17.875ZM52.25 17.875C52.25 17.739 52.2097 17.6061 52.1341 17.493C52.0586 17.38 51.9512 17.2919 51.8256 17.2398C51.7 17.1878 51.5617 17.1742 51.4284 17.2007C51.295 17.2272 51.1725 17.2927 51.0764 17.3889C50.9802 17.485 50.9147 17.6075 50.8882 17.7409C50.8617 17.8742 50.8753 18.0125 50.9273 18.1381C50.9794 18.2637 51.0675 18.3711 51.1805 18.4466C51.2936 18.5222 51.4265 18.5625 51.5625 18.5625C51.7448 18.5623 51.9195 18.4898 52.0484 18.3609C52.1773 18.232 52.2498 18.0573 52.25 17.875ZM53.625 23.375C53.6248 23.8614 53.4527 24.3321 53.1391 24.7039C52.8256 25.0757 52.3907 25.3247 51.9113 25.407C51.4319 25.4892 50.9389 25.3994 50.5193 25.1534C50.0997 24.9074 49.7806 24.521 49.6183 24.0625H47.7222L45.8611 25.9237L44.8889 24.9514L46.9514 22.8889C47.0152 22.825 47.091 22.7744 47.1744 22.7398C47.2578 22.7053 47.3472 22.6875 47.4375 22.6875H49.6183C49.7806 22.229 50.0997 21.8426 50.5193 21.5966C50.9389 21.3506 51.4319 21.2608 51.9113 21.343C52.3907 21.4253 52.8256 21.6743 53.1391 22.0461C53.4527 22.4179 53.6248 22.8886 53.625 23.375ZM52.25 23.375C52.25 23.239 52.2097 23.1061 52.1341 22.993C52.0586 22.88 51.9512 22.7919 51.8256 22.7398C51.7 22.6878 51.5617 22.6742 51.4284 22.7007C51.295 22.7272 51.1725 22.7927 51.0764 22.8889C50.9802 22.985 50.9147 23.1075 50.8882 23.2409C50.8617 23.3742 50.8753 23.5125 50.9273 23.6381C50.9794 23.7637 51.0675 23.8711 51.1805 23.9466C51.2936 24.0222 51.4265 24.0625 51.5625 24.0625C51.7448 24.0623 51.9195 23.9898 52.0484 23.8609C52.1773 23.732 52.2498 23.5573 52.25 23.375ZM53.625 38.5C53.6248 38.9864 53.4527 39.4571 53.1391 39.8289C52.8256 40.2007 52.3907 40.4497 51.9113 40.532C51.4319 40.6142 50.9389 40.5244 50.5193 40.2784C50.0997 40.0324 49.7806 39.646 49.6183 39.1875H48.125C48.0347 39.1875 47.9453 39.1697 47.8619 39.1352C47.7785 39.1006 47.7027 39.05 47.6389 38.9862L47.4375 38.7847V42.625C47.4375 42.7281 47.4144 42.8299 47.3697 42.9228C47.3251 43.0157 47.2602 43.0974 47.1797 43.1619L45.4876 44.5156L48.4095 47.4375H49.6179C49.7801 46.9788 50.0992 46.5922 50.5189 46.346C50.9385 46.0998 51.4317 46.0099 51.9112 46.0922C52.3908 46.1745 52.8258 46.4236 53.1394 46.7956C53.453 47.1676 53.625 47.6385 53.625 48.125C53.625 48.6115 53.453 49.0824 53.1394 49.4544C52.8258 49.8264 52.3908 50.0755 51.9112 50.1578C51.4317 50.2401 50.9385 50.1502 50.5189 49.904C50.0992 49.6578 49.7801 49.2712 49.6179 48.8125H48.125C48.0347 48.8125 47.9453 48.7947 47.8619 48.7602C47.7785 48.7256 47.7027 48.675 47.6389 48.6112L44.4076 45.3799L43.7422 45.9119C43.6202 46.0094 43.4687 46.0626 43.3125 46.0625H36.4375C36.2552 46.0625 36.0803 45.9901 35.9514 45.8611C35.8224 45.7322 35.75 45.5573 35.75 45.375V40.5625H22C21.9097 40.5625 21.8203 40.5447 21.7369 40.5102C21.6535 40.4756 21.5777 40.425 21.5139 40.3612L18.7639 37.6112C18.7 37.5473 18.6494 37.4715 18.6148 37.3881C18.5803 37.3047 18.5625 37.2153 18.5625 37.125V28.875C18.5625 28.7792 18.5825 28.6845 18.6213 28.5969C18.6601 28.5093 18.7167 28.4308 18.7876 28.3663L22.2251 25.2413L23.1499 26.2587L22.4067 26.9344L23.6597 28.1875H24.9361C25.0874 27.9254 25.321 27.7205 25.6006 27.6047C25.8803 27.4888 26.1903 27.4685 26.4827 27.5469C26.7751 27.6252 27.0334 27.7978 27.2177 28.038C27.402 28.2781 27.5018 28.5723 27.5018 28.875C27.5018 29.1777 27.402 29.4719 27.2177 29.7121C27.0334 29.9522 26.7751 30.1248 26.4827 30.2032C26.1903 30.2815 25.8803 30.2612 25.6006 30.1453C25.321 30.0295 25.0874 29.8246 24.9361 29.5625H23.375C23.2847 29.5625 23.1953 29.5447 23.1119 29.5102C23.0285 29.4756 22.9527 29.425 22.8889 29.3612L21.3881 27.8603L19.9375 29.1791V33.6875L21.5875 32.45C21.7065 32.3608 21.8512 32.3125 22 32.3125H23.5611C23.7124 32.0504 23.946 31.8455 24.2256 31.7297C24.5053 31.6138 24.8153 31.5935 25.1077 31.6719C25.4001 31.7502 25.6584 31.9228 25.8427 32.163C26.027 32.4031 26.1268 32.6973 26.1268 33C26.1268 33.3027 26.027 33.5969 25.8427 33.837C25.6584 34.0772 25.4001 34.2498 25.1077 34.3281C24.8153 34.4065 24.5053 34.3862 24.2256 34.2703C23.946 34.1545 23.7124 33.9496 23.5611 33.6875H22.229L19.9375 35.4063V36.8402L22.2848 39.1875H26.7905L26.807 37.125H24.564C24.4127 37.3871 24.1791 37.592 23.8994 37.7078C23.6198 37.8237 23.3097 37.844 23.0174 37.7656C22.725 37.6873 22.4666 37.5147 22.2824 37.2745C22.0981 37.0344 21.9982 36.7402 21.9982 36.4375C21.9982 36.1348 22.0981 35.8406 22.2824 35.6005C22.4666 35.3603 22.725 35.1877 23.0174 35.1094C23.3097 35.031 23.6198 35.0513 23.8994 35.1672C24.1791 35.283 24.4127 35.4879 24.564 35.75H27.1697L29.7134 32.5703C29.7778 32.4899 29.8595 32.4249 29.9524 32.3803C30.0452 32.3357 30.147 32.3125 30.25 32.3125H30.9375V30.5347L29.9172 29.5145C29.6233 29.5941 29.3114 29.5744 29.0299 29.4584C28.7484 29.3425 28.5131 29.1368 28.3605 28.8734C28.2079 28.6099 28.1466 28.3035 28.1861 28.0016C28.2257 27.6997 28.3638 27.4194 28.5791 27.2041C28.7944 26.9888 29.0747 26.8507 29.3766 26.8111C29.6784 26.7716 29.9849 26.8329 30.2484 26.9855C30.5118 27.1381 30.7175 27.3734 30.8334 27.6549C30.9494 27.9364 30.9691 28.2483 30.8895 28.5422L32.1111 29.7639C32.175 29.8277 32.2256 29.9035 32.2602 29.9869C32.2947 30.0703 32.3125 30.1597 32.3125 30.25V32.3125H35.3251L35.8108 31.3414C35.7208 31.0528 35.7279 30.7426 35.831 30.4584C35.9341 30.1742 36.1275 29.9316 36.3816 29.7678C36.6357 29.604 36.9364 29.528 37.2379 29.5514C37.5393 29.5748 37.8247 29.6963 38.0505 29.8974C38.2762 30.0984 38.4299 30.368 38.4879 30.6647C38.5459 30.9614 38.5051 31.2689 38.3717 31.5402C38.2382 31.8115 38.0196 32.0316 37.7492 32.1667C37.4787 32.3019 37.1715 32.3448 36.8744 32.2887L36.5549 32.9276L37.6486 34.3859C37.9492 34.3498 38.2532 34.4138 38.5137 34.5681C38.7741 34.7224 38.9763 34.9583 39.089 35.2392C39.2017 35.5202 39.2185 35.8305 39.1369 36.122C39.0552 36.4134 38.8797 36.6698 38.6374 36.8514C38.3952 37.0329 38.0998 37.1294 37.7972 37.126C37.4945 37.1225 37.2014 37.0193 36.9634 36.8323C36.7253 36.6453 36.5557 36.385 36.4807 36.0917C36.4057 35.7984 36.4296 35.4886 36.5486 35.2103L35.4062 33.6875H30.5804L28.1856 36.681L28.1655 39.1875H30.5482L31.7983 37.104C31.6522 36.8403 31.5969 36.5358 31.641 36.2375C31.685 35.9392 31.8259 35.6636 32.0419 35.4533C32.258 35.2429 32.5372 35.1095 32.8366 35.0735C33.136 35.0375 33.4389 35.101 33.6987 35.2542C33.9584 35.4073 34.1606 35.6416 34.274 35.921C34.3875 36.2004 34.4059 36.5093 34.3265 36.8002C34.247 37.0911 34.0742 37.3477 33.8344 37.5307C33.5947 37.7136 33.3015 37.8126 33 37.8125C32.9924 37.8125 32.985 37.8115 32.9775 37.8114L32.1518 39.1875H42.625V38.0972L42.2922 37.7645C41.9983 37.8441 41.6864 37.8244 41.4049 37.7084C41.1234 37.5925 40.8881 37.3868 40.7355 37.1234C40.5829 36.8599 40.5216 36.5534 40.5611 36.2516C40.6007 35.9497 40.7388 35.6694 40.9541 35.4541C41.1694 35.2388 41.4497 35.1007 41.7516 35.0611C42.0534 35.0216 42.3599 35.0829 42.6234 35.2355C42.8868 35.3881 43.0925 35.6234 43.2084 35.9049C43.3244 36.1864 43.3441 36.4983 43.2645 36.7922L43.7986 37.3264C43.8625 37.3902 43.9131 37.466 43.9477 37.5494C43.9822 37.6328 44 37.7222 44 37.8125V39.1875H46.0625V34.6597L43.7153 32.3125H43.1264C42.9751 32.5746 42.7415 32.7795 42.4619 32.8953C42.1822 33.0112 41.8722 33.0315 41.5798 32.9532C41.2874 32.8748 41.0291 32.7022 40.8448 32.462C40.6605 32.2219 40.5607 31.9277 40.5607 31.625C40.5607 31.3223 40.6605 31.0281 40.8448 30.788C41.0291 30.5478 41.2874 30.3752 41.5798 30.2969C41.8722 30.2185 42.1822 30.2388 42.4619 30.3547C42.7415 30.4705 42.9751 30.6754 43.1264 30.9375H44C44.0903 30.9375 44.1797 30.9553 44.2631 30.9898C44.3465 31.0244 44.4223 31.075 44.4861 31.1389L47.2361 33.8889C47.3 33.9527 47.3506 34.0285 47.3852 34.1119C47.4197 34.1953 47.4375 34.2847 47.4375 34.375V36.8403L48.4097 37.8125H49.6183C49.7806 37.354 50.0997 36.9676 50.5193 36.7216C50.9389 36.4756 51.4319 36.3858 51.9113 36.468C52.3907 36.5503 52.8256 36.7993 53.1391 37.1711C53.4527 37.5429 53.6248 38.0136 53.625 38.5ZM50.875 48.125C50.875 48.261 50.9153 48.3939 50.9909 48.507C51.0664 48.62 51.1738 48.7081 51.2994 48.7602C51.425 48.8122 51.5633 48.8258 51.6966 48.7993C51.83 48.7728 51.9525 48.7073 52.0486 48.6111C52.1448 48.515 52.2103 48.3925 52.2368 48.2591C52.2633 48.1258 52.2497 47.9875 52.1977 47.8619C52.1456 47.7363 52.0575 47.6289 51.9445 47.5534C51.8314 47.4778 51.6985 47.4375 51.5625 47.4375C51.3802 47.4377 51.2055 47.5102 51.0766 47.6391C50.9477 47.768 50.8752 47.9427 50.875 48.125ZM46.0625 40.5625H37.125V44.6875H43.0714L44.7901 43.3125H38.5V41.9375H46.0625V40.5625ZM52.25 38.5C52.25 38.364 52.2097 38.2311 52.1341 38.118C52.0586 38.005 51.9512 37.9169 51.8256 37.8648C51.7 37.8128 51.5617 37.7992 51.4284 37.8257C51.295 37.8522 51.1725 37.9177 51.0764 38.0139C50.9802 38.11 50.9147 38.2325 50.8882 38.3659C50.8617 38.4992 50.8753 38.6375 50.9273 38.7631C50.9794 38.8887 51.0675 38.9961 51.1805 39.0716C51.2936 39.1472 51.4265 39.1875 51.5625 39.1875C51.7448 39.1873 51.9195 39.1148 52.0484 38.9859C52.1773 38.857 52.2498 38.6823 52.25 38.5ZM51.5625 27.5H48.8125V28.875H51.5625V27.5ZM52.25 44H53.625V42.625H52.25V44ZM48.8125 44H50.875V42.625H48.8125V44ZM34.375 43.3125H29.8473L26.3431 46.8166C26.6511 47.1915 26.8173 47.6628 26.8125 48.1479C26.8077 48.633 26.6323 49.101 26.317 49.4697C26.0017 49.8384 25.5666 50.0844 25.0881 50.1644C24.6096 50.2444 24.1182 50.1534 23.7001 49.9073C23.282 49.6612 22.9639 49.2758 22.8015 48.8186C22.6392 48.3615 22.643 47.8617 22.8122 47.407C22.9815 46.9524 23.3054 46.5718 23.7272 46.3321C24.1491 46.0925 24.6418 46.0089 25.119 46.0962L29.0764 42.1389C29.1402 42.075 29.216 42.0244 29.2994 41.9898C29.3828 41.9553 29.4722 41.9375 29.5625 41.9375H34.375V43.3125ZM25.4375 48.125C25.4375 47.989 25.3972 47.8561 25.3216 47.743C25.2461 47.63 25.1387 47.5419 25.0131 47.4898C24.8875 47.4378 24.7492 47.4242 24.6159 47.4507C24.4825 47.4772 24.36 47.5427 24.2639 47.6389C24.1677 47.735 24.1022 47.8575 24.0757 47.9909C24.0492 48.1242 24.0628 48.2625 24.1148 48.3881C24.1669 48.5137 24.255 48.6211 24.368 48.6966C24.4811 48.7722 24.614 48.8125 24.75 48.8125C24.9323 48.8123 25.107 48.7398 25.2359 48.6109C25.3648 48.482 25.4373 48.3073 25.4375 48.125ZM29.0764 46.9514L30.0486 47.9237L31.9097 46.0625H34.375V44.6875H31.625C31.5347 44.6875 31.4453 44.7053 31.3619 44.7398C31.2785 44.7744 31.2027 44.825 31.1389 44.8889L29.0764 46.9514ZM28.3889 20.4237L29.3611 19.4514L26.6111 16.7014C26.5473 16.6375 26.4715 16.5869 26.3881 16.5523C26.3047 16.5178 26.2153 16.5 26.125 16.5H22V17.875H25.8403L28.3889 20.4237ZM34.7568 19.8221C34.6438 19.8975 34.5109 19.9376 34.375 19.9375H31.625V18.5625H34.1669L36.0561 17.303C36.169 17.2277 36.3018 17.1875 36.4375 17.1875H38.6182C38.7804 16.7288 39.0995 16.3422 39.5192 16.096C39.9389 15.8498 40.432 15.7599 40.9116 15.8422C41.3911 15.9245 41.8261 16.1736 42.1397 16.5456C42.4533 16.9176 42.6253 17.3885 42.6253 17.875C42.6253 18.3615 42.4533 18.8324 42.1397 19.2044C41.8261 19.5764 41.3911 19.8255 40.9116 19.9078C40.432 19.9901 39.9389 19.9002 39.5192 19.654C39.0995 19.4078 38.7804 19.0212 38.6182 18.5625H36.6456L34.7568 19.8221ZM39.875 17.875C39.875 18.011 39.9153 18.1439 39.9909 18.257C40.0664 18.37 40.1738 18.4581 40.2994 18.5102C40.425 18.5622 40.5633 18.5758 40.6966 18.5493C40.83 18.5228 40.9525 18.4573 41.0486 18.3611C41.1448 18.265 41.2103 18.1425 41.2368 18.0091C41.2633 17.8758 41.2497 17.7375 41.1977 17.6119C41.1456 17.4863 41.0575 17.3789 40.9445 17.3034C40.8314 17.2278 40.6985 17.1875 40.5625 17.1875C40.3802 17.1877 40.2055 17.2602 40.0766 17.3891C39.9477 17.518 39.8752 17.6927 39.875 17.875ZM25.9236 20.1389L24.5486 18.7639L23.5764 19.7362L24.9514 21.1112L25.9236 20.1389Z" fill="white"/>
<circle cx="33.5" cy="33.5" r="33" stroke="white"/>
</svg>
