<svg width="67" height="67" viewBox="0 0 67 67" fill="none" xmlns="http://www.w3.org/2000/svg">
<g clip-path="url(#clip0)">
<path d="M53.4137 33.4135H43.9795V32.0804H46.5249C46.8485 32.0804 47.1109 31.818 47.1109 31.4944C47.1109 31.1709 46.8485 30.9085 46.5249 30.9085H43.9795V29.5753H45.7467C46.4051 29.5753 47.0241 29.319 47.4895 28.8534L51.3431 24.9999C51.5942 25.1249 51.8726 25.1915 52.1613 25.1915C52.6524 25.1915 53.114 25.0002 53.4613 24.6531C53.8086 24.3058 53.9998 23.8442 53.9998 23.3531C53.9998 22.862 53.8086 22.4003 53.4613 22.0531C53.1141 21.7058 52.6524 21.5146 52.1613 21.5146C51.6702 21.5146 51.2086 21.7058 50.8613 22.053C50.5141 22.4003 50.3228 22.8619 50.3228 23.353C50.3228 23.6417 50.3894 23.9201 50.5144 24.1712L46.6609 28.0248C46.4167 28.2689 46.092 28.4034 45.7467 28.4034H43.9795V27.1106C43.9795 25.4063 42.5928 24.0197 40.8885 24.0197H39.5957V18.8326C40.3229 18.5874 40.8482 17.8993 40.8482 17.0904C40.8482 16.0767 40.0235 15.252 39.0098 15.252C37.9961 15.252 37.1714 16.0768 37.1714 17.0904C37.1714 17.8993 37.6967 18.5873 38.4239 18.8326V24.0196H37.0907V21.4742C37.0907 21.1507 36.8284 20.8883 36.5048 20.8883C36.1812 20.8883 35.9189 21.1507 35.9189 21.4742V24.0196H34.5857V14.5854C34.5857 14.2619 34.3233 13.9995 33.9997 13.9995C33.6762 13.9995 33.4138 14.2619 33.4138 14.5854V24.0196H32.0807V21.4742C32.0807 21.1507 31.8183 20.8883 31.4948 20.8883C31.1712 20.8883 30.9088 21.1507 30.9088 21.4742V24.0196H29.5757V22.2525C29.5757 21.5942 29.3193 20.9752 28.8537 20.5097L24.9988 16.6548C25.3394 15.9672 25.2252 15.1099 24.6535 14.538C23.9366 13.8212 22.7703 13.8213 22.0535 14.538C21.3367 15.2548 21.3367 16.4211 22.0535 17.138C22.4119 17.4964 22.8827 17.6756 23.3535 17.6756C23.6338 17.6756 23.9136 17.6105 24.1703 17.4834L28.0252 21.3384C28.2694 21.5825 28.4038 21.9072 28.4038 22.2525V24.0196H27.111C26.8497 24.0196 26.5898 24.0524 26.3385 24.117C26.0252 24.1977 25.8365 24.5171 25.9171 24.8306C25.9977 25.144 26.3173 25.3327 26.6306 25.252C26.7865 25.2119 26.9481 25.1915 27.1109 25.1915H40.8885C41.9467 25.1915 42.8076 26.0524 42.8076 27.1106V40.8882C42.8076 41.051 42.7873 41.2125 42.7473 41.3682C42.6667 41.6816 42.8555 42.001 43.1688 42.0815C43.2178 42.0941 43.2668 42.1001 43.3152 42.1001C43.5762 42.1001 43.8142 41.9244 43.8822 41.6599C43.9467 41.4089 43.9795 41.1492 43.9795 40.8882V39.5953H49.1665C49.4117 40.3225 50.0998 40.8478 50.9087 40.8478C51.9224 40.8478 52.7471 40.0232 52.7471 39.0094C52.7471 37.9957 51.9223 37.171 50.9087 37.171C50.0998 37.171 49.4118 37.6963 49.1665 38.4235H43.9795V37.0903H46.5249C46.8484 37.0903 47.1108 36.8279 47.1108 36.5043C47.1108 36.1808 46.8484 35.9184 46.5249 35.9184H43.9795V34.5854H53.4137C53.7373 34.5854 53.9997 34.323 53.9997 33.9994C53.9997 33.6758 53.7373 33.4135 53.4137 33.4135ZM51.6899 22.8817C51.8158 22.7558 51.9832 22.6865 52.1612 22.6865C52.3393 22.6865 52.5066 22.7558 52.6326 22.8817C52.7585 23.0077 52.8278 23.175 52.8278 23.3531C52.8278 23.5311 52.7585 23.6985 52.6326 23.8244C52.5066 23.9503 52.3393 24.0196 52.1612 24.0196C51.9832 24.0196 51.8158 23.9503 51.6899 23.8244C51.564 23.6985 51.4947 23.5311 51.4947 23.3531C51.4947 23.175 51.564 23.0076 51.6899 22.8817ZM23.8247 16.3094C23.5649 16.5692 23.142 16.5693 22.882 16.3093C22.6221 16.0494 22.6221 15.6265 22.882 15.3667C23.012 15.2367 23.1826 15.1718 23.3534 15.1718C23.5241 15.1718 23.6948 15.2368 23.8247 15.3667C24.0846 15.6266 24.0846 16.0495 23.8247 16.3094ZM39.0098 17.757C38.6423 17.757 38.3432 17.4579 38.3432 17.0904C38.3432 16.7229 38.6422 16.4239 39.0098 16.4239C39.3774 16.4239 39.6764 16.7229 39.6764 17.0904C39.6764 17.4579 39.3773 17.757 39.0098 17.757ZM50.9087 38.3429C51.2763 38.3429 51.5753 38.642 51.5753 39.0095C51.5753 39.3771 51.2762 39.6761 50.9087 39.6761C50.5412 39.6761 50.2422 39.377 50.2422 39.0095C50.2421 38.6419 50.5412 38.3429 50.9087 38.3429Z" fill="white"/>
<path d="M45.9463 50.8613C45.3745 50.2894 44.5171 50.1753 43.8295 50.5159L39.9746 46.6609C39.7304 46.4167 39.5959 46.092 39.5959 45.7467V43.9796H40.8887C41.15 43.9796 41.4099 43.9468 41.6611 43.8822C41.9744 43.8016 42.1631 43.4821 42.0825 43.1687C42.0018 42.8553 41.6825 42.6667 41.3689 42.7473C41.2132 42.7874 41.0516 42.8077 40.8887 42.8077H27.1111C26.0529 42.8077 25.1921 41.9467 25.1921 40.8886V27.111C25.1921 26.9481 25.2124 26.7865 25.2525 26.6308C25.3332 26.3175 25.1445 25.998 24.8311 25.9173C24.5177 25.8366 24.1982 26.0253 24.1176 26.3387C24.0529 26.5898 24.0202 26.8496 24.0202 27.111V28.4038H18.8331C18.5879 27.6766 17.8998 27.1513 17.0909 27.1513C16.0772 27.1513 15.2525 27.976 15.2525 28.9897C15.2525 30.0035 16.0773 30.8282 17.0909 30.8282C17.8998 30.8282 18.5878 30.3029 18.8331 29.5757H24.0201V30.9089H21.4747C21.1511 30.9089 20.8888 31.1712 20.8888 31.4948C20.8888 31.8184 21.1511 32.0808 21.4747 32.0808H24.0201V33.4139H14.5859C14.2623 33.4139 14 33.6762 14 33.9998C14 34.3234 14.2623 34.5857 14.5859 34.5857H24.0201V35.9189H21.4747C21.1511 35.9189 20.8888 36.1812 20.8888 36.5048C20.8888 36.8284 21.1511 37.0907 21.4747 37.0907H24.0201V38.4239H22.2529C21.5946 38.4239 20.9756 38.6803 20.5101 39.1458L16.6566 42.9994C16.4055 42.8743 16.1271 42.8077 15.8384 42.8077C15.3473 42.8077 14.8856 42.999 14.5384 43.3462C14.1912 43.6934 14 44.1552 14 44.6462C14 45.1372 14.1912 45.5989 14.5385 45.9462C14.8857 46.2934 15.3474 46.4846 15.8385 46.4846C16.3296 46.4846 16.7912 46.2934 17.1385 45.9462C17.4858 45.5989 17.677 45.1373 17.677 44.6462C17.677 44.3574 17.6105 44.0791 17.4854 43.828L21.339 39.9744C21.5831 39.7303 21.9078 39.5957 22.2532 39.5957H24.0203V40.8885C24.0203 42.5929 25.407 43.9795 27.1113 43.9795H28.4041V49.1665C27.6769 49.4117 27.1516 50.0998 27.1516 50.9087C27.1516 51.9224 27.9763 52.7471 28.99 52.7471C30.0037 52.7471 30.8284 51.9223 30.8284 50.9087C30.8284 50.0998 30.3031 49.4118 29.576 49.1665V43.9795H30.9091V46.5248C30.9091 46.8484 31.1714 47.1108 31.495 47.1108C31.8186 47.1108 32.0809 46.8484 32.0809 46.5248V43.9795H33.414V53.4138C33.414 53.7374 33.6763 53.9997 33.9999 53.9997C34.3235 53.9997 34.5859 53.7374 34.5859 53.4138V43.9796H35.919V46.525C35.919 46.8486 36.1813 47.1109 36.5049 47.1109C36.8285 47.1109 37.0908 46.8486 37.0908 46.525V43.9796H38.424V45.7467C38.424 46.4051 38.6804 47.0241 39.1459 47.4895L43.0008 51.3444C42.6603 52.032 42.7744 52.8894 43.3463 53.4612C43.7046 53.8197 44.1755 53.9988 44.6463 53.9988C45.1171 53.9988 45.5879 53.8197 45.9463 53.4612C46.6631 52.7444 46.6631 51.5781 45.9463 50.8613ZM17.0909 29.6563C16.7233 29.6563 16.4244 29.3572 16.4244 28.9897C16.4244 28.6222 16.7234 28.3232 17.0909 28.3232C17.4584 28.3232 17.7575 28.6222 17.7575 28.9897C17.7576 29.3573 17.4585 29.6563 17.0909 29.6563ZM16.3098 45.1175C16.1838 45.2434 16.0165 45.3127 15.8384 45.3127C15.6604 45.3127 15.493 45.2434 15.3671 45.1175C15.2412 44.9916 15.1719 44.8242 15.1719 44.6462C15.1719 44.4681 15.2412 44.3008 15.3671 44.1749C15.493 44.0489 15.6604 43.9796 15.8384 43.9796C16.0165 43.9796 16.1838 44.0489 16.3098 44.1749C16.4357 44.3008 16.505 44.4681 16.505 44.6462C16.505 44.8242 16.4357 44.9916 16.3098 45.1175ZM29.6564 50.9088C29.6564 51.2763 29.3574 51.5754 28.9899 51.5754C28.6223 51.5754 28.3233 51.2763 28.3233 50.9088C28.3233 50.5413 28.6224 50.2423 28.9899 50.2423C29.3574 50.2423 29.6564 50.5413 29.6564 50.9088ZM45.1177 52.6326C44.8578 52.8926 44.4349 52.8925 44.175 52.6326C43.915 52.3727 43.915 51.9498 44.175 51.69C44.305 51.5601 44.4757 51.4951 44.6464 51.4951C44.8171 51.4951 44.9878 51.5601 45.1177 51.69C45.3775 51.9498 45.3775 52.3727 45.1177 52.6326Z" fill="white"/>
<path d="M40.2222 32.4346C40.2222 31.1814 39.3056 30.12 38.0508 29.775C38.088 29.6218 38.1086 29.4643 38.1086 29.3032C38.1086 28.1168 37.0555 27.1516 35.7613 27.1516C35.0602 27.1516 34.4305 27.4351 34 27.8832C33.5695 27.4351 32.9397 27.1516 32.2387 27.1516C30.9444 27.1516 29.8914 28.1168 29.8914 29.3032C29.8914 29.4643 29.912 29.6218 29.9492 29.775C28.6944 30.1199 27.7778 31.1814 27.7778 32.4346C27.7778 33.047 27.9946 33.6248 28.3949 34.102C28.0035 34.6088 27.7778 35.224 27.7778 35.879C27.7777 36.8752 28.31 37.8055 29.1868 38.3825C29.1868 38.383 29.1868 38.3834 29.1868 38.3839C29.1868 39.743 30.3978 40.8487 31.8864 40.8487C32.7419 40.8487 33.5051 40.4831 34 39.9145C34.4949 40.4831 35.2581 40.8487 36.1136 40.8487C37.5462 40.8487 38.7211 39.8245 38.8075 38.536C39.6776 38.0312 40.2222 37.1469 40.2222 36.192C40.2222 35.4897 39.9227 34.8197 39.4073 34.3133C39.9226 33.8069 40.2222 33.1368 40.2222 32.4346ZM38.1484 34.8314C38.713 35.1294 39.0501 35.6381 39.0501 36.192C39.0501 36.6051 38.8581 36.9991 38.5339 37.2937C38.2258 36.7233 37.6814 36.2692 36.9935 36.0531C36.6849 35.9562 36.3559 36.1278 36.2589 36.4365C36.1619 36.7452 36.3336 37.0742 36.6423 37.1711C37.2396 37.3588 37.641 37.8463 37.641 38.384C37.641 39.0969 36.9557 39.6769 36.1133 39.6769C35.2709 39.6769 34.5856 39.0969 34.5856 38.384V34.6264C34.5856 33.9135 35.2709 33.3336 36.1133 33.3336C36.4369 33.3336 36.6992 33.0713 36.6992 32.7477C36.6992 32.4241 36.4369 32.1617 36.1133 32.1617C35.5466 32.1617 35.0203 32.3224 34.5856 32.5959V31.8475C34.5856 31.5239 34.3233 31.2615 33.9997 31.2615C33.6761 31.2615 33.4137 31.5239 33.4137 31.8475V35.1003C33.2166 34.9766 33.0003 34.8742 32.7664 34.8006C32.4575 34.7036 32.1288 34.8753 32.0318 35.1839C31.9348 35.4927 32.1064 35.8216 32.4151 35.9186C33.0124 36.1063 33.4137 36.5938 33.4137 37.1314V38.3839C33.4137 39.0968 32.7284 39.6768 31.8861 39.6768C31.0437 39.6768 30.3584 39.0968 30.3584 38.3839C30.3584 38.0784 30.4879 37.7813 30.7231 37.5476C30.9526 37.3195 30.9537 36.9484 30.7256 36.7189C30.4974 36.4894 30.1265 36.4883 29.897 36.7164C29.7566 36.856 29.6357 37.0085 29.5352 37.1706C29.1652 36.8206 28.9492 36.3602 28.9492 35.8788C28.9492 35.0107 29.6306 34.2481 30.6061 34.0242C30.9215 33.9519 31.1185 33.6375 31.0462 33.3221C30.9738 33.0067 30.6594 32.8097 30.3441 32.8821C29.9513 32.9721 29.5898 33.1225 29.2692 33.3199C29.0613 33.0589 28.9493 32.7531 28.9493 32.4344C28.9495 31.5531 29.785 30.8356 30.8149 30.8288C30.8202 30.8289 30.8254 30.8296 30.8306 30.8296C30.9643 30.8296 31.0988 30.7841 31.2088 30.6909C31.4334 30.5007 31.4785 30.1781 31.3277 29.9354C31.3233 29.9282 31.3192 29.9208 31.3145 29.9139C31.3121 29.9104 31.3092 29.907 31.3067 29.9035C31.2977 29.8907 31.2884 29.8782 31.2783 29.8662C31.278 29.8658 31.2777 29.8654 31.2774 29.8651C31.1797 29.7496 31.0631 29.5583 31.0631 29.3032C31.0631 28.7629 31.5904 28.3234 32.2384 28.3234C32.8865 28.3234 33.4138 28.7629 33.4138 29.3032C33.4138 29.6268 33.6762 29.8891 33.9998 29.8891C34.3234 29.8891 34.5857 29.6268 34.5857 29.3032C34.5857 28.7629 35.113 28.3234 35.7611 28.3234C36.4091 28.3234 36.9365 28.7629 36.9365 29.3032C36.9365 29.4475 36.8987 29.5707 36.8486 29.6719C36.5153 29.7034 36.193 29.7839 35.8869 29.913C35.5887 30.0387 35.449 30.3824 35.5747 30.6806C35.7004 30.9787 36.0441 31.1186 36.3423 30.9928C36.5955 30.886 36.868 30.8311 37.1523 30.8289C37.1579 30.8291 37.1634 30.8296 37.169 30.8296C37.1743 30.8296 37.1794 30.8289 37.1847 30.8288C38.2146 30.8355 39.0501 31.5531 39.0501 32.4344C39.0501 32.9884 38.713 33.497 38.1484 33.795C37.9562 33.8964 37.8359 34.0959 37.8359 34.3132C37.8359 34.5306 37.9562 34.73 38.1484 34.8314Z" fill="white"/>
</g>
<circle cx="33.5" cy="33.5" r="33" stroke="white"/>
<defs>
<clipPath id="clip0">
<rect width="40" height="40" fill="white" transform="translate(14 14)"/>
</clipPath>
</defs>
</svg>
