<svg width="167" height="196" viewBox="0 0 167 196" fill="none" xmlns="http://www.w3.org/2000/svg">
<g clip-path="url(#clip0)">
<path d="M65.1914 90.9016C63.2864 89.8421 61.5932 90.6897 61.5932 93.0205C61.5932 95.3513 63.2864 98.1059 65.1914 99.1654C67.0963 100.225 68.7896 99.3773 68.7896 97.0465C68.7896 94.9275 67.308 92.173 65.1914 90.9016ZM52.9151 83.9092C51.0101 82.8497 49.3169 83.6973 49.3169 86.0281C49.3169 88.3589 51.0101 91.1135 52.9151 92.173C54.82 93.2324 56.5133 92.3848 56.5133 90.054C56.5133 87.7232 54.82 84.9686 52.9151 83.9092ZM28.1508 69.5005C26.2459 68.4411 24.5526 69.2886 24.5526 71.6194C24.5526 73.9502 26.2459 76.7048 28.1508 77.7643C30.0558 78.8238 31.749 77.9762 31.749 75.6454C31.749 73.5265 30.2674 70.7719 28.1508 69.5005ZM15.8745 62.5081C13.9696 61.4486 12.2763 62.2962 12.2763 64.627C12.2763 66.9578 13.9696 69.7124 15.8745 70.7719C17.7795 71.8313 19.4727 70.9838 19.4727 68.653C19.4727 66.3221 17.9911 63.5675 15.8745 62.5081ZM40.6388 76.7048C38.7338 75.6454 37.0406 76.493 37.0406 78.8238C37.0406 81.1546 38.7338 83.9092 40.6388 84.9686C42.5437 86.0281 44.237 85.1805 44.237 82.8497C44.237 80.7308 42.5437 77.7643 40.6388 76.7048ZM3.59823 55.3038C1.69328 54.2443 0 55.0919 0 57.4227C0 59.7535 1.69328 62.5081 3.59823 63.5675C5.50317 64.627 7.19645 63.7794 7.19645 61.4486C7.19645 59.3297 5.50317 56.5751 3.59823 55.3038ZM77.4677 106.37C79.3726 107.429 81.0659 106.582 81.0659 104.251C81.0659 101.92 79.3726 99.1654 77.4677 98.1059C75.5627 97.0465 73.8695 97.894 73.8695 100.225C73.8695 102.344 75.5627 105.098 77.4677 106.37ZM40.6388 91.5373C38.7338 90.4778 37.0406 91.3254 37.0406 93.6562C37.0406 95.987 38.7338 98.7416 40.6388 99.8011C42.5437 100.861 44.237 100.013 44.237 97.6821C44.237 95.5632 42.5437 92.5967 40.6388 91.5373ZM28.1508 84.3329C26.2459 83.2735 24.5526 84.1211 24.5526 86.4519C24.5526 88.7827 26.2459 91.5373 28.1508 92.5967C30.0558 93.6562 31.749 92.8086 31.749 90.4778C31.749 88.3589 30.2674 85.6043 28.1508 84.3329ZM77.4677 112.938C75.5627 111.879 73.8695 112.726 73.8695 115.057C73.8695 117.388 75.5627 120.143 77.4677 121.202C79.3726 122.262 81.0659 121.414 81.0659 119.083C81.0659 116.752 79.5843 113.998 77.4677 112.938ZM52.9151 98.7416C51.0101 97.6821 49.3169 98.5297 49.3169 100.861C49.3169 103.191 51.0101 105.946 52.9151 107.005C54.82 108.065 56.5133 107.217 56.5133 104.886C56.5133 102.556 54.82 99.8011 52.9151 98.7416ZM65.1914 105.734C63.2864 104.675 61.5932 105.522 61.5932 107.853C61.5932 110.184 63.2864 112.938 65.1914 113.998C67.0963 115.057 68.7896 114.21 68.7896 111.879C68.7896 109.76 67.308 107.005 65.1914 105.734ZM3.59823 70.1362C1.69328 69.0767 0 69.9243 0 72.2551C0 74.5859 1.69328 77.3405 3.59823 78.4C5.50317 79.4594 7.19645 78.6119 7.19645 76.2811C7.19645 74.1621 5.50317 71.4075 3.59823 70.1362ZM15.8745 77.3405C13.9696 76.2811 12.2763 77.1286 12.2763 79.4594C12.2763 81.7902 13.9696 84.5448 15.8745 85.6043C17.7795 86.6638 19.4727 85.8162 19.4727 83.4854C19.4727 81.1546 17.9911 78.4 15.8745 77.3405ZM40.6388 106.37C38.7338 105.31 37.0406 106.158 37.0406 108.489C37.0406 110.819 38.7338 113.574 40.6388 114.633C42.5437 115.693 44.237 114.845 44.237 112.515C44.237 110.396 42.5437 107.641 40.6388 106.37ZM3.59823 84.9686C1.69328 83.9092 0 84.7567 0 87.0875C0 89.4184 1.69328 92.173 3.59823 93.2324C5.50317 94.2919 7.19645 93.4443 7.19645 91.1135C7.19645 88.7827 5.50317 86.24 3.59823 84.9686ZM28.1508 99.3773C26.2459 98.3178 24.5526 99.1654 24.5526 101.496C24.5526 103.827 26.2459 106.582 28.1508 107.641C30.0558 108.701 31.749 107.853 31.749 105.522C31.749 103.191 30.2674 100.437 28.1508 99.3773ZM15.8745 92.173C13.9696 91.1135 12.2763 91.9611 12.2763 94.2919C12.2763 96.6227 13.9696 99.3773 15.8745 100.437C17.7795 101.496 19.4727 100.649 19.4727 98.3178C19.4727 96.1989 17.9911 93.2324 15.8745 92.173ZM52.9151 113.574C51.0101 112.515 49.3169 113.362 49.3169 115.693C49.3169 118.024 51.0101 120.778 52.9151 121.838C54.82 122.897 56.5133 122.05 56.5133 119.719C56.5133 117.388 54.82 114.633 52.9151 113.574ZM77.4677 127.771C75.5627 126.711 73.8695 127.559 73.8695 129.89C73.8695 132.221 75.5627 134.975 77.4677 136.035C79.3726 137.094 81.0659 136.246 81.0659 133.916C81.0659 131.797 79.5843 128.83 77.4677 127.771ZM65.1914 120.566C63.2864 119.507 61.5932 120.355 61.5932 122.685C61.5932 125.016 63.2864 127.771 65.1914 128.83C67.0963 129.89 68.7896 129.042 68.7896 126.711C68.7896 124.592 67.308 121.838 65.1914 120.566ZM15.8745 107.005C13.9696 105.946 12.2763 106.793 12.2763 109.124C12.2763 111.455 13.9696 114.21 15.8745 115.269C17.7795 116.329 19.4727 115.481 19.4727 113.15C19.4727 111.031 17.9911 108.065 15.8745 107.005ZM77.4677 142.603C75.5627 141.544 73.8695 142.391 73.8695 144.722C73.8695 147.053 75.5627 149.808 77.4677 150.867C79.3726 151.926 81.0659 151.079 81.0659 148.748C81.0659 146.629 79.5843 143.875 77.4677 142.603ZM65.1914 135.611C63.2864 134.551 61.5932 135.399 61.5932 137.73C61.5932 140.061 63.2864 142.815 65.1914 143.875C67.0963 144.934 68.7896 144.086 68.7896 141.756C68.7896 139.425 67.308 136.67 65.1914 135.611ZM28.1508 114.21C26.2459 113.15 24.5526 113.998 24.5526 116.329C24.5526 118.659 26.2459 121.414 28.1508 122.473C30.0558 123.533 31.749 122.685 31.749 120.355C31.749 118.024 30.2674 115.269 28.1508 114.21ZM40.6388 121.202C38.7338 120.143 37.0406 120.99 37.0406 123.321C37.0406 125.652 38.7338 128.406 40.6388 129.466C42.5437 130.525 44.237 129.678 44.237 127.347C44.237 125.228 42.5437 122.474 40.6388 121.202ZM52.9151 128.406C51.0101 127.347 49.3169 128.195 49.3169 130.525C49.3169 132.856 51.0101 135.611 52.9151 136.67C54.82 137.73 56.5133 136.882 56.5133 134.551C56.5133 132.221 54.82 129.466 52.9151 128.406ZM3.59823 99.8011C1.69328 98.7416 0 99.5892 0 101.92C0 104.251 1.69328 107.005 3.59823 108.065C5.50317 109.124 7.19645 108.277 7.19645 105.946C7.19645 103.827 5.50317 101.072 3.59823 99.8011ZM3.59823 114.845C1.69328 113.574 0 114.422 0 116.752C0 119.083 1.69328 121.838 3.59823 122.897C5.50317 123.957 7.19645 123.109 7.19645 120.778C7.19645 118.659 5.50317 115.905 3.59823 114.845ZM77.4677 157.436C75.5627 156.376 73.8695 157.224 73.8695 159.555C73.8695 161.885 75.5627 164.64 77.4677 165.699C79.3726 166.759 81.0659 165.911 81.0659 163.581C81.0659 161.462 79.5843 158.707 77.4677 157.436ZM15.8745 121.838C13.9696 120.778 12.2763 121.626 12.2763 123.957C12.2763 126.288 13.9696 129.042 15.8745 130.102C17.7795 131.161 19.4727 130.314 19.4727 127.983C19.4727 125.864 17.9911 123.109 15.8745 121.838ZM65.1914 150.443C63.2864 149.384 61.5932 150.231 61.5932 152.562C61.5932 154.893 63.2864 157.648 65.1914 158.707C67.0963 159.766 68.7896 158.919 68.7896 156.588C68.7896 154.257 67.308 151.503 65.1914 150.443ZM52.9151 143.239C51.0101 142.179 49.3169 143.027 49.3169 145.358C49.3169 147.689 51.0101 150.443 52.9151 151.503C54.82 152.562 56.5133 151.715 56.5133 149.384C56.5133 147.265 54.82 144.298 52.9151 143.239ZM28.1508 129.042C26.2459 127.983 24.5526 128.83 24.5526 131.161C24.5526 133.492 26.2459 136.246 28.1508 137.306C30.0558 138.365 31.749 137.518 31.749 135.187C31.749 132.856 30.2674 130.102 28.1508 129.042ZM40.6388 136.035C38.7338 134.975 37.0406 135.823 37.0406 138.153C37.0406 140.484 38.7338 143.239 40.6388 144.298C42.5437 145.358 44.237 144.51 44.237 142.179C44.237 139.849 42.5437 137.306 40.6388 136.035ZM77.4677 172.268C75.5627 171.209 73.8695 172.056 73.8695 174.387C73.8695 176.718 75.5627 179.472 77.4677 180.532C79.3726 181.591 81.0659 180.744 81.0659 178.413C81.0659 176.294 79.5843 173.539 77.4677 172.268ZM40.6388 150.867C38.7338 149.808 37.0406 150.655 37.0406 152.986C37.0406 155.317 38.7338 158.071 40.6388 159.131C42.5437 160.19 44.237 159.343 44.237 157.012C44.237 154.893 42.5437 152.138 40.6388 150.867ZM3.59823 129.678C1.69328 128.618 0 129.466 0 131.797C0 134.128 1.69328 136.882 3.59823 137.942C5.50317 139.001 7.19645 138.153 7.19645 135.823C7.19645 133.492 5.50317 130.737 3.59823 129.678ZM15.8745 136.67C13.9696 135.611 12.2763 136.458 12.2763 138.789C12.2763 141.12 13.9696 143.875 15.8745 144.934C17.7795 145.994 19.4727 145.146 19.4727 142.815C19.4727 140.696 17.9911 137.942 15.8745 136.67ZM65.1914 165.276C63.2864 164.216 61.5932 165.064 61.5932 167.395C61.5932 169.725 63.2864 172.48 65.1914 173.539C67.0963 174.599 68.7896 173.751 68.7896 171.421C68.7896 169.09 67.308 166.335 65.1914 165.276ZM28.1508 143.875C26.2459 142.815 24.5526 143.663 24.5526 145.994C24.5526 148.324 26.2459 151.079 28.1508 152.138C30.0558 153.198 31.749 152.35 31.749 150.019C31.749 147.689 30.2674 144.934 28.1508 143.875ZM52.9151 158.071C51.0101 157.012 49.3169 157.859 49.3169 160.19C49.3169 162.521 51.0101 165.276 52.9151 166.335C54.82 167.395 56.5133 166.547 56.5133 164.216C56.5133 161.885 54.82 159.343 52.9151 158.071ZM28.1508 158.707C26.2459 157.648 24.5526 158.495 24.5526 160.826C24.5526 163.157 26.2459 165.911 28.1508 166.971C30.0558 168.03 31.749 167.183 31.749 164.852C31.749 162.733 30.2674 159.766 28.1508 158.707ZM52.9151 172.904C51.0101 171.844 49.3169 172.692 49.3169 175.023C49.3169 177.354 51.0101 180.108 52.9151 181.168C54.82 182.227 56.5133 181.379 56.5133 179.049C56.5133 176.93 54.82 174.175 52.9151 172.904ZM3.59823 144.51C1.69328 143.451 0 144.298 0 146.629C0 148.96 1.69328 151.715 3.59823 152.774C5.50317 153.834 7.19645 152.986 7.19645 150.655C7.19645 148.324 5.50317 145.57 3.59823 144.51ZM77.4677 187.101C75.5627 186.041 73.8695 186.889 73.8695 189.219C73.8695 191.55 75.5627 194.305 77.4677 195.364C79.3726 196.424 81.0659 195.576 81.0659 193.245C81.0659 191.126 79.5843 188.372 77.4677 187.101ZM65.1914 180.108C63.2864 179.049 61.5932 179.896 61.5932 182.227C61.5932 184.558 63.2864 187.312 65.1914 188.372C67.0963 189.431 68.7896 188.584 68.7896 186.253C68.7896 183.922 67.308 181.168 65.1914 180.108ZM15.8745 151.503C13.9696 150.443 12.2763 151.291 12.2763 153.622C12.2763 155.952 13.9696 158.707 15.8745 159.766C17.7795 160.826 19.4727 159.978 19.4727 157.648C19.4727 155.529 17.9911 152.774 15.8745 151.503ZM40.6388 165.911C38.7338 164.852 37.0406 165.699 37.0406 168.03C37.0406 170.361 38.7338 173.116 40.6388 174.175C42.5437 175.235 44.237 174.387 44.237 172.056C44.237 169.725 42.5437 166.971 40.6388 165.911Z" fill="url(#paint0_linear)"/>
<path d="M151.126 61.2369C149.221 62.2963 147.527 65.2628 147.527 67.3817C147.527 69.7125 149.221 70.5601 151.126 69.5006C153.031 68.4412 154.724 65.4747 154.724 63.3558C154.724 61.2369 153.242 60.1774 151.126 61.2369ZM138.849 68.4412C136.944 69.5006 135.251 72.4671 135.251 74.5861C135.251 76.9169 136.944 77.7644 138.849 76.705C140.754 75.6455 142.448 72.679 142.448 70.5601C142.448 68.2293 140.754 67.3817 138.849 68.4412ZM114.085 82.6379C112.18 83.6974 110.487 86.6639 110.487 88.7828C110.487 91.1136 112.18 91.9612 114.085 90.9017C115.99 89.8423 117.683 86.8758 117.683 84.7569C117.683 82.426 116.202 81.5785 114.085 82.6379ZM126.573 75.6455C124.668 76.705 122.975 79.6714 122.975 81.7904C122.975 84.1212 124.668 84.9687 126.573 83.9093C128.478 82.8498 130.171 79.8833 130.171 77.7644C130.171 75.4336 128.478 74.3742 126.573 75.6455ZM89.5326 97.0466C87.6276 98.106 85.9343 101.073 85.9343 103.191C85.9343 105.522 87.6276 106.37 89.5326 105.31C91.4375 104.251 93.1308 101.284 93.1308 99.1655C93.1308 96.6228 91.4375 95.7752 89.5326 97.0466ZM101.809 89.8423C99.9039 90.9017 98.2106 93.8682 98.2106 95.9871C98.2106 98.3179 99.9039 99.1655 101.809 98.106C103.714 97.0466 105.407 94.0801 105.407 91.9612C105.407 89.6304 103.925 88.7828 101.809 89.8423ZM163.402 62.5082C165.307 61.4488 167 58.4823 167 56.3633C167 54.0325 165.307 53.185 163.402 54.2444C161.497 55.3039 159.804 58.2704 159.804 60.3893C159.804 62.5082 161.497 63.5677 163.402 62.5082ZM101.809 104.675C99.9039 105.734 98.2106 108.701 98.2106 110.82C98.2106 113.15 99.9039 113.998 101.809 112.938C103.714 111.879 105.407 108.913 105.407 106.794C105.407 104.463 103.925 103.615 101.809 104.675ZM89.5326 111.879C87.6276 112.938 85.9343 115.905 85.9343 118.024C85.9343 120.355 87.6276 121.202 89.5326 120.143C91.4375 119.083 93.1308 116.117 93.1308 113.998C93.1308 111.667 91.4375 110.608 89.5326 111.879ZM138.849 83.2736C136.944 84.3331 135.251 87.2996 135.251 89.4185C135.251 91.7493 136.944 92.5969 138.849 91.5374C140.754 90.4779 142.448 87.5115 142.448 85.3925C142.448 83.0617 140.754 82.2142 138.849 83.2736ZM163.402 69.0769C161.497 70.1363 159.804 73.1028 159.804 75.2217C159.804 77.3406 161.497 78.4001 163.402 77.3406C165.307 76.2812 167 73.3147 167 71.1958C167 68.865 165.519 68.0174 163.402 69.0769ZM126.573 90.4779C124.668 91.5374 122.975 94.5039 122.975 96.6228C122.975 98.7417 124.668 99.8012 126.573 98.7417C128.478 97.6823 130.171 94.7158 130.171 92.5969C130.171 90.266 128.478 89.2066 126.573 90.4779ZM114.085 97.4704C112.18 98.5298 110.487 101.496 110.487 103.615C110.487 105.946 112.18 106.794 114.085 105.734C115.99 104.675 117.683 101.708 117.683 99.5893C117.683 97.2585 116.202 96.4109 114.085 97.4704ZM151.126 76.2812C149.221 77.3406 147.527 80.3071 147.527 82.4261C147.527 84.7569 149.221 85.6044 151.126 84.545C153.031 83.4855 154.724 80.519 154.724 78.4001C154.724 76.0693 153.242 75.0098 151.126 76.2812ZM126.573 105.31C124.668 106.37 122.975 109.336 122.975 111.455C122.975 113.786 124.668 114.634 126.573 113.574C128.478 112.515 130.171 109.548 130.171 107.429C130.171 105.098 128.478 104.251 126.573 105.31ZM101.809 119.507C99.9039 120.567 98.2106 123.533 98.2106 125.652C98.2106 127.983 99.9039 128.83 101.809 127.771C103.714 126.711 105.407 123.745 105.407 121.626C105.407 119.295 103.925 118.448 101.809 119.507ZM151.126 91.1136C149.221 92.1731 147.527 95.1396 147.527 97.2585C147.527 99.5893 149.221 100.437 151.126 99.3774C153.031 98.3179 154.724 95.3515 154.724 93.2325C154.724 90.9017 153.242 89.8423 151.126 91.1136ZM163.402 83.9093C161.497 84.9687 159.804 87.9352 159.804 90.0542C159.804 92.385 161.497 93.2325 163.402 92.1731C165.307 91.1136 167 88.1471 167 86.0282C167 83.6974 165.519 82.8498 163.402 83.9093ZM114.085 112.515C112.18 113.574 110.487 116.541 110.487 118.66C110.487 120.778 112.18 121.838 114.085 120.778C115.99 119.719 117.683 116.753 117.683 114.634C117.683 112.091 116.202 111.243 114.085 112.515ZM89.5326 126.711C87.6276 127.771 85.9343 130.737 85.9343 132.856C85.9343 135.187 87.6276 136.035 89.5326 134.975C91.4375 133.916 93.1308 130.949 93.1308 128.83C93.1308 126.5 91.4375 125.44 89.5326 126.711ZM138.849 98.106C136.944 99.1655 135.251 102.132 135.251 104.251C135.251 106.582 136.944 107.429 138.849 106.37C140.754 105.31 142.448 102.344 142.448 100.225C142.448 97.8941 140.754 97.0466 138.849 98.106ZM126.573 120.143C124.668 121.202 122.975 124.169 122.975 126.288C122.975 128.407 124.668 129.466 126.573 128.407C128.478 127.347 130.171 124.381 130.171 122.262C130.171 119.931 128.478 119.083 126.573 120.143ZM114.085 127.347C112.18 128.407 110.487 131.373 110.487 133.492C110.487 135.823 112.18 136.67 114.085 135.611C115.99 134.551 117.683 131.585 117.683 129.466C117.683 127.135 116.202 126.076 114.085 127.347ZM89.5326 141.544C87.6276 142.603 85.9343 145.57 85.9343 147.689C85.9343 150.02 87.6276 150.867 89.5326 149.808C91.4375 148.748 93.1308 145.782 93.1308 143.663C93.1308 141.332 91.4375 140.273 89.5326 141.544ZM151.126 105.946C149.221 107.006 147.527 109.972 147.527 112.091C147.527 114.422 149.221 115.269 151.126 114.21C153.031 113.15 154.724 110.184 154.724 108.065C154.724 105.734 153.242 104.675 151.126 105.946ZM138.849 112.938C136.944 113.998 135.251 116.964 135.251 119.083C135.251 121.414 136.944 122.262 138.849 121.202C140.754 120.143 142.448 117.176 142.448 115.057C142.448 112.727 140.754 111.879 138.849 112.938ZM101.809 134.34C99.9039 135.399 98.2106 138.366 98.2106 140.484C98.2106 142.603 99.9039 143.663 101.809 142.603C103.714 141.544 105.407 138.577 105.407 136.458C105.407 134.128 103.925 133.28 101.809 134.34ZM163.402 98.7417C161.497 99.8012 159.804 102.768 159.804 104.887C159.804 107.217 161.497 108.065 163.402 107.006C165.307 105.946 167 102.98 167 100.861C167 98.7417 165.519 97.6823 163.402 98.7417ZM89.5326 156.376C87.6276 157.436 85.9343 160.402 85.9343 162.521C85.9343 164.852 87.6276 165.7 89.5326 164.64C91.4375 163.581 93.1308 160.614 93.1308 158.495C93.1308 156.164 91.4375 155.317 89.5326 156.376ZM101.809 149.172C99.9039 150.231 98.2106 153.198 98.2106 155.317C98.2106 157.648 99.9039 158.495 101.809 157.436C103.714 156.376 105.407 153.41 105.407 151.291C105.407 148.96 103.925 148.113 101.809 149.172ZM114.085 142.18C112.18 143.239 110.487 146.205 110.487 148.324C110.487 150.655 112.18 151.503 114.085 150.443C115.99 149.384 117.683 146.417 117.683 144.298C117.683 142.18 116.202 140.908 114.085 142.18ZM138.849 127.983C136.944 129.042 135.251 132.009 135.251 134.128C135.251 136.458 136.944 137.306 138.849 136.247C140.754 135.187 142.448 132.221 142.448 130.102C142.448 127.559 140.754 126.711 138.849 127.983ZM126.573 134.975C124.668 136.035 122.975 139.001 122.975 141.12C122.975 143.451 124.668 144.298 126.573 143.239C128.478 142.18 130.171 139.213 130.171 137.094C130.171 134.763 128.478 133.916 126.573 134.975ZM151.126 120.778C149.221 121.838 147.527 124.804 147.527 126.923C147.527 129.254 149.221 130.102 151.126 129.042C153.031 127.983 154.724 125.016 154.724 122.897C154.724 120.567 153.242 119.507 151.126 120.778ZM163.402 113.574C161.497 114.634 159.804 117.6 159.804 119.719C159.804 122.05 161.497 122.897 163.402 121.838C165.307 120.778 167 117.812 167 115.693C167 113.362 165.519 112.515 163.402 113.574ZM101.809 164.004C99.9039 165.064 98.2106 168.03 98.2106 170.149C98.2106 172.48 99.9039 173.328 101.809 172.268C103.714 171.209 105.407 168.242 105.407 166.123C105.407 163.793 103.925 162.945 101.809 164.004ZM151.126 135.611C149.221 136.67 147.527 139.637 147.527 141.756C147.527 144.087 149.221 144.934 151.126 143.875C153.031 142.815 154.724 139.849 154.724 137.73C154.724 135.399 153.242 134.551 151.126 135.611ZM163.402 128.407C161.497 129.466 159.804 132.433 159.804 134.551C159.804 136.882 161.497 137.73 163.402 136.67C165.307 135.611 167 132.644 167 130.525C167 128.195 165.519 127.347 163.402 128.407ZM89.5326 171.209C87.6276 172.268 85.9343 175.235 85.9343 177.354C85.9343 179.684 87.6276 180.532 89.5326 179.473C91.4375 178.413 93.1308 175.447 93.1308 173.328C93.1308 170.997 91.4375 170.149 89.5326 171.209ZM126.573 149.808C124.668 150.867 122.975 153.834 122.975 155.953C122.975 158.071 124.668 159.131 126.573 158.071C128.478 157.012 130.171 154.045 130.171 151.927C130.171 149.596 128.478 148.748 126.573 149.808ZM138.849 142.815C136.944 143.875 135.251 146.841 135.251 148.96C135.251 151.291 136.944 152.138 138.849 151.079C140.754 150.02 142.448 147.053 142.448 144.934C142.448 142.603 140.754 141.544 138.849 142.815ZM114.085 157.012C112.18 158.071 110.487 161.038 110.487 163.157C110.487 165.276 112.18 166.335 114.085 165.276C115.99 164.216 117.683 161.25 117.683 159.131C117.683 156.8 116.202 155.741 114.085 157.012ZM126.573 164.64C124.668 165.7 122.975 168.666 122.975 170.785C122.975 173.116 124.668 173.963 126.573 172.904C128.478 171.844 130.171 168.878 130.171 166.759C130.171 164.428 128.478 163.581 126.573 164.64ZM114.085 171.844C112.18 172.904 110.487 175.87 110.487 177.989C110.487 180.32 112.18 181.168 114.085 180.108C115.99 179.049 117.683 176.082 117.683 173.963C117.683 171.633 116.202 170.785 114.085 171.844ZM101.809 179.049C99.9039 180.108 98.2106 183.075 98.2106 185.194C98.2106 187.524 99.9039 188.372 101.809 187.313C103.714 186.253 105.407 183.287 105.407 181.168C105.407 178.837 103.925 177.777 101.809 179.049ZM89.5326 186.041C87.6276 187.101 85.9343 190.067 85.9343 192.186C85.9343 194.517 87.6276 195.364 89.5326 194.305C91.4375 193.245 93.1308 190.279 93.1308 188.16C93.1308 185.829 91.4375 184.982 89.5326 186.041ZM151.126 150.443C149.221 151.503 147.527 154.469 147.527 156.588C147.527 158.919 149.221 159.767 151.126 158.707C153.031 157.648 154.724 154.681 154.724 152.562C154.724 150.231 153.242 149.384 151.126 150.443ZM138.849 157.648C136.944 158.707 135.251 161.674 135.251 163.793C135.251 165.911 136.944 166.971 138.849 165.911C140.754 164.852 142.448 161.885 142.448 159.767C142.448 157.436 140.754 156.376 138.849 157.648ZM163.402 143.451C161.497 144.51 159.804 147.477 159.804 149.596C159.804 151.927 161.497 152.774 163.402 151.715C165.307 150.655 167 147.689 167 145.57C167 143.027 165.519 142.18 163.402 143.451Z" fill="url(#paint1_linear)"/>
<path d="M114.72 15.0443C112.815 13.9849 109.428 13.9849 107.523 15.0443C105.619 16.1038 105.619 18.0108 107.523 19.2822C109.428 20.3416 112.815 20.3416 114.72 19.2822C116.625 18.2227 116.625 16.3157 114.72 15.0443ZM102.444 8.0519C100.539 6.99244 97.1521 6.99244 95.2472 8.0519C93.3422 9.11136 93.3422 11.0184 95.2472 12.2897C97.1521 13.3492 100.539 13.3492 102.444 12.2897C104.349 11.0184 104.349 9.11136 102.444 8.0519ZM126.996 22.2487C125.091 21.1892 121.705 21.1892 119.8 22.2487C117.895 23.3081 117.895 25.2151 119.8 26.4865C121.705 27.546 125.091 27.546 126.996 26.4865C129.113 25.2151 129.113 23.3081 126.996 22.2487ZM82.9709 5.08541C84.8758 6.14487 88.2624 6.14487 90.1673 5.08541C92.0723 4.02595 92.0723 2.11892 90.1673 0.847573C88.2624 -0.211886 84.8758 -0.211886 82.9709 0.847573C80.8543 1.90703 80.8543 3.81406 82.9709 5.08541ZM164.037 43.6497C162.132 42.5903 158.745 42.5903 156.84 43.6497C154.935 44.7092 154.935 46.6162 156.84 47.8876C158.745 48.947 162.132 48.947 164.037 47.8876C165.942 46.6162 165.942 44.7092 164.037 43.6497ZM139.273 29.453C137.368 28.3935 133.981 28.3935 132.076 29.453C130.171 30.5124 130.171 32.4195 132.076 33.6908C133.981 34.7503 137.368 34.7503 139.273 33.6908C141.389 32.4195 141.389 30.5124 139.273 29.453ZM151.76 36.4454C149.856 35.386 146.469 35.386 144.564 36.4454C142.659 37.5049 142.659 39.4119 144.564 40.6833C146.469 41.7427 149.856 41.7427 151.76 40.6833C153.665 39.4119 153.665 37.7168 151.76 36.4454ZM70.0596 12.5016C71.9645 13.5611 75.3511 13.5611 77.256 12.5016C79.161 11.4422 79.161 9.53514 77.256 8.26379C75.3511 7.20433 71.9645 7.20433 70.0596 8.26379C68.1546 9.32325 68.1546 11.2303 70.0596 12.5016ZM114.297 29.6649C112.392 28.6054 109.005 28.6054 107.1 29.6649C105.195 30.7243 105.195 32.6314 107.1 33.9027C109.005 34.9622 112.392 34.9622 114.297 33.9027C116.202 32.6314 116.202 30.7243 114.297 29.6649ZM138.849 43.8616C136.944 42.8022 133.558 42.8022 131.653 43.8616C129.748 44.9211 129.748 46.8281 131.653 48.0995C133.558 49.1589 136.944 49.1589 138.849 48.0995C140.754 46.8281 140.754 45.133 138.849 43.8616ZM151.125 51.066C149.221 50.0065 145.834 50.0065 143.929 51.066C142.024 52.1254 142.024 54.0324 143.929 55.3038C145.834 56.3633 149.221 56.3633 151.125 55.3038C153.242 54.0324 153.242 52.1254 151.125 51.066ZM126.573 36.8692C124.668 35.8097 121.281 35.8097 119.376 36.8692C117.471 37.9287 117.471 39.8357 119.376 41.107C121.281 42.1665 124.668 42.1665 126.573 41.107C128.478 39.8357 128.478 37.9287 126.573 36.8692ZM89.5323 15.4681C87.6274 14.4087 84.2408 14.4087 82.3359 15.4681C80.4309 16.5276 80.4309 18.4346 82.3359 19.706C84.2408 20.7654 87.6274 20.7654 89.5323 19.706C91.6489 18.4346 91.6489 16.5276 89.5323 15.4681ZM101.809 22.4606C99.9037 21.4011 96.5171 21.4011 94.6122 22.4606C92.7072 23.52 92.7072 25.427 94.6122 26.6984C96.5171 27.7578 99.9037 27.7578 101.809 26.6984C103.925 25.6389 103.925 23.7319 101.809 22.4606ZM89.109 29.8768C87.2041 28.8173 83.8175 28.8173 81.9126 29.8768C80.0076 30.9362 80.0076 32.8433 81.9126 34.1146C83.8175 35.1741 87.2041 35.1741 89.109 34.1146C91.0139 33.0551 91.0139 31.1481 89.109 29.8768ZM64.3448 15.68C62.4398 14.6205 59.0532 14.6205 57.1483 15.68C55.2434 16.7395 55.2434 18.6465 57.1483 19.9178C59.0532 20.9773 62.4398 20.9773 64.3448 19.9178C66.4614 18.6465 66.4614 16.9514 64.3448 15.68ZM76.621 22.8843C74.7161 21.8249 71.3295 21.8249 69.4246 22.8843C67.5197 23.9438 67.5197 25.8508 69.4246 27.1222C71.3295 28.1816 74.7161 28.1816 76.621 27.1222C78.7377 25.8508 78.7377 23.9438 76.621 22.8843ZM101.385 37.0811C99.4804 36.0216 96.0938 36.0216 94.1889 37.0811C92.2839 38.1406 92.2839 40.0476 94.1889 41.3189C96.0938 42.3784 99.4804 42.3784 101.385 41.3189C103.29 40.0476 103.29 38.1406 101.385 37.0811ZM138.426 58.4822C136.521 57.4227 133.134 57.4227 131.229 58.4822C129.324 59.5416 129.324 61.4487 131.229 62.72C133.134 63.7795 136.521 63.7795 138.426 62.72C140.331 61.4487 140.331 59.5416 138.426 58.4822ZM125.938 51.2779C124.033 50.2184 120.646 50.2184 118.741 51.2779C116.837 52.3373 116.837 54.2443 118.741 55.5157C120.646 56.5751 124.033 56.5751 125.938 55.5157C128.055 54.2443 128.055 52.5492 125.938 51.2779ZM113.662 44.2854C111.757 43.226 108.37 43.226 106.465 44.2854C104.56 45.3449 104.56 47.2519 106.465 48.5233C108.37 49.7946 111.757 49.5827 113.662 48.5233C115.778 47.2519 115.567 45.3449 113.662 44.2854ZM76.1977 37.293C74.2928 36.2335 70.9062 36.2335 69.0013 37.293C67.0963 38.3524 67.0963 40.2595 69.0013 41.5308C70.9062 42.5903 74.2928 42.5903 76.1977 41.5308C78.1027 40.4714 78.1027 38.5643 76.1977 37.293ZM63.9214 30.3006C62.0165 29.2411 58.6299 29.2411 56.725 30.3006C54.82 31.36 54.82 33.267 56.725 34.5384C58.6299 35.5978 62.0165 35.5978 63.9214 34.5384C65.8264 33.267 65.8264 31.36 63.9214 30.3006ZM125.515 65.8984C123.61 64.8389 120.223 64.8389 118.318 65.8984C116.413 66.9579 116.413 68.8649 118.318 70.1362C120.223 71.1957 123.61 71.1957 125.515 70.1362C127.42 68.8649 127.42 66.9579 125.515 65.8984ZM100.75 51.7016C98.8454 50.6422 95.4588 50.6422 93.5539 51.7016C91.6489 52.7611 91.6489 54.6681 93.5539 55.9395C95.4588 56.9989 98.8454 56.9989 100.75 55.9395C102.867 54.6681 102.867 52.7611 100.75 51.7016ZM88.474 44.4973C86.5691 43.4378 83.1825 43.4378 81.2776 44.4973C79.3726 45.5568 79.3726 47.4638 81.2776 48.7351C83.1825 49.7946 86.5691 49.7946 88.474 48.7351C90.5906 47.4638 90.5906 45.7687 88.474 44.4973ZM113.238 58.6941C111.333 57.6346 107.947 57.6346 106.042 58.6941C104.137 59.7535 104.137 61.6606 106.042 62.9319C107.947 63.9914 111.333 63.9914 113.238 62.9319C115.143 61.8724 115.143 59.9654 113.238 58.6941ZM51.4335 23.0962C49.5285 22.0368 46.142 22.0368 44.237 23.0962C42.3321 24.1557 42.3321 26.0627 44.237 27.3341C46.142 28.3935 49.5285 28.3935 51.4335 27.3341C53.5501 26.0627 53.5501 24.3676 51.4335 23.0962ZM63.2865 44.9211C61.3815 43.8616 57.9949 43.8616 56.09 44.9211C54.1851 45.9806 54.1851 47.8876 56.09 49.1589C57.9949 50.2184 61.3815 50.2184 63.2865 49.1589C65.4031 47.8876 65.4031 45.9806 63.2865 44.9211ZM100.327 66.1103C98.4221 65.0508 95.0355 65.0508 93.1306 66.1103C91.2256 67.1697 91.2256 69.0768 93.1306 70.3481C95.0355 71.4076 98.4221 71.4076 100.327 70.3481C102.232 69.2887 102.232 67.3816 100.327 66.1103ZM112.603 73.3146C110.698 72.2551 107.312 72.2551 105.407 73.3146C103.502 74.3741 103.502 76.2811 105.407 77.5524C107.312 78.6119 110.698 78.6119 112.603 77.5524C114.72 76.2811 114.508 74.3741 112.603 73.3146ZM38.7339 30.5124C36.8289 29.453 33.4423 29.453 31.5374 30.5124C29.6325 31.5719 29.6325 33.4789 31.5374 34.7503C33.4423 35.8097 36.8289 35.8097 38.7339 34.7503C40.6388 33.4789 40.6388 31.7838 38.7339 30.5124ZM88.0507 59.1179C86.1458 58.0584 82.7592 58.0584 80.8543 59.1179C78.9493 60.1773 78.9493 62.0843 80.8543 63.3557C82.7592 64.4151 86.1458 64.4151 88.0507 63.3557C89.9557 62.0843 89.9557 60.1773 88.0507 59.1179ZM75.5628 51.9135C73.6578 50.8541 70.2712 50.8541 68.3663 51.9135C66.4614 52.973 66.4614 54.88 68.3663 56.1514C70.2712 57.2108 73.6578 57.2108 75.5628 56.1514C77.6794 54.88 77.6794 53.1849 75.5628 51.9135ZM51.0102 37.7168C49.1052 36.6573 45.7186 36.6573 43.8137 37.7168C41.9088 38.7762 41.9088 40.6833 43.8137 41.9546C45.7186 43.0141 49.1052 43.0141 51.0102 41.9546C52.9151 40.6833 52.9151 38.7762 51.0102 37.7168ZM25.8226 37.9287C23.9176 36.8692 20.5311 36.8692 18.6261 37.9287C16.7212 38.9881 16.7212 40.8951 18.6261 42.1665C20.5311 43.226 23.9176 43.226 25.8226 42.1665C27.7275 41.107 27.7275 39.2 25.8226 37.9287ZM50.3752 52.3373C48.4702 51.2779 45.0837 51.2779 43.1787 52.3373C41.2738 53.3968 41.2738 55.3038 43.1787 56.5751C45.0837 57.6346 48.4702 57.6346 50.3752 56.5751C52.4918 55.3038 52.4918 53.3968 50.3752 52.3373ZM38.0989 45.133C36.1939 44.0735 32.8074 44.0735 30.9024 45.133C28.9975 46.1924 28.9975 48.0995 30.9024 49.3708C32.8074 50.4303 36.1939 50.4303 38.0989 49.3708C40.2155 48.0995 40.2155 46.1924 38.0989 45.133ZM99.692 80.7308C97.7871 79.6714 94.4005 79.6714 92.4956 80.7308C90.5906 81.7903 90.5906 83.6973 92.4956 84.9687C94.4005 86.24 97.7871 86.0281 99.692 84.9687C101.809 83.6973 101.809 81.7903 99.692 80.7308ZM62.8631 59.3297C60.9582 58.2703 57.5716 58.2703 55.6667 59.3297C53.7617 60.3892 53.7617 62.2962 55.6667 63.5676C57.5716 64.627 60.9582 64.627 62.8631 63.5676C64.7681 62.2962 64.7681 60.6011 62.8631 59.3297ZM87.4157 73.5265C85.5108 72.467 82.1242 72.467 80.2193 73.5265C78.3143 74.586 78.3143 76.493 80.2193 77.7643C82.1242 78.8238 85.5108 78.8238 87.4157 77.7643C89.5323 76.7049 89.5323 74.7979 87.4157 73.5265ZM75.1394 66.5341C73.2345 65.4746 69.8479 65.4746 67.943 66.5341C66.038 67.5935 66.038 69.5005 67.943 70.7719C69.8479 71.8314 73.2345 71.8314 75.1394 70.7719C77.0444 69.5005 77.0444 67.5935 75.1394 66.5341ZM86.9924 88.147C85.0875 87.0876 81.7009 87.0876 79.796 88.147C77.891 89.2065 77.891 91.1135 79.796 92.3849C81.7009 93.4443 85.0875 93.4443 86.9924 92.3849C88.8973 91.1135 88.8973 89.4184 86.9924 88.147ZM49.9519 66.746C48.0469 65.6865 44.6603 65.6865 42.7554 66.746C40.8505 67.8054 40.8505 69.7124 42.7554 70.9838C44.6603 72.0433 48.0469 72.0433 49.9519 70.9838C51.8568 69.7124 51.8568 68.0173 49.9519 66.746ZM12.9113 45.3449C11.0063 44.2854 7.61978 44.2854 5.71484 45.3449C3.8099 46.4043 3.8099 48.3114 5.71484 49.5827C7.61978 50.6422 11.0063 50.6422 12.9113 49.5827C15.0279 48.5233 15.0279 46.6162 12.9113 45.3449ZM62.2281 73.9503C60.3232 72.8908 56.9366 72.8908 55.0317 73.9503C53.1268 75.0097 53.1268 76.9168 55.0317 78.1881C56.9366 79.2476 60.3232 79.2476 62.2281 78.1881C64.3448 76.9168 64.3448 75.0097 62.2281 73.9503ZM37.6755 59.7535C35.7706 58.6941 32.384 58.6941 30.4791 59.7535C28.5742 60.813 28.5742 62.72 30.4791 63.9914C32.384 65.0508 35.7706 65.0508 37.6755 63.9914C39.5805 62.72 39.5805 60.813 37.6755 59.7535ZM74.5044 80.9427C72.5995 79.8833 69.2129 79.8833 67.308 80.9427C65.4031 82.0022 65.4031 83.9092 67.308 85.1805C69.2129 86.24 72.5995 86.24 74.5044 85.1805C76.621 84.1211 76.621 82.2141 74.5044 80.9427ZM25.3993 52.5492C23.4943 51.4897 20.1077 51.4897 18.2028 52.5492C16.2979 53.6087 16.2979 55.5157 18.2028 56.787C20.1077 57.8465 23.4943 57.8465 25.3993 56.787C27.3042 55.5157 27.3042 53.6087 25.3993 52.5492Z" fill="url(#paint2_linear)"/>
</g>
<defs>
<linearGradient id="paint0_linear" x1="0" y1="125.397" x2="81.1425" y2="125.397" gradientUnits="userSpaceOnUse">
<stop stop-color="#FF9E6E"/>
<stop offset="0.2084" stop-color="#FFA570"/>
<stop offset="0.5013" stop-color="#FFB776"/>
<stop offset="0.8428" stop-color="#FFD580"/>
<stop offset="1" stop-color="#FFE585"/>
</linearGradient>
<linearGradient id="paint1_linear" x1="85.9335" y1="124.287" x2="167.076" y2="124.287" gradientUnits="userSpaceOnUse">
<stop stop-color="#FF9E6E"/>
<stop offset="0.2084" stop-color="#FFA570"/>
<stop offset="0.5013" stop-color="#FFB776"/>
<stop offset="0.8428" stop-color="#FFD580"/>
<stop offset="1" stop-color="#FFE585"/>
</linearGradient>
<linearGradient id="paint2_linear" x1="4.32444" y1="46.5851" x2="165.523" y2="46.5851" gradientUnits="userSpaceOnUse">
<stop stop-color="#FF9E6E"/>
<stop offset="0.2084" stop-color="#FFA570"/>
<stop offset="0.5013" stop-color="#FFB776"/>
<stop offset="0.8428" stop-color="#FFD580"/>
<stop offset="1" stop-color="#FFE585"/>
</linearGradient>
<clipPath id="clip0">
<rect width="167" height="196" fill="white"/>
</clipPath>
</defs>
</svg>
