<svg width="167" height="195" viewBox="0 0 167 195" fill="none" xmlns="http://www.w3.org/2000/svg">
<g clip-path="url(#clip0)">
<path d="M52.9151 83.4814C51.0101 82.4273 49.3169 83.2706 49.3169 85.5895C49.3169 87.9084 51.0101 90.649 52.9151 91.703C54.82 92.7571 56.5133 91.9138 56.5133 89.5949C56.5133 87.276 54.82 84.5354 52.9151 83.4814ZM40.6388 76.3138C38.7338 75.2598 37.0406 76.103 37.0406 78.4219C37.0406 80.7408 38.7338 83.4814 40.6388 84.5354C42.5437 85.5895 44.237 84.7462 44.237 82.4273C44.237 80.3192 42.5437 77.3679 40.6388 76.3138ZM65.1914 90.4381C63.2864 89.3841 61.5932 90.2273 61.5932 92.5463C61.5932 94.8652 63.2864 97.6057 65.1914 98.6598C67.0963 99.7138 68.7896 98.8706 68.7896 96.5517C68.7896 94.4435 67.308 91.703 65.1914 90.4381ZM28.1508 69.1462C26.2459 68.0922 24.5526 68.9354 24.5526 71.2543C24.5526 73.5733 26.2459 76.3138 28.1508 77.3679C30.0558 78.4219 31.749 77.5787 31.749 75.2598C31.749 73.1516 30.2674 70.4111 28.1508 69.1462ZM15.8745 62.1895C13.9696 61.1354 12.2763 61.9787 12.2763 64.2976C12.2763 66.6165 13.9696 69.3571 15.8745 70.4111C17.7795 71.4652 19.4727 70.6219 19.4727 68.303C19.4727 65.9841 17.9911 63.2435 15.8745 62.1895ZM3.59823 55.0219C1.69328 53.9679 0 54.8111 0 57.13C0 59.4489 1.69328 62.1895 3.59823 63.2435C5.50317 64.2976 7.19645 63.4543 7.19645 61.1354C7.19645 59.0273 5.50317 56.2868 3.59823 55.0219ZM77.4677 105.827C79.3726 106.881 81.0659 106.038 81.0659 103.719C81.0659 101.4 79.3726 98.6598 77.4677 97.6057C75.5627 96.5517 73.8695 97.3949 73.8695 99.7138C73.8695 101.822 75.5627 104.562 77.4677 105.827ZM52.9151 98.2381C51.0101 97.1841 49.3169 98.0273 49.3169 100.346C49.3169 102.665 51.0101 105.406 52.9151 106.46C54.82 107.514 56.5133 106.671 56.5133 104.352C56.5133 102.033 54.82 99.2922 52.9151 98.2381ZM40.6388 91.0706C38.7338 90.0165 37.0406 90.8598 37.0406 93.1787C37.0406 95.4976 38.7338 98.2381 40.6388 99.2922C42.5437 100.346 44.237 99.503 44.237 97.1841C44.237 95.076 42.5437 92.1246 40.6388 91.0706ZM28.1508 83.903C26.2459 82.8489 24.5526 83.6922 24.5526 86.0111C24.5526 88.33 26.2459 91.0706 28.1508 92.1246C30.0558 93.1787 31.749 92.3354 31.749 90.0165C31.749 87.9084 30.2674 85.1679 28.1508 83.903ZM77.4677 112.362C75.5627 111.308 73.8695 112.152 73.8695 114.471C73.8695 116.789 75.5627 119.53 77.4677 120.584C79.3726 121.638 81.0659 120.795 81.0659 118.476C81.0659 116.157 79.5843 113.417 77.4677 112.362ZM15.8745 76.9462C13.9696 75.8922 12.2763 76.7354 12.2763 79.0544C12.2763 81.3733 13.9696 84.1138 15.8745 85.1679C17.7795 86.2219 19.4727 85.3787 19.4727 83.0598C19.4727 80.7408 17.9911 78.0003 15.8745 76.9462ZM65.1914 105.195C63.2864 104.141 61.5932 104.984 61.5932 107.303C61.5932 109.622 63.2864 112.362 65.1914 113.417C67.0963 114.471 68.7896 113.627 68.7896 111.308C68.7896 109.2 67.308 106.46 65.1914 105.195ZM3.59823 69.7787C1.69328 68.7246 0 69.5679 0 71.8868C0 74.2057 1.69328 76.9462 3.59823 78.0003C5.50317 79.0544 7.19645 78.2111 7.19645 75.8922C7.19645 73.7841 5.50317 71.0435 3.59823 69.7787ZM77.4677 127.119C75.5627 126.065 73.8695 126.908 73.8695 129.227C73.8695 131.546 75.5627 134.287 77.4677 135.341C79.3726 136.395 81.0659 135.552 81.0659 133.233C81.0659 131.125 79.5843 128.173 77.4677 127.119ZM15.8745 91.703C13.9696 90.649 12.2763 91.4922 12.2763 93.8111C12.2763 96.13 13.9696 98.8706 15.8745 99.9246C17.7795 100.979 19.4727 100.135 19.4727 97.8165C19.4727 95.7084 17.9911 92.7571 15.8745 91.703ZM3.59823 84.5354C1.69328 83.4814 0 84.3246 0 86.6435C0 88.9625 1.69328 91.703 3.59823 92.7571C5.50317 93.8111 7.19645 92.9679 7.19645 90.649C7.19645 88.5408 5.50317 85.8003 3.59823 84.5354ZM40.6388 105.827C38.7338 104.773 37.0406 105.617 37.0406 107.935C37.0406 110.254 38.7338 112.995 40.6388 114.049C42.5437 115.103 44.237 114.26 44.237 111.941C44.237 109.833 42.5437 107.092 40.6388 105.827ZM65.1914 119.952C63.2864 118.898 61.5932 119.741 61.5932 122.06C61.5932 124.379 63.2864 127.119 65.1914 128.173C67.0963 129.227 68.7896 128.384 68.7896 126.065C68.7896 123.957 67.308 121.217 65.1914 119.952ZM52.9151 112.995C51.0101 111.941 49.3169 112.784 49.3169 115.103C49.3169 117.422 51.0101 120.162 52.9151 121.217C54.82 122.271 56.5133 121.427 56.5133 119.108C56.5133 116.79 54.82 114.049 52.9151 112.995ZM28.1508 98.8706C26.2459 97.8165 24.5526 98.6598 24.5526 100.979C24.5526 103.298 26.2459 106.038 28.1508 107.092C30.0558 108.146 31.749 107.303 31.749 104.984C31.749 102.665 30.2674 99.9246 28.1508 98.8706ZM15.8745 106.46C13.9696 105.406 12.2763 106.249 12.2763 108.568C12.2763 110.887 13.9696 113.627 15.8745 114.681C17.7795 115.735 19.4727 114.892 19.4727 112.573C19.4727 110.465 17.9911 107.514 15.8745 106.46ZM40.6388 120.584C38.7338 119.53 37.0406 120.373 37.0406 122.692C37.0406 125.011 38.7338 127.752 40.6388 128.806C42.5437 129.86 44.237 129.017 44.237 126.698C44.237 124.59 42.5437 121.849 40.6388 120.584ZM65.1914 134.919C63.2864 133.865 61.5932 134.708 61.5932 137.027C61.5932 139.346 63.2864 142.087 65.1914 143.141C67.0963 144.195 68.7896 143.352 68.7896 141.033C68.7896 138.714 67.308 135.973 65.1914 134.919ZM28.1508 113.627C26.2459 112.573 24.5526 113.417 24.5526 115.735C24.5526 118.054 26.2459 120.795 28.1508 121.849C30.0558 122.903 31.749 122.06 31.749 119.741C31.749 117.422 30.2674 114.681 28.1508 113.627ZM52.9151 127.752C51.0101 126.698 49.3169 127.541 49.3169 129.86C49.3169 132.179 51.0101 134.919 52.9151 135.973C54.82 137.027 56.5133 136.184 56.5133 133.865C56.5133 131.546 54.82 128.806 52.9151 127.752ZM3.59823 99.2922C1.69328 98.2381 0 99.0814 0 101.4C0 103.719 1.69328 106.46 3.59823 107.514C5.50317 108.568 7.19645 107.725 7.19645 105.406C7.19645 103.298 5.50317 100.557 3.59823 99.2922ZM77.4677 141.876C75.5627 140.822 73.8695 141.665 73.8695 143.984C73.8695 146.303 75.5627 149.044 77.4677 150.098C79.3726 151.152 81.0659 150.308 81.0659 147.99C81.0659 145.881 79.5843 143.141 77.4677 141.876ZM28.1508 128.384C26.2459 127.33 24.5526 128.173 24.5526 130.492C24.5526 132.811 26.2459 135.552 28.1508 136.606C30.0558 137.66 31.749 136.817 31.749 134.498C31.749 132.179 30.2674 129.438 28.1508 128.384ZM77.4677 156.633C75.5627 155.579 73.8695 156.422 73.8695 158.741C73.8695 161.06 75.5627 163.8 77.4677 164.854C79.3726 165.908 81.0659 165.065 81.0659 162.746C81.0659 160.638 79.5843 157.898 77.4677 156.633ZM65.1914 149.676C63.2864 148.622 61.5932 149.465 61.5932 151.784C61.5932 154.103 63.2864 156.844 65.1914 157.898C67.0963 158.952 68.7896 158.108 68.7896 155.79C68.7896 153.471 67.308 150.73 65.1914 149.676ZM52.9151 142.508C51.0101 141.454 49.3169 142.298 49.3169 144.617C49.3169 146.935 51.0101 149.676 52.9151 150.73C54.82 151.784 56.5133 150.941 56.5133 148.622C56.5133 146.514 54.82 143.562 52.9151 142.508ZM15.8745 121.217C13.9696 120.162 12.2763 121.006 12.2763 123.325C12.2763 125.644 13.9696 128.384 15.8745 129.438C17.7795 130.492 19.4727 129.649 19.4727 127.33C19.4727 125.222 17.9911 122.481 15.8745 121.217ZM40.6388 135.341C38.7338 134.287 37.0406 135.13 37.0406 137.449C37.0406 139.768 38.7338 142.508 40.6388 143.562C42.5437 144.617 44.237 143.773 44.237 141.454C44.237 139.346 42.5437 136.606 40.6388 135.341ZM3.59823 114.26C1.69328 112.995 0 113.838 0 116.157C0 118.476 1.69328 121.217 3.59823 122.271C5.50317 123.325 7.19645 122.481 7.19645 120.162C7.19645 117.844 5.50317 115.314 3.59823 114.26ZM15.8745 135.973C13.9696 134.919 12.2763 135.762 12.2763 138.081C12.2763 140.4 13.9696 143.141 15.8745 144.195C17.7795 145.249 19.4727 144.406 19.4727 142.087C19.4727 139.979 17.9911 137.238 15.8745 135.973ZM77.4677 171.39C75.5627 170.335 73.8695 171.179 73.8695 173.498C73.8695 175.817 75.5627 178.557 77.4677 179.611C79.3726 180.665 81.0659 179.822 81.0659 177.503C81.0659 175.184 79.5843 172.654 77.4677 171.39ZM28.1508 143.141C26.2459 142.087 24.5526 142.93 24.5526 145.249C24.5526 147.568 26.2459 150.308 28.1508 151.362C30.0558 152.417 31.749 151.573 31.749 149.254C31.749 146.935 30.2674 144.195 28.1508 143.141ZM52.9151 157.265C51.0101 156.211 49.3169 157.054 49.3169 159.373C49.3169 161.692 51.0101 164.433 52.9151 165.487C54.82 166.541 56.5133 165.698 56.5133 163.379C56.5133 161.271 54.82 158.53 52.9151 157.265ZM65.1914 164.433C63.2864 163.379 61.5932 164.222 61.5932 166.541C61.5932 168.86 63.2864 171.6 65.1914 172.654C67.0963 173.708 68.7896 172.865 68.7896 170.546C68.7896 168.227 67.308 165.487 65.1914 164.433ZM40.6388 150.098C38.7338 149.044 37.0406 149.887 37.0406 152.206C37.0406 154.525 38.7338 157.265 40.6388 158.319C42.5437 159.373 44.237 158.53 44.237 156.211C44.237 154.103 42.5437 151.362 40.6388 150.098ZM3.59823 129.017C1.69328 127.962 0 128.806 0 131.125C0 133.444 1.69328 136.184 3.59823 137.238C5.50317 138.292 7.19645 137.449 7.19645 135.13C7.19645 132.811 5.50317 130.071 3.59823 129.017ZM3.59823 143.773C1.69328 142.719 0 143.562 0 145.881C0 148.2 1.69328 150.941 3.59823 151.995C5.50317 153.049 7.19645 152.206 7.19645 149.887C7.19645 147.568 5.50317 144.827 3.59823 143.773ZM15.8745 150.73C13.9696 149.676 12.2763 150.519 12.2763 152.838C12.2763 155.157 13.9696 157.898 15.8745 158.952C17.7795 160.006 19.4727 159.162 19.4727 156.844C19.4727 154.735 17.9911 151.995 15.8745 150.73ZM52.9151 172.022C51.0101 170.968 49.3169 171.811 49.3169 174.13C49.3169 176.449 51.0101 179.19 52.9151 180.244C54.82 181.298 56.5133 180.454 56.5133 178.135C56.5133 176.027 54.82 173.287 52.9151 172.022ZM77.4677 186.146C75.5627 185.092 73.8695 185.935 73.8695 188.254C73.8695 190.573 75.5627 193.314 77.4677 194.368C79.3726 195.422 81.0659 194.579 81.0659 192.26C81.0659 190.152 79.5843 187.411 77.4677 186.146ZM65.1914 179.19C63.2864 178.135 61.5932 178.979 61.5932 181.298C61.5932 183.617 63.2864 186.357 65.1914 187.411C67.0963 188.465 68.7896 187.622 68.7896 185.303C68.7896 182.984 67.308 180.244 65.1914 179.19ZM40.6388 165.065C38.7338 164.011 37.0406 164.854 37.0406 167.173C37.0406 169.492 38.7338 172.233 40.6388 173.287C42.5437 174.341 44.237 173.498 44.237 171.179C44.237 168.86 42.5437 166.119 40.6388 165.065ZM28.1508 157.898C26.2459 156.844 24.5526 157.687 24.5526 160.006C24.5526 162.325 26.2459 165.065 28.1508 166.119C30.0558 167.173 31.749 166.33 31.749 164.011C31.749 161.903 30.2674 158.952 28.1508 157.898Z" fill="url(#paint0_linear)"/>
<path d="M89.5324 96.5515C87.6275 97.6055 85.9342 100.557 85.9342 102.665C85.9342 104.984 87.6275 105.827 89.5324 104.773C91.4374 103.719 93.1307 100.768 93.1307 98.6596C93.1307 96.1299 91.4374 95.2866 89.5324 96.5515ZM126.573 75.2596C124.668 76.3137 122.975 79.265 122.975 81.3731C122.975 83.692 124.668 84.5353 126.573 83.4812C128.478 82.4272 130.171 79.4758 130.171 77.3677C130.171 75.0488 128.478 73.9947 126.573 75.2596ZM138.849 68.092C136.944 69.1461 135.251 72.0974 135.251 74.2056C135.251 76.5245 136.944 77.3677 138.849 76.3137C140.754 75.2596 142.448 72.3083 142.448 70.2001C142.448 67.8812 140.754 67.038 138.849 68.092ZM151.126 60.9245C149.221 61.9785 147.527 64.9299 147.527 67.038C147.527 69.1461 149.221 70.2001 151.126 69.1461C153.031 68.092 154.724 65.1407 154.724 63.0326C154.724 60.7137 153.242 59.8704 151.126 60.9245ZM101.809 89.3839C99.9038 90.438 98.2105 93.3893 98.2105 95.4974C98.2105 97.8164 99.9038 98.6596 101.809 97.6055C103.714 96.5515 105.407 93.6001 105.407 91.492C105.407 89.1731 103.925 88.3299 101.809 89.3839ZM163.402 62.1893C165.307 61.1353 167 58.1839 167 56.0758C167 53.7569 165.307 52.9137 163.402 53.9677C161.497 55.0218 159.804 57.9731 159.804 60.0812C159.804 62.4001 161.497 63.2434 163.402 62.1893ZM114.085 82.2164C112.18 83.2704 110.487 86.2218 110.487 88.3299C110.487 90.6488 112.18 91.492 114.085 90.438C115.99 89.3839 117.683 86.4326 117.683 84.3245C117.683 82.0056 116.202 81.1623 114.085 82.2164ZM114.085 96.9731C112.18 98.0272 110.487 100.979 110.487 103.087C110.487 105.406 112.18 106.249 114.085 105.195C115.99 104.141 117.683 101.189 117.683 99.0812C117.683 96.7623 116.202 95.9191 114.085 96.9731ZM138.849 82.8488C136.944 83.9028 135.251 86.8542 135.251 88.9623C135.251 91.2812 136.944 92.1245 138.849 91.0704C140.754 90.0164 142.448 87.065 142.448 84.9569C142.448 82.638 140.754 81.7947 138.849 82.8488ZM126.573 90.0164C124.668 91.0704 122.975 94.0218 122.975 96.1299C122.975 98.4488 124.668 99.292 126.573 98.238C128.478 97.1839 130.171 94.2326 130.171 92.1245C130.171 89.8056 128.478 88.7515 126.573 90.0164ZM101.809 104.141C99.9038 105.195 98.2105 108.146 98.2105 110.254C98.2105 112.573 99.9038 113.416 101.809 112.362C103.714 111.308 105.407 108.357 105.407 106.249C105.407 103.93 103.925 103.087 101.809 104.141ZM151.126 75.892C149.221 76.9461 147.527 79.8974 147.527 82.0056C147.527 84.3245 149.221 85.1677 151.126 84.1137C153.031 83.0596 154.724 80.1083 154.724 78.0001C154.724 75.6812 153.242 74.6272 151.126 75.892ZM89.5324 111.308C87.6275 112.362 85.9342 115.314 85.9342 117.422C85.9342 119.741 87.6275 120.584 89.5324 119.53C91.4374 118.476 93.1307 115.524 93.1307 113.416C93.1307 111.097 91.4374 110.043 89.5324 111.308ZM163.402 68.7245C161.497 69.7785 159.804 72.7299 159.804 74.838C159.804 77.1569 161.497 78.0001 163.402 76.9461C165.307 75.892 167 72.9407 167 70.8326C167 68.5137 165.518 67.6704 163.402 68.7245ZM151.126 90.6488C149.221 91.7028 147.527 94.6542 147.527 96.7623C147.527 99.0812 149.221 99.9245 151.126 98.8704C153.031 97.8164 154.724 94.865 154.724 92.7569C154.724 90.438 153.242 89.3839 151.126 90.6488ZM126.573 104.773C124.668 105.827 122.975 108.779 122.975 110.887C122.975 113.206 124.668 114.049 126.573 112.995C128.478 111.941 130.171 108.989 130.171 106.881C130.171 104.562 128.478 103.719 126.573 104.773ZM101.809 118.897C99.9038 119.951 98.2105 122.903 98.2105 125.011C98.2105 127.33 99.9038 128.173 101.809 127.119C103.714 126.065 105.407 123.114 105.407 121.006C105.407 118.897 103.925 117.843 101.809 118.897ZM114.085 111.941C112.18 112.995 110.487 115.946 110.487 118.054C110.487 120.373 112.18 121.216 114.085 120.162C115.99 119.108 117.683 116.157 117.683 114.049C117.683 111.519 116.202 110.676 114.085 111.941ZM163.402 83.4812C161.497 84.5353 159.804 87.4866 159.804 89.5947C159.804 91.9137 161.497 92.7569 163.402 91.7028C165.307 90.6488 167 87.6974 167 85.5893C167 83.2704 165.518 82.4272 163.402 83.4812ZM138.849 97.6055C136.944 98.6596 135.251 101.611 135.251 103.719C135.251 106.038 136.944 106.881 138.849 105.827C140.754 104.773 142.448 101.822 142.448 99.7137C142.448 97.3947 140.754 96.5515 138.849 97.6055ZM89.5324 126.065C87.6275 127.119 85.9342 130.07 85.9342 132.179C85.9342 134.497 87.6275 135.341 89.5324 134.287C91.4374 133.233 93.1307 130.281 93.1307 128.173C93.1307 125.854 91.4374 124.8 89.5324 126.065ZM163.402 98.238C161.497 99.292 159.804 102.243 159.804 104.351C159.804 106.46 161.497 107.514 163.402 106.46C165.307 105.406 167 102.454 167 100.346C167 98.0272 165.518 97.1839 163.402 98.238ZM151.126 105.406C149.221 106.46 147.527 109.411 147.527 111.519C147.527 113.838 149.221 114.681 151.126 113.627C153.031 112.573 154.724 109.622 154.724 107.514C154.724 105.195 153.242 104.141 151.126 105.406ZM89.5324 140.822C87.6275 141.876 85.9342 144.827 85.9342 146.935C85.9342 149.254 87.6275 150.097 89.5324 149.043C91.4374 147.989 93.1307 145.038 93.1307 142.93C93.1307 140.611 91.4374 139.557 89.5324 140.822ZM101.809 133.654C99.9038 134.708 98.2105 137.66 98.2105 139.768C98.2105 142.087 99.9038 142.93 101.809 141.876C103.714 140.822 105.407 137.87 105.407 135.762C105.407 133.443 103.925 132.6 101.809 133.654ZM114.085 126.697C112.18 127.751 110.487 130.703 110.487 132.811C110.487 135.13 112.18 135.973 114.085 134.919C115.99 133.865 117.683 130.914 117.683 128.806C117.683 126.487 116.202 125.433 114.085 126.697ZM126.573 119.53C124.668 120.584 122.975 123.535 122.975 125.643C122.975 127.962 124.668 128.806 126.573 127.751C128.478 126.697 130.171 123.746 130.171 121.638C130.171 119.319 128.478 118.476 126.573 119.53ZM138.849 112.362C136.944 113.416 135.251 116.368 135.251 118.476C135.251 120.795 136.944 121.638 138.849 120.584C140.754 119.53 142.448 116.579 142.448 114.47C142.448 112.151 140.754 111.308 138.849 112.362ZM114.085 141.454C112.18 142.508 110.487 145.46 110.487 147.568C110.487 149.676 112.18 150.73 114.085 149.676C115.99 148.622 117.683 145.67 117.683 143.562C117.683 141.243 116.202 140.189 114.085 141.454ZM101.809 148.411C99.9038 149.465 98.2105 152.416 98.2105 154.524C98.2105 156.843 99.9038 157.687 101.809 156.633C103.714 155.579 105.407 152.627 105.407 150.519C105.407 148.2 103.925 147.357 101.809 148.411ZM89.5324 155.579C87.6275 156.633 85.9342 159.584 85.9342 161.692C85.9342 164.011 87.6275 164.854 89.5324 163.8C91.4374 162.746 93.1307 159.795 93.1307 157.687C93.1307 155.368 91.4374 154.524 89.5324 155.579ZM126.573 134.287C124.668 135.341 122.975 138.292 122.975 140.4C122.975 142.719 124.668 143.562 126.573 142.508C128.478 141.454 130.171 138.503 130.171 136.395C130.171 134.076 128.478 133.233 126.573 134.287ZM151.126 120.162C149.221 121.216 147.527 124.168 147.527 126.276C147.527 128.595 149.221 129.438 151.126 128.384C153.031 127.33 154.724 124.379 154.724 122.27C154.724 119.951 153.242 118.897 151.126 120.162ZM138.849 127.33C136.944 128.384 135.251 131.335 135.251 133.443C135.251 135.762 136.944 136.606 138.849 135.551C140.754 134.497 142.448 131.546 142.448 129.438C142.448 126.908 140.754 126.065 138.849 127.33ZM163.402 112.995C161.497 114.049 159.804 117 159.804 119.108C159.804 121.427 161.497 122.27 163.402 121.216C165.307 120.162 167 117.211 167 115.103C167 112.784 165.518 111.941 163.402 112.995ZM101.809 163.168C99.9038 164.222 98.2105 167.173 98.2105 169.281C98.2105 171.389 99.9038 172.443 101.809 171.389C103.714 170.335 105.407 167.384 105.407 165.276C105.407 162.957 103.925 162.114 101.809 163.168ZM163.402 127.751C161.497 128.806 159.804 131.757 159.804 133.865C159.804 136.184 161.497 137.027 163.402 135.973C165.307 134.919 167 131.968 167 129.86C167 127.541 165.518 126.697 163.402 127.751ZM151.126 134.919C149.221 135.973 147.527 138.924 147.527 141.033C147.527 143.352 149.221 144.195 151.126 143.141C153.031 142.087 154.724 139.135 154.724 137.027C154.724 134.708 153.242 133.865 151.126 134.919ZM89.5324 170.335C87.6275 171.389 85.9342 174.341 85.9342 176.449C85.9342 178.768 87.6275 179.611 89.5324 178.557C91.4374 177.503 93.1307 174.551 93.1307 172.443C93.1307 170.124 91.4374 169.281 89.5324 170.335ZM126.573 149.043C124.668 150.097 122.975 153.049 122.975 155.157C122.975 157.265 124.668 158.319 126.573 157.265C128.478 156.211 130.171 153.26 130.171 151.151C130.171 148.833 128.478 147.989 126.573 149.043ZM138.849 142.087C136.944 143.141 135.251 146.092 135.251 148.2C135.251 150.519 136.944 151.362 138.849 150.308C140.754 149.254 142.448 146.303 142.448 144.195C142.448 141.876 140.754 140.822 138.849 142.087ZM114.085 156.211C112.18 157.265 110.487 160.216 110.487 162.324C110.487 164.643 112.18 165.487 114.085 164.433C115.99 163.379 117.683 160.427 117.683 158.319C117.683 156 116.202 154.946 114.085 156.211ZM89.5324 185.092C87.6275 186.146 85.9342 189.097 85.9342 191.206C85.9342 193.524 87.6275 194.368 89.5324 193.314C91.4374 192.26 93.1307 189.308 93.1307 187.2C93.1307 185.092 91.4374 184.038 89.5324 185.092ZM101.809 178.135C99.9038 179.189 98.2105 182.141 98.2105 184.249C98.2105 186.568 99.9038 187.411 101.809 186.357C103.714 185.303 105.407 182.351 105.407 180.243C105.407 177.924 103.925 176.87 101.809 178.135ZM126.573 163.8C124.668 164.854 122.975 167.806 122.975 169.914C122.975 172.233 124.668 173.076 126.573 172.022C128.478 170.968 130.171 168.016 130.171 165.908C130.171 163.589 128.478 162.746 126.573 163.8ZM138.849 156.843C136.944 157.897 135.251 160.849 135.251 162.957C135.251 165.276 136.944 166.119 138.849 165.065C140.754 164.011 142.448 161.06 142.448 158.951C142.448 156.633 140.754 155.579 138.849 156.843ZM114.085 170.968C112.18 172.022 110.487 174.973 110.487 177.081C110.487 179.4 112.18 180.243 114.085 179.189C115.99 178.135 117.683 175.184 117.683 173.076C117.683 170.757 116.202 169.914 114.085 170.968ZM151.126 149.676C149.221 150.73 147.527 153.681 147.527 155.789C147.527 158.108 149.221 158.951 151.126 157.897C153.031 156.843 154.724 153.892 154.724 151.784C154.724 149.465 153.242 148.622 151.126 149.676ZM163.402 142.719C161.497 143.773 159.804 146.724 159.804 148.833C159.804 151.151 161.497 151.995 163.402 150.941C165.307 149.887 167 146.935 167 144.827C167 142.297 165.518 141.454 163.402 142.719Z" fill="url(#paint1_linear)"/>
<path d="M126.996 22.1352C125.091 21.0811 121.705 21.0811 119.8 22.1352C117.895 23.1892 117.895 25.0865 119.8 26.3514C121.705 27.4054 125.091 27.4054 126.996 26.3514C129.113 25.0865 129.113 23.1892 126.996 22.1352ZM82.9707 5.05949C84.8756 6.11355 88.2622 6.11355 90.1671 5.05949C92.0721 4.00544 92.0721 2.10814 90.1671 0.843275C88.2622 -0.210779 84.8756 -0.210779 82.9707 0.843275C80.8541 1.89733 80.8541 3.79463 82.9707 5.05949ZM102.443 8.01084C100.538 6.95679 97.1519 6.95679 95.247 8.01084C93.342 9.0649 93.342 10.9622 95.247 12.2271C97.1519 13.2811 100.538 13.2811 102.443 12.2271C104.348 10.9622 104.348 9.0649 102.443 8.01084ZM114.72 14.9676C112.815 13.9135 109.428 13.9135 107.523 14.9676C105.618 16.0217 105.618 17.919 107.523 19.1838C109.428 20.2379 112.815 20.2379 114.72 19.1838C116.625 18.1298 116.625 16.2325 114.72 14.9676ZM139.272 29.3027C137.367 28.2487 133.981 28.2487 132.076 29.3027C130.171 30.3568 130.171 32.2541 132.076 33.519C133.981 34.573 137.367 34.573 139.272 33.519C141.389 32.2541 141.389 30.3568 139.272 29.3027ZM164.037 43.4271C162.132 42.373 158.745 42.373 156.84 43.4271C154.935 44.4811 154.935 46.3784 156.84 47.6433C158.745 48.6973 162.132 48.6973 164.037 47.6433C165.942 46.3784 165.942 44.4811 164.037 43.4271ZM151.76 36.2595C149.855 35.2054 146.469 35.2054 144.564 36.2595C142.659 37.3136 142.659 39.2109 144.564 40.4757C146.469 41.5298 149.855 41.5298 151.76 40.4757C153.665 39.2109 153.665 37.5244 151.76 36.2595ZM70.0594 12.4379C71.9643 13.4919 75.3509 13.4919 77.2558 12.4379C79.1608 11.3838 79.1608 9.48652 77.2558 8.22165C75.3509 7.1676 71.9643 7.1676 70.0594 8.22165C68.1545 9.27571 68.1545 11.173 70.0594 12.4379ZM89.5321 15.3892C87.6272 14.3352 84.2406 14.3352 82.3357 15.3892C80.4308 16.4433 80.4308 18.3406 82.3357 19.6054C84.2406 20.6595 87.6272 20.6595 89.5321 19.6054C91.6488 18.3406 91.6488 16.4433 89.5321 15.3892ZM114.296 29.5136C112.391 28.4595 109.005 28.4595 107.1 29.5136C105.195 30.5676 105.195 32.4649 107.1 33.7298C109.005 34.7838 112.391 34.7838 114.296 33.7298C116.201 32.4649 116.201 30.5676 114.296 29.5136ZM138.849 43.6379C136.944 42.5838 133.557 42.5838 131.653 43.6379C129.748 44.6919 129.748 46.5892 131.653 47.8541C133.557 48.9082 136.944 48.9082 138.849 47.8541C140.754 46.5892 140.754 44.9027 138.849 43.6379ZM101.808 22.346C99.9035 21.2919 96.5169 21.2919 94.612 22.346C92.7071 23.4 92.7071 25.2973 94.612 26.5622C96.5169 27.6163 99.9035 27.6163 101.808 26.5622C103.925 25.5081 103.925 23.6108 101.808 22.346ZM126.573 36.6811C124.668 35.6271 121.281 35.6271 119.376 36.6811C117.471 37.7352 117.471 39.6325 119.376 40.8973C121.281 41.9514 124.668 41.9514 126.573 40.8973C128.478 39.6325 128.478 37.7352 126.573 36.6811ZM151.125 50.8055C149.22 49.7514 145.834 49.7514 143.929 50.8055C142.024 51.8595 142.024 53.7568 143.929 55.0217C145.834 56.0757 149.22 56.0757 151.125 55.0217C153.242 53.7568 153.242 51.8595 151.125 50.8055ZM76.6209 22.7676C74.7159 21.7136 71.3294 21.7136 69.4244 22.7676C67.5195 23.8217 67.5195 25.719 69.4244 26.9838C71.3294 28.0379 74.7159 28.0379 76.6209 26.9838C78.7375 25.719 78.7375 23.8217 76.6209 22.7676ZM101.385 36.8919C99.4802 35.8379 96.0936 35.8379 94.1887 36.8919C92.2837 37.946 92.2837 39.8433 94.1887 41.1082C96.0936 42.1622 99.4802 42.1622 101.385 41.1082C103.29 39.8433 103.29 37.946 101.385 36.8919ZM89.1088 29.7244C87.2039 28.6703 83.8173 28.6703 81.9124 29.7244C80.0074 30.7784 80.0074 32.6757 81.9124 33.9406C83.8173 34.9946 87.2039 34.9946 89.1088 33.9406C91.0138 32.8865 91.0138 30.9892 89.1088 29.7244ZM64.3446 15.6C62.4396 14.546 59.0531 14.546 57.1481 15.6C55.2432 16.6541 55.2432 18.5514 57.1481 19.8163C59.0531 20.8703 62.4396 20.8703 64.3446 19.8163C66.4612 18.5514 66.4612 16.8649 64.3446 15.6ZM113.661 44.0595C111.756 43.0054 108.37 43.0054 106.465 44.0595C104.56 45.1136 104.56 47.0109 106.465 48.2757C108.37 49.3298 111.756 49.3298 113.661 48.2757C115.778 47.0109 115.566 45.1136 113.661 44.0595ZM138.426 58.1838C136.521 57.1298 133.134 57.1298 131.229 58.1838C129.324 59.2379 129.324 61.1352 131.229 62.4C133.134 63.4541 136.521 63.4541 138.426 62.4C140.331 61.1352 140.331 59.2379 138.426 58.1838ZM125.938 51.0163C124.033 49.9622 120.646 49.9622 118.741 51.0163C116.836 52.0703 116.836 53.9676 118.741 55.2325C120.646 56.2865 124.033 56.2865 125.938 55.2325C128.054 53.9676 128.054 52.2811 125.938 51.0163ZM125.514 65.5622C123.609 64.5082 120.223 64.5082 118.318 65.5622C116.413 66.6163 116.413 68.5135 118.318 69.7784C120.223 70.8325 123.609 70.8325 125.514 69.7784C127.419 68.5135 127.419 66.6163 125.514 65.5622ZM76.1975 37.1027C74.2926 36.0487 70.906 36.0487 69.0011 37.1027C67.0962 38.1568 67.0962 40.0541 69.0011 41.319C70.906 42.373 74.2926 42.373 76.1975 41.319C78.1025 40.2649 78.1025 38.3676 76.1975 37.1027ZM100.75 51.4379C98.8452 50.3838 95.4586 50.3838 93.5537 51.4379C91.6488 52.4919 91.6488 54.3892 93.5537 55.6541C95.4586 56.7082 98.8452 56.7082 100.75 55.6541C102.867 54.3892 102.867 52.4919 100.75 51.4379ZM63.9213 30.146C62.0163 29.0919 58.6297 29.0919 56.7248 30.146C54.8199 31.2 54.8199 33.0973 56.7248 34.3622C58.6297 35.6271 62.0163 35.4163 63.9213 34.3622C65.8262 33.0973 65.8262 31.2 63.9213 30.146ZM51.4333 22.9784C49.5283 21.9244 46.1418 21.9244 44.2368 22.9784C42.3319 24.0325 42.3319 25.9298 44.2368 27.1946C46.1418 28.2487 49.5283 28.2487 51.4333 27.1946C53.5499 25.9298 53.5499 24.2433 51.4333 22.9784ZM113.238 58.3946C111.333 57.3406 107.947 57.3406 106.042 58.3946C104.137 59.4487 104.137 61.346 106.042 62.6109C107.947 63.6649 111.333 63.6649 113.238 62.6109C115.143 61.5568 115.143 59.6595 113.238 58.3946ZM88.4738 44.2703C86.5689 43.2163 83.1823 43.2163 81.2774 44.2703C79.3725 45.3244 79.3725 47.2217 81.2774 48.4865C83.1823 49.5406 86.5689 49.5406 88.4738 48.4865C90.5904 47.2217 90.5904 45.5352 88.4738 44.2703ZM51.01 37.5244C49.105 36.4703 45.7185 36.4703 43.8135 37.5244C41.9086 38.5784 41.9086 40.4757 43.8135 41.7406C45.7185 42.7946 49.105 42.7946 51.01 41.7406C52.9149 40.4757 52.9149 38.5784 51.01 37.5244ZM38.7337 30.3568C36.8287 29.3027 33.4422 29.3027 31.5372 30.3568C29.6323 31.4108 29.6323 33.3081 31.5372 34.573C33.4422 35.6271 36.8287 35.6271 38.7337 34.573C40.6386 33.3081 40.6386 31.6217 38.7337 30.3568ZM63.2863 44.6919C61.3813 43.6379 57.9948 43.6379 56.0898 44.6919C54.1849 45.746 54.1849 47.6433 56.0898 48.9082C57.9948 50.173 61.3813 49.9622 63.2863 48.9082C65.4029 47.6433 65.4029 45.746 63.2863 44.6919ZM88.0505 58.8163C86.1456 57.7622 82.759 57.7622 80.8541 58.8163C78.9491 59.8703 78.9491 61.7676 80.8541 63.0325C82.759 64.0865 86.1456 64.0865 88.0505 63.0325C89.9555 61.7676 89.9555 59.8703 88.0505 58.8163ZM112.603 72.9406C110.698 71.8865 107.312 71.8865 105.407 72.9406C103.502 73.9946 103.502 75.8919 105.407 77.1568C107.312 78.2109 110.698 78.2109 112.603 77.1568C114.72 75.8919 114.508 73.9946 112.603 72.9406ZM75.5626 51.6487C73.6576 50.5946 70.2711 50.5946 68.3661 51.6487C66.4612 52.7027 66.4612 54.6 68.3661 55.8649C70.2711 56.919 73.6576 56.919 75.5626 55.8649C77.6792 54.6 77.6792 52.9136 75.5626 51.6487ZM100.327 65.773C98.4219 64.719 95.0353 64.719 93.1304 65.773C91.2254 66.8271 91.2254 68.7244 93.1304 69.9892C95.0353 71.0433 98.4219 71.0433 100.327 69.9892C102.232 68.9352 102.232 67.0379 100.327 65.773ZM50.375 52.0703C48.47 51.0163 45.0835 51.0163 43.1785 52.0703C41.2736 53.1244 41.2736 55.0217 43.1785 56.2865C45.0835 57.3406 48.47 57.3406 50.375 56.2865C52.4916 55.0217 52.4916 53.1244 50.375 52.0703ZM38.0987 44.9027C36.1937 43.8487 32.8072 43.8487 30.9022 44.9027C28.9973 45.9568 28.9973 47.8541 30.9022 49.119C32.8072 50.3838 36.1937 50.173 38.0987 49.119C40.2153 47.8541 40.2153 45.9568 38.0987 44.9027ZM75.1392 66.1946C73.2343 65.1406 69.8477 65.1406 67.9428 66.1946C66.0378 67.2487 66.0378 69.146 67.9428 70.4109C69.8477 71.4649 73.2343 71.4649 75.1392 70.4109C77.0442 69.146 77.0442 67.2487 75.1392 66.1946ZM62.8629 59.0271C60.958 57.973 57.5714 57.973 55.6665 59.0271C53.7616 60.0811 53.7616 61.9784 55.6665 63.2433C57.5714 64.2973 60.958 64.2973 62.8629 63.2433C64.7679 61.9784 64.7679 60.2919 62.8629 59.0271ZM99.6918 80.319C97.7869 79.2649 94.4003 79.2649 92.4954 80.319C90.5905 81.373 90.5905 83.2703 92.4954 84.5352C94.4003 85.5892 97.7869 85.5892 99.6918 84.5352C101.808 83.2703 101.808 81.373 99.6918 80.319ZM25.8224 37.7352C23.9174 36.6811 20.5309 36.6811 18.6259 37.7352C16.721 38.7892 16.721 40.6865 18.6259 41.9514C20.5309 43.0054 23.9174 43.0054 25.8224 41.9514C27.7273 40.8973 27.7273 39 25.8224 37.7352ZM87.4155 73.1514C85.5106 72.0973 82.124 72.0973 80.2191 73.1514C78.3142 74.2055 78.3142 76.1027 80.2191 77.3676C82.124 78.4217 85.5106 78.4217 87.4155 77.3676C89.5321 76.3136 89.5321 74.4163 87.4155 73.1514ZM25.3991 52.2811C23.4941 51.2271 20.1076 51.2271 18.2026 52.2811C16.2977 53.3352 16.2977 55.2325 18.2026 56.4973C20.1076 57.5514 23.4941 57.5514 25.3991 56.4973C27.304 55.2325 27.304 53.3352 25.3991 52.2811ZM12.9111 45.1136C11.0062 44.0595 7.6196 44.0595 5.71466 45.1136C3.80971 46.1676 3.80971 48.0649 5.71466 49.3298C7.6196 50.3838 11.0062 50.3838 12.9111 49.3298C15.0277 48.2757 15.0277 46.3784 12.9111 45.1136ZM74.5043 80.5298C72.5993 79.4757 69.2128 79.4757 67.3078 80.5298C65.4029 81.5838 65.4029 83.4811 67.3078 84.746C69.2128 85.8 72.5993 85.8 74.5043 84.746C76.6209 83.6919 76.6209 81.7946 74.5043 80.5298ZM86.9922 87.6973C85.0873 86.6433 81.7007 86.6433 79.7958 87.6973C77.8908 88.7514 77.8908 90.6487 79.7958 91.9136C81.7007 92.9676 85.0873 92.9676 86.9922 91.9136C88.8972 90.6487 88.8972 88.9622 86.9922 87.6973ZM62.228 73.573C60.323 72.519 56.9365 72.519 55.0315 73.573C53.1266 74.6271 53.1266 76.5244 55.0315 77.7892C56.9365 78.8433 60.323 78.8433 62.228 77.7892C64.3446 76.5244 64.3446 74.6271 62.228 73.573ZM49.9517 66.4054C48.0467 65.3514 44.6602 65.3514 42.7552 66.4054C40.8503 67.4595 40.8503 69.3568 42.7552 70.6217C44.6602 71.6757 48.0467 71.6757 49.9517 70.6217C51.8566 69.3568 51.8566 67.6703 49.9517 66.4054ZM37.6754 59.4487C35.7704 58.3946 32.3839 58.3946 30.4789 59.4487C28.574 60.5028 28.574 62.4 30.4789 63.6649C32.3839 64.719 35.7704 64.719 37.6754 63.6649C39.5803 62.4 39.5803 60.5028 37.6754 59.4487Z" fill="url(#paint2_linear)"/>
</g>
<defs>
<linearGradient id="paint0_linear" x1="0" y1="124.758" x2="81.1421" y2="124.758" gradientUnits="userSpaceOnUse">
<stop stop-color="#5277F7"/>
<stop offset="0.1852" stop-color="#547EF8"/>
<stop offset="0.4455" stop-color="#5890F9"/>
<stop offset="0.7487" stop-color="#5FAEFC"/>
<stop offset="1" stop-color="#66CCFF"/>
</linearGradient>
<linearGradient id="paint1_linear" x1="85.9334" y1="123.653" x2="167.075" y2="123.653" gradientUnits="userSpaceOnUse">
<stop stop-color="#5277F7"/>
<stop offset="0.1852" stop-color="#547EF8"/>
<stop offset="0.4455" stop-color="#5890F9"/>
<stop offset="0.7487" stop-color="#5FAEFC"/>
<stop offset="1" stop-color="#66CCFF"/>
</linearGradient>
<linearGradient id="paint2_linear" x1="4.32405" y1="46.3474" x2="165.523" y2="46.3474" gradientUnits="userSpaceOnUse">
<stop stop-color="#5277F7"/>
<stop offset="0.1852" stop-color="#547EF8"/>
<stop offset="0.4455" stop-color="#5890F9"/>
<stop offset="0.7487" stop-color="#5FAEFC"/>
<stop offset="1" stop-color="#66CCFF"/>
</linearGradient>
<clipPath id="clip0">
<rect width="167" height="195" fill="white"/>
</clipPath>
</defs>
</svg>
