<svg width="1530" height="216" viewBox="0 0 1530 216" fill="none" xmlns="http://www.w3.org/2000/svg">
<rect x="0.611328" y="1.41895" width="1528.89" height="213.339" rx="9.5" stroke="#626A84"/>
<path d="M627.449 176.377C627.449 175.889 627.264 175.511 626.893 175.244C626.528 174.971 625.887 174.737 624.969 174.541C624.057 174.346 623.331 174.112 622.791 173.838C622.257 173.565 621.86 173.239 621.6 172.862C621.346 172.484 621.219 172.035 621.219 171.514C621.219 170.648 621.583 169.916 622.312 169.317C623.048 168.718 623.986 168.418 625.125 168.418C626.323 168.418 627.293 168.727 628.035 169.346C628.784 169.964 629.158 170.755 629.158 171.719H627.342C627.342 171.224 627.13 170.798 626.707 170.44C626.29 170.082 625.763 169.903 625.125 169.903C624.467 169.903 623.953 170.046 623.582 170.332C623.211 170.619 623.025 170.993 623.025 171.455C623.025 171.892 623.198 172.22 623.543 172.442C623.888 172.663 624.51 172.875 625.408 173.076C626.313 173.278 627.046 173.519 627.605 173.799C628.165 174.079 628.579 174.418 628.846 174.815C629.119 175.205 629.256 175.684 629.256 176.25C629.256 177.194 628.878 177.953 628.123 178.526C627.368 179.092 626.388 179.375 625.184 179.375C624.337 179.375 623.589 179.226 622.938 178.926C622.286 178.627 621.775 178.21 621.404 177.676C621.04 177.136 620.857 176.553 620.857 175.928H622.664C622.697 176.533 622.938 177.015 623.387 177.373C623.842 177.725 624.441 177.901 625.184 177.901C625.867 177.901 626.414 177.764 626.824 177.49C627.241 177.211 627.449 176.839 627.449 176.377ZM638.133 179.18C638.029 178.972 637.944 178.601 637.879 178.067C637.039 178.939 636.036 179.375 634.871 179.375C633.829 179.375 632.973 179.082 632.303 178.496C631.639 177.904 631.307 177.155 631.307 176.25C631.307 175.15 631.723 174.297 632.557 173.692C633.396 173.08 634.575 172.774 636.092 172.774H637.85V171.944C637.85 171.312 637.661 170.811 637.283 170.44C636.906 170.062 636.349 169.873 635.613 169.873C634.969 169.873 634.428 170.036 633.992 170.362C633.556 170.687 633.338 171.081 633.338 171.543H631.521C631.521 171.016 631.707 170.508 632.078 170.02C632.456 169.525 632.964 169.134 633.602 168.848C634.246 168.561 634.952 168.418 635.721 168.418C636.938 168.418 637.892 168.724 638.582 169.336C639.272 169.942 639.63 170.778 639.656 171.846V176.709C639.656 177.679 639.78 178.451 640.027 179.024V179.18H638.133ZM635.135 177.803C635.701 177.803 636.238 177.656 636.746 177.364C637.254 177.071 637.622 176.69 637.85 176.221V174.053H636.434C634.22 174.053 633.113 174.701 633.113 175.996C633.113 176.563 633.302 177.005 633.68 177.324C634.057 177.643 634.542 177.803 635.135 177.803ZM645.818 176.729L648.436 168.614H650.281L646.492 179.18H645.115L641.287 168.614H643.133L645.818 176.729ZM656.268 179.375C654.835 179.375 653.67 178.906 652.771 177.969C651.873 177.025 651.424 175.765 651.424 174.19V173.858C651.424 172.809 651.622 171.875 652.02 171.055C652.423 170.228 652.983 169.584 653.699 169.121C654.422 168.653 655.203 168.418 656.043 168.418C657.417 168.418 658.484 168.871 659.246 169.776C660.008 170.681 660.389 171.976 660.389 173.662V174.414H653.23C653.257 175.456 653.559 176.299 654.139 176.944C654.725 177.582 655.467 177.901 656.365 177.901C657.003 177.901 657.544 177.77 657.986 177.51C658.429 177.25 658.816 176.905 659.148 176.475L660.252 177.334C659.367 178.695 658.038 179.375 656.268 179.375ZM656.043 169.903C655.314 169.903 654.702 170.17 654.207 170.703C653.712 171.231 653.406 171.973 653.289 172.93H658.582V172.793C658.53 171.875 658.283 171.166 657.84 170.664C657.397 170.156 656.798 169.903 656.043 169.903ZM669.148 168.614L669.197 169.785C669.972 168.874 671.017 168.418 672.332 168.418C673.81 168.418 674.816 168.985 675.35 170.117C675.701 169.61 676.157 169.199 676.717 168.887C677.283 168.574 677.951 168.418 678.719 168.418C681.036 168.418 682.215 169.645 682.254 172.1V179.18H680.447V172.207C680.447 171.452 680.275 170.889 679.93 170.518C679.585 170.14 679.005 169.951 678.191 169.951C677.521 169.951 676.964 170.153 676.521 170.557C676.079 170.954 675.822 171.491 675.75 172.168V179.18H673.934V172.256C673.934 170.72 673.182 169.951 671.678 169.951C670.493 169.951 669.682 170.456 669.246 171.465V179.18H667.439V168.614H669.148ZM684.51 173.799C684.51 172.764 684.712 171.833 685.115 171.006C685.525 170.179 686.092 169.541 686.814 169.092C687.544 168.643 688.374 168.418 689.305 168.418C690.743 168.418 691.906 168.916 692.791 169.912C693.683 170.908 694.129 172.233 694.129 173.887V174.014C694.129 175.043 693.93 175.967 693.533 176.787C693.143 177.601 692.579 178.236 691.844 178.692C691.115 179.147 690.275 179.375 689.324 179.375C687.892 179.375 686.73 178.877 685.838 177.881C684.952 176.885 684.51 175.567 684.51 173.926V173.799ZM686.326 174.014C686.326 175.186 686.596 176.127 687.137 176.836C687.684 177.546 688.413 177.901 689.324 177.901C690.242 177.901 690.971 177.543 691.512 176.826C692.052 176.104 692.322 175.095 692.322 173.799C692.322 172.64 692.046 171.703 691.492 170.987C690.945 170.264 690.216 169.903 689.305 169.903C688.413 169.903 687.693 170.257 687.146 170.967C686.6 171.677 686.326 172.692 686.326 174.014ZM698.104 168.614L698.162 169.942C698.969 168.926 700.024 168.418 701.326 168.418C703.559 168.418 704.686 169.678 704.705 172.198V179.18H702.898V172.188C702.892 171.426 702.716 170.863 702.371 170.498C702.033 170.134 701.502 169.951 700.779 169.951C700.193 169.951 699.679 170.108 699.236 170.42C698.794 170.733 698.449 171.143 698.201 171.651V179.18H696.395V168.614H698.104ZM711.814 179.375C710.382 179.375 709.217 178.906 708.318 177.969C707.42 177.025 706.971 175.765 706.971 174.19V173.858C706.971 172.809 707.169 171.875 707.566 171.055C707.97 170.228 708.53 169.584 709.246 169.121C709.969 168.653 710.75 168.418 711.59 168.418C712.964 168.418 714.031 168.871 714.793 169.776C715.555 170.681 715.936 171.976 715.936 173.662V174.414H708.777C708.803 175.456 709.106 176.299 709.686 176.944C710.271 177.582 711.014 177.901 711.912 177.901C712.55 177.901 713.09 177.77 713.533 177.51C713.976 177.25 714.363 176.905 714.695 176.475L715.799 177.334C714.913 178.695 713.585 179.375 711.814 179.375ZM711.59 169.903C710.861 169.903 710.249 170.17 709.754 170.703C709.259 171.231 708.953 171.973 708.836 172.93H714.129V172.793C714.077 171.875 713.829 171.166 713.387 170.664C712.944 170.156 712.345 169.903 711.59 169.903ZM721.355 176.533L723.816 168.614H725.75L721.502 180.811C720.844 182.569 719.799 183.448 718.367 183.448L718.025 183.418L717.352 183.291V181.826L717.84 181.865C718.452 181.865 718.927 181.742 719.266 181.494C719.611 181.247 719.894 180.795 720.115 180.137L720.516 179.063L716.746 168.614H718.719L721.355 176.533ZM731.854 173.799C731.854 172.764 732.055 171.833 732.459 171.006C732.869 170.179 733.436 169.541 734.158 169.092C734.887 168.643 735.717 168.418 736.648 168.418C738.087 168.418 739.249 168.916 740.135 169.912C741.027 170.908 741.473 172.233 741.473 173.887V174.014C741.473 175.043 741.274 175.967 740.877 176.787C740.486 177.601 739.923 178.236 739.188 178.692C738.458 179.147 737.618 179.375 736.668 179.375C735.236 179.375 734.074 178.877 733.182 177.881C732.296 176.885 731.854 175.567 731.854 173.926V173.799ZM733.67 174.014C733.67 175.186 733.94 176.127 734.48 176.836C735.027 177.546 735.757 177.901 736.668 177.901C737.586 177.901 738.315 177.543 738.855 176.826C739.396 176.104 739.666 175.095 739.666 173.799C739.666 172.64 739.389 171.703 738.836 170.987C738.289 170.264 737.56 169.903 736.648 169.903C735.757 169.903 735.037 170.257 734.49 170.967C733.943 171.677 733.67 172.692 733.67 174.014ZM745.447 168.614L745.506 169.942C746.313 168.926 747.368 168.418 748.67 168.418C750.903 168.418 752.029 169.678 752.049 172.198V179.18H750.242V172.188C750.236 171.426 750.06 170.863 749.715 170.498C749.376 170.134 748.846 169.951 748.123 169.951C747.537 169.951 747.023 170.108 746.58 170.42C746.137 170.733 745.792 171.143 745.545 171.651V179.18H743.738V168.614H745.447ZM761.434 168.614L761.482 169.785C762.257 168.874 763.302 168.418 764.617 168.418C766.095 168.418 767.101 168.985 767.635 170.117C767.986 169.61 768.442 169.199 769.002 168.887C769.568 168.574 770.236 168.418 771.004 168.418C773.322 168.418 774.5 169.645 774.539 172.1V179.18H772.732V172.207C772.732 171.452 772.56 170.889 772.215 170.518C771.87 170.14 771.29 169.951 770.477 169.951C769.806 169.951 769.249 170.153 768.807 170.557C768.364 170.954 768.107 171.491 768.035 172.168V179.18H766.219V172.256C766.219 170.72 765.467 169.951 763.963 169.951C762.778 169.951 761.967 170.456 761.531 171.465V179.18H759.725V168.614H761.434ZM781.658 179.375C780.226 179.375 779.061 178.906 778.162 177.969C777.264 177.025 776.814 175.765 776.814 174.19V173.858C776.814 172.809 777.013 171.875 777.41 171.055C777.814 170.228 778.374 169.584 779.09 169.121C779.812 168.653 780.594 168.418 781.434 168.418C782.807 168.418 783.875 168.871 784.637 169.776C785.398 170.681 785.779 171.976 785.779 173.662V174.414H778.621C778.647 175.456 778.95 176.299 779.529 176.944C780.115 177.582 780.857 177.901 781.756 177.901C782.394 177.901 782.934 177.77 783.377 177.51C783.82 177.25 784.207 176.905 784.539 176.475L785.643 177.334C784.757 178.695 783.429 179.375 781.658 179.375ZM781.434 169.903C780.704 169.903 780.092 170.17 779.598 170.703C779.103 171.231 778.797 171.973 778.68 172.93H783.973V172.793C783.921 171.875 783.673 171.166 783.23 170.664C782.788 170.156 782.189 169.903 781.434 169.903ZM787.439 173.809C787.439 172.188 787.824 170.886 788.592 169.903C789.36 168.913 790.366 168.418 791.609 168.418C792.846 168.418 793.826 168.841 794.549 169.688V164.18H796.355V179.18H794.695L794.607 178.047C793.885 178.933 792.879 179.375 791.59 179.375C790.366 179.375 789.367 178.874 788.592 177.871C787.824 176.869 787.439 175.56 787.439 173.946V173.809ZM789.246 174.014C789.246 175.212 789.493 176.149 789.988 176.826C790.483 177.503 791.167 177.842 792.039 177.842C793.185 177.842 794.021 177.328 794.549 176.299V171.446C794.008 170.449 793.178 169.951 792.059 169.951C791.173 169.951 790.483 170.293 789.988 170.977C789.493 171.66 789.246 172.673 789.246 174.014ZM801.131 179.18H799.324V168.614H801.131V179.18ZM799.178 165.811C799.178 165.518 799.266 165.27 799.441 165.069C799.624 164.867 799.891 164.766 800.242 164.766C800.594 164.766 800.861 164.867 801.043 165.069C801.225 165.27 801.316 165.518 801.316 165.811C801.316 166.104 801.225 166.348 801.043 166.543C800.861 166.739 800.594 166.836 800.242 166.836C799.891 166.836 799.624 166.739 799.441 166.543C799.266 166.348 799.178 166.104 799.178 165.811ZM808.27 177.901C808.914 177.901 809.477 177.705 809.959 177.315C810.441 176.924 810.708 176.436 810.76 175.85H812.469C812.436 176.455 812.228 177.031 811.844 177.578C811.46 178.125 810.945 178.561 810.301 178.887C809.663 179.212 808.986 179.375 808.27 179.375C806.831 179.375 805.685 178.897 804.832 177.94C803.986 176.976 803.562 175.661 803.562 173.994V173.692C803.562 172.663 803.751 171.748 804.129 170.948C804.507 170.147 805.047 169.525 805.75 169.082C806.46 168.64 807.296 168.418 808.26 168.418C809.445 168.418 810.428 168.773 811.209 169.483C811.997 170.192 812.417 171.114 812.469 172.246H810.76C810.708 171.563 810.447 171.003 809.979 170.567C809.516 170.124 808.943 169.903 808.26 169.903C807.342 169.903 806.629 170.235 806.121 170.899C805.62 171.556 805.369 172.51 805.369 173.76V174.102C805.369 175.319 805.62 176.257 806.121 176.914C806.622 177.572 807.339 177.901 808.27 177.901ZM821.023 179.18C820.919 178.972 820.835 178.601 820.77 178.067C819.93 178.939 818.927 179.375 817.762 179.375C816.72 179.375 815.864 179.082 815.193 178.496C814.529 177.904 814.197 177.155 814.197 176.25C814.197 175.15 814.614 174.297 815.447 173.692C816.287 173.08 817.465 172.774 818.982 172.774H820.74V171.944C820.74 171.312 820.551 170.811 820.174 170.44C819.796 170.062 819.24 169.873 818.504 169.873C817.859 169.873 817.319 170.036 816.883 170.362C816.447 170.687 816.229 171.081 816.229 171.543H814.412C814.412 171.016 814.598 170.508 814.969 170.02C815.346 169.525 815.854 169.134 816.492 168.848C817.137 168.561 817.843 168.418 818.611 168.418C819.829 168.418 820.783 168.724 821.473 169.336C822.163 169.942 822.521 170.778 822.547 171.846V176.709C822.547 177.679 822.671 178.451 822.918 179.024V179.18H821.023ZM818.025 177.803C818.592 177.803 819.129 177.656 819.637 177.364C820.145 177.071 820.512 176.69 820.74 176.221V174.053H819.324C817.111 174.053 816.004 174.701 816.004 175.996C816.004 176.563 816.193 177.005 816.57 177.324C816.948 177.643 817.433 177.803 818.025 177.803ZM827.342 179.18H825.535V164.18H827.342V179.18ZM839.441 177.901C840.086 177.901 840.649 177.705 841.131 177.315C841.613 176.924 841.88 176.436 841.932 175.85H843.641C843.608 176.455 843.4 177.031 843.016 177.578C842.632 178.125 842.117 178.561 841.473 178.887C840.835 179.212 840.158 179.375 839.441 179.375C838.003 179.375 836.857 178.897 836.004 177.94C835.158 176.976 834.734 175.661 834.734 173.994V173.692C834.734 172.663 834.923 171.748 835.301 170.948C835.678 170.147 836.219 169.525 836.922 169.082C837.632 168.64 838.468 168.418 839.432 168.418C840.617 168.418 841.6 168.773 842.381 169.483C843.169 170.192 843.589 171.114 843.641 172.246H841.932C841.88 171.563 841.619 171.003 841.15 170.567C840.688 170.124 840.115 169.903 839.432 169.903C838.514 169.903 837.801 170.235 837.293 170.899C836.792 171.556 836.541 172.51 836.541 173.76V174.102C836.541 175.319 836.792 176.257 837.293 176.914C837.794 177.572 838.51 177.901 839.441 177.901ZM845.193 173.799C845.193 172.764 845.395 171.833 845.799 171.006C846.209 170.179 846.775 169.541 847.498 169.092C848.227 168.643 849.057 168.418 849.988 168.418C851.427 168.418 852.589 168.916 853.475 169.912C854.367 170.908 854.812 172.233 854.812 173.887V174.014C854.812 175.043 854.614 175.967 854.217 176.787C853.826 177.601 853.263 178.236 852.527 178.692C851.798 179.147 850.958 179.375 850.008 179.375C848.576 179.375 847.413 178.877 846.521 177.881C845.636 176.885 845.193 175.567 845.193 173.926V173.799ZM847.01 174.014C847.01 175.186 847.28 176.127 847.82 176.836C848.367 177.546 849.096 177.901 850.008 177.901C850.926 177.901 851.655 177.543 852.195 176.826C852.736 176.104 853.006 175.095 853.006 173.799C853.006 172.64 852.729 171.703 852.176 170.987C851.629 170.264 850.9 169.903 849.988 169.903C849.096 169.903 848.377 170.257 847.83 170.967C847.283 171.677 847.01 172.692 847.01 174.014ZM863.23 176.377C863.23 175.889 863.045 175.511 862.674 175.244C862.309 174.971 861.668 174.737 860.75 174.541C859.839 174.346 859.113 174.112 858.572 173.838C858.038 173.565 857.641 173.239 857.381 172.862C857.127 172.484 857 172.035 857 171.514C857 170.648 857.365 169.916 858.094 169.317C858.829 168.718 859.767 168.418 860.906 168.418C862.104 168.418 863.074 168.727 863.816 169.346C864.565 169.964 864.939 170.755 864.939 171.719H863.123C863.123 171.224 862.911 170.798 862.488 170.44C862.072 170.082 861.544 169.903 860.906 169.903C860.249 169.903 859.734 170.046 859.363 170.332C858.992 170.619 858.807 170.993 858.807 171.455C858.807 171.892 858.979 172.22 859.324 172.442C859.669 172.663 860.291 172.875 861.189 173.076C862.094 173.278 862.827 173.519 863.387 173.799C863.947 174.079 864.36 174.418 864.627 174.815C864.9 175.205 865.037 175.684 865.037 176.25C865.037 177.194 864.66 177.953 863.904 178.526C863.149 179.092 862.169 179.375 860.965 179.375C860.118 179.375 859.37 179.226 858.719 178.926C858.068 178.627 857.557 178.21 857.186 177.676C856.821 177.136 856.639 176.553 856.639 175.928H858.445C858.478 176.533 858.719 177.015 859.168 177.373C859.624 177.725 860.223 177.901 860.965 177.901C861.648 177.901 862.195 177.764 862.605 177.49C863.022 177.211 863.23 176.839 863.23 176.377ZM869.842 166.055V168.614H871.814V170.01H869.842V176.563C869.842 176.986 869.93 177.305 870.105 177.52C870.281 177.728 870.581 177.832 871.004 177.832C871.212 177.832 871.499 177.793 871.863 177.715V179.18C871.388 179.31 870.926 179.375 870.477 179.375C869.669 179.375 869.061 179.131 868.65 178.643C868.24 178.155 868.035 177.461 868.035 176.563V170.01H866.111V168.614H868.035V166.055H869.842Z" fill="#626A84"/>
<path d="M1474.27 78.0571L1474.27 154.453" stroke="#626A84" stroke-width="3"/>
<path d="M1098.1 78.523L1474.26 78.523" stroke="#626A84" stroke-width="3"/>
<line x1="106.584" y1="152.954" x2="1474.26" y2="152.953" stroke="#626A84" stroke-width="3"/>
<path d="M44.5051 86.1042V71.8855H49.1535C50.6965 71.8855 51.8554 72.2045 52.6301 72.8425C53.4114 73.4806 53.802 74.4246 53.802 75.6746C53.802 76.3386 53.6132 76.9278 53.2356 77.4421C52.858 77.95 52.3436 78.3438 51.6926 78.6238C52.4608 78.8386 53.0663 79.2488 53.509 79.8542C53.9582 80.4532 54.1828 81.1694 54.1828 82.0027C54.1828 83.2787 53.7694 84.2813 52.9426 85.0105C52.1158 85.7397 50.9472 86.1042 49.4367 86.1042H44.5051ZM46.3801 79.4539V84.571H49.4758C50.3482 84.571 51.0351 84.3464 51.5364 83.8972C52.0442 83.4415 52.2981 82.8165 52.2981 82.0222C52.2981 80.31 51.3671 79.4539 49.5051 79.4539H46.3801ZM46.3801 77.95H49.2121C50.0324 77.95 50.6867 77.7449 51.175 77.3347C51.6698 76.9246 51.9172 76.3679 51.9172 75.6648C51.9172 74.8835 51.6893 74.3171 51.2336 73.9656C50.7779 73.6075 50.0845 73.4285 49.1535 73.4285H46.3801V77.95ZM63.2063 85.0593C62.5032 85.8861 61.4712 86.2996 60.1106 86.2996C58.9843 86.2996 58.1249 85.974 57.5324 85.323C56.9465 84.6654 56.6503 83.6954 56.6438 82.4128V75.5378H58.4504V82.364C58.4504 83.9656 59.1015 84.7664 60.4035 84.7664C61.7837 84.7664 62.7017 84.252 63.1574 83.2234V75.5378H64.9641V86.1042H63.2453L63.2063 85.0593ZM73.8703 83.3015C73.8703 82.8132 73.6848 82.4356 73.3137 82.1687C72.9491 81.8953 72.3078 81.6609 71.3899 81.4656C70.4784 81.2703 69.7525 81.0359 69.2121 80.7625C68.6783 80.489 68.2811 80.1635 68.0207 79.7859C67.7668 79.4083 67.6399 78.9591 67.6399 78.4382C67.6399 77.5723 68.0045 76.8399 68.7336 76.241C69.4693 75.642 70.4068 75.3425 71.5461 75.3425C72.744 75.3425 73.7141 75.6518 74.4563 76.2703C75.205 76.8888 75.5793 77.6798 75.5793 78.6433H73.7629C73.7629 78.1485 73.5513 77.7221 73.1282 77.364C72.7115 77.0059 72.1841 76.8269 71.5461 76.8269C70.8886 76.8269 70.3742 76.9701 70.0032 77.2566C69.6321 77.5431 69.4465 77.9174 69.4465 78.3796C69.4465 78.8158 69.619 79.1446 69.9641 79.366C70.3091 79.5873 70.9309 79.7989 71.8293 80.0007C72.7343 80.2026 73.4667 80.4434 74.0266 80.7234C74.5865 81.0033 74.9999 81.3419 75.2668 81.739C75.5403 82.1296 75.677 82.6082 75.677 83.1746C75.677 84.1186 75.2994 84.877 74.5442 85.45C73.789 86.0164 72.8091 86.2996 71.6047 86.2996C70.7584 86.2996 70.0097 86.1498 69.3586 85.8503C68.7076 85.5509 68.1965 85.1342 67.8254 84.6003C67.4608 84.06 67.2785 83.4773 67.2785 82.8523H69.0852C69.1177 83.4578 69.3586 83.9395 69.8078 84.2976C70.2636 84.6492 70.8625 84.825 71.6047 84.825C72.2883 84.825 72.8352 84.6882 73.2453 84.4148C73.662 84.1348 73.8703 83.7638 73.8703 83.3015ZM79.9934 86.1042H78.1867V75.5378H79.9934V86.1042ZM78.0403 72.7351C78.0403 72.4421 78.1282 72.1947 78.3039 71.9929C78.4862 71.7911 78.7532 71.6902 79.1047 71.6902C79.4563 71.6902 79.7232 71.7911 79.9055 71.9929C80.0878 72.1947 80.1789 72.4421 80.1789 72.7351C80.1789 73.0281 80.0878 73.2722 79.9055 73.4675C79.7232 73.6628 79.4563 73.7605 79.1047 73.7605C78.7532 73.7605 78.4862 73.6628 78.3039 73.4675C78.1282 73.2722 78.0403 73.0281 78.0403 72.7351ZM84.6028 75.5378L84.6614 76.866C85.4686 75.8503 86.5233 75.3425 87.8254 75.3425C90.0585 75.3425 91.1848 76.6023 91.2043 79.1218V86.1042H89.3977V79.1121C89.3912 78.3503 89.2154 77.7872 88.8703 77.4226C88.5318 77.058 88.0012 76.8757 87.2785 76.8757C86.6926 76.8757 86.1783 77.032 85.7356 77.3445C85.2929 77.657 84.9478 78.0671 84.7004 78.575V86.1042H82.8938V75.5378H84.6028ZM98.3137 86.2996C96.8814 86.2996 95.716 85.8308 94.8176 84.8933C93.9192 83.9493 93.4699 82.6895 93.4699 81.114V80.782C93.4699 79.7338 93.6685 78.7996 94.0657 77.9792C94.4693 77.1524 95.0292 76.5079 95.7453 76.0457C96.468 75.5769 97.2492 75.3425 98.0891 75.3425C99.4628 75.3425 100.53 75.795 101.292 76.7C102.054 77.6049 102.435 78.9005 102.435 80.5867V81.3386H95.2766C95.3026 82.3803 95.6054 83.2234 96.1848 83.8679C96.7707 84.5059 97.5129 84.825 98.4114 84.825C99.0494 84.825 99.5897 84.6947 100.032 84.4343C100.475 84.1739 100.863 83.8289 101.195 83.3992L102.298 84.2585C101.413 85.6192 100.085 86.2996 98.3137 86.2996ZM98.0891 76.8269C97.3599 76.8269 96.7479 77.0938 96.2532 77.6277C95.7584 78.155 95.4524 78.8972 95.3352 79.8542H100.628V79.7175C100.576 78.7996 100.329 78.0899 99.886 77.5886C99.4433 77.0808 98.8443 76.8269 98.0891 76.8269ZM110.687 83.3015C110.687 82.8132 110.501 82.4356 110.13 82.1687C109.766 81.8953 109.124 81.6609 108.206 81.4656C107.295 81.2703 106.569 81.0359 106.029 80.7625C105.495 80.489 105.098 80.1635 104.837 79.7859C104.583 79.4083 104.456 78.9591 104.456 78.4382C104.456 77.5723 104.821 76.8399 105.55 76.241C106.286 75.642 107.223 75.3425 108.363 75.3425C109.56 75.3425 110.53 75.6518 111.273 76.2703C112.021 76.8888 112.396 77.6798 112.396 78.6433H110.579C110.579 78.1485 110.368 77.7221 109.945 77.364C109.528 77.0059 109.001 76.8269 108.363 76.8269C107.705 76.8269 107.191 76.9701 106.82 77.2566C106.448 77.5431 106.263 77.9174 106.263 78.3796C106.263 78.8158 106.435 79.1446 106.78 79.366C107.126 79.5873 107.747 79.7989 108.646 80.0007C109.551 80.2026 110.283 80.4434 110.843 80.7234C111.403 81.0033 111.816 81.3419 112.083 81.739C112.357 82.1296 112.493 82.6082 112.493 83.1746C112.493 84.1186 112.116 84.877 111.361 85.45C110.605 86.0164 109.626 86.2996 108.421 86.2996C107.575 86.2996 106.826 86.1498 106.175 85.8503C105.524 85.5509 105.013 85.1342 104.642 84.6003C104.277 84.06 104.095 83.4773 104.095 82.8523H105.902C105.934 83.4578 106.175 83.9395 106.624 84.2976C107.08 84.6492 107.679 84.825 108.421 84.825C109.105 84.825 109.652 84.6882 110.062 84.4148C110.478 84.1348 110.687 83.7638 110.687 83.3015ZM120.999 83.3015C120.999 82.8132 120.814 82.4356 120.443 82.1687C120.078 81.8953 119.437 81.6609 118.519 81.4656C117.607 81.2703 116.881 81.0359 116.341 80.7625C115.807 80.489 115.41 80.1635 115.15 79.7859C114.896 79.4083 114.769 78.9591 114.769 78.4382C114.769 77.5723 115.133 76.8399 115.863 76.241C116.598 75.642 117.536 75.3425 118.675 75.3425C119.873 75.3425 120.843 75.6518 121.585 76.2703C122.334 76.8888 122.708 77.6798 122.708 78.6433H120.892C120.892 78.1485 120.68 77.7221 120.257 77.364C119.84 77.0059 119.313 76.8269 118.675 76.8269C118.017 76.8269 117.503 76.9701 117.132 77.2566C116.761 77.5431 116.575 77.9174 116.575 78.3796C116.575 78.8158 116.748 79.1446 117.093 79.366C117.438 79.5873 118.06 79.7989 118.958 80.0007C119.863 80.2026 120.596 80.4434 121.155 80.7234C121.715 81.0033 122.129 81.3419 122.396 81.739C122.669 82.1296 122.806 82.6082 122.806 83.1746C122.806 84.1186 122.428 84.877 121.673 85.45C120.918 86.0164 119.938 86.2996 118.734 86.2996C117.887 86.2996 117.139 86.1498 116.488 85.8503C115.836 85.5509 115.325 85.1342 114.954 84.6003C114.59 84.06 114.407 83.4773 114.407 82.8523H116.214C116.247 83.4578 116.488 83.9395 116.937 84.2976C117.392 84.6492 117.991 84.825 118.734 84.825C119.417 84.825 119.964 84.6882 120.374 84.4148C120.791 84.1348 120.999 83.7638 120.999 83.3015ZM132.279 80.5378V86.1042H130.404V71.8855H135.648C137.204 71.8855 138.421 72.2826 139.3 73.0769C140.185 73.8712 140.628 74.9226 140.628 76.2312C140.628 77.6114 140.195 78.6759 139.329 79.4246C138.47 80.1667 137.236 80.5378 135.628 80.5378H132.279ZM132.279 79.0046H135.648C136.65 79.0046 137.419 78.7703 137.952 78.3015C138.486 77.8263 138.753 77.1427 138.753 76.2507C138.753 75.4044 138.486 74.7273 137.952 74.2195C137.419 73.7117 136.686 73.448 135.755 73.4285H132.279V79.0046ZM147.845 77.1589C147.572 77.1134 147.275 77.0906 146.956 77.0906C145.771 77.0906 144.967 77.5951 144.544 78.6042V86.1042H142.738V75.5378H144.495L144.525 76.7585C145.117 75.8145 145.957 75.3425 147.044 75.3425C147.396 75.3425 147.663 75.3881 147.845 75.4792V77.1589ZM148.841 80.7234C148.841 79.6882 149.043 78.7572 149.447 77.9304C149.857 77.1036 150.423 76.4656 151.146 76.0164C151.875 75.5671 152.705 75.3425 153.636 75.3425C155.075 75.3425 156.237 75.8406 157.122 76.8367C158.014 77.8328 158.46 79.1576 158.46 80.8113V80.9382C158.46 81.9669 158.262 82.8914 157.864 83.7117C157.474 84.5255 156.911 85.1602 156.175 85.616C155.446 86.0717 154.606 86.2996 153.655 86.2996C152.223 86.2996 151.061 85.8015 150.169 84.8054C149.284 83.8093 148.841 82.491 148.841 80.8503V80.7234ZM150.657 80.9382C150.657 82.1101 150.928 83.0509 151.468 83.7605C152.015 84.4701 152.744 84.825 153.655 84.825C154.573 84.825 155.303 84.4669 155.843 83.7507C156.383 83.0281 156.654 82.019 156.654 80.7234C156.654 79.5645 156.377 78.627 155.823 77.9109C155.277 77.1882 154.547 76.8269 153.636 76.8269C152.744 76.8269 152.025 77.1817 151.478 77.8914C150.931 78.601 150.657 79.6166 150.657 80.9382ZM164.964 84.825C165.609 84.825 166.172 84.6296 166.654 84.239C167.135 83.8484 167.402 83.3601 167.454 82.7742H169.163C169.131 83.3796 168.922 83.9558 168.538 84.5027C168.154 85.0496 167.64 85.4858 166.995 85.8113C166.357 86.1368 165.68 86.2996 164.964 86.2996C163.525 86.2996 162.379 85.821 161.527 84.864C160.68 83.9005 160.257 82.5854 160.257 80.9187V80.616C160.257 79.5873 160.446 78.6726 160.823 77.8718C161.201 77.071 161.741 76.4493 162.445 76.0066C163.154 75.5639 163.991 75.3425 164.954 75.3425C166.139 75.3425 167.122 75.6973 167.904 76.407C168.691 77.1166 169.111 78.0378 169.163 79.1707H167.454C167.402 78.4871 167.142 77.9272 166.673 77.491C166.211 77.0483 165.638 76.8269 164.954 76.8269C164.036 76.8269 163.323 77.1589 162.816 77.823C162.314 78.4806 162.064 79.4343 162.064 80.6843V81.0261C162.064 82.2436 162.314 83.1811 162.816 83.8386C163.317 84.4962 164.033 84.825 164.964 84.825ZM175.579 86.2996C174.147 86.2996 172.982 85.8308 172.083 84.8933C171.185 83.9493 170.736 82.6895 170.736 81.114V80.782C170.736 79.7338 170.934 78.7996 171.331 77.9792C171.735 77.1524 172.295 76.5079 173.011 76.0457C173.734 75.5769 174.515 75.3425 175.355 75.3425C176.728 75.3425 177.796 75.795 178.558 76.7C179.32 77.6049 179.7 78.9005 179.7 80.5867V81.3386H172.542C172.568 82.3803 172.871 83.2234 173.45 83.8679C174.036 84.5059 174.779 84.825 175.677 84.825C176.315 84.825 176.855 84.6947 177.298 84.4343C177.741 84.1739 178.128 83.8289 178.46 83.3992L179.564 84.2585C178.678 85.6192 177.35 86.2996 175.579 86.2996ZM175.355 76.8269C174.626 76.8269 174.014 77.0938 173.519 77.6277C173.024 78.155 172.718 78.8972 172.601 79.8542H177.894V79.7175C177.842 78.7996 177.594 78.0899 177.152 77.5886C176.709 77.0808 176.11 76.8269 175.355 76.8269ZM187.952 83.3015C187.952 82.8132 187.767 82.4356 187.396 82.1687C187.031 81.8953 186.39 81.6609 185.472 81.4656C184.56 81.2703 183.835 81.0359 183.294 80.7625C182.76 80.489 182.363 80.1635 182.103 79.7859C181.849 79.4083 181.722 78.9591 181.722 78.4382C181.722 77.5723 182.086 76.8399 182.816 76.241C183.551 75.642 184.489 75.3425 185.628 75.3425C186.826 75.3425 187.796 75.6518 188.538 76.2703C189.287 76.8888 189.661 77.6798 189.661 78.6433H187.845C187.845 78.1485 187.633 77.7221 187.21 77.364C186.794 77.0059 186.266 76.8269 185.628 76.8269C184.971 76.8269 184.456 76.9701 184.085 77.2566C183.714 77.5431 183.529 77.9174 183.529 78.3796C183.529 78.8158 183.701 79.1446 184.046 79.366C184.391 79.5873 185.013 79.7989 185.911 80.0007C186.816 80.2026 187.549 80.4434 188.109 80.7234C188.669 81.0033 189.082 81.3419 189.349 81.739C189.622 82.1296 189.759 82.6082 189.759 83.1746C189.759 84.1186 189.381 84.877 188.626 85.45C187.871 86.0164 186.891 86.2996 185.687 86.2996C184.84 86.2996 184.092 86.1498 183.441 85.8503C182.79 85.5509 182.279 85.1342 181.907 84.6003C181.543 84.06 181.361 83.4773 181.361 82.8523H183.167C183.2 83.4578 183.441 83.9395 183.89 84.2976C184.346 84.6492 184.945 84.825 185.687 84.825C186.37 84.825 186.917 84.6882 187.327 84.4148C187.744 84.1348 187.952 83.7638 187.952 83.3015ZM198.265 83.3015C198.265 82.8132 198.079 82.4356 197.708 82.1687C197.344 81.8953 196.702 81.6609 195.784 81.4656C194.873 81.2703 194.147 81.0359 193.607 80.7625C193.073 80.489 192.676 80.1635 192.415 79.7859C192.161 79.4083 192.034 78.9591 192.034 78.4382C192.034 77.5723 192.399 76.8399 193.128 76.241C193.864 75.642 194.801 75.3425 195.941 75.3425C197.139 75.3425 198.109 75.6518 198.851 76.2703C199.599 76.8888 199.974 77.6798 199.974 78.6433H198.157C198.157 78.1485 197.946 77.7221 197.523 77.364C197.106 77.0059 196.579 76.8269 195.941 76.8269C195.283 76.8269 194.769 76.9701 194.398 77.2566C194.027 77.5431 193.841 77.9174 193.841 78.3796C193.841 78.8158 194.014 79.1446 194.359 79.366C194.704 79.5873 195.325 79.7989 196.224 80.0007C197.129 80.2026 197.861 80.4434 198.421 80.7234C198.981 81.0033 199.394 81.3419 199.661 81.739C199.935 82.1296 200.072 82.6082 200.072 83.1746C200.072 84.1186 199.694 84.877 198.939 85.45C198.183 86.0164 197.204 86.2996 195.999 86.2996C195.153 86.2996 194.404 86.1498 193.753 85.8503C193.102 85.5509 192.591 85.1342 192.22 84.6003C191.855 84.06 191.673 83.4773 191.673 82.8523H193.48C193.512 83.4578 193.753 83.9395 194.202 84.2976C194.658 84.6492 195.257 84.825 195.999 84.825C196.683 84.825 197.23 84.6882 197.64 84.4148C198.057 84.1348 198.265 83.7638 198.265 83.3015Z" fill="white"/>
<rect x="367.957" y="38.9272" width="701.555" height="78.5799" rx="5" fill="#2A365C"/>
<path d="M450.718 71.4893L455.367 83.0908L460.015 71.4893H462.447V85.708H460.572V80.1709L460.748 74.1943L456.08 85.708H454.644L449.986 74.2236L450.172 80.1709V85.708H448.297V71.4893H450.718ZM464.996 80.3271C464.996 79.292 465.198 78.361 465.601 77.5342C466.011 76.7074 466.578 76.0693 467.3 75.6201C468.03 75.1709 468.86 74.9463 469.791 74.9463C471.229 74.9463 472.392 75.4443 473.277 76.4404C474.169 77.4365 474.615 78.7614 474.615 80.415V80.542C474.615 81.5706 474.416 82.4951 474.019 83.3154C473.629 84.1292 473.065 84.764 472.33 85.2197C471.601 85.6755 470.761 85.9033 469.81 85.9033C468.378 85.9033 467.216 85.4053 466.324 84.4092C465.438 83.4131 464.996 82.0947 464.996 80.4541V80.3271ZM466.812 80.542C466.812 81.7139 467.082 82.6546 467.623 83.3643C468.17 84.0739 468.899 84.4287 469.81 84.4287C470.728 84.4287 471.457 84.0706 471.998 83.3545C472.538 82.6318 472.808 81.6227 472.808 80.3271C472.808 79.1683 472.532 78.2308 471.978 77.5146C471.431 76.792 470.702 76.4307 469.791 76.4307C468.899 76.4307 468.179 76.7855 467.632 77.4951C467.086 78.2048 466.812 79.2204 466.812 80.542ZM480.211 83.2568L482.828 75.1416H484.673L480.884 85.708H479.507L475.679 75.1416H477.525L480.211 83.2568ZM490.66 85.9033C489.227 85.9033 488.062 85.4346 487.164 84.4971C486.265 83.5531 485.816 82.2933 485.816 80.7178V80.3857C485.816 79.3376 486.015 78.4033 486.412 77.583C486.815 76.7562 487.375 76.1117 488.091 75.6494C488.814 75.1807 489.595 74.9463 490.435 74.9463C491.809 74.9463 492.877 75.3988 493.638 76.3037C494.4 77.2087 494.781 78.5042 494.781 80.1904V80.9424H487.623C487.649 81.984 487.951 82.8271 488.531 83.4717C489.117 84.1097 489.859 84.4287 490.757 84.4287C491.395 84.4287 491.936 84.2985 492.379 84.0381C492.821 83.7777 493.209 83.4326 493.541 83.0029L494.644 83.8623C493.759 85.223 492.431 85.9033 490.66 85.9033ZM490.435 76.4307C489.706 76.4307 489.094 76.6976 488.599 77.2314C488.104 77.7588 487.798 78.501 487.681 79.458H492.974V79.3213C492.922 78.4033 492.675 77.6937 492.232 77.1924C491.789 76.6846 491.19 76.4307 490.435 76.4307ZM496.441 80.3369C496.441 78.7158 496.825 77.4137 497.593 76.4307C498.362 75.4411 499.367 74.9463 500.611 74.9463C501.848 74.9463 502.828 75.3695 503.55 76.2158V70.708H505.357V85.708H503.697L503.609 84.5752C502.886 85.4606 501.88 85.9033 500.591 85.9033C499.367 85.9033 498.368 85.402 497.593 84.3994C496.825 83.3968 496.441 82.0882 496.441 80.4736V80.3369ZM498.248 80.542C498.248 81.7399 498.495 82.6774 498.99 83.3545C499.485 84.0316 500.168 84.3701 501.041 84.3701C502.186 84.3701 503.023 83.8558 503.55 82.8271V77.9736C503.01 76.9775 502.18 76.4795 501.06 76.4795C500.175 76.4795 499.485 76.8213 498.99 77.5049C498.495 78.1885 498.248 79.2008 498.248 80.542ZM512.652 80.3271C512.652 79.292 512.854 78.361 513.257 77.5342C513.668 76.7074 514.234 76.0693 514.957 75.6201C515.686 75.1709 516.516 74.9463 517.447 74.9463C518.886 74.9463 520.048 75.4443 520.933 76.4404C521.825 77.4365 522.271 78.7614 522.271 80.415V80.542C522.271 81.5706 522.073 82.4951 521.675 83.3154C521.285 84.1292 520.722 84.764 519.986 85.2197C519.257 85.6755 518.417 85.9033 517.466 85.9033C516.034 85.9033 514.872 85.4053 513.98 84.4092C513.095 83.4131 512.652 82.0947 512.652 80.4541V80.3271ZM514.468 80.542C514.468 81.7139 514.739 82.6546 515.279 83.3643C515.826 84.0739 516.555 84.4287 517.466 84.4287C518.384 84.4287 519.114 84.0706 519.654 83.3545C520.194 82.6318 520.464 81.6227 520.464 80.3271C520.464 79.1683 520.188 78.2308 519.634 77.5146C519.088 76.792 518.358 76.4307 517.447 76.4307C516.555 76.4307 515.836 76.7855 515.289 77.4951C514.742 78.2048 514.468 79.2204 514.468 80.542ZM531.06 84.6631C530.357 85.4899 529.325 85.9033 527.964 85.9033C526.838 85.9033 525.979 85.5778 525.386 84.9268C524.8 84.2692 524.504 83.2992 524.498 82.0166V75.1416H526.304V81.9678C526.304 83.5693 526.955 84.3701 528.257 84.3701C529.638 84.3701 530.556 83.8558 531.011 82.8271V75.1416H532.818V85.708H531.099L531.06 84.6631ZM538.023 72.583V75.1416H539.996V76.5381H538.023V83.0908C538.023 83.514 538.111 83.833 538.287 84.0479C538.463 84.2562 538.762 84.3604 539.185 84.3604C539.394 84.3604 539.68 84.3213 540.045 84.2432V85.708C539.569 85.8382 539.107 85.9033 538.658 85.9033C537.851 85.9033 537.242 85.6592 536.832 85.1709C536.422 84.6826 536.216 83.9893 536.216 83.0908V76.5381H534.293V75.1416H536.216V72.583H538.023ZM548.775 75.1416L548.824 76.3135C549.599 75.402 550.644 74.9463 551.959 74.9463C553.436 74.9463 554.442 75.5127 554.976 76.6455C555.328 76.1377 555.783 75.7275 556.343 75.415C556.91 75.1025 557.577 74.9463 558.345 74.9463C560.663 74.9463 561.841 76.1735 561.88 78.6279V85.708H560.074V78.7354C560.074 77.9801 559.901 77.417 559.556 77.0459C559.211 76.6683 558.632 76.4795 557.818 76.4795C557.147 76.4795 556.591 76.6813 556.148 77.085C555.705 77.4821 555.448 78.0192 555.377 78.6963V85.708H553.56V78.7842C553.56 77.2477 552.808 76.4795 551.304 76.4795C550.119 76.4795 549.309 76.984 548.873 77.9932V85.708H547.066V75.1416H548.775ZM569 85.9033C567.567 85.9033 566.402 85.4346 565.504 84.4971C564.605 83.5531 564.156 82.2933 564.156 80.7178V80.3857C564.156 79.3376 564.354 78.4033 564.752 77.583C565.155 76.7562 565.715 76.1117 566.431 75.6494C567.154 75.1807 567.935 74.9463 568.775 74.9463C570.149 74.9463 571.216 75.3988 571.978 76.3037C572.74 77.2087 573.121 78.5042 573.121 80.1904V80.9424H565.963C565.989 81.984 566.291 82.8271 566.871 83.4717C567.457 84.1097 568.199 84.4287 569.097 84.4287C569.735 84.4287 570.276 84.2985 570.718 84.0381C571.161 83.7777 571.548 83.4326 571.88 83.0029L572.984 83.8623C572.099 85.223 570.77 85.9033 569 85.9033ZM568.775 76.4307C568.046 76.4307 567.434 76.6976 566.939 77.2314C566.444 77.7588 566.138 78.501 566.021 79.458H571.314V79.3213C571.262 78.4033 571.015 77.6937 570.572 77.1924C570.129 76.6846 569.53 76.4307 568.775 76.4307ZM576.92 75.1416L576.968 76.3135C577.743 75.402 578.788 74.9463 580.103 74.9463C581.581 74.9463 582.587 75.5127 583.121 76.6455C583.472 76.1377 583.928 75.7275 584.488 75.415C585.054 75.1025 585.722 74.9463 586.49 74.9463C588.808 74.9463 589.986 76.1735 590.025 78.6279V85.708H588.218V78.7354C588.218 77.9801 588.046 77.417 587.701 77.0459C587.356 76.6683 586.776 76.4795 585.963 76.4795C585.292 76.4795 584.735 76.6813 584.293 77.085C583.85 77.4821 583.593 78.0192 583.521 78.6963V85.708H581.705V78.7842C581.705 77.2477 580.953 76.4795 579.449 76.4795C578.264 76.4795 577.453 76.984 577.017 77.9932V85.708H575.211V75.1416H576.92ZM601.705 80.542C601.705 82.1566 601.334 83.4554 600.591 84.4385C599.849 85.415 598.853 85.9033 597.603 85.9033C596.269 85.9033 595.237 85.4313 594.507 84.4873L594.42 85.708H592.759V70.708H594.566V76.3037C595.295 75.3988 596.301 74.9463 597.584 74.9463C598.866 74.9463 599.872 75.4313 600.601 76.4014C601.337 77.3714 601.705 78.6995 601.705 80.3857V80.542ZM599.898 80.3369C599.898 79.1064 599.66 78.1559 599.185 77.4854C598.71 76.8148 598.026 76.4795 597.134 76.4795C595.943 76.4795 595.087 77.0329 594.566 78.1396V82.71C595.119 83.8167 595.982 84.3701 597.154 84.3701C598.02 84.3701 598.694 84.0348 599.175 83.3643C599.657 82.6937 599.898 81.6846 599.898 80.3369ZM608.375 85.9033C606.942 85.9033 605.777 85.4346 604.879 84.4971C603.98 83.5531 603.531 82.2933 603.531 80.7178V80.3857C603.531 79.3376 603.729 78.4033 604.127 77.583C604.53 76.7562 605.09 76.1117 605.806 75.6494C606.529 75.1807 607.31 74.9463 608.15 74.9463C609.524 74.9463 610.591 75.3988 611.353 76.3037C612.115 77.2087 612.496 78.5042 612.496 80.1904V80.9424H605.338C605.364 81.984 605.666 82.8271 606.246 83.4717C606.832 84.1097 607.574 84.4287 608.472 84.4287C609.11 84.4287 609.651 84.2985 610.093 84.0381C610.536 83.7777 610.923 83.4326 611.255 83.0029L612.359 83.8623C611.474 85.223 610.145 85.9033 608.375 85.9033ZM608.15 76.4307C607.421 76.4307 606.809 76.6976 606.314 77.2314C605.819 77.7588 605.513 78.501 605.396 79.458H610.689V79.3213C610.637 78.4033 610.39 77.6937 609.947 77.1924C609.504 76.6846 608.905 76.4307 608.15 76.4307ZM619.703 76.7627C619.429 76.7171 619.133 76.6943 618.814 76.6943C617.629 76.6943 616.825 77.1989 616.402 78.208V85.708H614.595V75.1416H616.353L616.382 76.3623C616.975 75.4183 617.815 74.9463 618.902 74.9463C619.254 74.9463 619.52 74.9919 619.703 75.083V76.7627ZM627.525 82.9053C627.525 82.417 627.339 82.0394 626.968 81.7725C626.604 81.499 625.963 81.2646 625.045 81.0693C624.133 80.874 623.407 80.6396 622.867 80.3662C622.333 80.0928 621.936 79.7673 621.675 79.3896C621.422 79.012 621.295 78.5628 621.295 78.042C621.295 77.1761 621.659 76.4437 622.388 75.8447C623.124 75.2458 624.061 74.9463 625.201 74.9463C626.399 74.9463 627.369 75.2555 628.111 75.874C628.86 76.4925 629.234 77.2835 629.234 78.2471H627.418C627.418 77.7523 627.206 77.3258 626.783 76.9678C626.366 76.6097 625.839 76.4307 625.201 76.4307C624.543 76.4307 624.029 76.5739 623.658 76.8604C623.287 77.1468 623.101 77.5212 623.101 77.9834C623.101 78.4196 623.274 78.7484 623.619 78.9697C623.964 79.1911 624.586 79.4027 625.484 79.6045C626.389 79.8063 627.121 80.0472 627.681 80.3271C628.241 80.6071 628.655 80.9456 628.922 81.3428C629.195 81.7334 629.332 82.2119 629.332 82.7783C629.332 83.7223 628.954 84.4808 628.199 85.0537C627.444 85.6201 626.464 85.9033 625.259 85.9033C624.413 85.9033 623.664 85.7536 623.013 85.4541C622.362 85.1546 621.851 84.738 621.48 84.2041C621.116 83.6637 620.933 83.0811 620.933 82.4561H622.74C622.772 83.0615 623.013 83.5433 623.463 83.9014C623.918 84.2529 624.517 84.4287 625.259 84.4287C625.943 84.4287 626.49 84.292 626.9 84.0186C627.317 83.7386 627.525 83.3675 627.525 82.9053ZM636.265 81.8896C636.265 81.2061 636.454 80.5778 636.832 80.0049C637.216 79.432 637.945 78.7646 639.019 78.0029C638.388 77.2347 637.964 76.6162 637.75 76.1475C637.535 75.6787 637.427 75.2132 637.427 74.751C637.427 73.6702 637.746 72.8239 638.384 72.2119C639.022 71.5999 639.888 71.2939 640.982 71.2939C641.959 71.2939 642.766 71.5804 643.404 72.1533C644.042 72.7197 644.361 73.4359 644.361 74.3018C644.361 74.8747 644.214 75.4053 643.922 75.8936C643.635 76.3753 643.13 76.8831 642.408 77.417L641.363 78.1885L644.527 81.9678C644.97 81.1214 645.191 80.1807 645.191 79.1455H646.822C646.822 80.8057 646.422 82.1826 645.621 83.2764L647.652 85.708H645.484L644.537 84.585C644.055 85.0146 643.489 85.3434 642.838 85.5713C642.193 85.7926 641.535 85.9033 640.865 85.9033C639.478 85.9033 638.365 85.5355 637.525 84.7998C636.685 84.0641 636.265 83.0941 636.265 81.8896ZM640.865 84.4287C641.822 84.4287 642.698 84.0641 643.492 83.335L640.025 79.1846L639.703 79.4189C638.616 80.2197 638.072 81.0433 638.072 81.8896C638.072 82.6579 638.319 83.2731 638.814 83.7354C639.315 84.1976 639.999 84.4287 640.865 84.4287ZM639.234 74.6924C639.234 75.3174 639.618 76.0986 640.386 77.0361L641.539 76.2256C641.981 75.9131 642.284 75.6169 642.447 75.3369C642.61 75.0505 642.691 74.7054 642.691 74.3018C642.691 73.8656 642.528 73.5042 642.203 73.2178C641.877 72.9248 641.467 72.7783 640.972 72.7783C640.438 72.7783 640.015 72.9606 639.703 73.3252C639.39 73.6833 639.234 74.139 639.234 74.6924ZM658.287 84.4287C658.931 84.4287 659.494 84.2334 659.976 83.8428C660.458 83.4521 660.725 82.9639 660.777 82.3779H662.486C662.453 82.9834 662.245 83.5596 661.861 84.1064C661.477 84.6533 660.963 85.0895 660.318 85.415C659.68 85.7406 659.003 85.9033 658.287 85.9033C656.848 85.9033 655.702 85.4248 654.849 84.4678C654.003 83.5042 653.58 82.1891 653.58 80.5225V80.2197C653.58 79.1911 653.769 78.2764 654.146 77.4756C654.524 76.6748 655.064 76.0531 655.767 75.6104C656.477 75.1676 657.313 74.9463 658.277 74.9463C659.462 74.9463 660.445 75.3011 661.226 76.0107C662.014 76.7204 662.434 77.6416 662.486 78.7744H660.777C660.725 78.0908 660.464 77.5309 659.996 77.0947C659.533 76.652 658.961 76.4307 658.277 76.4307C657.359 76.4307 656.646 76.7627 656.138 77.4268C655.637 78.0843 655.386 79.0381 655.386 80.2881V80.6299C655.386 81.8473 655.637 82.7848 656.138 83.4424C656.64 84.0999 657.356 84.4287 658.287 84.4287ZM666.324 76.4209C667.125 75.4378 668.166 74.9463 669.449 74.9463C671.682 74.9463 672.808 76.2061 672.828 78.7256V85.708H671.021V78.7158C671.015 77.9541 670.839 77.391 670.494 77.0264C670.155 76.6618 669.625 76.4795 668.902 76.4795C668.316 76.4795 667.802 76.6357 667.359 76.9482C666.916 77.2607 666.571 77.6709 666.324 78.1787V85.708H664.517V70.708H666.324V76.4209ZM682.056 85.708C681.952 85.4997 681.867 85.1286 681.802 84.5947C680.963 85.4671 679.96 85.9033 678.795 85.9033C677.753 85.9033 676.897 85.6104 676.226 85.0244C675.562 84.432 675.23 83.6833 675.23 82.7783C675.23 81.6781 675.647 80.8252 676.48 80.2197C677.32 79.6077 678.498 79.3018 680.015 79.3018H681.773V78.4717C681.773 77.8402 681.584 77.3389 681.207 76.9678C680.829 76.5902 680.272 76.4014 679.537 76.4014C678.892 76.4014 678.352 76.5641 677.916 76.8896C677.479 77.2152 677.261 77.609 677.261 78.0713H675.445C675.445 77.5439 675.63 77.0361 676.002 76.5479C676.379 76.0531 676.887 75.6624 677.525 75.376C678.17 75.0895 678.876 74.9463 679.644 74.9463C680.862 74.9463 681.815 75.2523 682.505 75.8643C683.196 76.4697 683.554 77.3063 683.58 78.374V83.2373C683.58 84.2074 683.703 84.9788 683.951 85.5518V85.708H682.056ZM679.058 84.3311C679.625 84.3311 680.162 84.1846 680.67 83.8916C681.177 83.5986 681.545 83.2178 681.773 82.749V80.5811H680.357C678.144 80.5811 677.037 81.2288 677.037 82.5244C677.037 83.0908 677.226 83.5335 677.603 83.8525C677.981 84.1715 678.466 84.3311 679.058 84.3311ZM688.121 75.1416L688.179 76.4697C688.987 75.4541 690.041 74.9463 691.343 74.9463C693.576 74.9463 694.703 76.2061 694.722 78.7256V85.708H692.916V78.7158C692.909 77.9541 692.733 77.391 692.388 77.0264C692.05 76.6618 691.519 76.4795 690.797 76.4795C690.211 76.4795 689.696 76.6357 689.254 76.9482C688.811 77.2607 688.466 77.6709 688.218 78.1787V85.708H686.412V75.1416H688.121ZM697.017 80.3369C697.017 78.6898 697.398 77.3812 698.16 76.4111C698.922 75.4346 699.931 74.9463 701.187 74.9463C702.476 74.9463 703.482 75.402 704.205 76.3135L704.293 75.1416H705.943V85.4541C705.943 86.8213 705.536 87.8988 704.722 88.6865C703.915 89.4743 702.828 89.8682 701.461 89.8682C700.699 89.8682 699.953 89.7054 699.224 89.3799C698.495 89.0544 697.938 88.6084 697.554 88.042L698.492 86.958C699.267 87.915 700.214 88.3936 701.334 88.3936C702.213 88.3936 702.896 88.1462 703.384 87.6514C703.879 87.1566 704.127 86.46 704.127 85.5615V84.6533C703.404 85.4867 702.418 85.9033 701.168 85.9033C699.931 85.9033 698.928 85.4053 698.16 84.4092C697.398 83.4131 697.017 82.0557 697.017 80.3369ZM698.834 80.542C698.834 81.7334 699.078 82.6709 699.566 83.3545C700.054 84.0316 700.738 84.3701 701.617 84.3701C702.756 84.3701 703.593 83.8525 704.127 82.8174V77.9932C703.573 76.984 702.743 76.4795 701.636 76.4795C700.757 76.4795 700.071 76.8213 699.576 77.5049C699.081 78.1885 698.834 79.2008 698.834 80.542ZM713.062 85.9033C711.63 85.9033 710.464 85.4346 709.566 84.4971C708.668 83.5531 708.218 82.2933 708.218 80.7178V80.3857C708.218 79.3376 708.417 78.4033 708.814 77.583C709.218 76.7562 709.778 76.1117 710.494 75.6494C711.216 75.1807 711.998 74.9463 712.838 74.9463C714.211 74.9463 715.279 75.3988 716.041 76.3037C716.802 77.2087 717.183 78.5042 717.183 80.1904V80.9424H710.025C710.051 81.984 710.354 82.8271 710.933 83.4717C711.519 84.1097 712.261 84.4287 713.16 84.4287C713.798 84.4287 714.338 84.2985 714.781 84.0381C715.224 83.7777 715.611 83.4326 715.943 83.0029L717.047 83.8623C716.161 85.223 714.833 85.9033 713.062 85.9033ZM712.838 76.4307C712.108 76.4307 711.496 76.6976 711.002 77.2314C710.507 77.7588 710.201 78.501 710.084 79.458H715.377V79.3213C715.325 78.4033 715.077 77.6937 714.634 77.1924C714.192 76.6846 713.593 76.4307 712.838 76.4307ZM725.435 82.9053C725.435 82.417 725.25 82.0394 724.879 81.7725C724.514 81.499 723.873 81.2646 722.955 81.0693C722.043 80.874 721.317 80.6396 720.777 80.3662C720.243 80.0928 719.846 79.7673 719.586 79.3896C719.332 79.012 719.205 78.5628 719.205 78.042C719.205 77.1761 719.569 76.4437 720.298 75.8447C721.034 75.2458 721.972 74.9463 723.111 74.9463C724.309 74.9463 725.279 75.2555 726.021 75.874C726.77 76.4925 727.144 77.2835 727.144 78.2471H725.328C725.328 77.7523 725.116 77.3258 724.693 76.9678C724.276 76.6097 723.749 76.4307 723.111 76.4307C722.453 76.4307 721.939 76.5739 721.568 76.8604C721.197 77.1468 721.011 77.5212 721.011 77.9834C721.011 78.4196 721.184 78.7484 721.529 78.9697C721.874 79.1911 722.496 79.4027 723.394 79.6045C724.299 79.8063 725.032 80.0472 725.591 80.3271C726.151 80.6071 726.565 80.9456 726.832 81.3428C727.105 81.7334 727.242 82.2119 727.242 82.7783C727.242 83.7223 726.864 84.4808 726.109 85.0537C725.354 85.6201 724.374 85.9033 723.17 85.9033C722.323 85.9033 721.575 85.7536 720.923 85.4541C720.272 85.1546 719.761 84.738 719.39 84.2041C719.026 83.6637 718.843 83.0811 718.843 82.4561H720.65C720.683 83.0615 720.923 83.5433 721.373 83.9014C721.828 84.2529 722.427 84.4287 723.17 84.4287C723.853 84.4287 724.4 84.292 724.81 84.0186C725.227 83.7386 725.435 83.3675 725.435 82.9053ZM741.08 85.708C740.976 85.4997 740.891 85.1286 740.826 84.5947C739.986 85.4671 738.983 85.9033 737.818 85.9033C736.776 85.9033 735.92 85.6104 735.25 85.0244C734.586 84.432 734.254 83.6833 734.254 82.7783C734.254 81.6781 734.67 80.8252 735.504 80.2197C736.343 79.6077 737.522 79.3018 739.039 79.3018H740.797V78.4717C740.797 77.8402 740.608 77.3389 740.23 76.9678C739.852 76.5902 739.296 76.4014 738.56 76.4014C737.916 76.4014 737.375 76.5641 736.939 76.8896C736.503 77.2152 736.285 77.609 736.285 78.0713H734.468C734.468 77.5439 734.654 77.0361 735.025 76.5479C735.403 76.0531 735.91 75.6624 736.548 75.376C737.193 75.0895 737.899 74.9463 738.668 74.9463C739.885 74.9463 740.839 75.2523 741.529 75.8643C742.219 76.4697 742.577 77.3063 742.603 78.374V83.2373C742.603 84.2074 742.727 84.9788 742.974 85.5518V85.708H741.08ZM738.082 84.3311C738.648 84.3311 739.185 84.1846 739.693 83.8916C740.201 83.5986 740.569 83.2178 740.797 82.749V80.5811H739.38C737.167 80.5811 736.06 81.2288 736.06 82.5244C736.06 83.0908 736.249 83.5335 736.627 83.8525C737.004 84.1715 737.489 84.3311 738.082 84.3311ZM751.959 84.6631C751.255 85.4899 750.224 85.9033 748.863 85.9033C747.737 85.9033 746.877 85.5778 746.285 84.9268C745.699 84.2692 745.403 83.2992 745.396 82.0166V75.1416H747.203V81.9678C747.203 83.5693 747.854 84.3701 749.156 84.3701C750.536 84.3701 751.454 83.8558 751.91 82.8271V75.1416H753.716V85.708H751.998L751.959 84.6631ZM758.922 72.583V75.1416H760.894V76.5381H758.922V83.0908C758.922 83.514 759.009 83.833 759.185 84.0479C759.361 84.2562 759.66 84.3604 760.084 84.3604C760.292 84.3604 760.578 84.3213 760.943 84.2432V85.708C760.468 85.8382 760.005 85.9033 759.556 85.9033C758.749 85.9033 758.14 85.6592 757.73 85.1709C757.32 84.6826 757.115 83.9893 757.115 83.0908V76.5381H755.191V75.1416H757.115V72.583H758.922ZM762.339 80.3271C762.339 79.292 762.541 78.361 762.945 77.5342C763.355 76.7074 763.922 76.0693 764.644 75.6201C765.373 75.1709 766.203 74.9463 767.134 74.9463C768.573 74.9463 769.735 75.4443 770.621 76.4404C771.513 77.4365 771.959 78.7614 771.959 80.415V80.542C771.959 81.5706 771.76 82.4951 771.363 83.3154C770.972 84.1292 770.409 84.764 769.673 85.2197C768.944 85.6755 768.104 85.9033 767.154 85.9033C765.722 85.9033 764.56 85.4053 763.668 84.4092C762.782 83.4131 762.339 82.0947 762.339 80.4541V80.3271ZM764.156 80.542C764.156 81.7139 764.426 82.6546 764.966 83.3643C765.513 84.0739 766.242 84.4287 767.154 84.4287C768.072 84.4287 768.801 84.0706 769.341 83.3545C769.882 82.6318 770.152 81.6227 770.152 80.3271C770.152 79.1683 769.875 78.2308 769.322 77.5146C768.775 76.792 768.046 76.4307 767.134 76.4307C766.242 76.4307 765.523 76.7855 764.976 77.4951C764.429 78.2048 764.156 79.2204 764.156 80.542ZM775.923 75.1416L775.972 76.3135C776.747 75.402 777.792 74.9463 779.107 74.9463C780.585 74.9463 781.591 75.5127 782.125 76.6455C782.476 76.1377 782.932 75.7275 783.492 75.415C784.058 75.1025 784.726 74.9463 785.494 74.9463C787.811 74.9463 788.99 76.1735 789.029 78.6279V85.708H787.222V78.7354C787.222 77.9801 787.05 77.417 786.705 77.0459C786.36 76.6683 785.78 76.4795 784.966 76.4795C784.296 76.4795 783.739 76.6813 783.297 77.085C782.854 77.4821 782.597 78.0192 782.525 78.6963V85.708H780.709V78.7842C780.709 77.2477 779.957 76.4795 778.453 76.4795C777.268 76.4795 776.457 76.984 776.021 77.9932V85.708H774.214V75.1416H775.923ZM798.287 85.708C798.183 85.4997 798.098 85.1286 798.033 84.5947C797.193 85.4671 796.19 85.9033 795.025 85.9033C793.983 85.9033 793.127 85.6104 792.457 85.0244C791.793 84.432 791.461 83.6833 791.461 82.7783C791.461 81.6781 791.877 80.8252 792.711 80.2197C793.55 79.6077 794.729 79.3018 796.246 79.3018H798.004V78.4717C798.004 77.8402 797.815 77.3389 797.437 76.9678C797.06 76.5902 796.503 76.4014 795.767 76.4014C795.123 76.4014 794.582 76.5641 794.146 76.8896C793.71 77.2152 793.492 77.609 793.492 78.0713H791.675C791.675 77.5439 791.861 77.0361 792.232 76.5479C792.61 76.0531 793.117 75.6624 793.755 75.376C794.4 75.0895 795.106 74.9463 795.875 74.9463C797.092 74.9463 798.046 75.2523 798.736 75.8643C799.426 76.4697 799.784 77.3063 799.81 78.374V83.2373C799.81 84.2074 799.934 84.9788 800.181 85.5518V85.708H798.287ZM795.289 84.3311C795.855 84.3311 796.392 84.1846 796.9 83.8916C797.408 83.5986 797.776 83.2178 798.004 82.749V80.5811H796.588C794.374 80.5811 793.267 81.2288 793.267 82.5244C793.267 83.0908 793.456 83.5335 793.834 83.8525C794.211 84.1715 794.696 84.3311 795.289 84.3311ZM805.093 72.583V75.1416H807.066V76.5381H805.093V83.0908C805.093 83.514 805.181 83.833 805.357 84.0479C805.533 84.2562 805.832 84.3604 806.255 84.3604C806.464 84.3604 806.75 84.3213 807.115 84.2432V85.708C806.64 85.8382 806.177 85.9033 805.728 85.9033C804.921 85.9033 804.312 85.6592 803.902 85.1709C803.492 84.6826 803.287 83.9893 803.287 83.0908V76.5381H801.363V75.1416H803.287V72.583H805.093ZM811.148 85.708H809.341V75.1416H811.148V85.708ZM809.195 72.3389C809.195 72.0459 809.283 71.7985 809.459 71.5967C809.641 71.3949 809.908 71.2939 810.259 71.2939C810.611 71.2939 810.878 71.3949 811.06 71.5967C811.242 71.7985 811.334 72.0459 811.334 72.3389C811.334 72.6318 811.242 72.876 811.06 73.0713C810.878 73.2666 810.611 73.3643 810.259 73.3643C809.908 73.3643 809.641 73.2666 809.459 73.0713C809.283 72.876 809.195 72.6318 809.195 72.3389ZM818.287 84.4287C818.931 84.4287 819.494 84.2334 819.976 83.8428C820.458 83.4521 820.725 82.9639 820.777 82.3779H822.486C822.453 82.9834 822.245 83.5596 821.861 84.1064C821.477 84.6533 820.963 85.0895 820.318 85.415C819.68 85.7406 819.003 85.9033 818.287 85.9033C816.848 85.9033 815.702 85.4248 814.849 84.4678C814.003 83.5042 813.58 82.1891 813.58 80.5225V80.2197C813.58 79.1911 813.769 78.2764 814.146 77.4756C814.524 76.6748 815.064 76.0531 815.767 75.6104C816.477 75.1676 817.313 74.9463 818.277 74.9463C819.462 74.9463 820.445 75.3011 821.226 76.0107C822.014 76.7204 822.434 77.6416 822.486 78.7744H820.777C820.725 78.0908 820.464 77.5309 819.996 77.0947C819.533 76.652 818.961 76.4307 818.277 76.4307C817.359 76.4307 816.646 76.7627 816.138 77.4268C815.637 78.0843 815.386 79.0381 815.386 80.2881V80.6299C815.386 81.8473 815.637 82.7848 816.138 83.4424C816.64 84.0999 817.356 84.4287 818.287 84.4287ZM831.929 72.583V75.1416H833.902V76.5381H831.929V83.0908C831.929 83.514 832.017 83.833 832.193 84.0479C832.369 84.2562 832.668 84.3604 833.091 84.3604C833.3 84.3604 833.586 84.3213 833.951 84.2432V85.708C833.476 85.8382 833.013 85.9033 832.564 85.9033C831.757 85.9033 831.148 85.6592 830.738 85.1709C830.328 84.6826 830.123 83.9893 830.123 83.0908V76.5381H828.199V75.1416H830.123V72.583H831.929ZM837.828 76.4209C838.629 75.4378 839.67 74.9463 840.953 74.9463C843.186 74.9463 844.312 76.2061 844.332 78.7256V85.708H842.525V78.7158C842.519 77.9541 842.343 77.391 841.998 77.0264C841.659 76.6618 841.129 76.4795 840.406 76.4795C839.82 76.4795 839.306 76.6357 838.863 76.9482C838.42 77.2607 838.075 77.6709 837.828 78.1787V85.708H836.021V70.708H837.828V76.4209ZM851.422 85.9033C849.989 85.9033 848.824 85.4346 847.925 84.4971C847.027 83.5531 846.578 82.2933 846.578 80.7178V80.3857C846.578 79.3376 846.776 78.4033 847.173 77.583C847.577 76.7562 848.137 76.1117 848.853 75.6494C849.576 75.1807 850.357 74.9463 851.197 74.9463C852.571 74.9463 853.638 75.3988 854.4 76.3037C855.162 77.2087 855.543 78.5042 855.543 80.1904V80.9424H848.384C848.41 81.984 848.713 82.8271 849.293 83.4717C849.879 84.1097 850.621 84.4287 851.519 84.4287C852.157 84.4287 852.698 84.2985 853.14 84.0381C853.583 83.7777 853.97 83.4326 854.302 83.0029L855.406 83.8623C854.52 85.223 853.192 85.9033 851.422 85.9033ZM851.197 76.4307C850.468 76.4307 849.856 76.6976 849.361 77.2314C848.866 77.7588 848.56 78.501 848.443 79.458H853.736V79.3213C853.684 78.4033 853.436 77.6937 852.994 77.1924C852.551 76.6846 851.952 76.4307 851.197 76.4307ZM864.566 85.708H862.759V75.1416H864.566V85.708ZM862.613 72.3389C862.613 72.0459 862.701 71.7985 862.877 71.5967C863.059 71.3949 863.326 71.2939 863.677 71.2939C864.029 71.2939 864.296 71.3949 864.478 71.5967C864.66 71.7985 864.752 72.0459 864.752 72.3389C864.752 72.6318 864.66 72.876 864.478 73.0713C864.296 73.2666 864.029 73.3643 863.677 73.3643C863.326 73.3643 863.059 73.2666 862.877 73.0713C862.701 72.876 862.613 72.6318 862.613 72.3389ZM869.175 75.1416L869.234 76.4697C870.041 75.4541 871.096 74.9463 872.398 74.9463C874.631 74.9463 875.757 76.2061 875.777 78.7256V85.708H873.97V78.7158C873.964 77.9541 873.788 77.391 873.443 77.0264C873.104 76.6618 872.574 76.4795 871.851 76.4795C871.265 76.4795 870.751 76.6357 870.308 76.9482C869.866 77.2607 869.52 77.6709 869.273 78.1787V85.708H867.466V75.1416H869.175ZM884.654 82.9053C884.654 82.417 884.468 82.0394 884.097 81.7725C883.733 81.499 883.091 81.2646 882.173 81.0693C881.262 80.874 880.536 80.6396 879.996 80.3662C879.462 80.0928 879.065 79.7673 878.804 79.3896C878.55 79.012 878.423 78.5628 878.423 78.042C878.423 77.1761 878.788 76.4437 879.517 75.8447C880.253 75.2458 881.19 74.9463 882.33 74.9463C883.528 74.9463 884.498 75.2555 885.24 75.874C885.989 76.4925 886.363 77.2835 886.363 78.2471H884.547C884.547 77.7523 884.335 77.3258 883.912 76.9678C883.495 76.6097 882.968 76.4307 882.33 76.4307C881.672 76.4307 881.158 76.5739 880.787 76.8604C880.416 77.1468 880.23 77.5212 880.23 77.9834C880.23 78.4196 880.403 78.7484 880.748 78.9697C881.093 79.1911 881.714 79.4027 882.613 79.6045C883.518 79.8063 884.25 80.0472 884.81 80.3271C885.37 80.6071 885.783 80.9456 886.05 81.3428C886.324 81.7334 886.461 82.2119 886.461 82.7783C886.461 83.7223 886.083 84.4808 885.328 85.0537C884.573 85.6201 883.593 85.9033 882.388 85.9033C881.542 85.9033 880.793 85.7536 880.142 85.4541C879.491 85.1546 878.98 84.738 878.609 84.2041C878.244 83.6637 878.062 83.0811 878.062 82.4561H879.869C879.901 83.0615 880.142 83.5433 880.591 83.9014C881.047 84.2529 881.646 84.4287 882.388 84.4287C883.072 84.4287 883.619 84.292 884.029 84.0186C884.446 83.7386 884.654 83.3675 884.654 82.9053ZM895.338 84.6631C894.634 85.4899 893.602 85.9033 892.242 85.9033C891.116 85.9033 890.256 85.5778 889.664 84.9268C889.078 84.2692 888.782 83.2992 888.775 82.0166V75.1416H890.582V81.9678C890.582 83.5693 891.233 84.3701 892.535 84.3701C893.915 84.3701 894.833 83.8558 895.289 82.8271V75.1416H897.095V85.708H895.377L895.338 84.6631ZM904.957 76.7627C904.683 76.7171 904.387 76.6943 904.068 76.6943C902.883 76.6943 902.079 77.1989 901.656 78.208V85.708H899.849V75.1416H901.607L901.636 76.3623C902.229 75.4183 903.069 74.9463 904.156 74.9463C904.507 74.9463 904.774 74.9919 904.957 75.083V76.7627ZM912.759 85.708C912.655 85.4997 912.571 85.1286 912.505 84.5947C911.666 85.4671 910.663 85.9033 909.498 85.9033C908.456 85.9033 907.6 85.6104 906.929 85.0244C906.265 84.432 905.933 83.6833 905.933 82.7783C905.933 81.6781 906.35 80.8252 907.183 80.2197C908.023 79.6077 909.201 79.3018 910.718 79.3018H912.476V78.4717C912.476 77.8402 912.287 77.3389 911.91 76.9678C911.532 76.5902 910.976 76.4014 910.24 76.4014C909.595 76.4014 909.055 76.5641 908.619 76.8896C908.183 77.2152 907.964 77.609 907.964 78.0713H906.148C906.148 77.5439 906.334 77.0361 906.705 76.5479C907.082 76.0531 907.59 75.6624 908.228 75.376C908.873 75.0895 909.579 74.9463 910.347 74.9463C911.565 74.9463 912.519 75.2523 913.209 75.8643C913.899 76.4697 914.257 77.3063 914.283 78.374V83.2373C914.283 84.2074 914.407 84.9788 914.654 85.5518V85.708H912.759ZM909.761 84.3311C910.328 84.3311 910.865 84.1846 911.373 83.8916C911.88 83.5986 912.248 83.2178 912.476 82.749V80.5811H911.06C908.847 80.5811 907.74 81.2288 907.74 82.5244C907.74 83.0908 907.929 83.5335 908.306 83.8525C908.684 84.1715 909.169 84.3311 909.761 84.3311ZM918.824 75.1416L918.882 76.4697C919.69 75.4541 920.744 74.9463 922.047 74.9463C924.28 74.9463 925.406 76.2061 925.425 78.7256V85.708H923.619V78.7158C923.612 77.9541 923.436 77.391 923.091 77.0264C922.753 76.6618 922.222 76.4795 921.5 76.4795C920.914 76.4795 920.399 76.6357 919.957 76.9482C919.514 77.2607 919.169 77.6709 918.922 78.1787V85.708H917.115V75.1416H918.824ZM932.388 84.4287C933.033 84.4287 933.596 84.2334 934.078 83.8428C934.56 83.4521 934.826 82.9639 934.879 82.3779H936.588C936.555 82.9834 936.347 83.5596 935.963 84.1064C935.578 84.6533 935.064 85.0895 934.42 85.415C933.782 85.7406 933.104 85.9033 932.388 85.9033C930.95 85.9033 929.804 85.4248 928.951 84.4678C928.104 83.5042 927.681 82.1891 927.681 80.5225V80.2197C927.681 79.1911 927.87 78.2764 928.248 77.4756C928.625 76.6748 929.166 76.0531 929.869 75.6104C930.578 75.1676 931.415 74.9463 932.379 74.9463C933.563 74.9463 934.547 75.3011 935.328 76.0107C936.116 76.7204 936.535 77.6416 936.588 78.7744H934.879C934.826 78.0908 934.566 77.5309 934.097 77.0947C933.635 76.652 933.062 76.4307 932.379 76.4307C931.461 76.4307 930.748 76.7627 930.24 77.4268C929.739 78.0843 929.488 79.0381 929.488 80.2881V80.6299C929.488 81.8473 929.739 82.7848 930.24 83.4424C930.741 84.0999 931.457 84.4287 932.388 84.4287ZM943.004 85.9033C941.571 85.9033 940.406 85.4346 939.507 84.4971C938.609 83.5531 938.16 82.2933 938.16 80.7178V80.3857C938.16 79.3376 938.358 78.4033 938.755 77.583C939.159 76.7562 939.719 76.1117 940.435 75.6494C941.158 75.1807 941.939 74.9463 942.779 74.9463C944.153 74.9463 945.22 75.3988 945.982 76.3037C946.744 77.2087 947.125 78.5042 947.125 80.1904V80.9424H939.966C939.992 81.984 940.295 82.8271 940.875 83.4717C941.461 84.1097 942.203 84.4287 943.101 84.4287C943.739 84.4287 944.28 84.2985 944.722 84.0381C945.165 83.7777 945.552 83.4326 945.884 83.0029L946.988 83.8623C946.102 85.223 944.774 85.9033 943.004 85.9033ZM942.779 76.4307C942.05 76.4307 941.438 76.6976 940.943 77.2314C940.448 77.7588 940.142 78.501 940.025 79.458H945.318V79.3213C945.266 78.4033 945.019 77.6937 944.576 77.1924C944.133 76.6846 943.534 76.4307 942.779 76.4307ZM963.111 80.542C963.111 82.1501 962.743 83.4456 962.007 84.4287C961.272 85.4118 960.276 85.9033 959.019 85.9033C957.737 85.9033 956.727 85.4964 955.992 84.6826V89.7705H954.185V75.1416H955.836L955.923 76.3135C956.659 75.402 957.681 74.9463 958.99 74.9463C960.259 74.9463 961.262 75.4248 961.998 76.3818C962.74 77.3389 963.111 78.6702 963.111 80.376V80.542ZM961.304 80.3369C961.304 79.1455 961.05 78.2048 960.543 77.5146C960.035 76.8245 959.338 76.4795 958.453 76.4795C957.359 76.4795 956.539 76.9645 955.992 77.9346V82.9834C956.532 83.9469 957.359 84.4287 958.472 84.4287C959.338 84.4287 960.025 84.0869 960.533 83.4033C961.047 82.7132 961.304 81.6911 961.304 80.3369ZM967.379 85.708H965.572V70.708H967.379V85.708ZM976.802 85.708C976.698 85.4997 976.614 85.1286 976.548 84.5947C975.709 85.4671 974.706 85.9033 973.541 85.9033C972.499 85.9033 971.643 85.6104 970.972 85.0244C970.308 84.432 969.976 83.6833 969.976 82.7783C969.976 81.6781 970.393 80.8252 971.226 80.2197C972.066 79.6077 973.244 79.3018 974.761 79.3018H976.519V78.4717C976.519 77.8402 976.33 77.3389 975.953 76.9678C975.575 76.5902 975.019 76.4014 974.283 76.4014C973.638 76.4014 973.098 76.5641 972.662 76.8896C972.226 77.2152 972.007 77.609 972.007 78.0713H970.191C970.191 77.5439 970.377 77.0361 970.748 76.5479C971.125 76.0531 971.633 75.6624 972.271 75.376C972.916 75.0895 973.622 74.9463 974.39 74.9463C975.608 74.9463 976.561 75.2523 977.252 75.8643C977.942 76.4697 978.3 77.3063 978.326 78.374V83.2373C978.326 84.2074 978.45 84.9788 978.697 85.5518V85.708H976.802ZM973.804 84.3311C974.371 84.3311 974.908 84.1846 975.416 83.8916C975.923 83.5986 976.291 83.2178 976.519 82.749V80.5811H975.103C972.89 80.5811 971.783 81.2288 971.783 82.5244C971.783 83.0908 971.972 83.5335 972.349 83.8525C972.727 84.1715 973.212 84.3311 973.804 84.3311ZM982.867 75.1416L982.925 76.4697C983.733 75.4541 984.787 74.9463 986.089 74.9463C988.323 74.9463 989.449 76.2061 989.468 78.7256V85.708H987.662V78.7158C987.655 77.9541 987.479 77.391 987.134 77.0264C986.796 76.6618 986.265 76.4795 985.543 76.4795C984.957 76.4795 984.442 76.6357 984 76.9482C983.557 77.2607 983.212 77.6709 982.964 78.1787V85.708H981.158V75.1416H982.867Z" fill="white"/>
<path d="M324.391 79.6747C324.977 79.0889 324.977 78.1391 324.391 77.5534L314.845 68.0074C314.259 67.4216 313.31 67.4216 312.724 68.0074C312.138 68.5932 312.138 69.5429 312.724 70.1287L321.209 78.614L312.724 87.0993C312.138 87.6851 312.138 88.6348 312.724 89.2206C313.31 89.8064 314.259 89.8064 314.845 89.2206L324.391 79.6747ZM251.5 80.114H323.33V77.114H251.5V80.114Z" fill="#626A84"/>
<path d="M108.576 105.878C107.991 105.292 107.041 105.292 106.455 105.878L96.909 115.424C96.3232 116.009 96.3232 116.959 96.909 117.545C97.4948 118.131 98.4446 118.131 99.0303 117.545L107.516 109.06L116.001 117.545C116.587 118.131 117.536 118.131 118.122 117.545C118.708 116.959 118.708 116.009 118.122 115.424L108.576 105.878ZM109.016 152.59L109.016 106.938L106.016 106.938L106.016 152.59L109.016 152.59Z" fill="#626A84"/>
<path d="M253.674 57.3511C253.674 55.73 254.058 54.4279 254.826 53.4448C255.594 52.4552 256.6 51.9604 257.844 51.9604C259.081 51.9604 260.061 52.3836 260.783 53.23V47.7222H262.59V62.7222H260.93L260.842 61.5894C260.119 62.4748 259.113 62.9175 257.824 62.9175C256.6 62.9175 255.601 62.4162 254.826 61.4136C254.058 60.411 253.674 59.1024 253.674 57.4878V57.3511ZM255.481 57.5562C255.481 58.7541 255.728 59.6916 256.223 60.3687C256.718 61.0457 257.401 61.3843 258.274 61.3843C259.419 61.3843 260.256 60.87 260.783 59.8413V54.9878C260.243 53.9917 259.413 53.4937 258.293 53.4937C257.408 53.4937 256.718 53.8354 256.223 54.519C255.728 55.2026 255.481 56.215 255.481 57.5562ZM269.787 62.9175C268.355 62.9175 267.19 62.4487 266.291 61.5112C265.393 60.5672 264.943 59.3075 264.943 57.7319V57.3999C264.943 56.3517 265.142 55.4175 265.539 54.5972C265.943 53.7703 266.503 53.1258 267.219 52.6636C267.941 52.1948 268.723 51.9604 269.563 51.9604C270.936 51.9604 272.004 52.4129 272.766 53.3179C273.527 54.2228 273.908 55.5184 273.908 57.2046V57.9565H266.75C266.776 58.9982 267.079 59.8413 267.658 60.4858C268.244 61.1239 268.986 61.4429 269.885 61.4429C270.523 61.4429 271.063 61.3127 271.506 61.0522C271.949 60.7918 272.336 60.4468 272.668 60.0171L273.772 60.8765C272.886 62.2371 271.558 62.9175 269.787 62.9175ZM269.563 53.4448C268.833 53.4448 268.221 53.7118 267.727 54.2456C267.232 54.7729 266.926 55.5151 266.809 56.4722H272.102V56.3354C272.05 55.4175 271.802 54.7078 271.359 54.2065C270.917 53.6987 270.318 53.4448 269.563 53.4448ZM278.459 49.5972V52.1558H280.432V53.5522H278.459V60.105C278.459 60.5282 278.547 60.8472 278.723 61.062C278.899 61.2703 279.198 61.3745 279.621 61.3745C279.83 61.3745 280.116 61.3354 280.481 61.2573V62.7222C280.005 62.8524 279.543 62.9175 279.094 62.9175C278.287 62.9175 277.678 62.6733 277.268 62.1851C276.858 61.6968 276.652 61.0034 276.652 60.105V53.5522H274.729V52.1558H276.652V49.5972H278.459ZM286.936 62.9175C285.503 62.9175 284.338 62.4487 283.44 61.5112C282.541 60.5672 282.092 59.3075 282.092 57.7319V57.3999C282.092 56.3517 282.29 55.4175 282.688 54.5972C283.091 53.7703 283.651 53.1258 284.367 52.6636C285.09 52.1948 285.871 51.9604 286.711 51.9604C288.085 51.9604 289.152 52.4129 289.914 53.3179C290.676 54.2228 291.057 55.5184 291.057 57.2046V57.9565H283.899C283.925 58.9982 284.227 59.8413 284.807 60.4858C285.393 61.1239 286.135 61.4429 287.033 61.4429C287.671 61.4429 288.212 61.3127 288.654 61.0522C289.097 60.7918 289.484 60.4468 289.816 60.0171L290.92 60.8765C290.035 62.2371 288.706 62.9175 286.936 62.9175ZM286.711 53.4448C285.982 53.4448 285.37 53.7118 284.875 54.2456C284.38 54.7729 284.074 55.5151 283.957 56.4722H289.25V56.3354C289.198 55.4175 288.951 54.7078 288.508 54.2065C288.065 53.6987 287.466 53.4448 286.711 53.4448ZM297.395 61.4429C298.039 61.4429 298.602 61.2476 299.084 60.8569C299.566 60.4663 299.833 59.978 299.885 59.3921H301.594C301.561 59.9976 301.353 60.5737 300.969 61.1206C300.585 61.6675 300.07 62.1037 299.426 62.4292C298.788 62.7547 298.111 62.9175 297.395 62.9175C295.956 62.9175 294.81 62.439 293.957 61.4819C293.111 60.5184 292.688 59.2033 292.688 57.5366V57.2339C292.688 56.2052 292.876 55.2905 293.254 54.4897C293.632 53.689 294.172 53.0672 294.875 52.6245C295.585 52.1818 296.421 51.9604 297.385 51.9604C298.57 51.9604 299.553 52.3153 300.334 53.0249C301.122 53.7345 301.542 54.6558 301.594 55.7886H299.885C299.833 55.105 299.572 54.5451 299.104 54.1089C298.641 53.6662 298.068 53.4448 297.385 53.4448C296.467 53.4448 295.754 53.7769 295.246 54.4409C294.745 55.0985 294.494 56.0522 294.494 57.3022V57.644C294.494 58.8615 294.745 59.799 295.246 60.4565C295.747 61.1141 296.464 61.4429 297.395 61.4429ZM306.076 49.5972V52.1558H308.049V53.5522H306.076V60.105C306.076 60.5282 306.164 60.8472 306.34 61.062C306.516 61.2703 306.815 61.3745 307.238 61.3745C307.447 61.3745 307.733 61.3354 308.098 61.2573V62.7222C307.622 62.8524 307.16 62.9175 306.711 62.9175C305.904 62.9175 305.295 62.6733 304.885 62.1851C304.475 61.6968 304.27 61.0034 304.27 60.105V53.5522H302.346V52.1558H304.27V49.5972H306.076ZM316.32 59.9194C316.32 59.4312 316.135 59.0535 315.764 58.7866C315.399 58.5132 314.758 58.2788 313.84 58.0835C312.928 57.8882 312.203 57.6538 311.662 57.3804C311.128 57.1069 310.731 56.7814 310.471 56.4038C310.217 56.0262 310.09 55.577 310.09 55.0562C310.09 54.1903 310.455 53.4578 311.184 52.8589C311.919 52.2599 312.857 51.9604 313.996 51.9604C315.194 51.9604 316.164 52.2697 316.906 52.8882C317.655 53.5067 318.029 54.2977 318.029 55.2612H316.213C316.213 54.7664 316.001 54.34 315.578 53.9819C315.162 53.6239 314.634 53.4448 313.996 53.4448C313.339 53.4448 312.824 53.5881 312.453 53.8745C312.082 54.161 311.897 54.5353 311.897 54.9976C311.897 55.4338 312.069 55.7625 312.414 55.9839C312.759 56.2052 313.381 56.4168 314.279 56.6187C315.184 56.8205 315.917 57.0614 316.477 57.3413C317.037 57.6213 317.45 57.9598 317.717 58.3569C317.99 58.7476 318.127 59.2261 318.127 59.7925C318.127 60.7365 317.749 61.495 316.994 62.0679C316.239 62.6343 315.259 62.9175 314.055 62.9175C313.208 62.9175 312.46 62.7677 311.809 62.4683C311.158 62.1688 310.647 61.7521 310.275 61.2183C309.911 60.6779 309.729 60.0952 309.729 59.4702H311.535C311.568 60.0757 311.809 60.5575 312.258 60.9155C312.714 61.2671 313.313 61.4429 314.055 61.4429C314.738 61.4429 315.285 61.3062 315.695 61.0327C316.112 60.7528 316.32 60.3817 316.32 59.9194Z" fill="#626A84"/>
</svg>
