<svg width="1530" height="323" viewBox="0 0 1530 323" fill="none" xmlns="http://www.w3.org/2000/svg">
<rect x="0.611328" y="1.11279" width="1528.89" height="320.446" rx="9.5" stroke="#626A84"/>
<path d="M46.502 88.7452V74.5265H51.1504C52.6934 74.5265 53.8522 74.8455 54.627 75.4835C55.4082 76.1215 55.7988 77.0656 55.7988 78.3156C55.7988 78.9796 55.61 79.5688 55.2324 80.0831C54.8548 80.5909 54.3405 80.9848 53.6895 81.2648C54.4577 81.4796 55.0632 81.8898 55.5059 82.4952C55.9551 83.0942 56.1797 83.8103 56.1797 84.6437C56.1797 85.9197 55.7663 86.9223 54.9395 87.6515C54.1126 88.3807 52.944 88.7452 51.4336 88.7452H46.502ZM48.377 82.0948V87.212H51.4727C52.3451 87.212 53.0319 86.9874 53.5332 86.5382C54.041 86.0825 54.2949 85.4575 54.2949 84.6632C54.2949 82.951 53.3639 82.0948 51.502 82.0948H48.377ZM48.377 80.5909H51.209C52.0293 80.5909 52.6836 80.3859 53.1719 79.9757C53.6667 79.5656 53.9141 79.0089 53.9141 78.3058C53.9141 77.5245 53.6862 76.9581 53.2305 76.6066C52.7747 76.2485 52.0814 76.0695 51.1504 76.0695H48.377V80.5909ZM65.2031 87.7003C64.5 88.5271 63.4681 88.9406 62.1074 88.9406C60.9811 88.9406 60.1217 88.615 59.5293 87.964C58.9434 87.3064 58.6471 86.3364 58.6406 85.0538V78.1788H60.4473V85.005C60.4473 86.6066 61.0983 87.4073 62.4004 87.4073C63.7806 87.4073 64.6986 86.893 65.1543 85.8644V78.1788H66.9609V88.7452H65.2422L65.2031 87.7003ZM75.8672 85.9425C75.8672 85.4542 75.6816 85.0766 75.3105 84.8097C74.946 84.5363 74.3047 84.3019 73.3867 84.1066C72.4753 83.9113 71.7493 83.6769 71.209 83.4034C70.6751 83.13 70.278 82.8045 70.0176 82.4269C69.7637 82.0493 69.6367 81.6001 69.6367 81.0792C69.6367 80.2133 70.0013 79.4809 70.7305 78.882C71.4661 78.283 72.4036 77.9835 73.543 77.9835C74.7409 77.9835 75.7109 78.2928 76.4531 78.9113C77.2018 79.5297 77.5762 80.3208 77.5762 81.2843H75.7598C75.7598 80.7895 75.5482 80.3631 75.125 80.005C74.7083 79.6469 74.181 79.4679 73.543 79.4679C72.8854 79.4679 72.3711 79.6111 72 79.8976C71.6289 80.184 71.4434 80.5584 71.4434 81.0206C71.4434 81.4568 71.6159 81.7856 71.9609 82.007C72.306 82.2283 72.9277 82.4399 73.8262 82.6417C74.7311 82.8435 75.4635 83.0844 76.0234 83.3644C76.5833 83.6443 76.9967 83.9829 77.2637 84.38C77.5371 84.7706 77.6738 85.2491 77.6738 85.8156C77.6738 86.7596 77.2962 87.518 76.541 88.0909C75.7858 88.6573 74.806 88.9406 73.6016 88.9406C72.7552 88.9406 72.0065 88.7908 71.3555 88.4913C70.7044 88.1919 70.1934 87.7752 69.8223 87.2413C69.4577 86.701 69.2754 86.1183 69.2754 85.4933H71.082C71.1146 86.0988 71.3555 86.5805 71.8047 86.9386C72.2604 87.2902 72.8594 87.4659 73.6016 87.4659C74.2852 87.4659 74.832 87.3292 75.2422 87.0558C75.6589 86.7758 75.8672 86.4047 75.8672 85.9425ZM81.9902 88.7452H80.1836V78.1788H81.9902V88.7452ZM80.0371 75.3761C80.0371 75.0831 80.125 74.8357 80.3008 74.6339C80.4831 74.4321 80.75 74.3312 81.1016 74.3312C81.4531 74.3312 81.7201 74.4321 81.9023 74.6339C82.0846 74.8357 82.1758 75.0831 82.1758 75.3761C82.1758 75.6691 82.0846 75.9132 81.9023 76.1085C81.7201 76.3038 81.4531 76.4015 81.1016 76.4015C80.75 76.4015 80.4831 76.3038 80.3008 76.1085C80.125 75.9132 80.0371 75.6691 80.0371 75.3761ZM86.5996 78.1788L86.6582 79.507C87.4655 78.4913 88.5202 77.9835 89.8223 77.9835C92.0553 77.9835 93.1816 79.2433 93.2012 81.7628V88.7452H91.3945V81.7531C91.388 80.9913 91.2122 80.4282 90.8672 80.0636C90.5286 79.699 89.998 79.5167 89.2754 79.5167C88.6895 79.5167 88.1751 79.673 87.7324 79.9855C87.2897 80.298 86.9447 80.7081 86.6973 81.2159V88.7452H84.8906V78.1788H86.5996ZM100.311 88.9406C98.8783 88.9406 97.7129 88.4718 96.8145 87.5343C95.916 86.5903 95.4668 85.3305 95.4668 83.755V83.423C95.4668 82.3748 95.6654 81.4406 96.0625 80.6202C96.4661 79.7934 97.026 79.1489 97.7422 78.6866C98.4648 78.2179 99.2461 77.9835 100.086 77.9835C101.46 77.9835 102.527 78.436 103.289 79.3409C104.051 80.2459 104.432 81.5415 104.432 83.2277V83.9796H97.2734C97.2995 85.0213 97.6022 85.8644 98.1816 86.5089C98.7676 87.1469 99.5098 87.4659 100.408 87.4659C101.046 87.4659 101.587 87.3357 102.029 87.0753C102.472 86.8149 102.859 86.4698 103.191 86.0402L104.295 86.8995C103.41 88.2602 102.081 88.9406 100.311 88.9406ZM100.086 79.4679C99.3568 79.4679 98.7448 79.7348 98.25 80.2687C97.7552 80.796 97.4492 81.5382 97.332 82.4952H102.625V82.3585C102.573 81.4406 102.326 80.7309 101.883 80.2296C101.44 79.7218 100.841 79.4679 100.086 79.4679ZM112.684 85.9425C112.684 85.4542 112.498 85.0766 112.127 84.8097C111.762 84.5363 111.121 84.3019 110.203 84.1066C109.292 83.9113 108.566 83.6769 108.025 83.4034C107.492 83.13 107.094 82.8045 106.834 82.4269C106.58 82.0493 106.453 81.6001 106.453 81.0792C106.453 80.2133 106.818 79.4809 107.547 78.882C108.283 78.283 109.22 77.9835 110.359 77.9835C111.557 77.9835 112.527 78.2928 113.27 78.9113C114.018 79.5297 114.393 80.3208 114.393 81.2843H112.576C112.576 80.7895 112.365 80.3631 111.941 80.005C111.525 79.6469 110.997 79.4679 110.359 79.4679C109.702 79.4679 109.188 79.6111 108.816 79.8976C108.445 80.184 108.26 80.5584 108.26 81.0206C108.26 81.4568 108.432 81.7856 108.777 82.007C109.122 82.2283 109.744 82.4399 110.643 82.6417C111.548 82.8435 112.28 83.0844 112.84 83.3644C113.4 83.6443 113.813 83.9829 114.08 84.38C114.354 84.7706 114.49 85.2491 114.49 85.8156C114.49 86.7596 114.113 87.518 113.357 88.0909C112.602 88.6573 111.622 88.9406 110.418 88.9406C109.572 88.9406 108.823 88.7908 108.172 88.4913C107.521 88.1919 107.01 87.7752 106.639 87.2413C106.274 86.701 106.092 86.1183 106.092 85.4933H107.898C107.931 86.0988 108.172 86.5805 108.621 86.9386C109.077 87.2902 109.676 87.4659 110.418 87.4659C111.102 87.4659 111.648 87.3292 112.059 87.0558C112.475 86.7758 112.684 86.4047 112.684 85.9425ZM122.996 85.9425C122.996 85.4542 122.811 85.0766 122.439 84.8097C122.075 84.5363 121.434 84.3019 120.516 84.1066C119.604 83.9113 118.878 83.6769 118.338 83.4034C117.804 83.13 117.407 82.8045 117.146 82.4269C116.893 82.0493 116.766 81.6001 116.766 81.0792C116.766 80.2133 117.13 79.4809 117.859 78.882C118.595 78.283 119.533 77.9835 120.672 77.9835C121.87 77.9835 122.84 78.2928 123.582 78.9113C124.331 79.5297 124.705 80.3208 124.705 81.2843H122.889C122.889 80.7895 122.677 80.3631 122.254 80.005C121.837 79.6469 121.31 79.4679 120.672 79.4679C120.014 79.4679 119.5 79.6111 119.129 79.8976C118.758 80.184 118.572 80.5584 118.572 81.0206C118.572 81.4568 118.745 81.7856 119.09 82.007C119.435 82.2283 120.057 82.4399 120.955 82.6417C121.86 82.8435 122.592 83.0844 123.152 83.3644C123.712 83.6443 124.126 83.9829 124.393 84.38C124.666 84.7706 124.803 85.2491 124.803 85.8156C124.803 86.7596 124.425 87.518 123.67 88.0909C122.915 88.6573 121.935 88.9406 120.73 88.9406C119.884 88.9406 119.135 88.7908 118.484 88.4913C117.833 88.1919 117.322 87.7752 116.951 87.2413C116.587 86.701 116.404 86.1183 116.404 85.4933H118.211C118.243 86.0988 118.484 86.5805 118.934 86.9386C119.389 87.2902 119.988 87.4659 120.73 87.4659C121.414 87.4659 121.961 87.3292 122.371 87.0558C122.788 86.7758 122.996 86.4047 122.996 85.9425ZM141.043 83.5792C141.043 85.1873 140.675 86.4829 139.939 87.4659C139.204 88.449 138.208 88.9406 136.951 88.9406C135.669 88.9406 134.66 88.5337 133.924 87.7198V92.8077H132.117V78.1788H133.768L133.855 79.3507C134.591 78.4392 135.613 77.9835 136.922 77.9835C138.191 77.9835 139.194 78.462 139.93 79.4191C140.672 80.3761 141.043 81.7075 141.043 83.4132V83.5792ZM139.236 83.3741C139.236 82.1827 138.982 81.242 138.475 80.5519C137.967 79.8618 137.27 79.5167 136.385 79.5167C135.291 79.5167 134.471 80.0017 133.924 80.9718V86.0206C134.464 86.9842 135.291 87.4659 136.404 87.4659C137.27 87.4659 137.957 87.1241 138.465 86.4406C138.979 85.7504 139.236 84.7283 139.236 83.3741ZM148.455 79.7999C148.182 79.7544 147.885 79.7316 147.566 79.7316C146.382 79.7316 145.577 80.2361 145.154 81.2452V88.7452H143.348V78.1788H145.105L145.135 79.3995C145.727 78.4555 146.567 77.9835 147.654 77.9835C148.006 77.9835 148.273 78.0291 148.455 78.1202V79.7999ZM149.451 83.3644C149.451 82.3292 149.653 81.3982 150.057 80.5714C150.467 79.7446 151.033 79.1066 151.756 78.6573C152.485 78.2081 153.315 77.9835 154.246 77.9835C155.685 77.9835 156.847 78.4816 157.732 79.4777C158.624 80.4738 159.07 81.7986 159.07 83.4523V83.5792C159.07 84.6079 158.872 85.5323 158.475 86.3527C158.084 87.1665 157.521 87.8012 156.785 88.257C156.056 88.7127 155.216 88.9406 154.266 88.9406C152.833 88.9406 151.671 88.4425 150.779 87.4464C149.894 86.4503 149.451 85.132 149.451 83.4913V83.3644ZM151.268 83.5792C151.268 84.7511 151.538 85.6919 152.078 86.4015C152.625 87.1111 153.354 87.4659 154.266 87.4659C155.184 87.4659 155.913 87.1079 156.453 86.3917C156.993 85.6691 157.264 84.66 157.264 83.3644C157.264 82.2055 156.987 81.268 156.434 80.5519C155.887 79.8292 155.158 79.4679 154.246 79.4679C153.354 79.4679 152.635 79.8227 152.088 80.5323C151.541 81.242 151.268 82.2576 151.268 83.5792ZM165.574 87.4659C166.219 87.4659 166.782 87.2706 167.264 86.88C167.745 86.4894 168.012 86.0011 168.064 85.4152H169.773C169.741 86.0206 169.533 86.5968 169.148 87.1437C168.764 87.6906 168.25 88.1267 167.605 88.4523C166.967 88.7778 166.29 88.9406 165.574 88.9406C164.135 88.9406 162.99 88.462 162.137 87.505C161.29 86.5415 160.867 85.2264 160.867 83.5597V83.257C160.867 82.2283 161.056 81.3136 161.434 80.5128C161.811 79.712 162.352 79.0903 163.055 78.6476C163.764 78.2049 164.601 77.9835 165.564 77.9835C166.749 77.9835 167.732 78.3383 168.514 79.048C169.301 79.7576 169.721 80.6788 169.773 81.8116H168.064C168.012 81.1281 167.752 80.5682 167.283 80.132C166.821 79.6892 166.248 79.4679 165.564 79.4679C164.646 79.4679 163.934 79.7999 163.426 80.464C162.924 81.1215 162.674 82.0753 162.674 83.3253V83.6671C162.674 84.8846 162.924 85.8221 163.426 86.4796C163.927 87.1372 164.643 87.4659 165.574 87.4659ZM176.189 88.9406C174.757 88.9406 173.592 88.4718 172.693 87.5343C171.795 86.5903 171.346 85.3305 171.346 83.755V83.423C171.346 82.3748 171.544 81.4406 171.941 80.6202C172.345 79.7934 172.905 79.1489 173.621 78.6866C174.344 78.2179 175.125 77.9835 175.965 77.9835C177.339 77.9835 178.406 78.436 179.168 79.3409C179.93 80.2459 180.311 81.5415 180.311 83.2277V83.9796H173.152C173.178 85.0213 173.481 85.8644 174.061 86.5089C174.646 87.1469 175.389 87.4659 176.287 87.4659C176.925 87.4659 177.465 87.3357 177.908 87.0753C178.351 86.8149 178.738 86.4698 179.07 86.0402L180.174 86.8995C179.288 88.2602 177.96 88.9406 176.189 88.9406ZM175.965 79.4679C175.236 79.4679 174.624 79.7348 174.129 80.2687C173.634 80.796 173.328 81.5382 173.211 82.4952H178.504V82.3585C178.452 81.4406 178.204 80.7309 177.762 80.2296C177.319 79.7218 176.72 79.4679 175.965 79.4679ZM188.562 85.9425C188.562 85.4542 188.377 85.0766 188.006 84.8097C187.641 84.5363 187 84.3019 186.082 84.1066C185.171 83.9113 184.445 83.6769 183.904 83.4034C183.37 83.13 182.973 82.8045 182.713 82.4269C182.459 82.0493 182.332 81.6001 182.332 81.0792C182.332 80.2133 182.697 79.4809 183.426 78.882C184.161 78.283 185.099 77.9835 186.238 77.9835C187.436 77.9835 188.406 78.2928 189.148 78.9113C189.897 79.5297 190.271 80.3208 190.271 81.2843H188.455C188.455 80.7895 188.243 80.3631 187.82 80.005C187.404 79.6469 186.876 79.4679 186.238 79.4679C185.581 79.4679 185.066 79.6111 184.695 79.8976C184.324 80.184 184.139 80.5584 184.139 81.0206C184.139 81.4568 184.311 81.7856 184.656 82.007C185.001 82.2283 185.623 82.4399 186.521 82.6417C187.426 82.8435 188.159 83.0844 188.719 83.3644C189.279 83.6443 189.692 83.9829 189.959 84.38C190.232 84.7706 190.369 85.2491 190.369 85.8156C190.369 86.7596 189.992 87.518 189.236 88.0909C188.481 88.6573 187.501 88.9406 186.297 88.9406C185.451 88.9406 184.702 88.7908 184.051 88.4913C183.4 88.1919 182.889 87.7752 182.518 87.2413C182.153 86.701 181.971 86.1183 181.971 85.4933H183.777C183.81 86.0988 184.051 86.5805 184.5 86.9386C184.956 87.2902 185.555 87.4659 186.297 87.4659C186.98 87.4659 187.527 87.3292 187.938 87.0558C188.354 86.7758 188.562 86.4047 188.562 85.9425ZM198.875 85.9425C198.875 85.4542 198.689 85.0766 198.318 84.8097C197.954 84.5363 197.312 84.3019 196.395 84.1066C195.483 83.9113 194.757 83.6769 194.217 83.4034C193.683 83.13 193.286 82.8045 193.025 82.4269C192.771 82.0493 192.645 81.6001 192.645 81.0792C192.645 80.2133 193.009 79.4809 193.738 78.882C194.474 78.283 195.411 77.9835 196.551 77.9835C197.749 77.9835 198.719 78.2928 199.461 78.9113C200.21 79.5297 200.584 80.3208 200.584 81.2843H198.768C198.768 80.7895 198.556 80.3631 198.133 80.005C197.716 79.6469 197.189 79.4679 196.551 79.4679C195.893 79.4679 195.379 79.6111 195.008 79.8976C194.637 80.184 194.451 80.5584 194.451 81.0206C194.451 81.4568 194.624 81.7856 194.969 82.007C195.314 82.2283 195.936 82.4399 196.834 82.6417C197.739 82.8435 198.471 83.0844 199.031 83.3644C199.591 83.6443 200.005 83.9829 200.271 84.38C200.545 84.7706 200.682 85.2491 200.682 85.8156C200.682 86.7596 200.304 87.518 199.549 88.0909C198.794 88.6573 197.814 88.9406 196.609 88.9406C195.763 88.9406 195.014 88.7908 194.363 88.4913C193.712 88.1919 193.201 87.7752 192.83 87.2413C192.465 86.701 192.283 86.1183 192.283 85.4933H194.09C194.122 86.0988 194.363 86.5805 194.812 86.9386C195.268 87.2902 195.867 87.4659 196.609 87.4659C197.293 87.4659 197.84 87.3292 198.25 87.0558C198.667 86.7758 198.875 86.4047 198.875 85.9425Z" fill="white"/>
<rect x="356.543" y="42.3032" width="256.438" height="77.547" rx="5" fill="#2A365C"/>
<path d="M421.306 86.2556L425.368 74.5271H427.419L422.146 88.7458H420.485L415.222 74.5271H417.263L421.306 86.2556ZM435.124 88.7458C435.02 88.5375 434.935 88.1664 434.87 87.6326C434.03 88.505 433.028 88.9412 431.862 88.9412C430.821 88.9412 429.965 88.6482 429.294 88.0623C428.63 87.4698 428.298 86.7211 428.298 85.8162C428.298 84.7159 428.715 83.863 429.548 83.2576C430.388 82.6456 431.566 82.3396 433.083 82.3396H434.841V81.5095C434.841 80.878 434.652 80.3767 434.275 80.0056C433.897 79.628 433.34 79.4392 432.605 79.4392C431.96 79.4392 431.42 79.602 430.984 79.9275C430.547 80.253 430.329 80.6469 430.329 81.1091H428.513C428.513 80.5818 428.698 80.074 429.069 79.5857C429.447 79.0909 429.955 78.7003 430.593 78.4138C431.237 78.1274 431.944 77.9841 432.712 77.9841C433.929 77.9841 434.883 78.2901 435.573 78.9021C436.263 79.5076 436.622 80.3442 436.648 81.4119V86.2751C436.648 87.2452 436.771 88.0167 437.019 88.5896V88.7458H435.124ZM432.126 87.3689C432.693 87.3689 433.23 87.2224 433.737 86.9294C434.245 86.6365 434.613 86.2556 434.841 85.7869V83.6189H433.425C431.211 83.6189 430.105 84.2667 430.105 85.5623C430.105 86.1287 430.293 86.5714 430.671 86.8904C431.049 87.2094 431.534 87.3689 432.126 87.3689ZM441.443 88.7458H439.636V73.7458H441.443V88.7458ZM446.306 88.7458H444.499V78.1794H446.306V88.7458ZM444.353 75.3767C444.353 75.0837 444.441 74.8363 444.616 74.6345C444.799 74.4327 445.066 74.3318 445.417 74.3318C445.769 74.3318 446.036 74.4327 446.218 74.6345C446.4 74.8363 446.491 75.0837 446.491 75.3767C446.491 75.6697 446.4 75.9138 446.218 76.1091C446.036 76.3044 445.769 76.4021 445.417 76.4021C445.066 76.4021 444.799 76.3044 444.616 76.1091C444.441 75.9138 444.353 75.6697 444.353 75.3767ZM448.767 83.3748C448.767 81.7537 449.151 80.4516 449.919 79.4685C450.687 78.4789 451.693 77.9841 452.937 77.9841C454.174 77.9841 455.153 78.4073 455.876 79.2537V73.7458H457.683V88.7458H456.023L455.935 87.613C455.212 88.4985 454.206 88.9412 452.917 88.9412C451.693 88.9412 450.694 88.4399 449.919 87.4373C449.151 86.4347 448.767 85.1261 448.767 83.5115V83.3748ZM450.573 83.5798C450.573 84.7778 450.821 85.7153 451.316 86.3923C451.81 87.0694 452.494 87.408 453.366 87.408C454.512 87.408 455.349 86.8936 455.876 85.865V81.0115C455.336 80.0154 454.506 79.5173 453.386 79.5173C452.5 79.5173 451.81 79.8591 451.316 80.5427C450.821 81.2263 450.573 82.2387 450.573 83.5798ZM467.019 88.7458C466.915 88.5375 466.83 88.1664 466.765 87.6326C465.925 88.505 464.922 88.9412 463.757 88.9412C462.715 88.9412 461.859 88.6482 461.189 88.0623C460.525 87.4698 460.193 86.7211 460.193 85.8162C460.193 84.7159 460.609 83.863 461.443 83.2576C462.282 82.6456 463.461 82.3396 464.978 82.3396H466.735V81.5095C466.735 80.878 466.547 80.3767 466.169 80.0056C465.791 79.628 465.235 79.4392 464.499 79.4392C463.855 79.4392 463.314 79.602 462.878 79.9275C462.442 80.253 462.224 80.6469 462.224 81.1091H460.407C460.407 80.5818 460.593 80.074 460.964 79.5857C461.342 79.0909 461.849 78.7003 462.487 78.4138C463.132 78.1274 463.838 77.9841 464.607 77.9841C465.824 77.9841 466.778 78.2901 467.468 78.9021C468.158 79.5076 468.516 80.3442 468.542 81.4119V86.2751C468.542 87.2452 468.666 88.0167 468.913 88.5896V88.7458H467.019ZM464.021 87.3689C464.587 87.3689 465.124 87.2224 465.632 86.9294C466.14 86.6365 466.508 86.2556 466.735 85.7869V83.6189H465.319C463.106 83.6189 461.999 84.2667 461.999 85.5623C461.999 86.1287 462.188 86.5714 462.566 86.8904C462.943 87.2094 463.428 87.3689 464.021 87.3689ZM473.825 75.6208V78.1794H475.798V79.5759H473.825V86.1287C473.825 86.5518 473.913 86.8708 474.089 87.0857C474.265 87.294 474.564 87.3982 474.987 87.3982C475.196 87.3982 475.482 87.3591 475.847 87.281V88.7458C475.372 88.8761 474.909 88.9412 474.46 88.9412C473.653 88.9412 473.044 88.697 472.634 88.2087C472.224 87.7205 472.019 87.0271 472.019 86.1287V79.5759H470.095V78.1794H472.019V75.6208H473.825ZM482.302 88.9412C480.87 88.9412 479.704 88.4724 478.806 87.5349C477.907 86.5909 477.458 85.3311 477.458 83.7556V83.4236C477.458 82.3754 477.657 81.4412 478.054 80.6208C478.457 79.794 479.017 79.1495 479.734 78.6873C480.456 78.2185 481.237 77.9841 482.077 77.9841C483.451 77.9841 484.519 78.4366 485.28 79.3416C486.042 80.2465 486.423 81.5421 486.423 83.2283V83.9802H479.265C479.291 85.0219 479.594 85.865 480.173 86.5095C480.759 87.1475 481.501 87.4666 482.4 87.4666C483.038 87.4666 483.578 87.3363 484.021 87.0759C484.463 86.8155 484.851 86.4705 485.183 86.0408L486.286 86.9001C485.401 88.2608 484.073 88.9412 482.302 88.9412ZM482.077 79.4685C481.348 79.4685 480.736 79.7354 480.241 80.2693C479.747 80.7966 479.441 81.5388 479.323 82.4958H484.616V82.3591C484.564 81.4412 484.317 80.7315 483.874 80.2302C483.431 79.7224 482.832 79.4685 482.077 79.4685ZM493.103 84.9275C493.103 84.2439 493.291 83.6156 493.669 83.0427C494.053 82.4698 494.782 81.8025 495.857 81.0408C495.225 80.2725 494.802 79.6541 494.587 79.1853C494.372 78.7166 494.265 78.2511 494.265 77.7888C494.265 76.7081 494.584 75.8617 495.222 75.2498C495.86 74.6378 496.726 74.3318 497.819 74.3318C498.796 74.3318 499.603 74.6182 500.241 75.1912C500.879 75.7576 501.198 76.4737 501.198 77.3396C501.198 77.9125 501.052 78.4431 500.759 78.9314C500.472 79.4132 499.968 79.921 499.245 80.4548L498.2 81.2263L501.364 85.0056C501.807 84.1593 502.028 83.2185 502.028 82.1833H503.659C503.659 83.8435 503.259 85.2205 502.458 86.3142L504.489 88.7458H502.321L501.374 87.6228C500.892 88.0525 500.326 88.3813 499.675 88.6091C499.03 88.8305 498.373 88.9412 497.702 88.9412C496.316 88.9412 495.202 88.5733 494.362 87.8376C493.523 87.102 493.103 86.1319 493.103 84.9275ZM497.702 87.4666C498.659 87.4666 499.535 87.102 500.329 86.3728L496.862 82.2224L496.54 82.4568C495.453 83.2576 494.909 84.0811 494.909 84.9275C494.909 85.6957 495.157 86.311 495.652 86.7732C496.153 87.2354 496.836 87.4666 497.702 87.4666ZM496.071 77.7302C496.071 78.3552 496.456 79.1365 497.224 80.074L498.376 79.2634C498.819 78.9509 499.122 78.6547 499.284 78.3748C499.447 78.0883 499.528 77.7432 499.528 77.3396C499.528 76.9034 499.366 76.5421 499.04 76.2556C498.715 75.9626 498.304 75.8162 497.81 75.8162C497.276 75.8162 496.853 75.9985 496.54 76.363C496.228 76.7211 496.071 77.1768 496.071 77.7302ZM517.409 88.7458C517.305 88.5375 517.221 88.1664 517.155 87.6326C516.316 88.505 515.313 88.9412 514.148 88.9412C513.106 88.9412 512.25 88.6482 511.579 88.0623C510.915 87.4698 510.583 86.7211 510.583 85.8162C510.583 84.7159 511 83.863 511.833 83.2576C512.673 82.6456 513.851 82.3396 515.368 82.3396H517.126V81.5095C517.126 80.878 516.937 80.3767 516.56 80.0056C516.182 79.628 515.625 79.4392 514.89 79.4392C514.245 79.4392 513.705 79.602 513.269 79.9275C512.832 80.253 512.614 80.6469 512.614 81.1091H510.798C510.798 80.5818 510.984 80.074 511.355 79.5857C511.732 79.0909 512.24 78.7003 512.878 78.4138C513.523 78.1274 514.229 77.9841 514.997 77.9841C516.215 77.9841 517.168 78.2901 517.859 78.9021C518.549 79.5076 518.907 80.3442 518.933 81.4119V86.2751C518.933 87.2452 519.056 88.0167 519.304 88.5896V88.7458H517.409ZM514.411 87.3689C514.978 87.3689 515.515 87.2224 516.023 86.9294C516.53 86.6365 516.898 86.2556 517.126 85.7869V83.6189H515.71C513.497 83.6189 512.39 84.2667 512.39 85.5623C512.39 86.1287 512.579 86.5714 512.956 86.8904C513.334 87.2094 513.819 87.3689 514.411 87.3689ZM528.288 87.7009C527.585 88.5278 526.553 88.9412 525.193 88.9412C524.066 88.9412 523.207 88.6156 522.614 87.9646C522.028 87.307 521.732 86.337 521.726 85.0544V78.1794H523.532V85.0056C523.532 86.6072 524.183 87.408 525.485 87.408C526.866 87.408 527.784 86.8936 528.239 85.865V78.1794H530.046V88.7458H528.327L528.288 87.7009ZM532.36 83.3748C532.36 81.7537 532.745 80.4516 533.513 79.4685C534.281 78.4789 535.287 77.9841 536.53 77.9841C537.767 77.9841 538.747 78.4073 539.47 79.2537V73.7458H541.277V88.7458H539.616L539.528 87.613C538.806 88.4985 537.8 88.9412 536.511 88.9412C535.287 88.9412 534.288 88.4399 533.513 87.4373C532.745 86.4347 532.36 85.1261 532.36 83.5115V83.3748ZM534.167 83.5798C534.167 84.7778 534.415 85.7153 534.909 86.3923C535.404 87.0694 536.088 87.408 536.96 87.408C538.106 87.408 538.943 86.8936 539.47 85.865V81.0115C538.929 80.0154 538.099 79.5173 536.98 79.5173C536.094 79.5173 535.404 79.8591 534.909 80.5427C534.415 81.2263 534.167 82.2387 534.167 83.5798ZM546.052 88.7458H544.245V78.1794H546.052V88.7458ZM544.099 75.3767C544.099 75.0837 544.187 74.8363 544.362 74.6345C544.545 74.4327 544.812 74.3318 545.163 74.3318C545.515 74.3318 545.782 74.4327 545.964 74.6345C546.146 74.8363 546.237 75.0837 546.237 75.3767C546.237 75.6697 546.146 75.9138 545.964 76.1091C545.782 76.3044 545.515 76.4021 545.163 76.4021C544.812 76.4021 544.545 76.3044 544.362 76.1091C544.187 75.9138 544.099 75.6697 544.099 75.3767ZM551.403 75.6208V78.1794H553.376V79.5759H551.403V86.1287C551.403 86.5518 551.491 86.8708 551.667 87.0857C551.843 87.294 552.142 87.3982 552.566 87.3982C552.774 87.3982 553.06 87.3591 553.425 87.281V88.7458C552.95 88.8761 552.487 88.9412 552.038 88.9412C551.231 88.9412 550.622 88.697 550.212 88.2087C549.802 87.7205 549.597 87.0271 549.597 86.1287V79.5759H547.673V78.1794H549.597V75.6208H551.403Z" fill="white"/>
<rect x="734.133" y="139.603" width="212.803" height="77.547" rx="5" fill="#2A365C"/>
<path d="M794.163 185.743H792.288V171.525H794.163V185.743ZM799.026 175.177L799.085 176.505C799.892 175.49 800.947 174.982 802.249 174.982C804.482 174.982 805.608 176.241 805.628 178.761V185.743H803.821V178.751C803.814 177.99 803.639 177.426 803.294 177.062C802.955 176.697 802.424 176.515 801.702 176.515C801.116 176.515 800.602 176.671 800.159 176.984C799.716 177.296 799.371 177.706 799.124 178.214V185.743H797.317V175.177H799.026ZM809.241 185.743V176.573H807.571V175.177H809.241V174.093C809.241 172.96 809.544 172.085 810.149 171.466C810.755 170.848 811.611 170.538 812.717 170.538C813.134 170.538 813.548 170.594 813.958 170.704L813.86 172.169C813.554 172.111 813.229 172.081 812.883 172.081C812.298 172.081 811.845 172.254 811.526 172.599C811.207 172.937 811.048 173.426 811.048 174.064V175.177H813.303V176.573H811.048V185.743H809.241ZM814.827 180.363C814.827 179.327 815.029 178.396 815.432 177.57C815.842 176.743 816.409 176.105 817.132 175.656C817.861 175.206 818.691 174.982 819.622 174.982C821.061 174.982 822.223 175.48 823.108 176.476C824 177.472 824.446 178.797 824.446 180.45V180.577C824.446 181.606 824.247 182.531 823.85 183.351C823.46 184.165 822.897 184.799 822.161 185.255C821.432 185.711 820.592 185.939 819.641 185.939C818.209 185.939 817.047 185.441 816.155 184.445C815.27 183.448 814.827 182.13 814.827 180.49V180.363ZM816.643 180.577C816.643 181.749 816.913 182.69 817.454 183.4C818.001 184.109 818.73 184.464 819.641 184.464C820.559 184.464 821.288 184.106 821.829 183.39C822.369 182.667 822.639 181.658 822.639 180.363C822.639 179.204 822.363 178.266 821.809 177.55C821.262 176.827 820.533 176.466 819.622 176.466C818.73 176.466 818.01 176.821 817.464 177.531C816.917 178.24 816.643 179.256 816.643 180.577ZM831.819 176.798C831.546 176.753 831.249 176.73 830.93 176.73C829.745 176.73 828.941 177.234 828.518 178.243V185.743H826.712V175.177H828.469L828.499 176.398C829.091 175.454 829.931 174.982 831.018 174.982C831.37 174.982 831.637 175.027 831.819 175.118V176.798ZM835.188 175.177L835.237 176.349C836.012 175.437 837.057 174.982 838.372 174.982C839.85 174.982 840.855 175.548 841.389 176.681C841.741 176.173 842.197 175.763 842.757 175.45C843.323 175.138 843.99 174.982 844.758 174.982C847.076 174.982 848.255 176.209 848.294 178.663V185.743H846.487V178.771C846.487 178.016 846.314 177.452 845.969 177.081C845.624 176.704 845.045 176.515 844.231 176.515C843.561 176.515 843.004 176.717 842.561 177.12C842.119 177.517 841.861 178.055 841.79 178.732V185.743H839.973V178.82C839.973 177.283 839.221 176.515 837.717 176.515C836.533 176.515 835.722 177.019 835.286 178.029V185.743H833.479V175.177H835.188ZM857.551 185.743C857.447 185.535 857.363 185.164 857.298 184.63C856.458 185.503 855.455 185.939 854.29 185.939C853.248 185.939 852.392 185.646 851.721 185.06C851.057 184.467 850.725 183.719 850.725 182.814C850.725 181.713 851.142 180.861 851.975 180.255C852.815 179.643 853.994 179.337 855.51 179.337H857.268V178.507C857.268 177.876 857.079 177.374 856.702 177.003C856.324 176.626 855.768 176.437 855.032 176.437C854.387 176.437 853.847 176.6 853.411 176.925C852.975 177.251 852.757 177.644 852.757 178.107H850.94C850.94 177.579 851.126 177.072 851.497 176.583C851.874 176.088 852.382 175.698 853.02 175.411C853.665 175.125 854.371 174.982 855.139 174.982C856.357 174.982 857.311 175.288 858.001 175.9C858.691 176.505 859.049 177.342 859.075 178.409V183.273C859.075 184.243 859.199 185.014 859.446 185.587V185.743H857.551ZM854.553 184.366C855.12 184.366 855.657 184.22 856.165 183.927C856.673 183.634 857.04 183.253 857.268 182.784V180.616H855.852C853.639 180.616 852.532 181.264 852.532 182.56C852.532 183.126 852.721 183.569 853.098 183.888C853.476 184.207 853.961 184.366 854.553 184.366ZM864.358 172.618V175.177H866.331V176.573H864.358V183.126C864.358 183.549 864.446 183.868 864.622 184.083C864.798 184.292 865.097 184.396 865.52 184.396C865.729 184.396 866.015 184.357 866.38 184.279V185.743C865.904 185.874 865.442 185.939 864.993 185.939C864.186 185.939 863.577 185.695 863.167 185.206C862.757 184.718 862.551 184.025 862.551 183.126V176.573H860.628V175.177H862.551V172.618H864.358ZM870.413 185.743H868.606V175.177H870.413V185.743ZM868.46 172.374C868.46 172.081 868.548 171.834 868.723 171.632C868.906 171.43 869.173 171.329 869.524 171.329C869.876 171.329 870.143 171.43 870.325 171.632C870.507 171.834 870.598 172.081 870.598 172.374C870.598 172.667 870.507 172.911 870.325 173.107C870.143 173.302 869.876 173.4 869.524 173.4C869.173 173.4 868.906 173.302 868.723 173.107C868.548 172.911 868.46 172.667 868.46 172.374ZM872.835 180.363C872.835 179.327 873.036 178.396 873.44 177.57C873.85 176.743 874.417 176.105 875.139 175.656C875.869 175.206 876.699 174.982 877.63 174.982C879.068 174.982 880.23 175.48 881.116 176.476C882.008 177.472 882.454 178.797 882.454 180.45V180.577C882.454 181.606 882.255 182.531 881.858 183.351C881.467 184.165 880.904 184.799 880.169 185.255C879.439 185.711 878.6 185.939 877.649 185.939C876.217 185.939 875.055 185.441 874.163 184.445C873.277 183.448 872.835 182.13 872.835 180.49V180.363ZM874.651 180.577C874.651 181.749 874.921 182.69 875.462 183.4C876.008 184.109 876.738 184.464 877.649 184.464C878.567 184.464 879.296 184.106 879.837 183.39C880.377 182.667 880.647 181.658 880.647 180.363C880.647 179.204 880.37 178.266 879.817 177.55C879.27 176.827 878.541 176.466 877.63 176.466C876.738 176.466 876.018 176.821 875.471 177.531C874.924 178.24 874.651 179.256 874.651 180.577ZM886.428 175.177L886.487 176.505C887.294 175.49 888.349 174.982 889.651 174.982C891.884 174.982 893.01 176.241 893.03 178.761V185.743H891.223V178.751C891.217 177.99 891.041 177.426 890.696 177.062C890.357 176.697 889.827 176.515 889.104 176.515C888.518 176.515 888.004 176.671 887.561 176.984C887.119 177.296 886.773 177.706 886.526 178.214V185.743H884.719V175.177H886.428Z" fill="white"/>
<path d="M88.8262 108.555V266.492L1391.07 266.492V170.834" stroke="#626A84" stroke-width="3"/>
<path d="M1302.12 170.867V182.242H965.176" stroke="#626A84" stroke-width="3"/>
<rect x="1188.62" y="42.3032" width="290.736" height="108.38" rx="5" fill="#2A365C"/>
<path d="M1261.84 82.0955C1261.84 83.4887 1261.61 84.7061 1261.14 85.7478C1260.67 86.783 1260.01 87.574 1259.15 88.1208C1258.29 88.6677 1257.29 88.9412 1256.14 88.9412C1255.02 88.9412 1254.03 88.6677 1253.16 88.1208C1252.3 87.5675 1251.62 86.783 1251.14 85.7673C1250.67 84.7452 1250.42 83.5636 1250.41 82.2224V81.197C1250.41 79.8298 1250.65 78.6222 1251.12 77.574C1251.6 76.5258 1252.27 75.725 1253.13 75.1716C1254.01 74.6117 1255 74.3318 1256.12 74.3318C1257.26 74.3318 1258.26 74.6085 1259.13 75.1619C1260 75.7087 1260.67 76.5063 1261.14 77.5544C1261.61 78.5961 1261.84 79.8103 1261.84 81.197V82.0955ZM1259.98 81.1775C1259.98 79.4913 1259.64 78.199 1258.96 77.3005C1258.29 76.3956 1257.34 75.9431 1256.12 75.9431C1254.94 75.9431 1254 76.3956 1253.32 77.3005C1252.64 78.199 1252.29 79.449 1252.27 81.0505V82.0955C1252.27 83.7296 1252.62 85.0154 1253.3 85.9529C1253.99 86.8839 1254.94 87.3494 1256.14 87.3494C1257.35 87.3494 1258.29 86.9099 1258.95 86.031C1259.62 85.1456 1259.96 83.8793 1259.98 82.2322V81.1775ZM1265.26 88.7458V79.5759H1263.59V78.1794H1265.26V77.0955C1265.26 75.9626 1265.56 75.087 1266.17 74.4685C1266.78 73.85 1267.63 73.5408 1268.74 73.5408C1269.16 73.5408 1269.57 73.5961 1269.98 73.7068L1269.88 75.1716C1269.58 75.113 1269.25 75.0837 1268.9 75.0837C1268.32 75.0837 1267.87 75.2563 1267.55 75.6013C1267.23 75.9399 1267.07 76.4281 1267.07 77.0662V78.1794H1269.32V79.5759H1267.07V88.7458H1265.26ZM1277.99 78.1794L1278.04 79.3513C1278.81 78.4399 1279.86 77.9841 1281.17 77.9841C1282.65 77.9841 1283.65 78.5505 1284.19 79.6833C1284.54 79.1755 1285 78.7654 1285.55 78.4529C1286.12 78.1404 1286.79 77.9841 1287.56 77.9841C1289.87 77.9841 1291.05 79.2113 1291.09 81.6658V88.7458H1289.29V81.7732C1289.29 81.018 1289.11 80.4548 1288.77 80.0837C1288.42 79.7061 1287.84 79.5173 1287.03 79.5173C1286.36 79.5173 1285.8 79.7192 1285.36 80.1228C1284.92 80.5199 1284.66 81.057 1284.59 81.7341V88.7458H1282.77V81.822C1282.77 80.2856 1282.02 79.5173 1280.52 79.5173C1279.33 79.5173 1278.52 80.0219 1278.08 81.031V88.7458H1276.28V78.1794H1277.99ZM1295.79 88.7458H1293.98V78.1794H1295.79V88.7458ZM1293.84 75.3767C1293.84 75.0837 1293.92 74.8363 1294.1 74.6345C1294.28 74.4327 1294.55 74.3318 1294.9 74.3318C1295.25 74.3318 1295.52 74.4327 1295.7 74.6345C1295.88 74.8363 1295.97 75.0837 1295.97 75.3767C1295.97 75.6697 1295.88 75.9138 1295.7 76.1091C1295.52 76.3044 1295.25 76.4021 1294.9 76.4021C1294.55 76.4021 1294.28 76.3044 1294.1 76.1091C1293.92 75.9138 1293.84 75.6697 1293.84 75.3767ZM1300.65 88.7458H1298.85V73.7458H1300.65V88.7458ZM1305.52 88.7458H1303.71V73.7458H1305.52V88.7458ZM1310.38 88.7458H1308.57V78.1794H1310.38V88.7458ZM1308.43 75.3767C1308.43 75.0837 1308.51 74.8363 1308.69 74.6345C1308.87 74.4327 1309.14 74.3318 1309.49 74.3318C1309.84 74.3318 1310.11 74.4327 1310.29 74.6345C1310.47 74.8363 1310.56 75.0837 1310.56 75.3767C1310.56 75.6697 1310.47 75.9138 1310.29 76.1091C1310.11 76.3044 1309.84 76.4021 1309.49 76.4021C1309.14 76.4021 1308.87 76.3044 1308.69 76.1091C1308.51 75.9138 1308.43 75.6697 1308.43 75.3767ZM1312.8 83.365C1312.8 82.3298 1313 81.3988 1313.41 80.572C1313.82 79.7452 1314.38 79.1072 1315.11 78.658C1315.83 78.2087 1316.66 77.9841 1317.6 77.9841C1319.03 77.9841 1320.2 78.4822 1321.08 79.4783C1321.97 80.4744 1322.42 81.7992 1322.42 83.4529V83.5798C1322.42 84.6085 1322.22 85.533 1321.82 86.3533C1321.43 87.1671 1320.87 87.8018 1320.14 88.2576C1319.41 88.7133 1318.57 88.9412 1317.62 88.9412C1316.18 88.9412 1315.02 88.4431 1314.13 87.447C1313.24 86.4509 1312.8 85.1326 1312.8 83.4919V83.365ZM1314.62 83.5798C1314.62 84.7517 1314.89 85.6925 1315.43 86.4021C1315.97 87.1117 1316.7 87.4666 1317.62 87.4666C1318.53 87.4666 1319.26 87.1085 1319.8 86.3923C1320.34 85.6697 1320.61 84.6606 1320.61 83.365C1320.61 82.2061 1320.34 81.2686 1319.78 80.5525C1319.24 79.8298 1318.51 79.4685 1317.6 79.4685C1316.7 79.4685 1315.98 79.8233 1315.44 80.533C1314.89 81.2426 1314.62 82.2582 1314.62 83.5798ZM1326.39 78.1794L1326.45 79.5076C1327.26 78.4919 1328.32 77.9841 1329.62 77.9841C1331.85 77.9841 1332.98 79.2439 1333 81.7634V88.7458H1331.19V81.7537C1331.18 80.9919 1331.01 80.4288 1330.66 80.0642C1330.32 79.6996 1329.79 79.5173 1329.07 79.5173C1328.48 79.5173 1327.97 79.6736 1327.53 79.9861C1327.08 80.2986 1326.74 80.7087 1326.49 81.2166V88.7458H1324.69V78.1794H1326.39ZM1341.87 85.9431C1341.87 85.4548 1341.69 85.0772 1341.32 84.8103C1340.95 84.5369 1340.31 84.3025 1339.39 84.1072C1338.48 83.9119 1337.76 83.6775 1337.22 83.4041C1336.68 83.1306 1336.28 82.8051 1336.02 82.4275C1335.77 82.0499 1335.64 81.6007 1335.64 81.0798C1335.64 80.2139 1336.01 79.4815 1336.74 78.8826C1337.47 78.2836 1338.41 77.9841 1339.55 77.9841C1340.75 77.9841 1341.72 78.2934 1342.46 78.9119C1343.21 79.5304 1343.58 80.3214 1343.58 81.2849H1341.77C1341.77 80.7901 1341.55 80.3637 1341.13 80.0056C1340.71 79.6475 1340.19 79.4685 1339.55 79.4685C1338.89 79.4685 1338.38 79.6117 1338.01 79.8982C1337.64 80.1847 1337.45 80.559 1337.45 81.0212C1337.45 81.4574 1337.62 81.7862 1337.97 82.0076C1338.31 82.2289 1338.93 82.4405 1339.83 82.6423C1340.74 82.8442 1341.47 83.085 1342.03 83.365C1342.59 83.6449 1343 83.9835 1343.27 84.3806C1343.54 84.7712 1343.68 85.2498 1343.68 85.8162C1343.68 86.7602 1343.3 87.5186 1342.55 88.0916C1341.79 88.658 1340.81 88.9412 1339.61 88.9412C1338.76 88.9412 1338.01 88.7914 1337.36 88.4919C1336.71 88.1925 1336.2 87.7758 1335.83 87.2419C1335.46 86.7016 1335.28 86.1189 1335.28 85.4939H1337.09C1337.12 86.0994 1337.36 86.5811 1337.81 86.9392C1338.27 87.2908 1338.87 87.4666 1339.61 87.4666C1340.29 87.4666 1340.84 87.3298 1341.25 87.0564C1341.66 86.7764 1341.87 86.4054 1341.87 85.9431ZM1350.55 83.3748C1350.55 81.7537 1350.94 80.4516 1351.71 79.4685C1352.48 78.4789 1353.48 77.9841 1354.72 77.9841C1355.96 77.9841 1356.94 78.4073 1357.66 79.2537V73.7458H1359.47V88.7458H1357.81L1357.72 87.613C1357 88.4985 1355.99 88.9412 1354.71 88.9412C1353.48 88.9412 1352.48 88.4399 1351.71 87.4373C1350.94 86.4347 1350.55 85.1261 1350.55 83.5115V83.3748ZM1352.36 83.5798C1352.36 84.7778 1352.61 85.7153 1353.1 86.3923C1353.6 87.0694 1354.28 87.408 1355.15 87.408C1356.3 87.408 1357.14 86.8936 1357.66 85.865V81.0115C1357.12 80.0154 1356.29 79.5173 1355.17 79.5173C1354.29 79.5173 1353.6 79.8591 1353.1 80.5427C1352.61 81.2263 1352.36 82.2387 1352.36 83.5798ZM1361.8 83.365C1361.8 82.3298 1362.01 81.3988 1362.41 80.572C1362.82 79.7452 1363.39 79.1072 1364.11 78.658C1364.84 78.2087 1365.67 77.9841 1366.6 77.9841C1368.04 77.9841 1369.2 78.4822 1370.09 79.4783C1370.98 80.4744 1371.42 81.7992 1371.42 83.4529V83.5798C1371.42 84.6085 1371.23 85.533 1370.83 86.3533C1370.44 87.1671 1369.87 87.8018 1369.14 88.2576C1368.41 88.7133 1367.57 88.9412 1366.62 88.9412C1365.19 88.9412 1364.02 88.4431 1363.13 87.447C1362.25 86.4509 1361.8 85.1326 1361.8 83.4919V83.365ZM1363.62 83.5798C1363.62 84.7517 1363.89 85.6925 1364.43 86.4021C1364.98 87.1117 1365.71 87.4666 1366.62 87.4666C1367.54 87.4666 1368.27 87.1085 1368.81 86.3923C1369.35 85.6697 1369.62 84.6606 1369.62 83.365C1369.62 82.2061 1369.34 81.2686 1368.79 80.5525C1368.24 79.8298 1367.51 79.4685 1366.6 79.4685C1365.71 79.4685 1364.99 79.8233 1364.44 80.533C1363.89 81.2426 1363.62 82.2582 1363.62 83.5798ZM1377.93 87.4666C1378.57 87.4666 1379.14 87.2712 1379.62 86.8806C1380.1 86.49 1380.37 86.0017 1380.42 85.4158H1382.13C1382.09 86.0212 1381.89 86.5974 1381.5 87.1443C1381.12 87.6912 1380.6 88.1274 1379.96 88.4529C1379.32 88.7784 1378.64 88.9412 1377.93 88.9412C1376.49 88.9412 1375.34 88.4626 1374.49 87.5056C1373.64 86.5421 1373.22 85.227 1373.22 83.5603V83.2576C1373.22 82.2289 1373.41 81.3142 1373.79 80.5134C1374.16 79.7126 1374.71 79.0909 1375.41 78.6482C1376.12 78.2055 1376.95 77.9841 1377.92 77.9841C1379.1 77.9841 1380.09 78.3389 1380.87 79.0486C1381.66 79.7582 1382.08 80.6794 1382.13 81.8123H1380.42C1380.37 81.1287 1380.11 80.5688 1379.64 80.1326C1379.17 79.6899 1378.6 79.4685 1377.92 79.4685C1377 79.4685 1376.29 79.8005 1375.78 80.4646C1375.28 81.1222 1375.03 82.0759 1375.03 83.3259V83.6677C1375.03 84.8852 1375.28 85.8227 1375.78 86.4802C1376.28 87.1378 1377 87.4666 1377.93 87.4666ZM1386.61 75.6208V78.1794H1388.58V79.5759H1386.61V86.1287C1386.61 86.5518 1386.7 86.8708 1386.87 87.0857C1387.05 87.294 1387.35 87.3982 1387.77 87.3982C1387.98 87.3982 1388.27 87.3591 1388.63 87.281V88.7458C1388.16 88.8761 1387.69 88.9412 1387.24 88.9412C1386.44 88.9412 1385.83 88.697 1385.42 88.2087C1385.01 87.7205 1384.8 87.0271 1384.8 86.1287V79.5759H1382.88V78.1794H1384.8V75.6208H1386.61ZM1390.03 83.365C1390.03 82.3298 1390.23 81.3988 1390.63 80.572C1391.04 79.7452 1391.61 79.1072 1392.33 78.658C1393.06 78.2087 1393.89 77.9841 1394.82 77.9841C1396.26 77.9841 1397.42 78.4822 1398.31 79.4783C1399.2 80.4744 1399.65 81.7992 1399.65 83.4529V83.5798C1399.65 84.6085 1399.45 85.533 1399.05 86.3533C1398.66 87.1671 1398.1 87.8018 1397.36 88.2576C1396.63 88.7133 1395.79 88.9412 1394.84 88.9412C1393.41 88.9412 1392.25 88.4431 1391.36 87.447C1390.47 86.4509 1390.03 85.1326 1390.03 83.4919V83.365ZM1391.84 83.5798C1391.84 84.7517 1392.11 85.6925 1392.65 86.4021C1393.2 87.1117 1393.93 87.4666 1394.84 87.4666C1395.76 87.4666 1396.49 87.1085 1397.03 86.3923C1397.57 85.6697 1397.84 84.6606 1397.84 83.365C1397.84 82.2061 1397.56 81.2686 1397.01 80.5525C1396.46 79.8298 1395.73 79.4685 1394.82 79.4685C1393.93 79.4685 1393.21 79.8233 1392.66 80.533C1392.12 81.2426 1391.84 82.2582 1391.84 83.5798ZM1407.02 79.8005C1406.75 79.755 1406.45 79.7322 1406.13 79.7322C1404.95 79.7322 1404.14 80.2367 1403.72 81.2458V88.7458H1401.91V78.1794H1403.67L1403.7 79.4001C1404.29 78.4561 1405.13 77.9841 1406.22 77.9841C1406.57 77.9841 1406.84 78.0297 1407.02 78.1208V79.8005ZM1414.84 85.9431C1414.84 85.4548 1414.66 85.0772 1414.29 84.8103C1413.92 84.5369 1413.28 84.3025 1412.36 84.1072C1411.45 83.9119 1410.72 83.6775 1410.18 83.4041C1409.65 83.1306 1409.25 82.8051 1408.99 82.4275C1408.74 82.0499 1408.61 81.6007 1408.61 81.0798C1408.61 80.2139 1408.98 79.4815 1409.71 78.8826C1410.44 78.2836 1411.38 77.9841 1412.52 77.9841C1413.72 77.9841 1414.69 78.2934 1415.43 78.9119C1416.18 79.5304 1416.55 80.3214 1416.55 81.2849H1414.73C1414.73 80.7901 1414.52 80.3637 1414.1 80.0056C1413.68 79.6475 1413.16 79.4685 1412.52 79.4685C1411.86 79.4685 1411.35 79.6117 1410.97 79.8982C1410.6 80.1847 1410.42 80.559 1410.42 81.0212C1410.42 81.4574 1410.59 81.7862 1410.94 82.0076C1411.28 82.2289 1411.9 82.4405 1412.8 82.6423C1413.71 82.8442 1414.44 83.085 1415 83.365C1415.56 83.6449 1415.97 83.9835 1416.24 84.3806C1416.51 84.7712 1416.65 85.2498 1416.65 85.8162C1416.65 86.7602 1416.27 87.5186 1415.52 88.0916C1414.76 88.658 1413.78 88.9412 1412.58 88.9412C1411.73 88.9412 1410.98 88.7914 1410.33 88.4919C1409.68 88.1925 1409.17 87.7758 1408.8 87.2419C1408.43 86.7016 1408.25 86.1189 1408.25 85.4939H1410.06C1410.09 86.0994 1410.33 86.5811 1410.78 86.9392C1411.24 87.2908 1411.83 87.4666 1412.58 87.4666C1413.26 87.4666 1413.81 87.3298 1414.22 87.0564C1414.63 86.7764 1414.84 86.4054 1414.84 85.9431ZM1284.02 117.746C1283.92 117.538 1283.83 117.166 1283.77 116.633C1282.93 117.505 1281.93 117.941 1280.76 117.941C1279.72 117.941 1278.86 117.648 1278.19 117.062C1277.53 116.47 1277.2 115.721 1277.2 114.816C1277.2 113.716 1277.61 112.863 1278.45 112.258C1279.29 111.646 1280.46 111.34 1281.98 111.34H1283.74V110.51C1283.74 109.878 1283.55 109.377 1283.17 109.006C1282.79 108.628 1282.24 108.439 1281.5 108.439C1280.86 108.439 1280.32 108.602 1279.88 108.927C1279.44 109.253 1279.23 109.647 1279.23 110.109H1277.41C1277.41 109.582 1277.6 109.074 1277.97 108.586C1278.34 108.091 1278.85 107.7 1279.49 107.414C1280.14 107.127 1280.84 106.984 1281.61 106.984C1282.83 106.984 1283.78 107.29 1284.47 107.902C1285.16 108.508 1285.52 109.344 1285.55 110.412V115.275C1285.55 116.245 1285.67 117.017 1285.92 117.59V117.746H1284.02ZM1281.02 116.369C1281.59 116.369 1282.13 116.222 1282.64 115.929C1283.14 115.636 1283.51 115.256 1283.74 114.787V112.619H1282.32C1280.11 112.619 1279 113.267 1279 114.562C1279 115.129 1279.19 115.571 1279.57 115.89C1279.95 116.209 1280.43 116.369 1281.02 116.369ZM1290.09 107.179L1290.14 108.508C1290.95 107.492 1292.01 106.984 1293.31 106.984C1295.54 106.984 1296.67 108.244 1296.69 110.763V117.746H1294.88V110.754C1294.87 109.992 1294.7 109.429 1294.35 109.064C1294.02 108.7 1293.48 108.517 1292.76 108.517C1292.18 108.517 1291.66 108.674 1291.22 108.986C1290.78 109.299 1290.43 109.709 1290.18 110.217V117.746H1288.38V107.179H1290.09ZM1298.97 112.375C1298.97 110.754 1299.36 109.452 1300.13 108.469C1300.89 107.479 1301.9 106.984 1303.14 106.984C1304.38 106.984 1305.36 107.407 1306.08 108.254V102.746H1307.89V117.746H1306.23L1306.14 116.613C1305.42 117.498 1304.41 117.941 1303.12 117.941C1301.9 117.941 1300.9 117.44 1300.13 116.437C1299.36 115.435 1298.97 114.126 1298.97 112.511V112.375ZM1300.78 112.58C1300.78 113.778 1301.03 114.715 1301.52 115.392C1302.02 116.069 1302.7 116.408 1303.57 116.408C1304.72 116.408 1305.55 115.894 1306.08 114.865V110.011C1305.54 109.015 1304.71 108.517 1303.59 108.517C1302.71 108.517 1302.02 108.859 1301.52 109.543C1301.03 110.226 1300.78 111.239 1300.78 112.58ZM1317.47 108.459C1318.27 107.476 1319.31 106.984 1320.59 106.984C1322.83 106.984 1323.95 108.244 1323.97 110.763V117.746H1322.17V110.754C1322.16 109.992 1321.98 109.429 1321.64 109.064C1321.3 108.7 1320.77 108.517 1320.05 108.517C1319.46 108.517 1318.95 108.674 1318.5 108.986C1318.06 109.299 1317.72 109.709 1317.47 110.217V117.746H1315.66V102.746H1317.47V108.459ZM1326.2 112.365C1326.2 111.33 1326.4 110.399 1326.8 109.572C1327.22 108.745 1327.78 108.107 1328.5 107.658C1329.23 107.209 1330.06 106.984 1330.99 106.984C1332.43 106.984 1333.6 107.482 1334.48 108.478C1335.37 109.474 1335.82 110.799 1335.82 112.453V112.58C1335.82 113.608 1335.62 114.533 1335.22 115.353C1334.83 116.167 1334.27 116.802 1333.53 117.258C1332.8 117.713 1331.96 117.941 1331.01 117.941C1329.58 117.941 1328.42 117.443 1327.53 116.447C1326.64 115.451 1326.2 114.133 1326.2 112.492V112.365ZM1328.02 112.58C1328.02 113.752 1328.29 114.692 1328.83 115.402C1329.37 116.112 1330.1 116.467 1331.01 116.467C1331.93 116.467 1332.66 116.108 1333.2 115.392C1333.74 114.67 1334.01 113.661 1334.01 112.365C1334.01 111.206 1333.74 110.269 1333.18 109.552C1332.64 108.83 1331.91 108.469 1330.99 108.469C1330.1 108.469 1329.38 108.823 1328.84 109.533C1328.29 110.243 1328.02 111.258 1328.02 112.58ZM1344.24 114.943C1344.24 114.455 1344.05 114.077 1343.68 113.81C1343.32 113.537 1342.67 113.302 1341.76 113.107C1340.84 112.912 1340.12 112.677 1339.58 112.404C1339.04 112.131 1338.65 111.805 1338.39 111.427C1338.13 111.05 1338.01 110.601 1338.01 110.08C1338.01 109.214 1338.37 108.482 1339.1 107.883C1339.84 107.284 1340.77 106.984 1341.91 106.984C1343.11 106.984 1344.08 107.293 1344.82 107.912C1345.57 108.53 1345.95 109.321 1345.95 110.285H1344.13C1344.13 109.79 1343.92 109.364 1343.49 109.006C1343.08 108.648 1342.55 108.469 1341.91 108.469C1341.25 108.469 1340.74 108.612 1340.37 108.898C1340 109.185 1339.81 109.559 1339.81 110.021C1339.81 110.457 1339.99 110.786 1340.33 111.008C1340.68 111.229 1341.3 111.441 1342.2 111.642C1343.1 111.844 1343.83 112.085 1344.39 112.365C1344.95 112.645 1345.37 112.983 1345.63 113.381C1345.91 113.771 1346.04 114.25 1346.04 114.816C1346.04 115.76 1345.67 116.519 1344.91 117.092C1344.16 117.658 1343.18 117.941 1341.97 117.941C1341.12 117.941 1340.38 117.791 1339.72 117.492C1339.07 117.192 1338.56 116.776 1338.19 116.242C1337.83 115.702 1337.64 115.119 1337.64 114.494H1339.45C1339.48 115.099 1339.72 115.581 1340.17 115.939C1340.63 116.291 1341.23 116.467 1341.97 116.467C1342.65 116.467 1343.2 116.33 1343.61 116.056C1344.03 115.776 1344.24 115.405 1344.24 114.943ZM1357.32 112.58C1357.32 114.188 1356.95 115.483 1356.22 116.467C1355.48 117.45 1354.49 117.941 1353.23 117.941C1351.95 117.941 1350.94 117.534 1350.2 116.72V121.808H1348.4V107.179H1350.05L1350.14 108.351C1350.87 107.44 1351.89 106.984 1353.2 106.984C1354.47 106.984 1355.47 107.463 1356.21 108.42C1356.95 109.377 1357.32 110.708 1357.32 112.414V112.58ZM1355.52 112.375C1355.52 111.183 1355.26 110.243 1354.75 109.552C1354.25 108.862 1353.55 108.517 1352.66 108.517C1351.57 108.517 1350.75 109.002 1350.2 109.972V115.021C1350.74 115.985 1351.57 116.467 1352.68 116.467C1353.55 116.467 1354.24 116.125 1354.74 115.441C1355.26 114.751 1355.52 113.729 1355.52 112.375ZM1361.59 117.746H1359.78V107.179H1361.59V117.746ZM1359.64 104.377C1359.64 104.084 1359.72 103.836 1359.9 103.635C1360.08 103.433 1360.35 103.332 1360.7 103.332C1361.05 103.332 1361.32 103.433 1361.5 103.635C1361.68 103.836 1361.78 104.084 1361.78 104.377C1361.78 104.67 1361.68 104.914 1361.5 105.109C1361.32 105.304 1361.05 105.402 1360.7 105.402C1360.35 105.402 1360.08 105.304 1359.9 105.109C1359.72 104.914 1359.64 104.67 1359.64 104.377ZM1366.94 104.621V107.179H1368.91V108.576H1366.94V115.129C1366.94 115.552 1367.03 115.871 1367.21 116.086C1367.38 116.294 1367.68 116.398 1368.1 116.398C1368.31 116.398 1368.6 116.359 1368.96 116.281V117.746C1368.49 117.876 1368.03 117.941 1367.58 117.941C1366.77 117.941 1366.16 117.697 1365.75 117.209C1365.34 116.72 1365.14 116.027 1365.14 115.129V108.576H1363.21V107.179H1365.14V104.621H1366.94ZM1377.56 117.746C1377.45 117.538 1377.37 117.166 1377.3 116.633C1376.46 117.505 1375.46 117.941 1374.3 117.941C1373.25 117.941 1372.4 117.648 1371.73 117.062C1371.06 116.47 1370.73 115.721 1370.73 114.816C1370.73 113.716 1371.15 112.863 1371.98 112.258C1372.82 111.646 1374 111.34 1375.52 111.34H1377.27V110.51C1377.27 109.878 1377.08 109.377 1376.71 109.006C1376.33 108.628 1375.77 108.439 1375.04 108.439C1374.39 108.439 1373.85 108.602 1373.42 108.927C1372.98 109.253 1372.76 109.647 1372.76 110.109H1370.95C1370.95 109.582 1371.13 109.074 1371.5 108.586C1371.88 108.091 1372.39 107.7 1373.03 107.414C1373.67 107.127 1374.38 106.984 1375.14 106.984C1376.36 106.984 1377.32 107.29 1378.01 107.902C1378.7 108.508 1379.05 109.344 1379.08 110.412V115.275C1379.08 116.245 1379.2 117.017 1379.45 117.59V117.746H1377.56ZM1374.56 116.369C1375.13 116.369 1375.66 116.222 1376.17 115.929C1376.68 115.636 1377.05 115.256 1377.27 114.787V112.619H1375.86C1373.64 112.619 1372.54 113.267 1372.54 114.562C1372.54 115.129 1372.73 115.571 1373.1 115.89C1373.48 116.209 1373.97 116.369 1374.56 116.369ZM1383.88 117.746H1382.07V102.746H1383.88V117.746ZM1392.93 114.943C1392.93 114.455 1392.74 114.077 1392.37 113.81C1392.01 113.537 1391.37 113.302 1390.45 113.107C1389.54 112.912 1388.81 112.677 1388.27 112.404C1387.74 112.131 1387.34 111.805 1387.08 111.427C1386.82 111.05 1386.7 110.601 1386.7 110.08C1386.7 109.214 1387.06 108.482 1387.79 107.883C1388.53 107.284 1389.46 106.984 1390.6 106.984C1391.8 106.984 1392.77 107.293 1393.51 107.912C1394.26 108.53 1394.64 109.321 1394.64 110.285H1392.82C1392.82 109.79 1392.61 109.364 1392.19 109.006C1391.77 108.648 1391.24 108.469 1390.6 108.469C1389.95 108.469 1389.43 108.612 1389.06 108.898C1388.69 109.185 1388.5 109.559 1388.5 110.021C1388.5 110.457 1388.68 110.786 1389.02 111.008C1389.37 111.229 1389.99 111.441 1390.89 111.642C1391.79 111.844 1392.52 112.085 1393.08 112.365C1393.64 112.645 1394.06 112.983 1394.32 113.381C1394.6 113.771 1394.73 114.25 1394.73 114.816C1394.73 115.76 1394.36 116.519 1393.6 117.092C1392.85 117.658 1391.87 117.941 1390.66 117.941C1389.82 117.941 1389.07 117.791 1388.42 117.492C1387.77 117.192 1387.25 116.776 1386.88 116.242C1386.52 115.702 1386.34 115.119 1386.34 114.494H1388.14C1388.18 115.099 1388.42 115.581 1388.87 115.939C1389.32 116.291 1389.92 116.467 1390.66 116.467C1391.35 116.467 1391.89 116.33 1392.3 116.056C1392.72 115.776 1392.93 115.405 1392.93 114.943Z" fill="white"/>
<path d="M321.25 84.1468C321.835 83.5611 321.835 82.6113 321.25 82.0255L311.704 72.4796C311.118 71.8938 310.168 71.8938 309.582 72.4796C308.997 73.0654 308.997 74.0151 309.582 74.6009L318.068 83.0862L309.582 91.5715C308.997 92.1572 308.997 93.107 309.582 93.6928C310.168 94.2786 311.118 94.2786 311.704 93.6928L321.25 84.1468ZM263.252 84.5862H320.189V81.5862H263.252V84.5862Z" fill="#626A84"/>
<path d="M1174.08 80.0611C1174.66 79.4754 1174.66 78.5256 1174.08 77.9398L1164.53 68.3939C1163.94 67.8081 1162.99 67.8081 1162.41 68.3939C1161.82 68.9797 1161.82 69.9294 1162.41 70.5152L1170.89 79.0005L1162.41 87.4858C1161.82 88.0716 1161.82 89.0213 1162.41 89.6071C1162.99 90.1929 1163.94 90.1929 1164.53 89.6071L1174.08 80.0611ZM1162.12 80.5005L1173.01 80.5005L1173.01 77.5005L1162.13 77.5005L1162.12 80.5005Z" fill="#626A84"/>
<path d="M822.016 133.841C822.601 134.426 823.551 134.426 824.137 133.841L833.683 124.295C834.269 123.709 834.269 122.759 833.683 122.173C833.097 121.588 832.147 121.588 831.561 122.173L823.076 130.659L814.591 122.173C814.005 121.588 813.055 121.588 812.47 122.173C811.884 122.759 811.884 123.709 812.47 124.295L822.016 133.841ZM821.576 121.89L821.576 132.78L824.576 132.78L824.576 121.89L821.576 121.89Z" fill="#626A84"/>
<path d="M714.36 179.676C714.946 179.09 714.946 178.141 714.36 177.555L704.815 168.009C704.229 167.423 703.279 167.423 702.693 168.009C702.107 168.595 702.107 169.545 702.693 170.13L711.178 178.616L702.693 187.101C702.107 187.687 702.107 188.636 702.693 189.222C703.279 189.808 704.229 189.808 704.815 189.222L714.36 179.676ZM702.41 180.116H713.3V177.116H702.41V180.116Z" fill="#626A84"/>
<path d="M1303.18 158.916C1302.6 158.331 1301.65 158.331 1301.06 158.916L1291.51 168.462C1290.93 169.048 1290.93 169.998 1291.51 170.584C1292.1 171.169 1293.05 171.169 1293.64 170.584L1302.12 162.098L1310.61 170.584C1311.19 171.169 1312.14 171.169 1312.73 170.584C1313.31 169.998 1313.31 169.048 1312.73 168.462L1303.18 158.916ZM1303.62 170.867L1303.62 159.977L1300.62 159.977L1300.62 170.867L1303.62 170.867Z" fill="#626A84"/>
<path d="M1391.88 158.916C1391.3 158.331 1390.35 158.331 1389.76 158.916L1380.22 168.462C1379.63 169.048 1379.63 169.998 1380.22 170.584C1380.8 171.169 1381.75 171.169 1382.34 170.584L1390.82 162.098L1399.31 170.584C1399.9 171.169 1400.85 171.169 1401.43 170.584C1402.02 169.998 1402.02 169.048 1401.43 168.462L1391.88 158.916ZM1392.32 170.867L1392.32 159.977L1389.32 159.977L1389.32 170.867L1392.32 170.867Z" fill="#626A84"/>
<path d="M185.074 108.555V178.615H702.408" stroke="#626A84" stroke-width="3"/>
<path d="M639.57 79.0005H823.101M823.101 79.0005V121.891M823.101 79.0005H1162.12" stroke="#626A84" stroke-width="3"/>
<path d="M286.659 59.0706V61.6292H288.632V63.0256H286.659V69.5784C286.659 70.0015 286.747 70.3206 286.923 70.5354C287.099 70.7437 287.398 70.8479 287.821 70.8479C288.03 70.8479 288.316 70.8088 288.681 70.7307V72.1956C288.206 72.3258 287.743 72.3909 287.294 72.3909C286.487 72.3909 285.878 72.1467 285.468 71.6584C285.058 71.1702 284.853 70.4768 284.853 69.5784V63.0256H282.929V61.6292H284.853V59.0706H286.659ZM290.077 66.8147C290.077 65.7795 290.279 64.8486 290.683 64.0217C291.093 63.1949 291.659 62.5569 292.382 62.1077C293.111 61.6584 293.941 61.4338 294.872 61.4338C296.311 61.4338 297.473 61.9319 298.359 62.928C299.25 63.9241 299.696 65.2489 299.696 66.9026V67.0295C299.696 68.0582 299.498 68.9827 299.101 69.803C298.71 70.6168 298.147 71.2515 297.411 71.7073C296.682 72.163 295.842 72.3909 294.892 72.3909C293.459 72.3909 292.297 71.8928 291.405 70.8967C290.52 69.9006 290.077 68.5823 290.077 66.9417V66.8147ZM291.894 67.0295C291.894 68.2014 292.164 69.1422 292.704 69.8518C293.251 70.5614 293.98 70.9163 294.892 70.9163C295.81 70.9163 296.539 70.5582 297.079 69.842C297.62 69.1194 297.89 68.1103 297.89 66.8147C297.89 65.6558 297.613 64.7183 297.06 64.0022C296.513 63.2795 295.784 62.9182 294.872 62.9182C293.98 62.9182 293.261 63.273 292.714 63.9827C292.167 64.6923 291.894 65.7079 291.894 67.0295Z" fill="#626A84"/>
<path d="M591.813 240.353V242.912H593.785V244.308H591.813V250.861C591.813 251.284 591.901 251.603 592.076 251.818C592.252 252.027 592.552 252.131 592.975 252.131C593.183 252.131 593.47 252.092 593.834 252.014V253.478C593.359 253.609 592.897 253.674 592.448 253.674C591.64 253.674 591.032 253.43 590.621 252.941C590.211 252.453 590.006 251.76 590.006 250.861V244.308H588.082V242.912H590.006V240.353H591.813ZM595.231 248.098C595.231 247.062 595.433 246.131 595.836 245.305C596.246 244.478 596.813 243.84 597.535 243.391C598.265 242.941 599.095 242.717 600.026 242.717C601.464 242.717 602.627 243.215 603.512 244.211C604.404 245.207 604.85 246.532 604.85 248.185V248.312C604.85 249.341 604.651 250.266 604.254 251.086C603.864 251.9 603.3 252.534 602.565 252.99C601.836 253.446 600.996 253.674 600.045 253.674C598.613 253.674 597.451 253.176 596.559 252.18C595.673 251.183 595.231 249.865 595.231 248.224V248.098ZM597.047 248.312C597.047 249.484 597.317 250.425 597.858 251.135C598.405 251.844 599.134 252.199 600.045 252.199C600.963 252.199 601.692 251.841 602.233 251.125C602.773 250.402 603.043 249.393 603.043 248.098C603.043 246.939 602.767 246.001 602.213 245.285C601.666 244.562 600.937 244.201 600.026 244.201C599.134 244.201 598.414 244.556 597.867 245.266C597.321 245.975 597.047 246.991 597.047 248.312ZM618.229 250.676C618.229 250.187 618.043 249.81 617.672 249.543C617.308 249.269 616.666 249.035 615.748 248.84C614.837 248.644 614.111 248.41 613.571 248.137C613.037 247.863 612.64 247.538 612.379 247.16C612.125 246.782 611.998 246.333 611.998 245.812C611.998 244.946 612.363 244.214 613.092 243.615C613.828 243.016 614.765 242.717 615.905 242.717C617.102 242.717 618.073 243.026 618.815 243.644C619.563 244.263 619.938 245.054 619.938 246.017H618.121C618.121 245.523 617.91 245.096 617.487 244.738C617.07 244.38 616.543 244.201 615.905 244.201C615.247 244.201 614.733 244.344 614.362 244.631C613.99 244.917 613.805 245.292 613.805 245.754C613.805 246.19 613.977 246.519 614.323 246.74C614.668 246.961 615.289 247.173 616.188 247.375C617.093 247.577 617.825 247.818 618.385 248.098C618.945 248.377 619.358 248.716 619.625 249.113C619.899 249.504 620.035 249.982 620.035 250.549C620.035 251.493 619.658 252.251 618.903 252.824C618.147 253.391 617.168 253.674 615.963 253.674C615.117 253.674 614.368 253.524 613.717 253.224C613.066 252.925 612.555 252.508 612.184 251.974C611.819 251.434 611.637 250.851 611.637 250.226H613.444C613.476 250.832 613.717 251.314 614.166 251.672C614.622 252.023 615.221 252.199 615.963 252.199C616.647 252.199 617.194 252.062 617.604 251.789C618.02 251.509 618.229 251.138 618.229 250.676ZM631.315 248.312C631.315 249.92 630.947 251.216 630.211 252.199C629.476 253.182 628.479 253.674 627.223 253.674C625.94 253.674 624.931 253.267 624.196 252.453V257.541H622.389V242.912H624.039L624.127 244.084C624.863 243.172 625.885 242.717 627.194 242.717C628.463 242.717 629.466 243.195 630.201 244.152C630.944 245.109 631.315 246.441 631.315 248.146V248.312ZM629.508 248.107C629.508 246.916 629.254 245.975 628.746 245.285C628.239 244.595 627.542 244.25 626.657 244.25C625.563 244.25 624.742 244.735 624.196 245.705V250.754C624.736 251.717 625.563 252.199 626.676 252.199C627.542 252.199 628.229 251.857 628.737 251.174C629.251 250.484 629.508 249.461 629.508 248.107ZM638.004 253.674C636.572 253.674 635.407 253.205 634.508 252.267C633.61 251.323 633.16 250.064 633.16 248.488V248.156C633.16 247.108 633.359 246.174 633.756 245.353C634.16 244.527 634.72 243.882 635.436 243.42C636.158 242.951 636.94 242.717 637.78 242.717C639.153 242.717 640.221 243.169 640.983 244.074C641.744 244.979 642.125 246.275 642.125 247.961V248.713H634.967C634.993 249.754 635.296 250.598 635.875 251.242C636.461 251.88 637.203 252.199 638.102 252.199C638.74 252.199 639.28 252.069 639.723 251.808C640.166 251.548 640.553 251.203 640.885 250.773L641.989 251.633C641.103 252.993 639.775 253.674 638.004 253.674ZM637.78 244.201C637.05 244.201 636.438 244.468 635.944 245.002C635.449 245.529 635.143 246.271 635.026 247.228H640.319V247.092C640.267 246.174 640.019 245.464 639.576 244.963C639.134 244.455 638.535 244.201 637.78 244.201ZM648.61 253.674C647.177 253.674 646.012 253.205 645.114 252.267C644.215 251.323 643.766 250.064 643.766 248.488V248.156C643.766 247.108 643.964 246.174 644.362 245.353C644.765 244.527 645.325 243.882 646.041 243.42C646.764 242.951 647.545 242.717 648.385 242.717C649.759 242.717 650.826 243.169 651.588 244.074C652.35 244.979 652.731 246.275 652.731 247.961V248.713H645.573C645.599 249.754 645.901 250.598 646.481 251.242C647.067 251.88 647.809 252.199 648.707 252.199C649.345 252.199 649.886 252.069 650.328 251.808C650.771 251.548 651.158 251.203 651.49 250.773L652.594 251.633C651.709 252.993 650.38 253.674 648.61 253.674ZM648.385 244.201C647.656 244.201 647.044 244.468 646.549 245.002C646.054 245.529 645.748 246.271 645.631 247.228H650.924V247.092C650.872 246.174 650.625 245.464 650.182 244.963C649.739 244.455 649.14 244.201 648.385 244.201ZM654.391 248.107C654.391 246.486 654.775 245.184 655.543 244.201C656.311 243.211 657.317 242.717 658.561 242.717C659.798 242.717 660.778 243.14 661.5 243.986V238.478H663.307V253.478H661.647L661.559 252.346C660.836 253.231 659.83 253.674 658.541 253.674C657.317 253.674 656.318 253.172 655.543 252.17C654.775 251.167 654.391 249.859 654.391 248.244V248.107ZM656.198 248.312C656.198 249.51 656.445 250.448 656.94 251.125C657.435 251.802 658.118 252.141 658.99 252.141C660.136 252.141 660.973 251.626 661.5 250.598V245.744C660.96 244.748 660.13 244.25 659.01 244.25C658.125 244.25 657.435 244.592 656.94 245.275C656.445 245.959 656.198 246.971 656.198 248.312ZM670.699 249.66C670.699 248.976 670.888 248.348 671.266 247.775C671.65 247.202 672.379 246.535 673.453 245.773C672.822 245.005 672.399 244.387 672.184 243.918C671.969 243.449 671.862 242.984 671.862 242.521C671.862 241.441 672.181 240.594 672.819 239.982C673.457 239.37 674.323 239.064 675.416 239.064C676.393 239.064 677.2 239.351 677.838 239.924C678.476 240.49 678.795 241.206 678.795 242.072C678.795 242.645 678.649 243.176 678.356 243.664C678.069 244.146 677.565 244.654 676.842 245.187L675.797 245.959L678.961 249.738C679.404 248.892 679.625 247.951 679.625 246.916H681.256C681.256 248.576 680.856 249.953 680.055 251.047L682.086 253.478H679.918L678.971 252.355C678.489 252.785 677.923 253.114 677.272 253.342C676.627 253.563 675.97 253.674 675.299 253.674C673.912 253.674 672.799 253.306 671.959 252.57C671.119 251.835 670.699 250.864 670.699 249.66ZM675.299 252.199C676.256 252.199 677.132 251.835 677.926 251.105L674.459 246.955L674.137 247.189C673.05 247.99 672.506 248.814 672.506 249.66C672.506 250.428 672.754 251.043 673.248 251.506C673.75 251.968 674.433 252.199 675.299 252.199ZM673.668 242.463C673.668 243.088 674.052 243.869 674.821 244.807L675.973 243.996C676.416 243.683 676.718 243.387 676.881 243.107C677.044 242.821 677.125 242.476 677.125 242.072C677.125 241.636 676.962 241.275 676.637 240.988C676.311 240.695 675.901 240.549 675.407 240.549C674.873 240.549 674.449 240.731 674.137 241.096C673.824 241.454 673.668 241.909 673.668 242.463ZM697.408 248.312C697.408 249.92 697.041 251.216 696.305 252.199C695.569 253.182 694.573 253.674 693.317 253.674C692.034 253.674 691.025 253.267 690.289 252.453V257.541H688.483V242.912H690.133L690.221 244.084C690.957 243.172 691.979 242.717 693.287 242.717C694.557 242.717 695.56 243.195 696.295 244.152C697.037 245.109 697.408 246.441 697.408 248.146V248.312ZM695.602 248.107C695.602 246.916 695.348 245.975 694.84 245.285C694.332 244.595 693.636 244.25 692.75 244.25C691.657 244.25 690.836 244.735 690.289 245.705V250.754C690.83 251.717 691.657 252.199 692.77 252.199C693.636 252.199 694.323 251.857 694.83 251.174C695.345 250.484 695.602 249.461 695.602 248.107ZM704.098 253.674C702.666 253.674 701.5 253.205 700.602 252.267C699.703 251.323 699.254 250.064 699.254 248.488V248.156C699.254 247.108 699.453 246.174 699.85 245.353C700.254 244.527 700.813 243.882 701.53 243.42C702.252 242.951 703.033 242.717 703.873 242.717C705.247 242.717 706.315 243.169 707.076 244.074C707.838 244.979 708.219 246.275 708.219 247.961V248.713H701.061C701.087 249.754 701.39 250.598 701.969 251.242C702.555 251.88 703.297 252.199 704.196 252.199C704.834 252.199 705.374 252.069 705.817 251.808C706.259 251.548 706.647 251.203 706.979 250.773L708.082 251.633C707.197 252.993 705.869 253.674 704.098 253.674ZM703.873 244.201C703.144 244.201 702.532 244.468 702.037 245.002C701.543 245.529 701.237 246.271 701.119 247.228H706.412V247.092C706.36 246.174 706.113 245.464 705.67 244.963C705.227 244.455 704.629 244.201 703.873 244.201ZM715.426 244.533C715.153 244.488 714.856 244.465 714.537 244.465C713.352 244.465 712.548 244.969 712.125 245.978V253.478H710.319V242.912H712.076L712.106 244.133C712.698 243.189 713.538 242.717 714.625 242.717C714.977 242.717 715.244 242.762 715.426 242.853V244.533ZM718.141 253.478V244.308H716.471V242.912H718.141V241.828C718.141 240.695 718.444 239.82 719.049 239.201C719.655 238.583 720.511 238.273 721.617 238.273C722.034 238.273 722.448 238.329 722.858 238.439L722.76 239.904C722.454 239.846 722.129 239.816 721.783 239.816C721.198 239.816 720.745 239.989 720.426 240.334C720.107 240.672 719.948 241.161 719.948 241.799V242.912H722.203V244.308H719.948V253.478H718.141ZM723.727 248.098C723.727 247.062 723.929 246.131 724.332 245.305C724.742 244.478 725.309 243.84 726.032 243.391C726.761 242.941 727.591 242.717 728.522 242.717C729.961 242.717 731.123 243.215 732.008 244.211C732.9 245.207 733.346 246.532 733.346 248.185V248.312C733.346 249.341 733.147 250.266 732.75 251.086C732.36 251.9 731.796 252.534 731.061 252.99C730.332 253.446 729.492 253.674 728.541 253.674C727.109 253.674 725.947 253.176 725.055 252.18C724.17 251.183 723.727 249.865 723.727 248.224V248.098ZM725.543 248.312C725.543 249.484 725.813 250.425 726.354 251.135C726.901 251.844 727.63 252.199 728.541 252.199C729.459 252.199 730.188 251.841 730.729 251.125C731.269 250.402 731.539 249.393 731.539 248.098C731.539 246.939 731.263 246.001 730.709 245.285C730.162 244.562 729.433 244.201 728.522 244.201C727.63 244.201 726.91 244.556 726.364 245.266C725.817 245.975 725.543 246.991 725.543 248.312ZM740.719 244.533C740.446 244.488 740.149 244.465 739.83 244.465C738.645 244.465 737.841 244.969 737.418 245.978V253.478H735.612V242.912H737.369L737.399 244.133C737.991 243.189 738.831 242.717 739.918 242.717C740.27 242.717 740.537 242.762 740.719 242.853V244.533ZM744.088 242.912L744.137 244.084C744.912 243.172 745.957 242.717 747.272 242.717C748.75 242.717 749.755 243.283 750.289 244.416C750.641 243.908 751.097 243.498 751.657 243.185C752.223 242.873 752.89 242.717 753.658 242.717C755.976 242.717 757.155 243.944 757.194 246.398V253.478H755.387V246.506C755.387 245.751 755.214 245.187 754.869 244.816C754.524 244.439 753.945 244.25 753.131 244.25C752.461 244.25 751.904 244.452 751.461 244.855C751.018 245.252 750.761 245.79 750.69 246.467V253.478H748.873V246.555C748.873 245.018 748.121 244.25 746.617 244.25C745.433 244.25 744.622 244.754 744.186 245.764V253.478H742.379V242.912H744.088ZM770.641 253.478H768.824V241.437L765.182 242.775V241.135L770.358 239.191H770.641V253.478ZM784.85 247.414C784.85 249.53 784.489 251.102 783.766 252.131C783.043 253.159 781.914 253.674 780.377 253.674C778.86 253.674 777.737 253.172 777.008 252.17C776.279 251.161 775.901 249.657 775.875 247.658V245.246C775.875 243.156 776.237 241.603 776.959 240.588C777.682 239.572 778.815 239.064 780.358 239.064C781.888 239.064 783.014 239.556 783.737 240.539C784.459 241.516 784.83 243.026 784.85 245.07V247.414ZM783.043 244.943C783.043 243.413 782.828 242.3 782.399 241.603C781.969 240.9 781.289 240.549 780.358 240.549C779.433 240.549 778.759 240.897 778.336 241.594C777.913 242.29 777.695 243.361 777.682 244.807V247.697C777.682 249.234 777.903 250.37 778.346 251.105C778.795 251.835 779.472 252.199 780.377 252.199C781.269 252.199 781.93 251.854 782.36 251.164C782.796 250.474 783.024 249.387 783.043 247.902V244.943ZM794.762 240.353V242.912H796.735V244.308H794.762V250.861C794.762 251.284 794.85 251.603 795.026 251.818C795.201 252.027 795.501 252.131 795.924 252.131C796.132 252.131 796.419 252.092 796.783 252.014V253.478C796.308 253.609 795.846 253.674 795.397 253.674C794.589 253.674 793.981 253.43 793.571 252.941C793.16 252.453 792.955 251.76 792.955 250.861V244.308H791.031V242.912H792.955V240.353H794.762ZM800.817 253.478H799.01V242.912H800.817V253.478ZM798.864 240.109C798.864 239.816 798.951 239.569 799.127 239.367C799.309 239.165 799.576 239.064 799.928 239.064C800.28 239.064 800.546 239.165 800.729 239.367C800.911 239.569 801.002 239.816 801.002 240.109C801.002 240.402 800.911 240.646 800.729 240.842C800.546 241.037 800.28 241.135 799.928 241.135C799.576 241.135 799.309 241.037 799.127 240.842C798.951 240.646 798.864 240.402 798.864 240.109ZM805.416 242.912L805.465 244.084C806.24 243.172 807.285 242.717 808.6 242.717C810.078 242.717 811.084 243.283 811.617 244.416C811.969 243.908 812.425 243.498 812.985 243.185C813.551 242.873 814.218 242.717 814.987 242.717C817.304 242.717 818.483 243.944 818.522 246.398V253.478H816.715V246.506C816.715 245.751 816.543 245.187 816.198 244.816C815.852 244.439 815.273 244.25 814.459 244.25C813.789 244.25 813.232 244.452 812.789 244.855C812.347 245.252 812.089 245.79 812.018 246.467V253.478H810.201V246.555C810.201 245.018 809.449 244.25 807.946 244.25C806.761 244.25 805.95 244.754 805.514 245.764V253.478H803.707V242.912H805.416ZM825.641 253.674C824.209 253.674 823.043 253.205 822.145 252.267C821.246 251.323 820.797 250.064 820.797 248.488V248.156C820.797 247.108 820.996 246.174 821.393 245.353C821.796 244.527 822.356 243.882 823.073 243.42C823.795 242.951 824.576 242.717 825.416 242.717C826.79 242.717 827.858 243.169 828.619 244.074C829.381 244.979 829.762 246.275 829.762 247.961V248.713H822.604C822.63 249.754 822.933 250.598 823.512 251.242C824.098 251.88 824.84 252.199 825.739 252.199C826.377 252.199 826.917 252.069 827.36 251.808C827.802 251.548 828.19 251.203 828.522 250.773L829.625 251.633C828.74 252.993 827.412 253.674 825.641 253.674ZM825.416 244.201C824.687 244.201 824.075 244.468 823.58 245.002C823.086 245.529 822.78 246.271 822.662 247.228H827.955V247.092C827.903 246.174 827.656 245.464 827.213 244.963C826.77 244.455 826.171 244.201 825.416 244.201ZM838.014 250.676C838.014 250.187 837.828 249.81 837.457 249.543C837.093 249.269 836.451 249.035 835.533 248.84C834.622 248.644 833.896 248.41 833.356 248.137C832.822 247.863 832.425 247.538 832.164 247.16C831.91 246.782 831.783 246.333 831.783 245.812C831.783 244.946 832.148 244.214 832.877 243.615C833.613 243.016 834.55 242.717 835.69 242.717C836.888 242.717 837.858 243.026 838.6 243.644C839.349 244.263 839.723 245.054 839.723 246.017H837.906C837.906 245.523 837.695 245.096 837.272 244.738C836.855 244.38 836.328 244.201 835.69 244.201C835.032 244.201 834.518 244.344 834.147 244.631C833.776 244.917 833.59 245.292 833.59 245.754C833.59 246.19 833.763 246.519 834.108 246.74C834.453 246.961 835.074 247.173 835.973 247.375C836.878 247.577 837.61 247.818 838.17 248.098C838.73 248.377 839.143 248.716 839.41 249.113C839.684 249.504 839.821 249.982 839.821 250.549C839.821 251.493 839.443 252.251 838.688 252.824C837.933 253.391 836.953 253.674 835.748 253.674C834.902 253.674 834.153 253.524 833.502 253.224C832.851 252.925 832.34 252.508 831.969 251.974C831.604 251.434 831.422 250.851 831.422 250.226H833.229C833.261 250.832 833.502 251.314 833.951 251.672C834.407 252.023 835.006 252.199 835.748 252.199C836.432 252.199 836.979 252.062 837.389 251.789C837.806 251.509 838.014 251.138 838.014 250.676ZM848.834 242.912L848.883 244.084C849.658 243.172 850.703 242.717 852.018 242.717C853.496 242.717 854.502 243.283 855.035 244.416C855.387 243.908 855.843 243.498 856.403 243.185C856.969 242.873 857.636 242.717 858.405 242.717C860.722 242.717 861.901 243.944 861.94 246.398V253.478H860.133V246.506C860.133 245.751 859.961 245.187 859.615 244.816C859.27 244.439 858.691 244.25 857.877 244.25C857.207 244.25 856.65 244.452 856.207 244.855C855.765 245.252 855.507 245.79 855.436 246.467V253.478H853.619V246.555C853.619 245.018 852.867 244.25 851.364 244.25C850.179 244.25 849.368 244.754 848.932 245.764V253.478H847.125V242.912H848.834ZM864.196 248.098C864.196 247.062 864.397 246.131 864.801 245.305C865.211 244.478 865.778 243.84 866.5 243.391C867.229 242.941 868.059 242.717 868.99 242.717C870.429 242.717 871.591 243.215 872.477 244.211C873.369 245.207 873.815 246.532 873.815 248.185V248.312C873.815 249.341 873.616 250.266 873.219 251.086C872.828 251.9 872.265 252.534 871.53 252.99C870.8 253.446 869.961 253.674 869.01 253.674C867.578 253.674 866.416 253.176 865.524 252.18C864.638 251.183 864.196 249.865 864.196 248.224V248.098ZM866.012 248.312C866.012 249.484 866.282 250.425 866.823 251.135C867.369 251.844 868.099 252.199 869.01 252.199C869.928 252.199 870.657 251.841 871.198 251.125C871.738 250.402 872.008 249.393 872.008 248.098C872.008 246.939 871.731 246.001 871.178 245.285C870.631 244.562 869.902 244.201 868.99 244.201C868.099 244.201 867.379 244.556 866.832 245.266C866.285 245.975 866.012 246.991 866.012 248.312ZM881.188 244.533C880.914 244.488 880.618 244.465 880.299 244.465C879.114 244.465 878.31 244.969 877.887 245.978V253.478H876.08V242.912H877.838L877.867 244.133C878.46 243.189 879.3 242.717 880.387 242.717C880.739 242.717 881.005 242.762 881.188 242.853V244.533ZM887.047 253.674C885.615 253.674 884.449 253.205 883.551 252.267C882.653 251.323 882.203 250.064 882.203 248.488V248.156C882.203 247.108 882.402 246.174 882.799 245.353C883.203 244.527 883.763 243.882 884.479 243.42C885.201 242.951 885.983 242.717 886.823 242.717C888.196 242.717 889.264 243.169 890.026 244.074C890.787 244.979 891.168 246.275 891.168 247.961V248.713H884.01C884.036 249.754 884.339 250.598 884.918 251.242C885.504 251.88 886.246 252.199 887.145 252.199C887.783 252.199 888.323 252.069 888.766 251.808C889.209 251.548 889.596 251.203 889.928 250.773L891.031 251.633C890.146 252.993 888.818 253.674 887.047 253.674ZM886.823 244.201C886.093 244.201 885.481 244.468 884.987 245.002C884.492 245.529 884.186 246.271 884.069 247.228H889.362V247.092C889.309 246.174 889.062 245.464 888.619 244.963C888.177 244.455 887.578 244.201 886.823 244.201Z" fill="#626A84"/>
</svg>
