<svg width="1530" height="253" viewBox="0 0 1530 253" fill="none" xmlns="http://www.w3.org/2000/svg">
<rect x="0.611328" y="1.1123" width="1528.89" height="250.63" rx="9.5" stroke="#626A84"/>
<rect x="45.6484" y="38.2134" width="267.776" height="73.8345" rx="5" fill="#2A365C"/>
<path d="M85.0267 83.7478V69.5291H89.0404C90.2773 69.5291 91.3711 69.8025 92.3216 70.3494C93.2721 70.8962 94.0046 71.6742 94.5189 72.6833C95.0397 73.6925 95.3034 74.8513 95.3099 76.1599V77.0681C95.3099 78.4093 95.0495 79.5844 94.5286 80.5935C94.0143 81.6026 93.2754 82.3774 92.3119 82.9177C91.3548 83.4581 90.2383 83.7348 88.9622 83.7478H85.0267ZM86.9017 71.072V82.2146H88.8744C90.3197 82.2146 91.4427 81.7654 92.2435 80.8669C93.0508 79.9685 93.4544 78.6892 93.4544 77.0291V76.199C93.4544 74.5844 93.0736 73.3311 92.3119 72.4392C91.5566 71.5408 90.4824 71.085 89.0892 71.072H86.9017ZM102.253 83.9431C100.821 83.9431 99.6556 83.4744 98.7572 82.5369C97.8587 81.5929 97.4095 80.3331 97.4095 78.7576V78.4255C97.4095 77.3774 97.6081 76.4431 98.0052 75.6228C98.4089 74.796 98.9688 74.1514 99.6849 73.6892C100.408 73.2205 101.189 72.9861 102.029 72.9861C103.402 72.9861 104.47 73.4386 105.232 74.3435C105.993 75.2485 106.374 76.544 106.374 78.2302V78.9822H99.2161C99.2422 80.0238 99.5449 80.8669 100.124 81.5115C100.71 82.1495 101.452 82.4685 102.351 82.4685C102.989 82.4685 103.529 82.3383 103.972 82.0779C104.415 81.8175 104.802 81.4724 105.134 81.0427L106.238 81.9021C105.352 83.2628 104.024 83.9431 102.253 83.9431ZM102.029 74.4705C101.299 74.4705 100.688 74.7374 100.193 75.2712C99.6979 75.7986 99.3919 76.5408 99.2747 77.4978H104.568V77.3611C104.516 76.4431 104.268 75.7335 103.826 75.2322C103.383 74.7244 102.784 74.4705 102.029 74.4705ZM114.626 80.9451C114.626 80.4568 114.441 80.0792 114.07 79.8123C113.705 79.5388 113.064 79.3044 112.146 79.1091C111.234 78.9138 110.508 78.6794 109.968 78.406C109.434 78.1326 109.037 77.807 108.777 77.4294C108.523 77.0518 108.396 76.6026 108.396 76.0818C108.396 75.2159 108.76 74.4835 109.49 73.8845C110.225 73.2856 111.163 72.9861 112.302 72.9861C113.5 72.9861 114.47 73.2953 115.212 73.9138C115.961 74.5323 116.335 75.3233 116.335 76.2869H114.519C114.519 75.7921 114.307 75.3656 113.884 75.0076C113.467 74.6495 112.94 74.4705 112.302 74.4705C111.645 74.4705 111.13 74.6137 110.759 74.9001C110.388 75.1866 110.202 75.561 110.202 76.0232C110.202 76.4594 110.375 76.7882 110.72 77.0095C111.065 77.2309 111.687 77.4425 112.585 77.6443C113.49 77.8461 114.223 78.087 114.783 78.3669C115.342 78.6469 115.756 78.9854 116.023 79.3826C116.296 79.7732 116.433 80.2517 116.433 80.8181C116.433 81.7621 116.055 82.5206 115.3 83.0935C114.545 83.6599 113.565 83.9431 112.361 83.9431C111.514 83.9431 110.766 83.7934 110.115 83.4939C109.464 83.1944 108.952 82.7778 108.581 82.2439C108.217 81.7035 108.035 81.1208 108.035 80.4958H109.841C109.874 81.1013 110.115 81.5831 110.564 81.9412C111.02 82.2927 111.618 82.4685 112.361 82.4685C113.044 82.4685 113.591 82.3318 114.001 82.0583C114.418 81.7784 114.626 81.4073 114.626 80.9451ZM120.749 83.7478H118.943V73.1814H120.749V83.7478ZM118.796 70.3787C118.796 70.0857 118.884 69.8383 119.06 69.6365C119.242 69.4347 119.509 69.3337 119.861 69.3337C120.212 69.3337 120.479 69.4347 120.661 69.6365C120.844 69.8383 120.935 70.0857 120.935 70.3787C120.935 70.6716 120.844 70.9158 120.661 71.1111C120.479 71.3064 120.212 71.4041 119.861 71.4041C119.509 71.4041 119.242 71.3064 119.06 71.1111C118.884 70.9158 118.796 70.6716 118.796 70.3787ZM123.22 78.3767C123.22 76.7296 123.601 75.421 124.363 74.4509C125.124 73.4744 126.133 72.9861 127.39 72.9861C128.679 72.9861 129.685 73.4418 130.408 74.3533L130.495 73.1814H132.146V83.4939C132.146 84.8611 131.739 85.9386 130.925 86.7263C130.118 87.5141 129.031 87.908 127.663 87.908C126.902 87.908 126.156 87.7452 125.427 87.4197C124.698 87.0942 124.141 86.6482 123.757 86.0818L124.695 84.9978C125.469 85.9548 126.417 86.4333 127.536 86.4333C128.415 86.4333 129.099 86.186 129.587 85.6912C130.082 85.1964 130.329 84.4998 130.329 83.6013V82.6931C129.607 83.5264 128.62 83.9431 127.37 83.9431C126.133 83.9431 125.131 83.4451 124.363 82.449C123.601 81.4529 123.22 80.0955 123.22 78.3767ZM125.036 78.5818C125.036 79.7732 125.281 80.7107 125.769 81.3943C126.257 82.0714 126.941 82.4099 127.82 82.4099C128.959 82.4099 129.796 81.8923 130.329 80.8572V76.033C129.776 75.0238 128.946 74.5193 127.839 74.5193C126.96 74.5193 126.273 74.8611 125.779 75.5447C125.284 76.2283 125.036 77.2406 125.036 78.5818ZM136.589 73.1814L136.648 74.5095C137.455 73.4939 138.51 72.9861 139.812 72.9861C142.045 72.9861 143.171 74.2458 143.191 76.7654V83.7478H141.384V76.7556C141.378 75.9939 141.202 75.4307 140.857 75.0662C140.518 74.7016 139.988 74.5193 139.265 74.5193C138.679 74.5193 138.165 74.6755 137.722 74.988C137.279 75.3005 136.934 75.7107 136.687 76.2185V83.7478H134.88V73.1814H136.589ZM150.3 83.9431C148.868 83.9431 147.702 83.4744 146.804 82.5369C145.906 81.5929 145.456 80.3331 145.456 78.7576V78.4255C145.456 77.3774 145.655 76.4431 146.052 75.6228C146.456 74.796 147.016 74.1514 147.732 73.6892C148.454 73.2205 149.236 72.9861 150.076 72.9861C151.449 72.9861 152.517 73.4386 153.279 74.3435C154.04 75.2485 154.421 76.544 154.421 78.2302V78.9822H147.263C147.289 80.0238 147.592 80.8669 148.171 81.5115C148.757 82.1495 149.499 82.4685 150.398 82.4685C151.036 82.4685 151.576 82.3383 152.019 82.0779C152.462 81.8175 152.849 81.4724 153.181 81.0427L154.285 81.9021C153.399 83.2628 152.071 83.9431 150.3 83.9431ZM150.076 74.4705C149.346 74.4705 148.734 74.7374 148.24 75.2712C147.745 75.7986 147.439 76.5408 147.322 77.4978H152.615V77.3611C152.563 76.4431 152.315 75.7335 151.872 75.2322C151.43 74.7244 150.831 74.4705 150.076 74.4705ZM156.081 78.3767C156.081 76.7556 156.465 75.4535 157.234 74.4705C158.002 73.4809 159.008 72.9861 160.251 72.9861C161.488 72.9861 162.468 73.4093 163.191 74.2556V68.7478H164.997V83.7478H163.337L163.249 82.615C162.527 83.5004 161.521 83.9431 160.232 83.9431C159.008 83.9431 158.008 83.4418 157.234 82.4392C156.465 81.4366 156.081 80.128 156.081 78.5134V78.3767ZM157.888 78.5818C157.888 79.7797 158.135 80.7172 158.63 81.3943C159.125 82.0714 159.809 82.4099 160.681 82.4099C161.827 82.4099 162.663 81.8956 163.191 80.8669V76.0134C162.65 75.0173 161.82 74.5193 160.701 74.5193C159.815 74.5193 159.125 74.8611 158.63 75.5447C158.135 76.2283 157.888 77.2406 157.888 78.5818ZM172.39 79.9294C172.39 79.2458 172.579 78.6176 172.956 78.0447C173.34 77.4718 174.07 76.8044 175.144 76.0427C174.512 75.2745 174.089 74.656 173.874 74.1873C173.66 73.7185 173.552 73.253 173.552 72.7908C173.552 71.71 173.871 70.8637 174.509 70.2517C175.147 69.6397 176.013 69.3337 177.107 69.3337C178.083 69.3337 178.891 69.6202 179.529 70.1931C180.167 70.7595 180.486 71.4757 180.486 72.3416C180.486 72.9145 180.339 73.4451 180.046 73.9333C179.76 74.4151 179.255 74.9229 178.533 75.4568L177.488 76.2283L180.652 80.0076C181.094 79.1612 181.316 78.2205 181.316 77.1853H182.947C182.947 78.8455 182.546 80.2224 181.745 81.3162L183.777 83.7478H181.609L180.661 82.6248C180.18 83.0544 179.613 83.3832 178.962 83.6111C178.318 83.8324 177.66 83.9431 176.99 83.9431C175.603 83.9431 174.49 83.5753 173.65 82.8396C172.81 82.1039 172.39 81.1339 172.39 79.9294ZM176.99 82.4685C177.947 82.4685 178.822 82.1039 179.617 81.3748L176.15 77.2244L175.827 77.4587C174.74 78.2595 174.197 79.0831 174.197 79.9294C174.197 80.6977 174.444 81.3129 174.939 81.7751C175.44 82.2374 176.124 82.4685 176.99 82.4685ZM175.359 72.7322C175.359 73.3572 175.743 74.1384 176.511 75.0759L177.663 74.2654C178.106 73.9529 178.409 73.6567 178.572 73.3767C178.734 73.0903 178.816 72.7452 178.816 72.3416C178.816 71.9054 178.653 71.544 178.327 71.2576C178.002 70.9646 177.592 70.8181 177.097 70.8181C176.563 70.8181 176.14 71.0004 175.827 71.365C175.515 71.7231 175.359 72.1788 175.359 72.7322ZM190.456 83.7478V69.5291H194.47C195.707 69.5291 196.801 69.8025 197.751 70.3494C198.702 70.8962 199.434 71.6742 199.949 72.6833C200.469 73.6925 200.733 74.8513 200.74 76.1599V77.0681C200.74 78.4093 200.479 79.5844 199.958 80.5935C199.444 81.6026 198.705 82.3774 197.742 82.9177C196.785 83.4581 195.668 83.7348 194.392 83.7478H190.456ZM192.331 71.072V82.2146H194.304C195.749 82.2146 196.872 81.7654 197.673 80.8669C198.48 79.9685 198.884 78.6892 198.884 77.0291V76.199C198.884 74.5844 198.503 73.3311 197.742 72.4392C196.986 71.5408 195.912 71.085 194.519 71.072H192.331ZM207.683 83.9431C206.251 83.9431 205.085 83.4744 204.187 82.5369C203.288 81.5929 202.839 80.3331 202.839 78.7576V78.4255C202.839 77.3774 203.038 76.4431 203.435 75.6228C203.839 74.796 204.398 74.1514 205.115 73.6892C205.837 73.2205 206.618 72.9861 207.458 72.9861C208.832 72.9861 209.9 73.4386 210.661 74.3435C211.423 75.2485 211.804 76.544 211.804 78.2302V78.9822H204.646C204.672 80.0238 204.975 80.8669 205.554 81.5115C206.14 82.1495 206.882 82.4685 207.781 82.4685C208.419 82.4685 208.959 82.3383 209.402 82.0779C209.844 81.8175 210.232 81.4724 210.564 81.0427L211.667 81.9021C210.782 83.2628 209.454 83.9431 207.683 83.9431ZM207.458 74.4705C206.729 74.4705 206.117 74.7374 205.622 75.2712C205.128 75.7986 204.822 76.5408 204.704 77.4978H209.997V77.3611C209.945 76.4431 209.698 75.7335 209.255 75.2322C208.813 74.7244 208.214 74.4705 207.458 74.4705ZM217.253 81.2966L219.87 73.1814H221.716L217.927 83.7478H216.55L212.722 73.1814H214.568L217.253 81.2966ZM227.702 83.9431C226.27 83.9431 225.105 83.4744 224.206 82.5369C223.308 81.5929 222.859 80.3331 222.859 78.7576V78.4255C222.859 77.3774 223.057 76.4431 223.454 75.6228C223.858 74.796 224.418 74.1514 225.134 73.6892C225.857 73.2205 226.638 72.9861 227.478 72.9861C228.852 72.9861 229.919 73.4386 230.681 74.3435C231.443 75.2485 231.824 76.544 231.824 78.2302V78.9822H224.665C224.691 80.0238 224.994 80.8669 225.574 81.5115C226.16 82.1495 226.902 82.4685 227.8 82.4685C228.438 82.4685 228.979 82.3383 229.421 82.0779C229.864 81.8175 230.251 81.4724 230.583 81.0427L231.687 81.9021C230.801 83.2628 229.473 83.9431 227.702 83.9431ZM227.478 74.4705C226.749 74.4705 226.137 74.7374 225.642 75.2712C225.147 75.7986 224.841 76.5408 224.724 77.4978H230.017V77.3611C229.965 76.4431 229.717 75.7335 229.275 75.2322C228.832 74.7244 228.233 74.4705 227.478 74.4705ZM235.886 83.7478H234.079V68.7478H235.886V83.7478ZM238.308 78.3669C238.308 77.3318 238.51 76.4008 238.913 75.574C239.324 74.7472 239.89 74.1091 240.613 73.6599C241.342 73.2107 242.172 72.9861 243.103 72.9861C244.542 72.9861 245.704 73.4841 246.589 74.4802C247.481 75.4763 247.927 76.8012 247.927 78.4548V78.5818C247.927 79.6104 247.729 80.5349 247.331 81.3552C246.941 82.169 246.378 82.8038 245.642 83.2595C244.913 83.7153 244.073 83.9431 243.122 83.9431C241.69 83.9431 240.528 83.4451 239.636 82.449C238.751 81.4529 238.308 80.1345 238.308 78.4939V78.3669ZM240.124 78.5818C240.124 79.7537 240.395 80.6944 240.935 81.4041C241.482 82.1137 242.211 82.4685 243.122 82.4685C244.04 82.4685 244.77 82.1104 245.31 81.3943C245.85 80.6716 246.12 79.6625 246.12 78.3669C246.12 77.2081 245.844 76.2706 245.29 75.5544C244.743 74.8318 244.014 74.4705 243.103 74.4705C242.211 74.4705 241.492 74.8253 240.945 75.5349C240.398 76.2445 240.124 77.2602 240.124 78.5818ZM259.118 78.5818C259.118 80.1899 258.751 81.4854 258.015 82.4685C257.279 83.4516 256.283 83.9431 255.027 83.9431C253.744 83.9431 252.735 83.5362 251.999 82.7224V87.8103H250.193V73.1814H251.843L251.931 74.3533C252.667 73.4418 253.689 72.9861 254.997 72.9861C256.267 72.9861 257.27 73.4646 258.005 74.4216C258.747 75.3787 259.118 76.71 259.118 78.4158V78.5818ZM257.312 78.3767C257.312 77.1853 257.058 76.2445 256.55 75.5544C256.042 74.8643 255.346 74.5193 254.46 74.5193C253.367 74.5193 252.546 75.0043 251.999 75.9744V81.0232C252.54 81.9867 253.367 82.4685 254.48 82.4685C255.346 82.4685 256.033 82.1267 256.54 81.4431C257.055 80.753 257.312 79.7309 257.312 78.3767ZM265.808 83.9431C264.376 83.9431 263.21 83.4744 262.312 82.5369C261.413 81.5929 260.964 80.3331 260.964 78.7576V78.4255C260.964 77.3774 261.163 76.4431 261.56 75.6228C261.964 74.796 262.523 74.1514 263.24 73.6892C263.962 73.2205 264.743 72.9861 265.583 72.9861C266.957 72.9861 268.025 73.4386 268.786 74.3435C269.548 75.2485 269.929 76.544 269.929 78.2302V78.9822H262.771C262.797 80.0238 263.1 80.8669 263.679 81.5115C264.265 82.1495 265.007 82.4685 265.906 82.4685C266.544 82.4685 267.084 82.3383 267.527 82.0779C267.969 81.8175 268.357 81.4724 268.689 81.0427L269.792 81.9021C268.907 83.2628 267.579 83.9431 265.808 83.9431ZM265.583 74.4705C264.854 74.4705 264.242 74.7374 263.747 75.2712C263.253 75.7986 262.947 76.5408 262.829 77.4978H268.122V77.3611C268.07 76.4431 267.823 75.7335 267.38 75.2322C266.938 74.7244 266.339 74.4705 265.583 74.4705ZM271.589 78.3767C271.589 76.7556 271.973 75.4535 272.742 74.4705C273.51 73.4809 274.516 72.9861 275.759 72.9861C276.996 72.9861 277.976 73.4093 278.699 74.2556V68.7478H280.505V83.7478H278.845L278.757 82.615C278.035 83.5004 277.029 83.9431 275.74 83.9431C274.516 83.9431 273.516 83.4418 272.742 82.4392C271.973 81.4366 271.589 80.128 271.589 78.5134V78.3767ZM273.396 78.5818C273.396 79.7797 273.643 80.7172 274.138 81.3943C274.633 82.0714 275.316 82.4099 276.189 82.4099C277.335 82.4099 278.171 81.8956 278.699 80.8669V76.0134C278.158 75.0173 277.328 74.5193 276.208 74.5193C275.323 74.5193 274.633 74.8611 274.138 75.5447C273.643 76.2283 273.396 77.2406 273.396 78.5818Z" fill="white"/>
<rect x="400.27" y="38.2134" width="284.019" height="73.8345" rx="5" fill="#2A365C"/>
<path d="M440.163 83.4375V69.2188H444.176C445.413 69.2188 446.507 69.4922 447.458 70.0391C448.408 70.5859 449.141 71.3639 449.655 72.373C450.176 73.3822 450.439 74.541 450.446 75.8496V76.7578C450.446 78.099 450.186 79.2741 449.665 80.2832C449.15 81.2923 448.411 82.0671 447.448 82.6074C446.491 83.1478 445.374 83.4245 444.098 83.4375H440.163ZM442.038 70.7617V81.9043H444.01C445.456 81.9043 446.579 81.4551 447.38 80.5566C448.187 79.6582 448.59 78.3789 448.59 76.7188V75.8887C448.59 74.2741 448.21 73.0208 447.448 72.1289C446.693 71.2305 445.618 70.7747 444.225 70.7617H442.038ZM459.528 83.4375C459.424 83.2292 459.339 82.8581 459.274 82.3242C458.434 83.1966 457.432 83.6328 456.266 83.6328C455.225 83.6328 454.368 83.3398 453.698 82.7539C453.034 82.1615 452.702 81.4128 452.702 80.5078C452.702 79.4076 453.118 78.5547 453.952 77.9492C454.792 77.3372 455.97 77.0312 457.487 77.0312H459.245V76.2012C459.245 75.5697 459.056 75.0684 458.678 74.6973C458.301 74.3197 457.744 74.1309 457.008 74.1309C456.364 74.1309 455.824 74.2936 455.387 74.6191C454.951 74.9447 454.733 75.3385 454.733 75.8008H452.917C452.917 75.2734 453.102 74.7656 453.473 74.2773C453.851 73.7826 454.359 73.3919 454.997 73.1055C455.641 72.819 456.348 72.6758 457.116 72.6758C458.333 72.6758 459.287 72.9818 459.977 73.5938C460.667 74.1992 461.025 75.0358 461.051 76.1035V80.9668C461.051 81.9368 461.175 82.7083 461.423 83.2812V83.4375H459.528ZM456.53 82.0605C457.096 82.0605 457.633 81.9141 458.141 81.6211C458.649 81.3281 459.017 80.9473 459.245 80.4785V78.3105H457.829C455.615 78.3105 454.508 78.9583 454.508 80.2539C454.508 80.8203 454.697 81.263 455.075 81.582C455.452 81.901 455.937 82.0605 456.53 82.0605ZM466.335 70.3125V72.8711H468.307V74.2676H466.335V80.8203C466.335 81.2435 466.423 81.5625 466.598 81.7773C466.774 81.9857 467.074 82.0898 467.497 82.0898C467.705 82.0898 467.992 82.0508 468.356 81.9727V83.4375C467.881 83.5677 467.419 83.6328 466.969 83.6328C466.162 83.6328 465.553 83.3887 465.143 82.9004C464.733 82.4121 464.528 81.7188 464.528 80.8203V74.2676H462.604V72.8711H464.528V70.3125H466.335ZM476.95 83.4375C476.846 83.2292 476.761 82.8581 476.696 82.3242C475.856 83.1966 474.853 83.6328 473.688 83.6328C472.646 83.6328 471.79 83.3398 471.12 82.7539C470.456 82.1615 470.124 81.4128 470.124 80.5078C470.124 79.4076 470.54 78.5547 471.374 77.9492C472.214 77.3372 473.392 77.0312 474.909 77.0312H476.667V76.2012C476.667 75.5697 476.478 75.0684 476.1 74.6973C475.723 74.3197 475.166 74.1309 474.43 74.1309C473.786 74.1309 473.245 74.2936 472.809 74.6191C472.373 74.9447 472.155 75.3385 472.155 75.8008H470.339C470.339 75.2734 470.524 74.7656 470.895 74.2773C471.273 73.7826 471.781 73.3919 472.419 73.1055C473.063 72.819 473.77 72.6758 474.538 72.6758C475.755 72.6758 476.709 72.9818 477.399 73.5938C478.089 74.1992 478.447 75.0358 478.473 76.1035V80.9668C478.473 81.9368 478.597 82.7083 478.844 83.2812V83.4375H476.95ZM473.952 82.0605C474.518 82.0605 475.055 81.9141 475.563 81.6211C476.071 81.3281 476.439 80.9473 476.667 80.4785V78.3105H475.251C473.037 78.3105 471.93 78.9583 471.93 80.2539C471.93 80.8203 472.119 81.263 472.497 81.582C472.874 81.901 473.359 82.0605 473.952 82.0605ZM485.885 79.6191C485.885 78.9355 486.074 78.3073 486.452 77.7344C486.836 77.1615 487.565 76.4941 488.639 75.7324C488.008 74.9642 487.585 74.3457 487.37 73.877C487.155 73.4082 487.048 72.9427 487.048 72.4805C487.048 71.3997 487.367 70.5534 488.005 69.9414C488.643 69.3294 489.508 69.0234 490.602 69.0234C491.579 69.0234 492.386 69.3099 493.024 69.8828C493.662 70.4492 493.981 71.1654 493.981 72.0312C493.981 72.6042 493.835 73.1348 493.542 73.623C493.255 74.1048 492.751 74.6126 492.028 75.1465L490.983 75.918L494.147 79.6973C494.59 78.8509 494.811 77.9102 494.811 76.875H496.442C496.442 78.5352 496.042 79.9121 495.241 81.0059L497.272 83.4375H495.104L494.157 82.3145C493.675 82.7441 493.109 83.0729 492.458 83.3008C491.813 83.5221 491.156 83.6328 490.485 83.6328C489.098 83.6328 487.985 83.265 487.145 82.5293C486.305 81.7936 485.885 80.8236 485.885 79.6191ZM490.485 82.1582C491.442 82.1582 492.318 81.7936 493.112 81.0645L489.645 76.9141L489.323 77.1484C488.236 77.9492 487.692 78.7728 487.692 79.6191C487.692 80.3874 487.939 81.0026 488.434 81.4648C488.936 81.9271 489.619 82.1582 490.485 82.1582ZM488.854 72.4219C488.854 73.0469 489.238 73.8281 490.006 74.7656L491.159 73.9551C491.602 73.6426 491.904 73.3464 492.067 73.0664C492.23 72.7799 492.311 72.4349 492.311 72.0312C492.311 71.5951 492.148 71.2337 491.823 70.9473C491.497 70.6543 491.087 70.5078 490.592 70.5078C490.059 70.5078 489.635 70.6901 489.323 71.0547C489.01 71.4128 488.854 71.8685 488.854 72.4219ZM505.964 83.4375H504.089V69.2188H505.964V83.4375ZM518.932 70.7617H514.362V83.4375H512.497V70.7617H507.936V69.2188H518.932V70.7617ZM527.292 83.4375H525.485V72.8711H527.292V83.4375ZM525.339 70.0684C525.339 69.7754 525.426 69.528 525.602 69.3262C525.784 69.1243 526.051 69.0234 526.403 69.0234C526.755 69.0234 527.021 69.1243 527.204 69.3262C527.386 69.528 527.477 69.7754 527.477 70.0684C527.477 70.3613 527.386 70.6055 527.204 70.8008C527.021 70.9961 526.755 71.0938 526.403 71.0938C526.051 71.0938 525.784 70.9961 525.602 70.8008C525.426 70.6055 525.339 70.3613 525.339 70.0684ZM531.901 72.8711L531.96 74.1992C532.767 73.1836 533.822 72.6758 535.124 72.6758C537.357 72.6758 538.483 73.9355 538.503 76.4551V83.4375H536.696V76.4453C536.689 75.6836 536.514 75.1204 536.169 74.7559C535.83 74.3913 535.299 74.209 534.577 74.209C533.991 74.209 533.477 74.3652 533.034 74.6777C532.591 74.9902 532.246 75.4004 531.999 75.9082V83.4375H530.192V72.8711H531.901ZM542.116 83.4375V74.2676H540.446V72.8711H542.116V71.7871C542.116 70.6543 542.419 69.7786 543.024 69.1602C543.63 68.5417 544.486 68.2324 545.592 68.2324C546.009 68.2324 546.423 68.2878 546.833 68.3984L546.735 69.8633C546.429 69.8047 546.103 69.7754 545.758 69.7754C545.173 69.7754 544.72 69.9479 544.401 70.293C544.082 70.6315 543.923 71.1198 543.923 71.7578V72.8711H546.178V74.2676H543.923V83.4375H542.116ZM553.288 74.4922C553.014 74.4466 552.718 74.4238 552.399 74.4238C551.214 74.4238 550.41 74.9284 549.987 75.9375V83.4375H548.18V72.8711H549.938L549.967 74.0918C550.56 73.1478 551.4 72.6758 552.487 72.6758C552.839 72.6758 553.105 72.7214 553.288 72.8125V74.4922ZM561.09 83.4375C560.986 83.2292 560.902 82.8581 560.837 82.3242C559.997 83.1966 558.994 83.6328 557.829 83.6328C556.787 83.6328 555.931 83.3398 555.26 82.7539C554.596 82.1615 554.264 81.4128 554.264 80.5078C554.264 79.4076 554.681 78.5547 555.514 77.9492C556.354 77.3372 557.533 77.0312 559.049 77.0312H560.807V76.2012C560.807 75.5697 560.618 75.0684 560.241 74.6973C559.863 74.3197 559.307 74.1309 558.571 74.1309C557.926 74.1309 557.386 74.2936 556.95 74.6191C556.514 74.9447 556.296 75.3385 556.296 75.8008H554.479C554.479 75.2734 554.665 74.7656 555.036 74.2773C555.413 73.7826 555.921 73.3919 556.559 73.1055C557.204 72.819 557.91 72.6758 558.678 72.6758C559.896 72.6758 560.85 72.9818 561.54 73.5938C562.23 74.1992 562.588 75.0358 562.614 76.1035V80.9668C562.614 81.9368 562.738 82.7083 562.985 83.2812V83.4375H561.09ZM558.092 82.0605C558.659 82.0605 559.196 81.9141 559.704 81.6211C560.212 81.3281 560.579 80.9473 560.807 80.4785V78.3105H559.391C557.178 78.3105 556.071 78.9583 556.071 80.2539C556.071 80.8203 556.26 81.263 556.637 81.582C557.015 81.901 557.5 82.0605 558.092 82.0605ZM571.598 80.6348C571.598 80.1465 571.413 79.7689 571.042 79.502C570.677 79.2285 570.036 78.9941 569.118 78.7988C568.206 78.6035 567.48 78.3691 566.94 78.0957C566.406 77.8223 566.009 77.4967 565.749 77.1191C565.495 76.7415 565.368 76.2923 565.368 75.7715C565.368 74.9056 565.732 74.1732 566.462 73.5742C567.197 72.9753 568.135 72.6758 569.274 72.6758C570.472 72.6758 571.442 72.985 572.184 73.6035C572.933 74.222 573.307 75.013 573.307 75.9766H571.491C571.491 75.4818 571.279 75.0553 570.856 74.6973C570.439 74.3392 569.912 74.1602 569.274 74.1602C568.617 74.1602 568.102 74.3034 567.731 74.5898C567.36 74.8763 567.174 75.2507 567.174 75.7129C567.174 76.1491 567.347 76.4779 567.692 76.6992C568.037 76.9206 568.659 77.1322 569.557 77.334C570.462 77.5358 571.195 77.7767 571.755 78.0566C572.314 78.3366 572.728 78.6751 572.995 79.0723C573.268 79.4629 573.405 79.9414 573.405 80.5078C573.405 81.4518 573.027 82.2103 572.272 82.7832C571.517 83.3496 570.537 83.6328 569.333 83.6328C568.486 83.6328 567.738 83.4831 567.087 83.1836C566.436 82.8841 565.924 82.4674 565.553 81.9336C565.189 81.3932 565.007 80.8105 565.007 80.1855H566.813C566.846 80.791 567.087 81.2728 567.536 81.6309C567.992 81.9824 568.59 82.1582 569.333 82.1582C570.016 82.1582 570.563 82.0215 570.973 81.748C571.39 81.4681 571.598 81.097 571.598 80.6348ZM578.21 70.3125V72.8711H580.182V74.2676H578.21V80.8203C578.21 81.2435 578.298 81.5625 578.473 81.7773C578.649 81.9857 578.949 82.0898 579.372 82.0898C579.58 82.0898 579.867 82.0508 580.231 81.9727V83.4375C579.756 83.5677 579.294 83.6328 578.844 83.6328C578.037 83.6328 577.428 83.3887 577.018 82.9004C576.608 82.4121 576.403 81.7188 576.403 80.8203V74.2676H574.479V72.8711H576.403V70.3125H578.21ZM587.409 74.4922C587.135 74.4466 586.839 74.4238 586.52 74.4238C585.335 74.4238 584.531 74.9284 584.108 75.9375V83.4375H582.301V72.8711H584.059L584.089 74.0918C584.681 73.1478 585.521 72.6758 586.608 72.6758C586.96 72.6758 587.227 72.7214 587.409 72.8125V74.4922ZM595.602 82.3926C594.899 83.2194 593.867 83.6328 592.507 83.6328C591.38 83.6328 590.521 83.3073 589.928 82.6562C589.342 81.9987 589.046 81.0286 589.04 79.7461V72.8711H590.846V79.6973C590.846 81.2988 591.497 82.0996 592.799 82.0996C594.18 82.0996 595.098 81.5853 595.553 80.5566V72.8711H597.36V83.4375H595.641L595.602 82.3926ZM604.352 82.1582C604.997 82.1582 605.56 81.9629 606.042 81.5723C606.523 81.1816 606.79 80.6934 606.842 80.1074H608.551C608.519 80.7129 608.311 81.2891 607.926 81.8359C607.542 82.3828 607.028 82.819 606.383 83.1445C605.745 83.4701 605.068 83.6328 604.352 83.6328C602.913 83.6328 601.768 83.1543 600.915 82.1973C600.068 81.2337 599.645 79.9186 599.645 78.252V77.9492C599.645 76.9206 599.834 76.0059 600.212 75.2051C600.589 74.4043 601.13 73.7826 601.833 73.3398C602.542 72.8971 603.379 72.6758 604.342 72.6758C605.527 72.6758 606.51 73.0306 607.292 73.7402C608.079 74.4499 608.499 75.3711 608.551 76.5039H606.842C606.79 75.8203 606.53 75.2604 606.061 74.8242C605.599 74.3815 605.026 74.1602 604.342 74.1602C603.424 74.1602 602.712 74.4922 602.204 75.1562C601.702 75.8138 601.452 76.7676 601.452 78.0176V78.3594C601.452 79.5768 601.702 80.5143 602.204 81.1719C602.705 81.8294 603.421 82.1582 604.352 82.1582ZM613.034 70.3125V72.8711H615.007V74.2676H613.034V80.8203C613.034 81.2435 613.122 81.5625 613.298 81.7773C613.473 81.9857 613.773 82.0898 614.196 82.0898C614.404 82.0898 614.691 82.0508 615.055 81.9727V83.4375C614.58 83.5677 614.118 83.6328 613.669 83.6328C612.861 83.6328 612.253 83.3887 611.842 82.9004C611.432 82.4121 611.227 81.7188 611.227 80.8203V74.2676H609.303V72.8711H611.227V70.3125H613.034ZM623.649 82.3926C622.946 83.2194 621.914 83.6328 620.553 83.6328C619.427 83.6328 618.568 83.3073 617.975 82.6562C617.389 81.9987 617.093 81.0286 617.087 79.7461V72.8711H618.893V79.6973C618.893 81.2988 619.544 82.0996 620.846 82.0996C622.227 82.0996 623.145 81.5853 623.6 80.5566V72.8711H625.407V83.4375H623.688L623.649 82.3926ZM633.268 74.4922C632.995 74.4466 632.699 74.4238 632.38 74.4238C631.195 74.4238 630.391 74.9284 629.967 75.9375V83.4375H628.161V72.8711H629.919L629.948 74.0918C630.54 73.1478 631.38 72.6758 632.467 72.6758C632.819 72.6758 633.086 72.7214 633.268 72.8125V74.4922ZM639.128 83.6328C637.695 83.6328 636.53 83.1641 635.632 82.2266C634.733 81.2826 634.284 80.0228 634.284 78.4473V78.1152C634.284 77.0671 634.482 76.1328 634.88 75.3125C635.283 74.4857 635.843 73.8411 636.559 73.3789C637.282 72.9102 638.063 72.6758 638.903 72.6758C640.277 72.6758 641.344 73.1283 642.106 74.0332C642.868 74.9382 643.249 76.2337 643.249 77.9199V78.6719H636.09C636.117 79.7135 636.419 80.5566 636.999 81.2012C637.585 81.8392 638.327 82.1582 639.225 82.1582C639.863 82.1582 640.404 82.028 640.846 81.7676C641.289 81.5072 641.676 81.1621 642.008 80.7324L643.112 81.5918C642.227 82.9525 640.898 83.6328 639.128 83.6328ZM638.903 74.1602C638.174 74.1602 637.562 74.4271 637.067 74.9609C636.572 75.4883 636.266 76.2305 636.149 77.1875H641.442V77.0508C641.39 76.1328 641.143 75.4232 640.7 74.9219C640.257 74.4141 639.658 74.1602 638.903 74.1602Z" fill="white"/>
<rect x="819.957" y="38.2134" width="208.147" height="73.8345" rx="5" fill="#2A365C"/>
<path d="M868.839 70.7617H864.268V83.4375H862.403V70.7617H857.843V69.2188H868.839V70.7617ZM874.073 83.6328C872.641 83.6328 871.475 83.1641 870.577 82.2266C869.678 81.2826 869.229 80.0228 869.229 78.4473V78.1152C869.229 77.0671 869.428 76.1328 869.825 75.3125C870.229 74.4857 870.789 73.8411 871.505 73.3789C872.227 72.9102 873.009 72.6758 873.848 72.6758C875.222 72.6758 876.29 73.1283 877.052 74.0332C877.813 74.9382 878.194 76.2337 878.194 77.9199V78.6719H871.036C871.062 79.7135 871.365 80.5566 871.944 81.2012C872.53 81.8392 873.272 82.1582 874.171 82.1582C874.809 82.1582 875.349 82.028 875.792 81.7676C876.234 81.5072 876.622 81.1621 876.954 80.7324L878.057 81.5918C877.172 82.9525 875.844 83.6328 874.073 83.6328ZM873.848 74.1602C873.119 74.1602 872.507 74.4271 872.012 74.9609C871.518 75.4883 871.212 76.2305 871.095 77.1875H876.387V77.0508C876.335 76.1328 876.088 75.4232 875.645 74.9219C875.203 74.4141 874.604 74.1602 873.848 74.1602ZM885.401 74.4922C885.128 74.4466 884.831 74.4238 884.512 74.4238C883.328 74.4238 882.524 74.9284 882.1 75.9375V83.4375H880.294V72.8711H882.052L882.081 74.0918C882.673 73.1478 883.513 72.6758 884.6 72.6758C884.952 72.6758 885.219 72.7214 885.401 72.8125V74.4922ZM893.204 83.4375C893.1 83.2292 893.015 82.8581 892.95 82.3242C892.11 83.1966 891.108 83.6328 889.942 83.6328C888.9 83.6328 888.044 83.3398 887.374 82.7539C886.71 82.1615 886.378 81.4128 886.378 80.5078C886.378 79.4076 886.794 78.5547 887.628 77.9492C888.468 77.3372 889.646 77.0312 891.163 77.0312H892.921V76.2012C892.921 75.5697 892.732 75.0684 892.354 74.6973C891.977 74.3197 891.42 74.1309 890.684 74.1309C890.04 74.1309 889.499 74.2936 889.063 74.6191C888.627 74.9447 888.409 75.3385 888.409 75.8008H886.593C886.593 75.2734 886.778 74.7656 887.149 74.2773C887.527 73.7826 888.035 73.3919 888.673 73.1055C889.317 72.819 890.024 72.6758 890.792 72.6758C892.009 72.6758 892.963 72.9818 893.653 73.5938C894.343 74.1992 894.701 75.0358 894.727 76.1035V80.9668C894.727 81.9368 894.851 82.7083 895.098 83.2812V83.4375H893.204ZM890.206 82.0605C890.772 82.0605 891.309 81.9141 891.817 81.6211C892.325 81.3281 892.693 80.9473 892.921 80.4785V78.3105H891.505C889.291 78.3105 888.184 78.9583 888.184 80.2539C888.184 80.8203 888.373 81.263 888.751 81.582C889.128 81.901 889.613 82.0605 890.206 82.0605ZM906.505 78.2715C906.505 79.8861 906.134 81.1849 905.391 82.168C904.649 83.1445 903.653 83.6328 902.403 83.6328C901.068 83.6328 900.037 83.1608 899.307 82.2168L899.22 83.4375H897.559V68.4375H899.366V74.0332C900.095 73.1283 901.101 72.6758 902.384 72.6758C903.666 72.6758 904.672 73.1608 905.401 74.1309C906.137 75.1009 906.505 76.429 906.505 78.1152V78.2715ZM904.698 78.0664C904.698 76.8359 904.46 75.8854 903.985 75.2148C903.51 74.5443 902.826 74.209 901.934 74.209C900.743 74.209 899.887 74.7624 899.366 75.8691V80.4395C899.919 81.5462 900.782 82.0996 901.954 82.0996C902.82 82.0996 903.494 81.7643 903.975 81.0938C904.457 80.4232 904.698 79.4141 904.698 78.0664ZM912.13 80.791L914.591 72.8711H916.524L912.276 85.0684C911.619 86.8262 910.574 87.7051 909.141 87.7051L908.8 87.6758L908.126 87.5488V86.084L908.614 86.123C909.226 86.123 909.701 85.9993 910.04 85.752C910.385 85.5046 910.668 85.0521 910.889 84.3945L911.29 83.3203L907.52 72.8711H909.493L912.13 80.791ZM920.596 70.3125V72.8711H922.569V74.2676H920.596V80.8203C920.596 81.2435 920.684 81.5625 920.86 81.7773C921.036 81.9857 921.335 82.0898 921.759 82.0898C921.967 82.0898 922.253 82.0508 922.618 81.9727V83.4375C922.143 83.5677 921.68 83.6328 921.231 83.6328C920.424 83.6328 919.815 83.3887 919.405 82.9004C918.995 82.4121 918.79 81.7188 918.79 80.8203V74.2676H916.866V72.8711H918.79V70.3125H920.596ZM929.073 83.6328C927.641 83.6328 926.475 83.1641 925.577 82.2266C924.678 81.2826 924.229 80.0228 924.229 78.4473V78.1152C924.229 77.0671 924.428 76.1328 924.825 75.3125C925.229 74.4857 925.789 73.8411 926.505 73.3789C927.227 72.9102 928.009 72.6758 928.848 72.6758C930.222 72.6758 931.29 73.1283 932.052 74.0332C932.813 74.9382 933.194 76.2337 933.194 77.9199V78.6719H926.036C926.062 79.7135 926.365 80.5566 926.944 81.2012C927.53 81.8392 928.272 82.1582 929.171 82.1582C929.809 82.1582 930.349 82.028 930.792 81.7676C931.234 81.5072 931.622 81.1621 931.954 80.7324L933.057 81.5918C932.172 82.9525 930.844 83.6328 929.073 83.6328ZM928.848 74.1602C928.119 74.1602 927.507 74.4271 927.012 74.9609C926.518 75.4883 926.212 76.2305 926.095 77.1875H931.387V77.0508C931.335 76.1328 931.088 75.4232 930.645 74.9219C930.203 74.4141 929.604 74.1602 928.848 74.1602ZM941.446 80.6348C941.446 80.1465 941.261 79.7689 940.889 79.502C940.525 79.2285 939.884 78.9941 938.966 78.7988C938.054 78.6035 937.328 78.3691 936.788 78.0957C936.254 77.8223 935.857 77.4967 935.596 77.1191C935.343 76.7415 935.216 76.2923 935.216 75.7715C935.216 74.9056 935.58 74.1732 936.309 73.5742C937.045 72.9753 937.983 72.6758 939.122 72.6758C940.32 72.6758 941.29 72.985 942.032 73.6035C942.781 74.222 943.155 75.013 943.155 75.9766H941.339C941.339 75.4818 941.127 75.0553 940.704 74.6973C940.287 74.3392 939.76 74.1602 939.122 74.1602C938.464 74.1602 937.95 74.3034 937.579 74.5898C937.208 74.8763 937.022 75.2507 937.022 75.7129C937.022 76.1491 937.195 76.4779 937.54 76.6992C937.885 76.9206 938.507 77.1322 939.405 77.334C940.31 77.5358 941.042 77.7767 941.602 78.0566C942.162 78.3366 942.576 78.6751 942.843 79.0723C943.116 79.4629 943.253 79.9414 943.253 80.5078C943.253 81.4518 942.875 82.2103 942.12 82.7832C941.365 83.3496 940.385 83.6328 939.18 83.6328C938.334 83.6328 937.585 83.4831 936.934 83.1836C936.283 82.8841 935.772 82.4674 935.401 81.9336C935.037 81.3932 934.854 80.8105 934.854 80.1855H936.661C936.693 80.791 936.934 81.2728 937.384 81.6309C937.839 81.9824 938.438 82.1582 939.18 82.1582C939.864 82.1582 940.411 82.0215 940.821 81.748C941.238 81.4681 941.446 81.097 941.446 80.6348ZM950.128 78.0664C950.128 76.4453 950.512 75.1432 951.28 74.1602C952.048 73.1706 953.054 72.6758 954.298 72.6758C955.535 72.6758 956.514 73.099 957.237 73.9453V68.4375H959.044V83.4375H957.384L957.296 82.3047C956.573 83.1901 955.567 83.6328 954.278 83.6328C953.054 83.6328 952.055 83.1315 951.28 82.1289C950.512 81.1263 950.128 79.8177 950.128 78.2031V78.0664ZM951.934 78.2715C951.934 79.4694 952.182 80.4069 952.677 81.084C953.171 81.7611 953.855 82.0996 954.727 82.0996C955.873 82.0996 956.71 81.5853 957.237 80.5566V75.7031C956.697 74.707 955.867 74.209 954.747 74.209C953.861 74.209 953.171 74.5508 952.677 75.2344C952.182 75.918 951.934 76.9303 951.934 78.2715ZM968.38 83.4375C968.275 83.2292 968.191 82.8581 968.126 82.3242C967.286 83.1966 966.283 83.6328 965.118 83.6328C964.076 83.6328 963.22 83.3398 962.55 82.7539C961.886 82.1615 961.553 81.4128 961.553 80.5078C961.553 79.4076 961.97 78.5547 962.803 77.9492C963.643 77.3372 964.822 77.0312 966.339 77.0312H968.096V76.2012C968.096 75.5697 967.908 75.0684 967.53 74.6973C967.152 74.3197 966.596 74.1309 965.86 74.1309C965.216 74.1309 964.675 74.2936 964.239 74.6191C963.803 74.9447 963.585 75.3385 963.585 75.8008H961.768C961.768 75.2734 961.954 74.7656 962.325 74.2773C962.703 73.7826 963.21 73.3919 963.848 73.1055C964.493 72.819 965.199 72.6758 965.968 72.6758C967.185 72.6758 968.139 72.9818 968.829 73.5938C969.519 74.1992 969.877 75.0358 969.903 76.1035V80.9668C969.903 81.9368 970.027 82.7083 970.274 83.2812V83.4375H968.38ZM965.382 82.0605C965.948 82.0605 966.485 81.9141 966.993 81.6211C967.501 81.3281 967.869 80.9473 968.096 80.4785V78.3105H966.68C964.467 78.3105 963.36 78.9583 963.36 80.2539C963.36 80.8203 963.549 81.263 963.927 81.582C964.304 81.901 964.789 82.0605 965.382 82.0605ZM974.698 83.4375H972.891V72.8711H974.698V83.4375ZM972.745 70.0684C972.745 69.7754 972.833 69.528 973.009 69.3262C973.191 69.1243 973.458 69.0234 973.809 69.0234C974.161 69.0234 974.428 69.1243 974.61 69.3262C974.792 69.528 974.884 69.7754 974.884 70.0684C974.884 70.3613 974.792 70.6055 974.61 70.8008C974.428 70.9961 974.161 71.0938 973.809 71.0938C973.458 71.0938 973.191 70.9961 973.009 70.8008C972.833 70.6055 972.745 70.3613 972.745 70.0684ZM979.561 83.4375H977.755V68.4375H979.561V83.4375ZM985.919 80.791L988.38 72.8711H990.313L986.065 85.0684C985.408 86.8262 984.363 87.7051 982.93 87.7051L982.589 87.6758L981.915 87.5488V86.084L982.403 86.123C983.015 86.123 983.49 85.9993 983.829 85.752C984.174 85.5046 984.457 85.0521 984.678 84.3945L985.079 83.3203L981.309 72.8711H983.282L985.919 80.791Z" fill="white"/>
<rect x="45.6484" y="136.519" width="146.228" height="73.8345" rx="5" fill="#2A365C"/>
<path d="M86.7227 169.066H82.1523V181.742H80.2871V169.066H75.7266V167.523H86.7227V169.066ZM87.0938 176.361C87.0938 175.326 87.2956 174.395 87.6992 173.568C88.1094 172.741 88.6758 172.103 89.3984 171.654C90.1276 171.205 90.9577 170.98 91.8887 170.98C93.3275 170.98 94.4896 171.478 95.375 172.474C96.2669 173.47 96.7129 174.795 96.7129 176.449V176.576C96.7129 177.605 96.5143 178.529 96.1172 179.349C95.7266 180.163 95.1634 180.798 94.4277 181.254C93.6986 181.709 92.8587 181.937 91.9082 181.937C90.4759 181.937 89.3138 181.439 88.4219 180.443C87.5365 179.447 87.0938 178.129 87.0938 176.488V176.361ZM88.9102 176.576C88.9102 177.748 89.1803 178.689 89.7207 179.398C90.2676 180.108 90.9967 180.463 91.9082 180.463C92.8262 180.463 93.5553 180.105 94.0957 179.388C94.6361 178.666 94.9062 177.657 94.9062 176.361C94.9062 175.202 94.6296 174.265 94.0762 173.549C93.5293 172.826 92.8001 172.465 91.8887 172.465C90.9967 172.465 90.2773 172.819 89.7305 173.529C89.1836 174.239 88.9102 175.254 88.9102 176.576ZM105.639 171.176L105.688 172.347C106.462 171.436 107.507 170.98 108.822 170.98C110.3 170.98 111.306 171.547 111.84 172.679C112.191 172.172 112.647 171.761 113.207 171.449C113.773 171.136 114.441 170.98 115.209 170.98C117.527 170.98 118.705 172.207 118.744 174.662V181.742H116.938V174.769C116.938 174.014 116.765 173.451 116.42 173.08C116.075 172.702 115.495 172.513 114.682 172.513C114.011 172.513 113.454 172.715 113.012 173.119C112.569 173.516 112.312 174.053 112.24 174.73V181.742H110.424V174.818C110.424 173.282 109.672 172.513 108.168 172.513C106.983 172.513 106.173 173.018 105.736 174.027V181.742H103.93V171.176H105.639ZM121 176.361C121 175.326 121.202 174.395 121.605 173.568C122.016 172.741 122.582 172.103 123.305 171.654C124.034 171.205 124.864 170.98 125.795 170.98C127.234 170.98 128.396 171.478 129.281 172.474C130.173 173.47 130.619 174.795 130.619 176.449V176.576C130.619 177.605 130.421 178.529 130.023 179.349C129.633 180.163 129.07 180.798 128.334 181.254C127.605 181.709 126.765 181.937 125.814 181.937C124.382 181.937 123.22 181.439 122.328 180.443C121.443 179.447 121 178.129 121 176.488V176.361ZM122.816 176.576C122.816 177.748 123.087 178.689 123.627 179.398C124.174 180.108 124.903 180.463 125.814 180.463C126.732 180.463 127.462 180.105 128.002 179.388C128.542 178.666 128.812 177.657 128.812 176.361C128.812 175.202 128.536 174.265 127.982 173.549C127.436 172.826 126.706 172.465 125.795 172.465C124.903 172.465 124.184 172.819 123.637 173.529C123.09 174.239 122.816 175.254 122.816 176.576ZM136.215 179.291L138.832 171.176H140.678L136.889 181.742H135.512L131.684 171.176H133.529L136.215 179.291ZM146.664 181.937C145.232 181.937 144.066 181.469 143.168 180.531C142.27 179.587 141.82 178.327 141.82 176.752V176.42C141.82 175.372 142.019 174.437 142.416 173.617C142.82 172.79 143.38 172.146 144.096 171.683C144.818 171.215 145.6 170.98 146.439 170.98C147.813 170.98 148.881 171.433 149.643 172.338C150.404 173.243 150.785 174.538 150.785 176.224V176.976H143.627C143.653 178.018 143.956 178.861 144.535 179.506C145.121 180.144 145.863 180.463 146.762 180.463C147.4 180.463 147.94 180.332 148.383 180.072C148.826 179.812 149.213 179.467 149.545 179.037L150.648 179.896C149.763 181.257 148.435 181.937 146.664 181.937ZM146.439 172.465C145.71 172.465 145.098 172.732 144.604 173.265C144.109 173.793 143.803 174.535 143.686 175.492H148.979V175.355C148.926 174.437 148.679 173.728 148.236 173.226C147.794 172.719 147.195 172.465 146.439 172.465Z" fill="white"/>
<path d="M920.709 128.385C920.123 127.799 919.173 127.799 918.587 128.385L909.041 137.931C908.456 138.516 908.456 139.466 909.042 140.052C909.627 140.638 910.577 140.638 911.163 140.052L919.648 131.567L928.133 140.052C928.719 140.638 929.669 140.638 930.255 140.052C930.84 139.466 930.84 138.516 930.255 137.931L920.709 128.385ZM919.648 169.919V171.419H921.148V169.919L919.648 169.919ZM247.213 168.858C246.627 169.444 246.627 170.394 247.213 170.979L256.759 180.525C257.344 181.111 258.294 181.111 258.88 180.525C259.466 179.94 259.466 178.99 258.88 178.404L250.395 169.919L258.88 161.433C259.466 160.848 259.466 159.898 258.88 159.312C258.294 158.726 257.344 158.726 256.759 159.312L247.213 168.858ZM918.148 129.445L918.148 169.919L921.148 169.919L921.148 129.445L918.148 129.445ZM919.648 168.419H248.273V171.419H919.648V168.419Z" fill="#626A84"/>
<rect x="1135.7" y="38.2134" width="343.485" height="73.8345" rx="5" fill="#2A365C"/>
<path d="M1180.6 70.7617H1176.03V83.4375H1174.17V70.7617H1169.61V69.2188H1180.6V70.7617ZM1180.97 78.0566C1180.97 77.0215 1181.17 76.0905 1181.58 75.2637C1181.99 74.4368 1182.55 73.7988 1183.28 73.3496C1184.01 72.9004 1184.84 72.6758 1185.77 72.6758C1187.21 72.6758 1188.37 73.1738 1189.25 74.1699C1190.15 75.166 1190.59 76.4909 1190.59 78.1445V78.2715C1190.59 79.3001 1190.39 80.2246 1190 81.0449C1189.61 81.8587 1189.04 82.4935 1188.31 82.9492C1187.58 83.4049 1186.74 83.6328 1185.79 83.6328C1184.35 83.6328 1183.19 83.1348 1182.3 82.1387C1181.42 81.1426 1180.97 79.8242 1180.97 78.1836V78.0566ZM1182.79 78.2715C1182.79 79.4434 1183.06 80.3841 1183.6 81.0938C1184.15 81.8034 1184.88 82.1582 1185.79 82.1582C1186.71 82.1582 1187.43 81.8001 1187.97 81.084C1188.51 80.3613 1188.79 79.3522 1188.79 78.0566C1188.79 76.8978 1188.51 75.9603 1187.96 75.2441C1187.41 74.5215 1186.68 74.1602 1185.77 74.1602C1184.88 74.1602 1184.16 74.515 1183.61 75.2246C1183.06 75.9342 1182.79 76.9499 1182.79 78.2715ZM1192.38 78.0566C1192.38 77.0215 1192.58 76.0905 1192.98 75.2637C1193.39 74.4368 1193.96 73.7988 1194.68 73.3496C1195.41 72.9004 1196.24 72.6758 1197.17 72.6758C1198.61 72.6758 1199.77 73.1738 1200.66 74.1699C1201.55 75.166 1202 76.4909 1202 78.1445V78.2715C1202 79.3001 1201.8 80.2246 1201.4 81.0449C1201.01 81.8587 1200.45 82.4935 1199.71 82.9492C1198.98 83.4049 1198.14 83.6328 1197.19 83.6328C1195.76 83.6328 1194.6 83.1348 1193.71 82.1387C1192.82 81.1426 1192.38 79.8242 1192.38 78.1836V78.0566ZM1194.2 78.2715C1194.2 79.4434 1194.47 80.3841 1195.01 81.0938C1195.55 81.8034 1196.28 82.1582 1197.19 82.1582C1198.11 82.1582 1198.84 81.8001 1199.38 81.084C1199.92 80.3613 1200.19 79.3522 1200.19 78.0566C1200.19 76.8978 1199.91 75.9603 1199.36 75.2441C1198.81 74.5215 1198.09 74.1602 1197.17 74.1602C1196.28 74.1602 1195.56 74.515 1195.02 75.2246C1194.47 75.9342 1194.2 76.9499 1194.2 78.2715ZM1206.23 83.4375H1204.42V68.4375H1206.23V83.4375ZM1215.28 80.6348C1215.28 80.1465 1215.09 79.7689 1214.72 79.502C1214.36 79.2285 1213.72 78.9941 1212.8 78.7988C1211.89 78.6035 1211.16 78.3691 1210.62 78.0957C1210.09 77.8223 1209.69 77.4967 1209.43 77.1191C1209.18 76.7415 1209.05 76.2923 1209.05 75.7715C1209.05 74.9056 1209.41 74.1732 1210.14 73.5742C1210.88 72.9753 1211.82 72.6758 1212.96 72.6758C1214.15 72.6758 1215.12 72.985 1215.87 73.6035C1216.61 74.222 1216.99 75.013 1216.99 75.9766H1215.17C1215.17 75.4818 1214.96 75.0553 1214.54 74.6973C1214.12 74.3392 1213.59 74.1602 1212.96 74.1602C1212.3 74.1602 1211.78 74.3034 1211.41 74.5898C1211.04 74.8763 1210.86 75.2507 1210.86 75.7129C1210.86 76.1491 1211.03 76.4779 1211.37 76.6992C1211.72 76.9206 1212.34 77.1322 1213.24 77.334C1214.14 77.5358 1214.88 77.7767 1215.44 78.0566C1216 78.3366 1216.41 78.6751 1216.68 79.0723C1216.95 79.4629 1217.09 79.9414 1217.09 80.5078C1217.09 81.4518 1216.71 82.2103 1215.95 82.7832C1215.2 83.3496 1214.22 83.6328 1213.01 83.6328C1212.17 83.6328 1211.42 83.4831 1210.77 83.1836C1210.12 82.8841 1209.61 82.4674 1209.23 81.9336C1208.87 81.3932 1208.69 80.8105 1208.69 80.1855H1210.49C1210.53 80.791 1210.77 81.2728 1211.22 81.6309C1211.67 81.9824 1212.27 82.1582 1213.01 82.1582C1213.7 82.1582 1214.24 82.0215 1214.65 81.748C1215.07 81.4681 1215.28 81.097 1215.28 80.6348ZM1223.96 78.0664C1223.96 76.4453 1224.35 75.1432 1225.11 74.1602C1225.88 73.1706 1226.89 72.6758 1228.13 72.6758C1229.37 72.6758 1230.35 73.099 1231.07 73.9453V68.4375H1232.88V83.4375H1231.22L1231.13 82.3047C1230.41 83.1901 1229.4 83.6328 1228.11 83.6328C1226.89 83.6328 1225.89 83.1315 1225.11 82.1289C1224.35 81.1263 1223.96 79.8177 1223.96 78.2031V78.0664ZM1225.77 78.2715C1225.77 79.4694 1226.01 80.4069 1226.51 81.084C1227 81.7611 1227.69 82.0996 1228.56 82.0996C1229.71 82.0996 1230.54 81.5853 1231.07 80.5566V75.7031C1230.53 74.707 1229.7 74.209 1228.58 74.209C1227.69 74.209 1227 74.5508 1226.51 75.2344C1226.01 75.918 1225.77 76.9303 1225.77 78.2715ZM1240.07 83.6328C1238.64 83.6328 1237.48 83.1641 1236.58 82.2266C1235.68 81.2826 1235.23 80.0228 1235.23 78.4473V78.1152C1235.23 77.0671 1235.43 76.1328 1235.83 75.3125C1236.23 74.4857 1236.79 73.8411 1237.51 73.3789C1238.23 72.9102 1239.01 72.6758 1239.85 72.6758C1241.22 72.6758 1242.29 73.1283 1243.05 74.0332C1243.81 74.9382 1244.2 76.2337 1244.2 77.9199V78.6719H1237.04C1237.06 79.7135 1237.37 80.5566 1237.95 81.2012C1238.53 81.8392 1239.27 82.1582 1240.17 82.1582C1240.81 82.1582 1241.35 82.028 1241.79 81.7676C1242.24 81.5072 1242.62 81.1621 1242.96 80.7324L1244.06 81.5918C1243.17 82.9525 1241.85 83.6328 1240.07 83.6328ZM1239.85 74.1602C1239.12 74.1602 1238.51 74.4271 1238.01 74.9609C1237.52 75.4883 1237.21 76.2305 1237.1 77.1875H1242.39V77.0508C1242.34 76.1328 1242.09 75.4232 1241.65 74.9219C1241.2 74.4141 1240.6 74.1602 1239.85 74.1602ZM1252.45 80.6348C1252.45 80.1465 1252.26 79.7689 1251.89 79.502C1251.53 79.2285 1250.88 78.9941 1249.97 78.7988C1249.06 78.6035 1248.33 78.3691 1247.79 78.0957C1247.26 77.8223 1246.86 77.4967 1246.6 77.1191C1246.34 76.7415 1246.22 76.2923 1246.22 75.7715C1246.22 74.9056 1246.58 74.1732 1247.31 73.5742C1248.05 72.9753 1248.98 72.6758 1250.12 72.6758C1251.32 72.6758 1252.29 72.985 1253.03 73.6035C1253.78 74.222 1254.16 75.013 1254.16 75.9766H1252.34C1252.34 75.4818 1252.13 75.0553 1251.71 74.6973C1251.29 74.3392 1250.76 74.1602 1250.12 74.1602C1249.47 74.1602 1248.95 74.3034 1248.58 74.5898C1248.21 74.8763 1248.02 75.2507 1248.02 75.7129C1248.02 76.1491 1248.2 76.4779 1248.54 76.6992C1248.89 76.9206 1249.51 77.1322 1250.41 77.334C1251.31 77.5358 1252.04 77.7767 1252.6 78.0566C1253.16 78.3366 1253.58 78.6751 1253.84 79.0723C1254.12 79.4629 1254.25 79.9414 1254.25 80.5078C1254.25 81.4518 1253.88 82.2103 1253.12 82.7832C1252.37 83.3496 1251.39 83.6328 1250.18 83.6328C1249.34 83.6328 1248.59 83.4831 1247.94 83.1836C1247.28 82.8841 1246.77 82.4674 1246.4 81.9336C1246.04 81.3932 1245.86 80.8105 1245.86 80.1855H1247.66C1247.69 80.791 1247.94 81.2728 1248.38 81.6309C1248.84 81.9824 1249.44 82.1582 1250.18 82.1582C1250.87 82.1582 1251.41 82.0215 1251.82 81.748C1252.24 81.4681 1252.45 81.097 1252.45 80.6348ZM1258.57 83.4375H1256.76V72.8711H1258.57V83.4375ZM1256.62 70.0684C1256.62 69.7754 1256.71 69.528 1256.88 69.3262C1257.06 69.1243 1257.33 69.0234 1257.68 69.0234C1258.03 69.0234 1258.3 69.1243 1258.48 69.3262C1258.66 69.528 1258.76 69.7754 1258.76 70.0684C1258.76 70.3613 1258.66 70.6055 1258.48 70.8008C1258.3 70.9961 1258.03 71.0938 1257.68 71.0938C1257.33 71.0938 1257.06 70.9961 1256.88 70.8008C1256.71 70.6055 1256.62 70.3613 1256.62 70.0684ZM1261.04 78.0664C1261.04 76.4193 1261.42 75.1107 1262.18 74.1406C1262.95 73.1641 1263.95 72.6758 1265.21 72.6758C1266.5 72.6758 1267.51 73.1315 1268.23 74.043L1268.32 72.8711H1269.97V83.1836C1269.97 84.5508 1269.56 85.6283 1268.75 86.416C1267.94 87.2038 1266.85 87.5977 1265.48 87.5977C1264.72 87.5977 1263.98 87.4349 1263.25 87.1094C1262.52 86.7839 1261.96 86.3379 1261.58 85.7715L1262.52 84.6875C1263.29 85.6445 1264.24 86.123 1265.36 86.123C1266.24 86.123 1266.92 85.8757 1267.41 85.3809C1267.9 84.8861 1268.15 84.1895 1268.15 83.291V82.3828C1267.43 83.2161 1266.44 83.6328 1265.19 83.6328C1263.95 83.6328 1262.95 83.1348 1262.18 82.1387C1261.42 81.1426 1261.04 79.7852 1261.04 78.0664ZM1262.86 78.2715C1262.86 79.4629 1263.1 80.4004 1263.59 81.084C1264.08 81.7611 1264.76 82.0996 1265.64 82.0996C1266.78 82.0996 1267.62 81.582 1268.15 80.5469V75.7227C1267.6 74.7135 1266.77 74.209 1265.66 74.209C1264.78 74.209 1264.09 74.5508 1263.6 75.2344C1263.1 75.918 1262.86 76.9303 1262.86 78.2715ZM1274.41 72.8711L1274.47 74.1992C1275.28 73.1836 1276.33 72.6758 1277.63 72.6758C1279.87 72.6758 1280.99 73.9355 1281.01 76.4551V83.4375H1279.21V76.4453C1279.2 75.6836 1279.02 75.1204 1278.68 74.7559C1278.34 74.3913 1277.81 74.209 1277.09 74.209C1276.5 74.209 1275.99 74.3652 1275.54 74.6777C1275.1 74.9902 1274.76 75.4004 1274.51 75.9082V83.4375H1272.7V72.8711H1274.41ZM1288.32 79.6191C1288.32 78.9355 1288.51 78.3073 1288.88 77.7344C1289.27 77.1615 1290 76.4941 1291.07 75.7324C1290.44 74.9642 1290.02 74.3457 1289.8 73.877C1289.59 73.4082 1289.48 72.9427 1289.48 72.4805C1289.48 71.3997 1289.8 70.5534 1290.44 69.9414C1291.07 69.3294 1291.94 69.0234 1293.03 69.0234C1294.01 69.0234 1294.82 69.3099 1295.46 69.8828C1296.09 70.4492 1296.41 71.1654 1296.41 72.0312C1296.41 72.6042 1296.27 73.1348 1295.97 73.623C1295.69 74.1048 1295.18 74.6126 1294.46 75.1465L1293.41 75.918L1296.58 79.6973C1297.02 78.8509 1297.24 77.9102 1297.24 76.875H1298.87C1298.87 78.5352 1298.47 79.9121 1297.67 81.0059L1299.7 83.4375H1297.54L1296.59 82.3145C1296.11 82.7441 1295.54 83.0729 1294.89 83.3008C1294.24 83.5221 1293.59 83.6328 1292.92 83.6328C1291.53 83.6328 1290.42 83.265 1289.58 82.5293C1288.74 81.7936 1288.32 80.8236 1288.32 79.6191ZM1292.92 82.1582C1293.87 82.1582 1294.75 81.7936 1295.54 81.0645L1292.08 76.9141L1291.75 77.1484C1290.67 77.9492 1290.12 78.7728 1290.12 79.6191C1290.12 80.3874 1290.37 81.0026 1290.87 81.4648C1291.37 81.9271 1292.05 82.1582 1292.92 82.1582ZM1291.29 72.4219C1291.29 73.0469 1291.67 73.8281 1292.44 74.7656L1293.59 73.9551C1294.03 73.6426 1294.34 73.3464 1294.5 73.0664C1294.66 72.7799 1294.74 72.4349 1294.74 72.0312C1294.74 71.5951 1294.58 71.2337 1294.25 70.9473C1293.93 70.6543 1293.52 70.5078 1293.02 70.5078C1292.49 70.5078 1292.07 70.6901 1291.75 71.0547C1291.44 71.4128 1291.29 71.8685 1291.29 72.4219ZM1305.66 78.0664C1305.66 76.4453 1306.04 75.1432 1306.81 74.1602C1307.58 73.1706 1308.59 72.6758 1309.83 72.6758C1311.07 72.6758 1312.05 73.099 1312.77 73.9453V68.4375H1314.58V83.4375H1312.92L1312.83 82.3047C1312.11 83.1901 1311.1 83.6328 1309.81 83.6328C1308.59 83.6328 1307.59 83.1315 1306.81 82.1289C1306.04 81.1263 1305.66 79.8177 1305.66 78.2031V78.0664ZM1307.47 78.2715C1307.47 79.4694 1307.71 80.4069 1308.21 81.084C1308.7 81.7611 1309.39 82.0996 1310.26 82.0996C1311.41 82.0996 1312.24 81.5853 1312.77 80.5566V75.7031C1312.23 74.707 1311.4 74.209 1310.28 74.209C1309.39 74.209 1308.7 74.5508 1308.21 75.2344C1307.71 75.918 1307.47 76.9303 1307.47 78.2715ZM1321.77 83.6328C1320.34 83.6328 1319.18 83.1641 1318.28 82.2266C1317.38 81.2826 1316.93 80.0228 1316.93 78.4473V78.1152C1316.93 77.0671 1317.13 76.1328 1317.53 75.3125C1317.93 74.4857 1318.49 73.8411 1319.21 73.3789C1319.93 72.9102 1320.71 72.6758 1321.55 72.6758C1322.92 72.6758 1323.99 73.1283 1324.75 74.0332C1325.51 74.9382 1325.89 76.2337 1325.89 77.9199V78.6719H1318.74C1318.76 79.7135 1319.07 80.5566 1319.64 81.2012C1320.23 81.8392 1320.97 82.1582 1321.87 82.1582C1322.51 82.1582 1323.05 82.028 1323.49 81.7676C1323.93 81.5072 1324.32 81.1621 1324.65 80.7324L1325.76 81.5918C1324.87 82.9525 1323.54 83.6328 1321.77 83.6328ZM1321.55 74.1602C1320.82 74.1602 1320.21 74.4271 1319.71 74.9609C1319.22 75.4883 1318.91 76.2305 1318.79 77.1875H1324.09V77.0508C1324.04 76.1328 1323.79 75.4232 1323.35 74.9219C1322.9 74.4141 1322.3 74.1602 1321.55 74.1602ZM1331.34 80.9863L1333.96 72.8711H1335.81L1332.02 83.4375H1330.64L1326.81 72.8711H1328.66L1331.34 80.9863ZM1341.79 83.6328C1340.36 83.6328 1339.2 83.1641 1338.3 82.2266C1337.4 81.2826 1336.95 80.0228 1336.95 78.4473V78.1152C1336.95 77.0671 1337.15 76.1328 1337.54 75.3125C1337.95 74.4857 1338.51 73.8411 1339.22 73.3789C1339.95 72.9102 1340.73 72.6758 1341.57 72.6758C1342.94 72.6758 1344.01 73.1283 1344.77 74.0332C1345.53 74.9382 1345.91 76.2337 1345.91 77.9199V78.6719H1338.76C1338.78 79.7135 1339.08 80.5566 1339.66 81.2012C1340.25 81.8392 1340.99 82.1582 1341.89 82.1582C1342.53 82.1582 1343.07 82.028 1343.51 81.7676C1343.95 81.5072 1344.34 81.1621 1344.67 80.7324L1345.78 81.5918C1344.89 82.9525 1343.56 83.6328 1341.79 83.6328ZM1341.57 74.1602C1340.84 74.1602 1340.23 74.4271 1339.73 74.9609C1339.24 75.4883 1338.93 76.2305 1338.81 77.1875H1344.11V77.0508C1344.06 76.1328 1343.81 75.4232 1343.37 74.9219C1342.92 74.4141 1342.32 74.1602 1341.57 74.1602ZM1349.98 83.4375H1348.17V68.4375H1349.98V83.4375ZM1352.4 78.0566C1352.4 77.0215 1352.6 76.0905 1353 75.2637C1353.41 74.4368 1353.98 73.7988 1354.7 73.3496C1355.43 72.9004 1356.26 72.6758 1357.19 72.6758C1358.63 72.6758 1359.79 73.1738 1360.68 74.1699C1361.57 75.166 1362.02 76.4909 1362.02 78.1445V78.2715C1362.02 79.3001 1361.82 80.2246 1361.42 81.0449C1361.03 81.8587 1360.47 82.4935 1359.73 82.9492C1359 83.4049 1358.16 83.6328 1357.21 83.6328C1355.78 83.6328 1354.62 83.1348 1353.73 82.1387C1352.84 81.1426 1352.4 79.8242 1352.4 78.1836V78.0566ZM1354.21 78.2715C1354.21 79.4434 1354.49 80.3841 1355.03 81.0938C1355.57 81.8034 1356.3 82.1582 1357.21 82.1582C1358.13 82.1582 1358.86 81.8001 1359.4 81.084C1359.94 80.3613 1360.21 79.3522 1360.21 78.0566C1360.21 76.8978 1359.93 75.9603 1359.38 75.2441C1358.83 74.5215 1358.1 74.1602 1357.19 74.1602C1356.3 74.1602 1355.58 74.515 1355.04 75.2246C1354.49 75.9342 1354.21 76.9499 1354.21 78.2715ZM1373.21 78.2715C1373.21 79.8796 1372.84 81.1751 1372.11 82.1582C1371.37 83.1413 1370.37 83.6328 1369.12 83.6328C1367.83 83.6328 1366.83 83.2259 1366.09 82.4121V87.5H1364.28V72.8711H1365.93L1366.02 74.043C1366.76 73.1315 1367.78 72.6758 1369.09 72.6758C1370.36 72.6758 1371.36 73.1543 1372.1 74.1113C1372.84 75.0684 1373.21 76.3997 1373.21 78.1055V78.2715ZM1371.4 78.0664C1371.4 76.875 1371.15 75.9342 1370.64 75.2441C1370.13 74.554 1369.44 74.209 1368.55 74.209C1367.46 74.209 1366.64 74.694 1366.09 75.6641V80.7129C1366.63 81.6764 1367.46 82.1582 1368.57 82.1582C1369.44 82.1582 1370.12 81.8164 1370.63 81.1328C1371.15 80.4427 1371.4 79.4206 1371.4 78.0664ZM1377.21 72.8711L1377.26 74.043C1378.04 73.1315 1379.08 72.6758 1380.4 72.6758C1381.87 72.6758 1382.88 73.2422 1383.41 74.375C1383.77 73.8672 1384.22 73.457 1384.78 73.1445C1385.35 72.832 1386.01 72.6758 1386.78 72.6758C1389.1 72.6758 1390.28 73.903 1390.32 76.3574V83.4375H1388.51V76.4648C1388.51 75.7096 1388.34 75.1465 1387.99 74.7754C1387.65 74.3978 1387.07 74.209 1386.26 74.209C1385.59 74.209 1385.03 74.4108 1384.59 74.8145C1384.14 75.2116 1383.89 75.7487 1383.81 76.4258V83.4375H1382V76.5137C1382 74.9772 1381.25 74.209 1379.74 74.209C1378.56 74.209 1377.75 74.7135 1377.31 75.7227V83.4375H1375.5V72.8711H1377.21ZM1397.44 83.6328C1396.01 83.6328 1394.84 83.1641 1393.94 82.2266C1393.04 81.2826 1392.59 80.0228 1392.59 78.4473V78.1152C1392.59 77.0671 1392.79 76.1328 1393.19 75.3125C1393.59 74.4857 1394.15 73.8411 1394.87 73.3789C1395.59 72.9102 1396.37 72.6758 1397.21 72.6758C1398.59 72.6758 1399.65 73.1283 1400.42 74.0332C1401.18 74.9382 1401.56 76.2337 1401.56 77.9199V78.6719H1394.4C1394.43 79.7135 1394.73 80.5566 1395.31 81.2012C1395.89 81.8392 1396.64 82.1582 1397.54 82.1582C1398.17 82.1582 1398.71 82.028 1399.16 81.7676C1399.6 81.5072 1399.99 81.1621 1400.32 80.7324L1401.42 81.5918C1400.54 82.9525 1399.21 83.6328 1397.44 83.6328ZM1397.21 74.1602C1396.48 74.1602 1395.87 74.4271 1395.38 74.9609C1394.88 75.4883 1394.58 76.2305 1394.46 77.1875H1399.75V77.0508C1399.7 76.1328 1399.45 75.4232 1399.01 74.9219C1398.57 74.4141 1397.97 74.1602 1397.21 74.1602ZM1405.37 72.8711L1405.43 74.1992C1406.23 73.1836 1407.29 72.6758 1408.59 72.6758C1410.82 72.6758 1411.95 73.9355 1411.97 76.4551V83.4375H1410.16V76.4453C1410.16 75.6836 1409.98 75.1204 1409.63 74.7559C1409.3 74.3913 1408.77 74.209 1408.04 74.209C1407.46 74.209 1406.94 74.3652 1406.5 74.6777C1406.06 74.9902 1405.71 75.4004 1405.46 75.9082V83.4375H1403.66V72.8711H1405.37ZM1417.14 70.3125V72.8711H1419.12V74.2676H1417.14V80.8203C1417.14 81.2435 1417.23 81.5625 1417.41 81.7773C1417.58 81.9857 1417.88 82.0898 1418.31 82.0898C1418.51 82.0898 1418.8 82.0508 1419.17 81.9727V83.4375C1418.69 83.5677 1418.23 83.6328 1417.78 83.6328C1416.97 83.6328 1416.36 83.3887 1415.95 82.9004C1415.54 82.4121 1415.34 81.7188 1415.34 80.8203V74.2676H1413.41V72.8711H1415.34V70.3125H1417.14Z" fill="white"/>
<path d="M1182.11 129.788H1186.08V131.497H1182.11V135.989H1180.3V131.497H1176.33V129.788H1180.3V125.638H1182.11V129.788ZM1195.7 124.29V126.849H1197.67V128.245H1195.7V134.798C1195.7 135.221 1195.79 135.54 1195.96 135.755C1196.14 135.963 1196.44 136.067 1196.86 136.067C1197.07 136.067 1197.36 136.028 1197.72 135.95V137.415C1197.25 137.545 1196.78 137.61 1196.33 137.61C1195.53 137.61 1194.92 137.366 1194.51 136.878C1194.1 136.39 1193.89 135.696 1193.89 134.798V128.245H1191.97V126.849H1193.89V124.29H1195.7ZM1199.12 132.034C1199.12 130.999 1199.32 130.068 1199.72 129.241C1200.13 128.414 1200.7 127.776 1201.42 127.327C1202.15 126.878 1202.98 126.653 1203.91 126.653C1205.35 126.653 1206.51 127.151 1207.4 128.147C1208.29 129.144 1208.74 130.468 1208.74 132.122V132.249C1208.74 133.278 1208.54 134.202 1208.14 135.022C1207.75 135.836 1207.19 136.471 1206.45 136.927C1205.72 137.382 1204.88 137.61 1203.93 137.61C1202.5 137.61 1201.34 137.112 1200.44 136.116C1199.56 135.12 1199.12 133.802 1199.12 132.161V132.034ZM1200.93 132.249C1200.93 133.421 1201.2 134.362 1201.74 135.071C1202.29 135.781 1203.02 136.136 1203.93 136.136C1204.85 136.136 1205.58 135.778 1206.12 135.062C1206.66 134.339 1206.93 133.33 1206.93 132.034C1206.93 130.875 1206.65 129.938 1206.1 129.222C1205.55 128.499 1204.82 128.138 1203.91 128.138C1203.02 128.138 1202.3 128.493 1201.75 129.202C1201.21 129.912 1200.93 130.927 1200.93 132.249ZM1210.52 132.034C1210.52 130.999 1210.72 130.068 1211.13 129.241C1211.54 128.414 1212.11 127.776 1212.83 127.327C1213.56 126.878 1214.39 126.653 1215.32 126.653C1216.76 126.653 1217.92 127.151 1218.8 128.147C1219.7 129.144 1220.14 130.468 1220.14 132.122V132.249C1220.14 133.278 1219.94 134.202 1219.55 135.022C1219.16 135.836 1218.59 136.471 1217.86 136.927C1217.13 137.382 1216.29 137.61 1215.34 137.61C1213.91 137.61 1212.74 137.112 1211.85 136.116C1210.97 135.12 1210.52 133.802 1210.52 132.161V132.034ZM1212.34 132.249C1212.34 133.421 1212.61 134.362 1213.15 135.071C1213.7 135.781 1214.43 136.136 1215.34 136.136C1216.26 136.136 1216.98 135.778 1217.52 135.062C1218.07 134.339 1218.34 133.33 1218.34 132.034C1218.34 130.875 1218.06 129.938 1217.51 129.222C1216.96 128.499 1216.23 128.138 1215.32 128.138C1214.43 128.138 1213.71 128.493 1213.16 129.202C1212.61 129.912 1212.34 130.927 1212.34 132.249ZM1224.37 137.415H1222.56V122.415H1224.37V137.415ZM1233.42 134.612C1233.42 134.124 1233.24 133.746 1232.87 133.479C1232.5 133.206 1231.86 132.972 1230.94 132.776C1230.03 132.581 1229.31 132.347 1228.77 132.073C1228.23 131.8 1227.83 131.474 1227.57 131.097C1227.32 130.719 1227.19 130.27 1227.19 129.749C1227.19 128.883 1227.56 128.151 1228.29 127.552C1229.02 126.953 1229.96 126.653 1231.1 126.653C1232.3 126.653 1233.27 126.963 1234.01 127.581C1234.76 128.2 1235.13 128.991 1235.13 129.954H1233.32C1233.32 129.459 1233.1 129.033 1232.68 128.675C1232.26 128.317 1231.74 128.138 1231.1 128.138C1230.44 128.138 1229.93 128.281 1229.56 128.567C1229.19 128.854 1229 129.228 1229 129.69C1229 130.127 1229.17 130.455 1229.52 130.677C1229.86 130.898 1230.48 131.11 1231.38 131.312C1232.29 131.513 1233.02 131.754 1233.58 132.034C1234.14 132.314 1234.55 132.653 1234.82 133.05C1235.09 133.44 1235.23 133.919 1235.23 134.485C1235.23 135.429 1234.85 136.188 1234.1 136.761C1233.34 137.327 1232.36 137.61 1231.16 137.61C1230.31 137.61 1229.56 137.461 1228.91 137.161C1228.26 136.862 1227.75 136.445 1227.38 135.911C1227.01 135.371 1226.83 134.788 1226.83 134.163H1228.64C1228.67 134.769 1228.91 135.25 1229.36 135.608C1229.82 135.96 1230.42 136.136 1231.16 136.136C1231.84 136.136 1232.39 135.999 1232.8 135.726C1233.22 135.446 1233.42 135.075 1233.42 134.612ZM1242.11 132.044C1242.11 130.423 1242.49 129.121 1243.26 128.138C1244.03 127.148 1245.03 126.653 1246.27 126.653C1247.51 126.653 1248.49 127.076 1249.21 127.923V122.415H1251.02V137.415H1249.36L1249.27 136.282C1248.55 137.168 1247.54 137.61 1246.26 137.61C1245.03 137.61 1244.03 137.109 1243.26 136.106C1242.49 135.104 1242.11 133.795 1242.11 132.181V132.044ZM1243.91 132.249C1243.91 133.447 1244.16 134.384 1244.65 135.062C1245.15 135.739 1245.83 136.077 1246.7 136.077C1247.85 136.077 1248.69 135.563 1249.21 134.534V129.681C1248.67 128.685 1247.84 128.187 1246.72 128.187C1245.84 128.187 1245.15 128.528 1244.65 129.212C1244.16 129.896 1243.91 130.908 1243.91 132.249ZM1258.22 137.61C1256.79 137.61 1255.62 137.142 1254.72 136.204C1253.82 135.26 1253.37 134 1253.37 132.425V132.093C1253.37 131.045 1253.57 130.11 1253.97 129.29C1254.37 128.463 1254.93 127.819 1255.65 127.356C1256.37 126.888 1257.15 126.653 1257.99 126.653C1259.37 126.653 1260.44 127.106 1261.2 128.011C1261.96 128.916 1262.34 130.211 1262.34 131.897V132.649H1255.18C1255.21 133.691 1255.51 134.534 1256.09 135.179C1256.68 135.817 1257.42 136.136 1258.32 136.136C1258.95 136.136 1259.49 136.006 1259.94 135.745C1260.38 135.485 1260.77 135.14 1261.1 134.71L1262.2 135.569C1261.32 136.93 1259.99 137.61 1258.22 137.61ZM1257.99 128.138C1257.26 128.138 1256.65 128.405 1256.16 128.938C1255.66 129.466 1255.36 130.208 1255.24 131.165H1260.53V131.028C1260.48 130.11 1260.23 129.401 1259.79 128.899C1259.35 128.392 1258.75 128.138 1257.99 128.138ZM1270.59 134.612C1270.59 134.124 1270.41 133.746 1270.03 133.479C1269.67 133.206 1269.03 132.972 1268.11 132.776C1267.2 132.581 1266.47 132.347 1265.93 132.073C1265.4 131.8 1265 131.474 1264.74 131.097C1264.49 130.719 1264.36 130.27 1264.36 129.749C1264.36 128.883 1264.73 128.151 1265.45 127.552C1266.19 126.953 1267.13 126.653 1268.27 126.653C1269.47 126.653 1270.44 126.963 1271.18 127.581C1271.93 128.2 1272.3 128.991 1272.3 129.954H1270.48C1270.48 129.459 1270.27 129.033 1269.85 128.675C1269.43 128.317 1268.91 128.138 1268.27 128.138C1267.61 128.138 1267.1 128.281 1266.72 128.567C1266.35 128.854 1266.17 129.228 1266.17 129.69C1266.17 130.127 1266.34 130.455 1266.69 130.677C1267.03 130.898 1267.65 131.11 1268.55 131.312C1269.46 131.513 1270.19 131.754 1270.75 132.034C1271.31 132.314 1271.72 132.653 1271.99 133.05C1272.26 133.44 1272.4 133.919 1272.4 134.485C1272.4 135.429 1272.02 136.188 1271.27 136.761C1270.51 137.327 1269.53 137.61 1268.33 137.61C1267.48 137.61 1266.73 137.461 1266.08 137.161C1265.43 136.862 1264.92 136.445 1264.55 135.911C1264.18 135.371 1264 134.788 1264 134.163H1265.81C1265.84 134.769 1266.08 135.25 1266.53 135.608C1266.98 135.96 1267.58 136.136 1268.33 136.136C1269.01 136.136 1269.56 135.999 1269.97 135.726C1270.38 135.446 1270.59 135.075 1270.59 134.612ZM1276.71 137.415H1274.91V126.849H1276.71V137.415ZM1274.76 124.046C1274.76 123.753 1274.85 123.506 1275.02 123.304C1275.21 123.102 1275.47 123.001 1275.83 123.001C1276.18 123.001 1276.44 123.102 1276.63 123.304C1276.81 123.506 1276.9 123.753 1276.9 124.046C1276.9 124.339 1276.81 124.583 1276.63 124.778C1276.44 124.974 1276.18 125.071 1275.83 125.071C1275.47 125.071 1275.21 124.974 1275.02 124.778C1274.85 124.583 1274.76 124.339 1274.76 124.046ZM1279.19 132.044C1279.19 130.397 1279.57 129.088 1280.33 128.118C1281.09 127.142 1282.1 126.653 1283.36 126.653C1284.64 126.653 1285.65 127.109 1286.37 128.021L1286.46 126.849H1288.11V137.161C1288.11 138.528 1287.7 139.606 1286.89 140.394C1286.08 141.181 1285 141.575 1283.63 141.575C1282.87 141.575 1282.12 141.412 1281.39 141.087C1280.66 140.761 1280.11 140.315 1279.72 139.749L1280.66 138.665C1281.43 139.622 1282.38 140.101 1283.5 140.101C1284.38 140.101 1285.06 139.853 1285.55 139.358C1286.05 138.864 1286.29 138.167 1286.29 137.269V136.36C1285.57 137.194 1284.59 137.61 1283.34 137.61C1282.1 137.61 1281.1 137.112 1280.33 136.116C1279.57 135.12 1279.19 133.763 1279.19 132.044ZM1281 132.249C1281 133.44 1281.25 134.378 1281.73 135.062C1282.22 135.739 1282.91 136.077 1283.78 136.077C1284.92 136.077 1285.76 135.56 1286.29 134.524V129.7C1285.74 128.691 1284.91 128.187 1283.8 128.187C1282.93 128.187 1282.24 128.528 1281.74 129.212C1281.25 129.896 1281 130.908 1281 132.249ZM1292.55 126.849L1292.61 128.177C1293.42 127.161 1294.47 126.653 1295.78 126.653C1298.01 126.653 1299.14 127.913 1299.16 130.433V137.415H1297.35V130.423C1297.34 129.661 1297.17 129.098 1296.82 128.733C1296.48 128.369 1295.95 128.187 1295.23 128.187C1294.64 128.187 1294.13 128.343 1293.69 128.655C1293.24 128.968 1292.9 129.378 1292.65 129.886V137.415H1290.85V126.849H1292.55ZM1306.46 133.597C1306.46 132.913 1306.65 132.285 1307.03 131.712C1307.41 131.139 1308.14 130.472 1309.21 129.71C1308.58 128.942 1308.16 128.323 1307.94 127.854C1307.73 127.386 1307.62 126.92 1307.62 126.458C1307.62 125.377 1307.94 124.531 1308.58 123.919C1309.22 123.307 1310.08 123.001 1311.18 123.001C1312.15 123.001 1312.96 123.287 1313.6 123.86C1314.24 124.427 1314.56 125.143 1314.56 126.009C1314.56 126.582 1314.41 127.112 1314.12 127.601C1313.83 128.082 1313.33 128.59 1312.6 129.124L1311.56 129.896L1314.72 133.675C1315.16 132.828 1315.39 131.888 1315.39 130.853H1317.02C1317.02 132.513 1316.62 133.89 1315.82 134.983L1317.85 137.415H1315.68L1314.73 136.292C1314.25 136.722 1313.68 137.05 1313.03 137.278C1312.39 137.5 1311.73 137.61 1311.06 137.61C1309.67 137.61 1308.56 137.243 1307.72 136.507C1306.88 135.771 1306.46 134.801 1306.46 133.597ZM1311.06 136.136C1312.02 136.136 1312.89 135.771 1313.69 135.042L1310.22 130.892L1309.9 131.126C1308.81 131.927 1308.27 132.75 1308.27 133.597C1308.27 134.365 1308.51 134.98 1309.01 135.442C1309.51 135.905 1310.19 136.136 1311.06 136.136ZM1309.43 126.399C1309.43 127.024 1309.81 127.806 1310.58 128.743L1311.73 127.933C1312.18 127.62 1312.48 127.324 1312.64 127.044C1312.8 126.757 1312.89 126.412 1312.89 126.009C1312.89 125.573 1312.72 125.211 1312.4 124.925C1312.07 124.632 1311.66 124.485 1311.17 124.485C1310.63 124.485 1310.21 124.668 1309.9 125.032C1309.59 125.39 1309.43 125.846 1309.43 126.399ZM1323.8 132.044C1323.8 130.423 1324.19 129.121 1324.96 128.138C1325.72 127.148 1326.73 126.653 1327.97 126.653C1329.21 126.653 1330.19 127.076 1330.91 127.923V122.415H1332.72V137.415H1331.06L1330.97 136.282C1330.25 137.168 1329.24 137.61 1327.95 137.61C1326.73 137.61 1325.73 137.109 1324.96 136.106C1324.19 135.104 1323.8 133.795 1323.8 132.181V132.044ZM1325.61 132.249C1325.61 133.447 1325.86 134.384 1326.35 135.062C1326.85 135.739 1327.53 136.077 1328.4 136.077C1329.55 136.077 1330.39 135.563 1330.91 134.534V129.681C1330.37 128.685 1329.54 128.187 1328.42 128.187C1327.54 128.187 1326.85 128.528 1326.35 129.212C1325.86 129.896 1325.61 130.908 1325.61 132.249ZM1339.92 137.61C1338.49 137.61 1337.32 137.142 1336.42 136.204C1335.52 135.26 1335.07 134 1335.07 132.425V132.093C1335.07 131.045 1335.27 130.11 1335.67 129.29C1336.07 128.463 1336.63 127.819 1337.35 127.356C1338.07 126.888 1338.85 126.653 1339.69 126.653C1341.07 126.653 1342.13 127.106 1342.9 128.011C1343.66 128.916 1344.04 130.211 1344.04 131.897V132.649H1336.88C1336.91 133.691 1337.21 134.534 1337.79 135.179C1338.37 135.817 1339.12 136.136 1340.02 136.136C1340.65 136.136 1341.19 136.006 1341.64 135.745C1342.08 135.485 1342.47 135.14 1342.8 134.71L1343.9 135.569C1343.02 136.93 1341.69 137.61 1339.92 137.61ZM1339.69 128.138C1338.96 128.138 1338.35 128.405 1337.86 128.938C1337.36 129.466 1337.06 130.208 1336.94 131.165H1342.23V131.028C1342.18 130.11 1341.93 129.401 1341.49 128.899C1341.05 128.392 1340.45 128.138 1339.69 128.138ZM1349.49 134.964L1352.11 126.849H1353.95L1350.16 137.415H1348.78L1344.96 126.849H1346.8L1349.49 134.964ZM1359.94 137.61C1358.5 137.61 1357.34 137.142 1356.44 136.204C1355.54 135.26 1355.09 134 1355.09 132.425V132.093C1355.09 131.045 1355.29 130.11 1355.69 129.29C1356.09 128.463 1356.65 127.819 1357.37 127.356C1358.09 126.888 1358.87 126.653 1359.71 126.653C1361.09 126.653 1362.15 127.106 1362.92 128.011C1363.68 128.916 1364.06 130.211 1364.06 131.897V132.649H1356.9C1356.93 133.691 1357.23 134.534 1357.81 135.179C1358.39 135.817 1359.14 136.136 1360.03 136.136C1360.67 136.136 1361.21 136.006 1361.66 135.745C1362.1 135.485 1362.49 135.14 1362.82 134.71L1363.92 135.569C1363.04 136.93 1361.71 137.61 1359.94 137.61ZM1359.71 128.138C1358.98 128.138 1358.37 128.405 1357.88 128.938C1357.38 129.466 1357.08 130.208 1356.96 131.165H1362.25V131.028C1362.2 130.11 1361.95 129.401 1361.51 128.899C1361.07 128.392 1360.47 128.138 1359.71 128.138ZM1368.12 137.415H1366.31V122.415H1368.12V137.415ZM1370.54 132.034C1370.54 130.999 1370.74 130.068 1371.15 129.241C1371.56 128.414 1372.12 127.776 1372.85 127.327C1373.58 126.878 1374.41 126.653 1375.34 126.653C1376.78 126.653 1377.94 127.151 1378.82 128.147C1379.72 129.144 1380.16 130.468 1380.16 132.122V132.249C1380.16 133.278 1379.96 134.202 1379.57 135.022C1379.18 135.836 1378.61 136.471 1377.88 136.927C1377.15 137.382 1376.31 137.61 1375.36 137.61C1373.92 137.61 1372.76 137.112 1371.87 136.116C1370.99 135.12 1370.54 133.802 1370.54 132.161V132.034ZM1372.36 132.249C1372.36 133.421 1372.63 134.362 1373.17 135.071C1373.72 135.781 1374.45 136.136 1375.36 136.136C1376.27 136.136 1377 135.778 1377.54 135.062C1378.08 134.339 1378.36 133.33 1378.36 132.034C1378.36 130.875 1378.08 129.938 1377.52 129.222C1376.98 128.499 1376.25 128.138 1375.34 128.138C1374.45 128.138 1373.73 128.493 1373.18 129.202C1372.63 129.912 1372.36 130.927 1372.36 132.249ZM1391.35 132.249C1391.35 133.857 1390.99 135.153 1390.25 136.136C1389.51 137.119 1388.52 137.61 1387.26 137.61C1385.98 137.61 1384.97 137.203 1384.23 136.39V141.478H1382.43V126.849H1384.08L1384.17 128.021C1384.9 127.109 1385.92 126.653 1387.23 126.653C1388.5 126.653 1389.5 127.132 1390.24 128.089C1390.98 129.046 1391.35 130.377 1391.35 132.083V132.249ZM1389.55 132.044C1389.55 130.853 1389.29 129.912 1388.78 129.222C1388.28 128.532 1387.58 128.187 1386.69 128.187C1385.6 128.187 1384.78 128.672 1384.23 129.642V134.69C1384.77 135.654 1385.6 136.136 1386.71 136.136C1387.58 136.136 1388.27 135.794 1388.77 135.11C1389.29 134.42 1389.55 133.398 1389.55 132.044ZM1395.36 126.849L1395.41 128.021C1396.18 127.109 1397.23 126.653 1398.54 126.653C1400.02 126.653 1401.02 127.22 1401.56 128.353C1401.91 127.845 1402.37 127.435 1402.93 127.122C1403.49 126.81 1404.16 126.653 1404.93 126.653C1407.25 126.653 1408.42 127.881 1408.46 130.335V137.415H1406.66V130.442C1406.66 129.687 1406.48 129.124 1406.14 128.753C1405.79 128.375 1405.21 128.187 1404.4 128.187C1403.73 128.187 1403.17 128.388 1402.73 128.792C1402.29 129.189 1402.03 129.726 1401.96 130.403V137.415H1400.14V130.491C1400.14 128.955 1399.39 128.187 1397.89 128.187C1396.7 128.187 1395.89 128.691 1395.45 129.7V137.415H1393.65V126.849H1395.36ZM1415.58 137.61C1414.15 137.61 1412.98 137.142 1412.09 136.204C1411.19 135.26 1410.74 134 1410.74 132.425V132.093C1410.74 131.045 1410.94 130.11 1411.33 129.29C1411.74 128.463 1412.3 127.819 1413.01 127.356C1413.74 126.888 1414.52 126.653 1415.36 126.653C1416.73 126.653 1417.8 127.106 1418.56 128.011C1419.32 128.916 1419.7 130.211 1419.7 131.897V132.649H1412.54C1412.57 133.691 1412.87 134.534 1413.45 135.179C1414.04 135.817 1414.78 136.136 1415.68 136.136C1416.32 136.136 1416.86 136.006 1417.3 135.745C1417.74 135.485 1418.13 135.14 1418.46 134.71L1419.57 135.569C1418.68 136.93 1417.35 137.61 1415.58 137.61ZM1415.36 128.138C1414.63 128.138 1414.02 128.405 1413.52 128.938C1413.03 129.466 1412.72 130.208 1412.6 131.165H1417.9V131.028C1417.84 130.11 1417.6 129.401 1417.15 128.899C1416.71 128.392 1416.11 128.138 1415.36 128.138ZM1423.51 126.849L1423.57 128.177C1424.38 127.161 1425.43 126.653 1426.73 126.653C1428.97 126.653 1430.09 127.913 1430.11 130.433V137.415H1428.31V130.423C1428.3 129.661 1428.12 129.098 1427.78 128.733C1427.44 128.369 1426.91 128.187 1426.19 128.187C1425.6 128.187 1425.09 128.343 1424.64 128.655C1424.2 128.968 1423.86 129.378 1423.61 129.886V137.415H1421.8V126.849H1423.51ZM1435.29 124.29V126.849H1437.26V128.245H1435.29V134.798C1435.29 135.221 1435.38 135.54 1435.55 135.755C1435.73 135.963 1436.03 136.067 1436.45 136.067C1436.66 136.067 1436.95 136.028 1437.31 135.95V137.415C1436.83 137.545 1436.37 137.61 1435.92 137.61C1435.12 137.61 1434.51 137.366 1434.1 136.878C1433.69 136.39 1433.48 135.696 1433.48 134.798V128.245H1431.56V126.849H1433.48V124.29H1435.29Z" fill="#626A84"/>
<path d="M374.639 76.1913C375.225 75.6055 375.225 74.6557 374.639 74.07L365.093 64.524C364.507 63.9382 363.558 63.9382 362.972 64.524C362.386 65.1098 362.386 66.0595 362.972 66.6453L371.457 75.1306L362.972 83.6159C362.386 84.2017 362.386 85.1514 362.972 85.7372C363.558 86.323 364.507 86.323 365.093 85.7372L374.639 76.1913ZM319.367 76.6306H373.578V73.6306H319.367V76.6306Z" fill="#626A84"/>
<path d="M1110.06 78.1044C1110.65 77.5186 1110.65 76.5688 1110.06 75.983L1100.52 66.4371C1099.93 65.8513 1098.98 65.8513 1098.4 66.4371C1097.81 67.0229 1097.81 67.9726 1098.4 68.5584L1106.88 77.0437L1098.4 85.529C1097.81 86.1148 1097.81 87.0645 1098.4 87.6503C1098.98 88.2361 1099.93 88.2361 1100.52 87.6503L1110.06 78.1044ZM1054.79 78.5437H1109V75.5437H1054.79V78.5437Z" fill="#626A84"/>
<path d="M782.213 78.1034C782.799 77.5176 782.799 76.5679 782.213 75.9821L772.667 66.4361C772.082 65.8503 771.132 65.8503 770.546 66.4361C769.96 67.0219 769.96 67.9717 770.546 68.5574L779.031 77.0427L770.546 85.528C769.96 86.1138 769.96 87.0635 770.546 87.6493C771.132 88.2351 772.082 88.2351 772.667 87.6493L782.213 78.1034ZM726.941 78.5427H781.153V75.5427H726.941V78.5427Z" fill="#626A84"/>
<path d="M709.123 52.2407V54.7993H711.096V56.1958H709.123V62.7485C709.123 63.1717 709.211 63.4907 709.387 63.7056C709.563 63.9139 709.862 64.0181 710.285 64.0181C710.494 64.0181 710.78 63.979 711.145 63.9009V65.3657C710.669 65.4959 710.207 65.561 709.758 65.561C708.951 65.561 708.342 65.3169 707.932 64.8286C707.522 64.3403 707.317 63.647 707.317 62.7485V56.1958H705.393V54.7993H707.317V52.2407H709.123ZM712.541 59.9849C712.541 58.9497 712.743 58.0187 713.147 57.1919C713.557 56.3651 714.123 55.7271 714.846 55.2778C715.575 54.8286 716.405 54.604 717.336 54.604C718.775 54.604 719.937 55.1021 720.822 56.0981C721.714 57.0942 722.16 58.4191 722.16 60.0728V60.1997C722.16 61.2284 721.962 62.1528 721.565 62.9731C721.174 63.7869 720.611 64.4217 719.875 64.8774C719.146 65.3332 718.306 65.561 717.356 65.561C715.923 65.561 714.761 65.063 713.869 64.0669C712.984 63.0708 712.541 61.7524 712.541 60.1118V59.9849ZM714.358 60.1997C714.358 61.3716 714.628 62.3123 715.168 63.022C715.715 63.7316 716.444 64.0864 717.356 64.0864C718.274 64.0864 719.003 63.7284 719.543 63.0122C720.083 62.2896 720.354 61.2804 720.354 59.9849C720.354 58.826 720.077 57.8885 719.524 57.1724C718.977 56.4497 718.248 56.0884 717.336 56.0884C716.444 56.0884 715.725 56.4432 715.178 57.1528C714.631 57.8625 714.358 58.8781 714.358 60.1997ZM738.313 60.1997C738.313 61.8078 737.945 63.1034 737.209 64.0864C736.473 65.0695 735.477 65.561 734.221 65.561C732.938 65.561 731.929 65.1541 731.193 64.3403V69.4282H729.387V54.7993H731.037L731.125 55.9712C731.861 55.0597 732.883 54.604 734.192 54.604C735.461 54.604 736.464 55.0825 737.199 56.0396C737.942 56.9966 738.313 58.328 738.313 60.0337V60.1997ZM736.506 59.9946C736.506 58.8032 736.252 57.8625 735.744 57.1724C735.236 56.4823 734.54 56.1372 733.654 56.1372C732.561 56.1372 731.74 56.6222 731.193 57.5923V62.6411C731.734 63.6047 732.561 64.0864 733.674 64.0864C734.54 64.0864 735.227 63.7446 735.735 63.061C736.249 62.3709 736.506 61.3488 736.506 59.9946ZM745.725 56.4204C745.451 56.3748 745.155 56.3521 744.836 56.3521C743.651 56.3521 742.847 56.8566 742.424 57.8657V65.3657H740.617V54.7993H742.375L742.404 56.02C742.997 55.076 743.837 54.604 744.924 54.604C745.276 54.604 745.542 54.6496 745.725 54.7407V56.4204ZM746.721 59.9849C746.721 58.9497 746.923 58.0187 747.326 57.1919C747.736 56.3651 748.303 55.7271 749.026 55.2778C749.755 54.8286 750.585 54.604 751.516 54.604C752.955 54.604 754.117 55.1021 755.002 56.0981C755.894 57.0942 756.34 58.4191 756.34 60.0728V60.1997C756.34 61.2284 756.141 62.1528 755.744 62.9731C755.354 63.7869 754.79 64.4217 754.055 64.8774C753.326 65.3332 752.486 65.561 751.535 65.561C750.103 65.561 748.941 65.063 748.049 64.0669C747.164 63.0708 746.721 61.7524 746.721 60.1118V59.9849ZM748.537 60.1997C748.537 61.3716 748.807 62.3123 749.348 63.022C749.895 63.7316 750.624 64.0864 751.535 64.0864C752.453 64.0864 753.182 63.7284 753.723 63.0122C754.263 62.2896 754.533 61.2804 754.533 59.9849C754.533 58.826 754.257 57.8885 753.703 57.1724C753.156 56.4497 752.427 56.0884 751.516 56.0884C750.624 56.0884 749.904 56.4432 749.358 57.1528C748.811 57.8625 748.537 58.8781 748.537 60.1997ZM762.844 64.0864C763.488 64.0864 764.052 63.8911 764.533 63.5005C765.015 63.1099 765.282 62.6216 765.334 62.0356H767.043C767.011 62.6411 766.802 63.2173 766.418 63.7642C766.034 64.311 765.52 64.7472 764.875 65.0728C764.237 65.3983 763.56 65.561 762.844 65.561C761.405 65.561 760.259 65.0825 759.406 64.1255C758.56 63.1619 758.137 61.8468 758.137 60.1802V59.8774C758.137 58.8488 758.326 57.9341 758.703 57.1333C759.081 56.3325 759.621 55.7108 760.324 55.2681C761.034 54.8254 761.871 54.604 762.834 54.604C764.019 54.604 765.002 54.9588 765.783 55.6685C766.571 56.3781 766.991 57.2993 767.043 58.4321H765.334C765.282 57.7485 765.022 57.1886 764.553 56.7524C764.091 56.3097 763.518 56.0884 762.834 56.0884C761.916 56.0884 761.203 56.4204 760.695 57.0845C760.194 57.742 759.943 58.6958 759.943 59.9458V60.2876C759.943 61.505 760.194 62.4425 760.695 63.1001C761.197 63.7576 761.913 64.0864 762.844 64.0864ZM773.459 65.561C772.027 65.561 770.861 65.0923 769.963 64.1548C769.065 63.2108 768.615 61.951 768.615 60.3755V60.0435C768.615 58.9953 768.814 58.061 769.211 57.2407C769.615 56.4139 770.175 55.7694 770.891 55.3071C771.613 54.8384 772.395 54.604 773.235 54.604C774.608 54.604 775.676 55.0565 776.438 55.9614C777.199 56.8664 777.58 58.1619 777.58 59.8481V60.6001H770.422C770.448 61.6418 770.751 62.4849 771.33 63.1294C771.916 63.7674 772.658 64.0864 773.557 64.0864C774.195 64.0864 774.735 63.9562 775.178 63.6958C775.621 63.4354 776.008 63.0903 776.34 62.6606L777.443 63.52C776.558 64.8807 775.23 65.561 773.459 65.561ZM773.235 56.0884C772.505 56.0884 771.893 56.3553 771.399 56.8892C770.904 57.4165 770.598 58.1587 770.481 59.1157H775.774V58.979C775.721 58.061 775.474 57.3514 775.031 56.8501C774.589 56.3423 773.99 56.0884 773.235 56.0884ZM785.832 62.563C785.832 62.0747 785.647 61.6971 785.276 61.4302C784.911 61.1567 784.27 60.9224 783.352 60.7271C782.44 60.5317 781.714 60.2974 781.174 60.0239C780.64 59.7505 780.243 59.425 779.983 59.0474C779.729 58.6698 779.602 58.2205 779.602 57.6997C779.602 56.8338 779.966 56.1014 780.695 55.5024C781.431 54.9035 782.369 54.604 783.508 54.604C784.706 54.604 785.676 54.9132 786.418 55.5317C787.167 56.1502 787.541 56.9412 787.541 57.9048H785.725C785.725 57.41 785.513 56.9836 785.09 56.6255C784.673 56.2674 784.146 56.0884 783.508 56.0884C782.85 56.0884 782.336 56.2316 781.965 56.5181C781.594 56.8045 781.408 57.1789 781.408 57.6411C781.408 58.0773 781.581 58.4061 781.926 58.6274C782.271 58.8488 782.893 59.0604 783.791 59.2622C784.696 59.464 785.429 59.7049 785.988 59.9849C786.548 60.2648 786.962 60.6034 787.229 61.0005C787.502 61.3911 787.639 61.8696 787.639 62.436C787.639 63.38 787.261 64.1385 786.506 64.7114C785.751 65.2778 784.771 65.561 783.567 65.561C782.72 65.561 781.971 65.4113 781.32 65.1118C780.669 64.8123 780.158 64.3957 779.787 63.8618C779.423 63.3215 779.24 62.7388 779.24 62.1138H781.047C781.08 62.7192 781.32 63.201 781.77 63.5591C782.225 63.9106 782.824 64.0864 783.567 64.0864C784.25 64.0864 784.797 63.9497 785.207 63.6763C785.624 63.3963 785.832 63.0252 785.832 62.563ZM796.145 62.563C796.145 62.0747 795.959 61.6971 795.588 61.4302C795.223 61.1567 794.582 60.9224 793.664 60.7271C792.753 60.5317 792.027 60.2974 791.486 60.0239C790.953 59.7505 790.555 59.425 790.295 59.0474C790.041 58.6698 789.914 58.2205 789.914 57.6997C789.914 56.8338 790.279 56.1014 791.008 55.5024C791.744 54.9035 792.681 54.604 793.82 54.604C795.018 54.604 795.988 54.9132 796.731 55.5317C797.479 56.1502 797.854 56.9412 797.854 57.9048H796.037C796.037 57.41 795.826 56.9836 795.402 56.6255C794.986 56.2674 794.458 56.0884 793.82 56.0884C793.163 56.0884 792.649 56.2316 792.277 56.5181C791.906 56.8045 791.721 57.1789 791.721 57.6411C791.721 58.0773 791.893 58.4061 792.238 58.6274C792.583 58.8488 793.205 59.0604 794.104 59.2622C795.009 59.464 795.741 59.7049 796.301 59.9849C796.861 60.2648 797.274 60.6034 797.541 61.0005C797.815 61.3911 797.951 61.8696 797.951 62.436C797.951 63.38 797.574 64.1385 796.818 64.7114C796.063 65.2778 795.083 65.561 793.879 65.561C793.033 65.561 792.284 65.4113 791.633 65.1118C790.982 64.8123 790.471 64.3957 790.1 63.8618C789.735 63.3215 789.553 62.7388 789.553 62.1138H791.36C791.392 62.7192 791.633 63.201 792.082 63.5591C792.538 63.9106 793.137 64.0864 793.879 64.0864C794.563 64.0864 795.11 63.9497 795.52 63.6763C795.936 63.3963 796.145 63.0252 796.145 62.563Z" fill="#626A84"/>
<path d="M500.063 186.751C500.063 188.365 499.692 189.664 498.949 190.647C498.207 191.624 497.211 192.112 495.961 192.112C494.627 192.112 493.595 191.64 492.865 190.696L492.778 191.917H491.117V176.917H492.924V182.512C493.653 181.608 494.659 181.155 495.942 181.155C497.224 181.155 498.23 181.64 498.959 182.61C499.695 183.58 500.063 184.908 500.063 186.594V186.751ZM498.256 186.546C498.256 185.315 498.018 184.365 497.543 183.694C497.068 183.024 496.384 182.688 495.492 182.688C494.301 182.688 493.445 183.242 492.924 184.348V188.919C493.477 190.025 494.34 190.579 495.512 190.579C496.378 190.579 497.052 190.244 497.533 189.573C498.015 188.902 498.256 187.893 498.256 186.546ZM506.733 192.112C505.3 192.112 504.135 191.643 503.237 190.706C502.338 189.762 501.889 188.502 501.889 186.927V186.594C501.889 185.546 502.087 184.612 502.485 183.792C502.888 182.965 503.448 182.32 504.164 181.858C504.887 181.389 505.668 181.155 506.508 181.155C507.882 181.155 508.949 181.608 509.711 182.512C510.473 183.417 510.854 184.713 510.854 186.399V187.151H503.696C503.722 188.193 504.024 189.036 504.604 189.68C505.19 190.318 505.932 190.637 506.83 190.637C507.468 190.637 508.009 190.507 508.451 190.247C508.894 189.986 509.282 189.641 509.614 189.212L510.717 190.071C509.832 191.432 508.504 192.112 506.733 192.112ZM506.508 182.639C505.779 182.639 505.167 182.906 504.672 183.44C504.177 183.968 503.871 184.71 503.754 185.667H509.047V185.53C508.995 184.612 508.748 183.902 508.305 183.401C507.862 182.893 507.263 182.639 506.508 182.639ZM515.405 178.792V181.35H517.377V182.747H515.405V189.3C515.405 189.723 515.492 190.042 515.668 190.257C515.844 190.465 516.143 190.569 516.567 190.569C516.775 190.569 517.061 190.53 517.426 190.452V191.917C516.951 192.047 516.489 192.112 516.039 192.112C515.232 192.112 514.623 191.868 514.213 191.38C513.803 190.891 513.598 190.198 513.598 189.3V182.747H511.674V181.35H513.598V178.792H515.405ZM528.852 189.427L530.883 181.35H532.69L529.614 191.917H528.149L525.58 183.909L523.08 191.917H521.615L518.549 181.35H520.346L522.426 189.26L524.887 181.35H526.342L528.852 189.427ZM538.92 192.112C537.488 192.112 536.323 191.643 535.424 190.706C534.526 189.762 534.076 188.502 534.076 186.927V186.594C534.076 185.546 534.275 184.612 534.672 183.792C535.076 182.965 535.636 182.32 536.352 181.858C537.074 181.389 537.856 181.155 538.696 181.155C540.069 181.155 541.137 181.608 541.899 182.512C542.66 183.417 543.041 184.713 543.041 186.399V187.151H535.883C535.909 188.193 536.212 189.036 536.791 189.68C537.377 190.318 538.119 190.637 539.018 190.637C539.656 190.637 540.196 190.507 540.639 190.247C541.082 189.986 541.469 189.641 541.801 189.212L542.905 190.071C542.019 191.432 540.691 192.112 538.92 192.112ZM538.696 182.639C537.966 182.639 537.354 182.906 536.86 183.44C536.365 183.968 536.059 184.71 535.942 185.667H541.235V185.53C541.183 184.612 540.935 183.902 540.492 183.401C540.05 182.893 539.451 182.639 538.696 182.639ZM549.526 192.112C548.093 192.112 546.928 191.643 546.03 190.706C545.131 189.762 544.682 188.502 544.682 186.927V186.594C544.682 185.546 544.88 184.612 545.278 183.792C545.681 182.965 546.241 182.32 546.957 181.858C547.68 181.389 548.461 181.155 549.301 181.155C550.675 181.155 551.742 181.608 552.504 182.512C553.266 183.417 553.647 184.713 553.647 186.399V187.151H546.489C546.515 188.193 546.817 189.036 547.397 189.68C547.983 190.318 548.725 190.637 549.623 190.637C550.261 190.637 550.802 190.507 551.244 190.247C551.687 189.986 552.074 189.641 552.407 189.212L553.51 190.071C552.625 191.432 551.296 192.112 549.526 192.112ZM549.301 182.639C548.572 182.639 547.96 182.906 547.465 183.44C546.97 183.968 546.664 184.71 546.547 185.667H551.84V185.53C551.788 184.612 551.541 183.902 551.098 183.401C550.655 182.893 550.056 182.639 549.301 182.639ZM557.455 181.35L557.514 182.678C558.321 181.663 559.376 181.155 560.678 181.155C562.911 181.155 564.037 182.415 564.057 184.934V191.917H562.25V184.925C562.244 184.163 562.068 183.6 561.723 183.235C561.384 182.871 560.854 182.688 560.131 182.688C559.545 182.688 559.031 182.844 558.588 183.157C558.145 183.469 557.8 183.88 557.553 184.387V191.917H555.746V181.35H557.455ZM581.098 189.427L583.129 181.35H584.936L581.86 191.917H580.395L577.826 183.909L575.326 191.917H573.862L570.795 181.35H572.592L574.672 189.26L577.133 181.35H578.588L581.098 189.427ZM593.305 191.917C593.201 191.708 593.116 191.337 593.051 190.803C592.211 191.676 591.209 192.112 590.043 192.112C589.002 192.112 588.145 191.819 587.475 191.233C586.811 190.641 586.479 189.892 586.479 188.987C586.479 187.887 586.895 187.034 587.729 186.428C588.569 185.816 589.747 185.51 591.264 185.51H593.022V184.68C593.022 184.049 592.833 183.548 592.455 183.177C592.078 182.799 591.521 182.61 590.785 182.61C590.141 182.61 589.601 182.773 589.164 183.098C588.728 183.424 588.51 183.818 588.51 184.28H586.694C586.694 183.753 586.879 183.245 587.25 182.757C587.628 182.262 588.136 181.871 588.774 181.585C589.418 181.298 590.125 181.155 590.893 181.155C592.11 181.155 593.064 181.461 593.754 182.073C594.444 182.678 594.802 183.515 594.828 184.583V189.446C594.828 190.416 594.952 191.188 595.199 191.76V191.917H593.305ZM590.307 190.54C590.873 190.54 591.41 190.393 591.918 190.1C592.426 189.807 592.794 189.427 593.022 188.958V186.79H591.606C589.392 186.79 588.285 187.438 588.285 188.733C588.285 189.3 588.474 189.742 588.852 190.061C589.229 190.38 589.714 190.54 590.307 190.54ZM602.768 182.971C602.494 182.926 602.198 182.903 601.879 182.903C600.694 182.903 599.89 183.408 599.467 184.417V191.917H597.66V181.35H599.418L599.448 182.571C600.04 181.627 600.88 181.155 601.967 181.155C602.319 181.155 602.586 181.201 602.768 181.292V182.971ZM608.627 192.112C607.195 192.112 606.03 191.643 605.131 190.706C604.233 189.762 603.783 188.502 603.783 186.927V186.594C603.783 185.546 603.982 184.612 604.379 183.792C604.783 182.965 605.343 182.32 606.059 181.858C606.782 181.389 607.563 181.155 608.403 181.155C609.776 181.155 610.844 181.608 611.606 182.512C612.367 183.417 612.748 184.713 612.748 186.399V187.151H605.59C605.616 188.193 605.919 189.036 606.498 189.68C607.084 190.318 607.826 190.637 608.725 190.637C609.363 190.637 609.903 190.507 610.346 190.247C610.789 189.986 611.176 189.641 611.508 189.212L612.612 190.071C611.726 191.432 610.398 192.112 608.627 192.112ZM608.403 182.639C607.673 182.639 607.061 182.906 606.567 183.44C606.072 183.968 605.766 184.71 605.649 185.667H610.942V185.53C610.89 184.612 610.642 183.902 610.199 183.401C609.757 182.893 609.158 182.639 608.403 182.639ZM616.655 182.63C617.455 181.647 618.497 181.155 619.78 181.155C622.013 181.155 623.139 182.415 623.158 184.934V191.917H621.352V184.925C621.345 184.163 621.17 183.6 620.824 183.235C620.486 182.871 619.955 182.688 619.233 182.688C618.647 182.688 618.132 182.844 617.69 183.157C617.247 183.469 616.902 183.88 616.655 184.387V191.917H614.848V176.917H616.655V182.63ZM625.385 186.536C625.385 185.501 625.587 184.57 625.99 183.743C626.401 182.916 626.967 182.278 627.69 181.829C628.419 181.38 629.249 181.155 630.18 181.155C631.619 181.155 632.781 181.653 633.666 182.649C634.558 183.645 635.004 184.97 635.004 186.624V186.751C635.004 187.779 634.806 188.704 634.408 189.524C634.018 190.338 633.455 190.973 632.719 191.428C631.99 191.884 631.15 192.112 630.199 192.112C628.767 192.112 627.605 191.614 626.713 190.618C625.828 189.622 625.385 188.303 625.385 186.663V186.536ZM627.201 186.751C627.201 187.923 627.472 188.863 628.012 189.573C628.559 190.283 629.288 190.637 630.199 190.637C631.117 190.637 631.847 190.279 632.387 189.563C632.927 188.841 633.198 187.831 633.198 186.536C633.198 185.377 632.921 184.44 632.367 183.723C631.821 183.001 631.091 182.639 630.18 182.639C629.288 182.639 628.569 182.994 628.022 183.704C627.475 184.413 627.201 185.429 627.201 186.751ZM643.793 190.872C643.09 191.699 642.058 192.112 640.698 192.112C639.571 192.112 638.712 191.787 638.119 191.135C637.533 190.478 637.237 189.508 637.231 188.225V181.35H639.037V188.177C639.037 189.778 639.688 190.579 640.99 190.579C642.371 190.579 643.289 190.065 643.744 189.036V181.35H645.551V191.917H643.832L643.793 190.872ZM654.457 189.114C654.457 188.626 654.272 188.248 653.901 187.981C653.536 187.708 652.895 187.473 651.977 187.278C651.065 187.083 650.339 186.848 649.799 186.575C649.265 186.302 648.868 185.976 648.608 185.598C648.354 185.221 648.227 184.772 648.227 184.251C648.227 183.385 648.591 182.652 649.321 182.053C650.056 181.455 650.994 181.155 652.133 181.155C653.331 181.155 654.301 181.464 655.043 182.083C655.792 182.701 656.166 183.492 656.166 184.456H654.35C654.35 183.961 654.138 183.535 653.715 183.177C653.298 182.818 652.771 182.639 652.133 182.639C651.476 182.639 650.961 182.783 650.59 183.069C650.219 183.356 650.033 183.73 650.033 184.192C650.033 184.628 650.206 184.957 650.551 185.178C650.896 185.4 651.518 185.611 652.416 185.813C653.321 186.015 654.054 186.256 654.614 186.536C655.173 186.816 655.587 187.154 655.854 187.552C656.127 187.942 656.264 188.421 656.264 188.987C656.264 189.931 655.886 190.69 655.131 191.262C654.376 191.829 653.396 192.112 652.192 192.112C651.345 192.112 650.597 191.962 649.946 191.663C649.295 191.363 648.783 190.947 648.412 190.413C648.048 189.872 647.865 189.29 647.865 188.665H649.672C649.705 189.27 649.946 189.752 650.395 190.11C650.851 190.462 651.449 190.637 652.192 190.637C652.875 190.637 653.422 190.501 653.832 190.227C654.249 189.947 654.457 189.576 654.457 189.114ZM663.002 192.112C661.57 192.112 660.405 191.643 659.506 190.706C658.608 189.762 658.158 188.502 658.158 186.927V186.594C658.158 185.546 658.357 184.612 658.754 183.792C659.158 182.965 659.718 182.32 660.434 181.858C661.157 181.389 661.938 181.155 662.778 181.155C664.151 181.155 665.219 181.608 665.981 182.512C666.742 183.417 667.123 184.713 667.123 186.399V187.151H659.965C659.991 188.193 660.294 189.036 660.873 189.68C661.459 190.318 662.201 190.637 663.1 190.637C663.738 190.637 664.278 190.507 664.721 190.247C665.164 189.986 665.551 189.641 665.883 189.212L666.987 190.071C666.101 191.432 664.773 192.112 663.002 192.112ZM662.778 182.639C662.048 182.639 661.436 182.906 660.942 183.44C660.447 183.968 660.141 184.71 660.024 185.667H665.317V185.53C665.265 184.612 665.017 183.902 664.574 183.401C664.132 182.893 663.533 182.639 662.778 182.639ZM675.375 189.114C675.375 188.626 675.19 188.248 674.819 187.981C674.454 187.708 673.813 187.473 672.895 187.278C671.983 187.083 671.257 186.848 670.717 186.575C670.183 186.302 669.786 185.976 669.526 185.598C669.272 185.221 669.145 184.772 669.145 184.251C669.145 183.385 669.509 182.652 670.239 182.053C670.974 181.455 671.912 181.155 673.051 181.155C674.249 181.155 675.219 181.464 675.961 182.083C676.71 182.701 677.084 183.492 677.084 184.456H675.268C675.268 183.961 675.056 183.535 674.633 183.177C674.216 182.818 673.689 182.639 673.051 182.639C672.393 182.639 671.879 182.783 671.508 183.069C671.137 183.356 670.951 183.73 670.951 184.192C670.951 184.628 671.124 184.957 671.469 185.178C671.814 185.4 672.436 185.611 673.334 185.813C674.239 186.015 674.972 186.256 675.532 186.536C676.091 186.816 676.505 187.154 676.772 187.552C677.045 187.942 677.182 188.421 677.182 188.987C677.182 189.931 676.804 190.69 676.049 191.262C675.294 191.829 674.314 192.112 673.11 192.112C672.263 192.112 671.515 191.962 670.864 191.663C670.212 191.363 669.701 190.947 669.33 190.413C668.966 189.872 668.783 189.29 668.783 188.665H670.59C670.623 189.27 670.864 189.752 671.313 190.11C671.768 190.462 672.367 190.637 673.11 190.637C673.793 190.637 674.34 190.501 674.75 190.227C675.167 189.947 675.375 189.576 675.375 189.114Z" fill="#626A84"/>
</svg>
