<svg width="164" height="39" viewBox="0 0 164 39" fill="none" xmlns="http://www.w3.org/2000/svg">
<path d="M0.201172 38.9766V2.35547L4.83984 0.158203H5.08398V17.3457H19.4883V2.35547L24.127 0.158203H24.3711V36.7793L19.7324 38.9766H19.4883V21.7891H5.08398V36.7793L0.445312 38.9766H0.201172ZM34.1367 38.9766V2.35547L36.7246 1.13477H52.2031V1.37891L50.2256 5.57812H39.0195V17.3457H52.2031V17.5898L50.2256 21.7891H39.0195V36.7793L34.3809 38.9766H34.1367ZM81.0117 38V2.35547L85.6504 0.158203H85.8945V33.5566H102.618V33.8008L100.641 38H81.0117ZM104.693 38.9766V12.8535C104.693 9.33789 105.792 6.44889 107.989 4.18652C110.3 1.8265 113.312 0.646484 117.022 0.646484C120.668 0.646484 123.679 1.8265 126.056 4.18652C128.253 6.36751 129.352 9.25651 129.352 12.8535V36.7793L124.713 38.9766H124.469V21.7891H109.576V36.7793L104.938 38.9766H104.693ZM109.576 17.3457H124.469V12.8535C124.469 10.6725 123.883 8.90658 122.711 7.55566C121.262 5.87923 119.366 5.04102 117.022 5.04102C114.679 5.04102 112.783 5.87923 111.334 7.55566C110.162 8.90658 109.576 10.6725 109.576 12.8535V17.3457ZM144 33.6055H150.958C153.416 33.6055 155.369 32.8324 156.817 31.2861C157.875 30.1631 158.404 28.682 158.404 26.8428C158.404 24.9385 157.843 23.3353 156.72 22.0332C155.499 20.5358 153.578 19.7871 150.958 19.7871H144V33.6055ZM144 15.3926H150.958C152.586 15.3926 153.896 14.8636 154.889 13.8057C155.768 12.8617 156.207 11.6328 156.207 10.1191C156.207 8.88216 155.678 7.76725 154.62 6.77441C153.676 5.94434 152.455 5.5293 150.958 5.5293H144V15.3926ZM139.117 38V2.35547L141.705 1.13477H150.958C153.709 1.13477 155.995 1.88346 157.818 3.38086C159.983 5.13867 161.065 7.3929 161.065 10.1436C161.065 12.943 159.828 15.2705 157.354 17.126C158.152 17.4678 158.941 17.9805 159.723 18.6641C162.099 20.8288 163.287 23.5143 163.287 26.7207C163.287 29.9434 162.245 32.5882 160.162 34.6553C157.932 36.8851 154.864 38 150.958 38H139.117Z" fill="white"/>
</svg>
