<svg width="163" height="48" viewBox="0 0 163 48" fill="none" xmlns="http://www.w3.org/2000/svg">
<path d="M8.17629 14.1101L26.7193 0.246773L26.5547 0.0238037L4.82186 16.2782V0.215132H0V33.2338H4.82186V16.9369L22.4343 33.2553H28.3513L8.17629 14.1101Z" fill="white"/>
<path d="M44.5876 16.623C44.5824 16.6336 44.5824 16.6388 44.5824 16.6493V16.6547C44.5824 16.6441 44.5876 16.6336 44.5876 16.623ZM46.9641 0.230347H42.1422L44.0135 5.84668L34.7047 25.6509H34.6516V25.773L31.1216 33.2811L31.3717 33.3982L34.8802 25.927H50.696L53.131 33.2547H57.9524L46.9641 0.230347ZM35.0132 25.6509L44.1355 6.22402L50.6057 25.6509H35.0132Z" fill="white"/>
<path d="M64.7364 33.0315V0.256714H59.9146V33.2759H59.9199V33.3079H86.8253V33.0315H64.7364Z" fill="white"/>
<path d="M109.768 0.294029L109.518 0.171997L96.3182 28.1216L78.5086 0.320788H72.8628L93.9206 33.1908L86.9773 47.878L87.2274 48L94.1545 33.3399H99.662L96.4933 28.3927L109.768 0.294029Z" fill="white"/>
<path d="M133.681 12.101C134.229 7.7653 131.124 4.11987 126.616 2.00506C126.206 1.76073 125.765 1.52155 125.282 1.27723C121.767 -0.215828 117.664 -0.556209 114.123 1.10176C107.929 4.51298 108.519 9.62471 109.679 11.6867C111.449 14.843 115.335 17.1277 120.906 18.3021C122.687 18.6741 125.255 19.37 127.663 20.5871C131.135 22.3403 131.401 29.3014 128.184 31.4906C127.727 31.8039 127.254 32.075 126.775 32.3036C124.229 33.4991 121.379 33.6159 118.689 33.0051C113.575 31.0602 111.449 25.9963 111.885 23.3024L107.174 23.8654C107.275 29.1899 112.597 32.7181 118.897 33.5256C120.231 33.8019 121.603 33.9081 122.958 33.7914C124.335 33.6746 125.691 33.3342 126.977 32.734C129.386 31.5968 131.608 29.3386 132.751 26.9049L132.767 26.926L132.809 26.8251C133.458 25.2469 133.873 21.8888 132.527 19.3383C130.805 16.0865 126.536 13.6633 120.183 12.3295C118.541 11.9842 116.207 11.3358 114 10.1722C110.168 8.1422 110.348 3.45035 114.261 1.56418C114.282 1.55886 114.303 1.54796 114.325 1.53742C116.898 0.325992 119.784 0.219824 122.506 0.857352C128.173 3.25902 129.822 9.18906 128.939 11.9736L133.681 12.101Z" fill="white"/>
<path d="M162.937 12.101C163.484 7.7653 160.38 4.11987 155.872 2.00506C155.462 1.76073 155.021 1.52155 154.537 1.27723C151.023 -0.215828 146.919 -0.556209 143.379 1.10176C137.185 4.51298 137.775 9.62471 138.934 11.6867C140.705 14.843 144.591 17.1277 150.162 18.3021C151.943 18.6741 154.511 19.37 156.919 20.5871C160.39 22.3403 160.656 29.3014 157.44 31.4906C156.983 31.8039 156.51 32.075 156.031 32.3036C153.485 33.4991 150.635 33.6159 147.945 33.0051C142.831 31.0602 140.705 25.9963 141.141 23.3024L136.43 23.8654C136.531 29.1899 141.853 32.7181 148.152 33.5256C149.487 33.8019 150.858 33.9081 152.214 33.7914C153.591 33.6746 154.947 33.3342 156.233 32.734C158.642 31.5968 160.863 29.3386 162.006 26.9049L162.022 26.926L162.065 26.8251C162.714 25.2469 163.128 21.8888 161.783 19.3383C160.061 16.0865 155.792 13.6633 149.439 12.3295C147.796 11.9842 145.462 11.3358 143.256 10.1722C139.423 8.1422 139.604 3.45035 143.517 1.56418C143.538 1.55886 143.559 1.54796 143.581 1.53742C146.154 0.325992 149.04 0.219824 151.762 0.857352C157.429 3.25902 159.077 9.18906 158.195 11.9736L162.937 12.101Z" fill="white"/>
</svg>
