<svg width="35" height="35" viewBox="0 0 35 35" fill="none" xmlns="http://www.w3.org/2000/svg">
<g clip-path="url(#clip0)">
<path d="M18.0845 2.52665C17.9881 2.29211 17.7621 2.14062 17.5085 2.14062C17.5083 2.14062 17.508 2.14062 17.5078 2.14062C17.2539 2.1409 17.0278 2.29293 16.9319 2.52788C16.9304 2.53164 16.9289 2.53547 16.9274 2.5393L15.1021 7.33184C15.0013 7.59646 15.1341 7.89266 15.3987 7.99342C15.4588 8.01632 15.5204 8.02712 15.5811 8.02712C15.7877 8.02712 15.9824 7.90134 16.0603 7.69674L16.3892 6.83336H18.6142L18.9395 7.6953C19.0394 7.96026 19.3354 8.09397 19.6002 7.99396C19.8651 7.89402 19.9988 7.59816 19.8988 7.33327L18.0901 2.54053C18.0882 2.53588 18.0864 2.53123 18.0845 2.52665ZM16.7797 5.80804L17.5068 3.8991L18.2272 5.80804H16.7797Z" fill="white"/>
<path d="M16.0166 14.5566C15.7334 14.5566 15.5039 14.7862 15.5039 15.0693V19.9304C15.5039 20.0668 15.5583 20.1975 15.6548 20.2937C15.751 20.3894 15.881 20.4431 16.0166 20.4431H16.0189C16.019 20.4431 17.3173 20.4373 17.6751 20.4373C18.6793 20.4373 19.4963 19.6204 19.4963 18.6162C19.4963 18.0128 19.2011 17.4773 18.7478 17.1457C18.9437 16.8765 19.0598 16.5456 19.0598 16.1879C19.0598 15.2884 18.328 14.5566 17.4286 14.5566H16.0166ZM17.6751 19.4119C17.4658 19.4119 16.9349 19.4139 16.5292 19.4155V17.8219C16.6546 17.8214 16.7895 17.8209 16.9182 17.8204H17.6751C18.1139 17.8204 18.4709 18.1774 18.4709 18.6162C18.4709 19.055 18.1139 19.4119 17.6751 19.4119ZM18.0344 16.1878C18.0344 16.5219 17.7626 16.7936 17.4286 16.7936C17.3247 16.7936 17.1294 16.7942 16.9161 16.7949H16.5292V15.582H17.4285C17.7626 15.582 18.0344 15.8538 18.0344 16.1878Z" fill="white"/>
<path d="M17.9491 27.9999C18.3335 27.9999 18.7041 28.1131 19.021 28.3272C19.2556 28.4857 19.5743 28.424 19.7328 28.1894C19.8913 27.9547 19.8296 27.6361 19.595 27.4775C19.1079 27.1485 18.5388 26.9746 17.9491 26.9746C16.3262 26.9746 15.0059 28.2949 15.0059 29.9178C15.0059 31.5407 16.3262 32.861 17.9491 32.861C18.5949 32.861 19.1741 32.6493 19.624 32.2486C19.712 32.1702 19.7958 32.0838 19.873 31.9917C20.0551 31.7748 20.0268 31.4514 19.8098 31.2694C19.5928 31.0874 19.2696 31.1158 19.0876 31.3327C19.0421 31.3868 18.9932 31.4374 18.9421 31.4829C18.6792 31.717 18.3452 31.8356 17.9491 31.8356C16.8916 31.8356 16.0313 30.9753 16.0313 29.9178C16.0313 28.8603 16.8916 27.9999 17.9491 27.9999Z" fill="white"/>
<path d="M33.0315 6.53919C31.762 5.26976 30.0742 4.57071 28.279 4.57071H24.3661V2.70771C24.3661 1.21468 23.1513 0 21.6584 0H20.4443C20.1611 0 19.9316 0.229551 19.9316 0.512695C19.9316 0.79584 20.1611 1.02539 20.4443 1.02539H21.6584C22.586 1.02539 23.3407 1.78008 23.3407 2.70771V7.45938C23.3407 8.38701 22.586 9.1417 21.6584 9.1417H17.5028C17.5019 9.1417 17.5011 9.14156 17.5001 9.14156C17.4992 9.14156 17.4984 9.1417 17.4975 9.1417H13.3424C12.4148 9.1417 11.6601 8.38701 11.6601 7.45938V2.70771C11.6601 1.78008 12.4148 1.02539 13.3424 1.02539H18.3935C18.6767 1.02539 18.9062 0.79584 18.9062 0.512695C18.9062 0.229551 18.6767 0 18.3935 0H13.3424C11.8493 0 10.6347 1.21468 10.6347 2.70771V7.45938C10.6347 8.95241 11.8494 10.1671 13.3424 10.1671H16.9874V12.4167H13.3422C11.8492 12.4167 10.6346 13.6314 10.6346 15.1244V16.9874H6.72103C4.9257 16.9874 3.23791 17.6865 1.96848 18.9559C0.699111 20.2254 0 21.9131 0 23.7085C0 27.4144 3.01499 30.4295 6.72103 30.4295H8.42017L7.54004 31.3096C7.33981 31.5098 7.33981 31.8344 7.54004 32.0346C7.64019 32.1348 7.77137 32.1848 7.90262 32.1848C8.0338 32.1848 8.16505 32.1348 8.26519 32.0346L10.0206 30.2793C10.1167 30.1832 10.1707 30.0528 10.1707 29.9168C10.1707 29.7808 10.1167 29.6504 10.0206 29.5543L8.26519 27.799C8.0649 27.5987 7.74033 27.5987 7.54011 27.799C7.33988 27.9992 7.33988 28.3238 7.54011 28.524L8.4203 29.4041H6.72103C3.58046 29.4041 1.02539 26.849 1.02539 23.7085C1.02539 22.1871 1.61779 20.7568 2.69356 19.681C3.76927 18.6052 5.19962 18.0128 6.72103 18.0128H10.6345V19.8758C10.6345 21.3688 11.8492 22.5835 13.3422 22.5835H16.9874V24.8337H13.3424C12.3202 24.8337 11.3959 25.3993 10.9302 26.3099C10.8013 26.562 10.9011 26.8709 11.1532 26.9998C11.4054 27.1288 11.7142 27.029 11.8432 26.7768C12.1327 26.2108 12.7072 25.8591 13.3425 25.8591H21.6584C22.586 25.8591 23.3407 26.6135 23.3407 27.5408V32.2924C23.3407 33.2201 22.586 33.9747 21.6584 33.9747H13.3424C12.4148 33.9747 11.6601 33.2201 11.6601 32.2924V28.5662C11.6601 28.283 11.4306 28.0535 11.1474 28.0535C10.8642 28.0535 10.6347 28.283 10.6347 28.5662V32.2924C10.6347 33.7855 11.8494 35.0001 13.3424 35.0001H21.6583C23.1513 35.0001 24.366 33.7855 24.366 32.2924V27.5408C24.366 26.0481 23.1513 24.8337 21.6583 24.8337H18.0128V22.5835H21.6581C23.1511 22.5835 24.3657 21.3689 24.3657 19.8759V15.1245C24.3657 13.6315 23.151 12.4169 21.6581 12.4169H18.0128V10.1671H21.6583C23.1513 10.1671 24.366 8.95241 24.366 7.45938V5.5961H28.2789C29.8003 5.5961 31.2307 6.18857 32.3064 7.26428C33.3822 8.34005 33.9746 9.7704 33.9746 11.2917C33.9746 14.4323 31.4195 16.9874 28.279 16.9874H26.5798L27.46 16.1072C27.6603 15.907 27.6603 15.5825 27.46 15.3822C27.2598 15.1821 26.9352 15.182 26.7349 15.3822L24.9795 17.1376C24.8834 17.2337 24.8294 17.3641 24.8294 17.5001C24.8294 17.636 24.8834 17.7665 24.9795 17.8626L26.7349 19.6179C26.8351 19.7181 26.9663 19.7681 27.0975 19.7681C27.2287 19.7681 27.36 19.7181 27.4601 19.6179C27.6603 19.4177 27.6603 19.093 27.4601 18.8929L26.5799 18.0128H28.279C31.9851 18.0128 35.0001 14.9977 35.0001 11.2917C35 9.49648 34.3009 7.80869 33.0315 6.53919ZM23.3404 15.1244V19.8758C23.3404 20.8033 22.5857 21.558 21.6582 21.558H13.3422C12.4147 21.558 11.66 20.8033 11.66 19.8758V15.1244C11.66 14.1968 12.4147 13.4421 13.3422 13.4421H21.6581C22.5857 13.4421 23.3404 14.1968 23.3404 15.1244Z" fill="white"/>
</g>
<defs>
<clipPath id="clip0">
<rect width="35" height="35" fill="white"/>
</clipPath>
</defs>
</svg>
