<svg width="566" height="524" viewBox="0 0 566 524" fill="none" xmlns="http://www.w3.org/2000/svg">
<g clip-path="url(#clip0)">
<path d="M186.715 110.614L225.762 139.509L223.987 138.091L184.94 109.196L186.715 110.614Z" fill="#131A80"/>
<path d="M187.425 108.133C190.975 106.538 194.525 104.588 197.719 102.46C201.092 100.156 204.109 97.6743 206.949 94.838C209.788 92.0017 212.451 88.8109 214.935 85.4429C217.243 82.0748 219.373 78.5295 221.147 74.8069C223.632 69.6661 225.23 64.5254 226.117 59.3847C227.004 54.4212 227.182 49.4577 226.649 44.8488C226.117 40.2399 225.052 35.9855 223.1 32.2629C221.325 28.5403 218.84 25.1722 215.823 22.3359L252.207 56.3711C255.047 59.0301 257.532 62.2209 259.307 65.9435C261.082 69.6661 262.324 73.7433 262.856 77.9977C263.389 82.4293 263.211 87.0383 262.501 91.6472C261.614 96.4334 260.194 101.22 257.887 106.183C256.289 109.728 254.337 113.096 252.03 116.287C249.723 119.478 247.238 122.314 244.575 124.973C241.913 127.632 238.896 130.114 235.879 132.064C232.684 134.191 229.489 135.964 226.117 137.382L223.632 138.446L184.586 109.551L187.425 108.133Z" fill="url(#paint0_linear)"/>
<path d="M125.661 239.843L169.323 260.76C168.613 260.405 168.08 260.051 167.548 259.696C167.015 259.342 166.483 258.987 165.951 258.456C165.418 258.101 165.063 257.569 164.531 257.037C164.176 256.506 163.643 255.974 163.288 255.442C162.401 254.024 161.691 252.428 161.336 250.656C160.981 248.883 160.981 246.933 161.158 244.806C161.336 242.679 161.868 240.374 162.578 237.893C163.288 235.411 164.353 232.752 165.773 229.916C167.015 227.079 168.435 224.598 169.855 222.47C171.275 220.343 172.695 218.393 174.292 216.798C175.89 215.202 177.31 213.962 179.084 213.075C180.682 212.189 182.457 211.48 184.054 211.125C184.764 210.948 185.474 210.948 186.184 210.948C186.894 210.948 187.604 210.948 188.314 210.948C189.024 210.948 189.734 211.125 190.443 211.303C191.153 211.48 191.863 211.657 192.573 212.012C192.751 212.012 192.928 212.189 193.106 212.189C193.283 212.189 193.461 212.366 193.638 212.366C193.816 212.366 193.993 212.543 194.171 212.721C194.348 212.898 194.526 212.898 194.703 213.075L152.994 188.967C152.817 188.79 152.639 188.79 152.462 188.613C152.284 188.435 152.107 188.435 151.929 188.258C151.752 188.081 151.574 188.081 151.397 188.081C151.219 188.081 151.042 187.903 150.864 187.903C150.154 187.549 149.444 187.372 148.734 187.194C148.025 187.017 147.315 186.84 146.427 186.84C145.717 186.84 145.007 186.84 144.12 186.84C143.41 186.84 142.523 187.017 141.813 187.194C140.038 187.549 138.263 188.258 136.488 189.322C134.713 190.385 133.116 191.626 131.518 193.399C129.921 194.994 128.324 197.121 126.904 199.426C125.306 201.73 123.887 204.389 122.467 207.403C121.047 210.416 119.982 213.253 119.094 215.912C118.207 218.571 117.675 221.052 117.497 223.179C117.32 225.484 117.32 227.611 117.675 229.384C118.03 231.334 118.562 232.929 119.627 234.525C119.982 235.056 120.337 235.765 120.869 236.297C121.224 236.829 121.757 237.361 122.289 237.715C122.822 238.247 123.354 238.602 123.887 238.956C124.419 239.133 124.951 239.488 125.661 239.843Z" fill="url(#paint1_linear)"/>
<path d="M164.709 211.479L206.24 234.524C205.353 233.992 204.643 233.46 204.11 232.751C203.578 232.042 203.045 231.333 202.513 230.624C202.158 229.738 201.626 229.029 201.271 228.142C200.916 227.256 200.561 226.37 200.383 225.483C200.206 224.952 200.028 224.243 199.851 223.711C199.673 223.179 199.496 222.647 199.318 222.115C199.141 221.584 198.963 221.052 198.608 220.697C198.431 220.343 198.076 219.811 197.898 219.456C197.543 219.102 197.188 218.57 196.834 218.215C196.479 217.861 196.124 217.506 195.769 217.152C195.414 216.797 195.059 216.443 194.526 216.266C194.171 215.911 193.639 215.734 193.284 215.379L151.575 191.448C152.107 191.626 152.462 191.98 152.817 192.335C153.172 192.689 153.705 193.044 154.06 193.398C154.415 193.753 154.77 194.107 155.125 194.462C155.48 194.816 155.835 195.348 156.189 195.703C156.544 196.057 156.722 196.412 156.899 196.944C157.077 197.475 157.432 197.83 157.609 198.362C157.787 198.893 157.964 199.425 158.142 200.134C158.319 200.666 158.497 201.375 158.674 201.907C159.029 202.793 159.207 203.857 159.562 204.743C159.917 205.63 160.272 206.516 160.804 207.402C161.337 208.289 161.692 208.998 162.401 209.707C163.111 210.416 163.821 211.125 164.709 211.479Z" fill="url(#paint2_linear)"/>
<path d="M169.499 208.643C170.386 208.289 171.274 207.402 172.338 206.161C173.226 204.921 174.291 203.325 175.356 201.198C176.421 199.071 177.663 196.412 179.26 193.221L197.541 154.222C197.896 153.336 198.429 152.272 198.961 151.386C199.494 150.5 199.849 149.613 200.381 148.55C200.914 147.663 201.446 146.777 201.978 145.891C202.511 145.004 203.043 144.118 203.576 143.232C203.221 139.864 202.511 136.496 201.623 133.482C200.736 130.291 199.494 127.455 198.074 124.619C196.654 121.96 195.057 119.301 193.104 116.996C191.329 114.692 189.2 112.565 186.892 110.792L225.939 139.686C228.069 141.459 230.199 143.409 231.973 145.713C233.748 148.018 235.346 150.322 236.766 152.981C238.185 155.64 239.25 158.477 240.315 161.313C241.203 164.326 241.913 167.34 242.268 170.531C241.735 171.417 241.203 172.126 240.67 173.013C240.138 173.899 239.783 174.785 239.25 175.494C238.718 176.381 238.363 177.267 237.83 178.153C237.475 179.04 236.943 179.926 236.588 180.812L219.727 217.329C218.307 220.343 217.242 222.824 216.177 224.774C215.112 226.724 214.225 228.32 213.338 229.561C212.45 230.801 211.563 231.511 210.675 231.865C209.788 232.22 208.9 232.22 207.658 231.865L166.304 208.643C167.546 209.175 168.611 208.998 169.499 208.643Z" fill="url(#paint3_linear)"/>
<path d="M127.081 236.829L170.565 257.924C170.565 257.924 170.565 257.924 170.742 257.924C170.742 257.924 170.742 257.924 170.92 257.924C170.92 257.924 170.92 257.924 171.097 257.924C171.097 257.924 171.097 257.924 171.275 257.924C171.807 258.101 172.517 258.456 173.227 258.633C173.937 258.81 174.47 258.987 175.18 258.987C175.89 259.165 176.599 259.165 177.309 259.165C178.019 259.165 178.729 259.165 179.439 259.165C179.972 259.165 180.327 258.987 180.859 258.81C181.392 258.633 181.924 258.456 182.456 258.278C182.989 258.101 183.521 257.924 184.054 257.569C184.586 257.392 185.119 257.037 185.829 256.86C186.894 256.506 187.781 255.974 188.846 255.619C189.911 255.265 190.798 254.91 191.863 254.733C192.751 254.556 193.816 254.378 194.703 254.378C195.59 254.378 196.478 254.556 197.365 254.91L155.124 233.284C154.236 232.929 153.349 232.752 152.284 232.752C151.397 232.752 150.332 232.929 149.267 233.106C148.202 233.461 147.137 233.816 146.249 234.17C145.185 234.525 144.12 235.056 143.055 235.588C142.345 235.943 141.812 236.12 141.28 236.475C140.747 236.652 140.037 237.006 139.505 237.184C138.973 237.361 138.44 237.538 137.908 237.715C137.375 237.893 136.843 237.893 136.31 238.07C135.6 238.07 134.713 238.247 134.003 238.247C133.293 238.247 132.583 238.247 131.873 238.07C131.163 237.893 130.453 237.893 129.743 237.715C129.033 237.538 128.323 237.361 127.791 237.006C127.791 237.006 127.791 237.006 127.613 237.006C127.613 237.006 127.613 237.006 127.436 237.006C127.259 237.006 127.259 237.006 127.081 236.829Z" fill="url(#paint4_linear)"/>
<path d="M149.621 256.15C151.218 252.959 152.461 250.123 153.348 247.996C154.236 245.691 154.945 243.919 155.3 242.501C155.655 241.083 155.655 239.842 155.478 238.955C155.3 238.069 154.591 237.36 153.703 236.828L196.122 258.277C197.009 258.809 197.542 259.518 197.719 260.227C197.897 261.114 197.897 262.177 197.542 263.595C197.187 265.014 196.654 266.609 195.767 268.736C194.88 270.863 193.815 273.345 192.395 276.359L152.283 362.865L105.96 348.683L149.621 256.15Z" fill="url(#paint5_linear)"/>
<path d="M202.513 14.7136C197.011 13.2955 190.976 13.1182 185.119 14.3591C179.262 15.4227 173.405 17.7272 167.726 20.918C162.224 24.1088 156.899 28.3632 152.284 33.3266C147.67 38.2901 143.588 44.1399 140.57 50.5215C138.795 54.0668 137.553 57.6121 136.488 61.1575C135.423 64.7028 134.891 68.2481 134.536 71.7935C134.181 75.3388 134.358 78.7069 134.713 82.0749C135.068 85.443 135.956 88.6338 137.198 91.6473L138.086 93.7745H135.601C129.744 93.9518 123.887 95.1927 118.03 97.3199C112.35 99.4471 106.671 102.638 101.346 106.538C96.0215 110.438 91.2294 115.047 86.7923 120.365C82.3551 125.683 78.628 131.532 75.4332 137.914L-0.175507 293.199L105.961 348.861L149.445 256.328C151.042 253.137 152.284 250.301 153.172 248.174C154.059 245.869 154.769 244.097 155.124 242.678C155.479 241.26 155.479 240.019 155.302 239.133C155.124 238.247 154.414 237.538 153.527 237.006C152.817 236.651 151.929 236.474 151.042 236.474C150.155 236.474 149.267 236.651 148.38 236.829C147.492 237.006 146.605 237.36 145.717 237.715C144.83 238.07 143.943 238.424 142.878 238.956C142.168 239.31 141.635 239.488 140.925 239.842C140.215 240.197 139.683 240.374 138.973 240.551C138.263 240.729 137.731 241.083 137.021 241.083C136.488 241.26 135.778 241.438 135.246 241.438C134.358 241.615 133.471 241.615 132.761 241.615C131.874 241.615 131.164 241.615 130.276 241.438C129.389 241.26 128.679 241.083 127.969 240.906C127.259 240.729 126.549 240.374 125.839 240.197C125.129 239.842 124.419 239.488 123.887 239.133C123.177 238.779 122.644 238.247 122.112 237.892C121.579 237.36 121.047 236.829 120.514 236.297C119.982 235.765 119.627 235.056 119.272 234.524C118.385 232.929 117.675 231.333 117.32 229.383C116.965 227.434 116.965 225.484 117.142 223.179C117.32 220.875 118.03 218.393 118.74 215.911C119.627 213.252 120.692 210.416 122.112 207.402C123.532 204.389 124.952 201.73 126.549 199.425C128.146 197.121 129.566 194.994 131.164 193.398C132.761 191.626 134.358 190.385 136.133 189.321C137.908 188.258 139.683 187.549 141.458 187.194C142.168 187.017 143.055 187.017 143.765 186.839C144.475 186.839 145.362 186.839 146.072 186.839C146.782 186.839 147.492 187.017 148.38 187.194C149.09 187.371 149.8 187.549 150.509 187.903C151.219 188.258 151.929 188.435 152.639 188.967C153.349 189.321 154.059 189.853 154.592 190.208C155.302 190.739 155.834 191.271 156.366 191.803C156.899 192.335 157.431 193.044 157.964 193.576C158.319 193.93 158.674 194.462 158.851 194.994C159.206 195.526 159.384 196.057 159.561 196.766C159.739 197.298 160.094 198.007 160.271 198.539C160.449 199.248 160.626 199.78 160.981 200.489C161.336 201.375 161.514 202.262 161.869 203.148C162.224 204.034 162.578 204.921 162.933 205.63C163.288 206.339 163.821 207.048 164.176 207.58C164.708 208.111 165.241 208.643 165.951 208.821C167.193 209.175 168.081 209.175 168.968 208.643C169.855 208.289 170.743 207.402 171.808 206.162C172.695 204.921 173.76 203.325 174.825 201.198C175.89 199.071 177.132 196.412 178.73 193.221L197.011 154.222C197.366 153.336 197.898 152.272 198.431 151.386C198.963 150.5 199.318 149.613 199.85 148.55C200.383 147.664 200.915 146.777 201.448 145.891C201.98 145.005 202.513 144.118 203.045 143.232C202.69 139.864 201.98 136.496 201.093 133.482C200.205 130.291 198.963 127.455 197.543 124.619C196.123 121.96 194.526 119.301 192.574 116.996C190.799 114.692 188.669 112.565 186.362 110.792L184.587 109.374L187.249 108.31C190.799 106.715 194.348 104.765 197.543 102.638C200.915 100.333 203.933 97.8517 206.772 95.0154C209.612 92.1791 212.274 88.9883 214.759 85.6203C217.066 82.2522 219.196 78.7069 220.971 74.9843C224.166 68.2481 225.941 61.3347 226.651 54.9531C227.183 48.5716 226.651 42.3672 224.876 36.872C223.101 31.3767 220.261 26.7678 216.534 23.0452C212.984 18.7908 208.192 16.1318 202.513 14.7136Z" fill="url(#paint6_linear)"/>
<path d="M148.205 255.442C149.802 252.074 151.044 249.415 151.932 247.288C152.997 244.983 153.529 243.21 153.884 241.97C154.239 240.729 154.239 239.842 154.062 239.133C153.884 238.779 153.707 238.424 152.997 237.892C152.464 237.715 151.932 237.538 151.222 237.538C150.512 237.538 149.802 237.715 148.915 237.892C148.205 238.07 147.317 238.424 146.43 238.779C145.542 239.133 144.655 239.488 143.768 240.02C143.058 240.374 142.348 240.551 141.815 240.906C141.105 241.261 140.395 241.438 139.863 241.792C139.153 241.97 138.443 242.324 137.911 242.501C137.201 242.679 136.491 242.856 135.958 242.856C135.071 242.856 134.361 243.033 133.651 243.033H133.296C132.408 243.033 131.521 243.033 130.634 242.856C129.746 242.679 128.859 242.501 128.149 242.324C127.261 242.147 126.551 241.792 125.664 241.438C124.954 241.083 124.067 240.729 123.534 240.197C122.824 239.842 122.114 239.311 121.582 238.779C121.049 238.247 120.34 237.715 119.807 237.006C119.275 236.474 118.742 235.765 118.387 235.056C117.322 233.461 116.612 231.511 116.257 229.384C115.902 227.434 115.902 225.129 116.08 222.825C116.435 220.52 116.967 217.861 117.855 215.202C118.742 212.543 119.807 209.707 121.404 206.516C122.824 203.503 124.422 200.667 125.842 198.362C127.439 195.88 129.036 193.93 130.634 192.158C132.408 190.385 134.183 188.967 135.958 187.903C137.733 186.84 139.685 185.953 141.638 185.599C142.525 185.422 143.235 185.244 144.123 185.244C144.477 185.244 144.832 185.244 145.187 185.244C145.72 185.244 146.075 185.244 146.607 185.244C147.495 185.244 148.205 185.422 149.092 185.599C149.802 185.776 150.689 185.953 151.399 186.308C152.109 186.662 152.997 187.017 153.707 187.372C154.417 187.726 155.127 188.258 155.837 188.79C156.546 189.321 157.256 189.853 157.789 190.562C158.321 191.094 159.031 191.803 159.564 192.512C159.919 193.044 160.274 193.576 160.629 194.108C160.984 194.639 161.161 195.348 161.516 195.88C161.694 196.589 162.049 197.121 162.226 197.83C162.403 198.362 162.936 199.78 162.936 199.78C163.291 200.666 163.468 201.553 163.823 202.439C164.178 203.325 164.533 204.035 164.711 204.744C165.066 205.453 165.421 205.984 165.776 206.516C166.131 206.871 166.486 207.225 167.018 207.403C167.196 207.403 167.551 207.58 167.906 207.58C168.26 207.58 168.615 207.58 168.97 207.403C169.68 207.048 170.39 206.516 171.1 205.453C171.988 204.389 172.875 202.794 173.94 200.666C175.005 198.362 176.425 195.703 177.845 192.689L196.126 153.691C196.658 152.805 197.013 151.741 197.546 150.855C198.078 149.968 198.433 148.905 198.965 148.018C199.498 147.132 200.03 146.246 200.563 145.182C201.095 144.473 201.45 143.587 201.983 142.878C201.628 139.687 200.918 136.673 200.03 133.837C199.143 130.823 197.9 127.987 196.658 125.328C195.238 122.669 193.641 120.187 191.866 117.883C190.091 115.579 187.961 113.629 185.832 111.856L182.104 108.842L186.896 106.715C190.269 105.297 193.818 103.347 197.013 101.043C200.208 98.9155 203.225 96.2565 206.065 93.4202C208.905 90.584 211.567 87.5704 213.874 84.2024C216.181 80.8343 218.311 77.289 220.086 73.7436C223.103 67.1848 225.056 60.6259 225.588 54.067C226.121 47.8627 225.588 42.0129 223.813 36.6949C222.038 31.3769 219.376 26.9453 215.826 23.3999C212.099 19.6773 207.485 17.1956 202.338 15.7775C199.498 15.0684 196.481 14.7139 193.286 14.7139C190.801 14.7139 188.139 14.8911 185.477 15.4229C179.797 16.4865 174.118 18.6137 168.615 21.9818C163.113 25.1726 157.966 29.2497 153.529 34.2132C148.915 39.1767 145.01 44.8492 141.993 51.0535C140.395 54.4216 138.975 57.9669 138.088 61.5122C137.201 65.0576 136.491 68.4256 136.136 71.7937C135.781 75.1618 135.958 78.5298 136.313 81.7206C136.668 84.9114 137.556 88.1022 138.62 90.9385L140.218 95.0156L135.781 95.1929C130.101 95.3702 124.422 96.4338 118.742 98.561C113.063 100.688 107.738 103.702 102.413 107.424C97.2664 111.324 92.4743 115.756 88.0372 120.897C83.6001 126.215 79.8729 131.887 76.8556 138.091L1.77942 292.136L105.253 346.557L148.205 255.442Z" fill="url(#paint7_linear)"/>
<path d="M349.469 119.123C354.261 117.173 358.875 114.691 363.313 111.855C367.75 109.019 371.832 105.651 375.559 102.105C379.286 98.56 382.836 94.4829 385.853 90.2285C388.87 85.9741 391.533 81.3652 393.663 76.7562C396.147 71.261 397.745 65.943 398.81 60.625C399.875 55.307 400.052 50.1662 399.697 45.2028C399.342 40.2393 398.277 35.4531 396.68 31.0214C395.97 28.8942 394.905 26.767 393.84 24.6398C392.775 22.6899 391.533 20.74 390.113 18.79L417.801 56.016C420.463 59.5614 422.593 63.4612 424.013 67.5384C425.61 71.7928 426.497 76.2244 427.03 80.8334C427.385 85.6196 427.207 90.4057 426.32 95.3692C425.432 100.333 423.835 105.473 421.705 110.437C419.753 114.869 417.268 119.123 414.606 123.023C411.766 126.923 408.571 130.645 405.022 134.013C401.472 137.381 397.745 140.395 393.485 143.054C389.403 145.713 385.143 147.84 380.529 149.613L377.689 150.676L346.451 120.009L349.469 119.123Z" fill="url(#paint8_linear)"/>
<path d="M286.461 310.393L323.201 328.474C322.491 328.12 321.781 327.765 321.071 327.233C320.361 326.879 319.829 326.347 319.119 325.815C318.586 325.284 317.876 324.752 317.344 324.22C316.811 323.688 316.279 322.979 315.924 322.447C314.682 320.852 313.972 318.902 313.439 316.952C312.907 314.825 312.729 312.698 312.907 310.216C313.084 307.734 313.439 305.252 314.149 302.416C314.859 299.58 315.924 296.744 317.344 293.553C318.764 290.362 320.184 287.703 321.781 285.221C323.378 282.74 324.976 280.79 326.75 279.017C328.525 277.244 330.3 276.003 332.075 274.94C334.027 273.876 335.98 273.344 337.932 272.99C338.819 272.813 339.707 272.813 340.594 272.813C341.482 272.813 342.369 272.813 343.257 272.99C344.144 273.167 345.031 273.344 345.919 273.522C346.806 273.699 347.694 274.054 348.404 274.408C348.759 274.585 349.114 274.763 349.469 274.763C349.824 274.94 350.179 275.117 350.356 275.294C350.711 275.472 351.066 275.649 351.243 275.826C351.598 276.003 351.953 276.181 352.131 276.358L317.876 254.2C317.521 254.022 317.166 253.845 316.811 253.668C316.456 253.491 316.101 253.313 315.746 253.136C315.391 252.959 315.036 252.782 314.681 252.604C314.327 252.427 313.972 252.25 313.617 252.25C312.729 251.895 311.842 251.541 310.954 251.363C310.067 251.186 309.179 251.009 308.292 250.832C307.405 250.654 306.517 250.654 305.63 250.654C304.742 250.654 303.855 250.832 302.79 250.832C300.66 251.186 298.53 251.895 296.578 252.959C294.626 254.022 292.673 255.618 290.899 257.39C289.124 259.163 287.349 261.468 285.574 264.127C283.977 266.786 282.379 269.799 280.782 273.167C279.185 276.535 278.12 279.726 277.232 282.74C276.345 285.753 275.812 288.589 275.812 291.071C275.635 293.73 275.812 296.035 276.345 298.162C276.877 300.289 277.765 302.239 279.007 304.012C279.539 304.721 280.072 305.43 280.604 305.961C281.137 306.493 281.669 307.202 282.379 307.734C283.089 308.266 283.622 308.798 284.332 309.152C284.864 309.507 285.574 310.039 286.461 310.393Z" fill="#851185"/>
<path d="M275.634 290.717C275.634 289.476 275.811 288.058 276.166 286.639C276.344 285.753 276.521 284.69 276.876 283.803C276.876 283.626 276.876 283.626 276.876 283.449C276.876 283.271 276.876 283.271 277.054 283.094C277.054 282.917 277.231 282.562 277.231 282.385C277.409 281.676 277.586 280.967 277.941 280.081C278.296 279.017 278.651 277.953 279.006 276.89C279.006 276.713 279.184 276.713 279.184 276.535C279.184 276.358 279.361 276.181 279.361 276.181C279.716 275.117 280.248 274.054 280.781 272.813C281.313 271.749 281.846 270.685 282.378 269.622C282.378 269.445 282.556 269.267 282.556 269.267C282.556 269.09 282.733 269.09 282.733 268.913C283.266 267.849 283.798 266.963 284.331 265.899C284.686 265.19 285.218 264.481 285.573 263.949C285.751 263.772 285.928 263.595 285.928 263.24C285.928 263.063 286.105 263.063 286.105 262.886C286.105 262.708 286.283 262.708 286.283 262.531C286.815 261.645 287.348 260.936 288.058 260.227C288.59 259.518 289.3 258.809 289.833 258.1L290.01 257.922L290.188 257.745C290.365 257.568 290.543 257.39 290.543 257.213C291.075 256.681 291.43 256.327 291.962 255.795C291.962 255.795 291.962 255.795 292.14 255.618C292.672 255.086 293.382 254.554 293.915 254.2L294.092 254.022C294.092 254.022 294.27 254.022 294.27 253.845C294.802 253.491 295.512 252.959 296.222 252.604C296.222 252.604 296.222 252.604 296.4 252.604C296.577 252.427 296.932 252.427 297.11 252.25C297.287 252.072 297.465 252.072 297.819 251.895C298.174 251.718 298.352 251.718 298.707 251.541C298.884 251.541 299.062 251.363 299.239 251.363C299.594 251.186 299.949 251.186 300.127 251.009C300.304 251.009 300.482 250.832 300.659 250.832C301.192 250.654 301.724 250.654 302.257 250.477C303.144 250.3 304.031 250.3 305.096 250.3C305.984 250.3 306.871 250.3 307.759 250.477C308.646 250.654 309.533 250.832 310.421 251.009C311.308 251.186 312.196 251.541 313.083 251.895C313.438 252.072 313.793 252.25 314.148 252.25C314.503 252.427 314.858 252.604 315.036 252.782C315.39 252.959 315.568 253.136 315.923 253.136C315.923 253.136 316.1 253.136 316.1 253.313C316.455 253.491 316.81 253.668 317.165 253.845L351.42 276.003C351.065 275.826 350.887 275.649 350.532 275.472C350.178 275.294 349.823 275.117 349.645 274.94C349.29 274.763 348.935 274.585 348.758 274.408C348.403 274.231 348.048 274.054 347.693 274.054C346.805 273.699 345.918 273.344 345.208 273.167C344.321 272.99 343.433 272.813 342.546 272.635C341.658 272.458 340.771 272.458 339.883 272.458C338.996 272.458 338.109 272.458 337.221 272.635C336.689 272.635 336.156 272.813 335.801 272.99C335.624 272.99 335.446 273.167 335.269 273.167C334.914 273.167 334.559 273.344 334.381 273.522C334.204 273.522 334.026 273.699 333.849 273.699C333.494 273.876 333.316 273.876 332.961 274.054C332.784 274.054 332.607 274.231 332.429 274.408C332.252 274.585 331.897 274.585 331.719 274.763C331.009 275.117 330.477 275.472 329.767 275.826C329.589 276.003 329.412 276.003 329.412 276.181C328.879 276.535 328.347 277.067 327.637 277.599C327.637 277.599 327.459 277.599 327.459 277.776C326.927 278.308 326.217 278.84 325.685 279.549C325.507 279.726 325.33 279.903 325.33 279.903C324.797 280.612 324.265 281.144 323.555 281.853C323.022 282.562 322.49 283.271 321.957 283.98C321.78 284.158 321.78 284.335 321.602 284.512C321.07 285.221 320.538 286.108 320.005 286.994C319.473 287.88 318.94 288.767 318.585 289.653C318.408 289.83 318.408 290.185 318.23 290.362C317.698 291.248 317.343 292.312 316.81 293.376C316.278 294.439 315.923 295.503 315.568 296.389C315.39 296.566 315.39 296.921 315.213 297.098C314.858 298.162 314.503 299.048 314.148 300.112C313.793 300.998 313.616 302.062 313.438 302.948C313.438 303.125 313.261 303.48 313.261 303.657C313.083 304.543 312.906 305.43 312.728 306.316C312.551 307.557 312.373 308.798 312.373 310.039C312.196 312.52 312.373 314.648 312.906 316.775C312.906 317.129 313.083 317.484 313.261 317.661C313.261 317.838 313.438 318.016 313.438 318.37C313.616 318.725 313.616 318.902 313.793 319.257C313.793 319.434 313.971 319.611 313.971 319.788C314.148 320.143 314.326 320.32 314.503 320.675C314.503 320.852 314.681 321.029 314.681 321.029C314.858 321.384 315.213 321.916 315.568 322.27C316.1 322.979 316.455 323.511 316.988 324.043C317.52 324.575 318.053 325.106 318.763 325.638C319.295 326.17 320.005 326.702 320.715 327.056C321.07 327.234 321.425 327.411 321.78 327.588C322.135 327.765 322.49 327.943 322.845 328.12L307.759 320.675L286.283 310.039C286.105 309.861 285.751 309.684 285.573 309.684C285.041 309.33 284.508 309.152 283.976 308.798C283.443 308.443 282.911 308.089 282.556 307.734C282.378 307.557 282.201 307.557 282.023 307.38C281.491 306.848 280.958 306.316 280.426 305.784L280.248 305.607C279.716 305.075 279.184 304.366 278.651 303.657C278.296 303.303 278.119 302.771 277.764 302.416C277.764 302.239 277.586 302.062 277.586 301.884C277.409 301.53 277.231 301.353 277.054 300.998C277.054 300.821 276.876 300.644 276.876 300.466C276.699 300.112 276.699 299.934 276.521 299.58C276.521 299.403 276.344 299.048 276.344 298.871C276.344 298.694 276.166 298.339 276.166 298.162V297.985C275.634 295.857 275.456 293.376 275.634 290.717Z" fill="url(#paint9_linear)"/>
<path d="M331.366 279.373L365.088 299.936C364.2 299.404 363.491 298.695 362.781 297.986C362.071 297.277 361.538 296.39 361.006 295.504C360.473 294.618 359.941 293.554 359.586 292.668C359.053 291.604 358.698 290.718 358.343 289.654C357.988 288.945 357.811 288.413 357.456 287.704C357.101 286.995 356.924 286.463 356.569 285.932C356.214 285.4 356.036 284.868 355.681 284.336C355.326 283.804 354.971 283.45 354.616 282.918C354.261 282.564 353.906 282.209 353.551 281.677C353.196 281.323 352.841 280.968 352.486 280.614C352.131 280.259 351.777 279.905 351.244 279.727C350.889 279.373 350.357 279.195 350.002 278.841L315.57 257.037C316.102 257.392 316.457 257.569 316.989 257.923C317.344 258.278 317.877 258.633 318.232 258.987C318.587 259.342 319.119 259.696 319.474 260.051C319.829 260.405 320.184 260.937 320.539 261.291C320.894 261.646 321.249 262.178 321.604 262.71C321.959 263.241 322.314 263.773 322.491 264.482C322.846 265.191 323.024 265.723 323.379 266.432C323.734 267.141 323.911 267.85 324.266 268.559C324.621 269.623 325.154 270.687 325.509 271.75C326.041 272.814 326.396 273.877 326.929 274.764C327.461 275.65 328.171 276.536 328.703 277.423C329.768 278.132 330.478 278.841 331.366 279.373Z" fill="url(#paint10_linear)"/>
<path d="M333.318 276.181L367.04 296.921C367.04 296.921 367.218 296.921 367.218 297.098C367.218 297.098 367.395 297.098 367.395 297.275C367.395 297.275 367.573 297.275 367.573 297.453C367.573 297.453 367.75 297.453 367.75 297.63L334.205 276.89C334.205 276.89 334.028 276.89 334.028 276.712C334.028 276.712 333.85 276.712 333.85 276.535C333.85 276.358 333.673 276.535 333.673 276.358C333.318 276.358 333.318 276.181 333.318 276.181Z" fill="#851185"/>
<path d="M337.932 276.535C338.997 276.18 340.062 275.294 341.127 273.876C342.192 272.458 343.257 270.685 344.499 268.203C345.741 265.722 346.984 262.708 348.581 259.163L368.104 215.201C371.654 207.224 373.961 198.892 375.204 190.738C376.446 182.583 376.269 174.606 375.204 166.984C374.139 159.362 371.832 152.094 368.637 145.535C365.442 138.976 361.36 133.126 356.213 127.985C357.278 128.872 358.52 130.29 359.585 131.176C360.118 131.708 360.65 132.24 361.183 132.772C361.36 132.949 361.538 133.126 361.715 133.303L364.022 135.608C364.2 135.785 364.2 135.785 364.377 135.962L365.797 137.38C366.33 137.912 366.862 138.444 367.395 138.976C367.749 139.33 368.104 139.685 368.459 140.039L369.169 140.749C370.057 141.635 371.122 142.698 372.009 143.408C372.187 143.585 372.364 143.762 372.542 143.939L376.091 147.485C376.269 147.662 376.446 147.839 376.624 148.016C377.511 148.903 378.754 150.144 379.641 151.03C379.996 151.385 380.528 151.916 381.061 152.448L383.546 154.93C383.723 155.107 383.901 155.284 384.078 155.462C384.966 156.348 386.03 157.412 386.918 158.298C391.71 163.084 395.792 168.757 398.809 174.961C401.827 181.165 403.956 187.901 405.199 195.169C406.264 202.26 406.441 209.883 405.376 217.505C404.311 225.127 402.182 232.75 398.987 240.372L381.061 281.321C379.641 284.689 378.399 287.525 377.334 289.652C376.269 291.957 375.204 293.73 374.316 294.97C373.429 296.211 372.364 297.098 371.299 297.452C370.234 297.807 369.169 297.807 367.749 297.452L334.205 276.712C335.447 277.067 336.69 277.067 337.932 276.535Z" fill="url(#paint11_linear)"/>
<path d="M287.882 307.026L324.444 325.285C324.444 325.285 324.622 325.285 324.622 325.462C324.622 325.462 324.799 325.462 324.799 325.639C324.799 325.639 324.977 325.639 324.977 325.817C324.977 325.817 325.154 325.817 325.154 325.994C325.864 326.348 326.751 326.526 327.461 326.88C328.171 327.057 329.059 327.235 329.946 327.412C330.834 327.589 331.543 327.589 332.431 327.767C333.318 327.767 334.206 327.767 335.093 327.767C335.626 327.767 336.158 327.589 336.868 327.589C337.4 327.412 338.11 327.235 338.643 327.057C339.353 326.88 339.885 326.703 340.595 326.348C341.305 326.171 342.015 325.817 342.548 325.639C343.79 325.108 344.855 324.753 346.097 324.398C347.34 324.044 348.405 323.689 349.647 323.335C350.712 323.158 351.954 322.98 353.019 322.98C354.084 322.98 355.149 323.158 356.214 323.689H356.391H356.569H356.746H356.924L322.314 304.899C322.314 304.899 322.137 304.899 322.137 304.722H321.959H321.782H321.604C320.539 304.19 319.297 304.013 318.232 304.013C316.99 304.013 315.925 304.19 314.682 304.367C313.44 304.544 312.198 305.076 310.955 305.431C309.713 305.785 308.47 306.317 307.228 306.849C306.518 307.204 305.808 307.381 305.098 307.735C304.388 308.09 303.678 308.267 302.968 308.444C302.258 308.622 301.549 308.799 301.016 308.976C300.306 309.153 299.774 309.153 299.241 309.331C298.354 309.331 297.466 309.331 296.579 309.331C295.692 309.331 294.804 309.153 293.917 308.976C293.029 308.799 292.142 308.622 291.432 308.444C290.544 308.267 289.834 307.913 288.947 307.558C288.947 307.558 288.77 307.558 288.77 307.381C288.77 307.381 288.592 307.381 288.592 307.204C288.592 307.204 288.415 307.204 288.415 307.026C288.06 307.026 287.882 307.026 287.882 307.026Z" fill="url(#paint12_linear)"/>
<path d="M362.427 1.41756C354.618 -0.35511 346.631 -0.35511 338.644 1.06302C330.657 2.48116 322.848 5.31742 315.571 9.57182C308.294 13.6489 301.55 18.9669 295.515 25.1713C289.658 31.3756 284.689 38.6435 280.962 46.6205C278.832 51.0522 277.412 55.4839 276.169 59.9155C275.104 64.3472 274.395 68.7789 274.395 73.2105C274.217 77.6422 274.572 81.8966 275.459 85.9737C276.347 90.2281 277.589 94.128 279.542 98.0278L280.784 100.51H277.944C269.957 100.687 262.148 102.105 254.339 104.941C246.707 107.6 239.43 111.5 232.508 116.286C225.764 121.072 219.374 126.922 213.872 133.481C208.37 140.04 203.578 147.308 199.851 155.285L181.57 194.284C180.15 197.474 178.73 200.311 177.488 202.615C176.245 205.097 175.003 207.047 173.938 208.642C172.696 210.238 171.453 211.301 170.211 211.833C168.968 212.365 167.371 212.542 165.774 212.188C164.709 211.833 163.821 211.124 163.111 210.415C162.401 209.706 161.692 208.819 161.159 207.933C160.627 207.047 160.272 205.983 159.739 205.097C159.384 204.033 159.029 202.97 158.674 202.083C158.497 201.552 158.319 200.842 158.142 200.311C157.964 199.779 157.787 199.247 157.609 198.538C157.432 198.006 157.254 197.474 156.899 197.12C156.722 196.588 156.367 196.234 156.189 195.879C155.657 195.347 155.302 194.815 154.77 194.284C154.237 193.752 153.705 193.397 153.172 192.865C152.64 192.511 152.107 191.979 151.397 191.802C150.865 191.447 150.155 191.093 149.623 190.916C149.09 190.738 148.38 190.384 147.67 190.384C146.96 190.206 146.428 190.206 145.718 190.029C145.008 190.029 144.475 190.029 143.766 190.029C143.056 190.029 142.523 190.206 141.813 190.206C140.216 190.561 138.796 191.093 137.376 191.979C135.956 192.865 134.536 194.106 133.116 195.702C131.697 197.297 130.277 199.07 129.034 201.197C127.614 203.324 126.372 205.806 125.13 208.465C123.887 211.124 122.822 213.783 122.112 216.087C121.402 218.392 120.87 220.696 120.515 222.646C120.337 224.596 120.337 226.546 120.515 228.141C120.692 229.737 121.225 231.332 122.112 232.573C122.467 233.105 122.822 233.637 123.177 234.169C123.532 234.7 124.065 235.055 124.42 235.587C124.952 235.941 125.485 236.296 126.017 236.65C126.549 237.005 127.082 237.359 127.792 237.537C128.502 237.891 129.034 238.068 129.744 238.246C130.454 238.423 131.164 238.6 131.874 238.6C132.584 238.777 133.294 238.777 134.004 238.777C134.714 238.777 135.424 238.777 136.311 238.6C136.844 238.6 137.376 238.423 137.909 238.246C138.441 238.068 138.973 237.891 139.506 237.714C140.038 237.537 140.571 237.182 141.281 237.005C141.813 236.828 142.523 236.473 143.056 236.118C144.12 235.587 145.185 235.232 146.25 234.7C147.315 234.346 148.38 233.991 149.268 233.637C150.332 233.282 151.22 233.282 152.285 233.282C153.172 233.282 154.237 233.459 155.125 233.814C156.722 234.7 157.787 235.941 158.319 237.359C158.852 238.777 158.852 240.373 158.497 242.323C158.142 244.273 157.432 246.4 156.367 248.882C155.302 251.363 154.06 254.2 152.462 257.39L108.978 350.101L271.2 435.189L317.523 330.424C319.121 326.702 320.541 323.688 321.428 321.206C322.493 318.725 323.203 316.598 323.558 315.002C323.913 313.407 323.913 311.989 323.558 310.925C323.203 309.861 322.493 309.152 321.251 308.443C320.363 308.089 319.298 307.734 318.233 307.734C317.168 307.734 316.104 307.734 315.039 308.089C313.974 308.266 312.909 308.621 311.844 308.975C310.779 309.33 309.714 309.861 308.649 310.216C307.939 310.57 307.052 310.748 306.342 311.102C305.632 311.457 304.744 311.634 304.035 311.989C303.325 312.166 302.437 312.52 301.727 312.698C301.017 312.875 300.307 313.052 299.597 313.052C298.533 313.052 297.468 313.052 296.58 313.052C295.515 313.052 294.628 312.875 293.563 312.698C292.498 312.52 291.611 312.343 290.723 311.989C289.836 311.634 288.948 311.457 288.061 310.925C287.173 310.57 286.286 310.039 285.576 309.684C284.689 309.152 283.979 308.621 283.269 308.089C282.559 307.557 281.849 306.848 281.316 306.316C280.784 305.607 280.074 304.898 279.542 304.189C278.299 302.416 277.412 300.466 276.879 298.339C276.347 296.212 276.169 293.73 276.347 291.248C276.524 288.589 277.057 285.93 277.767 282.917C278.654 279.903 279.719 276.713 281.316 273.344C282.914 269.976 284.511 266.963 286.109 264.304C287.706 261.645 289.481 259.518 291.433 257.568C293.208 255.618 295.16 254.2 297.113 253.136C299.065 252.072 301.195 251.363 303.325 251.009C304.212 250.832 305.099 250.832 306.164 250.832C307.052 250.832 307.939 250.832 308.827 251.009C309.714 251.186 310.602 251.363 311.489 251.541C312.376 251.718 313.264 252.072 314.151 252.427C315.039 252.782 315.926 253.136 316.813 253.668C317.701 254.2 318.411 254.731 319.298 255.263C320.186 255.795 320.896 256.504 321.606 257.213C322.316 257.922 323.025 258.631 323.735 259.34C324.268 259.872 324.623 260.404 324.978 261.113C325.333 261.822 325.688 262.354 326.043 263.063C326.398 263.772 326.753 264.481 326.93 265.19C327.285 265.899 327.463 266.608 327.818 267.495C328.173 268.558 328.705 269.622 329.06 270.685C329.592 271.749 329.947 272.635 330.48 273.522C331.012 274.408 331.545 275.117 332.255 275.826C332.965 276.535 333.675 277.067 334.385 277.244C335.804 277.599 337.047 277.599 338.112 277.244C339.177 276.89 340.242 276.003 341.306 274.585C342.371 273.167 343.436 271.395 344.679 268.913C345.921 266.431 347.163 263.418 348.761 259.872L368.284 215.91C372.189 206.87 374.674 197.829 375.739 188.788C376.803 179.748 376.271 171.062 374.496 162.73C372.721 154.576 369.704 146.776 365.444 140.04C361.185 133.304 355.683 127.454 349.116 122.668L346.808 121.073L349.826 119.832C354.618 117.882 359.232 115.4 363.67 112.564C368.107 109.727 372.189 106.359 375.916 102.814C379.643 99.2687 383.193 95.1916 386.21 90.9372C389.227 86.6828 391.89 82.0739 394.02 77.4649C397.924 68.7789 399.877 60.2701 400.054 51.9385C400.409 43.7843 398.989 35.9845 395.972 29.2484C393.132 22.5123 388.695 16.4852 383.193 11.8763C377.158 6.55829 370.414 3.19022 362.427 1.41756Z" fill="url(#paint13_linear)"/>
<path d="M315.749 329.715C317.524 325.815 318.766 322.979 319.653 320.497C320.718 317.838 321.251 315.888 321.606 314.47C321.961 313.052 321.961 311.989 321.606 311.28C321.428 310.57 320.896 310.039 320.008 309.507C319.476 309.33 318.589 309.152 317.701 308.975H317.346C316.636 308.975 315.749 309.152 314.861 309.33C313.974 309.507 312.909 309.861 311.844 310.216C310.779 310.57 309.714 311.102 308.649 311.457C307.762 311.811 307.052 312.166 306.342 312.343C305.632 312.698 304.745 312.875 304.035 313.229C303.147 313.407 302.437 313.761 301.727 313.939C300.84 314.116 300.13 314.293 299.42 314.293C298.888 314.293 298.178 314.293 297.645 314.293C297.113 314.293 296.758 314.293 296.225 314.293C295.16 314.293 294.096 314.116 293.031 313.939C291.966 313.761 290.901 313.584 290.013 313.229C288.949 312.875 288.061 312.52 287.174 312.166C286.286 311.811 285.399 311.28 284.511 310.748C283.624 310.216 282.914 309.684 282.027 308.975C281.317 308.443 280.607 307.734 279.897 307.025C279.187 306.316 278.654 305.607 278.122 304.721C276.88 302.771 275.815 300.644 275.282 298.339C274.75 296.035 274.572 293.553 274.75 290.717C274.927 288.058 275.46 285.221 276.347 282.031C277.234 279.017 278.477 275.649 279.897 272.281C281.494 268.913 283.091 265.722 284.866 263.063C286.641 260.404 288.416 258.1 290.368 256.15C292.321 254.2 294.273 252.604 296.403 251.363C298.533 250.123 300.84 249.413 303.147 249.059C304.212 248.882 305.1 248.882 306.165 248.882H306.697C307.584 248.882 308.294 248.882 309.182 249.059C310.069 249.236 311.134 249.413 312.022 249.591C312.909 249.768 313.974 250.123 314.861 250.477C315.749 250.832 316.814 251.363 317.701 251.718C318.589 252.25 319.476 252.782 320.363 253.313C321.251 253.845 321.961 254.554 322.848 255.263C323.558 255.972 324.446 256.681 324.978 257.568C325.51 258.1 325.865 258.809 326.398 259.518C326.753 260.227 327.108 260.759 327.463 261.645C327.818 262.354 328.173 263.063 328.528 263.949C328.883 264.658 329.06 265.367 329.415 266.077C329.948 267.317 330.303 268.204 330.657 269.267C331.19 270.331 331.545 271.217 332.077 271.926C332.61 272.813 333.142 273.522 333.675 274.054C334.207 274.585 334.74 274.94 335.45 275.294C335.982 275.472 336.514 275.472 336.869 275.472C337.402 275.472 337.757 275.472 338.112 275.294C338.999 274.94 339.709 274.231 340.597 273.167C341.484 271.926 342.549 270.154 343.791 267.672C344.856 265.367 346.099 262.708 347.874 258.631L367.397 214.669C371.302 205.983 373.609 196.943 374.674 187.902C375.561 179.216 375.206 170.53 373.431 162.198C371.657 154.044 368.639 146.599 364.557 139.863C360.298 133.127 354.973 127.454 348.583 122.845L344.146 119.654L349.648 117.527C354.263 115.577 358.878 113.273 363.137 110.436C367.397 107.6 371.479 104.409 375.206 100.864C378.933 97.3188 382.306 93.4189 385.323 89.1645C388.34 84.9101 390.825 80.4784 392.955 75.8695C396.682 67.538 398.634 59.2065 398.989 50.8749C399.167 42.8979 397.924 35.4527 395.085 28.7166C392.245 21.9805 388.163 16.3079 382.661 11.8763C377.159 7.26734 370.592 4.07654 363.137 2.30387C359.233 1.41754 355.15 0.885742 350.891 0.885742C347.341 0.885742 343.614 1.24028 339.887 1.94934C332.255 3.36747 324.623 6.20374 317.169 10.2809C309.892 14.358 303.325 19.4987 297.468 25.7031C291.433 32.0847 286.641 39.1753 283.091 46.7978C281.139 51.0522 279.542 55.4838 278.477 59.9155C277.412 64.3472 276.88 68.6016 276.702 72.856C276.525 77.1104 276.88 81.3648 277.767 85.4419C278.654 89.519 279.897 93.4189 281.672 97.1415L283.801 101.573H278.832C271.2 101.75 263.391 103.169 255.759 105.828C248.304 108.487 241.028 112.209 234.283 116.995C227.539 121.782 221.327 127.454 216.002 133.836C210.5 140.395 205.885 147.662 202.158 155.462L183.877 194.461C182.457 197.474 181.038 200.488 179.795 202.792C178.375 205.451 177.133 207.401 176.068 208.997C174.648 210.769 173.228 212.01 171.808 212.719C170.743 213.251 169.856 213.428 168.614 213.428C167.904 213.428 167.194 213.251 166.306 213.074C164.886 212.542 163.822 211.833 162.934 210.947C162.047 210.238 161.337 209.351 160.804 208.288C160.272 207.401 159.917 206.338 159.384 205.274C159.029 204.211 158.674 203.147 158.319 202.083C158.142 201.552 157.965 200.842 157.787 200.311C157.61 199.779 157.432 199.247 157.255 198.715C157.077 198.183 156.9 197.829 156.722 197.297C156.545 196.943 156.367 196.588 156.012 196.234C155.657 195.702 155.125 195.17 154.77 194.815C154.237 194.284 153.882 193.929 153.35 193.575C152.817 193.22 152.285 192.865 151.753 192.511C151.22 192.156 150.688 191.979 150.155 191.625C149.623 191.447 149.09 191.27 148.38 191.093C147.848 190.916 147.315 190.916 146.605 190.738C146.25 190.738 145.896 190.738 145.541 190.738C145.363 190.738 145.186 190.738 144.831 190.738C144.298 190.738 143.588 190.916 143.056 190.916C141.636 191.27 140.393 191.802 138.974 192.511C137.554 193.397 136.311 194.461 134.891 195.879C133.472 197.297 132.229 199.07 130.987 201.197C129.744 203.324 128.324 205.629 127.082 208.288C125.84 210.947 124.775 213.428 124.065 215.733C123.355 218.037 122.822 220.165 122.645 222.114C122.467 224.064 122.467 225.66 122.645 227.255C122.822 228.673 123.355 230.091 124.065 231.155C124.42 231.687 124.775 232.041 125.13 232.573C125.485 232.928 125.84 233.459 126.372 233.814C126.727 234.169 127.26 234.523 127.792 234.878C128.324 235.232 128.857 235.409 129.389 235.764C129.922 235.941 130.632 236.296 131.164 236.473C131.697 236.65 132.407 236.828 133.117 236.828C133.827 237.005 134.536 237.005 135.069 237.005H135.246C135.956 237.005 136.489 237.005 137.199 236.828C137.554 236.828 138.086 236.65 138.441 236.65C138.974 236.473 139.506 236.296 140.039 236.118C140.571 235.941 141.103 235.764 141.813 235.409C142.346 235.232 143.056 234.878 143.588 234.7C144.653 234.169 145.718 233.637 146.783 233.282C148.025 232.75 149.09 232.396 149.978 232.219C151.22 231.864 152.285 231.687 153.35 231.687C154.592 231.687 155.657 231.864 156.722 232.396C158.674 233.46 159.917 234.878 160.449 236.65C160.982 238.246 161.159 240.196 160.627 242.323C160.272 244.273 159.562 246.4 158.319 249.236C157.255 251.718 155.835 254.731 154.415 257.922L111.463 349.392L271.023 433.239L315.749 329.715Z" fill="url(#paint14_linear)"/>
<path d="M316.988 330.247C318.585 326.524 320.005 323.511 320.893 321.029C321.958 318.547 322.668 316.42 323.023 314.825C323.378 313.229 323.378 311.811 323.023 310.747C322.668 309.684 321.958 308.975 320.715 308.266L355.502 326.701C356.567 327.41 357.277 328.12 357.632 329.006C357.987 330.069 357.987 331.133 357.632 332.728C357.277 334.324 356.745 336.274 355.857 338.578C354.97 340.883 353.728 343.719 352.308 347.264L309.889 444.406L270.842 435.011L316.988 330.247Z" fill="url(#paint15_linear)"/>
<path d="M498.732 210.414C503.524 208.642 508.316 206.514 512.575 203.855C517.013 201.196 521.095 198.183 524.644 194.815C528.372 191.447 531.744 187.547 534.584 183.47C537.423 179.393 539.908 174.961 541.861 170.352C543.813 165.743 545.055 161.311 545.943 156.703C546.83 152.271 547.008 147.662 546.83 143.408C546.653 138.976 545.943 134.899 544.7 130.822C544.345 129.758 544.168 128.872 543.813 127.808C543.28 126.567 542.748 125.326 542.215 124.085C541.506 122.49 540.796 120.895 539.908 119.477C546.298 130.644 552.687 141.812 559.254 153.157C561.206 156.525 562.804 160.248 563.869 163.97C564.934 167.693 565.644 171.77 565.998 175.847C566.176 179.924 565.998 184.002 565.289 188.256C564.579 192.51 563.336 196.765 561.561 200.842C559.787 205.096 557.479 209.173 554.817 212.896C552.155 216.619 549.137 220.164 545.588 223.355C542.215 226.546 538.311 229.382 534.406 231.686C530.324 233.991 526.064 236.118 521.45 237.536L518.077 238.6L495.182 211.832L498.732 210.414Z" fill="url(#paint16_linear)"/>
<path d="M506.009 93.9511C497.845 91.8239 489.503 91.4693 481.338 92.5329C473.174 93.5965 465.187 96.0783 457.91 99.8009C450.634 103.523 443.712 108.487 438.032 114.337C432.175 120.364 427.383 127.277 424.011 135.077C422.058 139.331 420.816 143.763 419.751 148.195C418.864 152.626 418.509 157.058 418.509 161.312C418.686 165.744 419.219 169.998 420.284 174.076C421.348 178.33 422.946 182.407 425.076 186.13L426.673 188.966H423.301C419.219 188.789 414.959 189.143 410.877 189.675C406.795 190.207 402.713 191.093 398.63 192.334C394.548 193.575 390.644 195.17 386.916 196.943C383.012 198.716 379.462 200.843 375.912 203.325C375.557 204.388 375.202 205.452 374.847 206.693C374.492 207.756 374.137 208.82 373.782 209.883C373.427 210.947 372.895 212.011 372.54 213.074C372.185 214.138 371.653 215.201 371.12 216.265L351.597 260.404C349.999 263.95 348.58 267.141 347.337 269.8C345.917 272.459 344.675 274.763 343.433 276.536C342.013 278.308 340.77 279.549 339.173 280.081C337.576 280.79 335.801 280.79 333.848 280.258H333.671H333.493H333.316C333.316 280.258 333.138 280.258 333.138 280.081C332.073 279.549 331.009 279.017 330.299 278.131C329.411 277.422 328.701 276.358 328.169 275.295C327.459 274.231 326.926 273.168 326.394 271.927C325.861 270.686 325.329 269.622 324.974 268.381C324.619 267.672 324.442 266.963 324.087 266.254C323.732 265.545 323.554 264.836 323.199 264.304C322.844 263.595 322.667 263.063 322.312 262.532C321.957 262 321.602 261.468 321.247 261.113C320.714 260.404 320.004 259.873 319.472 259.164C318.762 258.632 318.23 257.923 317.52 257.568C316.81 257.036 316.1 256.682 315.39 256.15C314.68 255.795 313.792 255.441 313.083 255.086C312.373 254.732 311.485 254.555 310.775 254.377C310.065 254.2 309.178 254.023 308.468 254.023C307.758 253.846 306.871 253.846 306.161 253.846C305.451 253.846 304.563 253.846 303.853 254.023C302.078 254.377 300.304 254.909 298.529 255.973C296.754 257.036 295.157 258.277 293.559 260.05C291.962 261.645 290.364 263.772 288.945 266.077C287.525 268.381 286.105 271.218 284.685 274.231C283.265 277.245 282.2 280.081 281.49 282.74C280.78 285.399 280.248 287.881 280.07 290.185C279.893 292.49 280.07 294.617 280.425 296.389C280.78 298.339 281.668 299.935 282.555 301.53C283.088 302.239 283.443 302.771 283.975 303.303C284.507 303.835 285.04 304.367 285.75 304.898C286.282 305.43 286.992 305.785 287.702 306.316C288.412 306.671 289.122 307.025 289.832 307.38C290.542 307.735 291.429 308.089 292.317 308.266C293.204 308.444 294.092 308.621 294.802 308.798C295.689 308.975 296.576 308.975 297.464 309.153C298.351 309.153 299.239 309.153 300.126 309.153C300.659 309.153 301.369 308.975 301.901 308.798C302.611 308.621 303.143 308.444 303.853 308.266C304.563 308.089 305.273 307.735 305.983 307.557C306.693 307.203 307.403 307.025 308.113 306.671C309.355 306.139 310.598 305.607 311.84 305.253C313.083 304.898 314.325 304.367 315.567 304.189C316.81 304.012 318.052 303.835 319.117 303.835C320.359 303.835 321.424 304.012 322.489 304.544C322.489 304.544 322.667 304.544 322.667 304.721C322.667 304.721 322.844 304.721 322.844 304.898C322.844 304.898 323.022 304.898 323.022 305.076C323.022 305.076 323.199 305.076 323.199 305.253C324.974 306.316 326.216 307.557 326.749 309.153C327.281 310.748 327.459 312.521 327.104 314.648C326.749 316.775 325.861 319.257 324.797 322.093C323.732 324.929 322.312 328.12 320.714 331.843L274.213 436.785L434.305 520.809L522.87 307.025C526.42 298.339 528.549 289.299 529.082 280.436C529.614 271.572 528.727 262.886 526.42 254.555C524.112 246.4 520.563 238.601 515.771 231.687C510.978 224.774 505.121 218.747 498.022 213.783L495.182 211.833L498.732 210.592C503.524 208.82 508.316 206.693 512.576 204.034C517.013 201.375 521.095 198.361 524.645 194.993C528.372 191.625 531.744 187.725 534.584 183.648C537.424 179.571 539.909 175.139 541.861 170.53C545.411 162.199 547.008 153.69 546.83 145.536C546.653 137.381 544.878 129.759 541.506 122.846C538.134 115.932 533.342 109.905 527.307 104.942C521.45 99.8009 514.351 96.0783 506.009 93.9511Z" fill="url(#paint17_linear)"/>
<path d="M521.45 306.494C525 298.162 526.952 289.299 527.662 280.436C528.195 271.75 527.307 263.241 525.177 254.909C523.048 246.755 519.498 239.133 514.706 232.396C509.914 225.483 504.057 219.633 497.312 214.847L492.165 211.302L498.377 209.174C503.169 207.579 507.606 205.275 512.044 202.793C516.303 200.311 520.385 197.298 523.935 193.93C527.662 190.561 530.857 186.839 533.697 182.762C536.537 178.685 539.021 174.43 540.796 169.999C544.168 162.022 545.766 153.867 545.588 145.536C545.411 137.736 543.636 130.291 540.441 123.377C537.246 116.641 532.454 110.792 526.597 106.005C520.563 101.042 513.641 97.6738 505.654 95.5466C500.685 94.3057 495.36 93.5967 490.035 93.5967C487.196 93.5967 484.356 93.7739 481.516 94.1285C473.529 95.1921 465.897 97.4965 458.443 101.219C451.166 104.942 444.599 109.728 438.92 115.578C433.063 121.605 428.448 128.341 425.253 135.786C423.479 139.863 422.059 144.295 421.171 148.549C420.284 152.804 419.929 157.058 419.929 161.312C420.106 165.567 420.639 169.821 421.704 173.721C422.769 177.798 424.366 181.875 426.318 185.421L428.981 190.384L423.124 190.207C422.414 190.207 421.704 190.207 421.171 190.207C417.799 190.207 414.427 190.384 410.877 190.916C406.795 191.448 402.89 192.334 398.808 193.575C394.903 194.816 390.999 196.234 387.272 198.184C383.722 199.957 380.172 201.907 376.8 204.211C376.445 205.097 376.267 206.161 375.913 207.047C375.558 208.111 375.203 209.352 374.848 210.415C374.493 211.479 373.96 212.543 373.605 213.783C373.25 214.847 372.718 215.911 372.185 216.974L352.662 261.114C351.065 264.836 349.645 267.85 348.402 270.509C346.805 273.522 345.563 275.827 344.32 277.422C342.723 279.372 341.125 280.79 339.351 281.499C338.286 281.854 337.221 282.208 335.978 282.208C335.091 282.208 334.026 282.031 332.961 281.854L332.429 281.676L331.896 281.499C330.654 280.967 329.589 280.258 328.524 279.372C327.637 278.486 326.927 277.599 326.039 276.358C325.507 275.295 324.797 274.231 324.264 272.813C323.732 271.572 323.199 270.331 322.844 269.268C322.49 268.559 322.312 267.85 321.957 267.141C321.602 266.432 321.425 265.9 321.07 265.191C320.715 264.659 320.537 264.127 320.182 263.595C319.827 263.063 319.65 262.709 319.295 262.354C318.762 261.823 318.23 261.114 317.52 260.582C316.987 260.05 316.277 259.518 315.568 258.986C314.858 258.455 314.148 258.1 313.438 257.745C312.728 257.391 312.018 257.036 311.308 256.682C310.598 256.327 309.888 256.15 309.178 255.973C308.468 255.796 307.758 255.618 307.048 255.618C306.516 255.618 305.806 255.441 305.273 255.441H304.918C304.209 255.441 303.499 255.441 302.789 255.618C301.191 255.796 299.416 256.505 297.997 257.391C296.399 258.277 294.802 259.518 293.382 261.114C291.785 262.709 290.365 264.659 288.945 266.963C287.525 269.268 286.105 271.927 284.685 274.94C283.265 277.954 282.2 280.79 281.49 283.272C280.78 285.931 280.248 288.235 280.071 290.363C279.893 292.49 280.071 294.44 280.426 296.212C280.781 297.985 281.49 299.403 282.378 300.821C282.733 301.353 283.265 301.885 283.798 302.417C284.33 302.948 284.863 303.48 285.395 303.835C285.928 304.367 286.637 304.721 287.17 305.076C287.88 305.43 288.412 305.785 289.122 306.139C289.832 306.494 290.542 306.671 291.43 307.026C292.14 307.203 293.027 307.38 293.914 307.557C294.802 307.735 295.512 307.735 296.399 307.735C296.754 307.735 297.109 307.735 297.464 307.735C297.997 307.735 298.529 307.735 299.061 307.735C299.594 307.735 300.126 307.557 300.659 307.557C301.191 307.38 301.901 307.203 302.434 307.026C303.144 306.848 303.676 306.494 304.386 306.317C305.096 305.962 305.806 305.785 306.516 305.43C307.758 304.898 309.001 304.367 310.243 304.012C311.663 303.48 312.905 303.126 314.148 302.948C315.39 302.594 316.632 302.594 317.697 302.594H318.052C319.472 302.594 320.715 302.948 321.957 303.48L322.49 303.658L323.022 304.012C325.152 305.253 326.572 306.671 327.282 308.621C327.992 310.394 327.992 312.521 327.637 315.003C327.282 317.13 326.572 319.612 325.329 322.802C324.264 325.639 322.844 328.829 321.247 332.552L275.278 436.253L432.885 519.036L521.45 306.494Z" fill="url(#paint18_linear)"/>
<path d="M522.869 307.025C525.886 299.934 527.661 292.666 528.726 285.221C529.613 277.953 529.613 270.685 528.549 263.595C527.484 256.681 525.531 249.768 522.692 243.386C519.852 237.005 516.302 231.155 511.687 225.837L533.518 251.895C537.778 256.859 541.15 262.354 543.812 268.204C546.475 274.053 548.427 280.435 549.314 286.994C550.379 293.553 550.379 300.289 549.669 307.025C548.959 313.761 547.184 320.497 544.522 327.056L463.411 523.645L433.949 520.454L522.869 307.025Z" fill="url(#paint19_linear)"/>
</g>
<defs>
<linearGradient id="paint0_linear" x1="249.801" y1="49.153" x2="202.665" y2="109.988" gradientUnits="userSpaceOnUse">
<stop stop-color="#78C4FC"/>
<stop offset="0.00785218" stop-color="#77C3FB"/>
<stop offset="0.1906" stop-color="#63A5E2"/>
<stop offset="0.2944" stop-color="#5C9AD9"/>
<stop offset="0.6703" stop-color="#4279BD"/>
<stop offset="1" stop-color="#2959A2"/>
</linearGradient>
<linearGradient id="paint1_linear" x1="165.684" y1="195.529" x2="140.796" y2="247.324" gradientUnits="userSpaceOnUse">
<stop stop-color="#002D6A"/>
<stop offset="0.0676961" stop-color="#093777"/>
<stop offset="0.2248" stop-color="#1B4A8F"/>
<stop offset="0.3706" stop-color="#26559D"/>
<stop offset="0.4931" stop-color="#2A59A2"/>
<stop offset="0.6213" stop-color="#27559D"/>
<stop offset="0.7662" stop-color="#1C4B90"/>
<stop offset="0.9187" stop-color="#0B3979"/>
<stop offset="1" stop-color="#002D6A"/>
</linearGradient>
<linearGradient id="paint2_linear" x1="206.199" y1="213.048" x2="151.42" y2="213.048" gradientUnits="userSpaceOnUse">
<stop stop-color="#8EC4EE"/>
<stop offset="0.3018" stop-color="#6DABD9"/>
<stop offset="0.387" stop-color="#63A3D3"/>
<stop offset="1" stop-color="#6381B3"/>
</linearGradient>
<linearGradient id="paint3_linear" x1="226.889" y1="126.109" x2="177.188" y2="207.94" gradientUnits="userSpaceOnUse">
<stop stop-color="#4279BD"/>
<stop offset="0.3627" stop-color="#2A59A2"/>
<stop offset="0.3728" stop-color="#2958A1"/>
<stop offset="0.6269" stop-color="#134083"/>
<stop offset="0.8448" stop-color="#053271"/>
<stop offset="1" stop-color="#002D6A"/>
</linearGradient>
<linearGradient id="paint4_linear" x1="196.995" y1="246.254" x2="127.013" y2="246.254" gradientUnits="userSpaceOnUse">
<stop stop-color="#8EC4EE"/>
<stop offset="0.3018" stop-color="#6DABD9"/>
<stop offset="0.387" stop-color="#63A3D3"/>
<stop offset="1" stop-color="#6381B3"/>
</linearGradient>
<linearGradient id="paint5_linear" x1="197.984" y1="299.858" x2="106.121" y2="299.858" gradientUnits="userSpaceOnUse">
<stop stop-color="#2A59A2"/>
<stop offset="0.0158743" stop-color="#2958A1"/>
<stop offset="0.4145" stop-color="#134083"/>
<stop offset="0.7564" stop-color="#053271"/>
<stop offset="1" stop-color="#002D6A"/>
</linearGradient>
<linearGradient id="paint6_linear" x1="215.496" y1="310.9" x2="71.1054" y2="103.285" gradientUnits="userSpaceOnUse">
<stop offset="0.00603505" stop-color="#3B86DF"/>
<stop offset="1" stop-color="#7FCBFF"/>
</linearGradient>
<linearGradient id="paint7_linear" x1="205.384" y1="295.972" x2="63.0827" y2="91.3631" gradientUnits="userSpaceOnUse">
<stop offset="0.00603505" stop-color="#3B86DF"/>
<stop offset="0.9955" stop-color="#7FCBFF"/>
</linearGradient>
<linearGradient id="paint8_linear" x1="418.698" y1="53.5877" x2="356.126" y2="122.045" gradientUnits="userSpaceOnUse">
<stop stop-color="#CEEBFD"/>
<stop offset="0.0707893" stop-color="#BFE2FA"/>
<stop offset="0.2255" stop-color="#A4D2F3"/>
<stop offset="0.3628" stop-color="#94C8EF"/>
<stop offset="0.4676" stop-color="#8EC4EE"/>
<stop offset="0.8828" stop-color="#6DABD9"/>
<stop offset="1" stop-color="#63A3D3"/>
</linearGradient>
<linearGradient id="paint9_linear" x1="325.583" y1="255.968" x2="295.772" y2="315.867" gradientUnits="userSpaceOnUse">
<stop stop-color="#547AA5"/>
<stop offset="0.00498755" stop-color="#547BA6"/>
<stop offset="0.1895" stop-color="#5C91BF"/>
<stop offset="0.358" stop-color="#619ECE"/>
<stop offset="0.4948" stop-color="#63A3D3"/>
<stop offset="0.6356" stop-color="#619FCE"/>
<stop offset="0.8021" stop-color="#5D92C0"/>
<stop offset="0.981" stop-color="#557DA8"/>
<stop offset="1" stop-color="#547AA5"/>
</linearGradient>
<linearGradient id="paint10_linear" x1="343.032" y1="270.97" x2="338.824" y2="282.962" gradientUnits="userSpaceOnUse">
<stop stop-color="#2A7FB6"/>
<stop offset="0.315" stop-color="#236FA3"/>
<stop offset="0.7147" stop-color="#1C6091"/>
<stop offset="1" stop-color="#195B8A"/>
</linearGradient>
<linearGradient id="paint11_linear" x1="393.907" y1="150.422" x2="333.283" y2="281.039" gradientUnits="userSpaceOnUse">
<stop stop-color="#8EC4EE"/>
<stop offset="0.3018" stop-color="#6DABD9"/>
<stop offset="0.387" stop-color="#63A3D3"/>
<stop offset="1" stop-color="#6381B3"/>
</linearGradient>
<linearGradient id="paint12_linear" x1="318.424" y1="322.862" x2="325.063" y2="310.38" gradientUnits="userSpaceOnUse">
<stop stop-color="#2A7FB6"/>
<stop offset="0.315" stop-color="#236FA3"/>
<stop offset="0.7147" stop-color="#1C6091"/>
<stop offset="1" stop-color="#195B8A"/>
</linearGradient>
<linearGradient id="paint13_linear" x1="361.692" y1="340.334" x2="177.124" y2="83.7952" gradientUnits="userSpaceOnUse">
<stop offset="0.0185599" stop-color="#96CDF9"/>
<stop offset="1" stop-color="white"/>
</linearGradient>
<linearGradient id="paint14_linear" x1="360.863" y1="338.79" x2="178.26" y2="84.9826" gradientUnits="userSpaceOnUse">
<stop offset="0.0185599" stop-color="#96CDF9"/>
<stop offset="0.9945" stop-color="#E6F8FF"/>
</linearGradient>
<linearGradient id="paint15_linear" x1="357.923" y1="376.328" x2="270.654" y2="376.328" gradientUnits="userSpaceOnUse">
<stop stop-color="#8EC4EE"/>
<stop offset="0.3018" stop-color="#6DABD9"/>
<stop offset="0.387" stop-color="#63A3D3"/>
<stop offset="1" stop-color="#6381B3"/>
</linearGradient>
<linearGradient id="paint16_linear" x1="562.478" y1="155.952" x2="500.797" y2="204.202" gradientUnits="userSpaceOnUse">
<stop stop-color="#7FDDFF"/>
<stop offset="0.0326163" stop-color="#79D6FA"/>
<stop offset="0.1832" stop-color="#5FBBE5"/>
<stop offset="0.3168" stop-color="#4FABD8"/>
<stop offset="0.4188" stop-color="#4AA5D4"/>
<stop offset="0.5465" stop-color="#449DD0"/>
<stop offset="0.7418" stop-color="#3588C4"/>
<stop offset="0.9795" stop-color="#1B65B0"/>
<stop offset="1" stop-color="#1962AE"/>
</linearGradient>
<linearGradient id="paint17_linear" x1="512.015" y1="412.682" x2="354.806" y2="210.308" gradientUnits="userSpaceOnUse">
<stop stop-color="#43A6F5"/>
<stop offset="1" stop-color="#8EE6FF"/>
</linearGradient>
<linearGradient id="paint18_linear" x1="511.201" y1="411.288" x2="355.675" y2="211.08" gradientUnits="userSpaceOnUse">
<stop offset="0.0145503" stop-color="#43A6F5"/>
<stop offset="0.999" stop-color="#7FDDFF"/>
</linearGradient>
<linearGradient id="paint19_linear" x1="555.21" y1="253.233" x2="432.413" y2="474.54" gradientUnits="userSpaceOnUse">
<stop stop-color="#2A7FB6"/>
<stop offset="0.00409168" stop-color="#2A7FB6"/>
<stop offset="0.4075" stop-color="#2161A6"/>
<stop offset="0.7535" stop-color="#1B4F9C"/>
<stop offset="1" stop-color="#194898"/>
</linearGradient>
<clipPath id="clip0">
<rect width="566" height="524" fill="white" transform="matrix(-1 0 0 1 566 0)"/>
</clipPath>
</defs>
</svg>
