<svg width="80" height="10" viewBox="0 0 80 10" fill="none" xmlns="http://www.w3.org/2000/svg">
<path d="M1.27148 9H0.146484L3.70312 0.621094H4.9043L8.47852 9H7.27734L6.19336 6.36328H3.42188L3.7207 5.48438H5.83008L4.26562 1.6875L1.27148 9ZM14.1328 8.82422C13.625 8.94141 13.0781 9 12.4922 9C10.3047 9 9.21094 7.93555 9.21094 5.80664C9.21094 3.83398 10.3047 2.84766 12.4922 2.84766C13.0781 2.84766 13.625 2.90625 14.1328 3.02344V3.90234C13.625 3.78516 13.0586 3.72656 12.4336 3.72656C11.0078 3.72656 10.2949 4.41992 10.2949 5.80664C10.2949 7.34961 11.0078 8.12109 12.4336 8.12109C13.0586 8.12109 13.625 8.0625 14.1328 7.94531V8.82422ZM15.5156 9V2.84766H16.248L16.4414 3.63281C17.0703 3.10938 17.7617 2.84766 18.5156 2.84766C20.0508 2.84766 20.8184 3.61133 20.8184 5.13867V9H19.7344V5.12109C19.7344 4.20703 19.2793 3.75 18.3691 3.75C17.748 3.75 17.1582 4.00977 16.5996 4.5293V9H15.5156ZM23.373 5.90039C23.373 7.38086 23.9883 8.12109 25.2188 8.12109C26.4492 8.12109 27.0645 7.38086 27.0645 5.90039C27.0645 4.45117 26.4492 3.72656 25.2188 3.72656C23.9883 3.72656 23.373 4.45117 23.373 5.90039ZM22.2891 5.92383C22.2891 3.87305 23.2656 2.84766 25.2188 2.84766C27.1719 2.84766 28.1484 3.87305 28.1484 5.92383C28.1484 7.9707 27.1719 8.99414 25.2188 8.99414C23.2734 8.99414 22.2969 7.9707 22.2891 5.92383ZM33.7441 4.10156C33.3066 3.89062 32.8066 3.78516 32.2441 3.78516C31.0059 3.78516 30.3867 4.44336 30.3867 5.75977C30.3867 7.31836 31.0059 8.09766 32.2441 8.09766C32.8066 8.09766 33.3066 8.02148 33.7441 7.86914V4.10156ZM34.8281 8.63086C34.082 8.87695 33.1621 9 32.0684 9C30.2363 9 29.3203 7.93359 29.3203 5.80078C29.3203 3.83203 30.293 2.84766 32.2383 2.84766C32.7695 2.84766 33.2715 2.94531 33.7441 3.14062V0.621094H34.8281V8.63086ZM39.123 2.84766C40.873 2.84766 41.748 3.71289 41.748 5.44336C41.748 5.68945 41.7305 5.95312 41.6953 6.23438H37.377C37.377 7.49219 38.1113 8.12109 39.5801 8.12109C40.2793 8.12109 40.9004 8.04297 41.4434 7.88672V8.76562C40.9004 8.92188 40.2402 9 39.4629 9C37.3496 9 36.293 7.95117 36.293 5.85352C36.293 3.84961 37.2363 2.84766 39.123 2.84766ZM37.377 5.33203H40.7051C40.6816 4.25391 40.1543 3.71484 39.123 3.71484C38.0293 3.71484 37.4473 4.25391 37.377 5.33203ZM52.582 8.67188C51.9062 8.92969 51.1777 9.05859 50.3965 9.05859C47.3613 9.05859 45.8438 7.60352 45.8438 4.69336C45.8438 1.93945 47.3086 0.5625 50.2383 0.5625C51.0781 0.5625 51.8594 0.679688 52.582 0.914062V1.85156C51.8594 1.57812 51.1172 1.44141 50.3555 1.44141C48.0703 1.44141 46.9277 2.52539 46.9277 4.69336C46.9277 7.01758 48.0527 8.17969 50.3027 8.17969C50.6621 8.17969 51.0605 8.13281 51.498 8.03906V5.19141H52.582V8.67188ZM55.4004 0.621094V9H54.3164V0.621094H55.4004ZM58.0137 5.90039C58.0137 7.38086 58.6289 8.12109 59.8594 8.12109C61.0898 8.12109 61.7051 7.38086 61.7051 5.90039C61.7051 4.45117 61.0898 3.72656 59.8594 3.72656C58.6289 3.72656 58.0137 4.45117 58.0137 5.90039ZM56.9297 5.92383C56.9297 3.87305 57.9062 2.84766 59.8594 2.84766C61.8125 2.84766 62.7891 3.87305 62.7891 5.92383C62.7891 7.9707 61.8125 8.99414 59.8594 8.99414C57.9141 8.99414 56.9375 7.9707 56.9297 5.92383ZM65.3379 7.92773C65.6934 8.04102 66.125 8.09766 66.6328 8.09766C68 8.09766 68.6836 7.31836 68.6836 5.75977C68.6836 4.44336 68.0645 3.78516 66.8262 3.78516C66.2637 3.78516 65.7676 3.89062 65.3379 4.10156V7.92773ZM64.2539 0.621094H65.3379V3.14062C65.8027 2.94531 66.3008 2.84766 66.832 2.84766C68.7773 2.84766 69.75 3.83203 69.75 5.80078C69.75 7.93359 68.7285 9 66.6855 9C65.8027 9 64.9922 8.91602 64.2539 8.74805V0.621094ZM70.9219 7.14258C70.9219 5.88086 71.7539 5.25 73.418 5.25C73.9531 5.25 74.4883 5.28906 75.0234 5.36719V4.78711C75.0234 4.08008 74.4707 3.72656 73.3652 3.72656C72.7324 3.72656 72.084 3.82422 71.4199 4.01953V3.14062C72.084 2.94531 72.7324 2.84766 73.3652 2.84766C75.1934 2.84766 76.1074 3.48438 76.1074 4.75781V9H75.498L75.123 8.39062C74.5098 8.79688 73.8418 9 73.1191 9C71.6543 9 70.9219 8.38086 70.9219 7.14258ZM73.418 6.12891C72.4766 6.12891 72.0059 6.46094 72.0059 7.125C72.0059 7.78906 72.377 8.12109 73.1191 8.12109C73.8691 8.12109 74.5039 7.92188 75.0234 7.52344V6.24609C74.4883 6.16797 73.9531 6.12891 73.418 6.12891ZM79.0137 0.621094V9H77.9297V0.621094H79.0137Z" fill="#B7B7B7"/>
</svg>
