<svg width="731" height="458" viewBox="0 0 731 458" fill="none" xmlns="http://www.w3.org/2000/svg">
<g opacity="0.1">
<path opacity="0.1" d="M515.662 286.176C536.66 286.77 557.461 291.13 574.696 299.256V288.752C557.461 280.627 536.66 276.267 515.662 275.672L421.761 276.267V286.77L515.662 286.176Z" fill="url(#paint0_linear)"/>
<path opacity="0.1" d="M319.342 170.041L319.54 161.122C317.757 148.241 308.842 135.755 292.598 125.45V135.953C308.248 145.664 317.162 157.753 319.342 170.041Z" fill="url(#paint1_linear)"/>
<path opacity="0.1" d="M584.997 304.805C600.647 314.516 609.562 326.803 611.345 339.09C613.92 323.236 605.006 306.787 584.997 294.103V304.805Z" fill="url(#paint2_linear)"/>
<path opacity="0.1" d="M708.218 350.189V339.685C706.237 363.071 691.974 386.06 665.428 405.283V415.787C692.172 396.563 706.435 373.574 708.218 350.189Z" fill="url(#paint3_linear)"/>
<path opacity="0.1" d="M282.691 130.602V120.099C249.212 104.046 202.064 102.064 166.009 114.55V124.855C202.064 112.568 249.212 114.351 282.691 130.602Z" fill="url(#paint4_linear)"/>
<path opacity="0.1" d="M708.217 359.305V369.809C708.217 370.007 708.217 370.007 708.217 370.205C708.613 366.44 708.613 362.872 708.217 359.305Z" fill="url(#paint5_linear)"/>
<path opacity="0.1" d="M372.234 413.805C337.764 393.987 318.746 368.421 314.982 342.46V352.963C318.746 378.925 337.764 404.491 372.234 424.309C376.592 426.885 381.347 429.264 386.101 431.642V421.138C381.347 418.76 376.791 416.382 372.234 413.805Z" fill="url(#paint6_linear)"/>
<path opacity="0.1" d="M396.008 425.498V436.002C473.268 468.504 582.027 464.738 651.164 424.903C653.146 423.714 655.127 422.525 657.108 421.336V410.833C655.127 412.022 653.344 413.211 651.164 414.4C582.027 454.235 473.268 458 396.008 425.498Z" fill="url(#paint7_linear)"/>
<path opacity="0.1" d="M146.793 133.575C148.576 132.584 150.557 131.395 152.538 130.602V120.099C150.557 121.09 148.576 122.08 146.793 123.071C125.2 135.557 115.691 152.402 118.266 169.05C120.445 155.97 129.954 143.286 146.793 133.575Z" fill="url(#paint8_linear)"/>
<path opacity="0.1" d="M21.3944 160.528L21.1963 160.33V170.833L21.3944 171.032C20.4039 196.795 34.2711 222.955 63.1941 244.359V233.855C34.2711 212.452 20.4039 186.292 21.3944 160.528Z" fill="url(#paint9_linear)"/>
<path opacity="0.1" d="M79.8347 244.954C76.8631 243.17 73.8916 241.386 71.1182 239.603V250.106C73.8916 251.89 76.665 253.674 79.8347 255.457C124.012 281.023 184.037 292.121 241.487 288.752L305.672 287.959V277.456L241.487 278.248C184.037 281.617 124.21 270.519 79.8347 244.954Z" fill="url(#paint10_linear)"/>
</g>
<path d="M166.01 80.0658L93.9004 79.8676V110.586L166.01 110.784C202.065 98.2986 249.213 100.28 282.891 116.531L282.693 85.8131C249.213 69.5621 202.065 67.5803 166.01 80.0658Z" fill="url(#paint11_linear)"/>
<path d="M166.01 80.0658L93.9004 79.8676V110.586L166.01 110.784V80.0658Z" fill="url(#paint12_linear)"/>
<path d="M287.646 47.762C286.457 47.762 285.071 47.9602 284.278 48.5548C283.288 49.1493 282.892 49.7438 282.892 50.5366L283.09 80.6603C283.288 80.264 283.684 79.6694 284.278 79.4712C285.269 78.8767 286.457 78.6785 287.646 78.6785L354.407 78.8767V47.9602L287.646 47.762Z" fill="url(#paint13_linear)"/>
<path d="M390.857 343.649C389.668 343.649 388.282 343.847 387.489 344.441C386.499 345.036 386.103 345.63 386.103 346.423L386.301 376.547C386.499 376.151 386.895 375.556 387.489 375.358C388.48 374.763 389.668 374.565 390.857 374.565L447.515 374.763V344.045L390.857 343.649Z" fill="url(#paint14_linear)"/>
<path d="M708.219 305.201C706.238 328.587 691.975 351.576 665.429 370.8L597.479 370.601V360.098L597.281 360.296L597.479 401.32L665.429 401.518C696.333 379.321 710.596 351.972 708.219 324.821V305.201Z" fill="url(#paint15_linear)"/>
<path d="M597.478 370.8V401.518H665.428V370.998C665.428 370.8 597.082 370.8 597.478 370.8Z" fill="url(#paint16_linear)"/>
<path d="M152.736 85.6149C150.755 86.6058 148.774 87.5967 146.991 88.5876C120.841 103.649 112.323 125.251 121.436 144.673C125.794 135.359 134.312 126.639 146.793 119.306C148.576 118.315 150.557 117.126 152.538 116.333L152.736 85.6149Z" fill="url(#paint17_linear)"/>
<path d="M136.888 199.768L63.1941 199.57C34.2711 177.968 20.2058 152.006 21.3944 126.242L21.1963 126.044V161.915H21.3944C22.1868 186.093 36.2521 210.272 63.1941 230.288L136.888 230.486V199.768Z" fill="url(#paint18_linear)"/>
<path d="M136.889 199.768H136.691L63.1943 199.57V230.288L136.889 230.486V199.768Z" fill="url(#paint19_linear)"/>
<path opacity="0.9" d="M319.54 126.639C317.757 113.757 308.842 101.271 292.598 90.9658V121.684C307.059 130.8 315.776 141.899 318.747 153.195L319.54 126.639Z" fill="url(#paint20_linear)"/>
<path opacity="0.9" d="M372.236 379.52C337.766 359.701 318.748 334.136 314.984 308.174L314.191 331.559C315.182 360.098 334.398 388.438 372.236 410.238C376.792 412.814 381.348 415.193 386.301 417.571L386.103 386.852C381.348 384.474 376.792 382.096 372.236 379.52Z" fill="url(#paint21_linear)"/>
<path d="M651.363 379.916C582.225 419.949 473.466 423.516 396.206 391.014V421.733C473.466 454.235 582.225 450.469 651.363 410.634C653.344 409.445 655.325 408.256 657.306 407.067V376.349C655.127 377.538 653.344 378.727 651.363 379.916Z" fill="url(#paint22_linear)"/>
<path d="M307.654 217.803V187.084L305.673 243.17V273.888L307.654 217.803Z" fill="url(#paint23_linear)"/>
<path d="M305.673 243.17L241.488 243.963C184.038 247.332 124.211 236.234 79.8357 210.668C76.8641 208.884 73.8926 207.101 71.1191 205.317V235.837C73.8926 237.621 76.666 239.405 79.8357 241.188C124.013 266.754 184.038 277.852 241.488 274.483L305.673 273.69V243.17Z" fill="url(#paint24_linear)"/>
<path opacity="0.95" d="M93.9012 79.8676L166.011 80.0658C202.065 67.5803 249.214 69.5621 282.891 85.8131L282.693 50.7347C282.693 49.942 283.288 49.3475 284.08 48.7529C285.071 48.1584 286.259 47.9602 287.448 47.9602L354.208 48.1584C281.505 7.92729 169.577 5.5491 93.7031 41.0238L93.9012 79.8676Z" fill="url(#paint25_linear)"/>
<path opacity="0.95" d="M136.89 199.768L136.692 163.302C108.759 140.313 111.929 108.802 146.795 88.5876C148.578 87.5967 150.559 86.4076 152.54 85.6149L89.1469 85.4167C87.7602 85.4167 86.5715 85.0203 85.7791 84.624C84.9867 84.0294 84.3924 83.4349 84.3924 82.6422L84.1943 45.7802C82.2133 46.7711 80.2323 47.762 78.4493 48.9511C7.52846 89.7767 2.77399 154.582 63.1954 199.57L136.89 199.768Z" fill="url(#paint26_linear)"/>
<path opacity="0.95" d="M307.654 187.084L212.961 188.273L212.763 188.472C189.189 187.481 166.011 181.733 147.983 171.23C147.389 170.833 146.795 170.635 146.398 170.239L146.597 202.543C146.597 204.128 144.417 205.317 141.842 205.317L71.3174 205.119C74.0908 206.903 76.8643 208.686 80.0339 210.47C124.211 236.035 184.236 247.134 241.686 243.765L305.871 242.972L307.654 187.084Z" fill="url(#paint27_linear)"/>
<path opacity="0.95" d="M640.27 213.443C604.413 195.408 559.84 186.093 515.068 185.301L423.941 185.895L421.96 241.783L515.663 241.188C536.662 241.783 557.462 246.143 574.697 254.268L640.468 254.466L640.27 213.443Z" fill="url(#paint28_linear)"/>
<path d="M574.697 254.268C557.462 246.143 536.662 241.783 515.663 241.188L421.96 241.783V272.501L515.663 271.907C536.662 272.501 557.462 276.861 574.697 284.987L640.468 285.185L640.27 254.466L574.697 254.268Z" fill="url(#paint29_linear)"/>
<path d="M574.696 284.987L640.466 285.185L640.268 254.466L574.696 254.268V284.987Z" fill="url(#paint30_linear)"/>
<path opacity="0.95" d="M650.174 257.241C650.174 258.034 649.58 258.628 648.787 259.223C647.797 259.817 646.608 260.016 645.419 260.016L584.998 259.817C616.1 279.239 620.26 307.976 597.28 329.578L597.479 370.601L665.428 370.8C727.632 326.209 722.482 260.412 650.372 218.794C650.174 218.794 649.976 218.595 649.976 218.595L650.174 257.241Z" fill="url(#paint31_linear)"/>
<path d="M608.176 314.912C608.176 314.714 608.374 314.714 608.374 314.516C617.091 295.887 609.167 275.077 584.998 259.817V290.536C596.29 297.67 604.016 305.994 608.176 314.912Z" fill="url(#paint32_linear)"/>
<path opacity="0.95" d="M386.301 386.852L386.103 346.423C386.103 345.63 386.697 345.036 387.49 344.441C388.48 343.847 389.669 343.649 390.857 343.649L447.515 343.847C445.138 342.658 442.76 341.469 440.383 340.081C421.96 329.379 412.054 315.705 410.866 301.634C410.866 301.634 416.809 129.017 415.818 121.882C412.253 97.1094 394.82 72.9312 363.717 53.5093L292.202 53.3111L292.4 90.9658C308.645 101.073 317.559 113.757 319.342 126.639L313.993 300.643C314.984 329.181 334.2 357.521 372.038 379.321C376.792 382.096 381.547 384.474 386.301 386.852Z" fill="url(#paint33_linear)"/>
<path opacity="0.95" d="M592.724 376.349C591.337 376.349 590.149 375.952 589.356 375.556C588.564 374.961 587.97 374.367 587.97 373.574L587.771 337.307C586.187 338.298 584.602 339.487 582.819 340.478C550.132 359.305 500.21 362.278 461.778 349.594L396.008 349.396L396.206 391.212C473.466 423.714 582.225 419.949 651.362 380.114C653.343 378.925 655.325 377.736 657.306 376.547L592.724 376.349Z" fill="url(#paint34_linear)"/>
<g opacity="0.9">
<path opacity="0.95" d="M118.07 128.819C118.466 114.351 127.975 100.082 146.993 88.984C148.776 87.9931 150.757 86.804 152.738 86.0112H148.974C148.38 86.4076 147.588 86.804 146.993 87.0021C126.985 98.4967 117.476 113.559 118.07 128.819Z" fill="white"/>
<path opacity="0.95" d="M284.079 48.9511C285.07 48.3565 286.258 48.1583 287.447 48.1583L354.208 48.3565C353.019 47.762 351.632 46.9692 350.444 46.3747L287.447 46.1765C286.258 46.1765 284.872 46.3747 284.079 46.9692C283.089 47.5638 282.692 48.1583 282.692 48.9511V50.9329C282.692 50.1402 283.287 49.5456 284.079 48.9511Z" fill="white"/>
<path opacity="0.95" d="M146.596 200.957L146.397 170.437L146.596 200.957Z" fill="url(#paint35_radial)"/>
<path opacity="0.95" d="M611.742 298.859C612.138 285.185 604.214 271.51 587.97 260.412H584.998C602.431 271.114 611.346 284.987 611.742 298.859Z" fill="white"/>
<path opacity="0.95" d="M292.598 91.3622C308.645 101.469 317.758 113.955 319.54 126.639V125.053C317.758 112.171 308.843 99.6858 292.598 89.3803L292.4 53.7075L292.598 91.3622Z" fill="white"/>
<path opacity="0.95" d="M650.174 255.656L649.976 218.992L650.174 255.656Z" fill="url(#paint36_radial)"/>
<path opacity="0.95" d="M574.697 254.665L640.468 254.863V252.881L574.697 252.683C557.462 244.557 536.662 240.197 515.663 239.603L421.96 240.197V242.179L515.663 241.585C536.662 242.179 557.462 246.539 574.697 254.665Z" fill="white"/>
<path opacity="0.95" d="M651.362 378.331C582.225 418.363 473.466 421.931 396.206 389.429L396.008 349.594L396.206 391.411C473.466 423.913 582.225 420.147 651.362 380.312C653.343 379.123 655.325 377.934 657.306 376.745H654.136C653.145 377.34 652.155 377.934 651.362 378.331Z" fill="white"/>
<path opacity="0.95" d="M166.011 80.4621C202.065 67.9766 249.214 69.9584 282.891 86.2094V84.2276C249.412 67.9766 202.065 65.9948 166.011 78.4803L93.9012 78.2821L93.7031 41.4201L93.9012 80.2639L166.011 80.4621Z" fill="white"/>
<path d="M665.429 369.214L597.479 369.016L597.281 329.974L597.479 370.998L665.429 371.196C694.748 350.189 709.011 324.425 708.417 298.661C708.417 323.632 693.956 348.801 665.429 369.214Z" fill="white"/>
<path opacity="0.95" d="M443.552 342.261H390.857C389.668 342.261 388.282 342.46 387.489 343.054C386.499 343.649 386.103 344.243 386.103 345.036V347.018C386.103 346.225 386.697 345.63 387.489 345.036C388.48 344.441 389.668 344.243 390.857 344.243L447.515 344.441C446.128 343.45 444.939 342.856 443.552 342.261Z" fill="white"/>
<path d="M136.889 198.183L63.1948 197.984C35.4604 177.373 21.3951 152.402 21.197 127.63C20.6027 153.195 34.4699 178.761 63.1948 199.966L136.889 200.164V198.183Z" fill="white"/>
<path opacity="0.95" d="M372.236 377.934C334.794 356.332 315.38 328.19 314.191 299.652V301.039C315.182 329.578 334.398 357.918 372.236 379.718C376.792 382.294 381.348 384.672 386.301 387.051V385.069C381.546 382.889 376.792 380.511 372.236 377.934Z" fill="white"/>
<path opacity="0.95" d="M305.673 241.585L241.488 242.377C184.038 245.746 124.211 234.648 79.8357 209.083C77.8546 207.894 76.0717 206.903 74.2888 205.714H71.1191C73.8926 207.497 76.666 209.281 79.8357 211.064C124.013 236.63 184.038 247.728 241.488 244.359L305.673 243.566L307.654 187.679L305.673 241.585Z" fill="white"/>
</g>
<path d="M176.708 41.6184C177.302 41.4202 177.897 41.222 178.689 41.0238C179.481 40.8256 180.076 40.8256 180.868 40.6274C181.661 40.4293 182.453 40.4293 183.444 40.4293C184.236 40.4293 185.028 40.4293 185.821 40.6274C186.613 40.8256 187.207 41.222 187.802 41.6184C188.396 42.0147 188.792 42.6093 189.188 43.402C189.585 44.1947 189.585 44.7893 189.387 45.3838C189.188 45.9784 188.792 46.3747 188.396 46.7711C187.802 47.1675 187.207 47.5638 186.613 47.762C185.821 47.9602 185.028 48.1584 184.236 48.3566C184.236 48.3566 184.038 48.3566 183.84 48.3566C183.642 48.3566 183.444 48.3566 183.245 48.3566C183.047 48.3566 182.849 48.3566 182.651 48.3566C182.453 48.3566 182.255 48.3566 182.255 48.3566L184.236 53.1129L181.859 53.5093L176.708 41.6184ZM181.462 42.0147C181.066 42.0147 180.67 42.2129 180.274 42.2129C179.878 42.2129 179.68 42.4111 179.481 42.4111L181.661 47.762C181.661 47.762 181.859 47.762 182.057 47.762C182.255 47.762 182.453 47.762 182.651 47.762C182.849 47.762 183.047 47.762 183.245 47.762C183.444 47.762 183.642 47.762 183.642 47.762C184.236 47.762 184.83 47.5638 185.226 47.3656C185.821 47.1675 186.217 46.9693 186.415 46.7711C186.811 46.5729 187.009 46.1766 187.009 45.7802C187.207 45.3838 187.009 44.7893 186.811 44.3929C186.613 43.7984 186.415 43.402 186.019 43.2038C185.623 43.0056 185.226 42.6093 184.83 42.6093C184.434 42.4111 183.84 42.4111 183.245 42.4111C182.651 41.8165 182.057 41.8165 181.462 42.0147Z" fill="white"/>
<path d="M206.028 51.3293L195.528 52.122L192.358 39.6365L194.736 39.4383L197.509 50.7347L205.829 50.1402L206.028 51.3293Z" fill="white"/>
<path d="M216.329 47.3656L209.989 47.5638L208.405 51.1311H206.027L211.772 38.0511H213.159L220.885 50.7347H218.31L216.329 47.3656ZM210.584 46.3747L215.734 46.1765L213.555 42.2129L212.763 40.2311L212.367 42.2129L210.584 46.3747Z" fill="white"/>
<path d="M226.828 43.0056L225.639 41.0238L225.837 43.0056L224.847 51.1311H222.47L223.856 38.2492H225.243L232.573 46.7711L233.563 48.7529H233.762L233.563 46.7711L234.554 38.6456H236.931L235.545 51.5275H234.158L226.828 43.0056Z" fill="white"/>
<path d="M63.7898 145.07C64.3841 145.07 64.7803 145.07 65.3746 145.07C65.9689 145.07 66.5632 145.07 66.9594 145.268C67.5537 145.466 67.9499 145.466 68.3461 145.664C68.7423 145.862 69.1385 146.061 69.3367 146.457H69.5348C69.5348 146.259 69.7329 145.862 69.7329 145.664C69.931 145.466 70.1291 145.07 70.5253 144.871C70.9215 144.673 71.3177 144.475 71.912 144.277C72.5063 144.079 73.2987 143.881 74.0911 143.881C75.2797 143.682 76.2703 143.881 77.0627 143.881C77.8551 144.079 78.6475 144.277 79.2418 144.475C79.8361 144.871 80.4304 145.07 80.8266 145.664C81.2228 146.061 81.4209 146.655 81.619 147.051C81.619 147.25 81.8171 147.448 81.8171 147.646C81.8171 147.844 82.0152 148.042 82.0152 148.439C82.0152 148.637 82.0152 149.033 82.0152 149.232C82.0152 149.43 82.0152 149.628 82.0152 149.826L60.6201 151.808C60.422 151.412 60.2239 151.015 60.0258 150.619C59.8277 150.222 59.6296 149.628 59.4315 149.033C59.2334 148.637 59.2334 148.241 59.2334 147.844C59.2334 147.448 59.4315 147.051 59.6296 146.655C59.8277 146.259 60.422 146.061 61.0163 145.664C61.8087 145.268 62.6012 145.07 63.7898 145.07ZM69.5348 148.637C69.5348 148.439 69.3367 148.241 69.3367 148.042C69.3367 147.844 69.1386 147.646 69.1386 147.448C68.7423 147.051 68.148 146.655 67.3556 146.457C66.5632 146.259 65.5727 146.061 64.5822 146.259C63.9879 146.259 63.3936 146.457 62.9974 146.655C62.6011 146.853 62.2049 147.051 62.0068 147.25C61.8087 147.448 61.6106 147.646 61.6106 148.042C61.6106 148.241 61.6106 148.637 61.6106 148.835C61.6106 149.231 61.8087 149.43 61.8087 149.628C62.0068 149.826 62.0068 150.024 62.0068 150.222L69.5348 149.43V148.637ZM79.638 147.051C79.638 146.655 79.4399 146.457 79.0437 146.259C78.8456 146.061 78.4494 145.862 78.0532 145.664C77.657 145.466 77.2608 145.268 76.6665 145.268C76.0722 145.268 75.4778 145.268 74.8835 145.268C74.0911 145.268 73.2987 145.466 72.9025 145.664C72.5063 145.862 72.1101 146.061 71.912 146.457C71.7139 146.655 71.5158 147.051 71.5158 147.25C71.5158 147.646 71.5158 147.844 71.7139 148.241L72.1101 149.43L80.0342 148.637V148.439C80.0342 148.241 80.0342 148.241 80.0342 148.042C80.0342 147.844 80.0342 147.844 80.0342 147.646C79.638 147.25 79.638 147.051 79.638 147.051Z" fill="white"/>
<path d="M57.4502 135.359V134.17L72.3079 133.773C74.8833 133.773 76.8643 133.971 78.251 134.566C79.4396 135.161 80.232 135.953 80.232 137.142C80.4301 138.331 79.8358 139.322 78.6472 139.917C77.4586 140.313 75.6757 140.71 73.2984 140.71L58.0445 141.106L57.8464 139.719L71.9117 139.322C73.1003 139.322 74.0908 139.124 74.6852 139.124C75.4776 138.926 76.0719 138.926 76.4681 138.728C76.8643 138.53 77.2605 138.331 77.4586 137.935C77.6567 137.737 77.6567 137.341 77.6567 136.944C77.6567 136.151 77.0624 135.557 76.0719 135.359C75.0814 135.161 73.4965 134.962 71.3174 134.962L57.4502 135.359Z" fill="white"/>
<path d="M57.6475 129.81V128.422L79.6369 129.017L79.4388 130.404L57.6475 129.81Z" fill="white"/>
<path d="M81.222 119.702L80.0334 125.846L58.0439 124.26L58.242 122.873L78.0524 124.26L79.0429 119.504L81.222 119.702Z" fill="white"/>
<path d="M60.4219 114.748C60.4219 114.55 60.4219 114.351 60.62 114.153C60.62 113.955 60.8181 113.757 60.8181 113.36C60.8181 113.162 61.0162 112.964 61.0162 112.568C61.0162 112.37 61.2143 112.171 61.2143 111.973C61.6105 111.18 62.2048 110.388 62.7991 109.991C63.5915 109.397 64.582 109 65.5726 108.802C66.7612 108.604 67.9498 108.406 69.3365 108.406C70.7232 108.406 72.3081 108.604 73.8929 108.802C75.2796 109 76.6663 109.199 78.0531 109.595C79.2417 109.991 80.4303 110.388 81.2227 110.784C82.0151 111.379 82.8075 111.973 83.0056 112.568C83.4018 113.36 83.4018 114.153 83.0056 114.946C83.0056 115.144 82.8075 115.342 82.8075 115.54C82.6094 115.739 82.6094 115.937 82.4113 116.333C82.2132 116.531 82.2132 116.73 82.0151 117.126C81.817 117.324 81.817 117.522 81.817 117.522L60.4219 114.748ZM63.3934 112.171C63.3934 112.37 63.1953 112.37 63.1953 112.568C63.1953 112.766 62.9972 112.766 62.9972 112.964C62.9972 113.162 62.9972 113.162 62.9972 113.36C62.9972 113.559 62.9972 113.559 62.9972 113.559L80.4303 115.937C80.4303 115.937 80.4303 115.739 80.6284 115.739C80.6284 115.54 80.8265 115.54 80.8265 115.342C80.8265 115.144 81.0246 115.144 81.0246 114.946C81.0246 114.748 81.2227 114.748 81.2227 114.748C81.4208 114.153 81.4208 113.559 81.2227 112.964C80.8265 112.37 80.4303 111.973 79.6379 111.577C78.8455 111.18 78.0531 110.982 77.0625 110.586C76.072 110.388 74.8834 110.19 73.6948 109.991C72.7043 109.793 71.5156 109.793 70.5251 109.793C69.5346 109.793 68.5441 109.793 67.5536 109.991C66.5631 110.19 65.7707 110.388 65.1764 110.784C64.1858 110.982 63.7896 111.577 63.3934 112.171Z" fill="white"/>
<path d="M672.561 289.545C672.561 289.743 672.759 289.941 672.759 290.139C672.759 290.338 672.957 290.536 672.957 290.932C672.957 291.328 672.957 291.328 673.155 291.725C673.155 291.923 673.155 292.121 673.155 292.319C673.155 293.112 673.155 293.905 672.561 294.698C672.164 295.292 671.372 295.887 670.382 296.283C669.391 296.679 668.401 297.076 667.014 297.274C665.627 297.472 664.24 297.67 662.457 297.67C660.873 297.67 659.486 297.67 658.099 297.67C656.712 297.472 655.524 297.274 654.335 296.878C653.146 296.481 652.354 296.085 651.562 295.49C650.769 294.896 650.373 294.103 650.373 293.112C650.373 292.914 650.373 292.716 650.373 292.518C650.373 292.319 650.373 291.923 650.373 291.725C650.373 291.527 650.373 291.13 650.373 290.932C650.373 290.734 650.373 290.536 650.373 290.338L672.561 289.545ZM670.778 292.319C670.778 292.121 670.778 292.121 670.778 291.923C670.778 291.725 670.778 291.725 670.778 291.527C670.778 291.328 670.778 291.328 670.58 291.13C670.58 290.932 670.58 290.932 670.58 290.932L652.552 291.527V291.725C652.552 291.923 652.552 291.923 652.552 292.121C652.552 292.319 652.552 292.319 652.552 292.518C652.552 292.716 652.552 292.716 652.552 292.716C652.552 293.31 652.948 293.905 653.543 294.301C654.137 294.698 654.731 295.094 655.722 295.292C656.514 295.49 657.703 295.688 658.693 295.688C659.882 295.688 661.071 295.688 662.259 295.688C663.448 295.688 664.438 295.49 665.429 295.49C666.419 295.292 667.41 295.094 668.202 294.896C668.995 294.698 669.589 294.301 670.183 293.707C670.778 293.112 670.976 293.112 670.778 292.319Z" fill="white"/>
<path d="M673.155 300.445L672.759 306.192H670.58L670.976 301.832L663.448 301.634L663.052 305.598H660.873L661.269 301.634L653.147 301.436L652.75 305.796H650.571L650.968 300.048L673.155 300.445Z" fill="white"/>
<path d="M671.966 309.759C671.966 310.156 672.164 310.552 671.966 310.948C671.966 311.345 671.768 311.741 671.768 312.336C671.57 312.732 671.372 313.327 671.174 313.723C670.777 314.119 670.381 314.516 669.787 314.912C669.193 315.308 668.4 315.507 667.41 315.705C666.419 315.903 665.429 315.903 664.042 315.705C662.655 315.507 661.665 315.309 660.872 315.11C660.08 314.714 659.288 314.516 658.891 314.119C658.495 313.723 658.099 313.327 657.901 312.732C657.703 312.138 657.703 311.741 657.901 311.147V310.948C657.901 310.75 657.901 310.75 658.099 310.552C658.099 310.354 658.099 310.354 658.297 310.156C658.297 309.958 658.297 309.958 658.495 309.958L650.175 309.165L650.571 307.778L671.966 309.759ZM669.589 312.336C669.589 312.138 669.787 311.939 669.787 311.543C669.787 311.345 669.787 311.147 669.787 310.948L660.476 310.156C660.476 310.156 660.476 310.354 660.278 310.354C660.278 310.552 660.278 310.552 660.08 310.75C660.08 310.949 660.08 310.948 660.08 311.147C660.08 311.345 660.08 311.345 660.08 311.345C660.08 311.741 660.08 311.939 660.08 312.336C660.08 312.732 660.278 312.93 660.674 313.327C661.07 313.525 661.467 313.921 662.061 314.119C662.655 314.318 663.448 314.516 664.438 314.516C665.231 314.516 666.023 314.516 666.617 314.516C667.212 314.516 667.806 314.318 668.202 314.119C668.598 313.921 668.995 313.723 669.193 313.327C669.391 312.93 669.589 312.534 669.589 312.336Z" fill="white"/>
<path d="M645.421 322.245L647.996 316.299L669.391 319.47L668.797 320.858L649.581 318.083L647.6 322.641L645.421 322.245Z" fill="white"/>
<path d="M655.722 324.623C659.287 325.416 661.665 326.209 663.051 327.199C664.438 328.19 664.834 329.379 663.844 330.767C663.448 331.559 662.853 332.154 661.863 332.55C661.07 332.947 660.08 333.145 658.891 333.343C657.703 333.541 656.514 333.541 655.127 333.343C653.741 333.145 652.156 332.947 650.571 332.55C647.005 331.758 644.628 330.965 643.241 329.974C641.854 328.983 641.458 327.794 642.449 326.407C642.845 325.614 643.439 325.218 644.43 324.821C645.222 324.425 646.213 324.227 647.401 324.029C648.59 323.83 649.779 323.83 651.165 324.029C652.552 324.029 654.137 324.227 655.722 324.623ZM654.929 326.01C653.741 325.812 652.552 325.614 651.561 325.416C650.373 325.218 649.382 325.218 648.59 325.218C647.599 325.218 646.807 325.416 646.213 325.614C645.618 325.812 645.024 326.209 644.826 326.605C644.232 327.398 644.628 328.19 645.816 328.983C647.005 329.776 648.986 330.37 651.958 330.965C653.146 331.163 654.137 331.361 655.325 331.559C656.514 331.758 657.504 331.758 658.297 331.758C659.287 331.758 660.08 331.559 660.674 331.361C661.268 331.163 661.863 330.767 662.061 330.37C662.655 329.578 662.259 328.785 661.07 327.992C659.882 327.199 657.703 326.605 654.929 326.01Z" fill="white"/>
<path d="M645.42 336.118L659.882 336.514L658.693 337.901L648.194 337.505L646.213 337.307L647.798 338.1L654.731 342.46L653.543 343.847L644.232 337.505L636.308 335.325L637.298 334.136L645.42 336.118Z" fill="white"/>
<path d="M552.51 382.889C553.303 385.069 553.303 386.654 552.708 387.843C551.916 389.032 550.331 389.825 547.954 390.222C546.567 390.42 545.577 390.42 544.388 390.222C543.397 390.023 542.407 389.627 541.614 389.231C540.822 388.834 540.228 388.042 539.633 387.447C539.039 386.654 538.643 385.862 538.247 384.871C537.454 382.691 537.454 381.105 538.049 379.916C538.841 378.727 540.426 377.934 542.803 377.538C543.992 377.34 545.18 377.34 546.171 377.538C547.161 377.736 548.152 378.132 548.944 378.529C549.737 378.925 550.331 379.718 550.925 380.312C551.718 380.907 552.114 381.898 552.51 382.889ZM550.133 383.087C549.935 382.294 549.539 381.7 549.142 381.105C548.746 380.511 548.152 379.916 547.756 379.52C547.161 379.123 546.567 378.727 545.775 378.529C544.982 378.331 544.19 378.331 543.397 378.331C541.813 378.529 540.822 379.123 540.426 380.114C540.03 381.105 540.03 382.492 540.822 384.276C541.02 384.871 541.416 385.663 541.813 386.258C542.209 386.852 542.803 387.447 543.199 387.843C543.794 388.24 544.388 388.636 545.18 388.834C545.973 389.032 546.765 389.032 547.558 389.032C549.142 388.834 550.133 388.24 550.529 387.249C550.925 386.258 550.727 384.871 550.133 383.087Z" fill="white"/>
<path d="M534.681 391.411C534.087 391.609 533.294 391.609 532.502 391.807C531.709 391.807 530.917 392.005 530.323 392.005C529.53 392.005 528.738 392.005 527.747 392.005C526.955 392.005 526.163 391.807 525.37 391.609C524.578 391.411 523.983 391.014 523.587 390.42C522.993 390.023 522.795 389.231 522.597 388.438C522.399 387.645 522.597 387.051 522.795 386.456C522.993 385.862 523.587 385.465 524.182 385.069C524.776 384.672 525.37 384.474 526.163 384.276C526.955 384.078 527.747 383.88 528.738 383.88C528.738 383.88 528.936 383.88 529.134 383.88C529.332 383.88 529.53 383.88 529.728 383.88C529.927 383.88 530.125 383.88 530.323 383.88C530.521 383.88 530.719 383.88 530.719 383.88L529.728 379.123L532.106 378.925L534.681 391.411ZM529.927 390.618C530.323 390.618 530.719 390.618 531.115 390.42C531.511 390.42 531.709 390.42 532.106 390.222L531.115 384.871C531.115 384.871 530.917 384.871 530.719 384.871C530.521 384.871 530.323 384.871 530.125 384.871C529.927 384.871 529.728 384.871 529.53 384.871C529.332 384.871 529.134 384.871 529.134 384.871C528.54 384.871 527.945 385.069 527.549 385.069C526.955 385.267 526.559 385.465 526.163 385.663C525.766 385.862 525.568 386.258 525.37 386.654C525.172 387.051 525.172 387.447 525.172 388.042C525.172 388.636 525.568 389.032 525.766 389.231C526.163 389.627 526.361 389.825 526.955 390.023C527.351 390.222 527.946 390.222 528.342 390.42C528.738 390.618 529.332 390.618 529.927 390.618Z" fill="white"/>
<path d="M517.842 392.402H507.937V391.212H515.465V386.852H508.532V385.663H515.465V380.907H507.739V379.718H517.842V392.402Z" fill="white"/>
<path d="M501.796 392.203C501.003 392.203 500.211 392.203 499.418 392.203C498.626 392.203 497.833 392.203 497.041 392.203C496.249 392.203 495.456 392.005 494.664 391.807C493.871 391.609 493.277 391.411 492.881 391.212C492.287 390.816 492.088 390.618 491.692 390.023C491.494 389.627 491.296 389.032 491.494 388.24C491.692 387.249 492.088 386.456 492.881 385.862C493.673 385.267 494.664 384.871 496.051 384.871L495.06 384.078L491.494 378.727L494.268 378.925L498.032 384.672L500.409 385.069L501.399 379.322L503.777 379.52L501.796 392.203ZM500.409 386.06L498.428 385.862C497.239 385.862 496.249 385.862 495.456 386.258C494.664 386.654 494.268 387.249 494.069 388.24C493.871 388.834 494.069 389.429 494.664 390.023C495.258 390.42 496.051 390.816 497.041 390.816C497.437 390.816 497.833 390.816 498.428 390.816C498.824 390.816 499.22 390.816 499.418 390.816L500.409 386.06Z" fill="white"/>
<path d="M479.608 381.105L485.75 381.898L488.721 378.529L491.098 378.727L480.203 390.618L479.014 390.42L476.835 376.943L479.212 377.142L479.608 381.105ZM484.759 382.889L479.807 382.294L480.401 386.456V388.438L481.589 386.654L484.759 382.889Z" fill="white"/>
<path d="M458.808 386.06L463.959 387.051L469.704 375.952L472.081 376.349L466.336 387.447L471.487 388.438L470.892 389.627L458.214 387.447L458.808 386.06Z" fill="white"/>
<path d="M453.657 386.258L444.544 384.078L445.336 382.889L452.27 384.474L455.043 380.511L448.704 378.925L449.497 377.736L455.836 379.321L459.005 374.961L451.874 373.376L452.666 372.187L461.977 374.367L453.657 386.258Z" fill="white"/>
<path d="M358.963 119.702C358.369 119.504 357.973 119.108 357.576 118.711C357.18 118.315 356.982 117.919 356.784 117.324C356.586 116.73 356.388 116.135 356.586 115.54C356.784 114.946 357.18 114.351 357.973 113.955C358.765 113.36 359.756 112.964 360.944 112.568C362.331 112.171 363.916 111.775 365.897 111.577C367.878 111.379 369.661 111.18 371.246 111.18C372.83 111.18 374.019 111.379 375.01 111.577C376 111.775 376.792 112.171 377.585 112.766C378.179 113.162 378.575 113.757 378.773 114.351C378.972 114.946 379.17 115.342 379.17 115.739C379.17 116.135 379.17 116.531 378.972 116.73H376.792C376.991 116.531 376.991 116.135 376.991 115.739C376.991 115.342 376.792 114.946 376.792 114.55C376.594 114.153 376.198 113.757 375.802 113.36C375.406 112.964 374.613 112.766 373.821 112.568C373.028 112.37 372.038 112.37 370.849 112.37C369.661 112.37 368.274 112.568 366.491 112.766C363.52 113.162 361.34 113.757 360.152 114.55C358.963 115.342 358.567 116.333 358.963 117.324C359.161 117.72 359.359 118.117 359.756 118.315C360.152 118.513 360.35 118.91 360.746 119.108L358.963 119.702Z" fill="white"/>
<path d="M369.86 121.288C373.623 121.09 376.397 121.09 378.576 121.684C380.557 122.279 381.746 123.27 382.142 124.657C382.34 125.45 382.142 126.044 381.746 126.639C381.349 127.233 380.755 127.63 379.765 128.026C378.774 128.422 377.784 128.819 376.397 129.017C375.01 129.215 373.425 129.413 371.841 129.611C368.077 129.81 365.303 129.81 363.124 129.215C361.143 128.62 359.954 127.63 359.558 126.242C359.36 125.45 359.558 124.855 359.954 124.26C360.351 123.666 360.945 123.27 361.935 122.873C362.926 122.477 363.916 122.08 365.303 121.882C366.69 121.684 368.077 121.486 369.86 121.288ZM370.256 122.675C369.067 122.675 367.879 122.873 366.69 123.071C365.699 123.27 364.709 123.468 363.916 123.666C363.124 123.864 362.53 124.26 362.134 124.657C361.737 125.053 361.539 125.45 361.737 126.044C361.935 127.035 362.926 127.63 364.511 128.026C366.096 128.422 368.473 128.422 371.642 128.224C372.831 128.224 374.02 128.026 375.01 127.828C376.001 127.63 376.991 127.431 377.784 127.233C378.576 127.035 379.17 126.639 379.567 126.242C379.963 125.846 380.161 125.45 379.963 124.855C379.765 123.864 378.972 123.27 377.189 122.873C375.604 122.675 373.227 122.477 370.256 122.675Z" fill="white"/>
<path d="M374.812 135.953L378.378 135.161L374.812 135.359L360.747 135.161V133.773L383.132 133.971V134.764L368.671 139.322L365.303 140.115L368.671 139.917L382.736 140.115V141.502L360.351 141.304V140.511L374.812 135.953Z" fill="white"/>
<path d="M380.161 152.601V149.43L360.351 149.231V147.844L380.161 148.042V144.871H382.34V152.601H380.161Z" fill="white"/>
<path d="M382.142 156.168V157.555L360.152 157.357V155.97L382.142 156.168Z" fill="white"/>
<path d="M373.821 163.897L377.387 163.104L373.821 163.302L359.756 163.104V161.717L382.141 161.915V162.708L367.68 167.266L364.312 168.059L367.68 167.861L381.745 168.059V169.446L359.359 169.248V168.455L373.821 163.897Z" fill="white"/>
<path d="M381.349 179.553V180.941L366.491 180.743C363.915 180.743 361.934 180.346 360.746 179.752C359.557 179.157 358.963 178.364 358.963 177.175C358.963 175.788 359.557 174.995 360.746 174.401C361.934 173.806 363.717 173.608 366.095 173.608L381.349 173.806V175.193L367.283 174.995C366.095 174.995 365.104 174.995 364.312 174.995C363.519 174.995 362.925 175.193 362.331 175.392C361.934 175.59 361.538 175.788 361.34 176.184C361.142 176.383 360.944 176.779 360.944 177.175C360.944 177.968 361.34 178.563 362.331 178.959C363.321 179.355 364.906 179.553 366.887 179.553H381.349Z" fill="white"/>
<path d="M370.256 184.508C374.02 184.508 376.793 184.904 378.774 185.697C380.755 186.49 381.547 187.481 381.547 188.868C381.547 189.661 381.151 190.255 380.755 190.85C380.161 191.444 379.368 191.841 378.378 192.039C377.387 192.435 376.199 192.633 374.812 192.832C373.425 193.03 371.84 193.03 370.057 193.03C366.294 193.03 363.52 192.633 361.539 191.841C359.558 191.048 358.766 190.057 358.766 188.67C358.766 187.877 359.162 187.283 359.558 186.688C360.152 186.093 360.945 185.697 361.935 185.301C362.926 184.904 364.114 184.706 365.501 184.508C366.888 184.706 368.473 184.508 370.256 184.508ZM370.057 186.093C368.869 186.093 367.68 186.093 366.492 186.292C365.303 186.292 364.312 186.49 363.52 186.688C362.728 186.886 361.935 187.084 361.539 187.481C360.945 187.877 360.747 188.273 360.747 188.67C360.747 189.661 361.539 190.255 362.926 190.85C364.511 191.246 366.69 191.643 369.859 191.643C371.048 191.643 372.237 191.643 373.425 191.444C374.614 191.444 375.604 191.246 376.397 191.048C377.189 190.85 377.982 190.652 378.378 190.255C378.972 189.859 379.17 189.463 379.17 188.868C379.17 187.877 378.378 187.283 376.991 186.688C375.604 186.292 373.227 186.093 370.057 186.093Z" fill="white"/>
<path d="M380.558 202.939V204.326L365.7 204.128C363.124 204.128 361.143 203.732 359.955 203.137C358.766 202.543 358.172 201.75 358.172 200.561C358.172 199.173 358.766 198.381 359.955 197.786C361.143 197.192 362.926 196.993 365.304 196.993L380.558 197.192V198.579L366.492 198.381C365.304 198.381 364.313 198.381 363.521 198.381C362.728 198.381 362.134 198.579 361.54 198.777C361.143 198.975 360.747 199.173 360.549 199.57C360.351 199.768 360.153 200.164 360.153 200.561C360.153 201.354 360.549 201.948 361.54 202.344C362.53 202.741 364.115 202.939 366.096 202.939H380.558Z" fill="white"/>
<path d="M361.341 208.092C361.143 208.29 360.747 208.686 360.549 209.083C360.351 209.479 360.153 210.074 360.153 210.47C360.153 211.064 360.351 211.659 360.945 212.055C361.539 212.452 362.332 212.65 363.719 212.65C364.511 212.65 365.303 212.452 365.898 212.254C366.492 212.055 367.086 211.659 367.681 211.263C368.275 210.866 368.671 210.47 369.265 210.074C369.86 209.677 370.256 209.281 370.85 208.884C371.445 208.488 372.237 208.29 373.029 207.894C373.822 207.695 374.812 207.497 375.803 207.497C377.586 207.497 378.774 207.894 379.765 208.488C380.557 209.083 380.954 209.875 380.954 210.866C380.954 211.461 380.755 212.055 380.557 212.452C380.359 212.848 380.161 213.244 379.765 213.641L377.784 213.244C377.982 213.046 378.18 212.65 378.378 212.254C378.576 211.857 378.774 211.461 378.774 210.866C378.774 210.272 378.576 209.677 377.982 209.479C377.388 209.083 376.793 209.083 375.803 208.884C375.01 208.884 374.416 209.083 373.822 209.281C373.228 209.479 372.633 209.875 372.237 210.272C371.643 210.668 371.247 211.064 370.652 211.461C370.058 211.857 369.464 212.254 368.869 212.65C368.275 213.046 367.483 213.244 366.69 213.443C365.898 213.641 364.907 213.839 363.917 213.839C362.134 213.839 360.549 213.443 359.558 212.848C358.568 212.254 357.974 211.263 358.172 210.074C358.172 209.281 358.37 208.686 358.568 208.29C358.766 207.894 359.162 207.497 359.36 207.101L361.341 208.092Z" fill="white"/>
<path d="M379.962 223.748L379.764 229.495H377.585L377.783 225.135H370.057L369.859 229.099H367.68L367.878 225.135L357.973 224.937V223.55L379.962 223.748Z" fill="white"/>
<path d="M379.567 233.261L379.369 239.008H377.19L377.388 234.648H369.86L369.662 238.612H367.483L367.681 234.648H359.559L359.361 239.008H357.182L357.38 233.261H379.567Z" fill="white"/>
<path d="M379.171 242.972L378.973 248.719H376.794L376.992 244.359H369.464L369.266 248.323H367.086L367.285 244.359H359.162L358.964 248.719H356.785L356.983 242.972H379.171Z" fill="white"/>
<path d="M378.971 252.485C378.971 252.683 378.971 252.881 379.17 253.079C379.17 253.277 379.17 253.476 379.17 253.872C379.17 254.07 379.17 254.268 379.17 254.665C379.17 254.863 379.17 255.061 379.17 255.259C379.17 256.052 378.773 256.845 378.377 257.439C377.783 258.034 376.99 258.628 376 259.025C375.009 259.421 373.821 259.619 372.434 259.817C371.047 260.016 369.463 260.016 367.878 260.016C366.293 260.016 364.906 259.817 363.519 259.619C362.133 259.421 360.944 259.223 359.954 258.826C358.963 258.43 358.171 257.836 357.576 257.241C356.982 256.646 356.586 255.854 356.784 254.863C356.784 254.665 356.784 254.466 356.784 254.268C356.784 254.07 356.784 253.674 356.784 253.476C356.784 253.277 356.784 252.881 356.982 252.683C356.982 252.485 356.982 252.286 357.18 252.088L378.971 252.485ZM376.99 255.457C376.99 255.259 376.99 255.259 376.99 255.061C376.99 254.863 376.99 254.863 376.99 254.665C376.99 254.466 376.99 254.466 376.99 254.268C376.99 254.07 376.99 254.07 376.99 254.07L358.963 253.872V254.07C358.963 254.268 358.963 254.268 358.963 254.466C358.963 254.665 358.963 254.665 358.963 254.863C358.963 255.061 358.963 255.061 358.963 255.061C358.963 255.656 359.161 256.25 359.755 256.845C360.152 257.241 360.944 257.637 361.737 258.034C362.529 258.232 363.519 258.43 364.708 258.628C365.897 258.826 367.085 258.826 368.274 258.826C369.463 258.826 370.453 258.826 371.642 258.628C372.632 258.628 373.623 258.43 374.613 258.232C375.406 258.034 376.198 257.637 376.594 257.241C376.594 256.646 376.792 256.052 376.99 255.457Z" fill="white"/>
<path d="M373.227 270.321C372.633 270.321 372.039 270.321 371.642 270.123C371.048 270.123 370.652 269.925 370.057 269.727C369.661 269.528 369.067 269.33 368.869 269.132C368.473 268.934 368.275 268.537 368.076 268.339H367.878C367.68 268.537 367.482 268.934 367.284 269.132C367.086 269.33 366.69 269.726 366.294 269.925C365.897 270.123 365.303 270.321 364.709 270.321C364.114 270.519 363.322 270.519 362.53 270.519C361.341 270.519 360.35 270.321 359.558 270.123C358.766 269.925 357.973 269.528 357.577 269.33C356.983 268.934 356.785 268.537 356.388 268.141C356.19 267.745 355.992 267.15 355.992 266.556C355.992 266.357 355.992 266.159 355.992 265.961C355.992 265.763 355.992 265.565 355.992 265.168C355.992 264.97 355.992 264.574 356.19 264.376C356.19 264.177 356.388 263.979 356.388 263.781L378.18 263.979C378.378 264.376 378.378 264.772 378.378 265.366C378.378 265.961 378.378 266.357 378.378 266.952C378.378 267.348 378.378 267.745 378.18 268.141C377.982 268.537 377.784 268.934 377.387 269.33C376.991 269.726 376.397 269.925 375.802 270.123C375.208 270.321 374.416 270.321 373.227 270.321ZM358.369 266.754C358.369 267.15 358.369 267.348 358.568 267.745C358.766 267.943 358.964 268.339 359.36 268.537C359.756 268.736 360.152 268.934 360.747 269.132C361.341 269.33 361.935 269.33 362.53 269.33C363.322 269.33 364.114 269.33 364.709 269.132C365.303 268.934 365.699 268.736 365.897 268.537C366.294 268.339 366.492 267.943 366.492 267.745C366.69 267.348 366.69 267.15 366.69 266.754V265.565H358.568C358.568 265.565 358.568 265.763 358.369 265.763C358.369 265.961 358.369 265.961 358.369 266.159C358.369 266.357 358.369 266.357 358.369 266.556C358.369 266.357 358.369 266.556 358.369 266.754ZM368.671 266.159C368.671 266.357 368.671 266.556 368.671 266.754C368.671 266.952 368.671 267.15 368.671 267.348C369.067 267.745 369.463 268.141 370.256 268.537C371.048 268.934 371.84 269.132 372.831 269.132C373.623 269.132 374.02 269.132 374.614 268.934C375.01 268.736 375.406 268.736 375.802 268.537C376.001 268.339 376.199 268.141 376.397 267.943C376.595 267.745 376.595 267.348 376.595 267.15C376.595 266.754 376.595 266.556 376.595 266.357C376.595 266.159 376.595 265.961 376.595 265.763H368.869L368.671 266.159Z" fill="white"/>
<path d="M362.133 279.239L362.331 275.672L356.19 274.483V273.096L378.576 277.257V278.05L355.992 281.617V280.23L362.133 279.239ZM364.312 276.068L364.114 279.041L371.048 278.05L374.416 277.654L371.048 277.257L364.312 276.068Z" fill="white"/>
<path d="M356.389 291.13C355.993 290.734 355.596 290.338 355.398 289.941C355.2 289.545 355.2 288.95 355.2 288.554C355.2 287.959 355.398 287.365 355.993 286.77C356.389 286.176 357.181 285.779 357.974 285.383C358.964 284.987 360.153 284.788 361.539 284.59C362.926 284.392 364.709 284.392 366.69 284.392C368.869 284.392 370.652 284.59 372.039 284.788C373.426 284.987 374.614 285.383 375.605 285.779C376.397 286.176 377.19 286.77 377.586 287.167C377.982 287.761 378.18 288.356 378.18 288.752C378.18 289.347 377.982 289.743 377.982 290.139C377.784 290.536 377.586 290.932 377.388 291.13L375.209 290.734C375.407 290.536 375.605 290.139 375.803 289.941C376.001 289.545 376.001 289.148 376.001 288.752C376.001 288.356 375.803 287.959 375.605 287.563C375.209 287.167 374.812 286.77 374.02 286.572C373.228 286.176 372.435 285.977 371.247 285.779C370.058 285.581 368.671 285.581 366.888 285.383C363.917 285.383 361.539 285.581 359.955 286.176C358.37 286.77 357.577 287.563 357.577 288.554C357.577 288.95 357.577 289.347 357.776 289.743C357.974 290.139 358.172 290.338 358.37 290.536L356.389 291.13Z" fill="white"/>
<path d="M365.501 296.679V296.085L355.2 295.887V294.499L377.189 294.698V296.085L366.888 295.887L367.284 296.481L376.991 299.85V301.436L367.68 298.067L366.69 297.472L365.303 298.265L354.804 301.832V300.048L365.501 296.679Z" fill="white"/>
<path d="M163.238 215.028C162.644 215.226 161.851 215.226 161.059 215.028C160.266 215.028 159.474 214.83 158.682 214.632C157.691 214.434 156.701 214.037 156.106 213.641C155.314 213.244 154.918 212.65 154.72 212.055C154.522 211.461 154.323 210.668 154.522 209.875C154.72 209.083 155.314 208.092 155.908 206.903C156.701 205.714 157.493 204.921 158.484 204.128C159.474 203.534 160.465 202.939 161.455 202.543C162.446 202.146 163.436 202.146 164.427 201.948C165.417 201.948 166.408 201.948 167.398 202.344C168.389 202.543 168.983 202.741 169.577 202.939C170.172 203.137 170.568 203.335 170.964 203.533L169.577 204.524C169.181 204.326 168.983 204.128 168.389 203.93C167.993 203.732 167.398 203.534 166.606 203.335C166.011 203.137 165.219 203.137 164.427 203.137C163.634 203.137 163.04 203.335 162.248 203.533C161.455 203.732 160.861 204.326 160.068 204.723C159.276 205.317 158.682 206.11 158.087 206.903C156.899 208.488 156.503 209.875 156.899 210.866C157.295 211.857 158.285 212.65 159.87 213.046C160.465 213.244 161.059 213.244 161.653 213.244C162.248 213.244 162.842 213.244 163.238 213.244V215.028Z" fill="white"/>
<path d="M168.389 209.875C169.577 207.894 170.964 206.308 172.549 205.515C174.332 204.723 176.313 204.524 178.69 204.921C179.879 205.119 180.869 205.515 181.662 205.912C182.454 206.308 182.85 206.903 183.048 207.497C183.247 208.092 183.445 208.884 183.247 209.677C183.048 210.47 182.652 211.461 182.256 212.452C181.067 214.434 179.681 216.019 177.898 216.812C176.115 217.604 174.134 217.803 171.757 217.406C170.568 217.208 169.577 216.812 168.785 216.415C167.993 216.019 167.596 215.424 167.398 214.83C167.2 214.235 167.002 213.443 167.2 212.65C167.596 211.659 167.795 210.866 168.389 209.875ZM170.766 210.272C170.37 210.866 170.172 211.659 169.974 212.254C169.776 212.848 169.776 213.443 169.974 214.037C170.172 214.632 170.37 215.028 170.766 215.424C171.162 215.821 171.757 216.019 172.549 216.217C174.134 216.415 175.322 216.217 176.709 215.623C177.898 214.83 179.086 213.641 179.879 212.055C180.275 211.461 180.473 210.668 180.671 210.074C180.869 209.479 180.869 208.884 180.671 208.29C180.473 207.695 180.275 207.299 179.879 206.903C179.483 206.506 178.888 206.308 177.898 206.11C176.511 205.912 175.124 206.11 173.936 206.704C172.747 207.299 171.757 208.488 170.766 210.272Z" fill="white"/>
<path d="M189.388 211.461L188.595 209.281L188.397 211.263L185.822 219.19L183.643 218.992L187.803 206.308L189.189 206.506L194.538 215.424L195.133 217.406H195.331L195.529 215.424L198.104 207.497L200.283 207.695L196.123 220.379L194.736 220.181L189.388 211.461Z" fill="white"/>
<path d="M214.349 209.677L209 209.479L207.812 220.974H205.435L206.623 209.479L201.274 209.281L201.473 208.092L214.547 208.488L214.349 209.677Z" fill="white"/>
<path d="M216.329 208.29H218.706L219.103 220.974H216.725L216.329 208.29Z" fill="white"/>
<path d="M226.632 212.848L225.245 210.866L225.641 212.848V220.974H223.462V208.092H224.849L232.971 216.415L234.358 218.397H234.556L234.159 216.415V208.29H236.339V221.172H234.952L226.632 212.848Z" fill="white"/>
<path d="M249.808 208.29H251.987V216.812C251.987 218.397 251.393 219.388 250.403 220.181C249.412 220.775 247.827 221.172 246.044 221.172C243.865 221.172 242.28 220.775 241.29 220.181C240.299 219.586 239.705 218.397 239.705 217.01V208.092H242.082V216.217C242.082 216.812 242.082 217.406 242.28 217.803C242.479 218.199 242.677 218.595 243.073 218.992C243.469 219.19 243.865 219.388 244.261 219.586C244.856 219.784 245.45 219.784 246.044 219.784C247.431 219.784 248.422 219.586 248.818 218.992C249.412 218.397 249.61 217.604 249.61 216.217L249.808 208.29Z" fill="white"/>
<path d="M255.158 214.632C255.158 212.452 255.753 210.866 256.941 209.677C258.13 208.488 259.913 208.092 262.488 208.092C263.875 208.092 264.865 208.29 265.856 208.488C266.846 208.884 267.441 209.281 268.035 209.875C268.629 210.47 269.025 211.064 269.224 211.857C269.422 212.65 269.62 213.641 269.62 214.632C269.62 216.812 269.025 218.397 267.837 219.586C266.648 220.775 264.865 221.172 262.29 221.172C260.903 221.172 259.913 220.974 258.922 220.775C257.932 220.379 257.337 219.983 256.743 219.388C256.149 218.794 255.753 218.199 255.554 217.406C255.356 216.614 255.158 215.623 255.158 214.632ZM257.734 214.632C257.734 215.424 257.734 216.019 257.932 216.614C258.13 217.208 258.328 217.803 258.724 218.397C259.12 218.794 259.516 219.19 260.111 219.586C260.705 219.784 261.497 219.983 262.29 219.983C263.875 219.983 265.063 219.586 265.856 218.595C266.648 217.803 267.044 216.415 267.044 214.632C267.044 213.839 267.044 213.244 266.846 212.65C266.648 212.055 266.45 211.461 266.054 210.866C265.658 210.47 265.261 210.074 264.667 209.677C264.073 209.479 263.28 209.281 262.488 209.281C260.903 209.281 259.715 209.677 258.922 210.668C258.13 211.461 257.734 212.848 257.734 214.632Z" fill="white"/>
<path d="M282.892 208.29H285.071V216.812C285.071 218.397 284.477 219.388 283.487 220.181C282.496 220.775 280.911 221.172 279.128 221.172C276.949 221.172 275.364 220.775 274.374 220.181C273.383 219.586 272.789 218.397 272.789 217.01V208.092H275.166V216.217C275.166 216.812 275.166 217.406 275.364 217.803C275.563 218.199 275.761 218.595 276.157 218.992C276.553 219.19 276.949 219.388 277.345 219.586C277.94 219.784 278.534 219.784 279.128 219.784C280.515 219.784 281.506 219.586 281.902 218.992C282.496 218.397 282.694 217.604 282.694 216.217L282.892 208.29Z" fill="white"/>
<path d="M288.637 219.19C289.033 219.388 289.628 219.586 290.222 219.586C291.014 219.785 291.807 219.785 292.599 219.785C293.788 219.785 294.778 219.586 295.373 219.19C296.165 218.794 296.561 218.397 296.561 217.604C296.561 217.208 296.363 216.812 295.967 216.415C295.571 216.019 294.976 215.821 294.382 215.424C293.788 215.226 292.995 214.83 292.401 214.632C291.609 214.434 291.014 214.037 290.42 213.641C289.826 213.244 289.231 212.848 288.835 212.452C288.439 212.055 288.241 211.461 288.241 210.866C288.241 209.875 288.835 209.083 289.826 208.686C290.816 208.29 292.203 207.894 293.986 207.894C294.976 207.894 295.967 207.894 296.759 208.092C297.552 208.29 298.146 208.29 298.74 208.488L297.948 209.677C297.552 209.479 296.957 209.479 296.363 209.281C295.571 209.083 294.778 209.083 293.986 209.083C292.797 209.083 292.005 209.281 291.41 209.479C290.816 209.875 290.618 210.272 290.618 210.668C290.618 211.064 290.816 211.461 291.212 211.857C291.609 212.254 292.203 212.452 292.797 212.848C293.391 213.046 294.184 213.443 294.778 213.641C295.571 213.839 296.165 214.235 296.759 214.632C297.354 215.028 297.948 215.424 298.344 215.821C298.74 216.217 298.938 216.812 298.938 217.406C298.938 218.397 298.344 219.388 297.354 219.983C296.363 220.577 294.778 220.974 292.797 220.974C291.609 220.974 290.42 220.974 289.628 220.775C288.835 220.577 288.241 220.577 287.646 220.379L288.637 219.19Z" fill="white"/>
<path d="M454.449 208.29H456.826V220.974H454.449V208.29Z" fill="white"/>
<path d="M464.355 212.848L462.968 210.866L463.365 212.848V220.974H461.186V208.092H462.572L470.694 216.415L471.883 218.397H472.081L471.685 216.415V208.29H473.864V221.172H472.477L464.355 212.848Z" fill="white"/>
<path d="M489.118 209.479H483.769V220.974H481.392V209.479H476.043V208.29H489.118V209.479Z" fill="white"/>
<path d="M491.099 208.29H500.806V209.479H493.476V213.839H500.211V215.028H493.476V219.785H501.004V220.974H491.099V208.29Z" fill="white"/>
<path d="M510.512 214.632H516.653L516.455 220.181C515.861 220.577 515.068 220.775 514.078 220.775C513.087 220.974 512.295 220.974 511.304 220.974C510.116 220.974 509.125 220.775 508.135 220.577C507.144 220.379 506.352 219.983 505.758 219.388C505.163 218.794 504.569 218.199 504.371 217.406C503.975 216.614 503.975 215.623 503.975 214.434C503.975 213.244 504.371 212.254 504.767 211.461C505.163 210.668 505.758 209.875 506.55 209.479C507.342 208.884 508.135 208.686 509.125 208.29C510.116 208.092 511.106 207.894 512.097 207.894C513.087 207.894 513.88 207.894 514.672 208.092C515.266 208.092 515.861 208.29 516.455 208.488L515.861 209.677C515.465 209.479 514.87 209.479 514.474 209.281C513.88 209.281 513.285 209.083 512.493 209.083C511.701 209.083 511.106 209.083 510.314 209.281C509.72 209.479 508.927 209.677 508.531 210.074C507.937 210.47 507.54 211.064 507.144 211.659C506.748 212.254 506.55 213.244 506.55 214.235C506.55 216.019 506.946 217.406 507.937 218.199C508.927 218.992 510.314 219.586 511.899 219.586C512.889 219.586 513.88 219.388 514.672 219.19L514.87 215.424L510.908 215.028L510.512 214.632Z" fill="white"/>
<path d="M519.625 208.488C520.22 208.488 521.012 208.29 521.805 208.29C522.597 208.29 523.389 208.29 523.984 208.29C524.776 208.29 525.569 208.29 526.361 208.488C527.153 208.686 527.748 208.884 528.342 209.083C528.936 209.281 529.332 209.677 529.531 210.074C529.927 210.47 529.927 211.064 529.927 211.659C529.927 212.65 529.531 213.443 528.738 214.037C527.946 214.632 526.955 215.028 525.767 215.226L526.955 215.821L531.115 220.974H528.342L523.786 215.424L521.408 215.226L521.21 220.974H518.833L519.625 208.488ZM521.805 214.434H523.587C524.776 214.434 525.767 214.235 526.361 213.839C527.153 213.443 527.351 212.848 527.351 211.857C527.351 211.263 527.153 210.668 526.559 210.272C525.965 209.875 525.172 209.677 523.984 209.677C523.587 209.677 523.191 209.677 522.597 209.677C522.201 209.677 521.805 209.677 521.606 209.677L521.805 214.434Z" fill="white"/>
<path d="M541.813 217.803L535.672 217.604L533.492 221.172H531.115L539.039 208.488H540.228L545.577 221.568H543.199L541.813 217.803ZM536.266 216.415L541.218 216.614L539.634 212.65L539.237 210.668L538.445 212.65L536.266 216.415Z" fill="white"/>
<path d="M559.839 211.263L554.491 210.866L551.321 222.163L548.944 221.964L552.113 210.668L546.765 210.074L547.161 208.884L560.038 210.074L559.839 211.263Z" fill="white"/>
<path d="M564.595 210.668L566.774 211.064L561.029 223.352L558.85 222.955L564.595 210.668Z" fill="white"/>
<path d="M567.963 217.803C569.35 215.821 570.935 214.434 572.916 213.641C574.699 212.848 576.878 212.848 579.057 213.244C580.245 213.443 581.236 213.839 581.83 214.434C582.425 214.83 582.821 215.424 583.019 216.217C583.217 216.812 583.019 217.604 582.821 218.397C582.623 219.19 582.028 220.181 581.434 220.974C580.047 222.955 578.462 224.343 576.481 225.135C574.699 225.928 572.519 225.928 570.34 225.532C569.152 225.334 568.161 224.937 567.567 224.343C566.972 223.946 566.576 223.352 566.378 222.559C566.18 221.965 566.18 221.172 566.576 220.379C566.774 219.586 567.171 218.794 567.963 217.803ZM570.142 218.397C569.746 218.992 569.35 219.785 568.954 220.379C568.755 220.974 568.557 221.568 568.557 222.163C568.557 222.757 568.755 223.154 569.152 223.55C569.548 223.946 570.142 224.343 570.935 224.343C572.321 224.739 573.708 224.541 575.095 223.946C576.481 223.352 577.67 222.163 578.859 220.577C579.255 219.983 579.651 219.19 579.849 218.595C580.047 218.001 580.245 217.406 580.245 216.812C580.245 216.217 580.047 215.821 579.651 215.424C579.255 215.028 578.661 214.632 577.868 214.434C576.481 214.037 575.095 214.235 573.708 214.83C572.717 215.424 571.331 216.614 570.142 218.397Z" fill="white"/>
<path d="M589.159 221.568L589.753 219.388L588.367 221.172L581.235 228.108L579.254 227.514L590.546 216.415L591.734 216.812L591.536 226.324L590.942 228.306H591.14L592.527 226.523L599.659 219.586L601.64 220.181L590.348 231.279L589.159 230.883V221.568Z" fill="white"/>
<path d="M673.154 370.007L671.965 368.025C708.416 347.018 728.623 318.876 728.623 288.95C728.623 258.826 708.218 230.288 671.173 208.884C635.118 188.075 587.375 176.184 536.265 175.59L447.316 176.184V173.806L536.265 173.212C587.771 174.004 635.91 185.895 672.361 206.903C710.199 228.703 731 257.836 731 288.95C731 319.669 710.397 348.405 673.154 370.007Z" fill="url(#paint37_radial)"/>
<path d="M59.2328 196.796C20.9989 174.599 0 145.268 0 113.955C0 83.2369 20.4046 54.5005 57.648 33.0967C134.71 -11.2962 260.704 -10.8998 338.558 34.0877L337.369 36.0695C260.109 -8.52161 135.106 -8.91798 58.8366 35.0786C22.3856 56.0859 2.37724 84.2279 2.37724 113.955C2.37724 144.277 22.9799 173.014 60.4214 194.616L59.2328 196.796Z" fill="url(#paint38_radial)"/>
<path d="M210.584 174.599C186.019 173.608 162.643 167.266 145.012 157.159L146.2 155.177C163.237 165.086 185.821 171.032 209.593 172.221L210.386 172.023L314.588 170.833V173.212L211.574 174.401L210.584 174.599Z" fill="url(#paint39_radial)"/>
<path d="M520.02 343.649C493.87 343.649 467.919 337.901 447.91 326.407C429.685 315.903 419.185 302.03 417.799 286.968H417.997L417.601 286.374L419.978 284.987L420.176 286.77C421.365 300.841 431.666 314.119 449.099 324.227C488.125 346.82 551.32 346.82 590.148 324.425L591.337 326.407C571.725 337.901 545.971 343.649 520.02 343.649Z" fill="url(#paint40_radial)"/>
<defs>
<linearGradient id="paint0_linear" x1="34.2887" y1="35.1342" x2="716.548" y2="406.165" gradientUnits="userSpaceOnUse">
<stop offset="0.00505051" stop-color="#FFE4A7"/>
<stop offset="0.0997931" stop-color="#FAC098"/>
<stop offset="0.202" stop-color="#F49587"/>
<stop offset="0.4638" stop-color="#A142B5"/>
<stop offset="0.596" stop-color="#7C1DC9"/>
<stop offset="0.6346" stop-color="#7926CB"/>
<stop offset="0.6973" stop-color="#703ED1"/>
<stop offset="0.7764" stop-color="#6165DB"/>
<stop offset="0.8686" stop-color="#4C9CE9"/>
<stop offset="0.9709" stop-color="#32E1FA"/>
<stop offset="1" stop-color="#2AF6FF"/>
</linearGradient>
<linearGradient id="paint1_linear" x1="49.1091" y1="7.88189" x2="731.371" y2="378.914" gradientUnits="userSpaceOnUse">
<stop offset="0.00505051" stop-color="#FFE4A7"/>
<stop offset="0.0997931" stop-color="#FAC098"/>
<stop offset="0.202" stop-color="#F49587"/>
<stop offset="0.4638" stop-color="#A142B5"/>
<stop offset="0.596" stop-color="#7C1DC9"/>
<stop offset="0.6346" stop-color="#7926CB"/>
<stop offset="0.6973" stop-color="#703ED1"/>
<stop offset="0.7764" stop-color="#6165DB"/>
<stop offset="0.8686" stop-color="#4C9CE9"/>
<stop offset="0.9709" stop-color="#32E1FA"/>
<stop offset="1" stop-color="#2AF6FF"/>
</linearGradient>
<linearGradient id="paint2_linear" x1="44.9116" y1="15.5921" x2="727.173" y2="386.626" gradientUnits="userSpaceOnUse">
<stop offset="0.00505051" stop-color="#FFE4A7"/>
<stop offset="0.0997931" stop-color="#FAC098"/>
<stop offset="0.202" stop-color="#F49587"/>
<stop offset="0.4638" stop-color="#A142B5"/>
<stop offset="0.596" stop-color="#7C1DC9"/>
<stop offset="0.6346" stop-color="#7926CB"/>
<stop offset="0.6973" stop-color="#703ED1"/>
<stop offset="0.7764" stop-color="#6165DB"/>
<stop offset="0.8686" stop-color="#4C9CE9"/>
<stop offset="0.9709" stop-color="#32E1FA"/>
<stop offset="1" stop-color="#2AF6FF"/>
</linearGradient>
<linearGradient id="paint3_linear" x1="39.5859" y1="25.3968" x2="721.845" y2="396.428" gradientUnits="userSpaceOnUse">
<stop offset="0.00505051" stop-color="#FFE4A7"/>
<stop offset="0.0997931" stop-color="#FAC098"/>
<stop offset="0.202" stop-color="#F49587"/>
<stop offset="0.4638" stop-color="#A142B5"/>
<stop offset="0.596" stop-color="#7C1DC9"/>
<stop offset="0.6346" stop-color="#7926CB"/>
<stop offset="0.6973" stop-color="#703ED1"/>
<stop offset="0.7764" stop-color="#6165DB"/>
<stop offset="0.8686" stop-color="#4C9CE9"/>
<stop offset="0.9709" stop-color="#32E1FA"/>
<stop offset="1" stop-color="#2AF6FF"/>
</linearGradient>
<linearGradient id="paint4_linear" x1="41.0648" y1="22.6708" x2="723.325" y2="393.702" gradientUnits="userSpaceOnUse">
<stop offset="0.00505051" stop-color="#FFE4A7"/>
<stop offset="0.0997931" stop-color="#FAC098"/>
<stop offset="0.202" stop-color="#F49587"/>
<stop offset="0.4638" stop-color="#A142B5"/>
<stop offset="0.596" stop-color="#7C1DC9"/>
<stop offset="0.6346" stop-color="#7926CB"/>
<stop offset="0.6973" stop-color="#703ED1"/>
<stop offset="0.7764" stop-color="#6165DB"/>
<stop offset="0.8686" stop-color="#4C9CE9"/>
<stop offset="0.9709" stop-color="#32E1FA"/>
<stop offset="1" stop-color="#2AF6FF"/>
</linearGradient>
<linearGradient id="paint5_linear" x1="49.8765" y1="6.37794" x2="732.162" y2="377.456" gradientUnits="userSpaceOnUse">
<stop offset="0.00505051" stop-color="#FFE4A7"/>
<stop offset="0.0997931" stop-color="#FAC098"/>
<stop offset="0.202" stop-color="#F49587"/>
<stop offset="0.4638" stop-color="#A142B5"/>
<stop offset="0.596" stop-color="#7C1DC9"/>
<stop offset="0.6346" stop-color="#7926CB"/>
<stop offset="0.6973" stop-color="#703ED1"/>
<stop offset="0.7764" stop-color="#6165DB"/>
<stop offset="0.8686" stop-color="#4C9CE9"/>
<stop offset="0.9709" stop-color="#32E1FA"/>
<stop offset="1" stop-color="#2AF6FF"/>
</linearGradient>
<linearGradient id="paint6_linear" x1="-41.2098" y1="173.962" x2="641.05" y2="544.993" gradientUnits="userSpaceOnUse">
<stop offset="0.00505051" stop-color="#FFE4A7"/>
<stop offset="0.0997931" stop-color="#FAC098"/>
<stop offset="0.202" stop-color="#F49587"/>
<stop offset="0.4638" stop-color="#A142B5"/>
<stop offset="0.596" stop-color="#7C1DC9"/>
<stop offset="0.6346" stop-color="#7926CB"/>
<stop offset="0.6973" stop-color="#703ED1"/>
<stop offset="0.7764" stop-color="#6165DB"/>
<stop offset="0.8686" stop-color="#4C9CE9"/>
<stop offset="0.9709" stop-color="#32E1FA"/>
<stop offset="1" stop-color="#2AF6FF"/>
</linearGradient>
<linearGradient id="paint7_linear" x1="-16.2095" y1="127.992" x2="666.051" y2="499.023" gradientUnits="userSpaceOnUse">
<stop offset="0.00505051" stop-color="#FFE4A7"/>
<stop offset="0.0997931" stop-color="#FAC098"/>
<stop offset="0.202" stop-color="#F49587"/>
<stop offset="0.4638" stop-color="#A142B5"/>
<stop offset="0.596" stop-color="#7C1DC9"/>
<stop offset="0.6346" stop-color="#7926CB"/>
<stop offset="0.6973" stop-color="#703ED1"/>
<stop offset="0.7764" stop-color="#6165DB"/>
<stop offset="0.8686" stop-color="#4C9CE9"/>
<stop offset="0.9709" stop-color="#32E1FA"/>
<stop offset="1" stop-color="#2AF6FF"/>
</linearGradient>
<linearGradient id="paint8_linear" x1="11.5572" y1="76.9299" x2="693.819" y2="447.962" gradientUnits="userSpaceOnUse">
<stop offset="0.00505051" stop-color="#FFE4A7"/>
<stop offset="0.0997931" stop-color="#FAC098"/>
<stop offset="0.202" stop-color="#F49587"/>
<stop offset="0.4638" stop-color="#A142B5"/>
<stop offset="0.596" stop-color="#7C1DC9"/>
<stop offset="0.6346" stop-color="#7926CB"/>
<stop offset="0.6973" stop-color="#703ED1"/>
<stop offset="0.7764" stop-color="#6165DB"/>
<stop offset="0.8686" stop-color="#4C9CE9"/>
<stop offset="0.9709" stop-color="#32E1FA"/>
<stop offset="1" stop-color="#2AF6FF"/>
</linearGradient>
<linearGradient id="paint9_linear" x1="-34.1222" y1="160.929" x2="648.137" y2="531.959" gradientUnits="userSpaceOnUse">
<stop offset="0.00505051" stop-color="#FFE4A7"/>
<stop offset="0.0997931" stop-color="#FAC098"/>
<stop offset="0.202" stop-color="#F49587"/>
<stop offset="0.4638" stop-color="#A142B5"/>
<stop offset="0.596" stop-color="#7C1DC9"/>
<stop offset="0.6346" stop-color="#7926CB"/>
<stop offset="0.6973" stop-color="#703ED1"/>
<stop offset="0.7764" stop-color="#6165DB"/>
<stop offset="0.8686" stop-color="#4C9CE9"/>
<stop offset="0.9709" stop-color="#32E1FA"/>
<stop offset="1" stop-color="#2AF6FF"/>
</linearGradient>
<linearGradient id="paint10_linear" x1="-26.5916" y1="147.081" x2="655.669" y2="518.113" gradientUnits="userSpaceOnUse">
<stop offset="0.00505051" stop-color="#FFE4A7"/>
<stop offset="0.0997931" stop-color="#FAC098"/>
<stop offset="0.202" stop-color="#F49587"/>
<stop offset="0.4638" stop-color="#A142B5"/>
<stop offset="0.596" stop-color="#7C1DC9"/>
<stop offset="0.6346" stop-color="#7926CB"/>
<stop offset="0.6973" stop-color="#703ED1"/>
<stop offset="0.7764" stop-color="#6165DB"/>
<stop offset="0.8686" stop-color="#4C9CE9"/>
<stop offset="0.9709" stop-color="#32E1FA"/>
<stop offset="1" stop-color="#2AF6FF"/>
</linearGradient>
<linearGradient id="paint11_linear" x1="29.8442" y1="8.54464" x2="685.693" y2="378.921" gradientUnits="userSpaceOnUse">
<stop offset="0.00505051" stop-color="#FFE4A7"/>
<stop offset="0.0997931" stop-color="#FAC098"/>
<stop offset="0.202" stop-color="#F49587"/>
<stop offset="0.4638" stop-color="#A142B5"/>
<stop offset="0.596" stop-color="#7C1DC9"/>
<stop offset="0.6346" stop-color="#7926CB"/>
<stop offset="0.6973" stop-color="#703ED1"/>
<stop offset="0.7764" stop-color="#6165DB"/>
<stop offset="0.8686" stop-color="#4C9CE9"/>
<stop offset="0.9709" stop-color="#32E1FA"/>
<stop offset="1" stop-color="#2AF6FF"/>
</linearGradient>
<linearGradient id="paint12_linear" x1="32.5584" y1="40.2376" x2="688.408" y2="410.614" gradientUnits="userSpaceOnUse">
<stop offset="0.00505051" stop-color="#FFE4A7"/>
<stop offset="0.0997931" stop-color="#FAC098"/>
<stop offset="0.202" stop-color="#F49587"/>
<stop offset="0.4638" stop-color="#A142B5"/>
<stop offset="0.596" stop-color="#7C1DC9"/>
<stop offset="0.6346" stop-color="#7926CB"/>
<stop offset="0.6973" stop-color="#703ED1"/>
<stop offset="0.7764" stop-color="#6165DB"/>
<stop offset="0.8686" stop-color="#4C9CE9"/>
<stop offset="0.9709" stop-color="#32E1FA"/>
<stop offset="1" stop-color="#2AF6FF"/>
</linearGradient>
<linearGradient id="paint13_linear" x1="98.8848" y1="-59.927" x2="754.733" y2="310.448" gradientUnits="userSpaceOnUse">
<stop offset="0.00505051" stop-color="#FFE4A7"/>
<stop offset="0.0997931" stop-color="#FAC098"/>
<stop offset="0.202" stop-color="#F49587"/>
<stop offset="0.4638" stop-color="#A142B5"/>
<stop offset="0.596" stop-color="#7C1DC9"/>
<stop offset="0.6346" stop-color="#7926CB"/>
<stop offset="0.6973" stop-color="#703ED1"/>
<stop offset="0.7764" stop-color="#6165DB"/>
<stop offset="0.8686" stop-color="#4C9CE9"/>
<stop offset="0.9709" stop-color="#32E1FA"/>
<stop offset="1" stop-color="#2AF6FF"/>
</linearGradient>
<linearGradient id="paint14_linear" x1="20.4762" y1="136.053" x2="676.326" y2="506.43" gradientUnits="userSpaceOnUse">
<stop offset="0.00505051" stop-color="#FFE4A7"/>
<stop offset="0.0997931" stop-color="#FAC098"/>
<stop offset="0.202" stop-color="#F49587"/>
<stop offset="0.4638" stop-color="#A142B5"/>
<stop offset="0.596" stop-color="#7C1DC9"/>
<stop offset="0.6346" stop-color="#7926CB"/>
<stop offset="0.6973" stop-color="#703ED1"/>
<stop offset="0.7764" stop-color="#6165DB"/>
<stop offset="0.8686" stop-color="#4C9CE9"/>
<stop offset="0.9709" stop-color="#32E1FA"/>
<stop offset="1" stop-color="#2AF6FF"/>
</linearGradient>
<linearGradient id="paint15_linear" x1="86.2258" y1="33.0949" x2="742.074" y2="403.471" gradientUnits="userSpaceOnUse">
<stop offset="0.00505051" stop-color="#FFE4A7"/>
<stop offset="0.0997931" stop-color="#FAC098"/>
<stop offset="0.202" stop-color="#F49587"/>
<stop offset="0.4638" stop-color="#A142B5"/>
<stop offset="0.596" stop-color="#7C1DC9"/>
<stop offset="0.6346" stop-color="#7926CB"/>
<stop offset="0.6973" stop-color="#703ED1"/>
<stop offset="0.7764" stop-color="#6165DB"/>
<stop offset="0.8686" stop-color="#4C9CE9"/>
<stop offset="0.9709" stop-color="#32E1FA"/>
<stop offset="1" stop-color="#2AF6FF"/>
</linearGradient>
<linearGradient id="paint16_linear" x1="52.5359" y1="58.9463" x2="708.386" y2="429.324" gradientUnits="userSpaceOnUse">
<stop offset="0.00505051" stop-color="#FFE4A7"/>
<stop offset="0.0997931" stop-color="#FAC098"/>
<stop offset="0.202" stop-color="#F49587"/>
<stop offset="0.4638" stop-color="#A142B5"/>
<stop offset="0.596" stop-color="#7C1DC9"/>
<stop offset="0.6346" stop-color="#7926CB"/>
<stop offset="0.6973" stop-color="#703ED1"/>
<stop offset="0.7764" stop-color="#6165DB"/>
<stop offset="0.8686" stop-color="#4C9CE9"/>
<stop offset="0.9709" stop-color="#32E1FA"/>
<stop offset="1" stop-color="#2AF6FF"/>
</linearGradient>
<linearGradient id="paint17_linear" x1="48.9507" y1="65.295" x2="704.8" y2="435.672" gradientUnits="userSpaceOnUse">
<stop offset="0.00505051" stop-color="#FFE4A7"/>
<stop offset="0.0997931" stop-color="#FAC098"/>
<stop offset="0.202" stop-color="#F49587"/>
<stop offset="0.4638" stop-color="#A142B5"/>
<stop offset="0.596" stop-color="#7C1DC9"/>
<stop offset="0.6346" stop-color="#7926CB"/>
<stop offset="0.6973" stop-color="#703ED1"/>
<stop offset="0.7764" stop-color="#6165DB"/>
<stop offset="0.8686" stop-color="#4C9CE9"/>
<stop offset="0.9709" stop-color="#32E1FA"/>
<stop offset="1" stop-color="#2AF6FF"/>
</linearGradient>
<linearGradient id="paint18_linear" x1="-59.2666" y1="120.842" x2="596.581" y2="491.217" gradientUnits="userSpaceOnUse">
<stop offset="0.00505051" stop-color="#FFE4A7"/>
<stop offset="0.0997931" stop-color="#FAC098"/>
<stop offset="0.202" stop-color="#F49587"/>
<stop offset="0.4638" stop-color="#A142B5"/>
<stop offset="0.596" stop-color="#7C1DC9"/>
<stop offset="0.6346" stop-color="#7926CB"/>
<stop offset="0.6973" stop-color="#703ED1"/>
<stop offset="0.7764" stop-color="#6165DB"/>
<stop offset="0.8686" stop-color="#4C9CE9"/>
<stop offset="0.9709" stop-color="#32E1FA"/>
<stop offset="1" stop-color="#2AF6FF"/>
</linearGradient>
<linearGradient id="paint19_linear" x1="-68.2335" y1="119.893" x2="587.616" y2="490.27" gradientUnits="userSpaceOnUse">
<stop offset="0.00505051" stop-color="#FFE4A7"/>
<stop offset="0.0997931" stop-color="#FAC098"/>
<stop offset="0.202" stop-color="#F49587"/>
<stop offset="0.4638" stop-color="#A142B5"/>
<stop offset="0.596" stop-color="#7C1DC9"/>
<stop offset="0.6346" stop-color="#7926CB"/>
<stop offset="0.6973" stop-color="#703ED1"/>
<stop offset="0.7764" stop-color="#6165DB"/>
<stop offset="0.8686" stop-color="#4C9CE9"/>
<stop offset="0.9709" stop-color="#32E1FA"/>
<stop offset="1" stop-color="#2AF6FF"/>
</linearGradient>
<linearGradient id="paint20_linear" x1="78.6912" y1="-6.13259" x2="693.14" y2="340.864" gradientUnits="userSpaceOnUse">
<stop offset="0.00505051" stop-color="#FFE4A7"/>
<stop offset="0.0997931" stop-color="#FAC098"/>
<stop offset="0.202" stop-color="#F49587"/>
<stop offset="0.4638" stop-color="#A142B5"/>
<stop offset="0.596" stop-color="#7C1DC9"/>
<stop offset="0.6346" stop-color="#7926CB"/>
<stop offset="0.6973" stop-color="#703ED1"/>
<stop offset="0.7764" stop-color="#6165DB"/>
<stop offset="0.8686" stop-color="#4C9CE9"/>
<stop offset="0.9709" stop-color="#32E1FA"/>
<stop offset="1" stop-color="#2AF6FF"/>
</linearGradient>
<linearGradient id="paint21_linear" x1="-54.4076" y1="134.146" x2="601.441" y2="504.522" gradientUnits="userSpaceOnUse">
<stop offset="0.00505051" stop-color="#FFE4A7"/>
<stop offset="0.0997931" stop-color="#FAC098"/>
<stop offset="0.202" stop-color="#F49587"/>
<stop offset="0.4638" stop-color="#A142B5"/>
<stop offset="0.596" stop-color="#7C1DC9"/>
<stop offset="0.6346" stop-color="#7926CB"/>
<stop offset="0.6973" stop-color="#703ED1"/>
<stop offset="0.7764" stop-color="#6165DB"/>
<stop offset="0.8686" stop-color="#4C9CE9"/>
<stop offset="0.9709" stop-color="#32E1FA"/>
<stop offset="1" stop-color="#2AF6FF"/>
</linearGradient>
<linearGradient id="paint22_linear" x1="12.5246" y1="108.601" x2="668.372" y2="478.976" gradientUnits="userSpaceOnUse">
<stop offset="0.00505051" stop-color="#FFE4A7"/>
<stop offset="0.0997931" stop-color="#FAC098"/>
<stop offset="0.202" stop-color="#F49587"/>
<stop offset="0.4638" stop-color="#A142B5"/>
<stop offset="0.596" stop-color="#7C1DC9"/>
<stop offset="0.6346" stop-color="#7926CB"/>
<stop offset="0.6973" stop-color="#703ED1"/>
<stop offset="0.7764" stop-color="#6165DB"/>
<stop offset="0.8686" stop-color="#4C9CE9"/>
<stop offset="0.9709" stop-color="#32E1FA"/>
<stop offset="1" stop-color="#2AF6FF"/>
</linearGradient>
<linearGradient id="paint23_linear" x1="40.5914" y1="80.1005" x2="696.437" y2="450.473" gradientUnits="userSpaceOnUse">
<stop offset="0.00505051" stop-color="#FFE4A7"/>
<stop offset="0.0997931" stop-color="#FAC098"/>
<stop offset="0.202" stop-color="#F49587"/>
<stop offset="0.4638" stop-color="#A142B5"/>
<stop offset="0.596" stop-color="#7C1DC9"/>
<stop offset="0.6346" stop-color="#7926CB"/>
<stop offset="0.6973" stop-color="#703ED1"/>
<stop offset="0.7764" stop-color="#6165DB"/>
<stop offset="0.8686" stop-color="#4C9CE9"/>
<stop offset="0.9709" stop-color="#32E1FA"/>
<stop offset="1" stop-color="#2AF6FF"/>
</linearGradient>
<linearGradient id="paint24_linear" x1="-37.6" y1="111.96" x2="618.248" y2="482.336" gradientUnits="userSpaceOnUse">
<stop offset="0.00505051" stop-color="#FFE4A7"/>
<stop offset="0.0997931" stop-color="#FAC098"/>
<stop offset="0.202" stop-color="#F49587"/>
<stop offset="0.4638" stop-color="#A142B5"/>
<stop offset="0.596" stop-color="#7C1DC9"/>
<stop offset="0.6346" stop-color="#7926CB"/>
<stop offset="0.6973" stop-color="#703ED1"/>
<stop offset="0.7764" stop-color="#6165DB"/>
<stop offset="0.8686" stop-color="#4C9CE9"/>
<stop offset="0.9709" stop-color="#32E1FA"/>
<stop offset="1" stop-color="#2AF6FF"/>
</linearGradient>
<linearGradient id="paint25_linear" x1="142.058" y1="3.90538" x2="661.232" y2="383.226" gradientUnits="userSpaceOnUse">
<stop offset="0.00505051" stop-color="#FFE4A7"/>
<stop offset="0.0997931" stop-color="#FAC098"/>
<stop offset="0.202" stop-color="#F49587"/>
<stop offset="0.4638" stop-color="#A142B5"/>
<stop offset="0.596" stop-color="#7C1DC9"/>
<stop offset="0.6346" stop-color="#7926CB"/>
<stop offset="0.6973" stop-color="#703ED1"/>
<stop offset="0.7764" stop-color="#6165DB"/>
<stop offset="0.8686" stop-color="#4C9CE9"/>
<stop offset="0.9709" stop-color="#32E1FA"/>
<stop offset="1" stop-color="#2AF6FF"/>
</linearGradient>
<linearGradient id="paint26_linear" x1="64.1423" y1="110.548" x2="583.317" y2="489.87" gradientUnits="userSpaceOnUse">
<stop offset="0.00505051" stop-color="#FFE4A7"/>
<stop offset="0.0997931" stop-color="#FAC098"/>
<stop offset="0.202" stop-color="#F49587"/>
<stop offset="0.4638" stop-color="#A142B5"/>
<stop offset="0.596" stop-color="#7C1DC9"/>
<stop offset="0.6346" stop-color="#7926CB"/>
<stop offset="0.6973" stop-color="#703ED1"/>
<stop offset="0.7764" stop-color="#6165DB"/>
<stop offset="0.8686" stop-color="#4C9CE9"/>
<stop offset="0.9709" stop-color="#32E1FA"/>
<stop offset="1" stop-color="#2AF6FF"/>
</linearGradient>
<linearGradient id="paint27_linear" x1="26.808" y1="104.507" x2="682.656" y2="474.883" gradientUnits="userSpaceOnUse">
<stop offset="0.00505051" stop-color="#FFE4A7"/>
<stop offset="0.0997931" stop-color="#FAC098"/>
<stop offset="0.202" stop-color="#F49587"/>
<stop offset="0.4638" stop-color="#A142B5"/>
<stop offset="0.596" stop-color="#7C1DC9"/>
<stop offset="0.6346" stop-color="#7926CB"/>
<stop offset="0.6973" stop-color="#703ED1"/>
<stop offset="0.7764" stop-color="#6165DB"/>
<stop offset="0.8686" stop-color="#4C9CE9"/>
<stop offset="0.9709" stop-color="#32E1FA"/>
<stop offset="1" stop-color="#2AF6FF"/>
</linearGradient>
<linearGradient id="paint28_linear" x1="170.998" y1="-35.7049" x2="690.173" y2="343.616" gradientUnits="userSpaceOnUse">
<stop offset="0.00505051" stop-color="#FFE4A7"/>
<stop offset="0.0997931" stop-color="#FAC098"/>
<stop offset="0.202" stop-color="#F49587"/>
<stop offset="0.4638" stop-color="#A142B5"/>
<stop offset="0.596" stop-color="#7C1DC9"/>
<stop offset="0.6346" stop-color="#7926CB"/>
<stop offset="0.6973" stop-color="#703ED1"/>
<stop offset="0.7764" stop-color="#6165DB"/>
<stop offset="0.8686" stop-color="#4C9CE9"/>
<stop offset="0.9709" stop-color="#32E1FA"/>
<stop offset="1" stop-color="#2AF6FF"/>
</linearGradient>
<linearGradient id="paint29_linear" x1="86.6806" y1="12.2628" x2="742.528" y2="382.639" gradientUnits="userSpaceOnUse">
<stop offset="0.00505051" stop-color="#FFE4A7"/>
<stop offset="0.0997931" stop-color="#FAC098"/>
<stop offset="0.202" stop-color="#F49587"/>
<stop offset="0.4638" stop-color="#A142B5"/>
<stop offset="0.596" stop-color="#7C1DC9"/>
<stop offset="0.6346" stop-color="#7926CB"/>
<stop offset="0.6973" stop-color="#703ED1"/>
<stop offset="0.7764" stop-color="#6165DB"/>
<stop offset="0.8686" stop-color="#4C9CE9"/>
<stop offset="0.9709" stop-color="#32E1FA"/>
<stop offset="1" stop-color="#2AF6FF"/>
</linearGradient>
<linearGradient id="paint30_linear" x1="289.977" y1="90.2527" x2="714.031" y2="329.728" gradientUnits="userSpaceOnUse">
<stop offset="0.00505051" stop-color="#FFE4A7"/>
<stop offset="0.0997931" stop-color="#FAC098"/>
<stop offset="0.202" stop-color="#F49587"/>
<stop offset="0.4638" stop-color="#A142B5"/>
<stop offset="0.596" stop-color="#7C1DC9"/>
<stop offset="0.6346" stop-color="#7926CB"/>
<stop offset="0.6973" stop-color="#703ED1"/>
<stop offset="0.7764" stop-color="#6165DB"/>
<stop offset="0.8686" stop-color="#4C9CE9"/>
<stop offset="0.9709" stop-color="#32E1FA"/>
<stop offset="1" stop-color="#2AF6FF"/>
</linearGradient>
<linearGradient id="paint31_linear" x1="171.637" y1="-36.5816" x2="690.813" y2="342.74" gradientUnits="userSpaceOnUse">
<stop offset="0.00505051" stop-color="#FFE4A7"/>
<stop offset="0.0997931" stop-color="#FAC098"/>
<stop offset="0.202" stop-color="#F49587"/>
<stop offset="0.4638" stop-color="#A142B5"/>
<stop offset="0.596" stop-color="#7C1DC9"/>
<stop offset="0.6346" stop-color="#7926CB"/>
<stop offset="0.6973" stop-color="#703ED1"/>
<stop offset="0.7764" stop-color="#6165DB"/>
<stop offset="0.8686" stop-color="#4C9CE9"/>
<stop offset="0.9709" stop-color="#32E1FA"/>
<stop offset="1" stop-color="#2AF6FF"/>
</linearGradient>
<linearGradient id="paint32_linear" x1="86.3845" y1="-0.987173" x2="742.236" y2="369.391" gradientUnits="userSpaceOnUse">
<stop offset="0.00505051" stop-color="#FFE4A7"/>
<stop offset="0.0997931" stop-color="#FAC098"/>
<stop offset="0.202" stop-color="#F49587"/>
<stop offset="0.4638" stop-color="#A142B5"/>
<stop offset="0.596" stop-color="#7C1DC9"/>
<stop offset="0.6346" stop-color="#7926CB"/>
<stop offset="0.6973" stop-color="#703ED1"/>
<stop offset="0.7764" stop-color="#6165DB"/>
<stop offset="0.8686" stop-color="#4C9CE9"/>
<stop offset="0.9709" stop-color="#32E1FA"/>
<stop offset="1" stop-color="#2AF6FF"/>
</linearGradient>
<linearGradient id="paint33_linear" x1="119.362" y1="34.9683" x2="638.537" y2="414.289" gradientUnits="userSpaceOnUse">
<stop offset="0.00505051" stop-color="#FFE4A7"/>
<stop offset="0.0997931" stop-color="#FAC098"/>
<stop offset="0.202" stop-color="#F49587"/>
<stop offset="0.4638" stop-color="#A142B5"/>
<stop offset="0.596" stop-color="#7C1DC9"/>
<stop offset="0.6346" stop-color="#7926CB"/>
<stop offset="0.6973" stop-color="#703ED1"/>
<stop offset="0.7764" stop-color="#6165DB"/>
<stop offset="0.8686" stop-color="#4C9CE9"/>
<stop offset="0.9709" stop-color="#32E1FA"/>
<stop offset="1" stop-color="#2AF6FF"/>
</linearGradient>
<linearGradient id="paint34_linear" x1="95.0536" y1="68.24" x2="614.229" y2="447.561" gradientUnits="userSpaceOnUse">
<stop offset="0.00505051" stop-color="#FFE4A7"/>
<stop offset="0.0997931" stop-color="#FAC098"/>
<stop offset="0.202" stop-color="#F49587"/>
<stop offset="0.4638" stop-color="#A142B5"/>
<stop offset="0.596" stop-color="#7C1DC9"/>
<stop offset="0.6346" stop-color="#7926CB"/>
<stop offset="0.6973" stop-color="#703ED1"/>
<stop offset="0.7764" stop-color="#6165DB"/>
<stop offset="0.8686" stop-color="#4C9CE9"/>
<stop offset="0.9709" stop-color="#32E1FA"/>
<stop offset="1" stop-color="#2AF6FF"/>
</linearGradient>
<radialGradient id="paint35_radial" cx="0" cy="0" r="1" gradientUnits="userSpaceOnUse" gradientTransform="translate(146.517 185.781) scale(10.764 10.7691)">
<stop stop-color="white"/>
<stop offset="1"/>
</radialGradient>
<radialGradient id="paint36_radial" cx="0" cy="0" r="1" gradientUnits="userSpaceOnUse" gradientTransform="translate(650.038 237.323) scale(12.9739 12.978)">
<stop stop-color="white"/>
<stop offset="1"/>
</radialGradient>
<radialGradient id="paint37_radial" cx="0" cy="0" r="1" gradientUnits="userSpaceOnUse" gradientTransform="translate(681.928 220.983) scale(142.535 142.593)">
<stop stop-color="#000FE9"/>
<stop offset="0.363" stop-color="#003DF1"/>
<stop offset="1" stop-color="#0097FF"/>
</radialGradient>
<radialGradient id="paint38_radial" cx="0" cy="0" r="1" gradientUnits="userSpaceOnUse" gradientTransform="translate(38.8482 50.7885) scale(130.902 130.955)">
<stop stop-color="#000FE9"/>
<stop offset="0.363" stop-color="#003DF1"/>
<stop offset="1" stop-color="#0097FF"/>
</radialGradient>
<radialGradient id="paint39_radial" cx="0" cy="0" r="1" gradientUnits="userSpaceOnUse" gradientTransform="translate(233.26 137.767) scale(71.2533 71.2818)">
<stop stop-color="#000FE9"/>
<stop offset="0.363" stop-color="#003DF1"/>
<stop offset="1" stop-color="#0097FF"/>
</radialGradient>
<radialGradient id="paint40_radial" cx="0" cy="0" r="1" gradientUnits="userSpaceOnUse" gradientTransform="translate(504.53 314.32) scale(79.7071 79.7392)">
<stop stop-color="#000FE9"/>
<stop offset="0.363" stop-color="#003DF1"/>
<stop offset="1" stop-color="#0097FF"/>
</radialGradient>
</defs>
</svg>
