<svg width="1920" height="1490" viewBox="0 0 1920 1490" fill="none" xmlns="http://www.w3.org/2000/svg">
<g opacity="0.5">
<path opacity="0.5" d="M1556.36 163.127L1517.27 95.5213L1556.36 27.6152H1634.53L1673.62 95.5213L1634.53 163.127H1556.36Z" fill="#2A365C"/>
<path opacity="0.5" d="M1044.32 310.657L1005.24 242.751L1044.32 175.146H1122.5L1161.58 242.751L1122.5 310.657H1044.32Z" fill="#2A365C"/>
<path opacity="0.5" d="M1300.19 310.657L1261.1 242.751L1300.19 175.146H1378.66L1417.75 242.751L1378.66 310.657H1300.19Z" fill="#2A365C"/>
<path opacity="0.5" d="M1428.27 236.742L1389.19 169.136L1428.27 101.53H1506.45L1545.53 169.136L1506.45 236.742H1428.27Z" fill="#2A365C"/>
<path opacity="0.5" d="M1300.19 457.887L1261.1 390.281L1300.19 322.676H1378.66L1417.75 390.281L1378.66 457.887H1300.19Z" fill="#2A365C"/>
<path opacity="0.5" d="M1556.36 457.887L1517.27 390.281L1556.36 322.676H1634.53L1673.62 390.281L1634.53 457.887H1556.36Z" fill="#2A365C"/>
<path opacity="0.5" d="M1684.44 384.271L1645.35 316.666L1684.44 248.76H1762.61L1801.7 316.666L1762.61 384.271H1684.44Z" fill="#2A365C"/>
<path opacity="0.5" d="M916.24 531.803L877.153 463.897L916.24 396.291H994.413L1033.5 463.897L994.413 531.803H916.24Z" fill="#2A365C"/>
<path opacity="0.5" d="M1044.32 605.418L1005.24 537.812L1044.32 469.906H1122.5L1161.58 537.812L1122.5 605.418H1044.32Z" fill="#2A365C"/>
<path opacity="0.5" d="M1172.41 531.803L1133.02 463.897L1172.41 396.291H1250.58L1289.67 463.897L1250.58 531.803H1172.41Z" fill="#2A365C"/>
<path opacity="0.5" d="M1428.27 531.803L1389.19 463.897L1428.27 396.291H1506.45L1545.53 463.897L1506.45 531.803H1428.27Z" fill="#2A365C"/>
<path opacity="0.5" d="M660.073 679.033L620.986 611.427L660.073 543.821H738.246L777.633 611.427L738.246 679.033H660.073Z" fill="#2A365C"/>
<path opacity="0.5" d="M1044.32 752.648L1005.24 685.042L1044.32 617.437H1122.5L1161.58 685.042L1122.5 752.648H1044.32Z" fill="#2A365C"/>
<path opacity="0.5" d="M1300.19 752.648L1261.1 685.042L1300.19 617.437H1378.66L1417.75 685.042L1378.66 752.648H1300.19Z" fill="#2A365C"/>
<path opacity="0.5" d="M1428.27 679.033L1389.19 611.427L1428.27 543.821H1506.45L1545.53 611.427L1506.45 679.033H1428.27Z" fill="#2A365C"/>
<path opacity="0.5" d="M1556.36 752.648L1517.27 685.042L1556.36 617.437H1634.53L1673.62 685.042L1634.53 752.648H1556.36Z" fill="#2A365C"/>
<path opacity="0.5" d="M916.24 826.563L877.153 758.656L916.24 691.051H994.413L1033.5 758.656L994.413 826.563H916.24Z" fill="#2A365C"/>
<path opacity="0.5" d="M1044.32 900.178L1005.24 832.572L1044.32 764.666H1122.5L1161.58 832.572L1122.5 900.178H1044.32Z" fill="#2A365C"/>
<path opacity="0.5" d="M1172.41 826.563L1133.02 758.656L1172.41 691.051H1250.58L1289.67 758.656L1250.58 826.563H1172.41Z" fill="#2A365C"/>
<path opacity="0.5" d="M1044.32 1047.71L1005.24 979.803L1044.32 912.197H1122.5L1161.58 979.803L1122.5 1047.71H1044.32Z" fill="#2A365C"/>
<path opacity="0.5" d="M1300.19 1047.71L1261.1 979.803L1300.19 912.197H1378.66L1417.75 979.803L1378.66 1047.71H1300.19Z" fill="#2A365C"/>
<path opacity="0.5" d="M1428.27 973.794L1389.19 906.189L1428.27 838.583H1506.45L1545.53 906.189L1506.45 973.794H1428.27Z" fill="#2A365C"/>
<path opacity="0.5" d="M788.156 1194.94L749.069 1127.33L788.156 1059.73H866.329L905.415 1127.33L866.329 1194.94H788.156Z" fill="#2A365C"/>
<path opacity="0.5" d="M660.073 1268.85L620.986 1200.95L660.073 1133.34H738.246L777.633 1200.95L738.246 1268.85H660.073Z" fill="#2A365C"/>
<path opacity="0.5" d="M916.24 1268.85L877.153 1200.95L916.24 1133.34H994.413L1033.5 1200.95L994.413 1268.85H916.24Z" fill="#2A365C"/>
<path opacity="0.5" d="M1172.41 1268.85L1133.02 1200.95L1172.41 1133.34H1250.58L1289.67 1200.95L1250.58 1268.85H1172.41Z" fill="#2A365C"/>
<path opacity="0.5" d="M788.156 1490L749.069 1422.09L788.156 1354.49H866.329L905.415 1422.09L866.329 1490H788.156Z" fill="#2A365C"/>
<path opacity="0.5" d="M916.24 1416.08L877.153 1348.48L916.24 1280.87H994.413L1033.5 1348.48L994.413 1416.08H916.24Z" fill="#2A365C"/>
<path opacity="0.5" d="M1556.36 163.127L1517.27 95.5213L1556.36 27.6152H1634.53L1673.62 95.5213L1634.53 163.127H1556.36Z" fill="#2A365C"/>
<path opacity="0.5" d="M1300.19 457.887L1261.1 390.281L1300.19 322.676H1378.66L1417.75 390.281L1378.66 457.887H1300.19Z" fill="#2A365C"/>
<path opacity="0.5" d="M1044.32 752.648L1005.24 685.042L1044.32 617.437H1122.5L1161.58 685.042L1122.5 752.648H1044.32Z" fill="#2A365C"/>
<path opacity="0.5" d="M1428.27 679.033L1389.19 611.427L1428.27 543.821H1506.45L1545.53 611.427L1506.45 679.033H1428.27Z" fill="#2A365C"/>
<path opacity="0.5" d="M1172.41 1268.85L1133.02 1200.95L1172.41 1133.34H1250.58L1289.67 1200.95L1250.58 1268.85H1172.41Z" fill="#2A365C"/>
<path opacity="0.5" d="M916.24 1416.08L877.153 1348.48L916.24 1280.87H994.413L1033.5 1348.48L994.413 1416.08H916.24Z" fill="#2A365C"/>
<g opacity="0.5">
<path opacity="0.3" d="M1684.44 89.5117L1645.35 21.6056L1684.44 -46H1762.61L1801.7 21.6056L1762.61 89.5117H1684.44Z" fill="#2A365C"/>
<path opacity="0.3" d="M1940.31 89.5117L1901.22 21.6056L1940.31 -46H2018.78L2057.87 21.6056L2018.78 89.5117H1940.31Z" fill="#2A365C"/>
<path opacity="0.3" d="M1172.41 236.742L1133.02 169.136L1172.41 101.53H1250.58L1289.67 169.136L1250.58 236.742H1172.41Z" fill="#2A365C"/>
<path opacity="0.3" d="M788.156 457.887L749.069 390.281L788.156 322.676H866.329L905.415 390.281L866.329 457.887H788.156Z" fill="#2A365C"/>
<path opacity="0.3" d="M1428.27 384.271L1389.19 316.666L1428.27 248.76H1506.45L1545.53 316.666L1506.45 384.271H1428.27Z" fill="#2A365C"/>
<path opacity="0.3" d="M1940.31 384.271L1901.22 316.666L1940.31 248.76H2018.78L2057.87 316.666L2018.78 384.271H1940.31Z" fill="#2A365C"/>
<path opacity="0.3" d="M531.988 605.418L492.901 537.812L531.988 469.906H610.462L649.548 537.812L610.462 605.418H531.988Z" fill="#2A365C"/>
<path opacity="0.3" d="M788.156 605.418L749.069 537.812L788.156 469.906H866.329L905.415 537.812L866.329 605.418H788.156Z" fill="#2A365C"/>
<path opacity="0.3" d="M1684.44 531.803L1645.35 463.897L1684.44 396.291H1762.61L1801.7 463.897L1762.61 531.803H1684.44Z" fill="#2A365C"/>
<path opacity="0.3" d="M1172.41 679.033L1133.02 611.427L1172.41 543.821H1250.58L1289.67 611.427L1250.58 679.033H1172.41Z" fill="#2A365C"/>
<path opacity="0.3" d="M788.156 900.178L749.069 832.572L788.156 764.666H866.329L905.415 832.572L866.329 900.178H788.156Z" fill="#2A365C"/>
<path opacity="0.3" d="M1172.41 1121.32L1133.02 1053.72L1172.41 985.812H1250.58L1289.67 1053.72L1250.58 1121.32H1172.41Z" fill="#2A365C"/>
<path opacity="0.3" d="M1428.27 1121.32L1389.19 1053.72L1428.27 985.812H1506.45L1545.53 1053.72L1506.45 1121.32H1428.27Z" fill="#2A365C"/>
<path opacity="0.3" d="M1676.02 968.685L1651.97 927.22L1676.02 885.455H1724.13L1748.18 927.22L1724.13 968.685H1676.02Z" fill="#2A365C"/>
<path opacity="0.3" d="M1916.55 810.338L1892.5 768.572L1916.55 727.107H1964.66L1988.71 768.572L1964.66 810.338H1916.55Z" fill="#2A365C"/>
<path opacity="0.3" d="M1893.1 1285.98L1877.47 1258.34L1893.1 1231H1924.97L1940.61 1258.34L1924.97 1285.98H1893.1Z" fill="#2A365C"/>
<path opacity="0.3" d="M464.94 99.1265L449.306 71.4833L464.94 44.1406H496.811L512.445 71.4833L496.811 99.1265H464.94Z" fill="#2A365C"/>
<path opacity="0.3" d="M221.401 775.183L205.466 747.54L221.401 720.197H252.971L268.906 747.54L252.971 775.183H221.401Z" fill="#2A365C"/>
<path opacity="0.3" d="M446.9 1125.83L430.965 1098.49L446.9 1070.85H478.47L494.405 1098.49L478.47 1125.83H446.9Z" fill="#2A365C"/>
<path opacity="0.3" d="M10.9353 1421.19L-5 1393.55L10.9353 1366.21H42.5052L58.4405 1393.55L42.5052 1421.19H10.9353Z" fill="#2A365C"/>
<path opacity="0.3" d="M1369.04 1306.11L1344.99 1264.35L1369.04 1222.88H1417.45L1441.5 1264.35L1417.45 1306.11H1369.04Z" fill="#2A365C"/>
<path opacity="0.3" d="M1850.11 539.915L1826.05 498.149L1850.11 456.685H1898.51L1922.57 498.149L1898.51 539.915H1850.11Z" fill="#2A365C"/>
<path opacity="0.3" d="M978.176 97.3238L954.123 55.859L978.176 14.0938H1026.58L1050.64 55.859L1026.58 97.3238H978.176Z" fill="#2A365C"/>
<path opacity="0.3" d="M542.211 915.503L518.158 873.737L542.211 832.272H590.619L614.672 873.737L590.619 915.503H542.211Z" fill="#2A365C"/>
<path opacity="0.3" d="M353.092 1374.32L329.039 1332.85L353.092 1291.09H401.199L425.252 1332.85L401.199 1374.32H353.092Z" fill="#2A365C"/>
<path opacity="0.3" d="M879.257 284.516L855.204 242.751L879.257 201.286H927.364L951.417 242.751L927.364 284.516H879.257Z" fill="#2A365C"/>
<path opacity="0.3" d="M668.791 194.376L644.737 152.61L668.791 111.146H716.897L740.95 152.61L716.897 194.376H668.791Z" fill="#2A365C"/>
<path opacity="0.3" d="M1630.92 1170.9L1606.87 1129.14L1630.92 1087.67H1679.03L1703.08 1129.14L1679.03 1170.9H1630.92Z" fill="#2A365C"/>
<path opacity="0.3" d="M653.758 457.887L629.705 416.422L653.758 374.657H701.865L725.918 416.422L701.865 457.887H653.758Z" fill="#2A365C"/>
<path opacity="0.3" d="M1540.72 1486.39L1516.67 1444.63L1540.72 1403.16H1588.83L1612.88 1444.63L1588.83 1486.39H1540.72Z" fill="#2A365C"/>
<path opacity="0.3" d="M172.693 1230.99L148.64 1189.23L172.693 1147.76H220.799L244.853 1189.23L220.799 1230.99H172.693Z" fill="#2A365C"/>
<path opacity="0.3" d="M531.988 1342.47L492.901 1274.86L531.988 1206.96H610.462L649.548 1274.86L610.462 1342.47H531.988Z" fill="#2A365C"/>
<path opacity="0.3" d="M1044.32 1490L1005.24 1422.09L1044.32 1354.49H1122.5L1161.58 1422.09L1122.5 1490H1044.32Z" fill="#2A365C"/>
</g>
<g opacity="0.6">
<path opacity="0.6" d="M1428.27 89.5117L1389.19 21.6056L1428.27 -46H1506.45L1545.53 21.6056L1506.45 89.5117H1428.27Z" fill="#2A365C"/>
<path opacity="0.6" d="M1556.36 310.657L1517.27 242.751L1556.36 175.146H1634.53L1673.62 242.751L1634.53 310.657H1556.36Z" fill="#2A365C"/>
<path opacity="0.6" d="M1684.44 236.742L1645.35 169.136L1684.44 101.53H1762.61L1801.7 169.136L1762.61 236.742H1684.44Z" fill="#2A365C"/>
<path opacity="0.6" d="M1812.52 310.657L1773.44 242.751L1812.52 175.146H1890.7L1929.78 242.751L1890.7 310.657H1812.52Z" fill="#2A365C"/>
<path opacity="0.6" d="M1044.32 457.887L1005.24 390.281L1044.32 322.676H1122.5L1161.58 390.281L1122.5 457.887H1044.32Z" fill="#2A365C"/>
<path opacity="0.6" d="M1300.19 605.418L1261.1 537.812L1300.19 469.906H1378.66L1417.75 537.812L1378.66 605.418H1300.19Z" fill="#2A365C"/>
<path opacity="0.6" d="M916.239 679.033L877.152 611.427L916.239 543.821H994.412L1033.5 611.427L994.412 679.033H916.239Z" fill="#2A365C"/>
<path opacity="0.6" d="M1684.44 679.033L1645.35 611.427L1684.44 543.821H1762.61L1801.7 611.427L1762.61 679.033H1684.44Z" fill="#2A365C"/>
<path opacity="0.6" d="M1300.19 900.178L1261.1 832.572L1300.19 764.666H1378.66L1417.75 832.572L1378.66 900.178H1300.19Z" fill="#2A365C"/>
<path opacity="0.6" d="M916.239 973.794L877.152 906.189L916.239 838.583H994.412L1033.5 906.189L994.412 973.794H916.239Z" fill="#2A365C"/>
<path opacity="0.6" d="M1044.32 1194.94L1005.24 1127.33L1044.32 1059.73H1122.5L1161.58 1127.33L1122.5 1194.94H1044.32Z" fill="#2A365C"/>
<path opacity="0.6" d="M788.156 1342.47L749.069 1274.86L788.156 1206.96H866.329L905.415 1274.86L866.329 1342.47H788.156Z" fill="#2A365C"/>
<path opacity="0.6" d="M1172.41 1416.08L1133.02 1348.48L1172.41 1280.87H1250.58L1289.67 1348.48L1250.58 1416.08H1172.41Z" fill="#2A365C"/>
</g>
</g>
<g clip-path="url(#clip0)">
<path d="M1598.87 129.726L1588.59 -2.56641L1590.07 -1.51834L1756.88 121.256L1598.87 129.726ZM1590.35 0.937206L1600.35 128.093L1752.14 119.931L1590.35 0.937206Z" fill="#2A365C"/>
<path d="M1247.26 269.287L1281.13 158.371L1281.34 158.293L1387.46 83.5216L1360.72 26.4868L1392.29 -21.8556L1393.68 -21.0229L1362.53 26.4396L1389.12 83.0438L1514.13 177.137L1600.48 127.438L1602.37 201.274L1600.78 201.244L1598.81 130.234L1513.89 179.172L1513.52 178.819L1389.61 85.4213L1412.26 264.982L1247.26 269.287ZM1282.39 159.498L1249.46 267.636L1410.26 263.513L1387.72 85.2533L1282.39 159.498Z" fill="#2A365C"/>
<path d="M1144.65 489.276L1130.08 347.824L1129.78 347.325L1130.07 347.1L1131.65 267.74L1133.24 267.771L1131.7 345.898L1248.58 267.224L1249.03 267.792L1345.89 401.809L1410.28 264.236L1281.14 159.095L1268.05 72.1495L1269.63 71.8184L1282.71 158.04L1412.43 263.455L1346.12 405.135L1345.37 404.068L1248.21 269.552L1132.04 347.845L1229.95 483.428L1144.65 489.276ZM1132.04 350.526L1146.13 487.644L1227.02 482.056L1132.04 350.526Z" fill="#2A365C"/>
<path d="M1239.85 533.297L1227.22 481.255L1316.78 523.177L1316.1 524.644L1229.61 484.162L1241.44 532.966L1239.85 533.297Z" fill="#2A365C"/>
<path d="M1064.07 549.184L1063.1 547.833L1143.7 488.649L1086.38 461.822L1087.06 460.355L1146.87 488.349L1064.07 549.184Z" fill="#2A365C"/>
<path d="M1311.35 441.247L1310.09 440.121L1345.69 402.611L1404.48 430.125L1464.87 396.169L1465.63 397.598L1404.52 431.934L1346.03 404.558L1311.35 441.247Z" fill="#2A365C"/>
<path d="M1273.08 406.172L1224.84 374.472L1247.39 268.632L1210.26 215.852L1137.72 199.78L1138.12 198.177L1211.31 214.376L1211.39 214.591L1249.19 268.222L1249.13 268.731L1226.63 373.701L1274.06 404.842L1273.08 406.172Z" fill="#2A365C"/>
<path d="M1443.53 368.837L1442.06 368.151L1462.45 324.591L1409.62 263.746L1479.46 250.841L1479.79 252.426L1412.69 264.825L1464.4 324.251L1443.53 368.837Z" fill="#2A365C"/>
<path d="M1766.9 189.955L1753.59 120.256L1811.53 75.4987L1866.17 74.0729L1866.14 75.6674L1812.23 77.0742L1755.35 121.079L1768.48 189.624L1766.9 189.955Z" fill="#2A365C"/>
<path d="M1589.6 0.23261L1515.28 -34.5537L1515.97 -36.0204L1589.26 -1.71433L1645.24 -46.8546L1646.22 -45.5038L1589.6 0.23261Z" fill="#2A365C"/>
<path d="M1598.97 203.971C1603.66 206.167 1607.09 198.833 1602.4 196.638C1597.71 194.442 1594.28 201.776 1598.97 203.971Z" fill="#2A365C"/>
<path d="M1452.36 177.011L1452.39 175.417L1512.55 177.469L1478.93 117.571L1509.96 51.2783L1511.42 51.9644L1480.74 117.524L1515.34 179.134L1452.36 177.011Z" fill="#2A365C"/>
<path d="M1468.91 85.0457L1467.39 85.5977L1479.07 117.869L1480.59 117.317L1468.91 85.0457Z" fill="#2A365C"/>
<path d="M1588.74 -1.19098L1556.9 46.2852L1558.24 47.1868L1590.08 -0.289364L1588.74 -1.19098Z" fill="#2A365C"/>
<path d="M1214.09 171.652L1212.47 171.56L1209.97 215.047L1211.59 215.139L1214.09 171.652Z" fill="#2A365C"/>
<path d="M1405.28 430.555L1403.94 431.46L1430.33 470.674L1431.67 469.769L1405.28 430.555Z" fill="#2A365C"/>
<path d="M1346.76 403.423L1345.18 403.773L1373.85 533.399L1375.43 533.049L1346.76 403.423Z" fill="#2A365C"/>
<path d="M1049.59 408.309L1048.62 406.959L1129.21 347.775L1093.88 331.239L1094.57 329.773L1132.39 347.475L1049.59 408.309Z" fill="#2A365C"/>
<path d="M1506.13 308.128L1463.06 323.747L1463.61 325.269L1506.68 309.65L1506.13 308.128Z" fill="#2A365C"/>
<path d="M1503.87 313.225C1508.56 315.42 1511.99 308.087 1507.3 305.892C1502.46 303.627 1499.03 310.961 1503.87 313.225Z" fill="#2A365C"/>
<path d="M1460.88 331.008C1470.26 335.399 1477.12 320.732 1467.74 316.341C1458.36 311.95 1451.49 326.617 1460.88 331.008Z" fill="#2A365C"/>
<path d="M1399.77 444.011C1413.99 450.666 1424.28 428.666 1410.06 422.011C1395.84 415.356 1385.55 437.356 1399.77 444.011Z" fill="#2A365C"/>
<path d="M1358.83 37.4015C1373.05 44.0569 1383.35 22.0571 1369.13 15.4017C1354.91 8.74631 1344.61 30.7462 1358.83 37.4015Z" fill="#2A365C"/>
<path d="M1203.38 224.435C1217.6 231.09 1227.9 209.09 1213.68 202.435C1199.46 195.78 1189.16 217.779 1203.38 224.435Z" fill="#2A365C"/>
<path d="M1369.74 540.991C1379.12 545.382 1385.99 530.716 1376.61 526.325C1367.23 521.933 1360.36 536.6 1369.74 540.991Z" fill="#2A365C"/>
<path d="M1235.19 543.633C1244.57 548.024 1251.44 533.358 1242.06 528.967C1232.68 524.575 1225.66 539.173 1235.19 543.633Z" fill="#2A365C"/>
<path d="M1129.25 275.916C1138.63 280.307 1145.5 265.641 1136.12 261.249C1126.73 256.858 1119.87 271.525 1129.25 275.916Z" fill="#2A365C"/>
<path d="M1207.81 176.801C1217.19 181.192 1224.06 166.525 1214.67 162.134C1205.29 157.743 1198.43 172.41 1207.81 176.801Z" fill="#2A365C"/>
<path d="M1762.01 194.284C1771.39 198.675 1778.26 184.008 1768.88 179.617C1759.35 175.158 1752.48 189.824 1762.01 194.284Z" fill="#2A365C"/>
<path d="M1477.39 125.435C1486.77 129.826 1493.64 115.16 1484.26 110.768C1474.88 106.377 1467.86 120.975 1477.39 125.435Z" fill="#2A365C"/>
<path d="M1810.17 78.7939C1814.86 80.9895 1818.29 73.6562 1813.6 71.4606C1808.91 69.265 1805.33 76.5297 1810.17 78.7939Z" fill="#2A365C"/>
<path d="M1862.73 78.3638C1867.42 80.5594 1870.86 73.2261 1866.16 71.0305C1861.47 68.8349 1858.04 76.1682 1862.73 78.3638Z" fill="#2A365C"/>
<path d="M1555.96 49.2082C1560.65 51.4038 1564.08 44.0705 1559.39 41.8749C1554.55 39.6107 1551.12 46.944 1555.96 49.2082Z" fill="#2A365C"/>
<path d="M1507.88 57.6343C1512.57 59.8299 1516 52.4966 1511.31 50.301C1506.62 48.1054 1503.18 55.4387 1507.88 57.6343Z" fill="#2A365C"/>
<path d="M1464.85 91.1369C1469.54 93.3325 1472.98 85.9992 1468.29 83.8036C1463.45 81.5394 1460.02 88.8727 1464.85 91.1369Z" fill="#2A365C"/>
<path d="M1441.12 370.929C1445.81 373.125 1449.24 365.791 1444.55 363.596C1439.71 361.331 1436.28 368.665 1441.12 370.929Z" fill="#2A365C"/>
<path d="M1478.14 255.947C1482.83 258.142 1486.26 250.809 1481.57 248.613C1476.88 246.418 1473.45 253.751 1478.14 255.947Z" fill="#2A365C"/>
<path d="M1265.89 75.6108C1270.58 77.8064 1274.02 70.4731 1269.32 68.2776C1264.63 66.082 1261.2 73.4153 1265.89 75.6108Z" fill="#2A365C"/>
<path d="M1138.38 202.951C1143.07 205.146 1146.51 197.813 1141.82 195.617C1137.13 193.422 1133.69 200.755 1138.38 202.951Z" fill="#2A365C"/>
<path d="M1093.13 335.533C1097.82 337.729 1101.25 330.395 1096.56 328.2C1091.87 326.004 1088.29 333.269 1093.13 335.533Z" fill="#2A365C"/>
<path d="M1083.77 464.715C1088.46 466.911 1091.9 459.578 1087.21 457.382C1082.51 455.186 1079.08 462.52 1083.77 464.715Z" fill="#2A365C"/>
<path d="M1060.88 551.803C1065.57 553.999 1069.01 546.666 1064.32 544.47C1059.62 542.274 1056.19 549.608 1060.88 551.803Z" fill="#2A365C"/>
<path d="M1313.74 525.864C1318.43 528.059 1321.86 520.726 1317.17 518.53C1312.48 516.335 1309.05 523.668 1313.74 525.864Z" fill="#2A365C"/>
<path d="M1428.77 473.678C1433.46 475.874 1436.89 468.54 1432.2 466.345C1427.36 464.08 1423.93 471.414 1428.77 473.678Z" fill="#2A365C"/>
<path d="M1461.17 401.771C1465.87 403.967 1469.3 396.633 1464.61 394.438C1459.92 392.242 1456.48 399.575 1461.17 401.771Z" fill="#2A365C"/>
<path d="M1308.22 443.357C1312.91 445.553 1316.34 438.219 1311.65 436.024C1306.96 433.828 1303.53 441.161 1308.22 443.357Z" fill="#2A365C"/>
<path d="M1223.73 382.179C1233.11 386.57 1239.98 371.904 1230.6 367.513C1221.21 363.121 1214.2 377.719 1223.73 382.179Z" fill="#2A365C"/>
<path d="M1269.26 409.749C1273.95 411.945 1277.39 404.612 1272.7 402.416C1267.86 400.152 1264.43 407.485 1269.26 409.749Z" fill="#2A365C"/>
<path d="M1389.14 84.1295L1387.68 83.4434L1353.35 156.776L1354.82 157.462L1389.14 84.1295Z" fill="#2A365C"/>
<path d="M1713.78 38.6751L1712.33 39.4072L1753.65 121.006L1755.1 120.274L1713.78 38.6751Z" fill="#2A365C"/>
<path d="M1650.97 269.256L1649.51 268.57L1683.56 195.824L1599.09 129.647L1600.06 128.318L1685.57 195.337L1650.97 269.256Z" fill="#2A365C"/>
<path d="M1685.27 195.069L1683.93 195.974L1710.32 235.188L1711.66 234.283L1685.27 195.069Z" fill="#2A365C"/>
<path d="M1680.69 202.708C1690.07 207.1 1696.94 192.433 1687.56 188.042C1678.17 183.651 1671.16 198.249 1680.69 202.708Z" fill="#2A365C"/>
<path d="M1047.26 410.616C1051.95 412.812 1055.39 405.478 1050.69 403.283C1046 401.087 1042.42 408.352 1047.26 410.616Z" fill="#2A365C"/>
<path d="M1648.07 274.693C1652.76 276.888 1656.19 269.555 1651.5 267.36C1646.81 265.164 1643.38 272.497 1648.07 274.693Z" fill="#2A365C"/>
<path d="M1709.47 237.813C1714.16 240.009 1717.6 232.675 1712.9 230.48C1708.21 228.284 1704.78 235.617 1709.47 237.813Z" fill="#2A365C"/>
<path d="M1712.23 43.6816C1716.92 45.8772 1720.36 38.5439 1715.67 36.3483C1710.97 34.1527 1707.4 41.4174 1712.23 43.6816Z" fill="#2A365C"/>
<path d="M1351.15 158.428C1355.84 160.623 1359.28 153.29 1354.59 151.094C1349.89 148.899 1346.32 156.163 1351.15 158.428Z" fill="#2A365C"/>
<path d="M1451.1 178.927C1455.8 181.123 1459.23 173.79 1454.54 171.594C1449.85 169.398 1446.41 176.732 1451.1 178.927Z" fill="#2A365C"/>
<path d="M1329.3 305.538L1248.67 267.802L1247.98 269.268L1328.61 307.005L1329.3 305.538Z" fill="#2A365C"/>
<path d="M1327.47 310.584C1332.16 312.78 1335.59 305.447 1330.9 303.251C1326.21 301.056 1322.78 308.389 1327.47 310.584Z" fill="#2A365C"/>
<g clip-path="url(#clip1)">
<path d="M1391.83 112.014C1403.54 111.857 1412.91 102.235 1412.76 90.5213C1412.6 78.808 1402.99 69.4394 1391.28 69.5961C1379.57 69.7528 1370.2 79.3755 1370.35 91.0888C1370.5 102.802 1380.12 112.171 1391.83 112.014Z" fill="#939EBD"/>
<path opacity="0.2" d="M1391.83 112.014C1403.54 111.857 1412.91 102.235 1412.76 90.5213C1412.6 78.808 1402.99 69.4394 1391.28 69.5961C1379.57 69.7528 1370.2 79.3755 1370.35 91.0888C1370.5 102.802 1380.12 112.171 1391.83 112.014Z" fill="#939EBD"/>
<path opacity="0.5" d="M1390.94 72.2758C1393.69 75.1739 1391.96 81.1589 1387.09 85.8496C1382.21 90.5404 1376.17 92.0021 1373.41 89.104C1370.66 86.2059 1372.39 80.2209 1377.27 75.5301C1382.14 70.8394 1388.19 69.3777 1390.94 72.2758Z" fill="#939EBD"/>
<path opacity="0.3" d="M1405.44 89.7891C1407.44 91.6202 1406.04 96.148 1402.51 99.8618C1398.99 103.576 1394.47 105.215 1392.46 103.384C1390.46 101.553 1391.87 97.0248 1395.39 93.311C1398.98 89.4504 1403.44 87.958 1405.44 89.7891Z" fill="#939EBD"/>
<path d="M1233.19 500.741C1240.07 500.649 1245.58 494.993 1245.49 488.108C1245.4 481.223 1239.75 475.717 1232.87 475.809C1225.98 475.901 1220.48 481.557 1220.57 488.442C1220.66 495.327 1226.31 500.834 1233.19 500.741Z" fill="#939EBD"/>
<path opacity="0.2" d="M1233.19 500.741C1240.07 500.649 1245.58 494.993 1245.49 488.108C1245.4 481.223 1239.75 475.717 1232.87 475.809C1225.98 475.901 1220.48 481.557 1220.57 488.442C1220.66 495.327 1226.31 500.834 1233.19 500.741Z" fill="#939EBD"/>
<path opacity="0.5" d="M1232.77 477.416C1234.33 479.041 1233.34 482.689 1230.51 485.298C1227.61 488.054 1224.01 488.872 1222.45 487.247C1220.88 485.622 1221.88 481.974 1224.71 479.365C1227.46 476.541 1231.06 475.722 1232.77 477.416Z" fill="#939EBD"/>
<path opacity="0.3" d="M1241.21 487.626C1242.33 488.684 1241.6 491.383 1239.48 493.611C1237.37 495.84 1234.79 496.776 1233.67 495.719C1232.56 494.661 1233.29 491.962 1235.4 489.734C1237.52 487.505 1240.1 486.569 1241.21 487.626Z" fill="#939EBD"/>
<path d="M1599.52 144.148C1605.96 144.062 1611.11 138.773 1611.02 132.335C1610.94 125.897 1605.65 120.748 1599.22 120.834C1592.78 120.92 1587.63 126.209 1587.72 132.647C1587.8 139.085 1593.09 144.234 1599.52 144.148Z" fill="#939EBD"/>
<path opacity="0.3" d="M1599.52 144.148C1605.96 144.062 1611.11 138.773 1611.02 132.335C1610.94 125.897 1605.65 120.748 1599.22 120.834C1592.78 120.92 1587.63 126.209 1587.72 132.647C1587.8 139.085 1593.09 144.234 1599.52 144.148Z" fill="#939EBD"/>
<path opacity="0.5" d="M1599.18 122.183C1600.75 123.808 1599.74 127.094 1597.13 129.625C1594.51 132.156 1591.06 133.043 1589.5 131.418C1587.94 129.793 1588.94 126.507 1591.55 123.976C1594.17 121.445 1597.62 120.558 1599.18 122.183Z" fill="#939EBD"/>
<path opacity="0.3" d="M1607.11 131.973C1608.22 133.03 1607.42 135.514 1605.52 137.664C1603.47 139.746 1601.1 140.604 1599.99 139.547C1598.88 138.489 1599.68 136.006 1601.58 133.855C1603.63 131.774 1606 130.915 1607.11 131.973Z" fill="#939EBD"/>
<path d="M1279.93 181.196C1287.17 181.099 1292.96 175.149 1292.87 167.907C1292.77 160.664 1286.83 154.871 1279.59 154.968C1272.35 155.065 1266.55 161.015 1266.65 168.257C1266.74 175.5 1272.69 181.293 1279.93 181.196Z" fill="#939EBD"/>
<path opacity="0.3" d="M1279.93 181.196C1287.17 181.099 1292.96 175.149 1292.87 167.907C1292.77 160.664 1286.83 154.871 1279.59 154.968C1272.35 155.065 1266.55 161.015 1266.65 168.257C1266.74 175.5 1272.69 181.293 1279.93 181.196Z" fill="#939EBD"/>
<path opacity="0.5" d="M1279.42 156.678C1281.13 158.372 1280.07 162.166 1277.1 165.069C1274.13 167.971 1270.32 168.867 1268.68 167.027C1266.97 165.333 1268.03 161.539 1271 158.636C1273.89 155.88 1277.71 154.984 1279.42 156.678Z" fill="#939EBD"/>
<path opacity="0.3" d="M1288.31 167.456C1289.57 168.582 1288.78 171.428 1286.45 173.735C1284.26 176.11 1281.53 176.978 1280.27 175.852C1279.01 174.725 1279.81 171.88 1282.14 169.573C1284.25 167.345 1287.05 166.33 1288.31 167.456Z" fill="#939EBD"/>
<path d="M1142.93 514.075C1154.28 513.923 1163.37 504.594 1163.22 493.239C1163.07 481.883 1153.75 472.801 1142.4 472.952C1131.04 473.104 1121.96 482.433 1122.11 493.789C1122.26 505.145 1131.58 514.227 1142.93 514.075Z" fill="#939EBD"/>
<path opacity="0.3" d="M1142.93 514.075C1154.28 513.923 1163.37 504.594 1163.22 493.239C1163.07 481.883 1153.75 472.801 1142.4 472.952C1131.04 473.104 1121.96 482.433 1122.11 493.789C1122.26 505.145 1131.58 514.227 1142.93 514.075Z" fill="#939EBD"/>
<path opacity="0.5" d="M1142.05 475.364C1144.66 478.193 1143 484.032 1138.41 488.498C1133.81 492.964 1127.77 494.425 1125.16 491.596C1122.55 488.766 1124.22 482.928 1128.81 478.462C1133.55 474.065 1139.38 472.681 1142.05 475.364Z" fill="#939EBD"/>
<path opacity="0.3" d="M1156.18 492.526C1158.03 494.288 1156.85 498.738 1153.32 502.452C1149.79 506.165 1145.49 507.726 1143.63 505.964C1141.78 504.201 1142.97 499.752 1146.49 496.038C1149.87 492.255 1154.32 490.763 1156.18 492.526Z" fill="#939EBD"/>
<path d="M1514.88 206.416C1526.59 206.26 1535.96 196.637 1535.81 184.924C1535.66 173.21 1526.04 163.842 1514.33 163.998C1502.62 164.155 1493.25 173.778 1493.41 185.491C1493.56 197.205 1503.17 206.573 1514.88 206.416Z" fill="#939EBD"/>
<path opacity="0.2" d="M1514.88 206.416C1526.59 206.26 1535.96 196.637 1535.81 184.924C1535.66 173.21 1526.04 163.842 1514.33 163.998C1502.62 164.155 1493.25 173.778 1493.41 185.491C1493.56 197.205 1503.17 206.573 1514.88 206.416Z" fill="#939EBD"/>
<path opacity="0.5" d="M1514.01 166.709C1516.76 169.607 1515.03 175.592 1510.16 180.283C1505.28 184.974 1499.24 186.436 1496.48 183.538C1493.73 180.639 1495.46 174.655 1500.33 169.964C1505.21 165.273 1511.26 163.811 1514.01 166.709Z" fill="#939EBD"/>
<path opacity="0.3" d="M1528.51 184.224C1530.51 186.055 1529.11 190.583 1525.58 194.296C1522.06 198.01 1517.54 199.649 1515.53 197.818C1513.53 195.987 1514.94 191.459 1518.46 187.746C1522.06 183.885 1526.51 182.393 1528.51 184.224Z" fill="#939EBD"/>
<path d="M1342.36 424.497C1350.14 424.393 1356.36 418.002 1356.26 410.223C1356.16 402.444 1349.77 396.222 1341.99 396.326C1334.22 396.43 1327.99 402.821 1328.1 410.6C1328.2 418.379 1334.58 424.601 1342.36 424.497Z" fill="#939EBD"/>
<path opacity="0.2" d="M1342.36 424.497C1350.14 424.393 1356.36 418.002 1356.26 410.223C1356.16 402.444 1349.77 396.222 1341.99 396.326C1334.22 396.43 1327.99 402.821 1328.1 410.6C1328.2 418.379 1334.58 424.601 1342.36 424.497Z" fill="#939EBD"/>
<path opacity="0.5" d="M1341.74 398.078C1343.53 399.987 1342.4 403.928 1339.15 407.055C1335.9 410.182 1331.87 411.157 1330.08 409.248C1328.29 407.338 1329.42 403.397 1332.67 400.27C1335.85 397.29 1339.88 396.315 1341.74 398.078Z" fill="#939EBD"/>
<path opacity="0.3" d="M1351.31 409.708C1352.57 410.834 1351.63 413.974 1349.38 416.495C1346.98 418.948 1344.12 420.11 1342.78 418.768C1341.52 417.642 1342.45 414.503 1344.7 411.981C1347.03 409.675 1350.05 408.582 1351.31 409.708Z" fill="#939EBD"/>
<path d="M1136.31 371.086C1144.45 370.977 1150.95 364.293 1150.85 356.156C1150.74 348.019 1144.06 341.511 1135.93 341.62C1127.8 341.729 1121.29 348.414 1121.39 356.55C1121.5 364.687 1128.18 371.195 1136.31 371.086Z" fill="#939EBD"/>
<path opacity="0.5" d="M1136.31 371.086C1144.45 370.977 1150.95 364.293 1150.85 356.156C1150.74 348.019 1144.06 341.511 1135.93 341.62C1127.8 341.729 1121.29 348.414 1121.39 356.55C1121.5 364.687 1128.18 371.195 1136.31 371.086Z" fill="#939EBD"/>
<path opacity="0.5" d="M1135.69 343.477C1137.63 345.454 1136.36 349.689 1133.11 352.816C1129.79 356.09 1125.61 356.996 1123.68 355.018C1121.75 353.04 1123.01 348.806 1126.26 345.678C1129.58 342.404 1133.76 341.499 1135.69 343.477Z" fill="#939EBD"/>
<path opacity="0.3" d="M1145.78 355.528C1147.12 356.869 1146.19 360.008 1143.72 362.608C1141.25 365.208 1138.24 366.301 1136.83 365.106C1135.49 363.764 1136.43 360.625 1138.89 358.026C1141.36 355.426 1144.37 354.333 1145.78 355.528Z" fill="#939EBD"/>
<path d="M1586.3 25.6111C1598.36 25.4496 1608.02 15.5332 1607.86 3.46215C1607.71 -8.60889 1597.8 -18.2635 1585.73 -18.102C1573.66 -17.9405 1564.01 -8.02406 1564.16 4.04698C1564.32 16.118 1574.23 25.7726 1586.3 25.6111Z" fill="#939EBD"/>
<path opacity="0.5" d="M1586.3 25.6111C1598.36 25.4496 1608.02 15.5332 1607.86 3.46215C1607.71 -8.60889 1597.8 -18.2635 1585.73 -18.102C1573.66 -17.9405 1564.01 -8.02406 1564.16 4.04698C1564.32 16.118 1574.23 25.7726 1586.3 25.6111Z" fill="#939EBD"/>
<path opacity="0.5" d="M1585.51 -15.4527C1588.26 -12.5547 1586.54 -6.20775 1581.67 -1.51697C1576.72 3.32048 1570.32 4.79153 1567.56 1.89346C1564.81 -1.00461 1566.53 -7.35153 1571.4 -12.0423C1576.35 -16.8798 1582.61 -18.4194 1585.51 -15.4527Z" fill="#939EBD"/>
<path opacity="0.3" d="M1600.31 2.55998C1602.31 4.3911 1600.99 9.13414 1597.39 12.9947C1593.8 16.8552 1589.13 18.4257 1587.13 16.5946C1585.13 14.7635 1586.45 10.0204 1590.05 6.15991C1593.79 2.368 1598.31 0.728858 1600.31 2.55998Z" fill="#939EBD"/>
<path d="M1407.14 287.976C1416.77 289.956 1426.19 283.749 1428.17 274.114C1430.15 264.478 1423.95 255.062 1414.32 253.083C1404.69 251.104 1395.27 257.31 1393.29 266.946C1391.31 276.581 1397.51 285.997 1407.14 287.976Z" fill="#939EBD"/>
<path opacity="0.3" d="M1407.14 287.976C1416.77 289.956 1426.19 283.749 1428.17 274.114C1430.15 264.478 1423.95 255.062 1414.32 253.083C1404.69 251.104 1395.27 257.31 1393.29 266.946C1391.31 276.581 1397.51 285.997 1407.14 287.976Z" fill="#939EBD"/>
<path opacity="0.5" d="M1410.19 254.895C1412.49 257.225 1410.96 262.408 1407 266.278C1403.05 270.148 1397.8 271.444 1395.56 268.967C1393.25 266.637 1394.79 261.454 1398.74 257.584C1402.84 253.782 1407.95 252.418 1410.19 254.895Z" fill="#939EBD"/>
<path opacity="0.3" d="M1422.44 269.569C1424.07 271.048 1422.94 274.989 1420.05 278.107C1417.1 281.371 1413.29 282.63 1411.73 281.004C1410.1 279.526 1411.23 275.585 1414.12 272.467C1417 269.349 1420.81 268.091 1422.44 269.569Z" fill="#939EBD"/>
<path d="M1251.78 299.528C1264.83 299.353 1275.27 288.629 1275.1 275.574C1274.93 262.52 1264.21 252.078 1251.16 252.253C1238.11 252.428 1227.67 263.152 1227.84 276.207C1228.01 289.261 1238.73 299.703 1251.78 299.528Z" fill="#939EBD"/>
<path opacity="0.6" d="M1251.78 299.528C1264.83 299.353 1275.27 288.629 1275.1 275.574C1274.93 262.52 1264.21 252.078 1251.16 252.253C1238.11 252.428 1227.67 263.152 1227.84 276.207C1228.01 289.261 1238.73 299.703 1251.78 299.528Z" fill="#939EBD"/>
<path opacity="0.5" d="M1250.81 255.215C1253.79 258.397 1251.86 265.184 1246.57 270.393C1241.12 275.533 1234.29 277.16 1231.31 273.979C1228.33 270.797 1230.25 264.01 1235.55 258.801C1241 253.661 1247.83 252.033 1250.81 255.215Z" fill="#939EBD"/>
<path opacity="0.3" d="M1266.88 274.715C1269.11 276.83 1267.64 281.866 1263.55 286.03C1259.6 290.262 1254.65 292.057 1252.43 289.942C1250.2 287.827 1251.66 282.79 1255.76 278.627C1259.85 274.464 1264.73 272.815 1266.88 274.715Z" fill="#939EBD"/>
<path d="M1752.67 140.087C1760.45 139.983 1766.67 133.592 1766.57 125.813C1766.47 118.034 1760.08 111.812 1752.3 111.916C1744.53 112.02 1738.3 118.411 1738.41 126.19C1738.51 133.969 1744.89 140.191 1752.67 140.087Z" fill="#939EBD"/>
<path opacity="0.6" d="M1752.67 140.087C1760.45 139.983 1766.67 133.592 1766.57 125.813C1766.47 118.034 1760.08 111.812 1752.3 111.916C1744.53 112.02 1738.3 118.411 1738.41 126.19C1738.51 133.969 1744.89 140.191 1752.67 140.087Z" fill="#939EBD"/>
<path opacity="0.5" d="M1752.05 113.631C1753.83 115.54 1752.7 119.481 1749.6 122.677C1746.35 125.804 1742.32 126.779 1740.53 124.87C1738.75 122.96 1739.88 119.019 1742.98 115.823C1746.23 112.696 1750.26 111.722 1752.05 113.631Z" fill="#939EBD"/>
<path opacity="0.3" d="M1761.76 125.33C1763.02 126.456 1762.24 129.664 1759.84 132.117C1757.44 134.57 1754.42 135.663 1753.16 134.537C1751.9 133.41 1752.69 130.203 1755.09 127.75C1757.56 125.15 1760.36 124.135 1761.76 125.33Z" fill="#939EBD"/>
</g>
</g>
<defs>
<clipPath id="clip0">
<rect width="611" height="793" fill="white" transform="translate(1323.16 -201) rotate(25.0819)"/>
</clipPath>
<clipPath id="clip1">
<rect width="551.923" height="732.922" fill="white" transform="translate(1336.51 -160.783) rotate(25.0819)"/>
</clipPath>
</defs>
</svg>
