<?xml version="1.0" encoding="utf-8"?><svg width="577" height="452" fill="none" xmlns="http://www.w3.org/2000/svg" viewBox="0 0 577 452"><g clip-path="url(#aclip0)"><path d="M438.934 372.819l-.309-.465 135.283-78.252c1.546-.93 2.473-2.014 2.473-3.409 0-1.24-.927-2.479-2.473-3.409l-23.81-13.791.309-.465 23.81 13.791c1.701.93 2.628 2.325 2.628 3.719 0 1.395-.927 2.789-2.628 3.719l-135.283 78.562zM262.371 392.033c-1.237 0-2.474-.31-3.401-.93L101.423 299.99c-.927-.62-1.546-1.394-1.546-2.169 0-.62.464-1.24 1.083-1.705l94.002-54.388c1.546-.93 4.329-.775 6.029.31l157.701 91.112c.928.62 1.546 1.395 1.546 2.17 0 .619-.463 1.239-1.082 1.704l-94.002 54.389c-.773.31-1.701.62-2.783.62zm-160.793-92.508l157.546 91.268c1.701.93 4.175 1.085 5.566.31l94.002-54.389c.619-.31.928-.775.928-1.239 0-.62-.464-1.24-1.237-1.705l-157.546-91.268c-1.701-.929-4.175-1.084-5.566-.309l-94.002 54.388c-.619.31-.928.775-.928 1.24 0 .62.464 1.24 1.237 1.704z" fill="#42E8E0"/><path d="M360.084 319.515l-8.658-1.24-150.435-87.084c-1.7-.93-4.329-1.085-5.875-.31l-89.518 51.755-5.566-.775v7.283c0 .62.464 1.394 1.391 1.859l157.547 91.268c1.7.93 4.329 1.085 5.875.31l94.002-54.389c.618-.465.928-.93.928-1.55v-7.127h.309z" fill="url(#apaint0_linear)"/><path d="M101.424 283.875l157.546 91.268c1.701.93 4.33 1.085 5.876.31l94.002-54.389c1.546-.93 1.237-2.324-.464-3.409l-157.392-91.268c-1.7-.929-4.329-1.084-5.875-.31l-94.002 54.389c-1.546.93-1.392 2.479.309 3.409z" fill="url(#apaint1_linear)"/><path opacity=".3" d="M115.183 285.734l140.849 81.506c1.546.93 3.865.93 5.257.155l84.107-48.655c1.391-.775 1.237-2.17-.309-2.945L204.084 234.29c-1.547-.93-3.866-.93-5.257-.155L114.72 282.79c-1.237.775-1.083 2.015.463 2.944z" fill="#24126A"/><path d="M359.002 320.134l-94.003 54.389c-1.546.93-4.174.775-5.875-.31L101.423 283.1c-.773-.465-1.237-.929-1.391-1.549-.31.775.154 1.704 1.391 2.324l157.547 91.268c1.7.93 4.329 1.085 5.875.31l94.002-54.389c.773-.465 1.082-1.24.928-1.859 0 .309-.31.619-.773.929z" fill="#fff"/><path d="M256.805 238.319l-.309-.465 50.093-28.976-131.572-76.083a11.987 11.987 0 00-12.059 0l-42.827 24.793-.309-.465 42.826-24.792a12.86 12.86 0 0112.524 0l132.345 76.547-.309.155-50.403 29.286zM540.512 279.227l-25.51-14.256c-5.721-3.254-10.668-10.227-12.523-17.51l-22.11-91.268c-1.391-5.733-4.483-10.691-8.039-14.1l-3.092 9.452c-.773 2.324-2.165 4.029-4.175 4.803-2.319.93-5.411.465-8.349-1.394l-3.556-2.015-3.246 9.763c-.773 2.324-2.165 4.028-4.175 4.803-2.319.93-5.411.465-8.349-1.394l-4.638-2.635c-5.257-3.099-10.204-9.762-12.06-16.58-1.7-6.198-5.256-11.156-9.121-14.255l-2.165 4.493c-.928 1.86-2.319 3.254-4.02 3.719-2.319.775-5.102.155-8.039-1.395l-2.474-1.394-4.793 10.227c-.928 1.859-2.319 3.254-4.02 3.719-2.319.774-5.102.155-8.04-1.395l-5.256-3.099c-5.721-3.409-10.668-10.537-12.369-17.82l-21.8-98.86c-1.391-6.198-4.793-11.312-8.503-14.876l-31.695 86.929c-.773 2.17-2.165 3.719-4.174 4.494-2.32.93-5.257.31-8.349-1.395l-3.247-1.859-3.556 9.917c-.773 2.169-2.165 3.719-4.175 4.494-2.319.774-5.256.31-8.348-1.395l-18.399-10.692 19.79-11.466h.155l14.378 8.212 32.004-87.549c1.237-3.409 3.711-5.113 6.958-4.958 2.628.155 5.72 1.704 8.503 4.029l3.711-10.382c1.237-3.41 3.71-5.114 6.957-4.959 6.494.465 15.306 8.523 17.78 19.68l21.955 99.17c1.546 7.128 6.648 14.256 12.059 17.51l2.319 1.394 2.165-4.803c1.391-2.945 3.865-4.339 6.957-4.029 2.319.155 4.948 1.394 7.576 3.409l4.947-10.382c1.392-2.944 3.866-4.339 6.958-4.029 6.03.465 14.224 7.593 17.316 18.285 1.855 6.663 6.648 13.171 11.75 16.27l.464.31 3.247-10.072c1.082-3.564 3.556-5.424 6.957-5.269 2.783.155 6.03 1.705 9.122 4.339l3.247-10.227c1.082-3.564 3.556-5.423 6.957-5.268 6.494.309 15.152 8.057 17.935 19.214l22.109 91.268c1.701 7.127 6.648 14.1 12.214 17.199l25.511 14.256-.31.465-25.51-14.256c-5.721-3.254-10.668-10.227-12.523-17.509l-22.109-91.268c-2.629-10.847-11.287-18.595-17.471-18.905h-.309c-2.938 0-5.103 1.705-6.03 4.959l-3.402 10.382c3.711 3.409 6.958 8.522 8.349 14.566l22.109 91.267c1.701 7.128 6.649 14.101 12.214 17.2l25.511 14.256-.155.465zm-128.48-147.206c3.866 3.254 7.576 8.367 9.277 14.72 1.855 6.663 6.648 13.171 11.75 16.27l4.638 2.635c2.938 1.704 5.721 2.169 8.04 1.239 1.855-.62 3.092-2.169 3.865-4.493l3.247-9.917-.618-.31c-5.257-3.099-10.204-9.762-12.06-16.58-2.937-10.537-10.977-17.51-16.852-17.975-2.938-.31-5.102 1.085-6.339 3.719l-4.948 10.692zm41.281 20.299l3.711 2.169c2.937 1.704 5.72 2.169 8.039 1.24 1.855-.62 3.092-2.17 3.865-4.494l3.093-9.762c-2.938-2.634-6.185-4.339-8.968-4.339-3.092-.155-5.256 1.55-6.339 4.959l-3.401 10.227zM330.244 15.65c3.866 3.564 7.422 8.833 8.813 15.186l21.954 98.55c1.547 7.128 6.649 14.256 12.06 17.51l5.257 3.099c2.783 1.55 5.411 2.17 7.576 1.395 1.7-.465 2.937-1.705 3.865-3.409l4.793-10.227-2.474-1.395c-5.721-3.409-10.668-10.536-12.369-17.819l-21.954-98.55C355.291 9.141 346.633 1.084 340.449.774c-3.093-.155-5.412 1.394-6.494 4.494l-3.711 10.381zm65.091 121.794l2.473 1.395c2.783 1.549 5.412 2.169 7.576 1.394 1.701-.465 2.938-1.704 3.865-3.409l2.165-4.648c-2.474-2.015-5.102-3.099-7.421-3.254-2.938-.31-5.102 1.084-6.339 3.719l-2.319 4.803zm-146.26-30.836l17.78 10.227c2.937 1.705 5.72 2.17 7.885 1.395 1.7-.62 3.092-2.015 3.865-4.184l3.711-10.072-14.224-8.213-19.017 10.847zm33.704-2.789l3.402 1.86c2.937 1.704 5.72 2.169 7.885 1.394 1.701-.62 3.092-2.014 3.865-4.184l31.85-87.239c-2.783-2.479-5.876-3.873-8.349-4.028-3.093-.155-5.412 1.394-6.494 4.493l-32.159 87.704z" fill="#42E8E0"/><path d="M317.566 12.396l-.154-.31L336.738.775l.309.465-19.481 11.156zM419.192 118.164l-19.686 11.38.231.403 19.687-11.38-.232-.403zM479.419 126.169l-20.518 11.795.23.403 20.519-11.795-.231-.403z" fill="#42E8E0"/><path d="M540.512 279.227l-25.51-14.256c-5.721-3.254-10.668-10.227-12.523-17.51l-22.11-91.268c-1.391-5.733-4.483-10.691-8.039-14.1l-3.092 9.452c-.773 2.324-2.165 4.029-4.175 4.803-2.319.93-5.411.465-8.349-1.394l-3.556-2.015-3.246 9.763c-.773 2.324-2.165 4.028-4.175 4.803-2.319.93-5.411.465-8.349-1.394l-4.638-2.635c-5.257-3.099-10.204-9.762-12.06-16.58-1.7-6.198-5.256-11.156-9.121-14.255l-2.165 4.493c-.928 1.86-2.319 3.254-4.02 3.719-2.319.775-5.102.155-8.039-1.395l-2.474-1.394-4.793 10.227c-.928 1.859-2.319 3.254-4.02 3.719-2.319.774-5.102.155-8.04-1.395l-5.256-3.099c-5.721-3.409-10.668-10.537-12.369-17.82l-21.8-98.86c-1.391-6.198-4.793-11.312-8.503-14.876l-31.695 86.929c-.773 2.17-2.165 3.719-4.174 4.494-2.32.93-5.257.31-8.349-1.395l-3.247-1.859-3.556 9.917c-.773 2.169-2.165 3.719-4.175 4.494-2.319.774-5.256.31-8.348-1.395l-18.399-10.692 19.79-11.466h.155l14.378 8.212 32.004-87.549c1.237-3.409 3.711-5.113 6.958-4.958 2.628.155 5.72 1.704 8.503 4.029l3.711-10.382c1.237-3.41 3.71-5.114 6.957-4.959 6.494.465 15.306 8.523 17.78 19.68l21.955 99.17c1.546 7.128 6.648 14.256 12.059 17.51l2.319 1.394 2.165-4.803c1.391-2.945 3.865-4.339 6.957-4.029 2.319.155 4.948 1.394 7.576 3.409l4.947-10.382c1.392-2.944 3.866-4.339 6.958-4.029 6.03.465 14.224 7.593 17.316 18.285 1.855 6.663 6.648 13.171 11.75 16.27l.464.31 3.247-10.072c1.082-3.564 3.556-5.424 6.957-5.269 2.783.155 6.03 1.705 9.122 4.339l3.247-10.227c1.082-3.564 3.556-5.423 6.957-5.268 6.494.309 15.152 8.057 17.935 19.214l22.109 91.268c1.701 7.127 6.648 14.1 12.214 17.199l25.511 14.256-.31.465-25.51-14.256c-5.721-3.254-10.668-10.227-12.523-17.509l-22.109-91.268c-2.629-10.847-11.287-18.595-17.471-18.905h-.309c-2.938 0-5.103 1.705-6.03 4.959l-3.402 10.382c3.711 3.409 6.958 8.522 8.349 14.566l22.109 91.267c1.701 7.128 6.649 14.101 12.214 17.2l25.511 14.256-.155.465zm-128.48-147.206c3.866 3.254 7.576 8.367 9.277 14.72 1.855 6.663 6.648 13.171 11.75 16.27l4.638 2.635c2.938 1.704 5.721 2.169 8.04 1.239 1.855-.62 3.092-2.169 3.865-4.493l3.247-9.917-.618-.31c-5.257-3.099-10.204-9.762-12.06-16.58-2.937-10.537-10.977-17.51-16.852-17.975-2.938-.31-5.102 1.085-6.339 3.719l-4.948 10.692zm41.281 20.299l3.711 2.169c2.937 1.704 5.72 2.169 8.039 1.24 1.855-.62 3.092-2.17 3.865-4.494l3.093-9.762c-2.938-2.634-6.185-4.339-8.968-4.339-3.092-.155-5.256 1.55-6.339 4.959l-3.401 10.227zM330.244 15.65c3.866 3.564 7.422 8.833 8.813 15.186l21.954 98.55c1.547 7.128 6.649 14.256 12.06 17.51l5.257 3.099c2.783 1.55 5.411 2.17 7.576 1.395 1.7-.465 2.937-1.705 3.865-3.409l4.793-10.227-2.474-1.395c-5.721-3.409-10.668-10.536-12.369-17.819l-21.954-98.55C355.291 9.141 346.633 1.084 340.449.774c-3.093-.155-5.412 1.394-6.494 4.494l-3.711 10.381zm65.091 121.794l2.473 1.395c2.783 1.549 5.412 2.169 7.576 1.394 1.701-.465 2.938-1.704 3.865-3.409l2.165-4.648c-2.474-2.015-5.102-3.099-7.421-3.254-2.938-.31-5.102 1.084-6.339 3.719l-2.319 4.803zm-146.26-30.836l17.78 10.227c2.937 1.705 5.72 2.17 7.885 1.395 1.7-.62 3.092-2.015 3.865-4.184l3.711-10.072-14.224-8.213-19.017 10.847zm33.704-2.789l3.402 1.86c2.937 1.704 5.72 2.169 7.885 1.394 1.701-.62 3.092-2.014 3.865-4.184l31.85-87.239c-2.783-2.479-5.876-3.873-8.349-4.028-3.093-.155-5.412 1.394-6.494 4.493l-32.159 87.704z" fill="#42E8E0"/><path opacity=".5" d="M267.937 95.452l18.089 10.537c5.412 3.099 10.204 2.014 12.06-2.945L333.8 5.114c4.02-11.157 20.718-1.085 24.274 14.72l21.954 98.551c1.546 7.283 6.649 14.411 12.214 17.665l5.257 3.099c5.102 2.944 9.741 2.169 11.75-2.17l7.267-15.495c4.484-9.607 19.635-.62 23.655 14.256 1.856 6.818 6.648 13.326 11.905 16.425l4.638 2.634c5.566 3.254 10.514 1.859 12.214-3.254l6.649-20.454c3.71-11.621 20.563-1.859 24.273 13.946l22.109 91.268c1.701 7.128 6.803 14.255 12.369 17.354l25.51 14.256L267.937 95.452z" fill="url(#apaint2_linear)"/><path opacity=".5" d="M248.611 106.298l18.089 10.537c5.411 3.099 10.204 2.015 12.06-2.944l35.714-97.93c4.02-11.157 20.718-1.085 24.274 14.72l21.954 98.551c1.546 7.282 6.648 14.41 12.214 17.664l5.257 3.099c5.102 2.944 9.74 2.17 11.75-2.169l7.267-15.495c4.484-9.607 19.635-.62 23.655 14.255 1.855 6.818 6.648 13.326 11.905 16.425l4.638 2.635c5.566 3.254 10.514 1.859 12.214-3.254l6.649-20.454c3.71-11.622 20.562-1.86 24.273 13.946l22.109 91.267c1.701 7.128 6.803 14.256 12.369 17.355l25.51 14.256-291.901-172.464z" fill="url(#apaint3_linear)"/><path d="M108.845 253.194c-2.474 0-4.793-.464-6.649-1.549L71.584 233.98c-1.855-1.085-2.783-2.479-2.783-4.029 0-1.549.928-2.944 2.783-4.028l30.612-17.665c3.711-2.169 9.586-2.169 13.297 0l30.612 17.665c1.856 1.084 2.783 2.479 2.783 4.028 0 1.55-.927 2.944-2.783 4.029l-30.612 17.665c-1.856.93-4.175 1.549-6.648 1.549zm-6.339-2.014c3.556 2.014 9.276 2.014 12.678 0l30.612-17.665c1.701-.929 2.474-2.169 2.474-3.564 0-1.394-.928-2.634-2.629-3.564l-30.612-17.664c-3.556-2.015-9.277-2.015-12.678 0l-30.612 17.664c-1.701.93-2.474 2.17-2.474 3.564 0 1.395.927 2.635 2.628 3.564l30.613 17.665z" fill="#42E8E0"/><path d="M200.682 198.031l19.945-118.54-1.546-.62 2.473-1.394c.464-.31 1.083-.31 1.856.155l159.247 92.197c1.237.775 2.319 2.634 2.01 4.029l-20.1 119.469c-.154.62-.463 1.085-.773 1.24l-2.319 1.394-.464-2.169h.155l-158.319-91.578c-1.392-.929-2.474-2.944-2.165-4.183z" fill="url(#apaint4_linear)"/><path d="M381.574 172.928l2.629-1.084c.309.619.464 1.394.309 2.014l-20.099 119.469c-.155.62-.464 1.085-.773 1.24l-2.319 1.394-.464-2.169h.154l-8.039-4.649 28.602-116.215z" fill="url(#apaint5_linear)"/><path d="M200.218 203.454l159.247 92.198c1.237.774 2.32.309 2.474-.93l20.099-119.47c.155-1.394-.773-3.254-2.01-4.028L220.781 79.026c-1.237-.775-2.319-.31-2.473.93l-20.1 119.469c-.309 1.395.774 3.254 2.01 4.029z" fill="#1B2546"/><path d="M100.186 260.012l8.659 4.494 87.199-50.36c1.391-.775 4.02-.775 5.72.31l150.28 86.929c1.392-.775 8.04-4.029 8.04-4.029l-3.247 5.114c-.155.31-.464.774-.928.929l-91.837 53.15c-1.392.774-4.02.774-5.721-.31l-153.835-88.944c-.619-.465-1.083-.93-1.237-1.394l-3.093-5.889z" fill="url(#apaint6_linear)"/><path d="M101.424 261.407l157.546 91.268c1.701.929 4.329 1.084 5.876.309l94.002-54.388c1.546-.93 1.237-2.325-.464-3.409l-157.392-91.268c-1.701-.93-4.329-1.085-5.875-.31l-94.002 54.389c-1.546.93-1.392 2.479.309 3.409z" fill="url(#apaint7_linear)"/><path d="M101.423 260.787l157.547 91.268c1.7.929 4.329 1.084 5.875.31l94.002-54.389c.464-.31.773-.62.928-1.085.154.62-.155 1.395-.928 1.86l-94.002 54.388c-1.546.93-4.175.775-5.875-.31l-157.547-91.422c-1.082-.62-1.546-1.55-1.391-2.324.154.619.618 1.239 1.391 1.704z" fill="#fff"/><g opacity=".15"><g opacity=".15"><path opacity=".15" d="M200.064 202.679l8.658 4.494 87.199-50.36c1.392-.775 4.02-.775 5.721.31l150.279 86.929c1.392-.775 8.04-4.029 8.04-4.029l-3.247 5.114c-.154.31-.464.774-.927.929l-91.838 53.15c-1.391.774-4.02.774-5.721-.31l-153.835-88.944c-.619-.465-1.082-.93-1.237-1.394l-3.092-5.889z" fill="url(#apaint8_linear)"/><path opacity=".15" d="M201.455 204.074l157.547 91.267c1.7.93 4.329 1.085 5.875.31l94.002-54.389c1.546-.929 1.237-2.324-.464-3.409l-157.546-91.267c-1.701-.93-4.329-1.085-5.875-.31l-94.003 54.389c-1.546.929-1.391 2.479.464 3.409z" fill="url(#apaint9_linear)"/><path opacity=".15" d="M458.415 237.699l-157.546-91.113c-1.083-.62-2.629-.93-3.866-.775.928 0 2.01.31 2.783.775l157.547 91.268c1.7.929 1.855 2.479.464 3.409l-94.003 54.388c-.463.31-1.236.465-2.01.62 1.083.155 2.32-.155 3.093-.62l94.002-54.388c1.546-.93 1.391-2.48-.464-3.564z" fill="#fff"/></g><g opacity=".5" fill="#24126A"><path opacity=".5" d="M284.016 188.423l-5.102-2.944c-.464-.31-1.082-.155-1.546 0l-5.566 3.254c-.464.31-.464.62 0 .93l5.102 2.944c.464.31 1.083.155 1.546 0l5.566-3.254c.31-.31.31-.775 0-.93zM291.747 192.917l-5.102-2.944c-.464-.31-1.083-.155-1.546 0l-5.566 3.254c-.464.31-.464.62 0 .93l5.102 2.944c.464.31 1.082.155 1.546 0l5.566-3.254c.464-.31.464-.62 0-.93zM299.632 197.411l-5.102-2.944c-.464-.31-1.083-.155-1.546 0l-5.566 3.254c-.464.309-.464.619 0 .929l5.102 2.944c.464.31 1.082.155 1.546 0l5.566-3.254c.309-.31.309-.619 0-.929zM293.602 203.454l-5.102-2.944c-.464-.31-1.082-.155-1.546 0l-4.638 2.789c-.464.31-.464.62 0 .93l5.102 2.944c.464.31 1.082.155 1.546 0l4.638-2.789c.464-.31.464-.775 0-.93zM301.487 207.948l-5.102-2.945c-.464-.31-1.082-.155-1.546 0l-4.638 2.79c-.464.309-.464.619 0 .929l5.102 2.944c.464.31 1.082.155 1.546 0l4.638-2.789c.309-.31.309-.62 0-.929zM309.218 212.441l-5.103-2.944c-.463-.31-1.082-.155-1.546 0l-4.638 2.789c-.464.31-.464.62 0 .93l5.102 2.944c.464.31 1.082.155 1.546 0l4.639-2.789c.309-.31.463-.62 0-.93zM317.103 216.935L312 213.991c-.463-.31-1.082-.155-1.546 0l-4.638 2.789c-.464.31-.464.62 0 .93l5.102 2.944c.464.31 1.082.155 1.546 0l4.639-2.789c.309-.31.309-.62 0-.93zM324.833 221.583l-5.102-2.944c-.464-.31-1.082-.155-1.546 0l-4.638 2.789c-.464.31-.464.62 0 .93l5.102 2.944c.464.31 1.082.155 1.546 0l4.638-2.789c.309-.31.464-.775 0-.93zM332.563 226.077l-5.102-2.944c-.463-.31-1.082-.155-1.546 0l-4.638 2.789c-.464.31-.464.62 0 .93l5.102 2.944c.464.31 1.082.155 1.546 0l4.638-2.789c.464-.31.464-.775 0-.93zM340.449 230.571l-5.103-2.944c-.463-.31-1.082-.155-1.546 0l-4.638 2.789c-.464.31-.464.62 0 .93l5.102 2.944c.464.31 1.082.155 1.546 0l4.639-2.789c.309-.31.463-.775 0-.93zM348.179 235.064l-5.102-2.944c-.464-.31-1.082-.155-1.546 0l-4.638 2.789c-.464.31-.464.62 0 .93l5.102 2.944c.463.31 1.082.155 1.546 0l4.638-2.789c.464-.31.464-.775 0-.93zM356.064 239.558l-5.102-2.944c-.464-.31-1.082-.155-1.546 0l-4.638 2.789c-.464.31-.464.62 0 .93l5.102 2.944c.463.31 1.082.155 1.546 0l4.638-2.789c.309-.31.309-.62 0-.93zM363.794 244.052l-5.102-2.944c-.463-.31-1.082-.155-1.546 0l-4.638 2.789c-.464.31-.464.62 0 .93l5.102 2.944c.464.31 1.082.155 1.546 0l4.638-2.79c.464-.309.464-.619 0-.929zM290.355 209.962l-5.102-2.944c-.464-.31-1.082-.155-1.546 0l-4.638 2.789c-.464.31-.464.62 0 .93l5.102 2.944c.464.31 1.082.155 1.546 0l4.638-2.789c.464-.31.464-.775 0-.93zM282.47 205.313l-5.102-2.944c-.464-.31-1.082-.155-1.546 0l-4.638 2.789c-.464.31-.464.62 0 .93l5.102 2.944c.464.31 1.082.155 1.546 0l4.638-2.789c.309-.31.309-.62 0-.93zM274.585 200.665l-10.822-6.354c-.464-.309-1.083-.154-1.547 0l-4.638 2.79c-.464.31-.464.619 0 .929l10.823 6.353c.464.31 1.082.155 1.546 0l4.638-2.789c.309-.31.309-.619 0-.929zM265.309 203.764l-8.813-5.114c-.464-.31-1.082-.155-1.546 0l-4.638 2.79c-.464.309-.464.619 0 .929l8.812 5.114c.464.31 1.083.155 1.546 0l4.639-2.789c.309-.31.463-.775 0-.93zM298.24 214.456l-5.102-2.945c-.464-.309-1.082-.155-1.546 0l-4.638 2.79c-.464.31-.464.619 0 .929l5.102 2.944c.464.31 1.082.155 1.546 0l4.638-2.789c.309-.31.309-.774 0-.929zM305.971 218.949l-5.102-2.944c-.464-.31-1.083-.155-1.546 0l-4.639 2.789c-.464.31-.464.62 0 .93l5.102 2.944c.464.31 1.083.155 1.546 0l4.639-2.789c.309-.31.464-.775 0-.93zM313.701 223.443l-5.102-2.944c-.464-.31-1.082-.155-1.546 0l-4.638 2.789c-.464.31-.464.62 0 .93l5.102 2.944c.464.31 1.082.155 1.546 0l4.638-2.789c.464-.31.464-.775 0-.93zM321.586 227.937l-5.102-2.945c-.464-.31-1.082-.155-1.546 0l-4.638 2.79c-.464.309-.464.619 0 .929l5.102 2.944c.464.31 1.082.155 1.546 0l4.638-2.789c.309-.31.464-.62 0-.929zM329.317 232.43l-5.102-2.944c-.464-.31-1.083-.155-1.546 0l-4.639 2.789c-.464.31-.464.62 0 .93l5.102 2.944c.464.31 1.083.155 1.546 0l4.639-2.789c.464-.31.464-.62 0-.93zM337.202 236.924l-5.102-2.944c-.464-.31-1.083-.155-1.546 0l-4.639 2.789c-.464.31-.464.62 0 .93l5.102 2.944c.464.31 1.083.155 1.546 0l4.639-2.789c.309-.31.464-.62 0-.93zM344.932 241.572l-5.102-2.944c-.464-.31-1.082-.155-1.546 0l-4.638 2.79c-.464.309-.464.619 0 .929l5.102 2.944c.464.31 1.082.155 1.546 0l4.638-2.789c.464-.31.464-.775 0-.93zM352.817 246.066l-5.102-2.944c-.464-.31-1.082-.155-1.546 0l-4.638 2.789c-.464.31-.464.62 0 .93l5.102 2.944c.464.31 1.082.155 1.546 0l4.638-2.789c.309-.31.309-.775 0-.93zM360.548 250.56l-5.102-2.944c-.464-.31-1.083-.155-1.547 0l-4.638 2.789c-.464.31-.464.62 0 .93l5.102 2.944c.464.31 1.083.155 1.546 0l4.639-2.789c.463-.31.463-.775 0-.93zM374.462 258.617l-10.977-6.353c-.464-.31-1.082-.155-1.546 0l-4.638 2.79c-.464.309-.464.619 0 .929l10.977 6.353c.464.31 1.082.155 1.546 0l4.638-2.789c.31-.31.464-.775 0-.93zM360.084 266.985l-9.277-5.424c-.464-.309-1.082-.154-1.546 0l-4.638 2.79c-.464.31-.464.619 0 .929l9.276 5.424c.464.31 1.083.155 1.547 0l4.638-2.789c.464-.31.464-.775 0-.93zM297.158 222.048l-5.102-2.944c-.464-.31-1.082-.155-1.546 0l-4.638 2.789c-.464.31-.464.62 0 .93l5.102 2.944c.464.31 1.082.155 1.546 0l4.638-2.789c.309-.31.309-.62 0-.93zM289.118 217.555l-5.102-2.944c-.464-.31-1.082-.155-1.546 0l-4.638 2.789c-.464.31-.464.62 0 .929l5.102 2.945c.464.309 1.082.155 1.546 0l4.638-2.79c.31-.31.31-.774 0-.929zM281.079 212.906l-5.102-2.944c-.464-.31-1.083-.155-1.546 0l-4.639 2.789c-.463.31-.463.62 0 .93l5.102 2.944c.464.31 1.083.155 1.547 0l4.638-2.789c.464-.31.464-.775 0-.93zM273.039 208.257l-5.102-2.944c-.464-.31-1.082-.155-1.546 0l-4.638 2.789c-.464.31-.464.62 0 .93l5.102 2.944c.464.31 1.082.155 1.546 0l4.638-2.789c.464-.31.464-.775 0-.93zM304.888 226.697l-5.102-2.944c-.463-.31-1.082-.155-1.546 0l-4.638 2.789c-.464.31-.464.62 0 .93l5.102 2.944c.464.31 1.082.155 1.546 0l4.638-2.789c.31-.31.464-.775 0-.93zM312.619 231.191l-5.102-2.944c-.464-.31-1.082-.155-1.546 0l-4.639 2.789c-.463.31-.463.62 0 .929l5.103 2.945c.463.309 1.082.155 1.546 0l4.638-2.79c.464-.31.464-.774 0-.929zM320.504 235.684l-5.102-2.944c-.464-.31-1.082-.155-1.546 0l-4.639 2.789c-.463.31-.463.62 0 .93l5.103 2.944c.463.31 1.082.155 1.546 0l4.638-2.789c.309-.31.464-.775 0-.93zM328.234 240.178l-5.102-2.944c-.464-.31-1.082-.155-1.546 0l-4.638 2.789c-.464.31-.464.62 0 .929l5.102 2.945c.464.31 1.082.155 1.546 0l4.638-2.79c.464-.309.464-.774 0-.929zM336.119 244.672l-5.102-2.944c-.463-.31-1.082-.155-1.546 0l-4.638 2.789c-.464.31-.464.619 0 .929l5.102 2.945c.464.309 1.082.155 1.546 0l4.638-2.79c.31-.31.464-.619 0-.929zM343.85 249.165l-5.102-2.944c-.464-.31-1.082-.155-1.546 0l-4.639 2.789c-.463.31-.463.62 0 .93l5.103 2.944c.463.31 1.082.155 1.546 0l4.638-2.789c.464-.31.464-.62 0-.93zM351.735 253.659l-5.102-2.944c-.464-.31-1.082-.155-1.546 0l-4.639 2.789c-.463.31-.463.62 0 .93l5.103 2.944c.463.31 1.082.155 1.546 0l4.638-2.789c.309-.31.309-.62 0-.93zM359.465 258.153l-5.102-2.945c-.464-.309-1.082-.154-1.546 0l-4.638 2.79c-.464.31-.464.619 0 .929l5.102 2.944c.464.31 1.082.155 1.546 0l4.638-2.789c.464-.155.464-.619 0-.929zM367.35 262.801l-5.102-2.944c-.463-.31-1.082-.155-1.546 0l-4.638 2.789c-.464.31-.464.62 0 .93l5.102 2.944c.464.31 1.082.155 1.546 0l4.638-2.789c.31-.31.31-.775 0-.93zM278.296 219.569l-5.102-2.944c-.464-.31-1.083-.155-1.546 0l-4.639 2.789c-.463.31-.463.62 0 .93l5.102 2.944c.464.31 1.083.155 1.547 0l4.638-2.789c.309-.31.309-.775 0-.93zM270.411 215.075l-5.102-2.944c-.464-.31-1.083-.155-1.546 0l-4.639 2.789c-.464.31-.464.62 0 .93l5.102 2.944c.464.31 1.083.155 1.546 0l4.639-2.789c.464-.31.464-.775 0-.93zM262.68 210.582l-5.102-2.944c-.464-.31-1.082-.155-1.546 0l-4.638 2.789c-.464.31-.464.62 0 .93l5.102 2.944c.464.31 1.082.155 1.546 0l4.638-2.789c.464-.31.464-.775 0-.93zM254.95 206.088l-5.102-2.944c-.464-.31-1.082-.155-1.546 0l-4.639 2.789c-.463.31-.463.62 0 .93l5.103 2.944c.463.31 1.082.155 1.546 0l4.638-2.789c.309-.31.464-.775 0-.93zM247.374 210.427l-5.102-2.944c-.464-.31-1.082-.155-1.546 0l-1.546.929c-.464.31-.464.62 0 .93l5.102 2.944c.464.31 1.082.155 1.546 0l1.546-.93c.464-.309.464-.619 0-.929zM257.578 216.315l-5.102-2.944c-.464-.31-1.082-.155-1.546 0l-1.546.93c-.464.309-.464.619 0 .929l5.102 2.944c.464.31 1.082.155 1.546 0l1.546-.929c.309-.31.309-.775 0-.93zM265.309 220.809l-5.102-2.945c-.464-.309-1.083-.154-1.547 0l-1.546.93c-.463.31-.463.62 0 .93l5.102 2.944c.464.31 1.083.155 1.547 0l1.546-.93c.309-.31.309-.774 0-.929zM273.039 225.302l-5.102-2.944c-.464-.31-1.082-.155-1.546 0l-1.546.93c-.464.31-.464.62 0 .93l5.102 2.944c.464.31 1.082.155 1.546 0l1.546-.93c.309-.31.464-.775 0-.93zM280.77 229.796l-5.103-2.944c-.463-.31-1.082-.155-1.546 0l-1.546.93c-.464.309-.464.619 0 .929l5.102 2.944c.464.31 1.083.155 1.546 0l1.547-.929c.309-.31.463-.775 0-.93zM323.905 254.744l-5.102-2.944c-.464-.31-1.082-.155-1.546 0l-1.546.929c-.464.31-.464.62 0 .93l5.102 2.944c.464.31 1.082.155 1.546 0l1.546-.93c.31-.31.464-.774 0-.929zM331.636 259.237l-5.102-2.944c-.464-.31-1.083-.155-1.546 0l-1.547.93c-.463.31-.463.62 0 .93l5.103 2.944c.463.31 1.082.155 1.546 0l1.546-.93c.464-.31.464-.775 0-.93zM339.366 263.731l-5.102-2.944c-.464-.31-1.082-.155-1.546 0l-1.546.93c-.464.309-.464.619 0 .929l5.102 2.944c.464.31 1.082.155 1.546 0l1.546-.929c.464-.31.464-.775 0-.93zM347.097 268.069l-5.102-2.944c-.464-.31-1.083-.155-1.546 0l-1.547.93c-.463.31-.463.62 0 .93l5.103 2.944c.463.31 1.082.155 1.546 0l1.546-.93c.464-.31.464-.62 0-.93zM286.026 224.063l-5.102-2.944c-.464-.31-1.082-.155-1.546 0l-4.638 2.789c-.464.31-.464.62 0 .93l5.102 2.944c.464.31 1.082.155 1.546 0l4.638-2.79c.464-.309.464-.774 0-.929zM293.911 228.556l-5.102-2.944c-.464-.31-1.082-.155-1.546 0l-4.638 2.789c-.464.31-.464.62 0 .93l5.102 2.944c.464.31 1.082.155 1.546 0l4.638-2.789c.309-.31.309-.775 0-.93zM301.642 233.05l-5.102-2.944c-.464-.31-1.083-.155-1.546 0l-4.639 2.789c-.464.31-.464.62 0 .93l5.102 2.944c.464.31 1.083.155 1.546 0l4.639-2.789c.309-.31.464-.62 0-.93zM309.372 237.544l-5.102-2.944c-.464-.31-1.082-.155-1.546 0l-4.638 2.789c-.464.31-.464.62 0 .929l5.102 2.945c.464.309 1.082.155 1.546 0l4.638-2.79c.464-.309.464-.619 0-.929zM317.257 242.037l-5.102-2.944c-.464-.31-1.082-.155-1.546 0l-4.638 2.789c-.464.31-.464.62 0 .93l5.102 2.944c.464.31 1.082.155 1.546 0l4.638-2.789c.309-.31.464-.62 0-.93zM324.988 246.686l-5.102-2.944c-.464-.31-1.083-.155-1.547 0l-4.638 2.789c-.464.31-.464.62 0 .93l5.102 2.944c.464.31 1.083.155 1.546 0l4.639-2.789c.463-.31.463-.775 0-.93zM332.873 251.18l-5.102-2.944c-.464-.31-1.083-.155-1.547 0l-4.638 2.789c-.464.31-.464.62 0 .929l5.102 2.945c.464.309 1.083.155 1.546 0l4.639-2.79c.309-.31.309-.774 0-.929zM340.603 255.673l-5.102-2.944c-.464-.31-1.082-.155-1.546 0l-4.638 2.789c-.464.31-.464.62 0 .93l5.102 2.944c.464.31 1.082.155 1.546 0l4.638-2.789c.464-.31.464-.775 0-.93zM348.488 260.167l-5.102-2.944c-.464-.31-1.082-.155-1.546 0l-4.638 2.789c-.464.31-.464.62 0 .93l5.102 2.944c.464.31 1.082.155 1.546 0l4.638-2.789c.309-.31.309-.775 0-.93zM285.717 198.805l-14.842-8.677c-.464-.31-1.083-.155-1.547 0l-4.638 2.789c-.464.31-.464.62 0 .93l14.843 8.677c.463.31 1.082.155 1.546 0l4.638-2.789c.309-.31.309-.62 0-.93zM381.574 254.279l-14.842-8.678c-.464-.31-1.082-.155-1.546 0l-4.638 2.789c-.464.31-.464.62 0 .93l14.842 8.678c.464.31 1.082.155 1.546 0l4.638-2.79c.31-.309.31-.619 0-.929zM367.041 236.459l-5.102-2.944c-.464-.31-1.082-.155-1.546 0l-5.566 3.254c-.464.31-.464.62 0 .93l5.102 2.944c.464.31 1.082.155 1.546 0l5.566-3.254c.464-.31.464-.62 0-.93zM310.454 203.764l-8.039-4.649c-.464-.31-1.083-.155-1.546 0l-5.566 3.254c-.464.31-.464.62 0 .93l8.039 4.649c.464.309 1.083.155 1.546 0l5.566-3.254c.31-.31.31-.775 0-.93zM359.465 232.12l-8.039-4.648c-.464-.31-1.083-.155-1.546 0l-5.566 3.254c-.464.31-.464.619 0 .929l8.039 4.649c.464.31 1.083.155 1.546 0l5.566-3.254c.464-.31.464-.62 0-.93zM321.586 210.272l-8.039-4.649c-.464-.31-1.083-.155-1.547 0l-5.565 3.254c-.464.31-.464.62 0 .93l8.039 4.649c.464.31 1.082.155 1.546 0l5.566-3.254c.464-.31.464-.775 0-.93z"/><path opacity=".5" d="M306.435 209.807l35.096 20.299c.464.31 1.082.31 1.546 0l5.72-3.409c.464-.31.464-.62 0-.93l-35.096-20.299-7.266 4.339zM381.42 249.01l5.566 3.254c.309.155.927.155 1.237 0l2.319-1.394c.309-.155.309-.465 0-.775l-5.566-3.254c-.309-.155-.928-.155-1.237 0l-2.319 1.394c-.309.31-.309.62 0 .775zM373.535 244.517l5.566 3.254c.309.154.927.154 1.237 0l2.319-1.395c.309-.155.309-.465 0-.775l-5.566-3.254c-.309-.155-.928-.155-1.237 0l-2.319 1.395c-.309.155-.309.465 0 .775zM365.804 239.868l5.566 3.254c.309.155.928.155 1.237 0l2.319-1.394c.31-.155.31-.465 0-.775l-5.566-3.254c-.309-.155-.927-.155-1.237 0l-2.319 1.394c-.309.31-.309.62 0 .775zM369.515 246.841l5.566 3.254c.309.155.928.155 1.237 0l2.319-1.395c.309-.155.309-.464 0-.774l-5.566-3.254c-.309-.155-.928-.155-1.237 0l-2.319 1.394c-.309.31-.309.62 0 .775z"/></g></g><g opacity=".8" fill="#24126A"><path opacity=".8" d="M173.935 251.335l-4.948-2.944c-.463-.31-.309-.62.155-.93l5.875-3.409c.464-.31 1.237-.31 1.546 0l4.948 2.944c.464.155.309.62-.155.93l-5.875 3.409c-.309.155-1.082.155-1.546 0zM181.665 255.828l-4.947-2.944c-.464-.31-.309-.619.154-.929l5.876-3.409c.463-.31 1.236-.31 1.546 0l4.947 2.944c.464.31.309.62-.154.929l-5.876 3.409a2.628 2.628 0 01-1.546 0zM189.396 260.322l-4.948-2.944c-.464-.31-.309-.62.155-.929l5.875-3.409c.464-.31 1.237-.31 1.546 0l4.948 2.944c.463.31.309.619-.155.929l-5.875 3.409a2.628 2.628 0 01-1.546 0zM200.064 256.603l-4.948-2.944c-.464-.31-.309-.62.155-.929l4.947-2.945c.464-.309 1.237-.309 1.546 0l4.948 2.945c.464.155.309.619-.155.929l-4.947 2.944c-.309.155-1.082.155-1.546 0zM207.794 261.097l-4.947-2.944c-.464-.155-.31-.62.154-.93l4.948-2.944c.464-.31 1.237-.31 1.546 0l4.947 2.944c.464.31.31.62-.154.93l-4.948 2.944c-.309.155-1.082.155-1.546 0zM215.525 265.436l-4.948-2.944c-.464-.155-.309-.62.155-.93l4.947-2.944c.464-.31 1.237-.31 1.546 0l4.948 2.944c.464.155.309.62-.155.93l-4.947 2.944c-.309.31-1.083.31-1.546 0zM223.255 269.929l-4.947-2.944c-.464-.31-.31-.62.154-.93l4.948-2.944c.463-.31 1.237-.31 1.546 0l4.947 2.944c.464.155.309.62-.154.93l-4.948 2.944c-.309.31-1.082.31-1.546 0zM230.985 274.423l-4.947-2.944c-.464-.31-.309-.62.155-.93l4.947-2.944c.464-.31 1.237-.31 1.546 0l4.948 2.944c.463.31.309.62-.155.93l-4.947 2.944c-.31.31-1.083.31-1.547 0zM238.716 278.917l-4.948-2.944c-.463-.31-.309-.62.155-.93l4.948-2.944c.463-.31 1.236-.31 1.546 0l4.947 2.944c.464.31.309.62-.154.93l-4.948 2.944c-.309.155-1.082.31-1.546 0zM246.446 283.41l-4.947-2.944c-.464-.31-.309-.62.155-.93l4.947-2.944c.464-.31 1.237-.31 1.546 0l4.948 2.944c.463.31.309.62-.155.93l-4.948 2.944a2.628 2.628 0 01-1.546 0zM254.177 287.904l-4.948-2.944c-.463-.31-.309-.62.155-.93l4.947-2.944c.464-.31 1.237-.31 1.547 0l4.947 2.944c.464.31.309.62-.155.93l-4.947 2.944a2.628 2.628 0 01-1.546 0zM261.907 292.398l-4.947-2.945c-.464-.309-.309-.619.154-.929l4.948-2.944c.464-.31 1.237-.31 1.546 0l4.947 2.944c.464.31.31.62-.154.929l-4.948 2.945a2.628 2.628 0 01-1.546 0zM269.638 296.736l-4.948-2.944c-.464-.155-.309-.62.155-.93l4.947-2.944c.464-.31 1.237-.31 1.546 0l4.948 2.944c.464.31.309.62-.155.93l-4.947 2.944c-.464.31-1.082.31-1.546 0zM211.505 254.434l-4.948-2.944c-.463-.155-.309-.62.155-.93l4.947-2.944c.464-.31 1.237-.31 1.546 0l4.948 2.944c.464.155.309.62-.155.93l-4.947 2.944c-.464.155-1.082.31-1.546 0zM203.62 249.94l-4.948-2.944c-.464-.31-.309-.62.155-.93l4.947-2.944c.464-.31 1.237-.31 1.546 0l4.948 2.944c.464.155.309.62-.155.93l-4.947 2.944c-.309.155-1.082.155-1.546 0zM195.889 245.292l-10.822-6.198c-.464-.31-.31-.62.154-.93l4.948-2.944c.464-.31 1.237-.31 1.546 0l10.822 6.198c.464.31.31.62-.154.93l-4.948 2.944c-.463.31-1.236.31-1.546 0zM201.301 239.868l-8.813-5.113c-.464-.155-.309-.62.155-.93l4.947-2.944c.464-.31 1.237-.31 1.546 0l8.813 5.114c.464.309.309.619-.155.929l-4.947 2.944a2.628 2.628 0 01-1.546 0zM219.235 258.928l-4.947-2.945c-.464-.309-.309-.619.154-.929l4.948-2.944c.464-.31 1.237-.31 1.546 0l4.947 2.944c.464.155.31.62-.154.929l-4.948 2.945a2.628 2.628 0 01-1.546 0zM226.966 263.421l-4.948-2.944c-.464-.31-.309-.62.155-.93l4.947-2.944c.464-.31 1.237-.31 1.546 0l4.948 2.944c.464.31.309.62-.155.93l-4.947 2.944a2.628 2.628 0 01-1.546 0zM234.696 267.915l-4.947-2.944c-.464-.31-.31-.62.154-.93l4.948-2.944c.464-.31 1.237-.31 1.546 0l4.947 2.944c.464.31.31.62-.154.93l-4.948 2.944a2.628 2.628 0 01-1.546 0zM242.427 272.409l-4.948-2.945c-.464-.155-.309-.619.155-.929l4.947-2.944c.464-.31 1.237-.31 1.546 0l4.948 2.944c.464.31.309.62-.155.929l-4.947 2.945a2.628 2.628 0 01-1.546 0zM250.157 276.747l-4.947-2.944c-.464-.155-.31-.62.154-.93l4.948-2.944c.463-.31 1.236-.31 1.546 0l4.947 2.944c.464.155.309.62-.154.93l-4.948 2.944c-.464.31-1.082.31-1.546 0zM257.887 281.241l-4.947-2.944c-.464-.31-.309-.62.155-.93l4.947-2.944c.464-.31 1.237-.31 1.546 0l4.948 2.944c.464.155.309.62-.155.93l-4.947 2.944c-.464.31-1.083.31-1.547 0zM265.618 285.735l-4.948-2.944c-.463-.155-.309-.62.155-.93l4.948-2.944c.463-.31 1.236-.31 1.546 0l4.947 2.944c.464.31.309.62-.155.93l-4.947 2.944c-.464.155-1.082.31-1.546 0zM273.348 290.228l-4.947-2.944c-.464-.155-.309-.62.155-.93l4.947-2.944c.464-.31 1.237-.31 1.546 0l4.947 2.944c.464.155.31.62-.154.93l-4.948 2.944a2.628 2.628 0 01-1.546 0zM281.079 294.722l-4.948-2.944c-.464-.31-.309-.62.155-.93l4.947-2.944c.464-.31 1.237-.31 1.546 0l4.948 2.944c.464.155.309.62-.155.93l-4.947 2.944a2.628 2.628 0 01-1.546 0zM294.839 302.625l-10.977-6.353c-.464-.31-.309-.62.154-.93l4.948-2.944c.464-.31 1.237-.31 1.546 0l10.977 6.353c.464.155.309.62-.154.93l-4.948 2.944c-.464.155-1.237.31-1.546 0zM309.836 293.947l-9.277-5.268c-.463-.155-.309-.62.155-.93l4.948-2.944c.463-.31 1.236-.31 1.546 0l9.276 5.268c.464.155.309.62-.154.93l-4.948 2.944a2.628 2.628 0 01-1.546 0zM232.841 257.998l-4.948-2.944c-.463-.31-.309-.62.155-.93l4.947-2.944c.464-.31 1.237-.31 1.547 0l4.947 2.944c.464.155.309.62-.155.93l-4.947 2.944c-.464.31-1.237.31-1.546 0zM224.801 253.504l-4.947-2.944c-.464-.155-.31-.62.154-.93l4.948-2.944c.464-.31 1.237-.31 1.546 0l4.947 2.944c.464.155.31.62-.154.93l-4.948 2.944c-.309.155-1.082.155-1.546 0zM216.916 248.856l-4.947-2.945c-.464-.309-.31-.619.154-.929l4.948-2.944c.464-.31 1.237-.31 1.546 0l4.947 2.944c.464.155.31.62-.154.929l-4.948 2.945c-.464.155-1.082.309-1.546 0zM209.031 244.362l-4.947-2.944c-.464-.31-.31-.62.154-.93l4.948-2.944c.464-.31 1.237-.31 1.546 0l4.947 2.944c.464.31.309.62-.154.93l-4.948 2.944a2.628 2.628 0 01-1.546 0zM240.571 262.492l-4.947-2.945c-.464-.309-.309-.619.154-.929l4.948-2.944c.464-.31 1.237-.31 1.546 0l4.947 2.944c.464.31.31.62-.154.929l-4.948 2.945c-.463.155-1.237.309-1.546 0zM248.302 266.985l-4.948-2.944c-.464-.31-.309-.62.155-.93l4.947-2.944c.464-.31 1.237-.31 1.546 0l4.948 2.944c.464.31.309.62-.155.93l-4.947 2.944c-.464.155-1.237.31-1.546 0zM256.032 271.479l-4.947-2.944c-.464-.31-.31-.62.154-.93l4.948-2.944c.464-.31 1.237-.31 1.546 0l4.947 2.944c.464.31.31.62-.154.93l-4.948 2.944c-.464.155-1.237.155-1.546 0zM263.763 275.972l-4.948-2.944c-.464-.155-.309-.619.155-.929l4.947-2.944c.464-.31 1.237-.31 1.546 0l4.948 2.944c.464.31.309.619-.155.929l-4.947 2.944c-.464.155-1.237.155-1.546 0zM271.493 280.466l-4.948-2.944c-.463-.155-.309-.62.155-.93l4.948-2.944c.463-.31 1.236-.31 1.546 0l4.947 2.944c.464.155.309.62-.154.93l-4.948 2.944c-.464.155-1.237.155-1.546 0zM279.069 284.805l-4.948-2.944c-.463-.31-.309-.62.155-.93l4.948-2.944c.463-.31 1.236-.31 1.546 0l4.947 2.944c.464.155.309.62-.155.93l-4.947 2.944c-.309.31-1.082.31-1.546 0zM286.799 289.299l-4.947-2.944c-.464-.155-.309-.62.154-.93l4.948-2.944c.464-.31 1.237-.31 1.546 0l4.947 2.944c.464.31.31.62-.154.93l-4.948 2.944c-.309.31-1.082.31-1.546 0zM294.53 293.792l-4.948-2.944c-.464-.155-.309-.62.155-.93l4.947-2.944c.464-.31 1.237-.31 1.546 0l4.948 2.944c.464.155.309.62-.155.93l-4.947 2.944c-.309.155-1.082.31-1.546 0zM302.26 298.286l-4.947-2.944c-.464-.31-.31-.62.154-.93l4.948-2.944c.464-.31 1.237-.31 1.546 0l4.947 2.944c.464.155.31.62-.154.93l-4.948 2.944c-.309.155-1.082.31-1.546 0zM228.666 246.996l-4.947-2.944c-.464-.31-.309-.62.155-.93l4.947-2.944c.464-.31 1.237-.31 1.546 0l4.948 2.944c.463.31.309.62-.155.93l-4.948 2.944a2.628 2.628 0 01-1.546 0zM221.091 242.503l-4.948-2.945c-.464-.309-.309-.619.155-.929l4.947-2.944c.464-.31 1.237-.31 1.546 0l4.948 2.944c.464.31.309.62-.155.929l-4.947 2.945c-.464.309-1.237.309-1.546 0zM213.36 238.164l-4.947-2.944c-.464-.31-.31-.62.154-.93l4.948-2.944c.464-.31 1.237-.31 1.546 0l4.947 2.944c.464.31.31.62-.154.93l-4.948 2.944c-.464.155-1.237.155-1.546 0zM205.63 233.67l-4.948-2.944c-.464-.31-.309-.62.155-.93l4.947-2.944c.464-.31 1.237-.31 1.546 0l4.948 2.944c.464.31.309.62-.155.93l-4.947 2.944a2.628 2.628 0 01-1.546 0zM213.515 229.022l-4.948-2.945c-.464-.309-.309-.619.155-.929l1.701-.93c.463-.31 1.236-.31 1.546 0l4.947 2.944c.464.31.309.62-.155.93l-1.7.93c-.464.31-1.082.31-1.546 0zM223.564 234.91l-4.947-2.944c-.464-.155-.309-.62.154-.93l1.701-.93c.464-.31 1.237-.31 1.546 0l4.948 2.944c.464.155.309.62-.155.93l-1.701.93a2.628 2.628 0 01-1.546 0zM231.295 239.249l-4.948-2.944c-.464-.155-.309-.62.155-.93l1.701-.93c.463-.31 1.236-.31 1.546 0l4.947 2.944c.464.31.309.62-.154.93l-1.701.93c-.464.31-1.237.31-1.546 0zM238.871 243.742l-4.948-2.944c-.464-.31-.309-.62.155-.93l1.7-.93c.464-.309 1.237-.309 1.547 0l4.947 2.945c.464.31.309.619-.155.929l-1.7.93a2.628 2.628 0 01-1.546 0zM246.601 248.236l-4.947-2.944c-.464-.155-.31-.62.154-.93l1.701-.93c.464-.31 1.237-.31 1.546 0l4.947 2.944c.464.31.31.62-.154.93l-1.701.93c-.464.155-1.237.155-1.546 0zM289.273 272.873l-4.947-2.944c-.464-.31-.31-.62.154-.929l1.701-.93c.464-.31 1.237-.31 1.546 0l4.947 2.944c.464.31.31.62-.154.93l-1.701.929c-.464.155-1.082.31-1.546 0zM297.003 277.367l-4.947-2.944c-.464-.31-.309-.62.155-.93l1.7-.93c.464-.309 1.237-.309 1.546 0l4.948 2.945c.464.31.309.619-.155.929l-1.7.93c-.464.155-1.237.155-1.547 0zM304.579 281.706l-4.947-2.944c-.464-.155-.309-.62.154-.93l1.701-.93c.464-.31 1.237-.31 1.546 0l4.948 2.944c.463.155.309.62-.155.93l-1.701.93c-.463.31-1.082.31-1.546 0zM312.31 286.2l-4.948-2.945c-.464-.155-.309-.619.155-.929l1.701-.93c.463-.31 1.236-.31 1.546 0l4.947 2.944c.464.155.309.62-.154.93l-1.701.93c-.464.155-1.237.155-1.546 0zM236.397 251.49l-4.948-2.944c-.464-.155-.309-.62.155-.93l4.947-2.944c.464-.31 1.237-.31 1.546 0l4.948 2.944c.464.155.309.62-.155.93l-4.947 2.944a2.628 2.628 0 01-1.546 0zM244.127 255.983l-4.947-2.944c-.464-.31-.309-.619.154-.929l4.948-2.944c.464-.31 1.237-.31 1.546 0l4.947 2.944c.464.155.31.619-.154.929l-4.948 2.944a2.628 2.628 0 01-1.546 0zM251.858 260.477l-4.948-2.944c-.464-.31-.309-.62.155-.93l4.947-2.944c.464-.31 1.237-.31 1.546 0l4.948 2.944c.464.31.309.62-.155.93l-4.947 2.944a2.628 2.628 0 01-1.546 0zM259.588 264.816l-4.947-2.944c-.464-.155-.31-.62.154-.93l4.948-2.944c.464-.31 1.237-.31 1.546 0l4.947 2.944c.464.31.31.62-.154.93l-4.948 2.944c-.464.31-1.082.31-1.546 0zM267.319 269.309l-4.948-2.944c-.464-.31-.309-.619.155-.929l4.947-2.945c.464-.309 1.237-.309 1.546 0l4.948 2.945c.464.155.309.619-.155.929l-4.947 2.944c-.464.31-1.083.31-1.546 0zM275.049 273.803l-4.947-2.944c-.464-.31-.31-.62.154-.93l4.948-2.944c.463-.31 1.236-.31 1.546 0l4.947 2.944c.464.31.309.62-.154.93l-4.948 2.944c-.464.155-1.082.31-1.546 0zM282.779 278.297l-4.947-2.944c-.464-.155-.309-.62.155-.93l4.947-2.944c.464-.31 1.237-.31 1.546 0l4.948 2.944c.463.31.309.62-.155.93l-4.947 2.944a2.631 2.631 0 01-1.547 0zM290.51 282.79l-4.948-2.944c-.463-.31-.309-.62.155-.929l4.947-2.945c.464-.309 1.237-.309 1.547 0l4.947 2.945c.464.309.309.619-.155.929l-4.947 2.944a2.628 2.628 0 01-1.546 0zM298.24 287.284l-4.947-2.944c-.464-.31-.309-.62.154-.93l4.948-2.944c.464-.31 1.237-.31 1.546 0l4.948 2.944c.463.31.309.62-.155.93l-4.948 2.944a2.628 2.628 0 01-1.546 0zM192.333 251.955l-14.688-8.523c-.463-.155-.309-.62.155-.93l4.948-2.944c.463-.31 1.236-.31 1.546 0l14.687 8.523c.464.155.31.62-.154.93l-4.948 2.944c-.463.31-1.236.31-1.546 0zM287.263 306.963l-14.688-8.522c-.464-.31-.309-.62.155-.93l4.947-2.944c.464-.31 1.237-.31 1.546 0l14.688 8.522c.464.31.31.62-.154.93l-4.948 2.944c-.464.155-1.237.155-1.546 0zM256.341 298.906l-4.947-2.944c-.464-.155-.309-.62.154-.93l5.876-3.409c.463-.31 1.237-.31 1.546 0l4.947 2.944c.464.155.309.62-.154.93l-5.876 3.409c-.463.31-1.236.31-1.546 0zM200.218 266.52l-8.039-4.648c-.464-.31-.309-.62.154-.93l5.875-3.409c.464-.31 1.237-.31 1.547 0l8.039 4.649c.464.155.309.619-.154.929l-5.876 3.409c-.463.155-1.236.155-1.546 0zM248.92 294.567l-8.04-4.649c-.463-.31-.309-.619.155-.929l5.875-3.409c.464-.31 1.237-.31 1.546 0l8.04 4.648c.464.155.309.62-.155.93l-5.875 3.409c-.464.31-1.237.31-1.546 0zM211.35 272.874l-8.039-4.649c-.464-.31-.31-.62.154-.93l5.875-3.409c.464-.31 1.237-.31 1.546 0l8.04 4.649c.464.155.309.62-.155.93l-5.875 3.409c-.464.309-1.237.309-1.546 0z"/><path opacity=".8" d="M210.886 263.886l34.787 20.144c.464.31.464.62 0 .93l-6.029 3.409c-.464.31-1.083.31-1.547 0l-34.786-20.144 7.575-4.339zM277.832 307.118l5.566 3.254c.309.155.309.465-.155.775l-2.473 1.395c-.31.155-.928.31-1.237 0l-5.566-3.254c-.309-.155-.309-.465.154-.775l2.474-1.395c.464-.31.928-.31 1.237 0zM270.102 302.47l5.565 3.254c.31.155.31.465-.154.775l-2.474 1.394c-.309.155-.928.31-1.237 0l-5.566-3.254c-.309-.155-.309-.465.155-.775l2.474-1.394c.309-.155.927-.155 1.237 0zM262.371 298.131l5.566 3.254c.309.155.309.465-.155.775l-2.473 1.394c-.31.155-.928.31-1.237 0l-5.566-3.254c-.309-.155-.309-.465.155-.775l2.473-1.394c.309-.31.928-.31 1.237 0zM274.431 299.99l5.566 3.255c.309.154.309.464-.155.774l-2.474 1.395c-.309.155-.927.31-1.237 0l-5.566-3.254c-.309-.155-.309-.465.155-.775l2.474-1.395c.309-.154.773-.154 1.237 0z"/></g><path d="M353.126 179.591c-.309 0-.773-.155-1.236-.31-1.237-.774-1.856-2.169-1.701-3.409.154-.619.464-1.084.928-1.239.618-.31 1.236-.155 1.855.155 1.237.62 1.855 2.169 1.701 3.409-.155.62-.464 1.084-.928 1.239 0 .155-.309.155-.619.155zm-1.082-4.648c-.154 0-.309 0-.464.155-.309.155-.618.465-.618.929-.309 1.085.464 2.325 1.391 2.944.464.31.928.31 1.392.155.309-.155.618-.464.618-.929.31-1.085-.309-2.325-1.391-2.944-.309-.31-.619-.31-.928-.31zM359.62 183.31c-.309 0-.773-.155-1.237-.31-1.237-.62-1.855-2.169-1.701-3.409.155-.62.464-1.085.928-1.239.619-.31 1.237-.155 1.855.154 1.237.62 1.856 2.17 1.701 3.409-.154.62-.464 1.085-.928 1.24-.154 0-.463.155-.618.155zm-1.237-4.649c-.154 0-.309 0-.464.155-.309.155-.618.465-.618.93-.309 1.085.464 2.324 1.391 2.944.464.31.928.31 1.392.155.309-.155.618-.465.618-.93.31-1.084-.309-2.324-1.391-2.944-.309-.31-.619-.31-.928-.31zM367.35 185.48c-.309 1.084-1.391 1.549-2.473.929-1.083-.619-1.701-2.014-1.546-3.099.309-1.084 1.391-1.549 2.473-.929 1.083.619 1.856 2.014 1.546 3.099zM245.21 114.976l-3.402-1.86.155-1.704 3.556 2.014-.309 1.55zM250.157 117.92l-3.401-2.015.309-1.549 3.401 2.014-.309 1.55zM240.262 112.186l-7.421-4.338.154-1.55 7.576 4.339-.309 1.549zM419.917 408.303c-2.164 0-4.174-.465-5.72-1.394l-30.613-17.665c-1.546-.93-2.473-2.17-2.473-3.564 0-1.395.927-2.634 2.473-3.564l30.613-17.665c3.247-1.859 8.349-1.859 11.596 0l30.612 17.665c1.546.93 2.474 2.169 2.474 3.564 0 1.394-.928 2.634-2.474 3.564l-30.612 17.665c-1.701 1.084-3.711 1.394-5.876 1.394zm-5.411-1.704c3.092 1.704 7.885 1.704 10.977 0l30.613-17.665c1.391-.775 2.164-1.86 2.164-3.099 0-1.085-.773-2.17-2.164-3.099l-30.613-17.665c-3.092-1.704-7.885-1.704-10.977 0l-30.612 17.665c-1.392.775-2.165 1.859-2.165 3.099 0 1.085.773 2.169 2.165 3.099l30.612 17.665z" fill="#42E8E0"/><path opacity=".4" d="M459.806 379.017V368.48l-1.855-1.085c-.618 3.254-4.329 5.424-7.576 5.889l-21.954 12.861-9.586 3.409-30.458-15.805.773-.465c-2.628-1.24-4.02-4.029-5.411-6.508l-2.01 1.239-1.237.31v10.692c0 1.395.928 2.789 2.629 3.719l30.612 17.665c3.556 2.014 9.431 2.014 12.987 0l30.613-17.665c1.7-1.085 2.628-2.324 2.628-3.719-.155.155-.155 0-.155 0z" fill="#42E8E0"/><path d="M459.806 369.719v-6.973l-1.855-1.084c-.618 3.254-4.329 5.423-7.576 5.888l-21.954 12.861-9.586 3.409-30.458-15.805.773-.465c-2.628-1.24-4.02-4.029-5.411-6.508l-2.01 1.24-1.237.31v7.127c0 1.395.928 2.79 2.629 3.719l30.612 17.665c3.556 2.014 9.431 2.014 12.987 0l30.613-17.665c1.7-1.084 2.628-2.324 2.628-3.719-.155.155-.155 0-.155 0z" fill="url(#apaint10_linear)"/><path opacity=".3" d="M450.221 367.55l-21.955 12.861-8.349 2.944v9.453c2.32 0 4.639-.465 6.494-1.55l30.613-17.665c1.7-1.084 2.628-2.324 2.628-3.719v-7.127l-1.701-.93h-.154c-.619 3.254-4.329 5.268-7.576 5.733z" fill="#0F054C"/><path d="M388.841 367.705l28.912-16.735c1.082-.62 2.938-.62 4.174 0l28.448 16.425-.309.155c3.247-.465 7.112-2.634 7.576-5.888l-32.004-17.82-9.277-2.479-7.575 4.494-25.356 15.185c1.546 2.634 2.937 5.424 5.411 6.663z" fill="url(#apaint11_linear)"/><path opacity=".3" d="M419.917 342.293l-3.401-.93-7.576 4.494-25.51 15.185c1.391 2.479 2.783 5.269 5.411 6.508l28.912-16.735a4.748 4.748 0 012.01-.465v-8.057h.154z" fill="#0F054C"/><path d="M413.424 384.13l-30.613-17.664c-3.556-2.015-3.556-5.424 0-7.593l30.613-17.665c3.556-2.014 9.431-2.014 12.987 0l30.613 17.665c3.556 2.014 3.556 5.423 0 7.438l-30.613 17.664c-3.556 2.325-9.277 2.325-12.987.155zm8.658-40.288c-1.082-.62-2.938-.62-4.174 0l-30.613 17.665c-1.082.62-1.082 1.705 0 2.479l30.613 17.665c1.082.62 2.937.62 4.174 0l30.612-17.665c1.083-.62 1.083-1.704 0-2.479l-30.612-17.665z" fill="url(#apaint12_linear)"/><path d="M452.695 361.507l-30.613-17.665c-1.082-.62-2.938-.62-4.174 0l-30.613 17.665c-.773.465-1.082 1.085-.773 1.705.155-.31.309-.62.773-.775l30.613-17.665c1.082-.62 2.937-.62 4.174 0l30.613 17.665c.309.155.618.465.773.775.154-.62 0-1.24-.773-1.705z" fill="#fff"/><path d="M457.024 366.465l-30.613 17.665c-3.556 2.015-9.431 2.015-12.987 0l-30.613-17.665c-1.546-.929-2.473-2.169-2.628-3.254-.155 1.55.618 3.1 2.628 4.184l30.613 17.665c3.556 2.014 9.431 2.014 12.987 0l30.613-17.665c2.009-1.084 2.937-2.634 2.628-4.184-.155 1.24-.928 2.325-2.628 3.254z" fill="#fff"/><path d="M414.352 383.665l-30.613-17.664c-3.092-1.86-3.092-4.649 0-6.508l30.613-17.665c3.092-1.86 8.194-1.86 11.286 0l30.613 17.665c3.092 1.859 3.092 4.648 0 6.508l-30.613 17.664c-3.092 1.86-8.194 1.86-11.286 0zm8.503-40.288c-1.546-.929-4.329-.929-5.875 0l-30.458 17.665c-1.546.93-1.546 2.479 0 3.409l30.612 17.665c1.547.93 4.33.93 5.876 0l30.612-17.665c1.546-.93 1.546-2.479 0-3.409l-30.767-17.665z" fill="url(#apaint13_linear)"/><path opacity=".4" d="M422.082 343.842c-1.082-.62-2.938-.62-4.175 0l-30.612 17.665c-1.082.62-1.082 1.704 0 2.479l30.612 17.665c1.083.62 2.938.62 4.175 0l30.612-17.665c1.083-.62 1.083-1.704 0-2.479l-30.612-17.665z" fill="#42E8E0"/><path opacity=".5" d="M453.468 362.747V253.504h-66.946v109.243c0 .465.309.929.928 1.239l30.612 17.665c1.082.62 2.938.62 4.175 0l30.612-17.665c.309-.31.619-.774.619-1.239z" fill="url(#apaint14_linear)"/><path d="M108.845 184.55c-2.165 0-4.175-.465-5.721-1.395l-30.612-17.664c-1.547-.93-2.474-2.17-2.474-3.564 0-1.395.927-2.635 2.474-3.564l30.612-17.665c3.247-1.859 8.349-1.859 11.596 0l30.612 17.665c1.546.929 2.474 2.169 2.474 3.564 0 1.394-.928 2.634-2.474 3.564l-30.612 17.664c-1.701.93-3.711 1.395-5.875 1.395zm-5.412-1.86c3.092 1.705 7.885 1.705 10.978 0l30.612-17.664c1.392-.775 2.165-1.86 2.165-3.099 0-1.085-.773-2.17-2.165-3.099l-30.612-17.665c-3.093-1.705-7.886-1.705-10.978 0l-30.612 17.665c-1.392.774-2.165 1.859-2.165 3.099 0 1.084.773 2.169 2.165 3.099l30.612 17.664z" fill="#42E8E0"/><path opacity=".4" d="M148.579 155.109v-10.537l-1.855-1.085c-.464 3.254-4.329 5.424-7.576 5.889l-21.955 12.861-9.585 3.409-30.458-15.651.773-.464c-2.629-1.24-4.02-4.029-5.412-6.509l-2.01 1.24-1.236.31v10.692c0 1.394.927 2.789 2.628 3.719l30.458 17.664c3.556 2.015 9.431 2.015 12.987 0l30.613-17.664c1.7-1.085 2.628-2.325 2.628-3.719v-.155z" fill="#42E8E0"/><path d="M148.579 145.812v-6.973l-1.855-1.085c-.464 3.254-4.329 5.423-7.576 5.888l-21.955 12.861-9.585 3.409-30.458-15.65.773-.465c-2.629-1.24-4.02-4.029-5.412-6.508l-2.01 1.24-1.236.31v7.127c0 1.395.927 2.79 2.628 3.719l30.458 17.665c3.556 2.014 9.431 2.014 12.987 0l30.613-17.665c1.7-1.084 2.628-2.324 2.628-3.719v-.154z" fill="url(#apaint15_linear)"/><path opacity=".3" d="M139.148 143.642l-21.955 12.861-8.348 2.945v9.452c2.319 0 4.638-.465 6.493-1.55l30.613-17.665c1.7-1.084 2.628-2.324 2.628-3.718v-7.128l-1.701-.93h-.154c-.619 3.254-4.484 5.268-7.576 5.733z" fill="#0F054C"/><path d="M102.351 160.377l-30.612-17.819c-3.556-2.015-3.556-5.424 0-7.593L102.35 117.3c3.556-2.014 9.431-2.014 12.987 0l30.613 17.665c3.556 2.014 3.556 5.423 0 7.438l-30.613 17.664c-3.556 2.325-9.431 2.325-12.987.31z" fill="url(#apaint16_linear)"/><path d="M145.951 142.557l-30.613 17.665c-3.556 2.015-9.431 2.015-12.987 0l-30.613-17.665c-1.546-.929-2.473-2.169-2.628-3.254-.154 1.55.618 3.1 2.628 4.184l30.613 17.665c3.556 2.014 9.431 2.014 12.987 0l30.613-17.665c2.01-1.084 2.937-2.634 2.628-4.184-.155 1.24-1.082 2.325-2.628 3.254z" fill="#fff"/><path d="M302.415 452c-2.629 0-5.102-.62-7.112-1.705l-122.914-71.123c-2.01-1.085-2.938-2.635-2.938-4.184 0-1.55 1.082-3.099 2.938-4.184l25.974-15.03.309.465-25.974 15.03c-1.701 1.085-2.783 2.324-2.783 3.719s.928 2.789 2.783 3.719l122.914 71.124c3.711 2.169 9.895 2.169 13.606 0l89.982-51.91.309.465-89.982 51.909c-2.01 1.085-4.638 1.705-7.112 1.705z" fill="#42E8E0"/><path d="M52.412 218.95c-2.473 0-4.947-.465-6.802-1.55l-30.613-17.665c-1.855-1.084-2.938-2.634-2.938-4.183 0-1.55 1.083-3.099 2.938-4.184l30.613-17.82c3.71-2.169 9.74-2.169 13.605 0l30.458 17.665c1.855 1.085 2.938 2.634 2.938 4.184 0 1.549-1.083 3.099-2.938 4.183l-30.612 17.665c-1.701 1.24-4.175 1.705-6.649 1.705zm-6.184-2.48c3.401 2.015 8.967 2.015 12.523 0l30.613-17.664c1.546-.93 2.474-2.015 2.474-3.254 0-1.24-.928-2.325-2.474-3.254L58.75 174.633c-3.401-2.015-8.967-2.015-12.523 0l-30.613 17.51c-1.546.929-2.473 2.014-2.473 3.254 0 1.239.927 2.324 2.474 3.254l30.612 17.819zM153.681 431.701c-2.474 0-4.947-.465-6.803-1.549l-30.612-17.665c-1.856-1.085-2.938-2.634-2.938-4.184 0-1.55 1.082-3.099 2.938-4.184l30.612-17.974c3.711-2.17 9.741-2.17 13.606 0l30.612 17.664c1.856 1.085 2.938 2.635 2.938 4.184 0 1.55-1.082 3.099-2.938 4.184l-30.612 17.665c-2.01 1.239-4.484 1.859-6.803 1.859zm-6.339-2.634c3.402 2.014 8.967 2.014 12.523 0l30.613-17.665c1.546-.93 2.474-2.014 2.474-3.254 0-1.24-.928-2.324-2.474-3.254l-30.613-17.665c-3.401-2.014-8.967-2.014-12.523 0l-30.612 17.665c-1.546.93-2.474 2.014-2.474 3.254 0 1.24.928 2.324 2.474 3.254l30.612 17.665z" fill="#4E46C0"/><path d="M106.525 373.593c-1.546 0-2.937-.31-4.329-1.084l-40.662-23.553.31-.465 40.662 23.398a8.25 8.25 0 008.039 0l57.979-33.625.309.465-57.979 33.625c-1.391.775-2.782 1.239-4.329 1.239z" fill="#42E8E0"/><path opacity=".4" d="M452.849 121.174a5.107 5.107 0 005.102-5.114 5.107 5.107 0 00-5.102-5.113 5.107 5.107 0 00-5.102 5.113 5.107 5.107 0 005.102 5.114z" fill="#42E8E0"/><path opacity=".4" d="M452.849 118.23a2.167 2.167 0 002.165-2.17 2.167 2.167 0 00-2.165-2.169 2.167 2.167 0 00-2.164 2.169c0 1.199.969 2.17 2.164 2.17zM375.081 31.61a5.108 5.108 0 005.102-5.113 5.108 5.108 0 00-5.102-5.113 5.108 5.108 0 00-5.102 5.113 5.108 5.108 0 005.102 5.113z" fill="#42E8E0"/><path opacity=".4" d="M375.081 28.666a2.167 2.167 0 002.164-2.169c0-1.198-.969-2.17-2.164-2.17a2.167 2.167 0 00-2.165 2.17c0 1.198.969 2.17 2.165 2.17zM520.568 139.148a5.107 5.107 0 005.102-5.113 5.108 5.108 0 00-5.102-5.114 5.108 5.108 0 00-5.102 5.114 5.107 5.107 0 005.102 5.113z" fill="#42E8E0"/><path opacity=".4" d="M520.568 136.204a2.167 2.167 0 002.164-2.169c0-1.198-.969-2.17-2.164-2.17a2.168 2.168 0 00-2.165 2.17c0 1.198.969 2.169 2.165 2.169z" fill="#42E8E0"/><path d="M37.106 354.534c-9.431 0-19.017-2.014-26.129-6.198C3.865 344.307 0 338.884 0 332.995c0-5.733 3.865-11.156 10.977-15.34 14.379-8.367 37.88-8.367 52.413 0 7.112 4.029 10.977 9.452 10.977 15.34 0 5.889-3.865 11.157-10.977 15.341-7.267 4.029-16.853 6.198-26.284 6.198zm0-42.612c-9.431 0-18.708 2.014-25.974 6.198C4.329 322.149.464 327.417.464 332.995c0 5.579 3.71 10.847 10.668 14.876 14.224 8.213 37.57 8.213 51.794 0 6.803-4.029 10.668-9.297 10.668-14.876 0-5.578-3.71-10.846-10.668-14.875-7.112-4.184-16.389-6.198-25.82-6.198z" fill="#42E8E0"/><path d="M22.573 317.81c8.194-4.803 21.49-4.803 29.685 0 1.391.775 2.473 1.55 3.401 2.479 4.638-4.648 3.556-10.691-3.401-14.72-8.195-4.804-21.49-4.804-29.685 0-6.957 4.029-8.04 10.072-3.401 14.72.927-.929 2.01-1.704 3.4-2.479z" fill="#5351AF"/><path d="M69.11 314.246c-1.546-1.394-3.247-2.789-5.411-3.874-3.247-1.859-6.957-3.409-10.977-4.338 7.73 4.803 7.42 12.396-.773 17.045-8.35 4.803-21.955 4.803-30.304 0-7.885-4.494-8.349-11.777-1.391-16.58-3.247.929-6.34 2.324-9.122 3.873-2.165 1.24-3.865 2.48-5.411 3.874H.155v11.312c0 5.578 3.71 11.002 10.977 15.185 14.533 8.368 38.188 8.368 52.721 0 7.267-4.183 10.978-9.762 10.978-15.185v-11.312h-5.72z" fill="url(#apaint17_linear)"/><path opacity=".3" d="M63.699 310.372c-3.247-1.859-6.958-3.409-10.977-4.338 7.73 4.803 7.42 12.396-.773 17.045-4.02 2.324-9.277 3.564-14.688 3.564v20.453c9.585 0 19.017-2.169 26.283-6.353 7.267-4.183 10.978-9.762 10.978-15.185v-11.312h-5.567c-1.39-1.394-3.092-2.634-5.256-3.874z" fill="#0F054C"/><path opacity=".5" d="M63.699 310.372c-3.247-1.859-6.958-3.409-10.977-4.338 7.73 4.803 7.42 12.396-.773 17.045-4.02 2.324-9.277 3.564-14.688 3.564v20.453c9.585 0 19.017-2.169 26.283-6.353 7.267-4.183 10.978-9.762 10.978-15.185v-11.312h-5.567c-1.39-1.394-3.092-2.634-5.256-3.874z" fill="url(#apaint18_radial)"/><path d="M63.699 299.99c-14.533-8.367-38.188-8.367-52.722 0-14.533 8.368-14.533 22.004 0 30.526 14.534 8.523 38.189 8.368 52.722 0 14.533-8.522 14.533-22.158 0-30.526zm-11.441 24.018c-8.35 4.804-21.955 4.804-30.304 0-8.348-4.803-8.348-12.706 0-17.509 8.35-4.804 21.955-4.804 30.304 0 8.349 4.803 8.349 12.706 0 17.509z" fill="url(#apaint19_linear)"/><path d="M63.699 329.277c-14.533 8.367-38.188 8.367-52.722 0C4.02 325.248.31 319.98.155 314.556c-.31 5.733 3.401 11.467 10.822 15.805 14.534 8.368 38.189 8.368 52.722 0 7.576-4.338 11.132-10.072 10.823-15.805-.155 5.424-3.866 10.692-10.823 14.721z" fill="#fff"/><path d="M52.258 305.259c-8.35-4.804-21.955-4.804-30.304 0-4.483 2.634-6.493 6.043-6.184 9.297.31-2.944 2.32-5.888 6.184-8.212 8.35-4.804 21.955-4.804 30.304 0 3.865 2.324 6.03 5.268 6.184 8.212.31-3.254-1.7-6.663-6.184-9.297z" fill="#fff"/><path d="M61.998 299.99c-13.605-7.902-35.56-7.902-49.01 0-13.606 7.903-13.606 20.609 0 28.357 13.605 7.903 35.56 7.903 49.01 0 13.606-7.903 13.606-20.609 0-28.357zm-9.895 22.624c-8.04 4.648-21.181 4.648-29.22 0-8.04-4.649-8.04-12.242 0-16.89 8.039-4.649 21.18-4.649 29.22 0 8.194 4.648 8.194 12.241 0 16.89z" fill="url(#apaint20_linear)"/><path opacity=".4" d="M37.57 326.022c11.442 0 20.718-5.341 20.718-11.931 0-6.589-9.276-11.931-20.718-11.931s-20.718 5.342-20.718 11.931c0 6.59 9.276 11.931 20.718 11.931z" fill="#42E8E0"/><path opacity=".5" d="M58.133 313.936V205.779h-41.28v108.312c0 3.099 2.01 6.198 6.03 8.523 8.039 4.648 21.18 4.648 29.22 0 4.175-2.325 6.184-5.579 6.03-8.678z" fill="url(#apaint21_linear)"/><path opacity=".4" d="M52.722 270.549c0 .62-.619 1.24-1.237 1.24-.619 0-1.237-.62-1.237-1.24s.618-1.239 1.237-1.239c.773 0 1.237.619 1.237 1.239zM31.231 213.836c0 .62-.618 1.24-1.237 1.24-.618 0-1.237-.62-1.237-1.24s.619-1.24 1.237-1.24c.619 0 1.237.62 1.237 1.24zM33.55 256.293c0 1.085-.773 1.86-1.855 1.86-1.082 0-1.855-.775-1.855-1.86 0-1.084.773-1.859 1.855-1.859 1.082 0 1.855.775 1.855 1.859z" fill="#42E8E0"/><path opacity=".8" d="M30.303 287.439c0 .775-.618 1.24-1.236 1.24-.774 0-1.237-.62-1.237-1.24 0-.775.618-1.24 1.237-1.24.618 0 1.236.62 1.236 1.24zM48.702 235.22c0 1.084-.928 2.014-2.01 2.014-1.082 0-2.01-.93-2.01-2.014 0-1.085.928-2.015 2.01-2.015 1.082 0 2.01.93 2.01 2.015zM47.156 241.573c0 .775-.619 1.394-1.392 1.394a1.387 1.387 0 01-1.391-1.394c0-.775.618-1.395 1.391-1.395.773.155 1.392.62 1.392 1.395zM65.863 284.03c0 1.085-.927 2.015-2.01 2.015-1.082 0-2.01-.93-2.01-2.015 0-1.084.928-2.014 2.01-2.014 1.083 0 2.01.93 2.01 2.014zM66.636 278.452c0 .775-.618 1.549-1.546 1.549-.773 0-1.546-.619-1.546-1.549 0-.775.619-1.55 1.546-1.55.928.155 1.546.775 1.546 1.55zM69.42 278.762a.93.93 0 000-1.86.93.93 0 000 1.86zM74.058 275.818c.309.155.309.619.154.929-.154.31-.618.31-.927.155-.31-.155-.31-.62-.155-.929.155-.155.618-.31.928-.155zM75.913 273.183c.464.31.464.775.31 1.24-.31.465-.774.465-1.238.31-.463-.155-.463-.775-.309-1.24.155-.465.773-.619 1.237-.31zM74.212 271.169c.464.31.619.93.31 1.55-.31.464-.928.619-1.547.31-.463-.31-.618-.93-.309-1.55.31-.465.928-.62 1.546-.31zM11.132 232.74c1.11 0 2.01-.901 2.01-2.014 0-1.112-.9-2.014-2.01-2.014-1.11 0-2.01.902-2.01 2.014 0 1.113.9 2.014 2.01 2.014zM5.102 232.586c.769 0 1.392-.625 1.392-1.395s-.623-1.395-1.392-1.395c-.768 0-1.391.625-1.391 1.395s.623 1.395 1.391 1.395zM7.112 235.22c0 .62-.464 1.239-1.237 1.239-.773 0-1.237-.464-1.237-1.239 0-.62.464-1.24 1.237-1.24.773 0 1.237.62 1.237 1.24zM4.947 238.784a.774.774 0 10-.002-1.548.774.774 0 00.002 1.548zM1.392 238.009c.309.155.463.465.463.775a.85.85 0 01-.773.465.853.853 0 01-.464-.775.85.85 0 01.774-.465zM65.863 234.135c0 1.085-.927 2.014-2.01 2.014-1.082 0-2.01-.929-2.01-2.014 0-1.085.928-2.014 2.01-2.014 1.083 0 2.01.929 2.01 2.014zM67.255 228.867c0 .775-.619 1.394-1.392 1.394a1.387 1.387 0 01-1.391-1.394c0-.775.618-1.395 1.391-1.395s1.392.465 1.392 1.395zM69.729 228.092a1.084 1.084 0 000-2.169 1.084 1.084 0 000 2.169zM73.13 228.092a.774.774 0 10-.002-1.548.774.774 0 00.002 1.548zM75.14 225.148c0 .155-.155.31-.31.31-.154 0-.308-.155-.308-.31s.154-.31.309-.31c.154 0 .309.155.309.31z" fill="#42E8E0"/><path d="M240.571 127.682l-8.039-4.649.309-1.859 8.039 4.648-.309 1.86zM247.529 131.711l-4.02-2.324.309-1.86 4.02 2.324-.309 1.86zM242.272 133.57l-3.401-2.014.309-1.86 3.401 2.015-.309 1.859zM248.147 136.824l-4.174-2.324.309-1.86 4.174 2.325-.309 1.859zM254.022 145.192l-15.924-9.297.309-1.86 15.924 9.297-.309 1.86zM240.262 182.226l-16.079-9.298.309-1.859 16.079 9.297-.309 1.86zM246.292 185.789l-4.02-2.324.309-1.859 4.02 2.324-.309 1.859zM240.881 142.402l-3.557-2.014.31-1.859 3.556 2.014-.309 1.859zM246.601 145.812l-4.02-2.48.309-1.859 4.02 2.324-.309 2.015zM245.364 149.84l-8.813-5.113.31-1.86 8.812 5.114-.309 1.859zM251.239 153.249l-4.02-2.324.31-1.86 4.02 2.325-.31 1.859zM257.269 156.658l-4.174-2.324.309-1.86 4.174 2.325-.309 1.859zM266.7 162.236l-7.73-4.493.464-1.86 7.575 4.494-.309 1.859zM260.67 168.435l-4.019-2.325.309-1.859 4.02 2.324-.31 1.86zM270.256 174.013l-7.73-4.494.309-1.859 7.73 4.339-.309 2.014zM239.18 156.038l-4.02-2.324.309-2.014 4.02 2.479-.309 1.859zM245.055 159.447l-4.02-2.324.309-1.859 4.02 2.324-.309 1.859zM254.641 165.026l-7.731-4.494.309-1.859 7.731 4.338-.309 2.015zM267.164 167.35l-4.02-2.324.309-1.86 4.02 2.325-.309 1.859zM273.039 170.759l-4.02-2.324.31-1.86 4.019 2.325-.309 1.859zM282.625 176.337l-7.731-4.493.31-1.86 7.73 4.494-.309 1.859zM252.785 189.508l-4.174-2.324.309-1.859 4.175 2.324-.31 1.859zM262.217 195.087l-7.576-4.494.309-1.859 7.576 4.338-.309 2.015zM237.634 164.871l-4.02-2.325.309-1.859 4.02 2.324-.309 1.86zM247.219 170.449l-7.73-4.494.309-1.859 7.731 4.339-.31 2.014zM257.114 196.946l-4.019-2.324.309-2.014 4.02 2.479-.31 1.859zM266.7 202.37l-7.73-4.339.309-1.86 7.73 4.339-.309 1.86zM266.236 152.32l-4.019-2.48.309-1.859 4.02 2.324-.31 2.015zM260.052 148.756l-4.02-2.48.309-1.859 4.02 2.324-.309 2.015zM275.822 157.743l-7.73-4.494.309-1.859 7.73 4.494-.309 1.859zM239.489 151.39l-3.711-2.169.464-1.86 3.556 2.169-.309 1.86zM250.466 157.588l-8.967-5.114.309-1.859 8.967 5.113-.309 1.86zM261.289 163.941l-8.967-5.113.309-1.86 8.967 5.114-.309 1.859zM281.388 160.997l-3.556-2.014.309-1.86 3.711 2.014-.464 1.86zM292.365 167.35l-8.967-5.113.309-1.86 8.967 5.114-.309 1.859zM303.188 173.703l-8.813-5.268.309-1.86 8.813 5.269-.309 1.859zM243.354 163.321l-8.967-5.268.309-1.86 8.968 5.269-.31 1.859zM248.147 165.955l-2.783-1.549.309-1.86 2.783 1.55-.309 1.859zM252.785 168.745l-2.783-1.55.31-1.859 2.783 1.549-.31 1.86zM261.598 173.858l-6.803-4.029.31-1.859 6.802 3.874-.309 2.014zM271.338 164.871l-2.783-1.55.31-1.859 2.783 1.549-.31 1.86zM279.997 169.984l-6.649-4.029.31-1.859 6.648 4.029-.309 1.859z" fill="#42E8E0"/><path d="M281.852 171.069l-6.803-4.029.309-1.859 6.803 3.874-.309 2.014zM245.983 195.242l-8.813-5.114.309-1.859 8.813 5.113-.309 1.86zM251.858 198.651l-4.175-2.325.464-1.859 4.02 2.324-.309 1.86zM257.733 202.06l-4.02-2.325.309-1.859 4.02 2.324-.309 1.86zM267.319 207.638l-7.731-4.494.309-1.859 7.731 4.494-.309 1.859zM273.348 211.202l-4.02-2.324.31-2.015 4.02 2.48-.31 1.859zM282.934 216.625l-7.73-4.338.309-1.86 7.73 4.339-.309 1.859zM253.713 209.497l-4.174-2.479.309-1.859 4.174 2.324-.309 2.014zM263.144 214.921l-7.576-4.339.31-2.014 7.575 4.493-.309 1.86zM232.377 197.101l-4.02-2.324.309-1.86 4.02 2.325-.309 1.859zM238.252 200.51l-4.02-2.324.31-1.86 4.019 2.325-.309 1.859zM247.838 206.088l-7.731-4.493.31-1.86 7.73 4.494-.309 1.859zM240.107 196.791l-3.71-2.169.309-1.86 3.711 2.015-.31 2.014zM250.93 202.99l-8.813-5.114.31-1.859 8.812 5.113-.309 1.86zM261.907 209.342l-8.967-5.113.309-2.014 8.968 5.268-.31 1.859zM229.439 200.2l-8.967-5.113.309-1.86 8.968 5.114-.31 1.859zM234.078 202.989l-2.783-1.549.309-2.014 2.783 1.704-.309 1.859zM238.871 205.779l-2.783-1.705.309-1.859 2.783 1.549-.309 2.015zM247.529 210.737l-6.803-3.874.309-1.859 6.803 3.874-.309 1.859z" fill="#42E8E0"/><path d="M249.384 211.822l-6.803-3.874.309-1.859 6.803 3.873-.309 1.86zM233.459 183.155l-2.783-1.549.31-1.86 2.782 1.55-.309 1.859zM242.117 188.269l-6.802-4.029.309-1.859 6.803 3.873-.31 2.015zM251.085 193.382l-6.803-3.874.309-1.859 6.803 3.874-.309 1.859zM285.408 222.978l-4.175-2.324.464-2.014 4.02 2.479-.309 1.859zM294.994 228.402l-7.731-4.339.309-1.859 7.731 4.338-.309 1.86zM270.411 214.301l-6.803-4.029.309-1.859 6.803 3.874-.309 2.014zM279.224 219.414l-6.649-3.873.31-1.86 6.648 3.874-.309 1.859zM228.666 164.406l-2.783-1.55.31-1.859 2.783 1.549-.31 1.86zM237.325 169.519l-6.649-3.873.31-1.86 6.648 3.874-.309 1.859zM246.292 174.633l-6.803-3.874.309-1.859 6.803 3.874-.309 1.859z" fill="#42E8E0"/><path opacity=".4" d="M404.302 287.749c0-.62.618-1.24 1.237-1.24.618 0 1.237.62 1.237 1.24s-.619 1.24-1.237 1.24c-.773.155-1.237-.465-1.237-1.24zM425.947 344.617c0-.62.619-1.24 1.237-1.24.619 0 1.237.62 1.237 1.24s-.618 1.24-1.237 1.24c-.773 0-1.237-.62-1.237-1.24zM425.329 304.019a1.857 1.857 0 001.855-1.859c0-1.027-.831-1.86-1.855-1.86a1.857 1.857 0 00-1.855 1.86c0 1.027.83 1.859 1.855 1.859z" fill="#42E8E0"/><path opacity=".8" d="M428.112 272.099c.683 0 1.237-.555 1.237-1.24 0-.685-.554-1.24-1.237-1.24s-1.237.555-1.237 1.24c0 .685.554 1.24 1.237 1.24zM408.476 323.233c0-1.084.928-2.014 2.01-2.014 1.083 0 2.01.93 2.01 2.014 0 1.085-.927 2.015-2.01 2.015-1.082 0-2.01-.93-2.01-2.015zM411.259 318.12c.769 0 1.392-.624 1.392-1.395a1.393 1.393 0 10-2.783 0c0 .771.623 1.395 1.391 1.395z" fill="#42E8E0"/><path d="M350.498 223.753c-.464 0-.927-.155-1.391-.31l-37.261-21.538c-1.546-.93-2.474-3.099-2.165-4.959l2.32-14.255c.154-.93.618-1.705 1.391-2.17.618-.31 1.392-.31 2.165.155l37.26 21.539c1.546.929 2.474 3.099 2.165 4.958l-2.319 14.256c-.155.93-.619 1.704-1.392 2.169-.154.155-.464.155-.773.155zm-36.178-42.922c-.155 0-.464 0-.619.155-.464.31-.927.775-1.082 1.55l-2.319 14.255c-.309 1.705.618 3.564 1.855 4.339l37.261 21.539c.618.309 1.082.309 1.546.155.464-.31.928-.775 1.082-1.55l2.319-14.256c.31-1.704-.618-3.564-1.855-4.338l-37.261-21.539c-.309-.155-.618-.31-.927-.31zM346.324 248.236c-.464 0-.928-.155-1.392-.31l-37.26-21.539c-1.547-.929-2.474-3.099-2.165-4.958l2.319-14.256c.155-.93.619-1.704 1.392-2.169.618-.31 1.391-.31 2.164.155l37.261 21.538c1.546.93 2.474 3.099 2.164 4.959l-2.319 14.256c-.154.929-.618 1.704-1.391 2.169-.155.155-.464.155-.773.155zm-36.179-42.922c-.154 0-.464 0-.618.155-.464.31-.928.774-1.082 1.549l-2.32 14.256c-.309 1.704.619 3.564 1.856 4.339l37.26 21.538c.619.31 1.083.31 1.547.155.463-.31.927-.775 1.082-1.549l2.319-14.256c.309-1.705-.618-3.564-1.855-4.339l-37.261-21.538c-.309-.155-.619-.31-.928-.31z" fill="#42E8E0"/><path opacity=".5" d="M315.247 200.2c.619.31 1.237.31 1.392-.31l4.329-11.931c.464-1.395 2.474-.155 2.937 1.859l2.629 11.932c.154.93.773 1.704 1.546 2.169l.618.31c.619.31 1.237.31 1.392-.31l.927-1.859c.619-1.24 2.32 0 2.938 1.704.155.775.773 1.55 1.391 2.015l.619.31c.618.464 1.237.154 1.546-.465l.773-2.48c.464-1.394 2.474-.31 2.938 1.705l2.628 11.157c.155.929.773 1.704 1.546 2.169L315.247 200.2z" fill="url(#apaint22_linear)"/><path d="M340.603 242.657c-.773-.464-1.391-1.394-1.701-2.324l-2.628-11.157c-.309-1.239-1.237-2.014-1.855-2.014-.155 0-.309 0-.464.465l-.773 2.479c-.155.31-.309.62-.619.775-.309.155-.773 0-1.236-.155l-.619-.31c-.773-.465-1.391-1.24-1.546-2.169-.309-1.085-1.237-1.86-1.855-2.015-.309 0-.464 0-.464.31l-.928 1.86a1.2 1.2 0 01-.618.619c-.309.155-.773 0-1.237-.154l-.618-.31c-.774-.465-1.392-1.395-1.701-2.325l-2.629-11.931c-.309-1.085-1.236-2.015-1.855-2.169-.309 0-.464.154-.464.309l-4.329 11.932c-.154.31-.309.62-.618.775-.309.155-.773 0-1.237-.155l.309-.62c.309.155.464.155.773.155.155 0 .155-.155.31-.31l4.329-11.932a1.162 1.162 0 011.082-.774c.927 0 2.164 1.084 2.474 2.634l2.628 11.931c.155.775.773 1.55 1.391 2.015l.619.31c.309.155.464.155.618.155.155 0 .155-.155.309-.31l.928-1.86c.155-.465.619-.774 1.082-.62.928.155 2.01 1.085 2.32 2.48.154.774.773 1.549 1.236 1.859l.619.31c.309.155.464.155.773.155.154 0 .309-.155.309-.31l.773-2.479c.155-.62.619-.775 1.082-.775.928 0 2.165 1.085 2.474 2.634l2.628 11.157c.155.775.774 1.55 1.392 1.859h-.464z" fill="#42E8E0"/></g><defs><linearGradient id="apaint12_linear" x1="380.212" y1="362.747" x2="459.736" y2="362.747" gradientUnits="userSpaceOnUse"><stop stop-color="#E9E9FD"/><stop offset=".36" stop-color="#D3D2F9"/><stop offset=".706" stop-color="#C5C4F7"/><stop offset="1" stop-color="#C0BFF6"/></linearGradient><linearGradient id="apaint0_linear" x1="355.126" y1="306.839" x2="95.182" y2="306.839" gradientUnits="userSpaceOnUse"><stop stop-color="#5761D7"/><stop offset=".178" stop-color="#5C66D9"/><stop offset=".388" stop-color="#6A73DF"/><stop offset=".613" stop-color="#8289E8"/><stop offset=".849" stop-color="#A3A7F5"/><stop offset="1" stop-color="#BCBEFF"/></linearGradient><linearGradient id="apaint2_linear" x1="267.881" y1="134.068" x2="559.954" y2="134.068" gradientUnits="userSpaceOnUse"><stop stop-color="#42E8E0"/><stop offset=".105" stop-color="#37B6BF"/><stop offset=".22" stop-color="#2C87A1"/><stop offset=".338" stop-color="#235F87"/><stop offset=".459" stop-color="#1C3F72"/><stop offset="1" stop-color="#1B2546"/></linearGradient><linearGradient id="apaint3_linear" x1="248.562" y1="144.914" x2="540.636" y2="144.914" gradientUnits="userSpaceOnUse"><stop stop-color="#42E8E0"/><stop offset=".105" stop-color="#37B6BF"/><stop offset=".22" stop-color="#2C87A1"/><stop offset=".338" stop-color="#235F87"/><stop offset=".459" stop-color="#1C3F72"/><stop offset=".582" stop-color="#162561"/><stop offset="1" stop-color="#1B2546"/></linearGradient><linearGradient id="apaint4_linear" x1="384.598" y1="186.492" x2="200.642" y2="186.492" gradientUnits="userSpaceOnUse"><stop stop-color="#C0BFF6"/><stop offset=".294" stop-color="#C5C4F7"/><stop offset=".64" stop-color="#D3D2F9"/><stop offset="1" stop-color="#E9E9FD"/></linearGradient><linearGradient id="apaint5_linear" x1="384.597" y1="233.774" x2="353.01" y2="233.774" gradientUnits="userSpaceOnUse"><stop stop-color="#5761D7"/><stop offset=".178" stop-color="#5C66D9"/><stop offset=".388" stop-color="#6A73DF"/><stop offset=".613" stop-color="#8289E8"/><stop offset=".849" stop-color="#A3A7F5"/><stop offset="1" stop-color="#BCBEFF"/></linearGradient><linearGradient id="apaint6_linear" x1="359.952" y1="285.362" x2="100.146" y2="285.362" gradientUnits="userSpaceOnUse"><stop stop-color="#5761D7"/><stop offset=".178" stop-color="#5C66D9"/><stop offset=".388" stop-color="#6A73DF"/><stop offset=".613" stop-color="#8289E8"/><stop offset=".849" stop-color="#A3A7F5"/><stop offset="1" stop-color="#BCBEFF"/></linearGradient><linearGradient id="apaint7_linear" x1="272.657" y1="278.242" x2="12.713" y2="278.242" gradientUnits="userSpaceOnUse"><stop stop-color="#C0BFF6"/><stop offset=".294" stop-color="#C5C4F7"/><stop offset=".64" stop-color="#D3D2F9"/><stop offset="1" stop-color="#E9E9FD"/></linearGradient><linearGradient id="apaint8_linear" x1="459.856" y1="228.056" x2="200.05" y2="228.056" gradientUnits="userSpaceOnUse"><stop stop-color="#5761D7"/><stop offset=".178" stop-color="#5C66D9"/><stop offset=".388" stop-color="#6A73DF"/><stop offset=".613" stop-color="#8289E8"/><stop offset=".849" stop-color="#A3A7F5"/><stop offset="1" stop-color="#BCBEFF"/></linearGradient><linearGradient id="apaint9_linear" x1="372.56" y1="220.936" x2="112.615" y2="220.936" gradientUnits="userSpaceOnUse"><stop stop-color="#C0BFF6"/><stop offset=".294" stop-color="#C5C4F7"/><stop offset=".64" stop-color="#D3D2F9"/><stop offset="1" stop-color="#E9E9FD"/></linearGradient><linearGradient id="apaint10_linear" x1="388.123" y1="348.946" x2="451.289" y2="385.334" gradientUnits="userSpaceOnUse"><stop stop-color="#BCBEFF"/><stop offset=".227" stop-color="#AAADF8"/><stop offset=".68" stop-color="#7C83E5"/><stop offset="1" stop-color="#5761D7"/></linearGradient><linearGradient id="apaint11_linear" x1="391.91" y1="346.488" x2="448.242" y2="378.938" gradientUnits="userSpaceOnUse"><stop offset=".242" stop-color="#5761D7"/><stop offset=".392" stop-color="#7A82E5"/><stop offset=".546" stop-color="#979CF0"/><stop offset=".7" stop-color="#ACAFF8"/><stop offset=".852" stop-color="#B8BAFD"/><stop offset="1" stop-color="#BCBEFF"/></linearGradient><linearGradient id="apaint1_linear" x1="272.657" y1="300.775" x2="12.713" y2="300.775" gradientUnits="userSpaceOnUse"><stop stop-color="#C0BFF6"/><stop offset=".294" stop-color="#C5C4F7"/><stop offset=".64" stop-color="#D3D2F9"/><stop offset="1" stop-color="#E9E9FD"/></linearGradient><linearGradient id="apaint13_linear" x1="381.433" y1="362.747" x2="458.515" y2="362.747" gradientUnits="userSpaceOnUse"><stop stop-color="#E9E9FD"/><stop offset=".36" stop-color="#D3D2F9"/><stop offset=".706" stop-color="#C5C4F7"/><stop offset="1" stop-color="#C0BFF6"/></linearGradient><linearGradient id="apaint14_linear" x1="419.972" y1="382.144" x2="419.972" y2="253.405" gradientUnits="userSpaceOnUse"><stop stop-color="#42E8E0"/><stop offset=".22" stop-color="#2C87A1"/><stop offset=".338" stop-color="#235F87"/><stop offset="1" stop-color="#1B2546"/></linearGradient><linearGradient id="apaint15_linear" x1="77.039" y1="125.066" x2="140.205" y2="161.454" gradientUnits="userSpaceOnUse"><stop stop-color="#BCBEFF"/><stop offset=".227" stop-color="#AAADF8"/><stop offset=".68" stop-color="#7C83E5"/><stop offset="1" stop-color="#5761D7"/></linearGradient><linearGradient id="apaint16_linear" x1="69.128" y1="138.867" x2="148.652" y2="138.867" gradientUnits="userSpaceOnUse"><stop stop-color="#E9E9FD"/><stop offset=".36" stop-color="#D3D2F9"/><stop offset=".706" stop-color="#C5C4F7"/><stop offset="1" stop-color="#C0BFF6"/></linearGradient><linearGradient id="apaint17_linear" x1=".14" y1="326.534" x2="74.624" y2="326.534" gradientUnits="userSpaceOnUse"><stop stop-color="#BCBEFF"/><stop offset=".151" stop-color="#A3A7F5"/><stop offset=".387" stop-color="#8289E8"/><stop offset=".612" stop-color="#6A73DF"/><stop offset=".822" stop-color="#5C66D9"/><stop offset="1" stop-color="#5761D7"/></linearGradient><linearGradient id="apaint22_linear" x1="318.042" y1="196.047" x2="371.71" y2="218.957" gradientUnits="userSpaceOnUse"><stop stop-color="#42E8E0"/><stop offset=".105" stop-color="#37B6BF"/><stop offset=".22" stop-color="#2C87A1"/><stop offset=".338" stop-color="#235F87"/><stop offset=".459" stop-color="#1C3F72"/><stop offset=".582" stop-color="#162561"/><stop offset=".711" stop-color="#121355"/><stop offset=".846" stop-color="#10084E"/><stop offset="1" stop-color="#0F054C"/></linearGradient><linearGradient id="apaint19_linear" x1=".14" y1="315.213" x2="74.624" y2="315.213" gradientUnits="userSpaceOnUse"><stop stop-color="#C0BFF6"/><stop offset=".294" stop-color="#C5C4F7"/><stop offset=".64" stop-color="#D3D2F9"/><stop offset="1" stop-color="#E9E9FD"/></linearGradient><linearGradient id="apaint20_linear" x1="2.846" y1="314.15" x2="72.183" y2="314.15" gradientUnits="userSpaceOnUse"><stop stop-color="#C0BFF6"/><stop offset=".294" stop-color="#C5C4F7"/><stop offset=".64" stop-color="#D3D2F9"/><stop offset="1" stop-color="#E9E9FD"/></linearGradient><linearGradient id="apaint21_linear" x1="37.512" y1="205.702" x2="37.512" y2="326.132" gradientUnits="userSpaceOnUse"><stop offset=".096" stop-color="#1B2546"/><stop offset=".662" stop-color="#235F87"/><stop offset=".78" stop-color="#2C87A1"/><stop offset=".894" stop-color="#37B6BF"/><stop offset="1" stop-color="#42E8E0"/></linearGradient><radialGradient id="apaint18_radial" cx="0" cy="0" r="1" gradientUnits="userSpaceOnUse" gradientTransform="matrix(43.2852 0 0 43.3817 72.744 337.932)"><stop stop-color="#42E8E0"/><stop offset=".035" stop-color="#3FDCD8"/><stop offset=".236" stop-color="#319CAE"/><stop offset=".429" stop-color="#25668B"/><stop offset=".606" stop-color="#1B3C70"/><stop offset=".766" stop-color="#151E5C"/><stop offset=".903" stop-color="#100C50"/><stop offset="1" stop-color="#0F054C"/></radialGradient><clipPath id="aclip0"><path fill="#fff" d="M0 0h577v452H0z"/></clipPath></defs></svg>