<svg width="569" height="242" viewBox="0 0 569 242" fill="none" xmlns="http://www.w3.org/2000/svg">
<path d="M204.15 98.613C208.09 98.613 211.284 95.4158 211.284 91.4719C211.284 87.5281 208.09 84.3311 204.15 84.3311C200.21 84.3311 197.017 87.5281 197.017 91.4719C197.017 95.4158 200.21 98.613 204.15 98.613Z" fill="#6D7693"/>
<path d="M206.636 102.018C204.858 101.657 202.926 101.673 201.179 102.085C189.32 103.476 185.47 117.218 186.556 127.695C187.028 132.225 194.162 132.273 193.685 127.695C193.289 123.877 193.459 118.114 195.486 114.018C195.486 118.996 195.486 123.975 195.486 128.952C195.486 129.127 195.504 129.292 195.512 129.461C195.507 129.542 195.488 129.611 195.488 129.692C195.488 141.543 195.468 153.388 194.978 165.228C194.761 170.491 202.915 170.47 203.13 165.228C203.512 155.948 203.61 146.664 203.631 137.377C204.018 137.403 204.404 137.403 204.79 137.38C204.814 146.667 204.907 155.951 205.287 165.228C205.503 170.47 213.657 170.491 213.438 165.228C212.95 153.388 212.932 141.543 212.932 129.692C212.932 129.325 212.883 128.991 212.808 128.669C212.797 123.524 212.601 118.375 212.662 113.234C215.089 117.348 215.311 123.625 214.889 127.691C214.412 132.266 221.547 132.22 222.018 127.691C223.132 116.997 219.096 102.899 206.636 102.018Z" fill="#6D7693"/>
<path d="M251.659 98.613C255.599 98.613 258.793 95.4158 258.793 91.4719C258.793 87.5281 255.599 84.3311 251.659 84.3311C247.719 84.3311 244.525 87.5281 244.525 91.4719C244.525 95.4158 247.719 98.613 251.659 98.613Z" fill="#6D7693"/>
<path d="M254.145 102.018C252.367 101.657 250.435 101.673 248.688 102.085C236.829 103.476 232.978 117.218 234.065 127.695C234.537 132.225 241.671 132.273 241.194 127.695C240.798 123.877 240.968 118.114 242.996 114.018C242.996 118.996 242.996 123.975 242.996 128.952C242.996 129.127 243.012 129.292 243.021 129.461C243.016 129.542 242.996 129.611 242.996 129.692C242.996 141.543 242.976 153.388 242.487 165.228C242.27 170.491 250.423 170.47 250.638 165.228C251.021 155.948 251.118 146.664 251.14 137.377C251.527 137.403 251.913 137.403 252.299 137.38C252.323 146.667 252.416 155.951 252.796 165.228C253.012 170.47 261.165 170.491 260.947 165.228C260.459 153.388 260.441 141.543 260.441 129.692C260.441 129.325 260.392 128.991 260.317 128.669C260.306 123.524 260.11 118.375 260.17 113.234C262.598 117.348 262.82 123.625 262.399 127.691C261.921 132.266 269.056 132.22 269.527 127.691C270.64 116.997 266.604 102.899 254.145 102.018Z" fill="#6D7693"/>
<path d="M17.7703 98.613C21.7101 98.613 24.904 95.4158 24.904 91.4719C24.904 87.5281 21.7101 84.3311 17.7703 84.3311C13.8306 84.3311 10.6367 87.5281 10.6367 91.4719C10.6367 95.4158 13.8306 98.613 17.7703 98.613Z" fill="#6D7693"/>
<path d="M20.2548 102.018C18.4774 101.657 16.5448 101.673 14.799 102.085C2.93921 103.476 -0.911699 117.218 0.175672 127.695C0.647341 132.225 7.78094 132.273 7.30452 127.695C6.90883 123.877 7.07818 118.114 9.10573 114.018C9.10573 118.996 9.10573 123.975 9.10573 128.952C9.10573 129.127 9.12314 129.292 9.13105 129.461C9.12631 129.542 9.10731 129.611 9.10731 129.692C9.10731 141.543 9.08673 153.388 8.59766 165.228C8.38082 170.491 16.5337 170.47 16.7489 165.228C17.132 155.948 17.2286 146.664 17.2507 137.377C17.6369 137.403 18.0231 137.403 18.4094 137.38C18.433 146.667 18.5264 155.951 18.9063 165.228C19.1231 170.47 27.276 170.491 27.0577 165.228C26.5686 153.388 26.5512 141.543 26.5512 129.692C26.5512 129.325 26.5021 128.991 26.4277 128.669C26.4166 123.524 26.2204 118.375 26.2805 113.234C28.7085 117.348 28.9301 123.625 28.5091 127.691C28.0311 132.266 35.1663 132.22 35.6379 127.691C36.7506 116.997 32.7145 102.899 20.2548 102.018Z" fill="#6D7693"/>
<path d="M123.601 102.022C124.537 100.242 128.228 96.654 128.228 89.8642C128.228 76.0279 115.326 73.4264 114.64 72.9403C114.593 72.4376 114.47 71.1438 114.433 70.7495C113.423 60.139 104.623 52.1382 93.9668 52.1382C83.4242 52.1382 74.6515 60.143 73.5607 70.7567L73.3366 72.9337C72.6513 73.4168 59.4773 75.9739 59.4773 89.8642C59.4773 96.646 63.1706 100.247 64.1046 102.022C63.447 102.712 52.625 108.226 52.625 120.96C52.625 132.307 62.0744 141.309 73.4101 141.309H114.523C125.859 141.309 135.08 132.078 135.08 120.731C135.08 107.922 124.381 102.842 123.601 102.022Z" fill="#6D7693"/>
<path d="M158.091 102.022C159.027 100.242 162.717 96.654 162.717 89.8642C162.717 76.0279 149.588 73.4264 148.902 72.9403C148.854 72.4376 148.732 71.1438 148.695 70.7495C147.685 60.139 138.884 52.1382 128.229 52.1382C123.602 52.1382 119.367 53.7458 115.922 56.3734C118.439 59.7683 120.263 63.7292 120.998 68.1343C133.181 73.9251 135.08 84.0298 135.08 89.8642C135.08 94.2652 133.939 97.7517 132.662 100.357C138.884 105.984 141.933 112.77 141.933 120.731C141.933 128.964 138.216 136.275 132.46 141.309H148.785C160.12 141.309 169.57 132.078 169.57 120.731C169.57 107.922 158.871 102.842 158.091 102.022Z" fill="#6D7693"/>
<path d="M141.933 162.344V148.168H128.228V162.344H100.819V148.168H87.1146V162.344H73.4102V169.203H155.637V162.344H141.933Z" fill="#6D7693"/>
<path d="M505.67 93.7319C501.604 93.7319 498.312 97.0273 498.312 101.098C498.312 105.169 501.604 108.464 505.67 108.464C509.737 108.464 513.029 105.169 513.029 101.098C513.029 97.0273 509.737 93.7319 505.67 93.7319Z" fill="#6D7693"/>
<path d="M508.536 109.317H502.804C497.033 109.317 492.348 114.007 492.348 119.784V124.048C492.348 124.708 492.851 125.211 493.509 125.211H517.831C518.489 125.211 518.992 124.708 518.992 124.048V119.784C518.992 114.007 514.307 109.317 508.536 109.317Z" fill="#6D7693"/>
<path d="M494.686 57.1717C494.686 59.0611 494.241 60.5861 493.354 61.747C492.467 62.9078 491.23 63.4882 489.647 63.4882C488.911 63.4882 488.26 63.3561 487.692 63.0919C487.124 62.8277 486.636 62.4394 486.228 61.9271V68.2316H483.313V50.2427H485.772L486.06 51.8759C486.476 51.2675 486.976 50.8031 487.56 50.4829C488.151 50.1627 488.835 50.0026 489.611 50.0026C491.211 50.0026 492.454 50.6391 493.342 51.9119C494.237 53.1768 494.686 54.846 494.686 56.9195V57.1717ZM491.783 56.9195C491.783 55.5905 491.53 54.5057 491.027 53.6651C490.531 52.8166 489.787 52.3923 488.795 52.3923C488.188 52.3923 487.672 52.5244 487.248 52.7885C486.824 53.0447 486.484 53.405 486.228 53.8694V59.7415C486.484 60.1979 486.824 60.55 487.248 60.7982C487.672 61.0385 488.196 61.1585 488.82 61.1585C489.811 61.1585 490.551 60.7943 491.039 60.0657C491.535 59.3292 491.783 58.3646 491.783 57.1717V56.9195ZM505.039 63.2359C504.935 62.9078 504.846 62.5876 504.774 62.2753C504.71 61.9631 504.666 61.6508 504.643 61.3386C504.243 61.9471 503.715 62.4595 503.058 62.8757C502.411 63.284 501.684 63.4882 500.876 63.4882C499.524 63.4882 498.484 63.1399 497.757 62.4434C497.036 61.747 496.677 60.7903 496.677 59.5734C496.677 58.3165 497.173 57.3398 498.164 56.6433C499.156 55.9388 500.552 55.5866 502.351 55.5866H504.618V54.4457C504.618 53.7653 504.419 53.2329 504.019 52.8486C503.619 52.4643 503.047 52.2722 502.303 52.2722C501.639 52.2722 501.112 52.4323 500.72 52.7525C500.327 53.0727 500.132 53.485 500.132 53.9894H497.324L497.312 53.9174C497.256 52.8926 497.712 51.984 498.68 51.1914C499.656 50.3988 500.924 50.0026 502.483 50.0026C503.995 50.0026 505.215 50.3868 506.142 51.1554C507.07 51.9239 507.534 53.0288 507.534 54.4697V60.2459C507.534 60.7822 507.569 61.2986 507.641 61.795C507.714 62.2833 507.83 62.7636 507.99 63.2359H505.039ZM501.464 61.1465C502.2 61.1465 502.859 60.9624 503.443 60.5941C504.034 60.2259 504.426 59.8055 504.618 59.3333V57.4118H502.303C501.456 57.4118 500.791 57.624 500.312 58.0483C499.832 58.4646 499.592 58.957 499.592 59.5254C499.592 60.0217 499.752 60.418 500.072 60.7142C500.4 61.0024 500.864 61.1465 501.464 61.1465ZM517.058 52.8726L515.81 52.8246C515.243 52.8246 514.767 52.9446 514.383 53.1849C514.007 53.425 513.715 53.7653 513.508 54.2056V63.2359H510.592V50.2427H513.255L513.448 52.128C513.775 51.4636 514.196 50.9432 514.707 50.567C515.227 50.1907 515.823 50.0026 516.494 50.0026C516.67 50.0026 516.834 50.0186 516.987 50.0506C517.138 50.0746 517.279 50.1067 517.406 50.1467L517.058 52.8726ZM523.332 57.5559H522.025V63.2359H519.122V44.5027H522.025V55.2143H523.237L526.511 50.2427H529.942L525.659 56.151L530.578 63.2359H527.195L523.332 57.5559Z" fill="#6D7693"/>
<path d="M501.234 150.563H503.262C504.206 150.563 504.885 150.331 505.302 149.867C505.718 149.395 505.925 148.73 505.925 147.873C505.925 147.033 505.702 146.384 505.254 145.928C504.806 145.464 504.146 145.231 503.275 145.231C502.482 145.231 501.835 145.46 501.331 145.916C500.835 146.364 500.587 146.957 500.587 147.693H497.78L497.756 147.621C497.708 146.284 498.204 145.164 499.243 144.259C500.291 143.346 501.623 142.889 503.238 142.889C504.941 142.889 506.301 143.322 507.316 144.187C508.333 145.051 508.841 146.28 508.841 147.873C508.841 148.617 508.613 149.339 508.157 150.035C507.701 150.732 507.053 151.272 506.213 151.656C507.204 152.008 507.933 152.545 508.396 153.265C508.868 153.986 509.104 154.806 509.104 155.727C509.104 157.327 508.553 158.589 507.449 159.509C506.353 160.422 504.95 160.879 503.238 160.879C501.623 160.879 500.263 160.45 499.16 159.593C498.064 158.729 497.54 157.536 497.588 156.015L497.612 155.943H500.419C500.419 156.72 500.679 157.348 501.199 157.828C501.719 158.308 502.411 158.548 503.275 158.548C504.178 158.548 504.89 158.304 505.41 157.816C505.929 157.328 506.189 156.635 506.189 155.739C506.189 154.754 505.95 154.03 505.47 153.566C504.997 153.093 504.262 152.856 503.262 152.856H501.234V150.563ZM481.386 181.352C481.386 182.863 481.03 184.083 480.321 185.012C479.61 185.941 478.622 186.405 477.355 186.405C476.766 186.405 476.246 186.3 475.791 186.088C475.337 185.877 474.946 185.566 474.62 185.157V190.2H472.288V175.809H474.255L474.485 177.115C474.819 176.628 475.219 176.258 475.685 176.001C476.159 175.745 476.705 175.617 477.327 175.617C478.606 175.617 479.601 176.126 480.311 177.144C481.028 178.156 481.386 179.491 481.386 181.151V181.352ZM479.063 181.151C479.063 180.087 478.862 179.22 478.459 178.547C478.063 177.868 477.467 177.529 476.674 177.529C476.188 177.529 475.775 177.634 475.436 177.845C475.097 178.05 474.824 178.338 474.62 178.71V183.407C474.824 183.773 475.097 184.055 475.436 184.253C475.775 184.445 476.193 184.542 476.693 184.542C477.487 184.542 478.078 184.25 478.468 183.667C478.865 183.078 479.063 182.307 479.063 181.352V181.151ZM487.873 186.405C486.402 186.405 485.228 185.925 484.351 184.964C483.481 183.997 483.046 182.758 483.046 181.246V180.862C483.046 179.35 483.478 178.098 484.342 177.106C485.212 176.107 486.3 175.61 487.605 175.617C489.006 175.617 490.077 176.042 490.819 176.894C491.568 177.74 491.943 178.876 491.943 180.305V181.679H485.465L485.446 181.726C485.484 182.553 485.724 183.228 486.165 183.754C486.613 184.279 487.23 184.542 488.018 184.542C488.645 184.542 489.182 184.465 489.629 184.31C490.077 184.157 490.51 183.937 490.926 183.648L491.673 185.175C491.283 185.521 490.765 185.813 490.119 186.05C489.473 186.287 488.724 186.405 487.873 186.405ZM487.605 177.49C487.029 177.49 486.555 177.72 486.185 178.182C485.813 178.636 485.583 179.216 485.493 179.921L485.513 179.968H489.629V179.728C489.629 179.069 489.46 178.531 489.121 178.115C488.788 177.698 488.283 177.49 487.605 177.49ZM498.997 177.913L497.998 177.874C497.544 177.874 497.163 177.97 496.856 178.162C496.556 178.355 496.322 178.626 496.156 178.98V186.203H493.824V175.809H495.954L496.107 177.317C496.37 176.786 496.706 176.37 497.116 176.069C497.531 175.768 498.008 175.617 498.546 175.617C498.686 175.617 498.817 175.63 498.939 175.656C499.061 175.674 499.173 175.7 499.275 175.732L498.997 177.913ZM506.472 183.379C506.472 183.021 506.319 182.723 506.011 182.486C505.705 182.249 505.132 182.04 504.294 181.861C503.052 181.598 502.112 181.227 501.472 180.746C500.839 180.26 500.522 179.6 500.522 178.768C500.522 177.897 500.89 177.154 501.626 176.539C502.362 175.924 503.331 175.617 504.533 175.617C505.8 175.617 506.805 175.931 507.547 176.559C508.296 177.179 508.654 177.952 508.623 178.873L508.603 178.931H506.367C506.367 178.502 506.204 178.134 505.878 177.827C505.552 177.519 505.103 177.365 504.533 177.365C503.97 177.365 503.542 177.493 503.248 177.75C502.953 177.999 502.807 178.307 502.807 178.672C502.807 179.037 502.944 179.328 503.219 179.546C503.501 179.758 504.067 179.947 504.918 180.113C506.223 180.381 507.189 180.763 507.816 181.256C508.45 181.743 508.766 182.409 508.766 183.254C508.766 184.189 508.379 184.948 507.604 185.531C506.837 186.114 505.823 186.405 504.563 186.405C503.213 186.405 502.147 186.06 501.367 185.368C500.586 184.676 500.215 183.882 500.254 182.985L500.272 182.927H502.441C502.468 183.529 502.685 183.968 503.095 184.244C503.503 184.519 504.003 184.657 504.591 184.657C505.193 184.657 505.657 184.542 505.983 184.31C506.309 184.08 506.472 183.769 506.472 183.379ZM510.436 180.91C510.436 179.366 510.858 178.098 511.702 177.106C512.56 176.113 513.721 175.617 515.186 175.617C516.677 175.617 517.844 176.113 518.69 177.106C519.541 178.092 519.966 179.36 519.966 180.91V181.111C519.966 182.675 519.541 183.949 518.69 184.935C517.844 185.915 516.684 186.405 515.206 186.405C513.721 186.405 512.553 185.912 511.702 184.925C510.858 183.94 510.436 182.669 510.436 181.111V180.91ZM512.768 181.111C512.768 182.124 512.966 182.95 513.363 183.59C513.753 184.225 514.368 184.542 515.206 184.542C516.019 184.542 516.626 184.225 517.029 183.59C517.439 182.95 517.643 182.124 517.643 181.111V180.91C517.643 179.917 517.439 179.101 517.029 178.46C516.626 177.814 516.012 177.49 515.186 177.49C514.373 177.49 513.766 177.814 513.363 178.46C512.966 179.107 512.768 179.924 512.768 180.91V181.111ZM524.111 175.809L524.246 177.307C524.585 176.776 525.011 176.363 525.523 176.069C526.04 175.768 526.623 175.617 527.269 175.617C528.35 175.617 529.192 175.947 529.793 176.606C530.401 177.259 530.704 178.281 530.704 179.671V186.203H528.372V179.69C528.372 178.909 528.209 178.355 527.883 178.028C527.564 177.695 527.074 177.529 526.415 177.529C525.961 177.529 525.554 177.631 525.196 177.836C524.838 178.034 524.544 178.31 524.313 178.662V186.203H521.981V175.809H524.111ZM538.967 183.379C538.967 183.021 538.814 182.723 538.507 182.486C538.2 182.249 537.628 182.04 536.79 181.861C535.548 181.598 534.608 181.227 533.968 180.746C533.334 180.26 533.018 179.6 533.018 178.768C533.018 177.897 533.385 177.154 534.121 176.539C534.857 175.924 535.826 175.617 537.029 175.617C538.296 175.617 539.3 175.931 540.042 176.559C540.791 177.179 541.15 177.952 541.117 178.873L541.098 178.931H538.862C538.862 178.502 538.699 178.134 538.373 177.827C538.046 177.519 537.598 177.365 537.029 177.365C536.466 177.365 536.038 177.493 535.743 177.75C535.449 177.999 535.302 178.307 535.302 178.672C535.302 179.037 535.439 179.328 535.714 179.546C535.996 179.758 536.563 179.947 537.413 180.113C538.719 180.381 539.685 180.763 540.312 181.256C540.945 181.743 541.261 182.409 541.261 183.254C541.261 184.189 540.875 184.948 540.1 185.531C539.333 186.114 538.319 186.405 537.058 186.405C535.708 186.405 534.642 186.06 533.862 185.368C533.082 184.676 532.71 183.882 532.749 182.985L532.768 182.927H534.937C534.963 183.529 535.18 183.968 535.59 184.244C535.999 184.519 536.498 184.657 537.086 184.657C537.688 184.657 538.152 184.542 538.478 184.31C538.804 184.08 538.967 183.769 538.967 183.379Z" fill="white"/>
<path d="M550.175 0H462.466C457.621 0.00544652 452.977 1.93432 449.551 5.36345C446.125 8.79257 444.199 13.4419 444.193 18.2915V208.522C444.199 213.371 446.125 218.021 449.551 221.45C452.977 224.879 457.621 226.808 462.466 226.813H550.175C555.019 226.808 559.664 224.879 563.089 221.45C566.515 218.021 568.442 213.371 568.448 208.522V18.2915C568.442 13.4419 566.515 8.79257 563.089 5.36345C559.664 1.93432 555.019 0.00544652 550.175 0ZM531.099 7.31657L528.907 18.2915H483.734L481.542 7.31657H531.099ZM561.138 208.522C561.135 211.432 559.978 214.221 557.924 216.279C555.868 218.336 553.082 219.494 550.175 219.497H462.466C459.559 219.494 456.772 218.336 454.717 216.279C452.662 214.221 451.506 211.432 451.503 208.522V18.2915C451.506 15.3817 452.662 12.5921 454.717 10.5347C456.772 8.47716 459.559 7.31983 462.466 7.31657H474.088L477.155 22.6671C477.32 23.4965 477.768 24.2427 478.422 24.7788C479.075 25.3151 479.894 25.608 480.739 25.6079H531.902C532.747 25.608 533.566 25.3151 534.219 24.7788C534.873 24.2427 535.32 23.4965 535.486 22.6671L538.553 7.31657H550.175C553.082 7.31983 555.868 8.47716 557.924 10.5347C559.978 12.5921 561.135 15.3817 561.138 18.2915V208.522Z" fill="#6D7693"/>
<path d="M415.406 121.695C415.791 121.312 415.791 120.688 415.406 120.304L409.152 114.044C408.769 113.659 408.146 113.659 407.763 114.044C407.378 114.428 407.378 115.051 407.763 115.435L413.322 121L407.763 126.565C407.378 126.949 407.378 127.572 407.763 127.956C408.146 128.341 408.769 128.341 409.152 127.956L415.406 121.695ZM299.732 121.984H414.712V120.016H299.732V121.984Z" fill="#6D7693"/>
</svg>
