<svg width="680" height="593" viewBox="0 0 680 593" fill="none" xmlns="http://www.w3.org/2000/svg">
<path opacity="0.5" d="M305.764 592.646C418.733 592.646 510.313 501.042 510.313 388.042C510.313 275.042 418.733 183.437 305.764 183.437C192.794 183.437 101.214 275.042 101.214 388.042C101.214 501.042 192.794 592.646 305.764 592.646Z" fill="#3F4C77"/>
<path opacity="0.5" d="M153.431 416.71C237.779 416.71 306.156 348.314 306.156 263.944C306.156 179.573 237.779 111.178 153.431 111.178C69.0834 111.178 0.706055 179.573 0.706055 263.944C0.706055 348.314 69.0834 416.71 153.431 416.71Z" fill="#4C5A86"/>
<path opacity="0.5" d="M475.371 409.641C588.341 409.641 679.921 318.037 679.921 205.037C679.921 92.0367 588.341 0.432129 475.371 0.432129C362.401 0.432129 270.821 92.0367 270.821 205.037C270.821 318.037 362.401 409.641 475.371 409.641Z" fill="#2A365C"/>
<path opacity="0.5" d="M434.54 393.147C512.382 393.147 575.486 330.026 575.486 252.162C575.486 174.299 512.382 111.178 434.54 111.178C356.697 111.178 293.593 174.299 293.593 252.162C293.593 330.026 356.697 393.147 434.54 393.147Z" fill="#384673"/>
<path opacity="0.5" d="M408.831 383.788C461.075 382.858 502.673 339.74 501.743 287.483C500.813 235.225 457.707 193.616 405.463 194.546C353.22 195.477 311.622 238.594 312.552 290.851C313.482 343.109 356.588 384.718 408.831 383.788Z" fill="#455380"/>
<path d="M191.411 503.893V459.221H206.256C211.205 459.221 215.07 460.244 217.85 462.289C220.631 464.314 222.022 467.351 222.022 471.402C222.022 473.427 221.439 475.236 220.273 476.832C219.108 478.428 217.493 479.614 215.428 480.391C218.086 480.984 220.131 482.263 221.562 484.226C222.993 486.19 223.709 488.47 223.709 491.068C223.709 495.261 222.339 498.452 219.599 500.64C216.859 502.809 213.076 503.893 208.25 503.893H191.411ZM198.864 483.582V497.941H208.25C210.826 497.941 212.81 497.357 214.201 496.192C215.591 495.006 216.286 493.297 216.286 491.068C216.286 488.696 215.703 486.855 214.538 485.545C213.372 484.237 211.553 483.582 209.079 483.582H198.864ZM198.864 478.029H207.085C209.395 478.029 211.215 477.487 212.545 476.403C213.894 475.298 214.569 473.743 214.569 471.739C214.569 469.53 213.863 467.893 212.452 466.83C211.042 465.746 208.976 465.204 206.256 465.204H198.864V478.029ZM238.647 503.893H231.193V470.696H238.647V503.893ZM238.647 462.566H231.193V456.03H238.647V462.566ZM245.671 487.755C245.671 482.477 246.826 478.212 249.137 474.961C251.447 471.708 254.657 470.082 258.768 470.082C260.752 470.082 262.489 470.512 263.982 471.371C265.496 472.209 266.773 473.427 267.816 475.022L268.553 470.696H274.748V503.893C274.748 508.168 273.43 511.471 270.791 513.803C268.154 516.135 264.411 517.3 259.565 517.3C257.95 517.3 256.202 517.065 254.321 516.595C252.46 516.145 250.773 515.542 249.259 514.784L250.855 508.924C252.081 509.558 253.431 510.049 254.903 510.397C256.396 510.765 257.929 510.949 259.504 510.949C262.203 510.949 264.177 510.366 265.424 509.201C266.671 508.055 267.295 506.286 267.295 503.893V500.487C266.252 501.817 265.015 502.829 263.584 503.524C262.173 504.199 260.547 504.537 258.707 504.537C254.637 504.537 251.447 503.054 249.137 500.088C246.826 497.122 245.671 493.226 245.671 488.399V487.755ZM253.124 488.399C253.124 491.446 253.728 493.89 254.934 495.731C256.161 497.552 258.052 498.462 260.609 498.462C262.203 498.462 263.543 498.135 264.627 497.481C265.731 496.805 266.62 495.844 267.295 494.596V480.053C266.6 478.847 265.7 477.906 264.596 477.231C263.512 476.536 262.203 476.188 260.67 476.188C258.114 476.188 256.212 477.262 254.964 479.409C253.738 481.557 253.124 484.339 253.124 487.755V488.399ZM299.194 503.893V459.221H313.672C319.336 459.221 323.937 460.99 327.475 464.529C331.033 468.068 332.812 472.619 332.812 478.182V484.962C332.812 490.547 331.033 495.098 327.475 498.616C323.937 502.133 319.336 503.893 313.672 503.893H299.194ZM306.648 465.204V497.941H313.457C317.159 497.941 320.062 496.734 322.168 494.32C324.295 491.906 325.359 488.787 325.359 484.962V478.121C325.359 474.337 324.295 471.238 322.168 468.824C320.062 466.411 317.159 465.204 313.457 465.204H306.648ZM359.497 503.893C359.231 503.054 359.006 502.236 358.822 501.438C358.658 500.64 358.546 499.843 358.485 499.045C357.462 500.6 356.112 501.909 354.436 502.972C352.779 504.015 350.919 504.537 348.853 504.537C345.397 504.537 342.739 503.647 340.878 501.868C339.038 500.088 338.118 497.644 338.118 494.535C338.118 491.324 339.386 488.828 341.921 487.049C344.457 485.249 348.025 484.349 352.626 484.349H358.423V481.434C358.423 479.696 357.912 478.336 356.89 477.354C355.867 476.372 354.405 475.881 352.504 475.881C350.806 475.881 349.457 476.29 348.455 477.108C347.453 477.927 346.952 478.98 346.952 480.269H339.774L339.744 480.084C339.601 477.466 340.766 475.145 343.24 473.12C345.735 471.095 348.976 470.082 352.964 470.082C356.829 470.082 359.947 471.064 362.319 473.028C364.691 474.991 365.877 477.814 365.877 481.496V496.253C365.877 497.624 365.969 498.943 366.153 500.211C366.337 501.459 366.634 502.686 367.042 503.893H359.497ZM350.356 498.554C352.237 498.554 353.925 498.084 355.418 497.143C356.931 496.202 357.933 495.128 358.423 493.921V489.012H352.504C350.336 489.012 348.639 489.555 347.411 490.639C346.185 491.702 345.572 492.96 345.572 494.412C345.572 495.68 345.981 496.693 346.798 497.45C347.637 498.186 348.822 498.554 350.356 498.554ZM382.961 462.627V470.696H388.912V476.218H382.961V494.566C382.961 495.936 383.258 496.918 383.851 497.511C384.444 498.084 385.232 498.37 386.213 498.37C386.621 498.37 387.02 498.339 387.409 498.278C387.798 498.196 388.166 498.094 388.513 497.971L389.311 503.433C388.677 503.781 387.92 504.046 387.041 504.23C386.161 504.435 385.252 504.537 384.311 504.537C381.571 504.537 379.424 503.739 377.87 502.144C376.315 500.528 375.539 498.002 375.539 494.566V476.218H370.477V470.696H375.539V462.627H382.961ZM415.505 503.893C415.239 503.054 415.014 502.236 414.83 501.438C414.667 500.64 414.554 499.843 414.493 499.045C413.47 500.6 412.121 501.909 410.444 502.972C408.788 504.015 406.927 504.537 404.862 504.537C401.406 504.537 398.748 503.647 396.887 501.868C395.047 500.088 394.127 497.644 394.127 494.535C394.127 491.324 395.394 488.828 397.929 487.049C400.466 485.249 404.034 484.349 408.634 484.349H414.431V481.434C414.431 479.696 413.92 478.336 412.898 477.354C411.876 476.372 410.414 475.881 408.512 475.881C406.815 475.881 405.465 476.29 404.463 477.108C403.461 477.927 402.96 478.98 402.96 480.269H395.783L395.752 480.084C395.609 477.466 396.774 475.145 399.249 473.12C401.743 471.095 404.984 470.082 408.972 470.082C412.837 470.082 415.955 471.064 418.327 473.028C420.699 474.991 421.885 477.814 421.885 481.496V496.253C421.885 497.624 421.977 498.943 422.161 500.211C422.345 501.459 422.642 502.686 423.051 503.893H415.505ZM406.365 498.554C408.246 498.554 409.933 498.084 411.426 497.143C412.939 496.202 413.941 495.128 414.431 493.921V489.012H408.512C406.344 489.012 404.647 489.555 403.42 490.639C402.193 491.702 401.58 492.96 401.58 494.412C401.58 495.68 401.989 496.693 402.806 497.45C403.645 498.186 404.831 498.554 406.365 498.554Z" fill="white"/>
<path d="M575.364 97.3374H566.715L564.905 102.538H560.871L569.306 80.2017H572.788L581.238 102.538H577.189L575.364 97.3374ZM567.803 94.2074H574.275L571.039 84.9417L567.803 94.2074ZM587.879 102.538H584.014V80.2017H587.879V102.538Z" fill="white"/>
<path d="M488.686 174.453L495.128 191.573L501.554 174.453H506.569V196.789H502.704V189.426L503.087 179.578L496.493 196.789H493.717L487.138 179.592L487.521 189.426V196.789H483.656V174.453H488.686ZM515.05 193.69H525.187V196.789H511.17V174.453H515.05V193.69Z" fill="white"/>
<path d="M347.856 283.972V261.636H355.095C357.927 261.636 360.228 262.521 361.997 264.29C363.775 266.06 364.665 268.335 364.665 271.117V274.507C364.665 277.299 363.775 279.575 361.997 281.333C360.228 283.093 357.927 283.972 355.095 283.972H347.856ZM351.583 264.628V280.996H354.988C356.839 280.996 358.29 280.393 359.343 279.186C360.407 277.979 360.938 276.42 360.938 274.507V271.087C360.938 269.194 360.407 267.645 359.343 266.438C358.29 265.231 356.839 264.628 354.988 264.628H351.583ZM375.14 284.294C372.788 284.294 370.912 283.527 369.511 281.993C368.121 280.449 367.426 278.47 367.426 276.057V275.443C367.426 273.03 368.116 271.03 369.496 269.445C370.886 267.849 372.625 267.056 374.71 267.067C376.95 267.067 378.662 267.747 379.848 269.107C381.045 270.457 381.642 272.273 381.642 274.553V276.747H371.291L371.26 276.823C371.321 278.143 371.704 279.222 372.409 280.06C373.126 280.899 374.112 281.318 375.37 281.318C376.372 281.318 377.231 281.196 377.946 280.95C378.662 280.705 379.352 280.351 380.017 279.891L381.213 282.331C380.589 282.883 379.761 283.349 378.728 283.726C377.696 284.105 376.5 284.294 375.14 284.294ZM374.71 270.058C373.79 270.058 373.034 270.427 372.44 271.163C371.847 271.889 371.48 272.814 371.336 273.939L371.367 274.016H377.946V273.633C377.946 272.58 377.675 271.72 377.133 271.055C376.602 270.391 375.794 270.058 374.71 270.058ZM391.764 284.294C389.413 284.294 387.537 283.527 386.136 281.993C384.745 280.449 384.05 278.47 384.05 276.057V275.443C384.05 273.03 384.741 271.03 386.12 269.445C387.511 267.849 389.249 267.056 391.335 267.067C393.574 267.067 395.287 267.747 396.473 269.107C397.668 270.457 398.267 272.273 398.267 274.553V276.747H387.915L387.884 276.823C387.946 278.143 388.329 279.222 389.034 280.06C389.75 280.899 390.736 281.318 391.994 281.318C392.996 281.318 393.855 281.196 394.571 280.95C395.287 280.705 395.976 280.351 396.641 279.891L397.837 282.331C397.214 282.883 396.385 283.349 395.353 283.726C394.32 284.105 393.124 284.294 391.764 284.294ZM391.335 270.058C390.415 270.058 389.658 270.427 389.065 271.163C388.472 271.889 388.104 272.814 387.961 273.939L387.991 274.016H394.571V273.633C394.571 272.58 394.3 271.72 393.758 271.055C393.226 270.391 392.418 270.058 391.335 270.058ZM415.812 276.226C415.812 278.638 415.244 280.587 414.109 282.07C412.975 283.553 411.395 284.294 409.371 284.294C408.43 284.294 407.597 284.125 406.87 283.788C406.145 283.451 405.521 282.954 404.999 282.3V290.354H401.273V267.374H404.417L404.785 269.46C405.316 268.683 405.956 268.089 406.702 267.681C407.459 267.272 408.332 267.067 409.324 267.067C411.369 267.067 412.959 267.88 414.094 269.506C415.239 271.122 415.812 273.254 415.812 275.903V276.226ZM412.1 275.903C412.1 274.205 411.778 272.82 411.134 271.746C410.5 270.662 409.55 270.12 408.281 270.12C407.504 270.12 406.845 270.289 406.303 270.626C405.761 270.953 405.327 271.413 404.999 272.006V279.508C405.327 280.091 405.761 280.541 406.303 280.858C406.845 281.165 407.514 281.318 408.312 281.318C409.58 281.318 410.526 280.853 411.149 279.923C411.784 278.982 412.1 277.749 412.1 276.226V275.903ZM351.583 317.126H361.843V320.102H347.856V297.766H351.583V317.126ZM371.49 320.424C369.138 320.424 367.262 319.657 365.862 318.123C364.471 316.579 363.775 314.6 363.775 312.187V311.572C363.775 309.159 364.465 307.16 365.846 305.575C367.236 303.979 368.974 303.186 371.06 303.196C373.299 303.196 375.012 303.877 376.198 305.237C377.394 306.587 377.992 308.402 377.992 310.683V312.877H367.64L367.609 312.953C367.671 314.273 368.055 315.352 368.76 316.19C369.475 317.029 370.462 317.448 371.72 317.448C372.722 317.448 373.58 317.326 374.296 317.08C375.012 316.835 375.702 316.481 376.366 316.021L377.563 318.461C376.939 319.013 376.111 319.478 375.078 319.856C374.046 320.235 372.849 320.424 371.49 320.424ZM371.06 306.188C370.14 306.188 369.383 306.557 368.79 307.292C368.198 308.019 367.829 308.944 367.686 310.069L367.717 310.146H374.296V309.763C374.296 308.709 374.025 307.85 373.484 307.185C372.952 306.52 372.144 306.188 371.06 306.188ZM390.982 320.102C390.849 319.683 390.737 319.273 390.645 318.874C390.563 318.475 390.506 318.077 390.476 317.678C389.965 318.455 389.29 319.11 388.452 319.642C387.623 320.163 386.693 320.424 385.66 320.424C383.933 320.424 382.603 319.98 381.673 319.09C380.752 318.2 380.292 316.978 380.292 315.423C380.292 313.818 380.927 312.57 382.194 311.68C383.462 310.78 385.246 310.33 387.547 310.33H390.445V308.873C390.445 308.003 390.19 307.323 389.679 306.832C389.168 306.341 388.437 306.096 387.486 306.096C386.637 306.096 385.962 306.3 385.461 306.71C384.96 307.119 384.709 307.645 384.709 308.29H381.121L381.106 308.198C381.034 306.889 381.617 305.728 382.854 304.715C384.101 303.703 385.722 303.196 387.716 303.196C389.648 303.196 391.207 303.687 392.393 304.669C393.579 305.651 394.172 307.062 394.172 308.903V316.283C394.172 316.967 394.218 317.627 394.31 318.261C394.402 318.885 394.55 319.499 394.754 320.102H390.982ZM386.411 317.432C387.352 317.432 388.196 317.198 388.942 316.727C389.699 316.257 390.2 315.719 390.445 315.116V312.662H387.486C386.401 312.662 385.553 312.933 384.939 313.475C384.326 314.006 384.02 314.636 384.02 315.362C384.02 315.996 384.224 316.502 384.633 316.88C385.052 317.249 385.645 317.432 386.411 317.432ZM406.349 306.863L404.754 306.802C404.028 306.802 403.42 306.956 402.929 307.262C402.449 307.569 402.075 308.003 401.81 308.566V320.102H398.083V303.504H401.488L401.733 305.912C402.152 305.063 402.689 304.398 403.343 303.918C404.007 303.437 404.769 303.196 405.628 303.196C405.854 303.196 406.062 303.217 406.257 303.258C406.451 303.289 406.63 303.33 406.793 303.381L406.349 306.863ZM412.346 303.504L412.56 305.897C413.102 305.048 413.782 304.388 414.6 303.918C415.429 303.437 416.358 303.196 417.392 303.196C419.119 303.196 420.463 303.724 421.424 304.777C422.396 305.82 422.882 307.451 422.882 309.671V320.102H419.155V309.701C419.155 308.453 418.894 307.569 418.373 307.047C417.862 306.516 417.079 306.249 416.026 306.249C415.301 306.249 414.651 306.413 414.079 306.74C413.506 307.058 413.036 307.497 412.668 308.06V320.102H408.941V303.504H412.346ZM430.734 320.102H427.007V303.504H430.734V320.102ZM430.734 299.438H427.007V296.171H430.734V299.438ZM438.295 303.504L438.509 305.897C439.051 305.048 439.731 304.388 440.549 303.918C441.377 303.437 442.307 303.196 443.34 303.196C445.068 303.196 446.412 303.724 447.374 304.777C448.345 305.82 448.831 307.451 448.831 309.671V320.102H445.104V309.701C445.104 308.453 444.844 307.569 444.321 307.047C443.81 306.516 443.028 306.249 441.975 306.249C441.25 306.249 440.6 306.413 440.028 306.74C439.455 307.058 438.985 307.497 438.617 308.06V320.102H434.89V303.504H438.295ZM452.036 312.033C452.036 309.394 452.613 307.262 453.769 305.636C454.924 304.01 456.529 303.196 458.585 303.196C459.577 303.196 460.445 303.412 461.192 303.841C461.948 304.261 462.587 304.869 463.109 305.667L463.477 303.504H466.575V320.102C466.575 322.239 465.915 323.891 464.597 325.057C463.277 326.223 461.406 326.806 458.983 326.806C458.176 326.806 457.301 326.688 456.36 326.453C455.431 326.228 454.587 325.926 453.83 325.547L454.627 322.618C455.242 322.935 455.916 323.18 456.653 323.354C457.398 323.538 458.166 323.63 458.952 323.63C460.302 323.63 461.289 323.339 461.913 322.756C462.536 322.183 462.848 321.298 462.848 320.102V318.399C462.327 319.064 461.708 319.57 460.992 319.918C460.287 320.255 459.474 320.424 458.554 320.424C456.519 320.424 454.924 319.683 453.769 318.2C452.613 316.717 452.036 314.768 452.036 312.355V312.033ZM455.763 312.355C455.763 313.879 456.064 315.101 456.667 316.021C457.281 316.931 458.227 317.387 459.504 317.387C460.302 317.387 460.972 317.223 461.514 316.896C462.066 316.558 462.511 316.078 462.848 315.454V308.182C462.5 307.579 462.051 307.109 461.498 306.771C460.956 306.423 460.302 306.249 459.535 306.249C458.258 306.249 457.307 306.787 456.683 307.86C456.069 308.934 455.763 310.325 455.763 312.033V312.355Z" fill="white"/>
<path d="M44.7617 289.47V267.134H52.0004C54.8325 267.134 57.133 268.019 58.9018 269.788C60.6808 271.558 61.5703 273.833 61.5703 276.615V280.005C61.5703 282.797 60.6808 285.073 58.9018 286.831C57.133 288.591 54.8325 289.47 52.0004 289.47H44.7617ZM48.4884 270.126V286.494H51.8931C53.7437 286.494 55.1955 285.891 56.2486 284.684C57.312 283.478 57.8436 281.918 57.8436 280.005V276.585C57.8436 274.692 57.312 273.143 56.2486 271.936C55.1955 270.729 53.7437 270.126 51.8931 270.126H48.4884ZM74.9129 289.47C74.7799 289.051 74.6675 288.642 74.5755 288.243C74.4937 287.844 74.4375 287.446 74.4068 287.047C73.8955 287.823 73.2208 288.478 72.3824 289.01C71.5543 289.532 70.6239 289.792 69.5912 289.792C67.8633 289.792 66.5341 289.348 65.6038 288.458C64.6836 287.568 64.2235 286.346 64.2235 284.792C64.2235 283.186 64.8574 281.938 66.1252 281.048C67.393 280.148 69.1771 279.698 71.4775 279.698H74.3761V278.241C74.3761 277.372 74.1205 276.691 73.6093 276.201C73.0981 275.71 72.367 275.465 71.4162 275.465C70.5676 275.465 69.8928 275.669 69.3918 276.078C68.8908 276.487 68.6403 277.013 68.6403 277.658H65.0516L65.0363 277.566C64.9647 276.257 65.5475 275.096 66.7847 274.084C68.032 273.071 69.6525 272.565 71.6463 272.565C73.5786 272.565 75.1378 273.056 76.3238 274.037C77.5098 275.019 78.1028 276.431 78.1028 278.272V285.651C78.1028 286.336 78.1488 286.995 78.2409 287.629C78.3329 288.253 78.4812 288.867 78.6856 289.47H74.9129ZM70.3427 286.801C71.2833 286.801 72.1268 286.566 72.8732 286.095C73.6298 285.625 74.1307 285.088 74.3761 284.484V282.03H71.4162C70.3325 282.03 69.4839 282.301 68.8704 282.843C68.257 283.375 67.9502 284.004 67.9502 284.73C67.9502 285.364 68.1547 285.87 68.5637 286.249C68.9828 286.617 69.5758 286.801 70.3427 286.801ZM86.6454 268.837V272.872H89.6206V275.633H86.6454V284.806C86.6454 285.492 86.7938 285.983 87.0898 286.279C87.3866 286.566 87.78 286.709 88.2708 286.709C88.475 286.709 88.6744 286.694 88.8691 286.663C89.0631 286.622 89.2476 286.571 89.4211 286.509L89.82 289.24C89.5028 289.414 89.1243 289.547 88.6846 289.639C88.2449 289.741 87.7902 289.792 87.3199 289.792C85.9497 289.792 84.8763 289.393 84.0997 288.596C83.3223 287.788 82.9337 286.525 82.9337 284.806V275.633H80.4037V272.872H82.9337V268.837H86.6454ZM102.917 289.47C102.784 289.051 102.672 288.642 102.58 288.243C102.498 287.844 102.442 287.446 102.411 287.047C101.9 287.823 101.225 288.478 100.387 289.01C99.5583 289.532 98.6278 289.792 97.5953 289.792C95.8678 289.792 94.5384 289.348 93.6079 288.458C92.6877 287.568 92.2275 286.346 92.2275 284.792C92.2275 283.186 92.8612 281.938 94.1293 281.048C95.3974 280.148 97.1815 279.698 99.4814 279.698H102.38V278.241C102.38 277.372 102.124 276.691 101.613 276.201C101.102 275.71 100.371 275.465 99.4201 275.465C98.5721 275.465 97.8968 275.669 97.3958 276.078C96.8949 276.487 96.6444 277.013 96.6444 277.658H93.0559L93.0402 277.566C92.9688 276.257 93.5514 275.096 94.7889 274.084C96.0358 273.071 97.6565 272.565 99.6502 272.565C101.583 272.565 103.142 273.056 104.328 274.037C105.514 275.019 106.107 276.431 106.107 278.272V285.651C106.107 286.336 106.153 286.995 106.245 287.629C106.337 288.253 106.486 288.867 106.69 289.47H102.917ZM98.3467 286.801C99.2874 286.801 100.131 286.566 100.877 286.095C101.634 285.625 102.135 285.088 102.38 284.484V282.03H99.4201C98.3365 282.03 97.4877 282.301 96.8744 282.843C96.2612 283.375 95.9542 284.004 95.9542 284.73C95.9542 285.364 96.1591 285.87 96.5674 286.249C96.9867 286.617 97.5804 286.801 98.3467 286.801ZM49.5926 303.264L56.0185 320.445H56.1106L62.5518 303.264H67.3828V325.6H63.6561V317.991L64.0241 308.311L63.9321 308.296L57.3068 325.6H54.807L48.2124 308.342L48.1203 308.358L48.4884 317.991V325.6H44.7617V303.264H49.5926ZM75.7718 325.6H72.045V309.002H75.7718V325.6ZM75.7718 304.936H72.045V301.669H75.7718V304.936ZM83.3326 309.002L83.5469 311.395C84.0895 310.546 84.7687 309.886 85.5869 309.416C86.4153 308.935 87.3458 308.695 88.3784 308.695C90.1059 308.695 91.4509 309.222 92.4113 310.275C93.3826 311.318 93.8686 312.949 93.8686 315.169V325.6H90.142V315.2C90.142 313.951 89.8813 313.067 89.3599 312.546C88.8487 312.014 88.0666 311.748 87.0129 311.748C86.2873 311.748 85.638 311.911 85.0655 312.238C84.4931 312.556 84.0228 312.996 83.6545 313.558V325.6H79.9278V309.002H83.3326ZM101.721 325.6H97.9942V309.002H101.721V325.6ZM101.721 304.936H97.9942V301.669H101.721V304.936ZM109.282 309.002L109.496 311.395C110.038 310.546 110.718 309.886 111.536 309.416C112.364 308.935 113.295 308.695 114.328 308.695C116.055 308.695 117.399 309.222 118.36 310.275C119.332 311.318 119.818 312.949 119.818 315.169V325.6H116.091V315.2C116.091 313.951 115.83 313.067 115.309 312.546C114.798 312.014 114.015 311.748 112.962 311.748C112.236 311.748 111.587 311.911 111.015 312.238C110.442 312.556 109.972 312.996 109.604 313.558V325.6H105.877V309.002H109.282ZM123.023 317.531C123.023 314.892 123.601 312.76 124.756 311.134C125.911 309.508 127.517 308.695 129.572 308.695C130.563 308.695 131.432 308.91 132.179 309.339C132.936 309.759 133.574 310.367 134.095 311.165L134.464 309.002H137.561V325.6C137.561 327.737 136.903 329.389 135.583 330.555C134.264 331.721 132.393 332.304 129.971 332.304C129.163 332.304 128.289 332.186 127.348 331.951C126.418 331.726 125.574 331.424 124.817 331.046L125.615 328.116C126.228 328.433 126.903 328.678 127.639 328.852C128.385 329.036 129.152 329.128 129.939 329.128C131.289 329.128 132.276 328.837 132.9 328.254C133.523 327.682 133.835 326.796 133.835 325.6V323.897C133.313 324.562 132.695 325.068 131.979 325.416C131.274 325.753 130.461 325.922 129.541 325.922C127.506 325.922 125.911 325.181 124.756 323.698C123.601 322.215 123.023 320.266 123.023 317.853V317.531ZM126.75 317.853C126.75 319.377 127.051 320.599 127.654 321.519C128.268 322.429 129.214 322.885 130.492 322.885C131.289 322.885 131.959 322.721 132.501 322.394C133.053 322.056 133.498 321.576 133.835 320.952V313.68C133.488 313.077 133.038 312.607 132.486 312.269C131.944 311.921 131.289 311.748 130.523 311.748C129.244 311.748 128.293 312.285 127.67 313.358C127.057 314.432 126.75 315.823 126.75 317.531V317.853Z" fill="white"/>
<path d="M113.075 177.939V155.603H120.314C123.146 155.603 125.446 156.488 127.215 158.257C128.994 160.027 129.884 162.302 129.884 165.084V168.474C129.884 171.266 128.994 173.541 127.215 175.3C125.446 177.059 123.146 177.939 120.314 177.939H113.075ZM116.802 158.595V174.963H120.207C122.057 174.963 123.509 174.36 124.562 173.153C125.625 171.946 126.157 170.386 126.157 168.474V165.053C126.157 163.161 125.625 161.612 124.562 160.405C123.509 159.198 122.057 158.595 120.207 158.595H116.802ZM143.226 177.939C143.093 177.52 142.981 177.11 142.889 176.711C142.807 176.312 142.751 175.914 142.72 175.515C142.209 176.292 141.534 176.947 140.696 177.479C139.868 178 138.937 178.261 137.905 178.261C136.176 178.261 134.848 177.817 133.917 176.927C132.997 176.037 132.537 174.815 132.537 173.26C132.537 171.655 133.171 170.407 134.439 169.517C135.706 168.617 137.491 168.167 139.791 168.167H142.69V166.71C142.69 165.84 142.434 165.16 141.923 164.669C141.411 164.178 140.68 163.933 139.729 163.933C138.881 163.933 138.206 164.138 137.705 164.547C137.204 164.956 136.954 165.482 136.954 166.127H133.365L133.35 166.035C133.278 164.726 133.861 163.565 135.098 162.553C136.345 161.54 137.966 161.033 139.96 161.033C141.892 161.033 143.451 161.524 144.637 162.506C145.824 163.488 146.416 164.899 146.416 166.74V174.12C146.416 174.804 146.462 175.464 146.555 176.098C146.646 176.722 146.795 177.336 146.999 177.939H143.226ZM138.656 175.269C139.597 175.269 140.44 175.035 141.187 174.564C141.943 174.094 142.444 173.556 142.69 172.953V170.499H139.729C138.646 170.499 137.797 170.77 137.184 171.312C136.571 171.843 136.264 172.472 136.264 173.199C136.264 173.833 136.468 174.339 136.877 174.717C137.296 175.086 137.889 175.269 138.656 175.269ZM154.959 157.306V161.341H157.934V164.102H154.959V173.275C154.959 173.961 155.107 174.452 155.403 174.748C155.7 175.035 156.093 175.178 156.584 175.178C156.788 175.178 156.988 175.163 157.183 175.132C157.376 175.091 157.561 175.039 157.735 174.978L158.133 177.709C157.816 177.883 157.438 178.015 156.998 178.108C156.558 178.21 156.104 178.261 155.633 178.261C154.263 178.261 153.19 177.862 152.413 177.065C151.636 176.257 151.247 174.994 151.247 173.275V164.102H148.717V161.341H151.247V157.306H154.959ZM171.23 177.939C171.097 177.52 170.985 177.11 170.893 176.711C170.812 176.312 170.755 175.914 170.724 175.515C170.213 176.292 169.538 176.947 168.7 177.479C167.872 178 166.941 178.261 165.909 178.261C164.181 178.261 162.852 177.817 161.921 176.927C161.001 176.037 160.541 174.815 160.541 173.26C160.541 171.655 161.175 170.407 162.443 169.517C163.711 168.617 165.495 168.167 167.795 168.167H170.694V166.71C170.694 165.84 170.438 165.16 169.927 164.669C169.415 164.178 168.684 163.933 167.734 163.933C166.886 163.933 166.21 164.138 165.709 164.547C165.208 164.956 164.958 165.482 164.958 166.127H161.369L161.354 166.035C161.282 164.726 161.865 163.565 163.102 162.553C164.349 161.54 165.97 161.033 167.964 161.033C169.896 161.033 171.455 161.524 172.641 162.506C173.828 163.488 174.42 164.899 174.42 166.74V174.12C174.42 174.804 174.466 175.464 174.559 176.098C174.651 176.722 174.799 177.336 175.003 177.939H171.23ZM166.66 175.269C167.601 175.269 168.444 175.035 169.191 174.564C169.947 174.094 170.448 173.556 170.694 172.953V170.499H167.734C166.65 170.499 165.801 170.77 165.188 171.312C164.575 171.843 164.268 172.472 164.268 173.199C164.268 173.833 164.473 174.339 164.881 174.717C165.3 175.086 165.894 175.269 166.66 175.269ZM125.175 208.331C125.175 207.401 124.828 206.639 124.133 206.046C123.448 205.453 122.231 204.921 120.482 204.45C117.988 203.795 116.065 202.931 114.716 201.858C113.377 200.774 112.707 199.357 112.707 197.609C112.707 195.808 113.448 194.326 114.931 193.16C116.423 191.994 118.346 191.411 120.697 191.411C123.151 191.411 125.119 192.071 126.601 193.39C128.094 194.709 128.815 196.295 128.764 198.145L128.733 198.238H125.161C125.161 197.092 124.772 196.167 123.994 195.46C123.218 194.745 122.108 194.387 120.667 194.387C119.307 194.387 118.258 194.684 117.523 195.277C116.796 195.87 116.434 196.637 116.434 197.578C116.434 198.426 116.828 199.132 117.615 199.695C118.412 200.257 119.726 200.789 121.556 201.29C123.959 201.935 125.784 202.824 127.031 203.96C128.279 205.095 128.902 206.541 128.902 208.301C128.902 210.162 128.156 211.645 126.663 212.749C125.181 213.843 123.228 214.391 120.805 214.391C118.474 214.391 116.429 213.777 114.67 212.55C112.912 211.313 112.058 209.62 112.109 207.472L112.139 207.38H115.728C115.728 208.741 116.199 209.758 117.14 210.433C118.08 211.098 119.302 211.43 120.805 211.43C122.185 211.43 123.259 211.154 124.025 210.602C124.792 210.04 125.175 209.282 125.175 208.331ZM139.208 211.415C140.118 211.415 140.885 211.149 141.509 210.617C142.132 210.075 142.444 209.4 142.444 208.592H145.818L145.849 208.684C145.9 210.239 145.266 211.578 143.947 212.704C142.639 213.829 141.059 214.391 139.208 214.391C136.764 214.391 134.889 213.603 133.58 212.028C132.282 210.454 131.632 208.459 131.632 206.046V205.508C131.632 203.105 132.282 201.116 133.58 199.542C134.889 197.956 136.764 197.163 139.208 197.163C141.202 197.163 142.817 197.747 144.054 198.912C145.302 200.068 145.905 201.54 145.864 203.33L145.834 203.422H142.444C142.444 202.512 142.142 201.74 141.539 201.106C140.947 200.472 140.169 200.155 139.208 200.155C137.807 200.155 136.816 200.666 136.233 201.689C135.65 202.701 135.359 203.975 135.359 205.508V206.046C135.359 207.61 135.65 208.899 136.233 209.912C136.816 210.914 137.807 211.415 139.208 211.415ZM152.827 214.069H149.1V197.47H152.827V214.069ZM152.827 193.405H149.1V190.138H152.827V193.405ZM164.129 214.391C161.778 214.391 159.902 213.624 158.501 212.09C157.111 210.545 156.415 208.567 156.415 206.153V205.539C156.415 203.126 157.106 201.127 158.486 199.542C159.877 197.946 161.614 197.153 163.701 197.163C165.939 197.163 167.652 197.843 168.838 199.204C170.034 200.554 170.633 202.369 170.633 204.65V206.844H160.28L160.25 206.92C160.311 208.239 160.694 209.319 161.4 210.157C162.115 210.995 163.102 211.415 164.359 211.415C165.361 211.415 166.22 211.292 166.937 211.047C167.652 210.801 168.342 210.448 169.006 209.988L170.203 212.427C169.58 212.979 168.751 213.445 167.719 213.823C166.686 214.202 165.489 214.391 164.129 214.391ZM163.701 200.155C162.78 200.155 162.023 200.523 161.431 201.259C160.838 201.986 160.469 202.911 160.327 204.036L160.357 204.113H166.937V203.729C166.937 202.676 166.666 201.817 166.123 201.152C165.591 200.487 164.784 200.155 163.701 200.155ZM177.012 197.47L177.227 199.864C177.769 199.015 178.449 198.355 179.267 197.884C180.094 197.404 181.025 197.163 182.058 197.163C183.786 197.163 185.13 197.69 186.091 198.744C187.062 199.787 187.549 201.418 187.549 203.638V214.069H183.822V203.668C183.822 202.42 183.561 201.536 183.039 201.014C182.528 200.483 181.746 200.216 180.693 200.216C179.967 200.216 179.318 200.38 178.745 200.707C178.173 201.024 177.703 201.464 177.334 202.027V214.069H173.608V197.47H177.012ZM198.284 211.415C199.193 211.415 199.961 211.149 200.584 210.617C201.207 210.075 201.52 209.4 201.52 208.592H204.893L204.925 208.684C204.976 210.239 204.341 211.578 203.023 212.704C201.714 213.829 200.134 214.391 198.284 214.391C195.84 214.391 193.964 213.603 192.656 212.028C191.357 210.454 190.707 208.459 190.707 206.046V205.508C190.707 203.105 191.357 201.116 192.656 199.542C193.964 197.956 195.84 197.163 198.284 197.163C200.278 197.163 201.893 197.747 203.13 198.912C204.377 200.068 204.98 201.54 204.94 203.33L204.909 203.422H201.52C201.52 202.512 201.218 201.74 200.615 201.106C200.022 200.472 199.244 200.155 198.284 200.155C196.883 200.155 195.892 200.666 195.308 201.689C194.725 202.701 194.434 203.975 194.434 205.508V206.046C194.434 207.61 194.725 208.899 195.308 209.912C195.892 210.914 196.883 211.415 198.284 211.415ZM215.046 214.391C212.694 214.391 210.819 213.624 209.418 212.09C208.027 210.545 207.332 208.567 207.332 206.153V205.539C207.332 203.126 208.022 201.127 209.403 199.542C210.793 197.946 212.531 197.153 214.617 197.163C216.856 197.163 218.569 197.843 219.754 199.204C220.951 200.554 221.549 202.369 221.549 204.65V206.844H211.197L211.166 206.92C211.228 208.239 211.611 209.319 212.317 210.157C213.032 210.995 214.019 211.415 215.276 211.415C216.278 211.415 217.137 211.292 217.853 211.047C218.569 210.801 219.259 210.448 219.923 209.988L221.12 212.427C220.496 212.979 219.668 213.445 218.635 213.823C217.602 214.202 216.406 214.391 215.046 214.391ZM214.617 200.155C213.696 200.155 212.94 200.523 212.347 201.259C211.754 201.986 211.386 202.911 211.243 204.036L211.273 204.113H217.853V203.729C217.853 202.676 217.582 201.817 217.04 201.152C216.508 200.487 215.7 200.155 214.617 200.155Z" fill="white"/>
</svg>
