<svg width="48" height="48" viewBox="0 0 48 48" fill="none" xmlns="http://www.w3.org/2000/svg">
<path d="M32.25 39.75H27.75V35.6655L34.4152 31.5L27.75 27.3345V22.5H32.25V16.5H27.75V11.25H33.75V0.75H20.25V11.25H26.25V16.5H21.75V18.75H15V20.25H21.75V22.5H26.25V27.3345L19.5848 31.5L26.25 35.6655V39.75H21.75C20.5095 39.75 19.5 40.7595 19.5 42V45C19.5 46.2405 20.5095 47.25 21.75 47.25H32.25C33.4905 47.25 34.5 46.2405 34.5 45V42C34.5 40.7595 33.4905 39.75 32.25 39.75ZM21.75 2.25H32.25V9.75H21.75V2.25ZM23.25 18H30.75V21H23.25V18ZM27 28.6343L31.5847 31.5L27 34.3657L22.4152 31.5L27 28.6343ZM33 45C33 45.4132 32.6632 45.75 32.25 45.75H21.75C21.3367 45.75 21 45.4132 21 45V42C21 41.5868 21.3367 41.25 21.75 41.25H32.25C32.6632 41.25 33 41.5868 33 42V45Z" fill="white"/>
<path d="M13.7197 41.0303L15.4395 42.75H8.862C8.6355 42.1147 8.13525 41.6145 7.5 41.388V25.5H6V41.388C5.12925 41.6985 4.5 42.5235 4.5 43.5C4.5 44.7405 5.5095 45.75 6.75 45.75C7.7265 45.75 8.5515 45.1208 8.862 44.25H15.4395L13.7197 45.9697L14.7803 47.0303L18.3105 43.5L14.7803 39.9697L13.7197 41.0303ZM6.75 44.25C6.33675 44.25 6 43.9132 6 43.5C6 43.0868 6.33675 42.75 6.75 42.75C7.16325 42.75 7.5 43.0868 7.5 43.5C7.5 43.9132 7.16325 44.25 6.75 44.25Z" fill="white"/>
<path d="M45.75 29.388V8.112C46.6207 7.8015 47.25 6.9765 47.25 6C47.25 4.7595 46.2405 3.75 45 3.75C44.0235 3.75 43.1985 4.37925 42.888 5.25H35.25V6.75H42.888C43.1145 7.38525 43.6147 7.8855 44.25 8.112V29.3888C43.6147 29.6153 43.1145 30.1155 42.888 30.7507H37.8105L39.5302 29.031L38.4697 27.9705L34.9395 31.5L38.4697 35.0303L39.5302 33.9697L37.8105 32.25H42.888C43.1985 33.1208 44.0235 33.75 45 33.75C46.2405 33.75 47.25 32.7405 47.25 31.5C47.25 30.5235 46.6207 29.6985 45.75 29.388ZM45 5.25C45.4132 5.25 45.75 5.58675 45.75 6C45.75 6.41325 45.4132 6.75 45 6.75C44.5867 6.75 44.25 6.41325 44.25 6C44.25 5.58675 44.5867 5.25 45 5.25ZM45 32.25C44.5867 32.25 44.25 31.9132 44.25 31.5C44.25 31.0868 44.5867 30.75 45 30.75C45.4132 30.75 45.75 31.0868 45.75 31.5C45.75 31.9132 45.4132 32.25 45 32.25Z" fill="white"/>
<path d="M13.2905 19.5L6.74973 14.8282L0.208984 19.5L6.74973 24.1717L13.2905 19.5ZM6.74973 16.6717L10.709 19.5L6.74973 22.3282L2.79048 19.5L6.74973 16.6717Z" fill="white"/>
<path d="M23.25 3.75H30.75V5.25H23.25V3.75Z" fill="white"/>
<path d="M23.25 6.75H27.75V8.25H23.25V6.75Z" fill="white"/>
<path d="M29.25 6.75H30.75V8.25H29.25V6.75Z" fill="white"/>
<path d="M42 42.75H43.5V44.25H42V42.75Z" fill="white"/>
<path d="M39 42.75H40.5V44.25H39V42.75Z" fill="white"/>
<path d="M36 42.75H37.5V44.25H36V42.75Z" fill="white"/>
<path d="M14.25 6.75H15.75V8.25H14.25V6.75Z" fill="white"/>
<path d="M17.25 6.75H18.75V8.25H17.25V6.75Z" fill="white"/>
<path d="M11.25 6.75H12.75V8.25H11.25V6.75Z" fill="white"/>
</svg>
