<svg width="589" height="438" viewBox="0 0 589 438" fill="none" xmlns="http://www.w3.org/2000/svg">
<circle cx="333" cy="205" r="205" fill="#27335B"/>
<circle cx="475" cy="375" r="63" fill="#27335B"/>
<circle cx="62" cy="107" r="41" fill="#323F6B"/>
<circle cx="571" cy="159" r="18" fill="#323F6B"/>
<path d="M0.0761719 272.261V191H10.2641V216.337L9.65588 226.837H10.2641C12.545 223.109 15.2821 220.141 18.7034 218.163C22.0487 216.109 25.546 215.12 29.2715 215.12C34.5935 215.12 38.6991 216.946 41.5882 220.446C43.0328 222.196 43.9451 224.098 44.4013 226.152C44.8575 228.207 45.0856 230.793 45.0856 233.913V272.109H35.0497V236.804C35.0497 234.674 34.9737 232.924 34.7456 231.63C34.5175 230.337 34.0613 229.12 33.3771 228.054C32.6168 226.913 31.5524 226 30.3359 225.467C29.0434 224.935 27.6749 224.707 26.2303 224.707C23.4932 224.707 20.8322 225.62 18.3232 227.446C15.8143 229.272 13.1532 232.011 10.3401 235.739V272.337H0.0761719V272.261Z" fill="white"/>
<path d="M98.4582 272.261V224.022H78.2344V216.413H108.646V272.261H98.4582ZM97.1657 203.783V191H109.939V203.783H97.1657Z" fill="white"/>
<path d="M158.902 290.902L159.966 282.38C164.376 284.206 167.721 285.271 170.078 285.652C172.435 286.032 174.716 286.184 176.997 286.184C182.623 286.184 186.652 284.891 189.161 282.38C190.606 281.01 191.518 279.413 192.127 277.586C192.659 275.76 193.039 273.478 193.419 270.663L194.331 260.543H193.723C192.355 262.978 191.214 264.652 190.226 265.641C189.237 266.63 188.097 267.543 186.957 268.38C185.132 269.673 183.307 270.663 181.406 271.271C179.582 271.88 177.529 272.184 175.248 272.184C172.055 272.184 169.166 271.576 166.581 270.282C163.996 269.065 161.867 267.391 160.27 265.26C158.294 262.673 156.849 259.706 155.861 256.206C154.872 252.706 154.416 249.054 154.416 245.249C154.416 237.108 156.469 230.032 160.574 224.021C164.68 218.01 170.458 215.043 177.909 215.043C180.646 215.043 183.155 215.499 185.512 216.413C187.869 217.326 190.682 219.38 194.027 222.576H194.636V216.26H203.607V260.923C203.607 266.858 203.303 271.652 202.695 275.304C202.086 278.956 200.566 282.304 198.209 285.347C195.7 288.467 192.735 290.673 189.314 291.891C185.892 293.108 181.787 293.717 176.921 293.717C171.523 293.869 165.592 292.88 158.902 290.902ZM193.419 252.478V230.489C190.834 227.521 188.401 225.467 186.12 224.402C183.839 223.26 181.559 222.728 179.278 222.728C174.488 222.728 170.99 224.782 168.71 228.891C166.429 232.999 165.288 238.249 165.288 244.717C165.288 250.499 166.353 255.065 168.557 258.413C170.686 261.76 173.727 263.434 177.605 263.434C180.798 263.434 183.991 262.141 187.337 259.554C188.401 258.641 189.39 257.804 190.302 256.891C191.214 255.978 192.127 254.532 193.419 252.478Z" fill="white"/>
<path d="M236.072 272.261V191H246.26V216.337L245.652 226.837H246.26C248.541 223.109 251.278 220.141 254.623 218.163C257.969 216.109 261.466 215.12 265.192 215.12C270.514 215.12 274.619 216.946 277.508 220.446C278.953 222.196 279.865 224.098 280.321 226.152C280.778 228.207 281.006 230.793 281.006 233.913V272.109H270.894V236.804C270.894 234.674 270.818 232.924 270.59 231.63C270.438 230.337 269.981 229.12 269.221 228.054C268.461 226.913 267.396 226 266.18 225.467C264.887 224.935 263.519 224.707 262.074 224.707C259.337 224.707 256.676 225.62 254.167 227.446C251.658 229.272 248.997 232.011 246.184 235.739V272.337H236.072V272.261Z" fill="white"/>
<path d="M314.914 269.978V260.848C322.745 264.271 329.588 265.945 335.29 265.945C339.928 265.945 343.425 265.032 345.858 263.13C348.291 261.304 349.507 259.25 349.507 257.119C349.507 255.521 348.899 254.152 347.759 252.935C346.542 251.717 343.957 250.5 339.852 249.206L328.98 245.63C325.102 244.413 322.061 242.587 319.78 240.152C317.499 237.717 316.359 234.75 316.359 231.174C316.359 226.456 318.183 222.652 321.833 219.685C325.482 216.717 330.956 215.271 338.407 215.271C340.612 215.271 342.893 215.348 345.402 215.576C347.835 215.728 351.636 216.489 356.73 217.63V225.848C350.04 223.793 343.881 222.804 338.331 222.804C334.454 222.804 331.412 223.489 329.284 224.935C327.155 226.304 326.09 228.13 326.09 230.261C326.09 231.63 326.623 232.924 327.611 233.913C328.599 234.978 330.576 236.043 333.617 237.032L346.466 241.521C351.636 243.348 355.134 245.402 356.958 247.761C358.783 250.119 359.619 253.011 359.619 256.282C359.619 261.076 357.567 265.108 353.537 268.532C349.431 271.956 343.501 273.63 335.518 273.63C329.132 273.554 322.289 272.337 314.914 269.978Z" fill="white"/>
<path d="M391.324 292.576V284.967H395.43C399.459 284.967 402.425 284.206 404.325 282.685C405.39 281.772 406.302 280.783 406.986 279.641C407.671 278.5 408.431 276.978 409.343 275.076L411.776 269.598L388.283 216.337H398.699L417.174 258.185L435.65 216.337H444.773L416.566 279.337C414.513 283.978 411.852 287.402 408.507 289.761C406.834 290.902 405.086 291.663 403.109 292.043C401.132 292.348 398.699 292.576 395.734 292.576H391.324Z" fill="white"/>
<path d="M472.219 269.978V260.848C480.05 264.271 486.892 265.945 492.595 265.945C497.232 265.945 500.73 265.032 503.163 263.13C505.596 261.304 506.812 259.25 506.812 257.119C506.812 255.521 506.204 254.152 505.063 252.935C503.847 251.717 501.262 250.5 497.156 249.206L486.284 245.63C482.407 244.413 479.366 242.587 477.085 240.152C474.804 237.717 473.663 234.75 473.663 231.174C473.663 226.456 475.488 222.652 479.137 219.685C482.787 216.717 488.261 215.271 495.712 215.271C497.917 215.271 500.198 215.348 502.707 215.576C505.14 215.728 508.941 216.489 514.035 217.63V225.848C507.344 223.793 501.186 222.804 495.636 222.804C491.758 222.804 488.717 223.489 486.588 224.935C484.46 226.304 483.395 228.13 483.395 230.261C483.395 231.63 483.927 232.924 484.916 233.913C485.904 234.978 487.881 236.043 490.922 237.032L503.771 241.521C508.941 243.348 512.438 245.402 514.263 247.761C516.088 250.119 516.924 253.011 516.924 256.282C516.924 261.076 514.871 265.108 510.842 268.532C506.736 271.956 500.806 273.63 492.823 273.63C486.436 273.554 479.594 272.337 472.219 269.978Z" fill="white"/>
<path d="M44.4772 287.402H0V295.924H44.4772V287.402Z" fill="white"/>
<path d="M358.555 287.402H314.078V295.924H358.555V287.402Z" fill="white"/>
</svg>
