<svg width="31" height="31" viewBox="0 0 31 31" fill="none" xmlns="http://www.w3.org/2000/svg">
<path d="M15.5 23.7344C15.1168 23.7344 14.7422 23.848 14.4236 24.0609C14.105 24.2738 13.8566 24.5764 13.71 24.9304C13.5633 25.2845 13.525 25.674 13.5997 26.0499C13.6745 26.4257 13.859 26.7709 14.13 27.0419C14.4009 27.3129 14.7462 27.4974 15.122 27.5722C15.4979 27.6469 15.8874 27.6085 16.2415 27.4619C16.5955 27.3153 16.8981 27.0669 17.111 26.7483C17.3239 26.4297 17.4375 26.0551 17.4375 25.6719C17.4375 25.158 17.2334 24.6652 16.87 24.3019C16.5067 23.9385 16.0139 23.7344 15.5 23.7344ZM15.5 26.6406C15.3084 26.6406 15.1211 26.5838 14.9618 26.4774C14.8025 26.3709 14.6783 26.2196 14.605 26.0426C14.5317 25.8656 14.5125 25.6708 14.5499 25.4829C14.5872 25.295 14.6795 25.1223 14.815 24.9869C14.9505 24.8514 15.1231 24.7591 15.311 24.7217C15.4989 24.6844 15.6937 24.7035 15.8707 24.7769C16.0477 24.8502 16.199 24.9744 16.3055 25.1337C16.4119 25.293 16.4688 25.4803 16.4688 25.6719C16.4688 25.9288 16.3667 26.1752 16.185 26.3569C16.0033 26.5386 15.7569 26.6406 15.5 26.6406Z" fill="white"/>
<path d="M19.4913 24.2333L19.1667 24.1509L19.3411 23.8652C19.3965 23.7726 19.4194 23.6643 19.4063 23.5572C19.3931 23.4502 19.3446 23.3506 19.2684 23.2742L17.8977 21.9034C17.8213 21.8273 17.7217 21.7788 17.6147 21.7656C17.5076 21.7524 17.3992 21.7754 17.3067 21.8308L17.0209 22.0052L16.9386 21.6806C16.9126 21.5756 16.8523 21.4823 16.7671 21.4156C16.682 21.3489 16.5769 21.3126 16.4688 21.3125H14.5312C14.4231 21.3126 14.318 21.3489 14.2329 21.4156C14.1477 21.4823 14.0874 21.5756 14.0614 21.6806L13.9791 22.0052L13.6933 21.8308C13.6004 21.7765 13.4923 21.7542 13.3855 21.7674C13.2788 21.7805 13.1793 21.8283 13.1023 21.9034L11.7316 23.2742C11.6554 23.3506 11.6069 23.4502 11.5937 23.5572C11.5806 23.6643 11.6035 23.7726 11.6589 23.8652L11.8333 24.1509L11.5088 24.2333C11.4037 24.2592 11.3104 24.3196 11.2437 24.4048C11.177 24.4899 11.1407 24.5949 11.1406 24.7031V26.6406C11.1407 26.7488 11.177 26.8538 11.2437 26.939C11.3104 27.0241 11.4037 27.0845 11.5088 27.1105L11.8333 27.1928L11.6589 27.4786C11.6035 27.5711 11.5806 27.6795 11.5937 27.7865C11.6069 27.8936 11.6554 27.9932 11.7316 28.0695L13.1023 29.4403C13.1793 29.5155 13.2788 29.5633 13.3855 29.5764C13.4923 29.5895 13.6004 29.5672 13.6933 29.513L13.9791 29.3386L14.0614 29.6631C14.0874 29.7681 14.1477 29.8614 14.2329 29.9282C14.318 29.9949 14.4231 30.0312 14.5312 30.0312H16.4688C16.5769 30.0312 16.682 29.9949 16.7671 29.9282C16.8523 29.8614 16.9126 29.7681 16.9386 29.6631L17.0209 29.3386L17.3067 29.513C17.3996 29.5672 17.5077 29.5895 17.6145 29.5764C17.7212 29.5633 17.8207 29.5155 17.8977 29.4403L19.2684 28.0695C19.3446 27.9932 19.3931 27.8936 19.4063 27.7865C19.4194 27.6795 19.3965 27.5711 19.3411 27.4786L19.1667 27.1928L19.4913 27.1105C19.5963 27.0845 19.6896 27.0241 19.7563 26.939C19.823 26.8538 19.8593 26.7488 19.8594 26.6406V24.7031C19.8593 24.5949 19.823 24.4899 19.7563 24.4048C19.6896 24.3196 19.5963 24.2592 19.4913 24.2333ZM18.8906 26.2628L18.2997 26.4081C18.2264 26.4269 18.1585 26.4626 18.1013 26.5122C18.0441 26.5618 17.9993 26.624 17.9703 26.6939C17.941 26.764 17.9287 26.8402 17.9346 26.916C17.9405 26.9918 17.9644 27.0651 18.0042 27.1298L18.3142 27.653L17.4811 28.4861L16.958 28.1712C16.8924 28.1333 16.819 28.1109 16.7434 28.1059C16.6678 28.1008 16.5921 28.1132 16.522 28.1422C16.4521 28.1712 16.3899 28.216 16.3403 28.2732C16.2907 28.3303 16.2551 28.3983 16.2363 28.4716L16.0909 29.0625H14.9091L14.7637 28.4716C14.7449 28.3983 14.7093 28.3303 14.6597 28.2732C14.6101 28.216 14.5479 28.1712 14.478 28.1422C14.4079 28.1132 14.3322 28.1008 14.2566 28.1059C14.181 28.1109 14.1076 28.1333 14.042 28.1712L13.5189 28.4861L12.6858 27.653L12.9958 27.1298C13.0356 27.0651 13.0595 26.9918 13.0654 26.916C13.0713 26.8402 13.059 26.764 13.0297 26.6939C13.0007 26.624 12.9559 26.5618 12.8987 26.5122C12.8415 26.4626 12.7736 26.4269 12.7003 26.4081L12.1094 26.2628V25.0809L12.7003 24.9356C12.7736 24.9168 12.8415 24.8812 12.8987 24.8316C12.9559 24.782 13.0007 24.7198 13.0297 24.6498C13.059 24.5797 13.0713 24.5036 13.0654 24.4278C13.0595 24.352 13.0356 24.2787 12.9958 24.2139L12.6858 23.6908L13.5189 22.8577L14.042 23.1677C14.1068 23.2075 14.1801 23.2314 14.2559 23.2372C14.3317 23.2431 14.4078 23.2309 14.478 23.2016C14.5479 23.1726 14.6101 23.1278 14.6597 23.0706C14.7093 23.0134 14.7449 22.9455 14.7637 22.8722L14.9091 22.2812H16.0909L16.2363 22.8722C16.2551 22.9455 16.2907 23.0134 16.3403 23.0706C16.3899 23.1278 16.4521 23.1726 16.522 23.2016C16.5922 23.2309 16.6683 23.2431 16.7441 23.2372C16.8199 23.2314 16.8932 23.2075 16.958 23.1677L17.4811 22.8577L18.3142 23.6908L18.0042 24.2139C17.9644 24.2787 17.9405 24.352 17.9346 24.4278C17.9287 24.5036 17.941 24.5797 17.9703 24.6498C17.9993 24.7198 18.0441 24.782 18.1013 24.8316C18.1585 24.8812 18.2264 24.9168 18.2997 24.9356L18.8906 25.0809V26.2628Z" fill="white"/>
<path d="M18.4062 10.6562H12.5938C12.2087 10.6574 11.8398 10.8109 11.5675 11.0831C11.2952 11.3554 11.1418 11.7243 11.1406 12.1094V18.8906C11.1418 19.2757 11.2952 19.6446 11.5675 19.9169C11.8398 20.1891 12.2087 20.3426 12.5938 20.3438H18.4062C18.7913 20.3426 19.1602 20.1891 19.4325 19.9169C19.7048 19.6446 19.8582 19.2757 19.8594 18.8906V12.1094C19.8582 11.7243 19.7048 11.3554 19.4325 11.0831C19.1602 10.8109 18.7913 10.6574 18.4062 10.6562ZM18.8906 18.8906C18.8906 19.0191 18.8396 19.1423 18.7488 19.2331C18.6579 19.324 18.5347 19.375 18.4062 19.375H12.5938C12.4653 19.375 12.3421 19.324 12.2512 19.2331C12.1604 19.1423 12.1094 19.0191 12.1094 18.8906V17.4375H18.8906V18.8906ZM18.8906 16.4688H12.1094V14.5312H18.8906V16.4688ZM18.8906 13.5625H12.1094V12.1094C12.1094 11.9809 12.1604 11.8577 12.2512 11.7669C12.3421 11.676 12.4653 11.625 12.5938 11.625H18.4062C18.5347 11.625 18.6579 11.676 18.7488 11.7669C18.8396 11.8577 18.8906 11.9809 18.8906 12.1094V13.5625Z" fill="white"/>
<path d="M25.6719 13.5625C25.2887 13.5625 24.9141 13.6761 24.5955 13.889C24.2768 14.1019 24.0285 14.4045 23.8819 14.7586C23.7352 15.1126 23.6968 15.5022 23.7716 15.878C23.8464 16.2538 24.0309 16.5991 24.3019 16.87C24.5728 17.141 24.9181 17.3255 25.2939 17.4003C25.6697 17.475 26.0593 17.4367 26.4133 17.29C26.7674 17.1434 27.07 16.895 27.2829 16.5764C27.4958 16.2578 27.6094 15.8832 27.6094 15.5C27.6094 14.9861 27.4053 14.4933 27.0419 14.13C26.6786 13.7666 26.1857 13.5625 25.6719 13.5625ZM25.6719 16.4688C25.4803 16.4688 25.293 16.4119 25.1337 16.3055C24.9744 16.199 24.8502 16.0477 24.7769 15.8707C24.7035 15.6937 24.6844 15.4989 24.7217 15.311C24.7591 15.1231 24.8514 14.9505 24.9869 14.815C25.1224 14.6795 25.295 14.5872 25.4829 14.5499C25.6708 14.5125 25.8656 14.5317 26.0426 14.605C26.2196 14.6783 26.3709 14.8025 26.4774 14.9618C26.5838 15.1211 26.6406 15.3084 26.6406 15.5C26.6406 15.7569 26.5386 16.0033 26.3569 16.185C26.1752 16.3667 25.9288 16.4688 25.6719 16.4688Z" fill="white"/>
<path d="M29.6631 14.0614L29.3386 13.9791L29.513 13.6933C29.5684 13.6008 29.5913 13.4924 29.5782 13.3853C29.565 13.2783 29.5165 13.1787 29.4403 13.1023L28.0695 11.7316C27.9926 11.6564 27.8931 11.6086 27.7863 11.5955C27.6796 11.5824 27.5715 11.6046 27.4786 11.6589L27.1928 11.8333L27.1105 11.5088C27.0845 11.4037 27.0241 11.3104 26.939 11.2437C26.8538 11.177 26.7488 11.1407 26.6406 11.1406H24.7031C24.5949 11.1407 24.4899 11.177 24.4048 11.2437C24.3196 11.3104 24.2592 11.4037 24.2333 11.5088L24.1509 11.8333L23.8652 11.6589C23.7723 11.6045 23.6642 11.5821 23.5574 11.5952C23.4506 11.6084 23.3511 11.6563 23.2742 11.7316L21.9034 13.1023C21.8273 13.1787 21.7788 13.2783 21.7656 13.3853C21.7524 13.4924 21.7754 13.6008 21.8308 13.6933L22.0052 13.9791L21.6806 14.0614C21.5756 14.0874 21.4823 14.1477 21.4156 14.2329C21.3489 14.318 21.3126 14.4231 21.3125 14.5312V16.4688C21.3126 16.5769 21.3489 16.682 21.4156 16.7671C21.4823 16.8523 21.5756 16.9126 21.6806 16.9386L22.0052 17.0209L21.8308 17.3067C21.7754 17.3992 21.7524 17.5076 21.7656 17.6147C21.7788 17.7217 21.8273 17.8213 21.9034 17.8977L23.2742 19.2684C23.3511 19.3437 23.4506 19.3916 23.5574 19.4048C23.6642 19.4179 23.7723 19.3955 23.8652 19.3411L24.1509 19.1667L24.2333 19.4913C24.2592 19.5963 24.3196 19.6896 24.4048 19.7563C24.4899 19.823 24.5949 19.8593 24.7031 19.8594H26.6406C26.7488 19.8593 26.8538 19.823 26.939 19.7563C27.0241 19.6896 27.0845 19.5963 27.1105 19.4913L27.1928 19.1667L27.4786 19.3411C27.5715 19.3954 27.6796 19.4176 27.7863 19.4045C27.8931 19.3914 27.9926 19.3436 28.0695 19.2684L29.4403 17.8977C29.5165 17.8213 29.565 17.7217 29.5782 17.6147C29.5913 17.5076 29.5684 17.3992 29.513 17.3067L29.3386 17.0209L29.6631 16.9386C29.7681 16.9126 29.8614 16.8523 29.9282 16.7671C29.9949 16.682 30.0312 16.5769 30.0312 16.4688V14.5312C30.0312 14.4231 29.9949 14.318 29.9282 14.2329C29.8614 14.1477 29.7681 14.0874 29.6631 14.0614ZM29.0625 16.0909L28.4716 16.2363C28.3983 16.2551 28.3303 16.2907 28.2732 16.3403C28.216 16.3899 28.1712 16.4521 28.1422 16.522C28.1128 16.5922 28.1006 16.6683 28.1065 16.7441C28.1124 16.8199 28.1363 16.8932 28.1761 16.958L28.4861 17.4811L27.653 18.3142L27.1298 17.9994C27.0643 17.9614 26.9909 17.939 26.9153 17.934C26.8397 17.9289 26.7639 17.9414 26.6939 17.9703C26.624 17.9993 26.5618 18.0441 26.5122 18.1013C26.4626 18.1585 26.4269 18.2264 26.4081 18.2997L26.2628 18.8906H25.0809L24.9356 18.2997C24.9168 18.2264 24.8812 18.1585 24.8316 18.1013C24.782 18.0441 24.7198 17.9993 24.6498 17.9703C24.5798 17.9414 24.5041 17.9289 24.4285 17.934C24.3529 17.939 24.2795 17.9614 24.2139 17.9994L23.6908 18.3142L22.8577 17.4811L23.1677 16.958C23.2075 16.8932 23.2314 16.8199 23.2372 16.7441C23.2431 16.6683 23.2309 16.5922 23.2016 16.522C23.1726 16.4521 23.1278 16.3899 23.0706 16.3403C23.0134 16.2907 22.9455 16.2551 22.8722 16.2363L22.2812 16.0909V14.9091L22.8722 14.7637C22.9455 14.7449 23.0134 14.7093 23.0706 14.6597C23.1278 14.6101 23.1726 14.5479 23.2016 14.478C23.2309 14.4078 23.2431 14.3317 23.2372 14.2559C23.2314 14.1801 23.2075 14.1068 23.1677 14.042L22.8577 13.5189L23.6908 12.6858L24.2139 12.9958C24.2787 13.0356 24.352 13.0595 24.4278 13.0654C24.5036 13.0713 24.5797 13.059 24.6498 13.0297C24.7198 13.0007 24.782 12.9559 24.8316 12.8987C24.8812 12.8415 24.9168 12.7736 24.9356 12.7003L25.0809 12.1094H26.2628L26.4081 12.7003C26.4269 12.7736 26.4626 12.8415 26.5122 12.8987C26.5618 12.9559 26.624 13.0007 26.6939 13.0297C26.764 13.059 26.8402 13.0713 26.916 13.0654C26.9918 13.0595 27.0651 13.0356 27.1298 12.9958L27.653 12.6858L28.4861 13.5189L28.1761 14.042C28.1363 14.1068 28.1124 14.1801 28.1065 14.2559C28.1006 14.3317 28.1128 14.4078 28.1422 14.478C28.1712 14.5479 28.216 14.6101 28.2732 14.6597C28.3303 14.7093 28.3983 14.7449 28.4716 14.7637L29.0625 14.9091V16.0909Z" fill="white"/>
<path d="M7.26563 15.5C7.26563 15.1168 7.15199 14.7422 6.9391 14.4236C6.7262 14.105 6.42361 13.8566 6.06958 13.71C5.71554 13.5633 5.32598 13.525 4.95014 13.5997C4.5743 13.6745 4.22907 13.859 3.95811 14.13C3.68714 14.4009 3.50261 14.7462 3.42785 15.122C3.3531 15.4979 3.39146 15.8874 3.53811 16.2415C3.68475 16.5955 3.93309 16.8981 4.25171 17.111C4.57033 17.3239 4.94492 17.4375 5.32813 17.4375C5.84198 17.4375 6.33479 17.2334 6.69815 16.87C7.0615 16.5067 7.26563 16.0139 7.26563 15.5ZM5.32813 16.4688C5.13653 16.4688 4.94923 16.4119 4.78992 16.3055C4.63061 16.199 4.50644 16.0477 4.43312 15.8707C4.3598 15.6937 4.34061 15.4989 4.37799 15.311C4.41537 15.1231 4.50763 14.9505 4.64312 14.815C4.7786 14.6795 4.95121 14.5872 5.13913 14.5499C5.32705 14.5125 5.52183 14.5317 5.69885 14.605C5.87587 14.6783 6.02716 14.8025 6.13361 14.9618C6.24006 15.1211 6.29688 15.3084 6.29688 15.5C6.29688 15.7569 6.19481 16.0033 6.01314 16.185C5.83146 16.3667 5.58505 16.4688 5.32813 16.4688Z" fill="white"/>
<path d="M6.76672 19.4922L6.84761 19.1687L7.13387 19.3401C7.22645 19.3957 7.33493 19.4187 7.44208 19.4055C7.54923 19.3923 7.64891 19.3438 7.7253 19.2675L9.09559 17.8977C9.17207 17.8213 9.22081 17.7216 9.23407 17.6143C9.24732 17.507 9.22432 17.3984 9.16873 17.3058L8.99678 17.0195L9.32034 16.9386C9.42518 16.9124 9.51826 16.852 9.58479 16.7669C9.65132 16.6817 9.68747 16.5768 9.6875 16.4688V14.5312C9.68747 14.4232 9.65132 14.3183 9.58479 14.2331C9.51826 14.148 9.42518 14.0876 9.32034 14.0614L8.99678 13.9805L9.16873 13.6942C9.22432 13.6016 9.24732 13.493 9.23407 13.3857C9.22081 13.2784 9.17207 13.1787 9.09559 13.1023L7.7253 11.7325C7.64897 11.6562 7.54932 11.6075 7.44216 11.5942C7.33501 11.581 7.22651 11.6039 7.13387 11.6594L6.84761 11.8313L6.76672 11.5078C6.74057 11.4029 6.68012 11.3099 6.59499 11.2433C6.50985 11.1768 6.40492 11.1407 6.29688 11.1406H4.35938C4.25133 11.1407 4.1464 11.1768 4.06126 11.2433C3.97613 11.3099 3.91568 11.4029 3.88953 11.5078L3.80864 11.8313L3.52237 11.6594C3.42974 11.6039 3.32124 11.581 3.21409 11.5942C3.10693 11.6075 3.00728 11.6562 2.93095 11.7325L1.56066 13.1023C1.48418 13.1787 1.43544 13.2784 1.42218 13.3857C1.40893 13.493 1.43193 13.6016 1.48752 13.6942L1.65947 13.9805L1.33591 14.0614C1.23107 14.0876 1.13799 14.148 1.07146 14.2331C1.00493 14.3183 0.96878 14.4232 0.96875 14.5312V16.4688C0.96878 16.5768 1.00493 16.6817 1.07146 16.7669C1.13799 16.852 1.23107 16.9124 1.33591 16.9386L1.65947 17.0195L1.48752 17.3058C1.43193 17.3984 1.40893 17.507 1.42218 17.6143C1.43544 17.7216 1.48418 17.8213 1.56066 17.8977L2.93095 19.2675C3.00734 19.3438 3.10702 19.3923 3.21417 19.4055C3.32132 19.4187 3.4298 19.3957 3.52237 19.3401L3.80864 19.1687L3.88953 19.4922C3.91568 19.5971 3.97613 19.6901 4.06126 19.7567C4.1464 19.8232 4.25133 19.8593 4.35938 19.8594H6.29688C6.40492 19.8593 6.50985 19.8232 6.59499 19.7567C6.68012 19.6901 6.74057 19.5971 6.76672 19.4922ZM6.06631 18.2997L5.921 18.8906H4.73767L4.59236 18.2997C4.57402 18.2262 4.53872 18.1581 4.48929 18.1008C4.43987 18.0435 4.37769 17.9985 4.30775 17.9695C4.23782 17.9406 4.16207 17.9284 4.08658 17.934C4.01109 17.9396 3.93796 17.9628 3.87306 18.0018L3.35091 18.3152L2.51294 17.4796L2.82633 16.9575C2.8653 16.8926 2.88851 16.8195 2.89412 16.744C2.89972 16.6685 2.88755 16.5927 2.85858 16.5228C2.82962 16.4529 2.78467 16.3907 2.72733 16.3413C2.67 16.2918 2.60188 16.2565 2.52844 16.2382L1.9375 16.0905V14.9095L2.52844 14.7642C2.60188 14.7459 2.67 14.7106 2.72733 14.6612C2.78467 14.6117 2.82962 14.5496 2.85858 14.4796C2.88755 14.4097 2.89972 14.3339 2.89412 14.2585C2.88851 14.183 2.8653 14.1098 2.82633 14.0449L2.51294 13.5228L3.34848 12.6872L3.87064 13.0006C3.93554 13.0396 4.00866 13.0628 4.08415 13.0684C4.15964 13.074 4.23539 13.0618 4.30533 13.0329C4.37527 13.0039 4.43744 12.959 4.48687 12.9016C4.5363 12.8443 4.5716 12.7762 4.58994 12.7027L4.73525 12.1118H5.91616L6.06147 12.7027C6.07981 12.7762 6.11511 12.8443 6.16454 12.9016C6.21396 12.959 6.27614 13.0039 6.34607 13.0329C6.41601 13.0618 6.49176 13.074 6.56725 13.0684C6.64274 13.0628 6.71587 13.0396 6.78077 13.0006L7.30292 12.6872L8.13895 13.5228L7.82508 14.0449C7.78611 14.1098 7.76289 14.183 7.75729 14.2585C7.75169 14.3339 7.76386 14.4097 7.79282 14.4796C7.82179 14.5496 7.86674 14.6117 7.92407 14.6612C7.98141 14.7106 8.04953 14.7459 8.12297 14.7642L8.71391 14.9095V16.0905L8.12297 16.2358C8.04953 16.2541 7.98141 16.2894 7.92407 16.3388C7.86674 16.3883 7.82179 16.4504 7.79282 16.5204C7.76386 16.5903 7.75169 16.6661 7.75729 16.7416C7.76289 16.817 7.78611 16.8902 7.82508 16.9551L8.13895 17.4772L7.30292 18.3128L6.78077 17.9994C6.71587 17.9604 6.64274 17.9372 6.56725 17.9316C6.49176 17.926 6.41601 17.9382 6.34607 17.9671C6.27614 17.9961 6.21396 18.041 6.16454 18.0984C6.11511 18.1557 6.07981 18.2238 6.06147 18.2973L6.06631 18.2997Z" fill="white"/>
<path d="M5.8125 24.7031V22.7656H4.84375V24.7031C4.84375 25.0885 4.99685 25.4581 5.26936 25.7306C5.54187 26.0032 5.91148 26.1562 6.29688 26.1562H10.1719V25.1875H6.29688C6.16841 25.1875 6.04521 25.1365 5.95437 25.0456C5.86353 24.9548 5.8125 24.8316 5.8125 24.7031Z" fill="white"/>
<path d="M25.1875 24.7031C25.1875 24.8316 25.1365 24.9548 25.0456 25.0456C24.9548 25.1365 24.8316 25.1875 24.7031 25.1875H20.8281V26.1562H24.7031C25.0885 26.1562 25.4581 26.0032 25.7306 25.7306C26.0032 25.4581 26.1562 25.0885 26.1562 24.7031V22.7656H25.1875V24.7031Z" fill="white"/>
<path d="M4.84375 20.8281H5.8125V21.7969H4.84375V20.8281Z" fill="white"/>
<path d="M15.5 3.39062C15.1168 3.39063 14.7422 3.50426 14.4236 3.71715C14.105 3.93005 13.8566 4.23264 13.71 4.58668C13.5633 4.94071 13.525 5.33027 13.5997 5.70611C13.6745 6.08195 13.859 6.42718 14.13 6.69814C14.4009 6.96911 14.7462 7.15364 15.122 7.2284C15.4979 7.30316 15.8874 7.26479 16.2415 7.11814C16.5955 6.9715 16.8981 6.72316 17.111 6.40454C17.3239 6.08592 17.4375 5.71133 17.4375 5.32812C17.4375 4.81427 17.2334 4.32146 16.87 3.95811C16.5067 3.59475 16.0139 3.39063 15.5 3.39062ZM15.5 6.29688C15.3084 6.29688 15.1211 6.24006 14.9618 6.13361C14.8025 6.02716 14.6783 5.87587 14.605 5.69885C14.5317 5.52183 14.5125 5.32705 14.5499 5.13913C14.5872 4.95121 14.6795 4.7786 14.815 4.64312C14.9505 4.50763 15.1231 4.41537 15.311 4.37799C15.4989 4.34061 15.6937 4.35979 15.8707 4.43312C16.0477 4.50644 16.199 4.63061 16.3055 4.78992C16.4119 4.94923 16.4688 5.13652 16.4688 5.32812C16.4688 5.58505 16.3667 5.83146 16.185 6.01313C16.0033 6.19481 15.7569 6.29688 15.5 6.29688Z" fill="white"/>
<path d="M19.4913 3.88953L19.1667 3.80719L19.3411 3.52141C19.3965 3.42888 19.4194 3.3205 19.4063 3.21346C19.3931 3.10641 19.3446 3.00682 19.2684 2.93047L17.8977 1.55969C17.8207 1.48454 17.7212 1.43674 17.6145 1.42361C17.5077 1.41049 17.3996 1.43277 17.3067 1.48703L17.0209 1.66141L16.9386 1.33687C16.9126 1.23186 16.8523 1.13856 16.7671 1.07184C16.682 1.00513 16.5769 0.968834 16.4688 0.96875H14.5312C14.4231 0.968834 14.318 1.00513 14.2329 1.07184C14.1477 1.13856 14.0874 1.23186 14.0614 1.33687L13.9791 1.66141L13.6933 1.48703C13.6004 1.43277 13.4923 1.41049 13.3855 1.42361C13.2788 1.43674 13.1793 1.48454 13.1023 1.55969L11.7316 2.93047C11.6554 3.00682 11.6069 3.10641 11.5937 3.21346C11.5806 3.3205 11.6035 3.42888 11.6589 3.52141L11.8333 3.80719L11.5088 3.88953C11.4037 3.91549 11.3104 3.97586 11.2437 4.06101C11.177 4.14617 11.1407 4.2512 11.1406 4.35938V6.29688C11.1407 6.40505 11.177 6.51009 11.2437 6.59524C11.3104 6.68039 11.4037 6.74076 11.5088 6.76672L11.8333 6.84906L11.6589 7.13484C11.6035 7.22737 11.5806 7.33575 11.5937 7.44279C11.6069 7.54984 11.6554 7.64943 11.7316 7.72578L13.1023 9.09656C13.1793 9.17171 13.2788 9.21951 13.3855 9.23264C13.4923 9.24576 13.6004 9.22348 13.6933 9.16922L13.9791 8.99484L14.0614 9.31938C14.0874 9.42439 14.1477 9.51769 14.2329 9.58441C14.318 9.65112 14.4231 9.68742 14.5312 9.6875H16.4688C16.5769 9.68742 16.682 9.65112 16.7671 9.58441C16.8523 9.51769 16.9126 9.42439 16.9386 9.31938L17.0209 8.99484L17.3067 9.16922C17.3996 9.22348 17.5077 9.24576 17.6145 9.23264C17.7212 9.21951 17.8207 9.17171 17.8977 9.09656L19.2684 7.72578C19.3446 7.64943 19.3931 7.54984 19.4063 7.44279C19.4194 7.33575 19.3965 7.22737 19.3411 7.13484L19.1667 6.84906L19.4913 6.76672C19.5963 6.74076 19.6896 6.68039 19.7563 6.59524C19.823 6.51009 19.8593 6.40505 19.8594 6.29688V4.35938C19.8593 4.2512 19.823 4.14617 19.7563 4.06101C19.6896 3.97586 19.5963 3.91549 19.4913 3.88953ZM18.8906 5.91906L18.2997 6.06438C18.2264 6.08319 18.1585 6.11881 18.1013 6.16841C18.0441 6.21801 17.9993 6.28023 17.9703 6.35016C17.941 6.4203 17.9287 6.49642 17.9346 6.57222C17.9405 6.64802 17.9644 6.72134 18.0042 6.78609L18.3142 7.30922L17.4811 8.14234L16.958 7.83234C16.8932 7.7925 16.8199 7.76865 16.7441 7.76275C16.6683 7.75686 16.5922 7.76909 16.522 7.79844C16.4521 7.8274 16.3899 7.87224 16.3403 7.92941C16.2907 7.98658 16.2551 8.0545 16.2363 8.12781L16.0909 8.71875H14.9091L14.7637 8.12781C14.7449 8.0545 14.7093 7.98658 14.6597 7.92941C14.6101 7.87224 14.5479 7.8274 14.478 7.79844C14.4078 7.76909 14.3317 7.75686 14.2559 7.76275C14.1801 7.76865 14.1068 7.7925 14.042 7.83234L13.5189 8.14234L12.6858 7.30922L12.9958 6.78609C13.0356 6.72134 13.0595 6.64802 13.0654 6.57222C13.0713 6.49642 13.059 6.4203 13.0297 6.35016C13.0007 6.28023 12.9559 6.21801 12.8987 6.16841C12.8415 6.11881 12.7736 6.08319 12.7003 6.06438L12.1094 5.91906V4.73719L12.7003 4.59187C12.7736 4.57306 12.8415 4.53744 12.8987 4.48784C12.9559 4.43824 13.0007 4.37602 13.0297 4.30609C13.059 4.23595 13.0713 4.15983 13.0654 4.08403C13.0595 4.00823 13.0356 3.93491 12.9958 3.87016L12.6858 3.34703L13.5189 2.51391L14.042 2.82875C14.1076 2.86673 14.181 2.8891 14.2566 2.89414C14.3322 2.89918 14.4079 2.88675 14.478 2.85781C14.5479 2.82885 14.6101 2.78401 14.6597 2.72684C14.7093 2.66967 14.7449 2.60175 14.7637 2.52844L14.9091 1.9375H16.0909L16.2363 2.52844C16.2551 2.60175 16.2907 2.66967 16.3403 2.72684C16.3899 2.78401 16.4521 2.82885 16.522 2.85781C16.5921 2.88675 16.6678 2.89918 16.7434 2.89414C16.819 2.8891 16.8924 2.86673 16.958 2.82875L17.4811 2.51391L18.3142 3.34703L18.0042 3.87016C17.9644 3.93491 17.9405 4.00823 17.9346 4.08403C17.9287 4.15983 17.941 4.23595 17.9703 4.30609C17.9993 4.37602 18.0441 4.43824 18.1013 4.48784C18.1585 4.53744 18.2264 4.57306 18.2997 4.59187L18.8906 4.73719V5.91906Z" fill="white"/>
<path d="M4.84375 6.29688V8.23438H5.8125V6.29688C5.8125 6.16841 5.86353 6.04521 5.95437 5.95437C6.04521 5.86353 6.16841 5.8125 6.29688 5.8125H10.1719V4.84375H6.29688C5.91148 4.84375 5.54187 4.99685 5.26936 5.26936C4.99685 5.54187 4.84375 5.91148 4.84375 6.29688Z" fill="white"/>
<path d="M25.1875 6.29688V8.23438H26.1562V6.29688C26.1562 5.91148 26.0032 5.54187 25.7306 5.26936C25.4581 4.99685 25.0885 4.84375 24.7031 4.84375H20.8281V5.8125H24.7031C24.8316 5.8125 24.9548 5.86353 25.0456 5.95437C25.1365 6.04521 25.1875 6.16841 25.1875 6.29688Z" fill="white"/>
<path d="M4.84375 9.20312H5.8125V10.1719H4.84375V9.20312Z" fill="white"/>
<path d="M25.1875 20.8281H26.1562V21.7969H25.1875V20.8281Z" fill="white"/>
<path d="M25.1875 9.20312H26.1562V10.1719H25.1875V9.20312Z" fill="white"/>
</svg>
