<svg width="31" height="32" viewBox="0 0 31 32" fill="none" xmlns="http://www.w3.org/2000/svg">
<g clip-path="url(#clip0)">
<path d="M26.3378 14.4379C26.1214 13.8307 25.5461 13.4258 24.9015 13.4269C24.2575 13.4289 23.6845 13.8359 23.4705 14.4433H20.3277V12.4105H22.3605C22.6411 12.4106 22.8686 12.1832 22.8687 11.9026C22.8687 11.9025 22.8687 11.9024 22.8687 11.9023V9.7759C23.6626 9.49525 24.0787 8.6242 23.798 7.83027C23.5174 7.03641 22.6463 6.62032 21.8524 6.90097C21.0584 7.18162 20.6424 8.05267 20.9231 8.8466C21.0766 9.28079 21.4181 9.62236 21.8523 9.7759V11.3942H20.3277V10.3778C20.3278 10.0972 20.1004 9.86967 19.8198 9.8696C19.8197 9.8696 19.8196 9.8696 19.8195 9.8696H18.8031V7.23486C19.597 6.95421 20.0131 6.08316 19.7324 5.28923C19.4518 4.49536 18.5807 4.07927 17.7868 4.35993C16.9929 4.64058 16.5769 5.51163 16.8575 6.30556C17.011 6.73975 17.3525 7.08132 17.7867 7.23486V9.86954H15.754V1.75624C15.754 1.47566 15.5266 1.24811 15.246 1.24805C15.2459 1.24805 15.2458 1.24805 15.2458 1.24805C8.97645 1.24805 4.06543 5.78707 4.06543 11.5812C4.06543 14.3336 5.15799 17.9778 6.91711 21.091C7.23302 21.6499 7.64517 22.2375 8.08139 22.8598C9.00383 24.1747 10.0304 25.6534 10.142 26.9405C9.75132 27.2166 9.5227 27.6684 9.53153 28.1467C9.53299 28.4903 9.65165 28.8232 9.86789 29.0902C9.5671 29.387 9.39889 29.7927 9.40149 30.2153C9.40238 31.0569 10.0844 31.739 10.9261 31.7398H19.5654C20.4128 31.7346 21.0955 31.0434 21.0902 30.1961C21.0901 30.1905 21.0901 30.185 21.09 30.1795C21.0897 29.7661 20.9208 29.3708 20.6223 29.0848C20.8413 28.8075 20.9603 28.4643 20.96 28.1109C20.9585 27.306 20.3047 26.6548 19.4998 26.6563C19.4783 26.6564 19.4569 26.6569 19.4354 26.6578H15.754V16.9842H16.7703V18.5088C16.7703 18.7894 16.9977 19.017 17.2783 19.017C17.2784 19.017 17.2785 19.017 17.2785 19.017H18.8031V19.6188C18.0093 19.8995 17.5932 20.7706 17.874 21.5644C18.1547 22.3582 19.0257 22.7743 19.8195 22.4936C20.6134 22.2129 21.0294 21.3418 20.7487 20.548C20.5952 20.1138 20.2537 19.7723 19.8195 19.6188V18.5088C19.8196 18.2282 19.5922 18.0007 19.3116 18.0006C19.3115 18.0006 19.3114 18.0006 19.3113 18.0006H17.7867V16.9842H19.8195C20.1001 16.9843 20.3277 16.7569 20.3277 16.4763C20.3277 16.4762 20.3277 16.4761 20.3277 16.476V15.4596H23.4706C23.7528 16.2514 24.6233 16.6645 25.4151 16.3823C26.2068 16.1002 26.6199 15.2297 26.3378 14.4379ZM22.3605 7.83669C22.6412 7.83669 22.8687 8.06423 22.8687 8.34489C22.8687 8.62554 22.6412 8.85308 22.3605 8.85308C22.0799 8.85308 21.8523 8.62554 21.8523 8.34489C21.8526 8.06436 22.08 7.83701 22.3605 7.83669ZM8.91363 22.2761C8.49176 21.6746 8.09352 21.1069 7.80195 20.5908C6.14961 17.6662 5.08182 14.1296 5.08182 11.5812C5.08182 6.51315 9.28315 2.51009 14.7376 2.27537V5.82563C14.6026 5.83573 14.465 5.84799 14.3177 5.86603C14.102 5.89227 13.9269 6.05286 13.882 6.26554L13.7271 7.00204C13.5996 7.03234 13.4724 7.06658 13.3455 7.10476L12.839 6.53996C12.6939 6.37766 12.4615 6.32595 12.2613 6.41145C11.6925 6.65672 11.1557 6.97021 10.6625 7.34495C10.4889 7.47581 10.4178 7.70265 10.4856 7.90923L10.7189 8.61995C10.6228 8.71028 10.5293 8.80404 10.4387 8.89984L9.72877 8.66657C9.52225 8.59968 9.29598 8.67051 9.16448 8.84324C8.78924 9.3365 8.4755 9.8736 8.23023 10.4428C8.14485 10.643 8.19656 10.8753 8.35874 11.0205L8.92379 11.5267C8.8858 11.6523 8.85182 11.7781 8.82183 11.9044L8.03152 12.0622C7.79394 12.1095 7.62287 12.3182 7.62287 12.5604V14.2934C7.62287 14.5357 7.79394 14.7443 8.03159 14.7917L8.8219 14.9495C8.85194 15.0755 8.88593 15.2014 8.92385 15.3271L8.35861 15.8334C8.19662 15.9786 8.14498 16.2108 8.2301 16.411C8.47543 16.9802 8.78912 17.5173 9.16436 18.0106C9.29573 18.1835 9.52213 18.2543 9.72865 18.1873L10.4386 17.954C10.5294 18.0498 10.6227 18.1436 10.7187 18.2339L10.4855 18.9436C10.4178 19.1501 10.4887 19.3768 10.6621 19.5079C11.1553 19.8832 11.6924 20.197 12.2614 20.4424C12.4617 20.5274 12.6938 20.4757 12.8391 20.3139L13.3456 19.7491C13.4724 19.7873 13.5996 19.8216 13.7273 19.8518L13.8819 20.5878C13.9265 20.8007 14.1017 20.9615 14.3176 20.9878C14.465 21.0058 14.6028 21.0181 14.7377 21.0282V26.6579H11.1365C10.9287 25.1602 9.86783 23.6367 8.91363 22.2761ZM10.672 13.4269C10.6752 15.7546 12.4244 17.7096 14.7376 17.9706V19.7183L14.6535 19.3183C14.611 19.1157 14.45 18.959 14.2463 18.9222C13.945 18.8674 13.6489 18.7876 13.3609 18.6835C13.3057 18.6639 13.2475 18.6538 13.189 18.6537C13.0445 18.6537 12.9068 18.7153 12.8105 18.8229L12.3326 19.356C12.0678 19.2237 11.8123 19.0736 11.5676 18.9069L11.7882 18.2354C11.8528 18.0386 11.7917 17.8224 11.6336 17.6885C11.3993 17.4901 11.1817 17.2727 10.9833 17.0384C10.849 16.8814 10.6335 16.8207 10.4371 16.8846L9.76587 17.1054C9.59906 16.8607 9.44895 16.6051 9.3165 16.3402L9.84998 15.8623C10.0038 15.7241 10.0588 15.5066 9.98916 15.3119C9.88523 15.0239 9.80538 14.7277 9.75043 14.4265C9.71334 14.2212 9.5544 14.0594 9.34966 14.0186L8.6392 13.8765V12.9773L9.34966 12.8354C9.55434 12.7947 9.71334 12.6328 9.75043 12.4274C9.80538 12.1261 9.88523 11.8297 9.9891 11.5415C10.0589 11.3467 10.0038 11.1292 9.84966 10.9911L9.31663 10.5137C9.4492 10.2489 9.59925 9.99322 9.76574 9.7484L10.4372 9.96927C10.6336 10.0331 10.8491 9.97239 10.9834 9.81542C11.1823 9.58095 11.4 9.36306 11.6343 9.16378C11.7917 9.03019 11.8525 8.81452 11.7881 8.61836L11.5677 7.9469C11.8124 7.78028 12.0679 7.63023 12.3325 7.49779L12.8104 8.03082C12.9486 8.18455 13.166 8.23963 13.3608 8.17026C13.6487 8.06614 13.9449 7.98629 14.2461 7.93153C14.4498 7.89494 14.6108 7.73848 14.6533 7.53596L14.7376 7.13595V8.88307C12.4244 9.14415 10.6752 11.0991 10.672 13.4269ZM14.7376 9.91007V16.9436C12.7953 16.6656 11.4462 14.8656 11.7242 12.9234C11.9479 11.3612 13.1753 10.1337 14.7376 9.91007ZM20.0736 30.2153C20.0734 30.4958 19.846 30.7232 19.5654 30.7235H10.9261C10.6403 30.7186 10.4125 30.483 10.4173 30.1972C10.4174 30.1913 10.4176 30.1854 10.4179 30.1795C10.4181 29.899 10.6456 29.6716 10.9261 29.6713H19.5654C19.8512 29.6761 20.079 29.9117 20.0742 30.1975C20.0741 30.2034 20.0739 30.2093 20.0736 30.2153ZM19.4354 27.6743C19.6914 27.6506 19.9181 27.8391 19.9417 28.0951C19.9433 28.1123 19.9439 28.1295 19.9436 28.1467C19.9433 28.4272 19.7159 28.6546 19.4354 28.6549H11.0561C10.7703 28.6501 10.5425 28.4145 10.5474 28.1287C10.5475 28.1228 10.5477 28.1168 10.5479 28.1109C10.5588 27.8576 10.773 27.6611 11.0263 27.672C11.0363 27.6724 11.0462 27.6732 11.0561 27.6742H19.4354V27.6743ZM19.3113 20.5416C19.592 20.5416 19.8195 20.7692 19.8195 21.0498C19.8195 21.3305 19.592 21.558 19.3113 21.558C19.0307 21.558 18.8031 21.3305 18.8031 21.0498C18.8034 20.7693 19.0308 20.5419 19.3113 20.5416ZM18.2949 5.29571C18.5756 5.29571 18.8031 5.52325 18.8031 5.8039C18.8031 6.08455 18.5756 6.3121 18.2949 6.3121C18.0143 6.3121 17.7867 6.08455 17.7867 5.8039C17.787 5.52338 18.0144 5.29602 18.2949 5.29571ZM19.3113 15.9678H15.754V10.8859H19.3113V15.9678ZM24.9015 15.4596C24.6208 15.4596 24.3933 15.2321 24.3933 14.9514C24.3933 14.6708 24.6208 14.4432 24.9015 14.4432C25.1821 14.4432 25.4097 14.6708 25.4097 14.9514C25.4094 15.232 25.182 15.4594 24.9015 15.4596Z" fill="white"/>
<path d="M20.1475 24.4775C19.9683 24.798 19.8097 25.1295 19.6729 25.4701L20.6178 25.8443C20.7389 25.5439 20.879 25.2515 21.0374 24.9689L20.1475 24.4775Z" fill="white"/>
<path d="M21.2898 22.6875C21.09 22.9744 20.8908 23.2661 20.7002 23.561L21.5533 24.1129C21.7379 23.828 21.9307 23.5461 22.124 23.2682L21.2898 22.6875Z" fill="white"/>
<path d="M22.4456 20.9961C22.2741 21.268 22.083 21.5495 21.8828 21.8383L22.7176 22.418C22.9273 22.1162 23.1267 21.8219 23.3057 21.5371L22.4456 20.9961Z" fill="white"/>
<path d="M23.4002 19.2246C23.2545 19.5293 23.1022 19.8306 22.9434 20.1284L23.8396 20.6078C24.0059 20.2967 24.1651 19.9815 24.3173 19.6624L23.4002 19.2246Z" fill="white"/>
<path d="M24.1943 17.3604C24.0762 17.6745 23.9504 17.9891 23.8174 18.3013L24.7529 18.6993C24.8914 18.3733 25.0223 18.046 25.1457 17.7177L24.1943 17.3604Z" fill="white"/>
<path d="M26.4255 11.4795L25.4091 11.4874L25.4096 11.5808C25.4096 11.8641 25.3964 12.1654 25.3701 12.4751L26.383 12.5604C26.4115 12.2225 26.426 11.8929 26.426 11.5808L26.4255 11.4795Z" fill="white"/>
<path d="M26.1673 9.31543L25.1777 9.54672C25.252 9.86441 25.3085 10.186 25.347 10.51L26.3564 10.3899C26.3133 10.0286 26.2502 9.66983 26.1673 9.31543Z" fill="white"/>
<path d="M25.4361 7.2627L24.5225 7.70737C24.6653 8.00091 24.7919 8.30215 24.9016 8.60961L25.859 8.26918C25.7369 7.92608 25.5957 7.59004 25.4361 7.2627Z" fill="white"/>
<path d="M24.2736 5.42188L23.4775 6.05414C23.6809 6.31027 23.8706 6.57694 24.0458 6.85315L24.9048 6.3102C24.7103 6.00313 24.4996 5.70659 24.2736 5.42188Z" fill="white"/>
<path d="M22.7502 3.87109L22.1025 4.65422C22.3552 4.86322 22.5969 5.08505 22.8268 5.31876L23.5514 4.60607C23.297 4.34759 23.0296 4.10232 22.7502 3.87109Z" fill="white"/>
<path d="M20.9531 2.66016L20.4697 3.55446C20.76 3.7113 21.0442 3.883 21.3142 4.06462L21.8814 3.22095C21.5843 3.02148 21.2722 2.83288 20.9531 2.66016Z" fill="white"/>
<path d="M18.961 1.81738L18.6533 2.78613C18.9699 2.88637 19.2814 3.00154 19.5794 3.12809L19.9769 2.19307C19.6496 2.05357 19.3077 1.92753 18.961 1.81738Z" fill="white"/>
<path d="M16.8517 1.35059L16.7217 2.35904C17.0495 2.40122 17.3775 2.45833 17.6967 2.52928L17.9165 1.53671C17.5679 1.45978 17.2095 1.39721 16.8517 1.35059Z" fill="white"/>
<path d="M2.033 28.6719H1.0166V29.6883H2.033V28.6719Z" fill="white"/>
<path d="M2.033 30.7051H1.0166V31.7215H2.033V30.7051Z" fill="white"/>
<path d="M3.04862 29.6885H2.03223V30.7049H3.04862V29.6885Z" fill="white"/>
<path d="M1.01639 29.6885H0V30.7049H1.01639V29.6885Z" fill="white"/>
<path d="M29.9842 1.22949H28.9678V2.24589H29.9842V1.22949Z" fill="white"/>
<path d="M29.9842 3.2627H28.9678V4.27909H29.9842V3.2627Z" fill="white"/>
<path d="M30.9998 2.24512H29.9834V3.26151H30.9998V2.24512Z" fill="white"/>
<path d="M28.9676 2.24512H27.9512V3.26151H28.9676V2.24512Z" fill="white"/>
</g>
<defs>
<clipPath id="clip0">
<rect width="31" height="31" fill="white" transform="translate(0 0.984375)"/>
</clipPath>
</defs>
</svg>
