<svg width="31" height="32" viewBox="0 0 31 32" fill="none" xmlns="http://www.w3.org/2000/svg">
<g clip-path="url(#clip0)">
<path d="M30.9838 16.496C30.9228 14.1836 30.4774 11.9627 29.5012 9.89439C30.3066 8.19823 30.9777 6.48376 30.9777 5.50146C30.9777 3.02433 28.9643 1.0048 26.4811 1.0048C24.9863 1.0048 23.6623 1.74306 22.8447 2.8718C19.0802 0.821764 15.456 1.01701 15.4377 1.0109C10.813 0.608219 0.0136719 4.7449 0.0136719 16.496C0.0136719 25.6784 7.67079 32.1519 15.4988 31.9811C26.7373 31.7309 31.1303 22.4692 30.9838 16.496ZM12.6739 2.28607C11.3743 3.52464 10.2882 5.60518 9.55609 8.22873C8.1894 7.6125 6.92034 6.78273 5.7916 5.75771C7.75011 3.98223 10.1174 2.79248 12.6739 2.28607ZM10.2516 9.58932C11.7587 10.1323 13.3572 10.4374 14.9923 10.4862V15.9957H9.50118C9.54389 13.6955 9.80625 11.5173 10.2516 9.58932ZM5.07164 6.45326C6.34071 7.6125 7.76842 8.5338 9.29984 9.21104C8.82394 11.2367 8.54328 13.5369 8.50667 15.9957H1.02649C1.14851 12.3959 2.57005 9.04021 5.07164 6.45326ZM9.89167 22.4692C10.7764 22.4692 11.4963 23.1891 11.4963 24.0738C11.4963 24.9585 10.7764 25.6784 9.89167 25.6784C9.00698 25.6784 8.28702 24.9585 8.28702 24.0738C8.28702 23.1891 9.00698 22.4692 9.89167 22.4692ZM1.02649 16.9902H8.51277C8.53718 18.5948 8.66531 20.1629 8.90326 21.6638C7.95756 22.0543 7.29251 22.9878 7.29251 24.0677C7.29251 24.3178 7.34132 24.5497 7.40234 24.7754C6.57256 25.288 5.7916 25.8737 5.07164 26.5326C2.57005 23.9518 1.14851 20.5961 1.02649 16.9902ZM5.7916 27.2343C6.43223 26.6546 7.12168 26.1299 7.85993 25.6723C8.33584 26.2825 9.08019 26.7523 10.1906 26.6485C10.8801 28.424 11.7343 29.7968 12.6922 30.7059C10.1296 30.2056 7.75621 29.0158 5.7916 27.2343ZM14.9984 30.9194C13.5524 30.6144 12.1797 28.9914 11.1424 26.3435C11.9478 25.8981 12.6311 25.0378 12.4725 23.8114C13.3023 23.6345 14.1443 23.5308 14.9984 23.5003V30.9194ZM14.9984 16.9902V22.4997C14.0466 22.5302 13.107 22.6461 12.1858 22.8474C11.7465 22.0299 10.8923 21.4624 9.89777 21.4624C9.89167 21.4624 9.89167 21.4624 9.88556 21.4624C9.65982 20.0225 9.53779 18.5216 9.51338 16.9841H14.9984V16.9902ZM14.9984 9.4917C13.4426 9.43679 11.9295 9.14393 10.5018 8.61922C11.4963 4.99505 13.1437 2.45691 14.9984 2.06643V9.4917ZM26.4811 2.01152C28.4091 2.01152 29.9771 3.57955 29.9771 5.50756C29.9771 7.01458 27.7501 11.2611 26.4811 13.5003C25.212 11.2672 22.985 7.01458 22.985 5.50756C22.985 3.57955 24.5531 2.01152 26.4811 2.01152ZM22.8935 8.61922C24.004 11.2367 26.4872 15.4832 26.4872 15.4832C26.4872 15.4832 28.0186 12.8657 28.9277 11.0719C29.5622 12.6339 29.91 14.2873 29.9649 15.9957H22.4847C22.4481 13.5308 22.1675 11.2306 21.6916 9.20494C22.1004 9.028 22.4969 8.83276 22.8935 8.61922ZM22.3505 3.74428C22.1187 4.2873 21.9905 4.87912 21.9905 5.50756C21.9905 6.05057 22.198 6.81934 22.5213 7.68572C22.1675 7.88096 21.8075 8.0579 21.4414 8.22873C20.7032 5.60518 19.6232 3.53684 18.3298 2.29828C19.733 2.56673 21.0875 3.06094 22.3505 3.74428ZM15.993 2.06643C17.8478 2.45691 19.489 4.98895 20.4896 8.60701C19.0558 9.13783 17.5366 9.43069 15.993 9.4856V2.06643ZM15.993 10.4862C17.6159 10.4313 19.2144 10.1262 20.7337 9.58322C21.1791 11.5112 21.4475 13.6955 21.4841 15.9957H15.993V10.4862ZM15.993 16.9902H21.4841C21.4475 19.2904 21.1852 21.4685 20.7398 23.3965C19.2266 22.8535 17.6342 22.5546 15.993 22.4997V16.9902ZM15.993 30.9194V23.5003C17.5488 23.5552 19.0619 23.848 20.4896 24.3728C19.4951 27.9969 17.8478 30.529 15.993 30.9194ZM18.3176 30.6998C19.6171 29.4673 20.7032 27.3868 21.4353 24.7571C22.802 25.3734 24.0711 26.2031 25.2059 27.2282C23.2474 29.0036 20.874 30.1934 18.3176 30.6998ZM25.9259 26.5387C24.6568 25.3795 23.2291 24.4521 21.6916 23.7809C22.1675 21.7553 22.4481 19.4551 22.4847 16.9963H29.971C29.849 20.5961 28.4274 23.9518 25.9259 26.5387Z" fill="white"/>
<path d="M26.4805 3.50684C25.3761 3.50684 24.4854 4.40373 24.4854 5.50806C24.4854 6.61239 25.3822 7.50318 26.4805 7.50318C27.5848 7.50318 28.4817 6.60629 28.4817 5.50806C28.4817 4.40983 27.5848 3.50684 26.4805 3.50684ZM26.4805 6.50867C25.9314 6.50867 25.4799 6.06328 25.4799 5.50806C25.4799 4.95284 25.9314 4.50745 26.4805 4.50745C27.0296 4.50745 27.4811 4.95284 27.4811 5.50806C27.4811 6.06328 27.0357 6.50867 26.4805 6.50867Z" fill="white"/>
</g>
<defs>
<clipPath id="clip0">
<rect width="31" height="31" fill="white" transform="translate(0 0.984375)"/>
</clipPath>
</defs>
</svg>
