<svg width="29" height="29" viewBox="0 0 29 29" fill="none" xmlns="http://www.w3.org/2000/svg">
<g clip-path="url(#clip0)">
<path d="M21.1396 28.1504H21.9893V29H21.1396V28.1504Z" fill="white"/>
<path d="M24.2823 23.2465L22.9998 22.6603C23.4889 22.2017 23.7945 21.5876 23.7945 21.0336V20.4029C25.7459 18.1611 26.8193 15.2975 26.8193 12.3193C26.8193 9.02874 25.5379 5.93509 23.2111 3.60829C20.8842 1.28144 17.7906 0 14.5 0C11.3742 0 8.39318 1.17314 6.10609 3.30334L6.68518 3.92508C8.81441 1.94181 11.5898 0.849609 14.5 0.849609C16.0322 0.849609 17.4949 1.15241 18.8323 1.70001L13.2565 3.96201L12.1276 7.67979L12.8929 10.0013L14.0247 11.5748L13.258 13.7122L11.0144 14.9601L9.04086 13.8301L7.93869 10.9747L5.31833 12.9253L3.51206 15.6106C3.19527 14.552 3.03027 13.4445 3.03027 12.3193C3.03027 9.40897 4.12247 6.63358 6.10569 4.50446L5.48406 3.92542C3.3538 6.21229 2.18066 9.19328 2.18066 12.3193C2.18066 15.2975 3.25406 18.1611 5.20544 20.4029V21.0337C5.20544 21.5876 5.51108 22.2017 6.00011 22.6604L4.71765 23.2466C4.21831 23.4748 3.64143 23.8642 3.6126 24.8571L3.61248 29H20.2899V28.1504H19.0156V24.4239L19.0154 24.4116C19.0107 24.2515 18.9954 24.08 18.9526 23.9056L20.4773 23.2041C20.7377 23.3052 21.0181 23.3634 21.3109 23.3634C21.6039 23.3634 21.8846 23.3051 22.1452 23.2039L23.9291 24.0192C24.3752 24.2232 24.5239 24.4318 24.538 24.8758V28.1504H22.8388V29H25.3876V24.8694L25.3875 24.857C25.3585 23.8642 24.7816 23.4748 24.2823 23.2465ZM5.94222 13.5201L7.54889 12.3241L8.35693 14.4175L11.0084 15.9357L13.95 14.2995L14.9753 11.4412L13.6589 9.61123L13.0187 7.6692L13.9516 4.59684L19.8796 2.19205C23.2747 4.00279 25.6574 7.47062 25.9407 11.5088L21.3848 8.48856L18.4975 9.72378L18.7993 12.657L17.7159 14.9498L14.7564 16.1644H14.1596C12.8413 16.1644 11.7688 17.2369 11.7688 18.5552V20.1271C11.7688 20.7561 12.1282 21.4556 12.6983 21.9642L11.1926 22.6524C10.9413 22.7673 10.6721 22.9197 10.4516 23.1563L9.37646 22.6616C9.8664 22.2028 10.1726 21.588 10.1726 21.0336V19.6303C10.1726 18.4283 9.19476 17.4504 7.99278 17.4504H7.3852C6.35825 17.4504 5.49544 18.1645 5.26582 19.1221C4.69149 18.3435 4.22126 17.4997 3.86272 16.6113L5.94222 13.5201ZM14.5 21.8362C13.4614 21.8362 12.6186 20.8021 12.6186 20.1272V18.98H16.3815V20.1272C16.3814 20.8021 15.5386 21.8362 14.5 21.8362ZM12.6786 18.1305C12.8635 17.4867 13.4572 17.0142 14.1596 17.0142H14.8402C15.5427 17.0142 16.1365 17.4867 16.3214 18.1305H12.6786ZM6.05511 20.0552H9.3231V21.0337C9.3231 21.6181 8.59108 22.5137 7.68914 22.5137C6.78713 22.5137 6.05511 21.6181 6.05511 21.0337V20.0552ZM6.12506 19.2056C6.30274 18.6799 6.80039 18.3001 7.38531 18.3001H7.9929C8.57783 18.3001 9.07541 18.6799 9.25315 19.2056H6.12506ZM4.46209 24.8758C4.47625 24.4318 4.62488 24.2232 5.07092 24.0192L6.85482 23.2039C7.11542 23.3051 7.39608 23.3633 7.68914 23.3633C7.98191 23.3633 8.26234 23.3051 8.52277 23.2041L10.0513 23.9074C10.0137 24.0577 9.9901 24.2246 9.98467 24.4116L9.9845 28.1504H4.46209V24.8758ZM10.834 28.1504V24.4303C10.8505 23.9085 11.0241 23.6637 11.5459 23.4253L13.5627 22.5034C13.8548 22.6194 14.1704 22.6859 14.4999 22.6859C14.8295 22.6859 15.1451 22.6193 15.4372 22.5034L17.454 23.4253C17.9758 23.6637 18.1495 23.9085 18.1659 24.4303V28.1504H10.834ZM18.5458 23.1576C18.3712 22.9736 18.1328 22.8013 17.8072 22.6525L16.3016 21.9643C16.8717 21.4558 17.231 20.7562 17.231 20.1272V18.5553C17.231 17.7019 16.7813 16.9519 16.1066 16.5288L18.3434 15.6107L19.6687 12.8058L19.4067 10.259L21.2975 9.45004L25.9671 12.5457C25.9204 14.9267 25.1378 17.2193 23.7341 19.1222C23.5045 18.1646 22.6417 17.4505 21.6147 17.4505H21.0071C19.8051 17.4505 18.8273 18.4284 18.8273 19.6303V21.0336C18.8273 21.5881 19.1335 22.2028 19.6234 22.6617L18.5458 23.1576ZM22.8749 19.2055H19.7468C19.9245 18.6798 20.4221 18.3001 21.0071 18.3001H21.6147C22.1996 18.3001 22.6972 18.6798 22.8749 19.2055ZM19.6769 21.0337V20.0551H22.9449V21.0337C22.9449 21.6181 22.2129 22.5137 21.3109 22.5137C20.4089 22.5137 19.6769 21.6181 19.6769 21.0337Z" fill="white"/>
<path d="M20.8994 4.5H21.749V5.34961H20.8994V4.5Z" fill="white"/>
<path d="M19.2002 3.65039H20.0498V4.5H19.2002V3.65039Z" fill="white"/>
<path d="M16.4668 24.4238H17.3164V25.2734H16.4668V24.4238Z" fill="white"/>
</g>
<defs>
<clipPath id="clip0">
<rect width="29" height="29" fill="white"/>
</clipPath>
</defs>
</svg>
