<svg width="29" height="29" viewBox="0 0 29 29" fill="none" xmlns="http://www.w3.org/2000/svg">
<g clip-path="url(#clip0)">
<path d="M25.9419 1.40918H7.18946C5.56202 1.40918 4.23796 2.72086 4.23796 4.32789L4.11711 20.8404H0.457482C0.198128 20.8404 0 21.0697 0 21.329V23.6015C0 25.7289 1.70243 27.4687 3.75708 27.5641V27.5914H19.5486V27.5606C19.666 27.5655 19.7371 27.5914 19.8178 27.5914H19.829C22.0204 27.5785 23.7868 25.7924 23.7753 23.6011V9.15817H28.5425C28.8019 9.15817 29 8.92335 29 8.66422V4.4946C29.003 2.79997 27.6365 1.42133 25.9419 1.40918V1.40918ZM3.96255 26.6521H3.95934C2.28879 26.6521 0.939271 25.2714 0.939271 23.6011V21.7796H15.8502V23.5933C15.8465 24.6504 16.2641 25.6654 17.0105 26.4138C17.0899 26.4936 17.1729 26.5347 17.2577 26.6521H3.96255ZM22.836 23.6006C22.836 25.2714 21.4996 26.6521 19.8283 26.6521H19.8187C18.1392 26.6399 16.7856 25.273 16.7895 23.5935V21.329C16.7908 21.066 16.5829 20.8495 16.3198 20.8404H5.05638L5.17723 4.3311C5.17723 3.23888 6.07981 2.34845 7.18946 2.34845H23.7246C23.1894 2.9355 22.836 3.67824 22.836 4.50722V23.6006ZM28.0607 4.50286V8.2189H23.7753V4.5063C23.7753 3.33083 24.7531 2.34845 25.9281 2.34845H25.9412C27.1192 2.36015 28.0662 3.3212 28.0607 4.49942V4.50286Z" fill="white"/>
<path d="M11.0277 12.9684L13.449 14.6238C13.607 14.7327 13.8159 14.7327 13.9739 14.6238L16.3879 12.9689C17.2265 12.3967 17.8459 11.2006 17.8459 10.1864V6.83699C17.8509 6.65996 17.7533 6.49577 17.5955 6.41528L13.9088 4.60187C13.7795 4.53766 13.6277 4.53766 13.4983 4.60187L9.81852 6.41024C9.66075 6.49073 9.56329 6.65492 9.56856 6.83195V10.1864C9.56856 11.2006 10.1893 12.3967 11.0277 12.9684ZM10.5078 7.12501L13.7072 5.54641L16.9066 7.12937V10.1864C16.9066 10.8938 16.4429 11.7936 15.858 12.1924L13.7017 13.6671L11.554 12.1926C10.969 11.7934 10.5078 10.8938 10.5078 10.1864V7.12501Z" fill="white"/>
<path d="M12.9129 10.896C13.0005 10.9854 13.1202 11.0361 13.2454 11.0368H13.2465C13.3713 11.0363 13.4907 10.9863 13.5786 10.8978L15.4468 9.0289C15.6305 8.84545 15.6305 8.5478 15.447 8.36435C15.2638 8.18067 14.9661 8.18067 14.7827 8.36412L13.2481 9.89846L12.6347 9.27909C12.4519 9.09472 12.1545 9.09334 11.9701 9.2761C11.7858 9.45887 11.7846 9.75629 11.9672 9.94066L12.9129 10.896Z" fill="white"/>
<path d="M19.5485 15.9678H8.27725C8.0179 15.9678 7.80762 16.1781 7.80762 16.4374C7.80762 16.6968 8.0179 16.907 8.27725 16.907H19.5485C19.8079 16.907 20.0181 16.6968 20.0181 16.4374C20.0181 16.1781 19.8079 15.9678 19.5485 15.9678Z" fill="white"/>
<path d="M19.5485 18.1396H8.27725C8.0179 18.1396 7.80762 18.3499 7.80762 18.6093C7.80762 18.8686 8.0179 19.0789 8.27725 19.0789H19.5485C19.8079 19.0789 20.0181 18.8686 20.0181 18.6093C20.0181 18.3499 19.8079 18.1396 19.5485 18.1396Z" fill="white"/>
</g>
<defs>
<clipPath id="clip0">
<rect width="29" height="29" fill="white"/>
</clipPath>
</defs>
</svg>
