<svg width="565" height="484" viewBox="0 0 565 484" fill="none" xmlns="http://www.w3.org/2000/svg">
<circle cx="309" cy="279" r="205" fill="#27335B"/>
<circle cx="159" cy="45" r="45" fill="#27335B"/>
<circle cx="28" cy="390" r="28" fill="#323F6B"/>
<circle cx="547" cy="233" r="18" fill="#323F6B"/>
<circle cx="401" cy="391" r="18" fill="#415084"/>
<path d="M145.6 299.4L157.3 311.2H180.7L191.9 300L143.9 252L156.7 239.2H181.3L193.6 251.4L192.4 252.6L180.7 240.8H157.3L146.1 252L194.1 300L181.3 312.8H156.7L144.4 300.6L145.6 299.4ZM215.673 312.8V239.2H265.273V312.8H215.673ZM217.273 311.2H263.673V240.8H217.273V311.2ZM311.945 276.8H288.745V312H287.145V239.2H335.945V240.8H288.745V275.2H311.945V276.8ZM383.418 276.8H360.218V312H358.618V239.2H407.418V240.8H360.218V275.2H383.418V276.8ZM454.091 312V240.8H430.891V239.2H478.891V240.8H455.691V312H454.091Z" fill="#27335B"/>
<path d="M145.6 299.4L147.73 297.288L145.609 295.148L143.479 297.279L145.6 299.4ZM157.3 311.2L155.17 313.312L156.05 314.2H157.3V311.2ZM180.7 311.2V314.2H181.943L182.821 313.321L180.7 311.2ZM191.9 300L194.021 302.121L196.143 300L194.021 297.879L191.9 300ZM143.9 252L141.779 249.879L139.657 252L141.779 254.121L143.9 252ZM156.7 239.2V236.2H155.457L154.579 237.079L156.7 239.2ZM181.3 239.2L183.413 237.07L182.535 236.2H181.3V239.2ZM193.6 251.4L195.721 253.521L197.851 251.391L195.713 249.27L193.6 251.4ZM192.4 252.6L190.27 254.712L192.391 256.852L194.521 254.721L192.4 252.6ZM180.7 240.8L182.83 238.688L181.95 237.8H180.7V240.8ZM157.3 240.8V237.8H156.057L155.179 238.679L157.3 240.8ZM146.1 252L143.979 249.879L141.857 252L143.979 254.121L146.1 252ZM194.1 300L196.221 302.121L198.343 300L196.221 297.879L194.1 300ZM181.3 312.8V315.8H182.543L183.421 314.921L181.3 312.8ZM156.7 312.8L154.587 314.93L155.465 315.8H156.7V312.8ZM144.4 300.6L142.279 298.479L140.149 300.609L142.287 302.73L144.4 300.6ZM143.47 301.512L155.17 313.312L159.43 309.088L147.73 297.288L143.47 301.512ZM157.3 314.2H180.7V308.2H157.3V314.2ZM182.821 313.321L194.021 302.121L189.779 297.879L178.579 309.079L182.821 313.321ZM194.021 297.879L146.021 249.879L141.779 254.121L189.779 302.121L194.021 297.879ZM146.021 254.121L158.821 241.321L154.579 237.079L141.779 249.879L146.021 254.121ZM156.7 242.2H181.3V236.2H156.7V242.2ZM179.187 241.33L191.487 253.53L195.713 249.27L183.413 237.07L179.187 241.33ZM191.479 249.279L190.279 250.479L194.521 254.721L195.721 253.521L191.479 249.279ZM194.53 250.488L182.83 238.688L178.57 242.912L190.27 254.712L194.53 250.488ZM180.7 237.8H157.3V243.8H180.7V237.8ZM155.179 238.679L143.979 249.879L148.221 254.121L159.421 242.921L155.179 238.679ZM143.979 254.121L191.979 302.121L196.221 297.879L148.221 249.879L143.979 254.121ZM191.979 297.879L179.179 310.679L183.421 314.921L196.221 302.121L191.979 297.879ZM181.3 309.8H156.7V315.8H181.3V309.8ZM158.813 310.67L146.513 298.47L142.287 302.73L154.587 314.93L158.813 310.67ZM146.521 302.721L147.721 301.521L143.479 297.279L142.279 298.479L146.521 302.721ZM215.673 312.8H212.673V315.8H215.673V312.8ZM215.673 239.2V236.2H212.673V239.2H215.673ZM265.273 239.2H268.273V236.2H265.273V239.2ZM265.273 312.8V315.8H268.273V312.8H265.273ZM217.273 311.2H214.273V314.2H217.273V311.2ZM263.673 311.2V314.2H266.673V311.2H263.673ZM263.673 240.8H266.673V237.8H263.673V240.8ZM217.273 240.8V237.8H214.273V240.8H217.273ZM218.673 312.8V239.2H212.673V312.8H218.673ZM215.673 242.2H265.273V236.2H215.673V242.2ZM262.273 239.2V312.8H268.273V239.2H262.273ZM265.273 309.8H215.673V315.8H265.273V309.8ZM217.273 314.2H263.673V308.2H217.273V314.2ZM266.673 311.2V240.8H260.673V311.2H266.673ZM263.673 237.8H217.273V243.8H263.673V237.8ZM214.273 240.8V311.2H220.273V240.8H214.273ZM311.945 276.8V279.8H314.945V276.8H311.945ZM288.745 276.8V273.8H285.745V276.8H288.745ZM288.745 312V315H291.745V312H288.745ZM287.145 312H284.145V315H287.145V312ZM287.145 239.2V236.2H284.145V239.2H287.145ZM335.945 239.2H338.945V236.2H335.945V239.2ZM335.945 240.8V243.8H338.945V240.8H335.945ZM288.745 240.8V237.8H285.745V240.8H288.745ZM288.745 275.2H285.745V278.2H288.745V275.2ZM311.945 275.2H314.945V272.2H311.945V275.2ZM311.945 273.8H288.745V279.8H311.945V273.8ZM285.745 276.8V312H291.745V276.8H285.745ZM288.745 309H287.145V315H288.745V309ZM290.145 312V239.2H284.145V312H290.145ZM287.145 242.2H335.945V236.2H287.145V242.2ZM332.945 239.2V240.8H338.945V239.2H332.945ZM335.945 237.8H288.745V243.8H335.945V237.8ZM285.745 240.8V275.2H291.745V240.8H285.745ZM288.745 278.2H311.945V272.2H288.745V278.2ZM308.945 275.2V276.8H314.945V275.2H308.945ZM383.418 276.8V279.8H386.418V276.8H383.418ZM360.218 276.8V273.8H357.218V276.8H360.218ZM360.218 312V315H363.218V312H360.218ZM358.618 312H355.618V315H358.618V312ZM358.618 239.2V236.2H355.618V239.2H358.618ZM407.418 239.2H410.418V236.2H407.418V239.2ZM407.418 240.8V243.8H410.418V240.8H407.418ZM360.218 240.8V237.8H357.218V240.8H360.218ZM360.218 275.2H357.218V278.2H360.218V275.2ZM383.418 275.2H386.418V272.2H383.418V275.2ZM383.418 273.8H360.218V279.8H383.418V273.8ZM357.218 276.8V312H363.218V276.8H357.218ZM360.218 309H358.618V315H360.218V309ZM361.618 312V239.2H355.618V312H361.618ZM358.618 242.2H407.418V236.2H358.618V242.2ZM404.418 239.2V240.8H410.418V239.2H404.418ZM407.418 237.8H360.218V243.8H407.418V237.8ZM357.218 240.8V275.2H363.218V240.8H357.218ZM360.218 278.2H383.418V272.2H360.218V278.2ZM380.418 275.2V276.8H386.418V275.2H380.418ZM454.091 312H451.091V315H454.091V312ZM454.091 240.8H457.091V237.8H454.091V240.8ZM430.891 240.8H427.891V243.8H430.891V240.8ZM430.891 239.2V236.2H427.891V239.2H430.891ZM478.891 239.2H481.891V236.2H478.891V239.2ZM478.891 240.8V243.8H481.891V240.8H478.891ZM455.691 240.8V237.8H452.691V240.8H455.691ZM455.691 312V315H458.691V312H455.691ZM457.091 312V240.8H451.091V312H457.091ZM454.091 237.8H430.891V243.8H454.091V237.8ZM433.891 240.8V239.2H427.891V240.8H433.891ZM430.891 242.2H478.891V236.2H430.891V242.2ZM475.891 239.2V240.8H481.891V239.2H475.891ZM478.891 237.8H455.691V243.8H478.891V237.8ZM452.691 240.8V312H458.691V240.8H452.691ZM455.691 309H454.091V315H455.691V309Z" fill="#99A5CE"/>
</svg>
