<svg width="44" height="44" viewBox="0 0 44 44" fill="none" xmlns="http://www.w3.org/2000/svg">
<g clip-path="url(#clip0)">
<path d="M42.5804 18.4516H41.161C40.3782 18.4516 39.7416 19.0882 39.7416 19.871V21.2903H31.1325L31.816 20.2648L30.6351 19.4778L28.9531 22L30.6351 24.5229L31.816 23.7359L31.1325 22.7097H39.7416V24.129C39.7416 24.9118 40.3782 25.5484 41.161 25.5484H42.5804C43.3631 25.5484 43.9997 24.9118 43.9997 24.129V19.871C43.9997 19.0882 43.3631 18.4516 42.5804 18.4516ZM41.161 24.129V19.871H42.5804L42.5811 24.129H41.161Z" fill="white"/>
<path d="M4.25725 5.67742V14.1935C4.25725 15.7591 5.53041 17.0323 7.09596 17.0323H14.2857L13.6023 18.0577L14.7832 18.8448L16.4651 16.3226L14.7832 13.7997L13.6023 14.5867L14.2857 15.6129H11.6507C13.3014 11.3492 17.3898 8.51613 21.9992 8.51613C26.6085 8.51613 30.6977 11.3492 32.347 15.6129H29.7127L30.3961 14.5874L29.2152 13.8004L27.5332 16.3226L29.2152 18.8455L30.3961 18.0585L29.7127 17.0323H36.9024C38.468 17.0323 39.7411 15.7591 39.7411 14.1935V5.67742C40.5239 5.67742 41.1605 5.04084 41.1605 4.25806V1.41935C41.1605 0.636581 40.5239 0 39.7411 0H38.3218C37.539 0 36.9024 0.636581 36.9024 1.41935V4.25806C36.9024 5.04084 37.539 5.67742 38.3218 5.67742V14.1935C38.3218 14.9763 37.6852 15.6129 36.9024 15.6129H33.8636C32.1412 10.5174 27.3814 7.09677 21.9992 7.09677C16.617 7.09677 11.8572 10.5174 10.1348 15.6129H7.09596C6.31318 15.6129 5.6766 14.9763 5.6766 14.1935V5.67742C6.45937 5.67742 7.09596 5.04084 7.09596 4.25806V1.41935C7.09596 0.636581 6.45937 0 5.6766 0H4.25725C3.47447 0 2.83789 0.636581 2.83789 1.41935V4.25806C2.83789 5.04084 3.47447 5.67742 4.25725 5.67742ZM38.3218 1.41935H39.7411L39.7418 4.25806H38.3218V1.41935ZM4.25725 1.41935H5.6766L5.67731 4.25806H4.25725V1.41935Z" fill="white"/>
<path d="M39.7411 38.3226V29.8065C39.7411 28.2409 38.468 26.9678 36.9024 26.9678H29.7127L30.3961 25.9423L29.2152 25.1553L27.5332 27.6774L29.2152 30.2003L30.3961 29.4133L29.7127 28.3871H32.1603C31.5947 29.2153 30.9234 29.9626 30.1456 30.6105L26.0003 34.0645H25.5476V30.81C25.5476 30.3522 25.7257 29.9222 26.0493 29.5985L25.0458 28.5943C24.454 29.1862 24.1282 29.9725 24.1282 30.81V34.0645H22.7089V29.8065H21.2895V34.0645H19.8701V30.81C19.8701 29.9725 19.5444 29.1862 18.9525 28.5943L17.9491 29.5985C18.2727 29.9222 18.4508 30.3522 18.4508 30.81V34.0645H17.998L13.8535 30.6105C13.0757 29.9626 12.4043 29.2153 11.8387 28.3871H14.2864L13.603 29.4126L14.7839 30.1996L16.4651 27.6774L14.7832 25.1545L13.6023 25.9416L14.2857 26.9678H7.09596C5.53041 26.9678 4.25725 28.2409 4.25725 29.8065V38.3226C3.47447 38.3226 2.83789 38.9592 2.83789 39.742V42.5807C2.83789 43.3634 3.47447 44 4.25725 44H5.6766C6.45937 44 7.09596 43.3634 7.09596 42.5807V39.742C7.09596 38.9592 6.45937 38.3226 5.6766 38.3226V29.8065C5.6766 29.0237 6.31318 28.3871 7.09596 28.3871H10.1724C10.8984 29.6482 11.8224 30.7667 12.9437 31.7006L17.0314 35.1063V38.3226C17.0314 39.3821 17.6219 40.2969 18.4841 40.7845C18.6552 42.5835 20.1569 44 21.9992 44C23.8415 44 25.3432 42.5835 25.5142 40.7845C26.3765 40.2969 26.9669 39.3821 26.9669 38.3226V35.1063L31.0547 31.7006C32.176 30.7667 33.1 29.6482 33.826 28.3871H36.9024C37.6852 28.3871 38.3218 29.0237 38.3218 29.8065V38.3226C37.539 38.3226 36.9024 38.9592 36.9024 39.742V42.5807C36.9024 43.3634 37.539 44 38.3218 44H39.7411C40.5239 44 41.1605 43.3634 41.1605 42.5807V39.742C41.1605 38.9592 40.5239 38.3226 39.7411 38.3226ZM5.6766 42.5807H4.25725L4.25654 39.742H4.25725H5.6766V42.5807ZM25.5476 35.4839V36.9032H18.4508V35.4839H25.5476ZM21.9992 42.5807C21.0752 42.5807 20.2945 41.9852 20.0007 41.1613H23.9969C23.7038 41.9852 22.9232 42.5807 21.9992 42.5807ZM24.1282 39.742H19.8701C19.0874 39.742 18.4508 39.1054 18.4508 38.3226H25.5476C25.5476 39.1054 24.911 39.742 24.1282 39.742ZM39.7411 42.5807H38.3218V39.742H39.7411V42.5807Z" fill="white"/>
<path d="M4.25806 24.129V22.7097H12.8672L12.1837 23.7352L13.3646 24.5222L15.0466 22L13.3646 19.4771L12.1837 20.2641L12.8672 21.2903H4.25806V19.871C4.25806 19.0882 3.62148 18.4516 2.83871 18.4516H1.41935C0.636581 18.4516 0 19.0882 0 19.871V24.129C0 24.9118 0.636581 25.5484 1.41935 25.5484H2.83871C3.62148 25.5484 4.25806 24.9118 4.25806 24.129ZM1.41935 19.871H2.83871V24.129H1.41935V19.871Z" fill="white"/>
<path d="M28.3875 19.871H27.1399L28.0227 18.9889L25.0108 15.977L24.1294 16.8598V15.6129H19.8713V16.8605L18.9899 15.9777L15.9781 18.9896L16.8609 19.871H15.6133V24.1291H16.8609L15.9781 25.0112L18.9899 28.0231L19.8713 27.1402V28.3871H24.1294V27.1395L25.0108 28.0223L28.0227 25.0105L27.1399 24.1291H28.3875V19.871ZM26.9681 22.7203C26.4635 22.7807 26.0271 23.1071 25.8291 23.5861C25.6311 24.0645 25.7084 24.6038 26.0221 25.0041L25.0037 26.0225C24.6042 25.7088 24.0663 25.6314 23.5858 25.8294C23.1075 26.0274 22.781 26.4639 22.72 26.9685H21.2801C21.219 26.4639 20.8926 26.0274 20.4143 25.8294C19.9352 25.6314 19.3973 25.7088 18.9963 26.0225L17.9779 25.0041C18.2916 24.6045 18.3697 24.0652 18.171 23.5861C17.9737 23.1071 17.5372 22.7807 17.0326 22.7203V21.2804C17.5372 21.2201 17.9737 20.8936 18.1717 20.4146C18.3697 19.9363 18.2923 19.3969 17.9786 18.9967L18.997 17.9783C19.3966 18.2919 19.9359 18.3707 20.415 18.1713C20.8933 17.9733 21.2197 17.5369 21.2808 17.0323H22.7207C22.7817 17.5369 23.1082 17.9733 23.5865 18.1713C24.0648 18.3686 24.6028 18.2919 25.0044 17.9783L26.0228 18.9967C25.7092 19.3962 25.6311 19.9356 25.8298 20.4146C26.0278 20.8936 26.465 21.2201 26.9688 21.2804V22.7203H26.9681Z" fill="white"/>
<path d="M21.9996 18.4516C20.043 18.4516 18.4512 20.0434 18.4512 22C18.4512 23.9566 20.043 25.5484 21.9996 25.5484C23.9561 25.5484 25.548 23.9566 25.548 22C25.548 20.0434 23.9561 18.4516 21.9996 18.4516ZM21.9996 24.129C20.8258 24.129 19.8705 23.1738 19.8705 22C19.8705 20.8262 20.8258 19.871 21.9996 19.871C23.1734 19.871 24.1286 20.8262 24.1286 22C24.1286 23.1738 23.1734 24.129 21.9996 24.129Z" fill="white"/>
</g>
<defs>
<clipPath id="clip0">
<rect width="44" height="44" fill="white"/>
</clipPath>
</defs>
</svg>
