<svg width="44" height="44" viewBox="0 0 44 44" fill="none" xmlns="http://www.w3.org/2000/svg">
<path d="M17.0319 35.4839C17.4239 35.4839 17.7416 35.1661 17.7416 34.7742C17.7416 34.3822 17.4239 34.0645 17.0319 34.0645C16.64 34.0645 16.3223 34.3822 16.3223 34.7742C16.3223 35.1661 16.64 35.4839 17.0319 35.4839Z" fill="white"/>
<path d="M19.8718 35.4839C20.2637 35.4839 20.5815 35.1661 20.5815 34.7742C20.5815 34.3822 20.2637 34.0645 19.8718 34.0645C19.4798 34.0645 19.1621 34.3822 19.1621 34.7742C19.1621 35.1661 19.4798 35.4839 19.8718 35.4839Z" fill="white"/>
<path d="M9.22499 14.1935C5.70357 14.1935 2.83789 17.0592 2.83789 20.5806C2.83789 24.1021 5.70357 26.9677 9.22499 26.9677C12.7464 26.9677 15.6121 24.1021 15.6121 20.5806C15.6121 17.0592 12.7464 14.1935 9.22499 14.1935ZM12.7017 19.871C12.6094 19.4189 12.4292 18.9988 12.1822 18.6269L13.1978 17.6114C13.6846 18.2607 14.0146 19.0314 14.136 19.871H12.7017ZM9.22499 22.7097C8.05118 22.7097 7.09596 21.7545 7.09596 20.5806C7.09596 19.4068 8.05118 18.4516 9.22499 18.4516C10.3988 18.4516 11.354 19.4068 11.354 20.5806C11.354 21.7545 10.3988 22.7097 9.22499 22.7097ZM11.1787 17.6234C10.8069 17.3764 10.3867 17.1962 9.93467 17.1039V15.6697C10.7742 15.7903 11.5449 16.121 12.1943 16.6079L11.1787 17.6234ZM8.51531 15.6697V17.1039C7.12718 17.3871 6.03144 18.4828 5.74828 19.871H4.31402C4.62628 17.7001 6.34441 15.9819 8.51531 15.6697ZM4.31402 21.2903H5.74828C6.03144 22.6785 7.12718 23.7742 8.51531 24.0574V25.4916C6.34441 25.1794 4.62628 23.4612 4.31402 21.2903ZM9.93467 25.4916V24.0574C11.3228 23.7742 12.4185 22.6785 12.7017 21.2903H14.136C13.8237 23.4612 12.1056 25.1794 9.93467 25.4916Z" fill="white"/>
<path d="M8.51562 28.3871H9.93498V29.8064H8.51562V28.3871Z" fill="white"/>
<path d="M11.3555 28.3871H12.7748V29.8064H11.3555V28.3871Z" fill="white"/>
<path d="M5.67773 28.3871H7.09709V29.8064H5.67773V28.3871Z" fill="white"/>
<path d="M14.1934 28.3871H15.6127V29.8064H14.1934V28.3871Z" fill="white"/>
<path d="M2.83789 28.3871H4.25725V29.8064H2.83789V28.3871Z" fill="white"/>
<path d="M4.96774 9.93548C7.7071 9.93548 9.93548 7.7071 9.93548 4.96774C9.93548 2.22839 7.7071 0 4.96774 0C2.22839 0 0 2.22839 0 4.96774C0 7.7071 2.22839 9.93548 4.96774 9.93548ZM5.67742 8.44445V5.26155L7.92497 3.014C8.29684 3.57535 8.51613 4.246 8.51613 4.96774C8.51613 6.6809 7.29477 8.11445 5.67742 8.44445ZM6.92148 2.01052L4.96774 3.96426L3.014 2.01052C3.57535 1.63865 4.246 1.41935 4.96774 1.41935C5.68948 1.41935 6.36013 1.63865 6.92148 2.01052ZM2.01052 3.014L4.25806 5.26155V8.44445C2.64071 8.11445 1.41935 6.6809 1.41935 4.96774C1.41935 4.246 1.63865 3.57535 2.01052 3.014Z" fill="white"/>
<path d="M16.3232 9.93548C19.0626 9.93548 21.291 7.7071 21.291 4.96774C21.291 2.22839 19.0626 0 16.3232 0C13.5839 0 11.3555 2.22839 11.3555 4.96774C11.3555 7.7071 13.5839 9.93548 16.3232 9.93548ZM12.8465 5.67742H16.0294L18.277 7.92497C17.7156 8.29684 17.045 8.51613 16.3232 8.51613C14.61 8.51613 13.1765 7.29477 12.8465 5.67742ZM19.2804 6.92148L17.3267 4.96774L19.2804 3.014C19.6523 3.57535 19.8716 4.246 19.8716 4.96774C19.8716 5.68948 19.6523 6.36013 19.2804 6.92148ZM16.3232 1.41935C17.045 1.41935 17.7156 1.63865 18.277 2.01052L16.0294 4.25806H12.8465C13.1765 2.64071 14.61 1.41935 16.3232 1.41935Z" fill="white"/>
<path d="M27.6776 9.93339C28.9494 9.93339 30.2218 9.44939 31.1905 8.48068C33.1272 6.54397 33.1272 3.39229 31.1905 1.45558C29.2538 -0.481126 26.1021 -0.481126 24.1654 1.45558C22.2287 3.39229 22.2287 6.54397 24.1654 8.48068C25.1334 9.44868 26.4059 9.93339 27.6776 9.93339ZM25.721 7.92784L27.9714 5.67745H31.1501C31.0167 6.33674 30.6973 6.96623 30.187 7.4772C28.9756 8.68861 27.0978 8.83836 25.721 7.92784ZM31.1501 4.2581H28.3873V1.49533C29.0473 1.62875 29.6761 1.9481 30.187 2.45836C30.6973 2.96933 31.0167 3.59881 31.1501 4.2581ZM25.1682 2.45836C25.6792 1.9481 26.3079 1.62875 26.9679 1.49533V4.67397L24.7176 6.92436C23.807 5.54758 23.9568 3.67049 25.1682 2.45836Z" fill="white"/>
<path d="M37.9302 21.2662L38.9606 20.2357L37.9571 19.2322L36.9267 20.2627C35.7436 19.2755 34.2647 18.6347 32.6445 18.4878V17.0322H31.2251V18.4878C29.6049 18.6347 28.1267 19.2762 26.9429 20.2627L25.9125 19.2322L24.909 20.2357L25.9394 21.2662C24.9523 22.4492 24.3114 23.9282 24.1645 25.5484H22.709V26.9677H24.1645C24.3114 28.5879 24.953 30.0662 25.9394 31.2499L24.909 32.2804L25.9125 33.2838L26.9429 32.2534C28.126 33.2406 29.6049 33.8814 31.2251 34.0283V35.4838H32.6445V34.0283C34.2647 33.8814 35.7429 33.2398 36.9267 32.2534L37.9571 33.2838L38.9606 32.2804L37.9302 31.2499C38.9173 30.0669 39.5582 28.5879 39.7051 26.9677H41.1606V25.5484H39.7051C39.5582 23.9282 38.9173 22.4499 37.9302 21.2662ZM31.9348 32.6451C28.4134 32.6451 25.5477 29.7795 25.5477 26.258C25.5477 22.7366 28.4134 19.8709 31.9348 19.8709C35.4562 19.8709 38.3219 22.7366 38.3219 26.258C38.3219 29.7795 35.4562 32.6451 31.9348 32.6451Z" fill="white"/>
<path d="M31.9365 21.2903C29.1971 21.2903 26.9688 23.5187 26.9688 26.2581C26.9688 28.9974 29.1971 31.2258 31.9365 31.2258C34.6758 31.2258 36.9042 28.9974 36.9042 26.2581C36.9042 23.5187 34.6758 21.2903 31.9365 21.2903ZM31.9365 29.8065C29.9799 29.8065 28.3881 28.2147 28.3881 26.2581C28.3881 24.3015 29.9799 22.7097 31.9365 22.7097C33.8931 22.7097 35.4849 24.3015 35.4849 26.2581C35.4849 28.2147 33.8931 29.8065 31.9365 29.8065Z" fill="white"/>
<path d="M31.9357 24.129C30.7619 24.129 29.8066 25.0843 29.8066 26.2581C29.8066 27.4319 30.7619 28.3871 31.9357 28.3871C33.1095 28.3871 34.0647 27.4319 34.0647 26.2581C34.0647 25.0843 33.1095 24.129 31.9357 24.129ZM31.9357 26.9677C31.5446 26.9677 31.226 26.6491 31.226 26.2581C31.226 25.867 31.5446 25.5484 31.9357 25.5484C32.3267 25.5484 32.6453 25.867 32.6453 26.2581C32.6453 26.6491 32.3267 26.9677 31.9357 26.9677Z" fill="white"/>
<path d="M42.8652 23.2476C42.3791 23.0922 41.9803 22.7083 41.7603 22.1725C41.5488 21.6608 41.5608 21.1087 41.7929 20.658L42.3379 19.5985L39.7419 17.0025V14.9032C39.7419 12.9467 38.1501 11.3549 36.1935 11.3549H3.54839C1.59181 11.3549 0 12.9467 0 14.9032V34.7742C0 36.7308 1.59181 38.3226 3.54839 38.3226H14.9032V39.742H9.22581C8.44303 39.742 7.80645 40.3785 7.80645 41.1613V42.5807C7.80645 43.3634 8.44303 44 9.22581 44H30.5161C31.2989 44 31.9355 43.3634 31.9355 42.5807V41.1613C31.9355 40.3785 31.2989 39.742 30.5161 39.742H24.8387V38.3226H29.2891H30.5161H34.5819L34.9459 37.1878C35.1014 36.7017 35.4853 36.3029 36.0211 36.0829C36.5328 35.8714 37.0849 35.8834 37.5355 36.1155L38.5951 36.6605L42.3379 32.9177L41.7929 31.8582C41.5608 31.4068 41.5488 30.8547 41.7695 30.3203C41.9795 29.8072 42.3791 29.424 42.8645 29.2685L44 28.9045V23.611L42.8652 23.2476ZM1.41935 34.7742V32.6452H20.5806V31.2258H1.41935V14.9032C1.41935 13.7294 2.37458 12.7742 3.54839 12.7742H36.1935C37.3674 12.7742 38.3226 13.7294 38.3226 14.9032V15.9954L37.5355 16.4007C37.0849 16.6334 36.5328 16.6455 35.9984 16.4241C35.4853 16.214 35.1021 15.8145 34.9466 15.3291L34.5819 14.1936H29.2884L28.9243 15.3283C28.7689 15.8145 28.385 16.2133 27.8492 16.4333C27.3375 16.6448 26.7846 16.6334 26.3347 16.4007L25.2752 15.8556L21.5323 19.5985L22.0774 20.658C22.3094 21.1087 22.3215 21.6608 22.1008 22.1952C21.8907 22.7083 21.4912 23.0915 21.0057 23.2469L19.871 23.6117V28.9052L21.0057 29.2692C21.4919 29.4247 21.8907 29.8086 22.1107 30.3444C22.3222 30.8561 22.3101 31.4082 22.0781 31.8589L21.533 32.9184L25.2759 36.6612L26.3354 36.1162C26.7861 35.8842 27.3396 35.8721 27.8726 36.0928C28.2799 36.2603 28.6 36.5491 28.7952 36.904H3.54839C2.37458 36.9032 1.41935 35.948 1.41935 34.7742ZM30.5168 42.5807H9.22581V41.1613H30.5161L30.5168 42.5807ZM23.4194 39.742H16.3226V38.3226H23.4194V39.742ZM42.5806 27.8698L42.4323 27.9173C41.5466 28.2005 40.827 28.8803 40.4488 29.8015C40.0783 30.6985 40.1081 31.685 40.5311 32.5075L40.6021 32.6459L38.3233 34.9247L38.1856 34.8537C37.3624 34.4293 36.3759 34.4002 35.459 34.7792C34.5577 35.1489 33.8779 35.8692 33.5947 36.7549L33.5472 36.9032H30.5161H30.3238L30.2763 36.7549C29.9931 35.8692 29.3132 35.1496 28.3921 34.7714C27.495 34.4009 26.5079 34.4307 25.6861 34.8537L25.5477 34.9247L23.2689 32.6459L23.3399 32.5075C23.7635 31.685 23.7934 30.6985 23.4144 29.7816C23.0446 28.8803 22.3243 28.2005 21.4386 27.9173L21.2903 27.8698V24.6471L21.4386 24.5996C22.3243 24.3164 23.0439 23.6365 23.4222 22.7154C23.7934 21.8176 23.7628 20.8312 23.3399 20.0094L23.2689 19.871L25.5477 17.5922L25.6854 17.6632C26.5072 18.0869 27.4936 18.116 28.4119 17.7377C29.3132 17.368 29.9931 16.6476 30.2763 15.762L30.3238 15.6129H33.5465L33.594 15.7612C33.8772 16.6469 34.557 17.3665 35.4782 17.7448C36.3752 18.1152 37.3624 18.0854 38.1842 17.6625L38.3226 17.5915L40.6014 19.8703L40.5304 20.008C40.1067 20.8305 40.0769 21.8169 40.4559 22.7345C40.8256 23.6358 41.5459 24.3157 42.4316 24.5989L42.5806 24.6464V27.8698Z" fill="white"/>
</svg>
