<svg width="47" height="47" viewBox="0 0 47 47" fill="none" xmlns="http://www.w3.org/2000/svg">
<path d="M3.2349 11.1929C3.14153 10.1339 3.20319 9.06761 3.4181 8.02653C3.70552 6.73002 4.2701 5.65371 5.09569 4.82842C6.25244 3.67078 7.87924 3.03633 9.9247 2.94238C10.9156 2.90509 11.9076 2.97291 12.8838 3.14408L13.1439 1.66525C12.0609 1.4753 10.9605 1.40043 9.86187 1.44242C7.42446 1.55486 5.46356 2.3367 4.03435 3.76708C3.00208 4.79906 2.30098 6.12434 1.95131 7.70768C1.95072 7.71062 1.94984 7.71385 1.94925 7.71679C1.70322 8.9029 1.63305 10.1184 1.73963 11.3247L3.2349 11.1929Z" fill="white"/>
<path d="M6.52672 21.0022C6.07459 20.1772 5.66003 19.3481 5.29422 18.5372L3.92578 19.1546C4.30745 20.0004 4.73962 20.8651 5.21054 21.7238L6.52672 21.0022Z" fill="white"/>
<path d="M2.17578 14.0936C2.36397 14.8978 2.59268 15.6922 2.86103 16.4735L4.28172 15.9882C4.02982 15.2548 3.81462 14.5094 3.63817 13.7548L2.17578 14.0936Z" fill="white"/>
<path d="M12.3891 29.2694C12.3236 29.1946 12.2584 29.1203 12.1935 29.0454L11.0605 30.0298C11.1269 30.1065 11.1935 30.1831 11.2611 30.2597C11.6422 30.6936 12.0388 31.1311 12.4401 31.5603C12.6201 31.7523 12.8018 31.944 12.9856 32.1349L14.0675 31.0941C13.8884 30.9083 13.7114 30.7218 13.5367 30.5348C13.1456 30.117 12.7599 29.691 12.3891 29.2694Z" fill="white"/>
<path d="M9.24793 27.824L10.4329 26.9028C10.3239 26.7624 10.2162 26.6221 10.1093 26.4812C9.65221 25.8799 9.20976 25.2695 8.79462 24.6674L7.55859 25.5194C7.98724 26.1409 8.44319 26.7701 8.91411 27.3892C9.02392 27.5346 9.13548 27.6793 9.24793 27.824Z" fill="white"/>
<path d="M14.2637 33.4203C15.682 34.8043 17.1743 36.1102 18.7342 37.3318C20.8498 38.9968 23.1079 40.4724 25.4824 41.7407C26.8694 42.4791 28.3068 43.1185 29.7836 43.6546L28.4125 44.0471L28.8253 45.4904L32.6637 44.3921C33.0621 44.2782 33.2926 43.8625 33.1787 43.4638L32.1784 39.9677L30.7348 40.3805L31.3707 42.6015C29.5783 42.0343 27.8429 41.3023 26.1865 40.4148C23.8903 39.1882 21.7068 37.7613 19.6614 36.1513C18.1438 34.9628 16.6917 33.6924 15.3118 32.3463L14.2637 33.4203Z" fill="white"/>
<path d="M45.0162 33.6657C44.7097 31.7509 44.0764 29.691 43.1337 27.5434L41.7591 28.1467C42.6504 30.1775 43.2473 32.1146 43.5335 33.9026C44.0708 37.2596 43.4807 39.9075 41.8275 41.5613C41.0086 42.3801 39.9438 42.9415 38.6622 43.2304C37.6261 43.4635 36.4515 43.519 35.1699 43.3962C34.854 43.366 34.5281 43.324 34.2011 43.2723L33.9668 44.755C34.3232 44.8114 34.6799 44.8569 35.0267 44.8903C35.5149 44.937 35.9905 44.9605 36.4535 44.9605C37.307 44.9658 38.1584 44.8762 38.9922 44.6945C40.5553 44.3419 41.8662 43.6449 42.8888 42.6223C44.8967 40.6144 45.6321 37.5176 45.0162 33.6657Z" fill="white"/>
<path d="M41.3784 24.0673L40.0742 24.8106C40.4356 25.4448 40.7765 26.0837 41.0874 26.7093L42.4321 26.042C42.1088 25.3902 41.7545 24.7261 41.3784 24.0673Z" fill="white"/>
<path d="M37.8937 18.8492L36.7012 19.7611C37.2608 20.4931 37.8068 21.2491 38.325 22.0092L39.5658 21.1639C39.032 20.3812 38.4695 19.6023 37.8937 18.8492Z" fill="white"/>
<path d="M34.1831 14.5108L33.0977 15.5472C33.733 16.2128 34.3586 16.9053 34.957 17.605L36.0979 16.6294C35.4816 15.9092 34.8375 15.1963 34.1831 14.5108Z" fill="white"/>
<path d="M15.5815 6.70977L17.0495 6.39592L16.5648 4.1285C17.9423 4.61704 19.2828 5.20569 20.575 5.88888C22.8412 7.08557 24.9985 8.47778 27.0217 10.0509C27.9755 10.7869 28.9365 11.5858 29.8774 12.4245C30.3992 12.8905 30.9247 13.3784 31.4391 13.8752C31.6619 14.0904 31.8894 14.3144 32.1161 14.5405L33.1774 13.4791C32.9449 13.2469 32.7112 13.0167 32.4816 12.7954C31.9537 12.2851 31.4138 11.7836 30.8774 11.3042C29.9097 10.4419 28.9212 9.62015 27.9415 8.86415C26.9873 8.12224 25.9994 7.41938 24.9859 6.7541C25.5616 6.42939 26.14 6.122 26.7063 5.84044L26.0384 4.49608C25.3649 4.83019 24.6773 5.19835 23.995 5.58942L24.4718 6.42146C23.4307 5.75823 22.3659 5.13846 21.2766 4.56155C20.3063 4.04923 19.3107 3.588 18.2929 3.17873L19.6155 2.8963L19.3025 1.42804L15.3986 2.26243C14.9932 2.34904 14.7348 2.74774 14.8214 3.15319L15.5815 6.70977Z" fill="white"/>
<path d="M1.66173 33.7831C1.47178 34.8662 1.39691 35.9666 1.43919 37.0652C1.55105 39.5023 2.33289 41.4629 3.76356 42.893C4.79554 43.9253 6.1217 44.6258 7.70417 44.9752C7.7071 44.9755 7.71033 44.9764 7.71385 44.977C8.5412 45.1487 9.38469 45.2353 10.2302 45.2353C10.594 45.2353 10.9578 45.2195 11.3212 45.1875L11.1894 43.6916C10.1304 43.7856 9.06379 43.7236 8.02301 43.5081C6.72621 43.2216 5.65019 42.6576 4.8249 41.8317C3.66756 40.6744 3.03281 39.0473 2.93886 37.0024C2.90158 36.0112 2.96881 35.0195 3.14056 34.0427L1.66173 33.7831Z" fill="white"/>
<path d="M19.1506 43.0005C19.9971 42.6191 20.8614 42.1864 21.7196 41.716L20.9985 40.3998C20.1738 40.8517 19.3444 41.2665 18.5332 41.632L19.1506 43.0005Z" fill="white"/>
<path d="M14.0888 44.7509C14.8933 44.5627 15.6877 44.334 16.4687 44.0656L15.9834 42.6447C15.2503 42.8968 14.5048 43.1115 13.75 43.2885L14.0888 44.7509Z" fill="white"/>
<path d="M29.043 34.7326L30.0268 35.8665C30.1037 35.8001 30.1803 35.7332 30.2573 35.6656C30.6915 35.284 31.1292 34.8867 31.5579 34.4866C31.7499 34.3066 31.9416 34.1249 32.1327 33.9408L31.0916 32.8592C30.9058 33.0386 30.7194 33.215 30.5321 33.39C30.1149 33.7802 29.6892 34.1663 29.2664 34.5374C29.1921 34.6028 29.1178 34.668 29.043 34.7326Z" fill="white"/>
<path d="M24.6641 38.1324L25.5161 39.3687C26.1376 38.9407 26.7668 38.4844 27.3863 38.0135C27.5313 37.9034 27.6761 37.7921 27.8208 37.6797L26.8995 36.4941C26.7594 36.6031 26.6188 36.7111 26.4782 36.8183C25.8766 37.2754 25.2668 37.7176 24.6641 38.1324Z" fill="white"/>
<path d="M33.8983 3.3928C37.2549 2.85612 39.9031 3.44594 41.5569 5.09946C42.3752 5.9177 42.9368 6.98285 43.226 8.26439C43.4588 9.30077 43.5149 10.4757 43.3916 11.757C43.3616 12.0723 43.3202 12.3979 43.268 12.7255L44.7506 12.9601C44.807 12.6025 44.8525 12.2458 44.886 11.9002C45.024 10.4608 44.9582 9.12667 44.6902 7.93468C44.3378 6.37159 43.6409 5.06012 42.6183 4.03753C40.6101 2.02965 37.5124 1.29391 33.6613 1.91045C31.7474 2.21667 29.687 2.85024 27.5391 3.79268L28.1424 5.16757C30.1732 4.27622 32.1097 3.67906 33.8983 3.3928Z" fill="white"/>
<path d="M17.6 11.9709L16.6241 10.8303C15.904 11.4466 15.1914 12.0907 14.5059 12.7443L15.5425 13.8303C16.2084 13.1946 16.901 12.569 17.6 11.9709Z" fill="white"/>
<path d="M22.0059 8.60284L21.1601 7.36212C20.3774 7.89617 19.5985 8.45869 18.8457 9.03413L19.7576 10.2267C20.4886 9.66741 21.2452 9.12104 22.0059 8.60284Z" fill="white"/>
<path d="M44.3882 14.2645C44.2743 13.8658 43.8586 13.6353 43.4602 13.7492L39.9638 14.7498L40.3765 16.1931L42.5979 15.5574C42.0304 17.3495 41.2981 19.0852 40.4106 20.7417C39.184 23.0379 37.7571 25.2213 36.1471 27.2668C34.9583 28.7844 33.6882 30.2362 32.3418 31.6161L33.4161 32.6645C34.8 31.2461 36.1057 29.7538 37.3276 28.194C38.9926 26.0786 40.4682 23.8203 41.7365 21.4457C42.4746 20.0585 43.1143 18.6217 43.6504 17.1446L44.0429 18.5157L45.4862 18.1029L44.3882 14.2645Z" fill="white"/>
<path d="M2.9922 32.1235C3.04475 32.1235 3.0976 32.1179 3.14957 32.1064L6.70556 31.3466L6.39171 29.8784L4.12459 30.3634C4.61313 28.9855 5.20149 27.6453 5.88497 26.3532C7.08107 24.0867 8.47387 21.9293 10.0466 19.9062C10.7824 18.9526 11.5813 17.9917 12.4203 17.0504C12.8863 16.5284 13.3742 16.0032 13.871 15.4891C14.0885 15.2639 14.3123 15.0361 14.5366 14.8118L13.4752 13.7504C13.245 13.9806 13.0149 14.2143 12.7914 14.4459C12.2809 14.9744 11.7794 15.514 11.3 16.051C10.4368 17.0184 9.61565 18.0072 8.85995 18.9867C7.23403 21.0788 5.79425 23.3083 4.55764 25.6515C4.04502 26.6212 3.5835 27.6171 3.17482 28.6353L2.89209 27.3118L1.42383 27.6253L2.25822 31.5292C2.3322 31.8757 2.63813 32.1229 2.9922 32.1235Z" fill="white"/>
<path d="M16.9824 17.5119V29.4195C16.9824 30.0548 17.3388 30.9494 19.1462 31.6032C20.3165 32.0266 21.8464 32.26 23.4711 32.26H23.5292C24.4679 32.26 25.4044 32.1743 26.3275 32.0043C28.6674 31.5554 30.0241 30.6132 30.0241 29.4195V17.5119C30.0241 16.8763 29.6269 15.9823 27.8192 15.3279C26.6487 14.9045 25.0982 14.6711 23.4714 14.6711C21.844 14.6711 20.3212 14.9045 19.1506 15.3279C17.3432 15.982 16.9824 16.8763 16.9824 17.5119ZM26.0465 30.529C25.1971 30.6863 24.3352 30.7633 23.4717 30.7589C22.0134 30.7589 20.672 30.5572 19.6615 30.1919C18.6729 29.834 18.4836 29.4753 18.4836 29.4195V27.3244C18.697 27.4374 18.9187 27.5349 19.1462 27.6156C20.3165 28.0393 21.8464 28.2724 23.4741 28.2724C25.102 28.2724 26.6551 28.0393 27.8254 27.6156C28.082 27.5229 28.2414 27.4251 28.523 27.3238V29.4192C28.523 29.5601 27.9152 30.1705 26.0465 30.529ZM28.523 25.4316C28.523 25.488 28.2972 25.8465 27.309 26.2043C26.2981 26.5702 24.9297 26.7713 23.4714 26.7713C22.0134 26.7713 20.672 26.5702 19.6615 26.2043C18.6729 25.8465 18.4836 25.4877 18.4836 25.4316V23.3641C18.697 23.4775 18.9187 23.5749 19.1462 23.6557C20.3165 24.0793 21.8464 24.3124 23.4741 24.3124C25.102 24.3124 26.6551 24.0793 27.8254 23.6557C28.082 23.5629 28.2414 23.4651 28.523 23.3641V25.4316ZM27.309 22.2441C26.2981 22.6099 24.9297 22.811 23.4714 22.811C22.0134 22.811 20.672 22.6099 19.6615 22.2441C18.6729 21.8865 18.4836 21.5277 18.4836 21.4719V19.4039C18.6973 19.5169 18.9187 19.6144 19.1462 19.6954C20.3168 20.1191 21.8467 20.3522 23.4741 20.3522C25.1014 20.3522 26.6548 20.1188 27.8254 19.6954C28.082 19.6023 28.2414 19.5046 28.523 19.4039V21.4719C28.523 21.5277 28.2972 21.8865 27.309 22.2441ZM19.6342 16.7395C20.645 16.3734 22.0046 16.1723 23.4623 16.1723C24.9197 16.1723 26.2796 16.3734 27.2905 16.7395C28.2784 17.0974 28.4866 17.4559 28.4866 17.5119C28.4866 17.5674 28.2784 17.9259 27.2905 18.2838C26.2796 18.6499 24.9197 18.851 23.4623 18.851C22.0046 18.851 20.645 18.6493 19.6342 18.2838C18.6456 17.9259 18.4378 17.5674 18.4378 17.5119C18.4378 17.4559 18.6459 17.0974 19.6344 16.7395H19.6342Z" fill="white"/>
</svg>
