<svg width="52" height="52" viewBox="0 0 52 52" fill="none" xmlns="http://www.w3.org/2000/svg">
<path d="M46.6635 30.2092C46.6635 29.7886 46.3226 29.4475 45.9018 29.4475H39.0762C38.6554 29.4475 38.3145 29.7886 38.3145 30.2092V34.5485C38.3145 34.9692 38.6554 35.3102 39.0762 35.3102H45.9018C46.3226 35.3102 46.6635 34.9692 46.6635 34.5485V30.2092ZM45.1401 33.7868H39.8379V30.9709H45.1401V33.7868Z" fill="white"/>
<path d="M45.9018 38.5706H39.0762C38.6554 38.5706 38.3145 38.9116 38.3145 39.3323V43.6686C38.3145 44.0893 38.6554 44.4303 39.0762 44.4303H45.9018C46.3226 44.4303 46.6635 44.0893 46.6635 43.6686V39.3323C46.6635 38.9116 46.3225 38.5706 45.9018 38.5706ZM45.1401 42.9069H39.8379V40.094H45.1401V42.9069Z" fill="white"/>
<path d="M52 14.8763C52 13.4167 50.8107 12.2293 49.3488 12.2293H36.3782V8.62093C37.813 8.58965 38.9707 7.41539 38.9707 5.97554C38.9707 4.51598 37.7815 3.32861 36.3196 3.32861H15.3939C13.932 3.32861 12.7427 4.51598 12.7427 5.97554C12.7427 7.43509 13.932 8.62246 15.3939 8.62246H15.6218V12.2293H2.65119C1.1893 12.2293 0 13.4167 0 14.8763C0 16.0653 0.789242 17.0734 1.8721 17.4064V47.9098C1.8721 48.3304 2.21305 48.6715 2.63382 48.6715H49.3663C49.7871 48.6715 50.128 48.3304 50.128 47.9098V33.616C50.128 33.1953 49.7871 32.8543 49.3663 32.8543C48.9455 32.8543 48.6046 33.1953 48.6046 33.616V47.148H36.3782V17.5232H48.6046V30.088C48.6046 30.5087 48.9455 30.8497 49.3663 30.8497C49.7871 30.8497 50.128 30.5087 50.128 30.088V17.4064C51.2108 17.0734 52 16.0652 52 14.8763ZM14.2663 5.97554C14.2663 5.356 14.7722 4.85205 15.394 4.85205H36.3197C36.9414 4.85205 37.4474 5.356 37.4474 5.97554C37.4474 6.59507 36.9415 7.09902 36.3197 7.09902H15.3939C14.7722 7.09902 14.2663 6.59507 14.2663 5.97554ZM1.52344 14.8763C1.52344 14.2567 2.02932 13.7528 2.65119 13.7528H15.6219V15.9999H2.65119C2.02932 15.9998 1.52344 15.4958 1.52344 14.8763ZM3.39554 17.5232H15.6219V47.148H3.39554V17.5232ZM17.1453 8.62246H34.8546V47.1481H32.3475V36.3067C32.3475 35.886 32.0065 35.5449 31.5857 35.5449H20.4142C19.9934 35.5449 19.6524 35.886 19.6524 36.3067V47.148H17.1453V8.62246ZM26.7602 37.0684H30.8241V47.148H26.7602V37.0684ZM25.2368 47.1481H21.1759V37.0685H25.2368V47.1481ZM49.3488 15.9998H36.3782V13.7527H49.3489C49.9707 13.7527 50.4767 14.2566 50.4767 14.8762C50.4766 15.4958 49.9707 15.9998 49.3488 15.9998Z" fill="white"/>
<path d="M12.9204 20.3274H6.09766C5.67688 20.3274 5.33594 20.6684 5.33594 21.0891V25.4284C5.33594 25.849 5.67688 26.1901 6.09766 26.1901H12.9204C13.3412 26.1901 13.6821 25.849 13.6821 25.4284V21.0891C13.6821 20.6684 13.3411 20.3274 12.9204 20.3274ZM12.1587 24.6666H6.85938V21.8508H12.1587V24.6666Z" fill="white"/>
<path d="M12.9204 29.4475H6.09766C5.67688 29.4475 5.33594 29.7886 5.33594 30.2092V34.5485C5.33594 34.9692 5.67688 35.3102 6.09766 35.3102H12.9204C13.3412 35.3102 13.6821 34.9692 13.6821 34.5485V30.2092C13.6821 29.7886 13.3411 29.4475 12.9204 29.4475ZM12.1587 33.7868H6.85938V30.9709H12.1587V33.7868Z" fill="white"/>
<path d="M12.9204 38.5706H6.09766C5.67688 38.5706 5.33594 38.9116 5.33594 39.3323V43.6686C5.33594 44.0893 5.67688 44.4303 6.09766 44.4303H12.9204C13.3412 44.4303 13.6821 44.0893 13.6821 43.6686V39.3323C13.6821 38.9116 13.3411 38.5706 12.9204 38.5706ZM12.1587 42.9069H6.85938V40.094H12.1587V42.9069Z" fill="white"/>
<path d="M46.6635 21.0891C46.6635 20.6684 46.3226 20.3274 45.9018 20.3274H39.0762C38.6554 20.3274 38.3145 20.6684 38.3145 21.0891V25.4284C38.3145 25.849 38.6554 26.1901 39.0762 26.1901H45.9018C46.3226 26.1901 46.6635 25.849 46.6635 25.4284V21.0891ZM45.1401 24.6666H39.8379V21.8508H45.1401V24.6666Z" fill="white"/>
<path d="M21.2417 20.7278H23.3879V22.8704C23.3879 23.4401 23.8516 23.9035 24.4216 23.9035H27.5756C28.1472 23.9035 28.6121 23.4401 28.6121 22.8704V20.7278H30.7583C31.3299 20.7278 31.795 20.2644 31.795 19.6947V16.5479C31.795 15.9766 31.3299 15.5118 30.7583 15.5118H28.6121V13.3721C28.6121 12.8008 28.1472 12.3362 27.5756 12.3362H24.4216C23.8517 12.3362 23.3879 12.8009 23.3879 13.3721V15.5118H21.2417C20.6701 15.5118 20.2051 15.9766 20.2051 16.5479V19.6947C20.2051 20.2644 20.6701 20.7278 21.2417 20.7278ZM21.7285 17.0353H24.1497C24.5704 17.0353 24.9114 16.6942 24.9114 16.2736V13.8595H27.0887V16.2736C27.0887 16.6942 27.4296 17.0353 27.8504 17.0353H30.2715V19.2043H27.8504C27.4296 19.2043 27.0887 19.5454 27.0887 19.9661V22.3801H24.9114V19.9661C24.9114 19.5454 24.5704 19.2043 24.1497 19.2043H21.7285V17.0353Z" fill="white"/>
<path d="M29.2192 26.3123H22.7813C22.3605 26.3123 22.0195 26.6533 22.0195 27.074C22.0195 27.4946 22.3605 27.8357 22.7813 27.8357H29.2192C29.64 27.8357 29.9809 27.4946 29.9809 27.074C29.9809 26.6533 29.64 26.3123 29.2192 26.3123Z" fill="white"/>
<path d="M29.2192 29.9095H22.7813C22.3605 29.9095 22.0195 30.2506 22.0195 30.6713C22.0195 31.0919 22.3605 31.433 22.7813 31.433H29.2192C29.64 31.433 29.9809 31.0919 29.9809 30.6713C29.9809 30.2506 29.64 29.9095 29.2192 29.9095Z" fill="white"/>
</svg>
