<svg width="167" height="34" viewBox="0 0 167 34" fill="none" xmlns="http://www.w3.org/2000/svg">
<path d="M0.0249023 26.313V0H3.31578V8.20435L3.11931 11.6043H3.31578C4.05255 10.3971 4.93667 9.43623 6.04181 8.79565C7.1224 8.13043 8.25211 7.81014 9.45549 7.81014C11.1746 7.81014 12.5008 8.40145 13.434 9.53478C13.9006 10.1014 14.1953 10.7174 14.3427 11.3826C14.4901 12.0478 14.5637 12.8855 14.5637 13.8957V26.2638H11.322V14.8319C11.322 14.142 11.2974 13.5754 11.2237 13.1565C11.1501 12.7377 11.0027 12.3435 10.7817 11.9986C10.5361 11.629 10.1923 11.3333 9.79932 11.1609C9.38181 10.9884 8.93976 10.9145 8.47314 10.9145C7.58902 10.9145 6.72946 11.2101 5.91902 11.8014C5.10858 12.3928 4.24902 13.2797 3.34034 14.487V26.3377H0.0249023V26.313Z" fill="white"/>
<path d="M31.8036 26.313V10.6928H25.271V8.22899H35.0945V26.313H31.8036ZM31.3861 4.13913V0H35.512V4.13913H31.3861Z" fill="white"/>
<path d="M51.3281 32.3493L51.6719 29.5899C53.0964 30.1812 54.1769 30.5261 54.9383 30.6493C55.6996 30.7725 56.4364 30.8218 57.1731 30.8218C58.9905 30.8218 60.2921 30.4029 61.1025 29.5899C61.5692 29.1464 61.8639 28.629 62.0603 28.0377C62.2322 27.4464 62.355 26.7073 62.4778 25.7957L62.7725 22.5189H62.5761C62.134 23.3073 61.7656 23.8493 61.4464 24.1696C61.1271 24.4899 60.7587 24.7855 60.3903 25.0565C59.8009 25.4754 59.2115 25.7957 58.5975 25.9928C58.0081 26.1899 57.345 26.2884 56.6083 26.2884C55.5768 26.2884 54.6436 26.0913 53.8086 25.6725C52.9736 25.2783 52.2859 24.7362 51.7702 24.0464C51.1316 23.2087 50.665 22.2478 50.3458 21.1145C50.0265 19.9812 49.8792 18.7986 49.8792 17.5667C49.8792 14.9305 50.5422 12.6391 51.8684 10.6928C53.1946 8.74639 55.0611 7.78552 57.4678 7.78552C58.3519 7.78552 59.1624 7.93335 59.9237 8.229C60.685 8.52465 61.5937 9.18987 62.6743 10.2247H62.8708V8.17973H65.7687V22.642C65.7687 24.5638 65.6705 26.116 65.474 27.2986C65.2775 28.4812 64.7864 29.5652 64.025 30.5507C63.2146 31.5609 62.2568 32.2754 61.1517 32.6696C60.0465 33.0638 58.7203 33.2609 57.1486 33.2609C55.4049 33.3102 53.4893 32.9899 51.3281 32.3493ZM62.4778 19.9073V12.787C61.6428 11.8261 60.8569 11.1609 60.1202 10.816C59.3834 10.4464 58.6467 10.2739 57.9099 10.2739C56.3627 10.2739 55.233 10.9391 54.4962 12.2696C53.7594 13.6 53.3911 15.3 53.3911 17.3942C53.3911 19.2667 53.7349 20.7449 54.4471 21.829C55.1347 22.9131 56.1171 23.4551 57.3696 23.4551C58.4011 23.4551 59.4325 23.0362 60.5131 22.1986C60.8569 21.9029 61.1762 21.6319 61.4709 21.3362C61.7656 21.0406 62.0603 20.5725 62.4778 19.9073Z" fill="white"/>
<path d="M76.2551 26.313V0H79.546V8.20435L79.3495 11.6043H79.546C80.2828 10.3971 81.1669 9.43623 82.2475 8.79565C83.3281 8.13043 84.4578 7.81014 85.6612 7.81014C87.3803 7.81014 88.7065 8.40145 89.6397 9.53478C90.1063 10.1014 90.401 10.7174 90.5484 11.3826C90.6957 12.0478 90.7694 12.8855 90.7694 13.8957V26.2638H87.5031V14.8319C87.5031 14.142 87.4785 13.5754 87.4048 13.1565C87.3557 12.7377 87.2084 12.3435 86.9628 11.9986C86.7172 11.629 86.3734 11.3333 85.9804 11.1609C85.5629 10.9884 85.1209 10.9145 84.6543 10.9145C83.7701 10.9145 82.9106 11.2101 82.1001 11.8014C81.2897 12.3928 80.4301 13.2797 79.5214 14.487V26.3377H76.2551V26.313Z" fill="white"/>
<path d="M101.723 25.574V22.6175C104.252 23.7262 106.463 24.2682 108.304 24.2682C109.803 24.2682 110.932 23.9725 111.718 23.3566C112.504 22.7653 112.897 22.1001 112.897 21.4102C112.897 20.8928 112.7 20.4494 112.332 20.0552C111.939 19.6609 111.104 19.2667 109.778 18.8479L106.266 17.6899C105.014 17.2957 104.031 16.7044 103.294 15.916C102.558 15.1276 102.189 14.1667 102.189 13.0088C102.189 11.4812 102.779 10.2494 103.958 9.28848C105.136 8.32761 106.905 7.8595 109.311 7.8595C110.024 7.8595 110.76 7.88413 111.571 7.95805C112.357 8.00732 113.585 8.2537 115.23 8.62327V11.2841C113.069 10.6189 111.08 10.2986 109.287 10.2986C108.034 10.2986 107.052 10.5204 106.364 10.9885C105.677 11.432 105.333 12.0233 105.333 12.7131C105.333 13.1566 105.505 13.5754 105.824 13.8957C106.143 14.2407 106.782 14.5856 107.764 14.9059L111.915 16.3595C113.585 16.9508 114.714 17.616 115.304 18.3798C115.893 19.1436 116.163 20.0798 116.163 21.1392C116.163 22.6914 115.5 23.9972 114.199 25.1059C112.872 26.2146 110.957 26.7566 108.378 26.7566C106.315 26.732 104.105 26.3378 101.723 25.574Z" fill="white"/>
<path d="M126.404 32.8913V30.4275H127.731C129.032 30.4275 129.99 30.1812 130.604 29.6884C130.948 29.3927 131.243 29.0725 131.464 28.7029C131.685 28.3333 131.93 27.8406 132.225 27.2246L133.011 25.4507L125.422 8.20435H128.787L134.754 21.7551L140.722 8.20435H143.669L134.558 28.6043C133.895 30.1072 133.035 31.2159 131.955 31.9797C131.414 32.3493 130.85 32.5956 130.211 32.7188C129.573 32.8174 128.787 32.8913 127.829 32.8913H126.404Z" fill="white"/>
<path d="M152.535 25.574V22.6175C155.064 23.7262 157.275 24.2682 159.116 24.2682C160.615 24.2682 161.744 23.9725 162.53 23.3566C163.316 22.7653 163.709 22.1001 163.709 21.4102C163.709 20.8928 163.512 20.4494 163.144 20.0552C162.751 19.6609 161.916 19.2667 160.59 18.8479L157.078 17.6899C155.826 17.2957 154.843 16.7044 154.106 15.916C153.37 15.1276 153.001 14.1667 153.001 13.0088C153.001 11.4812 153.591 10.2494 154.77 9.28848C155.948 8.32761 157.717 7.8595 160.123 7.8595C160.836 7.8595 161.572 7.88413 162.383 7.95805C163.169 8.00732 164.397 8.2537 166.042 8.62327V11.2841C163.881 10.6189 161.892 10.2986 160.099 10.2986C158.846 10.2986 157.864 10.5204 157.176 10.9885C156.489 11.432 156.145 12.0233 156.145 12.7131C156.145 13.1566 156.317 13.5754 156.636 13.8957C156.955 14.2407 157.594 14.5856 158.576 14.9059L162.727 16.3595C164.397 16.9508 165.526 17.616 166.116 18.3798C166.705 19.1436 166.975 20.0798 166.975 21.1392C166.975 22.6914 166.312 23.9972 165.011 25.1059C163.684 26.2146 161.769 26.7566 159.19 26.7566C157.127 26.732 154.917 26.3378 152.535 25.574Z" fill="white"/>
<path d="M14.3669 31.2159H0V33.9754H14.3669V31.2159Z" fill="white"/>
<path d="M115.82 31.2159H101.453V33.9754H115.82V31.2159Z" fill="white"/>
</svg>
