<svg width="112" height="31" viewBox="0 0 112 31" fill="none" xmlns="http://www.w3.org/2000/svg">
<path d="M0.936875 25V0.699998H4.32688V11.2H10.5669V0.699998H13.9569V25H10.5669V13.63H4.32688V25H0.936875ZM17.6933 25V7.66H20.9033V25H17.6933ZM17.6933 5.08V1.72H20.9033V5.08H17.6933ZM28.8388 30.37C27.7988 30.37 26.8588 30.26 26.0188 30.04C25.1788 29.82 24.5188 29.47 24.0388 28.99C23.5588 28.51 23.3188 27.88 23.3188 27.1C23.3188 26.54 23.4388 26.05 23.6788 25.63C23.9188 25.21 24.2288 24.85 24.6088 24.55C24.9888 24.23 25.3888 23.97 25.8088 23.77C25.2488 23.61 24.8288 23.36 24.5488 23.02C24.2688 22.66 24.1288 22.29 24.1288 21.91C24.1288 21.27 24.2988 20.72 24.6388 20.26C24.9788 19.8 25.4488 19.3 26.0488 18.76C25.3888 18.26 24.8888 17.62 24.5488 16.84C24.2088 16.06 24.0388 14.98 24.0388 13.6C24.0388 12.24 24.2188 11.11 24.5788 10.21C24.9588 9.29 25.5088 8.6 26.2288 8.14C26.9688 7.66 27.8688 7.42 28.9288 7.42C29.8688 7.42 30.6188 7.58 31.1788 7.9C31.7588 8.22 32.1988 8.7 32.4988 9.34C32.5988 9.18 32.8688 8.91 33.3088 8.53C33.7488 8.13 34.2588 7.8 34.8388 7.54L35.3188 7.33L36.1288 9.4C35.8688 9.44 35.5188 9.54 35.0788 9.7C34.6588 9.84 34.2588 9.99 33.8788 10.15C33.5188 10.29 33.2888 10.41 33.1888 10.51C33.3288 10.85 33.4488 11.34 33.5488 11.98C33.6688 12.62 33.7288 13.19 33.7288 13.69C33.7288 14.87 33.5788 15.91 33.2788 16.81C32.9788 17.71 32.4788 18.42 31.7788 18.94C31.0988 19.44 30.1488 19.69 28.9288 19.69C28.6688 19.69 28.3888 19.67 28.0888 19.63C27.7888 19.59 27.5188 19.54 27.2788 19.48C27.1588 19.66 27.0288 19.87 26.8888 20.11C26.7688 20.35 26.7088 20.58 26.7088 20.8C26.7088 21.02 26.8188 21.2 27.0388 21.34C27.2788 21.46 27.6488 21.54 28.1488 21.58L30.8488 21.82C32.2088 21.94 33.2188 22.35 33.8788 23.05C34.5388 23.75 34.8688 24.75 34.8688 26.05C34.8688 26.99 34.6488 27.78 34.2088 28.42C33.7688 29.08 33.0988 29.57 32.1988 29.89C31.3188 30.21 30.1988 30.37 28.8388 30.37ZM29.0788 27.85C30.2188 27.85 31.0588 27.71 31.5988 27.43C32.1388 27.17 32.4088 26.74 32.4088 26.14C32.4088 25.78 32.3388 25.48 32.1988 25.24C32.0788 25 31.8488 24.81 31.5088 24.67C31.1688 24.53 30.6788 24.43 30.0388 24.37L27.3088 24.13C27.0888 24.35 26.8788 24.57 26.6787 24.79C26.4788 25.01 26.3188 25.24 26.1988 25.48C26.0788 25.74 26.0188 26.01 26.0188 26.29C26.0188 26.81 26.2388 27.2 26.6787 27.46C27.1188 27.72 27.9188 27.85 29.0788 27.85ZM28.9288 17.44C29.3888 17.44 29.7488 17.36 30.0088 17.2C30.2888 17.02 30.4987 16.77 30.6387 16.45C30.7788 16.11 30.8688 15.7 30.9088 15.22C30.9688 14.74 30.9988 14.2 30.9988 13.6C30.9988 13 30.9688 12.46 30.9088 11.98C30.8688 11.48 30.7788 11.06 30.6387 10.72C30.5188 10.36 30.3188 10.09 30.0388 9.91C29.7788 9.73 29.4188 9.64 28.9588 9.64C28.5188 9.64 28.1488 9.73 27.8488 9.91C27.5688 10.09 27.3588 10.35 27.2188 10.69C27.0788 11.01 26.9788 11.42 26.9188 11.92C26.8588 12.4 26.8288 12.96 26.8288 13.6C26.8288 14.14 26.8488 14.65 26.8888 15.13C26.9488 15.59 27.0488 15.99 27.1888 16.33C27.3488 16.67 27.5688 16.94 27.8488 17.14C28.1288 17.34 28.4888 17.44 28.9288 17.44ZM37.4659 25V0.699998H40.6759V9.46C41.2559 8.9 41.9059 8.42 42.6259 8.02C43.3459 7.62 44.1459 7.42 45.0259 7.42C45.7059 7.42 46.2259 7.6 46.5859 7.96C46.9659 8.32 47.2259 8.77 47.3659 9.31C47.5259 9.85 47.6059 10.4 47.6059 10.96V25H44.3959V11.89C44.3959 11.27 44.3059 10.79 44.1259 10.45C43.9459 10.11 43.5759 9.94 43.0159 9.94C42.6359 9.94 42.2359 10.05 41.8159 10.27C41.4159 10.49 41.0359 10.76 40.6759 11.08V25H37.4659ZM53.6752 25V3.22H49.5652V0.699998H61.0552V3.22H57.0652V25H53.6752ZM66.2478 25.24C65.5678 25.24 64.9678 25.05 64.4478 24.67C63.9278 24.27 63.5178 23.77 63.2178 23.17C62.9178 22.55 62.7678 21.9 62.7678 21.22C62.7678 20.14 62.9478 19.23 63.3078 18.49C63.6678 17.75 64.1578 17.13 64.7778 16.63C65.4178 16.11 66.1478 15.66 66.9678 15.28C67.8078 14.9 68.6878 14.53 69.6078 14.17V12.94C69.6078 12.24 69.5678 11.66 69.4878 11.2C69.4078 10.74 69.2378 10.4 68.9778 10.18C68.7378 9.94 68.3678 9.82 67.8678 9.82C67.4278 9.82 67.0678 9.92 66.7878 10.12C66.5278 10.32 66.3378 10.61 66.2178 10.99C66.0978 11.35 66.0378 11.78 66.0378 12.28V13.15L62.8578 13.03C62.8978 11.11 63.3378 9.7 64.1778 8.8C65.0178 7.88 66.3178 7.42 68.0778 7.42C69.7978 7.42 71.0178 7.89 71.7378 8.83C72.4578 9.77 72.8178 11.13 72.8178 12.91V20.83C72.8178 21.37 72.8278 21.89 72.8478 22.39C72.8878 22.89 72.9278 23.36 72.9678 23.8C73.0278 24.22 73.0778 24.62 73.1178 25H70.1778C70.1178 24.68 70.0378 24.28 69.9378 23.8C69.8578 23.3 69.7978 22.85 69.7578 22.45C69.5578 23.13 69.1678 23.77 68.5878 24.37C68.0278 24.95 67.2478 25.24 66.2478 25.24ZM67.5078 22.48C67.8278 22.48 68.1278 22.39 68.4078 22.21C68.6878 22.03 68.9378 21.83 69.1578 21.61C69.3778 21.37 69.5278 21.18 69.6078 21.04V16.12C69.1078 16.4 68.6378 16.68 68.1978 16.96C67.7578 17.24 67.3678 17.54 67.0278 17.86C66.7078 18.16 66.4478 18.51 66.2478 18.91C66.0678 19.29 65.9778 19.73 65.9778 20.23C65.9778 20.93 66.1078 21.48 66.3678 21.88C66.6278 22.28 67.0078 22.48 67.5078 22.48ZM75.9613 24.97V0.669999H79.1713V15.16L83.8513 7.66H87.2113L83.1313 14.44L87.0913 25H83.8813L80.6413 16.12L79.1713 18.34V24.97H75.9613ZM93.5626 25.24C92.2026 25.24 91.1526 24.98 90.4126 24.46C89.6726 23.92 89.1526 23.14 88.8526 22.12C88.5726 21.08 88.4326 19.81 88.4326 18.31V14.35C88.4326 12.81 88.5826 11.53 88.8826 10.51C89.1826 9.49 89.7026 8.72 90.4426 8.2C91.2026 7.68 92.2426 7.42 93.5626 7.42C95.0226 7.42 96.0926 7.72 96.7726 8.32C97.4726 8.92 97.9326 9.79 98.1526 10.93C98.3726 12.05 98.4826 13.4 98.4826 14.98V16.39H91.6426V19.87C91.6426 20.57 91.7026 21.14 91.8226 21.58C91.9626 22.02 92.1726 22.35 92.4526 22.57C92.7526 22.77 93.1326 22.87 93.5926 22.87C94.0726 22.87 94.4326 22.76 94.6726 22.54C94.9326 22.3 95.1026 21.97 95.1826 21.55C95.2826 21.11 95.3326 20.6 95.3326 20.02V18.97H98.4526V19.63C98.4526 21.37 98.0826 22.74 97.3426 23.74C96.6026 24.74 95.3426 25.24 93.5626 25.24ZM91.6426 14.65H95.3326V13.09C95.3326 12.37 95.2926 11.77 95.2126 11.29C95.1326 10.79 94.9626 10.42 94.7026 10.18C94.4626 9.92 94.0726 9.79 93.5326 9.79C93.0126 9.79 92.6126 9.91 92.3326 10.15C92.0726 10.39 91.8926 10.8 91.7926 11.38C91.6926 11.94 91.6426 12.72 91.6426 13.72V14.65ZM101.39 25V7.66H104.6V9.37C105.18 8.83 105.82 8.37 106.52 7.99C107.22 7.61 107.99 7.42 108.83 7.42C109.53 7.42 110.06 7.6 110.42 7.96C110.8 8.32 111.06 8.77 111.2 9.31C111.36 9.85 111.44 10.4 111.44 10.96V25H108.23V11.89C108.23 11.27 108.14 10.79 107.96 10.45C107.78 10.11 107.41 9.94 106.85 9.94C106.49 9.94 106.11 10.05 105.71 10.27C105.33 10.47 104.96 10.72 104.6 11.02V25H101.39Z" fill="white"/>
</svg>
