<svg width="123" height="72" viewBox="0 0 123 72" fill="none" xmlns="http://www.w3.org/2000/svg">
<g clip-path="url(#clip0)">
<path d="M17.4554 71.9999C17.3201 71.9999 17.1848 71.9999 17.0495 71.9999C16.5083 71.8638 16.2376 71.5916 16.1023 71.3194L0.270627 46.9565C0 46.6842 0 46.2759 0 45.8676C0 45.4593 0 44.6427 0 43.5538C0 37.7013 0 37.7013 0.947195 37.429L1.35314 38.654L2.70627 38.7901C2.70627 39.1984 2.70627 41.7844 2.70627 43.4177C2.70627 44.6427 2.70627 45.3232 2.70627 45.7315L17.8614 69.0056L22.868 67.2362C22.868 65.4669 22.868 61.2476 22.868 60.8393H24.2211L25.4389 60.0226C25.9802 60.7031 25.5743 68.8695 25.4389 68.8695C25.3036 69.2778 24.8977 69.55 24.4917 69.6861L18.132 71.8638C17.8614 71.9999 17.7261 71.9999 17.4554 71.9999ZM17.1848 69.2778C17.1848 69.2778 17.1848 69.4139 17.1848 69.2778V69.2778ZM50.066 60.1587C48.4422 60.1587 46.9538 59.8865 45.4653 59.206L17.9967 47.637C17.3201 47.3648 16.5082 47.3648 15.8317 47.637L15.0198 45.051C16.3729 44.6427 17.7261 44.6427 19.0792 45.1871L46.5479 56.7561C48.8482 57.7088 51.0132 57.7088 53.4488 56.8922L65.7624 52.6729C65.7624 50.9035 65.7624 46.6842 65.7624 46.2759H67.1155L68.3333 45.4593C68.8746 46.2759 68.4686 54.1701 68.4686 54.1701C68.3333 54.5784 67.9274 54.8506 67.5214 54.9867L54.5313 59.4782C52.9076 59.8865 51.4191 60.1587 50.066 60.1587ZM52.3663 46.6842L43.0297 32.257C42.7591 31.8487 42.7591 31.4404 42.7591 31.1682C42.7591 30.896 42.7591 30.0793 42.7591 28.9905C42.7591 23.0018 42.7591 23.0018 43.7063 22.5935L44.1122 23.8185L45.4653 23.9546C45.4653 24.3629 45.4653 27.2211 45.4653 28.8544C45.4653 29.9432 45.4653 30.4876 45.4653 30.896L54.6667 44.9149L52.3663 46.6842Z" fill="white"/>
<path d="M77.6698 50.4952C77.5345 50.4952 77.3992 50.4952 77.2639 50.4952C76.8579 50.3591 76.452 50.0869 76.3167 49.8147L72.5279 44.7788C72.2573 44.3705 72.122 43.9622 72.2573 43.5538C72.2573 43.2816 72.2573 42.465 72.2573 41.6484C72.2573 40.1512 72.2573 39.0624 72.2573 38.3818C71.5807 38.2457 70.9041 38.1096 70.2276 37.9735C67.1154 37.1569 64.6797 35.6597 63.3266 33.482L63.056 33.0737C62.2441 31.7126 61.8381 30.4877 61.8381 29.1266V28.8544C61.8381 21.7769 61.8381 21.6408 61.8381 21.6408L64.5444 21.7769C64.5444 22.0491 64.5444 27.7656 64.5444 28.8544V29.1266C64.5444 29.9433 64.815 30.7599 65.3563 31.5765L65.6269 31.9848C66.7094 33.6181 68.4685 34.707 71.0395 35.3875C73.0692 35.9319 74.9635 35.9319 76.9933 35.5236L78.7523 34.9792L79.5642 37.5652C78.8876 37.8374 78.2111 37.9735 77.6698 38.1096L75.2342 38.7901C75.2342 39.6068 75.2342 40.8317 75.2342 41.6484C75.2342 42.6011 75.2342 43.1455 75.2342 43.5538L78.3464 47.7731L115.152 35.1153C117.587 34.2986 119.211 33.0737 120.023 31.3043C120.429 30.6238 120.564 29.8071 120.564 29.2627V28.9905C120.564 27.7656 120.564 22.1852 120.564 21.7769L123.27 21.6408C123.27 21.6408 123.27 21.7769 123.27 28.8544V29.1266C123.27 30.2155 123 31.3043 122.459 32.5293C121.241 34.8431 119.076 36.6124 115.964 37.7013L78.2111 50.3591C77.9404 50.3591 77.8051 50.4952 77.6698 50.4952ZM110.01 14.2911L109.063 11.7051C108.792 11.8412 108.657 11.9773 108.521 12.2495C108.386 12.6578 108.386 13.0661 108.521 13.4744L108.251 13.2022V5.85252H109.063L110.551 4.76367L111.092 5.4442V12.6578C111.092 12.93 111.092 13.3383 110.957 13.6106C110.686 13.8828 110.416 14.155 110.01 14.2911Z" fill="white"/>
<path d="M17.455 64.6503C17.3196 64.6503 17.1843 64.6503 17.049 64.6503C16.6431 64.5142 16.2371 64.242 16.1018 63.9698L0.270133 39.6068C-0.000494104 39.0624 -0.135808 38.518 0.134819 37.9736C0.270133 37.5653 0.676074 37.293 1.08201 37.1569L14.0721 32.6654C17.1843 31.7127 20.1612 31.8488 23.0028 32.9377L50.3361 44.5067C51.0127 44.7789 51.8246 44.7789 52.5012 44.6428L55.3427 43.69L43.0292 24.9074C42.7586 24.4991 42.6233 23.8186 42.8939 23.4103C43.0292 23.138 43.2998 22.7297 43.8411 22.5936L50.2008 20.4159C50.4715 20.2798 50.8774 20.2798 51.148 20.4159C51.554 20.552 51.9599 20.8242 52.0952 21.0965L67.9269 45.3233C68.1975 45.7316 68.1975 46.4121 68.0622 46.8205C67.9269 47.2288 67.521 47.501 67.115 47.6371L54.1249 52.1286C51.0127 53.0813 48.0358 53.0813 45.1942 51.8564L17.8609 40.2874C17.1843 40.0152 16.3724 40.0152 15.6959 40.2874L12.8543 41.2401L25.1678 60.0227C25.4385 60.431 25.4385 61.1116 25.3031 61.5199C25.1678 61.9282 24.7619 62.2004 24.3559 62.3365L17.9962 64.5142C17.8609 64.5142 17.7256 64.6503 17.455 64.6503ZM3.38234 39.3346L17.9962 61.656L22.3262 60.1588L8.9302 39.743L15.0193 37.7014C16.3724 37.293 17.7256 37.293 19.0787 37.8375L46.5474 49.4065C48.8477 50.3592 51.0127 50.3592 53.4484 49.5426L65.0853 45.5955L50.4715 23.138L46.1414 24.6352L59.5375 45.0511L53.4484 47.0927C52.0952 47.501 50.7421 47.501 49.3889 46.9566L22.0556 35.3876C19.7553 34.4348 17.5903 34.4348 15.1546 35.1154L3.38234 39.3346Z" fill="white"/>
<path d="M77.5345 43.0095C77.3992 43.0095 77.2639 43.0095 77.1286 43.0095C76.7226 42.8733 76.3167 42.6011 76.1814 42.3289L73.7457 38.518C73.4751 37.9735 73.4751 37.4291 73.6104 37.0208C73.8811 36.6125 74.1517 36.3403 74.5576 36.2042L112.039 23.138C112.716 22.8658 112.851 22.5936 112.987 22.4575C113.122 22.3214 113.122 22.1853 112.987 22.0492L111.769 20.2798C111.634 20.0076 111.228 19.7353 110.686 19.5992C110.145 19.4631 109.468 19.4631 108.927 19.5992L79.023 29.9433C76.0461 31.0321 72.9339 31.0321 69.957 30.3516C66.8447 29.535 64.4091 28.0378 63.056 25.8601L62.7853 25.4518C61.2969 23.138 61.1616 20.552 62.3794 18.1021C63.5972 15.7883 65.7622 14.0189 68.8745 12.9301L106.356 0C106.627 0 107.033 0 107.303 0C107.845 0.136106 108.115 0.408318 108.251 0.680529L110.686 4.49149C110.957 5.03592 110.957 5.58034 110.822 5.98866C110.686 6.39698 110.28 6.66919 109.874 6.80529L72.3926 19.7353C71.716 20.0076 71.5807 20.4159 71.5807 20.4159C71.4454 20.552 71.4454 20.6881 71.5807 20.8242L72.6632 22.5936C72.7985 22.7297 72.9339 23.0019 73.7457 23.2741C74.287 23.4102 74.9636 23.4102 75.5048 23.2741L105.409 12.9301C108.386 11.8412 111.498 11.8412 114.475 12.5217C117.587 13.3384 120.023 14.8355 121.511 17.1493L121.782 17.5577C123.27 19.8715 123.406 22.4575 122.188 24.9074C120.97 27.2212 118.805 28.9905 115.693 30.0794L78.2111 43.0095C77.9405 43.0095 77.8051 43.0095 77.5345 43.0095ZM76.7226 38.2457L77.9405 40.1512L114.746 27.4934C117.181 26.6768 118.805 25.4518 119.617 23.6824C120.429 22.0491 120.294 20.552 119.346 19.0548L119.076 18.6465C117.993 17.0132 116.234 15.7883 113.663 15.2439C111.092 14.5633 108.521 14.6994 106.086 15.5161L76.3167 25.8601C75.2342 26.2684 74.1517 26.2684 73.0692 25.9962C71.8513 25.724 71.0395 25.0435 70.3629 24.2268L69.2804 22.4575C68.6038 21.5047 68.6038 20.2798 69.1451 19.327C69.6863 18.3743 70.4982 17.6938 71.5807 17.2854L107.709 4.89981L106.492 2.99433L69.6863 15.6522C67.2507 16.4688 65.6269 17.6938 64.815 19.4631C64.0032 21.0964 64.1385 22.5936 65.0857 24.0907L65.3563 24.4991C66.4388 26.1323 68.1979 27.2212 70.7688 27.9017C73.3398 28.5822 75.9108 28.4461 78.3464 27.6295L108.251 17.2854C109.333 16.8771 110.416 16.8771 111.498 17.1493C112.716 17.4216 113.528 18.1021 114.204 18.9187L115.422 20.6881C116.099 21.6408 116.099 22.7297 115.558 23.8185C115.016 24.7713 114.204 25.4518 113.122 25.8601L76.7226 38.2457Z" fill="white"/>
<path d="M18.8078 63.2896H16.1016V70.6393H18.8078V63.2896Z" fill="white"/>
<path d="M79.2947 41.6482H76.5884V48.9979H79.2947V41.6482Z" fill="white"/>
</g>
<defs>
<clipPath id="clip0">
<rect width="123" height="72" fill="white"/>
</clipPath>
</defs>
</svg>
