<svg width="162" height="38" viewBox="0 0 162 38" fill="none" xmlns="http://www.w3.org/2000/svg">
<path d="M2.81318 30.1709L3.82144 29.1626L2.81744 28.141L1.80919 29.1583L2.81318 30.1709ZM8.3515 35.804L7.34324 36.8123L7.7598 37.2362H8.3515V35.804ZM19.4281 35.804V37.2362H20.0165L20.4321 36.8166L19.4281 35.804ZM24.7298 30.4573L25.7338 31.4698L26.7382 30.4573L25.7338 29.4448L24.7298 30.4573ZM2.00847 7.54272L1.00447 6.53018L0 7.54272L1.00447 8.55525L2.00847 7.54272ZM8.06748 1.43216V0H7.47909L7.06348 0.419622L8.06748 1.43216ZM19.7121 1.43216L20.7124 0.415332L20.2967 0H19.7121V1.43216ZM25.5345 7.25628L26.5385 8.26882L27.5467 7.25199L26.5347 6.23945L25.5345 7.25628ZM24.9664 7.82915L23.9582 8.83739L24.9622 9.85899L25.9704 8.84168L24.9664 7.82915ZM19.4281 2.19598L20.4364 1.18774L20.0198 0.763822H19.4281V2.19598ZM8.3515 2.19598V0.763822H7.76311L7.3475 1.18344L8.3515 2.19598ZM3.04986 7.54272L2.04587 6.53018L1.04139 7.54272L2.04587 8.55525L3.04986 7.54272ZM25.7712 30.4573L26.7752 31.4698L27.7796 30.4573L26.7752 29.4448L25.7712 30.4573ZM19.7121 36.5678V38H20.3005L20.7161 37.5804L19.7121 36.5678ZM8.06748 36.5678L7.06727 37.5847L7.48288 38H8.06748V36.5678ZM2.24515 30.7437L1.24116 29.7312L0.232895 30.748L1.24494 31.7606L2.24515 30.7437ZM1.80492 31.1791L7.34324 36.8123L9.35975 34.7958L3.82144 29.1626L1.80492 31.1791ZM8.3515 37.2362H19.4281V34.3719H8.3515V37.2362ZM20.4321 36.8166L25.7338 31.4698L23.7258 29.4448L18.4241 34.7915L20.4321 36.8166ZM25.7338 29.4448L3.01246 6.53018L1.00447 8.55525L23.7258 31.4698L25.7338 29.4448ZM3.01246 8.55525L9.07148 2.4447L7.06348 0.419622L1.00447 6.53018L3.01246 8.55525ZM8.06748 2.86432H19.7121V0H8.06748V2.86432ZM18.7119 2.449L24.5343 8.27312L26.5347 6.23945L20.7124 0.415332L18.7119 2.449ZM24.5305 6.24375L23.9625 6.81661L25.9704 8.84168L26.5385 8.26882L24.5305 6.24375ZM25.9747 6.82091L20.4364 1.18774L18.4199 3.20422L23.9582 8.83739L25.9747 6.82091ZM19.4281 0.763822H8.3515V3.62814H19.4281V0.763822ZM7.3475 1.18344L2.04587 6.53018L4.05386 8.55525L9.3555 3.20852L7.3475 1.18344ZM2.04587 8.55525L24.7672 31.4698L26.7752 29.4448L4.05386 6.53018L2.04587 8.55525ZM24.7672 29.4448L18.7081 35.5553L20.7161 37.5804L26.7752 31.4698L24.7672 29.4448ZM19.7121 35.1357H8.06748V38H19.7121V35.1357ZM9.06769 35.551L3.24536 29.7269L1.24494 31.7606L7.06727 37.5847L9.06769 35.551ZM3.24914 31.7563L3.81718 31.1834L1.80919 29.1583L1.24116 29.7312L3.24914 31.7563ZM35.983 36.5678H34.5629V38H35.983V36.5678ZM35.983 1.43216V0H34.5629V1.43216H35.983ZM59.4616 1.43216H60.8817V0H59.4616V1.43216ZM59.4616 36.5678V38H60.8817V36.5678H59.4616ZM36.7403 35.804H35.3203V37.2362H36.7403V35.804ZM58.7043 35.804V37.2362H60.1243V35.804H58.7043ZM58.7043 2.19598H60.1243V0.763822H58.7043V2.19598ZM36.7403 2.19598V0.763822H35.3203V2.19598H36.7403ZM37.403 36.5678V1.43216H34.5629V36.5678H37.403ZM35.983 2.86432H59.4616V0H35.983V2.86432ZM58.0416 1.43216V36.5678H60.8817V1.43216H58.0416ZM59.4616 35.1357H35.983V38H59.4616V35.1357ZM36.7403 37.2362H58.7043V34.3719H36.7403V37.2362ZM60.1243 35.804V2.19598H57.2842V35.804H60.1243ZM58.7043 0.763822H36.7403V3.62814H58.7043V0.763822ZM35.3203 2.19598V35.804H38.1604V2.19598H35.3203ZM81.5543 19.3819V20.8141H82.9744V19.3819H81.5543ZM70.5723 19.3819V17.9497H69.1523V19.3819H70.5723ZM70.5723 36.1859V37.6181H71.9924V36.1859H70.5723ZM69.815 36.1859H68.3949V37.6181H69.815V36.1859ZM69.815 1.43216V0H68.3949V1.43216H69.815ZM92.915 1.43216H94.335V0H92.915V1.43216ZM92.915 2.19598V3.62814H94.335V2.19598H92.915ZM70.5723 2.19598V0.763822H69.1523V2.19598H70.5723ZM70.5723 18.6181H69.1523V20.0503H70.5723V18.6181ZM81.5543 18.6181H82.9744V17.1859H81.5543V18.6181ZM81.5543 17.9497H70.5723V20.8141H81.5543V17.9497ZM69.1523 19.3819V36.1859H71.9924V19.3819H69.1523ZM70.5723 34.7538H69.815V37.6181H70.5723V34.7538ZM71.235 36.1859V1.43216H68.3949V36.1859H71.235ZM69.815 2.86432H92.915V0H69.815V2.86432ZM91.4949 1.43216V2.19598H94.335V1.43216H91.4949ZM92.915 0.763822H70.5723V3.62814H92.915V0.763822ZM69.1523 2.19598V18.6181H71.9924V2.19598H69.1523ZM70.5723 20.0503H81.5543V17.1859H70.5723V20.0503ZM80.1342 18.6181V19.3819H82.9744V18.6181H80.1342ZM115.387 19.3819V20.8141H116.807V19.3819H115.387ZM104.405 19.3819V17.9497H102.985V19.3819H104.405ZM104.405 36.1859V37.6181H105.825V36.1859H104.405ZM103.647 36.1859H102.227V37.6181H103.647V36.1859ZM103.647 1.43216V0H102.227V1.43216H103.647ZM126.747 1.43216H128.168V0H126.747V1.43216ZM126.747 2.19598V3.62814H128.168V2.19598H126.747ZM104.405 2.19598V0.763822H102.985V2.19598H104.405ZM104.405 18.6181H102.985V20.0503H104.405V18.6181ZM115.387 18.6181H116.807V17.1859H115.387V18.6181ZM115.387 17.9497H104.405V20.8141H115.387V17.9497ZM102.985 19.3819V36.1859H105.825V19.3819H102.985ZM104.405 34.7538H103.647V37.6181H104.405V34.7538ZM105.068 36.1859V1.43216H102.227V36.1859H105.068ZM103.647 2.86432H126.747V0H103.647V2.86432ZM125.327 1.43216V2.19598H128.168V1.43216H125.327ZM126.747 0.763822H104.405V3.62814H126.747V0.763822ZM102.985 2.19598V18.6181H105.825V2.19598H102.985ZM104.405 20.0503H115.387V17.1859H104.405V20.0503ZM113.967 18.6181V19.3819H116.807V18.6181H113.967ZM148.841 36.1859H147.421V37.6181H148.841V36.1859ZM148.841 2.19598H150.261V0.763822H148.841V2.19598ZM137.859 2.19598H136.439V3.62814H137.859V2.19598ZM137.859 1.43216V0H136.439V1.43216H137.859ZM160.58 1.43216H162V0H160.58V1.43216ZM160.58 2.19598V3.62814H162V2.19598H160.58ZM149.598 2.19598V0.763822H148.178V2.19598H149.598ZM149.598 36.1859V37.6181H151.018V36.1859H149.598ZM150.261 36.1859V2.19598H147.421V36.1859H150.261ZM148.841 0.763822H137.859V3.62814H148.841V0.763822ZM139.279 2.19598V1.43216H136.439V2.19598H139.279ZM137.859 2.86432H160.58V0H137.859V2.86432ZM159.16 1.43216V2.19598H162V1.43216H159.16ZM160.58 0.763822H149.598V3.62814H160.58V0.763822ZM148.178 2.19598V36.1859H151.018V2.19598H148.178ZM149.598 34.7538H148.841V37.6181H149.598V34.7538Z" fill="white"/>
</svg>
