<svg width="170" height="24" viewBox="0 0 170 24" fill="none" xmlns="http://www.w3.org/2000/svg">
<path d="M28.8709 1.34C28.1509 3.24 27.3809 5.24 26.5609 7.34C25.7609 9.42 24.9609 11.47 24.1609 13.49C23.3809 15.51 22.6409 17.43 21.9409 19.25C21.2409 21.07 20.6509 22.64 20.1709 23.96L15.3109 11.81C15.2509 11.65 15.2009 11.53 15.1609 11.45C15.1209 11.37 15.0809 11.25 15.0409 11.09C15.0409 11.17 15.0309 11.25 15.0109 11.33C14.9909 11.39 14.9709 11.46 14.9509 11.54C14.9309 11.62 14.9109 11.7 14.8909 11.78C14.2109 13.34 13.5409 14.87 12.8809 16.37C12.6009 17.01 12.3109 17.67 12.0109 18.35C11.7109 19.03 11.4209 19.71 11.1409 20.39C10.8609 21.05 10.5809 21.69 10.3009 22.31C10.0409 22.93 9.8009 23.49 9.5809 23.99C8.1409 20.21 6.6909 16.44 5.2309 12.68C3.7709 8.92 2.3209 5.14 0.880898 1.34H4.5709C5.0509 2.66 5.5409 3.99 6.0409 5.33C6.5609 6.67 7.0409 7.96 7.4809 9.2C7.9409 10.44 8.3509 11.59 8.7109 12.65C9.0709 13.71 9.3509 14.61 9.5509 15.35L9.7909 16.4C9.8109 16.3 9.8609 16.14 9.9409 15.92C10.0209 15.68 10.0809 15.51 10.1209 15.41C10.1409 15.33 10.2109 15.15 10.3309 14.87C10.4509 14.59 10.5909 14.26 10.7509 13.88C10.9109 13.48 11.0909 13.05 11.2909 12.59C11.4909 12.13 11.6909 11.66 11.8909 11.18C12.3709 10.08 12.9009 8.86 13.4809 7.52C13.1409 6.58 12.8409 5.7 12.5809 4.88C12.3409 4.18 12.1109 3.49 11.8909 2.81C11.6909 2.13 11.5409 1.64 11.4409 1.34H14.5909C15.4509 3.6 16.2509 5.69 16.9909 7.61C17.2909 8.43 17.5909 9.25 17.8909 10.07C18.2109 10.89 18.5009 11.65 18.7609 12.35C19.0409 13.05 19.2809 13.67 19.4809 14.21C19.6809 14.73 19.8209 15.11 19.9009 15.35C19.9609 15.53 20.0009 15.71 20.0209 15.89C20.0609 16.05 20.1009 16.22 20.1409 16.4C20.1809 16.22 20.2109 16.04 20.2309 15.86C20.2709 15.68 20.3109 15.51 20.3509 15.35C20.5309 14.57 20.8109 13.64 21.1909 12.56C21.5709 11.48 21.9909 10.32 22.4509 9.08C22.9309 7.84 23.4309 6.56 23.9509 5.24C24.4709 3.9 24.9709 2.6 25.4509 1.34H28.8709ZM31.7882 1.25H35.0582V23H31.7882V1.25ZM59.4814 1.25V23.99C59.2014 23.63 58.6614 23.05 57.8614 22.25C57.0614 21.45 56.1414 20.53 55.1014 19.49C54.0614 18.45 52.9514 17.36 51.7714 16.22C50.6114 15.08 49.5114 14 48.4714 12.98C47.4314 11.94 46.5214 11.02 45.7414 10.22C44.9614 9.4 44.4414 8.82 44.1814 8.48L43.6114 7.7L43.7014 8.66V23H40.4014V0.229998C40.6214 0.509998 40.9814 0.909998 41.4814 1.43C42.0014 1.95 42.6014 2.56 43.2814 3.26C43.9814 3.94 44.7414 4.68 45.5614 5.48C46.4014 6.28 47.2414 7.09 48.0814 7.91C48.9414 8.73 49.7814 9.54 50.6014 10.34C51.4414 11.12 52.2014 11.85 52.8814 12.53C53.5814 13.21 54.1814 13.81 54.6814 14.33C55.1814 14.85 55.5314 15.24 55.7314 15.5L56.3014 16.34L56.2114 15.32V1.25H59.4814ZM64.835 23V1.25H79.115V4.22H68.135V10.58H77.915V13.61H68.135V19.97H79.535V23H64.835ZM88.0007 11.87L81.1907 1.25H85.2107C85.3107 1.41 85.4807 1.68 85.7207 2.06C85.9607 2.44 86.2307 2.88 86.5307 3.38C86.8307 3.86 87.1507 4.38 87.4907 4.94C87.8307 5.48 88.1507 6 88.4507 6.5C88.7507 6.98 89.0107 7.41 89.2307 7.79C89.4707 8.17 89.6407 8.44 89.7407 8.6C89.7607 8.64 89.8307 8.78 89.9507 9.02C90.0707 9.24 90.1607 9.44 90.2207 9.62C90.2807 9.44 90.3707 9.24 90.4907 9.02C90.6107 8.78 90.6807 8.64 90.7007 8.6C90.8007 8.44 90.9607 8.17 91.1807 7.79C91.4207 7.41 91.6807 6.98 91.9607 6.5C92.2607 6 92.5707 5.48 92.8907 4.94C93.2107 4.38 93.5107 3.86 93.7907 3.38C94.0907 2.88 94.3507 2.44 94.5707 2.06C94.8107 1.68 94.9807 1.41 95.0807 1.25H99.1007C98.9807 1.43 98.7507 1.8 98.4107 2.36C98.0707 2.9 97.6607 3.54 97.1807 4.28C96.7207 5.02 96.2307 5.81 95.7107 6.65C95.1907 7.49 94.6907 8.28 94.2107 9.02C93.7507 9.76 93.3407 10.41 92.9807 10.97C92.6407 11.51 92.4207 11.87 92.3207 12.05L99.4007 23H95.3207L90.8807 15.86C90.8407 15.8 90.7807 15.71 90.7007 15.59C90.6207 15.47 90.5407 15.34 90.4607 15.2C90.3807 15.04 90.3007 14.89 90.2207 14.75C90.1407 14.61 90.0807 14.5 90.0407 14.42C89.9807 14.6 89.9007 14.79 89.8007 14.99C89.7007 15.19 89.6407 15.3 89.6207 15.32C89.4607 15.58 89.1507 16.08 88.6907 16.82C88.2507 17.54 87.7807 18.32 87.2807 19.16C86.8007 20 86.3307 20.79 85.8707 21.53C85.4307 22.25 85.1307 22.74 84.9707 23H80.8907L88.0007 11.87ZM105.576 12.14H108.546C109.346 12.14 110.016 12 110.556 11.72C111.096 11.44 111.516 11.1 111.816 10.7C112.136 10.3 112.356 9.87 112.476 9.41C112.616 8.95 112.686 8.54 112.686 8.18C112.686 7.8 112.616 7.39 112.476 6.95C112.356 6.49 112.136 6.07 111.816 5.69C111.496 5.29 111.066 4.96 110.526 4.7C110.006 4.44 109.356 4.31 108.576 4.31H105.576V12.14ZM102.276 23V1.25H108.216C109.356 1.25 110.396 1.4 111.336 1.7C112.296 2 113.116 2.45 113.796 3.05C114.496 3.63 115.036 4.35 115.416 5.21C115.796 6.05 115.986 7.02 115.986 8.12C115.986 8.98 115.856 9.84 115.596 10.7C115.336 11.54 114.916 12.3 114.336 12.98C113.756 13.64 112.996 14.18 112.056 14.6C111.116 15.02 109.976 15.23 108.636 15.23H105.576V23H102.276ZM119.591 23V1.25H133.871V4.22H122.891V10.58H132.671V13.61H122.891V19.97H134.291V23H119.591ZM138.107 23V1.25H144.047C145.187 1.25 146.227 1.4 147.167 1.7C148.127 2 148.947 2.45 149.627 3.05C150.327 3.63 150.867 4.35 151.247 5.21C151.627 6.05 151.817 7.02 151.817 8.12C151.817 8.72 151.757 9.32 151.637 9.92C151.517 10.5 151.317 11.07 151.037 11.63C150.777 12.17 150.437 12.68 150.017 13.16C149.597 13.62 149.087 14.01 148.487 14.33C149.287 15.59 150.157 16.99 151.097 18.53C152.037 20.05 152.987 21.54 153.947 23H150.017C149.617 22.38 149.197 21.73 148.757 21.05C148.337 20.37 147.907 19.7 147.467 19.04C147.047 18.36 146.627 17.7 146.207 17.06C145.807 16.4 145.427 15.79 145.067 15.23H144.467H141.407V23H138.107ZM141.407 12.14H144.377C145.177 12.14 145.847 12.01 146.387 11.75C146.927 11.47 147.347 11.13 147.647 10.73C147.967 10.33 148.187 9.9 148.307 9.44C148.447 8.98 148.517 8.56 148.517 8.18C148.517 7.8 148.447 7.39 148.307 6.95C148.187 6.49 147.967 6.07 147.647 5.69C147.327 5.29 146.897 4.96 146.357 4.7C145.837 4.44 145.187 4.31 144.407 4.31H141.407V12.14ZM169.136 1.25V4.37H163.646V23H160.376V4.37H155.006V1.25H169.136Z" fill="white"/>
</svg>
