<svg width="44" height="44" viewBox="0 0 44 44" fill="none" xmlns="http://www.w3.org/2000/svg">
<path d="M43.3348 10.1625C43.3317 10.1439 43.3323 10.1243 43.3275 10.1061C43.3142 10.056 43.2944 10.0078 43.2687 9.96276C43.2602 9.9473 43.2471 9.93492 43.2368 9.92048C43.2183 9.89146 43.1974 9.86409 43.1742 9.83867C43.1601 9.82423 43.1423 9.81426 43.1268 9.8012C43.1038 9.78004 43.0792 9.76073 43.0532 9.74345L43.0487 9.74173L43.045 9.73898L38.019 6.85939C37.9279 6.80726 37.8249 6.77984 37.7199 6.77984C37.615 6.77984 37.5119 6.80726 37.4209 6.85939L32.3922 9.73864L32.3884 9.74139L32.3839 9.74311C32.3578 9.76049 32.3331 9.77991 32.31 9.8012C32.2945 9.81392 32.2756 9.82423 32.2629 9.83833C32.2394 9.86404 32.2183 9.89176 32.1997 9.92117C32.1897 9.93561 32.177 9.94764 32.1684 9.96276C32.1427 10.0078 32.1229 10.056 32.1096 10.1061C32.1048 10.1236 32.1055 10.1425 32.1024 10.1604C32.0952 10.1933 32.0908 10.2268 32.0893 10.2605V11.4859L27.6168 8.68505C27.6233 8.65494 27.6274 8.62436 27.6292 8.59361V3.56592C27.6276 3.53284 27.6232 3.49995 27.6161 3.46761C27.613 3.44905 27.6137 3.42945 27.6089 3.41123C27.5955 3.36123 27.5758 3.31317 27.5501 3.26823C27.5381 3.25037 27.5251 3.23316 27.5112 3.21667C27.4947 3.19111 27.4762 3.16687 27.4559 3.14414C27.4378 3.12813 27.4187 3.11321 27.3988 3.09945C27.3785 3.08113 27.3569 3.06425 27.3342 3.04892H27.3308L27.3284 3.04376L22.2993 0.164514C22.2083 0.112385 22.1052 0.0849609 22.0002 0.0849609C21.8953 0.0849609 21.7922 0.112385 21.7012 0.164514L16.6721 3.04376L16.668 3.04686H16.6646C16.6417 3.06228 16.62 3.07928 16.5996 3.09773C16.5798 3.11139 16.5609 3.1262 16.5429 3.14208C16.5223 3.16511 16.5036 3.18971 16.4868 3.21564C16.4733 3.23181 16.4605 3.24868 16.4487 3.26617C16.423 3.31122 16.4032 3.3594 16.3899 3.40951C16.3851 3.42705 16.3858 3.44595 16.3827 3.46383C16.3755 3.49674 16.3711 3.5302 16.3696 3.56386V8.59361C16.3713 8.62448 16.3755 8.65517 16.382 8.68539L11.9105 11.4859V10.2608C11.9089 10.2277 11.9045 10.1948 11.8974 10.1625C11.8943 10.1439 11.895 10.1243 11.8902 10.1061C11.8769 10.056 11.8571 10.0078 11.8314 9.96276C11.8228 9.9473 11.8098 9.93492 11.7995 9.92048C11.781 9.89146 11.7601 9.86409 11.7369 9.83867C11.7228 9.82423 11.7049 9.81426 11.6895 9.8012C11.6665 9.78004 11.6419 9.76073 11.6159 9.74345L11.6114 9.74173L11.6077 9.73898L6.581 6.85939C6.48995 6.80726 6.38686 6.77984 6.28194 6.77984C6.17702 6.77984 6.07393 6.80726 5.98287 6.85939L0.955188 9.73864L0.951406 9.74139L0.946938 9.74311C0.920804 9.76049 0.89609 9.77991 0.873031 9.8012C0.857563 9.81392 0.838656 9.82423 0.825937 9.83833C0.802478 9.86404 0.781314 9.89176 0.762688 9.92117C0.752719 9.93561 0.74 9.94764 0.731406 9.96276C0.705726 10.0078 0.685969 10.056 0.672625 10.1061C0.667813 10.1236 0.6685 10.1425 0.665406 10.1604C0.658209 10.1933 0.653839 10.2268 0.652344 10.2605V15.2881C0.652329 15.3962 0.6814 15.5022 0.736502 15.5951C0.791605 15.688 0.870706 15.7644 0.9655 15.8161L5.68003 18.3905V25.2785L0.955188 27.9845L0.951406 27.9873L0.946938 27.989C0.920804 28.0064 0.89609 28.0258 0.873031 28.0471C0.857563 28.0598 0.838656 28.0701 0.825937 28.0842C0.802478 28.1099 0.781314 28.1377 0.762688 28.1671C0.752719 28.1815 0.74 28.1935 0.731406 28.2087C0.705726 28.2537 0.685969 28.3019 0.672625 28.352C0.667813 28.3695 0.6685 28.3885 0.665406 28.4063C0.658209 28.4392 0.653839 28.4727 0.652344 28.5064V33.534C0.652397 33.6421 0.68157 33.7482 0.736798 33.8411C0.792025 33.934 0.871265 34.0103 0.966188 34.062L5.99353 36.8062C6.02179 36.82 6.0511 36.8315 6.08119 36.8406C6.09734 36.8464 6.11247 36.855 6.12897 36.8591C6.22901 36.8864 6.33452 36.8864 6.43456 36.8591C6.45106 36.8547 6.46619 36.8461 6.48234 36.8406C6.51243 36.8315 6.54174 36.82 6.57 36.8062L10.8387 34.4759L16.3731 38.1606V40.6538C16.373 40.7618 16.4021 40.8678 16.4572 40.9607C16.5123 41.0537 16.5914 41.13 16.6862 41.1818L21.7136 43.926C21.7418 43.9397 21.7711 43.9512 21.8012 43.9603C21.8174 43.9662 21.8325 43.9748 21.849 43.9789C21.949 44.0061 22.0546 44.0061 22.1546 43.9789C22.1711 43.9744 22.1862 43.9658 22.2024 43.9603C22.2325 43.9512 22.2618 43.9397 22.29 43.926L27.316 41.1811C27.4108 41.1293 27.4899 41.053 27.545 40.9601C27.6001 40.8672 27.6292 40.7611 27.6292 40.6531V38.1599L33.1635 34.4752L37.4322 36.8055C37.4605 36.8193 37.4898 36.8308 37.5199 36.8399C37.536 36.8457 37.5512 36.8543 37.5677 36.8585C37.6677 36.8857 37.7732 36.8857 37.8732 36.8585C37.8898 36.854 37.9049 36.8454 37.921 36.8399C37.9511 36.8308 37.9804 36.8193 38.0087 36.8055L43.0343 34.062C43.1291 34.0103 43.2082 33.9339 43.2633 33.841C43.3184 33.7481 43.3475 33.6421 43.3475 33.534V28.5067C43.3459 28.4736 43.3415 28.4407 43.3344 28.4084C43.3313 28.3898 43.332 28.3702 43.3272 28.352C43.3139 28.3019 43.2941 28.2537 43.2684 28.2087C43.2598 28.1932 43.2467 28.1808 43.2364 28.1664C43.218 28.1374 43.197 28.11 43.1739 28.0846C43.1598 28.0701 43.1419 28.0602 43.1264 28.0471C43.1035 28.0259 43.0789 28.0066 43.0529 27.9894L43.0484 27.9876L43.0446 27.9849L38.3198 25.2789V18.3905L43.034 15.8172C43.1288 15.7654 43.2079 15.689 43.263 15.5961C43.3181 15.5032 43.3471 15.3972 43.3471 15.2892V10.2608C43.3458 10.2277 43.3416 10.1948 43.3348 10.1625ZM25.6413 35.698L22.0002 37.6855L18.3593 35.698L18.2052 35.6137L22.0002 33.4405L25.7952 35.6124L25.6413 35.698ZM10.7074 14.9313L6.88316 17.0186V13.3621L10.7074 11.2749V14.9313ZM6.28159 26.3205L10.0766 28.4936L9.92259 28.5779L6.28159 30.5654L2.64059 28.5779L2.48659 28.4936L6.28159 26.3205ZM11.2584 27.7841L6.88316 25.2782V18.3905L10.8686 16.2149L16.3713 19.7954V24.1844L11.2584 27.7841ZM17.5745 8.23645V4.57998L21.3987 6.66861V10.324L17.5745 8.23645ZM26.426 8.23645L22.6018 10.324V6.66861L26.426 4.58067V8.23645ZM22.0002 17.2829L25.7952 19.4561L25.6413 19.5403L22.0002 21.5279L18.3593 19.5403L18.2052 19.4561L22.0002 17.2829ZM17.5745 20.4829L21.3987 22.5705V26.228L17.5745 24.1397V20.4829ZM22.6018 22.5705L26.426 20.4829V24.1397L22.6018 26.228V22.5705ZM27.6292 19.7954L33.1319 16.2139L37.1173 18.3905V25.2785L32.7421 27.7845L27.6292 24.1844V19.7954ZM37.1167 13.3621V17.0186L33.2931 14.9313V11.2749L37.1167 13.3621ZM33.2931 33.1772V29.5204L37.1173 31.608V35.2645L33.2931 33.1772ZM41.3599 28.5779L37.7189 30.5654L34.0776 28.5779L33.9236 28.4936L37.7186 26.3205L41.5136 28.4936L41.3599 28.5779ZM37.7189 8.07455L41.5139 10.2477L41.3599 10.332L37.7189 12.3195L34.0776 10.332L33.9236 10.2477L37.7189 8.07455ZM32.111 15.4425L27.0077 18.7641L22.6018 16.241V11.6949L26.6374 9.49148L32.0897 12.9056V15.2878C32.09 15.3401 32.0972 15.3921 32.111 15.4425ZM22.0002 1.38001L25.7949 3.55355L22.1666 5.53423L22.0002 5.62498L21.8339 5.53423L18.2056 3.5532L22.0002 1.38001ZM17.3631 9.49251L21.3987 11.696V16.241L16.9928 18.7641L11.8895 15.4425C11.9032 15.3921 11.9103 15.34 11.9105 15.2878V12.9056L17.3631 9.49251ZM6.28159 8.07455L10.0766 10.2477L9.92259 10.332L6.28159 12.3195L2.64059 10.332L2.48659 10.2477L6.28159 8.07455ZM1.8565 11.2749L5.68072 13.3625V17.0186L1.8565 14.9313V11.2749ZM1.8565 29.5208L5.68072 31.6084V35.2648L1.8565 33.1772V29.5208ZM6.88384 31.6084L10.7081 29.5208V33.1772L6.88384 35.2645V31.6084ZM11.8772 33.7217C11.8987 33.6613 11.9103 33.5978 11.9115 33.5337V28.7968L17.0131 25.204L21.3987 27.5978V32.3986L16.6721 35.1046L16.6683 35.1074L16.6639 35.1091C16.6377 35.1265 16.613 35.1459 16.59 35.1672C16.5745 35.1799 16.5556 35.1902 16.5429 35.2043C16.5194 35.23 16.4983 35.2578 16.4796 35.2872C16.4697 35.3016 16.4569 35.3136 16.4483 35.3288C16.4227 35.3738 16.4029 35.422 16.3896 35.4721C16.3848 35.4896 16.3854 35.5085 16.3823 35.5264C16.3751 35.5593 16.3708 35.5928 16.3693 35.6264V36.7148L11.8772 33.7217ZM17.5745 37.8354V36.6402L21.3987 38.7278V42.3842L17.5745 40.297V37.8354ZM22.6018 42.3842V38.7281L26.426 36.6405V40.2973L22.6018 42.3842ZM27.6292 35.6264C27.6276 35.5934 27.6232 35.5605 27.6161 35.5281C27.613 35.5096 27.6137 35.49 27.6089 35.4718C27.5955 35.4216 27.5758 35.3735 27.5501 35.3284C27.5415 35.313 27.5284 35.3006 27.5181 35.2861C27.4997 35.2571 27.4787 35.2297 27.4556 35.2043C27.4415 35.1899 27.4236 35.1799 27.4081 35.1669C27.3852 35.1457 27.3606 35.1264 27.3346 35.1091L27.3301 35.1074L27.3263 35.1046L22.6018 32.3986V27.5978L26.9874 25.204L32.09 28.7968V33.534C32.0913 33.5982 32.1029 33.6617 32.1244 33.7221L27.6302 36.7151L27.6292 35.6264ZM38.3198 35.2641V31.608L42.144 29.5204V33.1772L38.3198 35.2641ZM38.3198 17.0182V13.3621L42.144 11.2749V14.9313L38.3198 17.0182Z" fill="white"/>
</svg>
