<svg width="43" height="43" viewBox="0 0 43 43" fill="none" xmlns="http://www.w3.org/2000/svg">
<g clip-path="url(#clip0)">
<path d="M21.5 25.5305C20.7582 25.5305 20.1562 24.9285 20.1562 24.1868C20.1562 23.445 20.7582 22.843 21.5 22.843H24.1875C24.9292 22.843 25.5312 22.241 25.5312 21.4993C25.5312 20.7575 24.9292 20.1555 24.1875 20.1555H22.8438V18.8118C22.8438 18.07 22.2417 17.468 21.5 17.468C20.7582 17.468 20.1562 18.07 20.1562 18.8118V20.4028C18.5948 20.9591 17.4688 22.4372 17.4688 24.1868C17.4688 26.4093 19.2774 28.218 21.5 28.218C22.2417 28.218 22.8438 28.8227 22.8438 29.5618C22.8438 30.3008 22.2417 30.9055 21.5 30.9055H18.8125C18.0707 30.9055 17.4688 31.5075 17.4688 32.2493C17.4688 32.991 18.0707 33.593 18.8125 33.593H20.1562V34.9368C20.1562 35.6785 20.7582 36.2805 21.5 36.2805C22.2417 36.2805 22.8438 35.6785 22.8438 34.9368V33.3458C24.4052 32.7895 25.5312 31.3113 25.5312 29.5618C25.5312 27.3392 23.7226 25.5305 21.5 25.5305Z" fill="white"/>
<g filter="url(#filter0_d)">
<path d="M41.6562 16.1251C42.398 16.1251 43 15.5231 43 14.7814V12.0939C43 11.5967 42.7259 11.1425 42.2878 10.9087L22.1316 0.158684C21.7365 -0.0509414 21.2635 -0.0509414 20.8657 0.158684L0.7095 10.9087C0.274125 11.1425 0 11.5967 0 12.0939V14.7814C0 15.5231 0.602 16.1251 1.34375 16.1251H5.375V37.6251H2.6875C1.20669 37.6251 0 38.8291 0 40.3126V41.6564C0 42.3981 0.602 43.0001 1.34375 43.0001H41.6562C42.398 43.0001 43 42.3981 43 41.6564V40.3126C43 38.8291 41.796 37.6251 40.3125 37.6251H37.625V16.1251H41.6562V16.1251ZM21.5 5.37512C22.9835 5.37512 24.1875 6.57912 24.1875 8.06262C24.1875 9.54612 22.9835 10.7501 21.5 10.7501C20.0165 10.7501 18.8125 9.54612 18.8125 8.06262C18.8125 6.57912 20.0165 5.37512 21.5 5.37512ZM32.25 37.6251H10.75V16.1251H32.25V37.6251Z" fill="white"/>
<path d="M5.875 16.1251V15.6251H5.375H1.34375C0.878142 15.6251 0.5 15.247 0.5 14.7814V12.0939C0.5 11.7822 0.671629 11.4969 0.945349 11.3496C0.945587 11.3494 0.945825 11.3493 0.946063 11.3492L21.0989 0.601013C21.0992 0.600845 21.0995 0.600677 21.0998 0.600509C21.3518 0.468103 21.6491 0.468928 21.8967 0.600117C21.8969 0.600197 21.8971 0.600278 21.8972 0.600358L42.0524 11.3498C42.0524 11.3498 42.0525 11.3498 42.0525 11.3499C42.3286 11.4973 42.5 11.7824 42.5 12.0939V14.7814C42.5 15.247 42.1219 15.6251 41.6562 15.6251H37.625H37.125V16.1251V37.6251V38.1251H37.625H40.3125C41.5199 38.1251 42.5 39.1053 42.5 40.3126V41.6564C42.5 42.122 42.1219 42.5001 41.6562 42.5001H1.34375C0.878142 42.5001 0.5 42.122 0.5 41.6564V40.3126C0.5 39.1056 1.4825 38.1251 2.6875 38.1251H5.375H5.875V37.6251V16.1251ZM32.25 38.1251H32.75V37.6251V16.1251V15.6251H32.25H10.75H10.25V16.1251V37.6251V38.1251H10.75H32.25ZM24.6875 8.06262C24.6875 6.30298 23.2596 4.87512 21.5 4.87512C19.7404 4.87512 18.3125 6.30298 18.3125 8.06262C18.3125 9.82226 19.7404 11.2501 21.5 11.2501C23.2596 11.2501 24.6875 9.82226 24.6875 8.06262Z" stroke="white"/>
</g>
</g>
<defs>
<filter id="filter0_d" x="-4" y="0.00146484" width="51" height="50.9987" filterUnits="userSpaceOnUse" color-interpolation-filters="sRGB">
<feFlood flood-opacity="0" result="BackgroundImageFix"/>
<feColorMatrix in="SourceAlpha" type="matrix" values="0 0 0 0 0 0 0 0 0 0 0 0 0 0 0 0 0 0 127 0"/>
<feOffset dy="4"/>
<feGaussianBlur stdDeviation="2"/>
<feColorMatrix type="matrix" values="0 0 0 0 0 0 0 0 0 0 0 0 0 0 0 0 0 0 0.25 0"/>
<feBlend mode="normal" in2="BackgroundImageFix" result="effect1_dropShadow"/>
<feBlend mode="normal" in="SourceGraphic" in2="effect1_dropShadow" result="shape"/>
</filter>
<clipPath id="clip0">
<rect width="43" height="43" fill="white"/>
</clipPath>
</defs>
</svg>
