<svg width="43" height="43" viewBox="0 0 43 43" fill="none" xmlns="http://www.w3.org/2000/svg">
<path d="M6.38281 20.1562C7.39915 20.1562 8.31905 19.7485 8.99879 19.0937L12.7279 20.958C12.7092 21.1099 12.6816 21.2592 12.6816 21.416C12.6816 23.4999 14.3771 25.1953 16.4609 25.1953C18.5448 25.1953 20.2402 23.4999 20.2402 21.416C20.2402 20.8344 20.0972 20.2898 19.8613 19.797L24.9201 14.7383C25.4128 14.9742 25.9574 15.1172 26.5391 15.1172C28.6229 15.1172 30.3184 13.4218 30.3184 11.3379C30.3184 10.9455 30.2413 10.5745 30.1297 10.2185L34.5251 6.92281C35.1248 7.32337 35.8436 7.55859 36.6172 7.55859C38.701 7.55859 40.3965 5.86316 40.3965 3.7793C40.3965 1.69543 38.701 0 36.6172 0C34.5333 0 32.8379 1.69543 32.8379 3.7793C32.8379 4.17166 32.915 4.5427 33.0265 4.89865L28.6311 8.19438C28.0314 7.79382 27.3126 7.55859 26.5391 7.55859C24.4552 7.55859 22.7598 9.25403 22.7598 11.3379C22.7598 11.9195 22.9028 12.4641 23.1387 12.9569L18.0799 18.0156C17.5872 17.7798 17.0426 17.6367 16.4609 17.6367C15.4446 17.6367 14.5247 18.0445 13.845 18.6993L10.1159 16.8349C10.1346 16.683 10.1621 16.5338 10.1621 16.377C10.1621 14.2931 8.46667 12.5977 6.38281 12.5977C4.29895 12.5977 2.60352 14.2931 2.60352 16.377C2.60352 18.4608 4.29895 20.1562 6.38281 20.1562Z" fill="white"/>
<path d="M41.7402 40.4805H40.3965V13.8574C40.3965 13.1613 39.8329 12.5977 39.1367 12.5977H34.0977C33.4015 12.5977 32.8379 13.1613 32.8379 13.8574V40.4805H30.3184V21.416C30.3184 20.7199 29.7547 20.1562 29.0586 20.1562H24.0195C23.3234 20.1562 22.7598 20.7199 22.7598 21.416V40.4805H20.2402V31.4941C20.2402 30.798 19.6766 30.2344 18.9805 30.2344H13.9414C13.2453 30.2344 12.6816 30.798 12.6816 31.4941V40.4805H10.1621V26.4551C10.1621 25.7589 9.5985 25.1953 8.90234 25.1953H3.86328C3.16713 25.1953 2.60352 25.7589 2.60352 26.4551V40.4805H1.25977C0.563614 40.4805 0 41.0441 0 41.7402C0 42.4364 0.563614 43 1.25977 43H41.7402C42.4364 43 43 42.4364 43 41.7402C43 41.0441 42.4364 40.4805 41.7402 40.4805Z" fill="white"/>
</svg>
