<svg width="35" height="43" viewBox="0 0 35 43" fill="none" xmlns="http://www.w3.org/2000/svg">
<path d="M20.1588 7.55859H14.2748C12.4431 9.64642 10.1436 11.2547 7.5586 12.26V19.9673C7.5586 26.4853 11.332 32.3306 17.2168 35.0063C23.1016 32.3306 26.875 26.4853 26.875 19.9673V12.2609C24.2891 11.2556 21.9905 9.64732 20.1588 7.55859ZM23.9868 18.3951L16.1477 26.2334C15.9016 26.4795 15.5791 26.6029 15.2574 26.6029C14.9349 26.6029 14.6124 26.4794 14.3664 26.2334L10.4468 22.3147C9.9555 21.8226 9.9555 21.0247 10.4468 20.5326C10.939 20.0413 11.7368 20.0413 12.229 20.5326L15.2574 23.561L22.2055 16.6138C22.6968 16.1217 23.4946 16.1217 23.9868 16.6138C24.4781 17.1059 24.4781 17.9029 23.9868 18.3951ZM33.1663 5.8789C29.5348 5.8789 26.2275 3.88344 24.5327 0.671875C24.3151 0.258672 23.886 0 23.419 0H11.0145C10.5475 0 10.1184 0.258672 9.9 0.671875C8.20612 3.88344 4.89881 5.8789 1.25977 5.8789C0.564375 5.8789 0 6.44329 0 7.13868V19.9673C0 25.1247 1.61166 30.0496 4.6603 34.2093C7.70893 38.3691 11.9191 41.3882 16.8372 42.9412C16.9606 42.9807 17.0891 43 17.2168 43C17.3445 43 17.473 42.9807 17.5964 42.9412C22.5146 41.3883 26.7247 38.3692 29.7733 34.2093C32.8219 30.0495 34.4336 25.1247 34.4336 19.9673V7.13868C34.4336 6.44329 33.8617 5.8789 33.1663 5.8789ZM29.3945 19.9102C29.3945 27.625 24.8048 34.5243 17.7014 37.4864C17.546 37.5512 17.3814 37.583 17.2168 37.583C17.0522 37.583 16.8867 37.5511 16.7322 37.4864C9.62881 34.5243 5.03907 27.6249 5.03907 19.9102V11.3169C5.03907 10.7727 5.38844 10.2897 5.90578 10.1201C8.57901 9.2408 10.9339 7.6241 12.7152 5.44471C12.9546 5.15161 13.3132 4.98196 13.6911 4.98196H20.7425C21.1288 4.98196 21.584 5.28094 21.7183 5.44471C23.4996 7.6241 25.8545 9.2408 28.5277 10.1201C28.8965 10.241 29.1786 10.5207 29.3113 10.8692C29.3131 10.8726 29.3138 10.8768 29.3155 10.8802C29.3475 10.9667 29.3701 11.0574 29.3828 11.1506C29.3836 11.1598 29.3852 11.1699 29.3861 11.1791C29.3912 11.2245 29.3945 11.2698 29.3945 11.3169V19.9102Z" fill="white"/>
</svg>
