<svg width="43" height="43" viewBox="0 0 43 43" fill="none" xmlns="http://www.w3.org/2000/svg">
<g clip-path="url(#clip0)">
<path d="M28.3184 4.12305H23.0472C22.5255 2.65987 21.1402 1.60352 19.5 1.60352C17.416 1.60352 15.7207 3.29882 15.7207 5.38281C15.7207 7.02303 16.7771 8.40827 18.2402 8.93006V14.2012H13.2012V19.2402H7.93006C7.54944 18.173 6.70985 17.3334 5.64258 16.9528V11.6816H10.6816V-1H-2V11.6816H3.12305V16.9528C1.65987 17.4745 0.603516 18.8598 0.603516 20.5C0.603516 22.584 2.29882 24.2793 4.38281 24.2793C6.02303 24.2793 7.40827 23.2229 7.93006 21.7598H13.2012V26.7988H18.2402V32.0699C17.173 32.4506 16.3334 33.2901 15.9528 34.3574H10.6816V29.3184H-2V42H10.6816V36.877H15.9528C16.4745 38.3401 17.8598 39.4805 19.5 39.4805C21.584 39.4805 23.2793 37.7012 23.2793 35.6172C23.2793 33.977 22.2229 32.5917 20.7598 32.0699V26.7988H25.7988V21.7598H31.0699C31.4506 22.827 32.2901 23.6666 33.3574 24.0472V29.3184H28.3184V42H41V29.3184H35.877V24.0472C37.3401 23.5255 38.3965 22.1402 38.3965 20.5C38.3965 18.416 36.7012 16.7207 34.6172 16.7207C32.977 16.7207 31.5917 17.7771 31.0699 19.2402H25.7988V14.2012H20.7598V8.93006C21.827 8.54944 22.6666 7.70985 23.0472 6.64258H28.3184V11.6816H41V-1H28.3184V4.12305ZM3.12305 4.12305H5.64258V6.64258H3.12305V4.12305ZM5.64258 36.877H3.12305V34.3574H5.64258V36.877ZM35.877 36.877H33.3574V34.3574H35.877V36.877ZM20.7598 21.7598H18.2402V19.2402H20.7598V21.7598ZM33.3574 4.12305H35.877V6.64258H33.3574V4.12305Z" fill="white"/>
</g>
<defs>
<clipPath id="clip0">
<rect width="43" height="43" fill="white"/>
</clipPath>
</defs>
</svg>
