<svg width="166" height="196" viewBox="0 0 166 196" fill="none" xmlns="http://www.w3.org/2000/svg">
<g clip-path="url(#clip0)">
<path d="M15.7795 62.5081C13.8859 61.4486 12.2028 62.2962 12.2028 64.627C12.2028 66.9578 13.8859 69.7124 15.7795 70.7719C17.673 71.8313 19.3561 70.9838 19.3561 68.653C19.3561 66.3221 17.8834 63.5675 15.7795 62.5081ZM64.801 90.9016C62.9075 89.8421 61.2243 90.6897 61.2243 93.0205C61.2243 95.3513 62.9075 98.1059 64.801 99.1654C66.6945 100.225 68.3777 99.3773 68.3777 97.0465C68.3777 94.9275 66.9049 92.173 64.801 90.9016ZM52.5982 83.9092C50.7047 82.8497 49.0215 83.6973 49.0215 86.0281C49.0215 88.3589 50.7047 91.1135 52.5982 92.173C54.4918 93.2324 56.1749 92.3848 56.1749 90.054C56.1749 87.7232 54.4918 84.9686 52.5982 83.9092ZM27.9823 69.5005C26.0887 68.4411 24.4056 69.2886 24.4056 71.6194C24.4056 73.9502 26.0887 76.7048 27.9823 77.7643C29.8758 78.8238 31.5589 77.9762 31.5589 75.6454C31.5589 73.5265 30.0862 70.7719 27.9823 69.5005ZM40.3954 76.7048C38.5019 75.6454 36.8188 76.493 36.8188 78.8238C36.8188 81.1546 38.5019 83.9092 40.3954 84.9686C42.289 86.0281 43.9721 85.1805 43.9721 82.8497C43.9721 80.7308 42.289 77.7643 40.3954 76.7048ZM77.0038 106.37C78.8973 107.429 80.5805 106.582 80.5805 104.251C80.5805 101.92 78.8973 99.1654 77.0038 98.1059C75.1103 97.0465 73.4271 97.894 73.4271 100.225C73.4271 102.344 75.1103 105.098 77.0038 106.37ZM3.57668 55.3038C1.68314 54.2443 0 55.0919 0 57.4227C0 59.7535 1.68314 62.5081 3.57668 63.5675C5.47022 64.627 7.15336 63.7794 7.15336 61.4486C7.15336 59.3297 5.47022 56.5751 3.57668 55.3038ZM52.5982 98.7416C50.7047 97.6821 49.0215 98.5297 49.0215 100.861C49.0215 103.191 50.7047 105.946 52.5982 107.005C54.4918 108.065 56.1749 107.217 56.1749 104.886C56.1749 102.556 54.4918 99.8011 52.5982 98.7416ZM77.0038 112.938C75.1103 111.879 73.4271 112.726 73.4271 115.057C73.4271 117.388 75.1103 120.143 77.0038 121.202C78.8973 122.262 80.5805 121.414 80.5805 119.083C80.5805 116.752 79.1077 113.998 77.0038 112.938ZM27.9823 84.3329C26.0887 83.2735 24.4056 84.1211 24.4056 86.4519C24.4056 88.7827 26.0887 91.5373 27.9823 92.5967C29.8758 93.6562 31.5589 92.8086 31.5589 90.4778C31.5589 88.3589 30.0862 85.6043 27.9823 84.3329ZM15.7795 77.3405C13.8859 76.2811 12.2028 77.1286 12.2028 79.4594C12.2028 81.7902 13.8859 84.5448 15.7795 85.6043C17.673 86.6638 19.3561 85.8162 19.3561 83.4854C19.3561 81.1546 17.8834 78.4 15.7795 77.3405ZM40.3954 91.5373C38.5019 90.4778 36.8188 91.3254 36.8188 93.6562C36.8188 95.987 38.5019 98.7416 40.3954 99.8011C42.289 100.861 43.9721 100.013 43.9721 97.6821C43.9721 95.5632 42.289 92.5967 40.3954 91.5373ZM64.801 105.734C62.9075 104.675 61.2243 105.522 61.2243 107.853C61.2243 110.184 62.9075 112.938 64.801 113.998C66.6945 115.057 68.3777 114.21 68.3777 111.879C68.3777 109.76 66.9049 107.005 64.801 105.734ZM3.57668 70.1362C1.68314 69.0767 0 69.9243 0 72.2551C0 74.5859 1.68314 77.3405 3.57668 78.4C5.47022 79.4594 7.15336 78.6119 7.15336 76.2811C7.15336 74.1621 5.47022 71.4075 3.57668 70.1362ZM40.3954 106.37C38.5019 105.31 36.8188 106.158 36.8188 108.489C36.8188 110.819 38.5019 113.574 40.3954 114.633C42.289 115.693 43.9721 114.845 43.9721 112.515C43.9721 110.396 42.289 107.641 40.3954 106.37ZM3.57668 84.9686C1.68314 83.9092 0 84.7567 0 87.0875C0 89.4184 1.68314 92.173 3.57668 93.2324C5.47022 94.2919 7.15336 93.4443 7.15336 91.1135C7.15336 88.9946 5.47022 86.24 3.57668 84.9686ZM15.7795 92.173C13.8859 91.1135 12.2028 91.9611 12.2028 94.2919C12.2028 96.6227 13.8859 99.3773 15.7795 100.437C17.673 101.496 19.3561 100.649 19.3561 98.3178C19.3561 95.987 17.8834 93.2324 15.7795 92.173ZM27.9823 99.3773C26.0887 98.3178 24.4056 99.1654 24.4056 101.496C24.4056 103.827 26.0887 106.582 27.9823 107.641C29.8758 108.701 31.5589 107.853 31.5589 105.522C31.5589 103.191 30.0862 100.437 27.9823 99.3773ZM64.801 120.566C62.9075 119.507 61.2243 120.355 61.2243 122.685C61.2243 125.016 62.9075 127.771 64.801 128.83C66.6945 129.89 68.3777 129.042 68.3777 126.711C68.3777 124.592 66.9049 121.838 64.801 120.566ZM52.5982 113.574C50.7047 112.515 49.0215 113.362 49.0215 115.693C49.0215 118.024 50.7047 120.778 52.5982 121.838C54.4918 122.897 56.1749 122.05 56.1749 119.719C56.1749 117.388 54.4918 114.633 52.5982 113.574ZM77.0038 127.771C75.1103 126.711 73.4271 127.559 73.4271 129.89C73.4271 132.221 75.1103 134.975 77.0038 136.035C78.8973 137.094 80.5805 136.246 80.5805 133.916C80.5805 131.797 79.1077 128.83 77.0038 127.771ZM27.9823 114.21C26.0887 113.15 24.4056 113.998 24.4056 116.329C24.4056 118.659 26.0887 121.414 27.9823 122.473C29.8758 123.533 31.5589 122.685 31.5589 120.355C31.5589 118.024 30.0862 115.269 27.9823 114.21ZM77.0038 142.603C75.1103 141.544 73.4271 142.391 73.4271 144.722C73.4271 147.053 75.1103 149.808 77.0038 150.867C78.8973 151.926 80.5805 151.079 80.5805 148.748C80.5805 146.629 79.1077 143.875 77.0038 142.603ZM3.57668 99.8011C1.68314 98.7416 0 99.5892 0 101.92C0 104.251 1.68314 107.005 3.57668 108.065C5.47022 109.124 7.15336 108.277 7.15336 105.946C7.15336 103.827 5.47022 101.072 3.57668 99.8011ZM64.801 135.611C62.9075 134.551 61.2243 135.399 61.2243 137.73C61.2243 140.061 62.9075 142.815 64.801 143.875C66.6945 144.934 68.3777 144.086 68.3777 141.756C68.3777 139.425 66.9049 136.67 64.801 135.611ZM40.3954 121.202C38.5019 120.143 36.8188 120.99 36.8188 123.321C36.8188 125.652 38.5019 128.406 40.3954 129.466C42.289 130.525 43.9721 129.678 43.9721 127.347C43.9721 125.228 42.289 122.474 40.3954 121.202ZM52.5982 128.406C50.7047 127.347 49.0215 128.195 49.0215 130.525C49.0215 132.856 50.7047 135.611 52.5982 136.67C54.4918 137.73 56.1749 136.882 56.1749 134.551C56.1749 132.221 54.4918 129.466 52.5982 128.406ZM15.7795 107.005C13.8859 105.946 12.2028 106.793 12.2028 109.124C12.2028 111.455 13.8859 114.21 15.7795 115.269C17.673 116.329 19.3561 115.481 19.3561 113.15C19.3561 110.819 17.8834 108.065 15.7795 107.005ZM27.9823 129.042C26.0887 127.983 24.4056 128.83 24.4056 131.161C24.4056 133.492 26.0887 136.246 27.9823 137.306C29.8758 138.365 31.5589 137.518 31.5589 135.187C31.5589 132.856 30.0862 130.102 27.9823 129.042ZM15.7795 121.838C13.8859 120.778 12.2028 121.626 12.2028 123.957C12.2028 126.288 13.8859 129.042 15.7795 130.102C17.673 131.161 19.3561 130.314 19.3561 127.983C19.3561 125.652 17.8834 123.109 15.7795 121.838ZM77.0038 157.436C75.1103 156.376 73.4271 157.224 73.4271 159.555C73.4271 161.885 75.1103 164.64 77.0038 165.699C78.8973 166.759 80.5805 165.911 80.5805 163.581C80.5805 161.462 79.1077 158.707 77.0038 157.436ZM52.5982 143.239C50.7047 142.179 49.0215 143.027 49.0215 145.358C49.0215 147.689 50.7047 150.443 52.5982 151.503C54.4918 152.562 56.1749 151.715 56.1749 149.384C56.1749 147.265 54.4918 144.298 52.5982 143.239ZM40.3954 136.035C38.5019 134.975 36.8188 135.823 36.8188 138.153C36.8188 140.484 38.5019 143.239 40.3954 144.298C42.289 145.358 43.9721 144.51 43.9721 142.179C43.9721 140.061 42.289 137.306 40.3954 136.035ZM64.801 150.443C62.9075 149.384 61.2243 150.231 61.2243 152.562C61.2243 154.893 62.9075 157.648 64.801 158.707C66.6945 159.766 68.3777 158.919 68.3777 156.588C68.3777 154.257 66.9049 151.503 64.801 150.443ZM3.57668 114.845C1.68314 113.574 0 114.422 0 116.752C0 119.083 1.68314 121.838 3.57668 122.897C5.47022 123.957 7.15336 123.109 7.15336 120.778C7.15336 118.659 5.47022 115.905 3.57668 114.845ZM3.57668 129.678C1.68314 128.618 0 129.466 0 131.797C0 134.128 1.68314 136.882 3.57668 137.942C5.47022 139.001 7.15336 138.153 7.15336 135.823C7.15336 133.492 5.47022 130.737 3.57668 129.678ZM15.7795 136.67C13.8859 135.611 12.2028 136.458 12.2028 138.789C12.2028 141.12 13.8859 143.875 15.7795 144.934C17.673 145.994 19.3561 145.146 19.3561 142.815C19.3561 140.696 17.8834 137.942 15.7795 136.67ZM52.5982 158.071C50.7047 157.012 49.0215 157.859 49.0215 160.19C49.0215 162.521 50.7047 165.276 52.5982 166.335C54.4918 167.395 56.1749 166.547 56.1749 164.216C56.1749 162.097 54.4918 159.343 52.5982 158.071ZM77.0038 172.268C75.1103 171.209 73.4271 172.056 73.4271 174.387C73.4271 176.718 75.1103 179.472 77.0038 180.532C78.8973 181.591 80.5805 180.744 80.5805 178.413C80.5805 176.294 79.1077 173.539 77.0038 172.268ZM64.801 165.276C62.9075 164.216 61.2243 165.064 61.2243 167.395C61.2243 169.725 62.9075 172.48 64.801 173.539C66.6945 174.599 68.3777 173.751 68.3777 171.421C68.3777 169.09 66.9049 166.335 64.801 165.276ZM40.3954 150.867C38.5019 149.808 36.8188 150.655 36.8188 152.986C36.8188 155.317 38.5019 158.071 40.3954 159.131C42.289 160.19 43.9721 159.343 43.9721 157.012C43.9721 154.893 42.289 152.138 40.3954 150.867ZM27.9823 143.875C26.0887 142.815 24.4056 143.663 24.4056 145.994C24.4056 148.324 26.0887 151.079 27.9823 152.138C29.8758 153.198 31.5589 152.35 31.5589 150.019C31.5589 147.689 30.0862 144.934 27.9823 143.875ZM77.0038 187.101C75.1103 186.041 73.4271 186.889 73.4271 189.219C73.4271 191.55 75.1103 194.305 77.0038 195.364C78.8973 196.424 80.5805 195.576 80.5805 193.245C80.5805 191.126 79.1077 188.372 77.0038 187.101ZM52.5982 172.904C50.7047 171.844 49.0215 172.692 49.0215 175.023C49.0215 177.354 50.7047 180.108 52.5982 181.168C54.4918 182.227 56.1749 181.379 56.1749 179.049C56.1749 176.718 54.4918 174.175 52.5982 172.904ZM15.7795 151.503C13.8859 150.443 12.2028 151.291 12.2028 153.622C12.2028 155.952 13.8859 158.707 15.7795 159.766C17.673 160.826 19.3561 159.978 19.3561 157.648C19.3561 155.529 17.8834 152.774 15.7795 151.503ZM3.57668 144.51C1.68314 143.451 0 144.298 0 146.629C0 148.96 1.68314 151.715 3.57668 152.774C5.47022 153.834 7.15336 152.986 7.15336 150.655C7.15336 148.324 5.47022 145.57 3.57668 144.51ZM40.3954 165.911C38.5019 164.852 36.8188 165.699 36.8188 168.03C36.8188 170.361 38.5019 173.116 40.3954 174.175C42.289 175.235 43.9721 174.387 43.9721 172.056C43.9721 169.725 42.289 166.971 40.3954 165.911ZM27.9823 158.707C26.0887 157.648 24.4056 158.495 24.4056 160.826C24.4056 163.157 26.0887 165.911 27.9823 166.971C29.8758 168.03 31.5589 167.183 31.5589 164.852C31.5589 162.733 30.0862 159.766 27.9823 158.707ZM64.801 180.108C62.9075 179.049 61.2243 179.896 61.2243 182.227C61.2243 184.558 62.9075 187.312 64.801 188.372C66.6945 189.431 68.3777 188.584 68.3777 186.253C68.3777 183.922 66.9049 181.168 64.801 180.108Z" fill="url(#paint0_linear)"/>
<path d="M138.018 68.4412C136.124 69.5006 134.441 72.4671 134.441 74.5861C134.441 76.9169 136.124 77.7644 138.018 76.705C139.911 75.6455 141.595 72.679 141.595 70.5601C141.595 68.2293 139.911 67.3817 138.018 68.4412ZM88.9963 97.0466C87.1028 98.106 85.4196 101.073 85.4196 103.191C85.4196 105.522 87.1028 106.37 88.9963 105.31C90.8898 104.251 92.573 101.284 92.573 99.1655C92.573 97.0466 90.8898 95.7752 88.9963 97.0466ZM113.402 82.6379C111.508 83.6974 109.825 86.6639 109.825 88.7828C109.825 91.1136 111.508 91.9612 113.402 90.9017C115.295 89.8423 116.979 86.8758 116.979 84.7569C116.979 82.426 115.506 81.5785 113.402 82.6379ZM101.199 89.8423C99.3055 90.9017 97.6224 93.8682 97.6224 95.9871C97.6224 98.3179 99.3055 99.1655 101.199 98.106C103.093 97.0466 104.776 94.0801 104.776 91.9612C104.776 89.6304 103.303 88.7828 101.199 89.8423ZM150.221 61.2369C148.327 62.2963 146.644 65.2628 146.644 67.3817C146.644 69.7125 148.327 70.5601 150.221 69.5006C152.114 68.4412 153.797 65.4747 153.797 63.3558C153.797 61.025 152.325 60.1774 150.221 61.2369ZM125.815 75.6455C123.922 76.705 122.238 79.6714 122.238 81.7904C122.238 83.9093 123.922 84.9687 125.815 83.9093C127.709 82.8498 129.392 79.8833 129.392 77.7644C129.392 75.4336 127.709 74.3742 125.815 75.6455ZM162.423 62.5082C164.317 61.4488 166 58.4823 166 56.3633C166 54.0325 164.317 53.185 162.423 54.2444C160.53 55.3039 158.847 58.2704 158.847 60.3893C158.847 62.7201 160.53 63.5677 162.423 62.5082ZM125.815 90.4779C123.922 91.5374 122.238 94.5039 122.238 96.6228C122.238 98.9536 123.922 99.8012 125.815 98.7417C127.709 97.6823 129.392 94.7158 129.392 92.5969C129.392 90.266 127.709 89.2066 125.815 90.4779ZM150.221 76.2812C148.327 77.3406 146.644 80.3071 146.644 82.4261C146.644 84.545 148.327 85.6044 150.221 84.545C152.114 83.4855 153.797 80.519 153.797 78.4001C153.797 76.0693 152.325 75.0098 150.221 76.2812ZM162.423 69.0769C160.53 70.1363 158.847 73.1028 158.847 75.2217C158.847 77.3406 160.53 78.4001 162.423 77.3406C164.317 76.2812 166 73.3147 166 71.1958C166 68.865 164.527 68.0174 162.423 69.0769ZM138.018 83.2736C136.124 84.3331 134.441 87.2996 134.441 89.4185C134.441 91.5374 136.124 92.5969 138.018 91.5374C139.911 90.4779 141.595 87.5115 141.595 85.3925C141.595 83.0617 139.911 82.2142 138.018 83.2736ZM101.199 104.675C99.3055 105.734 97.6224 108.701 97.6224 110.82C97.6224 113.15 99.3055 113.998 101.199 112.938C103.093 111.879 104.776 108.913 104.776 106.794C104.776 104.463 103.303 103.615 101.199 104.675ZM88.9963 111.879C87.1028 112.938 85.4196 115.905 85.4196 118.024C85.4196 120.355 87.1028 121.202 88.9963 120.143C90.8898 119.083 92.573 116.117 92.573 113.998C92.573 111.879 90.8898 110.608 88.9963 111.879ZM113.402 97.4704C111.508 98.5298 109.825 101.496 109.825 103.615C109.825 105.946 111.508 106.794 113.402 105.734C115.295 104.675 116.979 101.708 116.979 99.5893C116.979 97.2585 115.506 96.4109 113.402 97.4704ZM162.423 83.9093C160.53 84.9687 158.847 87.9352 158.847 90.0542C158.847 92.385 160.53 93.2325 162.423 92.1731C164.317 91.1136 166 88.1471 166 86.0282C166 83.6974 164.527 82.8498 162.423 83.9093ZM113.402 112.515C111.508 113.574 109.825 116.541 109.825 118.66C109.825 120.99 111.508 121.838 113.402 120.778C115.295 119.719 116.979 116.753 116.979 114.634C116.979 112.091 115.506 111.243 113.402 112.515ZM125.815 105.31C123.922 106.37 122.238 109.336 122.238 111.455C122.238 113.786 123.922 114.634 125.815 113.574C127.709 112.515 129.392 109.548 129.392 107.429C129.392 105.098 127.709 104.251 125.815 105.31ZM88.9963 126.711C87.1028 127.771 85.4196 130.737 85.4196 132.856C85.4196 135.187 87.1028 136.035 88.9963 134.975C90.8898 133.916 92.573 130.949 92.573 128.83C92.573 126.5 90.8898 125.44 88.9963 126.711ZM101.199 119.507C99.3055 120.567 97.6224 123.533 97.6224 125.652C97.6224 127.983 99.3055 128.83 101.199 127.771C103.093 126.711 104.776 123.745 104.776 121.626C104.776 119.295 103.303 118.448 101.199 119.507ZM150.221 91.1136C148.327 92.1731 146.644 95.1396 146.644 97.2585C146.644 99.5893 148.327 100.437 150.221 99.3774C152.114 98.3179 153.797 95.3515 153.797 93.2325C153.797 90.9017 152.325 89.8423 150.221 91.1136ZM138.018 98.106C136.124 99.1655 134.441 102.132 134.441 104.251C134.441 106.582 136.124 107.429 138.018 106.37C139.911 105.31 141.595 102.344 141.595 100.225C141.595 97.8941 139.911 97.0466 138.018 98.106ZM113.402 127.347C111.508 128.407 109.825 131.373 109.825 133.492C109.825 135.823 111.508 136.67 113.402 135.611C115.295 134.551 116.979 131.585 116.979 129.466C116.979 127.135 115.506 126.076 113.402 127.347ZM101.199 134.34C99.3055 135.399 97.6224 138.366 97.6224 140.484C97.6224 142.815 99.3055 143.663 101.199 142.603C103.093 141.544 104.776 138.577 104.776 136.458C104.776 134.128 103.303 133.28 101.199 134.34ZM88.9963 141.544C87.1028 142.603 85.4196 145.57 85.4196 147.689C85.4196 149.808 87.1028 150.867 88.9963 149.808C90.8898 148.748 92.573 145.782 92.573 143.663C92.573 141.332 90.8898 140.273 88.9963 141.544ZM138.018 112.938C136.124 113.998 134.441 116.964 134.441 119.083C134.441 121.414 136.124 122.262 138.018 121.202C139.911 120.143 141.595 117.176 141.595 115.057C141.595 112.938 139.911 111.879 138.018 112.938ZM125.815 120.143C123.922 121.202 122.238 124.169 122.238 126.288C122.238 128.618 123.922 129.466 125.815 128.407C127.709 127.347 129.392 124.381 129.392 122.262C129.392 119.931 127.709 119.083 125.815 120.143ZM150.221 105.946C148.327 107.006 146.644 109.972 146.644 112.091C146.644 114.422 148.327 115.269 150.221 114.21C152.114 113.15 153.797 110.184 153.797 108.065C153.797 105.734 152.325 104.675 150.221 105.946ZM162.423 98.7417C160.53 99.8012 158.847 102.768 158.847 104.887C158.847 107.217 160.53 108.065 162.423 107.006C164.317 105.946 166 102.98 166 100.861C166 98.7417 164.527 97.6823 162.423 98.7417ZM101.199 149.172C99.3055 150.231 97.6224 153.198 97.6224 155.317C97.6224 157.648 99.3055 158.495 101.199 157.436C103.093 156.376 104.776 153.41 104.776 151.291C104.776 148.96 103.303 148.113 101.199 149.172ZM88.9963 156.376C87.1028 157.436 85.4196 160.402 85.4196 162.521C85.4196 164.852 87.1028 165.7 88.9963 164.64C90.8898 163.581 92.573 160.614 92.573 158.495C92.573 156.164 90.8898 155.317 88.9963 156.376ZM162.423 113.574C160.53 114.634 158.847 117.6 158.847 119.719C158.847 122.05 160.53 122.897 162.423 121.838C164.317 120.778 166 117.812 166 115.693C166 113.362 164.527 112.515 162.423 113.574ZM150.221 120.778C148.327 121.838 146.644 124.804 146.644 126.923C146.644 129.254 148.327 130.102 150.221 129.042C152.114 127.983 153.797 125.016 153.797 122.897C153.797 120.567 152.325 119.507 150.221 120.778ZM138.018 127.983C136.124 129.042 134.441 132.009 134.441 134.128C134.441 136.458 136.124 137.306 138.018 136.247C139.911 135.187 141.595 132.221 141.595 130.102C141.595 127.559 139.911 126.711 138.018 127.983ZM113.402 142.18C111.508 143.239 109.825 146.205 109.825 148.324C109.825 150.655 111.508 151.503 113.402 150.443C115.295 149.384 116.979 146.417 116.979 144.298C116.979 141.968 115.506 140.908 113.402 142.18ZM125.815 134.975C123.922 136.035 122.238 139.001 122.238 141.12C122.238 143.451 123.922 144.298 125.815 143.239C127.709 142.18 129.392 139.213 129.392 137.094C129.392 134.763 127.709 133.916 125.815 134.975ZM138.018 142.815C136.124 143.875 134.441 146.841 134.441 148.96C134.441 151.291 136.124 152.138 138.018 151.079C139.911 150.02 141.595 147.053 141.595 144.934C141.595 142.603 139.911 141.544 138.018 142.815ZM88.9963 171.209C87.1028 172.268 85.4196 175.235 85.4196 177.354C85.4196 179.473 87.1028 180.532 88.9963 179.473C90.8898 178.413 92.573 175.447 92.573 173.328C92.573 170.997 90.8898 170.149 88.9963 171.209ZM101.199 164.004C99.3055 165.064 97.6224 168.03 97.6224 170.149C97.6224 172.268 99.3055 173.328 101.199 172.268C103.093 171.209 104.776 168.242 104.776 166.123C104.776 163.793 103.303 162.945 101.199 164.004ZM162.423 128.407C160.53 129.466 158.847 132.433 158.847 134.551C158.847 136.882 160.53 137.73 162.423 136.67C164.317 135.611 166 132.644 166 130.525C166 128.407 164.527 127.347 162.423 128.407ZM125.815 149.808C123.922 150.867 122.238 153.834 122.238 155.953C122.238 158.283 123.922 159.131 125.815 158.071C127.709 157.012 129.392 154.045 129.392 151.927C129.392 149.596 127.709 148.748 125.815 149.808ZM113.402 157.012C111.508 158.071 109.825 161.038 109.825 163.157C109.825 165.276 111.508 166.335 113.402 165.276C115.295 164.216 116.979 161.25 116.979 159.131C116.979 156.8 115.506 155.741 113.402 157.012ZM150.221 135.611C148.327 136.67 146.644 139.637 146.644 141.756C146.644 144.087 148.327 144.934 150.221 143.875C152.114 142.815 153.797 139.849 153.797 137.73C153.797 135.399 152.325 134.551 150.221 135.611ZM88.9963 186.041C87.1028 187.101 85.4196 190.067 85.4196 192.186C85.4196 194.517 87.1028 195.364 88.9963 194.305C90.8898 193.245 92.573 190.279 92.573 188.16C92.573 185.829 90.8898 184.982 88.9963 186.041ZM113.402 171.844C111.508 172.904 109.825 175.87 109.825 177.989C109.825 180.32 111.508 181.168 113.402 180.108C115.295 179.049 116.979 176.082 116.979 173.963C116.979 171.633 115.506 170.785 113.402 171.844ZM125.815 164.64C123.922 165.7 122.238 168.666 122.238 170.785C122.238 172.904 123.922 173.963 125.815 172.904C127.709 171.844 129.392 168.878 129.392 166.759C129.392 164.428 127.709 163.581 125.815 164.64ZM138.018 157.648C136.124 158.707 134.441 161.674 134.441 163.793C134.441 166.123 136.124 166.971 138.018 165.911C139.911 164.852 141.595 161.885 141.595 159.767C141.595 157.436 139.911 156.376 138.018 157.648ZM150.221 150.443C148.327 151.503 146.644 154.469 146.644 156.588C146.644 158.919 148.327 159.767 150.221 158.707C152.114 157.648 153.797 154.681 153.797 152.562C153.797 150.231 152.325 149.384 150.221 150.443ZM162.423 143.451C160.53 144.51 158.847 147.477 158.847 149.596C158.847 151.927 160.53 152.774 162.423 151.715C164.317 150.655 166 147.689 166 145.57C166 143.027 164.527 142.18 162.423 143.451ZM101.199 179.049C99.3055 180.108 97.6224 183.075 97.6224 185.194C97.6224 187.524 99.3055 188.372 101.199 187.313C103.093 186.253 104.776 183.287 104.776 181.168C104.776 178.837 103.303 177.777 101.199 179.049Z" fill="url(#paint1_linear)"/>
<path d="M82.474 5.08541C84.3675 6.14487 87.7338 6.14487 89.6273 5.08541C91.5209 4.02595 91.5209 2.11892 89.6273 0.847573C87.7338 -0.211886 84.3675 -0.211886 82.474 0.847573C80.3701 1.90703 80.3701 3.81406 82.474 5.08541ZM114.033 15.0443C112.139 13.9849 108.773 13.9849 106.88 15.0443C104.986 16.1038 104.986 18.0108 106.88 19.2822C108.773 20.3416 112.139 20.3416 114.033 19.2822C115.926 18.2227 115.926 16.3157 114.033 15.0443ZM101.83 8.0519C99.9366 6.99244 96.5703 6.99244 94.6768 8.0519C92.7832 9.11136 92.7832 11.0184 94.6768 12.2897C96.5703 13.3492 99.9366 13.3492 101.83 12.2897C103.724 11.0184 103.724 9.11136 101.83 8.0519ZM126.236 22.2487C124.342 21.1892 120.976 21.1892 119.082 22.2487C117.189 23.3081 117.189 25.2151 119.082 26.4865C120.976 27.546 124.342 27.546 126.236 26.4865C128.34 25.2151 128.34 23.3081 126.236 22.2487ZM163.054 43.6497C161.161 42.5903 157.795 42.5903 155.901 43.6497C154.008 44.7092 154.008 46.6162 155.901 47.8876C157.795 48.947 161.161 48.947 163.054 47.8876C164.948 46.6162 164.948 44.7092 163.054 43.6497ZM150.852 36.4454C148.958 35.386 145.592 35.386 143.698 36.4454C141.805 37.5049 141.805 39.4119 143.698 40.6833C145.592 41.7427 148.958 41.7427 150.852 40.6833C152.745 39.4119 152.745 37.7168 150.852 36.4454ZM138.439 29.453C136.545 28.3935 133.179 28.3935 131.285 29.453C129.392 30.5124 129.392 32.4195 131.285 33.6908C133.179 34.7503 136.545 34.7503 138.439 33.6908C140.542 32.4195 140.542 30.5124 138.439 29.453ZM113.612 29.6649C111.719 28.6054 108.352 28.6054 106.459 29.6649C104.565 30.7243 104.565 32.6314 106.459 33.9027C108.352 34.9622 111.719 34.9622 113.612 33.9027C115.506 32.6314 115.506 30.7243 113.612 29.6649ZM138.018 43.8616C136.124 42.8022 132.758 42.8022 130.864 43.8616C128.971 44.9211 128.971 46.8281 130.864 48.0995C132.758 49.1589 136.124 49.1589 138.018 48.0995C139.911 46.8281 139.911 45.133 138.018 43.8616ZM101.199 22.4606C99.3054 21.4011 95.9391 21.4011 94.0456 22.4606C92.1521 23.52 92.1521 25.427 94.0456 26.6984C95.9391 27.7578 99.3054 27.7578 101.199 26.6984C103.303 25.6389 103.303 23.7319 101.199 22.4606ZM88.9962 15.4681C87.1026 14.4087 83.7364 14.4087 81.8428 15.4681C79.9493 16.5276 79.9493 18.4346 81.8428 19.706C83.7364 20.7654 87.1026 20.7654 88.9962 19.706C91.1001 18.4346 91.1001 16.5276 88.9962 15.4681ZM125.815 36.8692C123.921 35.8097 120.555 35.8097 118.662 36.8692C116.768 37.9287 116.768 39.8357 118.662 41.107C120.555 42.1665 123.921 42.1665 125.815 41.107C127.708 39.8357 127.708 37.9287 125.815 36.8692ZM150.221 51.066C148.327 50.0065 144.961 50.0065 143.067 51.066C141.174 52.1254 141.174 54.0324 143.067 55.3038C144.961 56.3633 148.327 56.3633 150.221 55.3038C152.324 54.0324 152.324 52.1254 150.221 51.066ZM69.64 12.5016C71.5336 13.5611 74.8998 13.5611 76.7934 12.5016C78.6869 11.4422 78.6869 9.53514 76.7934 8.26379C74.8998 7.20433 71.5336 7.20433 69.64 8.26379C67.7465 9.32325 67.7465 11.2303 69.64 12.5016ZM76.1622 22.8843C74.2687 21.8249 70.9024 21.8249 69.0089 22.8843C67.1153 23.9438 67.1153 25.8508 69.0089 27.1222C70.9024 28.1816 74.2687 28.1816 76.1622 27.1222C78.2661 25.8508 78.2661 23.9438 76.1622 22.8843ZM88.5754 29.8768C86.6819 28.8173 83.3156 28.8173 81.422 29.8768C79.5285 30.9362 79.5285 32.8433 81.422 34.1146C83.3156 35.1741 86.6819 35.1741 88.5754 34.1146C90.4689 33.0551 90.4689 31.1481 88.5754 29.8768ZM100.778 37.0811C98.8846 36.0216 95.5184 36.0216 93.6248 37.0811C91.7313 38.1406 91.7313 40.0476 93.6248 41.3189C95.5184 42.3784 98.8846 42.3784 100.778 41.3189C102.672 40.0476 102.672 38.1406 100.778 37.0811ZM63.9594 15.68C62.0659 14.6205 58.6996 14.6205 56.8061 15.68C54.9125 16.7395 54.9125 18.6465 56.8061 19.9178C58.6996 20.9773 62.0659 20.9773 63.9594 19.9178C66.0634 18.6465 66.0634 16.9514 63.9594 15.68ZM137.597 58.4822C135.703 57.4227 132.337 57.4227 130.444 58.4822C128.55 59.5416 128.55 61.4487 130.444 62.72C132.337 63.7795 135.703 63.7795 137.597 62.72C139.49 61.4487 139.49 59.5416 137.597 58.4822ZM112.981 44.2854C111.087 43.226 107.721 43.226 105.828 44.2854C103.934 45.3449 103.934 47.2519 105.828 48.5233C107.721 49.5827 111.087 49.5827 112.981 48.5233C115.085 47.2519 114.875 45.3449 112.981 44.2854ZM125.184 51.2779C123.29 50.2184 119.924 50.2184 118.03 51.2779C116.137 52.3373 116.137 54.2443 118.03 55.5157C119.924 56.5751 123.29 56.5751 125.184 55.5157C127.288 54.2443 127.288 52.5492 125.184 51.2779ZM124.763 65.8984C122.869 64.8389 119.503 64.8389 117.61 65.8984C115.716 66.9579 115.716 68.8649 117.61 70.1362C119.503 71.1957 122.869 71.1957 124.763 70.1362C126.657 68.8649 126.657 66.9579 124.763 65.8984ZM51.1255 23.0962C49.2319 22.0368 45.8656 22.0368 43.9721 23.0962C42.0786 24.1557 42.0786 26.0627 43.9721 27.3341C45.8656 28.3935 49.2319 28.3935 51.1255 27.3341C53.2294 26.0627 53.2294 24.3676 51.1255 23.0962ZM63.5386 30.3006C61.6451 29.2411 58.2788 29.2411 56.3853 30.3006C54.4917 31.36 54.4917 33.267 56.3853 34.5384C58.2788 35.5978 61.6451 35.5978 63.5386 34.5384C65.4322 33.267 65.4322 31.36 63.5386 30.3006ZM100.147 51.7016C98.2535 50.6422 94.8872 50.6422 92.9936 51.7016C91.1001 52.7611 91.1001 54.6681 92.9936 55.9395C94.8872 56.9989 98.2535 56.9989 100.147 55.9395C102.251 54.6681 102.251 52.7611 100.147 51.7016ZM75.7414 37.293C73.8479 36.2335 70.4816 36.2335 68.5881 37.293C66.6945 38.3524 66.6945 40.2595 68.5881 41.5308C70.4816 42.5903 73.8479 42.5903 75.7414 41.5308C77.635 40.4714 77.635 38.5643 75.7414 37.293ZM112.56 58.6941C110.667 57.6346 107.3 57.6346 105.407 58.6941C103.513 59.7535 103.513 61.6606 105.407 62.9319C107.3 63.9914 110.667 63.9914 112.56 62.9319C114.454 61.8724 114.454 59.9654 112.56 58.6941ZM87.9442 44.4973C86.0507 43.4378 82.6844 43.4378 80.7909 44.4973C78.8973 45.5568 78.8973 47.4638 80.7909 48.7351C82.6844 49.7946 86.0507 49.7946 87.9442 48.7351C90.0481 47.4638 90.0481 45.7687 87.9442 44.4973ZM38.5019 30.5124C36.6083 29.453 33.2421 29.453 31.3485 30.5124C29.455 31.5719 29.455 33.4789 31.3485 34.7503C33.2421 35.8097 36.6083 35.8097 38.5019 34.7503C40.3954 33.4789 40.3954 31.7838 38.5019 30.5124ZM62.9075 44.9211C61.0139 43.8616 57.6476 43.8616 55.7541 44.9211C53.8606 45.9806 53.8606 47.8876 55.7541 49.1589C57.6476 50.2184 61.0139 50.2184 62.9075 49.1589C65.0114 47.8876 65.0114 45.9806 62.9075 44.9211ZM99.7262 66.1103C97.8327 65.0508 94.4664 65.0508 92.5729 66.1103C90.6793 67.1697 90.6793 69.0768 92.5729 70.3481C94.4664 71.4076 97.8327 71.4076 99.7262 70.3481C101.62 69.2887 101.62 67.3816 99.7262 66.1103ZM50.7047 37.7168C48.8111 36.6573 45.4449 36.6573 43.5513 37.7168C41.6578 38.7762 41.6578 40.6833 43.5513 41.9546C45.4449 43.0141 48.8111 43.0141 50.7047 41.9546C52.5982 40.6833 52.5982 38.7762 50.7047 37.7168ZM75.1102 51.9135C73.2167 50.8541 69.8504 50.8541 67.9569 51.9135C66.0634 52.973 66.0634 54.88 67.9569 56.1514C69.8504 57.2108 73.2167 57.2108 75.1102 56.1514C77.2142 54.88 77.2142 53.1849 75.1102 51.9135ZM111.929 73.3146C110.035 72.2551 106.669 72.2551 104.776 73.3146C102.882 74.3741 102.882 76.2811 104.776 77.5524C106.669 78.6119 110.035 78.6119 111.929 77.5524C114.033 76.2811 113.823 74.3741 111.929 73.3146ZM87.5234 59.1179C85.6299 58.0584 82.2636 58.0584 80.3701 59.1179C78.4765 60.1773 78.4765 62.0843 80.3701 63.3557C82.2636 64.4151 85.6299 64.4151 87.5234 63.3557C89.417 62.0843 89.417 60.1773 87.5234 59.1179ZM37.8707 45.133C35.9772 44.0735 32.6109 44.0735 30.7173 45.133C28.8238 46.1924 28.8238 48.0995 30.7173 49.3708C32.6109 50.4303 35.9772 50.4303 37.8707 49.3708C39.9746 48.0995 39.9746 46.1924 37.8707 45.133ZM86.8922 73.5265C84.9987 72.467 81.6324 72.467 79.7389 73.5265C77.8454 74.586 77.8454 76.493 79.7389 77.7643C81.6324 78.8238 84.9987 78.8238 86.8922 77.7643C88.9962 76.7049 88.9962 74.7979 86.8922 73.5265ZM25.6679 37.9287C23.7744 36.8692 20.4081 36.8692 18.5146 37.9287C16.621 38.9881 16.621 40.8951 18.5146 42.1665C20.4081 43.226 23.7744 43.226 25.6679 42.1665C27.5615 41.107 27.5615 39.2 25.6679 37.9287ZM50.0735 52.3373C48.18 51.2779 44.8137 51.2779 42.9201 52.3373C41.0266 53.3968 41.0266 55.3038 42.9201 56.5751C44.8137 57.6346 48.18 57.6346 50.0735 56.5751C52.1774 55.3038 52.1774 53.3968 50.0735 52.3373ZM99.095 80.7308C97.2015 79.6714 93.8352 79.6714 91.9417 80.7308C90.0481 81.7903 90.0481 83.6973 91.9417 84.9687C93.8352 86.0281 97.2015 86.0281 99.095 84.9687C101.199 83.6973 101.199 81.7903 99.095 80.7308ZM74.6895 66.5341C72.7959 65.4746 69.4296 65.4746 67.5361 66.5341C65.6426 67.5935 65.6426 69.5005 67.5361 70.7719C69.4296 71.8314 72.7959 71.8314 74.6895 70.7719C76.583 69.5005 76.583 67.5935 74.6895 66.5341ZM62.4867 59.3297C60.5931 58.2703 57.2268 58.2703 55.3333 59.3297C53.4398 60.3892 53.4398 62.2962 55.3333 63.5676C57.2268 64.627 60.5931 64.627 62.4867 63.5676C64.3802 62.2962 64.3802 60.6011 62.4867 59.3297ZM25.2471 52.5492C23.3536 51.4897 19.9873 51.4897 18.0938 52.5492C16.2002 53.6087 16.2002 55.5157 18.0938 56.787C19.9873 57.8465 23.3536 57.8465 25.2471 56.787C27.1407 55.5157 27.1407 53.6087 25.2471 52.5492ZM12.8339 45.3449C10.9404 44.2854 7.57413 44.2854 5.68059 45.3449C3.78705 46.4043 3.78705 48.3114 5.68059 49.5827C7.57413 50.6422 10.9404 50.6422 12.8339 49.5827C14.9379 48.5233 14.9379 46.6162 12.8339 45.3449ZM74.0583 80.9427C72.1647 79.8833 68.7985 79.8833 66.9049 80.9427C65.0114 82.0022 65.0114 83.9092 66.9049 85.1805C68.7985 86.24 72.1647 86.24 74.0583 85.1805C76.1622 84.1211 76.1622 82.2141 74.0583 80.9427ZM49.6527 66.746C47.7592 65.6865 44.3929 65.6865 42.4994 66.746C40.6058 67.8054 40.6058 69.7124 42.4994 70.9838C44.3929 72.0433 47.7592 72.0433 49.6527 70.9838C51.5462 69.7124 51.5462 68.0173 49.6527 66.746ZM61.8555 73.9503C59.962 72.8908 56.5957 72.8908 54.7021 73.9503C52.8086 75.0097 52.8086 76.9168 54.7021 78.1881C56.5957 79.2476 59.962 79.2476 61.8555 78.1881C63.9594 76.9168 63.9594 75.0097 61.8555 73.9503ZM37.4499 59.7535C35.5564 58.6941 32.1901 58.6941 30.2966 59.7535C28.403 60.813 28.403 62.72 30.2966 63.9914C32.1901 65.2627 35.5564 65.0508 37.4499 63.9914C39.3435 62.72 39.3435 60.813 37.4499 59.7535ZM86.4715 88.147C84.5779 87.0876 81.2116 87.0876 79.3181 88.147C77.4246 89.2065 77.4246 91.1135 79.3181 92.3849C81.2116 93.4443 84.5779 93.4443 86.4715 92.3849C88.365 91.1135 88.365 89.4184 86.4715 88.147Z" fill="url(#paint2_linear)"/>
</g>
<defs>
<linearGradient id="paint0_linear" x1="0" y1="125.397" x2="80.6562" y2="125.397" gradientUnits="userSpaceOnUse">
<stop stop-color="#2BE9A3"/>
<stop offset="0.1353" stop-color="#32EA9F"/>
<stop offset="0.3256" stop-color="#44EC96"/>
<stop offset="0.5485" stop-color="#62EF85"/>
<stop offset="0.794" stop-color="#8BF36F"/>
<stop offset="1" stop-color="#B4F759"/>
</linearGradient>
<linearGradient id="paint1_linear" x1="85.4188" y1="124.287" x2="166.075" y2="124.287" gradientUnits="userSpaceOnUse">
<stop stop-color="#2BE9A3"/>
<stop offset="0.1353" stop-color="#32EA9F"/>
<stop offset="0.3256" stop-color="#44EC96"/>
<stop offset="0.5485" stop-color="#62EF85"/>
<stop offset="0.794" stop-color="#8BF36F"/>
<stop offset="1" stop-color="#B4F759"/>
</linearGradient>
<linearGradient id="paint2_linear" x1="4.29831" y1="46.5849" x2="164.531" y2="46.5849" gradientUnits="userSpaceOnUse">
<stop stop-color="#2BE9A3"/>
<stop offset="0.1353" stop-color="#32EA9F"/>
<stop offset="0.3256" stop-color="#44EC96"/>
<stop offset="0.5485" stop-color="#62EF85"/>
<stop offset="0.794" stop-color="#8BF36F"/>
<stop offset="1" stop-color="#B4F759"/>
</linearGradient>
<clipPath id="clip0">
<rect width="166" height="196" fill="white"/>
</clipPath>
</defs>
</svg>
