<svg width="1530" height="154" viewBox="0 0 1530 154" fill="none" xmlns="http://www.w3.org/2000/svg">
<rect x="0.611328" y="0.675293" width="1528.89" height="152.342" rx="9.5" stroke="#626A84"/>
<rect x="47.6602" y="38.955" width="262.84" height="73.4744" rx="5" fill="#2A365C"/>
<path d="M81.2781 84.0603V69.8416H85.2917C86.5287 69.8416 87.6225 70.115 88.573 70.6619C89.5235 71.2087 90.2559 71.9867 90.7702 72.9958C91.2911 74.005 91.5548 75.1638 91.5613 76.4724V77.3806C91.5613 78.7218 91.3008 79.8969 90.78 80.906C90.2657 81.9151 89.5268 82.6899 88.5632 83.2302C87.6062 83.7706 86.4896 84.0473 85.2136 84.0603H81.2781ZM83.1531 71.3845V82.5271H85.1257C86.571 82.5271 87.6941 82.0779 88.4949 81.1794C89.3021 80.281 89.7058 79.0017 89.7058 77.3416V76.5115C89.7058 74.8969 89.3249 73.6436 88.5632 72.7517C87.808 71.8533 86.7338 71.3975 85.3406 71.3845H83.1531ZM98.5046 84.2556C97.0723 84.2556 95.907 83.7869 95.0085 82.8494C94.1101 81.9054 93.6609 80.6456 93.6609 79.0701V78.738C93.6609 77.6899 93.8594 76.7556 94.2566 75.9353C94.6602 75.1085 95.2201 74.4639 95.9363 74.0017C96.6589 73.533 97.4402 73.2986 98.28 73.2986C99.6537 73.2986 100.721 73.7511 101.483 74.656C102.245 75.561 102.626 76.8565 102.626 78.5427V79.2947H95.4675C95.4936 80.3363 95.7963 81.1794 96.3757 81.824C96.9617 82.462 97.7038 82.781 98.6023 82.781C99.2403 82.781 99.7807 82.6508 100.223 82.3904C100.666 82.13 101.053 81.7849 101.385 81.3552L102.489 82.2146C101.604 83.5753 100.275 84.2556 98.5046 84.2556ZM98.28 74.783C97.5508 74.783 96.9389 75.0499 96.4441 75.5837C95.9493 76.1111 95.6433 76.8533 95.5261 77.8103H100.819V77.6736C100.767 76.7556 100.52 76.046 100.077 75.5447C99.6342 75.0369 99.0352 74.783 98.28 74.783ZM110.878 81.2576C110.878 80.7693 110.692 80.3917 110.321 80.1248C109.956 79.8513 109.315 79.6169 108.397 79.4216C107.486 79.2263 106.76 78.9919 106.219 78.7185C105.686 78.4451 105.288 78.1195 105.028 77.7419C104.774 77.3643 104.647 76.9151 104.647 76.3943C104.647 75.5284 105.012 74.796 105.741 74.197C106.477 73.5981 107.414 73.2986 108.553 73.2986C109.751 73.2986 110.721 73.6078 111.464 74.2263C112.212 74.8448 112.587 75.6358 112.587 76.5994H110.77C110.77 76.1046 110.559 75.6781 110.135 75.3201C109.719 74.962 109.191 74.783 108.553 74.783C107.896 74.783 107.382 74.9262 107.01 75.2126C106.639 75.4991 106.454 75.8735 106.454 76.3357C106.454 76.7719 106.626 77.1007 106.971 77.322C107.316 77.5434 107.938 77.755 108.837 77.9568C109.742 78.1586 110.474 78.3995 111.034 78.6794C111.594 78.9594 112.007 79.2979 112.274 79.6951C112.548 80.0857 112.684 80.5642 112.684 81.1306C112.684 82.0746 112.307 82.8331 111.551 83.406C110.796 83.9724 109.816 84.2556 108.612 84.2556C107.766 84.2556 107.017 84.1059 106.366 83.8064C105.715 83.5069 105.204 83.0903 104.833 82.5564C104.468 82.016 104.286 81.4333 104.286 80.8083H106.093C106.125 81.4138 106.366 81.8956 106.815 82.2537C107.271 82.6052 107.87 82.781 108.612 82.781C109.296 82.781 109.843 82.6443 110.253 82.3708C110.669 82.0909 110.878 81.7198 110.878 81.2576ZM117.001 84.0603H115.194V73.4939H117.001V84.0603ZM115.048 70.6912C115.048 70.3982 115.135 70.1508 115.311 69.949C115.494 69.7472 115.76 69.6462 116.112 69.6462C116.464 69.6462 116.731 69.7472 116.913 69.949C117.095 70.1508 117.186 70.3982 117.186 70.6912C117.186 70.9841 117.095 71.2283 116.913 71.4236C116.731 71.6189 116.464 71.7166 116.112 71.7166C115.76 71.7166 115.494 71.6189 115.311 71.4236C115.135 71.2283 115.048 70.9841 115.048 70.6912ZM119.471 78.6892C119.471 77.0421 119.852 75.7335 120.614 74.7634C121.376 73.7869 122.385 73.2986 123.641 73.2986C124.93 73.2986 125.936 73.7543 126.659 74.6658L126.747 73.4939H128.397V83.8064C128.397 85.1736 127.99 86.2511 127.176 87.0388C126.369 87.8266 125.282 88.2205 123.915 88.2205C123.153 88.2205 122.408 88.0577 121.678 87.7322C120.949 87.4067 120.393 86.9607 120.009 86.3943L120.946 85.3103C121.721 86.2673 122.668 86.7458 123.788 86.7458C124.667 86.7458 125.35 86.4985 125.839 86.0037C126.333 85.5089 126.581 84.8123 126.581 83.9138V83.0056C125.858 83.8389 124.872 84.2556 123.622 84.2556C122.385 84.2556 121.382 83.7576 120.614 82.7615C119.852 81.7654 119.471 80.408 119.471 78.6892ZM121.288 78.8943C121.288 80.0857 121.532 81.0232 122.02 81.7068C122.509 82.3839 123.192 82.7224 124.071 82.7224C125.21 82.7224 126.047 82.2048 126.581 81.1697V76.3455C126.027 75.3363 125.197 74.8318 124.091 74.8318C123.212 74.8318 122.525 75.1736 122.03 75.8572C121.535 76.5408 121.288 77.5531 121.288 78.8943ZM132.841 73.4939L132.899 74.822C133.706 73.8064 134.761 73.2986 136.063 73.2986C138.296 73.2986 139.423 74.5583 139.442 77.0779V84.0603H137.635V77.0681C137.629 76.3064 137.453 75.7432 137.108 75.3787C136.77 75.0141 136.239 74.8318 135.516 74.8318C134.93 74.8318 134.416 74.988 133.973 75.3005C133.531 75.613 133.186 76.0232 132.938 76.531V84.0603H131.132V73.4939H132.841ZM146.551 84.2556C145.119 84.2556 143.954 83.7869 143.055 82.8494C142.157 81.9054 141.708 80.6456 141.708 79.0701V78.738C141.708 77.6899 141.906 76.7556 142.303 75.9353C142.707 75.1085 143.267 74.4639 143.983 74.0017C144.706 73.533 145.487 73.2986 146.327 73.2986C147.701 73.2986 148.768 73.7511 149.53 74.656C150.292 75.561 150.673 76.8565 150.673 78.5427V79.2947H143.514C143.54 80.3363 143.843 81.1794 144.423 81.824C145.009 82.462 145.751 82.781 146.649 82.781C147.287 82.781 147.828 82.6508 148.27 82.3904C148.713 82.13 149.1 81.7849 149.432 81.3552L150.536 82.2146C149.65 83.5753 148.322 84.2556 146.551 84.2556ZM146.327 74.783C145.598 74.783 144.986 75.0499 144.491 75.5837C143.996 76.1111 143.69 76.8533 143.573 77.8103H148.866V77.6736C148.814 76.7556 148.566 76.046 148.124 75.5447C147.681 75.0369 147.082 74.783 146.327 74.783ZM152.333 78.6892C152.333 77.0681 152.717 75.766 153.485 74.783C154.253 73.7934 155.259 73.2986 156.503 73.2986C157.74 73.2986 158.719 73.7218 159.442 74.5681V69.0603H161.249V84.0603H159.589L159.501 82.9275C158.778 83.8129 157.772 84.2556 156.483 84.2556C155.259 84.2556 154.26 83.7543 153.485 82.7517C152.717 81.7491 152.333 80.4405 152.333 78.8259V78.6892ZM154.139 78.8943C154.139 80.0922 154.387 81.0297 154.882 81.7068C155.376 82.3839 156.06 82.7224 156.932 82.7224C158.078 82.7224 158.915 82.2081 159.442 81.1794V76.3259C158.902 75.3298 158.072 74.8318 156.952 74.8318C156.066 74.8318 155.376 75.1736 154.882 75.8572C154.387 76.5408 154.139 77.5531 154.139 78.8943ZM168.641 80.2419C168.641 79.5583 168.83 78.9301 169.208 78.3572C169.592 77.7843 170.321 77.1169 171.395 76.3552C170.764 75.587 170.341 74.9685 170.126 74.4998C169.911 74.031 169.803 73.5655 169.803 73.1033C169.803 72.0225 170.122 71.1762 170.76 70.5642C171.399 69.9522 172.264 69.6462 173.358 69.6462C174.335 69.6462 175.142 69.9327 175.78 70.5056C176.418 71.072 176.737 71.7882 176.737 72.6541C176.737 73.227 176.591 73.7576 176.298 74.2458C176.011 74.7276 175.507 75.2354 174.784 75.7693L173.739 76.5408L176.903 80.3201C177.346 79.4737 177.567 78.533 177.567 77.4978H179.198C179.198 79.158 178.798 80.5349 177.997 81.6287L180.028 84.0603H177.86L176.913 82.9373C176.431 83.3669 175.865 83.6957 175.214 83.9236C174.569 84.1449 173.912 84.2556 173.241 84.2556C171.854 84.2556 170.741 83.8878 169.901 83.1521C169.061 82.4164 168.641 81.4464 168.641 80.2419ZM173.241 82.781C174.198 82.781 175.074 82.4164 175.868 81.6873L172.401 77.5369L172.079 77.7712C170.992 78.572 170.448 79.3956 170.448 80.2419C170.448 81.0102 170.695 81.6254 171.19 82.0876C171.691 82.5499 172.375 82.781 173.241 82.781ZM171.61 73.0447C171.61 73.6697 171.994 74.4509 172.762 75.3884L173.915 74.5779C174.357 74.2654 174.66 73.9692 174.823 73.6892C174.986 73.4028 175.067 73.0577 175.067 72.6541C175.067 72.2179 174.904 71.8565 174.579 71.5701C174.253 71.2771 173.843 71.1306 173.348 71.1306C172.815 71.1306 172.391 71.3129 172.079 71.6775C171.766 72.0356 171.61 72.4913 171.61 73.0447ZM186.708 84.0603V69.8416H190.721C191.958 69.8416 193.052 70.115 194.003 70.6619C194.953 71.2087 195.686 71.9867 196.2 72.9958C196.721 74.005 196.984 75.1638 196.991 76.4724V77.3806C196.991 78.7218 196.731 79.8969 196.21 80.906C195.695 81.9151 194.956 82.6899 193.993 83.2302C193.036 83.7706 191.919 84.0473 190.643 84.0603H186.708ZM188.583 71.3845V82.5271H190.555C192.001 82.5271 193.124 82.0779 193.925 81.1794C194.732 80.281 195.135 79.0017 195.135 77.3416V76.5115C195.135 74.8969 194.755 73.6436 193.993 72.7517C193.238 71.8533 192.163 71.3975 190.77 71.3845H188.583ZM203.934 84.2556C202.502 84.2556 201.337 83.7869 200.438 82.8494C199.54 81.9054 199.091 80.6456 199.091 79.0701V78.738C199.091 77.6899 199.289 76.7556 199.686 75.9353C200.09 75.1085 200.65 74.4639 201.366 74.0017C202.089 73.533 202.87 73.2986 203.71 73.2986C205.083 73.2986 206.151 73.7511 206.913 74.656C207.675 75.561 208.055 76.8565 208.055 78.5427V79.2947H200.897C200.923 80.3363 201.226 81.1794 201.805 81.824C202.391 82.462 203.134 82.781 204.032 82.781C204.67 82.781 205.21 82.6508 205.653 82.3904C206.096 82.13 206.483 81.7849 206.815 81.3552L207.919 82.2146C207.033 83.5753 205.705 84.2556 203.934 84.2556ZM203.71 74.783C202.981 74.783 202.369 75.0499 201.874 75.5837C201.379 76.1111 201.073 76.8533 200.956 77.8103H206.249V77.6736C206.197 76.7556 205.949 76.046 205.507 75.5447C205.064 75.0369 204.465 74.783 203.71 74.783ZM213.505 81.6091L216.122 73.4939H217.968L214.178 84.0603H212.801L208.973 73.4939H210.819L213.505 81.6091ZM223.954 84.2556C222.522 84.2556 221.356 83.7869 220.458 82.8494C219.559 81.9054 219.11 80.6456 219.11 79.0701V78.738C219.11 77.6899 219.309 76.7556 219.706 75.9353C220.109 75.1085 220.669 74.4639 221.385 74.0017C222.108 73.533 222.889 73.2986 223.729 73.2986C225.103 73.2986 226.171 73.7511 226.932 74.656C227.694 75.561 228.075 76.8565 228.075 78.5427V79.2947H220.917C220.943 80.3363 221.246 81.1794 221.825 81.824C222.411 82.462 223.153 82.781 224.051 82.781C224.69 82.781 225.23 82.6508 225.673 82.3904C226.115 82.13 226.503 81.7849 226.835 81.3552L227.938 82.2146C227.053 83.5753 225.725 84.2556 223.954 84.2556ZM223.729 74.783C223 74.783 222.388 75.0499 221.893 75.5837C221.399 76.1111 221.093 76.8533 220.975 77.8103H226.268V77.6736C226.216 76.7556 225.969 76.046 225.526 75.5447C225.083 75.0369 224.484 74.783 223.729 74.783ZM232.137 84.0603H230.331V69.0603H232.137V84.0603ZM234.559 78.6794C234.559 77.6443 234.761 76.7133 235.165 75.8865C235.575 75.0597 236.141 74.4216 236.864 73.9724C237.593 73.5232 238.423 73.2986 239.354 73.2986C240.793 73.2986 241.955 73.7966 242.841 74.7927C243.732 75.7888 244.178 77.1137 244.178 78.7673V78.8943C244.178 79.9229 243.98 80.8474 243.583 81.6677C243.192 82.4815 242.629 83.1163 241.893 83.572C241.164 84.0278 240.324 84.2556 239.374 84.2556C237.941 84.2556 236.779 83.7576 235.887 82.7615C235.002 81.7654 234.559 80.447 234.559 78.8064V78.6794ZM236.376 78.8943C236.376 80.0662 236.646 81.0069 237.186 81.7166C237.733 82.4262 238.462 82.781 239.374 82.781C240.292 82.781 241.021 82.4229 241.561 81.7068C242.102 80.9841 242.372 79.975 242.372 78.6794C242.372 77.5206 242.095 76.5831 241.542 75.8669C240.995 75.1443 240.266 74.783 239.354 74.783C238.462 74.783 237.743 75.1378 237.196 75.8474C236.649 76.557 236.376 77.5727 236.376 78.8943ZM255.37 78.8943C255.37 80.5024 255.002 81.7979 254.266 82.781C253.531 83.7641 252.535 84.2556 251.278 84.2556C249.996 84.2556 248.986 83.8487 248.251 83.0349V88.1228H246.444V73.4939H248.094L248.182 74.6658C248.918 73.7543 249.94 73.2986 251.249 73.2986C252.518 73.2986 253.521 73.7771 254.257 74.7341C254.999 75.6912 255.37 77.0225 255.37 78.7283V78.8943ZM253.563 78.6892C253.563 77.4978 253.309 76.557 252.801 75.8669C252.294 75.1768 251.597 74.8318 250.712 74.8318C249.618 74.8318 248.798 75.3168 248.251 76.2869V81.3357C248.791 82.2992 249.618 82.781 250.731 82.781C251.597 82.781 252.284 82.4392 252.792 81.7556C253.306 81.0655 253.563 80.0434 253.563 78.6892ZM262.059 84.2556C260.627 84.2556 259.462 83.7869 258.563 82.8494C257.665 81.9054 257.216 80.6456 257.216 79.0701V78.738C257.216 77.6899 257.414 76.7556 257.811 75.9353C258.215 75.1085 258.775 74.4639 259.491 74.0017C260.214 73.533 260.995 73.2986 261.835 73.2986C263.208 73.2986 264.276 73.7511 265.038 74.656C265.8 75.561 266.18 76.8565 266.18 78.5427V79.2947H259.022C259.048 80.3363 259.351 81.1794 259.93 81.824C260.516 82.462 261.259 82.781 262.157 82.781C262.795 82.781 263.335 82.6508 263.778 82.3904C264.221 82.13 264.608 81.7849 264.94 81.3552L266.044 82.2146C265.158 83.5753 263.83 84.2556 262.059 84.2556ZM261.835 74.783C261.106 74.783 260.494 75.0499 259.999 75.5837C259.504 76.1111 259.198 76.8533 259.081 77.8103H264.374V77.6736C264.322 76.7556 264.074 76.046 263.632 75.5447C263.189 75.0369 262.59 74.783 261.835 74.783ZM267.841 78.6892C267.841 77.0681 268.225 75.766 268.993 74.783C269.761 73.7934 270.767 73.2986 272.01 73.2986C273.247 73.2986 274.227 73.7218 274.95 74.5681V69.0603H276.757V84.0603H275.096L275.009 82.9275C274.286 83.8129 273.28 84.2556 271.991 84.2556C270.767 84.2556 269.768 83.7543 268.993 82.7517C268.225 81.7491 267.841 80.4405 267.841 78.8259V78.6892ZM269.647 78.8943C269.647 80.0922 269.895 81.0297 270.389 81.7068C270.884 82.3839 271.568 82.7224 272.44 82.7224C273.586 82.7224 274.423 82.2081 274.95 81.1794V76.3259C274.41 75.3298 273.579 74.8318 272.46 74.8318C271.574 74.8318 270.884 75.1736 270.389 75.8572C269.895 76.5408 269.647 77.5531 269.647 78.8943Z" fill="white"/>
<rect x="427.619" y="38.9546" width="262.84" height="73.4744" rx="5" fill="#2A365C"/>
<path d="M481.326 84.0597V69.8409H485.974C487.517 69.8409 488.676 70.16 489.451 70.798C490.232 71.436 490.623 72.38 490.623 73.63C490.623 74.2941 490.434 74.8833 490.056 75.3976C489.679 75.9054 489.164 76.2993 488.513 76.5792C489.282 76.7941 489.887 77.2042 490.33 77.8097C490.779 78.4087 491.004 79.1248 491.004 79.9581C491.004 81.2342 490.59 82.2368 489.763 82.9659C488.937 83.6951 487.768 84.0597 486.258 84.0597H481.326ZM483.201 77.4093V82.5265H486.297C487.169 82.5265 487.856 82.3019 488.357 81.8527C488.865 81.3969 489.119 80.7719 489.119 79.9777C489.119 78.2654 488.188 77.4093 486.326 77.4093H483.201ZM483.201 75.9054H486.033C486.853 75.9054 487.508 75.7003 487.996 75.2902C488.491 74.88 488.738 74.3234 488.738 73.6202C488.738 72.839 488.51 72.2726 488.054 71.921C487.599 71.5629 486.905 71.3839 485.974 71.3839H483.201V75.9054ZM500.027 83.0148C499.324 83.8416 498.292 84.255 496.931 84.255C495.805 84.255 494.946 83.9295 494.353 83.2784C493.767 82.6209 493.471 81.6508 493.465 80.3683V73.4933H495.271V80.3195C495.271 81.921 495.922 82.7218 497.224 82.7218C498.605 82.7218 499.523 82.2075 499.978 81.1788V73.4933H501.785V84.0597H500.066L500.027 83.0148ZM510.691 81.257C510.691 80.7687 510.506 80.3911 510.135 80.1241C509.77 79.8507 509.129 79.6163 508.211 79.421C507.299 79.2257 506.573 78.9913 506.033 78.7179C505.499 78.4445 505.102 78.1189 504.842 77.7413C504.588 77.3637 504.461 76.9145 504.461 76.3937C504.461 75.5278 504.825 74.7954 505.554 74.1964C506.29 73.5975 507.228 73.298 508.367 73.298C509.565 73.298 510.535 73.6072 511.277 74.2257C512.026 74.8442 512.4 75.6352 512.4 76.5988H510.584C510.584 76.104 510.372 75.6775 509.949 75.3195C509.532 74.9614 509.005 74.7823 508.367 74.7823C507.709 74.7823 507.195 74.9256 506.824 75.212C506.453 75.4985 506.267 75.8728 506.267 76.3351C506.267 76.7713 506.44 77.1001 506.785 77.3214C507.13 77.5428 507.752 77.7544 508.65 77.9562C509.555 78.158 510.288 78.3989 510.847 78.6788C511.407 78.9588 511.821 79.2973 512.088 79.6945C512.361 80.0851 512.498 80.5636 512.498 81.13C512.498 82.074 512.12 82.8325 511.365 83.4054C510.61 83.9718 509.63 84.255 508.426 84.255C507.579 84.255 506.83 84.1053 506.179 83.8058C505.528 83.5063 505.017 83.0896 504.646 82.5558C504.282 82.0154 504.099 81.4327 504.099 80.8077H505.906C505.939 81.4132 506.179 81.895 506.629 82.2531C507.084 82.6046 507.683 82.7804 508.426 82.7804C509.109 82.7804 509.656 82.6437 510.066 82.3702C510.483 82.0903 510.691 81.7192 510.691 81.257ZM516.814 84.0597H515.008V73.4933H516.814V84.0597ZM514.861 70.6906C514.861 70.3976 514.949 70.1502 515.125 69.9484C515.307 69.7465 515.574 69.6456 515.926 69.6456C516.277 69.6456 516.544 69.7465 516.726 69.9484C516.909 70.1502 517 70.3976 517 70.6906C517 70.9835 516.909 71.2277 516.726 71.423C516.544 71.6183 516.277 71.7159 515.926 71.7159C515.574 71.7159 515.307 71.6183 515.125 71.423C514.949 71.2277 514.861 70.9835 514.861 70.6906ZM521.424 73.4933L521.482 74.8214C522.289 73.8058 523.344 73.298 524.646 73.298C526.879 73.298 528.006 74.5577 528.025 77.0773V84.0597H526.218V77.0675C526.212 76.3058 526.036 75.7426 525.691 75.3781C525.353 75.0135 524.822 74.8312 524.099 74.8312C523.513 74.8312 522.999 74.9874 522.556 75.2999C522.114 75.6124 521.769 76.0226 521.521 76.5304V84.0597H519.715V73.4933H521.424ZM535.135 84.255C533.702 84.255 532.537 83.7863 531.638 82.8488C530.74 81.9047 530.291 80.645 530.291 79.0695V78.7374C530.291 77.6892 530.489 76.755 530.886 75.9347C531.29 75.1079 531.85 74.4633 532.566 74.0011C533.289 73.5323 534.07 73.298 534.91 73.298C536.284 73.298 537.351 73.7504 538.113 74.6554C538.875 75.5603 539.256 76.8559 539.256 78.5421V79.2941H532.097C532.123 80.3357 532.426 81.1788 533.006 81.8234C533.592 82.4614 534.334 82.7804 535.232 82.7804C535.87 82.7804 536.411 82.6502 536.853 82.3898C537.296 82.1294 537.683 81.7843 538.015 81.3546L539.119 82.214C538.233 83.5747 536.905 84.255 535.135 84.255ZM534.91 74.7823C534.181 74.7823 533.569 75.0493 533.074 75.5831C532.579 76.1105 532.273 76.8527 532.156 77.8097H537.449V77.673C537.397 76.755 537.149 76.0454 536.707 75.5441C536.264 75.0363 535.665 74.7823 534.91 74.7823ZM547.508 81.257C547.508 80.7687 547.322 80.3911 546.951 80.1241C546.586 79.8507 545.945 79.6163 545.027 79.421C544.116 79.2257 543.39 78.9913 542.849 78.7179C542.315 78.4445 541.918 78.1189 541.658 77.7413C541.404 77.3637 541.277 76.9145 541.277 76.3937C541.277 75.5278 541.642 74.7954 542.371 74.1964C543.107 73.5975 544.044 73.298 545.183 73.298C546.381 73.298 547.351 73.6072 548.093 74.2257C548.842 74.8442 549.217 75.6352 549.217 76.5988H547.4C547.4 76.104 547.189 75.6775 546.765 75.3195C546.349 74.9614 545.821 74.7823 545.183 74.7823C544.526 74.7823 544.011 74.9256 543.64 75.212C543.269 75.4985 543.084 75.8728 543.084 76.3351C543.084 76.7713 543.256 77.1001 543.601 77.3214C543.946 77.5428 544.568 77.7544 545.467 77.9562C546.371 78.158 547.104 78.3989 547.664 78.6788C548.224 78.9588 548.637 79.2973 548.904 79.6945C549.177 80.0851 549.314 80.5636 549.314 81.13C549.314 82.074 548.937 82.8325 548.181 83.4054C547.426 83.9718 546.446 84.255 545.242 84.255C544.396 84.255 543.647 84.1053 542.996 83.8058C542.345 83.5063 541.834 83.0896 541.463 82.5558C541.098 82.0154 540.916 81.4327 540.916 80.8077H542.722C542.755 81.4132 542.996 81.895 543.445 82.2531C543.901 82.6046 544.5 82.7804 545.242 82.7804C545.926 82.7804 546.472 82.6437 546.883 82.3702C547.299 82.0903 547.508 81.7192 547.508 81.257ZM557.82 81.257C557.82 80.7687 557.635 80.3911 557.263 80.1241C556.899 79.8507 556.258 79.6163 555.34 79.421C554.428 79.2257 553.702 78.9913 553.162 78.7179C552.628 78.4445 552.231 78.1189 551.97 77.7413C551.717 77.3637 551.59 76.9145 551.59 76.3937C551.59 75.5278 551.954 74.7954 552.683 74.1964C553.419 73.5975 554.357 73.298 555.496 73.298C556.694 73.298 557.664 73.6072 558.406 74.2257C559.155 74.8442 559.529 75.6352 559.529 76.5988H557.713C557.713 76.104 557.501 75.6775 557.078 75.3195C556.661 74.9614 556.134 74.7823 555.496 74.7823C554.838 74.7823 554.324 74.9256 553.953 75.212C553.582 75.4985 553.396 75.8728 553.396 76.3351C553.396 76.7713 553.569 77.1001 553.914 77.3214C554.259 77.5428 554.881 77.7544 555.779 77.9562C556.684 78.158 557.416 78.3989 557.976 78.6788C558.536 78.9588 558.95 79.2973 559.217 79.6945C559.49 80.0851 559.627 80.5636 559.627 81.13C559.627 82.074 559.249 82.8325 558.494 83.4054C557.739 83.9718 556.759 84.255 555.554 84.255C554.708 84.255 553.959 84.1053 553.308 83.8058C552.657 83.5063 552.146 83.0896 551.775 82.5558C551.411 82.0154 551.228 81.4327 551.228 80.8077H553.035C553.067 81.4132 553.308 81.895 553.758 82.2531C554.213 82.6046 554.812 82.7804 555.554 82.7804C556.238 82.7804 556.785 82.6437 557.195 82.3702C557.612 82.0903 557.82 81.7192 557.82 81.257ZM575.867 78.8937C575.867 80.5017 575.499 81.7973 574.763 82.7804C574.028 83.7635 573.032 84.255 571.775 84.255C570.493 84.255 569.483 83.8481 568.748 83.0343V88.1222H566.941V73.4933H568.592L568.679 74.6652C569.415 73.7537 570.437 73.298 571.746 73.298C573.015 73.298 574.018 73.7765 574.754 74.7335C575.496 75.6906 575.867 77.0219 575.867 78.7277V78.8937ZM574.06 78.6886C574.06 77.4972 573.806 76.5564 573.299 75.8663C572.791 75.1762 572.094 74.8312 571.209 74.8312C570.115 74.8312 569.295 75.3162 568.748 76.2863V81.3351C569.288 82.2986 570.115 82.7804 571.228 82.7804C572.094 82.7804 572.781 82.4386 573.289 81.755C573.803 81.0649 574.06 80.0428 574.06 78.6886ZM583.279 75.1144C583.006 75.0688 582.709 75.046 582.39 75.046C581.205 75.046 580.401 75.5506 579.978 76.5597V84.0597H578.172V73.4933H579.929L579.959 74.714C580.551 73.77 581.391 73.298 582.478 73.298C582.83 73.298 583.097 73.3435 583.279 73.4347V75.1144ZM584.275 78.6788C584.275 77.6437 584.477 76.7127 584.881 75.8859C585.291 75.059 585.857 74.421 586.58 73.9718C587.309 73.5226 588.139 73.298 589.07 73.298C590.509 73.298 591.671 73.796 592.556 74.7921C593.448 75.7882 593.894 77.1131 593.894 78.7667V78.8937C593.894 79.9223 593.696 80.8468 593.299 81.6671C592.908 82.4809 592.345 83.1157 591.609 83.5714C590.88 84.0271 590.04 84.255 589.09 84.255C587.657 84.255 586.495 83.757 585.603 82.7609C584.718 81.7648 584.275 80.4464 584.275 78.8058V78.6788ZM586.092 78.8937C586.092 80.0656 586.362 81.0063 586.902 81.7159C587.449 82.4256 588.178 82.7804 589.09 82.7804C590.008 82.7804 590.737 82.4223 591.277 81.7062C591.817 80.9835 592.088 79.9744 592.088 78.6788C592.088 77.52 591.811 76.5825 591.258 75.8663C590.711 75.1437 589.982 74.7823 589.07 74.7823C588.178 74.7823 587.459 75.1372 586.912 75.8468C586.365 76.5564 586.092 77.5721 586.092 78.8937ZM600.398 82.7804C601.043 82.7804 601.606 82.5851 602.088 82.1945C602.569 81.8038 602.836 81.3156 602.888 80.7296H604.597C604.565 81.3351 604.357 81.9113 603.972 82.4581C603.588 83.005 603.074 83.4412 602.429 83.7667C601.791 84.0922 601.114 84.255 600.398 84.255C598.959 84.255 597.814 83.7765 596.961 82.8195C596.114 81.8559 595.691 80.5408 595.691 78.8741V78.5714C595.691 77.5428 595.88 76.6281 596.258 75.8273C596.635 75.0265 597.176 74.4047 597.879 73.962C598.588 73.5193 599.425 73.298 600.388 73.298C601.573 73.298 602.556 73.6528 603.338 74.3624C604.125 75.0721 604.545 75.9933 604.597 77.1261H602.888C602.836 76.4425 602.576 75.8826 602.107 75.4464C601.645 75.0037 601.072 74.7823 600.388 74.7823C599.47 74.7823 598.758 75.1144 598.25 75.7784C597.748 76.436 597.498 77.3898 597.498 78.6398V78.9816C597.498 80.199 597.748 81.1365 598.25 81.7941C598.751 82.4516 599.467 82.7804 600.398 82.7804ZM611.013 84.255C609.581 84.255 608.416 83.7863 607.517 82.8488C606.619 81.9047 606.17 80.645 606.17 79.0695V78.7374C606.17 77.6892 606.368 76.755 606.765 75.9347C607.169 75.1079 607.729 74.4633 608.445 74.0011C609.168 73.5323 609.949 73.298 610.789 73.298C612.163 73.298 613.23 73.7504 613.992 74.6554C614.754 75.5603 615.135 76.8559 615.135 78.5421V79.2941H607.976C608.002 80.3357 608.305 81.1788 608.885 81.8234C609.47 82.4614 610.213 82.7804 611.111 82.7804C611.749 82.7804 612.289 82.6502 612.732 82.3898C613.175 82.1294 613.562 81.7843 613.894 81.3546L614.998 82.214C614.112 83.5747 612.784 84.255 611.013 84.255ZM610.789 74.7823C610.06 74.7823 609.448 75.0493 608.953 75.5831C608.458 76.1105 608.152 76.8527 608.035 77.8097H613.328V77.673C613.276 76.755 613.028 76.0454 612.586 75.5441C612.143 75.0363 611.544 74.7823 610.789 74.7823ZM623.386 81.257C623.386 80.7687 623.201 80.3911 622.83 80.1241C622.465 79.8507 621.824 79.6163 620.906 79.421C619.995 79.2257 619.269 78.9913 618.728 78.7179C618.194 78.4445 617.797 78.1189 617.537 77.7413C617.283 77.3637 617.156 76.9145 617.156 76.3937C617.156 75.5278 617.521 74.7954 618.25 74.1964C618.985 73.5975 619.923 73.298 621.062 73.298C622.26 73.298 623.23 73.6072 623.972 74.2257C624.721 74.8442 625.095 75.6352 625.095 76.5988H623.279C623.279 76.104 623.067 75.6775 622.644 75.3195C622.228 74.9614 621.7 74.7823 621.062 74.7823C620.405 74.7823 619.89 74.9256 619.519 75.212C619.148 75.4985 618.963 75.8728 618.963 76.3351C618.963 76.7713 619.135 77.1001 619.48 77.3214C619.825 77.5428 620.447 77.7544 621.345 77.9562C622.25 78.158 622.983 78.3989 623.543 78.6788C624.103 78.9588 624.516 79.2973 624.783 79.6945C625.056 80.0851 625.193 80.5636 625.193 81.13C625.193 82.074 624.815 82.8325 624.06 83.4054C623.305 83.9718 622.325 84.255 621.121 84.255C620.274 84.255 619.526 84.1053 618.875 83.8058C618.224 83.5063 617.713 83.0896 617.342 82.5558C616.977 82.0154 616.795 81.4327 616.795 80.8077H618.601C618.634 81.4132 618.875 81.895 619.324 82.2531C619.78 82.6046 620.379 82.7804 621.121 82.7804C621.804 82.7804 622.351 82.6437 622.761 82.3702C623.178 82.0903 623.386 81.7192 623.386 81.257ZM633.699 81.257C633.699 80.7687 633.513 80.3911 633.142 80.1241C632.778 79.8507 632.136 79.6163 631.218 79.421C630.307 79.2257 629.581 78.9913 629.041 78.7179C628.507 78.4445 628.11 78.1189 627.849 77.7413C627.595 77.3637 627.468 76.9145 627.468 76.3937C627.468 75.5278 627.833 74.7954 628.562 74.1964C629.298 73.5975 630.235 73.298 631.375 73.298C632.573 73.298 633.543 73.6072 634.285 74.2257C635.034 74.8442 635.408 75.6352 635.408 76.5988H633.592C633.592 76.104 633.38 75.6775 632.957 75.3195C632.54 74.9614 632.013 74.7823 631.375 74.7823C630.717 74.7823 630.203 74.9256 629.832 75.212C629.461 75.4985 629.275 75.8728 629.275 76.3351C629.275 76.7713 629.448 77.1001 629.793 77.3214C630.138 77.5428 630.76 77.7544 631.658 77.9562C632.563 78.158 633.295 78.3989 633.855 78.6788C634.415 78.9588 634.829 79.2973 635.095 79.6945C635.369 80.0851 635.506 80.5636 635.506 81.13C635.506 82.074 635.128 82.8325 634.373 83.4054C633.618 83.9718 632.638 84.255 631.433 84.255C630.587 84.255 629.838 84.1053 629.187 83.8058C628.536 83.5063 628.025 83.0896 627.654 82.5558C627.289 82.0154 627.107 81.4327 627.107 80.8077H628.914C628.946 81.4132 629.187 81.895 629.636 82.2531C630.092 82.6046 630.691 82.7804 631.433 82.7804C632.117 82.7804 632.664 82.6437 633.074 82.3702C633.491 82.0903 633.699 81.7192 633.699 81.257Z" fill="white"/>
<rect x="864.914" y="38.9546" width="137.438" height="73.4744" rx="5" fill="#2A365C"/>
<path d="M914.505 84.0597V69.8409H918.519C919.756 69.8409 920.849 70.1144 921.8 70.6613C922.75 71.2081 923.483 71.9861 923.997 72.9952C924.518 74.0044 924.782 75.1632 924.788 76.4718V77.38C924.788 78.7212 924.528 79.8963 924.007 80.9054C923.492 81.9145 922.754 82.6892 921.79 83.2296C920.833 83.77 919.716 84.0467 918.44 84.0597H914.505ZM916.38 71.3839V82.5265H918.353C919.798 82.5265 920.921 82.0773 921.722 81.1788C922.529 80.2804 922.933 79.0011 922.933 77.3409V76.5109C922.933 74.8963 922.552 73.643 921.79 72.7511C921.035 71.8527 919.961 71.3969 918.567 71.3839H916.38ZM933.87 84.0597C933.766 83.8514 933.681 83.4803 933.616 82.9464C932.776 83.8188 931.774 84.255 930.608 84.255C929.567 84.255 928.711 83.962 928.04 83.3761C927.376 82.7837 927.044 82.035 927.044 81.13C927.044 80.0297 927.461 79.1769 928.294 78.5714C929.134 77.9594 930.312 77.6534 931.829 77.6534H933.587V76.8234C933.587 76.1919 933.398 75.6906 933.02 75.3195C932.643 74.9419 932.086 74.7531 931.351 74.7531C930.706 74.7531 930.166 74.9158 929.729 75.2413C929.293 75.5669 929.075 75.9607 929.075 76.423H927.259C927.259 75.8956 927.444 75.3878 927.815 74.8995C928.193 74.4047 928.701 74.0141 929.339 73.7277C929.983 73.4412 930.69 73.298 931.458 73.298C932.675 73.298 933.629 73.604 934.319 74.2159C935.009 74.8214 935.367 75.658 935.394 76.7257V81.589C935.394 82.559 935.517 83.3305 935.765 83.9034V84.0597H933.87ZM930.872 82.6827C931.438 82.6827 931.976 82.5363 932.483 82.2433C932.991 81.9503 933.359 81.5695 933.587 81.1007V78.9327H932.171C929.957 78.9327 928.851 79.5805 928.851 80.8761C928.851 81.4425 929.039 81.8852 929.417 82.2042C929.795 82.5232 930.28 82.6827 930.872 82.6827ZM940.677 70.9347V73.4933H942.649V74.8898H940.677V81.4425C940.677 81.8657 940.765 82.1847 940.94 82.3995C941.116 82.6079 941.416 82.712 941.839 82.712C942.047 82.712 942.334 82.673 942.698 82.5948V84.0597C942.223 84.1899 941.761 84.255 941.312 84.255C940.504 84.255 939.895 84.0109 939.485 83.5226C939.075 83.0343 938.87 82.3409 938.87 81.4425V74.8898H936.946V73.4933H938.87V70.9347H940.677ZM951.292 84.0597C951.188 83.8514 951.103 83.4803 951.038 82.9464C950.198 83.8188 949.196 84.255 948.03 84.255C946.989 84.255 946.132 83.962 945.462 83.3761C944.798 82.7837 944.466 82.035 944.466 81.13C944.466 80.0297 944.882 79.1769 945.716 78.5714C946.556 77.9594 947.734 77.6534 949.251 77.6534H951.009V76.8234C951.009 76.1919 950.82 75.6906 950.442 75.3195C950.065 74.9419 949.508 74.7531 948.772 74.7531C948.128 74.7531 947.588 74.9158 947.151 75.2413C946.715 75.5669 946.497 75.9607 946.497 76.423H944.681C944.681 75.8956 944.866 75.3878 945.237 74.8995C945.615 74.4047 946.123 74.0141 946.761 73.7277C947.405 73.4412 948.112 73.298 948.88 73.298C950.097 73.298 951.051 73.604 951.741 74.2159C952.431 74.8214 952.789 75.658 952.815 76.7257V81.589C952.815 82.559 952.939 83.3305 953.187 83.9034V84.0597H951.292ZM948.294 82.6827C948.86 82.6827 949.397 82.5363 949.905 82.2433C950.413 81.9503 950.781 81.5695 951.009 81.1007V78.9327H949.593C947.379 78.9327 946.272 79.5805 946.272 80.8761C946.272 81.4425 946.461 81.8852 946.839 82.2042C947.216 82.5232 947.701 82.6827 948.294 82.6827Z" fill="white"/>
<rect x="1176.65" y="38.9546" width="297.618" height="73.4744" rx="5" fill="#2A365C"/>
<path d="M1233.95 71.7812V57.5625H1238.6C1240.15 57.5625 1241.3 57.8815 1242.08 58.5195C1242.86 59.1576 1243.25 60.1016 1243.25 61.3516C1243.25 62.0156 1243.06 62.6048 1242.68 63.1191C1242.31 63.627 1241.79 64.0208 1241.14 64.3008C1241.91 64.5156 1242.52 64.9258 1242.96 65.5312C1243.41 66.1302 1243.63 66.8464 1243.63 67.6797C1243.63 68.9557 1243.22 69.9583 1242.39 70.6875C1241.56 71.4167 1240.4 71.7812 1238.89 71.7812H1233.95ZM1235.83 65.1309V70.248H1238.92C1239.8 70.248 1240.48 70.0234 1240.99 69.5742C1241.49 69.1185 1241.75 68.4935 1241.75 67.6992C1241.75 65.987 1240.82 65.1309 1238.95 65.1309H1235.83ZM1235.83 63.627H1238.66C1239.48 63.627 1240.14 63.4219 1240.62 63.0117C1241.12 62.6016 1241.37 62.0449 1241.37 61.3418C1241.37 60.5605 1241.14 59.9941 1240.68 59.6426C1240.23 59.2845 1239.53 59.1055 1238.6 59.1055H1235.83V63.627ZM1252.66 70.7363C1251.95 71.5632 1250.92 71.9766 1249.56 71.9766C1248.43 71.9766 1247.57 71.651 1246.98 71C1246.4 70.3424 1246.1 69.3724 1246.09 68.0898V61.2148H1247.9V68.041C1247.9 69.6426 1248.55 70.4434 1249.85 70.4434C1251.23 70.4434 1252.15 69.929 1252.61 68.9004V61.2148H1254.41V71.7812H1252.69L1252.66 70.7363ZM1263.32 68.9785C1263.32 68.4902 1263.13 68.1126 1262.76 67.8457C1262.4 67.5723 1261.76 67.3379 1260.84 67.1426C1259.93 66.9473 1259.2 66.7129 1258.66 66.4395C1258.13 66.166 1257.73 65.8405 1257.47 65.4629C1257.22 65.0853 1257.09 64.6361 1257.09 64.1152C1257.09 63.2493 1257.45 62.5169 1258.18 61.918C1258.92 61.319 1259.86 61.0195 1261 61.0195C1262.19 61.0195 1263.16 61.3288 1263.91 61.9473C1264.65 62.5658 1265.03 63.3568 1265.03 64.3203H1263.21C1263.21 63.8255 1263 63.3991 1262.58 63.041C1262.16 62.6829 1261.63 62.5039 1261 62.5039C1260.34 62.5039 1259.82 62.6471 1259.45 62.9336C1259.08 63.2201 1258.9 63.5944 1258.9 64.0566C1258.9 64.4928 1259.07 64.8216 1259.41 65.043C1259.76 65.2643 1260.38 65.4759 1261.28 65.6777C1262.18 65.8796 1262.92 66.1204 1263.48 66.4004C1264.04 66.6803 1264.45 67.0189 1264.72 67.416C1264.99 67.8066 1265.13 68.2852 1265.13 68.8516C1265.13 69.7956 1264.75 70.554 1263.99 71.127C1263.24 71.6934 1262.26 71.9766 1261.05 71.9766C1260.21 71.9766 1259.46 71.8268 1258.81 71.5273C1258.16 71.2279 1257.65 70.8112 1257.27 70.2773C1256.91 69.737 1256.73 69.1543 1256.73 68.5293H1258.53C1258.57 69.1348 1258.81 69.6165 1259.26 69.9746C1259.71 70.3262 1260.31 70.502 1261.05 70.502C1261.74 70.502 1262.28 70.3652 1262.69 70.0918C1263.11 69.8118 1263.32 69.4408 1263.32 68.9785ZM1269.44 71.7812H1267.64V61.2148H1269.44V71.7812ZM1267.49 58.4121C1267.49 58.1191 1267.58 57.8717 1267.75 57.6699C1267.94 57.4681 1268.2 57.3672 1268.55 57.3672C1268.91 57.3672 1269.17 57.4681 1269.35 57.6699C1269.54 57.8717 1269.63 58.1191 1269.63 58.4121C1269.63 58.7051 1269.54 58.9492 1269.35 59.1445C1269.17 59.3398 1268.91 59.4375 1268.55 59.4375C1268.2 59.4375 1267.94 59.3398 1267.75 59.1445C1267.58 58.9492 1267.49 58.7051 1267.49 58.4121ZM1274.05 61.2148L1274.11 62.543C1274.92 61.5273 1275.97 61.0195 1277.27 61.0195C1279.51 61.0195 1280.63 62.2793 1280.65 64.7988V71.7812H1278.85V64.7891C1278.84 64.0273 1278.66 63.4642 1278.32 63.0996C1277.98 62.735 1277.45 62.5527 1276.73 62.5527C1276.14 62.5527 1275.63 62.709 1275.18 63.0215C1274.74 63.334 1274.4 63.7441 1274.15 64.252V71.7812H1272.34V61.2148H1274.05ZM1287.76 71.9766C1286.33 71.9766 1285.17 71.5078 1284.27 70.5703C1283.37 69.6263 1282.92 68.3665 1282.92 66.791V66.459C1282.92 65.4108 1283.12 64.4766 1283.51 63.6562C1283.92 62.8294 1284.48 62.1849 1285.19 61.7227C1285.92 61.2539 1286.7 61.0195 1287.54 61.0195C1288.91 61.0195 1289.98 61.472 1290.74 62.377C1291.5 63.2819 1291.88 64.5775 1291.88 66.2637V67.0156H1284.73C1284.75 68.0573 1285.05 68.9004 1285.63 69.5449C1286.22 70.1829 1286.96 70.502 1287.86 70.502C1288.5 70.502 1289.04 70.3717 1289.48 70.1113C1289.92 69.8509 1290.31 69.5059 1290.64 69.0762L1291.75 69.9355C1290.86 71.2962 1289.53 71.9766 1287.76 71.9766ZM1287.54 62.5039C1286.81 62.5039 1286.2 62.7708 1285.7 63.3047C1285.21 63.832 1284.9 64.5742 1284.78 65.5312H1290.08V65.3945C1290.03 64.4766 1289.78 63.7669 1289.33 63.2656C1288.89 62.7578 1288.29 62.5039 1287.54 62.5039ZM1300.14 68.9785C1300.14 68.4902 1299.95 68.1126 1299.58 67.8457C1299.21 67.5723 1298.57 67.3379 1297.66 67.1426C1296.74 66.9473 1296.02 66.7129 1295.48 66.4395C1294.94 66.166 1294.55 65.8405 1294.29 65.4629C1294.03 65.0853 1293.91 64.6361 1293.91 64.1152C1293.91 63.2493 1294.27 62.5169 1295 61.918C1295.73 61.319 1296.67 61.0195 1297.81 61.0195C1299.01 61.0195 1299.98 61.3288 1300.72 61.9473C1301.47 62.5658 1301.84 63.3568 1301.84 64.3203H1300.03C1300.03 63.8255 1299.82 63.3991 1299.39 63.041C1298.98 62.6829 1298.45 62.5039 1297.81 62.5039C1297.15 62.5039 1296.64 62.6471 1296.27 62.9336C1295.9 63.2201 1295.71 63.5944 1295.71 64.0566C1295.71 64.4928 1295.88 64.8216 1296.23 65.043C1296.57 65.2643 1297.2 65.4759 1298.09 65.6777C1299 65.8796 1299.73 66.1204 1300.29 66.4004C1300.85 66.6803 1301.27 67.0189 1301.53 67.416C1301.81 67.8066 1301.94 68.2852 1301.94 68.8516C1301.94 69.7956 1301.56 70.554 1300.81 71.127C1300.05 71.6934 1299.07 71.9766 1297.87 71.9766C1297.02 71.9766 1296.28 71.8268 1295.62 71.5273C1294.97 71.2279 1294.46 70.8112 1294.09 70.2773C1293.73 69.737 1293.54 69.1543 1293.54 68.5293H1295.35C1295.38 69.1348 1295.62 69.6165 1296.07 69.9746C1296.53 70.3262 1297.13 70.502 1297.87 70.502C1298.55 70.502 1299.1 70.3652 1299.51 70.0918C1299.93 69.8118 1300.14 69.4408 1300.14 68.9785ZM1310.45 68.9785C1310.45 68.4902 1310.26 68.1126 1309.89 67.8457C1309.53 67.5723 1308.89 67.3379 1307.97 67.1426C1307.06 66.9473 1306.33 66.7129 1305.79 66.4395C1305.26 66.166 1304.86 65.8405 1304.6 65.4629C1304.34 65.0853 1304.22 64.6361 1304.22 64.1152C1304.22 63.2493 1304.58 62.5169 1305.31 61.918C1306.05 61.319 1306.98 61.0195 1308.12 61.0195C1309.32 61.0195 1310.29 61.3288 1311.03 61.9473C1311.78 62.5658 1312.16 63.3568 1312.16 64.3203H1310.34C1310.34 63.8255 1310.13 63.3991 1309.71 63.041C1309.29 62.6829 1308.76 62.5039 1308.12 62.5039C1307.47 62.5039 1306.95 62.6471 1306.58 62.9336C1306.21 63.2201 1306.02 63.5944 1306.02 64.0566C1306.02 64.4928 1306.2 64.8216 1306.54 65.043C1306.89 65.2643 1307.51 65.4759 1308.41 65.6777C1309.31 65.8796 1310.04 66.1204 1310.6 66.4004C1311.16 66.6803 1311.58 67.0189 1311.84 67.416C1312.12 67.8066 1312.25 68.2852 1312.25 68.8516C1312.25 69.7956 1311.88 70.554 1311.12 71.127C1310.37 71.6934 1309.39 71.9766 1308.18 71.9766C1307.34 71.9766 1306.59 71.8268 1305.94 71.5273C1305.29 71.2279 1304.77 70.8112 1304.4 70.2773C1304.04 69.737 1303.86 69.1543 1303.86 68.5293H1305.66C1305.7 69.1348 1305.94 69.6165 1306.39 69.9746C1306.84 70.3262 1307.44 70.502 1308.18 70.502C1308.87 70.502 1309.41 70.3652 1309.82 70.0918C1310.24 69.8118 1310.45 69.4408 1310.45 68.9785ZM1321.53 71.7812H1319.73V61.2148H1321.53V71.7812ZM1319.58 58.4121C1319.58 58.1191 1319.67 57.8717 1319.84 57.6699C1320.03 57.4681 1320.29 57.3672 1320.64 57.3672C1321 57.3672 1321.26 57.4681 1321.44 57.6699C1321.63 57.8717 1321.72 58.1191 1321.72 58.4121C1321.72 58.7051 1321.63 58.9492 1321.44 59.1445C1321.26 59.3398 1321 59.4375 1320.64 59.4375C1320.29 59.4375 1320.03 59.3398 1319.84 59.1445C1319.67 58.9492 1319.58 58.7051 1319.58 58.4121ZM1326.14 61.2148L1326.2 62.543C1327.01 61.5273 1328.06 61.0195 1329.36 61.0195C1331.6 61.0195 1332.72 62.2793 1332.74 64.7988V71.7812H1330.94V64.7891C1330.93 64.0273 1330.75 63.4642 1330.41 63.0996C1330.07 62.735 1329.54 62.5527 1328.82 62.5527C1328.23 62.5527 1327.72 62.709 1327.27 63.0215C1326.83 63.334 1326.49 63.7441 1326.24 64.252V71.7812H1324.43V61.2148H1326.14ZM1337.92 58.6562V61.2148H1339.89V62.6113H1337.92V69.1641C1337.92 69.5872 1338.01 69.9062 1338.18 70.1211C1338.36 70.3294 1338.66 70.4336 1339.08 70.4336C1339.29 70.4336 1339.58 70.3945 1339.94 70.3164V71.7812C1339.47 71.9115 1339 71.9766 1338.55 71.9766C1337.75 71.9766 1337.14 71.7324 1336.73 71.2441C1336.32 70.7559 1336.11 70.0625 1336.11 69.1641V62.6113H1334.19V61.2148H1336.11V58.6562H1337.92ZM1346.4 71.9766C1344.96 71.9766 1343.8 71.5078 1342.9 70.5703C1342 69.6263 1341.55 68.3665 1341.55 66.791V66.459C1341.55 65.4108 1341.75 64.4766 1342.15 63.6562C1342.55 62.8294 1343.11 62.1849 1343.83 61.7227C1344.55 61.2539 1345.33 61.0195 1346.17 61.0195C1347.54 61.0195 1348.61 61.472 1349.37 62.377C1350.14 63.2819 1350.52 64.5775 1350.52 66.2637V67.0156H1343.36C1343.38 68.0573 1343.69 68.9004 1344.27 69.5449C1344.85 70.1829 1345.59 70.502 1346.49 70.502C1347.13 70.502 1347.67 70.3717 1348.11 70.1113C1348.56 69.8509 1348.94 69.5059 1349.28 69.0762L1350.38 69.9355C1349.49 71.2962 1348.17 71.9766 1346.4 71.9766ZM1346.17 62.5039C1345.44 62.5039 1344.83 62.7708 1344.33 63.3047C1343.84 63.832 1343.53 64.5742 1343.42 65.5312H1348.71V65.3945C1348.66 64.4766 1348.41 63.7669 1347.97 63.2656C1347.53 62.7578 1346.93 62.5039 1346.17 62.5039ZM1354.58 71.7812H1352.77V56.7812H1354.58V71.7812ZM1359.44 71.7812H1357.64V56.7812H1359.44V71.7812ZM1364.31 71.7812H1362.5V61.2148H1364.31V71.7812ZM1362.35 58.4121C1362.35 58.1191 1362.44 57.8717 1362.62 57.6699C1362.8 57.4681 1363.07 57.3672 1363.42 57.3672C1363.77 57.3672 1364.04 57.4681 1364.22 57.6699C1364.4 57.8717 1364.49 58.1191 1364.49 58.4121C1364.49 58.7051 1364.4 58.9492 1364.22 59.1445C1364.04 59.3398 1363.77 59.4375 1363.42 59.4375C1363.07 59.4375 1362.8 59.3398 1362.62 59.1445C1362.44 58.9492 1362.35 58.7051 1362.35 58.4121ZM1366.78 66.4102C1366.78 64.763 1367.16 63.4544 1367.92 62.4844C1368.68 61.5078 1369.69 61.0195 1370.95 61.0195C1372.24 61.0195 1373.24 61.4753 1373.96 62.3867L1374.05 61.2148H1375.7V71.5273C1375.7 72.8945 1375.3 73.972 1374.48 74.7598C1373.67 75.5475 1372.59 75.9414 1371.22 75.9414C1370.46 75.9414 1369.71 75.7786 1368.98 75.4531C1368.25 75.1276 1367.7 74.6816 1367.31 74.1152L1368.25 73.0312C1369.03 73.9883 1369.97 74.4668 1371.09 74.4668C1371.97 74.4668 1372.66 74.2194 1373.14 73.7246C1373.64 73.2298 1373.89 72.5332 1373.89 71.6348V70.7266C1373.16 71.5599 1372.18 71.9766 1370.93 71.9766C1369.69 71.9766 1368.69 71.4785 1367.92 70.4824C1367.16 69.4863 1366.78 68.1289 1366.78 66.4102ZM1368.59 66.6152C1368.59 67.8066 1368.84 68.7441 1369.33 69.4277C1369.81 70.1048 1370.5 70.4434 1371.38 70.4434C1372.52 70.4434 1373.35 69.9258 1373.89 68.8906V64.0664C1373.33 63.0573 1372.5 62.5527 1371.4 62.5527C1370.52 62.5527 1369.83 62.8945 1369.33 63.5781C1368.84 64.2617 1368.59 65.2741 1368.59 66.6152ZM1382.82 71.9766C1381.39 71.9766 1380.22 71.5078 1379.33 70.5703C1378.43 69.6263 1377.98 68.3665 1377.98 66.791V66.459C1377.98 65.4108 1378.18 64.4766 1378.57 63.6562C1378.98 62.8294 1379.54 62.1849 1380.25 61.7227C1380.98 61.2539 1381.76 61.0195 1382.6 61.0195C1383.97 61.0195 1385.04 61.472 1385.8 62.377C1386.56 63.2819 1386.94 64.5775 1386.94 66.2637V67.0156H1379.78C1379.81 68.0573 1380.11 68.9004 1380.69 69.5449C1381.28 70.1829 1382.02 70.502 1382.92 70.502C1383.56 70.502 1384.1 70.3717 1384.54 70.1113C1384.98 69.8509 1385.37 69.5059 1385.7 69.0762L1386.81 69.9355C1385.92 71.2962 1384.59 71.9766 1382.82 71.9766ZM1382.6 62.5039C1381.87 62.5039 1381.26 62.7708 1380.76 63.3047C1380.27 63.832 1379.96 64.5742 1379.84 65.5312H1385.14V65.3945C1385.08 64.4766 1384.84 63.7669 1384.39 63.2656C1383.95 62.7578 1383.35 62.5039 1382.6 62.5039ZM1390.75 61.2148L1390.81 62.543C1391.62 61.5273 1392.67 61.0195 1393.97 61.0195C1396.21 61.0195 1397.33 62.2793 1397.35 64.7988V71.7812H1395.55V64.7891C1395.54 64.0273 1395.36 63.4642 1395.02 63.0996C1394.68 62.735 1394.15 62.5527 1393.43 62.5527C1392.84 62.5527 1392.33 62.709 1391.88 63.0215C1391.44 63.334 1391.1 63.7441 1390.85 64.252V71.7812H1389.04V61.2148H1390.75ZM1404.32 70.502C1404.96 70.502 1405.52 70.3066 1406 69.916C1406.49 69.5254 1406.75 69.0371 1406.81 68.4512H1408.51C1408.48 69.0566 1408.27 69.6328 1407.89 70.1797C1407.51 70.7266 1406.99 71.1628 1406.35 71.4883C1405.71 71.8138 1405.03 71.9766 1404.32 71.9766C1402.88 71.9766 1401.73 71.498 1400.88 70.541C1400.03 69.5775 1399.61 68.2624 1399.61 66.5957V66.293C1399.61 65.2643 1399.8 64.3496 1400.17 63.5488C1400.55 62.748 1401.09 62.1263 1401.8 61.6836C1402.51 61.2409 1403.34 61.0195 1404.31 61.0195C1405.49 61.0195 1406.47 61.3743 1407.25 62.084C1408.04 62.7936 1408.46 63.7148 1408.51 64.8477H1406.81C1406.75 64.1641 1406.49 63.6042 1406.02 63.168C1405.56 62.7253 1404.99 62.5039 1404.31 62.5039C1403.39 62.5039 1402.67 62.8359 1402.17 63.5C1401.67 64.1576 1401.42 65.1113 1401.42 66.3613V66.7031C1401.42 67.9206 1401.67 68.8581 1402.17 69.5156C1402.67 70.1732 1403.38 70.502 1404.32 70.502ZM1414.93 71.9766C1413.5 71.9766 1412.33 71.5078 1411.43 70.5703C1410.54 69.6263 1410.09 68.3665 1410.09 66.791V66.459C1410.09 65.4108 1410.29 64.4766 1410.68 63.6562C1411.09 62.8294 1411.65 62.1849 1412.36 61.7227C1413.08 61.2539 1413.87 61.0195 1414.71 61.0195C1416.08 61.0195 1417.15 61.472 1417.91 62.377C1418.67 63.2819 1419.05 64.5775 1419.05 66.2637V67.0156H1411.89C1411.92 68.0573 1412.22 68.9004 1412.8 69.5449C1413.39 70.1829 1414.13 70.502 1415.03 70.502C1415.67 70.502 1416.21 70.3717 1416.65 70.1113C1417.09 69.8509 1417.48 69.5059 1417.81 69.0762L1418.92 69.9355C1418.03 71.2962 1416.7 71.9766 1414.93 71.9766ZM1414.71 62.5039C1413.98 62.5039 1413.36 62.7708 1412.87 63.3047C1412.38 63.832 1412.07 64.5742 1411.95 65.5312H1417.25V65.3945C1417.19 64.4766 1416.95 63.7669 1416.5 63.2656C1416.06 62.7578 1415.46 62.5039 1414.71 62.5039ZM1221.5 96.9629C1221.5 96.2793 1221.69 95.651 1222.07 95.0781C1222.45 94.5052 1223.18 93.8379 1224.26 93.0762C1223.63 92.3079 1223.2 91.6895 1222.99 91.2207C1222.77 90.752 1222.67 90.2865 1222.67 89.8242C1222.67 88.7435 1222.98 87.8971 1223.62 87.2852C1224.26 86.6732 1225.13 86.3672 1226.22 86.3672C1227.2 86.3672 1228 86.6536 1228.64 87.2266C1229.28 87.793 1229.6 88.5091 1229.6 89.375C1229.6 89.9479 1229.45 90.4785 1229.16 90.9668C1228.87 91.4486 1228.37 91.9564 1227.65 92.4902L1226.6 93.2617L1229.76 97.041C1230.21 96.1947 1230.43 95.2539 1230.43 94.2188H1232.06C1232.06 95.8789 1231.66 97.2559 1230.86 98.3496L1232.89 100.781H1230.72L1229.77 99.6582C1229.29 100.088 1228.73 100.417 1228.08 100.645C1227.43 100.866 1226.77 100.977 1226.1 100.977C1224.72 100.977 1223.6 100.609 1222.76 99.873C1221.92 99.1374 1221.5 98.1673 1221.5 96.9629ZM1226.1 99.502C1227.06 99.502 1227.94 99.1374 1228.73 98.4082L1225.26 94.2578L1224.94 94.4922C1223.85 95.293 1223.31 96.1165 1223.31 96.9629C1223.31 97.7311 1223.56 98.3464 1224.05 98.8086C1224.55 99.2708 1225.24 99.502 1226.1 99.502ZM1224.47 89.7656C1224.47 90.3906 1224.86 91.1719 1225.62 92.1094L1226.78 91.2988C1227.22 90.9863 1227.52 90.6901 1227.68 90.4102C1227.85 90.1237 1227.93 89.7786 1227.93 89.375C1227.93 88.9388 1227.77 88.5775 1227.44 88.291C1227.11 87.998 1226.7 87.8516 1226.21 87.8516C1225.68 87.8516 1225.25 88.0339 1224.94 88.3984C1224.63 88.7565 1224.47 89.2122 1224.47 89.7656ZM1243.52 99.502C1244.17 99.502 1244.73 99.3066 1245.21 98.916C1245.7 98.5254 1245.96 98.0371 1246.01 97.4512H1247.72C1247.69 98.0566 1247.48 98.6328 1247.1 99.1797C1246.71 99.7266 1246.2 100.163 1245.56 100.488C1244.92 100.814 1244.24 100.977 1243.52 100.977C1242.09 100.977 1240.94 100.498 1240.09 99.541C1239.24 98.5775 1238.82 97.2624 1238.82 95.5957V95.293C1238.82 94.2643 1239.01 93.3496 1239.38 92.5488C1239.76 91.748 1240.3 91.1263 1241 90.6836C1241.71 90.2409 1242.55 90.0195 1243.51 90.0195C1244.7 90.0195 1245.68 90.3743 1246.46 91.084C1247.25 91.7936 1247.67 92.7148 1247.72 93.8477H1246.01C1245.96 93.1641 1245.7 92.6042 1245.23 92.168C1244.77 91.7253 1244.2 91.5039 1243.51 91.5039C1242.6 91.5039 1241.88 91.8359 1241.38 92.5C1240.87 93.1576 1240.62 94.1113 1240.62 95.3613V95.7031C1240.62 96.9206 1240.87 97.8581 1241.38 98.5156C1241.88 99.1732 1242.59 99.502 1243.52 99.502ZM1256.28 99.7363C1255.58 100.563 1254.54 100.977 1253.18 100.977C1252.06 100.977 1251.2 100.651 1250.6 100C1250.02 99.3424 1249.72 98.3724 1249.72 97.0898V90.2148H1251.52V97.041C1251.52 98.6426 1252.17 99.4434 1253.48 99.4434C1254.86 99.4434 1255.77 98.929 1256.23 97.9004V90.2148H1258.04V100.781H1256.32L1256.28 99.7363ZM1266.94 97.9785C1266.94 97.4902 1266.76 97.1126 1266.39 96.8457C1266.02 96.5723 1265.38 96.3379 1264.46 96.1426C1263.55 95.9473 1262.82 95.7129 1262.28 95.4395C1261.75 95.166 1261.35 94.8405 1261.09 94.4629C1260.84 94.0853 1260.71 93.6361 1260.71 93.1152C1260.71 92.2493 1261.08 91.5169 1261.81 90.918C1262.54 90.319 1263.48 90.0195 1264.62 90.0195C1265.82 90.0195 1266.79 90.3288 1267.53 90.9473C1268.28 91.5658 1268.65 92.3568 1268.65 93.3203H1266.83C1266.83 92.8255 1266.62 92.3991 1266.2 92.041C1265.78 91.6829 1265.26 91.5039 1264.62 91.5039C1263.96 91.5039 1263.45 91.6471 1263.08 91.9336C1262.7 92.2201 1262.52 92.5944 1262.52 93.0566C1262.52 93.4928 1262.69 93.8216 1263.04 94.043C1263.38 94.2643 1264 94.4759 1264.9 94.6777C1265.81 94.8796 1266.54 95.1204 1267.1 95.4004C1267.66 95.6803 1268.07 96.0189 1268.34 96.416C1268.61 96.8066 1268.75 97.2852 1268.75 97.8516C1268.75 98.7956 1268.37 99.554 1267.62 100.127C1266.86 100.693 1265.88 100.977 1264.68 100.977C1263.83 100.977 1263.08 100.827 1262.43 100.527C1261.78 100.228 1261.27 99.8112 1260.9 99.2773C1260.53 98.737 1260.35 98.1543 1260.35 97.5293H1262.16C1262.19 98.1348 1262.43 98.6165 1262.88 98.9746C1263.34 99.3262 1263.93 99.502 1264.68 99.502C1265.36 99.502 1265.91 99.3652 1266.32 99.0918C1266.73 98.8118 1266.94 98.4408 1266.94 97.9785ZM1273.55 87.6562V90.2148H1275.53V91.6113H1273.55V98.1641C1273.55 98.5872 1273.64 98.9062 1273.82 99.1211C1273.99 99.3294 1274.29 99.4336 1274.72 99.4336C1274.92 99.4336 1275.21 99.3945 1275.58 99.3164V100.781C1275.1 100.911 1274.64 100.977 1274.19 100.977C1273.38 100.977 1272.77 100.732 1272.36 100.244C1271.95 99.7559 1271.75 99.0625 1271.75 98.1641V91.6113H1269.82V90.2148H1271.75V87.6562H1273.55ZM1276.97 95.4004C1276.97 94.3652 1277.17 93.4342 1277.58 92.6074C1277.99 91.7806 1278.55 91.1426 1279.28 90.6934C1280.01 90.2441 1280.84 90.0195 1281.77 90.0195C1283.21 90.0195 1284.37 90.5176 1285.25 91.5137C1286.14 92.5098 1286.59 93.8346 1286.59 95.4883V95.6152C1286.59 96.6439 1286.39 97.5684 1286 98.3887C1285.6 99.2025 1285.04 99.8372 1284.31 100.293C1283.58 100.749 1282.74 100.977 1281.79 100.977C1280.35 100.977 1279.19 100.479 1278.3 99.4824C1277.41 98.4863 1276.97 97.168 1276.97 95.5273V95.4004ZM1278.79 95.6152C1278.79 96.7871 1279.06 97.7279 1279.6 98.4375C1280.15 99.1471 1280.87 99.502 1281.79 99.502C1282.7 99.502 1283.43 99.1439 1283.97 98.4277C1284.51 97.7051 1284.78 96.696 1284.78 95.4004C1284.78 94.2415 1284.51 93.304 1283.95 92.5879C1283.41 91.8652 1282.68 91.5039 1281.77 91.5039C1280.87 91.5039 1280.16 91.8587 1279.61 92.5684C1279.06 93.278 1278.79 94.2936 1278.79 95.6152ZM1290.56 90.2148L1290.6 91.3867C1291.38 90.4753 1292.42 90.0195 1293.74 90.0195C1295.22 90.0195 1296.22 90.5859 1296.76 91.7188C1297.11 91.2109 1297.56 90.8008 1298.12 90.4883C1298.69 90.1758 1299.36 90.0195 1300.13 90.0195C1302.44 90.0195 1303.62 91.2467 1303.66 93.7012V100.781H1301.85V93.8086C1301.85 93.0534 1301.68 92.4902 1301.34 92.1191C1300.99 91.7415 1300.41 91.5527 1299.6 91.5527C1298.93 91.5527 1298.37 91.7546 1297.93 92.1582C1297.49 92.5553 1297.23 93.0924 1297.16 93.7695V100.781H1295.34V93.8574C1295.34 92.321 1294.59 91.5527 1293.08 91.5527C1291.9 91.5527 1291.09 92.0573 1290.65 93.0664V100.781H1288.85V90.2148H1290.56ZM1310.78 100.977C1309.35 100.977 1308.18 100.508 1307.28 99.5703C1306.39 98.6263 1305.94 97.3665 1305.94 95.791V95.459C1305.94 94.4108 1306.14 93.4766 1306.53 92.6562C1306.94 91.8294 1307.5 91.1849 1308.21 90.7227C1308.93 90.2539 1309.72 90.0195 1310.56 90.0195C1311.93 90.0195 1313 90.472 1313.76 91.377C1314.52 92.2819 1314.9 93.5775 1314.9 95.2637V96.0156H1307.74C1307.77 97.0573 1308.07 97.9004 1308.65 98.5449C1309.24 99.1829 1309.98 99.502 1310.88 99.502C1311.52 99.502 1312.06 99.3717 1312.5 99.1113C1312.94 98.8509 1313.33 98.5059 1313.66 98.0762L1314.76 98.9355C1313.88 100.296 1312.55 100.977 1310.78 100.977ZM1310.56 91.5039C1309.83 91.5039 1309.21 91.7708 1308.72 92.3047C1308.22 92.832 1307.92 93.5742 1307.8 94.5312H1313.09V94.3945C1313.04 93.4766 1312.8 92.7669 1312.35 92.2656C1311.91 91.7578 1311.31 91.5039 1310.56 91.5039ZM1322.11 91.8359C1321.83 91.7904 1321.54 91.7676 1321.22 91.7676C1320.03 91.7676 1319.23 92.2721 1318.81 93.2812V100.781H1317V90.2148H1318.76L1318.79 91.4355C1319.38 90.4915 1320.22 90.0195 1321.31 90.0195C1321.66 90.0195 1321.93 90.0651 1322.11 90.1562V91.8359ZM1333.85 91.8359C1333.57 91.7904 1333.28 91.7676 1332.96 91.7676C1331.77 91.7676 1330.97 92.2721 1330.55 93.2812V100.781H1328.74V90.2148H1330.5L1330.53 91.4355C1331.12 90.4915 1331.96 90.0195 1333.05 90.0195C1333.4 90.0195 1333.66 90.0651 1333.85 90.1562V91.8359ZM1339.71 100.977C1338.27 100.977 1337.11 100.508 1336.21 99.5703C1335.31 98.6263 1334.86 97.3665 1334.86 95.791V95.459C1334.86 94.4108 1335.06 93.4766 1335.46 92.6562C1335.86 91.8294 1336.42 91.1849 1337.14 90.7227C1337.86 90.2539 1338.64 90.0195 1339.48 90.0195C1340.86 90.0195 1341.92 90.472 1342.68 91.377C1343.45 92.2819 1343.83 93.5775 1343.83 95.2637V96.0156H1336.67C1336.7 97.0573 1337 97.9004 1337.58 98.5449C1338.16 99.1829 1338.91 99.502 1339.8 99.502C1340.44 99.502 1340.98 99.3717 1341.42 99.1113C1341.87 98.8509 1342.25 98.5059 1342.59 98.0762L1343.69 98.9355C1342.81 100.296 1341.48 100.977 1339.71 100.977ZM1339.48 91.5039C1338.75 91.5039 1338.14 91.7708 1337.65 92.3047C1337.15 92.832 1336.84 93.5742 1336.73 94.5312H1342.02V94.3945C1341.97 93.4766 1341.72 92.7669 1341.28 92.2656C1340.84 91.7578 1340.24 91.5039 1339.48 91.5039ZM1347.89 100.781H1346.08V85.7812H1347.89V100.781ZM1357.31 100.781C1357.21 100.573 1357.12 100.202 1357.06 99.668C1356.22 100.54 1355.22 100.977 1354.05 100.977C1353.01 100.977 1352.15 100.684 1351.48 100.098C1350.82 99.5052 1350.49 98.7565 1350.49 97.8516C1350.49 96.7513 1350.9 95.8984 1351.74 95.293C1352.58 94.681 1353.76 94.375 1355.27 94.375H1357.03V93.5449C1357.03 92.9134 1356.84 92.4121 1356.46 92.041C1356.09 91.6634 1355.53 91.4746 1354.79 91.4746C1354.15 91.4746 1353.61 91.6374 1353.17 91.9629C1352.74 92.2884 1352.52 92.6823 1352.52 93.1445H1350.7C1350.7 92.6172 1350.89 92.1094 1351.26 91.6211C1351.64 91.1263 1352.14 90.7357 1352.78 90.4492C1353.43 90.1628 1354.13 90.0195 1354.9 90.0195C1356.12 90.0195 1357.07 90.3255 1357.76 90.9375C1358.45 91.543 1358.81 92.3796 1358.84 93.4473V98.3105C1358.84 99.2806 1358.96 100.052 1359.21 100.625V100.781H1357.31ZM1354.32 99.4043C1354.88 99.4043 1355.42 99.2578 1355.93 98.9648C1356.43 98.6719 1356.8 98.291 1357.03 97.8223V95.6543H1355.61C1353.4 95.6543 1352.29 96.3021 1352.29 97.5977C1352.29 98.1641 1352.48 98.6068 1352.86 98.9258C1353.24 99.2448 1353.72 99.4043 1354.32 99.4043ZM1364.12 87.6562V90.2148H1366.09V91.6113H1364.12V98.1641C1364.12 98.5872 1364.21 98.9062 1364.38 99.1211C1364.56 99.3294 1364.86 99.4336 1365.28 99.4336C1365.49 99.4336 1365.78 99.3945 1366.14 99.3164V100.781C1365.67 100.911 1365.2 100.977 1364.75 100.977C1363.95 100.977 1363.34 100.732 1362.93 100.244C1362.52 99.7559 1362.31 99.0625 1362.31 98.1641V91.6113H1360.39V90.2148H1362.31V87.6562H1364.12ZM1370.17 100.781H1368.37V90.2148H1370.17V100.781ZM1368.22 87.4121C1368.22 87.1191 1368.31 86.8717 1368.49 86.6699C1368.67 86.4681 1368.93 86.3672 1369.29 86.3672C1369.64 86.3672 1369.9 86.4681 1370.09 86.6699C1370.27 86.8717 1370.36 87.1191 1370.36 87.4121C1370.36 87.7051 1370.27 87.9492 1370.09 88.1445C1369.9 88.3398 1369.64 88.4375 1369.29 88.4375C1368.93 88.4375 1368.67 88.3398 1368.49 88.1445C1368.31 87.9492 1368.22 87.7051 1368.22 87.4121ZM1372.6 95.4004C1372.6 94.3652 1372.8 93.4342 1373.2 92.6074C1373.61 91.7806 1374.18 91.1426 1374.9 90.6934C1375.63 90.2441 1376.46 90.0195 1377.39 90.0195C1378.83 90.0195 1379.99 90.5176 1380.88 91.5137C1381.77 92.5098 1382.22 93.8346 1382.22 95.4883V95.6152C1382.22 96.6439 1382.02 97.5684 1381.62 98.3887C1381.23 99.2025 1380.67 99.8372 1379.93 100.293C1379.2 100.749 1378.36 100.977 1377.41 100.977C1375.98 100.977 1374.82 100.479 1373.92 99.4824C1373.04 98.4863 1372.6 97.168 1372.6 95.5273V95.4004ZM1374.41 95.6152C1374.41 96.7871 1374.68 97.7279 1375.22 98.4375C1375.77 99.1471 1376.5 99.502 1377.41 99.502C1378.33 99.502 1379.06 99.1439 1379.6 98.4277C1380.14 97.7051 1380.41 96.696 1380.41 95.4004C1380.41 94.2415 1380.13 93.304 1379.58 92.5879C1379.03 91.8652 1378.3 91.5039 1377.39 91.5039C1376.5 91.5039 1375.78 91.8587 1375.23 92.5684C1374.69 93.278 1374.41 94.2936 1374.41 95.6152ZM1386.19 90.2148L1386.25 91.543C1387.06 90.5273 1388.11 90.0195 1389.41 90.0195C1391.65 90.0195 1392.77 91.2793 1392.79 93.7988V100.781H1390.99V93.7891C1390.98 93.0273 1390.8 92.4642 1390.46 92.0996C1390.12 91.735 1389.59 91.5527 1388.87 91.5527C1388.28 91.5527 1387.77 91.709 1387.32 92.0215C1386.88 92.334 1386.54 92.7441 1386.29 93.252V100.781H1384.48V90.2148H1386.19ZM1401.67 97.9785C1401.67 97.4902 1401.48 97.1126 1401.11 96.8457C1400.75 96.5723 1400.11 96.3379 1399.19 96.1426C1398.28 95.9473 1397.55 95.7129 1397.01 95.4395C1396.48 95.166 1396.08 94.8405 1395.82 94.4629C1395.57 94.0853 1395.44 93.6361 1395.44 93.1152C1395.44 92.2493 1395.8 91.5169 1396.53 90.918C1397.27 90.319 1398.21 90.0195 1399.34 90.0195C1400.54 90.0195 1401.51 90.3288 1402.25 90.9473C1403 91.5658 1403.38 92.3568 1403.38 93.3203H1401.56C1401.56 92.8255 1401.35 92.3991 1400.93 92.041C1400.51 91.6829 1399.98 91.5039 1399.34 91.5039C1398.69 91.5039 1398.17 91.6471 1397.8 91.9336C1397.43 92.2201 1397.25 92.5944 1397.25 93.0566C1397.25 93.4928 1397.42 93.8216 1397.76 94.043C1398.11 94.2643 1398.73 94.4759 1399.63 94.6777C1400.53 94.8796 1401.27 95.1204 1401.83 95.4004C1402.39 95.6803 1402.8 96.0189 1403.07 96.416C1403.34 96.8066 1403.48 97.2852 1403.48 97.8516C1403.48 98.7956 1403.1 99.554 1402.34 100.127C1401.59 100.693 1400.61 100.977 1399.4 100.977C1398.56 100.977 1397.81 100.827 1397.16 100.527C1396.51 100.228 1396 99.8112 1395.62 99.2773C1395.26 98.737 1395.08 98.1543 1395.08 97.5293H1396.88C1396.92 98.1348 1397.16 98.6165 1397.61 98.9746C1398.06 99.3262 1398.66 99.502 1399.4 99.502C1400.09 99.502 1400.63 99.3652 1401.04 99.0918C1401.46 98.8118 1401.67 98.4408 1401.67 97.9785ZM1407.64 91.4941C1408.44 90.5111 1409.48 90.0195 1410.76 90.0195C1412.99 90.0195 1414.12 91.2793 1414.14 93.7988V100.781H1412.33V93.7891C1412.33 93.0273 1412.15 92.4642 1411.81 92.0996C1411.47 91.735 1410.94 91.5527 1410.21 91.5527C1409.63 91.5527 1409.11 91.709 1408.67 92.0215C1408.23 92.334 1407.88 92.7441 1407.64 93.252V100.781H1405.83V85.7812H1407.64V91.4941ZM1418.81 100.781H1417V90.2148H1418.81V100.781ZM1416.85 87.4121C1416.85 87.1191 1416.94 86.8717 1417.12 86.6699C1417.3 86.4681 1417.57 86.3672 1417.92 86.3672C1418.27 86.3672 1418.54 86.4681 1418.72 86.6699C1418.9 86.8717 1418.99 87.1191 1418.99 87.4121C1418.99 87.7051 1418.9 87.9492 1418.72 88.1445C1418.54 88.3398 1418.27 88.4375 1417.92 88.4375C1417.57 88.4375 1417.3 88.3398 1417.12 88.1445C1416.94 87.9492 1416.85 87.7051 1416.85 87.4121ZM1430.63 95.6152C1430.63 97.2233 1430.27 98.5189 1429.53 99.502C1428.79 100.485 1427.8 100.977 1426.54 100.977C1425.26 100.977 1424.25 100.57 1423.51 99.7559V104.844H1421.71V90.2148H1423.36L1423.45 91.3867C1424.18 90.4753 1425.2 90.0195 1426.51 90.0195C1427.78 90.0195 1428.78 90.498 1429.52 91.4551C1430.26 92.4121 1430.63 93.7435 1430.63 95.4492V95.6152ZM1428.83 95.4102C1428.83 94.2188 1428.57 93.278 1428.07 92.5879C1427.56 91.8978 1426.86 91.5527 1425.98 91.5527C1424.88 91.5527 1424.06 92.0378 1423.51 93.0078V98.0566C1424.06 99.0202 1424.88 99.502 1426 99.502C1426.86 99.502 1427.55 99.1602 1428.06 98.4766C1428.57 97.7865 1428.83 96.7643 1428.83 95.4102Z" fill="white"/>
<path d="M816.545 78.6565C817.13 78.0707 817.13 77.121 816.545 76.5352L806.999 66.9892C806.413 66.4034 805.463 66.4034 804.877 66.9892C804.292 67.575 804.292 68.5248 804.877 69.1105L813.363 77.5958L804.877 86.0811C804.292 86.6669 804.292 87.6166 804.877 88.2024C805.463 88.7882 806.413 88.7882 806.999 88.2024L816.545 78.6565ZM739.893 79.0958H815.484V76.0958H739.893V79.0958Z" fill="#626A84"/>
<path d="M399.443 76.7522C400.029 76.1664 400.029 75.2167 399.443 74.6309L389.897 65.0849C389.311 64.4991 388.362 64.4991 387.776 65.0849C387.19 65.6707 387.19 66.6205 387.776 67.2062L396.261 75.6915L387.776 84.1768C387.19 84.7626 387.19 85.7123 387.776 86.2981C388.362 86.8839 389.311 86.8839 389.897 86.2981L399.443 76.7522ZM344.436 77.1915H398.382V74.1915H344.436V77.1915Z" fill="#626A84"/>
<path d="M1127.05 78.6565C1127.64 78.0707 1127.64 77.121 1127.05 76.5352L1117.51 66.9892C1116.92 66.4034 1115.97 66.4034 1115.39 66.9892C1114.8 67.575 1114.8 68.5248 1115.39 69.1105L1123.87 77.5958L1115.39 86.0811C1114.8 86.6669 1114.8 87.6166 1115.39 88.2024C1115.97 88.7882 1116.92 88.7882 1117.51 88.2024L1127.05 78.6565ZM1053.17 79.0958H1125.99V76.0958H1053.17V79.0958Z" fill="#626A84"/>
<path d="M767.939 64.0648L769.97 55.9886H771.777L768.7 66.5551H767.236L764.667 58.5472L762.167 66.5551H760.702L757.636 55.9886H759.433L761.513 63.8988L763.974 55.9886H765.429L767.939 64.0648ZM775.585 66.5551H773.778V55.9886H775.585V66.5551ZM773.632 53.1859C773.632 52.8929 773.72 52.6455 773.896 52.4437C774.078 52.2419 774.345 52.141 774.696 52.141C775.048 52.141 775.315 52.2419 775.497 52.4437C775.68 52.6455 775.771 52.8929 775.771 53.1859C775.771 53.4789 775.68 53.723 775.497 53.9183C775.315 54.1136 775.048 54.2113 774.696 54.2113C774.345 54.2113 774.078 54.1136 773.896 53.9183C773.72 53.723 773.632 53.4789 773.632 53.1859ZM780.937 53.4301V55.9886H782.909V57.3851H780.937V63.9379C780.937 64.361 781.025 64.6801 781.2 64.8949C781.376 65.1032 781.676 65.2074 782.099 65.2074C782.307 65.2074 782.594 65.1683 782.958 65.0902V66.5551C782.483 66.6853 782.021 66.7504 781.571 66.7504C780.764 66.7504 780.155 66.5062 779.745 66.0179C779.335 65.5297 779.13 64.8363 779.13 63.9379V57.3851H777.206V55.9886H779.13V53.4301H780.937ZM786.835 57.2679C787.636 56.2849 788.678 55.7933 789.96 55.7933C792.193 55.7933 793.319 57.0531 793.339 59.5726V66.5551H791.532V59.5629C791.526 58.8011 791.35 58.238 791.005 57.8734C790.666 57.5088 790.136 57.3265 789.413 57.3265C788.827 57.3265 788.313 57.4828 787.87 57.7953C787.428 58.1078 787.083 58.5179 786.835 59.0258V66.5551H785.028V51.5551H786.835V57.2679Z" fill="#626A84"/>
<path d="M1052.2 66.5551H1050.39V55.9886H1052.2V66.5551ZM1050.25 53.1859C1050.25 52.8929 1050.34 52.6455 1050.51 52.4437C1050.69 52.2419 1050.96 52.141 1051.31 52.141C1051.66 52.141 1051.93 52.2419 1052.11 52.4437C1052.3 52.6455 1052.39 52.8929 1052.39 53.1859C1052.39 53.4789 1052.3 53.723 1052.11 53.9183C1051.93 54.1136 1051.66 54.2113 1051.31 54.2113C1050.96 54.2113 1050.69 54.1136 1050.51 53.9183C1050.34 53.723 1050.25 53.4789 1050.25 53.1859ZM1056.8 55.9886L1056.85 57.1605C1057.62 56.2491 1058.67 55.7933 1059.98 55.7933C1061.46 55.7933 1062.47 56.3597 1063 57.4926C1063.35 56.9847 1063.81 56.5746 1064.37 56.2621C1064.94 55.9496 1065.6 55.7933 1066.37 55.7933C1068.69 55.7933 1069.87 57.0205 1069.91 59.475V66.5551H1068.1V59.5824C1068.1 58.8272 1067.93 58.264 1067.58 57.8929C1067.24 57.5153 1066.66 57.3265 1065.84 57.3265C1065.17 57.3265 1064.62 57.5284 1064.17 57.932C1063.73 58.3291 1063.47 58.8663 1063.4 59.5433V66.5551H1061.59V59.6312C1061.59 58.0948 1060.83 57.3265 1059.33 57.3265C1058.15 57.3265 1057.33 57.8311 1056.9 58.8402V66.5551H1055.09V55.9886H1056.8ZM1081.57 61.389C1081.57 62.9971 1081.2 64.2927 1080.46 65.2758C1079.73 66.2588 1078.73 66.7504 1077.47 66.7504C1076.19 66.7504 1075.18 66.3435 1074.45 65.5297V70.6176H1072.64V55.9886H1074.29L1074.38 57.1605C1075.11 56.2491 1076.14 55.7933 1077.45 55.7933C1078.71 55.7933 1079.72 56.2719 1080.45 57.2289C1081.2 58.1859 1081.57 59.5173 1081.57 61.223V61.389ZM1079.76 61.184C1079.76 59.9926 1079.51 59.0518 1079 58.3617C1078.49 57.6716 1077.79 57.3265 1076.91 57.3265C1075.81 57.3265 1074.99 57.8116 1074.45 58.7816V63.8304C1074.99 64.794 1075.81 65.2758 1076.93 65.2758C1077.79 65.2758 1078.48 64.934 1078.99 64.2504C1079.5 63.5603 1079.76 62.5381 1079.76 61.184ZM1088.98 57.6097C1088.71 57.5642 1088.41 57.5414 1088.09 57.5414C1086.9 57.5414 1086.1 58.0459 1085.68 59.0551V66.5551H1083.87V55.9886H1085.63L1085.66 57.2094C1086.25 56.2653 1087.09 55.7933 1088.18 55.7933C1088.53 55.7933 1088.8 55.8389 1088.98 55.9301V57.6097ZM1089.97 61.1742C1089.97 60.139 1090.18 59.208 1090.58 58.3812C1090.99 57.5544 1091.56 56.9164 1092.28 56.4672C1093.01 56.0179 1093.84 55.7933 1094.77 55.7933C1096.21 55.7933 1097.37 56.2914 1098.26 57.2875C1099.15 58.2836 1099.59 59.6084 1099.59 61.2621V61.389C1099.59 62.4177 1099.4 63.3422 1099 64.1625C1098.61 64.9763 1098.04 65.611 1097.31 66.0668C1096.58 66.5225 1095.74 66.7504 1094.79 66.7504C1093.36 66.7504 1092.19 66.2523 1091.3 65.2562C1090.42 64.2601 1089.97 62.9418 1089.97 61.3011V61.1742ZM1091.79 61.389C1091.79 62.5609 1092.06 63.5017 1092.6 64.2113C1093.15 64.9209 1093.88 65.2758 1094.79 65.2758C1095.71 65.2758 1096.44 64.9177 1096.98 64.2015C1097.52 63.4789 1097.79 62.4698 1097.79 61.1742C1097.79 60.0153 1097.51 59.0778 1096.96 58.3617C1096.41 57.639 1095.68 57.2777 1094.77 57.2777C1093.88 57.2777 1093.16 57.6325 1092.61 58.3422C1092.06 59.0518 1091.79 60.0674 1091.79 61.389ZM1105.19 64.1039L1107.81 55.9886H1109.65L1105.86 66.5551H1104.49L1100.66 55.9886H1102.5L1105.19 64.1039ZM1115.64 66.7504C1114.21 66.7504 1113.04 66.2816 1112.14 65.3441C1111.24 64.4001 1110.79 63.1403 1110.79 61.5648V61.2328C1110.79 60.1846 1110.99 59.2504 1111.39 58.4301C1111.79 57.6032 1112.35 56.9587 1113.07 56.4965C1113.79 56.0277 1114.57 55.7933 1115.41 55.7933C1116.79 55.7933 1117.86 56.2458 1118.62 57.1508C1119.38 58.0557 1119.76 59.3513 1119.76 61.0375V61.7894H1112.6C1112.63 62.8311 1112.93 63.6742 1113.51 64.3187C1114.1 64.9567 1114.84 65.2758 1115.74 65.2758C1116.37 65.2758 1116.91 65.1455 1117.36 64.8851C1117.8 64.6247 1118.19 64.2797 1118.52 63.85L1119.62 64.7094C1118.74 66.07 1117.41 66.7504 1115.64 66.7504ZM1115.41 57.2777C1114.68 57.2777 1114.07 57.5446 1113.58 58.0785C1113.08 58.6058 1112.78 59.348 1112.66 60.3051H1117.95V60.1683C1117.9 59.2504 1117.65 58.5407 1117.21 58.0394C1116.77 57.5316 1116.17 57.2777 1115.41 57.2777ZM1128.01 63.7523C1128.01 63.264 1127.83 62.8864 1127.46 62.6195C1127.09 62.3461 1126.45 62.1117 1125.53 61.9164C1124.62 61.7211 1123.89 61.4867 1123.35 61.2133C1122.82 60.9398 1122.42 60.6143 1122.16 60.2367C1121.91 59.8591 1121.78 59.4099 1121.78 58.889C1121.78 58.0232 1122.15 57.2907 1122.87 56.6918C1123.61 56.0928 1124.55 55.7933 1125.69 55.7933C1126.89 55.7933 1127.86 56.1026 1128.6 56.7211C1129.35 57.3396 1129.72 58.1306 1129.72 59.0941H1127.9C1127.9 58.5993 1127.69 58.1729 1127.27 57.8148C1126.85 57.4567 1126.33 57.2777 1125.69 57.2777C1125.03 57.2777 1124.52 57.4209 1124.14 57.7074C1123.77 57.9939 1123.59 58.3682 1123.59 58.8304C1123.59 59.2666 1123.76 59.5954 1124.11 59.8168C1124.45 60.0381 1125.07 60.2497 1125.97 60.4515C1126.88 60.6534 1127.61 60.8942 1128.17 61.1742C1128.73 61.4541 1129.14 61.7927 1129.41 62.1898C1129.68 62.5804 1129.82 63.059 1129.82 63.6254C1129.82 64.5694 1129.44 65.3278 1128.69 65.9008C1127.93 66.4672 1126.95 66.7504 1125.75 66.7504C1124.9 66.7504 1124.15 66.6006 1123.5 66.3011C1122.85 66.0017 1122.34 65.585 1121.97 65.0511C1121.6 64.5108 1121.42 63.9281 1121.42 63.3031H1123.23C1123.26 63.9086 1123.5 64.3903 1123.95 64.7484C1124.4 65.1 1125 65.2758 1125.75 65.2758C1126.43 65.2758 1126.98 65.139 1127.39 64.8656C1127.8 64.5857 1128.01 64.2146 1128.01 63.7523Z" fill="#626A84"/>
</svg>
