<svg width="29" height="29" viewBox="0 0 29 29" fill="none" xmlns="http://www.w3.org/2000/svg">
<path d="M7.98438 18.507L14.2876 22.1462C14.3533 22.1841 14.4266 22.2031 14.5 22.2031C14.5733 22.2031 14.6467 22.1841 14.7124 22.1462L21.0156 18.507C21.147 18.4311 21.228 18.291 21.228 18.1392V10.8608C21.228 10.709 21.147 10.5689 21.0156 10.493L14.7124 6.8538C14.581 6.7779 14.419 6.7779 14.2876 6.8538L7.98438 10.493C7.85297 10.5689 7.77197 10.709 7.77197 10.8608V18.1392C7.77197 18.291 7.85297 18.4311 7.98438 18.507ZM8.62158 11.5966L14.0752 14.7453V21.0426L8.62158 17.8939V11.5966ZM14.5 14.0095L9.04639 10.8608L11.3484 9.53177L16.802 12.6804L14.5 14.0095ZM14.9248 21.0426V14.7453L20.3784 11.5966V17.8939L14.9248 21.0426ZM14.5 7.71219L19.9536 10.8608L17.6516 12.1899L12.198 9.04126L14.5 7.71219Z" fill="white"/>
<path d="M19.3164 14.8282C19.185 14.7523 19.023 14.7523 18.8916 14.8282L15.9868 16.5052C15.8554 16.5811 15.7744 16.7213 15.7744 16.8731V18.8352C15.7744 18.987 15.8554 19.1272 15.9868 19.2031C16.0525 19.241 16.1259 19.26 16.1992 19.26C16.2726 19.26 16.3459 19.241 16.4116 19.2031L19.3164 17.526C19.4478 17.4501 19.5288 17.3099 19.5288 17.1581V15.196C19.5288 15.0443 19.4478 14.9041 19.3164 14.8282ZM18.6792 16.9129L16.624 18.0994V17.1184L18.6792 15.9318V16.9129Z" fill="white"/>
<path d="M25.7566 17.5771V11.4229C26.7604 10.9448 27.4558 9.92066 27.4558 8.73682C27.4558 7.09713 26.1219 5.76318 24.4822 5.76318C23.8557 5.76318 23.2741 5.95848 22.7942 6.29068L17.4632 3.21288C17.4696 3.13387 17.4737 3.05429 17.4737 2.97369C17.4737 1.33394 16.1398 0 14.5001 0C12.8604 0 11.5265 1.33394 11.5265 2.97363C11.5265 3.05423 11.5306 3.13387 11.5369 3.21283L6.20604 6.29062C5.72612 5.95842 5.14453 5.76313 4.51798 5.76313C2.87829 5.76313 1.54434 7.09707 1.54434 8.73676C1.54434 9.9206 2.23983 10.9448 3.24356 11.4229V17.577C2.23983 18.0551 1.54434 19.0793 1.54434 20.2631C1.54434 21.9028 2.87829 23.2368 4.51798 23.2368C5.14453 23.2368 5.72612 23.0415 6.20604 22.7093L11.5369 25.7871C11.5306 25.8661 11.5265 25.9457 11.5265 26.0263C11.5265 27.6659 12.8604 28.9999 14.5001 28.9999C16.1398 28.9999 17.4737 27.6659 17.4737 26.0263C17.4737 25.9457 17.4696 25.866 17.4632 25.7871L22.7942 22.7093C23.2741 23.0415 23.8557 23.2368 24.4822 23.2368C26.1219 23.2368 27.4558 21.9028 27.4558 20.2631C27.4558 19.0793 26.7604 18.0552 25.7566 17.5771ZM24.907 17.3204C24.7682 17.3004 24.6265 17.2896 24.4822 17.2896C24.3379 17.2896 24.1962 17.3004 24.0574 17.3204V11.6796C24.1962 11.6996 24.3379 11.7104 24.4822 11.7104C24.6265 11.7104 24.7682 11.6996 24.907 11.6796V17.3204ZM26.6062 8.73682C26.6062 9.90803 25.6534 10.8608 24.4822 10.8608C23.311 10.8608 22.3582 9.90803 22.3582 8.73682C22.3582 7.5656 23.311 6.61279 24.4822 6.61279C25.6534 6.61279 26.6062 7.5656 26.6062 8.73682ZM22.1476 6.89838C21.9725 7.12024 21.8284 7.36736 21.7217 7.63351L16.8347 4.81202C17.0098 4.59016 17.1539 4.34303 17.2606 4.07688L22.1476 6.89838ZM14.5001 0.849609C15.6713 0.849609 16.6241 1.80242 16.6241 2.97363C16.6241 4.14485 15.6713 5.09766 14.5001 5.09766C13.3289 5.09766 12.3761 4.14485 12.3761 2.97363C12.3761 1.80242 13.3289 0.849609 14.5001 0.849609ZM12.1656 4.8123L7.27864 7.63385C7.17187 7.36753 7.02772 7.12029 6.85259 6.89838L11.7395 4.07688C11.8464 4.3432 11.9905 4.59044 12.1656 4.8123ZM2.39395 8.73682C2.39395 7.5656 3.34676 6.61279 4.51798 6.61279C5.68919 6.61279 6.642 7.5656 6.642 8.73682C6.642 9.90803 5.68919 10.8608 4.51798 10.8608C3.34676 10.8608 2.39395 9.90803 2.39395 8.73682ZM4.09317 11.6796C4.232 11.6996 4.37371 11.7104 4.51798 11.7104C4.66224 11.7104 4.80395 11.6996 4.94278 11.6796V13.6504C4.94278 13.885 5.13298 14.0752 5.36758 14.0752C5.60219 14.0752 5.79239 13.885 5.79239 13.6504V11.4229C6.79612 10.9448 7.49161 9.92066 7.49161 8.73682C7.49161 8.65633 7.48747 8.57686 7.48119 8.49802L12.8124 5.42C13.2922 5.75208 13.8736 5.94727 14.5001 5.94727C15.1267 5.94727 15.7082 5.75197 16.1882 5.41977L21.5191 8.49757C21.5127 8.57658 21.5086 8.65616 21.5086 8.73676C21.5086 9.9206 22.2041 10.9448 23.2078 11.4229V17.577C22.2041 18.0551 21.5086 19.0793 21.5086 20.2631C21.5086 20.3437 21.5127 20.4233 21.5191 20.5023L16.1881 23.5801C15.7082 23.248 15.1267 23.0527 14.5001 23.0527C13.8735 23.0527 13.2919 23.248 12.812 23.5802L7.48113 20.5024C7.48747 20.4234 7.49161 20.3438 7.49161 20.2632C7.49161 19.0794 6.79612 18.0552 5.79239 17.5771V15.3496C5.79239 15.115 5.60219 14.9248 5.36758 14.9248C5.13298 14.9248 4.94278 15.115 4.94278 15.3496V17.3204C4.80395 17.3004 4.66224 17.2896 4.51798 17.2896C4.37371 17.2896 4.232 17.3004 4.09317 17.3204V11.6796ZM2.39395 20.2632C2.39395 19.092 3.34676 18.1392 4.51798 18.1392C5.68919 18.1392 6.642 19.092 6.642 20.2632C6.642 21.4344 5.68919 22.3872 4.51798 22.3872C3.34676 22.3872 2.39395 21.4344 2.39395 20.2632ZM6.85259 22.1016C7.02766 21.8798 7.17176 21.6326 7.27853 21.3665L12.1655 24.188C11.9904 24.4098 11.8463 24.657 11.7395 24.9231L6.85259 22.1016ZM14.5001 28.1504C13.3289 28.1504 12.3761 27.1976 12.3761 26.0264C12.3761 24.8552 13.3289 23.9023 14.5001 23.9023C15.6713 23.9023 16.6241 24.8552 16.6241 26.0264C16.6241 27.1976 15.6713 28.1504 14.5001 28.1504ZM16.8347 24.1879L21.7217 21.3664C21.8284 21.6326 21.9725 21.8798 22.1476 22.1016L17.2606 24.9231C17.1539 24.6569 17.0098 24.4098 16.8347 24.1879ZM24.4822 22.3872C23.311 22.3872 22.3582 21.4344 22.3582 20.2632C22.3582 19.092 23.311 18.1392 24.4822 18.1392C25.6534 18.1392 26.6062 19.092 26.6062 20.2632C26.6062 21.4344 25.6534 22.3872 24.4822 22.3872Z" fill="white"/>
</svg>
