<svg width="29" height="29" viewBox="0 0 29 29" fill="none" xmlns="http://www.w3.org/2000/svg">
<path d="M19.0312 8.15625C19.1513 8.15625 19.2669 8.10867 19.3516 8.02348L24.6563 2.71875H25.4584C25.646 3.24483 26.1444 3.625 26.7344 3.625C27.4838 3.625 28.0938 3.01509 28.0938 2.26562C28.0938 1.51616 27.4838 0.90625 26.7344 0.90625C26.1444 0.90625 25.646 1.28642 25.4584 1.8125H24.4688C24.3487 1.8125 24.2331 1.86008 24.1484 1.94527L18.8437 7.25H18.125V6.79688C18.125 6.04741 17.5151 5.4375 16.7656 5.4375C16.0162 5.4375 15.4062 6.04741 15.4062 6.79688V8.15625H13.0949C12.8842 7.12358 11.9693 6.34375 10.875 6.34375C10.3077 6.34375 9.79475 6.5608 9.39691 6.90653L5.20278 3.70384C5.34869 3.40433 5.4375 3.07309 5.4375 2.71875C5.4375 1.46948 4.42114 0.453125 3.17188 0.453125C1.92261 0.453125 0.90625 1.46948 0.90625 2.71875C0.90625 3.96802 1.92261 4.98438 3.17188 4.98438C3.73919 4.98438 4.25213 4.76733 4.64997 4.42159L8.84409 7.62428C8.76208 7.79239 8.69366 7.96775 8.65514 8.1558H5.39173C5.18103 7.12358 4.26572 6.34375 3.17188 6.34375C1.92261 6.34375 0.90625 7.36011 0.90625 8.60938C0.90625 9.85864 1.92261 10.875 3.17188 10.875C3.73919 10.875 4.25213 10.658 4.64997 10.3122L6.27669 11.5547L4.64997 12.7972C4.25213 12.4514 3.73919 12.2344 3.17188 12.2344C1.92261 12.2344 0.90625 13.2507 0.90625 14.5C0.90625 15.7493 1.92261 16.7656 3.17188 16.7656C3.73919 16.7656 4.25213 16.5486 4.64997 16.2028L6.27669 17.4453L4.64997 18.6878C4.25213 18.342 3.73919 18.125 3.17188 18.125C1.92261 18.125 0.90625 19.1414 0.90625 20.3906C0.90625 21.6399 1.92261 22.6562 3.17188 22.6562C4.26572 22.6562 5.18103 21.8764 5.39173 20.8438H8.65514C8.69366 21.0318 8.76208 21.2072 8.84409 21.3753L4.64997 24.578C4.25213 24.2327 3.73919 24.0156 3.17188 24.0156C1.92261 24.0156 0.90625 25.032 0.90625 26.2812C0.90625 27.5305 1.92261 28.5469 3.17188 28.5469C4.42114 28.5469 5.4375 27.5305 5.4375 26.2812C5.4375 25.9269 5.34869 25.5957 5.20278 25.2966L9.39691 22.0939C9.79475 22.4392 10.3077 22.6562 10.875 22.6562C11.9688 22.6562 12.8842 21.8764 13.0949 20.8438H15.4062V21.75C15.4062 22.4995 16.0162 23.1094 16.7656 23.1094C17.5151 23.1094 18.125 22.4995 18.125 21.75H18.8437L24.1484 27.0547C24.2331 27.1399 24.3487 27.1875 24.4688 27.1875H25.4584C25.646 27.7136 26.1444 28.0938 26.7344 28.0938C27.4838 28.0938 28.0938 27.4838 28.0938 26.7344C28.0938 25.9849 27.4838 25.375 26.7344 25.375C26.1444 25.375 25.646 25.7552 25.4584 26.2812H24.6563L19.3516 20.9765C19.2669 20.8913 19.1513 20.8438 19.0312 20.8438H18.125V19.4844H20.203L23.6953 22.9766C23.78 23.0618 23.8955 23.1094 24.0156 23.1094H25.4584C25.646 23.6355 26.1444 24.0156 26.7344 24.0156C27.4838 24.0156 28.0938 23.4057 28.0938 22.6562C28.0938 21.9068 27.4838 21.2969 26.7344 21.2969C26.1444 21.2969 25.646 21.677 25.4584 22.2031H24.2032L20.711 18.7109C20.6263 18.6257 20.5107 18.5781 20.3906 18.5781H18.125V17.2188H22.0155L23.6953 18.8985C23.78 18.9837 23.8955 19.0312 24.0156 19.0312H25.4584C25.646 19.5573 26.1444 19.9375 26.7344 19.9375C27.4838 19.9375 28.0938 19.3276 28.0938 18.5781C28.0938 17.8287 27.4838 17.2188 26.7344 17.2188C26.1444 17.2188 25.646 17.5989 25.4584 18.125H24.2032L22.5235 16.4453C22.4388 16.3601 22.3232 16.3125 22.2031 16.3125H18.125V14.9531H25.4584C25.646 15.4792 26.1444 15.8594 26.7344 15.8594C27.4838 15.8594 28.0938 15.2495 28.0938 14.5C28.0938 13.7505 27.4838 13.1406 26.7344 13.1406C26.1444 13.1406 25.646 13.5208 25.4584 14.0469H18.125V12.6875H22.2031C22.3232 12.6875 22.4388 12.6399 22.5235 12.5547L24.2032 10.875H25.4584C25.646 11.4011 26.1444 11.7812 26.7344 11.7812C27.4838 11.7812 28.0938 11.1713 28.0938 10.4219C28.0938 9.67241 27.4838 9.0625 26.7344 9.0625C26.1444 9.0625 25.646 9.44267 25.4584 9.96875H24.0156C23.8955 9.96875 23.78 10.0163 23.6953 10.1015L22.0155 11.7812H18.125V10.4219H20.3906C20.5107 10.4219 20.6263 10.3743 20.711 10.2891L24.2032 6.79688H25.4584C25.646 7.32295 26.1444 7.70312 26.7344 7.70312C27.4838 7.70312 28.0938 7.09322 28.0938 6.34375C28.0938 5.59428 27.4838 4.98438 26.7344 4.98438C26.1444 4.98438 25.646 5.36455 25.4584 5.89062H24.0156C23.8955 5.89062 23.78 5.9382 23.6953 6.02339L20.203 9.51562H18.125V8.15625H19.0312ZM26.7344 1.8125C26.984 1.8125 27.1875 2.0155 27.1875 2.26562C27.1875 2.51575 26.984 2.71875 26.7344 2.71875C26.4847 2.71875 26.2812 2.51575 26.2812 2.26562C26.2812 2.0155 26.4847 1.8125 26.7344 1.8125ZM26.7344 26.2812C26.984 26.2812 27.1875 26.4842 27.1875 26.7344C27.1875 26.9845 26.984 27.1875 26.7344 27.1875C26.4847 27.1875 26.2812 26.9845 26.2812 26.7344C26.2812 26.4842 26.4847 26.2812 26.7344 26.2812ZM26.7344 22.2031C26.984 22.2031 27.1875 22.4061 27.1875 22.6562C27.1875 22.9064 26.984 23.1094 26.7344 23.1094C26.4847 23.1094 26.2812 22.9064 26.2812 22.6562C26.2812 22.4061 26.4847 22.2031 26.7344 22.2031ZM26.7344 18.125C26.984 18.125 27.1875 18.328 27.1875 18.5781C27.1875 18.8283 26.984 19.0312 26.7344 19.0312C26.4847 19.0312 26.2812 18.8283 26.2812 18.5781C26.2812 18.328 26.4847 18.125 26.7344 18.125ZM26.7344 14.0469C26.984 14.0469 27.1875 14.2499 27.1875 14.5C27.1875 14.7501 26.984 14.9531 26.7344 14.9531C26.4847 14.9531 26.2812 14.7501 26.2812 14.5C26.2812 14.2499 26.4847 14.0469 26.7344 14.0469ZM26.7344 9.96875C26.984 9.96875 27.1875 10.1718 27.1875 10.4219C27.1875 10.672 26.984 10.875 26.7344 10.875C26.4847 10.875 26.2812 10.672 26.2812 10.4219C26.2812 10.1718 26.4847 9.96875 26.7344 9.96875ZM26.7344 5.89062C26.984 5.89062 27.1875 6.09363 27.1875 6.34375C27.1875 6.59387 26.984 6.79688 26.7344 6.79688C26.4847 6.79688 26.2812 6.59387 26.2812 6.34375C26.2812 6.09363 26.4847 5.89062 26.7344 5.89062ZM13.0949 9.0625H15.4062V14.0469H13.0949C12.8842 13.0142 11.9693 12.2344 10.875 12.2344C10.3077 12.2344 9.79475 12.4514 9.39691 12.7972L7.77019 11.5547L9.39691 10.3122C9.79475 10.658 10.3077 10.875 10.875 10.875C11.9688 10.875 12.8842 10.0952 13.0949 9.0625ZM9.51562 14.5C9.51562 13.7505 10.1255 13.1406 10.875 13.1406C11.6245 13.1406 12.2344 13.7505 12.2344 14.5C12.2344 15.2495 11.6245 15.8594 10.875 15.8594C10.1255 15.8594 9.51562 15.2495 9.51562 14.5ZM10.875 7.25C11.6245 7.25 12.2344 7.85991 12.2344 8.60938C12.2344 9.35884 11.6245 9.96875 10.875 9.96875C10.1255 9.96875 9.51562 9.35884 9.51562 8.60938C9.51562 7.85991 10.1255 7.25 10.875 7.25ZM3.17188 4.07812C2.42241 4.07812 1.8125 3.46822 1.8125 2.71875C1.8125 1.96928 2.42241 1.35938 3.17188 1.35938C3.92134 1.35938 4.53125 1.96928 4.53125 2.71875C4.53125 3.46822 3.92134 4.07812 3.17188 4.07812ZM3.17188 9.96875C2.42241 9.96875 1.8125 9.35884 1.8125 8.60938C1.8125 7.85991 2.42241 7.25 3.17188 7.25C3.92134 7.25 4.53125 7.85991 4.53125 8.60938C4.53125 9.35884 3.92134 9.96875 3.17188 9.96875ZM5.20278 9.59402C5.2848 9.42591 5.35322 9.25055 5.39173 9.0625H8.65514C8.69366 9.25055 8.76208 9.42591 8.84409 9.59402L7.02344 10.9847L5.20278 9.59402ZM8.84409 13.5154C8.76208 13.6835 8.69366 13.8588 8.65514 14.0469H5.39173C5.35322 13.8588 5.2848 13.6835 5.20278 13.5154L7.02344 12.1252L8.84409 13.5154ZM3.17188 15.8594C2.42241 15.8594 1.8125 15.2495 1.8125 14.5C1.8125 13.7505 2.42241 13.1406 3.17188 13.1406C3.92134 13.1406 4.53125 13.7505 4.53125 14.5C4.53125 15.2495 3.92134 15.8594 3.17188 15.8594ZM5.20278 15.4846C5.2848 15.3165 5.35322 15.1412 5.39173 14.9531H8.65514C8.69366 15.1412 8.76208 15.3165 8.84409 15.4846L7.02344 16.8753L5.20278 15.4846ZM8.65514 19.9375H5.39173C5.35322 19.7495 5.2848 19.5741 5.20278 19.406L7.02344 18.0158L8.84409 19.406C8.76208 19.5741 8.69366 19.7495 8.65514 19.9375ZM3.17188 21.75C2.42241 21.75 1.8125 21.1401 1.8125 20.3906C1.8125 19.6412 2.42241 19.0312 3.17188 19.0312C3.92134 19.0312 4.53125 19.6412 4.53125 20.3906C4.53125 21.1401 3.92134 21.75 3.17188 21.75ZM3.17188 27.6406C2.42241 27.6406 1.8125 27.0307 1.8125 26.2812C1.8125 25.5318 2.42241 24.9219 3.17188 24.9219C3.92134 24.9219 4.53125 25.5318 4.53125 26.2812C4.53125 27.0307 3.92134 27.6406 3.17188 27.6406ZM10.875 21.75C10.1255 21.75 9.51562 21.1401 9.51562 20.3906C9.51562 19.6412 10.1255 19.0312 10.875 19.0312C11.6245 19.0312 12.2344 19.6412 12.2344 20.3906C12.2344 21.1401 11.6245 21.75 10.875 21.75ZM13.0949 19.9375C12.8842 18.9048 11.9693 18.125 10.875 18.125C10.3077 18.125 9.79475 18.342 9.39691 18.6878L7.77019 17.4453L9.39691 16.2028C9.79475 16.5486 10.3077 16.7656 10.875 16.7656C11.9688 16.7656 12.8842 15.9858 13.0949 14.9531H15.4062V19.9375H13.0949ZM17.2188 21.75C17.2188 22.0001 17.0153 22.2031 16.7656 22.2031C16.516 22.2031 16.3125 22.0001 16.3125 21.75V6.79688C16.3125 6.54675 16.516 6.34375 16.7656 6.34375C17.0153 6.34375 17.2188 6.54675 17.2188 6.79688V21.75Z" fill="white"/>
<path d="M13.5938 10.4219H14.5V11.3281H13.5938V10.4219Z" fill="white"/>
<path d="M13.5938 12.2344H14.5V13.1406H13.5938V12.2344Z" fill="white"/>
<path d="M13.5938 15.8594H14.5V16.7656H13.5938V15.8594Z" fill="white"/>
<path d="M13.5938 17.6719H14.5V18.5781H13.5938V17.6719Z" fill="white"/>
</svg>
