<?xml version="1.0" encoding="utf-8"?><svg width="520" height="442" fill="none" xmlns="http://www.w3.org/2000/svg" viewBox="0 0 520 442"><path d="M188.812 9.166l5.114 13.672H194l5.126-13.672h3.846v17.773h-2.967v-6.054l.293-7.703-.073-.012-5.273 13.77h-1.99l-5.249-13.734-.073.013.293 7.666v6.054h-2.967V9.166h3.846zm25.622 17.773c-.106-.333-.195-.659-.268-.976a7.602 7.602 0 01-.135-.952 5.286 5.286 0 01-1.611 1.562c-.659.415-1.4.623-2.222.623-1.375 0-2.433-.354-3.174-1.062-.732-.708-1.098-1.68-1.098-2.918 0-1.277.504-2.27 1.513-2.978 1.01-.716 2.43-1.075 4.261-1.075h2.307v-1.16c0-.69-.204-1.232-.611-1.623-.406-.39-.988-.586-1.745-.586-.676 0-1.213.163-1.611.489a1.55 1.55 0 00-.599 1.257h-2.856l-.012-.073c-.057-1.042.407-1.966 1.391-2.771.993-.806 2.283-1.209 3.87-1.209 1.538 0 2.779.39 3.723 1.172.944.781 1.416 1.904 1.416 3.37v5.87c0 .546.037 1.071.11 1.576.073.496.191.984.354 1.464h-3.003zm-3.638-2.124c.749 0 1.42-.187 2.015-.561.602-.375 1.001-.802 1.196-1.282V21.02h-2.356c-.863 0-1.538.216-2.026.647-.489.423-.733.924-.733 1.501 0 .505.163.908.488 1.209.334.293.806.44 1.416.44zm14.746.013c.725 0 1.335-.212 1.832-.635.496-.431.744-.969.744-1.612h2.686l.024.074c.041 1.237-.464 2.303-1.514 3.198-1.041.895-2.299 1.343-3.772 1.343-1.945 0-3.438-.627-4.48-1.88-1.033-1.253-1.55-2.84-1.55-4.76v-.428c0-1.913.517-3.495 1.55-4.749 1.042-1.261 2.535-1.892 4.48-1.892 1.587 0 2.873.464 3.858 1.392.993.92 1.473 2.091 1.44 3.516l-.024.073h-2.698c0-.724-.24-1.339-.72-1.843-.472-.505-1.091-.757-1.856-.757-1.114 0-1.904.406-2.368 1.22-.464.806-.695 1.82-.695 3.04v.427c0 1.245.231 2.27.695 3.076.464.798 1.254 1.197 2.368 1.197zm10.608-9.388a4.732 4.732 0 011.6-1.44 4.353 4.353 0 012.099-.513c1.4 0 2.49.444 3.272 1.33.789.88 1.184 2.239 1.184 4.078v8.044h-2.967v-8.068c0-1.042-.207-1.795-.622-2.259-.415-.464-1.038-.695-1.868-.695a3.3 3.3 0 00-1.562.366 3.157 3.157 0 00-1.136.988v9.668h-2.966V7.896h2.966v7.544zm14.392 11.5h-2.966V13.73h2.966V26.94zm0-16.444h-2.966v-2.6h2.966v2.6zm6.019 3.235l.17 1.905c.432-.676.973-1.2 1.624-1.575.659-.383 1.4-.574 2.222-.574 1.375 0 2.445.42 3.21 1.258.773.83 1.16 2.128 1.16 3.894v8.3h-2.967v-8.276c0-.993-.207-1.697-.622-2.112-.407-.423-1.03-.634-1.868-.634-.578 0-1.094.13-1.55.39-.456.252-.83.602-1.123 1.05v9.582h-2.966V13.731h2.71zm17.138 13.465c-1.872 0-3.365-.61-4.48-1.831-1.107-1.23-1.66-2.804-1.66-4.724v-.489c0-1.92.549-3.511 1.648-4.773 1.107-1.27 2.49-1.9 4.15-1.892 1.783 0 3.146.541 4.09 1.624.952 1.074 1.428 2.518 1.428 4.333v1.746h-8.24l-.024.06c.049 1.05.354 1.91.915 2.577.57.667 1.355 1 2.356 1 .798 0 1.481-.097 2.051-.292a6.71 6.71 0 001.648-.843l.952 1.941c-.496.44-1.155.81-1.977 1.111-.822.301-1.774.452-2.857.452zm-.342-11.328c-.732 0-1.334.293-1.806.879-.472.577-.765 1.314-.879 2.209l.024.061h5.237v-.305c0-.838-.216-1.522-.647-2.05-.423-.53-1.066-.794-1.929-.794zm17.298 11.071h-2.967V7.896h2.967V26.94zm8.996.257c-1.871 0-3.365-.61-4.48-1.831-1.106-1.23-1.66-2.804-1.66-4.724v-.489c0-1.92.55-3.511 1.648-4.773 1.107-1.27 2.49-1.9 4.151-1.892 1.782 0 3.145.541 4.089 1.624.952 1.074 1.428 2.518 1.428 4.333v1.746h-8.24l-.024.06c.049 1.05.354 1.91.916 2.577.569.667 1.354 1 2.355 1 .798 0 1.482-.097 2.051-.292a6.71 6.71 0 001.648-.843l.952 1.941c-.496.44-1.155.81-1.977 1.111-.822.301-1.774.452-2.857.452zm-.341-11.328c-.733 0-1.335.293-1.807.879-.472.577-.765 1.314-.879 2.209l.024.061h5.237v-.305c0-.838-.215-1.522-.647-2.05-.423-.53-1.066-.794-1.928-.794zm15.857 11.071c-.106-.333-.196-.659-.269-.976a7.599 7.599 0 01-.134-.952 5.278 5.278 0 01-1.612 1.562 4.08 4.08 0 01-2.221.623c-1.376 0-2.434-.354-3.174-1.062-.733-.708-1.099-1.68-1.099-2.918 0-1.277.505-2.27 1.514-2.978 1.009-.716 2.429-1.075 4.26-1.075h2.307v-1.16c0-.69-.203-1.232-.61-1.623-.407-.39-.989-.586-1.746-.586-.675 0-1.212.163-1.611.489a1.549 1.549 0 00-.598 1.257h-2.857l-.012-.073c-.057-1.042.407-1.966 1.392-2.771.993-.806 2.282-1.209 3.869-1.209 1.538 0 2.78.39 3.724 1.172.944.781 1.416 1.904 1.416 3.37v5.87c0 .546.036 1.071.109 1.576.074.496.192.984.354 1.464h-3.002zm-3.638-2.124c.749 0 1.42-.187 2.014-.561.602-.375 1.001-.802 1.196-1.282V21.02h-2.356c-.862 0-1.538.216-2.026.647-.488.423-.732.924-.732 1.501 0 .505.162.908.488 1.209.333.293.805.44 1.416.44zm15.869-8.41l-1.27-.05c-.577 0-1.062.123-1.452.367-.383.244-.68.59-.891 1.038v9.18h-2.967V13.73h2.71l.196 1.917c.333-.675.761-1.204 1.281-1.587a3.026 3.026 0 011.819-.574c.179 0 .346.017.501.05.154.023.297.056.427.097l-.354 2.77zm4.773-2.674l.171 1.905c.431-.676.972-1.2 1.623-1.575.66-.383 1.4-.574 2.222-.574 1.375 0 2.445.42 3.21 1.258.774.83 1.16 2.128 1.16 3.894v8.3h-2.966v-8.276c0-.993-.208-1.697-.623-2.112-.407-.423-1.029-.634-1.867-.634-.578 0-1.095.13-1.551.39-.455.252-.83.602-1.123 1.05v9.582h-2.966V13.731h2.71zm14.636 13.208h-2.966V13.731h2.966V26.94zm0-16.443h-2.966v-2.6h2.966v2.6zm6.018 3.235l.171 1.905c.431-.676.973-1.2 1.624-1.575.659-.383 1.399-.574 2.221-.574 1.376 0 2.446.42 3.211 1.258.773.83 1.159 2.128 1.159 3.894v8.3h-2.966v-8.276c0-.993-.207-1.697-.622-2.112-.407-.423-1.03-.634-1.868-.634-.578 0-1.095.13-1.55.39-.456.252-.83.602-1.123 1.05v9.582h-2.967V13.731h2.71zm10.938 6.787c0-2.1.459-3.796 1.379-5.09.92-1.294 2.197-1.94 3.833-1.94.789 0 1.481.17 2.075.512.603.334 1.111.818 1.526 1.453l.293-1.722h2.466V26.94c0 1.701-.525 3.016-1.575 3.943-1.05.928-2.539 1.392-4.468 1.392a8.644 8.644 0 01-2.087-.28 9.467 9.467 0 01-2.014-.721l.635-2.332a6.988 6.988 0 001.611.586c.594.147 1.204.22 1.831.22 1.074 0 1.86-.232 2.356-.696.496-.455.745-1.16.745-2.112v-1.355a4.2 4.2 0 01-1.477 1.209c-.562.268-1.209.403-1.941.403-1.62 0-2.889-.59-3.809-1.77-.92-1.18-1.379-2.73-1.379-4.651v-.256zm2.966.257c0 1.212.24 2.185.72 2.917.489.725 1.241 1.087 2.259 1.087.634 0 1.167-.13 1.599-.39a2.966 2.966 0 001.062-1.148v-5.786a3.1 3.1 0 00-1.075-1.123c-.431-.277-.952-.416-1.562-.416-1.017 0-1.774.428-2.271 1.282-.488.855-.732 1.962-.732 3.32v.257zM71.58 129.939v-17.773h5.762c2.254 0 4.085.704 5.493 2.112 1.416 1.408 2.124 3.218 2.124 5.432v2.698c0 2.221-.708 4.032-2.124 5.432-1.408 1.399-3.239 2.099-5.493 2.099H71.58zm2.966-15.393v13.025h2.71c1.473 0 2.629-.48 3.467-1.44.847-.961 1.27-2.202 1.27-3.723v-2.723c0-1.505-.423-2.738-1.27-3.698-.838-.961-1.994-1.441-3.467-1.441h-2.71zm18.75 15.65c-1.871 0-3.365-.611-4.48-1.831-1.106-1.229-1.66-2.804-1.66-4.725v-.488c0-1.92.55-3.511 1.648-4.773 1.107-1.269 2.49-1.9 4.15-1.892 1.783 0 3.146.541 4.09 1.624.952 1.074 1.428 2.518 1.428 4.333v1.746h-8.24l-.024.061c.049 1.05.354 1.908.916 2.576.57.667 1.355 1.001 2.356 1.001.797 0 1.48-.098 2.05-.293a6.753 6.753 0 001.648-.843l.952 1.941c-.496.44-1.155.81-1.977 1.111-.822.301-1.774.452-2.857.452zm-.341-11.328c-.733 0-1.335.293-1.807.878-.472.578-.765 1.315-.879 2.21l.024.061h5.237v-.305c0-.838-.215-1.522-.647-2.051-.423-.529-1.066-.793-1.928-.793zm13.573 11.328c-1.871 0-3.365-.611-4.48-1.831-1.106-1.229-1.66-2.804-1.66-4.725v-.488c0-1.92.55-3.511 1.648-4.773 1.107-1.269 2.49-1.9 4.151-1.892 1.782 0 3.145.541 4.089 1.624.952 1.074 1.428 2.518 1.428 4.333v1.746h-8.24l-.024.061c.049 1.05.354 1.908.915 2.576.57.667 1.355 1.001 2.356 1.001.798 0 1.482-.098 2.051-.293a6.748 6.748 0 001.648-.843l.952 1.941c-.496.44-1.155.81-1.977 1.111-.822.301-1.774.452-2.857.452zm-.341-11.328c-.733 0-1.335.293-1.807.878-.472.578-.765 1.315-.879 2.21l.024.061h5.237v-.305c0-.838-.215-1.522-.647-2.051-.423-.529-1.066-.793-1.928-.793zm19.482 4.907c0 1.92-.452 3.471-1.355 4.651-.903 1.18-2.161 1.77-3.772 1.77-.749 0-1.412-.135-1.99-.403a4.094 4.094 0 01-1.489-1.184v6.408h-2.966v-18.286h2.502l.293 1.66c.423-.618.932-1.09 1.526-1.416.602-.325 1.298-.488 2.087-.488 1.628 0 2.893.647 3.797 1.941.911 1.286 1.367 2.983 1.367 5.09v.257zm-2.954-.257c0-1.35-.257-2.453-.769-3.308-.505-.862-1.262-1.294-2.271-1.294-.618 0-1.143.135-1.574.403a2.872 2.872 0 00-1.038 1.099v5.969c.26.464.606.822 1.038 1.074.431.244.964.367 1.599.367 1.009 0 1.762-.371 2.258-1.111.505-.749.757-1.73.757-2.942v-.257zm14.929 6.421h-2.966v-19.043h2.966v19.043zm8.997.257c-1.872 0-3.365-.611-4.48-1.831-1.107-1.229-1.661-2.804-1.661-4.725v-.488c0-1.92.55-3.511 1.648-4.773 1.107-1.269 2.491-1.9 4.151-1.892 1.782 0 3.145.541 4.089 1.624.952 1.074 1.428 2.518 1.428 4.333v1.746h-8.239l-.025.061c.049 1.05.354 1.908.916 2.576.569.667 1.355 1.001 2.356 1.001.797 0 1.481-.098 2.051-.293a6.76 6.76 0 001.647-.843l.953 1.941c-.497.44-1.156.81-1.978 1.111-.822.301-1.774.452-2.856.452zm-.342-11.328c-.733 0-1.335.293-1.807.878-.472.578-.765 1.315-.879 2.21l.025.061h5.237v-.305c0-.838-.216-1.522-.647-2.051-.424-.529-1.067-.793-1.929-.793zm15.857 11.071a12.397 12.397 0 01-.269-.976 7.622 7.622 0 01-.134-.952 5.288 5.288 0 01-1.611 1.562c-.66.415-1.4.623-2.222.623-1.375 0-2.433-.354-3.174-1.062-.732-.708-1.099-1.681-1.099-2.918 0-1.277.505-2.27 1.514-2.978 1.009-.716 2.429-1.075 4.26-1.075h2.308v-1.159c0-.692-.204-1.233-.611-1.624-.407-.39-.989-.586-1.745-.586-.676 0-1.213.163-1.612.489a1.547 1.547 0 00-.598 1.257h-2.856l-.013-.073c-.057-1.042.407-1.966 1.392-2.771.993-.806 2.283-1.209 3.87-1.209 1.538 0 2.779.391 3.723 1.172.944.781 1.416 1.904 1.416 3.369v5.872c0 .545.036 1.07.11 1.574.073.497.191.985.354 1.465h-3.003zm-3.638-2.124c.749 0 1.42-.187 2.014-.561.602-.375 1.001-.802 1.197-1.282v-1.953h-2.356c-.863 0-1.539.216-2.027.647-.488.423-.732.924-.732 1.501 0 .505.163.908.488 1.209.334.293.806.439 1.416.439zm15.869-8.41l-1.269-.049c-.578 0-1.062.122-1.453.366a2.43 2.43 0 00-.891 1.038v9.179h-2.966v-13.208h2.71l.195 1.917c.334-.676.761-1.205 1.282-1.587a3.02 3.02 0 011.818-.574c.18 0 .346.016.501.049.155.024.297.057.427.098l-.354 2.771zm4.773-2.674l.171 1.905a4.68 4.68 0 011.624-1.575c.659-.383 1.399-.574 2.221-.574 1.376 0 2.446.419 3.211 1.257.773.831 1.159 2.129 1.159 3.895v8.3h-2.966v-8.276c0-.993-.207-1.697-.622-2.112-.407-.423-1.03-.635-1.868-.635a3.07 3.07 0 00-1.55.391 3.135 3.135 0 00-1.123 1.05v9.582h-2.967v-13.208h2.71zm14.636 13.208h-2.966v-13.208h2.966v13.208zm0-16.443h-2.966v-2.6h2.966v2.6zm6.018 3.235l.171 1.905a4.688 4.688 0 011.624-1.575c.659-.383 1.4-.574 2.222-.574 1.375 0 2.445.419 3.21 1.257.773.831 1.16 2.129 1.16 3.895v8.3h-2.967v-8.276c0-.993-.207-1.697-.622-2.112-.407-.423-1.03-.635-1.868-.635-.578 0-1.094.131-1.55.391-.456.252-.83.602-1.123 1.05v9.582h-2.967v-13.208h2.71zm10.938 6.787c0-2.099.46-3.796 1.379-5.09.92-1.294 2.198-1.941 3.833-1.941.79 0 1.481.171 2.076.513.602.334 1.11.818 1.525 1.453l.293-1.722h2.466v13.208c0 1.701-.525 3.015-1.574 3.943-1.05.928-2.54 1.392-4.468 1.392a8.657 8.657 0 01-2.088-.281 9.473 9.473 0 01-2.014-.72l.635-2.332a6.942 6.942 0 001.611.586c.594.147 1.205.22 1.831.22 1.075 0 1.86-.232 2.356-.696.497-.456.745-1.16.745-2.112v-1.355a4.196 4.196 0 01-1.477 1.209c-.562.268-1.209.403-1.941.403-1.62 0-2.889-.59-3.809-1.77-.919-1.18-1.379-2.731-1.379-4.651v-.257zm2.966.257c0 1.212.24 2.185.72 2.917.489.725 1.242 1.087 2.259 1.087.635 0 1.168-.131 1.599-.391a2.97 2.97 0 001.062-1.147v-5.787a3.11 3.11 0 00-1.074-1.123c-.432-.276-.952-.415-1.563-.415-1.017 0-1.774.428-2.27 1.282-.489.855-.733 1.961-.733 3.32v.257zM90.711 336.939v-17.773h5.25c1.57 0 2.962.35 4.174 1.05 1.22.7 2.164 1.692 2.832 2.978.667 1.286 1.001 2.759 1.001 4.419v.891c0 1.685-.338 3.166-1.013 4.444a7.035 7.035 0 01-2.869 2.954c-1.237.691-2.657 1.037-4.26 1.037h-5.115zm3.089-15.283v12.817h2.014c1.62 0 2.86-.504 3.723-1.513.87-1.017 1.314-2.474 1.33-4.37v-.989c0-1.929-.419-3.402-1.257-4.419-.838-1.017-2.055-1.526-3.65-1.526H93.8zm18.774 15.527c-1.88 0-3.406-.59-4.578-1.77-1.164-1.188-1.746-2.766-1.746-4.736v-.366c0-1.318.253-2.494.757-3.528.513-1.042 1.229-1.851 2.149-2.429.919-.578 1.945-.867 3.076-.867 1.798 0 3.186.574 4.163 1.721.984 1.148 1.477 2.771 1.477 4.871v1.196h-8.631c.09 1.091.452 1.953 1.087 2.588.643.635 1.448.952 2.417.952 1.359 0 2.465-.549 3.32-1.648l1.599 1.526a5.368 5.368 0 01-2.124 1.843c-.879.432-1.868.647-2.966.647zm-.354-11.315c-.814 0-1.473.284-1.978.854-.496.57-.814 1.363-.952 2.38h5.652v-.219c-.065-.993-.33-1.742-.794-2.246-.463-.513-1.106-.769-1.928-.769zm12.451 7.312l2.795-9.449h3.064l-4.577 13.208h-2.576l-4.614-13.208h3.076l2.832 9.449zm13.367 4.003c-1.88 0-3.406-.59-4.578-1.77-1.164-1.188-1.746-2.766-1.746-4.736v-.366c0-1.318.253-2.494.757-3.528.513-1.042 1.229-1.851 2.149-2.429.919-.578 1.945-.867 3.076-.867 1.798 0 3.186.574 4.162 1.721.985 1.148 1.477 2.771 1.477 4.871v1.196h-8.63c.09 1.091.452 1.953 1.087 2.588.642.635 1.448.952 2.416.952 1.36 0 2.466-.549 3.321-1.648l1.599 1.526a5.368 5.368 0 01-2.124 1.843c-.879.432-1.868.647-2.966.647zm-.354-11.315c-.814 0-1.473.284-1.978.854-.496.57-.814 1.363-.952 2.38h5.652v-.219c-.065-.993-.33-1.742-.794-2.246-.464-.513-1.106-.769-1.928-.769zm11.12 11.071h-2.966v-18.75h2.966v18.75zm2.686-6.726c0-1.294.256-2.457.769-3.491.512-1.042 1.233-1.839 2.16-2.393.928-.561 1.994-.842 3.199-.842 1.782 0 3.226.574 4.333 1.721 1.115 1.148 1.717 2.67 1.807 4.566l.012.696c0 1.302-.252 2.465-.757 3.491-.496 1.025-1.212 1.819-2.148 2.38-.928.562-2.002.842-3.223.842-1.864 0-3.357-.618-4.48-1.855-1.115-1.245-1.672-2.901-1.672-4.968v-.147zm2.966.257c0 1.359.281 2.425.842 3.198.562.765 1.343 1.147 2.344 1.147s1.778-.39 2.332-1.172c.561-.781.842-1.924.842-3.43 0-1.334-.289-2.392-.867-3.174-.569-.781-1.347-1.171-2.331-1.171-.969 0-1.738.386-2.307 1.159-.57.765-.855 1.913-.855 3.443zm23.389 0c0 2.042-.464 3.674-1.392 4.895-.928 1.212-2.173 1.818-3.735 1.818-1.449 0-2.608-.476-3.479-1.428v6.262h-2.967v-18.286h2.735l.122 1.343c.871-1.058 2.055-1.587 3.552-1.587 1.611 0 2.873.602 3.784 1.807.92 1.196 1.38 2.86 1.38 4.992v.184zm-2.954-.257c0-1.318-.265-2.364-.794-3.137-.521-.773-1.269-1.16-2.246-1.16-1.212 0-2.083.501-2.612 1.502v5.859c.537 1.026 1.416 1.538 2.636 1.538.944 0 1.681-.378 2.21-1.135.537-.765.806-1.921.806-3.467zm8.264-6.482l.085 1.38c.928-1.083 2.198-1.624 3.809-1.624 1.766 0 2.974.676 3.625 2.027.961-1.351 2.312-2.027 4.053-2.027 1.457 0 2.539.403 3.247 1.209.716.805 1.082 1.993 1.099 3.564v8.679h-2.967v-8.593c0-.839-.183-1.453-.549-1.844-.366-.39-.972-.586-1.819-.586-.675 0-1.229.183-1.66.55-.423.358-.72.83-.891 1.416l.012 9.057h-2.966v-8.691c-.041-1.554-.834-2.332-2.38-2.332-1.189 0-2.031.485-2.527 1.453v9.57h-2.967v-13.208h2.796zm24.78 13.452c-1.88 0-3.406-.59-4.578-1.77-1.163-1.188-1.745-2.766-1.745-4.736v-.366c0-1.318.252-2.494.757-3.528.512-1.042 1.228-1.851 2.148-2.429.92-.578 1.945-.867 3.076-.867 1.799 0 3.186.574 4.163 1.721.985 1.148 1.477 2.771 1.477 4.871v1.196h-8.63c.089 1.091.451 1.953 1.086 2.588.643.635 1.449.952 2.417.952 1.359 0 2.466-.549 3.32-1.648l1.599 1.526a5.368 5.368 0 01-2.124 1.843c-.879.432-1.867.647-2.966.647zm-.354-11.315c-.814 0-1.473.284-1.977.854-.497.57-.814 1.363-.953 2.38h5.652v-.219c-.065-.993-.329-1.742-.793-2.246-.464-.513-1.107-.769-1.929-.769zm10.718-2.137l.085 1.526c.977-1.18 2.259-1.77 3.845-1.77 2.751 0 4.151 1.575 4.2 4.724v8.728h-2.967v-8.557c0-.838-.183-1.457-.549-1.855-.358-.407-.948-.611-1.77-.611-1.196 0-2.087.542-2.673 1.624v9.399h-2.967v-13.208h2.796zm14.88-3.21v3.21h2.332v2.198h-2.332v7.373c0 .504.098.87.293 1.098.204.22.562.33 1.074.33.342 0 .688-.041 1.038-.122v2.295a7.31 7.31 0 01-1.953.28c-2.279 0-3.418-1.257-3.418-3.772v-7.482h-2.173v-2.198h2.173v-3.21h2.966zm-143.31 38.692c0-1.294.256-2.457.77-3.491.512-1.042 1.232-1.839 2.16-2.393.927-.561 1.994-.842 3.198-.842 1.782 0 3.227.574 4.333 1.721 1.115 1.148 1.717 2.67 1.807 4.566l.012.696c0 1.302-.252 2.465-.757 3.491-.496 1.025-1.212 1.819-2.148 2.38-.928.562-2.002.842-3.223.842-1.863 0-3.356-.618-4.48-1.855-1.114-1.245-1.672-2.901-1.672-4.968v-.147zm2.966.257c0 1.359.281 2.425.843 3.198.561.765 1.342 1.147 2.343 1.147s1.779-.39 2.332-1.172c.562-.781.842-1.924.842-3.43 0-1.334-.289-2.392-.866-3.174-.57-.781-1.347-1.171-2.332-1.171-.968 0-1.737.386-2.307 1.159-.57.765-.855 1.913-.855 3.443zm12.866 6.469v-11.01h-2.014v-2.198h2.014v-1.208c0-1.465.407-2.596 1.221-3.394.814-.797 1.953-1.196 3.418-1.196a6.83 6.83 0 011.66.22l-.073 2.319a5.852 5.852 0 00-1.135-.098c-1.417 0-2.125.729-2.125 2.185v1.172h2.686v2.198h-2.686v11.01h-2.966zm16.834-13.208l.085 1.38c.928-1.083 2.197-1.624 3.809-1.624 1.766 0 2.974.676 3.625 2.027.96-1.351 2.311-2.027 4.053-2.027 1.457 0 2.539.403 3.247 1.209.716.805 1.082 1.993 1.099 3.564v8.679h-2.967v-8.593c0-.839-.183-1.453-.549-1.844-.366-.39-.972-.586-1.819-.586-.675 0-1.229.183-1.66.55-.423.358-.72.83-.891 1.416l.012 9.057h-2.966v-8.691c-.041-1.554-.834-2.332-2.381-2.332-1.188 0-2.03.485-2.526 1.453v9.57h-2.967v-13.208h2.796zm26.855 13.208c-.13-.252-.244-.663-.342-1.233-.944.985-2.099 1.477-3.466 1.477-1.327 0-2.409-.378-3.248-1.135-.838-.757-1.257-1.693-1.257-2.807 0-1.408.521-2.487 1.563-3.235 1.049-.757 2.547-1.136 4.492-1.136h1.819v-.866c0-.684-.192-1.229-.574-1.636-.383-.415-.964-.623-1.746-.623-.675 0-1.228.171-1.66.513-.431.334-.647.761-.647 1.282h-2.966c0-.724.24-1.4.72-2.026.48-.635 1.131-1.132 1.953-1.49.83-.358 1.754-.537 2.771-.537 1.546 0 2.779.391 3.699 1.172.92.773 1.392 1.864 1.416 3.272v5.957c0 1.188.167 2.136.5 2.844v.207h-3.027zm-3.259-2.136c.586 0 1.135-.142 1.648-.427a2.846 2.846 0 001.172-1.148v-2.49h-1.599c-1.099 0-1.925.191-2.478.574-.554.382-.831.924-.831 1.623 0 .57.188 1.026.562 1.368.382.333.891.5 1.526.5zm14.319.012c.74 0 1.355-.215 1.843-.647.488-.431.749-.964.781-1.599h2.796a4.393 4.393 0 01-.769 2.307c-.481.708-1.132 1.27-1.954 1.685a5.818 5.818 0 01-2.661.622c-1.847 0-3.312-.598-4.394-1.794-1.083-1.196-1.624-2.848-1.624-4.956v-.305c0-2.01.537-3.618 1.612-4.822 1.074-1.213 2.539-1.819 4.394-1.819 1.571 0 2.848.46 3.833 1.38.993.911 1.514 2.111 1.563 3.601h-2.796c-.032-.757-.293-1.38-.781-1.868-.48-.488-1.095-.732-1.843-.732-.961 0-1.701.349-2.222 1.049-.521.692-.785 1.746-.793 3.162v.476c0 1.432.256 2.502.769 3.21.52.7 1.269 1.05 2.246 1.05zm10.583-9.643c.969-1.123 2.193-1.685 3.675-1.685 2.815 0 4.243 1.607 4.284 4.822v8.63h-2.966v-8.52c0-.912-.2-1.555-.598-1.929-.391-.382-.969-.574-1.734-.574-1.188 0-2.075.529-2.661 1.587v9.436h-2.966v-18.75h2.966v6.983zm14.124 11.767h-2.967v-13.208h2.967v13.208zm-3.15-16.638c0-.456.143-.834.428-1.135.293-.301.708-.452 1.245-.452.537 0 .952.151 1.245.452.293.301.439.679.439 1.135 0 .448-.146.822-.439 1.123-.293.293-.708.44-1.245.44-.537 0-.952-.147-1.245-.44-.285-.301-.428-.675-.428-1.123zm9.143 3.43l.086 1.526c.976-1.18 2.258-1.77 3.845-1.77 2.751 0 4.15 1.575 4.199 4.724v8.728h-2.966v-8.557c0-.838-.183-1.457-.549-1.855-.358-.407-.948-.611-1.77-.611-1.197 0-2.088.542-2.674 1.624v9.399h-2.966v-13.208h2.795zm16.98 13.452c-1.88 0-3.405-.59-4.577-1.77-1.164-1.188-1.746-2.766-1.746-4.736v-.366c0-1.318.252-2.494.757-3.528.513-1.042 1.229-1.851 2.148-2.429.92-.578 1.945-.867 3.077-.867 1.798 0 3.186.574 4.162 1.721.985 1.148 1.477 2.771 1.477 4.871v1.196h-8.63c.089 1.091.452 1.953 1.086 2.588.643.635 1.449.952 2.417.952 1.359 0 2.466-.549 3.321-1.648l1.599 1.526a5.368 5.368 0 01-2.124 1.843c-.879.432-1.868.647-2.967.647zm-.354-11.315c-.813 0-1.473.284-1.977.854-.497.57-.814 1.363-.952 2.38h5.652v-.219c-.066-.993-.33-1.742-.794-2.246-.464-.513-1.107-.769-1.929-.769zM93.58 394.939h-2.966v-18.75h2.966v18.75zm9.057.244c-1.88 0-3.405-.59-4.577-1.77-1.164-1.188-1.746-2.766-1.746-4.736v-.366c0-1.318.253-2.494.757-3.528.513-1.042 1.229-1.851 2.149-2.429.919-.578 1.944-.867 3.075-.867 1.799 0 3.186.574 4.163 1.721.985 1.148 1.477 2.771 1.477 4.871v1.196h-8.63c.09 1.091.452 1.953 1.086 2.588.643.635 1.449.952 2.417.952 1.359 0 2.466-.549 3.32-1.648l1.6 1.526a5.368 5.368 0 01-2.124 1.843c-.879.432-1.868.647-2.967.647zm-.354-11.315c-.814 0-1.473.284-1.977.854-.496.57-.814 1.363-.952 2.38h5.651v-.219c-.065-.993-.329-1.742-.793-2.246-.464-.513-1.107-.769-1.929-.769zm15.857 11.071c-.13-.252-.244-.663-.342-1.233-.944.985-2.099 1.477-3.466 1.477-1.327 0-2.409-.378-3.248-1.135-.838-.757-1.257-1.693-1.257-2.807 0-1.408.521-2.487 1.563-3.235 1.049-.757 2.547-1.136 4.492-1.136h1.819v-.866c0-.684-.192-1.229-.574-1.636-.383-.415-.964-.623-1.746-.623-.675 0-1.228.171-1.66.513-.431.334-.647.761-.647 1.282h-2.966c0-.724.24-1.4.72-2.026.48-.635 1.131-1.132 1.953-1.49.83-.358 1.754-.537 2.771-.537 1.546 0 2.779.391 3.699 1.172.92.773 1.392 1.864 1.416 3.272v5.957c0 1.188.167 2.136.5 2.844v.207h-3.027zm-3.259-2.136c.586 0 1.135-.142 1.648-.427a2.846 2.846 0 001.172-1.148v-2.49h-1.599c-1.099 0-1.925.191-2.478.574-.554.382-.831.924-.831 1.623 0 .57.188 1.026.562 1.368.382.333.891.5 1.526.5zm15.808-8.362a7.353 7.353 0 00-1.209-.097c-1.359 0-2.274.52-2.746 1.562v9.033h-2.966v-13.208h2.832l.073 1.477c.716-1.147 1.709-1.721 2.978-1.721.424 0 .773.057 1.05.171l-.012 2.783zm4.626-2.71l.086 1.526c.976-1.18 2.258-1.77 3.845-1.77 2.751 0 4.15 1.575 4.199 4.724v8.728h-2.966v-8.557c0-.838-.183-1.457-.549-1.855-.358-.407-.948-.611-1.77-.611-1.197 0-2.088.542-2.674 1.624v9.399h-2.966v-13.208h2.795zm14.319 13.208h-2.966v-13.208h2.966v13.208zm-3.149-16.638c0-.456.142-.834.427-1.135.293-.301.708-.452 1.245-.452.537 0 .952.151 1.245.452.293.301.44.679.44 1.135 0 .448-.147.822-.44 1.123-.293.293-.708.44-1.245.44-.537 0-.952-.147-1.245-.44-.285-.301-.427-.675-.427-1.123zm9.143 3.43l.085 1.526c.977-1.18 2.259-1.77 3.846-1.77 2.75 0 4.15 1.575 4.199 4.724v8.728h-2.966v-8.557c0-.838-.184-1.457-.55-1.855-.358-.407-.948-.611-1.77-.611-1.196 0-2.087.542-2.673 1.624v9.399h-2.966v-13.208h2.795zm10.644 6.507c0-2.051.481-3.687 1.441-4.908.968-1.228 2.25-1.843 3.845-1.843 1.506 0 2.69.525 3.552 1.575l.135-1.331h2.673v12.805c0 1.734-.541 3.101-1.624 4.102-1.074 1.001-2.526 1.502-4.357 1.502a7.018 7.018 0 01-2.845-.611c-.919-.399-1.619-.924-2.099-1.575l1.403-1.782c.912 1.083 2.035 1.624 3.37 1.624.984 0 1.762-.269 2.331-.806.57-.529.855-1.31.855-2.344v-.891c-.855.952-1.994 1.428-3.418 1.428-1.547 0-2.812-.614-3.797-1.843-.976-1.229-1.465-2.929-1.465-5.102zm2.955.256c0 1.327.268 2.372.805 3.137.545.757 1.298 1.135 2.259 1.135 1.196 0 2.083-.512 2.661-1.538v-5.81c-.562-1.001-1.441-1.502-2.637-1.502-.977 0-1.738.387-2.283 1.16-.537.773-.805 1.912-.805 3.418zm29.541-.024c0 2.042-.464 3.674-1.392 4.895-.928 1.212-2.173 1.818-3.735 1.818-1.449 0-2.609-.476-3.479-1.428v6.262h-2.967v-18.286h2.735l.122 1.343c.871-1.058 2.055-1.587 3.552-1.587 1.611 0 2.873.602 3.784 1.807.92 1.196 1.38 2.86 1.38 4.992v.184zm-2.955-.257c0-1.318-.264-2.364-.793-3.137-.521-.773-1.27-1.16-2.246-1.16-1.213 0-2.083.501-2.612 1.502v5.859c.537 1.026 1.416 1.538 2.636 1.538.944 0 1.681-.378 2.21-1.135.537-.765.805-1.921.805-3.467zm8.631 6.726h-2.966v-13.208h2.966v13.208zm-3.15-16.638c0-.456.143-.834.428-1.135.293-.301.708-.452 1.245-.452.537 0 .952.151 1.245.452.293.301.439.679.439 1.135 0 .448-.146.822-.439 1.123-.293.293-.708.44-1.245.44-.537 0-.952-.147-1.245-.44-.285-.301-.428-.675-.428-1.123zm17.957 10.169c0 2.042-.464 3.674-1.392 4.895-.927 1.212-2.172 1.818-3.735 1.818-1.449 0-2.608-.476-3.479-1.428v6.262h-2.966v-18.286h2.734l.122 1.343c.871-1.058 2.055-1.587 3.552-1.587 1.612 0 2.873.602 3.785 1.807.919 1.196 1.379 2.86 1.379 4.992v.184zm-2.954-.257c0-1.318-.265-2.364-.794-3.137-.52-.773-1.269-1.16-2.246-1.16-1.212 0-2.083.501-2.612 1.502v5.859c.537 1.026 1.416 1.538 2.637 1.538.944 0 1.68-.378 2.209-1.135.537-.765.806-1.921.806-3.467zm11.291 6.97c-1.88 0-3.405-.59-4.577-1.77-1.164-1.188-1.746-2.766-1.746-4.736v-.366c0-1.318.252-2.494.757-3.528.513-1.042 1.229-1.851 2.148-2.429.92-.578 1.945-.867 3.077-.867 1.798 0 3.186.574 4.162 1.721.985 1.148 1.477 2.771 1.477 4.871v1.196h-8.63c.089 1.091.452 1.953 1.086 2.588.643.635 1.449.952 2.417.952 1.359 0 2.466-.549 3.321-1.648l1.599 1.526a5.368 5.368 0 01-2.124 1.843c-.879.432-1.868.647-2.967.647zm-.354-11.315c-.813 0-1.473.284-1.977.854-.497.57-.814 1.363-.952 2.38h5.652v-.219c-.066-.993-.33-1.742-.794-2.246-.464-.513-1.107-.769-1.929-.769zm11.121 11.071h-2.966v-18.75h2.966v18.75zm6.396 0h-2.966v-13.208h2.966v13.208zm-3.149-16.638c0-.456.142-.834.427-1.135.293-.301.708-.452 1.245-.452.538 0 .953.151 1.246.452.292.301.439.679.439 1.135 0 .448-.147.822-.439 1.123-.293.293-.708.44-1.246.44-.537 0-.952-.147-1.245-.44-.285-.301-.427-.675-.427-1.123zm9.143 3.43l.086 1.526c.976-1.18 2.258-1.77 3.845-1.77 2.75 0 4.15 1.575 4.199 4.724v8.728h-2.966v-8.557c0-.838-.183-1.457-.55-1.855-.358-.407-.948-.611-1.77-.611-1.196 0-2.087.542-2.673 1.624v9.399h-2.966v-13.208h2.795zm16.98 13.452c-1.88 0-3.406-.59-4.578-1.77-1.163-1.188-1.745-2.766-1.745-4.736v-.366c0-1.318.252-2.494.757-3.528.512-1.042 1.229-1.851 2.148-2.429.92-.578 1.945-.867 3.076-.867 1.799 0 3.186.574 4.163 1.721.985 1.148 1.477 2.771 1.477 4.871v1.196h-8.63c.089 1.091.451 1.953 1.086 2.588.643.635 1.449.952 2.417.952 1.359 0 2.466-.549 3.32-1.648l1.599 1.526a5.368 5.368 0 01-2.124 1.843c-.879.432-1.867.647-2.966.647zm-.354-11.315c-.814 0-1.473.284-1.977.854-.497.57-.814 1.363-.953 2.38h5.652v-.219c-.065-.993-.329-1.742-.793-2.246-.464-.513-1.107-.769-1.929-.769zm15.369 7.482c0-.529-.22-.931-.659-1.208-.432-.277-1.152-.521-2.161-.732-1.009-.212-1.851-.481-2.527-.806-1.481-.716-2.222-1.754-2.222-3.113 0-1.139.481-2.091 1.441-2.856.96-.765 2.181-1.148 3.662-1.148 1.579 0 2.852.391 3.821 1.172.976.781 1.465 1.794 1.465 3.04h-2.967c0-.57-.211-1.042-.635-1.416-.423-.383-.984-.574-1.684-.574-.651 0-1.184.15-1.599.452a1.427 1.427 0 00-.611 1.208c0 .456.192.81.574 1.062.383.252 1.156.509 2.32.769 1.163.252 2.075.558 2.734.916.667.35 1.16.773 1.477 1.269.325.497.488 1.099.488 1.807 0 1.188-.492 2.152-1.477 2.893-.985.732-2.274 1.098-3.869 1.098-1.083 0-2.047-.195-2.894-.585-.846-.391-1.505-.928-1.977-1.612-.472-.683-.708-1.42-.708-2.209h2.881c.04.7.305 1.241.793 1.623.489.375 1.136.562 1.941.562.781 0 1.375-.147 1.782-.44.407-.301.611-.691.611-1.172zM24.477 229.789h-6.958l-1.416 4.15H13.1l6.53-17.773h2.808l6.457 17.773H25.88l-1.403-4.15zm-6.104-2.478h5.261l-2.575-7.593h-.074l-2.612 7.593zm18.787-3.906l-1.27-.049c-.578 0-1.062.122-1.453.366-.382.244-.679.59-.89 1.038v9.179H30.58v-13.208h2.71l.195 1.917c.334-.676.761-1.205 1.282-1.587a3.021 3.021 0 011.819-.574c.179 0 .346.016.5.049.155.024.297.057.428.098l-.354 2.771zm6.042-5.884v3.21h2.368v2.198h-2.368v7.299c0 .546.118.936.354 1.172.236.228.55.342.94.342.163 0 .322-.012.476-.037.155-.032.301-.073.44-.122l.317 2.173a3.27 3.27 0 01-.903.318c-.35.081-.712.122-1.087.122-1.09 0-1.945-.318-2.563-.952-.619-.643-.928-1.648-.928-3.016v-7.299h-2.014v-2.198h2.014v-3.21h2.954zm8.167 16.418h-2.967v-13.208h2.967v13.208zm0-16.443h-2.967v-2.6h2.967v2.6zm4.297 16.443v-11.01H53.65v-2.198h2.014v-1.538c0-1.456.395-2.58 1.185-3.369.797-.789 1.912-1.184 3.344-1.184.285 0 .574.024.867.073.293.041.623.102.989.183l-.305 2.295a7.263 7.263 0 00-.55-.085 5.017 5.017 0 00-.635-.037c-.642 0-1.127.183-1.452.55-.317.366-.476.891-.476 1.574v1.538h2.685v2.198h-2.685v11.01h-2.966zm10.986 0h-2.967v-13.208h2.967v13.208zm0-16.443h-2.967v-2.6h2.967v2.6zm8.789 14.332c.724 0 1.335-.212 1.831-.635.496-.432.745-.969.745-1.612h2.685l.025.074c.04 1.237-.464 2.303-1.514 3.198-1.042.895-2.3 1.343-3.772 1.343-1.945 0-3.438-.627-4.48-1.88-1.034-1.253-1.55-2.84-1.55-4.761v-.427c0-1.913.516-3.495 1.55-4.749 1.042-1.261 2.535-1.892 4.48-1.892 1.587 0 2.873.464 3.857 1.392.993.919 1.473 2.091 1.44 3.515l-.024.074h-2.697c0-.725-.24-1.339-.72-1.844-.473-.504-1.091-.756-1.856-.756-1.115 0-1.904.406-2.368 1.22-.464.806-.696 1.819-.696 3.04v.427c0 1.245.232 2.271.696 3.076.464.798 1.253 1.197 2.368 1.197zm10.84 2.111h-2.967v-13.208h2.967v13.208zm0-16.443h-2.967v-2.6h2.967v2.6zm11.28 16.443a12.565 12.565 0 01-.27-.976 7.68 7.68 0 01-.134-.952 5.284 5.284 0 01-1.611 1.562c-.66.415-1.4.623-2.222.623-1.375 0-2.433-.354-3.174-1.062-.732-.708-1.098-1.681-1.098-2.918 0-1.277.504-2.27 1.513-2.978 1.01-.716 2.43-1.075 4.26-1.075h2.308v-1.159c0-.692-.204-1.233-.61-1.624-.407-.39-.99-.586-1.746-.586-.676 0-1.213.163-1.612.489a1.548 1.548 0 00-.598 1.257h-2.856l-.012-.073c-.057-1.042.407-1.966 1.391-2.771.993-.806 2.283-1.209 3.87-1.209 1.538 0 2.78.391 3.723 1.172.944.781 1.416 1.904 1.416 3.369v5.872c0 .545.037 1.07.11 1.574.073.497.191.985.354 1.465H97.56zm-3.639-2.124c.75 0 1.42-.187 2.014-.561.603-.375 1.001-.802 1.197-1.282v-1.953h-2.356c-.863 0-1.538.216-2.026.647-.489.423-.733.924-.733 1.501 0 .505.163.908.488 1.209.334.293.806.439 1.416.439zm12.452 2.124h-2.967v-19.043h2.967v19.043zm12.719 0h-2.966v-13.208h2.966v13.208zm0-16.443h-2.966v-2.6h2.966v2.6zm6.018 3.235l.171 1.905a4.688 4.688 0 011.624-1.575c.659-.383 1.4-.574 2.221-.574 1.376 0 2.446.419 3.211 1.257.773.831 1.16 2.129 1.16 3.895v8.3h-2.967v-8.276c0-.993-.207-1.697-.622-2.112-.407-.423-1.03-.635-1.868-.635a3.07 3.07 0 00-1.55.391c-.456.252-.83.602-1.123 1.05v9.582h-2.967v-13.208h2.71zm15.161-3.21v3.21h2.369v2.198h-2.369v7.299c0 .546.118.936.354 1.172.236.228.55.342.94.342.163 0 .322-.012.476-.037.155-.032.302-.073.44-.122l.317 2.173a3.263 3.263 0 01-.903.318c-.35.081-.712.122-1.086.122-1.091 0-1.945-.318-2.564-.952-.618-.643-.928-1.648-.928-3.016v-7.299h-2.014v-2.198h2.014v-3.21h2.954zm10.669 16.675c-1.871 0-3.365-.611-4.48-1.831-1.106-1.229-1.66-2.804-1.66-4.725v-.488c0-1.92.55-3.511 1.648-4.773 1.107-1.269 2.49-1.9 4.151-1.892 1.782 0 3.145.541 4.089 1.624.952 1.074 1.428 2.518 1.428 4.333v1.746h-8.24l-.024.061c.049 1.05.354 1.908.916 2.576.569.667 1.355 1.001 2.356 1.001.797 0 1.481-.098 2.05-.293a6.748 6.748 0 001.648-.843l.952 1.941c-.496.44-1.155.81-1.977 1.111-.822.301-1.774.452-2.857.452zm-.341-11.328c-.733 0-1.335.293-1.807.878-.472.578-.765 1.315-.879 2.21l.024.061h5.237v-.305c0-.838-.215-1.522-.647-2.051-.423-.529-1.066-.793-1.928-.793zm11.071 11.071h-2.966v-19.043h2.966v19.043zm6.495 0h-2.967v-19.043h2.967v19.043zm6.494 0h-2.967v-13.208h2.967v13.208zm0-16.443h-2.967v-2.6h2.967v2.6zm2.795 10.022c0-2.099.46-3.796 1.379-5.09.92-1.294 2.198-1.941 3.833-1.941.79 0 1.482.171 2.076.513.602.334 1.111.818 1.526 1.453l.293-1.722h2.465v13.208c0 1.701-.525 3.015-1.574 3.943-1.05.928-2.539 1.392-4.468 1.392a8.657 8.657 0 01-2.088-.281 9.493 9.493 0 01-2.014-.72l.635-2.332a6.942 6.942 0 001.611.586c.594.147 1.205.22 1.831.22 1.075 0 1.86-.232 2.356-.696.497-.456.745-1.16.745-2.112v-1.355a4.196 4.196 0 01-1.477 1.209c-.562.268-1.209.403-1.941.403-1.619 0-2.889-.59-3.809-1.77-.919-1.18-1.379-2.731-1.379-4.651v-.257zm2.966.257c0 1.212.24 2.185.721 2.917.488.725 1.241 1.087 2.258 1.087.635 0 1.168-.131 1.599-.391a2.97 2.97 0 001.062-1.147v-5.787a3.11 3.11 0 00-1.074-1.123c-.431-.276-.952-.415-1.563-.415-1.017 0-1.774.428-2.27 1.282-.488.855-.733 1.961-.733 3.32v.257zm17.395 6.421c-1.871 0-3.365-.611-4.48-1.831-1.106-1.229-1.66-2.804-1.66-4.725v-.488c0-1.92.55-3.511 1.648-4.773 1.107-1.269 2.49-1.9 4.151-1.892 1.782 0 3.145.541 4.089 1.624.952 1.074 1.428 2.518 1.428 4.333v1.746h-8.24l-.024.061c.049 1.05.354 1.908.916 2.576.569.667 1.355 1.001 2.356 1.001.797 0 1.481-.098 2.05-.293a6.748 6.748 0 001.648-.843l.952 1.941c-.496.44-1.155.81-1.977 1.111-.822.301-1.774.452-2.857.452zm-.341-11.328c-.733 0-1.335.293-1.807.878-.472.578-.765 1.315-.879 2.21l.024.061h5.237v-.305c0-.838-.215-1.522-.647-2.051-.423-.529-1.066-.793-1.928-.793zm10.595-2.137l.171 1.905a4.688 4.688 0 011.624-1.575c.659-.383 1.399-.574 2.221-.574 1.376 0 2.446.419 3.211 1.257.773.831 1.16 2.129 1.16 3.895v8.3h-2.967v-8.276c0-.993-.207-1.697-.622-2.112-.407-.423-1.03-.635-1.868-.635a3.07 3.07 0 00-1.55.391c-.456.252-.83.602-1.123 1.05v9.582h-2.967v-13.208h2.71zm16.931 11.097c.725 0 1.335-.212 1.832-.635.496-.432.744-.969.744-1.612h2.686l.024.074c.041 1.237-.464 2.303-1.514 3.198-1.041.895-2.299 1.343-3.772 1.343-1.945 0-3.438-.627-4.48-1.88-1.033-1.253-1.55-2.84-1.55-4.761v-.427c0-1.913.517-3.495 1.55-4.749 1.042-1.261 2.535-1.892 4.48-1.892 1.587 0 2.873.464 3.858 1.392.993.919 1.473 2.091 1.44 3.515l-.024.074h-2.698c0-.725-.24-1.339-.72-1.844-.472-.504-1.091-.756-1.856-.756-1.114 0-1.904.406-2.368 1.22-.464.806-.695 1.819-.695 3.04v.427c0 1.245.231 2.271.695 3.076.464.798 1.254 1.197 2.368 1.197zm13.343 2.368c-1.872 0-3.365-.611-4.48-1.831-1.107-1.229-1.66-2.804-1.66-4.725v-.488c0-1.92.549-3.511 1.648-4.773 1.106-1.269 2.49-1.9 4.15-1.892 1.782 0 3.145.541 4.089 1.624.952 1.074 1.429 2.518 1.429 4.333v1.746h-8.24l-.025.061c.049 1.05.354 1.908.916 2.576.57.667 1.355 1.001 2.356 1.001.797 0 1.481-.098 2.051-.293a6.766 6.766 0 001.648-.843l.952 1.941c-.497.44-1.156.81-1.978 1.111-.822.301-1.774.452-2.856.452zm-.342-11.328c-.732 0-1.335.293-1.807.878-.472.578-.765 1.315-.879 2.21l.025.061h5.237v-.305c0-.838-.216-1.522-.647-2.051-.424-.529-1.066-.793-1.929-.793z" fill="#fff"/><path d="M54.419 125.45a4.091 4.091 0 10-.001-8.182 4.091 4.091 0 000 8.182zM514.441 246.42a4.634 4.634 0 000-9.268h-17.554v-12.615h17.554a4.634 4.634 0 000-9.268h-17.554v-7.581a4.635 4.635 0 00-1.356-3.276l-13.4-13.411a4.636 4.636 0 00-3.278-1.358h-7.583v-17.538a4.634 4.634 0 10-9.268 0v17.538h-12.618v-17.538a4.634 4.634 0 10-9.268 0v17.538h-12.605v-16.606c0-15.44-12.562-28.001-28.004-28.001-12.633 0-23.613 8.539-26.962 20.402-9.63.979-18.553 5.237-25.438 12.207-7.776 7.873-12.058 18.305-12.058 29.372a41.951 41.951 0 003.164 15.976 45.999 45.999 0 00-16.317 14.57c-5.299 7.696-8.101 16.719-8.101 26.093 0 17.257 9.435 32.735 24.415 40.676a41.901 41.901 0 00-3.16 15.963c0 11.068 4.282 21.499 12.058 29.372 6.885 6.971 15.807 11.228 25.437 12.207 3.349 11.871 14.329 20.415 26.963 20.415 15.442 0 28.004-12.561 28.004-28.001v-16.619h12.605v17.552a4.634 4.634 0 009.268 0v-17.552h12.618v17.552a4.634 4.634 0 009.268 0v-17.552h7.583a4.636 4.636 0 003.277-1.357l13.399-13.398a4.633 4.633 0 001.358-3.276v-7.595h17.553a4.634 4.634 0 000-9.268h-17.554v-12.602h17.554a4.634 4.634 0 000-9.268h-17.554V268.29h17.554a4.634 4.634 0 000-9.268h-17.554V246.42h17.554zM399.508 373.021c-7.687 0-14.455-4.727-17.304-11.553a40.799 40.799 0 009.845-3.087 41.007 41.007 0 0012.242-8.602 4.634 4.634 0 00-6.623-6.483 31.763 31.763 0 01-9.485 6.661 31.442 31.442 0 01-11.89 2.858c-17.642-.291-31.975-14.855-31.975-32.522a32.513 32.513 0 014.147-15.907 4.632 4.632 0 00-2.312-6.571c-14.027-5.634-23.09-19.042-23.09-34.159 0-15.121 9.062-28.524 23.087-34.145 2.756-1.49 3.528-3.68 2.318-6.568a32.61 32.61 0 01-4.15-15.925c0-17.667 14.333-32.23 31.975-32.521a31.648 31.648 0 0111.889 2.857 31.544 31.544 0 019.479 6.668 4.623 4.623 0 003.319 1.399 4.632 4.632 0 003.317-7.868 40.828 40.828 0 00-12.26-8.627 41.245 41.245 0 00-9.833-3.079c2.849-6.821 9.617-11.543 17.304-11.543 10.331 0 18.737 8.404 18.737 18.733v56.812h-14.426l-12.294-12.292a16.355 16.355 0 002.006-7.88c0-4.391-1.71-8.519-4.816-11.624-6.41-6.409-16.839-6.409-23.249 0a16.328 16.328 0 00-4.816 11.624c0 4.39 1.71 8.519 4.816 11.624a16.389 16.389 0 0011.624 4.807c2.716 0 5.429-.671 7.875-2.005l13.657 13.656c.989.885 2.081 1.337 3.277 1.357h16.345v19.905h-29.039c-2.007-6.809-8.317-11.795-15.773-11.795-9.06 0-16.431 7.37-16.431 16.429 0 9.066 7.371 16.442 16.431 16.442 7.458 0 13.768-4.992 15.774-11.808h29.038v19.905h-16.345c-.124 0-.231.007-.329.016a4.615 4.615 0 00-2.949 1.342l-13.658 13.667c-6.237-3.399-14.226-2.467-19.498 2.803a16.332 16.332 0 00-4.815 11.635 16.292 16.292 0 004.815 11.601 16.393 16.393 0 0011.626 4.807c4.209 0 8.417-1.601 11.619-4.802a16.298 16.298 0 004.82-11.606 16.339 16.339 0 00-2.007-7.89l12.296-12.305h14.424v56.826c.001 10.33-8.404 18.733-18.735 18.733zm-15.245-163.343a7.124 7.124 0 01-2.1 5.07 7.18 7.18 0 01-10.144 0 7.12 7.12 0 01-2.101-5.07c0-1.915.746-3.717 2.101-5.071 2.797-2.796 7.347-2.796 10.144 0a7.125 7.125 0 012.1 5.071zm-3.655 53.978c0 3.956-3.219 7.175-7.176 7.175-3.949 0-7.163-3.219-7.163-7.175 0-3.948 3.214-7.162 7.163-7.162 3.957 0 7.176 3.213 7.176 7.162zm3.655 53.995a7.09 7.09 0 01-2.1 5.054c-2.797 2.796-7.348 2.796-10.149-.005a7.087 7.087 0 01-2.096-5.049 7.123 7.123 0 012.101-5.074c2.796-2.796 7.347-2.796 10.143 0l.001.001.001.001a7.119 7.119 0 012.099 5.072zm103.356.067l-10.685 10.684h-49.422V314.67h41.738a4.634 4.634 0 004.634-4.634v-25.587a4.633 4.633 0 10-9.267 0v20.953h-37.105v-83.479h37.105v20.901a4.634 4.634 0 109.267 0v-25.535a4.634 4.634 0 00-4.634-4.634h-41.738v-13.744h49.421l10.686 10.695v108.112z" fill="#6D7693"/><path d="M469.251 171.01a4.634 4.634 0 00-4.634 4.633v.013a4.629 4.629 0 004.634 4.628 4.64 4.64 0 004.634-4.641 4.634 4.634 0 00-4.634-4.633z" fill="#6D7693"/><path d="M54.598 161.391h321.647M3.69 268.993h313.548M54.397 121.358v40.906" stroke="#6D7693" stroke-width="2"/><path d="M4.31 229.58a4.091 4.091 0 10-.002-8.182 4.091 4.091 0 00.001 8.182z" fill="#6D7693"/><path d="M4.287 228.557v40.905M71.953 439.534H401.7" stroke="#6D7693" stroke-width="2"/><path d="M72.573 332.121a4.091 4.091 0 10-.001-8.182 4.091 4.091 0 00.001 8.182z" fill="#6D7693"/><path d="M72.904 327.939v113M164.514 60.732H401.7" stroke="#6D7693" stroke-width="2"/><path d="M165.133 21.319a4.09 4.09 0 100-8.18 4.09 4.09 0 000 8.18z" fill="#6D7693"/><path d="M165.11 20.296v40.906M400.386 59.418v87.932M400.386 382.213l.51 57.718" stroke="#6D7693" stroke-width="2"/></svg>