<svg width="715" height="529" viewBox="0 0 715 529" fill="none" xmlns="http://www.w3.org/2000/svg">
<path d="M371.707 44.7071C372.098 44.3166 372.098 43.6834 371.707 43.2929L365.343 36.9289C364.953 36.5384 364.319 36.5384 363.929 36.9289C363.538 37.3195 363.538 37.9526 363.929 38.3432L369.586 44L363.929 49.6569C363.538 50.0474 363.538 50.6805 363.929 51.0711C364.319 51.4616 364.953 51.4616 365.343 51.0711L371.707 44.7071ZM299 45H371V43H299V45Z" fill="#626A84"/>
<path opacity="0.5" d="M294 0H5C2.23858 0 0 2.23858 0 5V84C0 86.7614 2.23858 89 5 89H294C296.761 89 299 86.7614 299 84V5C299 2.23858 296.761 0 294 0Z" fill="#2A365C"/>
<path opacity="0.5" d="M665 0H376C373.239 0 371 2.23858 371 5V84C371 86.7614 373.239 89 376 89H665C667.761 89 670 86.7614 670 84V5C670 2.23858 667.761 0 665 0Z" fill="#2A365C"/>
<path opacity="0.5" d="M481 151H192C189.239 151 187 153.239 187 156V237C187 239.761 189.239 242 192 242H481C483.761 242 486 239.761 486 237V156C486 153.239 483.761 151 481 151Z" fill="#2A365C"/>
<path d="M670 45H700" stroke="#6D7693" stroke-width="2"/>
<path d="M486 195H700" stroke="#6D7693" stroke-width="2"/>
<path d="M699 44V196" stroke="#6D7693" stroke-width="2"/>
<path d="M63.5855 33.6069H58.2144V49H55.2481V33.6069H49.877V31.2266H63.5855V33.6069ZM68.8833 41.627V49H65.917V31.2266H72.4844C74.4701 31.2266 76.0041 31.6742 77.0864 32.5693C78.1688 33.4645 78.71 34.7422 78.71 36.4023C78.71 37.3219 78.4699 38.1154 77.9898 38.7827C77.5178 39.4419 76.826 39.9709 75.9146 40.3696C76.9156 40.687 77.6358 41.2078 78.0752 41.9321C78.5147 42.6483 78.7344 43.5312 78.7344 44.5811V46.0581C78.7344 46.5789 78.7995 47.0876 78.9297 47.584C79.0599 48.0804 79.2796 48.4588 79.5889 48.7192V49H76.5371C76.2116 48.7314 76 48.3083 75.9024 47.7305C75.8128 47.1527 75.7681 46.5871 75.7681 46.0337V44.6055C75.7681 43.694 75.5077 42.9697 74.9868 42.4326C74.466 41.8955 73.7499 41.627 72.8384 41.627H68.8833ZM68.8833 39.2466H72.3257C73.5139 39.2466 74.3806 39.0187 74.9258 38.563C75.4711 38.1073 75.7437 37.4115 75.7437 36.4756C75.7437 35.5804 75.475 34.8805 74.938 34.376C74.4009 33.8633 73.583 33.6069 72.4844 33.6069H68.8833V39.2466ZM93.2119 41.0044H85.4361V46.6318H94.4571V49H82.4698V31.2266H94.3716V33.6069H85.4361V38.624H93.2119V41.0044ZM99.938 42.2617V49H96.9717V31.2266H103.918C105.879 31.2266 107.413 31.7352 108.52 32.7524C109.634 33.7616 110.192 35.0921 110.192 36.7441C110.192 38.4124 109.634 39.7511 108.52 40.7603C107.413 41.7612 105.879 42.2617 103.918 42.2617H99.938ZM99.938 39.8813H103.918C105.016 39.8813 105.842 39.5884 106.396 39.0024C106.949 38.4165 107.226 37.6719 107.226 36.7686C107.226 35.8652 106.949 35.1125 106.396 34.5103C105.842 33.908 105.016 33.6069 103.918 33.6069H99.938V39.8813ZM120.165 50.5259H117.443L124.438 31.2266H127.16L120.165 50.5259ZM138.805 41.627V49H135.839V31.2266H142.406C144.392 31.2266 145.926 31.6742 147.008 32.5693C148.091 33.4645 148.632 34.7422 148.632 36.4023C148.632 37.3219 148.392 38.1154 147.912 38.7827C147.44 39.4419 146.748 39.9709 145.836 40.3696C146.837 40.687 147.558 41.2078 147.997 41.9321C148.437 42.6483 148.656 43.5312 148.656 44.5811V46.0581C148.656 46.5789 148.721 47.0876 148.852 47.584C148.982 48.0804 149.202 48.4588 149.511 48.7192V49H146.459C146.133 48.7314 145.922 48.3083 145.824 47.7305C145.735 47.1527 145.69 46.5871 145.69 46.0337V44.6055C145.69 43.694 145.43 42.9697 144.909 42.4326C144.388 41.8955 143.672 41.627 142.76 41.627H138.805ZM138.805 39.2466H142.248C143.436 39.2466 144.302 39.0187 144.848 38.563C145.393 38.1073 145.666 37.4115 145.666 36.4756C145.666 35.5804 145.397 34.8805 144.86 34.376C144.323 33.8633 143.505 33.6069 142.406 33.6069H138.805V39.2466ZM156.237 31.2266L161.352 44.8984H161.425L166.552 31.2266H170.397V49H167.431V42.9453L167.724 35.2427L167.65 35.2305L162.377 49H160.387L155.138 35.2671L155.065 35.2793L155.358 42.9453V49H152.392V31.2266H156.237ZM174.291 49V31.2266H180.053C182.307 31.2266 184.138 31.9305 185.546 33.3384C186.962 34.7463 187.67 36.557 187.67 38.7705V41.4683C187.67 43.6899 186.962 45.5007 185.546 46.9004C184.138 48.3001 182.307 49 180.053 49H174.291ZM177.257 33.6069V46.6318H179.967C181.44 46.6318 182.596 46.1517 183.434 45.1914C184.28 44.2311 184.704 42.9901 184.704 41.4683V38.7461C184.704 37.2406 184.28 36.0076 183.434 35.0474C182.596 34.0871 181.44 33.6069 179.967 33.6069H177.257ZM200.353 44.4346C200.353 43.694 200.076 43.0877 199.523 42.6157C198.978 42.1437 198.009 41.7205 196.618 41.3462C194.632 40.8254 193.102 40.1377 192.028 39.2832C190.962 38.4206 190.429 37.2935 190.429 35.9019C190.429 34.4696 191.019 33.2896 192.199 32.3618C193.387 31.4341 194.917 30.9702 196.789 30.9702C198.742 30.9702 200.308 31.4951 201.488 32.5449C202.676 33.5947 203.25 34.8561 203.209 36.3291L203.185 36.4023H200.341C200.341 35.4909 200.032 34.7544 199.413 34.1929C198.795 33.6232 197.912 33.3384 196.764 33.3384C195.682 33.3384 194.848 33.5744 194.262 34.0464C193.684 34.5184 193.395 35.1287 193.395 35.8774C193.395 36.5529 193.708 37.1144 194.335 37.562C194.97 38.0096 196.015 38.4328 197.472 38.8315C199.385 39.3442 200.837 40.0522 201.83 40.9556C202.823 41.8589 203.319 43.0104 203.319 44.4102C203.319 45.8913 202.725 47.0713 201.537 47.9502C200.357 48.821 198.803 49.2563 196.874 49.2563C195.019 49.2563 193.391 48.7681 191.991 47.7915C190.591 46.8068 189.912 45.46 189.953 43.751L189.977 43.6777H192.834C192.834 44.7601 193.208 45.5698 193.957 46.1069C194.705 46.6359 195.678 46.9004 196.874 46.9004C197.973 46.9004 198.827 46.6807 199.438 46.2412C200.048 45.7936 200.353 45.1914 200.353 44.4346Z" fill="white"/>
<path d="M426.065 31.104L426.09 31.1772C426.122 32.9757 425.536 34.4406 424.332 35.5718C423.136 36.6948 421.512 37.2563 419.461 37.2563C417.386 37.2563 415.698 36.5605 414.395 35.1689C413.102 33.7692 412.455 31.9829 412.455 29.8101V26.4287C412.455 24.264 413.093 22.4818 414.371 21.082C415.657 19.6742 417.325 18.9702 419.376 18.9702C421.476 18.9702 423.128 19.5236 424.332 20.6304C425.545 21.729 426.135 23.2101 426.102 25.0737L426.078 25.147H423.209C423.209 23.9507 422.883 23.0189 422.232 22.3516C421.589 21.6842 420.637 21.3506 419.376 21.3506C418.163 21.3506 417.199 21.8307 416.483 22.791C415.775 23.7513 415.421 24.9557 415.421 26.4043V29.8101C415.421 31.2749 415.783 32.4875 416.507 33.4478C417.24 34.408 418.224 34.8882 419.461 34.8882C420.69 34.8882 421.622 34.5586 422.257 33.8994C422.892 33.2402 423.209 32.3084 423.209 31.104H426.065ZM435.196 26.4653L433.927 26.4165C433.349 26.4165 432.865 26.5386 432.474 26.7827C432.092 27.0269 431.795 27.3727 431.583 27.8203V37H428.617V23.792H431.327L431.522 25.7085C431.856 25.033 432.283 24.5041 432.804 24.1216C433.333 23.7391 433.939 23.5479 434.623 23.5479C434.802 23.5479 434.968 23.5641 435.123 23.5967C435.278 23.6211 435.42 23.6536 435.55 23.6943L435.196 26.4653ZM436.734 30.2739C436.734 28.3127 437.271 26.7013 438.346 25.4399C439.436 24.1785 440.913 23.5479 442.777 23.5479C444.673 23.5479 446.158 24.1785 447.232 25.4399C448.315 26.6932 448.856 28.3045 448.856 30.2739V30.5303C448.856 32.516 448.315 34.1354 447.232 35.3887C446.158 36.6338 444.681 37.2563 442.801 37.2563C440.913 37.2563 439.428 36.6297 438.346 35.3765C437.271 34.1232 436.734 32.5078 436.734 30.5303V30.2739ZM439.701 30.5303C439.701 31.8161 439.953 32.8659 440.457 33.6797C440.954 34.4854 441.735 34.8882 442.801 34.8882C443.835 34.8882 444.608 34.4854 445.121 33.6797C445.641 32.8659 445.902 31.8161 445.902 30.5303V30.2739C445.902 29.0125 445.641 27.9749 445.121 27.1611C444.608 26.3392 443.827 25.9282 442.777 25.9282C441.743 25.9282 440.97 26.3392 440.457 27.1611C439.953 27.9831 439.701 29.0207 439.701 30.2739V30.5303ZM458.866 33.4111C458.866 32.9554 458.67 32.577 458.28 32.2759C457.889 31.9748 457.161 31.7103 456.095 31.4824C454.516 31.1488 453.32 30.6768 452.506 30.0664C451.7 29.4479 451.297 28.6097 451.297 27.5518C451.297 26.445 451.765 25.501 452.701 24.7197C453.637 23.9385 454.87 23.5479 456.4 23.5479C458.011 23.5479 459.289 23.9466 460.233 24.7441C461.185 25.5335 461.641 26.5142 461.6 27.686L461.576 27.7593H458.731C458.731 27.214 458.524 26.7461 458.109 26.3555C457.694 25.9648 457.124 25.7695 456.4 25.7695C455.684 25.7695 455.138 25.9323 454.764 26.2578C454.39 26.5752 454.203 26.9658 454.203 27.4297C454.203 27.8936 454.378 28.2638 454.728 28.5405C455.086 28.8091 455.806 29.0492 456.888 29.2607C458.548 29.6025 459.777 30.0868 460.575 30.7134C461.38 31.3319 461.783 32.1782 461.783 33.2524C461.783 34.4406 461.291 35.4049 460.306 36.1455C459.33 36.8861 458.04 37.2563 456.437 37.2563C454.719 37.2563 453.364 36.8169 452.372 35.938C451.379 35.0591 450.907 34.05 450.956 32.9106L450.98 32.8374H453.739C453.771 33.6024 454.048 34.1598 454.569 34.5098C455.09 34.8597 455.724 35.0347 456.473 35.0347C457.238 35.0347 457.828 34.8882 458.243 34.5952C458.658 34.3022 458.866 33.9076 458.866 33.4111ZM471.878 33.4111C471.878 32.9554 471.683 32.577 471.292 32.2759C470.902 31.9748 470.173 31.7103 469.107 31.4824C467.529 31.1488 466.332 30.6768 465.519 30.0664C464.713 29.4479 464.31 28.6097 464.31 27.5518C464.31 26.445 464.778 25.501 465.714 24.7197C466.65 23.9385 467.883 23.5479 469.413 23.5479C471.024 23.5479 472.302 23.9466 473.246 24.7441C474.198 25.5335 474.653 26.5142 474.613 27.686L474.588 27.7593H471.744C471.744 27.214 471.537 26.7461 471.122 26.3555C470.707 25.9648 470.137 25.7695 469.413 25.7695C468.696 25.7695 468.151 25.9323 467.777 26.2578C467.402 26.5752 467.215 26.9658 467.215 27.4297C467.215 27.8936 467.39 28.2638 467.74 28.5405C468.098 28.8091 468.818 29.0492 469.901 29.2607C471.561 29.6025 472.79 30.0868 473.587 30.7134C474.393 31.3319 474.796 32.1782 474.796 33.2524C474.796 34.4406 474.304 35.4049 473.319 36.1455C472.342 36.8861 471.052 37.2563 469.449 37.2563C467.732 37.2563 466.377 36.8169 465.384 35.938C464.391 35.0591 463.919 34.05 463.968 32.9106L463.993 32.8374H466.751C466.784 33.6024 467.061 34.1598 467.582 34.5098C468.102 34.8597 468.737 35.0347 469.486 35.0347C470.251 35.0347 470.841 34.8882 471.256 34.5952C471.671 34.3022 471.878 33.9076 471.878 33.4111ZM491.642 37C491.536 36.6663 491.446 36.3408 491.373 36.0234C491.308 35.7061 491.263 35.3887 491.239 35.0713C490.832 35.6898 490.295 36.2106 489.627 36.6338C488.968 37.0488 488.228 37.2563 487.406 37.2563C486.03 37.2563 484.972 36.9023 484.232 36.1943C483.499 35.4863 483.133 34.5138 483.133 33.2769C483.133 31.9992 483.638 31.0063 484.647 30.2983C485.656 29.5822 487.076 29.2241 488.907 29.2241H491.214V28.0645C491.214 27.3727 491.011 26.8315 490.604 26.4409C490.197 26.0503 489.615 25.855 488.858 25.855C488.183 25.855 487.646 26.0177 487.247 26.3433C486.848 26.6688 486.649 27.0879 486.649 27.6006H483.792L483.78 27.5273C483.723 26.4857 484.187 25.562 485.172 24.7563C486.165 23.9507 487.455 23.5479 489.041 23.5479C490.58 23.5479 491.821 23.9385 492.765 24.7197C493.709 25.501 494.181 26.624 494.181 28.0889V33.9604C494.181 34.5057 494.217 35.0306 494.291 35.5352C494.364 36.0316 494.482 36.5199 494.645 37H491.642ZM488.004 34.876C488.753 34.876 489.424 34.6888 490.018 34.3145C490.62 33.9401 491.019 33.5129 491.214 33.0327V31.0796H488.858C487.996 31.0796 487.32 31.2952 486.832 31.7266C486.344 32.1497 486.1 32.6502 486.1 33.228C486.1 33.7326 486.262 34.1354 486.588 34.4365C486.922 34.7295 487.394 34.876 488.004 34.876ZM504.715 33.4111C504.715 32.9554 504.52 32.577 504.129 32.2759C503.739 31.9748 503.01 31.7103 501.944 31.4824C500.366 31.1488 499.169 30.6768 498.355 30.0664C497.55 29.4479 497.147 28.6097 497.147 27.5518C497.147 26.445 497.615 25.501 498.551 24.7197C499.487 23.9385 500.72 23.5479 502.249 23.5479C503.861 23.5479 505.138 23.9466 506.082 24.7441C507.035 25.5335 507.49 26.5142 507.45 27.686L507.425 27.7593H504.581C504.581 27.214 504.374 26.7461 503.958 26.3555C503.543 25.9648 502.974 25.7695 502.249 25.7695C501.533 25.7695 500.988 25.9323 500.614 26.2578C500.239 26.5752 500.052 26.9658 500.052 27.4297C500.052 27.8936 500.227 28.2638 500.577 28.5405C500.935 28.8091 501.655 29.0492 502.738 29.2607C504.398 29.6025 505.627 30.0868 506.424 30.7134C507.23 31.3319 507.633 32.1782 507.633 33.2524C507.633 34.4406 507.14 35.4049 506.156 36.1455C505.179 36.8861 503.889 37.2563 502.286 37.2563C500.569 37.2563 499.214 36.8169 498.221 35.938C497.228 35.0591 496.756 34.05 496.805 32.9106L496.83 32.8374H499.588C499.621 33.6024 499.898 34.1598 500.418 34.5098C500.939 34.8597 501.574 35.0347 502.323 35.0347C503.088 35.0347 503.678 34.8882 504.093 34.5952C504.508 34.3022 504.715 33.9076 504.715 33.4111ZM517.728 33.4111C517.728 32.9554 517.533 32.577 517.142 32.2759C516.751 31.9748 516.023 31.7103 514.957 31.4824C513.378 31.1488 512.182 30.6768 511.368 30.0664C510.562 29.4479 510.16 28.6097 510.16 27.5518C510.16 26.445 510.628 25.501 511.563 24.7197C512.499 23.9385 513.732 23.5479 515.262 23.5479C516.874 23.5479 518.151 23.9466 519.095 24.7441C520.047 25.5335 520.503 26.5142 520.462 27.686L520.438 27.7593H517.594C517.594 27.214 517.386 26.7461 516.971 26.3555C516.556 25.9648 515.986 25.7695 515.262 25.7695C514.546 25.7695 514.001 25.9323 513.626 26.2578C513.252 26.5752 513.065 26.9658 513.065 27.4297C513.065 27.8936 513.24 28.2638 513.59 28.5405C513.948 28.8091 514.668 29.0492 515.75 29.2607C517.411 29.6025 518.639 30.0868 519.437 30.7134C520.243 31.3319 520.645 32.1782 520.645 33.2524C520.645 34.4406 520.153 35.4049 519.168 36.1455C518.192 36.8861 516.902 37.2563 515.299 37.2563C513.582 37.2563 512.227 36.8169 511.234 35.938C510.241 35.0591 509.769 34.05 509.818 32.9106L509.842 32.8374H512.601C512.634 33.6024 512.91 34.1598 513.431 34.5098C513.952 34.8597 514.587 35.0347 515.335 35.0347C516.1 35.0347 516.69 34.8882 517.105 34.5952C517.52 34.3022 517.728 33.9076 517.728 33.4111ZM528.983 37.2563C527.111 37.2563 525.618 36.646 524.503 35.4253C523.396 34.1965 522.843 32.6217 522.843 30.7012V30.2129C522.843 28.2923 523.392 26.7013 524.491 25.4399C525.597 24.1704 526.981 23.5397 528.641 23.5479C530.423 23.5479 531.786 24.089 532.73 25.1714C533.683 26.2456 534.159 27.6901 534.159 29.5049V31.2505H525.919L525.895 31.3115C525.943 32.3613 526.249 33.2199 526.81 33.8872C527.38 34.5545 528.165 34.8882 529.166 34.8882C529.964 34.8882 530.647 34.7905 531.217 34.5952C531.786 34.3999 532.336 34.1191 532.865 33.7529L533.817 35.6938C533.32 36.1333 532.661 36.5036 531.839 36.8047C531.017 37.1058 530.065 37.2563 528.983 37.2563ZM528.641 25.9282C527.909 25.9282 527.306 26.2212 526.834 26.8071C526.362 27.3849 526.069 28.1214 525.956 29.0166L525.98 29.0776H531.217V28.7725C531.217 27.9342 531.001 27.2507 530.57 26.7217C530.147 26.1927 529.504 25.9282 528.641 25.9282ZM540.238 20.5815V23.792H542.606V25.9893H540.238V33.2891C540.238 33.8343 540.356 34.2249 540.592 34.4609C540.828 34.6888 541.141 34.8027 541.532 34.8027C541.694 34.8027 541.853 34.7905 542.008 34.7661C542.162 34.7336 542.309 34.6929 542.447 34.644L542.765 36.8169C542.512 36.9552 542.211 37.061 541.861 37.1343C541.511 37.2157 541.149 37.2563 540.775 37.2563C539.684 37.2563 538.83 36.939 538.211 36.3042C537.593 35.6613 537.284 34.6562 537.284 33.2891V25.9893H535.27V23.792H537.284V20.5815H540.238ZM555.155 20.5815V23.792H557.523V25.9893H555.155V33.2891C555.155 33.8343 555.273 34.2249 555.509 34.4609C555.745 34.6888 556.058 34.8027 556.449 34.8027C556.611 34.8027 556.77 34.7905 556.925 34.7661C557.079 34.7336 557.226 34.6929 557.364 34.644L557.682 36.8169C557.429 36.9552 557.128 37.061 556.778 37.1343C556.428 37.2157 556.066 37.2563 555.692 37.2563C554.601 37.2563 553.747 36.939 553.128 36.3042C552.51 35.6613 552.201 34.6562 552.201 33.2891V25.9893H550.187V23.792H552.201V20.5815H555.155ZM566.739 26.4653L565.47 26.4165C564.892 26.4165 564.408 26.5386 564.017 26.7827C563.635 27.0269 563.338 27.3727 563.126 27.8203V37H560.16V23.792H562.87L563.065 25.7085C563.399 25.033 563.826 24.5041 564.347 24.1216C564.876 23.7391 565.482 23.5479 566.166 23.5479C566.345 23.5479 566.511 23.5641 566.666 23.5967C566.821 23.6211 566.963 23.6536 567.093 23.6943L566.739 26.4653ZM576.773 37C576.668 36.6663 576.578 36.3408 576.505 36.0234C576.44 35.7061 576.395 35.3887 576.371 35.0713C575.964 35.6898 575.427 36.2106 574.759 36.6338C574.1 37.0488 573.36 37.2563 572.538 37.2563C571.162 37.2563 570.104 36.9023 569.364 36.1943C568.631 35.4863 568.265 34.5138 568.265 33.2769C568.265 31.9992 568.77 31.0063 569.779 30.2983C570.788 29.5822 572.208 29.2241 574.039 29.2241H576.346V28.0645C576.346 27.3727 576.143 26.8315 575.736 26.4409C575.329 26.0503 574.747 25.855 573.99 25.855C573.315 25.855 572.778 26.0177 572.379 26.3433C571.98 26.6688 571.781 27.0879 571.781 27.6006H568.924L568.912 27.5273C568.855 26.4857 569.319 25.562 570.304 24.7563C571.297 23.9507 572.586 23.5479 574.173 23.5479C575.711 23.5479 576.952 23.9385 577.896 24.7197C578.84 25.501 579.312 26.624 579.312 28.0889V33.9604C579.312 34.5057 579.349 35.0306 579.422 35.5352C579.496 36.0316 579.614 36.5199 579.776 37H576.773ZM573.136 34.876C573.884 34.876 574.556 34.6888 575.15 34.3145C575.752 33.9401 576.151 33.5129 576.346 33.0327V31.0796H573.99C573.128 31.0796 572.452 31.2952 571.964 31.7266C571.476 32.1497 571.231 32.6502 571.231 33.228C571.231 33.7326 571.394 34.1354 571.72 34.4365C572.053 34.7295 572.525 34.876 573.136 34.876ZM581.876 30.5791C581.876 28.4714 582.328 26.7746 583.231 25.4888C584.134 24.1948 585.404 23.5479 587.04 23.5479C587.756 23.5479 588.395 23.6943 588.956 23.9873C589.526 24.2721 590.018 24.6831 590.433 25.2202V17.957H593.399V37H590.909L590.616 35.3643C590.193 35.9827 589.684 36.4548 589.09 36.7803C588.496 37.0977 587.805 37.2563 587.015 37.2563C585.396 37.2563 584.134 36.6663 583.231 35.4863C582.328 34.3063 581.876 32.756 581.876 30.8354V30.5791ZM584.842 30.8354C584.842 32.0562 585.074 33.0286 585.538 33.7529C586.01 34.4772 586.755 34.8394 587.772 34.8394C588.399 34.8394 588.928 34.7051 589.359 34.4365C589.798 34.168 590.156 33.7855 590.433 33.2891V27.5273C590.156 27.0391 589.798 26.6606 589.359 26.3921C588.919 26.1154 588.399 25.9771 587.796 25.9771C586.787 25.9771 586.043 26.4043 585.562 27.2588C585.082 28.1051 584.842 29.2119 584.842 30.5791V30.8354ZM599.747 37H596.781V23.792H599.747V37ZM599.747 20.5571H596.781V17.957H599.747V20.5571ZM605.765 23.792L605.936 25.6963C606.367 25.0208 606.909 24.4959 607.56 24.1216C608.219 23.7391 608.959 23.5479 609.781 23.5479C611.157 23.5479 612.227 23.967 612.992 24.8052C613.765 25.6353 614.151 26.9333 614.151 28.6992V37H611.185V28.7236C611.185 27.7308 610.978 27.0269 610.562 26.6118C610.156 26.1886 609.533 25.9771 608.695 25.9771C608.117 25.9771 607.6 26.1073 607.145 26.3677C606.689 26.62 606.314 26.9699 606.021 27.4175V37H603.055V23.792H605.765ZM616.703 30.5791C616.703 28.4795 617.162 26.7827 618.082 25.4888C619.002 24.1948 620.279 23.5479 621.915 23.5479C622.704 23.5479 623.396 23.7188 623.99 24.0605C624.592 24.3942 625.101 24.8784 625.516 25.5132L625.809 23.792H628.275V37C628.275 38.7008 627.75 40.0151 626.7 40.9429C625.65 41.8706 624.161 42.3345 622.232 42.3345C621.589 42.3345 620.894 42.2409 620.145 42.0537C619.404 41.8747 618.733 41.6346 618.131 41.3335L618.766 39.002C619.254 39.2542 619.791 39.4495 620.377 39.5879C620.971 39.7344 621.581 39.8076 622.208 39.8076C623.282 39.8076 624.068 39.5757 624.564 39.1118C625.06 38.6561 625.309 37.9521 625.309 37V35.645C624.894 36.174 624.401 36.5768 623.832 36.8535C623.27 37.1221 622.623 37.2563 621.891 37.2563C620.271 37.2563 619.002 36.6663 618.082 35.4863C617.162 34.3063 616.703 32.756 616.703 30.8354V30.5791ZM619.669 30.8354C619.669 32.048 619.909 33.0205 620.389 33.7529C620.877 34.4772 621.63 34.8394 622.647 34.8394C623.282 34.8394 623.815 34.7091 624.247 34.4487C624.686 34.1802 625.04 33.7977 625.309 33.3013V27.5151C625.032 27.035 624.674 26.6606 624.234 26.3921C623.803 26.1154 623.282 25.9771 622.672 25.9771C621.655 25.9771 620.898 26.4043 620.401 27.2588C619.913 28.1133 619.669 29.2201 619.669 30.5791V30.8354ZM439.054 63.4111C439.054 62.9554 438.858 62.577 438.468 62.2759C438.077 61.9748 437.349 61.7103 436.283 61.4824C434.704 61.1488 433.508 60.6768 432.694 60.0664C431.888 59.4479 431.485 58.6097 431.485 57.5518C431.485 56.445 431.953 55.501 432.889 54.7197C433.825 53.9385 435.058 53.5479 436.588 53.5479C438.199 53.5479 439.477 53.9466 440.421 54.7441C441.373 55.5335 441.829 56.5142 441.788 57.686L441.764 57.7593H438.919C438.919 57.214 438.712 56.7461 438.297 56.3555C437.882 55.9648 437.312 55.7695 436.588 55.7695C435.872 55.7695 435.326 55.9323 434.952 56.2578C434.578 56.5752 434.391 56.9658 434.391 57.4297C434.391 57.8936 434.566 58.2638 434.916 58.5405C435.274 58.8091 435.994 59.0492 437.076 59.2607C438.736 59.6025 439.965 60.0868 440.763 60.7134C441.568 61.3319 441.971 62.1782 441.971 63.2524C441.971 64.4406 441.479 65.4049 440.494 66.1455C439.518 66.8861 438.228 67.2563 436.624 67.2563C434.907 67.2563 433.552 66.8169 432.56 65.938C431.567 65.0591 431.095 64.05 431.144 62.9106L431.168 62.8374H433.927C433.959 63.6024 434.236 64.1598 434.757 64.5098C435.278 64.8597 435.912 65.0347 436.661 65.0347C437.426 65.0347 438.016 64.8882 438.431 64.5952C438.846 64.3022 439.054 63.9076 439.054 63.4111ZM452.872 65.0713C452.457 65.7712 451.932 66.3123 451.297 66.6948C450.663 67.0692 449.93 67.2563 449.1 67.2563C447.684 67.2563 446.577 66.8047 445.78 65.9014C444.982 64.998 444.583 63.5942 444.583 61.6899V53.792H447.538V61.7144C447.538 62.87 447.725 63.6797 448.099 64.1436C448.473 64.6074 449.039 64.8394 449.796 64.8394C450.512 64.8394 451.11 64.7132 451.59 64.4609C452.079 64.2005 452.461 63.8262 452.738 63.3379V53.792H455.704V67H453.116L452.872 65.0713ZM470.377 60.8354C470.377 62.756 469.925 64.3063 469.022 65.4863C468.119 66.6663 466.861 67.2563 465.25 67.2563C464.501 67.2563 463.838 67.1221 463.26 66.8535C462.682 66.585 462.186 66.1903 461.771 65.6694V72.0781H458.805V53.792H461.307L461.6 55.4521C462.023 54.8337 462.532 54.3617 463.126 54.0361C463.728 53.7106 464.424 53.5479 465.213 53.5479C466.841 53.5479 468.106 54.1948 469.01 55.4888C469.921 56.7746 470.377 58.4714 470.377 60.5791V60.8354ZM467.423 60.5791C467.423 59.2282 467.166 58.1255 466.654 57.271C466.149 56.4084 465.392 55.9771 464.383 55.9771C463.765 55.9771 463.24 56.1113 462.809 56.3799C462.377 56.6403 462.031 57.0065 461.771 57.4785V63.4478C462.031 63.9116 462.377 64.2697 462.809 64.522C463.24 64.7661 463.773 64.8882 464.408 64.8882C465.417 64.8882 466.17 64.5179 466.666 63.7773C467.171 63.0286 467.423 62.048 467.423 60.8354V60.5791ZM484.537 60.8354C484.537 62.756 484.085 64.3063 483.182 65.4863C482.279 66.6663 481.021 67.2563 479.41 67.2563C478.661 67.2563 477.998 67.1221 477.42 66.8535C476.843 66.585 476.346 66.1903 475.931 65.6694V72.0781H472.965V53.792H475.467L475.76 55.4521C476.183 54.8337 476.692 54.3617 477.286 54.0361C477.888 53.7106 478.584 53.5479 479.374 53.5479C481.001 53.5479 482.267 54.1948 483.17 55.4888C484.081 56.7746 484.537 58.4714 484.537 60.5791V60.8354ZM481.583 60.5791C481.583 59.2282 481.327 58.1255 480.814 57.271C480.309 56.4084 479.553 55.9771 478.543 55.9771C477.925 55.9771 477.4 56.1113 476.969 56.3799C476.537 56.6403 476.192 57.0065 475.931 57.4785V63.4478C476.192 63.9116 476.537 64.2697 476.969 64.522C477.4 64.7661 477.933 64.8882 478.568 64.8882C479.577 64.8882 480.33 64.5179 480.826 63.7773C481.331 63.0286 481.583 62.048 481.583 60.8354V60.5791ZM486.576 60.2739C486.576 58.3127 487.113 56.7013 488.187 55.4399C489.277 54.1785 490.755 53.5479 492.618 53.5479C494.514 53.5479 495.999 54.1785 497.074 55.4399C498.156 56.6932 498.697 58.3045 498.697 60.2739V60.5303C498.697 62.516 498.156 64.1354 497.074 65.3887C495.999 66.6338 494.522 67.2563 492.643 67.2563C490.755 67.2563 489.269 66.6297 488.187 65.3765C487.113 64.1232 486.576 62.5078 486.576 60.5303V60.2739ZM489.542 60.5303C489.542 61.8161 489.794 62.8659 490.299 63.6797C490.795 64.4854 491.576 64.8882 492.643 64.8882C493.676 64.8882 494.449 64.4854 494.962 63.6797C495.483 62.8659 495.743 61.8161 495.743 60.5303V60.2739C495.743 59.0125 495.483 57.9749 494.962 57.1611C494.449 56.3392 493.668 55.9282 492.618 55.9282C491.585 55.9282 490.811 56.3392 490.299 57.1611C489.794 57.9831 489.542 59.0207 489.542 60.2739V60.5303ZM507.865 56.4653L506.595 56.4165C506.017 56.4165 505.533 56.5386 505.143 56.7827C504.76 57.0269 504.463 57.3727 504.251 57.8203V67H501.285V53.792H503.995L504.19 55.7085C504.524 55.033 504.951 54.5041 505.472 54.1216C506.001 53.7391 506.607 53.5479 507.291 53.5479C507.47 53.5479 507.637 53.5641 507.791 53.5967C507.946 53.6211 508.089 53.6536 508.219 53.6943L507.865 56.4653ZM513.907 50.5815V53.792H516.275V55.9893H513.907V63.2891C513.907 63.8343 514.025 64.2249 514.261 64.4609C514.497 64.6888 514.811 64.8027 515.201 64.8027C515.364 64.8027 515.523 64.7905 515.677 64.7661C515.832 64.7336 515.978 64.6929 516.117 64.644L516.434 66.8169C516.182 66.9552 515.881 67.061 515.531 67.1343C515.181 67.2157 514.819 67.2563 514.444 67.2563C513.354 67.2563 512.499 66.939 511.881 66.3042C511.262 65.6613 510.953 64.6562 510.953 63.2891V55.9893H508.939V53.792H510.953V50.5815H513.907ZM536.27 59.4194H528.482V67H525.516V49.2266H537.516V51.6069H528.482V57.0391H536.27V59.4194ZM553.873 59.7124C553.873 61.8853 553.189 63.6878 551.822 65.1201C550.463 66.5443 548.697 67.2563 546.524 67.2563C544.392 67.2563 542.659 66.5443 541.324 65.1201C539.998 63.6878 539.334 61.8853 539.334 59.7124V56.5142C539.334 54.3494 539.998 52.5509 541.324 51.1187C542.659 49.6864 544.388 48.9702 546.512 48.9702C548.685 48.9702 550.455 49.6864 551.822 51.1187C553.189 52.5509 553.873 54.3494 553.873 56.5142V59.7124ZM550.919 56.4897C550.919 55.0086 550.52 53.792 549.723 52.8398C548.933 51.8877 547.863 51.4116 546.512 51.4116C545.21 51.4116 544.181 51.8877 543.424 52.8398C542.667 53.792 542.289 55.0086 542.289 56.4897V59.7124C542.289 61.2098 542.667 62.4386 543.424 63.3989C544.181 64.3511 545.214 64.8271 546.524 64.8271C547.883 64.8271 548.954 64.3511 549.735 63.3989C550.524 62.4468 550.919 61.2179 550.919 59.7124V56.4897ZM564.115 68.5259H561.393L568.387 49.2266H571.109L564.115 68.5259ZM579.789 67V49.2266H585.697C587.666 49.2266 589.204 49.6335 590.311 50.4473C591.418 51.2529 591.971 52.4614 591.971 54.0728C591.971 54.8784 591.739 55.5986 591.275 56.2334C590.811 56.8682 590.169 57.3402 589.347 57.6494C590.405 57.8854 591.218 58.394 591.788 59.1753C592.358 59.9565 592.643 60.8639 592.643 61.8975C592.643 63.5658 592.097 64.8353 591.007 65.7061C589.916 66.5687 588.411 67 586.49 67H579.789ZM582.755 58.9189V64.6318H586.49C587.516 64.6318 588.305 64.3999 588.858 63.936C589.412 63.464 589.688 62.7845 589.688 61.8975C589.688 60.9535 589.457 60.221 588.993 59.7002C588.529 59.1794 587.805 58.9189 586.82 58.9189H582.755ZM582.755 56.7095H586.026C586.946 56.7095 587.67 56.4938 588.199 56.0625C588.736 55.623 589.005 55.0046 589.005 54.207C589.005 53.3281 588.724 52.6771 588.163 52.2539C587.601 51.8226 586.779 51.6069 585.697 51.6069H582.755V56.7095ZM609.659 59.7124C609.659 61.8853 608.976 63.6878 607.608 65.1201C606.249 66.5443 604.483 67.2563 602.311 67.2563C600.178 67.2563 598.445 66.5443 597.11 65.1201C595.784 63.6878 595.121 61.8853 595.121 59.7124V56.5142C595.121 54.3494 595.784 52.5509 597.11 51.1187C598.445 49.6864 600.174 48.9702 602.298 48.9702C604.471 48.9702 606.241 49.6864 607.608 51.1187C608.976 52.5509 609.659 54.3494 609.659 56.5142V59.7124ZM606.705 56.4897C606.705 55.0086 606.306 53.792 605.509 52.8398C604.719 51.8877 603.649 51.4116 602.298 51.4116C600.996 51.4116 599.967 51.8877 599.21 52.8398C598.453 53.792 598.075 55.0086 598.075 56.4897V59.7124C598.075 61.2098 598.453 62.4386 599.21 63.3989C599.967 64.3511 601 64.8271 602.311 64.8271C603.67 64.8271 604.74 64.3511 605.521 63.3989C606.31 62.4468 606.705 61.2179 606.705 59.7124V56.4897Z" fill="white"/>
<path d="M259.339 206H256.373V188.227H259.339V206ZM275.55 190.607H270.179V206H267.212V190.607H261.841V188.227H275.55V190.607ZM297.962 198.712C297.962 199.811 297.775 200.832 297.4 201.776C297.026 202.72 296.497 203.534 295.813 204.218L298.768 207.086L296.79 208.856L293.519 205.731C293.079 205.91 292.615 206.041 292.127 206.122C291.639 206.212 291.134 206.256 290.613 206.256C288.481 206.256 286.748 205.544 285.413 204.12C284.087 202.688 283.423 200.885 283.423 198.712V195.514C283.423 193.349 284.087 191.551 285.413 190.119C286.748 188.686 288.477 187.97 290.601 187.97C292.774 187.97 294.544 188.686 295.911 190.119C297.278 191.551 297.962 193.349 297.962 195.514V198.712ZM295.008 195.49C295.008 194.009 294.609 192.792 293.812 191.84C293.022 190.888 291.952 190.412 290.601 190.412C289.299 190.412 288.27 190.888 287.513 191.84C286.756 192.792 286.377 194.009 286.377 195.49V198.712C286.377 200.21 286.756 201.439 287.513 202.399C288.27 203.351 289.303 203.827 290.613 203.827C291.972 203.827 293.042 203.351 293.824 202.399C294.613 201.447 295.008 200.218 295.008 198.712V195.49ZM309.217 204.071C308.802 204.771 308.277 205.312 307.642 205.695C307.007 206.069 306.275 206.256 305.445 206.256C304.029 206.256 302.922 205.805 302.125 204.901C301.327 203.998 300.928 202.594 300.928 200.69V192.792H303.882V200.714C303.882 201.87 304.069 202.68 304.444 203.144C304.818 203.607 305.384 203.839 306.141 203.839C306.857 203.839 307.455 203.713 307.935 203.461C308.423 203.201 308.806 202.826 309.083 202.338V192.792H312.049V206H309.461L309.217 204.071ZM323.096 206C322.99 205.666 322.901 205.341 322.828 205.023C322.763 204.706 322.718 204.389 322.693 204.071C322.286 204.69 321.749 205.211 321.082 205.634C320.423 206.049 319.682 206.256 318.86 206.256C317.485 206.256 316.427 205.902 315.687 205.194C314.954 204.486 314.588 203.514 314.588 202.277C314.588 200.999 315.092 200.006 316.102 199.298C317.111 198.582 318.531 198.224 320.362 198.224H322.669V197.064C322.669 196.373 322.465 195.832 322.059 195.441C321.652 195.05 321.07 194.855 320.313 194.855C319.638 194.855 319.1 195.018 318.702 195.343C318.303 195.669 318.104 196.088 318.104 196.601H315.247L315.235 196.527C315.178 195.486 315.642 194.562 316.626 193.756C317.619 192.951 318.909 192.548 320.496 192.548C322.034 192.548 323.275 192.938 324.219 193.72C325.163 194.501 325.635 195.624 325.635 197.089V202.96C325.635 203.506 325.672 204.031 325.745 204.535C325.818 205.032 325.936 205.52 326.099 206H323.096ZM319.458 203.876C320.207 203.876 320.879 203.689 321.473 203.314C322.075 202.94 322.474 202.513 322.669 202.033V200.08H320.313C319.45 200.08 318.775 200.295 318.287 200.727C317.798 201.15 317.554 201.65 317.554 202.228C317.554 202.733 317.717 203.135 318.042 203.437C318.376 203.729 318.848 203.876 319.458 203.876ZM331.434 192.792L331.604 194.696C332.036 194.021 332.577 193.496 333.228 193.122C333.887 192.739 334.628 192.548 335.45 192.548C336.825 192.548 337.895 192.967 338.66 193.805C339.433 194.635 339.82 195.933 339.82 197.699V206H336.854V197.724C336.854 196.731 336.646 196.027 336.231 195.612C335.824 195.189 335.201 194.977 334.363 194.977C333.785 194.977 333.269 195.107 332.813 195.368C332.357 195.62 331.983 195.97 331.69 196.417V206H328.724V192.792H331.434ZM346.595 189.582V192.792H348.963V194.989H346.595V202.289C346.595 202.834 346.713 203.225 346.949 203.461C347.185 203.689 347.498 203.803 347.889 203.803C348.051 203.803 348.21 203.791 348.365 203.766C348.519 203.734 348.666 203.693 348.804 203.644L349.122 205.817C348.869 205.955 348.568 206.061 348.218 206.134C347.868 206.216 347.506 206.256 347.132 206.256C346.041 206.256 345.187 205.939 344.568 205.304C343.95 204.661 343.641 203.656 343.641 202.289V194.989H341.626V192.792H343.641V189.582H346.595ZM354.761 206H351.795V192.792H354.761V206ZM354.761 189.557H351.795V186.957H354.761V189.557ZM361.78 189.582V192.792H364.148V194.989H361.78V202.289C361.78 202.834 361.898 203.225 362.134 203.461C362.37 203.689 362.684 203.803 363.074 203.803C363.237 203.803 363.396 203.791 363.55 203.766C363.705 203.734 363.851 203.693 363.99 203.644L364.307 205.817C364.055 205.955 363.754 206.061 363.404 206.134C363.054 206.216 362.692 206.256 362.317 206.256C361.227 206.256 360.372 205.939 359.754 205.304C359.135 204.661 358.826 203.656 358.826 202.289V194.989H356.812V192.792H358.826V189.582H361.78ZM374.732 206C374.626 205.666 374.537 205.341 374.463 205.023C374.398 204.706 374.354 204.389 374.329 204.071C373.922 204.69 373.385 205.211 372.718 205.634C372.059 206.049 371.318 206.256 370.496 206.256C369.121 206.256 368.063 205.902 367.322 205.194C366.59 204.486 366.224 203.514 366.224 202.277C366.224 200.999 366.728 200.006 367.737 199.298C368.746 198.582 370.167 198.224 371.998 198.224H374.305V197.064C374.305 196.373 374.101 195.832 373.694 195.441C373.287 195.05 372.706 194.855 371.949 194.855C371.273 194.855 370.736 195.018 370.337 195.343C369.939 195.669 369.739 196.088 369.739 196.601H366.883L366.871 196.527C366.814 195.486 367.278 194.562 368.262 193.756C369.255 192.951 370.545 192.548 372.132 192.548C373.67 192.548 374.911 192.938 375.855 193.72C376.799 194.501 377.271 195.624 377.271 197.089V202.96C377.271 203.506 377.308 204.031 377.381 204.535C377.454 205.032 377.572 205.52 377.735 206H374.732ZM371.094 203.876C371.843 203.876 372.514 203.689 373.108 203.314C373.711 202.94 374.109 202.513 374.305 202.033V200.08H371.949C371.086 200.08 370.411 200.295 369.922 200.727C369.434 201.15 369.19 201.65 369.19 202.228C369.19 202.733 369.353 203.135 369.678 203.437C370.012 203.729 370.484 203.876 371.094 203.876ZM384.07 189.582V192.792H386.438V194.989H384.07V202.289C384.07 202.834 384.188 203.225 384.424 203.461C384.66 203.689 384.974 203.803 385.364 203.803C385.527 203.803 385.686 203.791 385.84 203.766C385.995 203.734 386.141 203.693 386.28 203.644L386.597 205.817C386.345 205.955 386.044 206.061 385.694 206.134C385.344 206.216 384.982 206.256 384.607 206.256C383.517 206.256 382.662 205.939 382.044 205.304C381.425 204.661 381.116 203.656 381.116 202.289V194.989H379.102V192.792H381.116V189.582H384.07ZM392.237 206H389.271V192.792H392.237V206ZM392.237 189.557H389.271V186.957H392.237V189.557ZM400.159 201.532L400.379 202.606H400.452L400.684 201.532L403.309 192.792H406.373L401.685 206H399.109L394.397 192.792H397.461L400.159 201.532ZM413.733 206.256C411.862 206.256 410.368 205.646 409.253 204.425C408.147 203.196 407.593 201.622 407.593 199.701V199.213C407.593 197.292 408.143 195.701 409.241 194.44C410.348 193.17 411.731 192.54 413.392 192.548C415.174 192.548 416.537 193.089 417.481 194.171C418.433 195.246 418.909 196.69 418.909 198.505V200.25H410.669L410.645 200.312C410.694 201.361 410.999 202.22 411.561 202.887C412.13 203.555 412.916 203.888 413.917 203.888C414.714 203.888 415.398 203.791 415.967 203.595C416.537 203.4 417.086 203.119 417.615 202.753L418.567 204.694C418.071 205.133 417.412 205.504 416.59 205.805C415.768 206.106 414.816 206.256 413.733 206.256ZM413.392 194.928C412.659 194.928 412.057 195.221 411.585 195.807C411.113 196.385 410.82 197.121 410.706 198.017L410.73 198.078H415.967V197.772C415.967 196.934 415.752 196.251 415.32 195.722C414.897 195.193 414.254 194.928 413.392 194.928Z" fill="white"/>
<path d="M74.7852 397.227L79.9 410.898H79.9732L85.1002 397.227H88.9454V415H85.9791V408.945L86.272 401.243L86.1988 401.23L80.9254 415H78.9356L73.6866 401.267L73.6134 401.279L73.9063 408.945V415H70.94V397.227H74.7852ZM100.408 415C100.302 414.666 100.212 414.341 100.139 414.023C100.074 413.706 100.029 413.389 100.005 413.071C99.5981 413.69 99.0609 414.211 98.3936 414.634C97.7345 415.049 96.9939 415.256 96.172 415.256C94.7966 415.256 93.7387 414.902 92.9981 414.194C92.2657 413.486 91.8995 412.514 91.8995 411.277C91.8995 409.999 92.404 409.006 93.4132 408.298C94.4223 407.582 95.8424 407.224 97.6734 407.224H99.9805V406.064C99.9805 405.373 99.7771 404.832 99.3702 404.441C98.9633 404.05 98.3814 403.855 97.6246 403.855C96.9491 403.855 96.412 404.018 96.0133 404.343C95.6145 404.669 95.4151 405.088 95.4151 405.601H92.5587L92.5465 405.527C92.4895 404.486 92.9534 403.562 93.9381 402.756C94.9309 401.951 96.2208 401.548 97.8077 401.548C99.3458 401.548 100.587 401.938 101.531 402.72C102.475 403.501 102.947 404.624 102.947 406.089V411.96C102.947 412.506 102.983 413.031 103.057 413.535C103.13 414.032 103.248 414.52 103.411 415H100.408ZM96.7701 412.876C97.5188 412.876 98.1902 412.689 98.7843 412.314C99.3865 411.94 99.7852 411.513 99.9805 411.033V409.08H97.6246C96.762 409.08 96.0865 409.295 95.5982 409.727C95.1099 410.15 94.8658 410.65 94.8658 411.228C94.8658 411.733 95.0286 412.135 95.3541 412.437C95.6877 412.729 96.1597 412.876 96.7701 412.876ZM112.639 404.465L111.37 404.417C110.792 404.417 110.308 404.539 109.917 404.783C109.534 405.027 109.237 405.373 109.026 405.82V415H106.06V401.792H108.77L108.965 403.708C109.298 403.033 109.726 402.504 110.247 402.122C110.776 401.739 111.382 401.548 112.065 401.548C112.244 401.548 112.411 401.564 112.566 401.597C112.721 401.621 112.863 401.654 112.993 401.694L112.639 404.465ZM119.023 409.226H117.693V415H114.739V395.957H117.693V406.846H118.926L122.258 401.792H125.749L121.392 407.798L126.396 415H122.954L119.023 409.226ZM133.208 415.256C131.336 415.256 129.843 414.646 128.728 413.425C127.621 412.196 127.068 410.622 127.068 408.701V408.213C127.068 406.292 127.617 404.701 128.716 403.44C129.823 402.17 131.206 401.54 132.866 401.548C134.648 401.548 136.012 402.089 136.956 403.171C137.908 404.246 138.384 405.69 138.384 407.505V409.25H130.144L130.12 409.312C130.168 410.361 130.474 411.22 131.035 411.887C131.605 412.555 132.39 412.888 133.391 412.888C134.189 412.888 134.872 412.791 135.442 412.595C136.012 412.4 136.561 412.119 137.09 411.753L138.042 413.694C137.546 414.133 136.886 414.504 136.064 414.805C135.242 415.106 134.29 415.256 133.208 415.256ZM132.866 403.928C132.134 403.928 131.532 404.221 131.06 404.807C130.588 405.385 130.295 406.121 130.181 407.017L130.205 407.078H135.442V406.772C135.442 405.934 135.226 405.251 134.795 404.722C134.372 404.193 133.729 403.928 132.866 403.928ZM144.463 398.582V401.792H146.831V403.989H144.463V411.289C144.463 411.834 144.581 412.225 144.817 412.461C145.053 412.689 145.366 412.803 145.757 412.803C145.92 412.803 146.078 412.791 146.233 412.766C146.388 412.734 146.534 412.693 146.672 412.644L146.99 414.817C146.737 414.955 146.436 415.061 146.086 415.134C145.736 415.216 145.374 415.256 145 415.256C143.909 415.256 143.055 414.939 142.437 414.304C141.818 413.661 141.509 412.656 141.509 411.289V403.989H139.495V401.792H141.509V398.582H144.463ZM83.9039 442.104L83.9283 442.177C83.9609 443.976 83.3749 445.441 82.1705 446.572C80.9742 447.695 79.3507 448.256 77.2999 448.256C75.2247 448.256 73.536 447.561 72.234 446.169C70.94 444.769 70.293 442.983 70.293 440.81V437.429C70.293 435.264 70.9319 433.482 72.2095 432.082C73.4954 430.674 75.1637 429.97 77.2144 429.97C79.314 429.97 80.9661 430.524 82.1705 431.63C83.3831 432.729 83.9731 434.21 83.9405 436.074L83.9161 436.147H81.0474C81.0474 434.951 80.7219 434.019 80.0709 433.352C79.428 432.684 78.4758 432.351 77.2144 432.351C76.0019 432.351 75.0375 432.831 74.3214 433.791C73.6134 434.751 73.2594 435.956 73.2594 437.404V440.81C73.2594 442.275 73.6215 443.487 74.3458 444.448C75.0782 445.408 76.0629 445.888 77.2999 445.888C78.5287 445.888 79.4605 445.559 80.0953 444.899C80.7301 444.24 81.0474 443.308 81.0474 442.104H83.9039ZM93.0347 437.465L91.7652 437.417C91.1874 437.417 90.7032 437.539 90.3126 437.783C89.9301 438.027 89.6331 438.373 89.4215 438.82V448H86.4552V434.792H89.1651L89.3604 436.708C89.6941 436.033 90.1213 435.504 90.6422 435.122C91.1711 434.739 91.7774 434.548 92.461 434.548C92.6401 434.548 92.8069 434.564 92.9615 434.597C93.1161 434.621 93.2585 434.654 93.3887 434.694L93.0347 437.465ZM100.786 448.256C98.9145 448.256 97.4211 447.646 96.3062 446.425C95.1995 445.196 94.6461 443.622 94.6461 441.701V441.213C94.6461 439.292 95.1954 437.701 96.294 436.44C97.4008 435.17 98.7843 434.54 100.444 434.548C102.227 434.548 103.59 435.089 104.534 436.171C105.486 437.246 105.962 438.69 105.962 440.505V442.25H97.7222L97.6978 442.312C97.7467 443.361 98.0518 444.22 98.6134 444.887C99.183 445.555 99.9683 445.888 100.969 445.888C101.767 445.888 102.45 445.791 103.02 445.595C103.59 445.4 104.139 445.119 104.668 444.753L105.62 446.694C105.124 447.133 104.464 447.504 103.643 447.805C102.821 448.106 101.868 448.256 100.786 448.256ZM100.444 436.928C99.712 436.928 99.1098 437.221 98.6378 437.807C98.1658 438.385 97.8728 439.121 97.7589 440.017L97.7833 440.078H103.02V439.772C103.02 438.934 102.804 438.251 102.373 437.722C101.95 437.193 101.307 436.928 100.444 436.928ZM107.805 441.579C107.805 439.471 108.257 437.775 109.16 436.489C110.063 435.195 111.333 434.548 112.969 434.548C113.685 434.548 114.324 434.694 114.885 434.987C115.455 435.272 115.947 435.683 116.362 436.22V428.957H119.329V448H116.838L116.545 446.364C116.122 446.983 115.614 447.455 115.02 447.78C114.425 448.098 113.734 448.256 112.944 448.256C111.325 448.256 110.063 447.666 109.16 446.486C108.257 445.306 107.805 443.756 107.805 441.835V441.579ZM110.771 441.835C110.771 443.056 111.003 444.029 111.467 444.753C111.939 445.477 112.684 445.839 113.701 445.839C114.328 445.839 114.857 445.705 115.288 445.437C115.728 445.168 116.086 444.785 116.362 444.289V438.527C116.086 438.039 115.728 437.661 115.288 437.392C114.849 437.115 114.328 436.977 113.726 436.977C112.716 436.977 111.972 437.404 111.492 438.259C111.012 439.105 110.771 440.212 110.771 441.579V441.835ZM125.676 448H122.71V434.792H125.676V448ZM125.676 431.557H122.71V428.957H125.676V431.557ZM132.695 431.582V434.792H135.063V436.989H132.695V444.289C132.695 444.834 132.813 445.225 133.049 445.461C133.285 445.689 133.599 445.803 133.989 445.803C134.152 445.803 134.311 445.791 134.465 445.766C134.62 445.734 134.766 445.693 134.905 445.644L135.222 447.817C134.97 447.955 134.669 448.061 134.319 448.134C133.969 448.216 133.607 448.256 133.232 448.256C132.142 448.256 131.287 447.939 130.669 447.304C130.05 446.661 129.741 445.656 129.741 444.289V436.989H127.727V434.792H129.741V431.582H132.695ZM73.7232 481H70.7569V461.957H73.7232V481ZM80.2174 481H77.2511V467.792H80.2174V481ZM80.2174 464.557H77.2511V461.957H80.2174V464.557ZM83.0006 474.579C83.0006 472.471 83.4522 470.775 84.3555 469.489C85.2589 468.195 86.5284 467.548 88.1641 467.548C88.9291 467.548 89.6046 467.707 90.1905 468.024C90.7764 468.341 91.2769 468.797 91.692 469.391L92.0338 467.792H94.4386V486.078H91.4722V479.755C91.0653 480.251 90.5852 480.626 90.0318 480.878C89.4784 481.13 88.8477 481.256 88.1397 481.256C86.5203 481.256 85.2589 480.666 84.3555 479.486C83.4522 478.306 83.0006 476.756 83.0006 474.835V474.579ZM85.9669 474.835C85.9669 476.056 86.1988 477.037 86.6627 477.777C87.1347 478.518 87.8793 478.888 88.8966 478.888C89.4988 478.888 90.0074 478.77 90.4224 478.534C90.8456 478.29 91.1956 477.94 91.4722 477.484V471.332C91.1956 470.893 90.8456 470.551 90.4224 470.307C89.9993 470.054 89.4988 469.928 88.921 469.928C87.9119 469.928 87.1672 470.364 86.6871 471.234C86.2069 472.097 85.9669 473.212 85.9669 474.579V474.835ZM105.937 479.071C105.522 479.771 104.998 480.312 104.363 480.695C103.728 481.069 102.996 481.256 102.166 481.256C100.749 481.256 99.6428 480.805 98.8453 479.901C98.0478 478.998 97.649 477.594 97.649 475.69V467.792H100.603V475.714C100.603 476.87 100.79 477.68 101.165 478.144C101.539 478.607 102.104 478.839 102.861 478.839C103.577 478.839 104.176 478.713 104.656 478.461C105.144 478.201 105.527 477.826 105.803 477.338V467.792H108.77V481H106.182L105.937 479.071ZM115.032 481H112.065V467.792H115.032V481ZM115.032 464.557H112.065V461.957H115.032V464.557ZM117.815 474.579C117.815 472.471 118.267 470.775 119.17 469.489C120.073 468.195 121.343 467.548 122.978 467.548C123.695 467.548 124.333 467.694 124.895 467.987C125.465 468.272 125.957 468.683 126.372 469.22V461.957H129.338V481H126.848L126.555 479.364C126.132 479.983 125.623 480.455 125.029 480.78C124.435 481.098 123.743 481.256 122.954 481.256C121.335 481.256 120.073 480.666 119.17 479.486C118.267 478.306 117.815 476.756 117.815 474.835V474.579ZM120.781 474.835C120.781 476.056 121.013 477.029 121.477 477.753C121.949 478.477 122.694 478.839 123.711 478.839C124.338 478.839 124.867 478.705 125.298 478.437C125.737 478.168 126.095 477.785 126.372 477.289V471.527C126.095 471.039 125.737 470.661 125.298 470.392C124.858 470.115 124.338 469.977 123.735 469.977C122.726 469.977 121.982 470.404 121.501 471.259C121.021 472.105 120.781 473.212 120.781 474.579V474.835ZM135.686 481H132.72V467.792H135.686V481ZM135.686 464.557H132.72V461.957H135.686V464.557ZM142.705 464.582V467.792H145.073V469.989H142.705V477.289C142.705 477.834 142.823 478.225 143.059 478.461C143.295 478.689 143.608 478.803 143.999 478.803C144.162 478.803 144.32 478.791 144.475 478.766C144.63 478.734 144.776 478.693 144.915 478.644L145.232 480.817C144.98 480.955 144.679 481.061 144.329 481.134C143.979 481.216 143.617 481.256 143.242 481.256C142.152 481.256 141.297 480.939 140.679 480.304C140.06 479.661 139.751 478.656 139.751 477.289V469.989H137.737V467.792H139.751V464.582H142.705ZM152.092 475.702L152.385 477.021H152.458L155.352 467.792H158.599L153.13 483.002C152.78 483.922 152.288 484.707 151.653 485.358C151.018 486.009 150.119 486.334 148.955 486.334C148.711 486.334 148.446 486.31 148.162 486.261C147.885 486.212 147.616 486.155 147.356 486.09L147.686 483.795C147.791 483.804 147.942 483.816 148.137 483.832C148.332 483.848 148.479 483.856 148.577 483.856C149.114 483.856 149.541 483.673 149.858 483.307C150.184 482.941 150.448 482.518 150.652 482.038L151.14 480.841L146.343 467.792H149.578L152.092 475.702ZM77.1412 503.465L75.8717 503.417C75.2939 503.417 74.8096 503.539 74.419 503.783C74.0365 504.027 73.7395 504.373 73.5279 504.82V514H70.5616V500.792H73.2716L73.4669 502.708C73.8005 502.033 74.2278 501.504 74.7486 501.122C75.2776 500.739 75.8839 500.548 76.5675 500.548C76.7465 500.548 76.9133 500.564 77.0679 500.597C77.2226 500.621 77.365 500.654 77.4952 500.694L77.1412 503.465ZM82.3902 514H79.4239V500.792H82.3902V514ZM82.3902 497.557H79.4239V494.957H82.3902V497.557ZM93.1446 510.411C93.1446 509.955 92.9493 509.577 92.5587 509.276C92.168 508.975 91.4397 508.71 90.3736 508.482C88.7948 508.149 87.5985 507.677 86.7847 507.066C85.9791 506.448 85.5762 505.61 85.5762 504.552C85.5762 503.445 86.0442 502.501 86.9801 501.72C87.9159 500.938 89.1488 500.548 90.6788 500.548C92.2901 500.548 93.5678 500.947 94.5118 501.744C95.4639 502.534 95.9197 503.514 95.879 504.686L95.8546 504.759H93.0103C93.0103 504.214 92.8028 503.746 92.3878 503.355C91.9727 502.965 91.4031 502.77 90.6788 502.77C89.9626 502.77 89.4174 502.932 89.043 503.258C88.6687 503.575 88.4815 503.966 88.4815 504.43C88.4815 504.894 88.6565 505.264 89.0064 505.541C89.3645 505.809 90.0847 506.049 91.1671 506.261C92.8272 506.603 94.0561 507.087 94.8536 507.713C95.6593 508.332 96.0621 509.178 96.0621 510.252C96.0621 511.441 95.5697 512.405 94.585 513.146C93.6085 513.886 92.3186 514.256 90.7154 514.256C88.9983 514.256 87.6433 513.817 86.6505 512.938C85.6576 512.059 85.1856 511.05 85.2345 509.911L85.2589 509.837H88.0177C88.0502 510.602 88.3269 511.16 88.8477 511.51C89.3686 511.86 90.0033 512.035 90.752 512.035C91.517 512.035 92.107 511.888 92.522 511.595C92.9371 511.302 93.1446 510.908 93.1446 510.411ZM103.032 508.226H101.702V514H98.7476V494.957H101.702V505.846H102.935L106.267 500.792H109.758L105.4 506.798L110.405 514H106.963L103.032 508.226ZM119.243 510.411C119.243 509.955 119.048 509.577 118.657 509.276C118.267 508.975 117.538 508.71 116.472 508.482C114.893 508.149 113.697 507.677 112.883 507.066C112.078 506.448 111.675 505.61 111.675 504.552C111.675 503.445 112.143 502.501 113.079 501.72C114.014 500.938 115.247 500.548 116.777 500.548C118.389 500.548 119.666 500.947 120.61 501.744C121.562 502.534 122.018 503.514 121.978 504.686L121.953 504.759H119.109C119.109 504.214 118.901 503.746 118.486 503.355C118.071 502.965 117.502 502.77 116.777 502.77C116.061 502.77 115.516 502.932 115.142 503.258C114.767 503.575 114.58 503.966 114.58 504.43C114.58 504.894 114.755 505.264 115.105 505.541C115.463 505.809 116.183 506.049 117.266 506.261C118.926 506.603 120.155 507.087 120.952 507.713C121.758 508.332 122.161 509.178 122.161 510.252C122.161 511.441 121.668 512.405 120.684 513.146C119.707 513.886 118.417 514.256 116.814 514.256C115.097 514.256 113.742 513.817 112.749 512.938C111.756 512.059 111.284 511.05 111.333 509.911L111.357 509.837H114.116C114.149 510.602 114.425 511.16 114.946 511.51C115.467 511.86 116.102 512.035 116.851 512.035C117.616 512.035 118.206 511.888 118.621 511.595C119.036 511.302 119.243 510.908 119.243 510.411Z" fill="white"/>
<path d="M500.079 415H497.113V397.227H500.079V415ZM506.451 401.792L506.622 403.696C507.053 403.021 507.595 402.496 508.246 402.122C508.905 401.739 509.645 401.548 510.467 401.548C511.843 401.548 512.913 401.967 513.678 402.805C514.451 403.635 514.837 404.933 514.837 406.699V415H511.871V406.724C511.871 405.731 511.664 405.027 511.249 404.612C510.842 404.189 510.219 403.977 509.381 403.977C508.803 403.977 508.286 404.107 507.831 404.368C507.375 404.62 507.001 404.97 506.708 405.417V415H503.741V401.792H506.451ZM521.612 398.582V401.792H523.98V403.989H521.612V411.289C521.612 411.834 521.73 412.225 521.966 412.461C522.202 412.689 522.516 412.803 522.906 412.803C523.069 412.803 523.228 412.791 523.382 412.766C523.537 412.734 523.683 412.693 523.822 412.644L524.139 414.817C523.887 414.955 523.586 415.061 523.236 415.134C522.886 415.216 522.524 415.256 522.149 415.256C521.059 415.256 520.204 414.939 519.586 414.304C518.967 413.661 518.658 412.656 518.658 411.289V403.989H516.644V401.792H518.658V398.582H521.612ZM532.281 415.256C530.41 415.256 528.916 414.646 527.801 413.425C526.695 412.196 526.141 410.622 526.141 408.701V408.213C526.141 406.292 526.69 404.701 527.789 403.44C528.896 402.17 530.279 401.54 531.939 401.548C533.722 401.548 535.085 402.089 536.029 403.171C536.981 404.246 537.457 405.69 537.457 407.505V409.25H529.217L529.193 409.312C529.242 410.361 529.547 411.22 530.108 411.887C530.678 412.555 531.463 412.888 532.464 412.888C533.262 412.888 533.945 412.791 534.515 412.595C535.085 412.4 535.634 412.119 536.163 411.753L537.115 413.694C536.619 414.133 535.96 414.504 535.138 414.805C534.316 415.106 533.364 415.256 532.281 415.256ZM531.939 403.928C531.207 403.928 530.605 404.221 530.133 404.807C529.661 405.385 529.368 406.121 529.254 407.017L529.278 407.078H534.515V406.772C534.515 405.934 534.3 405.251 533.868 404.722C533.445 404.193 532.802 403.928 531.939 403.928ZM539.313 408.579C539.313 406.479 539.772 404.783 540.692 403.489C541.612 402.195 542.889 401.548 544.525 401.548C545.314 401.548 546.006 401.719 546.6 402.061C547.202 402.394 547.711 402.878 548.126 403.513L548.419 401.792H550.885V415C550.885 416.701 550.36 418.015 549.31 418.943C548.26 419.871 546.771 420.334 544.842 420.334C544.199 420.334 543.504 420.241 542.755 420.054C542.014 419.875 541.343 419.635 540.741 419.333L541.376 417.002C541.864 417.254 542.401 417.45 542.987 417.588C543.581 417.734 544.191 417.808 544.818 417.808C545.892 417.808 546.677 417.576 547.174 417.112C547.67 416.656 547.918 415.952 547.918 415V413.645C547.503 414.174 547.011 414.577 546.441 414.854C545.88 415.122 545.233 415.256 544.501 415.256C542.881 415.256 541.612 414.666 540.692 413.486C539.772 412.306 539.313 410.756 539.313 408.835V408.579ZM542.279 408.835C542.279 410.048 542.519 411.021 542.999 411.753C543.487 412.477 544.24 412.839 545.257 412.839C545.892 412.839 546.425 412.709 546.856 412.449C547.296 412.18 547.65 411.798 547.918 411.301V405.515C547.642 405.035 547.284 404.661 546.844 404.392C546.413 404.115 545.892 403.977 545.282 403.977C544.265 403.977 543.508 404.404 543.011 405.259C542.523 406.113 542.279 407.22 542.279 408.579V408.835ZM560.589 404.465L559.32 404.417C558.742 404.417 558.258 404.539 557.867 404.783C557.485 405.027 557.188 405.373 556.976 405.82V415H554.01V401.792H556.72L556.915 403.708C557.249 403.033 557.676 402.504 558.197 402.122C558.726 401.739 559.332 401.548 560.016 401.548C560.195 401.548 560.362 401.564 560.516 401.597C560.671 401.621 560.813 401.654 560.943 401.694L560.589 404.465ZM570.624 415C570.518 414.666 570.428 414.341 570.355 414.023C570.29 413.706 570.245 413.389 570.221 413.071C569.814 413.69 569.277 414.211 568.609 414.634C567.95 415.049 567.21 415.256 566.388 415.256C565.012 415.256 563.954 414.902 563.214 414.194C562.481 413.486 562.115 412.514 562.115 411.277C562.115 409.999 562.62 409.006 563.629 408.298C564.638 407.582 566.058 407.224 567.889 407.224H570.196V406.064C570.196 405.373 569.993 404.832 569.586 404.441C569.179 404.05 568.597 403.855 567.84 403.855C567.165 403.855 566.628 404.018 566.229 404.343C565.83 404.669 565.631 405.088 565.631 405.601H562.774L562.762 405.527C562.705 404.486 563.169 403.562 564.154 402.756C565.147 401.951 566.437 401.548 568.023 401.548C569.562 401.548 570.803 401.938 571.747 402.72C572.691 403.501 573.163 404.624 573.163 406.089V411.96C573.163 412.506 573.199 413.031 573.272 413.535C573.346 414.032 573.464 414.52 573.626 415H570.624ZM566.986 412.876C567.735 412.876 568.406 412.689 569 412.314C569.602 411.94 570.001 411.513 570.196 411.033V409.08H567.84C566.978 409.08 566.302 409.295 565.814 409.727C565.326 410.15 565.082 410.65 565.082 411.228C565.082 411.733 565.244 412.135 565.57 412.437C565.904 412.729 566.376 412.876 566.986 412.876ZM579.962 398.582V401.792H582.33V403.989H579.962V411.289C579.962 411.834 580.08 412.225 580.316 412.461C580.552 412.689 580.865 412.803 581.256 412.803C581.419 412.803 581.577 412.791 581.732 412.766C581.887 412.734 582.033 412.693 582.171 412.644L582.489 414.817C582.237 414.955 581.935 415.061 581.585 415.134C581.236 415.216 580.873 415.256 580.499 415.256C579.409 415.256 578.554 414.939 577.936 414.304C577.317 413.661 577.008 412.656 577.008 411.289V403.989H574.994V401.792H577.008V398.582H579.962ZM588.128 415H585.162V401.792H588.128V415ZM588.128 398.557H585.162V395.957H588.128V398.557ZM590.912 408.274C590.912 406.313 591.449 404.701 592.523 403.44C593.613 402.179 595.091 401.548 596.954 401.548C598.85 401.548 600.335 402.179 601.41 403.44C602.492 404.693 603.033 406.305 603.033 408.274V408.53C603.033 410.516 602.492 412.135 601.41 413.389C600.335 414.634 598.858 415.256 596.979 415.256C595.091 415.256 593.605 414.63 592.523 413.376C591.449 412.123 590.912 410.508 590.912 408.53V408.274ZM593.878 408.53C593.878 409.816 594.13 410.866 594.635 411.68C595.131 412.485 595.912 412.888 596.979 412.888C598.012 412.888 598.785 412.485 599.298 411.68C599.819 410.866 600.079 409.816 600.079 408.53V408.274C600.079 407.013 599.819 405.975 599.298 405.161C598.785 404.339 598.004 403.928 596.954 403.928C595.921 403.928 595.147 404.339 594.635 405.161C594.13 405.983 593.878 407.021 593.878 408.274V408.53ZM608.307 401.792L608.478 403.696C608.909 403.021 609.45 402.496 610.101 402.122C610.76 401.739 611.501 401.548 612.323 401.548C613.698 401.548 614.768 401.967 615.533 402.805C616.306 403.635 616.693 404.933 616.693 406.699V415H613.727V406.724C613.727 405.731 613.519 405.027 613.104 404.612C612.697 404.189 612.075 403.977 611.236 403.977C610.659 403.977 610.142 404.107 609.686 404.368C609.23 404.62 608.856 404.97 608.563 405.417V415H605.597V401.792H608.307ZM496.014 441.274C496.014 439.313 496.551 437.701 497.626 436.44C498.716 435.179 500.193 434.548 502.057 434.548C503.953 434.548 505.438 435.179 506.512 436.44C507.595 437.693 508.136 439.305 508.136 441.274V441.53C508.136 443.516 507.595 445.135 506.512 446.389C505.438 447.634 503.961 448.256 502.081 448.256C500.193 448.256 498.708 447.63 497.626 446.376C496.551 445.123 496.014 443.508 496.014 441.53V441.274ZM498.98 441.53C498.98 442.816 499.233 443.866 499.737 444.68C500.234 445.485 501.015 445.888 502.081 445.888C503.115 445.888 503.888 445.485 504.4 444.68C504.921 443.866 505.182 442.816 505.182 441.53V441.274C505.182 440.013 504.921 438.975 504.4 438.161C503.888 437.339 503.106 436.928 502.057 436.928C501.023 436.928 500.25 437.339 499.737 438.161C499.233 438.983 498.98 440.021 498.98 441.274V441.53ZM511.688 448V436.989H509.674V434.792H511.688V433.254C511.688 431.797 512.083 430.674 512.872 429.885C513.67 429.095 514.785 428.701 516.217 428.701C516.502 428.701 516.791 428.725 517.084 428.774C517.376 428.815 517.706 428.876 518.072 428.957L517.767 431.252C517.604 431.219 517.421 431.191 517.218 431.167C517.022 431.142 516.811 431.13 516.583 431.13C515.94 431.13 515.456 431.313 515.13 431.679C514.813 432.045 514.654 432.57 514.654 433.254V434.792H517.34V436.989H514.654V448H511.688ZM537.311 441.835C537.311 443.756 536.859 445.306 535.956 446.486C535.052 447.666 533.795 448.256 532.184 448.256C531.435 448.256 530.772 448.122 530.194 447.854C529.616 447.585 529.12 447.19 528.705 446.669V453.078H525.738V434.792H528.241L528.534 436.452C528.957 435.834 529.466 435.362 530.06 435.036C530.662 434.711 531.358 434.548 532.147 434.548C533.775 434.548 535.04 435.195 535.943 436.489C536.855 437.775 537.311 439.471 537.311 441.579V441.835ZM534.356 441.579C534.356 440.228 534.1 439.125 533.587 438.271C533.083 437.408 532.326 436.977 531.317 436.977C530.698 436.977 530.174 437.111 529.742 437.38C529.311 437.64 528.965 438.007 528.705 438.479V444.448C528.965 444.912 529.311 445.27 529.742 445.522C530.174 445.766 530.707 445.888 531.341 445.888C532.35 445.888 533.103 445.518 533.6 444.777C534.104 444.029 534.356 443.048 534.356 441.835V441.579ZM546.478 437.465L545.209 437.417C544.631 437.417 544.147 437.539 543.756 437.783C543.373 438.027 543.076 438.373 542.865 438.82V448H539.898V434.792H542.608L542.804 436.708C543.137 436.033 543.565 435.504 544.085 435.122C544.614 434.739 545.221 434.548 545.904 434.548C546.083 434.548 546.25 434.564 546.405 434.597C546.559 434.621 546.702 434.654 546.832 434.694L546.478 437.465ZM551.727 448H548.761V434.792H551.727V448ZM551.727 431.557H548.761V428.957H551.727V431.557ZM560.516 445.888C561.24 445.888 561.851 445.677 562.347 445.253C562.844 444.822 563.092 444.285 563.092 443.642H565.777L565.802 443.715C565.842 444.952 565.338 446.018 564.288 446.914C563.246 447.809 561.989 448.256 560.516 448.256C558.571 448.256 557.078 447.63 556.036 446.376C555.003 445.123 554.486 443.536 554.486 441.616V441.188C554.486 439.276 555.003 437.693 556.036 436.44C557.078 435.179 558.571 434.548 560.516 434.548C562.103 434.548 563.389 435.012 564.374 435.939C565.366 436.859 565.847 438.031 565.814 439.455L565.79 439.528H563.092C563.092 438.804 562.852 438.19 562.372 437.685C561.9 437.181 561.281 436.928 560.516 436.928C559.401 436.928 558.612 437.335 558.148 438.149C557.684 438.955 557.452 439.968 557.452 441.188V441.616C557.452 442.861 557.684 443.886 558.148 444.692C558.612 445.489 559.401 445.888 560.516 445.888ZM571.356 448H568.39V434.792H571.356V448ZM571.356 431.557H568.39V428.957H571.356V431.557ZM577.374 434.792L577.545 436.696C577.976 436.021 578.517 435.496 579.168 435.122C579.828 434.739 580.568 434.548 581.39 434.548C582.765 434.548 583.836 434.967 584.601 435.805C585.374 436.635 585.76 437.933 585.76 439.699V448H582.794V439.724C582.794 438.731 582.586 438.027 582.171 437.612C581.765 437.189 581.142 436.977 580.304 436.977C579.726 436.977 579.209 437.107 578.753 437.368C578.298 437.62 577.923 437.97 577.63 438.417V448H574.664V434.792H577.374ZM588.312 441.579C588.312 439.479 588.771 437.783 589.691 436.489C590.611 435.195 591.888 434.548 593.524 434.548C594.313 434.548 595.005 434.719 595.599 435.061C596.201 435.394 596.71 435.878 597.125 436.513L597.418 434.792H599.884V448C599.884 449.701 599.359 451.015 598.309 451.943C597.259 452.871 595.77 453.334 593.841 453.334C593.198 453.334 592.503 453.241 591.754 453.054C591.013 452.875 590.342 452.635 589.74 452.333L590.375 450.002C590.863 450.254 591.4 450.45 591.986 450.588C592.58 450.734 593.19 450.808 593.817 450.808C594.891 450.808 595.676 450.576 596.173 450.112C596.669 449.656 596.918 448.952 596.918 448V446.645C596.502 447.174 596.01 447.577 595.44 447.854C594.879 448.122 594.232 448.256 593.5 448.256C591.88 448.256 590.611 447.666 589.691 446.486C588.771 445.306 588.312 443.756 588.312 441.835V441.579ZM591.278 441.835C591.278 443.048 591.518 444.021 591.998 444.753C592.486 445.477 593.239 445.839 594.256 445.839C594.891 445.839 595.424 445.709 595.855 445.449C596.295 445.18 596.649 444.798 596.918 444.301V438.515C596.641 438.035 596.283 437.661 595.843 437.392C595.412 437.115 594.891 436.977 594.281 436.977C593.264 436.977 592.507 437.404 592.01 438.259C591.522 439.113 591.278 440.22 591.278 441.579V441.835ZM496.942 481V463.227H502.85C504.82 463.227 506.358 463.633 507.464 464.447C508.571 465.253 509.125 466.461 509.125 468.073C509.125 468.878 508.893 469.599 508.429 470.233C507.965 470.868 507.322 471.34 506.5 471.649C507.558 471.885 508.372 472.394 508.941 473.175C509.511 473.957 509.796 474.864 509.796 475.897C509.796 477.566 509.251 478.835 508.16 479.706C507.07 480.569 505.564 481 503.644 481H496.942ZM499.908 472.919V478.632H503.644C504.669 478.632 505.458 478.4 506.012 477.936C506.565 477.464 506.842 476.785 506.842 475.897C506.842 474.953 506.61 474.221 506.146 473.7C505.682 473.179 504.958 472.919 503.973 472.919H499.908ZM499.908 470.709H503.18C504.099 470.709 504.824 470.494 505.353 470.062C505.89 469.623 506.158 469.005 506.158 468.207C506.158 467.328 505.877 466.677 505.316 466.254C504.754 465.823 503.932 465.607 502.85 465.607H499.908V470.709ZM512.03 474.274C512.03 472.313 512.567 470.701 513.641 469.44C514.732 468.179 516.209 467.548 518.072 467.548C519.968 467.548 521.454 468.179 522.528 469.44C523.61 470.693 524.151 472.305 524.151 474.274V474.53C524.151 476.516 523.61 478.135 522.528 479.389C521.454 480.634 519.977 481.256 518.097 481.256C516.209 481.256 514.723 480.63 513.641 479.376C512.567 478.123 512.03 476.508 512.03 474.53V474.274ZM514.996 474.53C514.996 475.816 515.248 476.866 515.753 477.68C516.249 478.485 517.031 478.888 518.097 478.888C519.13 478.888 519.903 478.485 520.416 477.68C520.937 476.866 521.197 475.816 521.197 474.53V474.274C521.197 473.013 520.937 471.975 520.416 471.161C519.903 470.339 519.122 469.928 518.072 469.928C517.039 469.928 516.266 470.339 515.753 471.161C515.248 471.983 514.996 473.021 514.996 474.274V474.53ZM526.19 474.274C526.19 472.313 526.727 470.701 527.801 469.44C528.892 468.179 530.369 467.548 532.232 467.548C534.129 467.548 535.614 468.179 536.688 469.44C537.77 470.693 538.312 472.305 538.312 474.274V474.53C538.312 476.516 537.77 478.135 536.688 479.389C535.614 480.634 534.137 481.256 532.257 481.256C530.369 481.256 528.884 480.63 527.801 479.376C526.727 478.123 526.19 476.508 526.19 474.53V474.274ZM529.156 474.53C529.156 475.816 529.409 476.866 529.913 477.68C530.41 478.485 531.191 478.888 532.257 478.888C533.29 478.888 534.063 478.485 534.576 477.68C535.097 476.866 535.357 475.816 535.357 474.53V474.274C535.357 473.013 535.097 471.975 534.576 471.161C534.063 470.339 533.282 469.928 532.232 469.928C531.199 469.928 530.426 470.339 529.913 471.161C529.409 471.983 529.156 473.021 529.156 474.274V474.53ZM545.196 475.226H543.866V481H540.912V461.957H543.866V472.846H545.099L548.431 467.792H551.922L547.564 473.798L552.569 481H549.127L545.196 475.226ZM557.147 481H554.181V467.792H557.147V481ZM557.147 464.557H554.181V461.957H557.147V464.557ZM563.165 467.792L563.336 469.696C563.767 469.021 564.308 468.496 564.959 468.122C565.619 467.739 566.359 467.548 567.181 467.548C568.557 467.548 569.627 467.967 570.392 468.805C571.165 469.635 571.551 470.933 571.551 472.699V481H568.585V472.724C568.585 471.731 568.377 471.027 567.962 470.612C567.556 470.189 566.933 469.977 566.095 469.977C565.517 469.977 565 470.107 564.544 470.368C564.089 470.62 563.714 470.97 563.421 471.417V481H560.455V467.792H563.165ZM574.103 474.579C574.103 472.479 574.562 470.783 575.482 469.489C576.402 468.195 577.679 467.548 579.315 467.548C580.104 467.548 580.796 467.719 581.39 468.061C581.992 468.394 582.501 468.878 582.916 469.513L583.209 467.792H585.675V481C585.675 482.701 585.15 484.015 584.1 484.943C583.05 485.871 581.561 486.334 579.632 486.334C578.989 486.334 578.294 486.241 577.545 486.054C576.804 485.875 576.133 485.635 575.531 485.333L576.166 483.002C576.654 483.254 577.191 483.45 577.777 483.588C578.371 483.734 578.981 483.808 579.608 483.808C580.682 483.808 581.467 483.576 581.964 483.112C582.46 482.656 582.709 481.952 582.709 481V479.645C582.293 480.174 581.801 480.577 581.231 480.854C580.67 481.122 580.023 481.256 579.291 481.256C577.671 481.256 576.402 480.666 575.482 479.486C574.562 478.306 574.103 476.756 574.103 474.835V474.579ZM577.069 474.835C577.069 476.048 577.309 477.021 577.789 477.753C578.277 478.477 579.03 478.839 580.047 478.839C580.682 478.839 581.215 478.709 581.647 478.449C582.086 478.18 582.44 477.798 582.709 477.301V471.515C582.432 471.035 582.074 470.661 581.634 470.392C581.203 470.115 580.682 469.977 580.072 469.977C579.055 469.977 578.298 470.404 577.801 471.259C577.313 472.113 577.069 473.22 577.069 474.579V474.835ZM499.908 507.262V514H496.942V496.227H503.888C505.849 496.227 507.383 496.735 508.49 497.752C509.605 498.762 510.162 500.092 510.162 501.744C510.162 503.412 509.605 504.751 508.49 505.76C507.383 506.761 505.849 507.262 503.888 507.262H499.908ZM499.908 504.881H503.888C504.986 504.881 505.812 504.588 506.366 504.002C506.919 503.417 507.196 502.672 507.196 501.769C507.196 500.865 506.919 500.112 506.366 499.51C505.812 498.908 504.986 498.607 503.888 498.607H499.908V504.881ZM515.411 500.792L515.582 502.696C516.013 502.021 516.555 501.496 517.206 501.122C517.865 500.739 518.605 500.548 519.427 500.548C520.803 500.548 521.873 500.967 522.638 501.805C523.411 502.635 523.797 503.933 523.797 505.699V514H520.831V505.724C520.831 504.731 520.624 504.027 520.209 503.612C519.802 503.189 519.179 502.977 518.341 502.977C517.763 502.977 517.246 503.107 516.791 503.368C516.335 503.62 515.96 503.97 515.668 504.417V514H512.701V500.792H515.411ZM530.047 514H527.081V494.957H530.047V514ZM542.767 514H539.801V494.957H542.767V514ZM549.261 514H546.295V500.792H549.261V514ZM549.261 497.557H546.295V494.957H549.261V497.557ZM564.19 507.835C564.19 509.764 563.739 511.319 562.835 512.499C561.94 513.67 560.675 514.256 559.039 514.256C558.217 514.256 557.501 514.09 556.891 513.756C556.288 513.422 555.784 512.934 555.377 512.291L555.084 514H552.594V494.957H555.56V502.293C555.967 501.732 556.455 501.301 557.025 501C557.595 500.698 558.258 500.548 559.015 500.548C560.667 500.548 561.94 501.191 562.835 502.477C563.739 503.762 564.19 505.463 564.19 507.579V507.835ZM561.224 507.579C561.224 506.204 560.988 505.093 560.516 504.247C560.044 503.4 559.295 502.977 558.27 502.977C557.611 502.977 557.057 503.124 556.61 503.417C556.17 503.709 555.82 504.116 555.56 504.637V510.179C555.812 510.708 556.162 511.119 556.61 511.412C557.057 511.697 557.619 511.839 558.294 511.839C559.32 511.839 560.064 511.481 560.528 510.765C560.992 510.041 561.224 509.064 561.224 507.835V507.579ZM573.334 503.465L572.064 503.417C571.486 503.417 571.002 503.539 570.611 503.783C570.229 504.027 569.932 504.373 569.72 504.82V514H566.754V500.792H569.464L569.659 502.708C569.993 502.033 570.42 501.504 570.941 501.122C571.47 500.739 572.076 500.548 572.76 500.548C572.939 500.548 573.106 500.564 573.26 500.597C573.415 500.621 573.557 500.654 573.688 500.694L573.334 503.465ZM583.368 514C583.262 513.666 583.172 513.341 583.099 513.023C583.034 512.706 582.989 512.389 582.965 512.071C582.558 512.69 582.021 513.211 581.354 513.634C580.694 514.049 579.954 514.256 579.132 514.256C577.757 514.256 576.699 513.902 575.958 513.194C575.226 512.486 574.859 511.514 574.859 510.277C574.859 508.999 575.364 508.006 576.373 507.298C577.382 506.582 578.802 506.224 580.633 506.224H582.94V505.064C582.94 504.373 582.737 503.832 582.33 503.441C581.923 503.05 581.341 502.855 580.584 502.855C579.909 502.855 579.372 503.018 578.973 503.343C578.574 503.669 578.375 504.088 578.375 504.601H575.519L575.506 504.527C575.449 503.486 575.913 502.562 576.898 501.756C577.891 500.951 579.181 500.548 580.768 500.548C582.306 500.548 583.547 500.938 584.491 501.72C585.435 502.501 585.907 503.624 585.907 505.089V510.96C585.907 511.506 585.943 512.031 586.017 512.535C586.09 513.032 586.208 513.52 586.371 514H583.368ZM579.73 511.876C580.479 511.876 581.15 511.689 581.744 511.314C582.346 510.94 582.745 510.513 582.94 510.033V508.08H580.584C579.722 508.08 579.046 508.295 578.558 508.727C578.07 509.15 577.826 509.65 577.826 510.228C577.826 510.733 577.988 511.135 578.314 511.437C578.648 511.729 579.12 511.876 579.73 511.876ZM595.599 503.465L594.33 503.417C593.752 503.417 593.268 503.539 592.877 503.783C592.494 504.027 592.197 504.373 591.986 504.82V514H589.02V500.792H591.73L591.925 502.708C592.258 502.033 592.686 501.504 593.207 501.122C593.736 500.739 594.342 500.548 595.025 500.548C595.204 500.548 595.371 500.564 595.526 500.597C595.681 500.621 595.823 500.654 595.953 500.694L595.599 503.465ZM602.337 508.702L602.63 510.021H602.704L605.597 500.792H608.844L603.375 516.002C603.025 516.922 602.533 517.707 601.898 518.358C601.263 519.009 600.364 519.334 599.2 519.334C598.956 519.334 598.692 519.31 598.407 519.261C598.13 519.212 597.862 519.155 597.601 519.09L597.931 516.795C598.036 516.804 598.187 516.816 598.382 516.832C598.578 516.848 598.724 516.856 598.822 516.856C599.359 516.856 599.786 516.673 600.104 516.307C600.429 515.941 600.694 515.518 600.897 515.038L601.385 513.841L596.588 500.792H599.823L602.337 508.702Z" fill="white"/>
<path d="M482 411C484.209 411 486 409.209 486 407C486 404.791 484.209 403 482 403C479.791 403 478 404.791 478 407C478 409.209 479.791 411 482 411Z" fill="#6D7693"/>
<path d="M264 411C266.209 411 268 409.209 268 407C268 404.791 266.209 403 264 403C261.791 403 260 404.791 260 407C260 409.209 261.791 411 264 411Z" fill="#6D7693"/>
<path d="M56 411C58.2091 411 60 409.209 60 407C60 404.791 58.2091 403 56 403C53.7909 403 52 404.791 52 407C52 409.209 53.7909 411 56 411Z" fill="#6D7693"/>
<path d="M482 510C484.209 510 486 508.209 486 506C486 503.791 484.209 502 482 502C479.791 502 478 503.791 478 506C478 508.209 479.791 510 482 510Z" fill="#6D7693"/>
<path d="M264 445C266.209 445 268 443.209 268 441C268 438.791 266.209 437 264 437C261.791 437 260 438.791 260 441C260 443.209 261.791 445 264 445Z" fill="#6D7693"/>
<path d="M56 445C58.2091 445 60 443.209 60 441C60 438.791 58.2091 437 56 437C53.7909 437 52 438.791 52 441C52 443.209 53.7909 445 56 445Z" fill="#6D7693"/>
<path d="M482 476C484.209 476 486 474.209 486 472C486 469.791 484.209 468 482 468C479.791 468 478 469.791 478 472C478 474.209 479.791 476 482 476Z" fill="#6D7693"/>
<path d="M56 476C58.2091 476 60 474.209 60 472C60 469.791 58.2091 468 56 468C53.7909 468 52 469.791 52 472C52 474.209 53.7909 476 56 476Z" fill="#6D7693"/>
<path d="M56 507C58.2091 507 60 505.209 60 503C60 500.791 58.2091 499 56 499C53.7909 499 52 500.791 52 503C52 505.209 53.7909 507 56 507Z" fill="#6D7693"/>
<path d="M281.908 412.632H290.075V415H278.942V397.227H281.908V412.632ZM295.251 415H292.284V401.792H295.251V415ZM295.251 398.557H292.284V395.957H295.251V398.557ZM299.547 415V403.989H297.533V401.792H299.547V400.254C299.547 398.797 299.942 397.674 300.731 396.885C301.529 396.095 302.644 395.701 304.076 395.701C304.361 395.701 304.65 395.725 304.943 395.774C305.236 395.815 305.565 395.876 305.932 395.957L305.626 398.252C305.464 398.219 305.281 398.191 305.077 398.167C304.882 398.142 304.67 398.13 304.442 398.13C303.8 398.13 303.315 398.313 302.99 398.679C302.672 399.045 302.514 399.57 302.514 400.254V401.792H305.199V403.989H302.514V415H299.547ZM313.036 415.256C311.164 415.256 309.671 414.646 308.556 413.425C307.449 412.196 306.896 410.622 306.896 408.701V408.213C306.896 406.292 307.445 404.701 308.544 403.44C309.651 402.17 311.034 401.54 312.694 401.548C314.477 401.548 315.84 402.089 316.784 403.171C317.736 404.246 318.212 405.69 318.212 407.505V409.25H309.972L309.948 409.312C309.997 410.361 310.302 411.22 310.863 411.887C311.433 412.555 312.218 412.888 313.219 412.888C314.017 412.888 314.7 412.791 315.27 412.595C315.84 412.4 316.389 412.119 316.918 411.753L317.87 413.694C317.374 414.133 316.715 414.504 315.893 414.805C315.071 415.106 314.119 415.256 313.036 415.256ZM312.694 403.928C311.962 403.928 311.36 404.221 310.888 404.807C310.416 405.385 310.123 406.121 310.009 407.017L310.033 407.078H315.27V406.772C315.27 405.934 315.054 405.251 314.623 404.722C314.2 404.193 313.557 403.928 312.694 403.928ZM326.061 412.888C326.785 412.888 327.396 412.677 327.892 412.253C328.389 411.822 328.637 411.285 328.637 410.642H331.322L331.347 410.715C331.387 411.952 330.883 413.018 329.833 413.914C328.791 414.809 327.534 415.256 326.061 415.256C324.116 415.256 322.623 414.63 321.581 413.376C320.548 412.123 320.031 410.536 320.031 408.616V408.188C320.031 406.276 320.548 404.693 321.581 403.44C322.623 402.179 324.116 401.548 326.061 401.548C327.648 401.548 328.934 402.012 329.918 402.939C330.911 403.859 331.391 405.031 331.359 406.455L331.334 406.528H328.637C328.637 405.804 328.397 405.19 327.917 404.685C327.445 404.181 326.826 403.928 326.061 403.928C324.946 403.928 324.157 404.335 323.693 405.149C323.229 405.955 322.997 406.968 322.997 408.188V408.616C322.997 409.861 323.229 410.886 323.693 411.692C324.157 412.489 324.946 412.888 326.061 412.888ZM338.122 409.702L338.415 411.021H338.488L341.381 401.792H344.628L339.159 417.002C338.809 417.922 338.317 418.707 337.682 419.358C337.047 420.009 336.148 420.334 334.984 420.334C334.74 420.334 334.476 420.31 334.191 420.261C333.914 420.212 333.646 420.155 333.385 420.09L333.715 417.795C333.821 417.804 333.971 417.816 334.167 417.832C334.362 417.848 334.508 417.856 334.606 417.856C335.143 417.856 335.57 417.673 335.888 417.307C336.213 416.941 336.478 416.518 336.681 416.038L337.169 414.841L332.372 401.792H335.607L338.122 409.702ZM351.696 412.888C352.42 412.888 353.03 412.677 353.527 412.253C354.023 411.822 354.272 411.285 354.272 410.642H356.957L356.981 410.715C357.022 411.952 356.518 413.018 355.468 413.914C354.426 414.809 353.169 415.256 351.696 415.256C349.751 415.256 348.258 414.63 347.216 413.376C346.182 412.123 345.666 410.536 345.666 408.616V408.188C345.666 406.276 346.182 404.693 347.216 403.44C348.258 402.179 349.751 401.548 351.696 401.548C353.283 401.548 354.569 402.012 355.553 402.939C356.546 403.859 357.026 405.031 356.994 406.455L356.969 406.528H354.272C354.272 405.804 354.031 405.19 353.551 404.685C353.079 404.181 352.461 403.928 351.696 403.928C350.581 403.928 349.792 404.335 349.328 405.149C348.864 405.955 348.632 406.968 348.632 408.188V408.616C348.632 409.861 348.864 410.886 349.328 411.692C349.792 412.489 350.581 412.888 351.696 412.888ZM362.536 415H359.569V395.957H362.536V415ZM371.532 415.256C369.661 415.256 368.167 414.646 367.052 413.425C365.945 412.196 365.392 410.622 365.392 408.701V408.213C365.392 406.292 365.941 404.701 367.04 403.44C368.147 402.17 369.53 401.54 371.19 401.548C372.973 401.548 374.336 402.089 375.28 403.171C376.232 404.246 376.708 405.69 376.708 407.505V409.25H368.468L368.444 409.312C368.493 410.361 368.798 411.22 369.359 411.887C369.929 412.555 370.714 412.888 371.715 412.888C372.513 412.888 373.196 412.791 373.766 412.595C374.336 412.4 374.885 412.119 375.414 411.753L376.366 413.694C375.87 414.133 375.211 414.504 374.389 414.805C373.567 415.106 372.615 415.256 371.532 415.256ZM371.19 403.928C370.458 403.928 369.856 404.221 369.384 404.807C368.912 405.385 368.619 406.121 368.505 407.017L368.529 407.078H373.766V406.772C373.766 405.934 373.55 405.251 373.119 404.722C372.696 404.193 372.053 403.928 371.19 403.928ZM288.573 443.435C288.573 442.694 288.297 442.088 287.743 441.616C287.198 441.144 286.23 440.721 284.838 440.346C282.852 439.825 281.322 439.138 280.248 438.283C279.182 437.421 278.649 436.293 278.649 434.902C278.649 433.47 279.239 432.29 280.419 431.362C281.607 430.434 283.137 429.97 285.009 429.97C286.962 429.97 288.529 430.495 289.709 431.545C290.897 432.595 291.47 433.856 291.43 435.329L291.405 435.402H288.561C288.561 434.491 288.252 433.754 287.633 433.193C287.015 432.623 286.132 432.338 284.984 432.338C283.902 432.338 283.068 432.574 282.482 433.046C281.904 433.518 281.615 434.129 281.615 434.877C281.615 435.553 281.929 436.114 282.555 436.562C283.19 437.01 284.236 437.433 285.692 437.832C287.605 438.344 289.057 439.052 290.05 439.956C291.043 440.859 291.54 442.01 291.54 443.41C291.54 444.891 290.945 446.071 289.757 446.95C288.577 447.821 287.023 448.256 285.094 448.256C283.239 448.256 281.611 447.768 280.211 446.792C278.812 445.807 278.132 444.46 278.173 442.751L278.197 442.678H281.054C281.054 443.76 281.428 444.57 282.177 445.107C282.925 445.636 283.898 445.9 285.094 445.9C286.193 445.9 287.047 445.681 287.658 445.241C288.268 444.794 288.573 444.191 288.573 443.435ZM299.95 448.256C298.078 448.256 296.585 447.646 295.47 446.425C294.363 445.196 293.81 443.622 293.81 441.701V441.213C293.81 439.292 294.359 437.701 295.458 436.44C296.565 435.17 297.948 434.54 299.608 434.548C301.391 434.548 302.754 435.089 303.698 436.171C304.65 437.246 305.126 438.69 305.126 440.505V442.25H296.886L296.862 442.312C296.911 443.361 297.216 444.22 297.777 444.887C298.347 445.555 299.132 445.888 300.133 445.888C300.931 445.888 301.614 445.791 302.184 445.595C302.754 445.4 303.303 445.119 303.832 444.753L304.784 446.694C304.288 447.133 303.629 447.504 302.807 447.805C301.985 448.106 301.033 448.256 299.95 448.256ZM299.608 436.928C298.876 436.928 298.274 437.221 297.802 437.807C297.33 438.385 297.037 439.121 296.923 440.017L296.947 440.078H302.184V439.772C302.184 438.934 301.968 438.251 301.537 437.722C301.114 437.193 300.471 436.928 299.608 436.928ZM311.205 431.582V434.792H313.573V436.989H311.205V444.289C311.205 444.834 311.323 445.225 311.559 445.461C311.795 445.689 312.108 445.803 312.499 445.803C312.662 445.803 312.82 445.791 312.975 445.766C313.13 445.734 313.276 445.693 313.415 445.644L313.732 447.817C313.48 447.955 313.179 448.061 312.829 448.134C312.479 448.216 312.117 448.256 311.742 448.256C310.652 448.256 309.797 447.939 309.179 447.304C308.56 446.661 308.251 445.656 308.251 444.289V436.989H306.237V434.792H308.251V431.582H311.205ZM319.897 431.582V434.792H322.265V436.989H319.897V444.289C319.897 444.834 320.015 445.225 320.251 445.461C320.487 445.689 320.8 445.803 321.19 445.803C321.353 445.803 321.512 445.791 321.667 445.766C321.821 445.734 321.968 445.693 322.106 445.644L322.423 447.817C322.171 447.955 321.87 448.061 321.52 448.134C321.17 448.216 320.808 448.256 320.434 448.256C319.343 448.256 318.489 447.939 317.87 447.304C317.252 446.661 316.942 445.656 316.942 444.289V436.989H314.928V434.792H316.942V431.582H319.897ZM328.063 448H325.097V428.957H328.063V448ZM337.06 448.256C335.188 448.256 333.695 447.646 332.58 446.425C331.473 445.196 330.919 443.622 330.919 441.701V441.213C330.919 439.292 331.469 437.701 332.567 436.44C333.674 435.17 335.058 434.54 336.718 434.548C338.5 434.548 339.863 435.089 340.807 436.171C341.759 437.246 342.235 438.69 342.235 440.505V442.25H333.996L333.971 442.312C334.02 443.361 334.325 444.22 334.887 444.887C335.456 445.555 336.242 445.888 337.243 445.888C338.04 445.888 338.724 445.791 339.293 445.595C339.863 445.4 340.412 445.119 340.941 444.753L341.894 446.694C341.397 447.133 340.738 447.504 339.916 447.805C339.094 448.106 338.142 448.256 337.06 448.256ZM336.718 436.928C335.985 436.928 335.383 437.221 334.911 437.807C334.439 438.385 334.146 439.121 334.032 440.017L334.057 440.078H339.293V439.772C339.293 438.934 339.078 438.251 338.647 437.722C338.223 437.193 337.58 436.928 336.718 436.928ZM347.338 434.792L347.497 436.513C347.928 435.887 348.469 435.402 349.12 435.061C349.771 434.719 350.524 434.548 351.378 434.548C352.241 434.548 352.982 434.743 353.6 435.134C354.219 435.524 354.682 436.11 354.992 436.892C355.399 436.159 355.936 435.585 356.603 435.17C357.27 434.755 358.052 434.548 358.947 434.548C360.273 434.548 361.319 435.004 362.084 435.915C362.857 436.818 363.244 438.194 363.244 440.041V448H360.277V440.029C360.277 438.906 360.082 438.116 359.691 437.661C359.309 437.205 358.731 436.977 357.958 436.977C357.323 436.977 356.786 437.148 356.347 437.49C355.907 437.832 355.59 438.291 355.395 438.869C355.395 438.991 355.399 439.097 355.407 439.187C355.415 439.276 355.419 439.361 355.419 439.443V448H352.453V440.029C352.453 438.946 352.253 438.169 351.855 437.697C351.464 437.217 350.886 436.977 350.121 436.977C349.519 436.977 349.006 437.095 348.583 437.331C348.168 437.559 347.838 437.884 347.594 438.308V448H344.628V434.792H347.338ZM372.045 448.256C370.173 448.256 368.68 447.646 367.565 446.425C366.458 445.196 365.905 443.622 365.905 441.701V441.213C365.905 439.292 366.454 437.701 367.553 436.44C368.66 435.17 370.043 434.54 371.703 434.548C373.485 434.548 374.848 435.089 375.793 436.171C376.745 437.246 377.221 438.69 377.221 440.505V442.25H368.981L368.957 442.312C369.005 443.361 369.311 444.22 369.872 444.887C370.442 445.555 371.227 445.888 372.228 445.888C373.026 445.888 373.709 445.791 374.279 445.595C374.848 445.4 375.398 445.119 375.927 444.753L376.879 446.694C376.383 447.133 375.723 447.504 374.901 447.805C374.079 448.106 373.127 448.256 372.045 448.256ZM371.703 436.928C370.971 436.928 370.369 437.221 369.897 437.807C369.425 438.385 369.132 439.121 369.018 440.017L369.042 440.078H374.279V439.772C374.279 438.934 374.063 438.251 373.632 437.722C373.209 437.193 372.566 436.928 371.703 436.928ZM382.299 434.792L382.47 436.696C382.901 436.021 383.442 435.496 384.093 435.122C384.752 434.739 385.493 434.548 386.315 434.548C387.69 434.548 388.76 434.967 389.525 435.805C390.299 436.635 390.685 437.933 390.685 439.699V448H387.719V439.724C387.719 438.731 387.511 438.027 387.096 437.612C386.689 437.189 386.067 436.977 385.229 436.977C384.651 436.977 384.134 437.107 383.678 437.368C383.223 437.62 382.848 437.97 382.555 438.417V448H379.589V434.792H382.299ZM397.46 431.582V434.792H399.828V436.989H397.46V444.289C397.46 444.834 397.578 445.225 397.814 445.461C398.05 445.689 398.363 445.803 398.754 445.803C398.917 445.803 399.075 445.791 399.23 445.766C399.385 445.734 399.531 445.693 399.669 445.644L399.987 447.817C399.735 447.955 399.433 448.061 399.084 448.134C398.734 448.216 398.371 448.256 397.997 448.256C396.907 448.256 396.052 447.939 395.434 447.304C394.815 446.661 394.506 445.656 394.506 444.289V436.989H392.492V434.792H394.506V431.582H397.46ZM407.885 443.203C407.885 442.226 408.161 441.38 408.715 440.664C409.268 439.939 410.098 439.211 411.205 438.479C410.611 437.705 410.168 437.006 409.875 436.379C409.582 435.752 409.435 435.113 409.435 434.462C409.435 433.071 409.854 431.976 410.692 431.179C411.531 430.373 412.662 429.97 414.086 429.97C415.38 429.97 416.43 430.361 417.235 431.142C418.049 431.915 418.456 432.851 418.456 433.95C418.456 434.747 418.244 435.459 417.821 436.086C417.406 436.704 416.816 437.294 416.051 437.856L414.831 438.735L418.554 443.154C418.879 442.641 419.132 442.08 419.311 441.469C419.498 440.859 419.591 440.212 419.591 439.528H421.996C421.996 440.643 421.846 441.669 421.544 442.604C421.251 443.54 420.804 444.375 420.202 445.107L422.594 447.939L422.57 448H419.225L418.236 446.84C417.569 447.304 416.853 447.658 416.088 447.902C415.331 448.138 414.529 448.256 413.683 448.256C411.917 448.256 410.509 447.788 409.459 446.853C408.41 445.917 407.885 444.7 407.885 443.203ZM413.769 445.888C414.273 445.888 414.774 445.815 415.27 445.668C415.766 445.522 416.238 445.306 416.686 445.021L412.682 440.297L412.316 440.566C411.73 441.022 411.339 441.461 411.144 441.884C410.949 442.307 410.851 442.714 410.851 443.105C410.851 443.919 411.107 444.586 411.62 445.107C412.133 445.628 412.849 445.888 413.769 445.888ZM412.218 434.426C412.218 434.816 412.316 435.219 412.511 435.634C412.715 436.049 413.012 436.509 413.402 437.014L414.794 436.086C415.258 435.785 415.567 435.472 415.722 435.146C415.884 434.812 415.966 434.446 415.966 434.047C415.966 433.608 415.791 433.217 415.441 432.875C415.099 432.526 414.647 432.351 414.086 432.351C413.484 432.351 413.02 432.55 412.694 432.949C412.377 433.347 412.218 433.84 412.218 434.426ZM286.51 481C286.404 480.666 286.315 480.341 286.242 480.023C286.177 479.706 286.132 479.389 286.107 479.071C285.701 479.69 285.163 480.211 284.496 480.634C283.837 481.049 283.096 481.256 282.274 481.256C280.899 481.256 279.841 480.902 279.101 480.194C278.368 479.486 278.002 478.514 278.002 477.277C278.002 475.999 278.507 475.006 279.516 474.298C280.525 473.582 281.945 473.224 283.776 473.224H286.083V472.064C286.083 471.373 285.88 470.832 285.473 470.441C285.066 470.05 284.484 469.855 283.727 469.855C283.052 469.855 282.515 470.018 282.116 470.343C281.717 470.669 281.518 471.088 281.518 471.601H278.661L278.649 471.527C278.592 470.486 279.056 469.562 280.041 468.756C281.033 467.951 282.323 467.548 283.91 467.548C285.448 467.548 286.689 467.938 287.633 468.72C288.577 469.501 289.049 470.624 289.049 472.089V477.96C289.049 478.506 289.086 479.031 289.159 479.535C289.232 480.032 289.35 480.52 289.513 481H286.51ZM282.873 478.876C283.621 478.876 284.293 478.689 284.887 478.314C285.489 477.94 285.888 477.513 286.083 477.033V475.08H283.727C282.864 475.08 282.189 475.295 281.701 475.727C281.212 476.15 280.968 476.65 280.968 477.228C280.968 477.733 281.131 478.135 281.457 478.437C281.79 478.729 282.262 478.876 282.873 478.876ZM297.619 478.888C298.343 478.888 298.953 478.677 299.45 478.253C299.946 477.822 300.194 477.285 300.194 476.642H302.88L302.904 476.715C302.945 477.952 302.44 479.018 301.391 479.914C300.349 480.809 299.092 481.256 297.619 481.256C295.674 481.256 294.18 480.63 293.139 479.376C292.105 478.123 291.588 476.536 291.588 474.616V474.188C291.588 472.276 292.105 470.693 293.139 469.44C294.18 468.179 295.674 467.548 297.619 467.548C299.206 467.548 300.491 468.012 301.476 468.939C302.469 469.859 302.949 471.031 302.917 472.455L302.892 472.528H300.194C300.194 471.804 299.954 471.19 299.474 470.685C299.002 470.181 298.384 469.928 297.619 469.928C296.504 469.928 295.714 470.335 295.251 471.149C294.787 471.955 294.555 472.968 294.555 474.188V474.616C294.555 475.861 294.787 476.886 295.251 477.692C295.714 478.489 296.504 478.888 297.619 478.888ZM310.753 478.888C311.478 478.888 312.088 478.677 312.584 478.253C313.081 477.822 313.329 477.285 313.329 476.642H316.015L316.039 476.715C316.08 477.952 315.575 479.018 314.525 479.914C313.484 480.809 312.226 481.256 310.753 481.256C308.808 481.256 307.315 480.63 306.273 479.376C305.24 478.123 304.723 476.536 304.723 474.616V474.188C304.723 472.276 305.24 470.693 306.273 469.44C307.315 468.179 308.808 467.548 310.753 467.548C312.34 467.548 313.626 468.012 314.611 468.939C315.604 469.859 316.084 471.031 316.051 472.455L316.027 472.528H313.329C313.329 471.804 313.089 471.19 312.609 470.685C312.137 470.181 311.518 469.928 310.753 469.928C309.639 469.928 308.849 470.335 308.385 471.149C307.921 471.955 307.689 472.968 307.689 474.188V474.616C307.689 475.861 307.921 476.886 308.385 477.692C308.849 478.489 309.639 478.888 310.753 478.888ZM317.882 474.274C317.882 472.313 318.419 470.701 319.494 469.44C320.584 468.179 322.061 467.548 323.925 467.548C325.821 467.548 327.306 468.179 328.38 469.44C329.463 470.693 330.004 472.305 330.004 474.274V474.53C330.004 476.516 329.463 478.135 328.38 479.389C327.306 480.634 325.829 481.256 323.949 481.256C322.061 481.256 320.576 480.63 319.494 479.376C318.419 478.123 317.882 476.508 317.882 474.53V474.274ZM320.849 474.53C320.849 475.816 321.101 476.866 321.605 477.68C322.102 478.485 322.883 478.888 323.949 478.888C324.983 478.888 325.756 478.485 326.269 477.68C326.789 476.866 327.05 475.816 327.05 474.53V474.274C327.05 473.013 326.789 471.975 326.269 471.161C325.756 470.339 324.975 469.928 323.925 469.928C322.891 469.928 322.118 470.339 321.605 471.161C321.101 471.983 320.849 473.021 320.849 474.274V474.53ZM340.819 479.071C340.404 479.771 339.879 480.312 339.245 480.695C338.61 481.069 337.877 481.256 337.047 481.256C335.631 481.256 334.525 480.805 333.727 479.901C332.93 478.998 332.531 477.594 332.531 475.69V467.792H335.485V475.714C335.485 476.87 335.672 477.68 336.046 478.144C336.421 478.607 336.986 478.839 337.743 478.839C338.459 478.839 339.057 478.713 339.538 478.461C340.026 478.201 340.408 477.826 340.685 477.338V467.792H343.651V481H341.063L340.819 479.071ZM349.438 467.792L349.608 469.696C350.04 469.021 350.581 468.496 351.232 468.122C351.891 467.739 352.632 467.548 353.454 467.548C354.829 467.548 355.899 467.967 356.664 468.805C357.437 469.635 357.824 470.933 357.824 472.699V481H354.857V472.724C354.857 471.731 354.65 471.027 354.235 470.612C353.828 470.189 353.205 469.977 352.367 469.977C351.789 469.977 351.273 470.107 350.817 470.368C350.361 470.62 349.987 470.97 349.694 471.417V481H346.728V467.792H349.438ZM364.599 464.582V467.792H366.967V469.989H364.599V477.289C364.599 477.834 364.717 478.225 364.953 478.461C365.189 478.689 365.502 478.803 365.893 478.803C366.055 478.803 366.214 478.791 366.369 478.766C366.523 478.734 366.67 478.693 366.808 478.644L367.126 480.817C366.873 480.955 366.572 481.061 366.222 481.134C365.872 481.216 365.51 481.256 365.136 481.256C364.045 481.256 363.191 480.939 362.572 480.304C361.954 479.661 361.645 478.656 361.645 477.289V469.989H359.63V467.792H361.645V464.582H364.599ZM372.765 481H369.799V467.792H372.765V481ZM372.765 464.557H369.799V461.957H372.765V464.557ZM378.783 467.792L378.954 469.696C379.385 469.021 379.927 468.496 380.578 468.122C381.237 467.739 381.977 467.548 382.799 467.548C384.175 467.548 385.245 467.967 386.01 468.805C386.783 469.635 387.169 470.933 387.169 472.699V481H384.203V472.724C384.203 471.731 383.996 471.027 383.581 470.612C383.174 470.189 382.551 469.977 381.713 469.977C381.135 469.977 380.618 470.107 380.163 470.368C379.707 470.62 379.333 470.97 379.04 471.417V481H376.073V467.792H378.783ZM389.721 474.579C389.721 472.479 390.181 470.783 391.1 469.489C392.02 468.195 393.297 467.548 394.933 467.548C395.723 467.548 396.414 467.719 397.008 468.061C397.611 468.394 398.119 468.878 398.534 469.513L398.827 467.792H401.293V481C401.293 482.701 400.768 484.015 399.718 484.943C398.668 485.871 397.179 486.334 395.251 486.334C394.608 486.334 393.912 486.241 393.163 486.054C392.423 485.875 391.751 485.635 391.149 485.333L391.784 483.002C392.272 483.254 392.809 483.45 393.395 483.588C393.989 483.734 394.599 483.808 395.226 483.808C396.3 483.808 397.086 483.576 397.582 483.112C398.078 482.656 398.327 481.952 398.327 481V479.645C397.912 480.174 397.419 480.577 396.85 480.854C396.288 481.122 395.641 481.256 394.909 481.256C393.289 481.256 392.02 480.666 391.1 479.486C390.181 478.306 389.721 476.756 389.721 474.835V474.579ZM392.687 474.835C392.687 476.048 392.927 477.021 393.407 477.753C393.896 478.477 394.648 478.839 395.666 478.839C396.3 478.839 396.833 478.709 397.265 478.449C397.704 478.18 398.058 477.798 398.327 477.301V471.515C398.05 471.035 397.692 470.661 397.252 470.392C396.821 470.115 396.3 469.977 395.69 469.977C394.673 469.977 393.916 470.404 393.419 471.259C392.931 472.113 392.687 473.22 392.687 474.579V474.835Z" fill="white"/>
<path d="M56 322H484" stroke="#626A84" stroke-width="2"/>
<path d="M483 323V377" stroke="#626A84" stroke-width="2"/>
<path d="M265 323V377" stroke="#626A84" stroke-width="2"/>
<path d="M338 243V323" stroke="#626A84" stroke-width="2"/>
<path d="M57 323V377" stroke="#626A84" stroke-width="2"/>
</svg>
