<svg width="420" height="47" viewBox="0 0 420 47" fill="none" xmlns="http://www.w3.org/2000/svg">
<g clip-path="url(#clip0)">
<path fill-rule="evenodd" clip-rule="evenodd" d="M34.9576 0H39.6242V21.4882H34.9576V13.0984H4.66667V21.4882H0V0H4.66667V8.3898H34.9576V0ZM209.915 21.4882L176.145 6.93443V21.4882H171.648V0L205.418 14.5537V0H209.915V21.4882Z" fill="white"/>
<path fill-rule="evenodd" clip-rule="evenodd" d="M56.4242 -8.31783e-05V21.4881H51.7576V-8.31783e-05H56.4242ZM79.2485 21.4881C77.8061 21.4881 76.4485 21.2312 75.0909 20.632C73.8182 20.0327 72.6303 19.2622 71.697 18.3205C70.7636 17.3788 70 16.1802 69.4061 14.8961C68.8121 13.6119 68.5576 12.1566 68.5576 10.7012C68.5576 9.24582 68.8121 7.79044 69.4061 6.50629C70 5.22214 70.7636 4.0236 71.697 3.08188C72.6303 2.14017 73.8182 1.36968 75.0909 0.770408C76.3636 0.171137 77.8061 -0.0856934 79.2485 -0.0856934H107.758V4.62287H79.2485C78.4 4.62287 77.6364 4.79409 76.9576 5.13653C76.2788 5.47897 75.6 5.90702 75.0909 6.42068C74.5818 6.93434 74.0727 7.61922 73.8182 8.3041C73.4788 9.0746 73.3091 9.84509 73.3091 10.7012C73.3091 11.5573 73.4788 12.3278 73.8182 13.0127C74.1576 13.7832 74.5818 14.3824 75.0909 14.8961C75.6 15.4097 76.2788 15.9234 76.9576 16.1802C77.6364 16.5227 78.4848 16.6939 79.2485 16.6939H103.091V13.0127H83.2364V8.38972H107.758V21.4881H79.2485ZM154.848 -8.31783e-05H159.515V21.4881H154.848V13.0983H124.558V21.4881H119.891V-8.31783e-05H124.558V8.38972H154.848V-8.31783e-05ZM230.618 21.4881C229.43 21.4881 228.327 21.2312 227.309 20.8032C226.291 20.3751 225.358 19.7759 224.594 18.9198C223.83 18.1493 223.236 17.2076 222.727 16.1802C222.303 15.1529 222.048 14.04 222.048 12.8414V8.64655C222.048 7.448 222.303 6.33507 222.727 5.30775C223.152 4.28043 223.745 3.33871 224.594 2.56822C225.358 1.79773 226.291 1.19846 227.309 0.684798C228.327 0.256747 229.43 -8.31783e-05 230.618 -8.31783e-05H252.679C253.867 -8.31783e-05 254.97 0.256747 255.988 0.684798C257.006 1.11285 257.939 1.79773 258.703 2.56822C259.467 3.33871 260.061 4.28043 260.57 5.30775C260.994 6.33507 261.248 7.448 261.248 8.64655V12.8414C261.248 14.04 260.994 15.1529 260.57 16.1802C260.145 17.2076 259.552 18.1493 258.703 18.9198C257.939 19.6903 257.006 20.2895 255.988 20.8032C254.97 21.2312 253.867 21.4881 252.679 21.4881H230.618ZM230.618 4.70848C230.109 4.70848 229.6 4.79409 229.091 5.05092C228.582 5.22214 228.158 5.56458 227.818 5.90702C227.479 6.24946 227.224 6.67751 226.97 7.19117C226.8 7.61922 226.63 8.21849 226.63 8.73216V13.0127C226.63 13.5263 226.715 14.04 226.97 14.5536C227.139 14.9817 227.479 15.4097 227.818 15.8378C228.158 16.1802 228.582 16.5227 229.091 16.6939C229.6 16.8651 230.109 17.0363 230.618 17.0363H252.679C253.188 17.0363 253.697 16.9507 254.206 16.6939C254.63 16.5227 255.055 16.1802 255.479 15.8378C255.818 15.4954 256.073 15.0673 256.327 14.5536C256.497 14.1256 256.667 13.5263 256.667 13.0127V8.73216C256.667 8.21849 256.582 7.70483 256.327 7.19117C256.158 6.76312 255.818 6.33507 255.479 5.90702C255.139 5.56458 254.715 5.22214 254.206 5.05092C253.782 4.8797 253.273 4.70848 252.679 4.70848H230.618ZM304.012 21.4881L298.667 16.2659H277.964V21.4881H273.297V11.5573H304.861C305.285 11.5573 305.794 11.4717 306.218 11.3005C306.642 11.1292 306.982 10.8724 307.321 10.53C307.661 10.1875 307.83 9.84509 308.085 9.41704C308.255 8.98899 308.339 8.56094 308.339 8.04727C308.339 7.61922 308.255 7.10556 308.085 6.67751C307.915 6.24946 307.661 5.90702 307.321 5.56458C306.982 5.22214 306.642 4.96531 306.218 4.79409C305.794 4.62287 305.37 4.53726 304.861 4.53726H273.297V-8.31783e-05H304.861C305.964 -8.31783e-05 306.982 0.256747 308 0.684798C308.933 1.11285 309.782 1.71212 310.545 2.397C311.309 3.16749 311.818 4.0236 312.242 4.96531C312.667 5.99263 312.921 7.01995 312.921 8.13288C312.921 9.24582 312.752 10.1875 312.327 11.2149C311.903 12.1566 311.394 13.0127 310.715 13.6975C310.036 14.468 309.273 14.9817 308.339 15.4954C307.406 15.9234 306.388 16.1802 305.37 16.2659L310.715 21.4881H304.012ZM342.109 10.0163L363.661 0.684798V21.4025H359.164V7.61922L342.109 14.9817L325.055 7.61922V21.4881H320.558V0.770408L342.109 10.0163ZM382.242 21.4881H375.794L397.855 -8.31783e-05L420 21.4881H413.552L397.855 6.24946L382.242 21.4881Z" fill="#515975"/>
<path opacity="0.5" fill-rule="evenodd" clip-rule="evenodd" d="M20.4485 47V40.8361H8.06061V42.3771H18.9212V45.459H5.34545C3.22424 45.459 1.52727 43.7468 1.52727 41.6066C1.52727 39.4663 3.22424 37.7541 5.34545 37.7541H20.4485V36.2131H5.34545C2.37576 36.2131 0 38.6102 0 41.6066C0 44.6029 2.37576 47 5.34545 47H20.4485ZM119.721 40.2368C119.721 38.0966 117.939 36.2987 115.818 36.2987H99.0182V37.8397H115.818C117.091 37.8397 118.194 38.9527 118.194 40.2368C118.194 41.521 117.091 42.6339 115.818 42.6339H99.0182V47H100.545V44.1749H112.679L115.648 47H117.855L114.885 44.1749H115.903C118.024 44.1749 119.721 42.3771 119.721 40.2368ZM214.582 47C216.873 47 218.739 45.1166 218.739 42.8051V40.4936C218.739 38.1822 216.873 36.2987 214.582 36.2987H202.448C200.158 36.2987 198.291 38.1822 198.291 40.4936V42.8051C198.291 45.1166 200.158 47 202.448 47H214.582ZM214.582 37.8397C216.024 37.8397 217.212 39.0383 217.212 40.4936V42.8051C217.212 44.2605 216.024 45.459 214.582 45.459H202.448C201.006 45.459 199.818 44.2605 199.818 42.8051V40.4936C199.818 39.0383 201.006 37.8397 202.448 37.8397H214.582ZM313.6 47C315.891 47 317.758 45.1166 317.758 42.8051V36.2987H316.23V42.8051C316.23 44.2605 315.042 45.459 313.6 45.459H301.467C300.024 45.459 298.836 44.2605 298.836 42.8051V36.2987H297.309V42.8051C297.309 45.1166 299.176 47 301.467 47H313.6ZM397.939 47V44.1749H413.212C415.333 44.1749 417.115 42.3771 417.115 40.2368C417.115 38.0966 415.333 36.2987 413.212 36.2987H396.412V37.8397H413.212C414.485 37.8397 415.588 38.9527 415.588 40.2368C415.588 41.521 414.485 42.6339 413.212 42.6339H396.412V47H397.939Z" fill="white"/>
</g>
<defs>
<clipPath id="clip0">
<rect width="420" height="47" fill="white"/>
</clipPath>
</defs>
</svg>
