<svg width="522" height="473" viewBox="0 0 522 473" fill="none" xmlns="http://www.w3.org/2000/svg">
<path d="M209.774 76.3122L275.702 37.9895L209.774 0L143.512 37.9895L209.774 76.3122Z" fill="#BCD5FF"/>
<path d="M207.111 255.263L134.855 213.274C134.189 212.941 133.523 211.941 133.523 210.942C133.523 209.942 133.856 209.275 134.855 208.609L207.111 166.954C208.776 165.954 210.773 165.954 212.438 166.954L284.694 208.609C285.36 208.942 286.026 209.942 286.026 210.942C286.026 211.941 285.693 212.608 284.694 213.274L212.105 255.263C211.439 255.596 210.44 255.929 209.442 255.929C208.776 255.929 207.777 255.596 207.111 255.263ZM207.777 168.953L135.854 210.608C135.521 210.942 135.521 210.942 135.521 211.275C135.521 211.275 135.521 211.608 135.854 211.941L208.11 253.597C209.109 254.263 210.44 254.263 211.439 253.597L283.695 211.941C284.028 211.608 284.028 211.608 284.028 211.275C284.028 211.275 284.028 210.942 283.695 210.608L211.439 168.953C210.773 168.62 210.44 168.62 209.775 168.62C209.109 168.287 208.443 168.62 207.777 168.953Z" fill="url(#paint0_linear)"/>
<g opacity="0.67">
<path opacity="0.67" d="M209.774 243.599L265.38 211.275L209.774 178.951L153.834 211.275L209.774 243.599Z" fill="#242993"/>
</g>
<path d="M209.774 222.605L275.702 184.616L209.774 146.293L143.512 184.616L209.774 222.605Z" fill="white"/>
<path d="M143.512 37.9895V184.616L209.774 222.605V76.3122L143.512 37.9895Z" fill="url(#paint1_linear)"/>
<path d="M275.704 37.9895V184.616L209.775 222.605V76.3122L275.704 37.9895Z" fill="#242993"/>
<g opacity="0.51">
<path opacity="0.51" d="M271.04 47.9868V179.284L214.102 212.275V80.9776L271.04 47.9868Z" fill="#4553C7"/>
</g>
<path d="M153.502 73.6463V77.312L199.785 103.971V100.306L153.502 73.6463Z" fill="#4553C7"/>
<path d="M153.502 89.9751V93.6408L199.785 120.3V116.634L153.502 89.9751Z" fill="#4553C7"/>
<path d="M153.502 106.304V109.97L199.785 136.962V132.963L153.502 106.304Z" fill="#4553C7"/>
<path d="M153.502 122.633V126.632L199.785 153.291V149.292L153.502 122.633Z" fill="#4553C7"/>
<path d="M153.502 138.962V142.96L199.785 169.62V165.621L153.502 138.962Z" fill="#4553C7"/>
<path d="M153.502 155.29V159.289L199.785 185.949V181.95L153.502 155.29Z" fill="#4553C7"/>
<path d="M209.775 66.315H227.09L275.704 37.9895L222.761 7.66455H209.775V66.315Z" fill="url(#paint2_linear)"/>
<path opacity="0.78" d="M209.775 66.315H227.09L275.704 37.9895L222.761 7.66455H209.775V66.315Z" fill="url(#paint3_linear)"/>
<path d="M209.774 62.9826L257.39 35.3236L209.774 7.66455L161.826 35.3236L209.774 62.9826Z" fill="url(#paint4_linear)"/>
<path d="M161.826 35.3236V38.656L209.774 66.315V62.9826L161.826 35.3236Z" fill="url(#paint5_linear)"/>
<path d="M257.393 35.3236V38.656L209.777 66.315V62.9826L257.393 35.3236Z" fill="url(#paint6_linear)"/>
<path d="M228.091 35.6568L230.422 34.3238L230.089 33.3241L210.443 21.9939L207.779 23.3269L208.112 23.9933L228.091 35.6568Z" fill="#3F38FC"/>
<path d="M210.44 22.9936L208.109 23.9934L206.777 23.3269L210.44 21.3274L231.75 33.6574L230.419 34.3238L210.44 22.9936Z" fill="url(#paint7_linear)"/>
<path d="M221.761 39.3225L223.758 37.9895V36.9898L204.113 25.6596L201.449 26.9925L201.782 27.9923L221.761 39.3225Z" fill="#3F38FC"/>
<path d="M203.779 26.6593L201.781 27.9923L200.449 26.9926L203.779 24.9931L225.089 37.323L223.757 37.9895L203.779 26.6593Z" fill="url(#paint8_linear)"/>
<path d="M215.433 42.9881L217.431 41.9884L217.098 40.9886L197.453 29.3252L194.789 30.6582L195.455 31.6579L215.433 42.9881Z" fill="#3F38FC"/>
<path d="M197.453 30.3249L195.455 31.6579L194.123 30.6582L197.453 28.6587L218.763 40.9887L217.431 41.9884L197.453 30.3249Z" fill="url(#paint9_linear)"/>
<path d="M208.776 46.6538L211.107 45.654L210.774 44.6543L191.129 32.9909L188.465 34.3238L188.798 35.3236L208.776 46.6538Z" fill="#3F38FC"/>
<path d="M191.126 33.9906L188.795 35.3236L187.463 34.3239L191.126 32.3244L212.436 44.6543L211.104 45.654L191.126 33.9906Z" fill="url(#paint10_linear)"/>
<g opacity="0.51">
<path opacity="0.51" d="M275.704 161.289L209.775 121.633V76.3122L275.704 37.9895V161.289Z" fill="#4553C7"/>
</g>
<path d="M212.102 82.9771C212.102 81.3109 213.433 79.3114 214.765 78.3117C215.431 77.9785 216.097 77.9785 216.763 77.9785L218.761 78.9782H217.762C217.762 79.3114 217.762 79.3114 217.762 79.6447C217.762 81.3109 216.43 83.3103 215.098 84.31C214.765 84.31 214.765 84.6433 214.432 84.6433L215.098 85.643L213.1 84.6433C212.435 84.31 212.102 83.6436 212.102 82.9771Z" fill="url(#paint11_linear)"/>
<path d="M214.098 83.9768C214.098 85.643 215.43 86.3095 216.761 85.643C218.093 84.6433 219.425 82.6438 219.425 80.9776C219.425 79.3114 218.093 78.6449 216.761 79.3114C215.43 80.3112 214.098 82.3106 214.098 83.9768Z" fill="url(#paint12_linear)"/>
<path d="M215.1 83.3104C215.1 84.3101 215.766 84.6433 216.764 84.3101C217.763 83.9768 218.429 82.6439 218.429 81.6442C218.429 80.6444 217.763 80.3112 216.764 80.6444C215.766 81.3109 215.1 82.3106 215.1 83.3104Z" fill="#3F38FC"/>
<path d="M267.715 48.9864C267.715 47.3202 269.047 45.3208 270.379 44.3211C271.045 43.9878 271.711 43.9878 272.377 43.9878L274.374 44.9875H273.375C273.375 45.3208 273.375 45.3208 273.375 45.654C273.375 47.3202 272.044 49.3197 270.712 50.3194C270.379 50.3194 270.379 50.6526 270.046 50.6526L270.712 51.6524L269.047 50.6526C268.048 50.3194 267.715 49.6529 267.715 48.9864Z" fill="url(#paint13_linear)"/>
<path d="M269.381 49.9862C269.381 51.6524 270.713 52.3189 272.045 51.6524C273.377 50.6527 274.708 48.6532 274.708 46.987C274.708 45.3208 273.377 44.6543 272.045 45.3208C270.713 46.3205 269.381 48.32 269.381 49.9862Z" fill="url(#paint14_linear)"/>
<path d="M270.713 49.3197C270.713 50.3194 271.379 50.6526 272.378 50.3194C273.377 49.9862 274.043 48.6532 274.043 47.6535C274.043 46.6537 273.377 46.3205 272.378 46.6537C271.379 46.987 270.713 48.3199 270.713 49.3197Z" fill="#3F38FC"/>
<path d="M212.102 213.941C212.102 212.275 213.433 210.275 214.765 209.275C215.431 208.942 216.097 208.942 216.763 208.942L218.761 209.942H217.762C217.762 210.275 217.762 210.275 217.762 210.608C217.762 212.275 216.43 214.274 215.098 215.274C214.765 215.274 214.765 215.607 214.432 215.607L215.098 216.607L213.1 215.607C212.435 215.274 212.102 214.941 212.102 213.941Z" fill="url(#paint15_linear)"/>
<path d="M214.098 214.941C214.098 216.607 215.43 217.273 216.761 216.607C218.093 215.607 219.425 213.608 219.425 211.941C219.425 210.275 218.093 209.609 216.761 210.275C215.43 211.275 214.098 213.274 214.098 214.941Z" fill="url(#paint16_linear)"/>
<path d="M215.1 214.274C215.1 215.274 215.766 215.607 216.764 215.274C217.763 214.941 218.429 213.608 218.429 212.608C218.429 211.608 217.763 211.275 216.764 211.608C215.766 212.275 215.1 213.608 215.1 214.274Z" fill="#3F38FC"/>
<path d="M267.715 179.95C267.715 178.284 269.047 176.285 270.379 175.285C271.045 174.952 271.711 174.952 272.377 174.952L274.374 175.951H273.375C273.375 176.285 273.375 176.285 273.375 176.618C273.375 178.284 272.044 180.284 270.712 181.283C270.379 181.283 270.379 181.616 270.046 181.616L270.712 182.616L269.047 181.616C268.048 181.283 267.715 180.617 267.715 179.95Z" fill="url(#paint17_linear)"/>
<path d="M269.381 180.95C269.381 182.616 270.713 183.283 272.045 182.616C273.377 181.616 274.708 179.617 274.708 177.951C274.708 176.285 273.377 175.618 272.045 176.285C270.713 177.284 269.381 179.284 269.381 180.95Z" fill="url(#paint18_linear)"/>
<path d="M270.713 180.283C270.713 181.283 271.379 181.616 272.378 181.283C273.377 180.95 274.043 179.617 274.043 178.617C274.043 177.618 273.377 177.284 272.378 177.618C271.379 178.284 270.713 179.284 270.713 180.283Z" fill="#3F38FC"/>
<path d="M327.314 145.293L393.575 106.97L327.314 68.9809L261.385 106.97L327.314 145.293Z" fill="#BCD5FF"/>
<path d="M324.984 323.91L252.728 282.255C252.062 281.922 251.396 280.922 251.396 279.923C251.396 278.923 251.729 278.256 252.728 277.59L324.984 235.935C326.649 234.935 328.646 234.935 330.311 235.935L402.567 277.59C403.233 277.923 403.899 278.923 403.899 279.923C403.899 280.922 403.566 281.589 402.567 282.255L329.978 323.91C329.312 324.244 328.314 324.577 327.315 324.577C326.649 324.577 325.65 324.577 324.984 323.91ZM325.65 237.601L253.727 279.256C253.394 279.589 253.061 279.923 253.061 279.923C253.061 279.923 253.061 280.256 253.394 280.589L325.65 322.244C326.649 322.911 327.981 322.911 328.979 322.244L401.235 280.589C401.568 280.256 401.568 280.256 401.568 279.923C401.568 279.589 401.568 279.589 401.235 279.256L328.979 237.601C328.314 237.268 327.981 237.268 327.315 237.268C326.982 237.268 326.316 237.268 325.65 237.601Z" fill="url(#paint19_linear)"/>
<g opacity="0.67">
<path opacity="0.67" d="M327.315 312.247L383.254 279.923L327.315 247.598L271.375 279.923L327.315 312.247Z" fill="#242993"/>
</g>
<path d="M327.314 291.586L393.575 253.263L327.314 215.274L261.385 253.263L327.314 291.586Z" fill="white"/>
<path d="M261.385 106.97V253.263L327.314 291.586V145.293L261.385 106.97Z" fill="url(#paint20_linear)"/>
<path d="M393.578 106.97V253.263L327.316 291.586V145.293L393.578 106.97Z" fill="#242993"/>
<g opacity="0.51">
<path opacity="0.51" d="M388.913 116.634V248.265L331.975 281.256V149.625L388.913 116.634Z" fill="#4553C7"/>
</g>
<path d="M271.375 142.294V146.293L317.658 172.952V168.953L271.375 142.294Z" fill="#4553C7"/>
<path d="M271.375 158.623V162.622L317.658 189.281V185.282L271.375 158.623Z" fill="#4553C7"/>
<path d="M271.375 174.952V178.951L317.658 205.61V201.944L271.375 174.952Z" fill="#4553C7"/>
<path d="M271.375 191.614V195.279L317.658 221.939V218.273L271.375 191.614Z" fill="#4553C7"/>
<path d="M271.375 207.943V211.608L317.658 238.267V234.602L271.375 207.943Z" fill="#4553C7"/>
<path d="M271.375 224.271V227.937L317.658 254.596V250.931L271.375 224.271Z" fill="#4553C7"/>
<path d="M327.316 134.963H344.964L393.578 106.97L340.635 76.3122H327.316V134.963Z" fill="url(#paint21_linear)"/>
<path opacity="0.78" d="M327.316 134.963H344.964L393.578 106.97L340.635 76.3122H327.316V134.963Z" fill="url(#paint22_linear)"/>
<path d="M327.316 131.63L375.265 103.971L327.316 76.3122L279.701 103.971L327.316 131.63Z" fill="url(#paint23_linear)"/>
<path d="M279.701 103.971V107.304L327.316 134.963V131.63L279.701 103.971Z" fill="url(#paint24_linear)"/>
<path d="M375.267 103.971V107.304L327.318 134.963V131.63L375.267 103.971Z" fill="url(#paint25_linear)"/>
<path d="M345.964 104.638L348.295 103.305L347.962 102.305L328.316 90.9748L325.652 92.3077L325.985 92.9742L345.964 104.638Z" fill="#3F38FC"/>
<path d="M328.313 91.6413L325.982 92.9742L324.65 92.3078L328.313 90.3083L349.623 102.638L348.292 103.305L328.313 91.6413Z" fill="url(#paint26_linear)"/>
<path d="M339.631 108.303L341.629 106.97V105.971L321.983 94.6405L318.986 95.9735L319.652 96.64L339.631 108.303Z" fill="#3F38FC"/>
<path d="M321.652 95.6402L319.654 96.6399L318.322 95.9734L321.652 93.974L342.962 106.304L341.63 106.97L321.652 95.6402Z" fill="url(#paint27_linear)"/>
<path d="M333.305 111.969L335.302 110.636L334.969 109.636L315.324 98.3061L312.66 99.6391L313.326 100.306L333.305 111.969Z" fill="#3F38FC"/>
<path d="M315.326 99.3058L313.328 100.306L311.996 99.6391L315.326 97.6396L336.636 109.97L335.304 110.636L315.326 99.3058Z" fill="url(#paint28_linear)"/>
<path d="M326.649 115.635L328.98 114.302L328.647 113.302L309.002 101.972L306.338 103.305L306.671 103.971L326.649 115.635Z" fill="#3F38FC"/>
<path d="M308.999 102.972L306.668 103.971L305.336 103.305L308.999 101.305L330.309 113.635L328.977 114.302L308.999 102.972Z" fill="url(#paint29_linear)"/>
<g opacity="0.51">
<path opacity="0.51" d="M393.578 230.27L327.316 190.281V145.293L393.578 106.97V230.27Z" fill="#4553C7"/>
</g>
<path d="M329.977 151.625C329.977 149.959 331.308 147.959 332.64 146.959C333.306 146.626 333.972 146.626 334.638 146.626L336.636 147.626H335.637C335.637 147.959 335.637 147.959 335.637 148.292C335.637 149.959 334.305 151.958 332.973 152.958C332.64 152.958 332.64 153.291 332.307 153.291L332.973 154.291L330.975 153.291C330.31 153.291 329.977 152.624 329.977 151.625Z" fill="url(#paint30_linear)"/>
<path d="M331.973 152.958C331.973 154.624 333.305 155.29 334.636 154.624C335.968 153.957 337.3 151.625 337.3 149.959C337.3 148.292 335.968 147.626 334.636 148.292C333.305 148.959 331.973 151.292 331.973 152.958Z" fill="url(#paint31_linear)"/>
<path d="M332.975 152.291C332.975 153.291 333.641 153.624 334.639 153.291C335.638 152.958 336.304 151.625 336.304 150.625C336.304 149.625 335.638 149.292 334.639 149.625C333.641 149.959 332.975 151.292 332.975 152.291Z" fill="#3F38FC"/>
<path d="M385.588 117.634C385.588 115.968 386.92 113.968 388.252 112.969C388.918 112.636 389.584 112.635 390.25 112.635L392.247 113.635H391.248C391.248 113.968 391.248 113.968 391.248 114.302C391.248 115.968 389.917 117.967 388.585 118.967C388.252 118.967 388.252 119.3 387.919 119.3L388.585 120.3L386.92 119.3C385.588 118.967 385.588 118.634 385.588 117.634Z" fill="url(#paint32_linear)"/>
<path d="M387.254 118.634C387.254 120.3 388.586 120.967 389.918 120.3C391.25 119.3 392.581 117.301 392.581 115.635C392.581 113.968 391.25 113.302 389.918 113.968C388.586 114.968 387.254 116.968 387.254 118.634Z" fill="url(#paint33_linear)"/>
<path d="M388.586 118.301C388.586 119.3 389.252 119.634 390.251 119.3C391.25 118.967 391.916 117.634 391.916 116.634C391.916 115.635 391.25 115.301 390.251 115.635C389.252 115.968 388.586 117.301 388.586 118.301Z" fill="#3F38FC"/>
<path d="M329.977 282.922C329.977 281.256 331.308 279.256 332.64 278.256C333.306 277.923 333.972 277.923 334.638 277.923L336.636 278.923H335.637C335.637 279.256 335.637 279.256 335.637 279.589C335.637 281.256 334.305 283.255 332.973 284.255C332.64 284.255 332.64 284.588 332.307 284.588L332.973 285.588L331.308 284.588C330.31 284.255 329.977 283.588 329.977 282.922Z" fill="url(#paint34_linear)"/>
<path d="M331.973 283.922C331.973 285.588 333.305 286.254 334.636 285.588C335.968 284.588 337.3 282.589 337.3 280.922C337.3 279.256 335.968 278.59 334.636 279.256C332.972 280.256 331.973 282.255 331.973 283.922Z" fill="url(#paint35_linear)"/>
<path d="M332.975 283.255C332.975 284.255 333.641 284.588 334.639 284.255C335.638 283.922 336.304 282.589 336.304 281.589C336.304 280.589 335.638 280.256 334.639 280.589C333.641 281.256 332.975 282.255 332.975 283.255Z" fill="#3F38FC"/>
<path d="M385.588 248.931C385.588 247.265 386.92 245.266 388.252 244.266C388.918 243.933 389.584 243.933 390.25 243.933L392.247 244.932H391.248C391.248 245.266 391.248 245.266 391.248 245.599C391.248 247.265 389.917 249.264 388.585 250.264C388.252 250.264 388.252 250.597 387.919 250.597L388.585 251.597L386.92 250.597C385.588 250.264 385.588 249.598 385.588 248.931Z" fill="url(#paint36_linear)"/>
<path d="M387.254 249.931C387.254 251.597 388.586 252.264 389.918 251.597C391.25 250.931 392.581 248.598 392.581 246.932C392.581 245.266 391.25 244.599 389.918 245.266C388.586 246.265 387.254 248.265 387.254 249.931Z" fill="url(#paint37_linear)"/>
<path d="M388.586 249.264C388.586 250.264 389.252 250.597 390.251 250.264C391.25 249.931 391.916 248.598 391.916 247.598C391.916 246.599 391.25 246.265 390.251 246.599C389.252 247.265 388.586 248.265 388.586 249.264Z" fill="#3F38FC"/>
<path d="M445.183 213.941L511.445 175.951L445.183 137.629L379.254 175.951L445.183 213.941Z" fill="#BCD5FF"/>
<path d="M442.521 392.891L370.265 351.236C369.6 350.903 368.934 349.903 368.934 348.904C368.934 347.904 369.267 347.237 370.265 346.571L442.521 304.916C444.186 303.916 446.184 303.916 447.848 304.916L520.104 346.571C520.77 346.904 521.436 347.904 521.436 348.904C521.436 349.903 521.103 350.57 520.104 351.236L447.848 392.891C447.183 393.225 446.184 393.558 445.185 393.558C444.519 393.558 443.52 393.225 442.521 392.891ZM443.52 306.582L371.264 348.237C370.931 348.57 370.931 348.57 370.931 348.904C370.931 349.237 370.931 349.237 371.264 349.57L443.52 391.225C444.519 391.892 445.851 391.892 446.85 391.225L519.105 349.57C519.438 349.237 519.438 349.237 519.438 348.904C519.438 348.57 519.438 348.57 519.105 348.237L446.85 306.582C446.184 306.249 445.851 306.249 445.185 306.249C444.519 306.249 444.186 306.249 443.52 306.582Z" fill="url(#paint38_linear)"/>
<g opacity="0.67">
<path opacity="0.67" d="M445.186 381.228L501.125 348.904L445.186 316.579L389.246 348.904L445.186 381.228Z" fill="#242993"/>
</g>
<path d="M445.183 360.567L511.445 322.244L445.183 284.255L379.254 322.244L445.183 360.567Z" fill="white"/>
<path d="M379.254 175.951V322.244L445.183 360.567V213.941L379.254 175.951Z" fill="url(#paint39_linear)"/>
<path d="M511.447 175.951V322.244L445.186 360.567V213.941L511.447 175.951Z" fill="#242993"/>
<g opacity="0.51">
<path opacity="0.51" d="M506.786 185.615V317.246L449.848 350.236V218.606L506.786 185.615Z" fill="#4553C7"/>
</g>
<path d="M389.244 211.275V214.941L435.528 241.933V237.934L389.244 211.275Z" fill="#4553C7"/>
<path d="M389.244 227.604V231.603L435.528 258.262V254.263L389.244 227.604Z" fill="#4553C7"/>
<path d="M389.244 243.933V247.931L435.528 274.591V270.592L389.244 243.933Z" fill="#4553C7"/>
<path d="M389.244 260.261V264.26L435.528 290.92V286.921L389.244 260.261Z" fill="#4553C7"/>
<path d="M389.244 276.59V280.589L435.528 307.248V303.25L389.244 276.59Z" fill="#4553C7"/>
<path d="M389.244 292.919V296.918L435.528 323.577V319.578L389.244 292.919Z" fill="#4553C7"/>
<path d="M445.188 203.944H462.502L511.449 175.951L458.506 145.293H445.188V203.944Z" fill="url(#paint40_linear)"/>
<path opacity="0.78" d="M445.186 203.944H462.5L511.447 175.951L458.505 145.293H445.186V203.944Z" fill="url(#paint41_linear)"/>
<path d="M445.187 200.611L493.135 172.952L445.187 145.293L397.238 172.952L445.187 200.611Z" fill="url(#paint42_linear)"/>
<path d="M397.238 172.952V176.285L445.186 203.944V200.611L397.238 172.952Z" fill="url(#paint43_linear)"/>
<path d="M493.136 172.952V176.285L445.188 203.944V200.611L493.136 172.952Z" fill="url(#paint44_linear)"/>
<path d="M463.839 173.285L465.837 172.286V171.286L446.191 159.622L443.527 160.955L443.86 161.955L463.839 173.285Z" fill="#3F38FC"/>
<path d="M446.19 160.622L443.859 161.955L442.527 160.955L446.19 158.956L467.5 171.286L465.835 172.286L446.19 160.622Z" fill="url(#paint45_linear)"/>
<path d="M457.51 176.951L459.507 175.951V174.952L439.862 163.288L436.865 164.621L437.531 165.621L457.51 176.951Z" fill="#3F38FC"/>
<path d="M439.529 164.288L437.531 165.621L436.199 164.621L439.529 162.622L460.839 174.952L459.507 175.951L439.529 164.288Z" fill="url(#paint46_linear)"/>
<path d="M450.854 180.95L453.185 179.617L452.852 178.617L433.207 167.287L430.543 168.287L431.209 169.287L450.854 180.95Z" fill="#3F38FC"/>
<path d="M433.204 167.954L431.206 169.287L429.541 168.62L433.204 166.621L454.514 178.951L453.182 179.617L433.204 167.954Z" fill="url(#paint47_linear)"/>
<path d="M444.524 184.616L446.522 183.283V182.283L426.877 170.953L424.213 172.286L424.546 172.952L444.524 184.616Z" fill="#3F38FC"/>
<path d="M426.876 171.619L424.545 172.952L423.213 172.286L426.876 170.286L448.186 182.616L446.521 183.283L426.876 171.619Z" fill="url(#paint48_linear)"/>
<g opacity="0.51">
<path opacity="0.51" d="M511.449 299.251L445.188 259.262V213.941L511.449 175.951V299.251Z" fill="#4553C7"/>
</g>
<path d="M447.846 220.606C447.846 218.939 449.178 216.94 450.51 215.94C451.175 215.607 451.841 215.607 452.507 215.607L454.505 216.607H453.506C453.506 216.94 453.506 216.94 453.506 217.273C453.506 218.939 452.174 220.939 450.842 221.939C450.509 221.939 450.509 222.272 450.177 222.272L450.842 223.272L449.178 222.272C448.179 221.939 447.846 221.272 447.846 220.606Z" fill="url(#paint49_linear)"/>
<path d="M449.842 221.605C449.842 223.272 451.174 223.938 452.506 223.272C453.837 222.272 455.169 220.272 455.169 218.606C455.169 216.94 453.837 216.274 452.506 216.94C450.841 217.94 449.842 219.939 449.842 221.605Z" fill="url(#paint50_linear)"/>
<path d="M450.844 220.939C450.844 221.939 451.51 222.272 452.509 221.939C453.508 221.605 454.174 220.272 454.174 219.273C454.174 218.273 453.508 217.94 452.509 218.273C451.51 218.606 450.844 219.939 450.844 220.939Z" fill="#3F38FC"/>
<path d="M503.125 186.615C503.125 184.949 504.457 182.949 505.789 181.95C506.455 181.616 507.121 181.616 507.787 181.616L509.785 182.616H508.786C508.786 182.949 508.786 182.949 508.786 183.283C508.786 184.949 507.454 186.948 506.122 187.948C505.789 187.948 505.789 188.281 505.456 188.281L506.122 189.281L504.457 188.281C503.458 187.948 503.125 187.282 503.125 186.615Z" fill="url(#paint51_linear)"/>
<path d="M505.121 187.615C505.121 189.281 506.453 189.948 507.785 189.281C509.117 188.615 510.449 186.282 510.449 184.616C510.449 182.949 509.117 182.283 507.785 182.949C506.453 183.949 505.121 185.949 505.121 187.615Z" fill="url(#paint52_linear)"/>
<path d="M506.123 186.948C506.123 187.948 506.789 188.281 507.788 187.948C508.787 187.615 509.453 186.282 509.453 185.282C509.453 184.282 508.787 183.949 507.788 184.282C506.789 184.949 506.123 185.949 506.123 186.948Z" fill="#3F38FC"/>
<path d="M447.846 351.57C447.846 349.903 449.178 347.904 450.51 346.904C451.175 346.571 451.841 346.571 452.507 346.571L454.505 347.571H453.506C453.506 347.904 453.506 347.904 453.506 348.237C453.506 349.903 452.174 351.903 450.842 352.902C450.509 352.902 450.509 353.236 450.177 353.236L450.842 354.235L449.178 353.236C448.179 353.236 447.846 352.569 447.846 351.57Z" fill="url(#paint53_linear)"/>
<path d="M449.842 352.903C449.842 354.569 451.174 355.235 452.506 354.569C453.837 353.569 455.169 351.57 455.169 349.903C455.169 348.237 453.837 347.571 452.506 348.237C450.841 349.237 449.842 351.236 449.842 352.903Z" fill="url(#paint54_linear)"/>
<path d="M450.844 352.236C450.844 353.236 451.51 353.569 452.509 353.236C453.508 352.903 454.174 351.57 454.174 350.57C454.174 349.57 453.508 349.237 452.509 349.57C451.51 349.903 450.844 351.236 450.844 352.236Z" fill="#3F38FC"/>
<path d="M503.125 317.579C503.125 315.913 504.457 313.913 505.789 312.913C506.455 312.58 507.121 312.58 507.787 312.58L509.785 313.58H508.786C508.786 313.913 508.786 313.913 508.786 314.246C508.786 315.913 507.454 317.912 506.122 318.912C505.789 318.912 505.789 319.245 505.456 319.245L506.122 320.245L504.457 319.245C503.458 319.245 503.125 318.579 503.125 317.579Z" fill="url(#paint55_linear)"/>
<path d="M505.121 318.912C505.121 320.578 506.453 321.245 507.785 320.578C509.117 319.578 510.449 317.579 510.449 315.913C510.449 314.246 509.117 313.58 507.785 314.246C506.453 314.913 505.121 317.246 505.121 318.912Z" fill="url(#paint56_linear)"/>
<path d="M506.123 318.245C506.123 319.245 506.789 319.578 507.788 319.245C508.787 318.912 509.453 317.579 509.453 316.579C509.453 315.579 508.787 315.246 507.788 315.579C506.789 315.913 506.123 317.246 506.123 318.245Z" fill="#3F38FC"/>
<path d="M76.2502 155.957L142.179 117.634L76.2502 79.6447L9.98828 117.634L76.2502 155.957Z" fill="#BCD5FF"/>
<path d="M73.5873 334.574L1.3319 292.919C0.332974 292.586 0 291.586 0 290.586C0 289.587 0.332974 288.92 1.3319 288.254L73.5873 246.599C75.2522 245.599 77.25 245.599 78.9149 246.599L151.17 288.254C151.836 288.587 152.502 289.587 152.502 290.586C152.502 291.586 152.169 292.253 151.17 292.919L78.9149 334.574C78.2489 334.907 77.25 335.241 76.2511 335.241C75.2522 335.241 74.2532 335.241 73.5873 334.574ZM74.5862 248.265L2.33082 289.92C1.99784 290.253 1.99785 290.253 1.99785 290.586C1.99785 290.586 1.99784 290.92 2.33082 291.253L74.5862 332.908C75.5851 333.575 76.917 333.575 77.916 332.908L150.171 291.253C150.504 290.92 150.504 290.92 150.504 290.586C150.504 290.586 150.504 290.253 150.171 289.92L77.916 248.265C77.25 247.932 76.917 247.932 76.2511 247.932C75.5851 247.932 74.9192 247.932 74.5862 248.265Z" fill="url(#paint57_linear)"/>
<g opacity="0.67">
<path opacity="0.67" d="M76.2502 322.911L132.19 290.586L76.2502 258.262L20.3105 290.586L76.2502 322.911Z" fill="#242993"/>
</g>
<path d="M76.2502 302.25L142.179 263.927L76.2502 225.938L9.98828 263.927L76.2502 302.25Z" fill="white"/>
<path d="M9.98828 117.634V263.927L76.2501 302.25V155.957L9.98828 117.634Z" fill="url(#paint58_linear)"/>
<path d="M142.181 117.634V263.927L76.252 302.25V155.957L142.181 117.634Z" fill="#242993"/>
<g opacity="0.51">
<path opacity="0.51" d="M137.85 127.298V258.928L80.5781 291.919V160.289L137.85 127.298Z" fill="#4553C7"/>
</g>
<path d="M19.9785 152.958V156.957L66.2619 183.616V179.617L19.9785 152.958Z" fill="#4553C7"/>
<path d="M19.9785 169.287V173.285L66.2619 199.945V195.946L19.9785 169.287Z" fill="#4553C7"/>
<path d="M19.9785 185.615V189.614L66.2619 216.274V212.608L19.9785 185.615Z" fill="#4553C7"/>
<path d="M19.9785 201.944V205.943L66.2619 232.602V228.937L19.9785 201.944Z" fill="#4553C7"/>
<path d="M19.9785 218.606V222.272L66.2619 248.931V245.266L19.9785 218.606Z" fill="#4553C7"/>
<path d="M19.9785 234.935V238.601L66.2619 265.26V261.594L19.9785 234.935Z" fill="#4553C7"/>
<path d="M76.252 145.626H93.5666L142.181 117.634L89.2379 86.976H76.252V145.626Z" fill="url(#paint59_linear)"/>
<path opacity="0.78" d="M76.252 145.626H93.5666L142.181 117.634L89.2379 86.976H76.252V145.626Z" fill="url(#paint60_linear)"/>
<path d="M76.251 142.294L124.199 114.635L76.251 86.976L28.3027 114.635L76.251 142.294Z" fill="url(#paint61_linear)"/>
<path d="M28.3027 114.635V117.967L76.251 145.626V142.294L28.3027 114.635Z" fill="url(#paint62_linear)"/>
<path d="M124.2 114.635V117.967L76.252 145.626V142.294L124.2 114.635Z" fill="url(#paint63_linear)"/>
<path d="M94.5653 115.301L96.8962 113.968L96.5632 112.969L76.9177 101.639L74.2539 102.638L74.9199 103.638L94.5653 115.301Z" fill="#3F38FC"/>
<path d="M76.9166 102.305L74.9188 103.638L73.2539 102.972L76.9166 100.972L98.227 113.302L96.8951 113.969L76.9166 102.305Z" fill="url(#paint64_linear)"/>
<path d="M88.2392 118.967L90.57 117.634L90.237 116.634L70.5915 105.304L67.9277 106.637L68.2607 107.304L88.2392 118.967Z" fill="#3F38FC"/>
<path d="M70.5885 105.971L68.2577 107.304L66.9258 106.637L70.5885 104.638L91.8989 116.968L90.567 117.634L70.5885 105.971Z" fill="url(#paint65_linear)"/>
<path d="M81.9081 122.633L83.9059 121.3V120.3L64.2604 108.97L61.2637 110.303L61.9296 110.969L81.9081 122.633Z" fill="#3F38FC"/>
<path d="M63.9294 109.97L61.9315 110.969L60.5996 110.303L63.9294 108.303L85.2397 120.633L83.9078 121.3L63.9294 109.97Z" fill="url(#paint66_linear)"/>
<path d="M75.2509 126.298L77.5817 124.965L77.2487 123.966L57.6032 112.636L54.9395 113.969L55.6054 114.635L75.2509 126.298Z" fill="#3F38FC"/>
<path d="M57.6022 113.635L55.6043 114.635L53.9395 113.969L57.6022 111.969L78.9125 124.299L77.5806 124.965L57.6022 113.635Z" fill="url(#paint67_linear)"/>
<g opacity="0.51">
<path opacity="0.51" d="M142.181 240.933L76.252 200.944V155.957L142.181 117.634V240.933Z" fill="#4553C7"/>
</g>
<path d="M78.9121 162.289C78.9121 160.622 80.244 158.623 81.5759 157.623C82.2418 157.29 82.9078 157.29 83.5737 157.29L85.5716 158.29H84.5727C84.5727 158.623 84.5727 158.623 84.5727 158.956C84.5727 160.622 83.2408 162.622 81.9089 163.621C81.5759 163.621 81.5759 163.955 81.2429 163.955L81.9089 164.954L80.244 163.955C78.9121 163.955 78.9121 163.288 78.9121 162.289Z" fill="url(#paint68_linear)"/>
<path d="M80.5781 163.621C80.5781 165.288 81.91 165.954 83.2419 165.288C84.5738 164.288 85.9057 162.288 85.9057 160.622C85.9057 158.956 84.5738 158.29 83.2419 158.956C81.91 159.623 80.5781 161.955 80.5781 163.621Z" fill="url(#paint69_linear)"/>
<path d="M81.9121 162.955C81.9121 163.955 82.5781 164.288 83.577 163.955C84.5759 163.621 85.2418 162.288 85.2418 161.289C85.2418 160.289 84.5759 159.956 83.577 160.289C82.5781 160.622 81.9121 161.955 81.9121 162.955Z" fill="#3F38FC"/>
<path d="M134.191 128.298C134.191 126.632 135.523 124.632 136.855 123.632C137.521 123.299 138.187 123.299 138.853 123.299L140.851 124.299H139.852C139.852 124.632 139.852 124.632 139.852 124.965C139.852 126.632 138.52 128.631 137.188 129.631C136.522 129.964 136.522 129.964 136.189 129.964L136.855 130.964L134.857 129.964C134.524 129.631 134.191 129.298 134.191 128.298Z" fill="url(#paint70_linear)"/>
<path d="M135.855 129.298C135.855 130.964 137.187 131.63 138.519 130.964C139.851 129.964 141.183 127.965 141.183 126.298C141.183 124.632 139.851 123.966 138.519 124.632C137.187 125.632 135.855 127.631 135.855 129.298Z" fill="url(#paint71_linear)"/>
<path d="M137.189 128.631C137.189 129.631 137.855 129.964 138.854 129.631C139.853 129.298 140.519 127.965 140.519 126.965C140.519 125.965 139.853 125.632 138.854 125.965C137.855 126.632 137.189 127.965 137.189 128.631Z" fill="#3F38FC"/>
<path d="M78.9121 293.586C78.9121 291.919 80.244 289.92 81.5759 288.92C82.2418 288.587 82.9078 288.587 83.5737 288.587L85.5716 289.587H84.5727C84.5727 289.92 84.5727 289.92 84.5727 290.253C84.5727 291.919 83.2408 293.919 81.9089 294.918C81.5759 294.918 81.5759 295.252 81.2429 295.252L81.9089 296.251L80.244 295.252C78.9121 294.918 78.9121 294.252 78.9121 293.586Z" fill="url(#paint72_linear)"/>
<path d="M80.5781 294.585C80.5781 296.251 81.91 296.918 83.2419 296.251C84.5738 295.585 85.9057 293.252 85.9057 291.586C85.9057 289.92 84.5738 289.253 83.2419 289.92C81.91 290.92 80.5781 292.919 80.5781 294.585Z" fill="url(#paint73_linear)"/>
<path d="M81.9121 293.919C81.9121 294.918 82.5781 295.252 83.577 294.919C84.5759 294.585 85.2418 293.252 85.2418 292.253C85.2418 291.253 84.5759 290.92 83.577 291.253C82.5781 291.919 81.9121 292.919 81.9121 293.919Z" fill="#3F38FC"/>
<path d="M134.191 259.595C134.191 257.929 135.523 255.929 136.855 254.93C137.521 254.596 138.187 254.596 138.853 254.596L140.851 255.596H139.852C139.852 255.929 139.852 255.929 139.852 256.263C139.852 257.929 138.52 259.928 137.188 260.928C136.855 260.928 136.855 261.261 136.522 261.261L137.188 262.261L135.523 261.261C134.524 260.928 134.191 260.261 134.191 259.595Z" fill="url(#paint74_linear)"/>
<path d="M135.855 260.595C135.855 262.261 137.187 262.927 138.519 262.261C139.851 261.261 141.183 259.262 141.183 257.595C141.183 255.929 139.851 255.263 138.519 255.929C137.187 256.929 135.855 258.928 135.855 260.595Z" fill="url(#paint75_linear)"/>
<path d="M137.189 259.928C137.189 260.928 137.855 261.261 138.854 260.928C139.853 260.595 140.519 259.262 140.519 258.262C140.519 257.262 139.853 256.929 138.854 257.262C137.855 257.929 137.189 258.928 137.189 259.928Z" fill="#3F38FC"/>
<path d="M194.123 224.605L260.052 186.615L194.123 148.292L127.861 186.615L194.123 224.605Z" fill="#BCD5FF"/>
<path d="M191.46 403.555L119.205 361.9C118.539 361.567 117.873 360.567 117.873 359.567C117.873 358.568 118.206 357.901 119.205 357.235L191.46 315.579C193.125 314.58 195.123 314.58 196.788 315.579L269.043 357.235C269.709 357.568 270.375 358.568 270.375 359.567C270.375 360.567 270.042 361.234 269.043 361.9L196.788 403.555C196.122 403.888 195.123 404.222 194.124 404.222C193.125 404.222 192.126 403.888 191.46 403.555ZM192.459 317.246L120.204 358.901C119.871 359.234 119.871 359.234 119.871 359.567C119.871 359.567 119.871 359.901 120.204 360.234L192.459 401.889C193.458 402.555 194.79 402.555 195.789 401.889L268.044 360.234C268.377 359.901 268.377 359.901 268.377 359.567C268.377 359.567 268.377 359.234 268.044 358.901L195.789 317.246C195.123 316.912 194.79 316.912 194.124 316.912C193.458 316.579 192.792 316.912 192.459 317.246Z" fill="url(#paint76_linear)"/>
<g opacity="0.67">
<path opacity="0.67" d="M194.125 391.892L250.065 359.567L194.125 327.243L138.186 359.567L194.125 391.892Z" fill="#242993"/>
</g>
<path d="M194.123 370.898L260.052 332.908L194.123 294.919L127.861 332.908L194.123 370.898Z" fill="white"/>
<path d="M127.861 186.615V332.908L194.123 370.898V224.605L127.861 186.615Z" fill="url(#paint77_linear)"/>
<path d="M260.054 186.615V332.908L194.125 370.898V224.605L260.054 186.615Z" fill="#242993"/>
<g opacity="0.51">
<path opacity="0.51" d="M255.39 196.279V327.909L198.451 360.9V229.27L255.39 196.279Z" fill="#4553C7"/>
</g>
<path d="M137.852 221.939V225.604L184.135 252.597V248.598L137.852 221.939Z" fill="#4553C7"/>
<path d="M137.852 238.267V242.266L184.135 268.926V264.927L137.852 238.267Z" fill="#4553C7"/>
<path d="M137.852 254.596V258.595L184.135 285.254V281.256L137.852 254.596Z" fill="#4553C7"/>
<path d="M137.852 270.925V274.924L184.135 301.583V297.584L137.852 270.925Z" fill="#4553C7"/>
<path d="M137.852 287.254V291.253L184.135 317.912V313.913L137.852 287.254Z" fill="#4553C7"/>
<path d="M137.852 303.583V307.582L184.135 334.241V330.242L137.852 303.583Z" fill="#4553C7"/>
<path d="M194.127 214.607H211.442L260.056 186.615L207.113 155.957H194.127V214.607Z" fill="url(#paint78_linear)"/>
<path opacity="0.78" d="M194.125 214.607H211.44L260.054 186.615L207.111 155.957H194.125V214.607Z" fill="url(#paint79_linear)"/>
<path d="M194.126 211.275L241.741 183.616L194.126 155.957L146.178 183.616L194.126 211.275Z" fill="url(#paint80_linear)"/>
<path d="M146.178 183.616V186.948L194.126 214.607V211.275L146.178 183.616Z" fill="url(#paint81_linear)"/>
<path d="M241.742 183.616V186.948L194.127 214.607V211.275L241.742 183.616Z" fill="url(#paint82_linear)"/>
<path d="M212.438 183.949L214.769 182.949L214.436 181.95L194.791 170.286L192.127 171.619L192.46 172.619L212.438 183.949Z" fill="#3F38FC"/>
<path d="M194.792 171.286L192.461 172.619L191.129 171.619L194.792 169.62L216.102 181.95L214.77 182.949L194.792 171.286Z" fill="url(#paint83_linear)"/>
<path d="M206.112 187.615L208.11 186.615V185.615L188.465 173.952L185.801 175.285L186.134 176.285L206.112 187.615Z" fill="#3F38FC"/>
<path d="M188.131 174.952L186.133 176.285L184.801 175.285L188.131 173.285L209.774 185.615L208.109 186.615L188.131 174.952Z" fill="url(#paint84_linear)"/>
<path d="M199.785 191.614L201.783 190.281V189.281L181.804 177.618L179.141 178.95L179.807 179.95L199.785 191.614Z" fill="#3F38FC"/>
<path d="M181.804 178.617L179.807 179.95L178.475 179.284L181.804 177.284L203.115 189.281L201.783 190.281L181.804 178.617Z" fill="url(#paint85_linear)"/>
<path d="M193.126 195.279L195.457 193.946L195.124 192.947L175.478 181.616L172.814 182.949L173.147 183.616L193.126 195.279Z" fill="#3F38FC"/>
<path d="M175.477 182.283L173.146 183.616L171.814 182.949L175.477 180.95L196.788 193.28L195.456 193.946L175.477 182.283Z" fill="url(#paint86_linear)"/>
<g opacity="0.51">
<path opacity="0.51" d="M260.056 309.914L194.127 269.925V224.605L260.056 186.615V309.914Z" fill="#4553C7"/>
</g>
<path d="M196.453 231.269C196.453 229.603 197.785 227.604 199.117 226.604C199.783 226.271 200.449 226.271 201.115 226.271L203.113 227.27H202.114C202.114 227.604 202.114 227.604 202.114 227.937C202.114 229.603 200.782 231.603 199.45 232.602C199.117 232.602 199.117 232.936 198.784 232.936L199.45 233.935L197.785 232.936C196.786 232.602 196.453 231.936 196.453 231.269Z" fill="url(#paint87_linear)"/>
<path d="M198.449 232.269C198.449 233.935 199.781 234.602 201.113 233.935C202.445 232.936 203.777 230.936 203.777 229.27C203.777 227.604 202.445 226.937 201.113 227.604C199.781 228.603 198.449 230.603 198.449 232.269Z" fill="url(#paint88_linear)"/>
<path d="M199.451 231.603C199.451 232.602 200.117 232.936 201.116 232.602C202.115 232.269 202.781 230.936 202.781 229.936C202.781 228.937 202.115 228.603 201.116 228.937C200.117 229.603 199.451 230.603 199.451 231.603Z" fill="#3F38FC"/>
<path d="M252.066 197.279C252.066 195.613 253.398 193.613 254.73 192.613C255.396 192.28 256.062 192.28 256.728 192.28L258.726 193.28H257.727C257.727 193.613 257.727 193.613 257.727 193.946C257.727 195.613 256.395 197.612 255.063 198.612C254.73 198.612 254.73 198.945 254.397 198.945L255.063 199.945L253.398 198.945C252.399 198.612 252.066 197.945 252.066 197.279Z" fill="url(#paint89_linear)"/>
<path d="M253.732 198.279C253.732 199.945 255.064 200.611 256.396 199.945C257.728 198.945 259.06 196.946 259.06 195.279C259.06 193.613 257.728 192.947 256.396 193.613C255.064 194.613 253.732 196.612 253.732 198.279Z" fill="url(#paint90_linear)"/>
<path d="M255.066 197.612C255.066 198.612 255.732 198.945 256.731 198.612C257.73 198.279 258.396 196.946 258.396 195.946C258.396 194.946 257.73 194.613 256.731 194.946C255.732 195.613 255.066 196.612 255.066 197.612Z" fill="#3F38FC"/>
<path d="M196.453 362.233C196.453 360.567 197.785 358.568 199.117 357.568C199.783 357.235 200.449 357.235 201.115 357.235L203.113 358.234H202.114C202.114 358.568 202.114 358.568 202.114 358.901C202.114 360.567 200.782 362.566 199.45 363.566C199.117 363.566 199.117 363.899 198.784 363.899L199.45 364.899L197.785 363.899C196.786 363.899 196.453 363.233 196.453 362.233Z" fill="url(#paint91_linear)"/>
<path d="M198.449 363.566C198.449 365.232 199.781 365.899 201.113 365.232C202.445 364.233 203.777 362.233 203.777 360.567C203.777 358.901 202.445 358.234 201.113 358.901C199.781 359.567 198.449 361.9 198.449 363.566Z" fill="url(#paint92_linear)"/>
<path d="M199.451 362.9C199.451 363.899 200.117 364.233 201.116 363.899C202.115 363.566 202.781 362.233 202.781 361.233C202.781 360.234 202.115 359.901 201.116 360.234C200.117 360.567 199.451 361.9 199.451 362.9Z" fill="#3F38FC"/>
<path d="M252.066 328.243C252.066 326.576 253.398 324.577 254.73 323.577C255.396 323.244 256.062 323.244 256.728 323.244L258.726 324.244H257.727C257.727 324.577 257.727 324.577 257.727 324.91C257.727 326.576 256.395 328.576 255.063 329.576C254.73 329.576 254.73 329.909 254.397 329.909L255.063 330.909L252.732 329.909C252.399 329.909 252.066 329.242 252.066 328.243Z" fill="url(#paint93_linear)"/>
<path d="M253.732 329.242C253.732 330.909 255.064 331.575 256.396 330.909C257.728 329.909 259.06 327.909 259.06 326.243C259.06 324.577 257.728 323.91 256.396 324.577C255.064 325.577 253.732 327.576 253.732 329.242Z" fill="url(#paint94_linear)"/>
<path d="M255.066 328.909C255.066 329.909 255.732 330.242 256.731 329.909C257.73 329.576 258.396 328.243 258.396 327.243C258.396 326.243 257.73 325.91 256.731 326.243C255.732 326.576 255.066 327.909 255.066 328.909Z" fill="#3F38FC"/>
<path d="M309.333 472.203L237.078 430.548C236.412 430.214 235.746 429.215 235.746 428.215C235.746 427.215 236.079 426.549 237.078 425.882L309.333 384.227C310.998 383.227 312.996 383.227 314.661 384.227L386.916 425.882C387.582 426.216 388.248 427.215 388.248 428.215C388.248 429.215 387.915 429.881 386.916 430.548L314.661 472.203C313.995 472.536 312.996 472.869 311.997 472.869C310.998 473.203 309.999 472.869 309.333 472.203ZM309.999 385.893L237.744 427.549C237.411 427.882 237.411 427.882 237.411 428.215C237.411 428.215 237.411 428.548 237.744 428.881L309.999 470.537C310.998 471.203 312.33 471.203 313.329 470.537L385.584 428.881C385.917 428.548 385.917 428.548 385.917 428.215C385.917 427.882 385.917 427.882 385.584 427.549L313.329 385.893C312.663 385.56 312.33 385.56 311.664 385.56C310.998 385.56 310.665 385.893 309.999 385.893Z" fill="url(#paint95_linear)"/>
<g opacity="0.67">
<path opacity="0.67" d="M311.996 460.539L367.603 428.215L311.996 395.891L256.057 428.215L311.996 460.539Z" fill="#242993"/>
</g>
<path d="M311.996 439.878L377.925 401.889L311.996 363.566L245.734 401.889L311.996 439.878Z" fill="white"/>
<path d="M245.734 255.263V401.889L311.996 439.878V293.586L245.734 255.263Z" fill="url(#paint96_linear)"/>
<path d="M377.927 255.263V401.889L311.998 439.878V293.586L377.927 255.263Z" fill="#242993"/>
<g opacity="0.51">
<path opacity="0.51" d="M373.263 264.927V396.557L316.324 429.548V297.918L373.263 264.927Z" fill="#4553C7"/>
</g>
<path d="M255.725 290.586V294.585L302.008 321.245V317.579L255.725 290.586Z" fill="#4553C7"/>
<path d="M311.996 293.586L377.925 255.263L311.996 217.273L245.734 255.263L311.996 293.586Z" fill="#BCD5FF"/>
<path d="M255.725 307.248V310.914L302.008 337.573V333.908L255.725 307.248Z" fill="#4553C7"/>
<path d="M255.725 323.577V327.243L302.008 353.902V350.237L255.725 323.577Z" fill="#4553C7"/>
<path d="M255.725 339.906V343.572L302.008 370.564V366.565L255.725 339.906Z" fill="#4553C7"/>
<path d="M255.725 356.235V359.901L302.008 386.893V382.894L255.725 356.235Z" fill="#4553C7"/>
<path d="M255.725 372.564V376.563L302.008 403.222V399.223L255.725 372.564Z" fill="#4553C7"/>
<path d="M311.998 283.588H329.313L377.927 255.263L324.984 224.938H311.998V283.588Z" fill="url(#paint97_linear)"/>
<path opacity="0.78" d="M311.998 283.588H329.313L377.927 255.263L324.984 224.938H311.998V283.588Z" fill="url(#paint98_linear)"/>
<path d="M311.995 280.256L359.61 252.597L311.995 224.938L264.047 252.597L311.995 280.256Z" fill="url(#paint99_linear)"/>
<path d="M264.047 252.597V255.929L311.995 283.588V280.256L264.047 252.597Z" fill="url(#paint100_linear)"/>
<path d="M359.611 252.597V255.929L311.996 283.588V280.256L359.611 252.597Z" fill="url(#paint101_linear)"/>
<path d="M330.311 252.93L332.642 251.597L332.309 250.597L312.664 239.267L310 240.6L310.333 241.267L330.311 252.93Z" fill="#3F38FC"/>
<path d="M312.663 240.267L310.332 241.267L309 240.6L312.663 238.601L333.973 250.931L332.641 251.597L312.663 240.267Z" fill="url(#paint102_linear)"/>
<path d="M323.983 256.596L325.981 255.263V254.263L306.336 242.933L303.672 244.266L304.005 244.932L323.983 256.596Z" fill="#3F38FC"/>
<path d="M306.002 243.933L304.004 244.932L302.672 244.266L306.002 242.266L327.312 254.596L325.98 255.263L306.002 243.933Z" fill="url(#paint103_linear)"/>
<path d="M317.656 260.261L319.654 258.928L319.321 257.929L299.676 246.599L297.012 247.931L297.678 248.931L317.656 260.261Z" fill="#3F38FC"/>
<path d="M299.675 247.598L297.678 248.931L296.346 247.931L299.675 245.932L320.986 258.262L319.654 258.928L299.675 247.598Z" fill="url(#paint104_linear)"/>
<path d="M310.999 263.927L313.33 262.927L312.997 261.928L293.351 250.264L290.688 251.597L291.02 252.597L310.999 263.927Z" fill="#3F38FC"/>
<path d="M293.348 251.264L291.017 252.597L289.686 251.597L293.348 249.598L314.659 261.928L313.327 262.927L293.348 251.264Z" fill="url(#paint105_linear)"/>
<g opacity="0.51">
<path opacity="0.51" d="M377.927 378.562L311.998 338.906V293.586L377.927 255.263V378.562Z" fill="#4553C7"/>
</g>
<path d="M314.326 300.25C314.326 298.584 315.658 296.585 316.99 295.585C317.656 295.252 318.322 295.252 318.988 295.252L320.986 296.251L319.654 296.585C319.654 296.918 319.654 296.918 319.654 297.251C319.654 298.917 318.322 300.917 316.99 301.917C316.657 301.917 316.657 302.25 316.324 302.25L316.99 303.25L315.325 302.25C314.659 301.583 314.326 300.917 314.326 300.25Z" fill="url(#paint106_linear)"/>
<path d="M316.322 301.25C316.322 302.916 317.654 303.583 318.986 302.916C320.318 301.917 321.65 299.917 321.65 298.251C321.65 296.585 320.318 295.918 318.986 296.585C317.654 297.584 316.322 299.584 316.322 301.25Z" fill="url(#paint107_linear)"/>
<path d="M317.324 300.584C317.324 301.583 317.99 301.917 318.989 301.583C319.988 301.25 320.654 299.917 320.654 298.917C320.654 297.918 319.988 297.584 318.989 297.918C317.99 298.251 317.324 299.584 317.324 300.584Z" fill="#3F38FC"/>
<path d="M369.938 265.927C369.938 264.26 371.269 262.261 372.601 261.261C373.267 260.928 373.933 260.928 374.599 260.928L376.597 261.928H375.598C375.598 262.261 375.598 262.261 375.598 262.594C375.598 264.26 374.266 266.26 372.934 267.259C372.601 267.259 372.601 267.593 372.268 267.593L372.934 268.592L371.269 267.593C370.27 267.593 369.938 266.926 369.938 265.927Z" fill="url(#paint108_linear)"/>
<path d="M371.604 267.259C371.604 268.926 372.935 269.592 374.267 268.926C375.599 267.926 376.931 265.927 376.931 264.26C376.931 262.594 375.599 261.928 374.267 262.594C372.935 263.594 371.604 265.593 371.604 267.259Z" fill="url(#paint109_linear)"/>
<path d="M372.936 266.593C372.936 267.593 373.601 267.926 374.6 267.593C375.599 267.259 376.265 265.927 376.265 264.927C376.265 263.927 375.599 263.594 374.6 263.927C373.601 264.26 372.936 265.593 372.936 266.593Z" fill="#3F38FC"/>
<path d="M314.326 431.214C314.326 429.548 315.658 427.549 316.99 426.549C317.656 426.216 318.322 426.216 318.988 426.216L320.986 427.215H319.987C319.987 427.549 319.987 427.549 319.987 427.882C319.987 429.548 318.655 431.547 317.323 432.547C316.99 432.547 316.99 432.88 316.657 432.88L317.323 433.88L315.658 432.88C314.659 432.547 314.326 432.214 314.326 431.214Z" fill="url(#paint110_linear)"/>
<path d="M316.322 432.214C316.322 433.88 317.654 434.547 318.986 433.88C320.318 433.214 321.65 430.881 321.65 429.215C321.65 427.548 320.318 426.882 318.986 427.548C317.654 428.548 316.322 430.548 316.322 432.214Z" fill="url(#paint111_linear)"/>
<path d="M317.324 431.547C317.324 432.547 317.99 432.88 318.989 432.547C319.988 432.214 320.654 430.881 320.654 429.881C320.654 428.881 319.988 428.548 318.989 428.881C317.99 429.548 317.324 430.548 317.324 431.547Z" fill="#3F38FC"/>
<path d="M369.938 397.224C369.938 395.557 371.269 393.558 372.601 392.558C373.267 392.225 373.933 392.225 374.599 392.225L376.597 393.225H375.598C375.598 393.558 375.598 393.558 375.598 393.891C375.598 395.557 374.266 397.557 372.934 398.556C372.601 398.556 372.601 398.89 372.268 398.89L372.934 399.889L371.269 398.89C370.27 398.556 369.938 397.89 369.938 397.224Z" fill="url(#paint112_linear)"/>
<path d="M371.604 398.223C371.604 399.889 372.935 400.556 374.267 399.889C375.599 398.89 376.931 396.89 376.931 395.224C376.931 393.558 375.599 392.891 374.267 393.558C372.935 394.224 371.604 396.557 371.604 398.223Z" fill="url(#paint113_linear)"/>
<path d="M372.936 397.557C372.936 398.557 373.601 398.89 374.6 398.556C375.599 398.223 376.265 396.89 376.265 395.891C376.265 394.891 375.599 394.558 374.6 394.891C373.601 395.557 372.936 396.557 372.936 397.557Z" fill="#3F38FC"/>
<defs>
<linearGradient id="paint0_linear" x1="285.763" y1="211.135" x2="133.465" y2="211.135" gradientUnits="userSpaceOnUse">
<stop stop-color="#5778FF"/>
<stop offset="0.0725764" stop-color="#5489FF"/>
<stop offset="0.2791" stop-color="#4EB3FF"/>
<stop offset="0.4801" stop-color="#49D4FF"/>
<stop offset="0.6715" stop-color="#45ECFF"/>
<stop offset="0.8493" stop-color="#43FAFF"/>
<stop offset="1" stop-color="#42FFFF"/>
</linearGradient>
<linearGradient id="paint1_linear" x1="176.609" y1="181.462" x2="176.609" y2="42.0547" gradientUnits="userSpaceOnUse">
<stop stop-color="#C0D6FF"/>
<stop offset="0.2978" stop-color="#C5DBFF"/>
<stop offset="0.6488" stop-color="#D3E9FF"/>
<stop offset="1" stop-color="#E9FFFF"/>
</linearGradient>
<linearGradient id="paint2_linear" x1="275.622" y1="36.9001" x2="209.614" y2="36.9001" gradientUnits="userSpaceOnUse">
<stop/>
<stop offset="0.0469354" stop-color="#2F2F2F"/>
<stop offset="0.0981487" stop-color="#5A5A5A"/>
<stop offset="0.155" stop-color="#828282"/>
<stop offset="0.2161" stop-color="#A4A4A4"/>
<stop offset="0.2828" stop-color="#C0C0C0"/>
<stop offset="0.3571" stop-color="#D7D7D7"/>
<stop offset="0.442" stop-color="#E9E9E9"/>
<stop offset="0.5443" stop-color="#F6F6F6"/>
<stop offset="0.6813" stop-color="#FDFDFD"/>
<stop offset="1" stop-color="white"/>
</linearGradient>
<linearGradient id="paint3_linear" x1="275.622" y1="36.9001" x2="209.614" y2="36.9001" gradientUnits="userSpaceOnUse">
<stop stop-color="#E9FFFF"/>
<stop offset="0.0373936" stop-color="#D3EBFF"/>
<stop offset="0.1056" stop-color="#B2CCFF"/>
<stop offset="0.1817" stop-color="#96B2FF"/>
<stop offset="0.2663" stop-color="#7F9DFF"/>
<stop offset="0.3632" stop-color="#6D8CFF"/>
<stop offset="0.4798" stop-color="#6081FF"/>
<stop offset="0.6363" stop-color="#597AFF"/>
<stop offset="1" stop-color="#5778FF"/>
</linearGradient>
<linearGradient id="paint4_linear" x1="257.507" y1="35.2176" x2="161.72" y2="35.2176" gradientUnits="userSpaceOnUse">
<stop stop-color="#C0D6FF"/>
<stop offset="0.2978" stop-color="#C5DBFF"/>
<stop offset="0.6488" stop-color="#D3E9FF"/>
<stop offset="1" stop-color="#E9FFFF"/>
</linearGradient>
<linearGradient id="paint5_linear" x1="179.485" y1="61.5393" x2="191.143" y2="41.2007" gradientUnits="userSpaceOnUse">
<stop stop-color="#C0D6FF"/>
<stop offset="0.2978" stop-color="#C5DBFF"/>
<stop offset="0.6488" stop-color="#D3E9FF"/>
<stop offset="1" stop-color="#E9FFFF"/>
</linearGradient>
<linearGradient id="paint6_linear" x1="233.563" y1="51.885" x2="233.563" y2="20.8456" gradientUnits="userSpaceOnUse">
<stop stop-color="#5778FF"/>
<stop offset="0.1779" stop-color="#5C7DFF"/>
<stop offset="0.3876" stop-color="#6A8AFF"/>
<stop offset="0.6134" stop-color="#82A0FF"/>
<stop offset="0.849" stop-color="#A3BEFF"/>
<stop offset="1" stop-color="#BCD5FF"/>
</linearGradient>
<linearGradient id="paint7_linear" x1="231.673" y1="27.8829" x2="206.87" y2="27.8829" gradientUnits="userSpaceOnUse">
<stop stop-color="#5778FF"/>
<stop offset="0.1779" stop-color="#5C7DFF"/>
<stop offset="0.3876" stop-color="#6A8AFF"/>
<stop offset="0.6134" stop-color="#82A0FF"/>
<stop offset="0.849" stop-color="#A3BEFF"/>
<stop offset="1" stop-color="#BCD5FF"/>
</linearGradient>
<linearGradient id="paint8_linear" x1="225.233" y1="31.5916" x2="200.429" y2="31.5916" gradientUnits="userSpaceOnUse">
<stop stop-color="#5778FF"/>
<stop offset="0.1779" stop-color="#5C7DFF"/>
<stop offset="0.3876" stop-color="#6A8AFF"/>
<stop offset="0.6134" stop-color="#82A0FF"/>
<stop offset="0.849" stop-color="#A3BEFF"/>
<stop offset="1" stop-color="#BCD5FF"/>
</linearGradient>
<linearGradient id="paint9_linear" x1="218.795" y1="35.2999" x2="193.991" y2="35.2999" gradientUnits="userSpaceOnUse">
<stop stop-color="#5778FF"/>
<stop offset="0.1779" stop-color="#5C7DFF"/>
<stop offset="0.3876" stop-color="#6A8AFF"/>
<stop offset="0.6134" stop-color="#82A0FF"/>
<stop offset="0.849" stop-color="#A3BEFF"/>
<stop offset="1" stop-color="#BCD5FF"/>
</linearGradient>
<linearGradient id="paint10_linear" x1="212.356" y1="39.0086" x2="187.552" y2="39.0086" gradientUnits="userSpaceOnUse">
<stop stop-color="#5778FF"/>
<stop offset="0.1779" stop-color="#5C7DFF"/>
<stop offset="0.3876" stop-color="#6A8AFF"/>
<stop offset="0.6134" stop-color="#82A0FF"/>
<stop offset="0.849" stop-color="#A3BEFF"/>
<stop offset="1" stop-color="#BCD5FF"/>
</linearGradient>
<linearGradient id="paint11_linear" x1="218.576" y1="81.7941" x2="212.224" y2="81.7941" gradientUnits="userSpaceOnUse">
<stop stop-color="#C0D6FF"/>
<stop offset="0.2978" stop-color="#C5DBFF"/>
<stop offset="0.6488" stop-color="#D3E9FF"/>
<stop offset="1" stop-color="#E9FFFF"/>
</linearGradient>
<linearGradient id="paint12_linear" x1="219.347" y1="82.4416" x2="214.095" y2="82.4416" gradientUnits="userSpaceOnUse">
<stop stop-color="#5778FF"/>
<stop offset="0.1779" stop-color="#5C7DFF"/>
<stop offset="0.3876" stop-color="#6A8AFF"/>
<stop offset="0.6134" stop-color="#82A0FF"/>
<stop offset="0.849" stop-color="#A3BEFF"/>
<stop offset="1" stop-color="#BCD5FF"/>
</linearGradient>
<linearGradient id="paint13_linear" x1="273.941" y1="47.7528" x2="267.59" y2="47.7528" gradientUnits="userSpaceOnUse">
<stop stop-color="#C0D6FF"/>
<stop offset="0.2978" stop-color="#C5DBFF"/>
<stop offset="0.6488" stop-color="#D3E9FF"/>
<stop offset="1" stop-color="#E9FFFF"/>
</linearGradient>
<linearGradient id="paint14_linear" x1="274.716" y1="48.4003" x2="269.463" y2="48.4003" gradientUnits="userSpaceOnUse">
<stop stop-color="#5778FF"/>
<stop offset="0.1779" stop-color="#5C7DFF"/>
<stop offset="0.3876" stop-color="#6A8AFF"/>
<stop offset="0.6134" stop-color="#82A0FF"/>
<stop offset="0.849" stop-color="#A3BEFF"/>
<stop offset="1" stop-color="#BCD5FF"/>
</linearGradient>
<linearGradient id="paint15_linear" x1="218.576" y1="212.908" x2="212.224" y2="212.908" gradientUnits="userSpaceOnUse">
<stop stop-color="#C0D6FF"/>
<stop offset="0.2978" stop-color="#C5DBFF"/>
<stop offset="0.6488" stop-color="#D3E9FF"/>
<stop offset="1" stop-color="#E9FFFF"/>
</linearGradient>
<linearGradient id="paint16_linear" x1="219.347" y1="213.556" x2="214.095" y2="213.556" gradientUnits="userSpaceOnUse">
<stop stop-color="#5778FF"/>
<stop offset="0.1779" stop-color="#5C7DFF"/>
<stop offset="0.3876" stop-color="#6A8AFF"/>
<stop offset="0.6134" stop-color="#82A0FF"/>
<stop offset="0.849" stop-color="#A3BEFF"/>
<stop offset="1" stop-color="#BCD5FF"/>
</linearGradient>
<linearGradient id="paint17_linear" x1="273.941" y1="178.866" x2="267.59" y2="178.866" gradientUnits="userSpaceOnUse">
<stop stop-color="#C0D6FF"/>
<stop offset="0.2978" stop-color="#C5DBFF"/>
<stop offset="0.6488" stop-color="#D3E9FF"/>
<stop offset="1" stop-color="#E9FFFF"/>
</linearGradient>
<linearGradient id="paint18_linear" x1="274.716" y1="179.514" x2="269.463" y2="179.514" gradientUnits="userSpaceOnUse">
<stop stop-color="#5778FF"/>
<stop offset="0.1779" stop-color="#5C7DFF"/>
<stop offset="0.3876" stop-color="#6A8AFF"/>
<stop offset="0.6134" stop-color="#82A0FF"/>
<stop offset="0.849" stop-color="#A3BEFF"/>
<stop offset="1" stop-color="#BCD5FF"/>
</linearGradient>
<linearGradient id="paint19_linear" x1="403.605" y1="279.997" x2="251.306" y2="279.997" gradientUnits="userSpaceOnUse">
<stop stop-color="#5778FF"/>
<stop offset="0.0725764" stop-color="#5489FF"/>
<stop offset="0.2791" stop-color="#4EB3FF"/>
<stop offset="0.4801" stop-color="#49D4FF"/>
<stop offset="0.6715" stop-color="#45ECFF"/>
<stop offset="0.8493" stop-color="#43FAFF"/>
<stop offset="1" stop-color="#42FFFF"/>
</linearGradient>
<linearGradient id="paint20_linear" x1="294.45" y1="250.323" x2="294.45" y2="110.916" gradientUnits="userSpaceOnUse">
<stop stop-color="#C0D6FF"/>
<stop offset="0.2978" stop-color="#C5DBFF"/>
<stop offset="0.6488" stop-color="#D3E9FF"/>
<stop offset="1" stop-color="#E9FFFF"/>
</linearGradient>
<linearGradient id="paint21_linear" x1="393.464" y1="105.762" x2="327.457" y2="105.762" gradientUnits="userSpaceOnUse">
<stop/>
<stop offset="0.0469354" stop-color="#2F2F2F"/>
<stop offset="0.0981487" stop-color="#5A5A5A"/>
<stop offset="0.155" stop-color="#828282"/>
<stop offset="0.2161" stop-color="#A4A4A4"/>
<stop offset="0.2828" stop-color="#C0C0C0"/>
<stop offset="0.3571" stop-color="#D7D7D7"/>
<stop offset="0.442" stop-color="#E9E9E9"/>
<stop offset="0.5443" stop-color="#F6F6F6"/>
<stop offset="0.6813" stop-color="#FDFDFD"/>
<stop offset="1" stop-color="white"/>
</linearGradient>
<linearGradient id="paint22_linear" x1="393.464" y1="105.762" x2="327.457" y2="105.762" gradientUnits="userSpaceOnUse">
<stop stop-color="#E9FFFF"/>
<stop offset="0.0373936" stop-color="#D3EBFF"/>
<stop offset="0.1056" stop-color="#B2CCFF"/>
<stop offset="0.1817" stop-color="#96B2FF"/>
<stop offset="0.2663" stop-color="#7F9DFF"/>
<stop offset="0.3632" stop-color="#6D8CFF"/>
<stop offset="0.4798" stop-color="#6081FF"/>
<stop offset="0.6363" stop-color="#597AFF"/>
<stop offset="1" stop-color="#5778FF"/>
</linearGradient>
<linearGradient id="paint23_linear" x1="375.351" y1="104.08" x2="279.563" y2="104.08" gradientUnits="userSpaceOnUse">
<stop stop-color="#C0D6FF"/>
<stop offset="0.2978" stop-color="#C5DBFF"/>
<stop offset="0.6488" stop-color="#D3E9FF"/>
<stop offset="1" stop-color="#E9FFFF"/>
</linearGradient>
<linearGradient id="paint24_linear" x1="297.328" y1="130.401" x2="308.986" y2="110.063" gradientUnits="userSpaceOnUse">
<stop stop-color="#C0D6FF"/>
<stop offset="0.2978" stop-color="#C5DBFF"/>
<stop offset="0.6488" stop-color="#D3E9FF"/>
<stop offset="1" stop-color="#E9FFFF"/>
</linearGradient>
<linearGradient id="paint25_linear" x1="351.405" y1="120.747" x2="351.405" y2="89.7075" gradientUnits="userSpaceOnUse">
<stop stop-color="#5778FF"/>
<stop offset="0.1779" stop-color="#5C7DFF"/>
<stop offset="0.3876" stop-color="#6A8AFF"/>
<stop offset="0.6134" stop-color="#82A0FF"/>
<stop offset="0.849" stop-color="#A3BEFF"/>
<stop offset="1" stop-color="#BCD5FF"/>
</linearGradient>
<linearGradient id="paint26_linear" x1="349.515" y1="96.7449" x2="324.711" y2="96.7449" gradientUnits="userSpaceOnUse">
<stop stop-color="#5778FF"/>
<stop offset="0.1779" stop-color="#5C7DFF"/>
<stop offset="0.3876" stop-color="#6A8AFF"/>
<stop offset="0.6134" stop-color="#82A0FF"/>
<stop offset="0.849" stop-color="#A3BEFF"/>
<stop offset="1" stop-color="#BCD5FF"/>
</linearGradient>
<linearGradient id="paint27_linear" x1="343.075" y1="100.453" x2="318.271" y2="100.453" gradientUnits="userSpaceOnUse">
<stop stop-color="#5778FF"/>
<stop offset="0.1779" stop-color="#5C7DFF"/>
<stop offset="0.3876" stop-color="#6A8AFF"/>
<stop offset="0.6134" stop-color="#82A0FF"/>
<stop offset="0.849" stop-color="#A3BEFF"/>
<stop offset="1" stop-color="#BCD5FF"/>
</linearGradient>
<linearGradient id="paint28_linear" x1="336.636" y1="104.162" x2="311.833" y2="104.162" gradientUnits="userSpaceOnUse">
<stop stop-color="#5778FF"/>
<stop offset="0.1779" stop-color="#5C7DFF"/>
<stop offset="0.3876" stop-color="#6A8AFF"/>
<stop offset="0.6134" stop-color="#82A0FF"/>
<stop offset="0.849" stop-color="#A3BEFF"/>
<stop offset="1" stop-color="#BCD5FF"/>
</linearGradient>
<linearGradient id="paint29_linear" x1="330.197" y1="107.87" x2="305.394" y2="107.87" gradientUnits="userSpaceOnUse">
<stop stop-color="#5778FF"/>
<stop offset="0.1779" stop-color="#5C7DFF"/>
<stop offset="0.3876" stop-color="#6A8AFF"/>
<stop offset="0.6134" stop-color="#82A0FF"/>
<stop offset="0.849" stop-color="#A3BEFF"/>
<stop offset="1" stop-color="#BCD5FF"/>
</linearGradient>
<linearGradient id="paint30_linear" x1="336.419" y1="150.656" x2="330.068" y2="150.656" gradientUnits="userSpaceOnUse">
<stop stop-color="#C0D6FF"/>
<stop offset="0.2978" stop-color="#C5DBFF"/>
<stop offset="0.6488" stop-color="#D3E9FF"/>
<stop offset="1" stop-color="#E9FFFF"/>
</linearGradient>
<linearGradient id="paint31_linear" x1="337.191" y1="151.304" x2="331.938" y2="151.304" gradientUnits="userSpaceOnUse">
<stop stop-color="#5778FF"/>
<stop offset="0.1779" stop-color="#5C7DFF"/>
<stop offset="0.3876" stop-color="#6A8AFF"/>
<stop offset="0.6134" stop-color="#82A0FF"/>
<stop offset="0.849" stop-color="#A3BEFF"/>
<stop offset="1" stop-color="#BCD5FF"/>
</linearGradient>
<linearGradient id="paint32_linear" x1="391.783" y1="116.615" x2="385.431" y2="116.615" gradientUnits="userSpaceOnUse">
<stop stop-color="#C0D6FF"/>
<stop offset="0.2978" stop-color="#C5DBFF"/>
<stop offset="0.6488" stop-color="#D3E9FF"/>
<stop offset="1" stop-color="#E9FFFF"/>
</linearGradient>
<linearGradient id="paint33_linear" x1="392.557" y1="117.262" x2="387.305" y2="117.262" gradientUnits="userSpaceOnUse">
<stop stop-color="#5778FF"/>
<stop offset="0.1779" stop-color="#5C7DFF"/>
<stop offset="0.3876" stop-color="#6A8AFF"/>
<stop offset="0.6134" stop-color="#82A0FF"/>
<stop offset="0.849" stop-color="#A3BEFF"/>
<stop offset="1" stop-color="#BCD5FF"/>
</linearGradient>
<linearGradient id="paint34_linear" x1="336.419" y1="281.77" x2="330.068" y2="281.77" gradientUnits="userSpaceOnUse">
<stop stop-color="#C0D6FF"/>
<stop offset="0.2978" stop-color="#C5DBFF"/>
<stop offset="0.6488" stop-color="#D3E9FF"/>
<stop offset="1" stop-color="#E9FFFF"/>
</linearGradient>
<linearGradient id="paint35_linear" x1="337.191" y1="282.417" x2="331.938" y2="282.417" gradientUnits="userSpaceOnUse">
<stop stop-color="#5778FF"/>
<stop offset="0.1779" stop-color="#5C7DFF"/>
<stop offset="0.3876" stop-color="#6A8AFF"/>
<stop offset="0.6134" stop-color="#82A0FF"/>
<stop offset="0.849" stop-color="#A3BEFF"/>
<stop offset="1" stop-color="#BCD5FF"/>
</linearGradient>
<linearGradient id="paint36_linear" x1="391.783" y1="247.728" x2="385.431" y2="247.728" gradientUnits="userSpaceOnUse">
<stop stop-color="#C0D6FF"/>
<stop offset="0.2978" stop-color="#C5DBFF"/>
<stop offset="0.6488" stop-color="#D3E9FF"/>
<stop offset="1" stop-color="#E9FFFF"/>
</linearGradient>
<linearGradient id="paint37_linear" x1="392.557" y1="248.376" x2="387.305" y2="248.376" gradientUnits="userSpaceOnUse">
<stop stop-color="#5778FF"/>
<stop offset="0.1779" stop-color="#5C7DFF"/>
<stop offset="0.3876" stop-color="#6A8AFF"/>
<stop offset="0.6134" stop-color="#82A0FF"/>
<stop offset="0.849" stop-color="#A3BEFF"/>
<stop offset="1" stop-color="#BCD5FF"/>
</linearGradient>
<linearGradient id="paint38_linear" x1="521.443" y1="348.859" x2="369.144" y2="348.859" gradientUnits="userSpaceOnUse">
<stop stop-color="#5778FF"/>
<stop offset="0.0725764" stop-color="#5489FF"/>
<stop offset="0.2791" stop-color="#4EB3FF"/>
<stop offset="0.4801" stop-color="#49D4FF"/>
<stop offset="0.6715" stop-color="#45ECFF"/>
<stop offset="0.8493" stop-color="#43FAFF"/>
<stop offset="1" stop-color="#42FFFF"/>
</linearGradient>
<linearGradient id="paint39_linear" x1="412.288" y1="319.185" x2="412.288" y2="179.778" gradientUnits="userSpaceOnUse">
<stop stop-color="#C0D6FF"/>
<stop offset="0.2978" stop-color="#C5DBFF"/>
<stop offset="0.6488" stop-color="#D3E9FF"/>
<stop offset="1" stop-color="#E9FFFF"/>
</linearGradient>
<linearGradient id="paint40_linear" x1="511.304" y1="174.624" x2="445.296" y2="174.624" gradientUnits="userSpaceOnUse">
<stop/>
<stop offset="0.0469354" stop-color="#2F2F2F"/>
<stop offset="0.0981487" stop-color="#5A5A5A"/>
<stop offset="0.155" stop-color="#828282"/>
<stop offset="0.2161" stop-color="#A4A4A4"/>
<stop offset="0.2828" stop-color="#C0C0C0"/>
<stop offset="0.3571" stop-color="#D7D7D7"/>
<stop offset="0.442" stop-color="#E9E9E9"/>
<stop offset="0.5443" stop-color="#F6F6F6"/>
<stop offset="0.6813" stop-color="#FDFDFD"/>
<stop offset="1" stop-color="white"/>
</linearGradient>
<linearGradient id="paint41_linear" x1="511.302" y1="174.624" x2="445.294" y2="174.624" gradientUnits="userSpaceOnUse">
<stop stop-color="#E9FFFF"/>
<stop offset="0.0373936" stop-color="#D3EBFF"/>
<stop offset="0.1056" stop-color="#B2CCFF"/>
<stop offset="0.1817" stop-color="#96B2FF"/>
<stop offset="0.2663" stop-color="#7F9DFF"/>
<stop offset="0.3632" stop-color="#6D8CFF"/>
<stop offset="0.4798" stop-color="#6081FF"/>
<stop offset="0.6363" stop-color="#597AFF"/>
<stop offset="1" stop-color="#5778FF"/>
</linearGradient>
<linearGradient id="paint42_linear" x1="493.19" y1="172.942" x2="397.402" y2="172.942" gradientUnits="userSpaceOnUse">
<stop stop-color="#C0D6FF"/>
<stop offset="0.2978" stop-color="#C5DBFF"/>
<stop offset="0.6488" stop-color="#D3E9FF"/>
<stop offset="1" stop-color="#E9FFFF"/>
</linearGradient>
<linearGradient id="paint43_linear" x1="415.167" y1="199.263" x2="426.825" y2="178.925" gradientUnits="userSpaceOnUse">
<stop stop-color="#C0D6FF"/>
<stop offset="0.2978" stop-color="#C5DBFF"/>
<stop offset="0.6488" stop-color="#D3E9FF"/>
<stop offset="1" stop-color="#E9FFFF"/>
</linearGradient>
<linearGradient id="paint44_linear" x1="469.244" y1="189.609" x2="469.244" y2="158.569" gradientUnits="userSpaceOnUse">
<stop stop-color="#5778FF"/>
<stop offset="0.1779" stop-color="#5C7DFF"/>
<stop offset="0.3876" stop-color="#6A8AFF"/>
<stop offset="0.6134" stop-color="#82A0FF"/>
<stop offset="0.849" stop-color="#A3BEFF"/>
<stop offset="1" stop-color="#BCD5FF"/>
</linearGradient>
<linearGradient id="paint45_linear" x1="467.36" y1="165.607" x2="442.556" y2="165.607" gradientUnits="userSpaceOnUse">
<stop stop-color="#5778FF"/>
<stop offset="0.1779" stop-color="#5C7DFF"/>
<stop offset="0.3876" stop-color="#6A8AFF"/>
<stop offset="0.6134" stop-color="#82A0FF"/>
<stop offset="0.849" stop-color="#A3BEFF"/>
<stop offset="1" stop-color="#BCD5FF"/>
</linearGradient>
<linearGradient id="paint46_linear" x1="460.92" y1="169.315" x2="436.116" y2="169.315" gradientUnits="userSpaceOnUse">
<stop stop-color="#5778FF"/>
<stop offset="0.1779" stop-color="#5C7DFF"/>
<stop offset="0.3876" stop-color="#6A8AFF"/>
<stop offset="0.6134" stop-color="#82A0FF"/>
<stop offset="0.849" stop-color="#A3BEFF"/>
<stop offset="1" stop-color="#BCD5FF"/>
</linearGradient>
<linearGradient id="paint47_linear" x1="454.482" y1="173.024" x2="429.679" y2="173.024" gradientUnits="userSpaceOnUse">
<stop stop-color="#5778FF"/>
<stop offset="0.1779" stop-color="#5C7DFF"/>
<stop offset="0.3876" stop-color="#6A8AFF"/>
<stop offset="0.6134" stop-color="#82A0FF"/>
<stop offset="0.849" stop-color="#A3BEFF"/>
<stop offset="1" stop-color="#BCD5FF"/>
</linearGradient>
<linearGradient id="paint48_linear" x1="448.042" y1="176.733" x2="423.239" y2="176.733" gradientUnits="userSpaceOnUse">
<stop stop-color="#5778FF"/>
<stop offset="0.1779" stop-color="#5C7DFF"/>
<stop offset="0.3876" stop-color="#6A8AFF"/>
<stop offset="0.6134" stop-color="#82A0FF"/>
<stop offset="0.849" stop-color="#A3BEFF"/>
<stop offset="1" stop-color="#BCD5FF"/>
</linearGradient>
<linearGradient id="paint49_linear" x1="454.256" y1="219.518" x2="447.905" y2="219.518" gradientUnits="userSpaceOnUse">
<stop stop-color="#C0D6FF"/>
<stop offset="0.2978" stop-color="#C5DBFF"/>
<stop offset="0.6488" stop-color="#D3E9FF"/>
<stop offset="1" stop-color="#E9FFFF"/>
</linearGradient>
<linearGradient id="paint50_linear" x1="455.028" y1="220.165" x2="449.776" y2="220.165" gradientUnits="userSpaceOnUse">
<stop stop-color="#5778FF"/>
<stop offset="0.1779" stop-color="#5C7DFF"/>
<stop offset="0.3876" stop-color="#6A8AFF"/>
<stop offset="0.6134" stop-color="#82A0FF"/>
<stop offset="0.849" stop-color="#A3BEFF"/>
<stop offset="1" stop-color="#BCD5FF"/>
</linearGradient>
<linearGradient id="paint51_linear" x1="509.621" y1="185.476" x2="503.27" y2="185.476" gradientUnits="userSpaceOnUse">
<stop stop-color="#C0D6FF"/>
<stop offset="0.2978" stop-color="#C5DBFF"/>
<stop offset="0.6488" stop-color="#D3E9FF"/>
<stop offset="1" stop-color="#E9FFFF"/>
</linearGradient>
<linearGradient id="paint52_linear" x1="510.393" y1="186.124" x2="505.14" y2="186.124" gradientUnits="userSpaceOnUse">
<stop stop-color="#5778FF"/>
<stop offset="0.1779" stop-color="#5C7DFF"/>
<stop offset="0.3876" stop-color="#6A8AFF"/>
<stop offset="0.6134" stop-color="#82A0FF"/>
<stop offset="0.849" stop-color="#A3BEFF"/>
<stop offset="1" stop-color="#BCD5FF"/>
</linearGradient>
<linearGradient id="paint53_linear" x1="454.256" y1="350.631" x2="447.905" y2="350.631" gradientUnits="userSpaceOnUse">
<stop stop-color="#C0D6FF"/>
<stop offset="0.2978" stop-color="#C5DBFF"/>
<stop offset="0.6488" stop-color="#D3E9FF"/>
<stop offset="1" stop-color="#E9FFFF"/>
</linearGradient>
<linearGradient id="paint54_linear" x1="455.028" y1="351.279" x2="449.776" y2="351.279" gradientUnits="userSpaceOnUse">
<stop stop-color="#5778FF"/>
<stop offset="0.1779" stop-color="#5C7DFF"/>
<stop offset="0.3876" stop-color="#6A8AFF"/>
<stop offset="0.6134" stop-color="#82A0FF"/>
<stop offset="0.849" stop-color="#A3BEFF"/>
<stop offset="1" stop-color="#BCD5FF"/>
</linearGradient>
<linearGradient id="paint55_linear" x1="509.621" y1="316.59" x2="503.27" y2="316.59" gradientUnits="userSpaceOnUse">
<stop stop-color="#C0D6FF"/>
<stop offset="0.2978" stop-color="#C5DBFF"/>
<stop offset="0.6488" stop-color="#D3E9FF"/>
<stop offset="1" stop-color="#E9FFFF"/>
</linearGradient>
<linearGradient id="paint56_linear" x1="510.393" y1="317.238" x2="505.14" y2="317.238" gradientUnits="userSpaceOnUse">
<stop stop-color="#5778FF"/>
<stop offset="0.1779" stop-color="#5C7DFF"/>
<stop offset="0.3876" stop-color="#6A8AFF"/>
<stop offset="0.6134" stop-color="#82A0FF"/>
<stop offset="0.849" stop-color="#A3BEFF"/>
<stop offset="1" stop-color="#BCD5FF"/>
</linearGradient>
<linearGradient id="paint57_linear" x1="152.299" y1="290.648" x2="0" y2="290.648" gradientUnits="userSpaceOnUse">
<stop stop-color="#5778FF"/>
<stop offset="0.0725764" stop-color="#5489FF"/>
<stop offset="0.2791" stop-color="#4EB3FF"/>
<stop offset="0.4801" stop-color="#49D4FF"/>
<stop offset="0.6715" stop-color="#45ECFF"/>
<stop offset="0.8493" stop-color="#43FAFF"/>
<stop offset="1" stop-color="#42FFFF"/>
</linearGradient>
<linearGradient id="paint58_linear" x1="43.1452" y1="260.975" x2="43.1452" y2="121.567" gradientUnits="userSpaceOnUse">
<stop stop-color="#C0D6FF"/>
<stop offset="0.2978" stop-color="#C5DBFF"/>
<stop offset="0.6488" stop-color="#D3E9FF"/>
<stop offset="1" stop-color="#E9FFFF"/>
</linearGradient>
<linearGradient id="paint59_linear" x1="142.158" y1="116.413" x2="76.1501" y2="116.413" gradientUnits="userSpaceOnUse">
<stop/>
<stop offset="0.0469354" stop-color="#2F2F2F"/>
<stop offset="0.0981487" stop-color="#5A5A5A"/>
<stop offset="0.155" stop-color="#828282"/>
<stop offset="0.2161" stop-color="#A4A4A4"/>
<stop offset="0.2828" stop-color="#C0C0C0"/>
<stop offset="0.3571" stop-color="#D7D7D7"/>
<stop offset="0.442" stop-color="#E9E9E9"/>
<stop offset="0.5443" stop-color="#F6F6F6"/>
<stop offset="0.6813" stop-color="#FDFDFD"/>
<stop offset="1" stop-color="white"/>
</linearGradient>
<linearGradient id="paint60_linear" x1="142.158" y1="116.413" x2="76.1501" y2="116.413" gradientUnits="userSpaceOnUse">
<stop stop-color="#E9FFFF"/>
<stop offset="0.0373936" stop-color="#D3EBFF"/>
<stop offset="0.1056" stop-color="#B2CCFF"/>
<stop offset="0.1817" stop-color="#96B2FF"/>
<stop offset="0.2663" stop-color="#7F9DFF"/>
<stop offset="0.3632" stop-color="#6D8CFF"/>
<stop offset="0.4798" stop-color="#6081FF"/>
<stop offset="0.6363" stop-color="#597AFF"/>
<stop offset="1" stop-color="#5778FF"/>
</linearGradient>
<linearGradient id="paint61_linear" x1="124.043" y1="114.73" x2="28.2564" y2="114.73" gradientUnits="userSpaceOnUse">
<stop stop-color="#C0D6FF"/>
<stop offset="0.2978" stop-color="#C5DBFF"/>
<stop offset="0.6488" stop-color="#D3E9FF"/>
<stop offset="1" stop-color="#E9FFFF"/>
</linearGradient>
<linearGradient id="paint62_linear" x1="46.0213" y1="141.052" x2="57.6798" y2="120.714" gradientUnits="userSpaceOnUse">
<stop stop-color="#C0D6FF"/>
<stop offset="0.2978" stop-color="#C5DBFF"/>
<stop offset="0.6488" stop-color="#D3E9FF"/>
<stop offset="1" stop-color="#E9FFFF"/>
</linearGradient>
<linearGradient id="paint63_linear" x1="100.097" y1="131.398" x2="100.097" y2="100.358" gradientUnits="userSpaceOnUse">
<stop stop-color="#5778FF"/>
<stop offset="0.1779" stop-color="#5C7DFF"/>
<stop offset="0.3876" stop-color="#6A8AFF"/>
<stop offset="0.6134" stop-color="#82A0FF"/>
<stop offset="0.849" stop-color="#A3BEFF"/>
<stop offset="1" stop-color="#BCD5FF"/>
</linearGradient>
<linearGradient id="paint64_linear" x1="98.209" y1="107.396" x2="73.4051" y2="107.396" gradientUnits="userSpaceOnUse">
<stop stop-color="#5778FF"/>
<stop offset="0.1779" stop-color="#5C7DFF"/>
<stop offset="0.3876" stop-color="#6A8AFF"/>
<stop offset="0.6134" stop-color="#82A0FF"/>
<stop offset="0.849" stop-color="#A3BEFF"/>
<stop offset="1" stop-color="#BCD5FF"/>
</linearGradient>
<linearGradient id="paint65_linear" x1="91.769" y1="111.104" x2="66.9651" y2="111.104" gradientUnits="userSpaceOnUse">
<stop stop-color="#5778FF"/>
<stop offset="0.1779" stop-color="#5C7DFF"/>
<stop offset="0.3876" stop-color="#6A8AFF"/>
<stop offset="0.6134" stop-color="#82A0FF"/>
<stop offset="0.849" stop-color="#A3BEFF"/>
<stop offset="1" stop-color="#BCD5FF"/>
</linearGradient>
<linearGradient id="paint66_linear" x1="85.3313" y1="114.813" x2="60.527" y2="114.813" gradientUnits="userSpaceOnUse">
<stop stop-color="#5778FF"/>
<stop offset="0.1779" stop-color="#5C7DFF"/>
<stop offset="0.3876" stop-color="#6A8AFF"/>
<stop offset="0.6134" stop-color="#82A0FF"/>
<stop offset="0.849" stop-color="#A3BEFF"/>
<stop offset="1" stop-color="#BCD5FF"/>
</linearGradient>
<linearGradient id="paint67_linear" x1="78.8922" y1="118.521" x2="54.088" y2="118.521" gradientUnits="userSpaceOnUse">
<stop stop-color="#5778FF"/>
<stop offset="0.1779" stop-color="#5C7DFF"/>
<stop offset="0.3876" stop-color="#6A8AFF"/>
<stop offset="0.6134" stop-color="#82A0FF"/>
<stop offset="0.849" stop-color="#A3BEFF"/>
<stop offset="1" stop-color="#BCD5FF"/>
</linearGradient>
<linearGradient id="paint68_linear" x1="85.1131" y1="161.307" x2="78.7616" y2="161.307" gradientUnits="userSpaceOnUse">
<stop stop-color="#C0D6FF"/>
<stop offset="0.2978" stop-color="#C5DBFF"/>
<stop offset="0.6488" stop-color="#D3E9FF"/>
<stop offset="1" stop-color="#E9FFFF"/>
</linearGradient>
<linearGradient id="paint69_linear" x1="85.8871" y1="161.955" x2="80.6351" y2="161.955" gradientUnits="userSpaceOnUse">
<stop stop-color="#5778FF"/>
<stop offset="0.1779" stop-color="#5C7DFF"/>
<stop offset="0.3876" stop-color="#6A8AFF"/>
<stop offset="0.6134" stop-color="#82A0FF"/>
<stop offset="0.849" stop-color="#A3BEFF"/>
<stop offset="1" stop-color="#BCD5FF"/>
</linearGradient>
<linearGradient id="paint70_linear" x1="140.478" y1="127.265" x2="134.126" y2="127.265" gradientUnits="userSpaceOnUse">
<stop stop-color="#C0D6FF"/>
<stop offset="0.2978" stop-color="#C5DBFF"/>
<stop offset="0.6488" stop-color="#D3E9FF"/>
<stop offset="1" stop-color="#E9FFFF"/>
</linearGradient>
<linearGradient id="paint71_linear" x1="141.25" y1="127.913" x2="135.998" y2="127.913" gradientUnits="userSpaceOnUse">
<stop stop-color="#5778FF"/>
<stop offset="0.1779" stop-color="#5C7DFF"/>
<stop offset="0.3876" stop-color="#6A8AFF"/>
<stop offset="0.6134" stop-color="#82A0FF"/>
<stop offset="0.849" stop-color="#A3BEFF"/>
<stop offset="1" stop-color="#BCD5FF"/>
</linearGradient>
<linearGradient id="paint72_linear" x1="85.1131" y1="292.42" x2="78.7616" y2="292.42" gradientUnits="userSpaceOnUse">
<stop stop-color="#C0D6FF"/>
<stop offset="0.2978" stop-color="#C5DBFF"/>
<stop offset="0.6488" stop-color="#D3E9FF"/>
<stop offset="1" stop-color="#E9FFFF"/>
</linearGradient>
<linearGradient id="paint73_linear" x1="85.8871" y1="293.068" x2="80.6351" y2="293.068" gradientUnits="userSpaceOnUse">
<stop stop-color="#5778FF"/>
<stop offset="0.1779" stop-color="#5C7DFF"/>
<stop offset="0.3876" stop-color="#6A8AFF"/>
<stop offset="0.6134" stop-color="#82A0FF"/>
<stop offset="0.849" stop-color="#A3BEFF"/>
<stop offset="1" stop-color="#BCD5FF"/>
</linearGradient>
<linearGradient id="paint74_linear" x1="140.478" y1="258.379" x2="134.126" y2="258.379" gradientUnits="userSpaceOnUse">
<stop stop-color="#C0D6FF"/>
<stop offset="0.2978" stop-color="#C5DBFF"/>
<stop offset="0.6488" stop-color="#D3E9FF"/>
<stop offset="1" stop-color="#E9FFFF"/>
</linearGradient>
<linearGradient id="paint75_linear" x1="141.25" y1="259.027" x2="135.998" y2="259.027" gradientUnits="userSpaceOnUse">
<stop stop-color="#5778FF"/>
<stop offset="0.1779" stop-color="#5C7DFF"/>
<stop offset="0.3876" stop-color="#6A8AFF"/>
<stop offset="0.6134" stop-color="#82A0FF"/>
<stop offset="0.849" stop-color="#A3BEFF"/>
<stop offset="1" stop-color="#BCD5FF"/>
</linearGradient>
<linearGradient id="paint76_linear" x1="270.141" y1="359.51" x2="117.842" y2="359.51" gradientUnits="userSpaceOnUse">
<stop stop-color="#5778FF"/>
<stop offset="0.0725764" stop-color="#5489FF"/>
<stop offset="0.2791" stop-color="#4EB3FF"/>
<stop offset="0.4801" stop-color="#49D4FF"/>
<stop offset="0.6715" stop-color="#45ECFF"/>
<stop offset="0.8493" stop-color="#43FAFF"/>
<stop offset="1" stop-color="#42FFFF"/>
</linearGradient>
<linearGradient id="paint77_linear" x1="160.987" y1="329.837" x2="160.987" y2="190.429" gradientUnits="userSpaceOnUse">
<stop stop-color="#C0D6FF"/>
<stop offset="0.2978" stop-color="#C5DBFF"/>
<stop offset="0.6488" stop-color="#D3E9FF"/>
<stop offset="1" stop-color="#E9FFFF"/>
</linearGradient>
<linearGradient id="paint78_linear" x1="260.002" y1="185.275" x2="193.994" y2="185.275" gradientUnits="userSpaceOnUse">
<stop/>
<stop offset="0.0469354" stop-color="#2F2F2F"/>
<stop offset="0.0981487" stop-color="#5A5A5A"/>
<stop offset="0.155" stop-color="#828282"/>
<stop offset="0.2161" stop-color="#A4A4A4"/>
<stop offset="0.2828" stop-color="#C0C0C0"/>
<stop offset="0.3571" stop-color="#D7D7D7"/>
<stop offset="0.442" stop-color="#E9E9E9"/>
<stop offset="0.5443" stop-color="#F6F6F6"/>
<stop offset="0.6813" stop-color="#FDFDFD"/>
<stop offset="1" stop-color="white"/>
</linearGradient>
<linearGradient id="paint79_linear" x1="260" y1="185.275" x2="193.992" y2="185.275" gradientUnits="userSpaceOnUse">
<stop stop-color="#E9FFFF"/>
<stop offset="0.0373936" stop-color="#D3EBFF"/>
<stop offset="0.1056" stop-color="#B2CCFF"/>
<stop offset="0.1817" stop-color="#96B2FF"/>
<stop offset="0.2663" stop-color="#7F9DFF"/>
<stop offset="0.3632" stop-color="#6D8CFF"/>
<stop offset="0.4798" stop-color="#6081FF"/>
<stop offset="0.6363" stop-color="#597AFF"/>
<stop offset="1" stop-color="#5778FF"/>
</linearGradient>
<linearGradient id="paint80_linear" x1="241.887" y1="183.592" x2="146.099" y2="183.592" gradientUnits="userSpaceOnUse">
<stop stop-color="#C0D6FF"/>
<stop offset="0.2978" stop-color="#C5DBFF"/>
<stop offset="0.6488" stop-color="#D3E9FF"/>
<stop offset="1" stop-color="#E9FFFF"/>
</linearGradient>
<linearGradient id="paint81_linear" x1="163.864" y1="209.914" x2="175.523" y2="189.576" gradientUnits="userSpaceOnUse">
<stop stop-color="#C0D6FF"/>
<stop offset="0.2978" stop-color="#C5DBFF"/>
<stop offset="0.6488" stop-color="#D3E9FF"/>
<stop offset="1" stop-color="#E9FFFF"/>
</linearGradient>
<linearGradient id="paint82_linear" x1="217.941" y1="200.26" x2="217.941" y2="169.22" gradientUnits="userSpaceOnUse">
<stop stop-color="#5778FF"/>
<stop offset="0.1779" stop-color="#5C7DFF"/>
<stop offset="0.3876" stop-color="#6A8AFF"/>
<stop offset="0.6134" stop-color="#82A0FF"/>
<stop offset="0.849" stop-color="#A3BEFF"/>
<stop offset="1" stop-color="#BCD5FF"/>
</linearGradient>
<linearGradient id="paint83_linear" x1="216.053" y1="176.257" x2="191.249" y2="176.257" gradientUnits="userSpaceOnUse">
<stop stop-color="#5778FF"/>
<stop offset="0.1779" stop-color="#5C7DFF"/>
<stop offset="0.3876" stop-color="#6A8AFF"/>
<stop offset="0.6134" stop-color="#82A0FF"/>
<stop offset="0.849" stop-color="#A3BEFF"/>
<stop offset="1" stop-color="#BCD5FF"/>
</linearGradient>
<linearGradient id="paint84_linear" x1="209.613" y1="179.966" x2="184.809" y2="179.966" gradientUnits="userSpaceOnUse">
<stop stop-color="#5778FF"/>
<stop offset="0.1779" stop-color="#5C7DFF"/>
<stop offset="0.3876" stop-color="#6A8AFF"/>
<stop offset="0.6134" stop-color="#82A0FF"/>
<stop offset="0.849" stop-color="#A3BEFF"/>
<stop offset="1" stop-color="#BCD5FF"/>
</linearGradient>
<linearGradient id="paint85_linear" x1="203.175" y1="183.675" x2="178.371" y2="183.675" gradientUnits="userSpaceOnUse">
<stop stop-color="#5778FF"/>
<stop offset="0.1779" stop-color="#5C7DFF"/>
<stop offset="0.3876" stop-color="#6A8AFF"/>
<stop offset="0.6134" stop-color="#82A0FF"/>
<stop offset="0.849" stop-color="#A3BEFF"/>
<stop offset="1" stop-color="#BCD5FF"/>
</linearGradient>
<linearGradient id="paint86_linear" x1="196.736" y1="187.383" x2="171.932" y2="187.383" gradientUnits="userSpaceOnUse">
<stop stop-color="#5778FF"/>
<stop offset="0.1779" stop-color="#5C7DFF"/>
<stop offset="0.3876" stop-color="#6A8AFF"/>
<stop offset="0.6134" stop-color="#82A0FF"/>
<stop offset="0.849" stop-color="#A3BEFF"/>
<stop offset="1" stop-color="#BCD5FF"/>
</linearGradient>
<linearGradient id="paint87_linear" x1="202.956" y1="230.169" x2="196.604" y2="230.169" gradientUnits="userSpaceOnUse">
<stop stop-color="#C0D6FF"/>
<stop offset="0.2978" stop-color="#C5DBFF"/>
<stop offset="0.6488" stop-color="#D3E9FF"/>
<stop offset="1" stop-color="#E9FFFF"/>
</linearGradient>
<linearGradient id="paint88_linear" x1="203.727" y1="230.817" x2="198.474" y2="230.817" gradientUnits="userSpaceOnUse">
<stop stop-color="#5778FF"/>
<stop offset="0.1779" stop-color="#5C7DFF"/>
<stop offset="0.3876" stop-color="#6A8AFF"/>
<stop offset="0.6134" stop-color="#82A0FF"/>
<stop offset="0.849" stop-color="#A3BEFF"/>
<stop offset="1" stop-color="#BCD5FF"/>
</linearGradient>
<linearGradient id="paint89_linear" x1="258.321" y1="196.127" x2="251.97" y2="196.127" gradientUnits="userSpaceOnUse">
<stop stop-color="#C0D6FF"/>
<stop offset="0.2978" stop-color="#C5DBFF"/>
<stop offset="0.6488" stop-color="#D3E9FF"/>
<stop offset="1" stop-color="#E9FFFF"/>
</linearGradient>
<linearGradient id="paint90_linear" x1="259.096" y1="196.775" x2="253.843" y2="196.775" gradientUnits="userSpaceOnUse">
<stop stop-color="#5778FF"/>
<stop offset="0.1779" stop-color="#5C7DFF"/>
<stop offset="0.3876" stop-color="#6A8AFF"/>
<stop offset="0.6134" stop-color="#82A0FF"/>
<stop offset="0.849" stop-color="#A3BEFF"/>
<stop offset="1" stop-color="#BCD5FF"/>
</linearGradient>
<linearGradient id="paint91_linear" x1="202.956" y1="361.282" x2="196.604" y2="361.282" gradientUnits="userSpaceOnUse">
<stop stop-color="#C0D6FF"/>
<stop offset="0.2978" stop-color="#C5DBFF"/>
<stop offset="0.6488" stop-color="#D3E9FF"/>
<stop offset="1" stop-color="#E9FFFF"/>
</linearGradient>
<linearGradient id="paint92_linear" x1="203.727" y1="361.93" x2="198.474" y2="361.93" gradientUnits="userSpaceOnUse">
<stop stop-color="#5778FF"/>
<stop offset="0.1779" stop-color="#5C7DFF"/>
<stop offset="0.3876" stop-color="#6A8AFF"/>
<stop offset="0.6134" stop-color="#82A0FF"/>
<stop offset="0.849" stop-color="#A3BEFF"/>
<stop offset="1" stop-color="#BCD5FF"/>
</linearGradient>
<linearGradient id="paint93_linear" x1="258.321" y1="327.241" x2="251.97" y2="327.241" gradientUnits="userSpaceOnUse">
<stop stop-color="#C0D6FF"/>
<stop offset="0.2978" stop-color="#C5DBFF"/>
<stop offset="0.6488" stop-color="#D3E9FF"/>
<stop offset="1" stop-color="#E9FFFF"/>
</linearGradient>
<linearGradient id="paint94_linear" x1="259.096" y1="327.889" x2="253.843" y2="327.889" gradientUnits="userSpaceOnUse">
<stop stop-color="#5778FF"/>
<stop offset="0.1779" stop-color="#5C7DFF"/>
<stop offset="0.3876" stop-color="#6A8AFF"/>
<stop offset="0.6134" stop-color="#82A0FF"/>
<stop offset="0.849" stop-color="#A3BEFF"/>
<stop offset="1" stop-color="#BCD5FF"/>
</linearGradient>
<linearGradient id="paint95_linear" x1="387.982" y1="428.372" x2="235.684" y2="428.372" gradientUnits="userSpaceOnUse">
<stop stop-color="#5778FF"/>
<stop offset="0.0725764" stop-color="#5489FF"/>
<stop offset="0.2791" stop-color="#4EB3FF"/>
<stop offset="0.4801" stop-color="#49D4FF"/>
<stop offset="0.6715" stop-color="#45ECFF"/>
<stop offset="0.8493" stop-color="#43FAFF"/>
<stop offset="1" stop-color="#42FFFF"/>
</linearGradient>
<linearGradient id="paint96_linear" x1="278.828" y1="398.698" x2="278.828" y2="259.291" gradientUnits="userSpaceOnUse">
<stop stop-color="#C0D6FF"/>
<stop offset="0.2978" stop-color="#C5DBFF"/>
<stop offset="0.6488" stop-color="#D3E9FF"/>
<stop offset="1" stop-color="#E9FFFF"/>
</linearGradient>
<linearGradient id="paint97_linear" x1="377.842" y1="254.137" x2="311.834" y2="254.137" gradientUnits="userSpaceOnUse">
<stop/>
<stop offset="0.0469354" stop-color="#2F2F2F"/>
<stop offset="0.0981487" stop-color="#5A5A5A"/>
<stop offset="0.155" stop-color="#828282"/>
<stop offset="0.2161" stop-color="#A4A4A4"/>
<stop offset="0.2828" stop-color="#C0C0C0"/>
<stop offset="0.3571" stop-color="#D7D7D7"/>
<stop offset="0.442" stop-color="#E9E9E9"/>
<stop offset="0.5443" stop-color="#F6F6F6"/>
<stop offset="0.6813" stop-color="#FDFDFD"/>
<stop offset="1" stop-color="white"/>
</linearGradient>
<linearGradient id="paint98_linear" x1="377.842" y1="254.137" x2="311.834" y2="254.137" gradientUnits="userSpaceOnUse">
<stop stop-color="#E9FFFF"/>
<stop offset="0.0373936" stop-color="#D3EBFF"/>
<stop offset="0.1056" stop-color="#B2CCFF"/>
<stop offset="0.1817" stop-color="#96B2FF"/>
<stop offset="0.2663" stop-color="#7F9DFF"/>
<stop offset="0.3632" stop-color="#6D8CFF"/>
<stop offset="0.4798" stop-color="#6081FF"/>
<stop offset="0.6363" stop-color="#597AFF"/>
<stop offset="1" stop-color="#5778FF"/>
</linearGradient>
<linearGradient id="paint99_linear" x1="359.725" y1="252.454" x2="263.937" y2="252.454" gradientUnits="userSpaceOnUse">
<stop stop-color="#C0D6FF"/>
<stop offset="0.2978" stop-color="#C5DBFF"/>
<stop offset="0.6488" stop-color="#D3E9FF"/>
<stop offset="1" stop-color="#E9FFFF"/>
</linearGradient>
<linearGradient id="paint100_linear" x1="281.702" y1="278.776" x2="293.361" y2="258.437" gradientUnits="userSpaceOnUse">
<stop stop-color="#C0D6FF"/>
<stop offset="0.2978" stop-color="#C5DBFF"/>
<stop offset="0.6488" stop-color="#D3E9FF"/>
<stop offset="1" stop-color="#E9FFFF"/>
</linearGradient>
<linearGradient id="paint101_linear" x1="335.779" y1="269.122" x2="335.779" y2="238.082" gradientUnits="userSpaceOnUse">
<stop stop-color="#5778FF"/>
<stop offset="0.1779" stop-color="#5C7DFF"/>
<stop offset="0.3876" stop-color="#6A8AFF"/>
<stop offset="0.6134" stop-color="#82A0FF"/>
<stop offset="0.849" stop-color="#A3BEFF"/>
<stop offset="1" stop-color="#BCD5FF"/>
</linearGradient>
<linearGradient id="paint102_linear" x1="333.893" y1="245.12" x2="309.089" y2="245.12" gradientUnits="userSpaceOnUse">
<stop stop-color="#5778FF"/>
<stop offset="0.1779" stop-color="#5C7DFF"/>
<stop offset="0.3876" stop-color="#6A8AFF"/>
<stop offset="0.6134" stop-color="#82A0FF"/>
<stop offset="0.849" stop-color="#A3BEFF"/>
<stop offset="1" stop-color="#BCD5FF"/>
</linearGradient>
<linearGradient id="paint103_linear" x1="327.453" y1="248.828" x2="302.649" y2="248.828" gradientUnits="userSpaceOnUse">
<stop stop-color="#5778FF"/>
<stop offset="0.1779" stop-color="#5C7DFF"/>
<stop offset="0.3876" stop-color="#6A8AFF"/>
<stop offset="0.6134" stop-color="#82A0FF"/>
<stop offset="0.849" stop-color="#A3BEFF"/>
<stop offset="1" stop-color="#BCD5FF"/>
</linearGradient>
<linearGradient id="paint104_linear" x1="321.014" y1="252.537" x2="296.211" y2="252.537" gradientUnits="userSpaceOnUse">
<stop stop-color="#5778FF"/>
<stop offset="0.1779" stop-color="#5C7DFF"/>
<stop offset="0.3876" stop-color="#6A8AFF"/>
<stop offset="0.6134" stop-color="#82A0FF"/>
<stop offset="0.849" stop-color="#A3BEFF"/>
<stop offset="1" stop-color="#BCD5FF"/>
</linearGradient>
<linearGradient id="paint105_linear" x1="314.575" y1="256.245" x2="289.772" y2="256.245" gradientUnits="userSpaceOnUse">
<stop stop-color="#5778FF"/>
<stop offset="0.1779" stop-color="#5C7DFF"/>
<stop offset="0.3876" stop-color="#6A8AFF"/>
<stop offset="0.6134" stop-color="#82A0FF"/>
<stop offset="0.849" stop-color="#A3BEFF"/>
<stop offset="1" stop-color="#BCD5FF"/>
</linearGradient>
<linearGradient id="paint106_linear" x1="320.798" y1="299.031" x2="314.445" y2="299.031" gradientUnits="userSpaceOnUse">
<stop stop-color="#C0D6FF"/>
<stop offset="0.2978" stop-color="#C5DBFF"/>
<stop offset="0.6488" stop-color="#D3E9FF"/>
<stop offset="1" stop-color="#E9FFFF"/>
</linearGradient>
<linearGradient id="paint107_linear" x1="321.569" y1="299.679" x2="316.316" y2="299.679" gradientUnits="userSpaceOnUse">
<stop stop-color="#5778FF"/>
<stop offset="0.1779" stop-color="#5C7DFF"/>
<stop offset="0.3876" stop-color="#6A8AFF"/>
<stop offset="0.6134" stop-color="#82A0FF"/>
<stop offset="0.849" stop-color="#A3BEFF"/>
<stop offset="1" stop-color="#BCD5FF"/>
</linearGradient>
<linearGradient id="paint108_linear" x1="376.161" y1="264.989" x2="369.809" y2="264.989" gradientUnits="userSpaceOnUse">
<stop stop-color="#C0D6FF"/>
<stop offset="0.2978" stop-color="#C5DBFF"/>
<stop offset="0.6488" stop-color="#D3E9FF"/>
<stop offset="1" stop-color="#E9FFFF"/>
</linearGradient>
<linearGradient id="paint109_linear" x1="376.935" y1="265.637" x2="371.683" y2="265.637" gradientUnits="userSpaceOnUse">
<stop stop-color="#5778FF"/>
<stop offset="0.1779" stop-color="#5C7DFF"/>
<stop offset="0.3876" stop-color="#6A8AFF"/>
<stop offset="0.6134" stop-color="#82A0FF"/>
<stop offset="0.849" stop-color="#A3BEFF"/>
<stop offset="1" stop-color="#BCD5FF"/>
</linearGradient>
<linearGradient id="paint110_linear" x1="320.798" y1="430.144" x2="314.445" y2="430.144" gradientUnits="userSpaceOnUse">
<stop stop-color="#C0D6FF"/>
<stop offset="0.2978" stop-color="#C5DBFF"/>
<stop offset="0.6488" stop-color="#D3E9FF"/>
<stop offset="1" stop-color="#E9FFFF"/>
</linearGradient>
<linearGradient id="paint111_linear" x1="321.569" y1="430.792" x2="316.316" y2="430.792" gradientUnits="userSpaceOnUse">
<stop stop-color="#5778FF"/>
<stop offset="0.1779" stop-color="#5C7DFF"/>
<stop offset="0.3876" stop-color="#6A8AFF"/>
<stop offset="0.6134" stop-color="#82A0FF"/>
<stop offset="0.849" stop-color="#A3BEFF"/>
<stop offset="1" stop-color="#BCD5FF"/>
</linearGradient>
<linearGradient id="paint112_linear" x1="376.161" y1="396.103" x2="369.809" y2="396.103" gradientUnits="userSpaceOnUse">
<stop stop-color="#C0D6FF"/>
<stop offset="0.2978" stop-color="#C5DBFF"/>
<stop offset="0.6488" stop-color="#D3E9FF"/>
<stop offset="1" stop-color="#E9FFFF"/>
</linearGradient>
<linearGradient id="paint113_linear" x1="376.935" y1="396.751" x2="371.683" y2="396.751" gradientUnits="userSpaceOnUse">
<stop stop-color="#5778FF"/>
<stop offset="0.1779" stop-color="#5C7DFF"/>
<stop offset="0.3876" stop-color="#6A8AFF"/>
<stop offset="0.6134" stop-color="#82A0FF"/>
<stop offset="0.849" stop-color="#A3BEFF"/>
<stop offset="1" stop-color="#BCD5FF"/>
</linearGradient>
</defs>
</svg>
