<svg width="541" height="556" viewBox="0 0 541 556" fill="none" xmlns="http://www.w3.org/2000/svg">
<g opacity="0.1">
<path opacity="0.1" d="M100.251 315.037L75.6904 300.758V329.093L100.251 343.372L124.811 329.093V300.758L100.251 315.037Z" fill="#42E8E0"/>
<path opacity="0.1" d="M100.251 343.372L75.6904 329.093V300.758L100.251 315.037V343.372Z" fill="#42E8E0"/>
<path opacity="0.1" d="M124.811 329.093L100.251 343.372V315.037L124.811 300.758V329.093Z" fill="#2FD3C7"/>
<path opacity="0.1" d="M100.251 315.037L75.6904 300.758L100.251 286.701L124.811 300.758L100.251 315.037Z" fill="#42E8E0"/>
<path opacity="0.1" d="M100.251 315.037L75.6904 300.758V302.096L100.251 316.153L124.811 302.096V300.758L100.251 315.037Z" fill="white"/>
</g>
<path opacity="0.2" d="M100.251 297.857L75.6904 283.578L100.251 269.522L124.811 283.578L100.251 297.857Z" fill="#03002D"/>
<path d="M100.251 248.103L75.6904 233.823V262.159L100.251 276.438L124.811 262.159V233.823L100.251 248.103Z" fill="#42E8E0"/>
<path d="M100.251 276.438L75.6904 262.159V233.823L100.251 248.103V276.438Z" fill="#42E8E0"/>
<path d="M124.811 262.159L100.251 276.438V248.103L124.811 233.823V262.159Z" fill="#2FD3C7"/>
<path d="M100.251 248.103L75.6904 233.823L100.251 219.767L124.811 233.823L100.251 248.103Z" fill="#42E8E0"/>
<path d="M100.251 248.103L75.6904 233.823V235.162L100.251 249.218L124.811 235.162V233.823L100.251 248.103Z" fill="white"/>
<g opacity="0.1">
<path opacity="0.1" d="M206.084 483.711L181.523 469.432V497.767L206.084 512.047L230.644 497.767V469.432L206.084 483.711Z" fill="#42E8E0"/>
<path opacity="0.1" d="M206.084 512.047L181.523 497.767V469.432L206.084 483.711V512.047Z" fill="#42E8E0"/>
<path opacity="0.1" d="M230.644 497.767L206.084 512.047V483.711L230.644 469.432V497.767Z" fill="#2FD3C7"/>
<path opacity="0.1" d="M206.084 483.711L181.523 469.432L206.084 455.376L230.644 469.432L206.084 483.711Z" fill="#42E8E0"/>
<path opacity="0.1" d="M206.084 483.711L181.523 469.432V470.77L206.084 484.827L230.644 470.77V469.432L206.084 483.711Z" fill="white"/>
</g>
<path opacity="0.2" d="M206.084 466.531L181.523 452.252L206.084 438.196L230.644 452.475L206.084 466.531Z" fill="#03002D"/>
<path d="M206.084 416.777L181.523 402.721V430.833L206.084 445.112L230.644 430.833V402.721L206.084 416.777Z" fill="#42E8E0"/>
<path d="M206.084 445.112L181.523 430.833V402.721L206.084 416.777V445.112Z" fill="#42E8E0"/>
<path d="M230.644 430.833L206.084 445.112V416.777L230.644 402.721V430.833Z" fill="#2FD3C7"/>
<path d="M206.084 416.777L181.523 402.721L206.084 388.441L230.644 402.721L206.084 416.777Z" fill="#42E8E0"/>
<path d="M206.084 416.777L181.523 402.721V403.836L206.084 417.892L230.644 403.836V402.721L206.084 416.777Z" fill="white"/>
<g opacity="0.2">
<g opacity="0.2">
<path opacity="0.2" d="M382.25 484.604C382.25 429.717 349.651 385.318 309.238 385.318C268.825 385.318 236.227 429.717 236.227 484.604C236.227 539.49 268.825 556 309.238 556C349.651 556 382.25 539.49 382.25 484.604Z" fill="url(#paint0_radial)"/>
</g>
</g>
<path opacity="0.1" d="M325.315 109.995L160.536 205.042V161.535L325.315 66.488V109.995Z" fill="#9FFFF8"/>
<path d="M171.924 178.937L168.798 180.722V162.65L171.924 160.865V178.937Z" fill="#9FFFF8"/>
<path d="M171.924 181.615L168.798 183.4V182.284L171.924 180.499V181.615Z" fill="#9FFFF8"/>
<path d="M171.924 184.069L168.798 185.854V184.738L171.924 182.953V184.069Z" fill="#9FFFF8"/>
<path d="M171.924 186.523L168.798 188.308V187.193L171.924 185.408V186.523Z" fill="#9FFFF8"/>
<path d="M171.924 188.978L168.798 190.762V189.647L171.924 187.862V188.978Z" fill="#9FFFF8"/>
<path d="M171.924 191.432L168.798 193.217V192.101L171.924 190.316V191.432Z" fill="#9FFFF8"/>
<path d="M171.924 193.886L168.798 195.671V194.555L171.924 192.771V193.886Z" fill="#9FFFF8"/>
<path d="M177.729 178.268L174.826 180.053V178.714L177.729 177.153V178.268Z" fill="#9FFFF8"/>
<path d="M177.729 180.722L174.826 182.507V181.169L177.729 179.607V180.722Z" fill="#9FFFF8"/>
<path d="M177.729 183.177L174.826 184.962V183.623L177.729 182.061V183.177Z" fill="#9FFFF8"/>
<path d="M177.729 185.631L174.826 187.193V186.077L177.729 184.515V185.631Z" fill="#9FFFF8"/>
<path d="M177.729 188.085L174.826 189.647V188.531L177.729 186.97V188.085Z" fill="#9FFFF8"/>
<path d="M177.729 190.539L174.826 192.101V190.986L177.729 189.201V190.539Z" fill="#9FFFF8"/>
<path d="M189.785 181.169L186.883 182.953V181.615L189.785 180.053V181.169Z" fill="#9FFFF8"/>
<path d="M189.785 183.623L186.883 185.185V184.069L189.785 182.507V183.623Z" fill="#9FFFF8"/>
<path d="M183.757 186.97L180.854 188.754V187.639L183.757 185.854V186.97Z" fill="#9FFFF8"/>
<path d="M195.813 175.145L192.688 176.929V175.814L195.813 174.029V175.145Z" fill="#9FFFF8"/>
<path d="M195.813 177.599L192.688 179.384V178.268L195.813 176.483V177.599Z" fill="#9FFFF8"/>
<path d="M195.813 180.053L192.688 181.838V180.722L195.813 178.937V180.053Z" fill="#9FFFF8"/>
<path d="M201.619 164.435L198.717 166.22V165.104L201.619 163.319V164.435Z" fill="#9FFFF8"/>
<path d="M201.619 166.889L198.717 168.674V167.559L201.619 165.774V166.889Z" fill="#9FFFF8"/>
<path d="M201.619 169.344L198.717 171.128V170.013L201.619 168.228V169.344Z" fill="#9FFFF8"/>
<path d="M201.619 171.798L198.717 173.583V172.467L201.619 170.682V171.798Z" fill="#9FFFF8"/>
<path d="M201.619 174.252L198.717 176.037V174.921L201.619 173.136V174.252Z" fill="#9FFFF8"/>
<path d="M201.619 176.706L198.717 178.491V177.153L201.619 175.591V176.706Z" fill="#9FFFF8"/>
<path d="M207.648 161.088L204.745 162.873V161.535L207.648 159.973V161.088Z" fill="#9FFFF8"/>
<path d="M207.648 163.543L204.745 165.327V163.989L207.648 162.427V163.543Z" fill="#9FFFF8"/>
<path d="M207.648 165.997L204.745 167.559V166.443L207.648 164.881V165.997Z" fill="#9FFFF8"/>
<path d="M207.648 168.451L204.745 170.013V168.897L207.648 167.335V168.451Z" fill="#9FFFF8"/>
<path d="M207.648 170.905L204.745 172.467V171.352L207.648 169.567V170.905Z" fill="#9FFFF8"/>
<path d="M207.648 173.36L204.745 174.921V173.806L207.648 172.021V173.36Z" fill="#9FFFF8"/>
<path d="M213.676 162.427L210.55 164.212V163.096L213.676 161.311V162.427Z" fill="#9FFFF8"/>
<path d="M213.676 164.881L210.55 166.666V165.551L213.676 163.766V164.881Z" fill="#9FFFF8"/>
<path d="M213.676 167.335L210.55 169.12V168.005L213.676 166.22V167.335Z" fill="#9FFFF8"/>
<path d="M213.676 169.79L210.55 171.575V170.459L213.676 168.674V169.79Z" fill="#9FFFF8"/>
<path d="M219.481 166.443L216.578 168.005V166.889L219.481 165.327V166.443Z" fill="#9FFFF8"/>
<path d="M225.509 150.825L222.606 152.387V151.271L225.509 149.486V150.825Z" fill="#9FFFF8"/>
<path d="M225.509 153.279L222.606 154.841V153.726L225.509 151.941V153.279Z" fill="#9FFFF8"/>
<path d="M225.509 155.51L222.606 157.295V156.18L225.509 154.395V155.51Z" fill="#9FFFF8"/>
<path d="M225.509 157.965L222.606 159.75V158.634L225.509 156.849V157.965Z" fill="#9FFFF8"/>
<path d="M225.509 160.419L222.606 162.204V161.088L225.509 159.303V160.419Z" fill="#9FFFF8"/>
<path d="M225.509 162.873L222.606 164.658V163.543L225.509 161.758V162.873Z" fill="#9FFFF8"/>
<path d="M231.538 154.618L228.412 156.403V155.287L231.538 153.502V154.618Z" fill="#9FFFF8"/>
<path d="M231.538 157.072L228.412 158.857V157.518L231.538 155.957V157.072Z" fill="#9FFFF8"/>
<path d="M231.538 159.527L228.412 161.311V159.973L231.538 158.411V159.527Z" fill="#9FFFF8"/>
<path d="M237.344 151.271L234.441 152.833V151.718L237.344 149.933V151.271Z" fill="#9FFFF8"/>
<path d="M237.344 153.726L234.441 155.287V154.172L237.344 152.387V153.726Z" fill="#9FFFF8"/>
<path d="M237.344 155.957L234.441 157.742V156.626L237.344 154.841V155.957Z" fill="#9FFFF8"/>
<path d="M177.729 178.045L174.826 179.607V163.766L177.729 161.981V178.045Z" fill="#9FFFF8"/>
<path d="M183.757 184.515L180.854 186.3V165.551L183.757 163.766V184.515Z" fill="#9FFFF8"/>
<path d="M189.785 178.714L186.883 180.499V167.782L189.785 165.997V178.714Z" fill="#9FFFF8"/>
<path d="M195.813 172.913L192.688 174.475V158.857L195.813 157.295V172.913Z" fill="#9FFFF8"/>
<path d="M201.619 161.981L198.717 163.766V150.602L201.619 148.817V161.981Z" fill="#9FFFF8"/>
<path d="M207.648 158.411L204.745 160.196V141.454L207.648 139.669V158.411Z" fill="#9FFFF8"/>
<path d="M213.676 159.973L210.55 161.758V141.901L213.676 140.116V159.973Z" fill="#9FFFF8"/>
<path d="M219.482 163.989L216.579 165.551V140.116L219.482 138.554V163.989Z" fill="#9FFFF8"/>
<path d="M225.509 159.527L222.606 161.311V142.347L225.509 140.785V159.527Z" fill="#9FFFF8"/>
<path d="M231.538 151.941L228.412 153.726V135.43L231.538 133.645V151.941Z" fill="#9FFFF8"/>
<path d="M237.344 148.371L234.441 150.156V124.721L237.344 123.159V148.371Z" fill="#9FFFF8"/>
<g opacity="0.4">
<path opacity="0.4" d="M310.579 89.6918L285.795 103.971V97.2777L310.579 82.9984V89.6918Z" fill="#9FFFF8"/>
<path opacity="0.4" d="M319.51 95.0466L285.795 114.457V107.764L319.51 88.3531V95.0466Z" fill="#9FFFF8"/>
<path opacity="0.4" d="M301.201 116.019L285.795 124.944V118.25L301.201 109.326V116.019Z" fill="#9FFFF8"/>
</g>
<path d="M257.886 134.315L282.669 120.035V126.729L257.886 141.008V134.315Z" fill="#9FFFF8"/>
<path d="M248.954 128.96L282.669 109.549V116.242L248.954 135.653V128.96Z" fill="#9FFFF8"/>
<path d="M267.04 107.987L282.669 99.0626V105.756L267.04 114.904V107.987Z" fill="#9FFFF8"/>
<path d="M261.234 111.334L263.914 109.772V116.466L261.234 118.25V111.334Z" fill="#9FFFF8"/>
<path d="M255.876 114.457L258.779 112.896V119.589L255.876 121.151V114.457Z" fill="#9FFFF8"/>
<path d="M250.74 117.358L253.42 115.796V122.713L250.74 124.274V117.358Z" fill="#9FFFF8"/>
<path d="M245.382 120.482L248.284 118.92V125.613L245.382 127.398V120.482Z" fill="#9FFFF8"/>
<path d="M298.075 94.3772L285.795 101.517V99.7319L298.075 92.5923V94.3772Z" fill="#9FFFF8"/>
<path d="M302.541 102.409L285.795 112.003V110.218L302.541 100.401V102.409Z" fill="#9FFFF8"/>
<path d="M293.163 118.25L285.795 122.713V120.705L293.163 116.466V118.25Z" fill="#9FFFF8"/>
<g opacity="0.2">
<path opacity="0.1" d="M325.315 153.279L160.536 248.326V204.819L325.315 109.772V153.279Z" fill="#9FFFF8"/>
<path opacity="0.2" d="M171.924 222.222L168.798 223.783V205.711L171.924 204.149V222.222Z" fill="#9FFFF8"/>
<g opacity="0.2">
<path opacity="0.2" d="M171.924 224.899L168.798 226.461V225.345L171.924 223.783V224.899Z" fill="#9FFFF8"/>
<path opacity="0.2" d="M171.924 227.353L168.798 228.915V227.799L171.924 226.014V227.353Z" fill="#9FFFF8"/>
<path opacity="0.2" d="M171.924 229.807L168.798 231.369V230.254L171.924 228.469V229.807Z" fill="#9FFFF8"/>
<path opacity="0.2" d="M171.924 232.039L168.798 233.823V232.708L171.924 230.923V232.039Z" fill="#9FFFF8"/>
<path opacity="0.2" d="M171.924 234.493L168.798 236.278V235.162L171.924 233.377V234.493Z" fill="#9FFFF8"/>
<path opacity="0.2" d="M171.924 236.947L168.798 238.732V237.616L171.924 235.831V236.947Z" fill="#9FFFF8"/>
</g>
<g opacity="0.2">
<path opacity="0.2" d="M177.729 221.329L174.826 223.114V221.998L177.729 220.214V221.329Z" fill="#9FFFF8"/>
<path opacity="0.2" d="M177.729 223.783L174.826 225.568V224.453L177.729 222.668V223.783Z" fill="#9FFFF8"/>
<path opacity="0.2" d="M177.729 226.238L174.826 228.022V226.907L177.729 225.122V226.238Z" fill="#9FFFF8"/>
<path opacity="0.2" d="M177.729 228.692L174.826 230.477V229.361L177.729 227.576V228.692Z" fill="#9FFFF8"/>
<path opacity="0.2" d="M177.729 231.146L174.826 232.931V231.815L177.729 230.031V231.146Z" fill="#9FFFF8"/>
<path opacity="0.2" d="M177.729 233.6L174.826 235.385V234.047L177.729 232.485V233.6Z" fill="#9FFFF8"/>
</g>
<g opacity="0.2">
<path opacity="0.2" d="M189.785 224.23L186.883 226.014V224.899L189.785 223.114V224.23Z" fill="#9FFFF8"/>
<path opacity="0.2" d="M189.785 226.684L186.883 228.469V227.353L189.785 225.568V226.684Z" fill="#9FFFF8"/>
<path opacity="0.2" d="M183.757 230.254L180.854 231.815V230.7L183.757 228.915V230.254Z" fill="#9FFFF8"/>
</g>
<g opacity="0.2">
<path opacity="0.2" d="M195.813 218.429L192.688 220.213V218.875L195.813 217.313V218.429Z" fill="#9FFFF8"/>
<path opacity="0.2" d="M195.813 220.883L192.688 222.445V221.329L195.813 219.767V220.883Z" fill="#9FFFF8"/>
<path opacity="0.2" d="M195.813 223.337L192.688 224.899V223.783L195.813 222.221V223.337Z" fill="#9FFFF8"/>
</g>
<g opacity="0.2">
<path opacity="0.2" d="M201.619 207.719L198.717 209.281V208.165L201.619 206.38V207.719Z" fill="#9FFFF8"/>
<path opacity="0.2" d="M201.619 210.173L198.717 211.735V210.62L201.619 208.835V210.173Z" fill="#9FFFF8"/>
<path opacity="0.2" d="M201.619 212.405L198.717 214.189V213.074L201.619 211.289V212.405Z" fill="#9FFFF8"/>
<path opacity="0.2" d="M201.619 214.859L198.717 216.644V215.528L201.619 213.743V214.859Z" fill="#9FFFF8"/>
<path opacity="0.2" d="M201.619 217.313L198.717 219.098V217.982L201.619 216.197V217.313Z" fill="#9FFFF8"/>
<path opacity="0.2" d="M201.619 219.767L198.717 221.552V220.437L201.619 218.652V219.767Z" fill="#9FFFF8"/>
</g>
<g opacity="0.2">
<path opacity="0.2" d="M207.648 204.149L204.745 205.934V204.819L207.648 203.034V204.149Z" fill="#9FFFF8"/>
<path opacity="0.2" d="M207.648 206.604L204.745 208.389V207.273L207.648 205.488V206.604Z" fill="#9FFFF8"/>
<path opacity="0.2" d="M207.648 209.058L204.745 210.843V209.727L207.648 207.942V209.058Z" fill="#9FFFF8"/>
<path opacity="0.2" d="M207.648 211.512L204.745 213.297V212.181L207.648 210.397V211.512Z" fill="#9FFFF8"/>
<path opacity="0.2" d="M207.648 213.966L204.745 215.751V214.413L207.648 212.851V213.966Z" fill="#9FFFF8"/>
<path opacity="0.2" d="M207.648 216.421L204.745 218.206V216.867L207.648 215.305V216.421Z" fill="#9FFFF8"/>
</g>
<g opacity="0.2">
<path opacity="0.2" d="M213.676 205.711L210.55 207.273V206.157L213.676 204.372V205.711Z" fill="#9FFFF8"/>
<path opacity="0.2" d="M213.676 208.165L210.55 209.727V208.612L213.676 206.827V208.165Z" fill="#9FFFF8"/>
<path opacity="0.2" d="M213.676 210.62L210.55 212.181V211.066L213.676 209.281V210.62Z" fill="#9FFFF8"/>
<path opacity="0.2" d="M213.676 212.851L210.55 214.636V213.52L213.676 211.735V212.851Z" fill="#9FFFF8"/>
<path opacity="0.2" d="M219.481 209.504L216.578 211.289V210.173L219.481 208.388V209.504Z" fill="#9FFFF8"/>
</g>
<g opacity="0.2">
<path opacity="0.2" d="M225.509 193.886L222.606 195.671V194.555L225.509 192.771V193.886Z" fill="#9FFFF8"/>
<path opacity="0.2" d="M225.509 196.34L222.606 198.125V196.787L225.509 195.225V196.34Z" fill="#9FFFF8"/>
<path opacity="0.2" d="M225.509 198.795L222.606 200.579V199.241L225.509 197.679V198.795Z" fill="#9FFFF8"/>
<path opacity="0.2" d="M225.509 201.249L222.606 202.811V201.695L225.509 200.133V201.249Z" fill="#9FFFF8"/>
<path opacity="0.2" d="M225.509 203.703L222.606 205.265V204.149L225.509 202.588V203.703Z" fill="#9FFFF8"/>
<path opacity="0.2" d="M225.509 206.157L222.606 207.719V206.604L225.509 204.819V206.157Z" fill="#9FFFF8"/>
</g>
<g opacity="0.2">
<path opacity="0.2" d="M231.538 197.679L228.412 199.464V198.348L231.538 196.563V197.679Z" fill="#9FFFF8"/>
<path opacity="0.2" d="M231.538 200.133L228.412 201.918V200.803L231.538 199.018V200.133Z" fill="#9FFFF8"/>
<path opacity="0.2" d="M231.538 202.587L228.412 204.372V203.257L231.538 201.472V202.587Z" fill="#9FFFF8"/>
</g>
<g opacity="0.2">
<path opacity="0.2" d="M237.344 194.332L234.441 196.117V194.778L237.344 193.217V194.332Z" fill="#9FFFF8"/>
<path opacity="0.2" d="M237.344 196.786L234.441 198.571V197.233L237.344 195.671V196.786Z" fill="#9FFFF8"/>
<path opacity="0.2" d="M237.344 199.241L234.441 200.803V199.687L237.344 198.125V199.241Z" fill="#9FFFF8"/>
</g>
<path opacity="0.2" d="M177.729 221.106L174.826 222.891V206.827L177.729 205.042V221.106Z" fill="#9FFFF8"/>
<path opacity="0.2" d="M183.757 227.799L180.854 229.361V208.612L183.757 206.827V227.799Z" fill="#9FFFF8"/>
<path opacity="0.2" d="M189.785 221.775L186.883 223.56V210.843L189.785 209.281V221.775Z" fill="#9FFFF8"/>
<path opacity="0.2" d="M195.813 215.974L192.688 217.759V202.141L195.813 200.356V215.974Z" fill="#9FFFF8"/>
<path opacity="0.2" d="M201.619 205.042L198.717 206.827V193.663L201.619 191.878V205.042Z" fill="#9FFFF8"/>
<path opacity="0.2" d="M207.648 201.695L204.745 203.48V184.515L207.648 182.953V201.695Z" fill="#9FFFF8"/>
<path opacity="0.2" d="M213.676 203.257L210.55 204.819V184.962L213.676 183.4V203.257Z" fill="#9FFFF8"/>
<path opacity="0.2" d="M219.482 207.05L216.579 208.835V183.4L219.482 181.615V207.05Z" fill="#9FFFF8"/>
<path opacity="0.2" d="M225.509 202.811L222.606 204.372V185.631L225.509 183.846V202.811Z" fill="#9FFFF8"/>
<path opacity="0.2" d="M231.538 195.002L228.412 196.787V178.714L231.538 176.929V195.002Z" fill="#9FFFF8"/>
<path opacity="0.2" d="M237.344 191.655L234.441 193.44V168.005L237.344 166.22V191.655Z" fill="#9FFFF8"/>
<g opacity="0.4">
<path opacity="0.4" d="M310.579 132.976L285.795 147.255V140.339L310.579 126.059V132.976Z" fill="#9FFFF8"/>
<path opacity="0.4" d="M319.51 138.331L285.795 157.742V150.825L319.51 131.414V138.331Z" fill="#9FFFF8"/>
<path opacity="0.4" d="M301.201 159.08L285.795 168.228V161.311L301.201 152.387V159.08Z" fill="#9FFFF8"/>
</g>
<g opacity="0.2">
<path opacity="0.2" d="M257.886 177.376L282.669 163.096V170.013L257.886 184.292V177.376Z" fill="#9FFFF8"/>
<path opacity="0.2" d="M248.954 172.021L282.669 152.61V159.527L248.954 178.937V172.021Z" fill="#9FFFF8"/>
<path opacity="0.2" d="M267.04 151.048L282.669 142.124V149.04L267.04 157.965V151.048Z" fill="#9FFFF8"/>
<path opacity="0.2" d="M261.234 154.618L263.914 152.833V159.75L261.234 161.311V154.618Z" fill="#9FFFF8"/>
<path opacity="0.2" d="M255.876 157.519L258.779 155.957V162.65L255.876 164.435V157.519Z" fill="#9FFFF8"/>
<path opacity="0.2" d="M250.74 160.642L253.42 159.08V165.774L250.74 167.336V160.642Z" fill="#9FFFF8"/>
<path opacity="0.2" d="M245.382 163.543L248.284 161.981V168.897L245.382 170.459V163.543Z" fill="#9FFFF8"/>
</g>
<path opacity="0.2" d="M298.075 137.438L285.795 144.578V142.793L298.075 135.653V137.438Z" fill="#9FFFF8"/>
<path opacity="0.2" d="M302.541 145.47L285.795 155.287V153.279L302.541 143.685V145.47Z" fill="#9FFFF8"/>
<path opacity="0.2" d="M293.163 161.535L285.795 165.774V163.989L293.163 159.526V161.535Z" fill="#9FFFF8"/>
</g>
<path opacity="0.4" d="M390.735 186.523C392.521 184.961 392.521 182.284 390.958 180.499C389.395 178.714 386.716 178.714 384.93 180.276C383.143 181.838 383.143 184.515 384.706 186.3C386.492 187.862 389.172 188.085 390.735 186.523Z" fill="#42E8E0"/>
<path d="M439.632 182.73C441.418 181.169 441.418 178.491 439.855 176.706C438.293 174.921 435.613 174.921 433.827 176.483C432.041 178.045 432.041 180.722 433.604 182.507C435.39 184.292 438.069 184.292 439.632 182.73Z" fill="#42E8E0"/>
<path opacity="0.4" d="M427.575 117.358C429.362 115.573 429.585 112.673 427.799 110.888C426.013 109.103 423.11 108.88 421.324 110.665C419.537 112.449 419.314 115.35 421.1 117.135C422.887 118.92 425.789 118.92 427.575 117.358Z" fill="#42E8E0"/>
<path opacity="0.4" d="M422.439 130.299C423.555 129.183 423.555 127.621 422.662 126.506C421.546 125.39 419.983 125.39 418.867 126.283C417.75 127.398 417.75 128.96 418.643 130.075C419.76 131.191 421.323 131.191 422.439 130.299Z" fill="#42E8E0"/>
<path opacity="0.8" d="M416.858 123.382C417.528 122.713 417.528 121.597 416.858 120.928C416.188 120.258 415.072 120.258 414.402 120.928C413.732 121.597 413.732 122.713 414.402 123.382C415.072 124.051 416.188 124.051 416.858 123.382Z" fill="#42E8E0"/>
<path opacity="0.8" d="M428.468 162.204C429.138 161.535 429.138 160.419 428.468 159.75C427.798 159.08 426.682 159.08 426.012 159.75C425.342 160.419 425.342 161.535 426.012 162.204C426.682 162.873 427.798 162.873 428.468 162.204Z" fill="#42E8E0"/>
<path opacity="0.4" d="M403.908 112.226C404.131 112.003 404.131 111.78 403.908 111.557C403.684 111.334 403.461 111.334 403.238 111.557C403.014 111.78 403.014 112.003 403.238 112.226C403.461 112.449 403.684 112.449 403.908 112.226Z" fill="#42E8E0"/>
<path opacity="0.8" d="M407.034 134.091C407.257 133.868 407.257 133.645 407.034 133.422C406.81 133.199 406.587 133.199 406.364 133.422C406.14 133.645 406.14 133.868 406.364 134.091C406.587 134.315 406.81 134.315 407.034 134.091Z" fill="#42E8E0"/>
<path opacity="0.8" d="M413.954 175.814C414.178 175.591 414.178 175.368 413.954 175.145C413.731 174.921 413.508 174.921 413.285 175.145C413.061 175.368 413.061 175.591 413.285 175.814C413.285 176.037 413.731 176.037 413.954 175.814Z" fill="#42E8E0"/>
<path opacity="0.8" d="M409.043 169.344C409.267 169.12 409.267 168.897 409.043 168.674C408.82 168.451 408.597 168.451 408.374 168.674C408.15 168.897 408.15 169.12 408.374 169.344C408.597 169.344 408.82 169.567 409.043 169.344Z" fill="#42E8E0"/>
<path opacity="0.4" d="M390.958 137.215C393.637 134.761 393.637 130.745 391.181 128.067C388.725 125.39 384.706 125.39 382.027 127.844C379.347 130.299 379.347 134.315 381.803 136.992C384.259 139.446 388.502 139.669 390.958 137.215Z" fill="#42E8E0"/>
<path d="M356.35 149.709C357.69 148.594 357.69 146.363 356.573 145.247C355.457 143.908 353.224 143.909 352.108 145.024C350.768 146.14 350.768 148.371 351.885 149.486C353.001 150.825 355.01 150.825 356.35 149.709Z" fill="#42E8E0"/>
<path opacity="0.4" d="M414.402 149.709C415.742 148.594 415.741 146.363 414.625 145.247C413.509 143.908 411.276 143.909 410.16 145.024C408.82 146.14 408.82 148.371 409.936 149.486C411.053 150.825 413.062 150.825 414.402 149.709Z" fill="#42E8E0"/>
<path opacity="0.4" d="M390.958 96.6084C392.297 95.4928 392.297 93.2617 391.181 92.1461C390.064 90.8074 387.832 90.8074 386.715 91.923C385.376 93.0386 385.376 95.2697 386.492 96.3853C387.608 97.724 389.618 97.9471 390.958 96.6084Z" fill="#42E8E0"/>
<path opacity="0.4" d="M350.544 119.812C351.884 118.697 351.884 116.465 350.768 115.35C349.651 114.011 347.419 114.011 346.302 115.127C344.962 116.242 344.962 118.474 346.079 119.589C347.195 120.928 349.205 120.928 350.544 119.812Z" fill="#42E8E0"/>
<path opacity="0.4" d="M460.62 129.629C461.959 128.514 461.959 126.283 460.843 125.167C459.726 123.828 457.494 123.828 456.377 124.944C455.038 126.059 455.038 128.291 456.154 129.406C457.27 130.745 459.28 130.968 460.62 129.629Z" fill="#42E8E0"/>
<path opacity="0.4" d="M437.399 73.6276C438.738 72.5121 438.738 70.2809 437.622 69.1653C436.506 67.8267 434.273 67.8267 433.156 68.9422C432.04 70.0578 431.817 72.2889 432.933 73.4045C434.05 74.7432 436.059 74.7432 437.399 73.6276Z" fill="#42E8E0"/>
<path d="M479.822 79.4286C480.492 78.7592 480.492 77.8668 479.822 77.1974C479.152 76.5281 478.259 76.5281 477.589 77.1974C476.919 77.8668 476.919 78.7592 477.589 79.4286C478.036 80.0979 479.152 80.0979 479.822 79.4286Z" fill="#42E8E0"/>
<path opacity="0.4" d="M400.336 175.591C401.006 174.921 401.229 173.583 400.336 172.913C399.666 172.244 398.326 172.021 397.656 172.913C396.987 173.583 396.763 174.921 397.656 175.591C398.326 176.26 399.666 176.26 400.336 175.591Z" fill="#42E8E0"/>
<path d="M396.763 122.266C397.432 121.597 397.656 120.258 396.763 119.589C396.093 118.92 394.753 118.697 394.083 119.589C393.413 120.258 393.19 121.597 394.083 122.266C394.753 122.936 395.869 123.159 396.763 122.266Z" fill="#42E8E0"/>
<path d="M372.648 121.597C373.095 121.151 373.095 120.258 372.648 119.812C372.202 119.366 371.309 119.366 370.862 119.812C370.416 120.258 370.416 121.151 370.862 121.597C371.309 122.043 372.202 122.043 372.648 121.597Z" fill="#42E8E0"/>
<path d="M369.076 121.597C369.746 120.928 369.746 119.812 369.076 118.92C368.406 118.25 367.29 118.25 366.397 118.92C365.727 119.589 365.727 120.705 366.397 121.597C367.067 122.266 368.183 122.266 369.076 121.597Z" fill="#42E8E0"/>
<path d="M368.406 125.836C368.853 125.39 368.853 124.721 368.406 124.498C367.959 124.051 367.29 124.051 367.066 124.498C366.62 124.944 366.62 125.613 367.066 125.836C367.29 126.283 367.959 126.283 368.406 125.836Z" fill="#42E8E0"/>
<path opacity="0.4" d="M386.045 156.18C386.491 155.734 386.715 154.841 386.045 154.395C385.598 153.949 384.705 153.726 384.259 154.395C383.812 154.841 383.589 155.734 384.259 156.18C384.705 156.626 385.598 156.849 386.045 156.18Z" fill="#42E8E0"/>
<path opacity="0.4" d="M424.673 161.758C425.119 161.311 425.343 160.419 424.673 159.973C424.226 159.527 423.333 159.303 422.887 159.973C422.44 160.419 422.217 161.311 422.887 161.758C423.333 162.204 424.226 162.204 424.673 161.758Z" fill="#42E8E0"/>
<path d="M394.307 158.188C395.646 156.849 395.646 154.841 394.53 153.502C393.19 152.164 391.181 152.164 389.841 153.279C388.502 154.618 388.502 156.626 389.618 157.965C390.958 159.527 392.967 159.527 394.307 158.188Z" fill="#42E8E0"/>
<path d="M214.569 296.965C211.666 306.782 195.59 326.193 185.543 323.292C175.719 320.392 175.495 296.072 178.621 286.255C181.524 276.438 192.018 270.637 202.065 273.761C211.89 276.661 217.695 287.148 214.569 296.965Z" fill="url(#paint1_radial)"/>
<path d="M214.569 296.965C211.666 306.782 195.59 326.193 185.543 323.292C175.719 320.392 175.495 296.072 178.621 286.255C181.524 276.438 192.018 270.637 202.065 273.761C211.89 276.661 217.695 287.148 214.569 296.965Z" fill="url(#paint2_linear)"/>
<path d="M195.591 273.761C200.727 273.315 207.425 276.438 210.551 280.677C213.453 284.917 211.667 288.709 206.532 289.379C201.396 289.825 194.698 286.701 191.572 282.462C188.446 278 190.233 274.207 195.591 273.761Z" fill="#251C72"/>
<path opacity="0.5" d="M195.591 273.761C200.727 273.315 207.425 276.438 210.551 280.677C213.453 284.917 211.667 288.709 206.532 289.379C201.396 289.825 194.698 286.701 191.572 282.462C188.446 278 190.233 274.207 195.591 273.761Z" fill="url(#paint3_radial)"/>
<path d="M190.009 278.669C190.902 278 192.242 277.331 194.028 277.108C199.163 276.661 205.861 279.785 208.987 284.024C209.88 285.363 210.327 286.701 210.55 287.817C212.336 286.255 212.56 283.578 210.55 280.677C207.648 276.438 200.949 273.315 195.591 273.761C191.795 273.984 190.009 275.992 190.009 278.669Z" fill="#42E8E0"/>
<path opacity="0.6" d="M213.005 268.629C212.112 268.629 211.442 269.299 211.442 269.968C211.442 270.86 212.112 271.53 212.782 271.53C213.675 271.53 214.345 270.86 214.345 270.191C214.345 269.522 213.898 268.629 213.005 268.629Z" fill="#42E8E0"/>
<path d="M198.939 258.366C196.93 258.366 195.144 259.928 195.144 261.936C195.144 263.944 196.706 265.729 198.716 265.729C200.725 265.729 202.512 264.167 202.512 262.159C202.735 260.151 201.172 258.366 198.939 258.366Z" fill="#42E8E0"/>
<path opacity="0.6" d="M220.373 249.888C219.257 249.888 218.364 250.78 218.141 251.896C218.141 253.011 219.034 253.904 220.15 254.127C221.267 254.127 222.16 253.234 222.383 252.119C222.383 251.003 221.49 249.888 220.373 249.888Z" fill="#42E8E0"/>
<path d="M212.113 251.673C211.22 251.673 210.773 252.342 210.55 253.011C210.55 253.904 211.22 254.35 211.889 254.573C212.783 254.573 213.229 253.904 213.452 253.234C213.452 252.342 212.783 251.673 212.113 251.673Z" fill="#42E8E0"/>
<path d="M213.675 248.326C213.229 248.326 212.782 248.772 212.782 249.218C212.782 249.665 213.229 250.111 213.675 250.111C214.122 250.111 214.568 249.665 214.568 249.218C214.568 248.772 214.122 248.326 213.675 248.326Z" fill="#42E8E0"/>
<path opacity="0.6" d="M201.619 275.992C200.502 275.992 199.609 276.884 199.609 278C199.609 279.116 200.502 280.008 201.619 280.008C202.735 280.008 203.628 279.116 203.628 278C203.628 276.884 202.735 275.992 201.619 275.992Z" fill="#42E8E0"/>
<path d="M207.87 275.323C206.084 275.323 204.744 276.661 204.744 278.446C204.744 280.231 206.084 281.57 207.87 281.57C209.656 281.57 210.996 280.231 210.996 278.446C210.996 276.661 209.656 275.323 207.87 275.323Z" fill="#42E8E0"/>
<path d="M241.138 262.828C256.799 262.828 269.495 250.142 269.495 234.493C269.495 218.844 256.799 206.157 241.138 206.157C225.478 206.157 212.782 218.844 212.782 234.493C212.782 250.142 225.478 262.828 241.138 262.828Z" fill="url(#paint4_radial)"/>
<path d="M256.321 210.843C269.494 219.321 273.29 236.724 265.029 249.888C256.544 263.051 239.129 266.844 225.955 258.589C212.782 250.111 208.986 232.708 217.247 219.544C225.732 206.157 243.148 202.364 256.321 210.843Z" fill="url(#paint5_linear)"/>
<path d="M382.25 285.809C382.25 340.695 349.651 385.095 309.238 385.095C268.825 385.095 236.227 340.695 236.227 285.809C236.227 230.923 268.825 214.413 309.238 214.413C349.651 214.413 382.25 230.923 382.25 285.809Z" fill="url(#paint6_radial)"/>
<path d="M382.25 285.809C382.25 340.695 349.651 385.095 309.238 385.095C268.825 385.095 236.227 340.695 236.227 285.809C236.227 230.923 268.825 214.413 309.238 214.413C349.651 214.413 382.25 230.923 382.25 285.809Z" fill="url(#paint7_linear)"/>
<path d="M309.238 272.868C336.737 272.868 359.029 259.982 359.029 244.087C359.029 228.191 336.737 215.305 309.238 215.305C281.739 215.305 259.447 228.191 259.447 244.087C259.447 259.982 281.739 272.868 309.238 272.868Z" fill="#251C72"/>
<path opacity="0.5" d="M309.238 272.868C336.737 272.868 359.029 259.982 359.029 244.087C359.029 228.191 336.737 215.305 309.238 215.305C281.739 215.305 259.447 228.191 259.447 244.087C259.447 259.982 281.739 272.868 309.238 272.868Z" fill="url(#paint8_radial)"/>
<path d="M273.96 231.369C293.385 220.214 324.867 220.214 344.515 231.369C352.553 236.055 357.242 241.856 358.582 247.88C360.591 239.401 355.903 230.254 344.515 223.783C325.09 212.628 293.608 212.628 273.96 223.783C262.573 230.477 257.884 239.401 259.894 247.88C261.233 241.856 265.922 236.055 273.96 231.369Z" fill="#42E8E0"/>
<path d="M281.245 158.618C289.445 144.426 289.427 129.075 281.204 124.33C272.982 119.586 259.668 127.246 251.468 141.438C243.268 155.631 243.286 170.982 251.509 175.726C259.731 180.47 273.045 172.811 281.245 158.618Z" fill="#BCBEFF"/>
<path d="M312.141 249.888C353.327 249.888 386.715 216.524 386.715 175.368C386.715 134.211 353.327 100.848 312.141 100.848C270.955 100.848 237.566 134.211 237.566 175.368C237.566 216.524 270.955 249.888 312.141 249.888Z" fill="url(#paint9_radial)"/>
<path d="M312.141 249.888C353.327 249.888 386.715 216.524 386.715 175.368C386.715 134.211 353.327 100.848 312.141 100.848C270.955 100.848 237.566 134.211 237.566 175.368C237.566 216.524 270.955 249.888 312.141 249.888Z" fill="url(#paint10_linear)"/>
<path d="M288.919 210.62C286.91 225.345 275.969 229.807 264.136 220.883C252.302 211.958 244.487 192.77 246.273 178.045C248.283 163.319 259.224 158.857 271.057 167.782C282.891 176.929 290.706 196.117 288.919 210.62Z" fill="#251C72"/>
<path opacity="0.5" d="M288.919 210.62C286.91 225.345 275.969 229.807 264.136 220.883C252.302 211.958 244.487 192.77 246.273 178.045C248.283 163.319 259.224 158.857 271.057 167.782C282.891 176.929 290.706 196.117 288.919 210.62Z" fill="url(#paint11_radial)"/>
<path d="M279.095 198.125C278.425 203.48 274.406 205.042 270.164 201.918C265.922 198.571 263.019 191.655 263.689 186.3C264.359 180.945 268.378 179.384 272.62 182.507C277.085 185.854 279.765 192.77 279.095 198.125Z" fill="#42E8E0"/>
<path d="M269.718 218.875C257.884 209.95 250.069 190.762 251.855 176.037C252.525 170.013 254.981 165.774 258.107 163.319C252.079 163.989 247.39 169.12 246.05 178.045C244.041 192.77 252.079 211.735 263.912 220.883C270.834 226.238 277.532 226.684 282.221 223.337C278.649 223.783 274.406 222.221 269.718 218.875Z" fill="#42E8E0"/>
<path d="M265.252 220.437C253.419 211.512 245.604 192.324 247.39 177.599C248.283 170.905 251.186 166.22 254.982 163.989C250.516 165.774 247.167 170.682 246.274 178.045C244.264 192.77 252.302 211.735 264.136 220.883C270.388 225.791 276.639 226.684 281.105 224.23C276.639 226.014 271.058 224.899 265.252 220.437Z" fill="#42E8E0"/>
<path d="M389.394 333.109C405.055 333.109 417.75 320.423 417.75 304.774C417.75 289.124 405.055 276.438 389.394 276.438C373.734 276.438 361.038 289.124 361.038 304.774C361.038 320.423 373.734 333.109 389.394 333.109Z" fill="url(#paint12_radial)"/>
<path d="M389.394 333.109C405.055 333.109 417.75 320.423 417.75 304.774C417.75 289.124 405.055 276.438 389.394 276.438C373.734 276.438 361.038 289.124 361.038 304.774C361.038 320.423 373.734 333.109 389.394 333.109Z" fill="url(#paint13_linear)"/>
<path d="M416.634 305.22C416.634 313.252 411.052 322.846 404.13 326.862C397.209 330.878 391.627 327.531 391.627 319.722C391.627 311.69 397.209 302.096 404.13 298.08C411.052 294.064 416.634 297.411 416.634 305.22Z" fill="#251C72"/>
<path opacity="0.5" d="M416.634 305.22C416.634 313.252 411.052 322.846 404.13 326.862C397.209 330.878 391.627 327.531 391.627 319.722C391.627 311.69 397.209 302.096 404.13 298.08C411.052 294.064 416.634 297.411 416.634 305.22Z" fill="url(#paint14_radial)"/>
<path d="M409.936 296.295C411.053 297.857 411.499 299.865 411.499 302.543C411.499 310.575 405.917 320.169 398.996 324.185C396.763 325.3 394.977 325.97 393.19 325.97C395.423 329.093 399.442 329.539 404.131 326.862C411.053 322.846 416.635 313.252 416.635 305.22C416.635 299.865 413.955 296.519 409.936 296.295Z" fill="#42E8E0"/>
<path d="M374.881 202.588L348.088 218.206V187.193L374.881 171.575V202.588Z" fill="#251C72"/>
<path opacity="0.8" d="M370.862 173.806V200.58L348.088 213.743V218.206L374.881 202.588V171.575L370.862 173.806Z" fill="url(#paint15_radial)"/>
<path d="M353.224 195.671L350.768 197.01V194.332L353.224 192.771V195.671Z" fill="#42E8E0"/>
<path d="M358.358 189.201L355.902 190.539V187.639L358.358 186.3V189.201Z" fill="#42E8E0"/>
<path d="M363.494 189.647L361.038 191.209V188.308L363.494 186.969V189.647Z" fill="#42E8E0"/>
<path d="M363.494 197.01L361.038 198.348V195.671L363.494 194.332V197.01Z" fill="#42E8E0"/>
<path d="M360.369 202.588L357.913 203.926V201.249L360.369 199.91V202.588Z" fill="#42E8E0"/>
<path d="M368.63 193.886L366.174 195.448V192.547L368.63 191.209V193.886Z" fill="#42E8E0"/>
<path d="M396.763 194.555L399.665 189.424L396.763 187.639L369.746 203.257V234.27L372.649 236.055L375.551 230.923L396.763 218.875V194.555Z" fill="url(#paint16_linear)"/>
<path d="M399.665 220.437L372.648 236.055V204.819L399.665 189.424V220.437Z" fill="url(#paint17_linear)"/>
<path d="M399.665 220.437L372.648 236.055V204.819L399.665 189.424V220.437Z" fill="url(#paint18_linear)"/>
<path d="M408.82 384.202C405.917 394.019 389.841 413.43 379.794 410.53C369.97 407.629 369.746 383.31 372.872 373.493C375.775 363.676 386.269 357.875 396.316 360.998C406.14 363.676 411.946 374.162 408.82 384.202Z" fill="url(#paint19_radial)"/>
<path d="M408.82 384.202C405.917 394.019 389.841 413.43 379.794 410.53C369.97 407.629 369.746 383.31 372.872 373.493C375.775 363.676 386.269 357.875 396.316 360.998C406.14 363.676 411.946 374.162 408.82 384.202Z" fill="url(#paint20_linear)"/>
<path d="M389.842 360.775C394.978 360.329 401.676 363.453 404.802 367.692C407.704 371.931 405.918 375.724 400.783 376.393C395.647 376.839 388.949 373.716 385.823 369.477C382.697 365.238 384.484 361.221 389.842 360.775Z" fill="#251C72"/>
<path opacity="0.5" d="M389.842 360.775C394.978 360.329 401.676 363.453 404.802 367.692C407.704 371.931 405.918 375.724 400.783 376.393C395.647 376.839 388.949 373.716 385.823 369.477C382.697 365.238 384.484 361.221 389.842 360.775Z" fill="url(#paint21_radial)"/>
<path d="M384.26 365.684C385.153 365.014 386.493 364.345 388.279 364.122C393.414 363.676 400.112 366.799 403.238 371.039C404.131 372.377 404.578 373.716 404.801 374.831C406.587 373.27 406.811 370.592 404.801 367.692C401.899 363.453 395.2 360.329 389.842 360.775C386.046 361.221 384.26 363.229 384.26 365.684Z" fill="#42E8E0"/>
<path opacity="0.6" d="M404.577 348.95C405.247 348.281 405.247 347.388 404.577 346.942C403.907 346.273 403.014 346.273 402.568 346.942C401.898 347.612 401.898 348.504 402.568 348.95C403.014 349.397 403.907 349.397 404.577 348.95Z" fill="#42E8E0"/>
<path d="M421.77 346.496C423.333 345.157 423.333 342.703 421.993 341.141C420.653 339.579 418.197 339.579 416.634 340.918C415.071 342.257 415.071 344.711 416.411 346.273C417.751 347.835 420.207 347.835 421.77 346.496Z" fill="#42E8E0"/>
<path opacity="0.6" d="M412.393 367.469C413.286 366.576 413.286 365.461 412.393 364.568C411.5 363.676 410.383 363.676 409.49 364.568C408.597 365.461 408.597 366.576 409.49 367.469C410.16 368.138 411.5 368.361 412.393 367.469Z" fill="#42E8E0"/>
<path d="M417.081 360.329C417.751 359.883 417.751 358.99 417.081 358.321C416.635 357.652 415.742 357.652 415.072 358.321C414.402 358.767 414.402 359.66 415.072 360.329C415.742 360.998 416.635 360.998 417.081 360.329Z" fill="#42E8E0"/>
<path d="M418.197 363.899C418.644 363.453 418.644 363.006 418.197 362.56C417.75 362.114 417.304 362.114 416.857 362.56C416.411 363.006 416.411 363.453 416.857 363.899C417.304 364.122 417.974 364.122 418.197 363.899Z" fill="#42E8E0"/>
<path opacity="0.6" d="M407.48 335.787C408.373 334.894 408.373 333.778 407.48 332.886C406.587 331.994 405.47 331.994 404.577 332.886C403.684 333.778 403.684 334.894 404.577 335.787C405.47 336.456 406.81 336.456 407.48 335.787Z" fill="#42E8E0"/>
<path d="M403.461 340.695C404.801 339.579 404.801 337.571 403.685 336.233C402.568 334.894 400.559 334.894 399.219 336.01C397.879 337.125 397.879 339.133 398.996 340.472C400.336 341.811 402.345 341.811 403.461 340.695Z" fill="#42E8E0"/>
<path opacity="0.1" d="M541 384.202L371.31 482.372V428.379L541 330.432V384.202Z" fill="#9FFFF8"/>
<path d="M380.687 454.037L377.562 455.822V442.658L380.687 440.873V454.037Z" fill="#9FFFF8"/>
<path d="M386.939 450.467L383.813 452.252V434.403L386.939 432.618V450.467Z" fill="#9FFFF8"/>
<path d="M392.968 446.897L389.842 448.682V425.478L392.968 423.693V446.897Z" fill="#9FFFF8"/>
<path d="M399.22 443.327L396.094 445.112V424.14L399.22 422.355V443.327Z" fill="#9FFFF8"/>
<path d="M405.248 439.758L402.122 441.542V423.693L405.248 421.909V439.758Z" fill="#9FFFF8"/>
<path opacity="0.9" d="M411.499 436.188L408.373 437.973V423.024L411.499 421.462V436.188Z" fill="#9FFFF8"/>
<path opacity="0.9" d="M417.529 432.618L414.626 434.403V423.024L417.529 421.239V432.618Z" fill="#9FFFF8"/>
<path opacity="0.7" d="M423.779 429.271L420.653 431.056V422.132L423.779 420.347V429.271Z" fill="#9FFFF8"/>
<path opacity="0.7" d="M429.809 425.701L426.906 427.486V420.57L429.809 418.785V425.701Z" fill="#9FFFF8"/>
<path opacity="0.5" d="M436.059 422.132L432.934 423.917V414.546L436.059 412.761V422.132Z" fill="#9FFFF8"/>
<path opacity="0.5" d="M442.089 418.562L439.187 420.347V406.737L442.089 404.952V418.562Z" fill="#9FFFF8"/>
<path opacity="0.3" d="M448.34 414.992L445.214 416.777V398.928L448.34 397.143V414.992Z" fill="#9FFFF8"/>
<path opacity="0.3" d="M454.368 411.422L451.466 413.207V398.928L454.368 397.143V411.422Z" fill="#9FFFF8"/>
<path opacity="0.1" d="M460.62 407.852L457.494 409.637V399.374L460.62 397.589V407.852Z" fill="#9FFFF8"/>
<path opacity="0.1" d="M466.649 404.282L463.746 406.067V398.482L466.649 396.697V404.282Z" fill="#9FFFF8"/>
<path d="M531.623 349.173L534.526 347.388V365.238L531.623 367.022V349.173Z" fill="#9FFFF8"/>
<path opacity="0.9" d="M525.37 355.644L528.496 353.859V368.807L525.37 370.592V355.644Z" fill="#9FFFF8"/>
<path opacity="0.9" d="M519.119 362.56L522.245 360.775V372.377L519.119 374.162V362.56Z" fill="#9FFFF8"/>
<path opacity="0.7" d="M513.09 368.807L516.216 367.022V375.947L513.09 377.732V368.807Z" fill="#9FFFF8"/>
<path opacity="0.7" d="M506.839 374.385L509.965 372.6V379.294L506.839 381.079V374.385Z" fill="#9FFFF8"/>
<path opacity="0.5" d="M500.81 375.278L503.935 373.493V382.864L500.81 384.648V375.278Z" fill="#9FFFF8"/>
<path opacity="0.5" d="M494.559 374.608L497.684 372.823V386.433L494.559 388.218V374.608Z" fill="#9FFFF8"/>
<path opacity="0.3" d="M488.529 373.939L491.655 372.154V390.003L488.529 391.788V373.939Z" fill="#9FFFF8"/>
<path opacity="0.3" d="M482.278 381.079L485.404 379.294V393.573L482.278 395.358V381.079Z" fill="#9FFFF8"/>
<path opacity="0.1" d="M476.25 388.664L479.376 386.88V397.143L476.25 398.928V388.664Z" fill="#9FFFF8"/>
<path opacity="0.1" d="M469.998 394.912L473.124 393.127V400.713L469.998 402.498V394.912Z" fill="#9FFFF8"/>
<path d="M417.529 432.618L414.626 434.403L417.529 432.618Z" fill="#9FFFF8"/>
<g opacity="0.1">
<g opacity="0.1">
<path opacity="0.1" d="M380.687 459.392L377.562 461.177V458.276L380.687 456.491V459.392Z" fill="#9FFFF8"/>
<path opacity="0.1" d="M392.968 452.252L389.842 454.037V451.136L392.968 449.352V452.252Z" fill="#9FFFF8"/>
<path opacity="0.1" d="M399.22 448.905L396.094 450.467V447.567L399.22 445.782V448.905Z" fill="#9FFFF8"/>
<path opacity="0.1" d="M405.248 445.336L402.122 447.12V443.997L405.248 442.212V445.336Z" fill="#9FFFF8"/>
<path opacity="0.1" d="M411.499 441.766L408.373 443.551V440.65L411.499 438.865V441.766Z" fill="#9FFFF8"/>
<path opacity="0.1" d="M423.779 434.626L420.653 436.411V433.51L423.779 431.726V434.626Z" fill="#9FFFF8"/>
<path opacity="0.1" d="M429.809 431.056L426.906 432.841V429.941L429.809 428.156V431.056Z" fill="#9FFFF8"/>
<path opacity="0.1" d="M436.059 427.486L432.934 429.271V426.371L436.059 424.586V427.486Z" fill="#9FFFF8"/>
<path opacity="0.1" d="M442.089 423.917L439.187 425.701V422.801L442.089 421.016V423.917Z" fill="#9FFFF8"/>
<path opacity="0.1" d="M448.34 420.347L445.214 422.132V419.231L448.34 417.446V420.347Z" fill="#9FFFF8"/>
<path opacity="0.1" d="M460.62 413.43L457.494 415.215V412.091L460.62 410.307V413.43Z" fill="#9FFFF8"/>
<path opacity="0.1" d="M466.649 409.86L463.746 411.645V408.745L466.649 406.96V409.86Z" fill="#9FFFF8"/>
<path opacity="0.1" d="M472.9 406.291L469.774 408.075V405.175L472.9 403.39V406.291Z" fill="#9FFFF8"/>
<path opacity="0.1" d="M478.929 402.721L476.026 404.506V401.605L478.929 399.82V402.721Z" fill="#9FFFF8"/>
<path opacity="0.1" d="M485.181 399.151L482.055 400.936V398.035L485.181 396.25V399.151Z" fill="#9FFFF8"/>
<path opacity="0.1" d="M491.433 395.581L488.307 397.366V394.465L491.433 392.681V395.581Z" fill="#9FFFF8"/>
<path opacity="0.1" d="M497.461 392.011L494.335 393.796V390.896L497.461 389.111V392.011Z" fill="#9FFFF8"/>
<path opacity="0.1" d="M509.741 384.872L506.615 386.656V383.756L509.741 381.971V384.872Z" fill="#9FFFF8"/>
<path opacity="0.1" d="M515.993 381.525L512.867 383.31V380.186L515.993 378.401V381.525Z" fill="#9FFFF8"/>
<path opacity="0.1" d="M522.021 377.955L518.896 379.74V376.839L522.021 375.055V377.955Z" fill="#9FFFF8"/>
<path opacity="0.1" d="M528.273 374.385L525.147 376.17V373.27L528.273 371.485V374.385Z" fill="#9FFFF8"/>
</g>
<g opacity="0.1">
<path opacity="0.1" d="M380.687 464.746L377.562 466.531V463.631L380.687 461.846V464.746Z" fill="#9FFFF8"/>
<path opacity="0.1" d="M386.939 461.177L383.813 462.961V460.061L386.939 458.276V461.177Z" fill="#9FFFF8"/>
<path opacity="0.1" d="M392.968 457.607L389.842 459.392V456.491L392.968 454.706V457.607Z" fill="#9FFFF8"/>
<path opacity="0.1" d="M399.22 454.037L396.094 455.822V452.921L399.22 451.136V454.037Z" fill="#9FFFF8"/>
<path opacity="0.1" d="M405.248 450.467L402.122 452.252V449.352L405.248 447.567V450.467Z" fill="#9FFFF8"/>
<path opacity="0.1" d="M411.499 446.897L408.373 448.682V445.782L411.499 443.997V446.897Z" fill="#9FFFF8"/>
<path opacity="0.1" d="M423.779 439.981L420.653 441.542V438.642L423.779 436.857V439.981Z" fill="#9FFFF8"/>
<path opacity="0.1" d="M436.059 432.841L432.934 434.626V431.725L436.059 429.941V432.841Z" fill="#9FFFF8"/>
<path opacity="0.1" d="M442.089 429.271L439.187 431.056V428.156L442.089 426.371V429.271Z" fill="#9FFFF8"/>
<path opacity="0.1" d="M448.34 425.701L445.214 427.486V424.586L448.34 422.801V425.701Z" fill="#9FFFF8"/>
<path opacity="0.1" d="M460.62 418.562L457.494 420.347V417.446L460.62 415.661V418.562Z" fill="#9FFFF8"/>
<path opacity="0.1" d="M466.649 414.992L463.746 416.777V413.876L466.649 412.092V414.992Z" fill="#9FFFF8"/>
<path opacity="0.1" d="M485.181 404.506L482.055 406.29V403.167L485.181 401.382V404.506Z" fill="#9FFFF8"/>
<path opacity="0.1" d="M491.433 400.936L488.307 402.721V399.82L491.433 398.035V400.936Z" fill="#9FFFF8"/>
<path opacity="0.1" d="M497.461 397.366L494.335 399.151V396.25L497.461 394.465V397.366Z" fill="#9FFFF8"/>
<path opacity="0.1" d="M509.741 390.226L506.615 392.011V389.111L509.741 387.326V390.226Z" fill="#9FFFF8"/>
<path opacity="0.1" d="M522.021 383.087L518.896 384.872V381.971L522.021 380.186V383.087Z" fill="#9FFFF8"/>
<path opacity="0.1" d="M528.273 379.517L525.147 381.302V378.401L528.273 376.616V379.517Z" fill="#9FFFF8"/>
<path opacity="0.1" d="M534.302 375.947L531.176 377.732V374.831L534.302 373.047V375.947Z" fill="#9FFFF8"/>
</g>
<g opacity="0.1">
<path opacity="0.1" d="M380.687 469.878L377.562 471.663V468.762L380.687 466.978V469.878Z" fill="#9FFFF8"/>
<path opacity="0.1" d="M386.939 466.308L383.813 468.093V465.193L386.939 463.408V466.308Z" fill="#9FFFF8"/>
<path opacity="0.1" d="M411.499 452.252L408.373 454.037V451.136L411.499 449.352V452.252Z" fill="#9FFFF8"/>
<path opacity="0.1" d="M417.529 448.682L414.626 450.467V447.567L417.529 445.782V448.682Z" fill="#9FFFF8"/>
<path opacity="0.1" d="M423.779 445.112L420.653 446.897V443.997L423.779 442.212V445.112Z" fill="#9FFFF8"/>
<path opacity="0.1" d="M429.809 441.543L426.906 443.327V440.427L429.809 438.642V441.543Z" fill="#9FFFF8"/>
<path opacity="0.1" d="M436.059 437.973L432.934 439.758V436.857L436.059 435.072V437.973Z" fill="#9FFFF8"/>
<path opacity="0.1" d="M448.34 431.056L445.214 432.618V429.717L448.34 427.933V431.056Z" fill="#9FFFF8"/>
<path opacity="0.1" d="M454.368 427.486L451.466 429.271V426.148L454.368 424.363V427.486Z" fill="#9FFFF8"/>
<path opacity="0.1" d="M466.649 420.347L463.746 422.132V419.231L466.649 417.446V420.347Z" fill="#9FFFF8"/>
<path opacity="0.1" d="M472.9 416.777L469.774 418.562V415.661L472.9 413.876V416.777Z" fill="#9FFFF8"/>
<path opacity="0.1" d="M478.929 413.207L476.026 414.992V412.091L478.929 410.307V413.207Z" fill="#9FFFF8"/>
<path opacity="0.1" d="M485.181 409.637L482.055 411.422V408.522L485.181 406.737V409.637Z" fill="#9FFFF8"/>
<path opacity="0.1" d="M491.433 406.067L488.307 407.852V404.952L491.433 403.167V406.067Z" fill="#9FFFF8"/>
<path opacity="0.1" d="M503.713 399.151L500.587 400.713V397.812L503.713 396.027V399.151Z" fill="#9FFFF8"/>
<path opacity="0.1" d="M509.741 395.581L506.615 397.366V394.242L509.741 392.457V395.581Z" fill="#9FFFF8"/>
<path opacity="0.1" d="M515.993 392.011L512.867 393.796V390.896L515.993 389.111V392.011Z" fill="#9FFFF8"/>
<path opacity="0.1" d="M522.021 388.441L518.896 390.226V387.326L522.021 385.541V388.441Z" fill="#9FFFF8"/>
<path opacity="0.1" d="M528.273 384.872L525.147 386.656V383.756L528.273 381.971V384.872Z" fill="#9FFFF8"/>
<path opacity="0.1" d="M534.302 381.302L531.176 383.087V380.186L534.302 378.401V381.302Z" fill="#9FFFF8"/>
</g>
</g>
<path d="M386.939 455.822L383.813 457.607V454.706L386.939 452.921V455.822Z" fill="#9FFFF8"/>
<path d="M417.528 438.196L414.625 439.981V437.08L417.528 435.295V438.196Z" fill="#9FFFF8"/>
<path d="M454.368 416.777L451.466 418.562V415.661L454.368 413.876V416.777Z" fill="#9FFFF8"/>
<path d="M503.713 388.441L500.587 390.226V387.326L503.713 385.541V388.441Z" fill="#9FFFF8"/>
<path d="M534.302 370.815L531.176 372.6V369.7L534.302 367.915V370.815Z" fill="#9FFFF8"/>
<path d="M417.528 443.327L414.625 445.112V442.212L417.528 440.427V443.327Z" fill="#9FFFF8"/>
<path d="M429.808 436.411L426.905 438.196V435.072L429.808 433.287V436.411Z" fill="#9FFFF8"/>
<path d="M454.368 422.132L451.466 423.917V421.016L454.368 419.231V422.132Z" fill="#9FFFF8"/>
<path d="M472.9 411.422L469.774 413.207V410.307L472.9 408.522V411.422Z" fill="#9FFFF8"/>
<path d="M478.929 407.852L476.026 409.637V406.737L478.929 404.952V407.852Z" fill="#9FFFF8"/>
<path d="M503.713 393.796L500.587 395.581V392.681L503.713 390.896V393.796Z" fill="#9FFFF8"/>
<path d="M515.993 386.656L512.867 388.441V385.541L515.993 383.756V386.656Z" fill="#9FFFF8"/>
<path d="M392.968 462.961L389.842 464.523V461.623L392.968 459.838V462.961Z" fill="#9FFFF8"/>
<path d="M399.22 459.392L396.094 461.177V458.053L399.22 456.491V459.392Z" fill="#9FFFF8"/>
<path d="M405.247 455.822L402.121 457.607V454.706L405.247 452.921V455.822Z" fill="#9FFFF8"/>
<path d="M442.088 434.403L439.186 436.188V433.287L442.088 431.502V434.403Z" fill="#9FFFF8"/>
<path d="M460.62 423.917L457.494 425.701V422.801L460.62 421.016V423.917Z" fill="#9FFFF8"/>
<path d="M497.461 402.498L494.335 404.283V401.382L497.461 399.597V402.498Z" fill="#9FFFF8"/>
<path opacity="0.1" d="M164.778 381.302L0 476.348V432.841L164.778 337.795V381.302Z" fill="#9FFFF8"/>
<path opacity="0.3" d="M8.26172 466.085L13.6204 453.368C15.4066 449.352 18.979 446.897 21.2118 448.013L21.8816 448.459C23.8911 449.575 26.7937 447.79 28.8032 444.443L37.511 429.048C39.5205 425.702 42.6464 423.917 44.4326 425.032L49.7912 428.156C51.3542 429.048 53.8102 428.156 55.5964 425.702L57.8292 422.801C59.6154 420.793 61.6249 419.677 63.1878 420.124L72.3422 422.801C74.1284 423.247 76.5844 421.909 78.3707 419.231L86.4086 407.183C86.6319 406.96 86.8552 406.514 87.0785 406.291L96.0096 389.334C97.5725 386.433 100.252 384.425 102.261 384.649C103.824 384.872 105.834 383.756 107.62 381.525L112.309 375.501V406.067L8.26172 466.085Z" fill="#9FFFF8"/>
<path d="M9.15411 466.308L7.81445 465.639L13.1731 452.921C14.2895 450.244 16.5223 447.79 18.755 447.12C19.8714 446.674 20.9878 446.674 21.8809 447.344L22.5507 447.79C24.1137 448.682 26.793 446.897 28.3559 443.997L37.0637 428.602C38.4034 426.148 40.4129 424.586 42.1991 423.917C43.3155 423.693 44.2086 423.694 45.1017 424.14L50.4604 427.263C51.5767 427.933 53.5862 427.04 55.3724 425.032L57.6052 422.132C59.6147 419.677 61.8475 418.562 63.857 419.231L73.0113 421.909C74.5743 422.355 76.5838 421.016 78.1467 418.562L86.1847 406.514C86.4079 406.291 86.6312 405.844 86.6312 405.621L95.5623 388.665C97.3485 385.318 100.251 383.31 102.707 383.533C104.047 383.756 105.833 382.641 107.173 380.856L111.862 374.832L113.201 375.724L108.512 381.748C106.726 384.202 104.493 385.318 102.484 385.095C100.921 384.872 98.4649 386.657 96.902 389.334L87.9709 406.291C87.7476 406.737 87.5243 406.96 87.301 407.406L79.2631 419.454C77.2536 422.355 74.5743 423.917 72.3415 423.47L63.1871 420.793C61.8475 420.347 60.0613 421.462 58.7216 423.247L56.4888 426.148C54.2561 428.825 51.5767 429.941 49.5672 428.825L44.2086 425.702C43.762 425.478 43.3155 425.478 42.6457 425.478C41.0827 425.925 39.5198 427.263 38.4034 429.271L29.6956 444.666C27.4628 448.459 24.1137 450.244 21.6576 448.905L20.9878 448.459C20.318 448.013 19.6481 448.236 19.2016 448.459C17.4154 449.128 15.6291 451.137 14.5128 453.368L9.15411 466.308Z" fill="#9FFFF8"/>
<path d="M63.1868 410.753C63.1868 412.538 61.8471 414.546 60.5074 415.438C58.9445 416.331 57.8281 415.661 57.8281 413.876C57.8281 412.091 59.1678 410.083 60.5074 409.191C61.8471 408.298 63.1868 408.968 63.1868 410.753Z" fill="#9FFFF8"/>
<path d="M20.095 439.981C20.095 441.766 18.7553 443.774 17.4157 444.666C15.8527 445.559 14.7363 444.889 14.7363 443.104C14.7363 441.319 16.076 439.311 17.4157 438.419C18.7553 437.527 20.095 438.196 20.095 439.981Z" fill="#9FFFF8"/>
<path d="M103.601 402.944L92.8838 409.191V407.406L103.601 401.159V402.944Z" fill="#9FFFF8"/>
<path d="M107.397 404.506L92.8838 412.984V410.976L107.397 402.721V404.506Z" fill="#9FFFF8"/>
<path d="M46.6652 436.857L35.7246 443.104V441.319L46.6652 434.849V436.857Z" fill="#9FFFF8"/>
<path d="M37.5108 445.782L35.7246 446.897V444.889L37.5108 443.997V445.782Z" fill="#9FFFF8"/>
<path opacity="0.3" d="M150.935 353.859L124.812 368.807V398.928L150.935 383.979V353.859Z" fill="#9FFFF8"/>
<path opacity="0.3" d="M131.063 369.477L128.384 371.039V374.162L131.063 372.6V369.477Z" fill="#9FFFF8"/>
<path d="M136.422 366.353L133.743 367.915V371.039L136.422 369.477V366.353Z" fill="#9FFFF8"/>
<path opacity="0.3" d="M141.781 363.23L139.102 364.791V367.915L141.781 366.353V363.23Z" fill="#9FFFF8"/>
<path opacity="0.3" d="M147.139 360.329L144.46 361.668V364.791L147.139 363.23V360.329Z" fill="#9FFFF8"/>
<path opacity="0.3" d="M131.063 375.501L128.384 377.063V380.186L131.063 378.624V375.501Z" fill="#9FFFF8"/>
<path d="M136.422 372.6L133.743 374.162V377.063L136.422 375.501V372.6Z" fill="#9FFFF8"/>
<path opacity="0.3" d="M141.781 369.477L139.102 371.039V374.162L141.781 372.6V369.477Z" fill="#9FFFF8"/>
<path opacity="0.3" d="M147.139 366.353L144.46 367.915V371.039L147.139 369.477V366.353Z" fill="#9FFFF8"/>
<path d="M131.063 381.748L128.384 383.31V386.433L131.063 384.872V381.748Z" fill="#9FFFF8"/>
<path opacity="0.3" d="M136.422 378.624L133.743 380.186V383.31L136.422 381.748V378.624Z" fill="#9FFFF8"/>
<path opacity="0.3" d="M141.781 375.501L139.102 377.063V380.186L141.781 378.624V375.501Z" fill="#9FFFF8"/>
<path d="M147.139 372.6L144.46 374.162V377.063L147.139 375.501V372.6Z" fill="#9FFFF8"/>
<path opacity="0.3" d="M131.063 387.995L128.384 389.334V392.457L131.063 390.896V387.995Z" fill="#9FFFF8"/>
<path d="M136.422 384.872L133.743 386.433V389.334L136.422 387.995V384.872Z" fill="#9FFFF8"/>
<path opacity="0.3" d="M141.781 381.748L139.102 383.31V386.433L141.781 384.872V381.748Z" fill="#9FFFF8"/>
<path opacity="0.3" d="M147.139 378.624L144.46 380.186V383.31L147.139 381.748V378.624Z" fill="#9FFFF8"/>
<g opacity="0.2">
<g opacity="0.2">
<path opacity="0.1" d="M164.778 425.478L0 520.525V477.018L164.778 381.971V425.478Z" fill="#9FFFF8"/>
<path opacity="0.3" d="M8.26172 510.262L13.6204 497.544C15.4066 493.528 18.979 491.074 21.2118 492.189L21.8816 492.636C23.8911 493.751 26.7937 491.966 28.8032 488.62L37.511 473.225C39.5205 469.878 42.6464 468.093 44.4326 469.209L49.7912 472.332C51.3542 473.225 53.8102 472.332 55.5964 469.878L57.8292 466.978C59.6154 464.97 61.6249 463.854 63.1878 464.3L72.3422 466.978C74.1284 467.424 76.5844 466.085 78.3707 463.408L86.4086 451.36C86.6319 451.136 86.8552 450.69 87.0785 450.467L96.0096 433.51C97.5725 430.61 100.252 428.602 102.261 428.825C103.824 429.048 105.834 427.933 107.62 425.701L112.309 419.677V449.798L8.26172 510.262Z" fill="#9FFFF8"/>
<path opacity="0.2" d="M9.15411 510.485L7.81445 509.815L13.1731 497.098C14.2895 494.42 16.5223 491.966 18.755 491.297C19.8714 490.851 20.9878 490.851 21.8809 491.52L22.5507 491.966C24.1137 492.859 26.793 491.074 28.3559 488.173L37.0637 472.778C38.4034 470.324 40.4129 468.762 42.1991 468.093C43.3155 467.87 44.2086 467.87 45.1017 468.316L50.4604 471.44C51.5767 472.109 53.5862 471.217 55.3724 469.209L57.6052 466.308C59.6147 463.854 61.8475 462.738 63.857 463.408L73.0113 466.085C74.351 466.531 76.5838 465.193 78.1467 462.738L86.1847 450.69C86.4079 450.467 86.6312 450.021 86.6312 449.798L95.5623 432.841C97.3485 429.494 100.251 427.486 102.707 427.709C104.047 427.932 105.833 426.817 107.173 425.032L111.862 419.008L113.201 419.9L108.512 425.924C106.726 428.379 104.493 429.494 102.484 429.271C100.921 429.048 98.4649 430.833 96.902 433.51L87.9709 450.467C87.7476 450.913 87.5243 451.136 87.301 451.583L79.2631 463.631C77.2536 466.531 74.5743 468.093 72.3415 467.647L63.1871 464.969C62.0708 464.523 60.0613 465.639 58.7216 467.424L56.4888 470.324C54.2561 473.002 51.5767 474.117 49.5672 473.002L44.2086 469.878C43.762 469.655 43.3155 469.655 42.6457 469.655C41.0827 470.101 39.5198 471.44 38.4034 473.448L29.6956 488.843C27.4628 492.636 24.1137 494.42 21.6576 493.082L20.9878 492.636C20.318 492.189 19.6481 492.412 19.2016 492.636C17.4154 493.305 15.6291 495.313 14.5128 497.544L9.15411 510.485Z" fill="#9FFFF8"/>
</g>
<path opacity="0.2" d="M63.1868 454.929C63.1868 456.714 61.8471 458.722 60.5074 459.615C58.9445 460.507 57.8281 459.838 57.8281 458.053C57.8281 456.268 59.1678 454.26 60.5074 453.368C61.8471 452.475 63.1868 453.144 63.1868 454.929Z" fill="#9FFFF8"/>
<path opacity="0.2" d="M20.095 484.157C20.095 485.942 18.7553 487.95 17.4157 488.843C15.8527 489.735 14.7363 489.066 14.7363 487.281C14.7363 485.496 16.076 483.488 17.4157 482.595C18.7553 481.48 20.095 482.372 20.095 484.157Z" fill="#9FFFF8"/>
<g opacity="0.2">
<path opacity="0.2" d="M103.601 447.12L92.8838 453.368V451.36L103.601 445.335V447.12Z" fill="#9FFFF8"/>
<path opacity="0.2" d="M107.397 448.682L92.8838 456.937V455.153L107.397 446.674V448.682Z" fill="#9FFFF8"/>
</g>
<g opacity="0.2">
<path opacity="0.2" d="M46.6652 480.811L35.7246 487.281V485.273L46.6652 479.026V480.811Z" fill="#9FFFF8"/>
<path opacity="0.2" d="M37.5108 489.958L35.7246 491.074V489.066L37.5108 487.95V489.958Z" fill="#9FFFF8"/>
</g>
<path opacity="0.3" d="M150.935 397.812L124.812 412.984V443.104L150.935 427.933V397.812Z" fill="#9FFFF8"/>
<path opacity="0.3" d="M131.063 413.653L128.384 415.215V418.116L131.063 416.554V413.653Z" fill="#9FFFF8"/>
<path opacity="0.2" d="M136.422 410.53L133.743 412.091V415.215L136.422 413.653V410.53Z" fill="#9FFFF8"/>
<path opacity="0.3" d="M141.781 407.406L139.102 408.968V412.091L141.781 410.53V407.406Z" fill="#9FFFF8"/>
<path opacity="0.3" d="M147.139 404.282L144.46 405.844V408.968L147.139 407.406V404.282Z" fill="#9FFFF8"/>
<path opacity="0.3" d="M131.063 419.677L128.384 421.239V424.363L131.063 422.801V419.677Z" fill="#9FFFF8"/>
<path opacity="0.2" d="M136.422 416.554L133.743 418.116V421.239L136.422 419.677V416.554Z" fill="#9FFFF8"/>
<path opacity="0.3" d="M141.781 413.653L139.102 415.215V418.116L141.781 416.554V413.653Z" fill="#9FFFF8"/>
<path opacity="0.3" d="M147.139 410.53L144.46 412.091V415.215L147.139 413.653V410.53Z" fill="#9FFFF8"/>
<path opacity="0.2" d="M131.063 425.925L128.384 427.486V430.387L131.063 428.825V425.925Z" fill="#9FFFF8"/>
<path opacity="0.3" d="M136.422 422.801L133.743 424.363V427.486L136.422 425.924V422.801Z" fill="#9FFFF8"/>
<path opacity="0.3" d="M141.781 419.677L139.102 421.239V424.363L141.781 422.801V419.677Z" fill="#9FFFF8"/>
<path opacity="0.2" d="M147.139 416.554L144.46 418.116V421.239L147.139 419.677V416.554Z" fill="#9FFFF8"/>
<path opacity="0.3" d="M131.063 431.949L128.384 433.51V436.634L131.063 435.072V431.949Z" fill="#9FFFF8"/>
<path opacity="0.2" d="M136.422 428.825L133.743 430.387V433.51L136.422 431.949V428.825Z" fill="#9FFFF8"/>
<path opacity="0.3" d="M141.781 425.925L139.102 427.486V430.387L141.781 428.825V425.925Z" fill="#9FFFF8"/>
<path opacity="0.3" d="M147.139 422.801L144.46 424.363V427.486L147.139 425.924V422.801Z" fill="#9FFFF8"/>
</g>
<g opacity="0.2">
<g opacity="0.2">
<path opacity="0.1" d="M540.999 430.164L371.532 527.888V483.042L540.999 385.318V430.164Z" fill="#9FFFF8"/>
</g>
<g opacity="0.2">
<g opacity="0.2">
<path opacity="0.2" d="M380.91 503.568L377.784 505.353V494.421L380.91 492.636V503.568Z" fill="#9FFFF8"/>
<path opacity="0.2" d="M387.162 499.998L384.036 501.783V486.835L387.162 485.05V499.998Z" fill="#9FFFF8"/>
<path opacity="0.2" d="M393.19 496.429L390.064 498.213V478.803L393.19 477.241V496.429Z" fill="#9FFFF8"/>
<path opacity="0.2" d="M399.442 492.859L396.316 494.644V477.018L399.442 475.233V492.859Z" fill="#9FFFF8"/>
<path opacity="0.2" d="M405.471 489.289L402.345 491.074V476.348L405.471 474.563V489.289Z" fill="#9FFFF8"/>
<path opacity="0.9" d="M411.722 485.719L408.596 487.504V475.233L411.722 473.448V485.719Z" fill="#9FFFF8"/>
<path opacity="0.9" d="M417.751 482.372L414.625 483.934V474.34L417.751 472.555V482.372Z" fill="#9FFFF8"/>
<path opacity="0.7" d="M424.002 478.803L420.876 480.587V473.225L424.002 471.44V478.803Z" fill="#9FFFF8"/>
<path opacity="0.7" d="M430.031 475.233L426.905 477.018V471.217L430.031 469.432V475.233Z" fill="#9FFFF8"/>
<path opacity="0.5" d="M436.282 471.663L433.156 473.448V465.639L436.282 463.854V471.663Z" fill="#9FFFF8"/>
<path opacity="0.5" d="M442.311 468.093L439.186 469.878V458.499L442.311 456.714V468.093Z" fill="#9FFFF8"/>
<path opacity="0.3" d="M448.562 464.523L445.437 466.308V451.583L448.562 449.798V464.523Z" fill="#9FFFF8"/>
<path opacity="0.3" d="M454.592 460.953L451.466 462.738V450.913L454.592 449.128V460.953Z" fill="#9FFFF8"/>
<path opacity="0.1" d="M460.619 457.384L457.717 459.169V450.69L460.619 448.905V457.384Z" fill="#9FFFF8"/>
<path opacity="0.1" d="M466.872 454.037L463.746 455.822V449.352L466.872 447.567V454.037Z" fill="#9FFFF8"/>
</g>
<g opacity="0.2">
<path opacity="0.2" d="M531.622 401.828L534.525 400.043V414.769L531.622 416.554V401.828Z" fill="#9FFFF8"/>
<path opacity="0.9" d="M525.37 407.852L528.496 406.067V418.339L525.37 420.124V407.852Z" fill="#9FFFF8"/>
<path opacity="0.9" d="M519.342 414.1L522.244 412.315V421.909L519.342 423.693V414.1Z" fill="#9FFFF8"/>
<path opacity="0.7" d="M513.09 419.9L516.216 418.116V425.478L513.09 427.263V419.9Z" fill="#9FFFF8"/>
<path opacity="0.7" d="M507.062 425.032L509.964 423.247V429.048L507.062 430.833V425.032Z" fill="#9FFFF8"/>
<path opacity="0.5" d="M500.81 426.594L503.935 424.809V432.618L500.81 434.403V426.594Z" fill="#9FFFF8"/>
<path opacity="0.5" d="M494.781 426.594L497.684 424.809V436.188L494.781 437.973V426.594Z" fill="#9FFFF8"/>
<path opacity="0.3" d="M488.529 426.594L491.655 424.809V439.758L488.529 441.319V426.594Z" fill="#9FFFF8"/>
<path opacity="0.3" d="M482.501 433.064L485.404 431.279V443.104L482.501 444.889V433.064Z" fill="#9FFFF8"/>
<path opacity="0.1" d="M476.249 439.981L479.375 438.196V446.674L476.249 448.459V439.981Z" fill="#9FFFF8"/>
<path opacity="0.1" d="M470.221 445.782L473.347 443.997V450.244L470.221 452.029V445.782Z" fill="#9FFFF8"/>
</g>
<path opacity="0.2" d="M417.751 482.372L414.625 483.934L417.751 482.372Z" fill="#9FFFF8"/>
</g>
<g opacity="0.1">
<g opacity="0.1">
<path opacity="0.1" d="M380.91 508.031L377.784 509.815V507.361L380.91 505.576V508.031Z" fill="#9FFFF8"/>
<path opacity="0.1" d="M393.19 500.891L390.064 502.676V500.222L393.19 498.437V500.891Z" fill="#9FFFF8"/>
<path opacity="0.1" d="M399.442 497.321L396.316 499.106V496.652L399.442 494.867V497.321Z" fill="#9FFFF8"/>
<path opacity="0.1" d="M405.471 493.974L402.345 495.536V493.305L405.471 491.52V493.974Z" fill="#9FFFF8"/>
<path opacity="0.1" d="M411.722 490.405L408.596 492.189V489.735L411.722 487.95V490.405Z" fill="#9FFFF8"/>
<path opacity="0.1" d="M424.002 483.265L420.876 485.05V482.596L424.002 480.811V483.265Z" fill="#9FFFF8"/>
<path opacity="0.1" d="M430.031 479.695L426.905 481.48V479.026L430.031 477.241V479.695Z" fill="#9FFFF8"/>
<path opacity="0.1" d="M436.282 476.125L433.156 477.91V475.456L436.282 473.671V476.125Z" fill="#9FFFF8"/>
<path opacity="0.1" d="M442.311 472.555L439.186 474.34V471.886L442.311 470.101V472.555Z" fill="#9FFFF8"/>
<path opacity="0.1" d="M448.562 468.986L445.437 470.771V468.316L448.562 466.754V468.986Z" fill="#9FFFF8"/>
<path opacity="0.1" d="M460.619 462.069L457.717 463.854V461.4L460.619 459.615V462.069Z" fill="#9FFFF8"/>
<path opacity="0.1" d="M466.872 458.499L463.746 460.284V457.83L466.872 456.045V458.499Z" fill="#9FFFF8"/>
<path opacity="0.1" d="M472.9 454.929L469.997 456.714V454.26L472.9 452.475V454.929Z" fill="#9FFFF8"/>
<path opacity="0.1" d="M479.152 451.36L476.026 453.144V450.69L479.152 448.905V451.36Z" fill="#9FFFF8"/>
<path opacity="0.1" d="M485.18 447.79L482.277 449.575V447.12L485.18 445.335V447.79Z" fill="#9FFFF8"/>
<path opacity="0.1" d="M491.433 444.22L488.307 446.005V443.551L491.433 441.766V444.22Z" fill="#9FFFF8"/>
<path opacity="0.1" d="M497.46 440.873L494.558 442.435V440.204L497.46 438.419V440.873Z" fill="#9FFFF8"/>
<path opacity="0.1" d="M509.741 433.734L506.838 435.518V433.064L509.741 431.279V433.734Z" fill="#9FFFF8"/>
<path opacity="0.1" d="M515.993 430.164L512.867 431.949V429.494L515.993 427.709V430.164Z" fill="#9FFFF8"/>
<path opacity="0.1" d="M522.021 426.594L519.118 428.379V425.925L522.021 424.14V426.594Z" fill="#9FFFF8"/>
<path opacity="0.1" d="M528.272 423.024L525.146 424.809V422.355L528.272 420.57V423.024Z" fill="#9FFFF8"/>
</g>
<g opacity="0.1">
<path opacity="0.1" d="M380.91 512.493L377.784 514.278V511.823L380.91 510.039V512.493Z" fill="#9FFFF8"/>
<path opacity="0.1" d="M387.162 508.923L384.036 510.708V508.254L387.162 506.469V508.923Z" fill="#9FFFF8"/>
<path opacity="0.1" d="M393.19 505.353L390.064 507.138V504.684L393.19 502.899V505.353Z" fill="#9FFFF8"/>
<path opacity="0.1" d="M399.442 501.783L396.316 503.568V501.114L399.442 499.329V501.783Z" fill="#9FFFF8"/>
<path opacity="0.1" d="M405.471 498.214L402.345 499.998V497.544L405.471 495.759V498.214Z" fill="#9FFFF8"/>
<path opacity="0.1" d="M411.722 494.644L408.596 496.429V493.974L411.722 492.189V494.644Z" fill="#9FFFF8"/>
<path opacity="0.1" d="M424.002 487.727L420.876 489.289V487.058L424.002 485.273V487.727Z" fill="#9FFFF8"/>
<path opacity="0.1" d="M436.282 480.588L433.156 482.372V479.918L436.282 478.133V480.588Z" fill="#9FFFF8"/>
<path opacity="0.1" d="M442.311 477.018L439.186 478.803V476.348L442.311 474.563V477.018Z" fill="#9FFFF8"/>
<path opacity="0.1" d="M448.562 473.448L445.437 475.233V472.779L448.562 470.994V473.448Z" fill="#9FFFF8"/>
<path opacity="0.1" d="M460.619 466.308L457.717 468.093V465.639L460.619 463.854V466.308Z" fill="#9FFFF8"/>
<path opacity="0.1" d="M466.872 462.738L463.746 464.523V462.069L466.872 460.507V462.738Z" fill="#9FFFF8"/>
<path opacity="0.1" d="M485.18 452.252L482.277 454.037V451.583L485.18 449.798V452.252Z" fill="#9FFFF8"/>
<path opacity="0.1" d="M491.433 448.682L488.307 450.467V448.013L491.433 446.228V448.682Z" fill="#9FFFF8"/>
<path opacity="0.1" d="M497.46 445.112L494.558 446.897V444.443L497.46 442.658V445.112Z" fill="#9FFFF8"/>
<path opacity="0.1" d="M509.741 437.973L506.838 439.758V437.303L509.741 435.742V437.973Z" fill="#9FFFF8"/>
<path opacity="0.1" d="M522.021 431.056L519.118 432.841V430.387L522.021 428.602V431.056Z" fill="#9FFFF8"/>
<path opacity="0.1" d="M528.272 427.486L525.146 429.271V426.817L528.272 425.032V427.486Z" fill="#9FFFF8"/>
<path opacity="0.1" d="M534.301 423.917L531.398 425.701V423.247L534.301 421.462V423.917Z" fill="#9FFFF8"/>
</g>
<g opacity="0.1">
<path opacity="0.1" d="M380.91 516.732L377.784 518.517V516.063L380.91 514.278V516.732Z" fill="#9FFFF8"/>
<path opacity="0.1" d="M387.162 513.162L384.036 514.947V512.493L387.162 510.708V513.162Z" fill="#9FFFF8"/>
<path opacity="0.1" d="M411.722 499.106L408.596 500.891V498.437L411.722 496.652V499.106Z" fill="#9FFFF8"/>
<path opacity="0.1" d="M417.751 495.536L414.625 497.321V494.867L417.751 493.082V495.536Z" fill="#9FFFF8"/>
<path opacity="0.1" d="M424.002 491.966L420.876 493.751V491.297L424.002 489.512V491.966Z" fill="#9FFFF8"/>
<path opacity="0.1" d="M430.031 488.396L426.905 490.181V487.727L430.031 485.942V488.396Z" fill="#9FFFF8"/>
<path opacity="0.1" d="M436.282 484.827L433.156 486.612V484.157L436.282 482.596V484.827Z" fill="#9FFFF8"/>
<path opacity="0.1" d="M448.562 477.91L445.437 479.695V477.241L448.562 475.456V477.91Z" fill="#9FFFF8"/>
<path opacity="0.1" d="M454.592 474.34L451.466 476.125V473.671L454.592 471.886V474.34Z" fill="#9FFFF8"/>
<path opacity="0.1" d="M466.872 467.201L463.746 468.986V466.531L466.872 464.746V467.201Z" fill="#9FFFF8"/>
<path opacity="0.1" d="M472.9 463.631L469.997 465.416V462.961L472.9 461.177V463.631Z" fill="#9FFFF8"/>
<path opacity="0.1" d="M479.152 460.061L476.026 461.846V459.392L479.152 457.607V460.061Z" fill="#9FFFF8"/>
<path opacity="0.1" d="M485.18 456.714L482.277 458.276V456.045L485.18 454.26V456.714Z" fill="#9FFFF8"/>
<path opacity="0.1" d="M491.433 453.144L488.307 454.929V452.475L491.433 450.69V453.144Z" fill="#9FFFF8"/>
<path opacity="0.1" d="M503.713 446.005L500.587 447.79V445.335L503.713 443.551V446.005Z" fill="#9FFFF8"/>
<path opacity="0.1" d="M509.741 442.435L506.838 444.22V441.766L509.741 439.981V442.435Z" fill="#9FFFF8"/>
<path opacity="0.1" d="M515.993 438.865L512.867 440.65V438.196L515.993 436.411V438.865Z" fill="#9FFFF8"/>
<path opacity="0.1" d="M522.021 435.295L519.118 437.08V434.626L522.021 432.841V435.295Z" fill="#9FFFF8"/>
<path opacity="0.1" d="M528.272 431.726L525.146 433.51V431.056L528.272 429.494V431.726Z" fill="#9FFFF8"/>
<path opacity="0.1" d="M534.301 428.379L531.398 430.164V427.709L534.301 425.925V428.379Z" fill="#9FFFF8"/>
</g>
</g>
<path opacity="0.2" d="M387.162 504.461L384.036 506.246V503.791L387.162 502.006V504.461Z" fill="#9FFFF8"/>
<path opacity="0.2" d="M417.75 486.835L414.624 488.62V486.165L417.75 484.38V486.835Z" fill="#9FFFF8"/>
<path opacity="0.2" d="M454.591 465.639L451.465 467.424V464.969L454.591 463.185V465.639Z" fill="#9FFFF8"/>
<path opacity="0.2" d="M503.712 437.303L500.586 439.088V436.634L503.712 434.849V437.303Z" fill="#9FFFF8"/>
<path opacity="0.2" d="M534.301 419.454L531.398 421.239V418.785L534.301 417V419.454Z" fill="#9FFFF8"/>
<path opacity="0.2" d="M417.75 491.074L414.624 492.859V490.404L417.75 488.62V491.074Z" fill="#9FFFF8"/>
<path opacity="0.2" d="M430.03 484.157L426.904 485.942V483.488L430.03 481.703V484.157Z" fill="#9FFFF8"/>
<path opacity="0.2" d="M454.591 469.878L451.465 471.663V469.209L454.591 467.424V469.878Z" fill="#9FFFF8"/>
<path opacity="0.2" d="M472.9 459.392L469.997 461.177V458.722L472.9 456.937V459.392Z" fill="#9FFFF8"/>
<path opacity="0.2" d="M479.151 455.822L476.025 457.607V455.153L479.151 453.368V455.822Z" fill="#9FFFF8"/>
<path opacity="0.2" d="M503.712 441.543L500.586 443.327V440.873L503.712 439.088V441.543Z" fill="#9FFFF8"/>
<path opacity="0.2" d="M515.992 434.626L512.866 436.411V433.957L515.992 432.172V434.626Z" fill="#9FFFF8"/>
<path opacity="0.2" d="M393.19 509.815L390.064 511.377V509.146L393.19 507.361V509.815Z" fill="#9FFFF8"/>
<path opacity="0.2" d="M399.442 506.246L396.316 508.03V505.576L399.442 503.791V506.246Z" fill="#9FFFF8"/>
<path opacity="0.2" d="M405.47 502.676L402.344 504.461V502.006L405.47 500.221V502.676Z" fill="#9FFFF8"/>
<path opacity="0.2" d="M442.31 481.48L439.185 483.265V480.811L442.31 479.026V481.48Z" fill="#9FFFF8"/>
<path opacity="0.2" d="M460.619 470.77L457.717 472.555V470.101L460.619 468.316V470.77Z" fill="#9FFFF8"/>
<path opacity="0.2" d="M497.46 449.575L494.558 451.36V448.905L497.46 447.12V449.575Z" fill="#9FFFF8"/>
</g>
<defs>
<radialGradient id="paint0_radial" cx="0" cy="0" r="1" gradientUnits="userSpaceOnUse" gradientTransform="translate(352.291 499.5) scale(125.485 170.694)">
<stop stop-color="#C0BFF6"/>
<stop offset="1" stop-color="#393091"/>
</radialGradient>
<radialGradient id="paint1_radial" cx="0" cy="0" r="1" gradientUnits="userSpaceOnUse" gradientTransform="translate(208.359 282.213) rotate(16.7453) scale(53.3374 53.3049)">
<stop stop-color="#C0BFF6"/>
<stop offset="1" stop-color="#393091"/>
</radialGradient>
<linearGradient id="paint2_linear" x1="174.294" y1="308.147" x2="214.292" y2="284.624" gradientUnits="userSpaceOnUse">
<stop stop-color="#2FD3C7"/>
<stop offset="0.0880899" stop-color="#31B6BD"/>
<stop offset="0.2288" stop-color="#338DB0"/>
<stop offset="0.3734" stop-color="#356BA5"/>
<stop offset="0.5206" stop-color="#37519C"/>
<stop offset="0.6715" stop-color="#383F96"/>
<stop offset="0.8281" stop-color="#393492"/>
<stop offset="1" stop-color="#393091"/>
</linearGradient>
<radialGradient id="paint3_radial" cx="0" cy="0" r="1" gradientUnits="userSpaceOnUse" gradientTransform="translate(198.328 285.222) rotate(-95.11) scale(34.5914 34.6162)">
<stop stop-color="#42E8E0"/>
<stop offset="0.1055" stop-color="#37B6BF"/>
<stop offset="0.2197" stop-color="#2C87A1"/>
<stop offset="0.338" stop-color="#235F87"/>
<stop offset="0.4587" stop-color="#1C3F72"/>
<stop offset="0.5824" stop-color="#162561"/>
<stop offset="0.7105" stop-color="#121355"/>
<stop offset="0.8458" stop-color="#10084E"/>
<stop offset="1" stop-color="#0F054C"/>
</radialGradient>
<radialGradient id="paint4_radial" cx="0" cy="0" r="1" gradientUnits="userSpaceOnUse" gradientTransform="translate(376.458 144.282) rotate(11.1896) scale(163.245 163.135)">
<stop stop-color="#C0BFF6"/>
<stop offset="1" stop-color="#393091"/>
</radialGradient>
<linearGradient id="paint5_linear" x1="225.999" y1="258.405" x2="256.354" y2="210.714" gradientUnits="userSpaceOnUse">
<stop stop-color="#706EC4"/>
<stop offset="0.0222208" stop-color="#6D6BC2"/>
<stop offset="0.2509" stop-color="#5651AC"/>
<stop offset="0.4865" stop-color="#463F9D"/>
<stop offset="0.7314" stop-color="#3C3494"/>
<stop offset="1" stop-color="#393091"/>
</linearGradient>
<radialGradient id="paint6_radial" cx="0" cy="0" r="1" gradientUnits="userSpaceOnUse" gradientTransform="translate(352.291 271.001) scale(125.486 170.694)">
<stop stop-color="#C0BFF6"/>
<stop offset="1" stop-color="#393091"/>
</radialGradient>
<linearGradient id="paint7_linear" x1="309.208" y1="385.214" x2="309.208" y2="214.59" gradientUnits="userSpaceOnUse">
<stop stop-color="#2FD3C7"/>
<stop offset="0.0880899" stop-color="#31B6BD"/>
<stop offset="0.2288" stop-color="#338DB0"/>
<stop offset="0.3734" stop-color="#356BA5"/>
<stop offset="0.5206" stop-color="#37519C"/>
<stop offset="0.6715" stop-color="#383F96"/>
<stop offset="0.8281" stop-color="#393492"/>
<stop offset="1" stop-color="#393091"/>
</linearGradient>
<radialGradient id="paint8_radial" cx="0" cy="0" r="1" gradientUnits="userSpaceOnUse" gradientTransform="translate(307.273 271.708) scale(97.1286 97.0577)">
<stop stop-color="#42E8E0"/>
<stop offset="0.1055" stop-color="#37B6BF"/>
<stop offset="0.2197" stop-color="#2C87A1"/>
<stop offset="0.338" stop-color="#235F87"/>
<stop offset="0.4587" stop-color="#1C3F72"/>
<stop offset="0.5824" stop-color="#162561"/>
<stop offset="0.7105" stop-color="#121355"/>
<stop offset="0.8458" stop-color="#10084E"/>
<stop offset="1" stop-color="#0F054C"/>
</radialGradient>
<radialGradient id="paint9_radial" cx="0" cy="0" r="1" gradientUnits="userSpaceOnUse" gradientTransform="translate(358.58 164.436) scale(125.87 125.778)">
<stop stop-color="#C0BFF6"/>
<stop offset="1" stop-color="#393091"/>
</radialGradient>
<linearGradient id="paint10_linear" x1="301.739" y1="249.163" x2="322.44" y2="101.755" gradientUnits="userSpaceOnUse">
<stop stop-color="#2FD3C7"/>
<stop offset="0.0880899" stop-color="#31B6BD"/>
<stop offset="0.2288" stop-color="#338DB0"/>
<stop offset="0.3734" stop-color="#356BA5"/>
<stop offset="0.5206" stop-color="#37519C"/>
<stop offset="0.6715" stop-color="#383F96"/>
<stop offset="0.8281" stop-color="#393492"/>
<stop offset="1" stop-color="#393091"/>
</linearGradient>
<radialGradient id="paint11_radial" cx="0" cy="0" r="1" gradientUnits="userSpaceOnUse" gradientTransform="translate(288.914 182.323) scale(61.8245 61.7794)">
<stop stop-color="#42E8E0"/>
<stop offset="0.05911" stop-color="#3CCBCD"/>
<stop offset="0.1783" stop-color="#3098AC"/>
<stop offset="0.2996" stop-color="#266B8F"/>
<stop offset="0.4207" stop-color="#1E4777"/>
<stop offset="0.5414" stop-color="#172A65"/>
<stop offset="0.6619" stop-color="#131657"/>
<stop offset="0.7821" stop-color="#100A50"/>
<stop offset="0.9017" stop-color="#0F064D"/>
<stop offset="1" stop-color="#0F054C"/>
</radialGradient>
<radialGradient id="paint12_radial" cx="0" cy="0" r="1" gradientUnits="userSpaceOnUse" gradientTransform="translate(406.222 286.32) rotate(11.1896) scale(59.0005 58.9606)">
<stop stop-color="#C0BFF6"/>
<stop offset="1" stop-color="#393091"/>
</radialGradient>
<linearGradient id="paint13_linear" x1="366.586" y1="321.375" x2="412.321" y2="288.12" gradientUnits="userSpaceOnUse">
<stop stop-color="#2FD3C7"/>
<stop offset="0.0880899" stop-color="#31B6BD"/>
<stop offset="0.2288" stop-color="#338DB0"/>
<stop offset="0.3734" stop-color="#356BA5"/>
<stop offset="0.5206" stop-color="#37519C"/>
<stop offset="0.6715" stop-color="#383F96"/>
<stop offset="0.8281" stop-color="#393492"/>
<stop offset="1" stop-color="#393091"/>
</linearGradient>
<radialGradient id="paint14_radial" cx="0" cy="0" r="1" gradientUnits="userSpaceOnUse" gradientTransform="translate(398.856 308.069) scale(52.6929 52.6545)">
<stop stop-color="#42E8E0"/>
<stop offset="0.1055" stop-color="#37B6BF"/>
<stop offset="0.2197" stop-color="#2C87A1"/>
<stop offset="0.338" stop-color="#235F87"/>
<stop offset="0.4587" stop-color="#1C3F72"/>
<stop offset="0.5824" stop-color="#162561"/>
<stop offset="0.7105" stop-color="#121355"/>
<stop offset="0.8458" stop-color="#10084E"/>
<stop offset="1" stop-color="#0F054C"/>
</radialGradient>
<radialGradient id="paint15_radial" cx="0" cy="0" r="1" gradientUnits="userSpaceOnUse" gradientTransform="translate(356.435 141.707) scale(49.6675 63.7612)">
<stop stop-color="#2B237C"/>
<stop offset="0.31" stop-color="#251C72"/>
<stop offset="1" stop-color="#0F054C"/>
</radialGradient>
<linearGradient id="paint16_linear" x1="395.495" y1="208.575" x2="324.884" y2="230.063" gradientUnits="userSpaceOnUse">
<stop stop-color="#BCBEFF"/>
<stop offset="0.151" stop-color="#A3A7F5"/>
<stop offset="0.3866" stop-color="#8289E8"/>
<stop offset="0.6124" stop-color="#6A73DF"/>
<stop offset="0.8221" stop-color="#5C66D9"/>
<stop offset="1" stop-color="#5761D7"/>
</linearGradient>
<linearGradient id="paint17_linear" x1="383.271" y1="213.053" x2="286.503" y2="224.59" gradientUnits="userSpaceOnUse">
<stop stop-color="#BCBEFF"/>
<stop offset="0.151" stop-color="#A3A7F5"/>
<stop offset="0.3866" stop-color="#8289E8"/>
<stop offset="0.6124" stop-color="#6A73DF"/>
<stop offset="0.8221" stop-color="#5C66D9"/>
<stop offset="1" stop-color="#5761D7"/>
</linearGradient>
<linearGradient id="paint18_linear" x1="368.756" y1="241.481" x2="419.124" y2="158.112" gradientUnits="userSpaceOnUse">
<stop stop-color="#42E8E0"/>
<stop offset="0.1188" stop-color="#42E2DE"/>
<stop offset="0.2699" stop-color="#41D3D7"/>
<stop offset="0.4386" stop-color="#40B9CC"/>
<stop offset="0.6201" stop-color="#3E94BC"/>
<stop offset="0.8101" stop-color="#3C66A8"/>
<stop offset="1" stop-color="#393091"/>
</linearGradient>
<radialGradient id="paint19_radial" cx="0" cy="0" r="1" gradientUnits="userSpaceOnUse" gradientTransform="translate(402.645 369.311) rotate(16.7453) scale(53.3371 53.3047)">
<stop stop-color="#C0BFF6"/>
<stop offset="1" stop-color="#393091"/>
</radialGradient>
<linearGradient id="paint20_linear" x1="368.58" y1="395.246" x2="408.578" y2="371.722" gradientUnits="userSpaceOnUse">
<stop stop-color="#2FD3C7"/>
<stop offset="0.0880899" stop-color="#31B6BD"/>
<stop offset="0.2288" stop-color="#338DB0"/>
<stop offset="0.3734" stop-color="#356BA5"/>
<stop offset="0.5206" stop-color="#37519C"/>
<stop offset="0.6715" stop-color="#383F96"/>
<stop offset="0.8281" stop-color="#393492"/>
<stop offset="1" stop-color="#393091"/>
</linearGradient>
<radialGradient id="paint21_radial" cx="0" cy="0" r="1" gradientUnits="userSpaceOnUse" gradientTransform="translate(392.614 372.32) rotate(-95.1099) scale(34.5912 34.616)">
<stop stop-color="#42E8E0"/>
<stop offset="0.1055" stop-color="#37B6BF"/>
<stop offset="0.2197" stop-color="#2C87A1"/>
<stop offset="0.338" stop-color="#235F87"/>
<stop offset="0.4587" stop-color="#1C3F72"/>
<stop offset="0.5824" stop-color="#162561"/>
<stop offset="0.7105" stop-color="#121355"/>
<stop offset="0.8458" stop-color="#10084E"/>
<stop offset="1" stop-color="#0F054C"/>
</radialGradient>
</defs>
</svg>
