<svg width="538" height="411" viewBox="0 0 538 411" fill="none" xmlns="http://www.w3.org/2000/svg">
<g clip-path="url(#clip0)">
<path d="M219.39 185.728C215.119 174.178 213.013 154.854 212.494 146.636L220.947 141.972L230.29 138.418L244.527 133.976L259.209 131.089L283.012 129.755L297.694 131.089L311.709 134.198L322.387 136.864L333.065 140.862L347.748 148.636L346.19 158.186L343.743 173.513L338.849 189.504L328.616 211.715L315.046 230.373L298.14 247.254L280.565 260.358L260.989 246.586L249.422 235.481L238.966 223.265C234.221 215.565 223.661 197.278 219.39 185.728Z" fill="#6D7693"/>
<path d="M207.376 280.197C284.694 280.197 347.373 217.616 347.373 140.417C347.373 63.2188 284.694 0.637207 207.376 0.637207C130.058 0.637207 67.3799 63.2188 67.3799 140.417C67.3799 217.616 130.058 280.197 207.376 280.197Z" stroke="#6D7693" stroke-width="2"/>
<path d="M352.42 280.197C429.737 280.197 492.416 217.616 492.416 140.417C492.416 63.2188 429.737 0.637207 352.42 0.637207C275.102 0.637207 212.423 63.2188 212.423 140.417C212.423 217.616 275.102 280.197 352.42 280.197Z" stroke="#6D7693" stroke-width="2"/>
<path d="M278.119 409.467C355.437 409.467 418.116 346.885 418.116 269.686C418.116 192.488 355.437 129.907 278.119 129.907C200.801 129.907 138.122 192.488 138.122 269.686C138.122 346.885 200.801 409.467 278.119 409.467Z" stroke="#6D7693" stroke-width="2"/>
<path d="M170.894 96.8833H0.492188V165.738H170.894V96.8833Z" fill="#1B2546"/>
<path d="M517.27 97.0483H391.503V165.488H517.27V97.0483Z" fill="#1B2546"/>
<path d="M263.866 171.939V195.245H275.537C279.93 195.245 283.437 192.856 283.437 188.306C283.437 185.065 281.601 183.297 279.175 182.61C281.076 181.759 282.355 180.057 282.355 177.799C282.355 173.674 279.012 171.939 274.913 171.939H263.866ZM268.849 175.9H273.504C275.472 175.9 277.373 176.293 277.373 178.649C277.373 181.006 275.373 181.367 273.504 181.367H268.849V175.9ZM268.849 184.836H273.734C276.029 184.836 278.323 185.196 278.323 188.011C278.323 190.76 276.192 191.186 273.996 191.186H268.849V184.836ZM295.898 171.939H290.752V195.245H295.898V171.939Z" fill="white"/>
<path d="M478.977 123.543H466.746V140.493H479.12V137.946H469.703V132.946H478.31V130.542H469.703V126.043H478.977V123.543ZM496.713 123.543H482.909V126.115H488.321V140.493H491.302V126.115H496.713V123.543ZM513.016 137.922H504.385V123.543H501.381V140.493H513.016V137.922Z" fill="white"/>
<path d="M5.25293 119.362C5.25293 117.428 5.668 115.871 6.49816 114.691C7.32832 113.504 8.49502 112.91 9.99831 112.91C10.6565 112.91 11.2435 113.045 11.7595 113.313C12.2831 113.574 12.7355 113.952 13.117 114.445V107.78H15.843V125.254H13.5545L13.2853 123.753C12.8963 124.321 12.4289 124.754 11.8829 125.052C11.337 125.343 10.7013 125.489 9.97581 125.489C8.48754 125.489 7.32832 124.948 6.49816 123.865C5.668 122.782 5.25293 121.36 5.25293 119.597V119.362ZM7.97897 119.597C7.97897 120.717 8.19212 121.61 8.61842 122.274C9.0522 122.939 9.73649 123.271 10.6714 123.271C11.2472 123.271 11.7334 123.148 12.1297 122.901C12.5336 122.655 12.8626 122.304 13.117 121.849V116.561C12.8626 116.114 12.5336 115.766 12.1297 115.52C11.7258 115.266 11.2472 115.139 10.6938 115.139C9.76645 115.139 9.08211 115.531 8.64086 116.316C8.1996 117.092 7.97897 118.108 7.97897 119.362V119.597ZM24.5506 125.489C22.8305 125.489 21.4582 124.929 20.4335 123.808C19.4164 122.681 18.9079 121.236 18.9079 119.474V119.026C18.9079 117.264 19.4126 115.803 20.4223 114.647C21.4394 113.482 22.7108 112.902 24.2365 112.91C25.8744 112.91 27.1271 113.407 27.9947 114.4C28.8697 115.386 29.3072 116.711 29.3072 118.376V119.978H21.7348L21.7124 120.034C21.7573 120.997 22.0377 121.785 22.5538 122.398C23.0774 123.01 23.7991 123.316 24.7189 123.316C25.4518 123.316 26.0801 123.226 26.6037 123.047C27.1271 122.868 27.632 122.611 28.1181 122.274L28.9931 124.055C28.5369 124.458 27.9311 124.799 27.1757 125.075C26.4203 125.351 25.5454 125.489 24.5506 125.489ZM24.2365 115.094C23.5635 115.094 23.01 115.364 22.5762 115.901C22.1425 116.431 21.8732 117.107 21.7685 117.928L21.7909 117.985H26.6037V117.704C26.6037 116.935 26.4054 116.308 26.0091 115.822C25.6201 115.337 25.0293 115.094 24.2365 115.094ZM37.0949 123.316C37.7605 123.316 38.3215 123.122 38.7777 122.733C39.2339 122.337 39.462 121.845 39.462 121.255H41.93L41.9524 121.322C41.9899 122.457 41.5262 123.436 40.5614 124.257C39.6041 125.079 38.4487 125.489 37.0949 125.489C35.3075 125.489 33.9351 124.914 32.9778 123.764C32.0281 122.614 31.5532 121.158 31.5532 119.395V119.003C31.5532 117.249 32.0281 115.797 32.9778 114.647C33.9351 113.489 35.3075 112.91 37.0949 112.91C38.5534 112.91 39.735 113.335 40.64 114.187C41.5524 115.031 41.9936 116.106 41.9637 117.413L41.9412 117.48H39.462C39.462 116.816 39.2414 116.252 38.8002 115.789C38.3664 115.325 37.798 115.094 37.0949 115.094C36.0703 115.094 35.3449 115.468 34.9186 116.214C34.4923 116.954 34.2792 117.883 34.2792 119.003V119.395C34.2792 120.538 34.4923 121.479 34.9186 122.218C35.3449 122.95 36.0703 123.316 37.0949 123.316ZM47.6312 125.254H44.9051V113.134H47.6312V125.254ZM47.6312 110.166H44.9051V107.78H47.6312V110.166ZM58.0889 121.961C58.0889 121.542 57.9094 121.195 57.5504 120.919C57.1914 120.643 56.5221 120.4 55.5423 120.191C54.0914 119.885 52.9921 119.452 52.2441 118.892C51.5038 118.324 51.1336 117.554 51.1336 116.584C51.1336 115.568 51.5636 114.702 52.4236 113.985C53.2838 113.269 54.4168 112.91 55.8228 112.91C57.3036 112.91 58.4778 113.276 59.3454 114.008C60.2204 114.732 60.6392 115.632 60.6018 116.708L60.5794 116.774H57.9655C57.9655 116.275 57.7748 115.844 57.3933 115.486C57.012 115.128 56.4884 114.949 55.8228 114.949C55.1647 114.949 54.6636 115.098 54.3196 115.397C53.9755 115.688 53.8035 116.046 53.8035 116.472C53.8035 116.898 53.9643 117.237 54.2859 117.491C54.615 117.738 55.2769 117.958 56.2716 118.152C57.7972 118.466 58.9265 118.91 59.6595 119.485C60.3999 120.053 60.7701 120.829 60.7701 121.815C60.7701 122.905 60.3176 123.79 59.4127 124.47C58.5152 125.149 57.3298 125.489 55.8565 125.489C54.2784 125.489 53.0331 125.085 52.1208 124.28C51.2084 123.473 50.7746 122.547 50.8194 121.501L50.8419 121.434H53.3772C53.4072 122.136 53.6614 122.648 54.1401 122.969C54.6187 123.289 55.2021 123.45 55.8901 123.45C56.5931 123.45 57.1353 123.316 57.5167 123.047C57.8982 122.778 58.0889 122.416 58.0889 121.961ZM66.7068 125.254H63.9808V113.134H66.7068V125.254ZM66.7068 110.166H63.9808V107.78H66.7068V110.166ZM69.8389 119.082C69.8389 117.282 70.3325 115.803 71.3198 114.647C72.322 113.489 73.6793 112.91 75.392 112.91C77.1346 112.91 78.4995 113.489 79.4867 114.647C80.4814 115.797 80.9787 117.275 80.9787 119.082V119.317C80.9787 121.139 80.4814 122.625 79.4867 123.775C78.4995 124.918 77.1421 125.489 75.4144 125.489C73.6793 125.489 72.3145 124.914 71.3198 123.764C70.3325 122.614 69.8389 121.132 69.8389 119.317V119.082ZM72.565 119.317C72.565 120.497 72.7969 121.46 73.2605 122.207C73.7168 122.946 74.4347 123.316 75.4144 123.316C76.3643 123.316 77.0748 122.946 77.5459 122.207C78.0246 121.46 78.2639 120.497 78.2639 119.317V119.082C78.2639 117.924 78.0246 116.972 77.5459 116.226C77.0748 115.472 76.3568 115.094 75.392 115.094C74.4422 115.094 73.7317 115.472 73.2605 116.226C72.7969 116.98 72.565 117.932 72.565 119.082V119.317ZM86.3994 113.134L86.5565 114.882C86.9529 114.262 87.4502 113.78 88.0485 113.437C88.6543 113.086 89.3348 112.91 90.0902 112.91C91.3542 112.91 92.3377 113.294 93.0406 114.064C93.7511 114.826 94.1064 116.017 94.1064 117.637V125.254H91.3804V117.66C91.3804 116.749 91.1896 116.103 90.8082 115.722C90.4343 115.333 89.8621 115.139 89.0918 115.139C88.5608 115.139 88.086 115.259 87.6671 115.498C87.2483 115.729 86.9043 116.05 86.635 116.461V125.254H83.909V113.134H86.3994ZM102.769 119.418H96.8792V117.223H102.769V119.418ZM8.24821 140.852L8.39406 142.432C8.79043 141.857 9.28778 141.412 9.88612 141.099C10.4844 140.785 11.1762 140.629 11.9614 140.629C12.7543 140.629 13.4348 140.808 14.0033 141.167C14.5716 141.525 14.9979 142.062 15.2821 142.779C15.656 142.107 16.1496 141.581 16.7629 141.2C17.3762 140.819 18.0942 140.629 18.9169 140.629C20.1359 140.629 21.0969 141.047 21.7999 141.884C22.5104 142.712 22.8657 143.974 22.8657 145.67V152.972H20.1396V145.658C20.1396 144.628 19.9601 143.903 19.6011 143.485C19.2496 143.067 18.7186 142.858 18.0081 142.858C17.4248 142.858 16.9311 143.014 16.5274 143.328C16.1235 143.641 15.8318 144.064 15.6523 144.594C15.6523 144.706 15.656 144.803 15.6635 144.885C15.671 144.967 15.6747 145.046 15.6747 145.12V152.972H12.9487V145.658C12.9487 144.665 12.7655 143.952 12.399 143.519C12.04 143.078 11.509 142.858 10.806 142.858C10.2526 142.858 9.78139 142.966 9.39249 143.183C9.01106 143.392 8.70816 143.69 8.4838 144.078V152.972H5.75775V140.852H8.24821ZM33.6263 152.972C33.529 152.666 33.4468 152.367 33.3795 152.076C33.3197 151.785 33.2785 151.493 33.2561 151.203C32.8821 151.77 32.3885 152.248 31.7752 152.637C31.1695 153.017 30.4888 153.207 29.7335 153.207C28.4696 153.207 27.4973 152.882 26.8167 152.233C26.1437 151.583 25.8071 150.691 25.8071 149.556C25.8071 148.383 26.2708 147.472 27.1981 146.823C28.1256 146.166 29.4306 145.837 31.1134 145.837H33.2336V144.773C33.2336 144.138 33.0466 143.641 32.6727 143.283C32.2988 142.925 31.764 142.746 31.0685 142.746C30.4478 142.746 29.9542 142.895 29.5876 143.194C29.2212 143.492 29.038 143.878 29.038 144.348H26.4129L26.4017 144.28C26.3493 143.324 26.7756 142.477 27.6806 141.737C28.593 140.999 29.7784 140.629 31.2368 140.629C32.6503 140.629 33.7908 140.987 34.6583 141.704C35.5259 142.421 35.9597 143.451 35.9597 144.795V150.183C35.9597 150.684 35.9933 151.166 36.0607 151.628C36.128 152.083 36.2364 152.531 36.386 152.972H33.6263ZM30.2832 151.023C30.9713 151.023 31.5883 150.851 32.1342 150.508C32.6876 150.165 33.0541 149.773 33.2336 149.332V147.54H31.0685C30.2757 147.54 29.655 147.738 29.2063 148.134C28.7576 148.522 28.5332 148.981 28.5332 149.511C28.5332 149.974 28.6827 150.344 28.9819 150.62C29.2885 150.888 29.7223 151.023 30.2832 151.023ZM43.3436 147.674H42.1207V152.972H39.4059V135.499H42.1207V145.49H43.2538L46.3164 140.852H49.5249L45.5199 146.364L50.1194 152.972H46.9559L43.3436 147.674ZM54.9006 152.972H52.1746V140.852H54.9006V152.972ZM54.9006 137.885H52.1746V135.499H54.9006V137.885ZM61.0057 140.852L61.1627 142.601C61.5591 141.98 62.0564 141.499 62.6547 141.155C63.2605 140.805 63.9411 140.629 64.6964 140.629C65.9605 140.629 66.9439 141.013 67.6469 141.782C68.3574 142.544 68.7127 143.735 68.7127 145.355V152.972H65.9866V145.378C65.9866 144.467 65.7959 143.821 65.4144 143.441C65.0405 143.052 64.4684 142.858 63.6981 142.858C63.1671 142.858 62.6922 142.977 62.2733 143.216C61.8545 143.447 61.5105 143.769 61.2413 144.18V152.972H58.5152V140.852H61.0057ZM71.6317 147.08C71.6317 145.154 72.0542 143.597 72.8993 142.409C73.7444 141.222 74.9186 140.629 76.4219 140.629C77.1473 140.629 77.7831 140.785 78.329 141.099C78.8824 141.406 79.3499 141.849 79.7313 142.432L80.0005 140.852H82.2666V152.972C82.2666 154.533 81.7842 155.739 80.8194 156.59C79.8547 157.441 78.486 157.867 76.7136 157.867C76.1227 157.867 75.4833 157.781 74.7952 157.61C74.1146 157.445 73.4976 157.225 72.9442 156.948L73.5275 154.809C73.9763 155.04 74.4699 155.22 75.0083 155.347C75.5543 155.481 76.1153 155.548 76.6911 155.548C77.6783 155.548 78.4 155.336 78.8562 154.91C79.3124 154.492 79.5406 153.846 79.5406 152.972V151.729C79.1592 152.214 78.7067 152.584 78.1831 152.838C77.6671 153.084 77.0726 153.207 76.3994 153.207C74.9112 153.207 73.7444 152.666 72.8993 151.583C72.0542 150.5 71.6317 149.078 71.6317 147.316V147.08ZM74.3577 147.316C74.3577 148.428 74.5783 149.321 75.0195 149.993C75.4683 150.657 76.1601 150.99 77.095 150.99C77.6783 150.99 78.1682 150.87 78.5646 150.631C78.9684 150.385 79.2938 150.034 79.5406 149.578V144.269C79.2863 143.829 78.9572 143.485 78.5533 143.239C78.157 142.985 77.6783 142.858 77.1174 142.858C76.1826 142.858 75.487 143.25 75.0308 144.034C74.5821 144.818 74.3577 145.833 74.3577 147.08V147.316ZM95.3965 137.907V140.852H97.5732V142.869H95.3965V149.567C95.3965 150.067 95.505 150.426 95.7218 150.643C95.9391 150.851 96.2263 150.956 96.5853 150.956C96.7356 150.956 96.8811 150.945 97.0228 150.923C97.1654 150.892 97.2995 150.855 97.4268 150.81L97.7188 152.804C97.4871 152.931 97.2104 153.028 96.8888 153.095C96.5671 153.17 96.234 153.207 95.8903 153.207C94.8879 153.207 94.1027 152.917 93.5343 152.334C92.9659 151.744 92.6816 150.822 92.6816 149.567V142.869H90.8306V140.852H92.6816V137.907H95.3965ZM100.066 146.8C100.066 145.001 100.559 143.522 101.546 142.365C102.548 141.208 103.906 140.629 105.618 140.629C107.362 140.629 108.726 141.208 109.714 142.365C110.708 143.515 111.205 144.994 111.205 146.8V147.036C111.205 148.857 110.708 150.344 109.714 151.493C108.726 152.637 107.368 153.207 105.641 153.207C103.906 153.207 102.541 152.633 101.546 151.483C100.559 150.332 100.066 148.851 100.066 147.036V146.8ZM102.791 147.036C102.791 148.216 103.023 149.178 103.487 149.926C103.943 150.665 104.661 151.035 105.641 151.035C106.591 151.035 107.301 150.665 107.772 149.926C108.251 149.178 108.49 148.216 108.49 147.036V146.8C108.49 145.643 108.251 144.691 107.772 143.944C107.301 143.19 106.583 142.813 105.618 142.813C104.669 142.813 103.958 143.19 103.487 143.944C103.023 144.699 102.791 145.651 102.791 146.8V147.036ZM113.653 146.8C113.653 145.001 114.147 143.522 115.134 142.365C116.136 141.208 117.494 140.629 119.206 140.629C120.948 140.629 122.314 141.208 123.301 142.365C124.295 143.515 124.793 144.994 124.793 146.8V147.036C124.793 148.857 124.295 150.344 123.301 151.493C122.314 152.637 120.956 153.207 119.228 153.207C117.494 153.207 116.128 152.633 115.134 151.483C114.147 150.332 113.653 148.851 113.653 147.036V146.8ZM116.379 147.036C116.379 148.216 116.611 149.178 117.074 149.926C117.531 150.665 118.249 151.035 119.228 151.035C120.179 151.035 120.889 150.665 121.36 149.926C121.839 149.178 122.078 148.216 122.078 147.036V146.8C122.078 145.643 121.839 144.691 121.36 143.944C120.889 143.19 120.171 142.813 119.206 142.813C118.257 142.813 117.546 143.19 117.074 143.944C116.611 144.699 116.379 145.651 116.379 146.8V147.036ZM130.652 152.972H127.925V135.499H130.652V152.972ZM141.109 149.679C141.109 149.261 140.929 148.914 140.57 148.637C140.211 148.361 139.542 148.118 138.563 147.909C137.111 147.603 136.012 147.17 135.264 146.61C134.524 146.042 134.153 145.273 134.153 144.303C134.153 143.287 134.583 142.421 135.444 141.704C136.303 140.987 137.437 140.629 138.843 140.629C140.323 140.629 141.498 140.995 142.365 141.727C143.24 142.451 143.659 143.351 143.622 144.426L143.599 144.493H140.986C140.986 143.993 140.795 143.563 140.413 143.205C140.032 142.846 139.509 142.667 138.843 142.667C138.185 142.667 137.684 142.817 137.339 143.116C136.996 143.406 136.823 143.765 136.823 144.191C136.823 144.616 136.984 144.956 137.306 145.21C137.635 145.457 138.297 145.676 139.291 145.87C140.817 146.185 141.947 146.628 142.679 147.204C143.42 147.772 143.79 148.548 143.79 149.534C143.79 150.624 143.338 151.509 142.433 152.188C141.535 152.868 140.35 153.207 138.877 153.207C137.298 153.207 136.053 152.804 135.14 151.998C134.228 151.191 133.794 150.265 133.839 149.22L133.861 149.153H136.397C136.427 149.854 136.682 150.367 137.16 150.688C137.639 151.008 138.222 151.168 138.91 151.168C139.613 151.168 140.156 151.035 140.537 150.766C140.919 150.497 141.109 150.134 141.109 149.679Z" fill="white"/>
<path d="M246.586 304.069C246.586 305.832 246.17 307.254 245.34 308.337C244.51 309.42 243.355 309.961 241.874 309.961C241.186 309.961 240.576 309.838 240.045 309.592C239.514 309.345 239.057 308.983 238.676 308.505V314.385H235.95V297.606H238.25L238.519 299.13C238.908 298.562 239.376 298.129 239.922 297.831C240.475 297.531 241.115 297.382 241.84 297.382C243.336 297.382 244.499 297.976 245.329 299.163C246.166 300.343 246.586 301.9 246.586 303.834V304.069ZM243.871 303.834C243.871 302.594 243.635 301.583 243.164 300.798C242.7 300.007 242.005 299.611 241.077 299.611C240.509 299.611 240.026 299.735 239.63 299.981C239.234 300.22 238.916 300.556 238.676 300.99V306.466C238.916 306.892 239.234 307.221 239.63 307.452C240.026 307.676 240.516 307.788 241.099 307.788C242.027 307.788 242.719 307.448 243.175 306.768C243.639 306.082 243.871 305.182 243.871 304.069V303.834ZM254.744 309.961C253.023 309.961 251.651 309.401 250.626 308.281C249.609 307.154 249.1 305.708 249.1 303.946V303.499C249.1 301.736 249.605 300.276 250.615 299.119C251.633 297.954 252.904 297.375 254.43 297.382C256.067 297.382 257.32 297.879 258.187 298.872C259.062 299.858 259.5 301.184 259.5 302.849V304.451H251.927L251.905 304.506C251.95 305.469 252.231 306.257 252.747 306.87C253.27 307.482 253.991 307.788 254.911 307.788C255.645 307.788 256.273 307.698 256.796 307.52C257.32 307.34 257.824 307.083 258.311 306.746L259.186 308.527C258.73 308.93 258.124 309.271 257.369 309.547C256.613 309.823 255.738 309.961 254.744 309.961ZM254.43 299.566C253.756 299.566 253.202 299.836 252.769 300.373C252.335 300.904 252.066 301.579 251.961 302.4L251.984 302.457H256.796V302.177C256.796 301.407 256.598 300.78 256.202 300.295C255.813 299.809 255.222 299.566 254.43 299.566ZM264.741 297.606L264.898 299.354C265.295 298.734 265.792 298.252 266.39 297.909C266.996 297.558 267.677 297.382 268.432 297.382C269.696 297.382 270.68 297.767 271.382 298.536C272.093 299.298 272.448 300.489 272.448 302.109V309.726H269.723V302.132C269.723 301.221 269.531 300.575 269.15 300.194C268.776 299.805 268.204 299.611 267.434 299.611C266.902 299.611 266.428 299.731 266.009 299.97C265.59 300.201 265.246 300.522 264.976 300.933V309.726H262.251V297.606H264.741ZM279.249 294.66V297.606H281.425V299.623H279.249V306.321C279.249 306.821 279.357 307.179 279.574 307.396C279.79 307.605 280.079 307.71 280.438 307.71C280.588 307.71 280.733 307.698 280.875 307.676C281.018 307.646 281.152 307.609 281.279 307.564L281.571 309.557C281.339 309.685 281.063 309.782 280.741 309.849C280.419 309.924 280.086 309.961 279.743 309.961C278.74 309.961 277.955 309.67 277.387 309.087C276.818 308.497 276.534 307.575 276.534 306.321V299.623H274.683V297.606H276.534V294.66H279.249ZM291.726 309.726C291.628 309.42 291.546 309.121 291.479 308.83C291.419 308.539 291.378 308.247 291.355 307.956C290.981 308.523 290.488 309.001 289.875 309.39C289.269 309.771 288.588 309.961 287.833 309.961C286.569 309.961 285.596 309.636 284.916 308.987C284.243 308.337 283.907 307.444 283.907 306.31C283.907 305.137 284.37 304.226 285.298 303.577C286.225 302.919 287.53 302.591 289.213 302.591H291.333V301.527C291.333 300.892 291.146 300.395 290.773 300.037C290.398 299.678 289.863 299.499 289.168 299.499C288.547 299.499 288.054 299.649 287.687 299.948C287.32 300.246 287.138 300.631 287.138 301.101H284.513L284.501 301.034C284.449 300.078 284.875 299.231 285.78 298.491C286.693 297.752 287.878 297.382 289.337 297.382C290.75 297.382 291.891 297.741 292.758 298.458C293.625 299.174 294.059 300.205 294.059 301.549V306.937C294.059 307.437 294.092 307.919 294.16 308.382C294.227 308.837 294.336 309.285 294.485 309.726H291.726ZM288.382 307.777C289.07 307.777 289.688 307.605 290.234 307.262C290.787 306.918 291.154 306.527 291.333 306.086V304.294H289.168C288.375 304.294 287.754 304.492 287.305 304.887C286.857 305.275 286.632 305.734 286.632 306.265C286.632 306.727 286.783 307.097 287.081 307.373C287.388 307.642 287.822 307.777 288.382 307.777ZM299.963 297.606L300.12 299.354C300.516 298.734 301.013 298.252 301.611 297.909C302.217 297.558 302.898 297.382 303.653 297.382C304.917 297.382 305.901 297.767 306.603 298.536C307.314 299.298 307.669 300.489 307.669 302.109V309.726H304.943V302.132C304.943 301.221 304.752 300.575 304.371 300.194C303.997 299.805 303.425 299.611 302.654 299.611C302.123 299.611 301.648 299.731 301.23 299.97C300.811 300.201 300.467 300.522 300.198 300.933V309.726H297.472V297.606H299.963ZM310.577 303.554C310.577 301.754 311.07 300.276 312.058 299.119C313.06 297.962 314.418 297.382 316.13 297.382C317.873 297.382 319.238 297.962 320.225 299.119C321.219 300.269 321.717 301.748 321.717 303.554V303.789C321.717 305.611 321.219 307.097 320.225 308.247C319.238 309.39 317.88 309.961 316.152 309.961C314.418 309.961 313.053 309.386 312.058 308.237C311.07 307.086 310.577 305.604 310.577 303.789V303.554ZM313.303 303.789C313.303 304.97 313.535 305.932 313.998 306.68C314.455 307.418 315.173 307.788 316.152 307.788C317.102 307.788 317.812 307.418 318.284 306.68C318.763 305.932 319.002 304.97 319.002 303.789V303.554C319.002 302.397 318.763 301.445 318.284 300.698C317.812 299.944 317.094 299.566 316.13 299.566C315.18 299.566 314.469 299.944 313.998 300.698C313.535 301.452 313.303 302.404 313.303 303.554V303.789ZM188.459 325.325L188.605 326.905C189.001 326.329 189.498 325.885 190.097 325.571C190.695 325.258 191.387 325.101 192.172 325.101C192.965 325.101 193.645 325.281 194.214 325.639C194.783 325.997 195.209 326.535 195.493 327.252C195.867 326.58 196.36 326.053 196.974 325.672C197.586 325.291 198.304 325.101 199.128 325.101C200.346 325.101 201.307 325.52 202.01 326.356C202.721 327.185 203.077 328.446 203.077 330.142V337.444H200.35V330.13C200.35 329.1 200.171 328.376 199.812 327.957C199.46 327.539 198.93 327.33 198.219 327.33C197.635 327.33 197.142 327.487 196.738 327.8C196.334 328.114 196.042 328.536 195.863 329.067C195.863 329.178 195.867 329.275 195.874 329.357C195.882 329.439 195.885 329.518 195.885 329.592V337.444H193.159V330.13C193.159 329.137 192.976 328.424 192.61 327.991C192.251 327.551 191.719 327.33 191.017 327.33C190.463 327.33 189.992 327.438 189.604 327.655C189.222 327.864 188.919 328.162 188.694 328.55V337.444H185.969V325.325H188.459ZM214.095 335.675C213.713 336.316 213.232 336.813 212.648 337.164C212.065 337.508 211.392 337.679 210.629 337.679C209.327 337.679 208.31 337.266 207.577 336.436C206.844 335.607 206.478 334.32 206.478 332.573V325.325H209.193V332.595C209.193 333.654 209.365 334.398 209.709 334.823C210.052 335.249 210.572 335.462 211.268 335.462C211.926 335.462 212.476 335.346 212.917 335.115C213.366 334.876 213.717 334.532 213.972 334.085V325.325H216.698V337.444H214.319L214.095 335.675ZM223.027 337.444H220.301V319.971H223.027V337.444ZM230.052 322.379V325.325H232.228V327.341H230.052V334.04C230.052 334.54 230.16 334.898 230.378 335.115C230.594 335.323 230.882 335.428 231.241 335.428C231.391 335.428 231.536 335.417 231.679 335.395C231.82 335.364 231.955 335.327 232.083 335.282L232.374 337.276C232.142 337.403 231.865 337.501 231.544 337.568C231.222 337.642 230.89 337.679 230.545 337.679C229.543 337.679 228.758 337.389 228.189 336.806C227.622 336.216 227.337 335.294 227.337 334.04V327.341H225.486V325.325H227.337V322.379H230.052ZM238.132 337.444H235.405V325.325H238.132V337.444ZM238.132 322.357H235.405V319.971H238.132V322.357ZM241.263 331.553C241.263 329.619 241.679 328.062 242.509 326.882C243.339 325.694 244.505 325.101 246.008 325.101C246.667 325.101 247.254 325.236 247.77 325.504C248.293 325.765 248.746 326.143 249.127 326.636V319.971H251.854V337.444H249.565L249.296 335.944C248.907 336.511 248.439 336.944 247.893 337.243C247.348 337.534 246.712 337.679 245.986 337.679C244.498 337.679 243.339 337.138 242.509 336.056C241.679 334.973 241.263 333.55 241.263 331.788V331.553ZM243.989 331.788C243.989 332.908 244.203 333.801 244.629 334.465C245.063 335.129 245.747 335.462 246.682 335.462C247.258 335.462 247.744 335.339 248.14 335.092C248.544 334.845 248.874 334.495 249.127 334.04V328.752C248.874 328.305 248.544 327.957 248.14 327.711C247.736 327.457 247.258 327.33 246.704 327.33C245.777 327.33 245.092 327.722 244.651 328.506C244.211 329.283 243.989 330.299 243.989 331.553V331.788ZM258.262 337.444H255.535V325.325H258.262V337.444ZM258.262 322.357H255.535V319.971H258.262V322.357ZM264.388 325.325L264.535 326.905C264.931 326.329 265.428 325.885 266.026 325.571C266.625 325.258 267.317 325.101 268.102 325.101C268.894 325.101 269.575 325.281 270.144 325.639C270.712 325.997 271.138 326.535 271.423 327.252C271.797 326.58 272.29 326.053 272.904 325.672C273.517 325.291 274.235 325.101 275.058 325.101C276.276 325.101 277.237 325.52 277.941 326.356C278.651 327.185 279.006 328.446 279.006 330.142V337.444H276.28V330.13C276.28 329.1 276.101 328.376 275.742 327.957C275.391 327.539 274.859 327.33 274.149 327.33C273.565 327.33 273.072 327.487 272.668 327.8C272.264 328.114 271.972 328.536 271.793 329.067C271.793 329.178 271.797 329.275 271.805 329.357C271.811 329.439 271.815 329.518 271.815 329.592V337.444H269.09V330.13C269.09 329.137 268.906 328.424 268.539 327.991C268.18 327.551 267.65 327.33 266.946 327.33C266.393 327.33 265.922 327.438 265.533 327.655C265.151 327.864 264.849 328.162 264.625 328.55V337.444H261.899V325.325H264.388ZM287.669 337.679C285.949 337.679 284.577 337.119 283.552 335.999C282.535 334.872 282.027 333.427 282.027 331.665V331.217C282.027 329.455 282.531 327.994 283.541 326.838C284.558 325.672 285.829 325.093 287.355 325.101C288.993 325.101 290.246 325.598 291.113 326.591C291.988 327.576 292.426 328.902 292.426 330.567V332.169H284.854L284.831 332.225C284.876 333.188 285.156 333.976 285.672 334.588C286.196 335.201 286.917 335.507 287.837 335.507C288.571 335.507 289.199 335.417 289.722 335.238C290.246 335.059 290.75 334.801 291.237 334.465L292.112 336.246C291.655 336.649 291.049 336.989 290.294 337.266C289.539 337.542 288.664 337.679 287.669 337.679ZM287.355 327.285C286.682 327.285 286.129 327.554 285.695 328.092C285.261 328.622 284.991 329.298 284.887 330.119L284.909 330.175H289.722V329.895C289.722 329.126 289.524 328.499 289.128 328.013C288.738 327.528 288.148 327.285 287.355 327.285ZM297.667 325.325L297.824 327.073C298.22 326.452 298.718 325.971 299.316 325.628C299.921 325.277 300.602 325.101 301.357 325.101C302.622 325.101 303.605 325.485 304.308 326.255C305.019 327.016 305.374 328.207 305.374 329.827V337.444H302.648V329.85C302.648 328.939 302.457 328.293 302.075 327.913C301.702 327.524 301.129 327.33 300.359 327.33C299.829 327.33 299.354 327.449 298.934 327.688C298.516 327.92 298.171 328.241 297.902 328.652V337.444H295.176V325.325H297.667ZM315.608 334.152C315.608 333.733 315.428 333.386 315.069 333.11C314.71 332.833 314.041 332.591 313.06 332.381C311.61 332.076 310.51 331.643 309.762 331.082C309.022 330.515 308.652 329.745 308.652 328.775C308.652 327.759 309.082 326.893 309.942 326.176C310.802 325.459 311.935 325.101 313.341 325.101C314.822 325.101 315.996 325.467 316.864 326.199C317.739 326.923 318.158 327.823 318.121 328.898L318.098 328.965H315.484C315.484 328.465 315.293 328.035 314.912 327.677C314.531 327.318 314.007 327.14 313.341 327.14C312.683 327.14 312.181 327.289 311.838 327.588C311.494 327.879 311.322 328.237 311.322 328.663C311.322 329.089 311.483 329.428 311.804 329.682C312.134 329.929 312.795 330.149 313.79 330.343C315.316 330.657 316.445 331.101 317.178 331.676C317.919 332.244 318.288 333.02 318.288 334.006C318.288 335.096 317.836 335.981 316.931 336.661C316.034 337.34 314.849 337.679 313.375 337.679C311.797 337.679 310.551 337.276 309.639 336.47C308.727 335.664 308.293 334.737 308.338 333.692L308.36 333.625H310.896C310.926 334.326 311.18 334.839 311.659 335.16C312.137 335.48 312.72 335.641 313.409 335.641C314.111 335.641 314.653 335.507 315.035 335.238C315.416 334.969 315.608 334.606 315.608 334.152ZM324.225 337.444H321.499V325.325H324.225V337.444ZM324.225 322.357H321.499V319.971H324.225V322.357ZM327.357 331.273C327.357 329.473 327.85 327.994 328.838 326.838C329.841 325.68 331.197 325.101 332.911 325.101C334.653 325.101 336.018 325.68 337.005 326.838C338 327.987 338.497 329.466 338.497 331.273V331.508C338.497 333.33 338 334.816 337.005 335.966C336.018 337.109 334.661 337.679 332.933 337.679C331.197 337.679 329.833 337.105 328.838 335.955C327.85 334.804 327.357 333.323 327.357 331.508V331.273ZM330.083 331.508C330.083 332.688 330.316 333.651 330.779 334.398C331.235 335.137 331.953 335.507 332.933 335.507C333.882 335.507 334.593 335.137 335.065 334.398C335.543 333.651 335.783 332.688 335.783 331.508V331.273C335.783 330.115 335.543 329.163 335.065 328.417C334.593 327.662 333.875 327.285 332.911 327.285C331.96 327.285 331.25 327.662 330.779 328.417C330.316 329.171 330.083 330.123 330.083 331.273V331.508ZM343.918 325.325L344.075 327.073C344.471 326.452 344.969 325.971 345.567 325.628C346.172 325.277 346.853 325.101 347.608 325.101C348.873 325.101 349.856 325.485 350.559 326.255C351.27 327.016 351.625 328.207 351.625 329.827V337.444H348.899V329.85C348.899 328.939 348.708 328.293 348.326 327.913C347.953 327.524 347.38 327.33 346.61 327.33C346.079 327.33 345.605 327.449 345.185 327.688C344.767 327.92 344.422 328.241 344.153 328.652V337.444H341.427V325.325H343.918ZM362.341 337.444C362.243 337.138 362.161 336.839 362.094 336.549C362.034 336.257 361.992 335.966 361.97 335.675C361.596 336.242 361.103 336.72 360.489 337.109C359.884 337.489 359.203 337.679 358.448 337.679C357.184 337.679 356.211 337.354 355.531 336.705C354.858 336.056 354.522 335.163 354.522 334.028C354.522 332.855 354.985 331.945 355.913 331.296C356.839 330.638 358.145 330.309 359.828 330.309H361.947V329.245C361.947 328.611 361.761 328.114 361.386 327.755C361.013 327.397 360.478 327.218 359.783 327.218C359.162 327.218 358.669 327.367 358.302 327.666C357.935 327.965 357.753 328.35 357.753 328.82H355.127L355.116 328.752C355.064 327.796 355.49 326.949 356.395 326.21C357.307 325.471 358.493 325.101 359.951 325.101C361.364 325.101 362.505 325.459 363.373 326.176C364.24 326.893 364.674 327.923 364.674 329.267V334.655C364.674 335.156 364.707 335.638 364.774 336.1C364.842 336.555 364.95 337.004 365.1 337.444H362.341ZM358.997 335.495C359.685 335.495 360.303 335.323 360.848 334.98C361.402 334.637 361.768 334.245 361.947 333.805V332.012H359.783C358.99 332.012 358.369 332.21 357.92 332.606C357.472 332.994 357.247 333.453 357.247 333.983C357.247 334.446 357.396 334.816 357.696 335.092C358.002 335.361 358.436 335.495 358.997 335.495ZM371.014 337.444H368.289V319.971H371.014V337.444ZM242.562 365.163C242.465 364.857 242.383 364.558 242.316 364.267C242.256 363.976 242.215 363.684 242.193 363.394C241.818 363.96 241.324 364.438 240.712 364.827C240.106 365.208 239.425 365.398 238.67 365.398C237.406 365.398 236.434 365.073 235.753 364.424C235.08 363.774 234.743 362.881 234.743 361.747C234.743 360.574 235.207 359.663 236.135 359.014C237.062 358.357 238.367 358.028 240.049 358.028H242.17V356.964C242.17 356.329 241.983 355.832 241.609 355.474C241.235 355.115 240.7 354.937 240.005 354.937C239.384 354.937 238.89 355.086 238.524 355.385C238.158 355.683 237.974 356.068 237.974 356.539H235.349L235.338 356.471C235.286 355.515 235.712 354.668 236.616 353.928C237.53 353.189 238.715 352.82 240.173 352.82C241.587 352.82 242.727 353.178 243.595 353.895C244.462 354.612 244.896 355.642 244.896 356.986V362.374C244.896 362.875 244.93 363.356 244.997 363.819C245.065 364.274 245.173 364.722 245.322 365.163H242.562ZM239.219 363.214C239.908 363.214 240.525 363.042 241.071 362.699C241.624 362.356 241.991 361.964 242.17 361.523V359.731H240.005C239.212 359.731 238.591 359.929 238.142 360.325C237.693 360.713 237.469 361.171 237.469 361.702C237.469 362.165 237.619 362.534 237.918 362.811C238.225 363.079 238.658 363.214 239.219 363.214ZM250.799 353.043L250.956 354.791C251.352 354.171 251.85 353.689 252.448 353.346C253.054 352.995 253.735 352.82 254.49 352.82C255.754 352.82 256.737 353.204 257.44 353.973C258.151 354.735 258.506 355.926 258.506 357.546V365.163H255.78V357.569C255.78 356.658 255.589 356.012 255.208 355.632C254.834 355.243 254.262 355.048 253.492 355.048C252.96 355.048 252.485 355.168 252.067 355.407C251.648 355.638 251.304 355.959 251.034 356.37V365.163H248.309V353.043H250.799ZM269.222 365.163C269.124 364.857 269.042 364.558 268.975 364.267C268.916 363.976 268.874 363.684 268.851 363.394C268.478 363.96 267.984 364.438 267.37 364.827C266.764 365.208 266.085 365.398 265.329 365.398C264.065 365.398 263.093 365.073 262.413 364.424C261.739 363.774 261.403 362.881 261.403 361.747C261.403 360.574 261.866 359.663 262.794 359.014C263.721 358.357 265.026 358.028 266.709 358.028H268.829V356.964C268.829 356.329 268.642 355.832 268.268 355.474C267.894 355.115 267.36 354.937 266.664 354.937C266.044 354.937 265.55 355.086 265.183 355.385C264.816 355.683 264.634 356.068 264.634 356.539H262.009L261.997 356.471C261.945 355.515 262.371 354.668 263.276 353.928C264.188 353.189 265.374 352.82 266.832 352.82C268.245 352.82 269.387 353.178 270.254 353.895C271.121 354.612 271.555 355.642 271.555 356.986V362.374C271.555 362.875 271.589 363.356 271.656 363.819C271.723 364.274 271.831 364.722 271.982 365.163H269.222ZM265.879 363.214C266.566 363.214 267.184 363.042 267.729 362.699C268.283 362.356 268.649 361.964 268.829 361.523V359.731H266.664C265.871 359.731 265.25 359.929 264.802 360.325C264.353 360.713 264.129 361.171 264.129 361.702C264.129 362.165 264.278 362.534 264.577 362.811C264.884 363.079 265.318 363.214 265.879 363.214ZM277.896 365.163H275.17V347.69H277.896V365.163ZM285.56 360.302L285.829 361.512H285.897L288.555 353.043H291.539L286.514 367C286.192 367.844 285.74 368.565 285.156 369.162C284.573 369.759 283.747 370.058 282.677 370.058C282.453 370.058 282.209 370.036 281.948 369.991C281.694 369.946 281.447 369.893 281.207 369.834L281.511 367.728C281.607 367.736 281.746 367.746 281.925 367.762C282.105 367.777 282.239 367.784 282.329 367.784C282.823 367.784 283.216 367.616 283.508 367.28C283.806 366.944 284.049 366.556 284.236 366.115L284.685 365.018L280.277 353.043H283.249L285.56 360.302ZM300.572 361.87C300.572 361.451 300.393 361.105 300.034 360.828C299.675 360.552 299.005 360.309 298.026 360.1C296.575 359.794 295.476 359.361 294.728 358.801C293.987 358.233 293.617 357.464 293.617 356.494C293.617 355.478 294.047 354.612 294.907 353.895C295.768 353.178 296.9 352.82 298.306 352.82C299.787 352.82 300.961 353.186 301.829 353.918C302.704 354.641 303.123 355.542 303.085 356.617L303.063 356.684H300.449C300.449 356.184 300.258 355.754 299.877 355.395C299.495 355.037 298.972 354.858 298.306 354.858C297.648 354.858 297.147 355.007 296.803 355.307C296.459 355.597 296.287 355.956 296.287 356.382C296.287 356.807 296.447 357.147 296.769 357.401C297.098 357.647 297.761 357.867 298.755 358.061C300.28 358.376 301.41 358.819 302.143 359.395C302.883 359.962 303.254 360.738 303.254 361.725C303.254 362.814 302.801 363.7 301.896 364.379C300.998 365.059 299.813 365.398 298.34 365.398C296.762 365.398 295.517 364.995 294.605 364.189C293.692 363.382 293.258 362.456 293.303 361.41L293.326 361.343H295.861C295.89 362.045 296.145 362.557 296.624 362.879C297.102 363.199 297.685 363.359 298.373 363.359C299.077 363.359 299.619 363.225 300 362.957C300.382 362.687 300.572 362.325 300.572 361.87ZM309.19 365.163H306.465V353.043H309.19V365.163ZM309.19 350.075H306.465V347.69H309.19V350.075ZM319.648 361.87C319.648 361.451 319.468 361.105 319.109 360.828C318.75 360.552 318.081 360.309 317.101 360.1C315.651 359.794 314.551 359.361 313.803 358.801C313.063 358.233 312.693 357.464 312.693 356.494C312.693 355.478 313.123 354.612 313.983 353.895C314.843 353.178 315.976 352.82 317.382 352.82C318.862 352.82 320.037 353.186 320.904 353.918C321.779 354.641 322.199 355.542 322.161 356.617L322.138 356.684H319.525C319.525 356.184 319.334 355.754 318.952 355.395C318.571 355.037 318.048 354.858 317.382 354.858C316.724 354.858 316.223 355.007 315.879 355.307C315.535 355.597 315.363 355.956 315.363 356.382C315.363 356.807 315.523 357.147 315.845 357.401C316.174 357.647 316.836 357.867 317.83 358.061C319.356 358.376 320.486 358.819 321.218 359.395C321.959 359.962 322.329 360.738 322.329 361.725C322.329 362.814 321.877 363.7 320.971 364.379C320.074 365.059 318.889 365.398 317.416 365.398C315.837 365.398 314.592 364.995 313.68 364.189C312.767 363.382 312.334 362.456 312.379 361.41L312.401 361.343H314.937C314.966 362.045 315.221 362.557 315.7 362.879C316.178 363.199 316.761 363.359 317.449 363.359C318.152 363.359 318.695 363.225 319.076 362.957C319.457 362.687 319.648 362.325 319.648 361.87Z" fill="white"/>
</g>
<defs>
<clipPath id="clip0">
<rect width="538" height="411" fill="white"/>
</clipPath>
</defs>
</svg>
