<?xml version="1.0" encoding="utf-8"?><svg width="715" height="529" fill="none" xmlns="http://www.w3.org/2000/svg" viewBox="0 0 715 529"><path d="M371.707 44.707a1 1 0 000-1.414l-6.364-6.364a1 1 0 10-1.414 1.414L369.586 44l-5.657 5.657a1 1 0 101.414 1.414l6.364-6.364zM299 45h72v-2h-72v2z" fill="#626A84"/><path opacity=".5" d="M294 0H5a5 5 0 00-5 5v79a5 5 0 005 5h289a5 5 0 005-5V5a5 5 0 00-5-5zM665 0H376a5 5 0 00-5 5v79a5 5 0 005 5h289a5 5 0 005-5V5a5 5 0 00-5-5zM481 151H192a5 5 0 00-5 5v81a5 5 0 005 5h289a5 5 0 005-5v-81a5 5 0 00-5-5z" fill="#2A365C"/><path d="M670 45h30M486 195h214M699 44v152" stroke="#6D7693" stroke-width="2"/><path d="M63.586 33.607h-5.372V49h-2.966V33.607h-5.371v-2.38h13.709v2.38zm5.297 8.02V49h-2.966V31.227h6.567c1.986 0 3.52.447 4.602 1.342 1.083.895 1.624 2.173 1.624 3.833 0 .92-.24 1.713-.72 2.38-.472.66-1.164 1.189-2.075 1.588 1 .317 1.72.838 2.16 1.562.44.716.66 1.6.66 2.65v1.476c0 .52.064 1.03.195 1.526.13.496.35.875.659 1.135V49h-3.052c-.325-.269-.537-.692-.635-1.27a11.064 11.064 0 01-.134-1.696v-1.428c0-.912-.26-1.636-.781-2.173-.521-.538-1.237-.806-2.149-.806h-3.955zm0-2.38h3.443c1.188 0 2.055-.228 2.6-.684.545-.456.818-1.152.818-2.087 0-.896-.269-1.596-.806-2.1-.537-.513-1.355-.77-2.454-.77h-3.6v5.64zm24.329 1.757h-7.776v5.628h9.021V49H82.47V31.227h11.902v2.38h-8.936v5.017h7.776v2.38zm6.726 1.258V49h-2.966V31.227h6.946c1.961 0 3.495.508 4.602 1.525 1.114 1.01 1.672 2.34 1.672 3.992 0 1.668-.558 3.007-1.672 4.016-1.107 1.001-2.641 1.502-4.602 1.502h-3.98zm0-2.38h3.98c1.098 0 1.924-.294 2.478-.88.553-.586.83-1.33.83-2.233 0-.904-.277-1.657-.83-2.259-.554-.602-1.38-.903-2.478-.903h-3.98v6.274zm20.227 10.644h-2.722l6.995-19.3h2.722l-6.995 19.3zm18.64-8.899V49h-2.966V31.227h6.567c1.986 0 3.52.447 4.602 1.342 1.083.895 1.624 2.173 1.624 3.833 0 .92-.24 1.713-.72 2.38-.472.66-1.164 1.189-2.076 1.588 1.001.317 1.722.838 2.161 1.562.44.716.659 1.6.659 2.65v1.476c0 .52.065 1.03.196 1.526.13.496.35.875.659 1.135V49h-3.052c-.326-.269-.537-.692-.635-1.27a11.14 11.14 0 01-.134-1.696v-1.428c0-.912-.26-1.636-.781-2.173-.521-.538-1.237-.806-2.149-.806h-3.955zm0-2.38h3.443c1.188 0 2.054-.228 2.6-.684.545-.456.818-1.152.818-2.087 0-.896-.269-1.596-.806-2.1-.537-.513-1.355-.77-2.454-.77h-3.601v5.64zm17.432-8.02l5.115 13.671h.073l5.127-13.671h3.845V49h-2.966v-6.055l.293-7.702-.074-.013L162.377 49h-1.99l-5.249-13.733-.073.012.293 7.666V49h-2.966V31.227h3.845zM174.291 49V31.227h5.762c2.254 0 4.085.703 5.493 2.111 1.416 1.408 2.124 3.219 2.124 5.432v2.698c0 2.222-.708 4.033-2.124 5.432-1.408 1.4-3.239 2.1-5.493 2.1h-5.762zm2.966-15.393v13.025h2.71c1.473 0 2.629-.48 3.467-1.44.846-.96 1.27-2.202 1.27-3.724v-2.722c0-1.505-.424-2.738-1.27-3.699-.838-.96-1.994-1.44-3.467-1.44h-2.71zm23.096 10.828c0-.741-.277-1.347-.83-1.82-.545-.471-1.514-.895-2.905-1.269-1.986-.52-3.516-1.208-4.59-2.063-1.066-.862-1.599-1.99-1.599-3.381 0-1.432.59-2.612 1.77-3.54 1.188-.928 2.718-1.392 4.59-1.392 1.953 0 3.519.525 4.699 1.575 1.188 1.05 1.762 2.311 1.721 3.784l-.024.073h-2.844c0-.911-.309-1.648-.928-2.21-.618-.569-1.501-.854-2.649-.854-1.082 0-1.916.236-2.502.708-.578.472-.867 1.083-.867 1.831 0 .676.313 1.237.94 1.685.635.448 1.68.87 3.137 1.27 1.913.512 3.365 1.22 4.358 2.124.993.903 1.489 2.054 1.489 3.454 0 1.481-.594 2.661-1.782 3.54-1.18.871-2.734 1.306-4.663 1.306-1.855 0-3.483-.488-4.883-1.465-1.4-.984-2.079-2.331-2.038-4.04l.024-.073h2.857c0 1.082.374 1.892 1.123 2.429.748.529 1.721.793 2.917.793 1.099 0 1.953-.22 2.564-.659.61-.447.915-1.05.915-1.806zM426.065 31.104l.025.073c.032 1.799-.554 3.264-1.758 4.395-1.196 1.123-2.82 1.684-4.871 1.684-2.075 0-3.763-.696-5.066-2.087-1.293-1.4-1.94-3.186-1.94-5.359V26.43c0-2.165.638-3.947 1.916-5.347 1.286-1.408 2.954-2.112 5.005-2.112 2.1 0 3.752.554 4.956 1.66 1.213 1.099 1.803 2.58 1.77 4.444l-.024.073h-2.869c0-1.196-.326-2.128-.977-2.795-.643-.668-1.595-1.001-2.856-1.001-1.213 0-2.177.48-2.893 1.44-.708.96-1.062 2.165-1.062 3.613v3.406c0 1.465.362 2.677 1.086 3.638.733.96 1.717 1.44 2.954 1.44 1.229 0 2.161-.33 2.796-.989.635-.659.952-1.59.952-2.795h2.856zm9.131-4.639l-1.269-.049c-.578 0-1.062.123-1.453.367-.382.244-.679.59-.891 1.037V37h-2.966V23.792h2.71l.195 1.916c.334-.675.761-1.204 1.282-1.586a3.024 3.024 0 011.819-.574c.179 0 .345.016.5.049.155.024.297.057.427.097l-.354 2.771zm1.538 3.809c0-1.961.537-3.573 1.612-4.834 1.09-1.262 2.567-1.892 4.431-1.892 1.896 0 3.381.63 4.455 1.892 1.083 1.253 1.624 2.864 1.624 4.834v.256c0 1.986-.541 3.605-1.624 4.859-1.074 1.245-2.551 1.867-4.431 1.867-1.888 0-3.373-.626-4.455-1.88-1.075-1.253-1.612-2.868-1.612-4.846v-.256zm2.967.256c0 1.286.252 2.336.756 3.15.497.805 1.278 1.208 2.344 1.208 1.034 0 1.807-.403 2.32-1.208.52-.814.781-1.864.781-3.15v-.256c0-1.262-.261-2.3-.781-3.113-.513-.822-1.294-1.233-2.344-1.233-1.034 0-1.807.411-2.32 1.233-.504.822-.756 1.86-.756 3.113v.256zm19.165 2.881c0-.456-.196-.834-.586-1.135-.391-.301-1.119-.566-2.185-.794-1.579-.333-2.775-.805-3.589-1.416-.806-.618-1.209-1.456-1.209-2.514 0-1.107.468-2.051 1.404-2.832.936-.781 2.169-1.172 3.699-1.172 1.611 0 2.889.399 3.833 1.196.952.79 1.408 1.77 1.367 2.942l-.024.073h-2.845c0-.545-.207-1.013-.622-1.404-.415-.39-.985-.585-1.709-.585-.716 0-1.262.162-1.636.488-.374.317-.561.708-.561 1.172 0 .464.175.834.525 1.11.358.27 1.078.51 2.16.72 1.66.342 2.889.827 3.687 1.453.805.619 1.208 1.465 1.208 2.54 0 1.188-.492 2.152-1.477 2.892-.976.741-2.266 1.111-3.869 1.111-1.718 0-3.073-.44-4.065-1.318-.993-.879-1.465-1.888-1.416-3.027l.024-.074h2.759c.032.765.309 1.323.83 1.673.521.35 1.155.525 1.904.525.765 0 1.355-.147 1.77-.44.415-.293.623-.687.623-1.184zm13.012 0c0-.456-.195-.834-.586-1.135-.39-.301-1.119-.566-2.185-.794-1.578-.333-2.775-.805-3.588-1.416-.806-.618-1.209-1.456-1.209-2.514 0-1.107.468-2.051 1.404-2.832.936-.781 2.169-1.172 3.699-1.172 1.611 0 2.889.399 3.833 1.196.952.79 1.407 1.77 1.367 2.942l-.025.073h-2.844c0-.545-.207-1.013-.622-1.404-.415-.39-.985-.585-1.709-.585-.717 0-1.262.162-1.636.488-.375.317-.562.708-.562 1.172 0 .464.175.834.525 1.11.358.27 1.078.51 2.161.72 1.66.342 2.889.827 3.686 1.453.806.619 1.209 1.465 1.209 2.54 0 1.188-.492 2.152-1.477 2.892-.977.741-2.267 1.111-3.87 1.111-1.717 0-3.072-.44-4.065-1.318-.993-.879-1.465-1.888-1.416-3.027l.025-.074h2.758c.033.765.31 1.323.831 1.673.52.35 1.155.525 1.904.525.765 0 1.355-.147 1.77-.44.415-.293.622-.687.622-1.184zM491.642 37c-.106-.334-.196-.66-.269-.977a7.595 7.595 0 01-.134-.952 5.278 5.278 0 01-1.612 1.563 4.08 4.08 0 01-2.221.622c-1.376 0-2.434-.354-3.174-1.062-.733-.708-1.099-1.68-1.099-2.917 0-1.278.505-2.27 1.514-2.979 1.009-.716 2.429-1.074 4.26-1.074h2.307v-1.16c0-.691-.203-1.233-.61-1.623-.407-.39-.989-.586-1.746-.586-.675 0-1.212.163-1.611.488a1.549 1.549 0 00-.598 1.258h-2.857l-.012-.074c-.057-1.041.407-1.965 1.392-2.77.993-.806 2.283-1.21 3.869-1.21 1.539 0 2.78.392 3.724 1.173.944.781 1.416 1.904 1.416 3.369v5.871c0 .546.036 1.07.11 1.575.073.497.191.985.354 1.465h-3.003zm-3.638-2.124c.749 0 1.42-.187 2.014-.561.602-.375 1.001-.802 1.196-1.282V31.08h-2.356c-.862 0-1.538.215-2.026.647-.488.423-.732.923-.732 1.501 0 .505.162.907.488 1.209.334.293.806.439 1.416.439zm16.711-1.465c0-.456-.195-.834-.586-1.135-.39-.301-1.119-.566-2.185-.794-1.578-.333-2.775-.805-3.589-1.416-.805-.618-1.208-1.456-1.208-2.514 0-1.107.468-2.051 1.404-2.832.936-.781 2.169-1.172 3.698-1.172 1.612 0 2.889.399 3.833 1.196.953.79 1.408 1.77 1.368 2.942l-.025.073h-2.844c0-.545-.207-1.013-.623-1.404-.415-.39-.984-.585-1.709-.585-.716 0-1.261.162-1.635.488-.375.317-.562.708-.562 1.172 0 .464.175.834.525 1.11.358.27 1.078.51 2.161.72 1.66.342 2.889.827 3.686 1.453.806.619 1.209 1.465 1.209 2.54 0 1.188-.493 2.152-1.477 2.892-.977.741-2.267 1.111-3.87 1.111-1.717 0-3.072-.44-4.065-1.318-.993-.879-1.465-1.888-1.416-3.027l.025-.074h2.758c.033.765.31 1.323.83 1.673.521.35 1.156.525 1.905.525.765 0 1.355-.147 1.77-.44.415-.293.622-.687.622-1.184zm13.013 0c0-.456-.195-.834-.586-1.135-.391-.301-1.119-.566-2.185-.794-1.579-.333-2.775-.805-3.589-1.416-.806-.618-1.208-1.456-1.208-2.514 0-1.107.468-2.051 1.403-2.832.936-.781 2.169-1.172 3.699-1.172 1.612 0 2.889.399 3.833 1.196.952.79 1.408 1.77 1.367 2.942l-.024.073h-2.844c0-.545-.208-1.013-.623-1.404-.415-.39-.985-.585-1.709-.585-.716 0-1.261.162-1.636.488-.374.317-.561.708-.561 1.172 0 .464.175.834.525 1.11.358.27 1.078.51 2.16.72 1.661.342 2.889.827 3.687 1.453.806.619 1.208 1.465 1.208 2.54 0 1.188-.492 2.152-1.477 2.892-.976.741-2.266 1.111-3.869 1.111-1.717 0-3.072-.44-4.065-1.318-.993-.879-1.465-1.888-1.416-3.027l.024-.074h2.759c.033.765.309 1.323.83 1.673.521.35 1.156.525 1.904.525.765 0 1.355-.147 1.77-.44.415-.293.623-.687.623-1.184zm11.255 3.845c-1.872 0-3.365-.61-4.48-1.83-1.107-1.23-1.66-2.804-1.66-4.725v-.488c0-1.92.549-3.512 1.648-4.773 1.106-1.27 2.49-1.9 4.15-1.892 1.782 0 3.145.541 4.089 1.623.953 1.075 1.429 2.52 1.429 4.334v1.745h-8.24l-.024.061c.048 1.05.354 1.909.915 2.576.57.667 1.355 1.001 2.356 1.001.798 0 1.481-.097 2.051-.293a6.731 6.731 0 001.648-.842l.952 1.94c-.497.44-1.156.81-1.978 1.112-.822.3-1.774.451-2.856.451zm-.342-11.328c-.732 0-1.335.293-1.807.88-.472.577-.765 1.313-.878 2.209l.024.06h5.237v-.305c0-.838-.216-1.521-.647-2.05-.423-.53-1.066-.794-1.929-.794zm11.597-5.347v3.211h2.368v2.197h-2.368v7.3c0 .545.118.936.354 1.172.236.228.549.342.94.342.162 0 .321-.012.476-.037.154-.032.301-.073.439-.122l.318 2.173a3.282 3.282 0 01-.904.317c-.35.082-.712.122-1.086.122-1.091 0-1.945-.317-2.564-.952-.618-.643-.927-1.648-.927-3.015v-7.3h-2.014v-2.197h2.014v-3.21h2.954zm14.917 0v3.211h2.368v2.197h-2.368v7.3c0 .545.118.936.354 1.172.236.228.549.342.94.342.162 0 .321-.012.476-.037.154-.032.301-.073.439-.122l.318 2.173a3.282 3.282 0 01-.904.317c-.35.082-.712.122-1.086.122-1.091 0-1.945-.317-2.564-.952-.618-.643-.927-1.648-.927-3.015v-7.3h-2.014v-2.197h2.014v-3.21h2.954zm11.584 5.884l-1.269-.049c-.578 0-1.062.123-1.453.367-.382.244-.679.59-.891 1.037V37h-2.966V23.792h2.71l.195 1.916c.334-.675.761-1.204 1.282-1.586a3.024 3.024 0 011.819-.574c.179 0 .345.016.5.049.155.024.297.057.427.097l-.354 2.771zM576.773 37c-.105-.334-.195-.66-.268-.977a7.595 7.595 0 01-.134-.952 5.278 5.278 0 01-1.612 1.563 4.08 4.08 0 01-2.221.622c-1.376 0-2.434-.354-3.174-1.062-.733-.708-1.099-1.68-1.099-2.917 0-1.278.505-2.27 1.514-2.979 1.009-.716 2.429-1.074 4.26-1.074h2.307v-1.16c0-.691-.203-1.233-.61-1.623-.407-.39-.989-.586-1.746-.586-.675 0-1.212.163-1.611.488a1.549 1.549 0 00-.598 1.258h-2.857l-.012-.074c-.057-1.041.407-1.965 1.392-2.77.993-.806 2.282-1.21 3.869-1.21 1.538 0 2.779.392 3.723 1.173s1.416 1.904 1.416 3.369v5.871c0 .546.037 1.07.11 1.575.074.497.192.985.354 1.465h-3.003zm-3.637-2.124a3.7 3.7 0 002.014-.561c.602-.375 1.001-.802 1.196-1.282V31.08h-2.356c-.862 0-1.538.215-2.026.647-.488.423-.733.923-.733 1.501 0 .505.163.907.489 1.209.333.293.805.439 1.416.439zm8.74-4.297c0-2.108.452-3.804 1.355-5.09.903-1.294 2.173-1.941 3.809-1.941.716 0 1.355.146 1.916.44.57.284 1.062.695 1.477 1.232v-7.263h2.966V37h-2.49l-.293-1.636c-.423.619-.932 1.09-1.526 1.416-.594.318-1.285.476-2.075.476-1.619 0-2.881-.59-3.784-1.77-.903-1.18-1.355-2.73-1.355-4.65v-.257zm2.966.256c0 1.221.232 2.194.696 2.918.472.724 1.217 1.086 2.234 1.086.627 0 1.156-.134 1.587-.402a3.054 3.054 0 001.074-1.148v-5.762a3.079 3.079 0 00-1.074-1.135c-.44-.277-.96-.415-1.563-.415-1.009 0-1.753.427-2.234 1.282-.48.846-.72 1.953-.72 3.32v.256zM599.747 37h-2.966V23.792h2.966V37zm0-16.443h-2.966v-2.6h2.966v2.6zm6.018 3.235l.171 1.904c.431-.675.973-1.2 1.624-1.574.659-.383 1.399-.574 2.221-.574 1.376 0 2.446.419 3.211 1.257.773.83 1.159 2.128 1.159 3.894V37h-2.966v-8.276c0-.993-.207-1.697-.623-2.112-.406-.423-1.029-.635-1.867-.635-.578 0-1.095.13-1.55.39a3.152 3.152 0 00-1.124 1.05V37h-2.966V23.792h2.71zm10.938 6.787c0-2.1.459-3.796 1.379-5.09.92-1.294 2.197-1.941 3.833-1.941.789 0 1.481.17 2.075.513.602.333 1.111.817 1.526 1.452l.293-1.721h2.466V37c0 1.7-.525 3.015-1.575 3.943-1.05.928-2.539 1.392-4.468 1.392a8.638 8.638 0 01-2.087-.281 9.448 9.448 0 01-2.014-.72l.635-2.332a6.997 6.997 0 001.611.586c.594.146 1.204.22 1.831.22 1.074 0 1.86-.232 2.356-.696.496-.456.745-1.16.745-2.112v-1.355a4.2 4.2 0 01-1.477 1.208c-.562.27-1.209.403-1.941.403-1.62 0-2.889-.59-3.809-1.77-.92-1.18-1.379-2.73-1.379-4.65v-.257zm2.966.256c0 1.213.24 2.185.72 2.918.488.724 1.241 1.086 2.258 1.086.635 0 1.168-.13 1.6-.39a2.965 2.965 0 001.062-1.148v-5.786a3.1 3.1 0 00-1.075-1.123c-.431-.277-.952-.415-1.562-.415-1.017 0-1.774.427-2.271 1.282-.488.854-.732 1.961-.732 3.32v.256zM439.054 63.411c0-.456-.196-.834-.586-1.135-.391-.301-1.119-.566-2.185-.794-1.579-.333-2.775-.805-3.589-1.416-.806-.618-1.209-1.456-1.209-2.514 0-1.107.468-2.051 1.404-2.832.936-.782 2.169-1.172 3.699-1.172 1.611 0 2.889.399 3.833 1.196.952.79 1.408 1.77 1.367 2.942l-.024.073h-2.845c0-.545-.207-1.013-.622-1.404-.415-.39-.985-.585-1.709-.585-.716 0-1.262.162-1.636.488-.374.317-.561.708-.561 1.172 0 .464.175.834.525 1.11.358.27 1.078.51 2.16.72 1.66.343 2.889.827 3.687 1.453.805.619 1.208 1.465 1.208 2.54 0 1.188-.492 2.152-1.477 2.892-.976.741-2.266 1.111-3.87 1.111-1.717 0-3.072-.44-4.064-1.318-.993-.879-1.465-1.888-1.416-3.027l.024-.074h2.759c.032.765.309 1.323.83 1.673.521.35 1.155.525 1.904.525.765 0 1.355-.147 1.77-.44.415-.293.623-.687.623-1.184zm13.818 1.66c-.415.7-.94 1.241-1.575 1.624-.634.374-1.367.561-2.197.561-1.416 0-2.523-.451-3.32-1.355-.798-.903-1.197-2.307-1.197-4.211v-7.898h2.955v7.922c0 1.156.187 1.966.561 2.43.374.463.94.695 1.697.695.716 0 1.314-.126 1.794-.378.489-.26.871-.635 1.148-1.123v-9.546h2.966V67h-2.588l-.244-1.929zm17.505-4.236c0 1.921-.452 3.471-1.355 4.651-.903 1.18-2.161 1.77-3.772 1.77-.749 0-1.412-.134-1.99-.403a4.09 4.09 0 01-1.489-1.184v6.41h-2.966V53.791h2.502l.293 1.66c.423-.618.932-1.09 1.526-1.416.602-.325 1.298-.488 2.087-.488 1.628 0 2.893.647 3.797 1.94.911 1.287 1.367 2.983 1.367 5.091v.256zm-2.954-.256c0-1.35-.257-2.453-.769-3.308-.505-.863-1.262-1.294-2.271-1.294-.618 0-1.143.134-1.574.403-.432.26-.778.627-1.038 1.098v5.97c.26.464.606.822 1.038 1.074.431.244.964.366 1.599.366 1.009 0 1.762-.37 2.258-1.11.505-.75.757-1.73.757-2.943v-.256zm17.114.256c0 1.921-.452 3.471-1.355 4.651-.903 1.18-2.161 1.77-3.772 1.77-.749 0-1.412-.134-1.99-.403a4.099 4.099 0 01-1.489-1.184v6.41h-2.966V53.791h2.502l.293 1.66c.423-.618.932-1.09 1.526-1.416.602-.325 1.298-.488 2.088-.488 1.627 0 2.893.647 3.796 1.94.911 1.287 1.367 2.983 1.367 5.091v.256zm-2.954-.256c0-1.35-.256-2.453-.769-3.308-.505-.863-1.261-1.294-2.271-1.294-.618 0-1.143.134-1.574.403-.432.26-.777.627-1.038 1.098v5.97c.261.464.606.822 1.038 1.074.431.244.964.366 1.599.366 1.009 0 1.762-.37 2.258-1.11.505-.75.757-1.73.757-2.943v-.256zm4.993-.305c0-1.961.537-3.573 1.611-4.834 1.09-1.261 2.568-1.892 4.431-1.892 1.896 0 3.381.63 4.456 1.892 1.082 1.253 1.623 2.864 1.623 4.834v.256c0 1.986-.541 3.605-1.623 4.859-1.075 1.245-2.552 1.867-4.431 1.867-1.888 0-3.374-.626-4.456-1.88-1.074-1.253-1.611-2.868-1.611-4.846v-.256zm2.966.256c0 1.286.252 2.336.757 3.15.496.805 1.277 1.208 2.344 1.208 1.033 0 1.806-.403 2.319-1.208.521-.814.781-1.864.781-3.15v-.256c0-1.261-.26-2.3-.781-3.113-.513-.822-1.294-1.233-2.344-1.233-1.033 0-1.807.411-2.319 1.233-.505.822-.757 1.86-.757 3.113v.256zm18.323-4.065l-1.27-.049c-.578 0-1.062.123-1.452.367-.383.244-.68.59-.892 1.037V67h-2.966V53.792h2.71l.195 1.916c.334-.675.761-1.204 1.282-1.586a3.024 3.024 0 011.819-.574c.179 0 .346.016.5.049.155.024.298.057.428.097l-.354 2.771zm6.042-5.884v3.211h2.368v2.197h-2.368v7.3c0 .545.118.936.354 1.172.236.228.55.342.94.342.163 0 .322-.013.476-.037.155-.032.301-.073.44-.122l.317 2.173a3.263 3.263 0 01-.903.317c-.35.082-.712.122-1.087.122-1.09 0-1.945-.317-2.563-.952-.619-.643-.928-1.648-.928-3.015v-7.3h-2.014v-2.197h2.014v-3.21h2.954zm22.363 8.838h-7.788V67h-2.966V49.227h12v2.38h-9.034v5.432h7.788v2.38zm17.603.293c0 2.173-.684 3.976-2.051 5.408-1.359 1.424-3.125 2.136-5.298 2.136-2.132 0-3.865-.712-5.2-2.136-1.326-1.432-1.99-3.235-1.99-5.408v-3.198c0-2.165.664-3.963 1.99-5.395 1.335-1.433 3.064-2.149 5.188-2.149 2.173 0 3.943.716 5.31 2.149 1.367 1.432 2.051 3.23 2.051 5.395v3.198zm-2.954-3.222c0-1.481-.399-2.698-1.196-3.65-.79-.952-1.86-1.428-3.211-1.428-1.302 0-2.331.476-3.088 1.428-.757.952-1.135 2.169-1.135 3.65v3.222c0 1.498.378 2.727 1.135 3.687.757.952 1.79 1.428 3.1 1.428 1.359 0 2.43-.476 3.211-1.428.789-.952 1.184-2.181 1.184-3.687V56.49zm13.196 12.036h-2.722l6.994-19.3h2.722l-6.994 19.3zM579.789 67V49.227h5.908c1.969 0 3.507.407 4.614 1.22 1.107.806 1.66 2.014 1.66 3.626a3.57 3.57 0 01-.696 2.16c-.464.635-1.106 1.107-1.928 1.416 1.058.236 1.871.745 2.441 1.526.57.782.855 1.689.855 2.723 0 1.668-.546 2.937-1.636 3.808-1.091.863-2.596 1.294-4.517 1.294h-6.701zm2.966-8.081v5.713h3.735c1.026 0 1.815-.232 2.368-.696.554-.472.83-1.151.83-2.038 0-.945-.231-1.677-.695-2.198-.464-.52-1.188-.781-2.173-.781h-4.065zm0-2.21h3.271c.92 0 1.644-.215 2.173-.647.537-.439.806-1.057.806-1.855 0-.879-.281-1.53-.842-1.953-.562-.431-1.384-.647-2.466-.647h-2.942v5.102zm26.904 3.003c0 2.173-.683 3.976-2.051 5.408-1.359 1.424-3.125 2.136-5.297 2.136-2.133 0-3.866-.712-5.201-2.136-1.326-1.432-1.989-3.235-1.989-5.408v-3.198c0-2.165.663-3.963 1.989-5.395 1.335-1.433 3.064-2.149 5.188-2.149 2.173 0 3.943.716 5.31 2.149 1.368 1.432 2.051 3.23 2.051 5.395v3.198zm-2.954-3.222c0-1.481-.399-2.698-1.196-3.65-.79-.952-1.86-1.428-3.211-1.428-1.302 0-2.331.476-3.088 1.428-.757.952-1.135 2.169-1.135 3.65v3.222c0 1.498.378 2.727 1.135 3.687.757.952 1.79 1.428 3.101 1.428 1.359 0 2.429-.476 3.21-1.428.789-.952 1.184-2.181 1.184-3.687V56.49zM259.339 206h-2.966v-17.773h2.966V206zm16.211-15.393h-5.371V206h-2.967v-15.393h-5.371v-2.38h13.709v2.38zm22.412 8.105c0 1.099-.187 2.12-.562 3.064a7.114 7.114 0 01-1.587 2.442l2.955 2.868-1.978 1.77-3.271-3.125c-.44.179-.904.31-1.392.391-.488.09-.993.134-1.514.134-2.132 0-3.865-.712-5.2-2.136-1.326-1.432-1.99-3.235-1.99-5.408v-3.198c0-2.165.664-3.963 1.99-5.395 1.335-1.433 3.064-2.149 5.188-2.149 2.173 0 3.943.716 5.31 2.149 1.367 1.432 2.051 3.23 2.051 5.395v3.198zm-2.954-3.222c0-1.481-.399-2.698-1.196-3.65-.79-.952-1.86-1.428-3.211-1.428-1.302 0-2.331.476-3.088 1.428-.757.952-1.136 2.169-1.136 3.65v3.222c0 1.498.379 2.727 1.136 3.687.757.952 1.79 1.428 3.1 1.428 1.359 0 2.429-.476 3.211-1.428.789-.952 1.184-2.181 1.184-3.687v-3.222zm14.209 8.581c-.415.7-.94 1.241-1.575 1.624-.635.374-1.367.561-2.197.561-1.416 0-2.523-.451-3.32-1.355-.798-.903-1.197-2.307-1.197-4.211v-7.898h2.954v7.922c0 1.156.187 1.966.562 2.43.374.463.94.695 1.697.695.716 0 1.314-.126 1.794-.378.488-.26.871-.635 1.148-1.123v-9.546h2.966V206h-2.588l-.244-1.929zM323.096 206a12.4 12.4 0 01-.268-.977 7.761 7.761 0 01-.135-.952 5.28 5.28 0 01-1.611 1.563c-.659.415-1.4.622-2.222.622-1.375 0-2.433-.354-3.173-1.062-.733-.708-1.099-1.68-1.099-2.917 0-1.278.504-2.271 1.514-2.979 1.009-.716 2.429-1.074 4.26-1.074h2.307v-1.16c0-.691-.204-1.232-.61-1.623-.407-.391-.989-.586-1.746-.586-.675 0-1.213.163-1.611.488a1.55 1.55 0 00-.598 1.258h-2.857l-.012-.074c-.057-1.041.407-1.965 1.391-2.771.993-.805 2.283-1.208 3.87-1.208 1.538 0 2.779.39 3.723 1.172.944.781 1.416 1.904 1.416 3.369v5.871c0 .546.037 1.071.11 1.575.073.497.191.985.354 1.465h-3.003zm-3.638-2.124c.749 0 1.421-.187 2.015-.562.602-.374 1.001-.801 1.196-1.281v-1.953h-2.356c-.863 0-1.538.215-2.026.647-.489.423-.733.923-.733 1.501 0 .505.163.907.488 1.209.334.292.806.439 1.416.439zm11.976-11.084l.17 1.904c.432-.675.973-1.2 1.624-1.574.659-.383 1.4-.574 2.222-.574 1.375 0 2.445.419 3.21 1.257.773.83 1.16 2.128 1.16 3.894V206h-2.966v-8.276c0-.993-.208-1.697-.623-2.112-.407-.423-1.03-.635-1.868-.635-.578 0-1.094.13-1.55.391a3.15 3.15 0 00-1.123 1.049V206h-2.966v-13.208h2.71zm15.161-3.21v3.21h2.368v2.197h-2.368v7.3c0 .545.118.936.354 1.172.236.228.549.342.94.342.162 0 .321-.012.476-.037.154-.032.301-.073.439-.122l.318 2.173a3.282 3.282 0 01-.904.317c-.35.082-.712.122-1.086.122-1.091 0-1.945-.317-2.564-.952-.618-.643-.927-1.648-.927-3.015v-7.3h-2.015v-2.197h2.015v-3.21h2.954zM354.761 206h-2.966v-13.208h2.966V206zm0-16.443h-2.966v-2.6h2.966v2.6zm7.019.025v3.21h2.368v2.197h-2.368v7.3c0 .545.118.936.354 1.172.236.228.55.342.94.342.163 0 .322-.012.476-.037.155-.032.301-.073.44-.122l.317 2.173a3.263 3.263 0 01-.903.317c-.35.082-.712.122-1.087.122-1.09 0-1.945-.317-2.563-.952-.619-.643-.928-1.648-.928-3.015v-7.3h-2.014v-2.197h2.014v-3.21h2.954zM374.732 206a12.867 12.867 0 01-.269-.977 7.758 7.758 0 01-.134-.952 5.28 5.28 0 01-1.611 1.563c-.659.415-1.4.622-2.222.622-1.375 0-2.433-.354-3.174-1.062-.732-.708-1.098-1.68-1.098-2.917 0-1.278.504-2.271 1.513-2.979 1.009-.716 2.43-1.074 4.261-1.074h2.307v-1.16c0-.691-.204-1.232-.611-1.623-.407-.391-.988-.586-1.745-.586-.676 0-1.213.163-1.612.488a1.553 1.553 0 00-.598 1.258h-2.856l-.012-.074c-.057-1.041.407-1.965 1.391-2.771.993-.805 2.283-1.208 3.87-1.208 1.538 0 2.779.39 3.723 1.172.944.781 1.416 1.904 1.416 3.369v5.871c0 .546.037 1.071.11 1.575.073.497.191.985.354 1.465h-3.003zm-3.638-2.124c.749 0 1.42-.187 2.014-.562.603-.374 1.001-.801 1.197-1.281v-1.953h-2.356c-.863 0-1.538.215-2.027.647-.488.423-.732.923-.732 1.501 0 .505.163.907.488 1.209.334.292.806.439 1.416.439zm12.976-14.294v3.21h2.368v2.197h-2.368v7.3c0 .545.118.936.354 1.172.236.228.55.342.94.342.163 0 .322-.012.476-.037.155-.032.301-.073.44-.122l.317 2.173a3.263 3.263 0 01-.903.317c-.35.082-.712.122-1.087.122-1.09 0-1.945-.317-2.563-.952-.619-.643-.928-1.648-.928-3.015v-7.3h-2.014v-2.197h2.014v-3.21h2.954zM392.237 206h-2.966v-13.208h2.966V206zm0-16.443h-2.966v-2.6h2.966v2.6zm7.922 11.975l.22 1.074h.073l.232-1.074 2.625-8.74h3.064L401.685 206h-2.576l-4.712-13.208h3.064l2.698 8.74zm13.574 4.724c-1.871 0-3.365-.61-4.48-1.831-1.106-1.229-1.66-2.803-1.66-4.724v-.488c0-1.921.55-3.512 1.648-4.773 1.107-1.27 2.49-1.9 4.151-1.892 1.782 0 3.145.541 4.089 1.623.952 1.075 1.428 2.519 1.428 4.334v1.745h-8.24l-.024.062c.049 1.049.354 1.908.916 2.575.569.668 1.355 1.001 2.356 1.001.797 0 1.481-.097 2.05-.293a6.71 6.71 0 001.648-.842l.952 1.941c-.496.439-1.155.81-1.977 1.111-.822.301-1.774.451-2.857.451zm-.341-11.328c-.733 0-1.335.293-1.807.879-.472.578-.765 1.314-.879 2.21l.024.061h5.237v-.306c0-.838-.215-1.521-.647-2.05-.423-.529-1.066-.794-1.928-.794zM74.785 397.227l5.115 13.671h.073l5.127-13.671h3.845V415H85.98v-6.055l.293-7.702-.073-.013L80.925 415h-1.99l-5.248-13.733-.074.012.293 7.666V415H70.94v-17.773h3.845zM100.408 415a12.417 12.417 0 01-.269-.977 7.57 7.57 0 01-.134-.952 5.276 5.276 0 01-1.611 1.563c-.66.415-1.4.622-2.222.622-1.375 0-2.433-.354-3.174-1.062-.732-.708-1.099-1.68-1.099-2.917 0-1.278.505-2.271 1.514-2.979 1.01-.716 2.43-1.074 4.26-1.074h2.308v-1.16c0-.691-.204-1.232-.61-1.623-.408-.391-.99-.586-1.746-.586-.676 0-1.213.163-1.612.488a1.551 1.551 0 00-.598 1.258H92.56l-.013-.074c-.056-1.041.407-1.965 1.392-2.771.993-.805 2.283-1.208 3.87-1.208 1.538 0 2.779.39 3.723 1.172.944.781 1.416 1.904 1.416 3.369v5.871c0 .546.036 1.071.11 1.575.073.497.191.985.354 1.465h-3.003zm-3.638-2.124c.749 0 1.42-.187 2.014-.562.602-.374 1.001-.801 1.197-1.281v-1.953h-2.356c-.863 0-1.538.215-2.027.647-.488.423-.732.923-.732 1.501 0 .505.163.907.488 1.209.334.292.806.439 1.416.439zm15.869-8.411l-1.269-.048c-.578 0-1.062.122-1.453.366a2.42 2.42 0 00-.891 1.037V415h-2.966v-13.208h2.71l.195 1.916c.333-.675.761-1.204 1.282-1.586a3.02 3.02 0 011.818-.574c.179 0 .346.016.501.049.155.024.297.057.427.097l-.354 2.771zm6.384 4.761h-1.33V415h-2.954v-19.043h2.954v10.889h1.233l3.332-5.054h3.491l-4.357 6.006 5.004 7.202h-3.442l-3.931-5.774zm14.185 6.03c-1.872 0-3.365-.61-4.48-1.831-1.107-1.229-1.66-2.803-1.66-4.724v-.488c0-1.921.549-3.512 1.648-4.773 1.107-1.27 2.49-1.9 4.15-1.892 1.782 0 3.146.541 4.09 1.623.952 1.075 1.428 2.519 1.428 4.334v1.745h-8.24l-.024.062c.048 1.049.354 1.908.915 2.575.57.668 1.355 1.001 2.356 1.001.798 0 1.481-.097 2.051-.293a6.71 6.71 0 001.648-.842l.952 1.941c-.496.439-1.156.81-1.978 1.111-.822.301-1.774.451-2.856.451zm-.342-11.328c-.732 0-1.334.293-1.806.879-.472.578-.765 1.314-.879 2.21l.024.061h5.237v-.306c0-.838-.216-1.521-.647-2.05-.423-.529-1.066-.794-1.929-.794zm11.597-5.346v3.21h2.368v2.197h-2.368v7.3c0 .545.118.936.354 1.172.236.228.549.342.94.342.163 0 .321-.012.476-.037.155-.032.301-.073.439-.122l.318 2.173a3.282 3.282 0 01-.904.317c-.35.082-.712.122-1.086.122-1.091 0-1.945-.317-2.563-.952-.619-.643-.928-1.648-.928-3.015v-7.3h-2.014v-2.197h2.014v-3.21h2.954zm-60.56 43.522l.025.073c.033 1.799-.553 3.264-1.757 4.395-1.197 1.123-2.82 1.684-4.871 1.684-2.075 0-3.764-.695-5.066-2.087-1.294-1.4-1.941-3.186-1.941-5.359v-3.381c0-2.165.639-3.947 1.916-5.347 1.286-1.408 2.955-2.112 5.005-2.112 2.1 0 3.752.554 4.957 1.66 1.212 1.099 1.802 2.58 1.77 4.444l-.025.073h-2.869c0-1.196-.325-2.128-.976-2.795-.643-.668-1.595-1.001-2.857-1.001-1.212 0-2.177.48-2.893 1.44-.708.96-1.062 2.165-1.062 3.613v3.406c0 1.465.362 2.677 1.087 3.638.732.96 1.717 1.44 2.954 1.44 1.229 0 2.16-.329 2.795-.989.635-.659.952-1.591.952-2.795h2.857zm9.132-4.639l-1.27-.048c-.578 0-1.062.122-1.452.366-.383.244-.68.59-.892 1.037V448h-2.966v-13.208h2.71l.195 1.916c.334-.675.761-1.204 1.282-1.586a3.021 3.021 0 011.819-.574c.18 0 .346.016.5.049.155.024.297.057.428.097l-.354 2.771zm7.751 10.791c-1.871 0-3.365-.61-4.48-1.831-1.106-1.229-1.66-2.803-1.66-4.724v-.488c0-1.921.55-3.512 1.648-4.773 1.107-1.27 2.49-1.9 4.15-1.892 1.783 0 3.146.541 4.09 1.623.952 1.075 1.428 2.519 1.428 4.334v1.745h-8.24l-.024.062c.049 1.049.354 1.908.915 2.575.57.668 1.355 1.001 2.356 1.001.798 0 1.481-.097 2.051-.293a6.71 6.71 0 001.648-.842l.952 1.941c-.496.439-1.156.81-1.977 1.111-.822.301-1.775.451-2.857.451zm-.342-11.328c-.732 0-1.334.293-1.806.879-.472.578-.765 1.314-.88 2.21l.025.061h5.237v-.306c0-.838-.216-1.521-.647-2.05-.423-.529-1.066-.794-1.929-.794zm7.361 4.651c0-2.108.452-3.804 1.355-5.09.903-1.294 2.173-1.941 3.809-1.941.716 0 1.355.146 1.916.439.57.285 1.062.696 1.477 1.233v-7.263h2.967V448h-2.491l-.293-1.636c-.423.619-.931 1.091-1.525 1.416-.595.318-1.286.476-2.076.476-1.619 0-2.881-.59-3.784-1.77-.903-1.18-1.355-2.73-1.355-4.651v-.256zm2.966.256c0 1.221.232 2.194.696 2.918.472.724 1.217 1.086 2.234 1.086.627 0 1.156-.134 1.587-.402.44-.269.798-.652 1.074-1.148v-5.762a3.068 3.068 0 00-1.074-1.135c-.439-.277-.96-.415-1.562-.415-1.01 0-1.754.427-2.234 1.282-.48.846-.721 1.953-.721 3.32v.256zM125.676 448h-2.966v-13.208h2.966V448zm0-16.443h-2.966v-2.6h2.966v2.6zm7.019.025v3.21h2.368v2.197h-2.368v7.3c0 .545.118.936.354 1.172.236.228.55.342.94.342.163 0 .322-.012.476-.037.155-.032.301-.073.44-.122l.317 2.173a3.263 3.263 0 01-.903.317c-.35.082-.712.122-1.087.122-1.09 0-1.945-.317-2.563-.952-.619-.643-.928-1.648-.928-3.015v-7.3h-2.014v-2.197h2.014v-3.21h2.954zM73.723 481h-2.966v-19.043h2.966V481zm6.494 0h-2.966v-13.208h2.966V481zm0-16.443h-2.966v-2.6h2.966v2.6zm2.784 10.022c0-2.108.451-3.804 1.355-5.09.903-1.294 2.172-1.941 3.808-1.941.765 0 1.44.159 2.026.476a4.355 4.355 0 011.502 1.367l.342-1.599h2.405v18.286h-2.967v-6.323a3.988 3.988 0 01-1.44 1.123c-.554.252-1.184.378-1.892.378-1.62 0-2.881-.59-3.784-1.77-.904-1.18-1.355-2.73-1.355-4.651v-.256zm2.966.256c0 1.221.232 2.202.696 2.942.472.741 1.216 1.111 2.234 1.111.602 0 1.11-.118 1.525-.354a2.944 2.944 0 001.05-1.05v-6.152a3.01 3.01 0 00-1.05-1.025c-.423-.253-.923-.379-1.501-.379-1.01 0-1.754.436-2.234 1.306-.48.863-.72 1.978-.72 3.345v.256zm19.97 4.236c-.415.7-.939 1.241-1.574 1.624-.635.374-1.367.561-2.197.561-1.417 0-2.523-.451-3.32-1.355-.798-.903-1.197-2.307-1.197-4.211v-7.898h2.954v7.922c0 1.156.187 1.966.562 2.43.374.463.939.695 1.696.695.716 0 1.315-.126 1.795-.378.488-.26.871-.635 1.147-1.123v-9.546h2.967V481h-2.588l-.245-1.929zm9.095 1.929h-2.967v-13.208h2.967V481zm0-16.443h-2.967v-2.6h2.967v2.6zm2.783 10.022c0-2.108.452-3.804 1.355-5.09.903-1.294 2.173-1.941 3.808-1.941.717 0 1.355.146 1.917.439.57.285 1.062.696 1.477 1.233v-7.263h2.966V481h-2.49l-.293-1.636c-.423.619-.932 1.091-1.526 1.416-.594.318-1.286.476-2.075.476-1.619 0-2.881-.59-3.784-1.77-.903-1.18-1.355-2.73-1.355-4.651v-.256zm2.966.256c0 1.221.232 2.194.696 2.918.472.724 1.217 1.086 2.234 1.086.627 0 1.156-.134 1.587-.402a3.063 3.063 0 001.074-1.148v-5.762a3.084 3.084 0 00-1.074-1.135c-.44-.277-.96-.415-1.563-.415-1.009 0-1.753.427-2.234 1.282-.48.846-.72 1.953-.72 3.32v.256zM135.686 481h-2.966v-13.208h2.966V481zm0-16.443h-2.966v-2.6h2.966v2.6zm7.019.025v3.21h2.368v2.197h-2.368v7.3c0 .545.118.936.354 1.172.236.228.549.342.94.342.163 0 .321-.012.476-.037.155-.032.301-.073.44-.122l.317 2.173a3.263 3.263 0 01-.903.317c-.35.082-.712.122-1.087.122-1.09 0-1.945-.317-2.563-.952-.619-.643-.928-1.648-.928-3.015v-7.3h-2.014v-2.197h2.014v-3.21h2.954zm9.387 11.12l.293 1.319h.073l2.894-9.229h3.247l-5.469 15.21c-.35.92-.842 1.705-1.477 2.356-.635.651-1.534.976-2.698.976-.244 0-.509-.024-.793-.073a11.8 11.8 0 01-.806-.171l.33-2.295.451.037c.195.016.342.024.44.024.537 0 .964-.183 1.281-.549.326-.366.59-.789.794-1.269l.488-1.197-4.797-13.049h3.235l2.514 7.91zm-74.95 27.763l-1.27-.048c-.578 0-1.062.122-1.453.366-.382.244-.68.59-.891 1.037V514h-2.966v-13.208h2.71l.195 1.916c.334-.675.76-1.204 1.282-1.586a3.022 3.022 0 011.819-.574c.178 0 .345.016.5.049.155.024.297.057.427.097l-.354 2.771zM82.39 514h-2.966v-13.208h2.966V514zm0-16.443h-2.966v-2.6h2.966v2.6zm10.755 12.854c0-.456-.196-.834-.586-1.135-.391-.301-1.12-.566-2.185-.794-1.58-.333-2.775-.805-3.59-1.416-.805-.618-1.208-1.456-1.208-2.514 0-1.107.468-2.051 1.404-2.832.936-.782 2.169-1.172 3.699-1.172 1.611 0 2.889.399 3.833 1.196.952.79 1.408 1.77 1.367 2.942l-.024.073H93.01c0-.545-.207-1.013-.622-1.404-.415-.39-.985-.585-1.71-.585-.715 0-1.26.162-1.635.488-.374.317-.562.708-.562 1.172 0 .464.175.834.525 1.111.359.268 1.079.508 2.161.72 1.66.342 2.89.826 3.687 1.452.805.619 1.208 1.465 1.208 2.539 0 1.189-.492 2.153-1.477 2.894-.976.74-2.266 1.11-3.87 1.11-1.717 0-3.072-.439-4.065-1.318-.992-.879-1.464-1.888-1.416-3.027l.025-.074h2.759c.032.765.309 1.323.83 1.673.52.35 1.155.525 1.904.525.765 0 1.355-.147 1.77-.44.415-.293.623-.687.623-1.184zm9.887-2.185h-1.33V514h-2.954v-19.043h2.954v10.889h1.233l3.332-5.054h3.491l-4.358 6.006 5.005 7.202h-3.442l-3.931-5.774zm16.211 2.185c0-.456-.195-.834-.586-1.135-.39-.301-1.119-.566-2.185-.794-1.579-.333-2.775-.805-3.589-1.416-.805-.618-1.208-1.456-1.208-2.514 0-1.107.468-2.051 1.404-2.832.935-.782 2.168-1.172 3.698-1.172 1.612 0 2.889.399 3.833 1.196.952.79 1.408 1.77 1.368 2.942l-.025.073h-2.844c0-.545-.208-1.013-.623-1.404-.415-.39-.984-.585-1.709-.585-.716 0-1.261.162-1.635.488-.375.317-.562.708-.562 1.172 0 .464.175.834.525 1.111.358.268 1.078.508 2.161.72 1.66.342 2.889.826 3.686 1.452.806.619 1.209 1.465 1.209 2.539 0 1.189-.493 2.153-1.477 2.894-.977.74-2.267 1.11-3.87 1.11-1.717 0-3.072-.439-4.065-1.318-.993-.879-1.465-1.888-1.416-3.027l.024-.074h2.759c.033.765.309 1.323.83 1.673.521.35 1.156.525 1.905.525.765 0 1.355-.147 1.77-.44.415-.293.622-.687.622-1.184zM500.079 415h-2.966v-17.773h2.966V415zm6.372-13.208l.171 1.904c.431-.675.973-1.2 1.624-1.574.659-.383 1.399-.574 2.221-.574 1.376 0 2.446.419 3.211 1.257.773.83 1.159 2.128 1.159 3.894V415h-2.966v-8.276c0-.993-.207-1.697-.622-2.112-.407-.423-1.03-.635-1.868-.635a3.06 3.06 0 00-1.55.391 3.15 3.15 0 00-1.123 1.049V415h-2.967v-13.208h2.71zm15.161-3.21v3.21h2.368v2.197h-2.368v7.3c0 .545.118.936.354 1.172.236.228.55.342.94.342.163 0 .322-.012.476-.037.155-.032.301-.073.44-.122l.317 2.173a3.263 3.263 0 01-.903.317c-.35.082-.712.122-1.087.122-1.09 0-1.945-.317-2.563-.952-.619-.643-.928-1.648-.928-3.015v-7.3h-2.014v-2.197h2.014v-3.21h2.954zm10.669 16.674c-1.871 0-3.365-.61-4.48-1.831-1.106-1.229-1.66-2.803-1.66-4.724v-.488c0-1.921.549-3.512 1.648-4.773 1.107-1.27 2.49-1.9 4.15-1.892 1.783 0 3.146.541 4.09 1.623.952 1.075 1.428 2.519 1.428 4.334v1.745h-8.24l-.024.062c.049 1.049.354 1.908.915 2.575.57.668 1.355 1.001 2.356 1.001.798 0 1.481-.097 2.051-.293a6.71 6.71 0 001.648-.842l.952 1.941c-.496.439-1.155.81-1.977 1.111-.822.301-1.774.451-2.857.451zm-.342-11.328c-.732 0-1.334.293-1.806.879-.472.578-.765 1.314-.879 2.21l.024.061h5.237v-.306c0-.838-.215-1.521-.647-2.05-.423-.529-1.066-.794-1.929-.794zm7.374 4.651c0-2.1.459-3.796 1.379-5.09.92-1.294 2.197-1.941 3.833-1.941.789 0 1.481.171 2.075.513.602.333 1.111.817 1.526 1.452l.293-1.721h2.466V415c0 1.701-.525 3.015-1.575 3.943-1.05.928-2.539 1.391-4.468 1.391a8.645 8.645 0 01-2.087-.28 9.4 9.4 0 01-2.014-.721l.635-2.331a6.988 6.988 0 001.611.586c.594.146 1.204.22 1.831.22 1.074 0 1.859-.232 2.356-.696.496-.456.744-1.16.744-2.112v-1.355a4.196 4.196 0 01-1.477 1.209c-.561.268-1.208.402-1.94.402-1.62 0-2.889-.59-3.809-1.77-.92-1.18-1.379-2.73-1.379-4.651v-.256zm2.966.256c0 1.213.24 2.186.72 2.918.488.724 1.241 1.086 2.258 1.086.635 0 1.168-.13 1.599-.39.44-.269.794-.651 1.062-1.148v-5.786a3.093 3.093 0 00-1.074-1.123c-.431-.277-.952-.415-1.562-.415-1.017 0-1.774.427-2.271 1.282-.488.854-.732 1.961-.732 3.32v.256zm18.31-4.37l-1.269-.048c-.578 0-1.062.122-1.453.366-.382.244-.679.59-.891 1.037V415h-2.966v-13.208h2.71l.195 1.916c.334-.675.761-1.204 1.282-1.586a3.021 3.021 0 011.819-.574c.179 0 .346.016.5.049.155.024.297.057.427.097l-.354 2.771zM570.624 415a12.417 12.417 0 01-.269-.977 7.57 7.57 0 01-.134-.952 5.271 5.271 0 01-1.612 1.563 4.08 4.08 0 01-2.221.622c-1.376 0-2.434-.354-3.174-1.062-.733-.708-1.099-1.68-1.099-2.917 0-1.278.505-2.271 1.514-2.979 1.009-.716 2.429-1.074 4.26-1.074h2.307v-1.16c0-.691-.203-1.232-.61-1.623s-.989-.586-1.746-.586c-.675 0-1.212.163-1.611.488a1.55 1.55 0 00-.598 1.258h-2.857l-.012-.074c-.057-1.041.407-1.965 1.392-2.771.993-.805 2.283-1.208 3.869-1.208 1.539 0 2.78.39 3.724 1.172.944.781 1.416 1.904 1.416 3.369v5.871c0 .546.036 1.071.109 1.575.074.497.192.985.354 1.465h-3.002zm-3.638-2.124c.749 0 1.42-.187 2.014-.562.602-.374 1.001-.801 1.196-1.281v-1.953h-2.356c-.862 0-1.538.215-2.026.647-.488.423-.732.923-.732 1.501 0 .505.162.907.488 1.209.334.292.806.439 1.416.439zm12.976-14.294v3.21h2.368v2.197h-2.368v7.3c0 .545.118.936.354 1.172.236.228.549.342.94.342.163 0 .321-.012.476-.037.155-.032.301-.073.439-.122l.318 2.173a3.27 3.27 0 01-.904.317 4.739 4.739 0 01-1.086.122c-1.09 0-1.945-.317-2.563-.952-.619-.643-.928-1.648-.928-3.015v-7.3h-2.014v-2.197h2.014v-3.21h2.954zM588.128 415h-2.966v-13.208h2.966V415zm0-16.443h-2.966v-2.6h2.966v2.6zm2.784 9.717c0-1.961.537-3.573 1.611-4.834 1.09-1.261 2.568-1.892 4.431-1.892 1.896 0 3.381.631 4.456 1.892 1.082 1.253 1.623 2.865 1.623 4.834v.256c0 1.986-.541 3.605-1.623 4.859-1.075 1.245-2.552 1.867-4.431 1.867-1.888 0-3.374-.626-4.456-1.88-1.074-1.253-1.611-2.868-1.611-4.846v-.256zm2.966.256c0 1.286.252 2.336.757 3.15.496.805 1.277 1.208 2.344 1.208 1.033 0 1.806-.403 2.319-1.208.521-.814.781-1.864.781-3.15v-.256c0-1.261-.26-2.299-.781-3.113-.513-.822-1.294-1.233-2.344-1.233-1.033 0-1.807.411-2.319 1.233-.505.822-.757 1.86-.757 3.113v.256zm14.429-6.738l.171 1.904c.431-.675.972-1.2 1.623-1.574.659-.383 1.4-.574 2.222-.574 1.375 0 2.445.419 3.21 1.257.773.83 1.16 2.128 1.16 3.894V415h-2.966v-8.276c0-.993-.208-1.697-.623-2.112-.407-.423-1.029-.635-1.868-.635-.577 0-1.094.13-1.55.391a3.15 3.15 0 00-1.123 1.049V415h-2.966v-13.208h2.71zm-112.293 39.482c0-1.961.537-3.573 1.612-4.834 1.09-1.261 2.567-1.892 4.431-1.892 1.896 0 3.381.631 4.455 1.892 1.083 1.253 1.624 2.865 1.624 4.834v.256c0 1.986-.541 3.605-1.624 4.859-1.074 1.245-2.551 1.867-4.431 1.867-1.888 0-3.373-.626-4.455-1.88-1.075-1.253-1.612-2.868-1.612-4.846v-.256zm2.966.256c0 1.286.253 2.336.757 3.15.497.805 1.278 1.208 2.344 1.208 1.034 0 1.807-.403 2.319-1.208.521-.814.782-1.864.782-3.15v-.256c0-1.261-.261-2.299-.782-3.113-.512-.822-1.294-1.233-2.343-1.233-1.034 0-1.807.411-2.32 1.233-.504.822-.757 1.86-.757 3.113v.256zm12.708 6.47v-11.011h-2.014v-2.197h2.014v-1.538c0-1.457.395-2.58 1.184-3.369.798-.79 1.913-1.184 3.345-1.184.285 0 .574.024.867.073.292.041.622.102.988.183l-.305 2.295a6.837 6.837 0 00-.549-.085 5.027 5.027 0 00-.635-.037c-.643 0-1.127.183-1.453.549-.317.366-.476.891-.476 1.575v1.538h2.686v2.197h-2.686V448h-2.966zm25.623-6.165c0 1.921-.452 3.471-1.355 4.651-.904 1.18-2.161 1.77-3.772 1.77-.749 0-1.412-.134-1.99-.402a4.097 4.097 0 01-1.489-1.185v6.409h-2.967v-18.286h2.503l.293 1.66c.423-.618.932-1.09 1.526-1.416.602-.325 1.298-.488 2.087-.488 1.628 0 2.893.647 3.796 1.941.912 1.286 1.368 2.982 1.368 5.09v.256zm-2.955-.256c0-1.351-.256-2.454-.769-3.308-.504-.863-1.261-1.294-2.27-1.294-.619 0-1.143.134-1.575.403a2.87 2.87 0 00-1.037 1.099v5.969c.26.464.606.822 1.037 1.074.432.244.965.366 1.599.366 1.009 0 1.762-.37 2.259-1.111.504-.748.756-1.729.756-2.942v-.256zm12.122-4.114l-1.269-.048c-.578 0-1.062.122-1.453.366a2.42 2.42 0 00-.891 1.037V448h-2.967v-13.208h2.71l.196 1.916c.333-.675.761-1.204 1.281-1.586a3.023 3.023 0 011.819-.574c.179 0 .346.016.501.049.154.024.297.057.427.097l-.354 2.771zM551.727 448h-2.966v-13.208h2.966V448zm0-16.443h-2.966v-2.6h2.966v2.6zm8.789 14.331c.724 0 1.335-.211 1.831-.635.497-.431.745-.968.745-1.611h2.685l.025.073c.04 1.237-.464 2.303-1.514 3.199-1.042.895-2.299 1.342-3.772 1.342-1.945 0-3.438-.626-4.48-1.88-1.033-1.253-1.55-2.84-1.55-4.76v-.428c0-1.912.517-3.495 1.55-4.748 1.042-1.261 2.535-1.892 4.48-1.892 1.587 0 2.873.464 3.858 1.391.992.92 1.473 2.092 1.44 3.516l-.024.073h-2.698c0-.724-.24-1.338-.72-1.843-.472-.504-1.091-.757-1.856-.757-1.115 0-1.904.407-2.368 1.221-.464.806-.696 1.819-.696 3.039v.428c0 1.245.232 2.27.696 3.076.464.797 1.253 1.196 2.368 1.196zm10.84 2.112h-2.966v-13.208h2.966V448zm0-16.443h-2.966v-2.6h2.966v2.6zm6.018 3.235l.171 1.904c.431-.675.972-1.2 1.623-1.574.66-.383 1.4-.574 2.222-.574 1.375 0 2.446.419 3.211 1.257.773.83 1.159 2.128 1.159 3.894V448h-2.966v-8.276c0-.993-.208-1.697-.623-2.112-.406-.423-1.029-.635-1.867-.635-.578 0-1.095.13-1.551.391-.455.252-.83.602-1.123 1.049V448h-2.966v-13.208h2.71zm10.938 6.787c0-2.1.459-3.796 1.379-5.09.92-1.294 2.197-1.941 3.833-1.941.789 0 1.481.171 2.075.513.602.333 1.111.817 1.526 1.452l.293-1.721h2.466V448c0 1.701-.525 3.015-1.575 3.943-1.05.928-2.539 1.391-4.468 1.391a8.645 8.645 0 01-2.087-.28 9.4 9.4 0 01-2.014-.721l.635-2.331a6.988 6.988 0 001.611.586c.594.146 1.204.22 1.831.22 1.074 0 1.859-.232 2.356-.696.496-.456.745-1.16.745-2.112v-1.355a4.208 4.208 0 01-1.478 1.209c-.561.268-1.208.402-1.94.402-1.62 0-2.889-.59-3.809-1.77-.92-1.18-1.379-2.73-1.379-4.651v-.256zm2.966.256c0 1.213.24 2.186.72 2.918.488.724 1.241 1.086 2.258 1.086.635 0 1.168-.13 1.599-.39.44-.269.794-.651 1.063-1.148v-5.786a3.104 3.104 0 00-1.075-1.123c-.431-.277-.952-.415-1.562-.415-1.017 0-1.774.427-2.271 1.282-.488.854-.732 1.961-.732 3.32v.256zM496.942 481v-17.773h5.908c1.97 0 3.508.406 4.614 1.22 1.107.806 1.661 2.014 1.661 3.626 0 .805-.232 1.526-.696 2.16-.464.635-1.107 1.107-1.929 1.416 1.058.236 1.872.745 2.441 1.526.57.782.855 1.689.855 2.722 0 1.669-.545 2.938-1.636 3.809-1.09.863-2.596 1.294-4.516 1.294h-6.702zm2.966-8.081v5.713h3.736c1.025 0 1.814-.232 2.368-.696.553-.472.83-1.151.83-2.039 0-.944-.232-1.676-.696-2.197-.464-.521-1.188-.781-2.173-.781h-4.065zm0-2.21h3.272c.919 0 1.644-.215 2.173-.647.537-.439.805-1.057.805-1.855 0-.879-.281-1.53-.842-1.953-.562-.431-1.384-.647-2.466-.647h-2.942v5.102zm12.122 3.565c0-1.961.537-3.573 1.611-4.834 1.091-1.261 2.568-1.892 4.431-1.892 1.896 0 3.382.631 4.456 1.892 1.082 1.253 1.623 2.865 1.623 4.834v.256c0 1.986-.541 3.605-1.623 4.859-1.074 1.245-2.551 1.867-4.431 1.867-1.888 0-3.374-.626-4.456-1.88-1.074-1.253-1.611-2.868-1.611-4.846v-.256zm2.966.256c0 1.286.252 2.336.757 3.15.496.805 1.278 1.208 2.344 1.208 1.033 0 1.806-.403 2.319-1.208.521-.814.781-1.864.781-3.15v-.256c0-1.261-.26-2.299-.781-3.113-.513-.822-1.294-1.233-2.344-1.233-1.033 0-1.806.411-2.319 1.233-.505.822-.757 1.86-.757 3.113v.256zm11.194-.256c0-1.961.537-3.573 1.611-4.834 1.091-1.261 2.568-1.892 4.431-1.892 1.897 0 3.382.631 4.456 1.892 1.082 1.253 1.624 2.865 1.624 4.834v.256c0 1.986-.542 3.605-1.624 4.859-1.074 1.245-2.551 1.867-4.431 1.867-1.888 0-3.373-.626-4.456-1.88-1.074-1.253-1.611-2.868-1.611-4.846v-.256zm2.966.256c0 1.286.253 2.336.757 3.15.497.805 1.278 1.208 2.344 1.208 1.033 0 1.806-.403 2.319-1.208.521-.814.781-1.864.781-3.15v-.256c0-1.261-.26-2.299-.781-3.113-.513-.822-1.294-1.233-2.344-1.233-1.033 0-1.806.411-2.319 1.233-.504.822-.757 1.86-.757 3.113v.256zm16.04.696h-1.33V481h-2.954v-19.043h2.954v10.889h1.233l3.332-5.054h3.491l-4.358 6.006 5.005 7.202h-3.442l-3.931-5.774zM557.147 481h-2.966v-13.208h2.966V481zm0-16.443h-2.966v-2.6h2.966v2.6zm6.018 3.235l.171 1.904c.431-.675.972-1.2 1.623-1.574.66-.383 1.4-.574 2.222-.574 1.376 0 2.446.419 3.211 1.257.773.83 1.159 2.128 1.159 3.894V481h-2.966v-8.276c0-.993-.208-1.697-.623-2.112-.406-.423-1.029-.635-1.867-.635-.578 0-1.095.13-1.551.391-.455.252-.83.602-1.123 1.049V481h-2.966v-13.208h2.71zm10.938 6.787c0-2.1.459-3.796 1.379-5.09.92-1.294 2.197-1.941 3.833-1.941.789 0 1.481.171 2.075.513.602.333 1.111.817 1.526 1.452l.293-1.721h2.466V481c0 1.701-.525 3.015-1.575 3.943-1.05.928-2.539 1.391-4.468 1.391a8.645 8.645 0 01-2.087-.28 9.4 9.4 0 01-2.014-.721l.635-2.331a6.988 6.988 0 001.611.586c.594.146 1.204.22 1.831.22 1.074 0 1.859-.232 2.356-.696.496-.456.745-1.16.745-2.112v-1.355a4.208 4.208 0 01-1.478 1.209c-.561.268-1.208.402-1.94.402-1.62 0-2.889-.59-3.809-1.77-.92-1.18-1.379-2.73-1.379-4.651v-.256zm2.966.256c0 1.213.24 2.186.72 2.918.488.724 1.241 1.086 2.258 1.086.635 0 1.168-.13 1.6-.39a2.966 2.966 0 001.062-1.148v-5.786a3.104 3.104 0 00-1.075-1.123c-.431-.277-.952-.415-1.562-.415-1.017 0-1.774.427-2.271 1.282-.488.854-.732 1.961-.732 3.32v.256zm-77.161 32.427V514h-2.966v-17.773h6.946c1.961 0 3.495.508 4.602 1.525 1.115 1.01 1.672 2.34 1.672 3.992 0 1.668-.557 3.007-1.672 4.016-1.107 1.001-2.641 1.502-4.602 1.502h-3.98zm0-2.381h3.98c1.098 0 1.924-.293 2.478-.879.553-.585.83-1.33.83-2.233 0-.904-.277-1.657-.83-2.259-.554-.602-1.38-.903-2.478-.903h-3.98v6.274zm15.503-4.089l.171 1.904c.431-.675.973-1.2 1.624-1.574.659-.383 1.399-.574 2.221-.574 1.376 0 2.446.419 3.211 1.257.773.83 1.159 2.128 1.159 3.894V514h-2.966v-8.276c0-.993-.207-1.697-.622-2.112-.407-.423-1.03-.635-1.868-.635a3.06 3.06 0 00-1.55.391 3.141 3.141 0 00-1.123 1.049V514h-2.967v-13.208h2.71zM530.047 514h-2.966v-19.043h2.966V514zm12.72 0h-2.966v-19.043h2.966V514zm6.494 0h-2.966v-13.208h2.966V514zm0-16.443h-2.966v-2.6h2.966v2.6zm14.929 10.278c0 1.929-.451 3.484-1.355 4.664-.895 1.171-2.16 1.757-3.796 1.757-.822 0-1.538-.166-2.148-.5-.603-.334-1.107-.822-1.514-1.465l-.293 1.709h-2.49v-19.043h2.966v7.336a4.258 4.258 0 011.465-1.293c.57-.302 1.233-.452 1.99-.452 1.652 0 2.925.643 3.82 1.929.904 1.285 1.355 2.986 1.355 5.102v.256zm-2.966-.256c0-1.375-.236-2.486-.708-3.332-.472-.847-1.221-1.27-2.246-1.27-.659 0-1.213.147-1.66.44-.44.292-.79.699-1.05 1.22v5.542c.252.529.602.94 1.05 1.233.447.285 1.009.427 1.684.427 1.026 0 1.77-.358 2.234-1.074.464-.724.696-1.701.696-2.93v-.256zm12.11-4.114l-1.27-.048c-.578 0-1.062.122-1.453.366-.382.244-.679.59-.891 1.037V514h-2.966v-13.208h2.71l.195 1.916c.334-.675.761-1.204 1.282-1.586a3.021 3.021 0 011.819-.574c.179 0 .346.016.5.049.155.024.297.057.428.097l-.354 2.771zM583.368 514a12.417 12.417 0 01-.269-.977 7.57 7.57 0 01-.134-.952 5.28 5.28 0 01-1.611 1.563c-.66.415-1.4.622-2.222.622-1.375 0-2.433-.354-3.174-1.062-.732-.708-1.099-1.68-1.099-2.917 0-1.278.505-2.271 1.514-2.979 1.009-.716 2.429-1.074 4.26-1.074h2.307v-1.16c0-.691-.203-1.232-.61-1.623s-.989-.586-1.746-.586c-.675 0-1.212.163-1.611.488a1.55 1.55 0 00-.598 1.258h-2.856l-.013-.074c-.057-1.041.407-1.965 1.392-2.771.993-.805 2.283-1.208 3.87-1.208 1.538 0 2.779.39 3.723 1.172.944.781 1.416 1.904 1.416 3.369v5.871c0 .546.036 1.071.11 1.575.073.497.191.985.354 1.465h-3.003zm-3.638-2.124c.749 0 1.42-.187 2.014-.562.602-.374 1.001-.801 1.196-1.281v-1.953h-2.356c-.862 0-1.538.215-2.026.647-.488.423-.732.923-.732 1.501 0 .505.162.907.488 1.209.334.292.806.439 1.416.439zm15.869-8.411l-1.269-.048c-.578 0-1.062.122-1.453.366a2.42 2.42 0 00-.891 1.037V514h-2.966v-13.208h2.71l.195 1.916c.333-.675.761-1.204 1.282-1.586a3.02 3.02 0 011.818-.574c.179 0 .346.016.501.049.155.024.297.057.427.097l-.354 2.771zm6.738 5.237l.293 1.319h.074l2.893-9.229h3.247l-5.469 15.21c-.35.92-.842 1.705-1.477 2.356-.635.651-1.534.976-2.698.976-.244 0-.508-.024-.793-.073a11.93 11.93 0 01-.806-.171l.33-2.295.451.037c.196.016.342.024.44.024.537 0 .964-.183 1.282-.549.325-.366.59-.789.793-1.269l.488-1.197-4.797-13.049h3.235l2.514 7.91z" fill="#fff"/><path d="M482 411a4 4 0 100-8 4 4 0 000 8zM264 411a4 4 0 100-8 4 4 0 000 8zM56 411a4 4 0 100-8 4 4 0 000 8zM482 510a4 4 0 100-8 4 4 0 000 8zM264 445a4 4 0 100-8 4 4 0 000 8zM56 445a4 4 0 100-8 4 4 0 000 8zM482 476a4 4 0 100-8 4 4 0 000 8zM56 476a4 4 0 100-8 4 4 0 000 8zM56 507a4 4 0 100-8 4 4 0 000 8z" fill="#6D7693"/><path d="M281.908 412.632h8.167V415h-11.133v-17.773h2.966v15.405zM295.251 415h-2.967v-13.208h2.967V415zm0-16.443h-2.967v-2.6h2.967v2.6zM299.547 415v-11.011h-2.014v-2.197h2.014v-1.538c0-1.457.395-2.58 1.184-3.369.798-.79 1.913-1.184 3.345-1.184.285 0 .574.024.867.073.293.041.622.102.989.183l-.306 2.295a6.698 6.698 0 00-.549-.085 5.016 5.016 0 00-.635-.037c-.642 0-1.127.183-1.452.549-.318.366-.476.891-.476 1.575v1.538h2.685v2.197h-2.685V415h-2.967zm13.489.256c-1.872 0-3.365-.61-4.48-1.831-1.107-1.229-1.66-2.803-1.66-4.724v-.488c0-1.921.549-3.512 1.648-4.773 1.107-1.27 2.49-1.9 4.15-1.892 1.783 0 3.146.541 4.09 1.623.952 1.075 1.428 2.519 1.428 4.334v1.745h-8.24l-.024.062c.049 1.049.354 1.908.915 2.575.57.668 1.355 1.001 2.356 1.001.798 0 1.481-.097 2.051-.293a6.71 6.71 0 001.648-.842l.952 1.941c-.496.439-1.155.81-1.977 1.111-.822.301-1.774.451-2.857.451zm-.342-11.328c-.732 0-1.334.293-1.806.879-.472.578-.765 1.314-.879 2.21l.024.061h5.237v-.306c0-.838-.216-1.521-.647-2.05-.423-.529-1.066-.794-1.929-.794zm13.367 8.96c.724 0 1.335-.211 1.831-.635.497-.431.745-.968.745-1.611h2.685l.025.073c.04 1.237-.464 2.303-1.514 3.199-1.042.895-2.299 1.342-3.772 1.342-1.945 0-3.438-.626-4.48-1.88-1.033-1.253-1.55-2.84-1.55-4.76v-.428c0-1.912.517-3.495 1.55-4.748 1.042-1.261 2.535-1.892 4.48-1.892 1.587 0 2.873.464 3.857 1.391.993.92 1.473 2.092 1.441 3.516l-.025.073h-2.697c0-.724-.24-1.338-.72-1.843-.472-.504-1.091-.757-1.856-.757-1.115 0-1.904.407-2.368 1.221-.464.806-.696 1.819-.696 3.039v.428c0 1.245.232 2.27.696 3.076.464.797 1.253 1.196 2.368 1.196zm12.061-3.186l.293 1.319h.073l2.893-9.229h3.247l-5.469 15.21c-.35.92-.842 1.705-1.477 2.356-.635.651-1.534.976-2.698.976-.244 0-.508-.024-.793-.073a11.93 11.93 0 01-.806-.171l.33-2.295.452.037c.195.016.341.024.439.024.537 0 .964-.183 1.282-.549.325-.366.59-.789.793-1.269l.488-1.197-4.797-13.049h3.235l2.515 7.91zm13.574 3.186c.724 0 1.334-.211 1.831-.635.496-.431.745-.968.745-1.611h2.685l.024.073c.041 1.237-.463 2.303-1.513 3.199-1.042.895-2.299 1.342-3.772 1.342-1.945 0-3.438-.626-4.48-1.88-1.034-1.253-1.55-2.84-1.55-4.76v-.428c0-1.912.516-3.495 1.55-4.748 1.042-1.261 2.535-1.892 4.48-1.892 1.587 0 2.873.464 3.857 1.391.993.92 1.473 2.092 1.441 3.516l-.025.073h-2.697c0-.724-.241-1.338-.721-1.843-.472-.504-1.09-.757-1.855-.757-1.115 0-1.904.407-2.368 1.221-.464.806-.696 1.819-.696 3.039v.428c0 1.245.232 2.27.696 3.076.464.797 1.253 1.196 2.368 1.196zm10.84 2.112h-2.967v-19.043h2.967V415zm8.996.256c-1.871 0-3.365-.61-4.48-1.831-1.107-1.229-1.66-2.803-1.66-4.724v-.488c0-1.921.549-3.512 1.648-4.773 1.107-1.27 2.49-1.9 4.15-1.892 1.783 0 3.146.541 4.09 1.623.952 1.075 1.428 2.519 1.428 4.334v1.745h-8.24l-.024.062c.049 1.049.354 1.908.915 2.575.57.668 1.355 1.001 2.356 1.001.798 0 1.481-.097 2.051-.293a6.71 6.71 0 001.648-.842l.952 1.941c-.496.439-1.155.81-1.977 1.111-.822.301-1.774.451-2.857.451zm-.342-11.328c-.732 0-1.334.293-1.806.879-.472.578-.765 1.314-.879 2.21l.024.061h5.237v-.306c0-.838-.216-1.521-.647-2.05-.423-.529-1.066-.794-1.929-.794zm-82.617 39.507c0-.741-.276-1.347-.83-1.819-.545-.472-1.513-.895-2.905-1.27-1.986-.521-3.516-1.208-4.59-2.063-1.066-.862-1.599-1.99-1.599-3.381 0-1.432.59-2.612 1.77-3.54 1.188-.928 2.718-1.392 4.59-1.392 1.953 0 3.52.525 4.7 1.575 1.188 1.05 1.761 2.311 1.721 3.784l-.025.073h-2.844c0-.911-.309-1.648-.928-2.209-.618-.57-1.501-.855-2.649-.855-1.082 0-1.916.236-2.502.708-.578.472-.867 1.083-.867 1.831 0 .676.314 1.237.94 1.685.635.448 1.681.871 3.137 1.27 1.913.512 3.365 1.22 4.358 2.124.993.903 1.49 2.054 1.49 3.454 0 1.481-.595 2.661-1.783 3.54-1.18.871-2.734 1.306-4.663 1.306-1.855 0-3.483-.488-4.883-1.464-1.399-.985-2.079-2.332-2.038-4.041l.024-.073h2.857c0 1.082.374 1.892 1.123 2.429.748.529 1.721.793 2.917.793 1.099 0 1.953-.219 2.564-.659.61-.447.915-1.05.915-1.806zm11.377 4.821c-1.872 0-3.365-.61-4.48-1.831-1.107-1.229-1.66-2.803-1.66-4.724v-.488c0-1.921.549-3.512 1.648-4.773 1.107-1.27 2.49-1.9 4.15-1.892 1.783 0 3.146.541 4.09 1.623.952 1.075 1.428 2.519 1.428 4.334v1.745h-8.24l-.024.062c.049 1.049.354 1.908.915 2.575.57.668 1.355 1.001 2.356 1.001.798 0 1.481-.097 2.051-.293a6.71 6.71 0 001.648-.842l.952 1.941c-.496.439-1.155.81-1.977 1.111-.822.301-1.774.451-2.857.451zm-.342-11.328c-.732 0-1.334.293-1.806.879-.472.578-.765 1.314-.879 2.21l.024.061h5.237v-.306c0-.838-.216-1.521-.647-2.05-.423-.529-1.066-.794-1.929-.794zm11.597-5.346v3.21h2.368v2.197h-2.368v7.3c0 .545.118.936.354 1.172.236.228.549.342.94.342.163 0 .321-.012.476-.037.155-.032.301-.073.44-.122l.317 2.173a3.263 3.263 0 01-.903.317c-.35.082-.712.122-1.087.122-1.09 0-1.945-.317-2.563-.952-.619-.643-.928-1.648-.928-3.015v-7.3h-2.014v-2.197h2.014v-3.21h2.954zm8.692 0v3.21h2.368v2.197h-2.368v7.3c0 .545.118.936.354 1.172.236.228.549.342.939.342.163 0 .322-.012.477-.037.154-.032.301-.073.439-.122l.317 2.173a3.263 3.263 0 01-.903.317c-.35.082-.712.122-1.086.122-1.091 0-1.945-.317-2.564-.952-.618-.643-.928-1.648-.928-3.015v-7.3h-2.014v-2.197h2.014v-3.21h2.955zM328.063 448h-2.966v-19.043h2.966V448zm8.997.256c-1.872 0-3.365-.61-4.48-1.831-1.107-1.229-1.661-2.803-1.661-4.724v-.488c0-1.921.55-3.512 1.648-4.773 1.107-1.27 2.491-1.9 4.151-1.892 1.782 0 3.145.541 4.089 1.623.952 1.075 1.428 2.519 1.428 4.334v1.745h-8.239l-.025.062c.049 1.049.354 1.908.916 2.575.569.668 1.355 1.001 2.356 1.001.797 0 1.481-.097 2.05-.293a6.71 6.71 0 001.648-.842l.953 1.941c-.497.439-1.156.81-1.978 1.111-.822.301-1.774.451-2.856.451zm-.342-11.328c-.733 0-1.335.293-1.807.879-.472.578-.765 1.314-.879 2.21l.025.061h5.236v-.306c0-.838-.215-1.521-.646-2.05-.424-.529-1.067-.794-1.929-.794zm10.62-2.136l.159 1.721a4.47 4.47 0 011.623-1.452c.651-.342 1.404-.513 2.258-.513.863 0 1.604.195 2.222.586.619.39 1.082.976 1.392 1.758a4.628 4.628 0 011.611-1.722c.667-.415 1.449-.622 2.344-.622 1.326 0 2.372.456 3.137 1.367.773.903 1.16 2.279 1.16 4.126V448h-2.967v-7.971c0-1.123-.195-1.913-.586-2.368-.382-.456-.96-.684-1.733-.684-.635 0-1.172.171-1.611.513-.44.342-.757.801-.952 1.379 0 .122.004.228.012.318.008.089.012.174.012.256V448h-2.966v-7.971c0-1.083-.2-1.86-.598-2.332-.391-.48-.969-.72-1.734-.72-.602 0-1.115.118-1.538.354a2.53 2.53 0 00-.989.977V448h-2.966v-13.208h2.71zm24.707 13.464c-1.872 0-3.365-.61-4.48-1.831-1.107-1.229-1.66-2.803-1.66-4.724v-.488c0-1.921.549-3.512 1.648-4.773 1.107-1.27 2.49-1.9 4.15-1.892 1.782 0 3.145.541 4.09 1.623.952 1.075 1.428 2.519 1.428 4.334v1.745h-8.24l-.024.062c.048 1.049.354 1.908.915 2.575.57.668 1.355 1.001 2.356 1.001.798 0 1.481-.097 2.051-.293a6.727 6.727 0 001.648-.842l.952 1.941c-.496.439-1.156.81-1.978 1.111-.822.301-1.774.451-2.856.451zm-.342-11.328c-.732 0-1.334.293-1.806.879-.472.578-.765 1.314-.879 2.21l.024.061h5.237v-.306c0-.838-.216-1.521-.647-2.05-.423-.529-1.066-.794-1.929-.794zm10.596-2.136l.171 1.904c.431-.675.972-1.2 1.623-1.574.659-.383 1.4-.574 2.222-.574 1.375 0 2.445.419 3.21 1.257.774.83 1.16 2.128 1.16 3.894V448h-2.966v-8.276c0-.993-.208-1.697-.623-2.112-.407-.423-1.029-.635-1.867-.635-.578 0-1.095.13-1.551.391-.455.252-.83.602-1.123 1.049V448h-2.966v-13.208h2.71zm15.161-3.21v3.21h2.368v2.197h-2.368v7.3c0 .545.118.936.354 1.172.236.228.549.342.94.342.163 0 .321-.012.476-.037.155-.032.301-.073.439-.122l.318 2.173a3.274 3.274 0 01-.903.317c-.35.082-.713.122-1.087.122-1.09 0-1.945-.317-2.563-.952-.619-.643-.928-1.648-.928-3.015v-7.3h-2.014v-2.197h2.014v-3.21h2.954zm10.425 11.621c0-.977.276-1.823.83-2.539.553-.725 1.383-1.453 2.49-2.185-.594-.774-1.037-1.473-1.33-2.1a4.486 4.486 0 01-.44-1.917c0-1.391.419-2.486 1.257-3.283.839-.806 1.97-1.209 3.394-1.209 1.294 0 2.344.391 3.149 1.172.814.773 1.221 1.709 1.221 2.808 0 .797-.212 1.509-.635 2.136-.415.618-1.005 1.208-1.77 1.77l-1.22.879 3.723 4.419a6.593 6.593 0 00.757-1.685c.187-.61.28-1.257.28-1.941h2.405c0 1.115-.15 2.141-.452 3.076a7.36 7.36 0 01-1.342 2.503l2.392 2.832-.024.061h-3.345l-.989-1.16a7.998 7.998 0 01-2.148 1.062 8.037 8.037 0 01-2.405.354c-1.766 0-3.174-.468-4.224-1.403-1.049-.936-1.574-2.153-1.574-3.65zm5.884 2.685a5.26 5.26 0 001.501-.22 5.546 5.546 0 001.416-.647l-4.004-4.724-.366.269c-.586.456-.977.895-1.172 1.318-.195.423-.293.83-.293 1.221 0 .814.256 1.481.769 2.002.513.521 1.229.781 2.149.781zm-1.551-11.462c0 .39.098.793.293 1.208.204.415.501.875.891 1.38l1.392-.928c.464-.301.773-.614.928-.94.162-.334.244-.7.244-1.099 0-.439-.175-.83-.525-1.172-.342-.349-.794-.524-1.355-.524-.602 0-1.066.199-1.392.598-.317.398-.476.891-.476 1.477zM286.51 481a12.4 12.4 0 01-.268-.977 7.761 7.761 0 01-.135-.952 5.268 5.268 0 01-1.611 1.563c-.659.415-1.4.622-2.222.622-1.375 0-2.433-.354-3.173-1.062-.733-.708-1.099-1.68-1.099-2.917 0-1.278.505-2.271 1.514-2.979 1.009-.716 2.429-1.074 4.26-1.074h2.307v-1.16c0-.691-.203-1.232-.61-1.623s-.989-.586-1.746-.586c-.675 0-1.212.163-1.611.488a1.55 1.55 0 00-.598 1.258h-2.857l-.012-.074c-.057-1.041.407-1.965 1.392-2.771.992-.805 2.282-1.208 3.869-1.208 1.538 0 2.779.39 3.723 1.172.944.781 1.416 1.904 1.416 3.369v5.871c0 .546.037 1.071.11 1.575.073.497.191.985.354 1.465h-3.003zm-3.637-2.124c.748 0 1.42-.187 2.014-.562.602-.374 1.001-.801 1.196-1.281v-1.953h-2.356c-.863 0-1.538.215-2.026.647-.489.423-.733.923-.733 1.501 0 .505.163.907.489 1.209.333.292.805.439 1.416.439zm14.746.012c.724 0 1.334-.211 1.831-.635.496-.431.744-.968.744-1.611h2.686l.024.073c.041 1.237-.464 2.303-1.513 3.199-1.042.895-2.299 1.342-3.772 1.342-1.945 0-3.439-.626-4.48-1.88-1.034-1.253-1.551-2.84-1.551-4.76v-.428c0-1.912.517-3.495 1.551-4.748 1.041-1.261 2.535-1.892 4.48-1.892 1.587 0 2.872.464 3.857 1.391.993.92 1.473 2.092 1.441 3.516l-.025.073h-2.698c0-.724-.24-1.338-.72-1.843-.472-.504-1.09-.757-1.855-.757-1.115 0-1.905.407-2.368 1.221-.464.806-.696 1.819-.696 3.039v.428c0 1.245.232 2.27.696 3.076.463.797 1.253 1.196 2.368 1.196zm13.134 0c.725 0 1.335-.211 1.831-.635.497-.431.745-.968.745-1.611h2.686l.024.073c.041 1.237-.464 2.303-1.514 3.199-1.041.895-2.299 1.342-3.772 1.342-1.945 0-3.438-.626-4.48-1.88-1.033-1.253-1.55-2.84-1.55-4.76v-.428c0-1.912.517-3.495 1.55-4.748 1.042-1.261 2.535-1.892 4.48-1.892 1.587 0 2.873.464 3.858 1.391.993.92 1.473 2.092 1.44 3.516l-.024.073h-2.698c0-.724-.24-1.338-.72-1.843-.472-.504-1.091-.757-1.856-.757-1.114 0-1.904.407-2.368 1.221-.464.806-.696 1.819-.696 3.039v.428c0 1.245.232 2.27.696 3.076.464.797 1.254 1.196 2.368 1.196zm7.129-4.614c0-1.961.537-3.573 1.612-4.834 1.09-1.261 2.567-1.892 4.431-1.892 1.896 0 3.381.631 4.455 1.892 1.083 1.253 1.624 2.865 1.624 4.834v.256c0 1.986-.541 3.605-1.624 4.859-1.074 1.245-2.551 1.867-4.431 1.867-1.888 0-3.373-.626-4.455-1.88-1.075-1.253-1.612-2.868-1.612-4.846v-.256zm2.967.256c0 1.286.252 2.336.756 3.15.497.805 1.278 1.208 2.344 1.208 1.034 0 1.807-.403 2.32-1.208.52-.814.781-1.864.781-3.15v-.256c0-1.261-.261-2.299-.781-3.113-.513-.822-1.294-1.233-2.344-1.233-1.034 0-1.807.411-2.32 1.233-.504.822-.756 1.86-.756 3.113v.256zm19.97 4.541c-.415.7-.94 1.241-1.574 1.624-.635.374-1.368.561-2.198.561-1.416 0-2.522-.451-3.32-1.355-.797-.903-1.196-2.307-1.196-4.211v-7.898h2.954v7.922c0 1.156.187 1.966.561 2.43.375.463.94.695 1.697.695.716 0 1.314-.126 1.795-.378.488-.26.87-.635 1.147-1.123v-9.546h2.966V481h-2.588l-.244-1.929zm8.619-11.279l.17 1.904c.432-.675.973-1.2 1.624-1.574.659-.383 1.4-.574 2.222-.574 1.375 0 2.445.419 3.21 1.257.773.83 1.16 2.128 1.16 3.894V481h-2.967v-8.276c0-.993-.207-1.697-.622-2.112-.407-.423-1.03-.635-1.868-.635-.578 0-1.094.13-1.55.391a3.15 3.15 0 00-1.123 1.049V481h-2.966v-13.208h2.71zm15.161-3.21v3.21h2.368v2.197h-2.368v7.3c0 .545.118.936.354 1.172.236.228.549.342.94.342.162 0 .321-.012.476-.037.154-.032.301-.073.439-.122l.318 2.173a3.282 3.282 0 01-.904.317c-.35.082-.712.122-1.086.122-1.091 0-1.945-.317-2.564-.952-.618-.643-.927-1.648-.927-3.015v-7.3h-2.015v-2.197h2.015v-3.21h2.954zM372.765 481h-2.966v-13.208h2.966V481zm0-16.443h-2.966v-2.6h2.966v2.6zm6.018 3.235l.171 1.904c.431-.675.973-1.2 1.624-1.574.659-.383 1.399-.574 2.221-.574 1.376 0 2.446.419 3.211 1.257.773.83 1.159 2.128 1.159 3.894V481h-2.966v-8.276c0-.993-.207-1.697-.622-2.112-.407-.423-1.03-.635-1.868-.635a3.06 3.06 0 00-1.55.391 3.15 3.15 0 00-1.123 1.049V481h-2.967v-13.208h2.71zm10.938 6.787c0-2.1.46-3.796 1.379-5.09.92-1.294 2.197-1.941 3.833-1.941.79 0 1.481.171 2.075.513.603.333 1.111.817 1.526 1.452l.293-1.721h2.466V481c0 1.701-.525 3.015-1.575 3.943-1.05.928-2.539 1.391-4.467 1.391a8.652 8.652 0 01-2.088-.28 9.419 9.419 0 01-2.014-.721l.635-2.331a6.988 6.988 0 001.611.586c.594.146 1.204.22 1.831.22 1.074 0 1.86-.232 2.356-.696.496-.456.745-1.16.745-2.112v-1.355a4.205 4.205 0 01-1.477 1.209c-.562.268-1.209.402-1.941.402-1.62 0-2.889-.59-3.809-1.77-.919-1.18-1.379-2.73-1.379-4.651v-.256zm2.966.256c0 1.213.24 2.186.72 2.918.489.724 1.241 1.086 2.259 1.086.634 0 1.167-.13 1.599-.39a2.966 2.966 0 001.062-1.148v-5.786a3.104 3.104 0 00-1.075-1.123c-.431-.277-.952-.415-1.562-.415-1.017 0-1.774.427-2.271 1.282-.488.854-.732 1.961-.732 3.32v.256z" fill="#fff"/><path d="M56 322h428M483 323v54M265 323v54M338 243v80M57 323v54" stroke="#626A84" stroke-width="2"/></svg>