<?xml version="1.0" encoding="utf-8"?><svg width="566" height="524" fill="none" xmlns="http://www.w3.org/2000/svg" viewBox="0 0 566 524"><g clip-path="url(#iclip0)"><path d="M186.715 110.614l39.047 28.895-1.775-1.418-39.047-28.895 1.775 1.418z" fill="#131A80"/><path d="M187.425 108.133a72.226 72.226 0 0010.294-5.673c3.373-2.304 6.39-4.786 9.23-7.622 2.839-2.836 5.502-6.027 7.986-9.395 2.308-3.368 4.438-6.913 6.212-10.636 2.485-5.14 4.083-10.282 4.97-15.422.887-4.964 1.065-9.927.532-14.536-.532-4.61-1.597-8.863-3.549-12.586a33.386 33.386 0 00-7.277-9.927l36.384 34.035c2.84 2.66 5.325 5.85 7.1 9.572a39.45 39.45 0 013.549 12.055c.533 4.431.355 9.04-.355 13.65-.887 4.785-2.307 9.572-4.614 14.535a57.631 57.631 0 01-5.857 10.104c-2.307 3.191-4.792 6.027-7.455 8.686-2.662 2.659-5.679 5.141-8.696 7.091-3.195 2.127-6.39 3.9-9.762 5.318l-2.485 1.064-39.046-28.895 2.839-1.418z" fill="url(#ipaint0_linear)"/><path d="M125.661 239.843l43.662 20.917c-.71-.355-1.243-.709-1.775-1.064-.533-.354-1.065-.709-1.597-1.24-.533-.355-.888-.887-1.42-1.419-.355-.531-.888-1.063-1.243-1.595-.887-1.418-1.597-3.014-1.952-4.786-.355-1.773-.355-3.723-.178-5.85.178-2.127.71-4.432 1.42-6.913.71-2.482 1.775-5.141 3.195-7.977a48.354 48.354 0 014.082-7.446c1.42-2.127 2.84-4.077 4.437-5.672 1.598-1.596 3.018-2.836 4.792-3.723 1.598-.886 3.373-1.595 4.97-1.95.71-.177 1.42-.177 2.13-.177h2.13c.71 0 1.42.177 2.129.355.71.177 1.42.354 2.13.709.178 0 .355.177.533.177.177 0 .355.177.532.177.178 0 .355.177.533.355.177.177.355.177.532.354l-41.709-24.108c-.177-.177-.355-.177-.532-.354-.178-.178-.355-.178-.533-.355-.177-.177-.355-.177-.532-.177-.178 0-.355-.178-.533-.178-.71-.354-1.42-.531-2.13-.709-.709-.177-1.419-.354-2.307-.354h-2.307c-.71 0-1.597.177-2.307.354-1.775.355-3.55 1.064-5.325 2.128a20.929 20.929 0 00-4.97 4.077c-1.597 1.595-3.194 3.722-4.614 6.027-1.598 2.304-3.017 4.963-4.437 7.977-1.42 3.013-2.485 5.85-3.373 8.509-.887 2.659-1.419 5.14-1.597 7.267-.177 2.305-.177 4.432.178 6.205.355 1.95.887 3.545 1.952 5.141.355.531.71 1.24 1.242 1.772a5.395 5.395 0 001.42 1.418c.533.532 1.065.887 1.598 1.241.532.177 1.064.532 1.774.887z" fill="url(#ipaint1_linear)"/><path d="M164.709 211.479l41.531 23.045c-.887-.532-1.597-1.064-2.13-1.773l-1.597-2.127c-.355-.886-.887-1.595-1.242-2.482-.355-.886-.71-1.772-.888-2.659-.177-.531-.355-1.24-.532-1.772l-.533-1.596c-.177-.531-.355-1.063-.71-1.418-.177-.354-.532-.886-.71-1.241-.355-.354-.71-.886-1.064-1.241l-1.065-1.063c-.355-.355-.71-.709-1.243-.886-.355-.355-.887-.532-1.242-.887l-41.709-23.931c.532.178.887.532 1.242.887.355.354.888.709 1.243 1.063l1.065 1.064c.355.354.71.886 1.064 1.241.355.354.533.709.71 1.241.178.531.533.886.71 1.418.178.531.355 1.063.533 1.772.177.532.355 1.241.532 1.773.355.886.533 1.95.888 2.836.355.887.71 1.773 1.242 2.659.533.887.888 1.596 1.597 2.305.71.709 1.42 1.418 2.308 1.772z" fill="url(#ipaint2_linear)"/><path d="M169.499 208.643c.887-.354 1.775-1.241 2.839-2.482a35.945 35.945 0 003.018-4.963c1.065-2.127 2.307-4.786 3.904-7.977l18.281-38.999c.355-.886.888-1.95 1.42-2.836.533-.886.888-1.773 1.42-2.836l1.597-2.659 1.598-2.659c-.355-3.368-1.065-6.736-1.953-9.75-.887-3.191-2.129-6.027-3.549-8.863-1.42-2.659-3.017-5.318-4.97-7.623a34.29 34.29 0 00-6.212-6.204l39.047 28.894c2.13 1.773 4.26 3.723 6.034 6.027 1.775 2.305 3.373 4.609 4.793 7.268 1.419 2.659 2.484 5.496 3.549 8.332.888 3.013 1.598 6.027 1.953 9.218-.533.886-1.065 1.595-1.598 2.482-.532.886-.887 1.772-1.42 2.481-.532.887-.887 1.773-1.42 2.659-.355.887-.887 1.773-1.242 2.659l-16.861 36.517c-1.42 3.014-2.485 5.495-3.55 7.445-1.065 1.95-1.952 3.546-2.839 4.787-.888 1.24-1.775 1.95-2.663 2.304-.887.355-1.775.355-3.017 0l-41.354-23.222c1.242.532 2.307.355 3.195 0z" fill="url(#ipaint3_linear)"/><path d="M127.081 236.829l43.484 21.095h.71c.532.177 1.242.532 1.952.709.71.177 1.243.354 1.953.354.71.178 1.419.178 2.129.178h2.13c.533 0 .888-.178 1.42-.355l1.597-.532c.533-.177 1.065-.354 1.598-.709.532-.177 1.065-.532 1.775-.709 1.065-.354 1.952-.886 3.017-1.241 1.065-.354 1.952-.709 3.017-.886.888-.177 1.953-.355 2.84-.355.887 0 1.775.178 2.662.532l-42.241-21.626c-.888-.355-1.775-.532-2.84-.532-.887 0-1.952.177-3.017.354-1.065.355-2.13.71-3.018 1.064-1.064.355-2.129.886-3.194 1.418-.71.355-1.243.532-1.775.887-.533.177-1.243.531-1.775.709l-1.597.531c-.533.178-1.065.178-1.598.355-.71 0-1.597.177-2.307.177s-1.42 0-2.13-.177-1.42-.177-2.13-.355c-.71-.177-1.42-.354-1.952-.709h-.178-.177c-.177 0-.177 0-.355-.177z" fill="url(#ipaint4_linear)"/><path d="M149.621 256.15a130.275 130.275 0 003.727-8.154c.888-2.305 1.597-4.077 1.952-5.495.355-1.418.355-2.659.178-3.546-.178-.886-.887-1.595-1.775-2.127l42.419 21.449c.887.532 1.42 1.241 1.597 1.95.178.887.178 1.95-.177 3.368-.355 1.419-.888 3.014-1.775 5.141a178.557 178.557 0 01-3.372 7.623l-40.112 86.506-46.323-14.182 43.661-92.533z" fill="url(#ipaint5_linear)"/><path d="M202.513 14.714c-5.502-1.418-11.537-1.596-17.394-.355-5.857 1.064-11.714 3.368-17.393 6.559-5.502 3.19-10.827 7.445-15.442 12.409-4.614 4.963-8.696 10.813-11.714 17.195-1.775 3.545-3.017 7.09-4.082 10.636-1.065 3.545-1.597 7.09-1.952 10.635-.355 3.546-.178 6.914.177 10.282.355 3.368 1.243 6.559 2.485 9.572l.888 2.127h-2.485c-5.857.178-11.714 1.419-17.571 3.546-5.68 2.127-11.359 5.318-16.684 9.218-5.325 3.9-10.117 8.509-14.554 13.827-4.437 5.318-8.164 11.167-11.359 17.549L-.176 293.199l106.137 55.662 43.484-92.533a130.861 130.861 0 003.727-8.154c.887-2.305 1.597-4.077 1.952-5.496.355-1.418.355-2.659.178-3.545-.178-.886-.888-1.595-1.775-2.127-.71-.355-1.598-.532-2.485-.532-.887 0-1.775.177-2.662.355-.888.177-1.775.531-2.663.886-.887.355-1.774.709-2.839 1.241-.71.354-1.243.532-1.953.886a8.62 8.62 0 01-1.952.709c-.71.178-1.242.532-1.952.532-.533.177-1.243.355-1.775.355-.888.177-1.775.177-2.485.177-.887 0-1.597 0-2.485-.177-.887-.178-1.597-.355-2.307-.532-.71-.177-1.42-.532-2.13-.709-.71-.355-1.42-.709-1.952-1.064-.71-.354-1.243-.886-1.775-1.241l-1.598-1.595c-.532-.532-.887-1.241-1.242-1.773-.887-1.595-1.597-3.191-1.952-5.141-.355-1.949-.355-3.899-.178-6.204.178-2.304.888-4.786 1.598-7.268.887-2.659 1.952-5.495 3.372-8.509 1.42-3.013 2.84-5.672 4.437-7.977 1.597-2.304 3.017-4.431 4.615-6.027a20.954 20.954 0 014.969-4.077c1.775-1.063 3.55-1.772 5.325-2.127.71-.177 1.597-.177 2.307-.355h2.307c.71 0 1.42.178 2.308.355.71.177 1.42.355 2.129.709.71.355 1.42.532 2.13 1.064.71.354 1.42.886 1.953 1.241.71.531 1.242 1.063 1.774 1.595.533.532 1.065 1.241 1.598 1.773.355.354.71.886.887 1.418.355.532.533 1.063.71 1.772.178.532.533 1.241.71 1.773.178.709.355 1.241.71 1.95.355.886.533 1.773.888 2.659.355.886.709 1.773 1.064 2.482.355.709.888 1.418 1.243 1.95.532.531 1.065 1.063 1.775 1.241 1.242.354 2.13.354 3.017-.178.887-.354 1.775-1.241 2.84-2.481a36.132 36.132 0 003.017-4.964c1.065-2.127 2.307-4.786 3.905-7.977l18.281-38.999a21.09 21.09 0 011.42-2.836c.532-.886.887-1.773 1.419-2.836l1.598-2.659 1.597-2.659c-.355-3.368-1.065-6.736-1.952-9.75-.888-3.191-2.13-6.027-3.55-8.863-1.42-2.659-3.017-5.318-4.969-7.623a34.323 34.323 0 00-6.212-6.204l-1.775-1.418 2.662-1.064a72.374 72.374 0 0010.294-5.672c3.372-2.305 6.39-4.786 9.229-7.623 2.84-2.836 5.502-6.027 7.987-9.395 2.307-3.368 4.437-6.913 6.212-10.636a63.338 63.338 0 005.68-20.03c.532-6.382 0-12.587-1.775-18.082-1.775-5.495-4.615-10.104-8.342-13.827-3.55-4.254-8.342-6.913-14.021-8.331z" fill="url(#ipaint6_linear)"/><path d="M148.205 255.442c1.597-3.368 2.839-6.027 3.727-8.154a34.801 34.801 0 001.952-5.318c.355-1.241.355-2.128.178-2.837-.178-.354-.355-.709-1.065-1.241-.533-.177-1.065-.354-1.775-.354s-1.42.177-2.307.354c-.71.178-1.598.532-2.485.887-.888.354-1.775.709-2.662 1.241-.71.354-1.42.531-1.953.886-.71.355-1.42.532-1.952.886-.71.178-1.42.532-1.952.709-.71.178-1.42.355-1.953.355-.887 0-1.597.177-2.307.177h-.355c-.888 0-1.775 0-2.662-.177a57.627 57.627 0 01-2.485-.532c-.888-.177-1.598-.532-2.485-.886-.71-.355-1.597-.709-2.13-1.241a7.875 7.875 0 01-1.952-1.418c-.533-.532-1.242-1.064-1.775-1.773a7.89 7.89 0 01-1.42-1.95c-1.065-1.595-1.775-3.545-2.13-5.672-.355-1.95-.355-4.255-.177-6.559.355-2.305.887-4.964 1.775-7.623.887-2.659 1.952-5.495 3.549-8.686a84.727 84.727 0 014.438-8.154c1.597-2.482 3.194-4.432 4.792-6.204 1.774-1.773 3.549-3.191 5.324-4.255 1.775-1.063 3.727-1.95 5.68-2.304.887-.177 1.597-.355 2.485-.355h2.484c.888 0 1.598.178 2.485.355.71.177 1.597.354 2.307.709.71.354 1.598.709 2.308 1.064.71.354 1.42.886 2.13 1.418.709.531 1.419 1.063 1.952 1.772.532.532 1.242 1.241 1.775 1.95l1.065 1.596c.355.531.532 1.24.887 1.772.178.709.533 1.241.71 1.95.177.532.71 1.95.71 1.95.355.886.532 1.773.887 2.659.355.886.71 1.596.888 2.305.355.709.71 1.24 1.065 1.772.355.355.71.709 1.242.887.178 0 .533.177.888.177.354 0 .709 0 1.064-.177.71-.355 1.42-.887 2.13-1.95.888-1.064 1.775-2.659 2.84-4.787 1.065-2.304 2.485-4.963 3.905-7.977l18.281-38.998c.532-.886.887-1.95 1.42-2.836.532-.887.887-1.95 1.419-2.837.533-.886 1.065-1.772 1.598-2.836.532-.709.887-1.595 1.42-2.304-.355-3.191-1.065-6.205-1.953-9.041-.887-3.014-2.13-5.85-3.372-8.509a53.345 53.345 0 00-4.792-7.445c-1.775-2.304-3.905-4.254-6.034-6.027l-3.728-3.014 4.792-2.127a52.294 52.294 0 0010.117-5.672c3.195-2.128 6.212-4.787 9.052-7.623 2.84-2.836 5.502-5.85 7.809-9.218 2.307-3.368 4.437-6.913 6.212-10.458 3.017-6.56 4.97-13.118 5.502-19.677.533-6.204 0-12.054-1.775-17.372s-4.437-9.75-7.987-13.295c-3.727-3.723-8.341-6.204-13.488-7.622-2.84-.71-5.857-1.064-9.052-1.064-2.485 0-5.147.177-7.809.709-5.68 1.063-11.359 3.19-16.862 6.559-5.502 3.19-10.649 7.268-15.086 12.231a69.178 69.178 0 00-11.536 16.84c-1.598 3.369-3.018 6.914-3.905 10.46-.887 3.545-1.597 6.913-1.952 10.28-.355 3.369-.178 6.737.177 9.928.355 3.19 1.243 6.381 2.307 9.218l1.598 4.077-4.437.177a52.913 52.913 0 00-17.039 3.368c-5.679 2.127-11.004 5.141-16.329 8.863a93.292 93.292 0 00-14.376 13.473c-4.437 5.318-8.164 10.99-11.181 17.194L1.779 292.136l103.474 54.421 42.952-91.115z" fill="url(#ipaint7_linear)"/><path d="M349.469 119.123c4.792-1.95 9.406-4.432 13.844-7.268 4.437-2.836 8.519-6.204 12.246-9.75a82.431 82.431 0 0010.294-11.877 85.69 85.69 0 007.81-13.472c2.484-5.495 4.082-10.813 5.147-16.131 1.065-5.318 1.242-10.459.887-15.422a53.104 53.104 0 00-3.017-14.182c-.71-2.127-1.775-4.254-2.84-6.381a53.607 53.607 0 00-3.727-5.85l27.688 37.226c2.662 3.545 4.792 7.445 6.212 11.522 1.597 4.255 2.484 8.686 3.017 13.295.355 4.787.177 9.573-.71 14.536-.888 4.964-2.485 10.104-4.615 15.068-1.952 4.432-4.437 8.686-7.099 12.586-2.84 3.9-6.035 7.622-9.584 10.99-3.55 3.368-7.277 6.382-11.537 9.041-4.082 2.659-8.342 4.786-12.956 6.559l-2.84 1.063-31.238-30.667 3.018-.886z" fill="url(#ipaint8_linear)"/><path d="M286.461 310.393l36.74 18.081c-.71-.354-1.42-.709-2.13-1.241-.71-.354-1.242-.886-1.952-1.418-.533-.531-1.243-1.063-1.775-1.595-.533-.532-1.065-1.241-1.42-1.773-1.242-1.595-1.952-3.545-2.485-5.495-.532-2.127-.71-4.254-.532-6.736a44.19 44.19 0 011.242-7.8c.71-2.836 1.775-5.672 3.195-8.863s2.84-5.85 4.437-8.332c1.597-2.481 3.195-4.431 4.969-6.204 1.775-1.773 3.55-3.014 5.325-4.077 1.952-1.064 3.905-1.596 5.857-1.95.887-.177 1.775-.177 2.662-.177.888 0 1.775 0 2.663.177l2.662.532c.887.177 1.775.532 2.485.886.355.177.71.355 1.065.355.355.177.71.354.887.531.355.178.71.355.887.532.355.177.71.355.888.532L317.876 254.2l-1.065-.532-1.065-.532-1.065-.532c-.354-.177-.709-.354-1.064-.354-.888-.355-1.775-.709-2.663-.887l-2.662-.531c-.887-.178-1.775-.178-2.662-.178-.888 0-1.775.178-2.84.178a19.839 19.839 0 00-6.212 2.127c-1.952 1.063-3.905 2.659-5.679 4.431-1.775 1.773-3.55 4.078-5.325 6.737-1.597 2.659-3.195 5.672-4.792 9.04-1.597 3.368-2.662 6.559-3.55 9.573-.887 3.013-1.42 5.849-1.42 8.331-.177 2.659 0 4.964.533 7.091a17.515 17.515 0 002.662 5.85c.532.709 1.065 1.418 1.597 1.949.533.532 1.065 1.241 1.775 1.773.71.532 1.243 1.064 1.953 1.418.532.355 1.242.887 2.129 1.241z" fill="#851185"/><path d="M275.634 290.717c0-1.241.177-2.659.532-4.078.178-.886.355-1.949.71-2.836v-.354c0-.178 0-.178.178-.355 0-.177.177-.532.177-.709.178-.709.355-1.418.71-2.304l1.065-3.191c0-.177.178-.177.178-.355 0-.177.177-.354.177-.354.355-1.064.887-2.127 1.42-3.368l1.597-3.191c0-.177.178-.355.178-.355 0-.177.177-.177.177-.354.533-1.064 1.065-1.95 1.598-3.014.355-.709.887-1.418 1.242-1.95.178-.177.355-.354.355-.709 0-.177.177-.177.177-.354 0-.178.178-.178.178-.355.532-.886 1.065-1.595 1.775-2.304.532-.709 1.242-1.418 1.775-2.127l.177-.178.178-.177c.177-.177.355-.355.355-.532l1.419-1.418.178-.177c.532-.532 1.242-1.064 1.775-1.418l.177-.178s.178 0 .178-.177c.532-.354 1.242-.886 1.952-1.241h.178c.177-.177.532-.177.71-.354.177-.178.355-.178.709-.355.355-.177.533-.177.888-.354.177 0 .355-.178.532-.178.355-.177.71-.177.888-.354.177 0 .355-.177.532-.177.533-.178 1.065-.178 1.598-.355.887-.177 1.774-.177 2.839-.177.888 0 1.775 0 2.663.177l2.662.532c.887.177 1.775.532 2.662.886.355.177.71.355 1.065.355.355.177.71.354.888.532.354.177.532.354.887.354 0 0 .177 0 .177.177l1.065.532 34.255 22.158c-.355-.177-.533-.354-.888-.531-.354-.178-.709-.355-.887-.532-.355-.177-.71-.355-.887-.532-.355-.177-.71-.354-1.065-.354-.888-.355-1.775-.71-2.485-.887l-2.662-.532c-.888-.177-1.775-.177-2.663-.177-.887 0-1.774 0-2.662.177-.532 0-1.065.178-1.42.355-.177 0-.355.177-.532.177-.355 0-.71.177-.888.355-.177 0-.355.177-.532.177-.355.177-.533.177-.888.355-.177 0-.354.177-.532.354-.177.177-.532.177-.71.355-.71.354-1.242.709-1.952 1.063-.178.177-.355.177-.355.355-.533.354-1.065.886-1.775 1.418 0 0-.178 0-.178.177-.532.532-1.242 1.064-1.774 1.773l-.355.354c-.533.709-1.065 1.241-1.775 1.95l-1.598 2.127c-.177.178-.177.355-.355.532-.532.709-1.064 1.596-1.597 2.482-.532.886-1.065 1.773-1.42 2.659-.177.177-.177.532-.355.709-.532.886-.887 1.95-1.42 3.014-.532 1.063-.887 2.127-1.242 3.013-.178.177-.178.532-.355.709-.355 1.064-.71 1.95-1.065 3.014-.355.886-.532 1.95-.71 2.836 0 .177-.177.532-.177.709l-.533 2.659c-.177 1.241-.355 2.482-.355 3.723-.177 2.481 0 4.609.533 6.736 0 .354.177.709.355.886 0 .177.177.355.177.709.178.355.178.532.355.887 0 .177.178.354.178.531.177.355.355.532.532.887 0 .177.178.354.178.354.177.355.532.887.887 1.241.532.709.887 1.241 1.42 1.773.532.532 1.065 1.063 1.775 1.595a7.85 7.85 0 001.952 1.418l1.065.532 1.065.532-15.086-7.445-21.476-10.636c-.178-.178-.532-.355-.71-.355-.532-.354-1.065-.532-1.597-.886-.533-.355-1.065-.709-1.42-1.064-.178-.177-.355-.177-.533-.354l-1.597-1.596-.178-.177c-.532-.532-1.064-1.241-1.597-1.95-.355-.354-.532-.886-.887-1.241 0-.177-.178-.354-.178-.532-.177-.354-.355-.531-.532-.886 0-.177-.178-.354-.178-.532-.177-.354-.177-.532-.355-.886 0-.177-.177-.532-.177-.709 0-.177-.178-.532-.178-.709v-.177c-.532-2.128-.71-4.609-.532-7.268z" fill="url(#ipaint9_linear)"/><path d="M331.366 279.373l33.722 20.563c-.888-.532-1.597-1.241-2.307-1.95-.71-.709-1.243-1.596-1.775-2.482a21.09 21.09 0 01-1.42-2.836 21.557 21.557 0 01-1.243-3.014c-.355-.709-.532-1.241-.887-1.95-.355-.709-.532-1.241-.887-1.772-.355-.532-.533-1.064-.888-1.596s-.71-.886-1.065-1.418c-.355-.354-.71-.709-1.065-1.241l-1.065-1.063c-.355-.355-.709-.709-1.242-.887-.355-.354-.887-.532-1.242-.886l-34.432-21.804c.532.355.887.532 1.419.886.355.355.888.71 1.243 1.064.355.355.887.709 1.242 1.064.355.354.71.886 1.065 1.24.355.355.71.887 1.065 1.419.355.531.71 1.063.887 1.772.355.709.533 1.241.888 1.95.355.709.532 1.418.887 2.127.355 1.064.888 2.128 1.243 3.191.532 1.064.887 2.127 1.42 3.014.532.886 1.242 1.772 1.774 2.659 1.065.709 1.775 1.418 2.663 1.95z" fill="url(#ipaint10_linear)"/><path d="M333.318 276.181l33.722 20.74s.178 0 .178.177c0 0 .177 0 .177.177 0 0 .178 0 .178.178 0 0 .177 0 .177.177l-33.545-20.74s-.177 0-.177-.178c0 0-.178 0-.178-.177s-.177 0-.177-.177c-.355 0-.355-.177-.355-.177z" fill="#851185"/><path d="M337.932 276.535c1.065-.355 2.13-1.241 3.195-2.659 1.065-1.418 2.13-3.191 3.372-5.673 1.242-2.481 2.485-5.495 4.082-9.04l19.523-43.962c3.55-7.977 5.857-16.309 7.1-24.463 1.242-8.155 1.065-16.132 0-23.754s-3.372-14.89-6.567-21.449c-3.195-6.559-7.277-12.409-12.424-17.55 1.065.887 2.307 2.305 3.372 3.191l1.598 1.596.532.531 2.307 2.305.355.354 1.42 1.418 1.598 1.596 1.064 1.063.71.71c.888.886 1.953 1.949 2.84 2.659l.533.531 3.549 3.546.533.531 3.017 3.014 1.42 1.418 2.485 2.482.532.532 2.84 2.836a61.999 61.999 0 0111.891 16.663c3.018 6.204 5.147 12.94 6.39 20.208 1.065 7.091 1.242 14.714.177 22.336-1.065 7.622-3.194 15.245-6.389 22.867l-17.926 40.949c-1.42 3.368-2.662 6.204-3.727 8.331-1.065 2.305-2.13 4.078-3.018 5.318-.887 1.241-1.952 2.128-3.017 2.482-1.065.355-2.13.355-3.55 0l-33.544-20.74c1.242.355 2.485.355 3.727-.177z" fill="url(#ipaint11_linear)"/><path d="M287.882 307.026l36.562 18.259s.178 0 .178.177c0 0 .177 0 .177.177 0 0 .178 0 .178.178 0 0 .177 0 .177.177.71.354 1.597.532 2.307.886.71.177 1.598.355 2.485.532.888.177 1.597.177 2.485.355h2.662c.533 0 1.065-.178 1.775-.178.532-.177 1.242-.354 1.775-.532a8.62 8.62 0 001.952-.709c.71-.177 1.42-.531 1.953-.709a28.389 28.389 0 013.549-1.241c1.243-.354 2.308-.709 3.55-1.063 1.065-.177 2.307-.355 3.372-.355s2.13.178 3.195.709h.71l-34.61-18.79s-.177 0-.177-.177H321.604c-1.065-.532-2.307-.709-3.372-.709-1.242 0-2.307.177-3.55.354-1.242.177-2.484.709-3.727 1.064-1.242.354-2.485.886-3.727 1.418-.71.355-1.42.532-2.13.886-.71.355-1.42.532-2.13.709-.71.178-1.419.355-1.952.532-.71.177-1.242.177-1.775.355h-2.662c-.887 0-1.775-.178-2.662-.355a56.154 56.154 0 01-2.485-.532c-.888-.177-1.598-.531-2.485-.886 0 0-.177 0-.177-.177 0 0-.178 0-.178-.177 0 0-.177 0-.177-.178h-.533z" fill="url(#ipaint12_linear)"/><path d="M362.427 1.418c-7.809-1.773-15.796-1.773-23.783-.355a69.89 69.89 0 00-23.073 8.509c-7.277 4.077-14.021 9.395-20.056 15.6a81.717 81.717 0 00-14.553 21.448c-2.13 4.432-3.55 8.864-4.793 13.296-1.065 4.431-1.774 8.863-1.774 13.294-.178 4.432.177 8.687 1.064 12.764.888 4.254 2.13 8.154 4.083 12.054l1.242 2.482h-2.84c-7.987.177-15.796 1.595-23.605 4.431-7.632 2.659-14.909 6.559-21.831 11.345a100.299 100.299 0 00-18.636 17.195c-5.502 6.559-10.294 13.827-14.021 21.804l-18.281 38.999a124.16 124.16 0 01-4.082 8.331c-1.243 2.482-2.485 4.432-3.55 6.027-1.242 1.596-2.485 2.659-3.727 3.191-1.243.532-2.84.709-4.437.355-1.065-.355-1.953-1.064-2.663-1.773a13.418 13.418 0 01-1.952-2.482c-.532-.886-.887-1.95-1.42-2.836-.355-1.064-.71-2.127-1.065-3.014-.177-.531-.355-1.241-.532-1.772a22.326 22.326 0 01-.533-1.773c-.177-.532-.355-1.064-.71-1.418-.177-.532-.532-.886-.71-1.241-.532-.532-.887-1.064-1.419-1.595-.533-.532-1.065-.887-1.598-1.419-.532-.354-1.065-.886-1.775-1.063a8.253 8.253 0 00-1.774-.886c-.533-.178-1.243-.532-1.953-.532-.71-.178-1.242-.178-1.952-.355h-1.952c-.71 0-1.243.177-1.953.177-1.597.355-3.017.887-4.437 1.773-1.42.886-2.84 2.127-4.26 3.723-1.419 1.595-2.839 3.368-4.082 5.495-1.42 2.127-2.662 4.609-3.904 7.268-1.243 2.659-2.308 5.318-3.018 7.622a58.13 58.13 0 00-1.597 6.559c-.178 1.95-.178 3.9 0 5.495.177 1.596.71 3.191 1.597 4.432l1.065 1.596c.355.531.888.886 1.243 1.418l1.597 1.063c.532.355 1.065.709 1.775.887.71.354 1.242.531 1.952.709.71.177 1.42.354 2.13.354.71.177 1.42.177 2.13.177s1.42 0 2.307-.177c.533 0 1.065-.177 1.598-.354l1.597-.532c.532-.177 1.065-.532 1.775-.709.532-.177 1.242-.532 1.775-.887 1.064-.531 2.129-.886 3.194-1.418 1.065-.354 2.13-.709 3.018-1.063 1.064-.355 1.952-.355 3.017-.355.887 0 1.952.177 2.84.532 1.597.886 2.662 2.127 3.194 3.545.533 1.418.533 3.014.178 4.964-.355 1.95-1.065 4.077-2.13 6.559-1.065 2.481-2.307 5.318-3.905 8.508l-43.484 92.711L271.2 435.189l46.323-104.765c1.598-3.722 3.018-6.736 3.905-9.218 1.065-2.481 1.775-4.608 2.13-6.204.355-1.595.355-3.013 0-4.077s-1.065-1.773-2.307-2.482c-.888-.354-1.953-.709-3.018-.709-1.065 0-2.129 0-3.194.355-1.065.177-2.13.532-3.195.886-1.065.355-2.13.886-3.195 1.241-.71.354-1.597.532-2.307.886-.71.355-1.598.532-2.307.887-.71.177-1.598.531-2.308.709-.71.177-1.42.354-2.13.354h-3.017c-1.065 0-1.952-.177-3.017-.354-1.065-.178-1.952-.355-2.84-.709-.887-.355-1.775-.532-2.662-1.064-.888-.355-1.775-.886-2.485-1.241-.887-.532-1.597-1.063-2.307-1.595s-1.42-1.241-1.953-1.773c-.532-.709-1.242-1.418-1.774-2.127a17.518 17.518 0 01-2.663-5.85c-.532-2.127-.71-4.609-.532-7.091.177-2.659.71-5.318 1.42-8.331.887-3.014 1.952-6.204 3.549-9.573 1.598-3.368 3.195-6.381 4.793-9.04 1.597-2.659 3.372-4.786 5.324-6.736a21.527 21.527 0 015.68-4.432 19.839 19.839 0 016.212-2.127c.887-.177 1.774-.177 2.839-.177.888 0 1.775 0 2.663.177l2.662.532c.887.177 1.775.531 2.662.886.888.355 1.775.709 2.662 1.241.888.532 1.598 1.063 2.485 1.595.888.532 1.598 1.241 2.308 1.95l2.129 2.127c.533.532.888 1.064 1.243 1.773.355.709.71 1.241 1.065 1.95.355.709.71 1.418.887 2.127.355.709.533 1.418.888 2.305.355 1.063.887 2.127 1.242 3.19.532 1.064.887 1.95 1.42 2.837.532.886 1.065 1.595 1.775 2.304.71.709 1.42 1.241 2.13 1.418 1.419.355 2.662.355 3.727 0 1.065-.354 2.13-1.241 3.194-2.659 1.065-1.418 2.13-3.19 3.373-5.672 1.242-2.482 2.484-5.495 4.082-9.041l19.523-43.962c3.905-9.04 6.39-18.081 7.455-27.122 1.064-9.04.532-17.726-1.243-26.058-1.775-8.154-4.792-15.954-9.052-22.69-4.259-6.736-9.761-12.586-16.328-17.372l-2.308-1.595 3.018-1.241c4.792-1.95 9.406-4.432 13.844-7.268 4.437-2.837 8.519-6.205 12.246-9.75a82.45 82.45 0 0010.294-11.877 85.69 85.69 0 007.81-13.472c3.904-8.686 5.857-17.195 6.034-25.527.355-8.154-1.065-15.954-4.082-22.69-2.84-6.736-7.277-12.763-12.779-17.372-6.035-5.318-12.779-8.686-20.766-10.458z" fill="url(#ipaint13_linear)"/><path d="M315.749 329.715c1.775-3.9 3.017-6.736 3.904-9.218a44.489 44.489 0 001.953-6.027c.355-1.418.355-2.481 0-3.19-.178-.71-.71-1.241-1.598-1.773-.532-.177-1.419-.355-2.307-.532h-.355c-.71 0-1.597.177-2.485.355-.887.177-1.952.531-3.017.886-1.065.354-2.13.886-3.195 1.241-.887.354-1.597.709-2.307.886-.71.355-1.597.532-2.307.886-.888.178-1.598.532-2.308.71-.887.177-1.597.354-2.307.354h-3.195c-1.065 0-2.129-.177-3.194-.354-1.065-.178-2.13-.355-3.018-.71-1.064-.354-1.952-.709-2.839-1.063-.888-.355-1.775-.886-2.663-1.418-.887-.532-1.597-1.064-2.484-1.773-.71-.532-1.42-1.241-2.13-1.95-.71-.709-1.243-1.418-1.775-2.304-1.242-1.95-2.307-4.077-2.84-6.382-.532-2.304-.71-4.786-.532-7.622.177-2.659.71-5.496 1.597-8.686.887-3.014 2.13-6.382 3.55-9.75 1.597-3.368 3.194-6.559 4.969-9.218 1.775-2.659 3.55-4.963 5.502-6.913 1.953-1.95 3.905-3.546 6.035-4.787 2.13-1.24 4.437-1.95 6.744-2.304 1.065-.177 1.953-.177 3.018-.177h.532c.887 0 1.597 0 2.485.177.887.177 1.952.354 2.84.532.887.177 1.952.532 2.839.886.888.355 1.953.886 2.84 1.241l2.662 1.595c.888.532 1.598 1.241 2.485 1.95.71.709 1.598 1.418 2.13 2.305.532.532.887 1.241 1.42 1.95.355.709.71 1.241 1.065 2.127.355.709.71 1.418 1.065 2.304.355.709.532 1.418.887 2.128.533 1.24.888 2.127 1.242 3.19.533 1.064.888 1.95 1.42 2.659.533.887 1.065 1.596 1.598 2.128.532.531 1.065.886 1.775 1.24.532.178 1.064.178 1.419.178.533 0 .888 0 1.243-.178.887-.354 1.597-1.063 2.485-2.127.887-1.241 1.952-3.013 3.194-5.495 1.065-2.305 2.308-4.964 4.083-9.041l19.523-43.962c3.905-8.686 6.212-17.726 7.277-26.767.887-8.686.532-17.372-1.243-25.704-1.774-8.154-4.792-15.599-8.874-22.335-4.259-6.736-9.584-12.409-15.974-17.018l-4.437-3.191 5.502-2.127c4.615-1.95 9.23-4.254 13.489-7.091 4.26-2.836 8.342-6.027 12.069-9.572a79.856 79.856 0 0010.117-11.7c3.017-4.254 5.502-8.686 7.632-13.294 3.727-8.332 5.679-16.664 6.034-24.995.178-7.977-1.065-15.422-3.904-22.158-2.84-6.736-6.922-12.41-12.424-16.84-5.502-4.61-12.069-7.8-19.524-9.573-3.904-.886-7.987-1.418-12.246-1.418-3.55 0-7.277.354-11.004 1.063-7.632 1.418-15.264 4.255-22.718 8.332-7.277 4.077-13.844 9.218-19.701 15.422-6.035 6.382-10.827 13.472-14.377 21.095-1.952 4.254-3.549 8.686-4.614 13.117-1.065 4.432-1.597 8.687-1.775 12.941a49.662 49.662 0 001.065 12.586c.887 4.077 2.13 7.977 3.905 11.7l2.129 4.431h-4.969c-7.632.177-15.441 1.596-23.073 4.255a88.592 88.592 0 00-21.476 11.167c-6.744 4.787-12.956 10.459-18.281 16.841-5.502 6.559-10.117 13.826-13.844 21.626l-18.281 38.999c-1.42 3.013-2.839 6.027-4.082 8.331a70.987 70.987 0 01-3.727 6.205c-1.42 1.772-2.84 3.013-4.26 3.722-1.065.532-1.952.709-3.194.709-.71 0-1.42-.177-2.308-.354-1.42-.532-2.484-1.241-3.372-2.127a7.868 7.868 0 01-2.13-2.659c-.532-.887-.887-1.95-1.42-3.014l-1.065-3.191c-.177-.531-.354-1.241-.532-1.772l-.532-1.596c-.178-.532-.355-.886-.533-1.418-.177-.354-.355-.709-.71-1.063-.355-.532-.887-1.064-1.242-1.419-.533-.531-.888-.886-1.42-1.24l-1.597-1.064c-.533-.355-1.065-.532-1.598-.886a21.89 21.89 0 00-1.775-.532c-.532-.177-1.065-.177-1.775-.355h-1.774c-.533 0-1.243.178-1.775.178-1.42.354-2.663.886-4.082 1.595-1.42.886-2.663 1.95-4.083 3.368-1.419 1.418-2.662 3.191-3.904 5.318-1.243 2.127-2.663 4.432-3.905 7.091s-2.307 5.14-3.017 7.445c-.71 2.304-1.243 4.432-1.42 6.381-.178 1.95-.178 3.546 0 5.141.177 1.418.71 2.836 1.42 3.9.355.532.71.886 1.065 1.418.355.355.71.886 1.242 1.241.355.355.888.709 1.42 1.064.532.354 1.065.531 1.597.886.533.177 1.243.532 1.775.709.533.177 1.243.355 1.953.355.71.177 1.419.177 1.952.177h.177c.71 0 1.243 0 1.953-.177.355 0 .887-.178 1.242-.178l1.598-.532c.532-.177 1.064-.354 1.774-.709.533-.177 1.243-.531 1.775-.709 1.065-.531 2.13-1.063 3.195-1.418 1.242-.532 2.307-.886 3.195-1.063 1.242-.355 2.307-.532 3.372-.532 1.242 0 2.307.177 3.372.709 1.952 1.064 3.195 2.482 3.727 4.254.533 1.596.71 3.546.178 5.673-.355 1.95-1.065 4.077-2.308 6.913-1.064 2.482-2.484 5.495-3.904 8.686l-42.952 91.47 159.56 83.847 44.726-103.524z" fill="url(#ipaint14_linear)"/><path d="M316.988 330.247c1.597-3.723 3.017-6.736 3.905-9.218 1.065-2.482 1.775-4.609 2.13-6.204.355-1.596.355-3.014 0-4.078-.355-1.063-1.065-1.772-2.308-2.481l34.787 18.435c1.065.709 1.775 1.419 2.13 2.305.355 1.063.355 2.127 0 3.722a40.547 40.547 0 01-1.775 5.85c-.887 2.305-2.129 5.141-3.549 8.686l-42.419 97.142-39.047-9.395 46.146-104.764z" fill="url(#ipaint15_linear)"/><path d="M498.732 210.414c4.792-1.772 9.584-3.9 13.843-6.559 4.438-2.659 8.52-5.672 12.069-9.04 3.728-3.368 7.1-7.268 9.94-11.345 2.839-4.077 5.324-8.509 7.277-13.118 1.952-4.609 3.194-9.041 4.082-13.649.887-4.432 1.065-9.041.887-13.295a49.123 49.123 0 00-2.13-12.586c-.355-1.064-.532-1.95-.887-3.014l-1.598-3.723c-.709-1.595-1.419-3.19-2.307-4.608 6.39 11.167 12.779 22.335 19.346 33.68a48.435 48.435 0 014.615 10.813c1.065 3.723 1.775 7.8 2.129 11.877.178 4.077 0 8.155-.709 12.409a53.805 53.805 0 01-3.728 12.586c-1.774 4.254-4.082 8.331-6.744 12.054-2.662 3.723-5.68 7.268-9.229 10.459-3.373 3.191-7.277 6.027-11.182 8.331-4.082 2.305-8.342 4.432-12.956 5.85l-3.373 1.064-22.895-26.768 3.55-1.418z" fill="url(#ipaint16_linear)"/><path d="M506.009 93.951c-8.164-2.127-16.506-2.482-24.671-1.418A72.094 72.094 0 00457.91 99.8c-7.276 3.722-14.198 8.686-19.878 14.536-5.857 6.027-10.649 12.94-14.021 20.74-1.953 4.254-3.195 8.686-4.26 13.118-.887 4.431-1.242 8.863-1.242 13.117.177 4.432.71 8.686 1.775 12.764 1.064 4.254 2.662 8.331 4.792 12.054l1.597 2.836h-3.372c-4.082-.177-8.342.177-12.424.709a75.708 75.708 0 00-12.247 2.659c-4.082 1.241-7.986 2.836-11.714 4.609-3.904 1.773-7.454 3.9-11.004 6.382a77.41 77.41 0 00-1.065 3.368l-1.065 3.19c-.355 1.064-.887 2.128-1.242 3.191-.355 1.064-.887 2.127-1.42 3.191l-19.523 44.139c-1.598 3.546-3.017 6.737-4.26 9.396-1.42 2.659-2.662 4.963-3.904 6.736-1.42 1.772-2.663 3.013-4.26 3.545-1.597.709-3.372.709-5.325.177h-.532s-.178 0-.178-.177c-1.065-.532-2.129-1.064-2.839-1.95-.888-.709-1.598-1.773-2.13-2.836-.71-1.064-1.243-2.127-1.775-3.368-.533-1.241-1.065-2.305-1.42-3.546-.355-.709-.532-1.418-.887-2.127-.355-.709-.533-1.418-.888-1.95-.355-.709-.532-1.241-.887-1.772-.355-.532-.71-1.064-1.065-1.419-.533-.709-1.243-1.24-1.775-1.949-.71-.532-1.242-1.241-1.952-1.596-.71-.532-1.42-.886-2.13-1.418-.71-.355-1.598-.709-2.307-1.064-.71-.354-1.598-.531-2.308-.709-.71-.177-1.597-.354-2.307-.354-.71-.177-1.597-.177-2.307-.177s-1.598 0-2.308.177c-1.775.354-3.549.886-5.324 1.95a20.929 20.929 0 00-4.97 4.077c-1.597 1.595-3.195 3.722-4.614 6.027-1.42 2.304-2.84 5.141-4.26 8.154-1.42 3.014-2.485 5.85-3.195 8.509-.71 2.659-1.242 5.141-1.42 7.445-.177 2.305 0 4.432.355 6.204.355 1.95 1.243 3.546 2.13 5.141.533.709.888 1.241 1.42 1.773.532.532 1.065 1.064 1.775 1.595.532.532 1.242.887 1.952 1.418l2.13 1.064c.71.355 1.597.709 2.485.886.887.178 1.775.355 2.485.532.887.177 1.774.177 2.662.355h2.662c.533 0 1.243-.178 1.775-.355.71-.177 1.242-.354 1.952-.532.71-.177 1.42-.531 2.13-.709.71-.354 1.42-.532 2.13-.886 1.242-.532 2.485-1.064 3.727-1.418 1.243-.355 2.485-.886 3.727-1.064 1.243-.177 2.485-.354 3.55-.354 1.242 0 2.307.177 3.372.709 0 0 .178 0 .178.177 0 0 .177 0 .177.177 0 0 .178 0 .178.178 0 0 .177 0 .177.177 1.775 1.063 3.017 2.304 3.55 3.9.532 1.595.71 3.368.355 5.495-.355 2.127-1.243 4.609-2.307 7.445-1.065 2.836-2.485 6.027-4.083 9.75l-46.501 104.942 160.092 84.024 88.565-213.784c3.55-8.686 5.679-17.726 6.212-26.589.532-8.864-.355-17.55-2.662-25.881-2.308-8.155-5.857-15.954-10.649-22.868-4.793-6.913-10.65-12.94-17.749-17.904l-2.84-1.95 3.55-1.241c4.792-1.772 9.584-3.899 13.844-6.558 4.437-2.659 8.519-5.673 12.069-9.041 3.727-3.368 7.099-7.268 9.939-11.345 2.84-4.077 5.325-8.509 7.277-13.118 3.55-8.331 5.147-16.84 4.969-24.994-.177-8.155-1.952-15.777-5.324-22.69-3.372-6.914-8.164-12.941-14.199-17.904-5.857-5.141-12.956-8.864-21.298-10.99z" fill="url(#ipaint17_linear)"/><path d="M521.45 306.494c3.55-8.332 5.502-17.195 6.212-26.058.533-8.686-.355-17.195-2.485-25.527-2.129-8.154-5.679-15.776-10.471-22.513-4.792-6.913-10.649-12.763-17.394-17.549l-5.147-3.545 6.212-2.128c4.792-1.595 9.229-3.899 13.667-6.381 4.259-2.482 8.341-5.495 11.891-8.863 3.727-3.369 6.922-7.091 9.762-11.168 2.84-4.077 5.324-8.332 7.099-12.763 3.372-7.977 4.97-16.132 4.792-24.463a55.521 55.521 0 00-5.147-22.159c-3.195-6.736-7.987-12.585-13.844-17.372-6.034-4.963-12.956-8.331-20.943-10.458-4.969-1.241-10.294-1.95-15.619-1.95-2.839 0-5.679.177-8.519.532-7.987 1.063-15.619 3.367-23.073 7.09-7.277 3.723-13.844 8.509-19.523 14.359-5.857 6.027-10.472 12.763-13.667 20.208-1.774 4.077-3.194 8.509-4.082 12.763-.887 4.255-1.242 8.509-1.242 12.763.177 4.255.71 8.509 1.775 12.409 1.065 4.077 2.662 8.154 4.614 11.7l2.663 4.963-5.857-.177h-1.953c-3.372 0-6.744.177-10.294.709-4.082.532-7.987 1.418-12.069 2.659-3.905 1.241-7.809 2.659-11.536 4.609-3.55 1.773-7.1 3.723-10.472 6.027-.355.886-.533 1.95-.887 2.836-.355 1.064-.71 2.305-1.065 3.368-.355 1.064-.888 2.128-1.243 3.368-.355 1.064-.887 2.128-1.42 3.191l-19.523 44.14c-1.597 3.722-3.017 6.736-4.26 9.395-1.597 3.013-2.839 5.318-4.082 6.913-1.597 1.95-3.195 3.368-4.969 4.077-1.065.355-2.13.709-3.373.709-.887 0-1.952-.177-3.017-.354l-.532-.178-.533-.177c-1.242-.532-2.307-1.241-3.372-2.127-.887-.886-1.597-1.773-2.485-3.014-.532-1.063-1.242-2.127-1.775-3.545-.532-1.241-1.065-2.482-1.42-3.545-.354-.709-.532-1.418-.887-2.127-.355-.709-.532-1.241-.887-1.95-.355-.532-.533-1.064-.888-1.596s-.532-.886-.887-1.241c-.533-.531-1.065-1.24-1.775-1.772-.533-.532-1.243-1.064-1.952-1.596-.71-.531-1.42-.886-2.13-1.241l-2.13-1.063c-.71-.355-1.42-.532-2.13-.709-.71-.177-1.42-.355-2.13-.355-.532 0-1.242-.177-1.775-.177h-.355c-.709 0-1.419 0-2.129.177-1.598.178-3.373.887-4.792 1.773a17.739 17.739 0 00-4.615 3.723c-1.597 1.595-3.017 3.545-4.437 5.849-1.42 2.305-2.84 4.964-4.26 7.977-1.42 3.014-2.485 5.85-3.195 8.332-.71 2.659-1.242 4.963-1.419 7.091-.178 2.127 0 4.077.355 5.849.355 1.773 1.064 3.191 1.952 4.609.355.532.887 1.064 1.42 1.596.532.531 1.065 1.063 1.597 1.418.533.532 1.242.886 1.775 1.241.71.354 1.242.709 1.952 1.063.71.355 1.42.532 2.308.887.71.177 1.597.354 2.484.531.888.178 1.598.178 2.485.178h2.662c.533 0 1.065-.178 1.598-.178.532-.177 1.242-.354 1.775-.531.71-.178 1.242-.532 1.952-.709.71-.355 1.42-.532 2.13-.887 1.242-.532 2.485-1.063 3.727-1.418 1.42-.532 2.662-.886 3.905-1.064 1.242-.354 2.484-.354 3.549-.354h.355c1.42 0 2.663.354 3.905.886l.533.178.532.354c2.13 1.241 3.55 2.659 4.26 4.609.71 1.773.71 3.9.355 6.382-.355 2.127-1.065 4.609-2.308 7.799-1.065 2.837-2.485 6.027-4.082 9.75l-45.969 103.701 157.607 82.783 88.565-212.542z" fill="url(#ipaint18_linear)"/><path d="M522.869 307.025c3.017-7.091 4.792-14.359 5.857-21.804.887-7.268.887-14.536-.177-21.626-1.065-6.914-3.018-13.827-5.857-20.209-2.84-6.381-6.39-12.231-11.005-17.549l21.831 26.058c4.26 4.964 7.632 10.459 10.294 16.309 2.663 5.849 4.615 12.231 5.502 18.79 1.065 6.559 1.065 13.295.355 20.031-.71 6.736-2.485 13.472-5.147 20.031l-81.111 196.589-29.462-3.191 88.92-213.429z" fill="url(#ipaint19_linear)"/></g><defs><linearGradient id="ipaint0_linear" x1="249.801" y1="49.153" x2="202.665" y2="109.988" gradientUnits="userSpaceOnUse"><stop stop-color="#78C4FC"/><stop offset=".008" stop-color="#77C3FB"/><stop offset=".191" stop-color="#63A5E2"/><stop offset=".294" stop-color="#5C9AD9"/><stop offset=".67" stop-color="#4279BD"/><stop offset="1" stop-color="#2959A2"/></linearGradient><linearGradient id="ipaint1_linear" x1="165.684" y1="195.529" x2="140.796" y2="247.324" gradientUnits="userSpaceOnUse"><stop stop-color="#002D6A"/><stop offset=".068" stop-color="#093777"/><stop offset=".225" stop-color="#1B4A8F"/><stop offset=".371" stop-color="#26559D"/><stop offset=".493" stop-color="#2A59A2"/><stop offset=".621" stop-color="#27559D"/><stop offset=".766" stop-color="#1C4B90"/><stop offset=".919" stop-color="#0B3979"/><stop offset="1" stop-color="#002D6A"/></linearGradient><linearGradient id="ipaint2_linear" x1="206.199" y1="213.048" x2="151.42" y2="213.048" gradientUnits="userSpaceOnUse"><stop stop-color="#8EC4EE"/><stop offset=".302" stop-color="#6DABD9"/><stop offset=".387" stop-color="#63A3D3"/><stop offset="1" stop-color="#6381B3"/></linearGradient><linearGradient id="ipaint3_linear" x1="226.889" y1="126.109" x2="177.188" y2="207.94" gradientUnits="userSpaceOnUse"><stop stop-color="#4279BD"/><stop offset=".363" stop-color="#2A59A2"/><stop offset=".373" stop-color="#2958A1"/><stop offset=".627" stop-color="#134083"/><stop offset=".845" stop-color="#053271"/><stop offset="1" stop-color="#002D6A"/></linearGradient><linearGradient id="ipaint4_linear" x1="196.995" y1="246.254" x2="127.013" y2="246.254" gradientUnits="userSpaceOnUse"><stop stop-color="#8EC4EE"/><stop offset=".302" stop-color="#6DABD9"/><stop offset=".387" stop-color="#63A3D3"/><stop offset="1" stop-color="#6381B3"/></linearGradient><linearGradient id="ipaint5_linear" x1="197.984" y1="299.858" x2="106.121" y2="299.858" gradientUnits="userSpaceOnUse"><stop stop-color="#2A59A2"/><stop offset=".016" stop-color="#2958A1"/><stop offset=".414" stop-color="#134083"/><stop offset=".756" stop-color="#053271"/><stop offset="1" stop-color="#002D6A"/></linearGradient><linearGradient id="ipaint6_linear" x1="215.496" y1="310.9" x2="71.105" y2="103.285" gradientUnits="userSpaceOnUse"><stop offset=".006" stop-color="#3B86DF"/><stop offset="1" stop-color="#7FCBFF"/></linearGradient><linearGradient id="ipaint7_linear" x1="205.384" y1="295.972" x2="63.083" y2="91.363" gradientUnits="userSpaceOnUse"><stop offset=".006" stop-color="#3B86DF"/><stop offset=".996" stop-color="#7FCBFF"/></linearGradient><linearGradient id="ipaint8_linear" x1="418.698" y1="53.588" x2="356.126" y2="122.045" gradientUnits="userSpaceOnUse"><stop stop-color="#CEEBFD"/><stop offset=".071" stop-color="#BFE2FA"/><stop offset=".226" stop-color="#A4D2F3"/><stop offset=".363" stop-color="#94C8EF"/><stop offset=".468" stop-color="#8EC4EE"/><stop offset=".883" stop-color="#6DABD9"/><stop offset="1" stop-color="#63A3D3"/></linearGradient><linearGradient id="ipaint9_linear" x1="325.583" y1="255.968" x2="295.772" y2="315.867" gradientUnits="userSpaceOnUse"><stop stop-color="#547AA5"/><stop offset=".005" stop-color="#547BA6"/><stop offset=".19" stop-color="#5C91BF"/><stop offset=".358" stop-color="#619ECE"/><stop offset=".495" stop-color="#63A3D3"/><stop offset=".636" stop-color="#619FCE"/><stop offset=".802" stop-color="#5D92C0"/><stop offset=".981" stop-color="#557DA8"/><stop offset="1" stop-color="#547AA5"/></linearGradient><linearGradient id="ipaint10_linear" x1="343.032" y1="270.97" x2="338.824" y2="282.962" gradientUnits="userSpaceOnUse"><stop stop-color="#2A7FB6"/><stop offset=".315" stop-color="#236FA3"/><stop offset=".715" stop-color="#1C6091"/><stop offset="1" stop-color="#195B8A"/></linearGradient><linearGradient id="ipaint11_linear" x1="393.907" y1="150.422" x2="333.283" y2="281.039" gradientUnits="userSpaceOnUse"><stop stop-color="#8EC4EE"/><stop offset=".302" stop-color="#6DABD9"/><stop offset=".387" stop-color="#63A3D3"/><stop offset="1" stop-color="#6381B3"/></linearGradient><linearGradient id="ipaint12_linear" x1="318.424" y1="322.862" x2="325.063" y2="310.38" gradientUnits="userSpaceOnUse"><stop stop-color="#2A7FB6"/><stop offset=".315" stop-color="#236FA3"/><stop offset=".715" stop-color="#1C6091"/><stop offset="1" stop-color="#195B8A"/></linearGradient><linearGradient id="ipaint13_linear" x1="361.692" y1="340.334" x2="177.124" y2="83.795" gradientUnits="userSpaceOnUse"><stop offset=".019" stop-color="#96CDF9"/><stop offset="1" stop-color="#fff"/></linearGradient><linearGradient id="ipaint14_linear" x1="360.863" y1="338.79" x2="178.26" y2="84.983" gradientUnits="userSpaceOnUse"><stop offset=".019" stop-color="#96CDF9"/><stop offset=".995" stop-color="#E6F8FF"/></linearGradient><linearGradient id="ipaint15_linear" x1="357.923" y1="376.328" x2="270.654" y2="376.328" gradientUnits="userSpaceOnUse"><stop stop-color="#8EC4EE"/><stop offset=".302" stop-color="#6DABD9"/><stop offset=".387" stop-color="#63A3D3"/><stop offset="1" stop-color="#6381B3"/></linearGradient><linearGradient id="ipaint16_linear" x1="562.478" y1="155.952" x2="500.797" y2="204.202" gradientUnits="userSpaceOnUse"><stop stop-color="#7FDDFF"/><stop offset=".033" stop-color="#79D6FA"/><stop offset=".183" stop-color="#5FBBE5"/><stop offset=".317" stop-color="#4FABD8"/><stop offset=".419" stop-color="#4AA5D4"/><stop offset=".546" stop-color="#449DD0"/><stop offset=".742" stop-color="#3588C4"/><stop offset=".98" stop-color="#1B65B0"/><stop offset="1" stop-color="#1962AE"/></linearGradient><linearGradient id="ipaint17_linear" x1="512.015" y1="412.682" x2="354.806" y2="210.308" gradientUnits="userSpaceOnUse"><stop stop-color="#43A6F5"/><stop offset="1" stop-color="#8EE6FF"/></linearGradient><linearGradient id="ipaint18_linear" x1="511.201" y1="411.288" x2="355.675" y2="211.08" gradientUnits="userSpaceOnUse"><stop offset=".015" stop-color="#43A6F5"/><stop offset=".999" stop-color="#7FDDFF"/></linearGradient><linearGradient id="ipaint19_linear" x1="555.21" y1="253.233" x2="432.413" y2="474.54" gradientUnits="userSpaceOnUse"><stop stop-color="#2A7FB6"/><stop offset=".004" stop-color="#2A7FB6"/><stop offset=".407" stop-color="#2161A6"/><stop offset=".753" stop-color="#1B4F9C"/><stop offset="1" stop-color="#194898"/></linearGradient><clipPath id="iclip0"><path fill="#fff" transform="matrix(-1 0 0 1 566 0)" d="M0 0h566v524H0z"/></clipPath></defs></svg>