<?xml version="1.0" encoding="utf-8"?><svg width="420" height="47" fill="none" xmlns="http://www.w3.org/2000/svg" viewBox="0 0 420 47"><g clip-path="url(#dclip0)" fill-rule="evenodd" clip-rule="evenodd"><path d="M34.958 0h4.666v21.488h-4.666v-8.39H4.667v8.39H0V0h4.667v8.39h30.29V0zm174.957 21.488l-33.77-14.554v14.554h-4.497V0l33.77 14.554V0h4.497v21.488z" fill="#fff"/><path d="M56.424 0v21.488h-4.666V0h4.666zM79.25 21.488c-1.443 0-2.8-.257-4.158-.856-1.273-.6-2.46-1.37-3.394-2.312-.933-.941-1.697-2.14-2.29-3.424-.595-1.284-.85-2.74-.85-4.195s.255-2.91.85-4.195c.593-1.284 1.357-2.482 2.29-3.424.933-.942 2.121-1.712 3.394-2.312 1.273-.599 2.715-.856 4.158-.856h28.509v4.709h-28.51c-.848 0-1.612.171-2.29.514-.68.342-1.358.77-1.867 1.284-.51.513-1.018 1.198-1.273 1.883-.34.77-.509 1.541-.509 2.397 0 .856.17 1.627.51 2.312a6.1 6.1 0 001.272 1.883c.509.514 1.188 1.027 1.867 1.284.678.343 1.527.514 2.29.514h23.843v-3.681H83.236V8.39h24.522v13.098h-28.51zM154.848 0h4.667v21.488h-4.667v-8.39h-30.29v8.39h-4.667V0h4.667v8.39h30.29V0zm75.77 21.488a8.474 8.474 0 01-3.309-.685c-1.018-.428-1.951-1.027-2.715-1.883-.764-.77-1.358-1.712-1.867-2.74a8.687 8.687 0 01-.679-3.339V8.647c0-1.199.255-2.312.679-3.34.425-1.027 1.018-1.968 1.867-2.739.764-.77 1.697-1.37 2.715-1.883A8.473 8.473 0 01230.618 0h22.061c1.188 0 2.291.257 3.309.685 1.018.428 1.951 1.113 2.715 1.883.764.77 1.358 1.712 1.867 2.74a8.687 8.687 0 01.678 3.339v4.194a8.687 8.687 0 01-.678 3.34c-.425 1.027-1.018 1.968-1.867 2.739-.764.77-1.697 1.37-2.715 1.883a8.474 8.474 0 01-3.309.685h-22.061zm0-16.78c-.509 0-1.018.086-1.527.343-.509.171-.933.514-1.273.856-.339.342-.594.77-.848 1.284-.17.428-.34 1.027-.34 1.541v4.28c0 .514.085 1.028.34 1.542.169.428.509.856.848 1.284.34.342.764.685 1.273.856.509.171 1.018.342 1.527.342h22.061c.509 0 1.018-.085 1.527-.342.424-.171.849-.514 1.273-.856.339-.343.594-.77.848-1.284.17-.428.34-1.028.34-1.541v-4.28c0-.515-.085-1.028-.34-1.542-.169-.428-.509-.856-.848-1.284-.34-.342-.764-.685-1.273-.856-.424-.171-.933-.343-1.527-.343h-22.061zm73.394 16.78l-5.345-5.222h-20.703v5.222h-4.667v-9.93h31.564a3.81 3.81 0 001.357-.258c.424-.17.764-.428 1.103-.77.34-.342.509-.685.764-1.113.17-.428.254-.856.254-1.37a3.9 3.9 0 00-.254-1.37c-.17-.428-.424-.77-.764-1.112-.339-.343-.679-.6-1.103-.77a3.487 3.487 0 00-1.357-.258h-31.564V0h31.564c1.103 0 2.121.257 3.139.685.933.428 1.782 1.027 2.545 1.712.764.77 1.273 1.627 1.697 2.568.425 1.028.679 2.055.679 3.168s-.169 2.055-.594 3.082c-.424.942-.933 1.798-1.612 2.482-.679.771-1.442 1.285-2.376 1.798a8.959 8.959 0 01-2.969.77l5.345 5.223h-6.703zm38.097-11.472L363.661.685v20.718h-4.497V7.618l-17.055 7.363-17.054-7.363v13.87h-4.497V.77l21.551 9.246zm40.133 11.472h-6.448L397.855 0 420 21.488h-6.448L397.855 6.25l-15.613 15.24z" fill="#515975"/><path opacity=".5" d="M20.448 47v-6.164H8.061v1.541h10.86v3.082H5.345c-2.12 0-3.818-1.712-3.818-3.852 0-2.14 1.697-3.853 3.818-3.853H20.45v-1.54H5.345C2.375 36.213 0 38.61 0 41.606 0 44.603 2.376 47 5.345 47H20.45zm99.273-6.763c0-2.14-1.782-3.938-3.903-3.938h-16.8v1.54h16.8c1.273 0 2.376 1.114 2.376 2.398s-1.103 2.397-2.376 2.397h-16.8V47h1.527v-2.825h12.134L115.648 47h2.207l-2.97-2.825h1.018c2.121 0 3.818-1.798 3.818-3.938zM214.582 47c2.291 0 4.157-1.883 4.157-4.195v-2.311c0-2.312-1.866-4.195-4.157-4.195h-12.134c-2.29 0-4.157 1.883-4.157 4.195v2.311c0 2.312 1.867 4.195 4.157 4.195h12.134zm0-9.16c1.442 0 2.63 1.198 2.63 2.654v2.311c0 1.456-1.188 2.654-2.63 2.654h-12.134c-1.442 0-2.63-1.199-2.63-2.654v-2.311c0-1.456 1.188-2.654 2.63-2.654h12.134zM313.6 47c2.291 0 4.158-1.883 4.158-4.195V36.3h-1.528v6.506c0 1.456-1.188 2.654-2.63 2.654h-12.133c-1.443 0-2.631-1.199-2.631-2.654V36.3h-1.527v6.506c0 2.312 1.867 4.195 4.158 4.195H313.6zm84.339 0v-2.825h15.273c2.121 0 3.903-1.798 3.903-3.938s-1.782-3.938-3.903-3.938h-16.8v1.54h16.8c1.273 0 2.376 1.114 2.376 2.398s-1.103 2.397-2.376 2.397h-16.8V47h1.527z" fill="#fff"/></g><defs><clipPath id="dclip0"><path fill="#fff" d="M0 0h420v47H0z"/></clipPath></defs></svg>