<?xml version="1.0" encoding="utf-8"?><svg width="80" height="10" fill="none" xmlns="http://www.w3.org/2000/svg" viewBox="0 0 80 10"><path d="M1.271 9H.146L3.703.621h1.201L8.48 9H7.277L6.193 6.363H3.422l.299-.879h2.11L4.265 1.688 1.27 9zm12.862-.176a7.286 7.286 0 01-1.64.176C10.304 9 9.21 7.936 9.21 5.807c0-1.973 1.094-2.96 3.281-2.96.586 0 1.133.06 1.64.176v.88a7.571 7.571 0 00-1.698-.176c-1.426 0-2.14.693-2.14 2.08 0 1.543.714 2.314 2.14 2.314a7.57 7.57 0 001.699-.176v.88zM15.516 9V2.848h.732l.193.785c.63-.524 1.32-.785 2.075-.785 1.535 0 2.302.763 2.302 2.29V9h-1.084V5.121c0-.914-.455-1.371-1.365-1.371-.621 0-1.21.26-1.77.78V9h-1.083zm7.857-3.1c0 1.48.615 2.221 1.846 2.221 1.23 0 1.845-.74 1.845-2.22 0-1.45-.615-2.174-1.845-2.174s-1.846.724-1.846 2.173zm-1.084.024c0-2.051.977-3.076 2.93-3.076 1.953 0 2.93 1.025 2.93 3.076 0 2.047-.977 3.07-2.93 3.07-1.946 0-2.922-1.023-2.93-3.07zm11.455-1.822c-.437-.211-.937-.317-1.5-.317-1.238 0-1.857.658-1.857 1.975 0 1.558.619 2.338 1.857 2.338a4.55 4.55 0 001.5-.229V4.102zm1.084 4.529c-.746.246-1.666.369-2.76.369-1.832 0-2.748-1.066-2.748-3.2 0-1.968.973-2.952 2.918-2.952.532 0 1.034.097 1.506.293V.62h1.084v8.01zm4.295-5.783c1.75 0 2.625.865 2.625 2.595 0 .246-.017.51-.053.791h-4.318c0 1.258.734 1.887 2.203 1.887.7 0 1.32-.078 1.863-.234v.879C40.9 8.922 40.24 9 39.463 9c-2.113 0-3.17-1.049-3.17-3.146 0-2.004.943-3.006 2.83-3.006zm-1.746 2.484h3.328c-.023-1.078-.55-1.617-1.582-1.617-1.094 0-1.676.539-1.746 1.617zm15.205 3.34a6.08 6.08 0 01-2.185.387c-3.036 0-4.553-1.455-4.553-4.366 0-2.754 1.465-4.13 4.394-4.13.84 0 1.621.117 2.344.351v.938a6.242 6.242 0 00-2.227-.41c-2.285 0-3.427 1.083-3.427 3.251 0 2.325 1.125 3.487 3.375 3.487.36 0 .758-.047 1.195-.14V5.19h1.084v3.48zM55.4.622V9h-1.084V.621H55.4zM58.014 5.9c0 1.48.615 2.221 1.845 2.221s1.846-.74 1.846-2.22c0-1.45-.615-2.174-1.846-2.174-1.23 0-1.845.724-1.845 2.173zm-1.084.024c0-2.051.976-3.076 2.93-3.076 1.953 0 2.93 1.025 2.93 3.076 0 2.047-.977 3.07-2.93 3.07-1.946 0-2.922-1.023-2.93-3.07zm8.408 2.004c.355.113.787.17 1.295.17 1.367 0 2.05-.78 2.05-2.338 0-1.317-.619-1.975-1.857-1.975-.562 0-1.058.106-1.488.317v3.826zM64.254.62h1.084v2.52a3.817 3.817 0 011.494-.293c1.945 0 2.918.984 2.918 2.953C69.75 7.934 68.728 9 66.686 9c-.883 0-1.694-.084-2.432-.252V.621zm6.668 6.522c0-1.262.832-1.893 2.496-1.893.535 0 1.07.04 1.605.117v-.58c0-.707-.552-1.06-1.658-1.06-.633 0-1.281.097-1.945.293v-.88a6.876 6.876 0 011.945-.292c1.828 0 2.742.636 2.742 1.91V9h-.609l-.375-.61a3.556 3.556 0 01-2.004.61c-1.465 0-2.197-.62-2.197-1.857zm2.496-1.014c-.941 0-1.412.332-1.412.996 0 .664.371.996 1.113.996.75 0 1.385-.2 1.904-.598V6.246a11.1 11.1 0 00-1.605-.117zM79.014.62V9H77.93V.621h1.084z" fill="#B7B7B7"/></svg>