<?xml version="1.0" encoding="utf-8"?><svg width="1006" height="647" fill="none" xmlns="http://www.w3.org/2000/svg" viewBox="0 0 1006 647"><path d="M0 586.013h1005.85M0 320.358h1005.85M705.844 321.358v57.844M872.951 321.358v57.844M421.979 321.358v57.844M141.326 321.358v57.844M1 321.358v265.655M1004.71 321.358v265.655" stroke="#626A84" stroke-width="2"/><path d="M466.656 303.012v-21.329h6.914c2.705 0 4.902.845 6.592 2.535 1.699 1.689 2.549 3.862 2.549 6.518v3.238c0 2.666-.85 4.838-2.549 6.518-1.69 1.68-3.887 2.52-6.592 2.52h-6.914zm3.56-18.472v15.63h3.252c1.767 0 3.154-.576 4.16-1.729 1.015-1.152 1.523-2.641 1.523-4.467v-3.267c0-1.807-.508-3.286-1.523-4.439-1.006-1.152-2.393-1.728-4.16-1.728h-3.252zm19.497 18.472h-3.56v-15.85h3.56v15.85zm0-19.732h-3.56v-3.12h3.56v3.12zm3.354 12.027c0-2.52.552-4.556 1.655-6.109 1.104-1.553 2.637-2.329 4.6-2.329.947 0 1.777.205 2.49.615.723.401 1.333.982 1.831 1.743l.352-2.065h2.959v15.85c0 2.041-.63 3.618-1.89 4.731-1.26 1.113-3.047 1.67-5.361 1.67-.772 0-1.607-.112-2.505-.337a11.383 11.383 0 01-2.417-.864l.762-2.798c.586.303 1.23.537 1.933.703a9.14 9.14 0 002.198.264c1.289 0 2.231-.279 2.827-.835.595-.547.893-1.392.893-2.534v-1.626a5.045 5.045 0 01-1.772 1.45c-.674.322-1.45.483-2.329.483-1.944 0-3.467-.708-4.571-2.124-1.103-1.416-1.655-3.276-1.655-5.581v-.307zm3.56.307c0 1.455.288 2.622.864 3.501.586.869 1.489 1.304 2.71 1.304.762 0 1.401-.156 1.919-.469.527-.322.952-.781 1.274-1.377v-6.943a3.714 3.714 0 00-1.289-1.348c-.517-.332-1.142-.498-1.875-.498-1.221 0-2.129.513-2.724 1.538-.586 1.026-.879 2.354-.879 3.985v.307zm17.871 7.398h-3.56v-15.85h3.56v15.85zm0-19.732h-3.56v-3.12h3.56v3.12zm8.423.029v3.853h2.841v2.637h-2.841v8.759c0 .655.141 1.124.424 1.407.284.273.66.41 1.128.41.196 0 .386-.015.572-.044.185-.039.361-.088.527-.147l.381 2.608a3.925 3.925 0 01-1.084.381c-.42.097-.855.146-1.304.146-1.308 0-2.334-.381-3.076-1.142-.742-.772-1.113-1.978-1.113-3.619v-8.759h-2.417v-2.637h2.417v-3.853h3.545zm15.542 19.703a15.26 15.26 0 01-.323-1.172 9.353 9.353 0 01-.161-1.143 6.346 6.346 0 01-1.933 1.875c-.791.498-1.68.747-2.666.747-1.651 0-2.92-.425-3.809-1.274-.879-.85-1.318-2.017-1.318-3.501 0-1.533.605-2.725 1.816-3.574 1.211-.86 2.915-1.289 5.112-1.289h2.769v-1.392c0-.83-.244-1.48-.732-1.948-.489-.469-1.187-.703-2.095-.703-.811 0-1.455.195-1.934.586a1.86 1.86 0 00-.718 1.508h-3.427l-.015-.088c-.068-1.25.488-2.358 1.67-3.325 1.191-.967 2.739-1.45 4.644-1.45 1.845 0 3.334.469 4.467 1.406 1.133.938 1.699 2.285 1.699 4.043v7.046c0 .654.044 1.284.132 1.89.088.595.23 1.181.425 1.758h-3.603zm-4.366-2.549c.899 0 1.704-.225 2.417-.674.723-.449 1.202-.962 1.436-1.538v-2.344h-2.827c-1.035 0-1.846.259-2.432.776-.586.508-.879 1.109-.879 1.802 0 .606.196 1.089.586 1.45.401.352.967.528 1.699.528zm14.942 2.549h-3.56V280.16h3.56v22.852z" fill="#fff"/><path d="M212.098 49.346h572.016" stroke="#626A84" stroke-width="2"/><path d="M454.716 32h-3.56V10.672h3.56V32zm7.646-15.85l.205 2.286c.518-.811 1.167-1.44 1.949-1.89.791-.46 1.679-.689 2.666-.689 1.65 0 2.934.503 3.852 1.51.928.995 1.392 2.553 1.392 4.672V32h-3.56v-9.932c0-1.191-.249-2.036-.747-2.534-.488-.508-1.235-.761-2.241-.761-.693 0-1.313.156-1.86.468a3.785 3.785 0 00-1.348 1.26V32h-3.56V16.15h3.252zm34.6 6.753h-9.346V32h-3.559V10.672h14.399v2.856h-10.84v6.519h9.346v2.856zM504.799 32h-3.56V16.15h3.56V32zm0-19.731h-3.56v-3.12h3.56v3.12zm10.796 20.039c-2.246 0-4.038-.733-5.376-2.198-1.328-1.474-1.992-3.364-1.992-5.669v-.585c0-2.305.659-4.214 1.977-5.728 1.328-1.523 2.988-2.28 4.981-2.27 2.138 0 3.774.649 4.907 1.948 1.142 1.289 1.714 3.022 1.714 5.2V25.1h-9.888l-.029.073c.058 1.26.425 2.29 1.098 3.09.684.801 1.626 1.202 2.828 1.202.957 0 1.777-.117 2.46-.352a8.062 8.062 0 001.978-1.01l1.143 2.329c-.596.527-1.387.971-2.373 1.333-.987.361-2.129.542-3.428.542zm-.41-13.594c-.879 0-1.602.351-2.168 1.055-.567.693-.918 1.577-1.055 2.65l.029.074h6.284v-.366c0-1.006-.258-1.826-.776-2.461-.508-.635-1.279-.952-2.314-.952zM528.471 32h-3.56V9.148h3.56V32zm3.34-7.705c0-2.53.542-4.566 1.626-6.109 1.084-1.552 2.607-2.329 4.57-2.329.859 0 1.626.176 2.3.528a5.125 5.125 0 011.772 1.48V9.147h3.56V32h-2.989l-.351-1.963c-.508.742-1.118 1.309-1.831 1.7-.713.38-1.543.57-2.49.57-1.944 0-3.457-.707-4.541-2.123-1.084-1.416-1.626-3.277-1.626-5.582v-.307zm3.559.307c0 1.465.279 2.632.835 3.502.567.869 1.46 1.303 2.681 1.303.752 0 1.387-.16 1.904-.483.527-.322.957-.781 1.289-1.377v-6.914a3.69 3.69 0 00-1.289-1.363c-.527-.331-1.152-.497-1.875-.497-1.211 0-2.104.512-2.681 1.538-.576 1.015-.864 2.343-.864 3.984v.307z" fill="#fff"/><path d="M782.971 50.346v57.844M499.105 50.346v57.844M213.098 50.346v57.844" stroke="#626A84" stroke-width="2"/><path d="M323.857 108.19H101.408a5 5 0 00-5 5v109.974a5 5 0 005 5h222.449a5 5 0 005-5V113.19a5 5 0 00-5-5zM609.865 108.19H387.416a5 5 0 00-5 5v109.974a5 5 0 005 5h222.449a5 5 0 005-5V113.19a5 5 0 00-5-5zM895.875 108.19H673.426a5 5 0 00-5 5v109.974a5 5 0 005 5h222.449a5 5 0 005-5V113.19a5 5 0 00-5-5z" fill="#2A365C"/><path d="M142.185 154.46h8.167v2.368h-11.133v-17.774h2.966v15.406zm18.127 2.368a12.85 12.85 0 01-.268-.977 7.596 7.596 0 01-.134-.952 5.283 5.283 0 01-1.612 1.563 4.08 4.08 0 01-2.221.622c-1.376 0-2.434-.354-3.174-1.062-.733-.708-1.099-1.68-1.099-2.917 0-1.278.505-2.271 1.514-2.979 1.009-.716 2.429-1.074 4.26-1.074h2.307v-1.16c0-.691-.203-1.233-.61-1.623-.407-.391-.989-.586-1.746-.586-.675 0-1.212.163-1.611.488a1.55 1.55 0 00-.598 1.257h-2.857l-.012-.073c-.057-1.042.407-1.965 1.392-2.771.993-.805 2.282-1.208 3.869-1.208 1.538 0 2.779.39 3.724 1.172.944.781 1.416 1.904 1.416 3.369v5.871c0 .546.036 1.07.109 1.575.074.496.192.985.354 1.465h-3.003zm-3.637-2.124c.748 0 1.42-.187 2.014-.562.602-.374 1.001-.801 1.196-1.281v-1.954h-2.356c-.862 0-1.538.216-2.026.647-.488.424-.733.924-.733 1.502 0 .504.163.907.489 1.208.333.293.805.44 1.416.44zm15.869-8.411l-1.27-.049c-.577 0-1.062.122-1.452.367a2.42 2.42 0 00-.891 1.037v9.18h-2.967V143.62h2.71l.196 1.916c.333-.675.76-1.204 1.281-1.587a3.03 3.03 0 011.819-.573c.179 0 .346.016.501.048.154.025.297.057.427.098l-.354 2.771zm1.55 4.114c0-2.1.46-3.796 1.38-5.09.919-1.294 2.197-1.941 3.833-1.941.789 0 1.481.171 2.075.512.602.334 1.111.818 1.526 1.453l.293-1.721h2.465v13.208c0 1.701-.524 3.015-1.574 3.943-1.05.927-2.539 1.391-4.468 1.391a8.638 8.638 0 01-2.087-.28 9.538 9.538 0 01-2.015-.721l.635-2.331a7.043 7.043 0 001.612.586 7.64 7.64 0 001.831.219c1.074 0 1.859-.231 2.356-.695.496-.456.744-1.16.744-2.112v-1.355a4.182 4.182 0 01-1.477 1.208c-.561.269-1.208.403-1.941.403-1.619 0-2.889-.59-3.808-1.77-.92-1.18-1.38-2.73-1.38-4.651v-.256zm2.967.256c0 1.213.24 2.185.72 2.918.488.724 1.241 1.086 2.258 1.086.635 0 1.168-.13 1.599-.39.44-.269.794-.651 1.062-1.148v-5.786a3.102 3.102 0 00-1.074-1.123c-.431-.277-.952-.415-1.563-.415-1.017 0-1.774.427-2.27 1.282-.488.854-.732 1.961-.732 3.32v.256zm17.395 6.421c-1.872 0-3.366-.61-4.48-1.831-1.107-1.229-1.661-2.803-1.661-4.724v-.488c0-1.921.55-3.512 1.648-4.773 1.107-1.27 2.491-1.9 4.151-1.892 1.782 0 3.145.541 4.089 1.623.952 1.074 1.428 2.519 1.428 4.334v1.745h-8.239l-.025.061c.049 1.05.354 1.909.916 2.576.569.667 1.355 1.001 2.356 1.001.797 0 1.481-.098 2.05-.293a6.71 6.71 0 001.648-.842l.953 1.941c-.497.439-1.156.809-1.978 1.111-.822.301-1.774.451-2.856.451zm-.342-11.328c-.733 0-1.335.293-1.807.879-.472.578-.765 1.314-.879 2.209l.025.061h5.236v-.305c0-.838-.215-1.522-.647-2.051-.423-.528-1.066-.793-1.928-.793zm21.557 7.483c0-.456-.195-.834-.586-1.135-.39-.301-1.119-.566-2.185-.794-1.578-.333-2.775-.805-3.589-1.416-.805-.618-1.208-1.456-1.208-2.514 0-1.107.468-2.051 1.404-2.832.936-.782 2.169-1.172 3.699-1.172 1.611 0 2.889.398 3.833 1.196.952.789 1.407 1.77 1.367 2.942l-.025.073h-2.844c0-.545-.207-1.013-.622-1.404-.416-.39-.985-.586-1.709-.586-.717 0-1.262.163-1.636.489-.375.317-.562.708-.562 1.172 0 .463.175.834.525 1.11.358.269 1.078.509 2.161.721 1.66.341 2.889.826 3.686 1.452.806.619 1.209 1.465 1.209 2.539 0 1.188-.493 2.153-1.477 2.893-.977.741-2.267 1.111-3.87 1.111-1.717 0-3.072-.439-4.065-1.318-.993-.879-1.465-1.888-1.416-3.028l.025-.073h2.758c.033.765.31 1.323.83 1.673.521.35 1.156.524 1.905.524.765 0 1.355-.146 1.77-.439.415-.293.622-.688.622-1.184zm9.973-1.709l.293 1.318h.074l2.893-9.228h3.247l-5.469 15.21c-.35.919-.842 1.705-1.477 2.356-.635.651-1.534.976-2.698.976-.244 0-.508-.024-.793-.073a11.93 11.93 0 01-.806-.171l.33-2.295.451.037c.196.016.342.024.44.024.537 0 .964-.183 1.282-.549.325-.366.59-.789.793-1.27l.488-1.196-4.797-13.049h3.235l2.514 7.91zm15.711 1.709c0-.456-.195-.834-.586-1.135-.391-.301-1.119-.566-2.185-.794-1.579-.333-2.775-.805-3.589-1.416-.806-.618-1.208-1.456-1.208-2.514 0-1.107.468-2.051 1.403-2.832.936-.782 2.169-1.172 3.699-1.172 1.611 0 2.889.398 3.833 1.196.952.789 1.408 1.77 1.367 2.942l-.024.073h-2.844c0-.545-.208-1.013-.623-1.404-.415-.39-.985-.586-1.709-.586-.716 0-1.261.163-1.636.489-.374.317-.561.708-.561 1.172 0 .463.175.834.525 1.11.358.269 1.078.509 2.16.721 1.661.341 2.889.826 3.687 1.452.806.619 1.208 1.465 1.208 2.539 0 1.188-.492 2.153-1.477 2.893-.976.741-2.266 1.111-3.869 1.111-1.717 0-3.072-.439-4.065-1.318-.993-.879-1.465-1.888-1.416-3.028l.024-.073h2.759c.033.765.309 1.323.83 1.673.521.35 1.156.524 1.904.524.765 0 1.355-.146 1.77-.439.415-.293.623-.688.623-1.184zm9.277-12.83v3.211H253v2.197h-2.368v7.3c0 .545.118.936.354 1.172.236.228.55.342.94.342.163 0 .322-.013.476-.037.155-.033.301-.073.44-.122l.317 2.173a3.263 3.263 0 01-.903.317c-.35.081-.712.122-1.087.122-1.09 0-1.945-.317-2.563-.952-.619-.643-.928-1.648-.928-3.015v-7.3h-2.014v-2.197h2.014v-3.211h2.954zm10.669 16.675c-1.872 0-3.365-.61-4.48-1.831-1.107-1.229-1.66-2.803-1.66-4.724v-.488c0-1.921.549-3.512 1.648-4.773 1.107-1.27 2.49-1.9 4.15-1.892 1.783 0 3.146.541 4.09 1.623.952 1.074 1.428 2.519 1.428 4.334v1.745h-8.24l-.024.061c.049 1.05.354 1.909.915 2.576.57.667 1.355 1.001 2.356 1.001.798 0 1.481-.098 2.051-.293a6.71 6.71 0 001.648-.842l.952 1.941c-.496.439-1.155.809-1.977 1.111-.822.301-1.774.451-2.857.451zm-.342-11.328c-.732 0-1.334.293-1.806.879-.472.578-.765 1.314-.879 2.209l.024.061h5.237v-.305c0-.838-.216-1.522-.647-2.051-.423-.528-1.066-.793-1.929-.793zm10.621-2.136l.158 1.721a4.483 4.483 0 011.624-1.453c.651-.341 1.404-.512 2.258-.512.863 0 1.603.195 2.222.586.618.39 1.082.976 1.391 1.757a4.627 4.627 0 011.612-1.721c.667-.415 1.448-.622 2.343-.622 1.327 0 2.373.455 3.138 1.367.773.903 1.159 2.279 1.159 4.126v7.959h-2.966v-7.971c0-1.123-.195-1.913-.586-2.369-.382-.455-.96-.683-1.733-.683-.635 0-1.172.171-1.612.513-.439.341-.757.801-.952 1.379 0 .122.004.228.012.317.009.09.013.175.013.257v8.557h-2.967v-7.971c0-1.083-.199-1.86-.598-2.332-.39-.48-.968-.72-1.733-.72-.602 0-1.115.118-1.538.354a2.534 2.534 0 00-.989.976v9.693h-2.966V143.62h2.71zm-125.708 25.789v3.211h2.368v2.197h-2.368v7.3c0 .545.118.936.354 1.172.236.228.549.342.939.342.163 0 .322-.013.477-.037.154-.033.301-.073.439-.122l.317 2.173a3.263 3.263 0 01-.903.317c-.35.081-.712.122-1.086.122-1.091 0-1.945-.317-2.564-.952-.618-.643-.928-1.648-.928-3.015v-7.3h-2.014v-2.197h2.014v-3.211h2.955zm10.668 16.675c-1.871 0-3.365-.61-4.479-1.831-1.107-1.229-1.661-2.803-1.661-4.724v-.488c0-1.921.55-3.512 1.648-4.773 1.107-1.27 2.491-1.9 4.151-1.892 1.782 0 3.145.541 4.089 1.623.952 1.074 1.428 2.519 1.428 4.334v1.745h-8.239l-.025.061c.049 1.05.354 1.909.916 2.576.569.667 1.355 1.001 2.356 1.001.797 0 1.481-.098 2.05-.293a6.71 6.71 0 001.648-.842l.952 1.941c-.496.439-1.155.809-1.977 1.111-.822.301-1.774.451-2.857.451zm-.341-11.328c-.733 0-1.335.293-1.807.879-.472.578-.765 1.314-.879 2.209l.025.061h5.236v-.305c0-.838-.215-1.522-.647-2.051-.423-.528-1.066-.793-1.928-.793zm13.366 8.96c.725 0 1.335-.212 1.831-.635.497-.431.745-.968.745-1.611h2.686l.024.073c.041 1.237-.464 2.303-1.514 3.198-1.041.896-2.299 1.343-3.772 1.343-1.945 0-3.438-.626-4.48-1.88-1.033-1.253-1.55-2.84-1.55-4.76v-.428c0-1.912.517-3.495 1.55-4.748 1.042-1.262 2.535-1.892 4.48-1.892 1.587 0 2.873.464 3.858 1.391.993.92 1.473 2.092 1.44 3.516l-.024.073h-2.698c0-.724-.24-1.339-.72-1.843-.472-.505-1.091-.757-1.856-.757-1.115 0-1.904.407-2.368 1.221-.464.805-.696 1.819-.696 3.039v.428c0 1.245.232 2.27.696 3.076.464.797 1.253 1.196 2.368 1.196zm10.608-9.387a4.737 4.737 0 011.599-1.441 4.368 4.368 0 012.1-.512c1.4 0 2.49.443 3.272 1.33.789.879 1.184 2.238 1.184 4.077v8.045h-2.967v-8.069c0-1.042-.207-1.794-.622-2.258-.415-.464-1.038-.696-1.868-.696a3.3 3.3 0 00-1.562.366 3.16 3.16 0 00-1.136.989v9.668h-2.966v-19.043h2.966v7.544zm13.916-1.709l.171 1.904c.432-.675.973-1.2 1.624-1.575.659-.382 1.399-.573 2.221-.573 1.376 0 2.446.419 3.211 1.257.773.83 1.16 2.128 1.16 3.894v8.301h-2.967v-8.277c0-.992-.207-1.696-.622-2.111-.407-.424-1.03-.635-1.868-.635-.578 0-1.095.13-1.55.39-.456.253-.83.603-1.123 1.05v9.583h-2.967V172.62h2.71zm10.926 6.482c0-1.962.537-3.573 1.611-4.834 1.09-1.262 2.567-1.892 4.431-1.892 1.896 0 3.381.63 4.456 1.892 1.082 1.253 1.623 2.864 1.623 4.834v.256c0 1.986-.541 3.605-1.623 4.858-1.075 1.246-2.552 1.868-4.432 1.868-1.888 0-3.373-.626-4.455-1.88-1.074-1.253-1.611-2.868-1.611-4.846v-.256zm2.966.256c0 1.286.252 2.336.757 3.15.496.805 1.277 1.208 2.343 1.208 1.034 0 1.807-.403 2.32-1.208.521-.814.781-1.864.781-3.15v-.256c0-1.262-.26-2.299-.781-3.113-.513-.822-1.294-1.233-2.344-1.233-1.033 0-1.807.411-2.319 1.233-.505.822-.757 1.859-.757 3.113v.256zm14.905 6.47h-2.967v-19.043h2.967v19.043zm2.783-6.726c0-1.962.537-3.573 1.611-4.834 1.091-1.262 2.568-1.892 4.431-1.892 1.897 0 3.382.63 4.456 1.892 1.082 1.253 1.623 2.864 1.623 4.834v.256c0 1.986-.541 3.605-1.623 4.858-1.074 1.246-2.551 1.868-4.431 1.868-1.888 0-3.373-.626-4.456-1.88-1.074-1.253-1.611-2.868-1.611-4.846v-.256zm2.966.256c0 1.286.252 2.336.757 3.15.496.805 1.278 1.208 2.344 1.208 1.033 0 1.806-.403 2.319-1.208.521-.814.781-1.864.781-3.15v-.256c0-1.262-.26-2.299-.781-3.113-.513-.822-1.294-1.233-2.344-1.233-1.033 0-1.806.411-2.319 1.233-.505.822-.757 1.859-.757 3.113v.256zm11.206.049c0-2.1.46-3.796 1.38-5.09.919-1.294 2.197-1.941 3.833-1.941.789 0 1.481.171 2.075.512.602.334 1.111.818 1.526 1.453l.293-1.721h2.466v13.208c0 1.701-.525 3.015-1.575 3.943-1.05.927-2.539 1.391-4.468 1.391a8.638 8.638 0 01-2.087-.28 9.538 9.538 0 01-2.015-.721l.635-2.331a7.06 7.06 0 001.612.586 7.64 7.64 0 001.831.219c1.074 0 1.859-.231 2.356-.695.496-.456.744-1.16.744-2.112v-1.355a4.182 4.182 0 01-1.477 1.208c-.561.269-1.208.403-1.941.403-1.619 0-2.889-.59-3.808-1.77-.92-1.18-1.38-2.73-1.38-4.651v-.256zm2.967.256c0 1.213.24 2.185.72 2.918.488.724 1.241 1.086 2.258 1.086.635 0 1.168-.13 1.599-.39.44-.269.794-.651 1.062-1.148v-5.786a3.093 3.093 0 00-1.074-1.123c-.431-.277-.952-.415-1.562-.415-1.018 0-1.775.427-2.271 1.282-.488.854-.732 1.961-.732 3.32v.256zm14.892 6.165h-2.966V172.62h2.966v13.208zm0-16.443h-2.966v-2.6h2.966v2.6zm8.997 16.699c-1.872 0-3.365-.61-4.48-1.831-1.107-1.229-1.66-2.803-1.66-4.724v-.488c0-1.921.549-3.512 1.648-4.773 1.106-1.27 2.49-1.9 4.15-1.892 1.782 0 3.145.541 4.089 1.623.952 1.074 1.429 2.519 1.429 4.334v1.745h-8.24l-.025.061c.049 1.05.354 1.909.916 2.576.57.667 1.355 1.001 2.356 1.001.797 0 1.481-.098 2.051-.293a6.727 6.727 0 001.648-.842l.952 1.941c-.497.439-1.156.809-1.978 1.111-.822.301-1.774.451-2.856.451zm-.342-11.328c-.732 0-1.335.293-1.807.879-.472.578-.765 1.314-.879 2.209l.025.061h5.237v-.305c0-.838-.216-1.522-.647-2.051-.424-.528-1.066-.793-1.929-.793zm15.332 7.483c0-.456-.195-.834-.586-1.135-.391-.301-1.119-.566-2.185-.794-1.579-.333-2.775-.805-3.589-1.416-.806-.618-1.208-1.456-1.208-2.514 0-1.107.468-2.051 1.403-2.832.936-.782 2.169-1.172 3.699-1.172 1.611 0 2.889.398 3.833 1.196.952.789 1.408 1.77 1.367 2.942l-.024.073h-2.844c0-.545-.208-1.013-.623-1.404-.415-.39-.985-.586-1.709-.586-.716 0-1.261.163-1.636.489-.374.317-.561.708-.561 1.172 0 .463.175.834.525 1.11.358.269 1.078.509 2.16.721 1.661.341 2.889.826 3.687 1.452.806.619 1.208 1.465 1.208 2.539 0 1.188-.492 2.153-1.477 2.893-.976.741-2.266 1.111-3.869 1.111-1.717 0-3.072-.439-4.065-1.318-.993-.879-1.465-1.888-1.416-3.028l.024-.073h2.759c.033.765.309 1.323.83 1.673.521.35 1.156.524 1.904.524.765 0 1.355-.146 1.77-.439.415-.293.623-.688.623-1.184zM444.943 156.828h-2.966v-17.774h2.966v17.774zm6.372-13.208l.171 1.904c.431-.675.972-1.2 1.623-1.575.66-.382 1.4-.573 2.222-.573 1.375 0 2.444.419 3.209 1.257.774.83 1.161 2.128 1.161 3.894v8.301h-2.967v-8.277c0-.992-.207-1.696-.622-2.111-.407-.424-1.029-.635-1.867-.635-.578 0-1.095.13-1.551.39a3.17 3.17 0 00-1.123 1.05v9.583h-2.966V143.62h2.71zm14.16 0l.171 1.904c.431-.675.972-1.2 1.623-1.575.66-.382 1.4-.573 2.222-.573 1.375 0 2.446.419 3.211 1.257.773.83 1.159 2.128 1.159 3.894v8.301h-2.966v-8.277c0-.992-.208-1.696-.623-2.111-.406-.424-1.029-.635-1.867-.635-.578 0-1.095.13-1.551.39a3.172 3.172 0 00-1.124 1.05v9.583h-2.965V143.62h2.71zm10.925 6.482c0-1.962.537-3.573 1.612-4.834 1.09-1.262 2.567-1.892 4.431-1.892 1.896 0 3.381.63 4.455 1.892 1.083 1.253 1.624 2.864 1.624 4.834v.256c0 1.986-.541 3.605-1.624 4.858-1.074 1.246-2.551 1.868-4.431 1.868-1.888 0-3.373-.626-4.455-1.88-1.075-1.253-1.612-2.868-1.612-4.846v-.256zm2.967.256c0 1.286.251 2.336.755 3.15.497.805 1.279 1.208 2.345 1.208 1.034 0 1.806-.403 2.319-1.208.52-.814.782-1.864.782-3.15v-.256c0-1.262-.262-2.299-.782-3.113-.513-.822-1.293-1.233-2.343-1.233-1.034 0-1.808.411-2.321 1.233-.504.822-.755 1.859-.755 3.113v.256zm16.137 2.002l.22 1.074h.073l.232-1.074 2.625-8.74h3.063l-4.687 13.208h-2.576l-4.711-13.208h3.064l2.697 8.74zm15.833 4.468a12.867 12.867 0 01-.269-.977 7.596 7.596 0 01-.134-.952 5.29 5.29 0 01-1.611 1.563c-.659.415-1.4.622-2.222.622-1.375 0-2.433-.354-3.174-1.062-.732-.708-1.098-1.68-1.098-2.917 0-1.278.504-2.271 1.513-2.979 1.009-.716 2.429-1.074 4.26-1.074h2.308v-1.16c0-.691-.204-1.233-.611-1.623-.407-.391-.988-.586-1.746-.586-.676 0-1.213.163-1.612.488a1.552 1.552 0 00-.597 1.257h-2.856l-.012-.073c-.057-1.042.406-1.965 1.391-2.771.993-.805 2.283-1.208 3.87-1.208 1.538 0 2.779.39 3.723 1.172.944.781 1.415 1.904 1.415 3.369v5.871c0 .546.038 1.07.111 1.575.073.496.191.985.354 1.465h-3.003zm-3.638-2.124c.749 0 1.42-.187 2.014-.562.603-.374 1.001-.801 1.197-1.281v-1.954h-2.357c-.863 0-1.537.216-2.026.647-.488.424-.732.924-.732 1.502 0 .504.163.907.488 1.208.334.293.806.44 1.416.44zm12.975-14.295v3.211h2.369v2.197h-2.369v7.3c0 .545.119.936.355 1.172.236.228.55.342.94.342.163 0 .322-.013.476-.037.155-.033.301-.073.44-.122l.317 2.173a3.263 3.263 0 01-.903.317c-.35.081-.713.122-1.088.122-1.09 0-1.945-.317-2.563-.952-.619-.643-.927-1.648-.927-3.015v-7.3h-2.015v-2.197h2.015v-3.211h2.953zm8.167 16.419h-2.966V143.62h2.966v13.208zm0-16.443h-2.966v-2.6h2.966v2.6zm7.922 11.975l.221 1.074h.073l.232-1.074 2.625-8.74h3.063l-4.688 13.208h-2.575l-4.712-13.208h3.063l2.698 8.74zm13.575 4.724c-1.871 0-3.366-.61-4.481-1.831-1.106-1.229-1.659-2.803-1.659-4.724v-.488c0-1.921.55-3.512 1.648-4.773 1.107-1.27 2.49-1.9 4.151-1.892 1.782 0 3.145.541 4.089 1.623.952 1.074 1.427 2.519 1.427 4.334v1.745h-8.24l-.023.061c.049 1.05.353 1.909.914 2.576.57.667 1.356 1.001 2.357 1.001.798 0 1.482-.098 2.051-.293a6.703 6.703 0 001.647-.842l.953 1.941c-.496.439-1.155.809-1.977 1.111-.822.301-1.774.451-2.857.451zm-.341-11.328c-.733 0-1.335.293-1.807.879-.472.578-.766 1.314-.88 2.209l.025.061h5.237v-.305c0-.838-.216-1.522-.648-2.051-.422-.528-1.065-.793-1.927-.793zm-108.362 37.96c.724 0 1.334-.212 1.831-.635.496-.431.744-.968.744-1.611h2.686l.024.073c.041 1.237-.464 2.303-1.513 3.198-1.042.896-2.299 1.343-3.772 1.343-1.945 0-3.439-.626-4.48-1.88-1.034-1.253-1.551-2.84-1.551-4.76v-.428c0-1.912.517-3.495 1.551-4.748 1.041-1.262 2.535-1.892 4.48-1.892 1.587 0 2.872.464 3.857 1.391.993.92 1.473 2.092 1.441 3.516l-.025.073h-2.698c0-.724-.24-1.339-.72-1.843-.472-.505-1.09-.757-1.855-.757-1.115 0-1.905.407-2.368 1.221-.464.805-.696 1.819-.696 3.039v.428c0 1.245.232 2.27.696 3.076.463.797 1.253 1.196 2.368 1.196zm7.129-4.614c0-1.962.537-3.573 1.611-4.834 1.09-1.262 2.567-1.892 4.431-1.892 1.896 0 3.381.63 4.456 1.892 1.082 1.253 1.623 2.864 1.623 4.834v.256c0 1.986-.541 3.605-1.623 4.858-1.075 1.246-2.552 1.868-4.431 1.868-1.889 0-3.374-.626-4.456-1.88-1.074-1.253-1.611-2.868-1.611-4.846v-.256zm2.966.256c0 1.286.252 2.336.757 3.15.496.805 1.277 1.208 2.344 1.208 1.033 0 1.806-.403 2.319-1.208.521-.814.781-1.864.781-3.15v-.256c0-1.262-.26-2.299-.781-3.113-.513-.822-1.294-1.233-2.344-1.233-1.033 0-1.807.411-2.319 1.233-.505.822-.757 1.859-.757 3.113v.256zm14.453-6.738l.159 1.721a4.472 4.472 0 011.623-1.453c.651-.341 1.404-.512 2.259-.512.862 0 1.603.195 2.221.586.619.39 1.083.976 1.392 1.757a4.632 4.632 0 011.611-1.721c.668-.415 1.449-.622 2.344-.622 1.326 0 2.371.455 3.136 1.367.773.903 1.161 2.279 1.161 4.126v7.959h-2.967v-7.971c0-1.123-.196-1.913-.586-2.369-.383-.455-.96-.683-1.733-.683-.635 0-1.173.171-1.612.513-.44.341-.756.801-.951 1.379 0 .122.004.228.012.317.008.09.012.175.012.257v8.557h-2.966v-7.971c0-1.083-.2-1.86-.598-2.332-.391-.48-.969-.72-1.734-.72-.602 0-1.115.118-1.538.354a2.54 2.54 0 00-.989.976v9.693h-2.966V172.62h2.71zm21.753 0l.159 1.721a4.47 4.47 0 011.622-1.453c.651-.341 1.405-.512 2.26-.512.862 0 1.603.195 2.221.586.619.39 1.083.976 1.392 1.757a4.632 4.632 0 011.611-1.721c.667-.415 1.449-.622 2.344-.622 1.326 0 2.372.455 3.137 1.367.773.903 1.16 2.279 1.16 4.126v7.959h-2.967v-7.971c0-1.123-.195-1.913-.585-2.369-.383-.455-.961-.683-1.734-.683-.635 0-1.172.171-1.611.513-.44.341-.757.801-.952 1.379 0 .122.004.228.012.317.008.09.012.175.012.257v8.557h-2.966v-7.971c0-1.083-.2-1.86-.598-2.332-.391-.48-.969-.72-1.734-.72-.602 0-1.115.118-1.538.354a2.537 2.537 0 00-.99.976v9.693h-2.965V172.62h2.71zm27.27 11.279c-.415.7-.939 1.241-1.574 1.624-.635.374-1.367.561-2.197.561-1.416 0-2.523-.451-3.321-1.355-.797-.903-1.196-2.307-1.196-4.211v-7.898h2.954v7.922c0 1.156.187 1.966.562 2.429.374.464.939.696 1.696.696.716 0 1.314-.126 1.794-.378a2.827 2.827 0 001.148-1.123v-9.546h2.967v13.208h-2.588l-.245-1.929zm8.619-11.279l.17 1.904c.431-.675.973-1.2 1.624-1.575.659-.382 1.4-.573 2.222-.573 1.375 0 2.445.419 3.21 1.257.773.83 1.16 2.128 1.16 3.894v8.301h-2.966v-8.277c0-.992-.208-1.696-.623-2.111-.407-.424-1.029-.635-1.868-.635-.577 0-1.095.13-1.551.39a3.158 3.158 0 00-1.122 1.05v9.583h-2.966V172.62h2.71zm14.636 13.208h-2.966V172.62h2.966v13.208zm0-16.443h-2.966v-2.6h2.966v2.6zm7.018.024v3.211h2.369v2.197h-2.369v7.3c0 .545.118.936.354 1.172.236.228.549.342.94.342.164 0 .322-.013.477-.037.155-.033.301-.073.439-.122l.318 2.173a3.27 3.27 0 01-.904.317 4.795 4.795 0 01-1.086.122c-1.09 0-1.946-.317-2.564-.952-.619-.643-.927-1.648-.927-3.015v-7.3h-2.014v-2.197h2.014v-3.211h2.953zm9.388 11.121l.292 1.318h.073l2.893-9.228h3.247l-5.467 15.21a6.801 6.801 0 01-1.478 2.356c-.635.651-1.534.976-2.698.976-.244 0-.509-.024-.794-.073a11.9 11.9 0 01-.805-.171l.33-2.295.451.037c.195.016.343.024.441.024.537 0 .964-.183 1.281-.549.326-.366.59-.789.794-1.27l.487-1.196-4.797-13.049h3.235l2.515 7.91zM758.198 150.932l.024.073c.033 1.799-.553 3.263-1.758 4.395-1.196 1.123-2.82 1.684-4.87 1.684-2.076 0-3.764-.696-5.066-2.087-1.294-1.4-1.941-3.186-1.941-5.359v-3.381c0-2.165.639-3.947 1.916-5.347 1.286-1.408 2.954-2.112 5.005-2.112 2.1 0 3.752.553 4.956 1.66 1.213 1.099 1.803 2.58 1.77 4.444l-.024.073h-2.869c0-1.196-.325-2.128-.976-2.796-.643-.667-1.595-1.001-2.857-1.001-1.212 0-2.177.481-2.893 1.441-.708.96-1.062 2.165-1.062 3.613v3.406c0 1.465.362 2.677 1.087 3.638.732.96 1.717 1.44 2.954 1.44 1.229 0 2.16-.33 2.795-.989.635-.659.952-1.591.952-2.795h2.857zm5.713 5.896h-2.967v-19.043h2.967v19.043zm11.279 0a12.867 12.867 0 01-.269-.977 7.596 7.596 0 01-.134-.952 5.29 5.29 0 01-1.611 1.563c-.659.415-1.4.622-2.222.622-1.375 0-2.433-.354-3.174-1.062-.732-.708-1.098-1.68-1.098-2.917 0-1.278.504-2.271 1.513-2.979 1.009-.716 2.429-1.074 4.26-1.074h2.308v-1.16c0-.691-.204-1.233-.611-1.623-.407-.391-.988-.586-1.745-.586-.676 0-1.213.163-1.612.488a1.553 1.553 0 00-.598 1.257h-2.856l-.012-.073c-.057-1.042.406-1.965 1.391-2.771.993-.805 2.283-1.208 3.87-1.208 1.538 0 2.779.39 3.723 1.172.944.781 1.416 1.904 1.416 3.369v5.871c0 .546.037 1.07.11 1.575.073.496.191.985.354 1.465h-3.003zm-3.638-2.124c.749 0 1.42-.187 2.014-.562.603-.374 1.001-.801 1.197-1.281v-1.954h-2.356c-.863 0-1.538.216-2.027.647-.488.424-.732.924-.732 1.502 0 .504.163.907.488 1.208.334.293.806.44 1.416.44zm16.712-1.465c0-.456-.196-.834-.586-1.135-.391-.301-1.119-.566-2.185-.794-1.579-.333-2.775-.805-3.589-1.416-.806-.618-1.209-1.456-1.209-2.514 0-1.107.468-2.051 1.404-2.832.936-.782 2.169-1.172 3.699-1.172 1.611 0 2.889.398 3.833 1.196.952.789 1.408 1.77 1.367 2.942l-.024.073h-2.845c0-.545-.207-1.013-.622-1.404-.415-.39-.985-.586-1.709-.586-.716 0-1.262.163-1.636.489-.374.317-.561.708-.561 1.172 0 .463.174.834.524 1.11.358.269 1.079.509 2.161.721 1.66.341 2.889.826 3.687 1.452.805.619 1.208 1.465 1.208 2.539 0 1.188-.492 2.153-1.477 2.893-.977.741-2.266 1.111-3.87 1.111-1.717 0-3.072-.439-4.065-1.318-.992-.879-1.464-1.888-1.416-3.028l.025-.073h2.759c.032.765.309 1.323.83 1.673.521.35 1.155.524 1.904.524.765 0 1.355-.146 1.77-.439.415-.293.623-.688.623-1.184zm13.012 0c0-.456-.195-.834-.586-1.135-.39-.301-1.119-.566-2.185-.794-1.578-.333-2.775-.805-3.589-1.416-.805-.618-1.208-1.456-1.208-2.514 0-1.107.468-2.051 1.404-2.832.936-.782 2.169-1.172 3.698-1.172 1.612 0 2.889.398 3.833 1.196.953.789 1.408 1.77 1.368 2.942l-.025.073h-2.844c0-.545-.207-1.013-.623-1.404-.415-.39-.984-.586-1.709-.586-.716 0-1.261.163-1.635.489-.375.317-.562.708-.562 1.172 0 .463.175.834.525 1.11.358.269 1.078.509 2.161.721 1.66.341 2.889.826 3.686 1.452.806.619 1.209 1.465 1.209 2.539 0 1.188-.493 2.153-1.477 2.893-.977.741-2.267 1.111-3.87 1.111-1.717 0-3.072-.439-4.065-1.318-.993-.879-1.465-1.888-1.416-3.028l.025-.073h2.758c.033.765.31 1.323.83 1.673.521.35 1.156.524 1.905.524.765 0 1.355-.146 1.77-.439.415-.293.622-.688.622-1.184zm8.753 3.589h-2.967V143.62h2.967v13.208zm0-16.443h-2.967v-2.6h2.967v2.6zm8.789 14.331c.724 0 1.334-.212 1.831-.635.496-.431.744-.968.744-1.611h2.686l.024.073c.041 1.237-.463 2.303-1.513 3.198-1.042.896-2.299 1.343-3.772 1.343-1.945 0-3.439-.626-4.48-1.88-1.034-1.253-1.55-2.84-1.55-4.76v-.428c0-1.912.516-3.495 1.55-4.748 1.041-1.262 2.535-1.892 4.48-1.892 1.587 0 2.873.464 3.857 1.391.993.92 1.473 2.092 1.441 3.516l-.025.073h-2.698c0-.724-.24-1.339-.72-1.843-.472-.505-1.09-.757-1.855-.757-1.115 0-1.904.407-2.368 1.221-.464.805-.696 1.819-.696 3.039v.428c0 1.245.232 2.27.696 3.076.464.797 1.253 1.196 2.368 1.196zm-84.668 25.216l.024.073c.033 1.799-.553 3.263-1.758 4.395-1.196 1.123-2.819 1.684-4.87 1.684-2.075 0-3.764-.696-5.066-2.087-1.294-1.4-1.941-3.186-1.941-5.359v-3.381c0-2.165.639-3.947 1.916-5.347 1.286-1.408 2.955-2.112 5.005-2.112 2.1 0 3.752.553 4.956 1.66 1.213 1.099 1.803 2.58 1.77 4.444l-.024.073h-2.869c0-1.196-.325-2.128-.976-2.796-.643-.667-1.595-1.001-2.857-1.001-1.212 0-2.177.481-2.893 1.441-.708.96-1.062 2.165-1.062 3.613v3.406c0 1.465.362 2.677 1.087 3.638.732.96 1.717 1.44 2.954 1.44 1.229 0 2.16-.33 2.795-.989.635-.659.952-1.591.952-2.795h2.857zm2.002-.83c0-1.962.537-3.573 1.611-4.834 1.091-1.262 2.568-1.892 4.431-1.892 1.896 0 3.382.63 4.456 1.892 1.082 1.253 1.623 2.864 1.623 4.834v.256c0 1.986-.541 3.605-1.623 4.858-1.074 1.246-2.551 1.868-4.431 1.868-1.888 0-3.374-.626-4.456-1.88-1.074-1.253-1.611-2.868-1.611-4.846v-.256zm2.966.256c0 1.286.252 2.336.757 3.15.496.805 1.278 1.208 2.344 1.208 1.033 0 1.806-.403 2.319-1.208.521-.814.781-1.864.781-3.15v-.256c0-1.262-.26-2.299-.781-3.113-.513-.822-1.294-1.233-2.344-1.233-1.033 0-1.806.411-2.319 1.233-.505.822-.757 1.859-.757 3.113v.256zm14.453-6.738l.159 1.721a4.472 4.472 0 011.623-1.453c.651-.341 1.404-.512 2.259-.512.862 0 1.603.195 2.221.586.619.39 1.083.976 1.392 1.757a4.632 4.632 0 011.611-1.721c.668-.415 1.449-.622 2.344-.622 1.327 0 2.372.455 3.137 1.367.773.903 1.16 2.279 1.16 4.126v7.959h-2.966v-7.971c0-1.123-.196-1.913-.586-2.369-.383-.455-.961-.683-1.734-.683-.634 0-1.172.171-1.611.513-.439.341-.757.801-.952 1.379 0 .122.004.228.012.317.008.09.012.175.012.257v8.557h-2.966v-7.971c0-1.083-.199-1.86-.598-2.332-.391-.48-.969-.72-1.734-.72-.602 0-1.114.118-1.538.354a2.532 2.532 0 00-.988.976v9.693h-2.967V172.62h2.71zm21.753 0l.159 1.721a4.472 4.472 0 011.623-1.453c.651-.341 1.404-.512 2.259-.512.862 0 1.603.195 2.221.586.619.39 1.083.976 1.392 1.757a4.632 4.632 0 011.611-1.721c.668-.415 1.449-.622 2.344-.622 1.327 0 2.372.455 3.137 1.367.773.903 1.16 2.279 1.16 4.126v7.959h-2.966v-7.971c0-1.123-.196-1.913-.586-2.369-.383-.455-.961-.683-1.734-.683-.634 0-1.172.171-1.611.513-.44.341-.757.801-.952 1.379 0 .122.004.228.012.317.008.09.012.175.012.257v8.557h-2.966v-7.971c0-1.083-.199-1.86-.598-2.332-.391-.48-.969-.72-1.734-.72-.602 0-1.115.118-1.538.354a2.54 2.54 0 00-.989.976v9.693h-2.966V172.62h2.71zm27.271 11.279c-.415.7-.94 1.241-1.575 1.624-.635.374-1.367.561-2.197.561-1.416 0-2.523-.451-3.321-1.355-.797-.903-1.196-2.307-1.196-4.211v-7.898h2.954v7.922c0 1.156.187 1.966.562 2.429.374.464.94.696 1.696.696.717 0 1.315-.126 1.795-.378a2.824 2.824 0 001.147-1.123v-9.546h2.967v13.208h-2.588l-.244-1.929zm8.618-11.279l.171 1.904c.431-.675.972-1.2 1.623-1.575.659-.382 1.4-.573 2.222-.573 1.375 0 2.445.419 3.21 1.257.773.83 1.16 2.128 1.16 3.894v8.301h-2.966v-8.277c0-.992-.208-1.696-.623-2.111-.407-.424-1.029-.635-1.867-.635-.578 0-1.095.13-1.551.39-.456.253-.83.603-1.123 1.05v9.583h-2.966V172.62h2.71zm14.636 13.208h-2.966V172.62h2.966v13.208zm0-16.443h-2.966v-2.6h2.966v2.6zm7.019.024v3.211h2.368v2.197h-2.368v7.3c0 .545.118.936.354 1.172.236.228.549.342.94.342a3.1 3.1 0 00.476-.037c.155-.033.301-.073.44-.122l.317 2.173a3.263 3.263 0 01-.903.317c-.35.081-.712.122-1.087.122-1.09 0-1.945-.317-2.563-.952-.619-.643-.928-1.648-.928-3.015v-7.3H827.9v-2.197h2.014v-3.211h2.954zm9.387 11.121l.293 1.318h.074l2.893-9.228h3.247l-5.469 15.21c-.35.919-.842 1.705-1.477 2.356-.635.651-1.534.976-2.698.976-.244 0-.509-.024-.793-.073a11.8 11.8 0 01-.806-.171l.33-2.295.451.037c.196.016.342.024.44.024.537 0 .964-.183 1.281-.549.326-.366.59-.789.794-1.27l.488-1.196-4.797-13.049h3.235l2.514 7.91z" fill="#fff"/><path d="M251.015 375.988H28.566a5 5 0 00-5 5v122.828a5 5 0 005 5h222.449a5 5 0 005-5V380.988a5 5 0 00-5-5z" fill="#2A365C"/><path d="M87.082 429.045h-6.957l-1.416 4.15h-3.004l6.531-17.773h2.808l6.457 17.773h-3.015l-1.404-4.15zm-6.103-2.478h5.261l-2.575-7.593h-.074l-2.612 7.593zm11.67.207c0-2.099.46-3.796 1.38-5.09.919-1.294 2.197-1.941 3.832-1.941.79 0 1.481.171 2.075.513.603.334 1.112.818 1.527 1.453l.293-1.722h2.466v13.208c0 1.701-.525 3.016-1.575 3.943-1.05.928-2.539 1.392-4.468 1.392a8.65 8.65 0 01-2.088-.281 9.467 9.467 0 01-2.014-.72l.635-2.332a6.951 6.951 0 001.611.586c.594.147 1.205.22 1.831.22 1.075 0 1.86-.232 2.357-.696.496-.456.744-1.159.744-2.112v-1.355a4.195 4.195 0 01-1.477 1.209c-.562.268-1.209.403-1.941.403-1.62 0-2.89-.59-3.809-1.77-.92-1.18-1.38-2.731-1.38-4.651v-.257zm2.966.257c0 1.212.24 2.185.72 2.917.489.725 1.242 1.087 2.259 1.087.635 0 1.168-.13 1.599-.391.44-.268.794-.651 1.062-1.147v-5.786a3.088 3.088 0 00-1.074-1.124c-.432-.276-.953-.415-1.563-.415-1.017 0-1.774.428-2.27 1.282-.489.855-.733 1.961-.733 3.32v.257zm14.893 6.164h-2.966v-13.208h2.966v13.208zm0-16.442h-2.966v-2.601h2.966v2.601zm6.494 16.442h-2.966v-19.043h2.966v19.043zm8.997.257c-1.872 0-3.365-.611-4.48-1.831-1.107-1.229-1.66-2.804-1.66-4.724v-.489c0-1.92.549-3.511 1.648-4.773 1.107-1.269 2.49-1.9 4.15-1.892 1.782 0 3.146.541 4.09 1.624.952 1.074 1.428 2.518 1.428 4.333v1.746h-8.24l-.024.061c.048 1.05.354 1.908.915 2.576.57.667 1.355 1.001 2.356 1.001.798 0 1.481-.098 2.051-.293a6.713 6.713 0 001.648-.843l.952 1.941c-.496.44-1.156.81-1.978 1.111-.821.301-1.774.452-2.856.452zm-.342-11.328c-.732 0-1.334.293-1.806.879-.472.577-.765 1.314-.879 2.209l.024.061h5.237v-.305c0-.838-.216-1.522-.647-2.051-.423-.529-1.066-.793-1.929-.793zm9.094 12.597h-2.722l6.995-19.299h2.722l-6.995 19.299zm18.641-3.894h8.166v2.368h-11.133v-17.773h2.967v15.405zm15.844 2.625c-1.871 0-3.365-.611-4.48-1.831-1.106-1.229-1.66-2.804-1.66-4.724v-.489c0-1.92.549-3.511 1.648-4.773 1.107-1.269 2.49-1.9 4.151-1.892 1.782 0 3.145.541 4.089 1.624.952 1.074 1.428 2.518 1.428 4.333v1.746h-8.24l-.024.061c.049 1.05.354 1.908.915 2.576.57.667 1.355 1.001 2.356 1.001.798 0 1.482-.098 2.051-.293a6.713 6.713 0 001.648-.843l.952 1.941c-.496.44-1.155.81-1.977 1.111-.822.301-1.774.452-2.857.452zm-.341-11.328c-.733 0-1.335.293-1.807.879-.472.577-.765 1.314-.879 2.209l.024.061h5.237v-.305c0-.838-.215-1.522-.647-2.051-.423-.529-1.066-.793-1.928-.793zm15.856 11.071a12.828 12.828 0 01-.268-.976 7.622 7.622 0 01-.134-.952 5.28 5.28 0 01-1.612 1.562 4.08 4.08 0 01-2.221.623c-1.376 0-2.434-.354-3.174-1.062-.733-.708-1.099-1.681-1.099-2.918 0-1.277.505-2.27 1.514-2.978 1.009-.716 2.429-1.075 4.26-1.075h2.307v-1.159c0-.692-.203-1.233-.61-1.624-.407-.39-.989-.586-1.746-.586-.675 0-1.212.163-1.611.489a1.547 1.547 0 00-.598 1.257h-2.857l-.012-.073c-.057-1.042.407-1.966 1.392-2.771.993-.806 2.282-1.209 3.869-1.209 1.538 0 2.779.391 3.723 1.172.944.781 1.417 1.904 1.417 3.369v5.872c0 .545.036 1.07.109 1.575.074.496.192.984.354 1.464h-3.003zm-3.637-2.124c.748 0 1.42-.187 2.014-.561.602-.375 1.001-.802 1.196-1.282v-1.953h-2.356c-.862 0-1.538.216-2.026.647-.488.423-.733.924-.733 1.501 0 .505.163.908.489 1.209.333.293.805.439 1.416.439zm11.975-11.084l.171 1.905a4.677 4.677 0 011.623-1.575c.659-.383 1.4-.574 2.222-.574 1.375 0 2.445.419 3.21 1.258.774.83 1.16 2.128 1.16 3.894v8.3h-2.966v-8.276c0-.993-.208-1.697-.623-2.112-.407-.423-1.029-.635-1.867-.635-.578 0-1.095.131-1.551.391-.455.252-.83.602-1.123 1.05v9.582h-2.966v-13.208h2.71zm-122.29 24.435l5.114 13.672h.073l5.127-13.672h3.846v17.773h-2.967v-6.054l.293-7.703-.073-.012-5.274 13.769h-1.99L69.7 448.462l-.074.013.293 7.666v6.054h-2.966v-17.773h3.845zm25.622 17.773a12.61 12.61 0 01-.269-.976 7.68 7.68 0 01-.134-.952 5.284 5.284 0 01-1.611 1.562c-.66.415-1.4.623-2.222.623-1.375 0-2.433-.354-3.174-1.062-.732-.708-1.098-1.681-1.098-2.918 0-1.277.504-2.27 1.513-2.978 1.01-.716 2.43-1.075 4.26-1.075h2.308v-1.159c0-.692-.204-1.233-.61-1.624-.408-.39-.99-.586-1.746-.586-.676 0-1.213.163-1.612.489a1.548 1.548 0 00-.598 1.257h-2.856l-.013-.073c-.056-1.042.407-1.966 1.392-2.771.993-.806 2.283-1.209 3.87-1.209 1.538 0 2.779.391 3.723 1.172.944.781 1.416 1.904 1.416 3.369v5.872c0 .545.037 1.07.11 1.575.073.496.191.984.354 1.464H96.42zm-3.638-2.124c.749 0 1.42-.187 2.014-.561.603-.375 1.001-.802 1.197-1.282v-1.953h-2.356c-.863 0-1.538.216-2.027.647-.488.423-.732.924-.732 1.501 0 .505.163.908.488 1.209.334.293.806.439 1.416.439zm11.976-11.084l.171 1.905a4.677 4.677 0 011.623-1.575c.659-.383 1.4-.574 2.222-.574 1.375 0 2.445.419 3.21 1.258.773.83 1.16 2.128 1.16 3.894v8.3h-2.966v-8.276c0-.993-.208-1.697-.623-2.112-.407-.423-1.029-.635-1.868-.635-.577 0-1.094.131-1.55.391-.456.252-.83.602-1.123 1.05v9.582h-2.966v-13.208h2.71zm19.421 13.208a12.38 12.38 0 01-.268-.976 7.625 7.625 0 01-.135-.952 5.288 5.288 0 01-1.611 1.562c-.659.415-1.4.623-2.222.623-1.375 0-2.433-.354-3.174-1.062-.732-.708-1.098-1.681-1.098-2.918 0-1.277.504-2.27 1.514-2.978 1.009-.716 2.429-1.075 4.26-1.075h2.307v-1.159c0-.692-.204-1.233-.61-1.624-.407-.39-.989-.586-1.746-.586-.676 0-1.213.163-1.611.489a1.548 1.548 0 00-.599 1.257h-2.856l-.012-.073c-.057-1.042.407-1.966 1.391-2.771.993-.806 2.283-1.209 3.87-1.209 1.538 0 2.779.391 3.723 1.172.944.781 1.416 1.904 1.416 3.369v5.872a11 11 0 00.11 1.575c.073.496.191.984.354 1.464h-3.003zm-3.638-2.124c.749 0 1.421-.187 2.015-.561.602-.375 1.001-.802 1.196-1.282v-1.953h-2.356c-.863 0-1.538.216-2.026.647-.489.423-.733.924-.733 1.501 0 .505.163.908.488 1.209.334.293.806.439 1.416.439zm8.753-4.297c0-2.099.46-3.796 1.379-5.09.92-1.294 2.198-1.941 3.833-1.941.79 0 1.481.171 2.075.513.603.334 1.111.818 1.526 1.453l.293-1.722h2.466v13.208c0 1.701-.525 3.016-1.575 3.943-1.049.928-2.539 1.392-4.467 1.392a8.657 8.657 0 01-2.088-.281 9.473 9.473 0 01-2.014-.72l.635-2.332a6.942 6.942 0 001.611.586c.594.147 1.205.22 1.831.22 1.074 0 1.86-.232 2.356-.696.497-.456.745-1.159.745-2.112v-1.355a4.205 4.205 0 01-1.477 1.209c-.562.268-1.209.403-1.941.403-1.62 0-2.889-.59-3.809-1.77-.919-1.18-1.379-2.731-1.379-4.651v-.257zm2.966.257c0 1.212.24 2.185.72 2.917.489.725 1.241 1.087 2.259 1.087.634 0 1.168-.13 1.599-.391a2.963 2.963 0 001.062-1.147v-5.786a3.105 3.105 0 00-1.074-1.124c-.432-.276-.953-.415-1.563-.415-1.017 0-1.774.428-2.27 1.282-.489.855-.733 1.961-.733 3.32v.257zm17.395 6.421c-1.872 0-3.365-.611-4.48-1.831-1.107-1.229-1.66-2.804-1.66-4.724v-.489c0-1.92.549-3.511 1.648-4.773 1.107-1.269 2.49-1.9 4.15-1.892 1.783 0 3.146.541 4.09 1.624.952 1.074 1.428 2.518 1.428 4.333v1.746h-8.24l-.024.061c.049 1.05.354 1.908.915 2.576.57.667 1.355 1.001 2.356 1.001.798 0 1.481-.098 2.051-.293a6.713 6.713 0 001.648-.843l.952 1.941c-.496.44-1.155.81-1.977 1.111-.822.301-1.774.452-2.857.452zm-.342-11.328c-.732 0-1.334.293-1.806.879-.472.577-.765 1.314-.879 2.209l.024.061h5.237v-.305c0-.838-.216-1.522-.647-2.051-.423-.529-1.066-.793-1.929-.793zm10.621-2.137l.158 1.722a4.483 4.483 0 011.624-1.453c.651-.342 1.404-.513 2.258-.513.863 0 1.603.196 2.222.586.618.391 1.082.977 1.391 1.758a4.627 4.627 0 011.612-1.721c.667-.415 1.448-.623 2.343-.623 1.327 0 2.373.456 3.138 1.367.773.904 1.159 2.279 1.159 4.126v7.959h-2.966v-7.971c0-1.123-.195-1.912-.586-2.368-.382-.456-.96-.684-1.733-.684-.635 0-1.172.171-1.612.513-.439.342-.756.802-.952 1.38 0 .122.004.227.012.317.009.089.013.175.013.256v8.557h-2.967v-7.971c0-1.082-.199-1.859-.598-2.331-.39-.481-.968-.721-1.733-.721-.602 0-1.115.118-1.538.354a2.537 2.537 0 00-.989.977v9.692h-2.966v-13.208h2.71zm24.707 13.465c-1.872 0-3.365-.611-4.48-1.831-1.107-1.229-1.661-2.804-1.661-4.724v-.489c0-1.92.55-3.511 1.648-4.773 1.107-1.269 2.491-1.9 4.151-1.892 1.782 0 3.145.541 4.089 1.624.952 1.074 1.428 2.518 1.428 4.333v1.746h-8.239l-.025.061c.049 1.05.354 1.908.916 2.576.569.667 1.355 1.001 2.356 1.001.797 0 1.481-.098 2.05-.293a6.713 6.713 0 001.648-.843l.953 1.941c-.497.44-1.156.81-1.978 1.111-.822.301-1.774.452-2.856.452zm-.342-11.328c-.733 0-1.335.293-1.807.879-.472.577-.765 1.314-.879 2.209l.025.061h5.236v-.305c0-.838-.215-1.522-.647-2.051-.423-.529-1.066-.793-1.928-.793zm10.595-2.137l.171 1.905a4.688 4.688 0 011.624-1.575c.659-.383 1.4-.574 2.222-.574 1.375 0 2.445.419 3.21 1.258.773.83 1.16 2.128 1.16 3.894v8.3h-2.967v-8.276c0-.993-.207-1.697-.622-2.112-.407-.423-1.03-.635-1.868-.635-.578 0-1.094.131-1.55.391-.456.252-.83.602-1.123 1.05v9.582h-2.966v-13.208h2.709zm15.162-3.21v3.21h2.368v2.198h-2.368v7.299c0 .546.118.936.354 1.172.236.228.549.342.94.342.162 0 .321-.012.476-.037.154-.032.301-.073.439-.122l.317 2.173a3.263 3.263 0 01-.903.318c-.35.081-.712.122-1.086.122-1.091 0-1.945-.318-2.564-.952-.618-.643-.927-1.648-.927-3.016v-7.299h-2.015v-2.198h2.015v-3.21h2.954z" fill="#fff"/><path d="M495.248 375.988H272.799a5 5 0 00-5 5v122.828a5 5 0 005 5h222.449a5 5 0 005-5V380.988a5 5 0 00-5-5z" fill="#2A365C"/><path d="M320.464 413.603v6.738h-2.966v-17.773h6.946c1.961 0 3.495.508 4.602 1.526 1.115 1.009 1.672 2.339 1.672 3.991 0 1.668-.557 3.007-1.672 4.016-1.107 1.001-2.641 1.502-4.602 1.502h-3.98zm0-2.381h3.98c1.098 0 1.924-.293 2.478-.878.553-.586.83-1.331.83-2.234 0-.904-.277-1.656-.83-2.259-.554-.602-1.38-.903-2.478-.903h-3.98v6.274zm19.397-1.416l-1.269-.048c-.578 0-1.062.122-1.453.366-.382.244-.679.59-.891 1.037v9.18h-2.966v-13.208h2.71l.195 1.917c.334-.676.761-1.205 1.282-1.587a3.021 3.021 0 011.819-.574c.179 0 .345.016.5.049.155.024.297.057.427.097l-.354 2.771zm1.538 3.809c0-1.961.537-3.573 1.612-4.834 1.09-1.261 2.567-1.892 4.431-1.892 1.896 0 3.381.631 4.455 1.892 1.083 1.253 1.624 2.865 1.624 4.834v.256c0 1.986-.541 3.605-1.624 4.859-1.074 1.245-2.551 1.867-4.431 1.867-1.888 0-3.373-.626-4.455-1.879-1.075-1.254-1.612-2.869-1.612-4.847v-.256zm2.967.256c0 1.286.252 2.336.756 3.15.497.805 1.278 1.208 2.344 1.208 1.034 0 1.807-.403 2.32-1.208.52-.814.781-1.864.781-3.15v-.256c0-1.261-.261-2.299-.781-3.113-.513-.822-1.294-1.233-2.344-1.233-1.034 0-1.807.411-2.32 1.233-.504.822-.756 1.86-.756 3.113v.256zm16.137 2.002l.22 1.075h.073l.232-1.075 2.625-8.74h3.064l-4.688 13.208h-2.575l-4.712-13.208h3.064l2.697 8.74zm11.243 4.468h-2.966v-13.208h2.966v13.208zm0-16.443h-2.966v-2.6h2.966v2.6zm10.754 12.854c0-.456-.195-.834-.586-1.135-.39-.301-1.118-.566-2.185-.794-1.578-.333-2.775-.805-3.588-1.416-.806-.618-1.209-1.456-1.209-2.514 0-1.107.468-2.051 1.404-2.832.936-.781 2.169-1.172 3.699-1.172 1.611 0 2.889.399 3.833 1.196.952.79 1.407 1.77 1.367 2.942l-.025.073h-2.844c0-.545-.207-1.013-.622-1.403-.415-.391-.985-.586-1.709-.586-.717 0-1.262.162-1.636.488-.374.317-.562.708-.562 1.172 0 .464.175.834.525 1.111.358.268 1.079.508 2.161.72 1.66.342 2.889.826 3.686 1.452.806.619 1.209 1.465 1.209 2.54 0 1.188-.492 2.152-1.477 2.893-.977.74-2.267 1.11-3.87 1.11-1.717 0-3.072-.439-4.065-1.318-.993-.879-1.465-1.888-1.416-3.027l.025-.074h2.758c.033.765.31 1.323.831 1.673.52.35 1.155.525 1.904.525.765 0 1.355-.147 1.77-.44.415-.293.622-.687.622-1.184zm8.753 3.589h-2.966v-13.208h2.966v13.208zm0-16.443h-2.966v-2.6h2.966v2.6zm2.783 9.717c0-1.961.537-3.573 1.611-4.834 1.091-1.261 2.568-1.892 4.432-1.892 1.896 0 3.381.631 4.455 1.892 1.082 1.253 1.624 2.865 1.624 4.834v.256c0 1.986-.542 3.605-1.624 4.859-1.074 1.245-2.551 1.867-4.431 1.867-1.888 0-3.373-.626-4.456-1.879-1.074-1.254-1.611-2.869-1.611-4.847v-.256zm2.966.256c0 1.286.253 2.336.757 3.15.497.805 1.278 1.208 2.344 1.208 1.033 0 1.807-.403 2.319-1.208.521-.814.782-1.864.782-3.15v-.256c0-1.261-.261-2.299-.782-3.113-.512-.822-1.294-1.233-2.343-1.233-1.034 0-1.807.411-2.32 1.233-.504.822-.757 1.86-.757 3.113v.256zm14.429-6.738l.171 1.904c.431-.675.972-1.2 1.624-1.574.659-.383 1.399-.574 2.221-.574 1.376 0 2.446.419 3.211 1.257.773.83 1.159 2.128 1.159 3.894v8.301h-2.966v-8.276c0-.993-.208-1.697-.623-2.112-.406-.423-1.029-.635-1.867-.635-.578 0-1.095.13-1.551.391-.455.252-.83.602-1.123 1.05v9.582h-2.966v-13.208h2.71zm14.636 13.208h-2.966v-13.208h2.966v13.208zm0-16.443h-2.966v-2.6h2.966v2.6zm6.018 3.235l.171 1.904c.432-.675.973-1.2 1.624-1.574.659-.383 1.4-.574 2.221-.574 1.376 0 2.446.419 3.211 1.257.773.83 1.16 2.128 1.16 3.894v8.301h-2.967v-8.276c0-.993-.207-1.697-.622-2.112-.407-.423-1.03-.635-1.868-.635-.578 0-1.094.13-1.55.391-.456.252-.83.602-1.123 1.05v9.582h-2.967v-13.208h2.71zm10.938 6.787c0-2.099.46-3.796 1.379-5.09.92-1.294 2.198-1.941 3.833-1.941.79 0 1.481.171 2.075.513.603.333 1.111.817 1.526 1.452l.293-1.721h2.466v13.208c0 1.701-.525 3.015-1.575 3.943-1.049.928-2.539 1.392-4.467 1.392a8.657 8.657 0 01-2.088-.281 9.473 9.473 0 01-2.014-.72l.635-2.332a6.988 6.988 0 001.611.586c.594.146 1.205.22 1.831.22 1.074 0 1.86-.232 2.356-.696.497-.456.745-1.16.745-2.112v-1.355a4.205 4.205 0 01-1.477 1.209c-.562.268-1.209.402-1.941.402-1.62 0-2.889-.59-3.809-1.77-.919-1.18-1.379-2.73-1.379-4.65v-.257zm2.966.257c0 1.212.24 2.185.72 2.917.489.724 1.241 1.086 2.259 1.086.634 0 1.168-.13 1.599-.39a2.966 2.966 0 001.062-1.148v-5.786a3.11 3.11 0 00-1.074-1.123c-.432-.277-.953-.415-1.563-.415-1.017 0-1.774.427-2.27 1.282-.489.854-.733 1.961-.733 3.32v.257zm12.915 7.69h-2.722l6.995-19.299h2.722l-6.995 19.299zm-132.922 21.578l.024.073c.033 1.799-.553 3.264-1.758 4.395-1.196 1.123-2.819 1.684-4.87 1.684-2.075 0-3.764-.695-5.066-2.087-1.294-1.4-1.941-3.186-1.941-5.359v-3.381c0-2.165.639-3.947 1.917-5.347 1.285-1.408 2.954-2.112 5.004-2.112 2.1 0 3.752.554 4.956 1.66 1.213 1.099 1.803 2.58 1.77 4.444l-.024.073h-2.869c0-1.196-.325-2.128-.976-2.795-.643-.668-1.595-1.001-2.857-1.001-1.212 0-2.177.48-2.893 1.44-.708.96-1.062 2.165-1.062 3.613v3.406c0 1.465.362 2.678 1.087 3.638.732.96 1.717 1.44 2.954 1.44 1.229 0 2.161-.329 2.795-.989.635-.659.952-1.591.952-2.795h2.857zm2.002-.83c0-1.961.537-3.573 1.611-4.834 1.091-1.261 2.568-1.892 4.431-1.892 1.896 0 3.382.631 4.456 1.892 1.082 1.253 1.623 2.865 1.623 4.834v.256c0 1.986-.541 3.605-1.623 4.859-1.074 1.245-2.551 1.867-4.431 1.867-1.888 0-3.373-.626-4.456-1.879-1.074-1.254-1.611-2.869-1.611-4.847v-.256zm2.966.256c0 1.286.252 2.336.757 3.15.496.805 1.278 1.208 2.344 1.208 1.033 0 1.806-.403 2.319-1.208.521-.814.781-1.864.781-3.15v-.256c0-1.261-.26-2.299-.781-3.113-.513-.822-1.294-1.233-2.344-1.233-1.033 0-1.806.411-2.319 1.233-.505.822-.757 1.86-.757 3.113v.256zm14.429-6.738l.171 1.904c.431-.675.972-1.2 1.623-1.574.659-.383 1.4-.574 2.222-.574 1.375 0 2.445.419 3.21 1.257.774.83 1.16 2.128 1.16 3.894v8.301h-2.966v-8.276c0-.993-.208-1.697-.623-2.112-.407-.423-1.029-.635-1.867-.635-.578 0-1.095.13-1.551.391-.455.252-.83.602-1.123 1.05v9.582h-2.966v-13.208h2.71zm12.439 13.208V438.33h-2.014v-2.197h2.014v-1.538c0-1.457.394-2.58 1.184-3.369.797-.79 1.912-1.184 3.345-1.184.284 0 .573.024.866.073.293.041.623.102.989.183l-.305 2.295a6.837 6.837 0 00-.549-.085 5.027 5.027 0 00-.635-.037c-.643 0-1.127.183-1.453.549-.317.366-.476.891-.476 1.575v1.538h2.686v2.197h-2.686v11.011h-2.966zm10.986 0h-2.966v-13.208h2.966v13.208zm0-16.443h-2.966v-2.6h2.966v2.6zm2.796 10.022c0-2.099.459-3.796 1.379-5.09.92-1.294 2.197-1.941 3.833-1.941.789 0 1.481.171 2.075.513.602.333 1.111.817 1.526 1.452l.293-1.721h2.466v13.208c0 1.701-.525 3.015-1.575 3.943-1.05.928-2.539 1.392-4.468 1.392a8.649 8.649 0 01-2.087-.281 9.453 9.453 0 01-2.014-.72l.635-2.332a6.988 6.988 0 001.611.586c.594.146 1.204.22 1.831.22 1.074 0 1.859-.232 2.356-.696.496-.456.744-1.16.744-2.112v-1.355a4.196 4.196 0 01-1.477 1.209c-.561.268-1.208.402-1.94.402-1.62 0-2.889-.59-3.809-1.77-.92-1.18-1.379-2.73-1.379-4.65v-.257zm2.966.257c0 1.212.24 2.185.72 2.917.488.724 1.241 1.086 2.258 1.086.635 0 1.168-.13 1.599-.39.44-.269.794-.651 1.062-1.148v-5.786a3.093 3.093 0 00-1.074-1.123c-.431-.277-.952-.415-1.562-.415-1.017 0-1.774.427-2.271 1.282-.488.854-.732 1.961-.732 3.32v.257zm19.958 4.235c-.415.7-.94 1.241-1.574 1.624-.635.374-1.368.561-2.198.561-1.416 0-2.522-.451-3.32-1.355-.797-.903-1.196-2.307-1.196-4.211v-7.898h2.954v7.922c0 1.156.187 1.966.561 2.43.375.463.94.695 1.697.695.716 0 1.314-.126 1.795-.378.488-.26.87-.635 1.147-1.123v-9.546h2.966v13.208h-2.588l-.244-1.929zm12.513-8.606l-1.27-.048c-.578 0-1.062.122-1.453.366-.382.244-.679.59-.891 1.037v9.18h-2.966v-13.208h2.71l.195 1.917c.334-.676.761-1.205 1.282-1.587a3.021 3.021 0 011.819-.574c.179 0 .346.016.5.049.155.024.297.057.428.097l-.354 2.771zm10.034 10.535a12.517 12.517 0 01-.269-.976 7.611 7.611 0 01-.134-.953 5.28 5.28 0 01-1.611 1.563c-.66.415-1.4.622-2.222.622-1.375 0-2.433-.354-3.174-1.062-.732-.708-1.099-1.68-1.099-2.917 0-1.278.505-2.271 1.514-2.979 1.009-.716 2.429-1.074 4.26-1.074h2.307v-1.159c0-.692-.203-1.233-.61-1.624s-.989-.586-1.745-.586c-.676 0-1.213.163-1.612.488a1.55 1.55 0 00-.598 1.258h-2.856l-.013-.074c-.057-1.041.407-1.965 1.392-2.771.993-.805 2.283-1.208 3.87-1.208 1.538 0 2.779.391 3.723 1.172.944.781 1.416 1.904 1.416 3.369v5.872c0 .545.036 1.07.11 1.574.073.497.191.985.354 1.465h-3.003zm-3.638-2.124c.749 0 1.42-.187 2.014-.561.602-.375 1.001-.802 1.196-1.282v-1.953h-2.355c-.863 0-1.539.215-2.027.647-.488.423-.732.923-.732 1.501 0 .505.162.907.488 1.209.334.293.806.439 1.416.439zm12.976-14.294v3.21h2.368v2.197h-2.368v7.3c0 .545.118.936.354 1.172.236.228.549.342.94.342.163 0 .322-.012.476-.037.155-.032.301-.073.44-.122l.317 2.173a3.263 3.263 0 01-.903.317c-.35.082-.712.122-1.087.122-1.09 0-1.945-.317-2.563-.952-.619-.643-.928-1.648-.928-3.015v-7.3h-2.014v-2.197h2.014v-3.21h2.954zm8.167 16.418h-2.967v-13.208h2.967v13.208zm0-16.443h-2.967v-2.6h2.967v2.6zm2.783 9.717c0-1.961.537-3.573 1.611-4.834 1.091-1.261 2.568-1.892 4.431-1.892 1.896 0 3.382.631 4.456 1.892 1.082 1.253 1.623 2.865 1.623 4.834v.256c0 1.986-.541 3.605-1.623 4.859-1.074 1.245-2.551 1.867-4.431 1.867-1.888 0-3.373-.626-4.456-1.879-1.074-1.254-1.611-2.869-1.611-4.847v-.256zm2.966.256c0 1.286.252 2.336.757 3.15.496.805 1.278 1.208 2.344 1.208 1.033 0 1.806-.403 2.319-1.208.521-.814.781-1.864.781-3.15v-.256c0-1.261-.26-2.299-.781-3.113-.513-.822-1.294-1.233-2.344-1.233-1.033 0-1.806.411-2.319 1.233-.505.822-.757 1.86-.757 3.113v.256zm14.429-6.738l.171 1.904c.431-.675.972-1.2 1.623-1.574.659-.383 1.4-.574 2.222-.574 1.375 0 2.445.419 3.21 1.257.774.83 1.16 2.128 1.16 3.894v8.301h-2.966v-8.276c0-.993-.208-1.697-.623-2.112-.407-.423-1.029-.635-1.867-.635-.578 0-1.095.13-1.551.391-.455.252-.83.602-1.123 1.05v9.582h-2.966v-13.208h2.71zm-138.452 24.435l5.114 13.672h.074l5.127-13.672h3.845v17.773h-2.966v-6.055l.293-7.702-.074-.012-5.273 13.769h-1.99l-5.249-13.733-.073.012.293 7.666v6.055h-2.967v-17.773h3.846zm25.622 17.773a12.5 12.5 0 01-.268-.976 7.805 7.805 0 01-.135-.953 5.268 5.268 0 01-1.611 1.563c-.659.415-1.4.622-2.222.622-1.375 0-2.433-.354-3.173-1.062-.733-.708-1.099-1.68-1.099-2.917 0-1.278.505-2.271 1.514-2.979 1.009-.716 2.429-1.074 4.26-1.074h2.307v-1.159c0-.692-.203-1.233-.61-1.624s-.989-.586-1.746-.586c-.675 0-1.213.163-1.611.488a1.55 1.55 0 00-.598 1.258h-2.857l-.012-.074c-.057-1.041.407-1.965 1.392-2.771.992-.805 2.282-1.208 3.869-1.208 1.538 0 2.779.391 3.723 1.172.944.781 1.416 1.904 1.416 3.369v5.872c0 .545.037 1.07.11 1.574.073.497.191.985.354 1.465h-3.003zm-3.637-2.124c.748 0 1.42-.187 2.014-.561.602-.375 1.001-.802 1.196-1.282v-1.953h-2.356c-.863 0-1.538.215-2.026.647-.489.423-.733.923-.733 1.501 0 .505.163.907.489 1.209.333.293.805.439 1.416.439zm11.975-11.084l.171 1.904c.431-.675.972-1.2 1.623-1.574.659-.383 1.4-.574 2.222-.574 1.375 0 2.445.419 3.21 1.257.773.83 1.16 2.128 1.16 3.894v8.301h-2.966v-8.276c0-.993-.208-1.697-.623-2.112-.407-.423-1.029-.635-1.868-.635-.577 0-1.094.13-1.55.391-.456.252-.83.602-1.123 1.05v9.582h-2.966v-13.208h2.71zm19.421 13.208a12.975 12.975 0 01-.269-.976 7.801 7.801 0 01-.134-.953 5.28 5.28 0 01-1.611 1.563c-.659.415-1.4.622-2.222.622-1.375 0-2.433-.354-3.174-1.062-.732-.708-1.098-1.68-1.098-2.917 0-1.278.504-2.271 1.513-2.979 1.01-.716 2.43-1.074 4.261-1.074h2.307v-1.159c0-.692-.204-1.233-.611-1.624-.406-.391-.988-.586-1.745-.586-.676 0-1.213.163-1.611.488a1.551 1.551 0 00-.599 1.258h-2.856l-.012-.074c-.057-1.041.407-1.965 1.391-2.771.993-.805 2.283-1.208 3.87-1.208 1.538 0 2.779.391 3.723 1.172.944.781 1.416 1.904 1.416 3.369v5.872c0 .545.037 1.07.11 1.574.073.497.191.985.354 1.465h-3.003zm-3.638-2.124c.749 0 1.42-.187 2.015-.561.602-.375 1-.802 1.196-1.282v-1.953H366.9c-.863 0-1.538.215-2.027.647-.488.423-.732.923-.732 1.501 0 .505.163.907.488 1.209.334.293.806.439 1.416.439zm8.753-4.297c0-2.099.46-3.796 1.379-5.09.92-1.294 2.197-1.941 3.833-1.941.79 0 1.481.171 2.075.513.603.333 1.111.817 1.526 1.452l.293-1.721h2.466v13.208c0 1.701-.525 3.015-1.575 3.943-1.049.928-2.539 1.392-4.467 1.392a8.657 8.657 0 01-2.088-.281 9.473 9.473 0 01-2.014-.72l.635-2.332a6.988 6.988 0 001.611.586c.594.146 1.205.22 1.831.22 1.074 0 1.86-.232 2.356-.696.497-.456.745-1.16.745-2.112v-1.355a4.205 4.205 0 01-1.477 1.209c-.562.268-1.209.402-1.941.402-1.62 0-2.889-.59-3.809-1.77-.919-1.18-1.379-2.73-1.379-4.65v-.257zm2.966.257c0 1.212.24 2.185.72 2.917.489.724 1.241 1.086 2.259 1.086.634 0 1.167-.13 1.599-.39a2.966 2.966 0 001.062-1.148v-5.786a3.11 3.11 0 00-1.074-1.123c-.432-.277-.953-.415-1.563-.415-1.017 0-1.774.427-2.27 1.282-.489.854-.733 1.961-.733 3.32v.257zm17.395 6.42c-1.872 0-3.365-.61-4.48-1.831-1.107-1.228-1.66-2.803-1.66-4.724v-.488c0-1.921.549-3.512 1.648-4.773 1.107-1.27 2.49-1.9 4.15-1.892 1.783 0 3.146.541 4.09 1.623.952 1.075 1.428 2.519 1.428 4.334v1.746h-8.24l-.024.061c.049 1.049.354 1.908.915 2.575.57.668 1.355 1.001 2.356 1.001.798 0 1.481-.097 2.051-.293a6.71 6.71 0 001.648-.842l.952 1.941c-.496.439-1.156.81-1.977 1.111-.822.301-1.775.451-2.857.451zm-.342-11.328c-.732 0-1.334.293-1.806.879-.472.578-.765 1.314-.879 2.21l.024.061h5.237v-.305c0-.839-.216-1.522-.647-2.051-.423-.529-1.066-.794-1.929-.794zm10.62-2.136l.159 1.721a4.472 4.472 0 011.624-1.452c.651-.342 1.403-.513 2.258-.513.863 0 1.603.195 2.222.586.618.39 1.082.976 1.391 1.758a4.63 4.63 0 011.612-1.722c.667-.415 1.448-.622 2.343-.622 1.327 0 2.373.456 3.138 1.367.773.903 1.159 2.279 1.159 4.126v7.959h-2.966v-7.971c0-1.123-.195-1.913-.586-2.368-.383-.456-.96-.684-1.733-.684-.635 0-1.172.171-1.612.513-.439.342-.757.801-.952 1.379 0 .122.004.228.012.318.008.089.012.175.012.256v8.557h-2.966v-7.971c0-1.082-.199-1.86-.598-2.332-.391-.48-.968-.72-1.733-.72-.603 0-1.115.118-1.538.354a2.537 2.537 0 00-.989.977v9.692h-2.967v-13.208h2.71zm24.707 13.464c-1.871 0-3.365-.61-4.48-1.831-1.106-1.228-1.66-2.803-1.66-4.724v-.488c0-1.921.55-3.512 1.648-4.773 1.107-1.27 2.491-1.9 4.151-1.892 1.782 0 3.145.541 4.089 1.623.952 1.075 1.428 2.519 1.428 4.334v1.746h-8.24l-.024.061c.049 1.049.354 1.908.916 2.575.569.668 1.355 1.001 2.356 1.001.797 0 1.481-.097 2.05-.293a6.71 6.71 0 001.648-.842l.952 1.941c-.496.439-1.155.81-1.977 1.111-.822.301-1.774.451-2.857.451zm-.341-11.328c-.733 0-1.335.293-1.807.879-.472.578-.765 1.314-.879 2.21l.025.061h5.236v-.305c0-.839-.215-1.522-.647-2.051-.423-.529-1.066-.794-1.928-.794zm10.595-2.136l.171 1.904c.432-.675.973-1.2 1.624-1.574.659-.383 1.4-.574 2.221-.574 1.376 0 2.446.419 3.211 1.257.773.83 1.16 2.128 1.16 3.894v8.301h-2.967v-8.276c0-.993-.207-1.697-.622-2.112-.407-.423-1.03-.635-1.868-.635a3.06 3.06 0 00-1.55.391c-.456.252-.83.602-1.123 1.05v9.582h-2.967v-13.208h2.71zm15.162-3.21v3.21h2.368v2.197h-2.368v7.3c0 .545.118.936.354 1.172.236.228.549.342.939.342.163 0 .322-.012.477-.037.154-.032.301-.073.439-.122l.317 2.173a3.263 3.263 0 01-.903.317c-.35.082-.712.122-1.086.122-1.091 0-1.945-.317-2.564-.952-.618-.643-.928-1.648-.928-3.015v-7.3h-2.014v-2.197h2.014v-3.21h2.955z" fill="#fff"/><path d="M739.478 375.988H517.029a5 5 0 00-5 5v122.828a5 5 0 005 5h222.449a5 5 0 005-5V380.988a5 5 0 00-5-5z" fill="#2A365C"/><path d="M578.097 425.157l.024.073c.033 1.799-.553 3.264-1.758 4.395-1.196 1.123-2.819 1.684-4.87 1.684-2.075 0-3.764-.695-5.066-2.087-1.294-1.4-1.941-3.186-1.941-5.359v-3.381c0-2.165.639-3.947 1.916-5.347 1.286-1.408 2.955-2.112 5.005-2.112 2.1 0 3.752.554 4.956 1.66 1.213 1.099 1.803 2.58 1.77 4.444l-.024.073h-2.869c0-1.196-.325-2.128-.976-2.795-.643-.668-1.595-1.001-2.857-1.001-1.212 0-2.177.48-2.893 1.44-.708.96-1.062 2.165-1.062 3.613v3.406c0 1.465.362 2.677 1.087 3.638.732.96 1.717 1.44 2.954 1.44 1.229 0 2.16-.329 2.795-.989.635-.659.952-1.591.952-2.795h2.857zm2.002-.83c0-1.961.537-3.573 1.611-4.834 1.091-1.261 2.568-1.892 4.431-1.892 1.896 0 3.382.631 4.456 1.892 1.082 1.253 1.623 2.865 1.623 4.834v.256c0 1.986-.541 3.605-1.623 4.859-1.074 1.245-2.552 1.867-4.431 1.867-1.888 0-3.374-.626-4.456-1.88-1.074-1.253-1.611-2.868-1.611-4.846v-.256zm2.966.256c0 1.286.252 2.336.757 3.15.496.805 1.278 1.208 2.344 1.208 1.033 0 1.806-.403 2.319-1.208.521-.814.781-1.864.781-3.15v-.256c0-1.261-.26-2.299-.781-3.113-.513-.822-1.294-1.233-2.344-1.233-1.033 0-1.806.411-2.319 1.233-.505.822-.757 1.86-.757 3.113v.256zm14.429-6.738l.171 1.904c.431-.675.972-1.2 1.623-1.574.659-.383 1.4-.574 2.222-.574 1.375 0 2.445.419 3.21 1.257.773.83 1.16 2.128 1.16 3.894v8.301h-2.966v-8.276c0-.993-.208-1.697-.623-2.112-.407-.423-1.029-.635-1.868-.635-.577 0-1.094.13-1.55.391a3.15 3.15 0 00-1.123 1.049v9.583h-2.966v-13.208h2.71zm15.161-3.21v3.21h2.368v2.197h-2.368v7.3c0 .545.118.936.354 1.172.236.228.549.342.94.342.163 0 .321-.012.476-.037.154-.032.301-.073.439-.122l.318 2.173a3.282 3.282 0 01-.904.317c-.35.082-.712.122-1.086.122-1.091 0-1.945-.317-2.564-.952-.618-.643-.927-1.648-.927-3.015v-7.3h-2.014v-2.197h2.014v-3.21h2.954zm8.166 16.418h-2.966v-13.208h2.966v13.208zm0-16.443h-2.966v-2.6h2.966v2.6zm6.018 3.235l.171 1.904c.432-.675.973-1.2 1.624-1.574.659-.383 1.4-.574 2.222-.574 1.375 0 2.445.419 3.21 1.257.773.83 1.16 2.128 1.16 3.894v8.301h-2.967v-8.276c0-.993-.207-1.697-.622-2.112-.407-.423-1.03-.635-1.868-.635-.578 0-1.094.13-1.55.391a3.15 3.15 0 00-1.123 1.049v9.583h-2.967v-13.208h2.71zm19.703 11.279c-.415.7-.94 1.241-1.575 1.624-.635.374-1.367.561-2.197.561-1.416 0-2.523-.451-3.321-1.355-.797-.903-1.196-2.307-1.196-4.211v-7.898h2.954v7.922c0 1.156.187 1.966.562 2.43.374.463.94.695 1.696.695.717 0 1.315-.126 1.795-.378a2.824 2.824 0 001.147-1.123v-9.546h2.967v13.208h-2.588l-.244-1.929zm5.383-4.797c0-1.961.537-3.573 1.611-4.834 1.091-1.261 2.568-1.892 4.431-1.892 1.897 0 3.382.631 4.456 1.892 1.082 1.253 1.623 2.865 1.623 4.834v.256c0 1.986-.541 3.605-1.623 4.859-1.074 1.245-2.551 1.867-4.431 1.867-1.888 0-3.373-.626-4.456-1.88-1.074-1.253-1.611-2.868-1.611-4.846v-.256zm2.966.256c0 1.286.252 2.336.757 3.15.496.805 1.278 1.208 2.344 1.208 1.033 0 1.806-.403 2.319-1.208.521-.814.781-1.864.781-3.15v-.256c0-1.261-.26-2.299-.781-3.113-.513-.822-1.294-1.233-2.344-1.233-1.033 0-1.806.411-2.319 1.233-.505.822-.757 1.86-.757 3.113v.256zm19.971 4.541c-.415.7-.94 1.241-1.575 1.624-.635.374-1.367.561-2.197.561-1.416 0-2.523-.451-3.32-1.355-.798-.903-1.197-2.307-1.197-4.211v-7.898h2.954v7.922c0 1.156.188 1.966.562 2.43.374.463.94.695 1.697.695.716 0 1.314-.126 1.794-.378a2.833 2.833 0 001.148-1.123v-9.546h2.966v13.208h-2.588l-.244-1.929zm13.354-1.66c0-.456-.195-.834-.586-1.135-.39-.301-1.119-.566-2.185-.794-1.578-.333-2.775-.805-3.588-1.416-.806-.618-1.209-1.456-1.209-2.514 0-1.107.468-2.051 1.404-2.832.936-.782 2.169-1.172 3.699-1.172 1.611 0 2.889.399 3.833 1.196.952.79 1.407 1.77 1.367 2.942l-.025.073h-2.844c0-.545-.207-1.013-.622-1.404-.416-.39-.985-.585-1.709-.585-.717 0-1.262.162-1.636.488-.375.317-.562.708-.562 1.172 0 .464.175.834.525 1.111.358.268 1.078.508 2.161.72 1.66.342 2.889.826 3.686 1.452.806.619 1.209 1.465 1.209 2.539 0 1.189-.493 2.153-1.477 2.893-.977.741-2.267 1.111-3.87 1.111-1.717 0-3.072-.439-4.065-1.318-.993-.879-1.465-1.888-1.416-3.027l.025-.074h2.758c.033.765.31 1.323.83 1.673.521.35 1.156.525 1.905.525.765 0 1.355-.147 1.77-.44.415-.293.622-.687.622-1.184zM539.01 453.632c0-2.108.451-3.804 1.355-5.09.903-1.294 2.173-1.941 3.808-1.941.717 0 1.355.146 1.917.439.57.285 1.062.696 1.477 1.233v-7.263h2.966v19.043h-2.49l-.293-1.636c-.423.619-.932 1.091-1.526 1.416-.594.318-1.286.476-2.075.476-1.619 0-2.881-.59-3.784-1.77-.904-1.18-1.355-2.73-1.355-4.651v-.256zm2.966.256c0 1.221.232 2.194.696 2.918.472.724 1.217 1.086 2.234 1.086.626 0 1.155-.134 1.587-.402a3.063 3.063 0 001.074-1.148v-5.762a3.084 3.084 0 00-1.074-1.135c-.44-.277-.961-.415-1.563-.415-1.009 0-1.754.427-2.234 1.282-.48.846-.72 1.953-.72 3.32v.256zm17.407 6.421c-1.871 0-3.365-.61-4.48-1.831-1.106-1.229-1.66-2.803-1.66-4.724v-.488c0-1.921.55-3.512 1.648-4.773 1.107-1.27 2.49-1.9 4.151-1.892 1.782 0 3.145.541 4.089 1.623.952 1.075 1.428 2.519 1.428 4.334v1.745h-8.24l-.024.062c.049 1.049.354 1.908.916 2.575.569.668 1.354 1.001 2.355 1.001.798 0 1.482-.097 2.051-.293a6.71 6.71 0 001.648-.842l.952 1.941c-.496.439-1.155.81-1.977 1.111-.822.301-1.774.451-2.857.451zm-.341-11.328c-.733 0-1.335.293-1.807.879-.472.578-.765 1.314-.879 2.21l.024.061h5.237v-.306c0-.838-.215-1.521-.647-2.05-.423-.529-1.066-.794-1.928-.794zm11.071 11.072h-2.966V441.01h2.966v19.043zm6.494 0h-2.966v-13.208h2.966v13.208zm0-16.443h-2.966v-2.6h2.966v2.6zm7.923 11.975l.22 1.074h.073l.232-1.074 2.624-8.74h3.064l-4.687 13.208h-2.576l-4.712-13.208h3.064l2.698 8.74zm13.574 4.724c-1.872 0-3.365-.61-4.48-1.831-1.107-1.229-1.66-2.803-1.66-4.724v-.488c0-1.921.549-3.512 1.648-4.773 1.107-1.27 2.49-1.9 4.15-1.892 1.782 0 3.146.541 4.09 1.623.952 1.075 1.428 2.519 1.428 4.334v1.745h-8.24l-.024.062c.049 1.049.354 1.908.915 2.575.57.668 1.355 1.001 2.356 1.001.798 0 1.481-.097 2.051-.293a6.71 6.71 0 001.648-.842l.952 1.941c-.496.439-1.156.81-1.977 1.111-.822.301-1.775.451-2.857.451zm-.342-11.328c-.732 0-1.334.293-1.806.879-.472.578-.765 1.314-.879 2.21l.024.061h5.237v-.306c0-.838-.216-1.521-.647-2.05-.423-.529-1.066-.794-1.929-.794zm14.49.537l-1.27-.049c-.577 0-1.062.123-1.452.367a2.42 2.42 0 00-.891 1.037v9.18h-2.967v-13.208h2.71l.196 1.916c.333-.675.761-1.204 1.281-1.586a3.023 3.023 0 011.819-.574c.179 0 .346.016.501.049.154.024.297.057.427.097l-.354 2.771zm6.738 5.237l.293 1.318h.074l2.893-9.228h3.247l-5.469 15.21c-.35.92-.842 1.705-1.477 2.356-.635.651-1.534.976-2.698.976-.244 0-.509-.024-.793-.073a11.8 11.8 0 01-.806-.171l.33-2.295.451.037c.196.016.342.024.44.024.537 0 .964-.183 1.281-.549.326-.366.59-.789.794-1.269l.488-1.197-4.797-13.049h3.235l2.514 7.91zm9.473 6.824h-2.722l6.994-19.299h2.723l-6.995 19.299zm15.649-12.061l-1.269-.049c-.578 0-1.062.123-1.453.367-.382.244-.679.59-.891 1.037v9.18h-2.966v-13.208h2.71l.195 1.916c.334-.675.761-1.204 1.282-1.586a3.021 3.021 0 011.819-.574c.179 0 .346.016.5.049.155.024.297.057.427.097l-.354 2.771zm7.752 10.791c-1.872 0-3.365-.61-4.48-1.831-1.107-1.229-1.66-2.803-1.66-4.724v-.488c0-1.921.549-3.512 1.648-4.773 1.106-1.27 2.49-1.9 4.15-1.892 1.782 0 3.145.541 4.089 1.623.953 1.075 1.429 2.519 1.429 4.334v1.745h-8.24l-.025.062c.049 1.049.354 1.908.916 2.575.57.668 1.355 1.001 2.356 1.001.797 0 1.481-.097 2.051-.293a6.727 6.727 0 001.648-.842l.952 1.941c-.497.439-1.156.81-1.978 1.111-.822.301-1.774.451-2.856.451zm-.342-11.328c-.732 0-1.335.293-1.807.879-.472.578-.765 1.314-.879 2.21l.025.061h5.237v-.306c0-.838-.216-1.521-.647-2.05-.423-.529-1.066-.794-1.929-.794zm11.072 11.072h-2.966V441.01h2.966v19.043zm8.996.256c-1.871 0-3.365-.61-4.48-1.831-1.106-1.229-1.66-2.803-1.66-4.724v-.488c0-1.921.55-3.512 1.648-4.773 1.107-1.27 2.49-1.9 4.151-1.892 1.782 0 3.145.541 4.089 1.623.952 1.075 1.428 2.519 1.428 4.334v1.745h-8.24l-.024.062c.049 1.049.354 1.908.916 2.575.569.668 1.355 1.001 2.355 1.001.798 0 1.482-.097 2.051-.293a6.71 6.71 0 001.648-.842l.952 1.941c-.496.439-1.155.81-1.977 1.111-.822.301-1.774.451-2.857.451zm-.341-11.328c-.733 0-1.335.293-1.807.879-.472.578-.765 1.314-.879 2.21l.024.061h5.237v-.306c0-.838-.215-1.521-.647-2.05-.423-.529-1.066-.794-1.928-.794zm15.857 11.072a12.417 12.417 0 01-.269-.977 7.57 7.57 0 01-.134-.952 5.271 5.271 0 01-1.612 1.563 4.08 4.08 0 01-2.221.622c-1.376 0-2.434-.354-3.174-1.062-.733-.708-1.099-1.68-1.099-2.917 0-1.278.505-2.271 1.514-2.979 1.009-.716 2.429-1.074 4.26-1.074h2.307v-1.16c0-.691-.203-1.232-.61-1.623s-.989-.586-1.746-.586c-.675 0-1.212.163-1.611.488a1.55 1.55 0 00-.598 1.258h-2.857l-.012-.074c-.057-1.041.407-1.965 1.392-2.771.993-.805 2.283-1.208 3.869-1.208 1.539 0 2.78.39 3.724 1.172.944.781 1.416 1.904 1.416 3.369v5.871c0 .546.036 1.071.109 1.575.074.497.192.985.354 1.465h-3.002zm-3.638-2.124c.749 0 1.42-.187 2.014-.562.602-.374 1.001-.801 1.196-1.281v-1.953h-2.356c-.862 0-1.538.215-2.026.647-.488.423-.732.923-.732 1.501 0 .505.162.907.488 1.209.333.292.805.439 1.416.439zm16.711-1.465c0-.456-.195-.834-.586-1.135-.39-.301-1.119-.566-2.185-.794-1.579-.333-2.775-.805-3.589-1.416-.805-.618-1.208-1.456-1.208-2.514 0-1.107.468-2.051 1.404-2.832.936-.782 2.168-1.172 3.698-1.172 1.612 0 2.889.399 3.833 1.196.953.79 1.408 1.77 1.368 2.942l-.025.073h-2.844c0-.545-.208-1.013-.623-1.404-.415-.39-.984-.585-1.709-.585-.716 0-1.261.162-1.635.488-.375.317-.562.708-.562 1.172 0 .464.175.834.525 1.111.358.268 1.078.508 2.161.72 1.66.342 2.889.826 3.686 1.452.806.619 1.209 1.465 1.209 2.539 0 1.189-.493 2.153-1.477 2.893-.977.741-2.267 1.111-3.87 1.111-1.717 0-3.072-.439-4.065-1.318-.993-.879-1.465-1.888-1.416-3.027l.025-.074h2.758c.033.765.31 1.323.83 1.673.521.35 1.156.525 1.905.525.765 0 1.355-.147 1.77-.44.415-.293.622-.687.622-1.184zm11.255 3.845c-1.872 0-3.365-.61-4.48-1.831-1.107-1.229-1.66-2.803-1.66-4.724v-.488c0-1.921.549-3.512 1.648-4.773 1.107-1.27 2.49-1.9 4.15-1.892 1.783 0 3.146.541 4.09 1.623.952 1.075 1.428 2.519 1.428 4.334v1.745h-8.24l-.024.062c.049 1.049.354 1.908.915 2.575.57.668 1.355 1.001 2.356 1.001.798 0 1.481-.097 2.051-.293a6.71 6.71 0 001.648-.842l.952 1.941c-.496.439-1.155.81-1.977 1.111-.822.301-1.775.451-2.857.451zm-.342-11.328c-.732 0-1.334.293-1.806.879-.472.578-.765 1.314-.879 2.21l.024.061h5.237v-.306c0-.838-.216-1.521-.647-2.05-.423-.529-1.066-.794-1.929-.794z" fill="#fff"/><path d="M983.711 375.988H761.262a5 5 0 00-5 5v122.828a5 5 0 005 5h222.449a5 5 0 005-5V380.988a5 5 0 00-5-5z" fill="#2A365C"/><path d="M829.08 432.561v11.914c0 1.969-.643 3.483-1.929 4.541-1.286 1.05-2.966 1.575-5.042 1.575-2.034 0-3.682-.529-4.943-1.587-1.262-1.058-1.893-2.568-1.893-4.529v-11.914h2.967v11.914c0 1.245.35 2.181 1.05 2.808.699.626 1.639.94 2.819.94 1.221 0 2.194-.314 2.918-.94.724-.627 1.086-1.563 1.086-2.808v-11.914h2.967zm9.533 6.567l3.748-6.567h3.516l-5.469 8.813 5.676 8.96h-3.564l-3.858-6.677-3.857 6.677h-3.516l5.591-8.96-5.469-8.813h3.491l3.711 6.567zm16.101 11.206v-17.773h5.762c2.254 0 4.085.704 5.493 2.112 1.416 1.408 2.124 3.218 2.124 5.432v2.698c0 2.221-.708 4.032-2.124 5.432-1.408 1.4-3.239 2.099-5.493 2.099h-5.762zm2.967-15.393v13.025h2.71c1.473 0 2.628-.48 3.466-1.44.847-.96 1.27-2.201 1.27-3.723v-2.722c0-1.506-.423-2.739-1.27-3.699-.838-.96-1.993-1.441-3.466-1.441h-2.71zm18.75 15.65c-1.872 0-3.365-.611-4.48-1.831-1.107-1.229-1.66-2.804-1.66-4.724v-.489c0-1.92.549-3.511 1.648-4.773 1.106-1.269 2.49-1.9 4.15-1.892 1.782 0 3.145.541 4.089 1.624.952 1.074 1.429 2.519 1.429 4.333v1.746h-8.24l-.025.061c.049 1.05.354 1.908.916 2.576.57.667 1.355 1.001 2.356 1.001.797 0 1.481-.098 2.051-.293a6.73 6.73 0 001.648-.843l.952 1.941c-.497.44-1.156.81-1.978 1.111-.822.301-1.774.452-2.856.452zm-.342-11.328c-.732 0-1.335.293-1.807.879-.472.577-.765 1.314-.879 2.209l.025.061h5.237v-.305c0-.838-.216-1.522-.647-2.051-.424-.529-1.066-.793-1.929-.793zm15.332 7.483c0-.456-.195-.835-.586-1.136-.391-.301-1.119-.565-2.185-.793-1.579-.334-2.775-.806-3.589-1.416-.806-.619-1.208-1.457-1.208-2.515 0-1.107.468-2.051 1.403-2.832.936-.781 2.169-1.172 3.699-1.172 1.611 0 2.889.399 3.833 1.197.952.789 1.408 1.77 1.367 2.941l-.024.074h-2.844c0-.546-.208-1.013-.623-1.404-.415-.391-.985-.586-1.709-.586-.716 0-1.261.163-1.636.488-.374.318-.561.708-.561 1.172 0 .464.175.834.525 1.111.358.269 1.078.509 2.16.72 1.661.342 2.889.826 3.687 1.453.806.618 1.208 1.465 1.208 2.539 0 1.188-.492 2.152-1.477 2.893-.976.741-2.266 1.111-3.869 1.111-1.717 0-3.072-.44-4.065-1.319-.993-.878-1.465-1.888-1.416-3.027l.024-.073h2.759c.033.765.309 1.322.83 1.672.521.35 1.156.525 1.904.525.765 0 1.355-.146 1.77-.439.415-.293.623-.688.623-1.184zm8.752 3.588h-2.966v-13.208h2.966v13.208zm0-16.442h-2.966v-2.601h2.966v2.601zm2.796 10.022c0-2.1.46-3.797 1.379-5.091.92-1.294 2.197-1.941 3.833-1.941.79 0 1.481.171 2.075.513.603.334 1.111.818 1.526 1.453l.293-1.722h2.466v13.208c0 1.701-.525 3.016-1.575 3.943-1.049.928-2.539 1.392-4.467 1.392a8.657 8.657 0 01-2.088-.281 9.473 9.473 0 01-2.014-.72l.635-2.332a6.942 6.942 0 001.611.586c.594.147 1.205.22 1.831.22 1.074 0 1.86-.232 2.356-.696.497-.455.745-1.159.745-2.112v-1.355a4.205 4.205 0 01-1.477 1.209c-.562.269-1.209.403-1.941.403-1.62 0-2.889-.59-3.809-1.77-.919-1.18-1.379-2.731-1.379-4.651v-.256zm2.966.256c0 1.212.24 2.185.72 2.917.489.725 1.241 1.087 2.259 1.087.634 0 1.167-.13 1.599-.391a2.963 2.963 0 001.062-1.147v-5.786a3.094 3.094 0 00-1.074-1.123c-.432-.277-.953-.416-1.563-.416-1.017 0-1.774.428-2.27 1.282-.489.855-.733 1.961-.733 3.321v.256zm14.417-7.044l.171 1.905a4.677 4.677 0 011.623-1.575c.659-.382 1.4-.574 2.222-.574 1.375 0 2.445.419 3.21 1.258.773.83 1.16 2.128 1.16 3.894v8.3h-2.966v-8.276c0-.993-.208-1.697-.623-2.112-.407-.423-1.029-.635-1.868-.635-.577 0-1.094.131-1.55.391-.456.252-.83.602-1.123 1.05v9.582h-2.966v-13.208h2.71z" fill="#fff"/><path d="M374.203 527.026H151.754a5 5 0 00-5 5V642a5 5 0 005 5h222.449a5 5 0 005-5V532.026a5 5 0 00-5-5zM618.433 527.026H395.984a5 5 0 00-5 5V642a5 5 0 005 5h222.449a5 5 0 005-5V532.026a5 5 0 00-5-5zM861.595 527.026H639.146a5 5 0 00-5 5V642a5 5 0 005 5h222.449a5 5 0 005-5V532.026a5 5 0 00-5-5z" fill="#2A365C"/><path d="M220.341 585.222h-7.788v7.581h-2.967V575.03h12v2.38h-9.033v5.432h7.788v2.38zm9.607-2.954l-1.27-.049c-.578 0-1.062.123-1.452.367a2.42 2.42 0 00-.891 1.037v9.18h-2.967v-13.208h2.71l.195 1.916c.334-.675.761-1.204 1.282-1.586a3.021 3.021 0 011.819-.574c.179 0 .346.016.501.049.154.024.297.057.427.097l-.354 2.771zm1.538 3.809c0-1.961.537-3.573 1.611-4.834 1.091-1.261 2.568-1.892 4.431-1.892 1.897 0 3.382.631 4.456 1.892 1.082 1.253 1.623 2.865 1.623 4.834v.256c0 1.986-.541 3.605-1.623 4.859-1.074 1.245-2.551 1.867-4.431 1.867-1.888 0-3.373-.626-4.456-1.88-1.074-1.253-1.611-2.868-1.611-4.846v-.256zm2.966.256c0 1.286.252 2.336.757 3.15.496.805 1.278 1.208 2.344 1.208 1.033 0 1.806-.403 2.319-1.208.521-.814.781-1.864.781-3.15v-.256c0-1.261-.26-2.299-.781-3.113-.513-.822-1.294-1.233-2.344-1.233-1.033 0-1.806.411-2.319 1.233-.505.822-.757 1.86-.757 3.113v.256zm14.429-6.738l.171 1.904c.431-.675.972-1.2 1.623-1.574.66-.383 1.4-.574 2.222-.574 1.375 0 2.446.419 3.21 1.257.774.83 1.16 2.128 1.16 3.894v8.301h-2.966v-8.276c0-.993-.208-1.697-.623-2.112-.407-.423-1.029-.635-1.867-.635-.578 0-1.095.13-1.551.391-.455.252-.83.602-1.123 1.049v9.583h-2.966v-13.208h2.71zm15.161-3.21v3.21h2.368v2.197h-2.368v7.3c0 .545.118.936.354 1.172.236.228.549.342.94.342.163 0 .321-.012.476-.037.155-.032.301-.073.44-.122l.317 2.173a3.263 3.263 0 01-.903.317c-.35.082-.712.122-1.087.122-1.09 0-1.945-.317-2.563-.952-.619-.643-.928-1.648-.928-3.015v-7.3h-2.014v-2.197h2.014v-3.21h2.954zm10.718 10.058h-6.409v-2.392h6.409v2.392zm8.154 6.616c-1.872 0-3.365-.61-4.48-1.831-1.107-1.229-1.66-2.803-1.66-4.724v-.488c0-1.921.549-3.512 1.648-4.773 1.107-1.27 2.49-1.9 4.15-1.892 1.783 0 3.146.541 4.09 1.623.952 1.075 1.428 2.519 1.428 4.334v1.745h-8.24l-.024.062c.049 1.049.354 1.908.915 2.575.57.668 1.355 1.001 2.356 1.001.798 0 1.481-.097 2.051-.293a6.71 6.71 0 001.648-.842l.952 1.941c-.496.439-1.155.81-1.977 1.111-.822.301-1.775.451-2.857.451zm-.342-11.328c-.732 0-1.334.293-1.806.879-.472.578-.765 1.314-.879 2.21l.024.061h5.237v-.306c0-.838-.216-1.521-.647-2.05-.423-.529-1.066-.794-1.929-.794zm10.596-2.136l.171 1.904c.431-.675.972-1.2 1.623-1.574.66-.383 1.4-.574 2.222-.574 1.375 0 2.446.419 3.211 1.257.773.83 1.159 2.128 1.159 3.894v8.301h-2.966v-8.276c0-.993-.208-1.697-.623-2.112-.407-.423-1.029-.635-1.867-.635-.578 0-1.095.13-1.551.391-.455.252-.83.602-1.123 1.049v9.583h-2.966v-13.208h2.71zm10.925 6.787c0-2.108.452-3.804 1.355-5.09.904-1.294 2.173-1.941 3.809-1.941.716 0 1.355.146 1.916.439.57.285 1.062.696 1.477 1.233v-7.263h2.967v19.043h-2.49l-.293-1.636c-.424.619-.932 1.091-1.526 1.416-.594.318-1.286.476-2.076.476-1.619 0-2.88-.59-3.784-1.77-.903-1.18-1.355-2.73-1.355-4.651v-.256zm2.967.256c0 1.221.232 2.194.695 2.918.472.724 1.217 1.086 2.234 1.086.627 0 1.156-.134 1.587-.402.44-.269.798-.652 1.074-1.148v-5.762a3.068 3.068 0 00-1.074-1.135c-.439-.277-.96-.415-1.562-.415-1.009 0-1.754.427-2.234 1.282-.48.846-.72 1.953-.72 3.32v.256zM474.24 575.03l5.115 13.671h.073l5.127-13.671h3.845v17.773h-2.966v-6.055l.293-7.702-.073-.013-5.274 13.77h-1.989l-5.249-13.733-.074.012.293 7.666v6.055h-2.966V575.03h3.845zm17.127 11.047c0-1.961.537-3.573 1.611-4.834 1.091-1.261 2.568-1.892 4.431-1.892 1.896 0 3.382.631 4.456 1.892 1.082 1.253 1.623 2.865 1.623 4.834v.256c0 1.986-.541 3.605-1.623 4.859-1.074 1.245-2.551 1.867-4.431 1.867-1.888 0-3.374-.626-4.456-1.88-1.074-1.253-1.611-2.868-1.611-4.846v-.256zm2.966.256c0 1.286.252 2.336.757 3.15.496.805 1.278 1.208 2.344 1.208 1.033 0 1.806-.403 2.319-1.208.521-.814.781-1.864.781-3.15v-.256c0-1.261-.26-2.299-.781-3.113-.513-.822-1.294-1.233-2.344-1.233-1.033 0-1.806.411-2.319 1.233-.505.822-.757 1.86-.757 3.113v.256zm23.34.305c0 1.929-.452 3.484-1.355 4.664-.895 1.171-2.161 1.757-3.796 1.757-.822 0-1.539-.167-2.149-.5-.602-.334-1.107-.822-1.514-1.465l-.293 1.709h-2.49V573.76h2.967v7.336a4.269 4.269 0 011.464-1.294c.57-.301 1.232-.451 1.989-.451 1.652 0 2.927.643 3.822 1.929.903 1.285 1.355 2.986 1.355 5.102v.256zm-2.966-.256c0-1.375-.236-2.486-.708-3.332-.472-.847-1.221-1.27-2.246-1.27-.66 0-1.213.147-1.661.439-.439.293-.789.7-1.049 1.221v5.542c.252.529.602.94 1.049 1.233.448.285 1.009.427 1.685.427 1.025 0 1.77-.358 2.234-1.074.464-.724.696-1.701.696-2.93v-.256zm8.69 6.421h-2.965v-13.208h2.965v13.208zm0-16.443h-2.965v-2.6h2.965v2.6zm6.495 16.443h-2.966V573.76h2.966v19.043zm8.997.256c-1.872 0-3.365-.61-4.48-1.831-1.107-1.229-1.66-2.803-1.66-4.724v-.488c0-1.921.549-3.512 1.648-4.773 1.106-1.27 2.49-1.9 4.15-1.892 1.782 0 3.145.541 4.089 1.623.952 1.075 1.429 2.519 1.429 4.334v1.745h-8.241l-.024.062c.049 1.049.354 1.908.916 2.575.57.668 1.355 1.001 2.356 1.001.796 0 1.481-.097 2.051-.293a6.727 6.727 0 001.648-.842l.952 1.941c-.497.439-1.156.81-1.978 1.111-.822.301-1.774.451-2.856.451zm-.342-11.328c-.732 0-1.335.293-1.807.879-.472.578-.765 1.314-.879 2.21l.025.061h5.237v-.306c0-.838-.217-1.521-.648-2.05-.424-.529-1.065-.794-1.928-.794zM676.86 572.084l.317 1.233h.074l.305-1.208 4.248-13.147h3.161l-6.347 17.773h-2.82l-6.336-17.773h3.162l4.236 13.122zm13.013 4.651h-2.967v-13.208h2.967v13.208zm0-16.443h-2.967v-2.6h2.967v2.6zm9.912 5.908l-1.27-.048c-.578 0-1.062.122-1.452.366-.383.244-.68.59-.892 1.037v9.18h-2.966v-13.208h2.71l.195 1.917c.334-.676.761-1.205 1.282-1.587a3.021 3.021 0 011.819-.574c.179 0 .346.016.5.049.155.024.298.057.428.097l-.354 2.771zm6.042-5.883v3.21h2.368v2.197h-2.368v7.3c0 .545.118.936.354 1.172.236.228.55.342.94.342.163 0 .322-.012.476-.037.155-.032.301-.073.44-.122l.317 2.173a3.263 3.263 0 01-.903.317c-.35.082-.712.122-1.087.122-1.09 0-1.945-.317-2.563-.952-.619-.643-.928-1.648-.928-3.015v-7.3h-2.014v-2.197h2.014v-3.21h2.954zm13.233 14.489c-.415.7-.94 1.241-1.575 1.624-.635.374-1.367.561-2.197.561-1.416 0-2.523-.451-3.321-1.355-.797-.903-1.196-2.307-1.196-4.211v-7.898h2.954v7.922c0 1.156.187 1.966.562 2.43.374.464.94.695 1.696.695.717 0 1.315-.126 1.795-.378.488-.26.871-.635 1.147-1.123v-9.546h2.967v13.208h-2.588l-.244-1.929zm13.879 1.929a12.975 12.975 0 01-.269-.976 7.801 7.801 0 01-.134-.953 5.28 5.28 0 01-1.611 1.563c-.659.415-1.4.622-2.222.622-1.375 0-2.433-.354-3.174-1.062-.732-.708-1.098-1.68-1.098-2.917 0-1.278.504-2.271 1.513-2.979 1.01-.716 2.43-1.074 4.261-1.074h2.307V567.8c0-.692-.204-1.233-.611-1.624-.406-.391-.988-.586-1.745-.586-.676 0-1.213.163-1.612.488a1.553 1.553 0 00-.598 1.258h-2.856l-.012-.074c-.057-1.041.407-1.965 1.391-2.771.993-.805 2.283-1.208 3.87-1.208 1.538 0 2.779.391 3.723 1.172.944.781 1.416 1.904 1.416 3.369v5.872c0 .545.037 1.07.11 1.574.073.497.191.985.354 1.465h-3.003zm-3.638-2.124c.749 0 1.42-.187 2.014-.561.603-.375 1.001-.802 1.197-1.282v-1.953h-2.356c-.863 0-1.538.215-2.027.647-.488.423-.732.923-.732 1.501 0 .505.163.908.488 1.209.334.293.806.439 1.416.439zm12.452 2.124h-2.967v-19.043h2.967v19.043zm6.494 0h-2.967v-13.208h2.967v13.208zm0-16.443h-2.967v-2.6h2.967v2.6zm10.754 12.854c0-.455-.195-.834-.586-1.135-.391-.301-1.119-.566-2.185-.793-1.579-.334-2.775-.806-3.589-1.416-.805-.619-1.208-1.457-1.208-2.515 0-1.107.468-2.051 1.403-2.832.936-.781 2.169-1.172 3.699-1.172 1.612 0 2.889.399 3.833 1.196.952.79 1.408 1.77 1.367 2.942l-.024.073h-2.844c0-.545-.208-1.013-.623-1.403-.415-.391-.984-.586-1.709-.586-.716 0-1.261.162-1.636.488-.374.317-.561.708-.561 1.172 0 .464.175.834.525 1.111.358.268 1.078.508 2.16.72 1.661.342 2.889.826 3.687 1.452.806.619 1.209 1.465 1.209 2.54 0 1.188-.493 2.152-1.478 2.893-.976.74-2.266 1.11-3.869 1.11-1.717 0-3.072-.439-4.065-1.318-.993-.879-1.465-1.888-1.416-3.027l.024-.073h2.759c.033.764.309 1.322.83 1.672.521.35 1.156.525 1.904.525.765 0 1.355-.147 1.77-.44.416-.293.623-.687.623-1.184zm13.538 3.589a12.517 12.517 0 01-.269-.976 7.611 7.611 0 01-.134-.953 5.271 5.271 0 01-1.612 1.563 4.08 4.08 0 01-2.221.622c-1.376 0-2.433-.354-3.174-1.062-.732-.708-1.099-1.68-1.099-2.917 0-1.278.505-2.271 1.514-2.979 1.009-.716 2.429-1.074 4.26-1.074h2.307V567.8c0-.692-.203-1.233-.61-1.624s-.989-.586-1.746-.586c-.675 0-1.212.163-1.611.488a1.55 1.55 0 00-.598 1.258h-2.856l-.013-.074c-.057-1.041.407-1.965 1.392-2.771.993-.805 2.283-1.208 3.87-1.208 1.538 0 2.779.391 3.723 1.172.944.781 1.416 1.904 1.416 3.369v5.872c0 .545.036 1.07.11 1.574.073.497.191.985.354 1.465h-3.003zm-3.638-2.124c.749 0 1.42-.187 2.014-.561.602-.375 1.001-.802 1.196-1.282v-1.953h-2.356c-.862 0-1.538.215-2.026.647-.488.423-.732.923-.732 1.501 0 .505.162.908.488 1.209.334.293.806.439 1.416.439zm12.976-14.294v3.21h2.368v2.197h-2.368v7.3c0 .545.118.936.354 1.172.236.228.549.342.94.342.163 0 .321-.012.476-.037.155-.032.301-.073.439-.122l.318 2.173a3.274 3.274 0 01-.903.317c-.35.082-.713.122-1.087.122-1.09 0-1.945-.317-2.563-.952-.619-.643-.928-1.648-.928-3.015v-7.3h-2.014v-2.197h2.014v-3.21h2.954zm8.167 16.418h-2.967v-13.208h2.967v13.208zm0-16.443h-2.967v-2.6h2.967v2.6zm2.783 9.717c0-1.961.537-3.573 1.611-4.834 1.091-1.261 2.568-1.892 4.431-1.892 1.896 0 3.382.631 4.456 1.892 1.082 1.253 1.623 2.865 1.623 4.834v.256c0 1.986-.541 3.606-1.623 4.859-1.074 1.245-2.552 1.867-4.431 1.867-1.888 0-3.374-.626-4.456-1.879-1.074-1.254-1.611-2.869-1.611-4.847v-.256zm2.966.256c0 1.286.252 2.336.757 3.15.496.805 1.278 1.208 2.344 1.208 1.033 0 1.806-.403 2.319-1.208.521-.814.781-1.864.781-3.15v-.256c0-1.261-.26-2.299-.781-3.113-.513-.822-1.294-1.233-2.344-1.233-1.033 0-1.806.411-2.319 1.233-.505.822-.757 1.86-.757 3.113v.256zm14.429-6.738l.171 1.904c.431-.675.972-1.2 1.623-1.574.659-.383 1.4-.574 2.222-.574 1.375 0 2.445.419 3.21 1.257.773.83 1.16 2.128 1.16 3.894v8.301h-2.966v-8.276c0-.993-.208-1.697-.623-2.112-.407-.423-1.029-.635-1.868-.635-.577 0-1.094.13-1.55.391-.456.252-.83.602-1.123 1.05v9.582h-2.966v-13.208h2.71zm12.658 14.734h-2.722l6.995-19.299h2.722l-6.995 19.299zm-150.976 21.578l.024.073c.033 1.799-.553 3.264-1.758 4.395-1.196 1.123-2.819 1.684-4.87 1.684-2.075 0-3.764-.695-5.066-2.087-1.294-1.4-1.941-3.186-1.941-5.359v-3.381c0-2.165.639-3.947 1.917-5.347 1.285-1.408 2.954-2.112 5.004-2.112 2.1 0 3.752.554 4.956 1.66 1.213 1.099 1.803 2.58 1.77 4.444l-.024.073h-2.869c0-1.196-.325-2.128-.976-2.795-.643-.668-1.595-1.001-2.857-1.001-1.212 0-2.177.48-2.893 1.44-.708.96-1.062 2.165-1.062 3.613v3.406c0 1.465.362 2.678 1.087 3.638.732.96 1.717 1.44 2.954 1.44 1.229 0 2.161-.329 2.795-.988.635-.66.952-1.591.952-2.796h2.857zm2.002-.83c0-1.961.537-3.573 1.611-4.834 1.091-1.261 2.568-1.892 4.431-1.892 1.896 0 3.382.631 4.456 1.892 1.082 1.253 1.623 2.865 1.623 4.834v.256c0 1.986-.541 3.606-1.623 4.859-1.074 1.245-2.551 1.867-4.431 1.867-1.888 0-3.373-.626-4.456-1.879-1.074-1.254-1.611-2.869-1.611-4.847v-.256zm2.966.256c0 1.286.252 2.336.757 3.15.496.805 1.278 1.208 2.344 1.208 1.033 0 1.806-.403 2.319-1.208.521-.814.781-1.864.781-3.15v-.256c0-1.261-.26-2.299-.781-3.113-.513-.822-1.294-1.233-2.344-1.233-1.033 0-1.806.411-2.319 1.233-.505.822-.757 1.86-.757 3.113v.256zm14.429-6.738l.171 1.904c.431-.675.972-1.2 1.623-1.574.659-.383 1.4-.574 2.222-.574 1.375 0 2.445.419 3.21 1.257.774.83 1.16 2.128 1.16 3.894v8.301h-2.966v-8.276c0-.993-.208-1.697-.623-2.112-.407-.423-1.029-.635-1.867-.635-.578 0-1.095.13-1.551.391-.455.252-.83.602-1.123 1.05v9.582h-2.966v-13.208h2.71zm15.161-3.21v3.21h2.368v2.197h-2.368v7.3c0 .545.118.936.354 1.172.236.228.549.342.94.342.163 0 .321-.012.476-.037.155-.032.301-.073.439-.122l.318 2.173a3.274 3.274 0 01-.903.317c-.35.082-.713.122-1.087.122-1.09 0-1.945-.317-2.563-.952-.619-.643-.928-1.648-.928-3.015v-7.3h-2.014v-2.197h2.014v-3.21h2.954zm12.952 16.418a12.517 12.517 0 01-.269-.976 7.611 7.611 0 01-.134-.953 5.271 5.271 0 01-1.612 1.563 4.08 4.08 0 01-2.221.622c-1.376 0-2.433-.354-3.174-1.062-.732-.708-1.099-1.68-1.099-2.917 0-1.278.505-2.271 1.514-2.979 1.009-.716 2.429-1.074 4.26-1.074h2.307V596.8c0-.692-.203-1.233-.61-1.624s-.989-.586-1.746-.586c-.675 0-1.212.163-1.611.488a1.55 1.55 0 00-.598 1.258h-2.856l-.013-.074c-.057-1.041.407-1.965 1.392-2.771.993-.805 2.283-1.208 3.87-1.208 1.538 0 2.779.391 3.723 1.172.944.781 1.416 1.904 1.416 3.369v5.872c0 .545.036 1.07.11 1.574.073.497.191.985.354 1.465h-3.003zm-3.638-2.124c.749 0 1.42-.187 2.014-.561.602-.375 1.001-.802 1.196-1.282v-1.953h-2.356c-.862 0-1.538.215-2.026.647-.488.423-.732.923-.732 1.501 0 .505.162.908.488 1.209.334.293.806.439 1.416.439zm12.451 2.124h-2.966v-13.208h2.966v13.208zm0-16.443h-2.966v-2.6h2.966v2.6zm6.018 3.235l.171 1.904c.431-.675.973-1.2 1.624-1.574.659-.383 1.399-.574 2.221-.574 1.376 0 2.446.419 3.211 1.257.773.83 1.159 2.128 1.159 3.894v8.301h-2.966v-8.276c0-.993-.207-1.697-.622-2.112-.407-.423-1.03-.635-1.868-.635a3.06 3.06 0 00-1.55.391 3.135 3.135 0 00-1.123 1.05v9.582h-2.967v-13.208h2.71zm17.139 13.464c-1.872 0-3.365-.61-4.48-1.831-1.107-1.228-1.66-2.803-1.66-4.724v-.488c0-1.921.549-3.512 1.648-4.773 1.106-1.269 2.49-1.9 4.15-1.892 1.782 0 3.145.541 4.089 1.623.953 1.075 1.429 2.519 1.429 4.334v1.746h-8.24l-.025.061c.049 1.049.354 1.908.916 2.575.57.668 1.355 1.001 2.356 1.001.797 0 1.481-.097 2.051-.293a6.727 6.727 0 001.648-.842l.952 1.941c-.497.439-1.156.81-1.978 1.111-.822.301-1.774.451-2.856.451zm-.342-11.328c-.732 0-1.335.293-1.807.879-.472.578-.765 1.315-.878 2.21l.024.061h5.237v-.305c0-.839-.216-1.522-.647-2.051-.423-.529-1.066-.794-1.929-.794zm14.49.537l-1.27-.048c-.578 0-1.062.122-1.452.366a2.42 2.42 0 00-.891 1.037v9.18h-2.967v-13.208h2.71l.195 1.917c.334-.676.761-1.205 1.282-1.587a3.021 3.021 0 011.819-.574c.179 0 .346.016.501.049.154.024.297.057.427.097l-.354 2.771zm5.249 10.535h-2.966v-13.208h2.966v13.208zm0-16.443h-2.966v-2.6h2.966v2.6zm10.754 12.854c0-.455-.195-.834-.586-1.135-.39-.301-1.119-.566-2.185-.793-1.579-.334-2.775-.806-3.589-1.416-.805-.619-1.208-1.457-1.208-2.515 0-1.107.468-2.051 1.404-2.832.936-.781 2.168-1.172 3.698-1.172 1.612 0 2.889.399 3.833 1.196.953.79 1.408 1.77 1.368 2.942l-.025.073h-2.844c0-.545-.208-1.013-.623-1.403-.415-.391-.984-.586-1.709-.586-.716 0-1.261.162-1.635.488-.375.317-.562.708-.562 1.172 0 .464.175.834.525 1.111.358.268 1.078.508 2.161.72 1.66.342 2.889.826 3.686 1.452.806.619 1.209 1.465 1.209 2.54 0 1.188-.493 2.152-1.477 2.893-.977.74-2.267 1.11-3.87 1.11-1.717 0-3.072-.439-4.065-1.318-.993-.879-1.465-1.888-1.416-3.027l.024-.073h2.759c.033.764.31 1.322.83 1.672.521.35 1.156.525 1.905.525.765 0 1.355-.147 1.77-.44.415-.293.622-.687.622-1.184zm13.538 3.589a12.975 12.975 0 01-.269-.976 7.611 7.611 0 01-.134-.953 5.28 5.28 0 01-1.611 1.563c-.66.415-1.4.622-2.222.622-1.375 0-2.433-.354-3.174-1.062-.732-.708-1.098-1.68-1.098-2.917 0-1.278.504-2.271 1.513-2.979 1.009-.716 2.429-1.074 4.26-1.074h2.308V596.8c0-.692-.204-1.233-.611-1.624-.407-.391-.989-.586-1.745-.586-.676 0-1.213.163-1.612.488a1.553 1.553 0 00-.598 1.258h-2.856l-.013-.074c-.056-1.041.407-1.965 1.392-2.771.993-.805 2.283-1.208 3.87-1.208 1.538 0 2.779.391 3.723 1.172.944.781 1.416 1.904 1.416 3.369v5.872c0 .545.036 1.07.11 1.574.073.497.191.985.354 1.465h-3.003zm-3.638-2.124c.749 0 1.42-.187 2.014-.561.602-.375 1.001-.802 1.197-1.282v-1.953h-2.356c-.863 0-1.538.215-2.027.647-.488.423-.732.923-.732 1.501 0 .505.163.908.488 1.209.334.293.806.439 1.416.439zm12.976-14.294v3.21h2.368v2.197h-2.368v7.3c0 .545.118.936.354 1.172.236.228.55.342.94.342.163 0 .322-.012.476-.037.155-.032.301-.073.44-.122l.317 2.173a3.263 3.263 0 01-.903.317c-.35.082-.712.122-1.087.122-1.09 0-1.945-.317-2.563-.952-.619-.643-.928-1.648-.928-3.015v-7.3h-2.014v-2.197h2.014v-3.21h2.954zm8.167 16.418h-2.967v-13.208h2.967v13.208zm0-16.443h-2.967v-2.6h2.967v2.6zm2.783 9.717c0-1.961.537-3.573 1.611-4.834 1.091-1.261 2.568-1.892 4.431-1.892 1.897 0 3.382.631 4.456 1.892 1.082 1.253 1.623 2.865 1.623 4.834v.256c0 1.986-.541 3.606-1.623 4.859-1.074 1.245-2.551 1.867-4.431 1.867-1.888 0-3.373-.626-4.456-1.879-1.074-1.254-1.611-2.869-1.611-4.847v-.256zm2.966.256c0 1.286.252 2.336.757 3.15.496.805 1.278 1.208 2.344 1.208 1.033 0 1.806-.403 2.319-1.208.521-.814.781-1.864.781-3.15v-.256c0-1.261-.26-2.299-.781-3.113-.513-.822-1.294-1.233-2.344-1.233-1.033 0-1.806.411-2.319 1.233-.505.822-.757 1.86-.757 3.113v.256zm14.429-6.738l.171 1.904c.431-.675.972-1.2 1.623-1.574.66-.383 1.4-.574 2.222-.574 1.375 0 2.446.419 3.21 1.257.774.83 1.16 2.128 1.16 3.894v8.301h-2.966v-8.276c0-.993-.208-1.697-.623-2.112-.407-.423-1.029-.635-1.867-.635-.578 0-1.095.13-1.551.391-.455.252-.83.602-1.123 1.05v9.582h-2.966v-13.208h2.71z" fill="#fff"/></svg>