<?xml version="1.0" encoding="utf-8"?><svg width="545" height="613" fill="none" xmlns="http://www.w3.org/2000/svg" viewBox="0 0 545 613"><g opacity=".8"><path d="M272.603 486.165c-1.645 0-3.29-.411-4.523-1.028l-99.708-57.558c-1.233-.822-2.056-1.85-2.056-3.084 0-1.439 1.028-2.672 2.673-3.7l98.269-56.736c3.083-1.645 7.401-1.85 10.073-.411l99.708 57.558c1.233.822 2.056 1.85 2.056 3.084 0 1.439-1.028 2.672-2.673 3.7l-98.269 56.736c-1.644.823-3.7 1.439-5.55 1.439zm-3.701-2.467c2.056 1.234 5.962 1.028 8.429-.411l98.269-56.736c1.233-.617 1.85-1.645 1.85-2.467 0-.822-.617-1.439-1.234-1.644l-99.707-57.559c-2.056-1.233-5.962-1.028-8.429.411l-98.269 56.736c-1.233.617-1.85 1.645-1.85 2.467 0 .823.617 1.439 1.234 1.645l99.707 57.558z" fill="#8686F2"/><path d="M272.603 152.119l-131.984-76.06L272.603 0l131.779 76.06-131.779 76.059z" fill="#BCBEFF"/><path d="M272.603 149.036L143.292 74.621l-2.673 1.439 131.984 76.059 131.779-76.06-2.673-1.438-129.106 74.415zM272.603 444.23l-131.984-76.06 131.984-76.06 131.779 76.06-131.779 76.06z" fill="#fff"/><path d="M404.38 76.06v292.11l-131.778 76.06V152.119l131.778-76.06z" fill="url(#mpaint0_linear)"/><path d="M140.619 76.06v292.11l131.984 76.06V152.119l-131.984-76.06z" fill="#24126A"/><path opacity=".51" d="M149.666 95.383v262.714l113.893 65.782V161.37L149.666 95.383z" fill="#453C9E"/><path d="M384.647 146.775v7.606l-92.307 53.241v-7.606l92.307-53.241zM384.647 179.254v7.812l-92.307 53.242v-7.812l92.307-53.242zM384.647 211.939v7.812l-92.307 53.242v-7.812l92.307-53.242zM384.647 244.624v7.812l-92.307 53.242v-7.812l92.307-53.242zM384.647 277.31v7.606l-92.307 53.241v-7.606l92.307-53.241zM384.647 309.995v7.606l-92.307 53.241v-7.606l92.307-53.241z" fill="#453C9E"/><path d="M272.603 132.179H237.86l-97.241-56.12 105.875-61.053h26.109V132.18z" fill="url(#mpaint1_linear)"/><path opacity=".78" d="M272.603 132.179H237.86l-97.241-56.12 105.875-61.053h26.109V132.18z" fill="url(#mpaint2_linear)"/><path d="M272.602 125.396l-95.801-55.092 95.801-55.298 95.596 55.298-95.596 55.092z" fill="url(#mpaint3_linear)"/><path d="M272.602 122.929l-93.54-53.859-2.261 1.234 95.801 55.092 95.596-55.092-2.261-1.234-93.335 53.859z" fill="#fff"/><path d="M368.198 70.304v6.784l-95.596 55.091v-6.783l95.596-55.092z" fill="url(#mpaint4_linear)"/><path d="M176.801 70.304v6.578l95.801 55.297v-6.783l-95.801-55.092z" fill="url(#mpaint5_linear)"/><path d="M235.393 71.126l-4.317-2.467.411-1.85 39.267-23.023 5.55 2.672-1.028 1.645-39.883 23.023z" fill="#3F21D3"/><path d="M270.958 45.636l4.317 2.467 2.673-1.44-6.99-4.11-42.556 24.667 2.879 1.44 39.677-23.024z" fill="url(#mpaint6_linear)"/><path d="M248.347 78.526l-4.318-2.466.411-1.85 39.267-23.024 5.345 2.672-1.028 1.645-39.677 23.023z" fill="#3F21D3"/><path d="M283.911 53.036l4.112 2.467 2.878-1.439-6.99-4.111-42.556 24.668 2.673 1.439 39.883-23.024z" fill="url(#mpaint7_linear)"/><path d="M261.09 85.927l-4.111-2.467.205-1.85 39.266-23.023 5.551 2.672-1.028 1.645-39.883 23.023z" fill="#3F21D3"/><path d="M296.655 60.437l4.317 2.467 2.673-1.44-6.99-4.11L254.1 82.02l2.878 1.44 39.677-23.024z" fill="url(#mpaint8_linear)"/><path d="M274.044 93.327l-4.317-2.466.411-1.85 39.266-23.024 5.551 2.672-1.028 1.645-39.883 23.023z" fill="#3F21D3"/><path d="M309.608 67.837l4.318 2.467 2.672-1.44-6.99-4.11-42.555 24.668 2.672 1.439 39.883-23.024z" fill="url(#mpaint9_linear)"/><path opacity=".51" d="M140.619 322.123l131.984-79.76v-90.244l-131.984-76.06v246.064z" fill="#453C9E"/><path d="M267.258 165.276c0-3.289-2.262-7.401-5.345-9.045-1.439-.823-2.673-.823-3.701-.411l-3.7 2.261h2.261c0 .411-.205.822-.205 1.233 0 3.289 2.261 7.401 5.345 9.045.411.206.822.411 1.028.411l-1.028 2.056 3.7-2.056c1.028-.616 1.645-1.85 1.645-3.494z" fill="url(#mpaint10_linear)"/><path d="M263.557 167.537c0 3.289-2.261 4.728-5.345 3.083-2.878-1.644-5.345-5.755-5.345-9.045 0-3.289 2.262-4.728 5.345-3.083 3.084 1.644 5.345 5.756 5.345 9.045z" fill="url(#mpaint11_linear)"/><path d="M261.296 166.303c0 1.851-1.439 2.673-3.083 1.645-1.645-1.028-3.084-3.289-3.084-5.139s1.439-2.673 3.084-1.645c1.85.823 3.083 3.084 3.083 5.139z" fill="#3F21D3"/><path d="M156.654 97.439c0-3.29-2.261-7.4-5.345-9.045-1.439-.823-2.672-.823-3.7-.411l-3.701 2.26h2.262c0 .412-.206.823-.206 1.234 0 3.29 2.261 7.4 5.345 9.045.411.206.823.411 1.028.411l-1.028 2.056 3.701-2.056c1.028-.616 1.644-1.85 1.644-3.494z" fill="url(#mpaint12_linear)"/><path d="M152.954 99.7c0 3.289-2.261 4.728-5.345 3.083-2.878-1.644-5.345-5.755-5.345-9.044 0-3.29 2.261-4.729 5.345-3.084 3.084 1.439 5.345 5.55 5.345 9.045z" fill="url(#mpaint13_linear)"/><path d="M150.693 98.26c0 1.851-1.439 2.673-3.084 1.645-1.645-1.027-3.084-3.289-3.084-5.139s1.439-2.672 3.084-1.644c1.85 1.028 3.084 3.289 3.084 5.139z" fill="#3F21D3"/><path d="M267.258 426.962c0-3.289-2.262-7.4-5.345-9.045-1.439-.822-2.673-.822-3.701-.411l-3.7 2.261h2.261c0 .411-.205.823-.205 1.234 0 3.289 2.261 7.4 5.345 9.045.411.205.822.411 1.028.411l-1.028 2.055 3.7-2.055c1.028-.617 1.645-1.85 1.645-3.495z" fill="url(#mpaint14_linear)"/><path d="M263.557 429.223c0 3.289-2.261 4.728-5.345 3.084-2.878-1.645-5.345-5.756-5.345-9.045 0-3.289 2.262-4.728 5.345-3.084 3.084 1.439 5.345 5.551 5.345 9.045z" fill="url(#mpaint15_linear)"/><path d="M261.296 427.784c0 1.85-1.439 2.673-3.083 1.645-1.645-1.028-3.084-3.289-3.084-5.139s1.439-2.673 3.084-1.645c1.85 1.028 3.083 3.289 3.083 5.139z" fill="#3F21D3"/><path d="M156.654 358.919c0-3.289-2.261-7.4-5.345-9.044-1.439-.823-2.672-.823-3.7-.412l-3.701 2.262h2.262c0 .411-.206.822-.206 1.233 0 3.289 2.261 7.4 5.345 9.045.411.206.823.411 1.028.411l-1.028 2.056 3.701-2.056c1.028-.617 1.644-1.644 1.644-3.495z" fill="url(#mpaint16_linear)"/><path d="M152.954 361.181c0 3.289-2.261 4.728-5.345 3.083-2.878-1.644-5.345-5.756-5.345-9.045 0-3.289 2.261-4.728 5.345-3.083 3.084 1.644 5.345 5.756 5.345 9.045z" fill="url(#mpaint17_linear)"/><path d="M150.693 359.947c0 1.85-1.439 2.673-3.084 1.645s-3.084-3.289-3.084-5.139 1.439-2.673 3.084-1.645c1.85.822 3.084 3.289 3.084 5.139z" fill="#3F21D3"/><path d="M197.36 220.779l-14.391-8.223v-3.083l14.391 8.222v3.084z" fill="#42E8E0"/><path opacity=".3" d="M204.761 225.096l-5.345-2.878v-3.289l5.345 3.083v3.084z" fill="#42E8E0"/><path d="M210.311 228.385l-3.495-2.056v-3.084l3.495 2.056v3.084zM190.781 224.273l-7.812-4.522v-3.084l7.812 4.523v3.083zM202.5 231.057l-9.457-5.55v-3.084l9.457 5.55v3.084zM208.255 234.346l-3.495-2.056v-3.083l3.495 2.056v3.083zM213.6 237.43l-3.495-1.851v-3.289l3.495 2.056v3.084zM188.519 230.235l-5.55-3.289v-3.084l5.55 3.289v3.084zM192.631 232.702l-1.85-1.234v-3.083l1.85 1.027v3.29zM198.387 235.991l-3.494-2.056v-3.289l3.494 2.056v3.289z" fill="#42E8E0"/><path opacity=".3" d="M203.938 246.269l-20.969-12.128v-3.084l20.969 12.128v3.084z" fill="#42E8E0"/><path d="M211.134 250.586l-5.14-3.084v-3.083l5.14 2.878v3.289zM188.519 244.624l-5.55-3.289v-3.083l5.55 3.289v3.083zM201.883 252.436l-11.102-6.578v-3.084l11.102 6.373v3.289zM207.639 255.725l-3.494-2.056v-3.289l3.494 2.056v3.289z" fill="#42E8E0"/><path opacity=".3" d="M194.481 255.314l-11.512-6.784v-3.083l11.512 6.783v3.084zM205.171 261.481l-8.429-4.934v-3.083l8.429 4.728v3.289z" fill="#42E8E0"/><path d="M212.985 266.003l-5.756-3.289v-3.289l5.756 3.289v3.289zM186.875 257.986l-3.906-2.261v-3.083l3.906 2.261v3.083zM194.276 262.303l-5.139-2.878v-3.289l5.139 3.084v3.083zM204.761 268.47l-8.429-4.933v-3.084l8.429 4.728v3.289zM194.893 269.909l-11.924-6.989v-3.084l11.924 6.99v3.083z" fill="#42E8E0"/><path opacity=".3" d="M208.461 277.721l-11.307-6.579v-3.083l11.307 6.578v3.084z" fill="#42E8E0"/><path d="M214.012 281.01l-3.494-2.056v-3.083l3.494 2.055v3.084zM219.561 284.093l-3.495-2.055v-3.084l3.495 2.056v3.083zM190.164 274.432l-7.195-4.112v-3.289l7.195 4.111v3.29zM220.18 234.14l9.868 5.756v-3.289l-9.868-5.756v3.289z" fill="#42E8E0"/><path opacity=".3" d="M222.234 242.569l7.813 4.522v-3.289l-7.813-4.522v3.289z" fill="#42E8E0"/><path d="M224.496 250.997l5.551 3.289v-3.289l-5.551-3.289v3.289zM221.824 256.753l8.224 4.728v-3.289l-8.224-4.728v3.289zM224.496 265.387l5.551 3.289v-3.289l-5.551-3.084v3.084zM222.852 271.759l7.195 4.112v-3.084l-7.195-4.317v3.289zM226.141 280.804l3.906 2.261v-3.083l-3.906-2.261v3.083zM222.646 285.943l7.401 4.317v-3.083l-7.401-4.523v3.289zM222.852 293.344l7.195 4.111v-3.083l-7.195-4.112v3.084zM195.304 277.31l-3.083-1.645v-3.083l3.083 1.644v3.084z" fill="#42E8E0"/><path opacity=".3" d="M204.349 282.654l-6.785-3.905v-3.29l6.785 4.112v3.083z" fill="#42E8E0"/><path d="M210.104 306.911l-11.512-6.784v-3.083l11.512 6.784v3.083zM218.124 311.434l-4.522-2.673v-3.083l4.522 2.672v3.084z" fill="#42E8E0"/><path d="M247.522 347.819c-.411 0-1.028-.206-1.439-.411l-80.178-46.253c-1.644-1.028-2.878-3.289-2.878-5.55v-115.94c0-1.233.412-2.467 1.439-2.878.823-.411 1.645-.411 2.673.206l80.177 46.252c1.645 1.028 2.878 3.29 2.878 5.551v115.939c0 1.234-.411 2.467-1.439 2.878-.411.206-.822.206-1.233.206zm-82.028-168.976c-.205 0-.411.206-.411 1.028V295.81c0 1.234.822 3.084 1.85 3.495l80.178 46.253c.205.205.411.205.411.205s.205-.205.205-1.028V228.796c0-1.234-.822-3.084-1.85-3.495l-79.972-46.458h-.411z" fill="#42E8E0"/><path d="M108.959 580.52L0 517.617l108.959-62.903 108.959 62.903-108.959 62.903zM3.084 517.617l105.875 61.053 105.875-61.053-105.875-61.053L3.084 517.617z" fill="#8686F2"/><path d="M209.694 494.182v-20.351L108.958 529.54 8.223 473.831v20.351l100.735 58.176 100.736-58.176z" fill="url(#mpaint18_linear)"/><path d="M108.958 532.007L8.223 473.831l100.735-58.175 100.736 58.175-100.736 58.176z" fill="url(#mpaint19_linear)"/><path opacity=".5" d="M108.958 530.362L9.662 473.009l-1.44.822 100.736 58.176 100.736-58.176-1.439-.822-99.297 57.353z" fill="#fff"/><path d="M108.958 509.805l-62.292-35.974 62.292-35.974 62.291 35.974-62.291 35.974z" fill="#0F054C"/><path opacity=".5" d="M108.958 509.805l-62.292-35.974 62.292-35.974 62.291 35.974-62.291 35.974z" fill="url(#mpaint20_linear)"/><path opacity=".5" d="M108.959 387.699l62.292 35.974v50.158l-62.292-35.974v-50.158z" fill="url(#mpaint21_linear)"/><path opacity=".5" d="M108.958 437.857l-62.292 35.974v-50.158l62.292-35.974v50.158z" fill="url(#mpaint22_linear)"/><path opacity=".5" d="M108.958 459.647l-62.292-35.974 62.292-35.974 62.291 35.974-62.291 35.974z" fill="url(#mpaint23_linear)"/><path opacity=".5" d="M108.959 459.647v50.158l62.292-35.974v-50.158l-62.292 35.974z" fill="url(#mpaint24_linear)"/><path opacity=".5" d="M46.666 423.673v50.158l62.292 35.974v-50.158l-62.292-35.974z" fill="url(#mpaint25_linear)"/><path d="M436.041 580.52l-108.959-62.903 108.959-62.903L545 517.617 436.041 580.52zm-105.875-62.903l105.875 61.053 105.875-61.053-105.875-61.053-105.875 61.053z" fill="#8686F2"/><path d="M536.776 494.182v-20.351L436.04 529.54l-100.735-55.709v20.351l100.735 58.176 100.736-58.176z" fill="url(#mpaint26_linear)"/><path d="M436.04 532.007l-100.735-58.176 100.735-58.175 100.736 58.175-100.736 58.176z" fill="url(#mpaint27_linear)"/><path opacity=".5" d="M436.04 530.362l-99.296-57.353-1.439.822 100.735 58.176 100.736-58.176-1.439-.822-99.297 57.353z" fill="#fff"/><path d="M436.04 509.805l-62.292-35.974 62.292-35.974 62.291 35.974-62.291 35.974z" fill="#0F054C"/><path opacity=".5" d="M436.04 509.805l-62.292-35.974 62.292-35.974 62.291 35.974-62.291 35.974z" fill="url(#mpaint28_linear)"/><path opacity=".5" d="M436.041 387.699l62.292 35.974v50.158l-62.292-35.974v-50.158z" fill="url(#mpaint29_linear)"/><path opacity=".5" d="M436.04 437.857l-62.292 35.974v-50.158l62.292-35.974v50.158z" fill="url(#mpaint30_linear)"/><path opacity=".5" d="M436.04 459.647l-62.292-35.974 62.292-35.974 62.291 35.974-62.291 35.974z" fill="url(#mpaint31_linear)"/><path opacity=".5" d="M436.041 459.647v50.158l62.292-35.974v-50.158l-62.292 35.974z" fill="url(#mpaint32_linear)"/><path opacity=".5" d="M373.748 423.673v50.158l62.292 35.974v-50.158l-62.292-35.974z" fill="url(#mpaint33_linear)"/><path d="M270.341 613l-.411-.206c-37.005-21.379-107.314-62.286-109.164-62.903l.411-1.439c1.233.411 90.251 52.008 108.959 62.903l110.603-63.931.617 1.234L270.341 613z" fill="#8686F2"/><path opacity=".8" d="M108.958 457.797l-60.853-34.946-1.439.822 62.292 35.974 62.291-35.974-1.439-.822-60.852 34.946zM436.042 457.797l-60.853-34.946-1.439.822 62.292 35.974 62.291-35.974-1.439-.822-60.852 34.946z" fill="#42E8E0"/></g><defs><linearGradient id="mpaint0_linear" x1="338.419" y1="362.066" x2="338.419" y2="83.91" gradientUnits="userSpaceOnUse"><stop stop-color="#C0BFF6"/><stop offset=".294" stop-color="#C5C4F7"/><stop offset=".64" stop-color="#D3D2F9"/><stop offset="1" stop-color="#E9E9FD"/></linearGradient><linearGradient id="mpaint1_linear" x1="140.693" y1="73.627" x2="272.512" y2="73.627" gradientUnits="userSpaceOnUse"><stop/><stop offset=".047" stop-color="#2F2F2F"/><stop offset=".098" stop-color="#5A5A5A"/><stop offset=".155" stop-color="#828282"/><stop offset=".216" stop-color="#A4A4A4"/><stop offset=".283" stop-color="silver"/><stop offset=".357" stop-color="#D7D7D7"/><stop offset=".442" stop-color="#E9E9E9"/><stop offset=".544" stop-color="#F6F6F6"/><stop offset=".681" stop-color="#FDFDFD"/><stop offset="1" stop-color="#fff"/></linearGradient><linearGradient id="mpaint2_linear" x1="140.693" y1="73.627" x2="272.512" y2="73.627" gradientUnits="userSpaceOnUse"><stop stop-color="#E9E9FD"/><stop offset=".037" stop-color="#D3D5F7"/><stop offset=".106" stop-color="#B2B6EF"/><stop offset=".182" stop-color="#969BE7"/><stop offset=".266" stop-color="#7F86E1"/><stop offset=".363" stop-color="#6D75DD"/><stop offset=".48" stop-color="#606AD9"/><stop offset=".636" stop-color="#5963D8"/><stop offset="1" stop-color="#5761D7"/></linearGradient><linearGradient id="mpaint3_linear" x1="176.865" y1="70.269" x2="368.155" y2="70.269" gradientUnits="userSpaceOnUse"><stop stop-color="#C0BFF6"/><stop offset=".294" stop-color="#C5C4F7"/><stop offset=".64" stop-color="#D3D2F9"/><stop offset="1" stop-color="#E9E9FD"/></linearGradient><linearGradient id="mpaint4_linear" x1="332.678" y1="122.788" x2="309.426" y2="82.189" gradientUnits="userSpaceOnUse"><stop stop-color="#C0BFF6"/><stop offset=".294" stop-color="#C5C4F7"/><stop offset=".64" stop-color="#D3D2F9"/><stop offset="1" stop-color="#E9E9FD"/></linearGradient><linearGradient id="mpaint5_linear" x1="224.688" y1="103.525" x2="224.688" y2="41.593" gradientUnits="userSpaceOnUse"><stop stop-color="#5761D7"/><stop offset=".178" stop-color="#5C66D9"/><stop offset=".388" stop-color="#6A73DF"/><stop offset=".613" stop-color="#8289E8"/><stop offset=".849" stop-color="#A3A7F5"/><stop offset="1" stop-color="#BCBEFF"/></linearGradient><linearGradient id="mpaint6_linear" x1="228.457" y1="55.634" x2="277.991" y2="55.634" gradientUnits="userSpaceOnUse"><stop stop-color="#5761D7"/><stop offset=".178" stop-color="#5C66D9"/><stop offset=".388" stop-color="#6A73DF"/><stop offset=".613" stop-color="#8289E8"/><stop offset=".849" stop-color="#A3A7F5"/><stop offset="1" stop-color="#BCBEFF"/></linearGradient><linearGradient id="mpaint7_linear" x1="241.316" y1="63.034" x2="290.85" y2="63.034" gradientUnits="userSpaceOnUse"><stop stop-color="#5761D7"/><stop offset=".178" stop-color="#5C66D9"/><stop offset=".388" stop-color="#6A73DF"/><stop offset=".613" stop-color="#8289E8"/><stop offset=".849" stop-color="#A3A7F5"/><stop offset="1" stop-color="#BCBEFF"/></linearGradient><linearGradient id="mpaint8_linear" x1="254.172" y1="70.433" x2="303.705" y2="70.433" gradientUnits="userSpaceOnUse"><stop stop-color="#5761D7"/><stop offset=".178" stop-color="#5C66D9"/><stop offset=".388" stop-color="#6A73DF"/><stop offset=".613" stop-color="#8289E8"/><stop offset=".849" stop-color="#A3A7F5"/><stop offset="1" stop-color="#BCBEFF"/></linearGradient><linearGradient id="mpaint9_linear" x1="267.031" y1="77.833" x2="316.564" y2="77.833" gradientUnits="userSpaceOnUse"><stop stop-color="#5761D7"/><stop offset=".178" stop-color="#5C66D9"/><stop offset=".388" stop-color="#6A73DF"/><stop offset=".613" stop-color="#8289E8"/><stop offset=".849" stop-color="#A3A7F5"/><stop offset="1" stop-color="#BCBEFF"/></linearGradient><linearGradient id="mpaint10_linear" x1="254.606" y1="163.202" x2="267.29" y2="163.202" gradientUnits="userSpaceOnUse"><stop stop-color="#C0BFF6"/><stop offset=".294" stop-color="#C5C4F7"/><stop offset=".64" stop-color="#D3D2F9"/><stop offset="1" stop-color="#E9E9FD"/></linearGradient><linearGradient id="mpaint11_linear" x1="253.062" y1="164.494" x2="263.552" y2="164.494" gradientUnits="userSpaceOnUse"><stop stop-color="#5761D7"/><stop offset=".178" stop-color="#5C66D9"/><stop offset=".388" stop-color="#6A73DF"/><stop offset=".613" stop-color="#8289E8"/><stop offset=".849" stop-color="#A3A7F5"/><stop offset="1" stop-color="#BCBEFF"/></linearGradient><linearGradient id="mpaint12_linear" x1="144.052" y1="95.28" x2="156.736" y2="95.28" gradientUnits="userSpaceOnUse"><stop stop-color="#C0BFF6"/><stop offset=".294" stop-color="#C5C4F7"/><stop offset=".64" stop-color="#D3D2F9"/><stop offset="1" stop-color="#E9E9FD"/></linearGradient><linearGradient id="mpaint13_linear" x1="142.508" y1="96.572" x2="152.998" y2="96.572" gradientUnits="userSpaceOnUse"><stop stop-color="#5761D7"/><stop offset=".178" stop-color="#5C66D9"/><stop offset=".388" stop-color="#6A73DF"/><stop offset=".613" stop-color="#8289E8"/><stop offset=".849" stop-color="#A3A7F5"/><stop offset="1" stop-color="#BCBEFF"/></linearGradient><linearGradient id="mpaint14_linear" x1="254.606" y1="424.81" x2="267.29" y2="424.81" gradientUnits="userSpaceOnUse"><stop stop-color="#C0BFF6"/><stop offset=".294" stop-color="#C5C4F7"/><stop offset=".64" stop-color="#D3D2F9"/><stop offset="1" stop-color="#E9E9FD"/></linearGradient><linearGradient id="mpaint15_linear" x1="253.062" y1="426.102" x2="263.552" y2="426.102" gradientUnits="userSpaceOnUse"><stop stop-color="#5761D7"/><stop offset=".178" stop-color="#5C66D9"/><stop offset=".388" stop-color="#6A73DF"/><stop offset=".613" stop-color="#8289E8"/><stop offset=".849" stop-color="#A3A7F5"/><stop offset="1" stop-color="#BCBEFF"/></linearGradient><linearGradient id="mpaint16_linear" x1="144.052" y1="356.888" x2="156.736" y2="356.888" gradientUnits="userSpaceOnUse"><stop stop-color="#C0BFF6"/><stop offset=".294" stop-color="#C5C4F7"/><stop offset=".64" stop-color="#D3D2F9"/><stop offset="1" stop-color="#E9E9FD"/></linearGradient><linearGradient id="mpaint17_linear" x1="142.508" y1="358.18" x2="152.998" y2="358.18" gradientUnits="userSpaceOnUse"><stop stop-color="#5761D7"/><stop offset=".178" stop-color="#5C66D9"/><stop offset=".388" stop-color="#6A73DF"/><stop offset=".613" stop-color="#8289E8"/><stop offset=".849" stop-color="#A3A7F5"/><stop offset="1" stop-color="#BCBEFF"/></linearGradient><linearGradient id="mpaint18_linear" x1="8.252" y1="513.144" x2="151.804" y2="513.144" gradientUnits="userSpaceOnUse"><stop offset=".247" stop-color="#5761D7"/><stop offset=".436" stop-color="#6C74DF"/><stop offset=".825" stop-color="#A2A6F5"/><stop offset="1" stop-color="#BCBEFF"/></linearGradient><linearGradient id="mpaint19_linear" x1="8.252" y1="473.906" x2="209.708" y2="473.906" gradientUnits="userSpaceOnUse"><stop stop-color="#C0BFF6"/><stop offset=".294" stop-color="#C5C4F7"/><stop offset=".64" stop-color="#D3D2F9"/><stop offset="1" stop-color="#E9E9FD"/></linearGradient><linearGradient id="mpaint20_linear" x1="46.708" y1="473.907" x2="171.251" y2="473.907" gradientUnits="userSpaceOnUse"><stop stop-color="#42E8E0"/><stop offset=".151" stop-color="#43E3E0"/><stop offset=".329" stop-color="#45D5DF"/><stop offset=".52" stop-color="#49BDDD"/><stop offset=".721" stop-color="#4E9CDB"/><stop offset=".927" stop-color="#5472D8"/><stop offset="1" stop-color="#5761D7"/></linearGradient><linearGradient id="mpaint21_linear" x1="108.98" y1="430.786" x2="171.252" y2="430.786" gradientUnits="userSpaceOnUse"><stop stop-color="#42E8E0"/><stop offset=".151" stop-color="#43E3E0"/><stop offset=".329" stop-color="#45D5DF"/><stop offset=".52" stop-color="#49BDDD"/><stop offset=".721" stop-color="#4E9CDB"/><stop offset=".927" stop-color="#5472D8"/><stop offset="1" stop-color="#5761D7"/></linearGradient><linearGradient id="mpaint22_linear" x1="46.708" y1="430.785" x2="108.98" y2="430.785" gradientUnits="userSpaceOnUse"><stop stop-color="#42E8E0"/><stop offset=".151" stop-color="#43E3E0"/><stop offset=".329" stop-color="#45D5DF"/><stop offset=".52" stop-color="#49BDDD"/><stop offset=".721" stop-color="#4E9CDB"/><stop offset=".927" stop-color="#5472D8"/><stop offset="1" stop-color="#5761D7"/></linearGradient><linearGradient id="mpaint23_linear" x1="46.708" y1="423.614" x2="171.251" y2="423.614" gradientUnits="userSpaceOnUse"><stop stop-color="#42E8E0"/><stop offset=".151" stop-color="#43E3E0"/><stop offset=".329" stop-color="#45D5DF"/><stop offset=".52" stop-color="#49BDDD"/><stop offset=".721" stop-color="#4E9CDB"/><stop offset=".927" stop-color="#5472D8"/><stop offset="1" stop-color="#5761D7"/></linearGradient><linearGradient id="mpaint24_linear" x1="108.982" y1="466.735" x2="171.252" y2="466.735" gradientUnits="userSpaceOnUse"><stop stop-color="#42E8E0"/><stop offset=".151" stop-color="#43E3E0"/><stop offset=".329" stop-color="#45D5DF"/><stop offset=".52" stop-color="#49BDDD"/><stop offset=".721" stop-color="#4E9CDB"/><stop offset=".927" stop-color="#5472D8"/><stop offset="1" stop-color="#5761D7"/></linearGradient><linearGradient id="mpaint25_linear" x1="46.708" y1="466.735" x2="108.98" y2="466.735" gradientUnits="userSpaceOnUse"><stop stop-color="#42E8E0"/><stop offset=".151" stop-color="#43E3E0"/><stop offset=".329" stop-color="#45D5DF"/><stop offset=".52" stop-color="#49BDDD"/><stop offset=".721" stop-color="#4E9CDB"/><stop offset=".927" stop-color="#5472D8"/><stop offset="1" stop-color="#5761D7"/></linearGradient><linearGradient id="mpaint26_linear" x1="335.31" y1="513.144" x2="478.861" y2="513.144" gradientUnits="userSpaceOnUse"><stop offset=".247" stop-color="#5761D7"/><stop offset=".436" stop-color="#6C74DF"/><stop offset=".825" stop-color="#A2A6F5"/><stop offset="1" stop-color="#BCBEFF"/></linearGradient><linearGradient id="mpaint27_linear" x1="335.31" y1="473.906" x2="536.766" y2="473.906" gradientUnits="userSpaceOnUse"><stop stop-color="#C0BFF6"/><stop offset=".294" stop-color="#C5C4F7"/><stop offset=".64" stop-color="#D3D2F9"/><stop offset="1" stop-color="#E9E9FD"/></linearGradient><linearGradient id="mpaint28_linear" x1="373.766" y1="473.907" x2="498.309" y2="473.907" gradientUnits="userSpaceOnUse"><stop stop-color="#42E8E0"/><stop offset=".151" stop-color="#43E3E0"/><stop offset=".329" stop-color="#45D5DF"/><stop offset=".52" stop-color="#49BDDD"/><stop offset=".721" stop-color="#4E9CDB"/><stop offset=".927" stop-color="#5472D8"/><stop offset="1" stop-color="#5761D7"/></linearGradient><linearGradient id="mpaint29_linear" x1="436.038" y1="430.786" x2="498.31" y2="430.786" gradientUnits="userSpaceOnUse"><stop stop-color="#42E8E0"/><stop offset=".151" stop-color="#43E3E0"/><stop offset=".329" stop-color="#45D5DF"/><stop offset=".52" stop-color="#49BDDD"/><stop offset=".721" stop-color="#4E9CDB"/><stop offset=".927" stop-color="#5472D8"/><stop offset="1" stop-color="#5761D7"/></linearGradient><linearGradient id="mpaint30_linear" x1="373.766" y1="430.785" x2="436.038" y2="430.785" gradientUnits="userSpaceOnUse"><stop stop-color="#42E8E0"/><stop offset=".151" stop-color="#43E3E0"/><stop offset=".329" stop-color="#45D5DF"/><stop offset=".52" stop-color="#49BDDD"/><stop offset=".721" stop-color="#4E9CDB"/><stop offset=".927" stop-color="#5472D8"/><stop offset="1" stop-color="#5761D7"/></linearGradient><linearGradient id="mpaint31_linear" x1="373.766" y1="423.614" x2="498.309" y2="423.614" gradientUnits="userSpaceOnUse"><stop stop-color="#42E8E0"/><stop offset=".151" stop-color="#43E3E0"/><stop offset=".329" stop-color="#45D5DF"/><stop offset=".52" stop-color="#49BDDD"/><stop offset=".721" stop-color="#4E9CDB"/><stop offset=".927" stop-color="#5472D8"/><stop offset="1" stop-color="#5761D7"/></linearGradient><linearGradient id="mpaint32_linear" x1="436.04" y1="466.735" x2="498.31" y2="466.735" gradientUnits="userSpaceOnUse"><stop stop-color="#42E8E0"/><stop offset=".151" stop-color="#43E3E0"/><stop offset=".329" stop-color="#45D5DF"/><stop offset=".52" stop-color="#49BDDD"/><stop offset=".721" stop-color="#4E9CDB"/><stop offset=".927" stop-color="#5472D8"/><stop offset="1" stop-color="#5761D7"/></linearGradient><linearGradient id="mpaint33_linear" x1="373.766" y1="466.735" x2="436.038" y2="466.735" gradientUnits="userSpaceOnUse"><stop stop-color="#42E8E0"/><stop offset=".151" stop-color="#43E3E0"/><stop offset=".329" stop-color="#45D5DF"/><stop offset=".52" stop-color="#49BDDD"/><stop offset=".721" stop-color="#4E9CDB"/><stop offset=".927" stop-color="#5472D8"/><stop offset="1" stop-color="#5761D7"/></linearGradient></defs></svg>