<?xml version="1.0" encoding="utf-8"?><svg width="731" height="458" fill="none" xmlns="http://www.w3.org/2000/svg" viewBox="0 0 731 458"><g opacity=".1"><path opacity=".1" d="M515.662 286.176c20.998.594 41.799 4.954 59.034 13.08v-10.504c-17.235-8.125-38.036-12.485-59.034-13.08l-93.901.595v10.503l93.901-.594z" fill="url(#opaint0_linear)"/><path opacity=".1" d="M319.342 170.041l.198-8.919c-1.783-12.881-10.698-25.367-26.942-35.672v10.503c15.65 9.711 24.564 21.8 26.744 34.088z" fill="url(#opaint1_linear)"/><path opacity=".1" d="M584.997 304.805c15.65 9.711 24.565 21.998 26.348 34.285 2.575-15.854-6.339-32.303-26.348-44.987v10.702z" fill="url(#opaint2_linear)"/><path opacity=".1" d="M708.218 350.189v-10.504c-1.981 23.386-16.244 46.375-42.79 65.598v10.504c26.744-19.224 41.007-42.213 42.79-65.598z" fill="url(#opaint3_linear)"/><path opacity=".1" d="M282.691 130.602v-10.503c-33.479-16.053-80.627-18.035-116.682-5.549v10.305c36.055-12.287 83.203-10.504 116.682 5.747z" fill="url(#opaint4_linear)"/><path opacity=".1" d="M708.217 359.305v10.9c.396-3.765.396-7.333 0-10.9z" fill="url(#opaint5_linear)"/><path opacity=".1" d="M372.234 413.805c-34.47-19.818-53.488-45.384-57.252-71.345v10.503c3.764 25.962 22.782 51.528 57.252 71.346 4.358 2.576 9.113 4.955 13.867 7.333v-10.504c-4.754-2.378-9.31-4.756-13.867-7.333z" fill="url(#opaint6_linear)"/><path opacity=".1" d="M396.008 425.498v10.504c77.26 32.502 186.019 28.736 255.156-11.099l5.944-3.567v-10.503c-1.981 1.189-3.764 2.378-5.944 3.567-69.137 39.835-177.896 43.6-255.156 11.098z" fill="url(#opaint7_linear)"/><path opacity=".1" d="M146.793 133.575c1.783-.991 3.764-2.18 5.745-2.973v-10.503c-1.981.991-3.962 1.981-5.745 2.972-21.593 12.486-31.102 29.331-28.527 45.979 2.179-13.08 11.688-25.764 28.527-35.475z" fill="url(#opaint8_linear)"/><path opacity=".1" d="M21.394 160.528l-.198-.198v10.503l.198.199c-.99 25.763 12.877 51.923 41.8 73.327v-10.504c-28.923-21.403-42.79-47.563-41.8-73.327z" fill="url(#opaint9_linear)"/><path opacity=".1" d="M79.835 244.954c-2.972-1.784-5.943-3.568-8.717-5.351v10.503c2.774 1.784 5.547 3.568 8.717 5.351 44.177 25.566 104.202 36.664 161.652 33.295l64.185-.793v-10.503l-64.185.792c-57.45 3.369-117.277-7.729-161.652-33.294z" fill="url(#opaint10_linear)"/></g><path d="M166.01 80.066l-72.11-.198v30.718l72.11.198c36.055-12.485 83.203-10.504 116.881 5.747l-.198-30.718c-33.48-16.25-80.628-18.233-116.683-5.747z" fill="url(#opaint11_linear)"/><path d="M166.01 80.066l-72.11-.198v30.718l72.11.198V80.066z" fill="url(#opaint12_linear)"/><path d="M287.646 47.762c-1.189 0-2.575.198-3.368.793-.99.594-1.386 1.189-1.386 1.982l.198 30.123c.198-.396.594-.99 1.188-1.189.991-.594 2.179-.793 3.368-.793l66.761.199V47.96l-66.761-.198z" fill="url(#opaint13_linear)"/><path d="M390.857 343.649c-1.189 0-2.575.198-3.368.792-.99.595-1.386 1.189-1.386 1.982l.198 30.124c.198-.396.594-.991 1.188-1.189.991-.595 2.179-.793 3.368-.793l56.658.198v-30.718l-56.658-.396z" fill="url(#opaint14_linear)"/><path d="M708.219 305.201c-1.981 23.386-16.244 46.375-42.79 65.599l-67.95-.199v-10.503l-.198.198.198 41.024 67.95.198c30.904-22.197 45.167-49.546 42.79-76.697v-19.62z" fill="url(#opaint15_linear)"/><path d="M597.478 370.8v30.718h67.95v-30.52c0-.198-68.346-.198-67.95-.198z" fill="url(#opaint16_linear)"/><path d="M152.736 85.615c-1.981.99-3.962 1.982-5.745 2.973-26.15 15.061-34.668 36.663-25.555 56.085 4.358-9.314 12.876-18.034 25.357-25.367 1.783-.991 3.764-2.18 5.745-2.973l.198-30.718z" fill="url(#opaint17_linear)"/><path d="M136.888 199.768l-73.694-.198c-28.923-21.602-42.988-47.564-41.8-73.328l-.198-.198v35.871h.198c.793 24.178 14.858 48.357 41.8 68.373l73.694.198v-30.718z" fill="url(#opaint18_linear)"/><path d="M136.889 199.768h-.198l-73.497-.198v30.718l73.695.198v-30.718z" fill="url(#opaint19_linear)"/><path opacity=".9" d="M319.54 126.639c-1.783-12.882-10.698-25.368-26.942-35.673v30.718c14.461 9.116 23.178 20.215 26.149 31.511l.793-26.556z" fill="url(#opaint20_linear)"/><path opacity=".9" d="M372.236 379.52c-34.47-19.819-53.488-45.384-57.252-71.346l-.793 23.385c.991 28.539 20.207 56.879 58.045 78.679a233.572 233.572 0 0014.065 7.333l-.198-30.719c-4.755-2.378-9.311-4.756-13.867-7.332z" fill="url(#opaint21_linear)"/><path d="M651.363 379.916c-69.138 40.033-177.897 43.6-255.157 11.098v30.719c77.26 32.502 186.019 28.736 255.157-11.099l5.943-3.567v-30.718c-2.179 1.189-3.962 2.378-5.943 3.567z" fill="url(#opaint22_linear)"/><path d="M307.654 217.803v-30.719l-1.981 56.086v30.718l1.981-56.085z" fill="url(#opaint23_linear)"/><path d="M305.673 243.17l-64.185.793c-57.45 3.369-117.277-7.729-161.652-33.295-2.972-1.784-5.943-3.567-8.717-5.351v30.52c2.774 1.784 5.547 3.568 8.717 5.351 44.177 25.566 104.202 36.664 161.652 33.295l64.185-.793v-30.52z" fill="url(#opaint24_linear)"/><path opacity=".95" d="M93.901 79.868l72.11.198c36.054-12.486 83.203-10.504 116.88 5.747l-.198-35.078c0-.793.595-1.388 1.387-1.982.991-.595 2.179-.793 3.368-.793l66.76.198C281.505 7.928 169.577 5.55 93.703 41.024l.198 38.844z" fill="url(#opaint25_linear)"/><path opacity=".95" d="M136.89 199.768l-.198-36.466c-27.933-22.989-24.763-54.5 10.103-74.714 1.783-.991 3.764-2.18 5.745-2.973l-63.393-.198a7.66 7.66 0 01-3.368-.793c-.792-.595-1.387-1.19-1.387-1.982l-.198-36.862c-1.98.991-3.962 1.982-5.745 3.171C7.53 89.777 2.774 154.582 63.195 199.57l73.695.198z" fill="url(#opaint26_linear)"/><path opacity=".95" d="M307.654 187.084l-94.693 1.189-.198.199c-23.574-.991-46.752-6.739-64.78-17.242-.594-.397-1.188-.595-1.585-.991l.199 32.304c0 1.585-2.18 2.774-4.755 2.774l-70.525-.198c2.774 1.784 5.547 3.567 8.717 5.351 44.177 25.565 104.202 36.664 161.652 33.295l64.185-.793 1.783-55.888z" fill="url(#opaint27_linear)"/><path opacity=".95" d="M640.27 213.443c-35.857-18.035-80.43-27.35-125.202-28.142l-91.127.594-1.981 55.888 93.703-.595c20.999.595 41.799 4.955 59.034 13.08l65.771.198-.198-41.023z" fill="url(#opaint28_linear)"/><path d="M574.697 254.268c-17.235-8.125-38.035-12.485-59.034-13.08l-93.703.595v30.718l93.703-.594c20.999.594 41.799 4.954 59.034 13.08l65.771.198-.198-30.719-65.573-.198z" fill="url(#opaint29_linear)"/><path d="M574.696 284.987l65.77.198-.198-30.719-65.572-.198v30.719z" fill="url(#opaint30_linear)"/><path opacity=".95" d="M650.174 257.241c0 .793-.594 1.387-1.387 1.982-.99.594-2.179.793-3.368.793l-60.421-.199c31.102 19.422 35.262 48.159 12.282 69.761l.199 41.023 67.949.199c62.204-44.591 57.054-110.388-15.056-152.006-.198 0-.396-.199-.396-.199l.198 38.646z" fill="url(#opaint31_linear)"/><path d="M608.176 314.912c0-.198.198-.198.198-.396 8.717-18.629.793-39.439-23.376-54.699v30.719c11.292 7.134 19.018 15.458 23.178 24.376z" fill="url(#opaint32_linear)"/><path opacity=".95" d="M386.301 386.852l-.198-40.429c0-.793.594-1.387 1.387-1.982.99-.594 2.179-.792 3.367-.792l56.658.198c-2.377-1.189-4.755-2.378-7.132-3.766-18.423-10.702-28.329-24.376-29.517-38.447 0 0 5.943-172.617 4.952-179.752-3.565-24.773-20.998-48.95-52.101-68.373l-71.515-.198.198 37.655c16.245 10.107 25.159 22.791 26.942 35.673l-5.349 174.004c.991 28.538 20.207 56.878 58.045 78.678 4.754 2.775 9.509 5.153 14.263 7.531z" fill="url(#opaint33_linear)"/><path opacity=".95" d="M592.724 376.349a7.666 7.666 0 01-3.368-.793c-.792-.595-1.386-1.189-1.386-1.982l-.199-36.267c-1.584.991-3.169 2.18-4.952 3.171-32.687 18.827-82.609 21.8-121.041 9.116l-65.77-.198.198 41.816c77.26 32.502 186.019 28.737 255.156-11.098l5.944-3.567-64.582-.198z" fill="url(#opaint34_linear)"/><g opacity=".9"><path opacity=".95" d="M118.07 128.819c.396-14.468 9.905-28.737 28.923-39.835 1.783-.99 3.764-2.18 5.745-2.973h-3.764c-.594.397-1.386.793-1.981.991-20.008 11.495-29.517 26.557-28.923 41.817zM284.079 48.951c.991-.595 2.179-.793 3.368-.793l66.761.198c-1.189-.594-2.576-1.387-3.764-1.981l-62.997-.199c-1.189 0-2.575.199-3.368.793-.99.595-1.387 1.19-1.387 1.982v1.982c0-.793.595-1.387 1.387-1.982z" fill="#fff"/><path opacity=".95" d="M146.596 200.957l-.199-30.52.199 30.52z" fill="url(#opaint35_radial)"/><path opacity=".95" d="M611.742 298.859c.396-13.674-7.528-27.349-23.772-38.447h-2.972c17.433 10.702 26.348 24.575 26.744 38.447zM292.598 91.362c16.047 10.107 25.16 22.593 26.942 35.277v-1.586c-1.782-12.882-10.697-25.367-26.942-35.673l-.198-35.672.198 37.654z" fill="#fff"/><path opacity=".95" d="M650.174 255.656l-.198-36.664.198 36.664z" fill="url(#opaint36_radial)"/><path opacity=".95" d="M574.697 254.665l65.771.198v-1.982l-65.771-.198c-17.235-8.126-38.035-12.486-59.034-13.08l-93.703.594v1.982l93.703-.594c20.999.594 41.799 4.954 59.034 13.08zM651.362 378.331c-69.137 40.032-177.896 43.6-255.156 11.098l-.198-39.835.198 41.817c77.26 32.502 186.019 28.736 255.156-11.099l5.944-3.567h-3.17c-.991.595-1.981 1.189-2.774 1.586zM166.011 80.462c36.054-12.485 83.203-10.504 116.88 5.747v-1.981c-33.479-16.251-80.826-18.233-116.88-5.748l-72.11-.198-.198-36.862.198 38.844 72.11.198z" fill="#fff"/><path d="M665.429 369.214l-67.95-.198-.198-39.042.198 41.024 67.95.198c29.319-21.007 43.582-46.771 42.988-72.535 0 24.971-14.461 50.14-42.988 70.553z" fill="#fff"/><path opacity=".95" d="M443.552 342.261h-52.695c-1.189 0-2.575.199-3.368.793-.99.595-1.386 1.189-1.386 1.982v1.982c0-.793.594-1.388 1.386-1.982.991-.595 2.179-.793 3.368-.793l56.658.198c-1.387-.991-2.576-1.585-3.963-2.18z" fill="#fff"/><path d="M136.889 198.183l-73.694-.199c-27.735-20.611-41.8-45.582-41.998-70.354-.594 25.565 13.273 51.131 41.998 72.336l73.694.198v-1.981z" fill="#fff"/><path opacity=".95" d="M372.236 377.934c-37.442-21.602-56.856-49.744-58.045-78.282v1.387c.991 28.539 20.207 56.879 58.045 78.679a234.15 234.15 0 0014.065 7.333v-1.982c-4.755-2.18-9.509-4.558-14.065-7.135zM305.673 241.585l-64.185.792c-57.45 3.369-117.277-7.729-161.652-33.294-1.981-1.189-3.764-2.18-5.547-3.369h-3.17c2.774 1.783 5.547 3.567 8.717 5.35 44.177 25.566 104.202 36.664 161.652 33.295l64.185-.793 1.981-55.887-1.981 53.906z" fill="#fff"/></g><path d="M176.708 41.618a24.944 24.944 0 011.981-.594c.792-.198 1.387-.198 2.179-.397.793-.198 1.585-.198 2.576-.198.792 0 1.584 0 2.377.198.792.199 1.386.595 1.981.991.594.397.99.991 1.386 1.784.397.793.397 1.387.199 1.982-.199.594-.595.99-.991 1.387-.594.396-1.189.793-1.783.991l-2.377.595H182.255l1.981 4.756-2.377.396-5.151-11.89zm4.754.397c-.396 0-.792.198-1.188.198-.396 0-.594.198-.793.198l2.18 5.351h1.981c.594 0 1.188-.198 1.584-.396.595-.199.991-.397 1.189-.595a1.09 1.09 0 00.594-.99c.198-.397 0-.992-.198-1.388-.198-.595-.396-.991-.792-1.19-.396-.197-.793-.594-1.189-.594-.396-.198-.99-.198-1.585-.198-.594-.595-1.188-.595-1.783-.396zM206.028 51.33l-10.5.792-3.17-12.486 2.378-.198 2.773 11.297 8.32-.595.199 1.19zM216.329 47.366l-6.34.198-1.584 3.567h-2.378l5.745-13.08h1.387l7.726 12.684h-2.575l-1.981-3.37zm-5.745-.991l5.15-.199-2.179-3.963-.792-1.982-.396 1.982-1.783 4.162zM226.828 43.006l-1.189-1.982.198 1.982-.99 8.125h-2.377l1.386-12.882h1.387l7.33 8.522.99 1.982h.199l-.199-1.982.991-8.125h2.377l-1.386 12.882h-1.387l-7.33-8.522zM63.79 145.07h1.585c.594 0 1.188 0 1.584.198.595.198.99.198 1.387.396.396.198.792.397.99.793h.199c0-.198.198-.595.198-.793.198-.198.396-.594.792-.793a9.66 9.66 0 011.387-.594c.594-.198 1.387-.396 2.18-.396 1.188-.199 2.178 0 2.97 0 .793.198 1.585.396 2.18.594.594.396 1.188.595 1.585 1.189.396.397.594.991.792 1.387 0 .199.198.397.198.595 0 .198.198.396.198.793v1.387l-21.395 1.982-.594-1.189c-.198-.397-.396-.991-.595-1.586-.198-.396-.198-.792-.198-1.189 0-.396.199-.793.397-1.189s.792-.594 1.386-.991c.793-.396 1.585-.594 2.774-.594zm5.745 3.567c0-.198-.198-.396-.198-.595 0-.198-.198-.396-.198-.594a3.824 3.824 0 00-1.783-.991c-.793-.198-1.783-.396-2.774-.198-.594 0-1.188.198-1.585.396-.396.198-.792.396-.99.595-.198.198-.396.396-.396.792v.793c0 .396.198.595.198.793.198.198.198.396.198.594l7.528-.792v-.793zm10.103-1.586c0-.396-.198-.594-.594-.792-.198-.198-.595-.397-.99-.595-.397-.198-.793-.396-1.388-.396h-1.782c-.793 0-1.585.198-1.981.396-.397.198-.793.397-.991.793-.198.198-.396.594-.396.793 0 .396 0 .594.198.991l.396 1.189 7.924-.793v-.198-.397-.396c-.396-.396-.396-.595-.396-.595zM57.45 135.359v-1.189l14.858-.397c2.575 0 4.556.198 5.943.793 1.189.595 1.981 1.387 1.981 2.576.198 1.189-.396 2.18-1.585 2.775-1.188.396-2.971.793-5.349.793l-15.254.396-.198-1.387 14.066-.397c1.188 0 2.179-.198 2.773-.198.793-.198 1.387-.198 1.783-.396.396-.198.792-.397.99-.793.199-.198.199-.594.199-.991 0-.793-.595-1.387-1.585-1.585-.99-.198-2.576-.397-4.755-.397l-13.867.397zM57.648 129.81v-1.388l21.989.595-.198 1.387-21.791-.594zM81.222 119.702l-1.189 6.144-21.99-1.586.199-1.387 19.81 1.387.99-4.756 2.18.198zM60.422 114.748c0-.198 0-.397.198-.595 0-.198.198-.396.198-.793 0-.198.198-.396.198-.792 0-.198.198-.397.198-.595.397-.793.99-1.585 1.585-1.982.793-.594 1.783-.991 2.774-1.189 1.188-.198 2.377-.396 3.764-.396 1.386 0 2.971.198 4.556.396 1.387.198 2.773.397 4.16.793 1.189.396 2.377.793 3.17 1.189.792.595 1.585 1.189 1.783 1.784.396.792.396 1.585 0 2.378 0 .198-.198.396-.198.594-.199.199-.199.397-.397.793-.198.198-.198.397-.396.793-.198.198-.198.396-.198.396l-21.395-2.774zm2.971-2.577c0 .199-.198.199-.198.397s-.198.198-.198.396v.595l17.433 2.378s0-.198.198-.198c0-.199.198-.199.198-.397s.199-.198.199-.396.198-.198.198-.198a2.752 2.752 0 000-1.784c-.397-.594-.793-.991-1.585-1.387-.793-.397-1.585-.595-2.576-.991-.99-.198-2.179-.396-3.367-.595-.99-.198-2.18-.198-3.17-.198-.99 0-1.98 0-2.971.198-.99.199-1.783.397-2.378.793-.99.198-1.386.793-1.783 1.387zM672.561 289.545c0 .198.198.396.198.594 0 .199.198.397.198.793s0 .396.198.793v.594c0 .793 0 1.586-.594 2.379-.397.594-1.189 1.189-2.179 1.585-.991.396-1.981.793-3.368.991-1.387.198-2.774.396-4.557.396h-4.358c-1.387-.198-2.575-.396-3.764-.792-1.189-.397-1.981-.793-2.773-1.388-.793-.594-1.189-1.387-1.189-2.378v-.594-.793-.793-.594l22.188-.793zm-1.783 2.774v-.396-.396c0-.199 0-.199-.198-.397v-.198l-18.028.595v1.189c0 .594.396 1.189.991 1.585.594.397 1.188.793 2.179.991.792.198 1.981.396 2.971.396h3.566c1.189 0 2.179-.198 3.17-.198.99-.198 1.981-.396 2.773-.594.793-.198 1.387-.595 1.981-1.189.595-.595.793-.595.595-1.388zM673.155 300.445l-.396 5.747h-2.179l.396-4.36-7.528-.198-.396 3.964h-2.179l.396-3.964-8.122-.198-.397 4.36h-2.179l.397-5.748 22.187.397zM671.966 309.759c0 .397.198.793 0 1.189 0 .397-.198.793-.198 1.388-.198.396-.396.991-.594 1.387-.397.396-.793.793-1.387 1.189s-1.387.595-2.377.793c-.991.198-1.981.198-3.368 0-1.387-.198-2.377-.396-3.17-.595-.792-.396-1.584-.594-1.981-.991-.396-.396-.792-.792-.99-1.387-.198-.594-.198-.991 0-1.585v-.199c0-.198 0-.198.198-.396 0-.198 0-.198.198-.396 0-.198 0-.198.198-.198l-8.32-.793.396-1.387 21.395 1.981zm-2.377 2.577c0-.198.198-.397.198-.793v-.595l-9.311-.792s0 .198-.198.198c0 .198 0 .198-.198.396V312.336c0 .396.198.594.594.991.396.198.793.594 1.387.792a7.361 7.361 0 002.377.397h2.179c.595 0 1.189-.198 1.585-.397.396-.198.793-.396.991-.792.198-.397.396-.793.396-.991zM645.421 322.245l2.575-5.946 21.395 3.171-.594 1.388-19.216-2.775-1.981 4.558-2.179-.396zM655.722 324.623c3.565.793 5.943 1.586 7.329 2.576 1.387.991 1.783 2.18.793 3.568-.396.792-.991 1.387-1.981 1.783-.793.397-1.783.595-2.972.793-1.188.198-2.377.198-3.764 0-1.386-.198-2.971-.396-4.556-.793-3.566-.792-5.943-1.585-7.33-2.576-1.387-.991-1.783-2.18-.792-3.567.396-.793.99-1.189 1.981-1.586.792-.396 1.783-.594 2.971-.792 1.189-.199 2.378-.199 3.764 0 1.387 0 2.972.198 4.557.594zm-.793 1.387c-1.188-.198-2.377-.396-3.368-.594-1.188-.198-2.179-.198-2.971-.198-.991 0-1.783.198-2.377.396-.595.198-1.189.595-1.387.991-.594.793-.198 1.585.99 2.378 1.189.793 3.17 1.387 6.142 1.982 1.188.198 2.179.396 3.367.594 1.189.199 2.179.199 2.972.199.99 0 1.783-.199 2.377-.397.594-.198 1.189-.594 1.387-.991.594-.792.198-1.585-.991-2.378-1.188-.793-3.367-1.387-6.141-1.982zM645.42 336.118l14.462.396-1.189 1.387-10.499-.396-1.981-.198 1.585.793 6.933 4.36-1.188 1.387-9.311-6.342-7.924-2.18.99-1.189 8.122 1.982zM552.51 382.889c.793 2.18.793 3.765.198 4.954-.792 1.189-2.377 1.982-4.754 2.379-1.387.198-2.377.198-3.566 0-.991-.199-1.981-.595-2.774-.991-.792-.397-1.386-1.189-1.981-1.784-.594-.793-.99-1.585-1.386-2.576-.793-2.18-.793-3.766-.198-4.955.792-1.189 2.377-1.982 4.754-2.378 1.189-.198 2.377-.198 3.368 0 .99.198 1.981.594 2.773.991.793.396 1.387 1.189 1.981 1.783.793.595 1.189 1.586 1.585 2.577zm-2.377.198c-.198-.793-.594-1.387-.991-1.982-.396-.594-.99-1.189-1.386-1.585-.595-.397-1.189-.793-1.981-.991-.793-.198-1.585-.198-2.378-.198-1.584.198-2.575.792-2.971 1.783-.396.991-.396 2.378.396 4.162.198.595.594 1.387.991 1.982.396.594.99 1.189 1.386 1.585.595.397 1.189.793 1.981.991.793.198 1.585.198 2.378.198 1.584-.198 2.575-.792 2.971-1.783.396-.991.198-2.378-.396-4.162zM534.681 391.411c-.594.198-1.387.198-2.179.396-.793 0-1.585.198-2.179.198h-2.576c-.792 0-1.584-.198-2.377-.396-.792-.198-1.387-.595-1.783-1.189-.594-.397-.792-1.189-.99-1.982-.198-.793 0-1.387.198-1.982.198-.594.792-.991 1.387-1.387.594-.397 1.188-.595 1.981-.793.792-.198 1.584-.396 2.575-.396H530.719l-.991-4.757 2.378-.198 2.575 12.486zm-4.754-.793c.396 0 .792 0 1.188-.198.396 0 .594 0 .991-.198l-.991-5.351H529.134c-.594 0-1.189.198-1.585.198-.594.198-.99.396-1.386.594-.397.199-.595.595-.793.991-.198.397-.198.793-.198 1.388 0 .594.396.99.594 1.189.397.396.595.594 1.189.792.396.199.991.199 1.387.397s.99.198 1.585.198zM517.842 392.402h-9.905v-1.19h7.528v-4.36h-6.933v-1.189h6.933v-4.756h-7.726v-1.189h10.103v12.684zM501.796 392.203h-4.755c-.792 0-1.585-.198-2.377-.396-.793-.198-1.387-.396-1.783-.595-.594-.396-.793-.594-1.189-1.189a2.486 2.486 0 01-.198-1.783c.198-.991.594-1.784 1.387-2.378.792-.595 1.783-.991 3.17-.991l-.991-.793-3.566-5.351 2.774.198 3.764 5.747 2.377.397.99-5.747 2.378.198-1.981 12.683zm-1.387-6.143l-1.981-.198c-1.189 0-2.179 0-2.972.396-.792.396-1.188.991-1.387 1.982-.198.594 0 1.189.595 1.783.594.397 1.387.793 2.377.793h2.377l.991-4.756zM479.608 381.105l6.142.793 2.971-3.369 2.377.198-10.895 11.891-1.189-.198-2.179-13.477 2.377.199.396 3.963zm5.151 1.784l-4.952-.595.594 4.162v1.982l1.188-1.784 3.17-3.765zM458.808 386.06l5.151.991 5.745-11.099 2.377.397-5.745 11.098 5.151.991-.595 1.189-12.678-2.18.594-1.387zM453.657 386.258l-9.113-2.18.792-1.189 6.934 1.585 2.773-3.963-6.339-1.586.793-1.189 6.339 1.585 3.169-4.36-7.131-1.585.792-1.189 9.311 2.18-8.32 11.891zM358.963 119.702c-.594-.198-.99-.594-1.387-.991-.396-.396-.594-.792-.792-1.387-.198-.594-.396-1.189-.198-1.784a2.648 2.648 0 011.387-1.585c.792-.595 1.783-.991 2.971-1.387 1.387-.397 2.972-.793 4.953-.991 1.981-.198 3.764-.397 5.349-.397 1.584 0 2.773.199 3.764.397.99.198 1.782.594 2.575 1.189.594.396.99.991 1.188 1.585.199.595.397.991.397 1.388 0 .396 0 .792-.198.991h-2.18c.199-.199.199-.595.199-.991 0-.397-.199-.793-.199-1.189-.198-.397-.594-.793-.99-1.19-.396-.396-1.189-.594-1.981-.792-.793-.198-1.783-.198-2.972-.198-1.188 0-2.575.198-4.358.396-2.971.396-5.151.991-6.339 1.784-1.189.792-1.585 1.783-1.189 2.774.198.396.396.793.793.991.396.198.594.595.99.793l-1.783.594zM369.86 121.288c3.763-.198 6.537-.198 8.716.396 1.981.595 3.17 1.586 3.566 2.973.198.793 0 1.387-.396 1.982-.397.594-.991.991-1.981 1.387-.991.396-1.981.793-3.368.991-1.387.198-2.972.396-4.556.594-3.764.199-6.538.199-8.717-.396-1.981-.595-3.17-1.585-3.566-2.973-.198-.792 0-1.387.396-1.982.397-.594.991-.99 1.981-1.387.991-.396 1.981-.793 3.368-.991 1.387-.198 2.774-.396 4.557-.594zm.396 1.387c-1.189 0-2.377.198-3.566.396-.991.199-1.981.397-2.774.595a3.82 3.82 0 00-1.782.991c-.397.396-.595.793-.397 1.387.198.991 1.189 1.586 2.774 1.982 1.585.396 3.962.396 7.131.198 1.189 0 2.378-.198 3.368-.396.991-.198 1.981-.397 2.774-.595a3.83 3.83 0 001.783-.991c.396-.396.594-.792.396-1.387-.198-.991-.991-1.585-2.774-1.982a36.1 36.1 0 00-6.933-.198zM374.812 135.953l3.566-.792-3.566.198-14.065-.198v-1.388l22.385.198v.793l-14.461 4.558-3.368.793 3.368-.198 14.065.198v1.387l-22.385-.198v-.793l14.461-4.558zM380.161 152.601v-3.171l-19.81-.199v-1.387l19.81.198v-3.171h2.179v7.73h-2.179zM382.142 156.168v1.387l-21.99-.198v-1.387l21.99.198zM373.821 163.897l3.566-.793-3.566.198-14.065-.198v-1.387l22.385.198v.793l-14.461 4.558-3.368.793 3.368-.198 14.065.198v1.387l-22.386-.198v-.793l14.462-4.558zM381.349 179.553v1.388l-14.858-.198c-2.576 0-4.557-.397-5.745-.991-1.189-.595-1.783-1.388-1.783-2.577 0-1.387.594-2.18 1.783-2.774 1.188-.595 2.971-.793 5.349-.793l15.254.198v1.387l-14.066-.198h-2.971c-.793 0-1.387.198-1.981.397-.397.198-.793.396-.991.792a1.517 1.517 0 00-.396.991c0 .793.396 1.388 1.387 1.784.99.396 2.575.594 4.556.594h14.462zM370.256 184.508c3.764 0 6.537.396 8.518 1.189 1.981.793 2.773 1.784 2.773 3.171 0 .793-.396 1.387-.792 1.982-.594.594-1.387.991-2.377 1.189-.991.396-2.179.594-3.566.793-1.387.198-2.972.198-4.755.198-3.763 0-6.537-.397-8.518-1.189-1.981-.793-2.773-1.784-2.773-3.171 0-.793.396-1.387.792-1.982.594-.595 1.387-.991 2.377-1.387.991-.397 2.179-.595 3.566-.793 1.387.198 2.972 0 4.755 0zm-.199 1.585c-1.188 0-2.377 0-3.565.199-1.189 0-2.18.198-2.972.396-.792.198-1.585.396-1.981.793-.594.396-.792.792-.792 1.189 0 .991.792 1.585 2.179 2.18 1.585.396 3.764.793 6.933.793 1.189 0 2.378 0 3.566-.199 1.189 0 2.179-.198 2.972-.396.792-.198 1.585-.396 1.981-.793.594-.396.792-.792.792-1.387 0-.991-.792-1.585-2.179-2.18-1.387-.396-3.764-.595-6.934-.595zM380.558 202.939v1.387l-14.858-.198c-2.576 0-4.557-.396-5.745-.991-1.189-.594-1.783-1.387-1.783-2.576 0-1.388.594-2.18 1.783-2.775 1.188-.594 2.971-.793 5.349-.793l15.254.199v1.387l-14.066-.198h-2.971c-.793 0-1.387.198-1.981.396-.397.198-.793.396-.991.793a1.513 1.513 0 00-.396.991c0 .793.396 1.387 1.387 1.783.99.397 2.575.595 4.556.595h14.462zM361.341 208.092c-.198.198-.594.594-.792.991-.198.396-.396.991-.396 1.387 0 .594.198 1.189.792 1.585.594.397 1.387.595 2.774.595.792 0 1.584-.198 2.179-.396.594-.199 1.188-.595 1.783-.991.594-.397.99-.793 1.584-1.189.595-.397.991-.793 1.585-1.19.595-.396 1.387-.594 2.179-.99.793-.199 1.783-.397 2.774-.397 1.783 0 2.971.397 3.962.991.792.595 1.189 1.387 1.189 2.378 0 .595-.199 1.189-.397 1.586-.198.396-.396.792-.792 1.189l-1.981-.397c.198-.198.396-.594.594-.99.198-.397.396-.793.396-1.388 0-.594-.198-1.189-.792-1.387-.594-.396-1.189-.396-2.179-.595-.793 0-1.387.199-1.981.397a4.304 4.304 0 00-1.585.991c-.594.396-.99.792-1.585 1.189l-1.783 1.189c-.594.396-1.386.594-2.179.793-.792.198-1.783.396-2.773.396-1.783 0-3.368-.396-4.359-.991-.99-.594-1.584-1.585-1.386-2.774 0-.793.198-1.388.396-1.784.198-.396.594-.793.792-1.189l1.981.991zM379.962 223.748l-.198 5.747h-2.179l.198-4.36h-7.726l-.198 3.964h-2.179l.198-3.964-9.905-.198v-1.387l21.989.198zM379.567 233.261l-.198 5.747h-2.179l.198-4.36h-7.528l-.198 3.964h-2.179l.198-3.964h-8.122l-.198 4.36h-2.179l.198-5.747h22.187zM379.171 242.972l-.198 5.747h-2.179l.198-4.36h-7.528l-.198 3.964h-2.18l.199-3.964h-8.123l-.198 4.36h-2.179l.198-5.747h22.188zM378.971 252.485c0 .198 0 .396.199.594v2.18c0 .793-.397 1.586-.793 2.18a7.128 7.128 0 01-2.377 1.586c-.991.396-2.179.594-3.566.792-1.387.199-2.971.199-4.556.199s-2.972-.199-4.359-.397c-1.386-.198-2.575-.396-3.565-.793a7.116 7.116 0 01-2.378-1.585c-.594-.595-.99-1.387-.792-2.378v-.595-.792c0-.199 0-.595.198-.793 0-.198 0-.397.198-.595l21.791.397zm-1.981 2.972v-.396-.396-.397-.198l-18.027-.198v1.189c0 .595.198 1.189.792 1.784.397.396 1.189.792 1.982 1.189.792.198 1.782.396 2.971.594 1.189.198 2.377.198 3.566.198s2.179 0 3.368-.198c.99 0 1.981-.198 2.971-.396.793-.198 1.585-.595 1.981-.991 0-.595.198-1.189.396-1.784zM373.227 270.321c-.594 0-1.188 0-1.585-.198-.594 0-.99-.198-1.585-.396-.396-.199-.99-.397-1.188-.595-.396-.198-.594-.595-.793-.793h-.198c-.198.198-.396.595-.594.793-.198.198-.594.594-.99.793-.397.198-.991.396-1.585.396-.595.198-1.387.198-2.179.198-1.189 0-2.18-.198-2.972-.396-.792-.198-1.585-.595-1.981-.793-.594-.396-.792-.793-1.189-1.189-.198-.396-.396-.991-.396-1.585v-.595-.793c0-.198 0-.594.198-.792 0-.199.198-.397.198-.595l21.792.198c.198.397.198.793.198 1.387v1.586c0 .396 0 .793-.198 1.189s-.396.793-.793 1.189c-.396.396-.99.595-1.585.793-.594.198-1.386.198-2.575.198zm-14.858-3.567c0 .396 0 .594.199.991.198.198.396.594.792.792.396.199.792.397 1.387.595.594.198 1.188.198 1.783.198.792 0 1.584 0 2.179-.198.594-.198.99-.396 1.188-.595.397-.198.595-.594.595-.792.198-.397.198-.595.198-.991v-1.189h-8.122s0 .198-.199.198V266.754zm10.302-.595v1.189c.396.397.792.793 1.585 1.189.792.397 1.584.595 2.575.595.792 0 1.189 0 1.783-.198.396-.198.792-.198 1.188-.397l.595-.594c.198-.198.198-.595.198-.793v-.793-.594h-7.726l-.198.396zM362.133 279.239l.198-3.567-6.141-1.189v-1.387l22.386 4.161v.793l-22.584 3.567v-1.387l6.141-.991zm2.179-3.171l-.198 2.973 6.934-.991 3.368-.396-3.368-.397-6.736-1.189zM356.389 291.13c-.396-.396-.793-.792-.991-1.189-.198-.396-.198-.991-.198-1.387 0-.595.198-1.189.793-1.784.396-.594 1.188-.991 1.981-1.387.99-.396 2.179-.595 3.565-.793 1.387-.198 3.17-.198 5.151-.198 2.179 0 3.962.198 5.349.396 1.387.199 2.575.595 3.566.991.792.397 1.585.991 1.981 1.388.396.594.594 1.189.594 1.585 0 .595-.198.991-.198 1.387-.198.397-.396.793-.594.991l-2.179-.396c.198-.198.396-.595.594-.793.198-.396.198-.793.198-1.189s-.198-.793-.396-1.189c-.396-.396-.793-.793-1.585-.991-.792-.396-1.585-.595-2.773-.793-1.189-.198-2.576-.198-4.359-.396-2.971 0-5.349.198-6.933.793-1.585.594-2.378 1.387-2.378 2.378 0 .396 0 .793.199 1.189.198.396.396.595.594.793l-1.981.594zM365.501 296.679v-.594l-10.301-.198v-1.388l21.989.199v1.387l-10.301-.198.396.594 9.707 3.369v1.586l-9.311-3.369-.99-.595-1.387.793-10.499 3.567v-1.784l10.697-3.369zM163.238 215.028c-.594.198-1.387.198-2.179 0-.793 0-1.585-.198-2.377-.396-.991-.198-1.981-.595-2.576-.991-.792-.397-1.188-.991-1.386-1.586-.198-.594-.397-1.387-.198-2.18.198-.792.792-1.783 1.386-2.972.793-1.189 1.585-1.982 2.576-2.775.99-.594 1.981-1.189 2.971-1.585.991-.397 1.981-.397 2.972-.595.99 0 1.981 0 2.971.396.991.199 1.585.397 2.179.595.595.198.991.396 1.387.594l-1.387.991c-.396-.198-.594-.396-1.188-.594-.396-.198-.991-.396-1.783-.595-.595-.198-1.387-.198-2.179-.198-.793 0-1.387.198-2.179.396-.793.199-1.387.793-2.18 1.19-.792.594-1.386 1.387-1.981 2.18-1.188 1.585-1.584 2.972-1.188 3.963.396.991 1.386 1.784 2.971 2.18.595.198 1.189.198 1.783.198h1.585v1.784zM168.389 209.875c1.188-1.981 2.575-3.567 4.16-4.36 1.783-.792 3.764-.991 6.141-.594 1.189.198 2.179.594 2.972.991a2.65 2.65 0 011.386 1.585c.199.595.397 1.387.199 2.18-.199.793-.595 1.784-.991 2.775-1.189 1.982-2.575 3.567-4.358 4.36-1.783.792-3.764.991-6.141.594a10.408 10.408 0 01-2.972-.991 2.652 2.652 0 01-1.387-1.585c-.198-.595-.396-1.387-.198-2.18.396-.991.595-1.784 1.189-2.775zm2.377.397c-.396.594-.594 1.387-.792 1.982a2.75 2.75 0 000 1.783c.198.595.396.991.792 1.387.396.397.991.595 1.783.793 1.585.198 2.773 0 4.16-.594a9.36 9.36 0 003.17-3.568c.396-.594.594-1.387.792-1.981a2.753 2.753 0 000-1.784c-.198-.595-.396-.991-.792-1.387-.396-.397-.991-.595-1.981-.793-1.387-.198-2.774 0-3.962.594-1.189.595-2.179 1.784-3.17 3.568zM189.388 211.461l-.793-2.18-.198 1.982-2.575 7.927-2.179-.198 4.16-12.684 1.386.198 5.349 8.918.595 1.982h.198l.198-1.982 2.575-7.927 2.179.198-4.16 12.684-1.387-.198-5.348-8.72zM214.349 209.677l-5.349-.198-1.188 11.495h-2.377l1.188-11.495-5.349-.198.199-1.189 13.074.396-.198 1.189zM216.329 208.29h2.377l.397 12.684h-2.378l-.396-12.684zM226.632 212.848l-1.387-1.982.396 1.982v8.126h-2.179v-12.882h1.387l8.122 8.323 1.387 1.982h.198l-.397-1.982v-8.125h2.18v12.882h-1.387l-8.32-8.324zM249.808 208.29h2.179v8.522c0 1.585-.594 2.576-1.584 3.369-.991.594-2.576.991-4.359.991-2.179 0-3.764-.397-4.754-.991-.991-.595-1.585-1.784-1.585-3.171v-8.918h2.377v8.125c0 .595 0 1.189.198 1.586.199.396.397.792.793 1.189l1.188.594c.595.198 1.189.198 1.783.198 1.387 0 2.378-.198 2.774-.792.594-.595.792-1.388.792-2.775l.198-7.927zM255.158 214.632c0-2.18.595-3.766 1.783-4.955 1.189-1.189 2.972-1.585 5.547-1.585 1.387 0 2.377.198 3.368.396.99.396 1.585.793 2.179 1.387.594.595.99 1.189 1.189 1.982.198.793.396 1.784.396 2.775 0 2.18-.595 3.765-1.783 4.954-1.189 1.189-2.972 1.586-5.547 1.586-1.387 0-2.377-.198-3.368-.397-.99-.396-1.585-.792-2.179-1.387-.594-.594-.99-1.189-1.189-1.982-.198-.792-.396-1.783-.396-2.774zm2.576 0c0 .792 0 1.387.198 1.982.198.594.396 1.189.792 1.783.396.397.792.793 1.387 1.189.594.198 1.386.397 2.179.397 1.585 0 2.773-.397 3.566-1.388.792-.792 1.188-2.18 1.188-3.963 0-.793 0-1.388-.198-1.982-.198-.595-.396-1.189-.792-1.784-.396-.396-.793-.792-1.387-1.189-.594-.198-1.387-.396-2.179-.396-1.585 0-2.773.396-3.566 1.387-.792.793-1.188 2.18-1.188 3.964zM282.892 208.29h2.179v8.522c0 1.585-.594 2.576-1.584 3.369-.991.594-2.576.991-4.359.991-2.179 0-3.764-.397-4.754-.991-.991-.595-1.585-1.784-1.585-3.171v-8.918h2.377v8.125c0 .595 0 1.189.198 1.586.199.396.397.792.793 1.189l1.188.594c.595.198 1.189.198 1.783.198 1.387 0 2.378-.198 2.774-.792.594-.595.792-1.388.792-2.775l.198-7.927zM288.637 219.19c.396.198.991.396 1.585.396.792.199 1.585.199 2.377.199 1.189 0 2.179-.199 2.774-.595.792-.396 1.188-.793 1.188-1.586 0-.396-.198-.792-.594-1.189-.396-.396-.991-.594-1.585-.991-.594-.198-1.387-.594-1.981-.792-.792-.198-1.387-.595-1.981-.991-.594-.397-1.189-.793-1.585-1.189-.396-.397-.594-.991-.594-1.586 0-.991.594-1.783 1.585-2.18.99-.396 2.377-.792 4.16-.792.99 0 1.981 0 2.773.198.793.198 1.387.198 1.981.396l-.792 1.189c-.396-.198-.991-.198-1.585-.396-.792-.198-1.585-.198-2.377-.198-1.189 0-1.981.198-2.576.396-.594.396-.792.793-.792 1.189s.198.793.594 1.189c.397.397.991.595 1.585.991.594.198 1.387.595 1.981.793.793.198 1.387.594 1.981.991.595.396 1.189.792 1.585 1.189.396.396.594.991.594 1.585 0 .991-.594 1.982-1.584 2.577-.991.594-2.576.991-4.557.991-1.188 0-2.377 0-3.169-.199-.793-.198-1.387-.198-1.982-.396l.991-1.189zM454.449 208.29h2.377v12.684h-2.377V208.29zM464.355 212.848l-1.387-1.982.397 1.982v8.126h-2.179v-12.882h1.386l8.122 8.323 1.189 1.982h.198l-.396-1.982v-8.125h2.179v12.882h-1.387l-8.122-8.324zM489.118 209.479h-5.349v11.495h-2.377v-11.495h-5.349v-1.189h13.075v1.189zM491.099 208.29h9.707v1.189h-7.33v4.36h6.735v1.189h-6.735v4.757h7.528v1.189h-9.905V208.29zM510.512 214.632h6.141l-.198 5.549c-.594.396-1.387.594-2.377.594-.991.199-1.783.199-2.774.199-1.188 0-2.179-.199-3.169-.397-.991-.198-1.783-.594-2.377-1.189-.595-.594-1.189-1.189-1.387-1.982-.396-.792-.396-1.783-.396-2.972 0-1.19.396-2.18.792-2.973.396-.793.991-1.586 1.783-1.982.792-.595 1.585-.793 2.575-1.189.991-.198 1.981-.396 2.972-.396.99 0 1.783 0 2.575.198.594 0 1.189.198 1.783.396l-.594 1.189c-.396-.198-.991-.198-1.387-.396-.594 0-1.189-.198-1.981-.198s-1.387 0-2.179.198c-.594.198-1.387.396-1.783.793-.594.396-.991.99-1.387 1.585s-.594 1.585-.594 2.576c0 1.784.396 3.171 1.387 3.964a6.376 6.376 0 003.962 1.387c.99 0 1.981-.198 2.773-.396l.198-3.766-3.962-.396-.396-.396zM519.625 208.488c.595 0 1.387-.198 2.18-.198h2.179c.792 0 1.585 0 2.377.198a24.52 24.52 0 011.981.595c.594.198.99.594 1.189.991.396.396.396.99.396 1.585 0 .991-.396 1.784-1.189 2.378-.792.595-1.783.991-2.971 1.189l1.188.595 4.16 5.153h-2.773l-4.556-5.55-2.378-.198-.198 5.748h-2.377l.792-12.486zm2.18 5.946h1.782c1.189 0 2.18-.199 2.774-.595.792-.396.99-.991.99-1.982 0-.594-.198-1.189-.792-1.585-.594-.397-1.387-.595-2.575-.595h-2.378l.199 4.757zM541.813 217.803l-6.141-.199-2.18 3.568h-2.377l7.924-12.684h1.189l5.349 13.08h-2.378l-1.386-3.765zm-5.547-1.388l4.952.199-1.584-3.964-.397-1.982-.792 1.982-2.179 3.765zM559.839 211.263l-5.348-.397-3.17 11.297-2.377-.199 3.169-11.296-5.348-.594.396-1.19 12.877 1.19-.199 1.189zM564.595 210.668l2.179.396-5.745 12.288-2.179-.397 5.745-12.287zM567.963 217.803c1.387-1.982 2.972-3.369 4.953-4.162 1.783-.793 3.962-.793 6.141-.397 1.188.199 2.179.595 2.773 1.19.595.396.991.99 1.189 1.783.198.595 0 1.387-.198 2.18-.198.793-.793 1.784-1.387 2.577-1.387 1.981-2.972 3.369-4.953 4.161-1.782.793-3.962.793-6.141.397-1.188-.198-2.179-.595-2.773-1.189-.595-.397-.991-.991-1.189-1.784-.198-.594-.198-1.387.198-2.18.198-.793.595-1.585 1.387-2.576zm2.179.594c-.396.595-.792 1.388-1.188 1.982-.199.595-.397 1.189-.397 1.784 0 .594.198.991.595 1.387.396.396.99.793 1.783.793 1.386.396 2.773.198 4.16-.397 1.386-.594 2.575-1.783 3.764-3.369.396-.594.792-1.387.99-1.982.198-.594.396-1.189.396-1.783 0-.595-.198-.991-.594-1.388a3.827 3.827 0 00-1.783-.99c-1.387-.397-2.773-.199-4.16.396-.991.594-2.377 1.784-3.566 3.567zM589.159 221.568l.594-2.18-1.386 1.784-7.132 6.936-1.981-.594 11.292-11.099 1.188.397-.198 9.512-.594 1.982h.198l1.387-1.783 7.132-6.937 1.981.595-11.292 11.098-1.189-.396v-9.315z" fill="#fff"/><path d="M673.154 370.007l-1.189-1.982c36.451-21.007 56.658-49.149 56.658-79.075 0-30.124-20.405-58.662-57.45-80.066-36.055-20.809-83.798-32.7-134.908-33.294l-88.949.594v-2.378l88.949-.594c51.506.792 99.645 12.683 136.096 33.691C710.199 228.703 731 257.836 731 288.95c0 30.719-20.603 59.455-57.846 81.057z" fill="url(#opaint37_radial)"/><path d="M59.233 196.796C20.999 174.599 0 145.268 0 113.955c0-30.718 20.405-59.454 57.648-80.858 77.062-44.393 203.056-43.997 280.91.99l-1.189 1.982c-77.26-44.59-202.263-44.987-278.532-.99-36.451 21.007-56.46 49.149-56.46 78.876 0 30.322 20.603 59.059 58.044 80.661l-1.188 2.18z" fill="url(#opaint38_radial)"/><path d="M210.584 174.599c-24.565-.991-47.941-7.333-65.572-17.44l1.188-1.982c17.037 9.909 39.621 15.855 63.393 17.044l.793-.198 104.202-1.19v2.379l-103.014 1.189-.99.198z" fill="url(#opaint39_radial)"/><path d="M520.02 343.649c-26.15 0-52.101-5.748-72.11-17.242-18.225-10.504-28.725-24.377-30.111-39.439h.198l-.396-.594 2.377-1.387.198 1.783c1.189 14.071 11.49 27.349 28.923 37.457 39.026 22.593 102.221 22.593 141.049.198l1.189 1.982c-19.612 11.494-45.366 17.242-71.317 17.242z" fill="url(#opaint40_radial)"/><defs><linearGradient id="opaint0_linear" x1="34.289" y1="35.134" x2="716.548" y2="406.165" gradientUnits="userSpaceOnUse"><stop offset=".005" stop-color="#FFE4A7"/><stop offset=".1" stop-color="#FAC098"/><stop offset=".202" stop-color="#F49587"/><stop offset=".464" stop-color="#A142B5"/><stop offset=".596" stop-color="#7C1DC9"/><stop offset=".635" stop-color="#7926CB"/><stop offset=".697" stop-color="#703ED1"/><stop offset=".776" stop-color="#6165DB"/><stop offset=".869" stop-color="#4C9CE9"/><stop offset=".971" stop-color="#32E1FA"/><stop offset="1" stop-color="#2AF6FF"/></linearGradient><linearGradient id="opaint1_linear" x1="49.109" y1="7.882" x2="731.371" y2="378.914" gradientUnits="userSpaceOnUse"><stop offset=".005" stop-color="#FFE4A7"/><stop offset=".1" stop-color="#FAC098"/><stop offset=".202" stop-color="#F49587"/><stop offset=".464" stop-color="#A142B5"/><stop offset=".596" stop-color="#7C1DC9"/><stop offset=".635" stop-color="#7926CB"/><stop offset=".697" stop-color="#703ED1"/><stop offset=".776" stop-color="#6165DB"/><stop offset=".869" stop-color="#4C9CE9"/><stop offset=".971" stop-color="#32E1FA"/><stop offset="1" stop-color="#2AF6FF"/></linearGradient><linearGradient id="opaint2_linear" x1="44.912" y1="15.592" x2="727.173" y2="386.626" gradientUnits="userSpaceOnUse"><stop offset=".005" stop-color="#FFE4A7"/><stop offset=".1" stop-color="#FAC098"/><stop offset=".202" stop-color="#F49587"/><stop offset=".464" stop-color="#A142B5"/><stop offset=".596" stop-color="#7C1DC9"/><stop offset=".635" stop-color="#7926CB"/><stop offset=".697" stop-color="#703ED1"/><stop offset=".776" stop-color="#6165DB"/><stop offset=".869" stop-color="#4C9CE9"/><stop offset=".971" stop-color="#32E1FA"/><stop offset="1" stop-color="#2AF6FF"/></linearGradient><linearGradient id="opaint3_linear" x1="39.586" y1="25.397" x2="721.845" y2="396.428" gradientUnits="userSpaceOnUse"><stop offset=".005" stop-color="#FFE4A7"/><stop offset=".1" stop-color="#FAC098"/><stop offset=".202" stop-color="#F49587"/><stop offset=".464" stop-color="#A142B5"/><stop offset=".596" stop-color="#7C1DC9"/><stop offset=".635" stop-color="#7926CB"/><stop offset=".697" stop-color="#703ED1"/><stop offset=".776" stop-color="#6165DB"/><stop offset=".869" stop-color="#4C9CE9"/><stop offset=".971" stop-color="#32E1FA"/><stop offset="1" stop-color="#2AF6FF"/></linearGradient><linearGradient id="opaint4_linear" x1="41.065" y1="22.671" x2="723.325" y2="393.702" gradientUnits="userSpaceOnUse"><stop offset=".005" stop-color="#FFE4A7"/><stop offset=".1" stop-color="#FAC098"/><stop offset=".202" stop-color="#F49587"/><stop offset=".464" stop-color="#A142B5"/><stop offset=".596" stop-color="#7C1DC9"/><stop offset=".635" stop-color="#7926CB"/><stop offset=".697" stop-color="#703ED1"/><stop offset=".776" stop-color="#6165DB"/><stop offset=".869" stop-color="#4C9CE9"/><stop offset=".971" stop-color="#32E1FA"/><stop offset="1" stop-color="#2AF6FF"/></linearGradient><linearGradient id="opaint5_linear" x1="49.877" y1="6.378" x2="732.162" y2="377.456" gradientUnits="userSpaceOnUse"><stop offset=".005" stop-color="#FFE4A7"/><stop offset=".1" stop-color="#FAC098"/><stop offset=".202" stop-color="#F49587"/><stop offset=".464" stop-color="#A142B5"/><stop offset=".596" stop-color="#7C1DC9"/><stop offset=".635" stop-color="#7926CB"/><stop offset=".697" stop-color="#703ED1"/><stop offset=".776" stop-color="#6165DB"/><stop offset=".869" stop-color="#4C9CE9"/><stop offset=".971" stop-color="#32E1FA"/><stop offset="1" stop-color="#2AF6FF"/></linearGradient><linearGradient id="opaint6_linear" x1="-41.21" y1="173.962" x2="641.05" y2="544.993" gradientUnits="userSpaceOnUse"><stop offset=".005" stop-color="#FFE4A7"/><stop offset=".1" stop-color="#FAC098"/><stop offset=".202" stop-color="#F49587"/><stop offset=".464" stop-color="#A142B5"/><stop offset=".596" stop-color="#7C1DC9"/><stop offset=".635" stop-color="#7926CB"/><stop offset=".697" stop-color="#703ED1"/><stop offset=".776" stop-color="#6165DB"/><stop offset=".869" stop-color="#4C9CE9"/><stop offset=".971" stop-color="#32E1FA"/><stop offset="1" stop-color="#2AF6FF"/></linearGradient><linearGradient id="opaint7_linear" x1="-16.209" y1="127.992" x2="666.051" y2="499.023" gradientUnits="userSpaceOnUse"><stop offset=".005" stop-color="#FFE4A7"/><stop offset=".1" stop-color="#FAC098"/><stop offset=".202" stop-color="#F49587"/><stop offset=".464" stop-color="#A142B5"/><stop offset=".596" stop-color="#7C1DC9"/><stop offset=".635" stop-color="#7926CB"/><stop offset=".697" stop-color="#703ED1"/><stop offset=".776" stop-color="#6165DB"/><stop offset=".869" stop-color="#4C9CE9"/><stop offset=".971" stop-color="#32E1FA"/><stop offset="1" stop-color="#2AF6FF"/></linearGradient><linearGradient id="opaint8_linear" x1="11.557" y1="76.93" x2="693.819" y2="447.962" gradientUnits="userSpaceOnUse"><stop offset=".005" stop-color="#FFE4A7"/><stop offset=".1" stop-color="#FAC098"/><stop offset=".202" stop-color="#F49587"/><stop offset=".464" stop-color="#A142B5"/><stop offset=".596" stop-color="#7C1DC9"/><stop offset=".635" stop-color="#7926CB"/><stop offset=".697" stop-color="#703ED1"/><stop offset=".776" stop-color="#6165DB"/><stop offset=".869" stop-color="#4C9CE9"/><stop offset=".971" stop-color="#32E1FA"/><stop offset="1" stop-color="#2AF6FF"/></linearGradient><linearGradient id="opaint9_linear" x1="-34.122" y1="160.929" x2="648.137" y2="531.959" gradientUnits="userSpaceOnUse"><stop offset=".005" stop-color="#FFE4A7"/><stop offset=".1" stop-color="#FAC098"/><stop offset=".202" stop-color="#F49587"/><stop offset=".464" stop-color="#A142B5"/><stop offset=".596" stop-color="#7C1DC9"/><stop offset=".635" stop-color="#7926CB"/><stop offset=".697" stop-color="#703ED1"/><stop offset=".776" stop-color="#6165DB"/><stop offset=".869" stop-color="#4C9CE9"/><stop offset=".971" stop-color="#32E1FA"/><stop offset="1" stop-color="#2AF6FF"/></linearGradient><linearGradient id="opaint10_linear" x1="-26.592" y1="147.081" x2="655.669" y2="518.113" gradientUnits="userSpaceOnUse"><stop offset=".005" stop-color="#FFE4A7"/><stop offset=".1" stop-color="#FAC098"/><stop offset=".202" stop-color="#F49587"/><stop offset=".464" stop-color="#A142B5"/><stop offset=".596" stop-color="#7C1DC9"/><stop offset=".635" stop-color="#7926CB"/><stop offset=".697" stop-color="#703ED1"/><stop offset=".776" stop-color="#6165DB"/><stop offset=".869" stop-color="#4C9CE9"/><stop offset=".971" stop-color="#32E1FA"/><stop offset="1" stop-color="#2AF6FF"/></linearGradient><linearGradient id="opaint11_linear" x1="29.844" y1="8.545" x2="685.693" y2="378.921" gradientUnits="userSpaceOnUse"><stop offset=".005" stop-color="#FFE4A7"/><stop offset=".1" stop-color="#FAC098"/><stop offset=".202" stop-color="#F49587"/><stop offset=".464" stop-color="#A142B5"/><stop offset=".596" stop-color="#7C1DC9"/><stop offset=".635" stop-color="#7926CB"/><stop offset=".697" stop-color="#703ED1"/><stop offset=".776" stop-color="#6165DB"/><stop offset=".869" stop-color="#4C9CE9"/><stop offset=".971" stop-color="#32E1FA"/><stop offset="1" stop-color="#2AF6FF"/></linearGradient><linearGradient id="opaint12_linear" x1="32.558" y1="40.238" x2="688.408" y2="410.614" gradientUnits="userSpaceOnUse"><stop offset=".005" stop-color="#FFE4A7"/><stop offset=".1" stop-color="#FAC098"/><stop offset=".202" stop-color="#F49587"/><stop offset=".464" stop-color="#A142B5"/><stop offset=".596" stop-color="#7C1DC9"/><stop offset=".635" stop-color="#7926CB"/><stop offset=".697" stop-color="#703ED1"/><stop offset=".776" stop-color="#6165DB"/><stop offset=".869" stop-color="#4C9CE9"/><stop offset=".971" stop-color="#32E1FA"/><stop offset="1" stop-color="#2AF6FF"/></linearGradient><linearGradient id="opaint13_linear" x1="98.885" y1="-59.927" x2="754.733" y2="310.448" gradientUnits="userSpaceOnUse"><stop offset=".005" stop-color="#FFE4A7"/><stop offset=".1" stop-color="#FAC098"/><stop offset=".202" stop-color="#F49587"/><stop offset=".464" stop-color="#A142B5"/><stop offset=".596" stop-color="#7C1DC9"/><stop offset=".635" stop-color="#7926CB"/><stop offset=".697" stop-color="#703ED1"/><stop offset=".776" stop-color="#6165DB"/><stop offset=".869" stop-color="#4C9CE9"/><stop offset=".971" stop-color="#32E1FA"/><stop offset="1" stop-color="#2AF6FF"/></linearGradient><linearGradient id="opaint14_linear" x1="20.476" y1="136.053" x2="676.326" y2="506.43" gradientUnits="userSpaceOnUse"><stop offset=".005" stop-color="#FFE4A7"/><stop offset=".1" stop-color="#FAC098"/><stop offset=".202" stop-color="#F49587"/><stop offset=".464" stop-color="#A142B5"/><stop offset=".596" stop-color="#7C1DC9"/><stop offset=".635" stop-color="#7926CB"/><stop offset=".697" stop-color="#703ED1"/><stop offset=".776" stop-color="#6165DB"/><stop offset=".869" stop-color="#4C9CE9"/><stop offset=".971" stop-color="#32E1FA"/><stop offset="1" stop-color="#2AF6FF"/></linearGradient><linearGradient id="opaint15_linear" x1="86.226" y1="33.095" x2="742.074" y2="403.471" gradientUnits="userSpaceOnUse"><stop offset=".005" stop-color="#FFE4A7"/><stop offset=".1" stop-color="#FAC098"/><stop offset=".202" stop-color="#F49587"/><stop offset=".464" stop-color="#A142B5"/><stop offset=".596" stop-color="#7C1DC9"/><stop offset=".635" stop-color="#7926CB"/><stop offset=".697" stop-color="#703ED1"/><stop offset=".776" stop-color="#6165DB"/><stop offset=".869" stop-color="#4C9CE9"/><stop offset=".971" stop-color="#32E1FA"/><stop offset="1" stop-color="#2AF6FF"/></linearGradient><linearGradient id="opaint16_linear" x1="52.536" y1="58.946" x2="708.386" y2="429.324" gradientUnits="userSpaceOnUse"><stop offset=".005" stop-color="#FFE4A7"/><stop offset=".1" stop-color="#FAC098"/><stop offset=".202" stop-color="#F49587"/><stop offset=".464" stop-color="#A142B5"/><stop offset=".596" stop-color="#7C1DC9"/><stop offset=".635" stop-color="#7926CB"/><stop offset=".697" stop-color="#703ED1"/><stop offset=".776" stop-color="#6165DB"/><stop offset=".869" stop-color="#4C9CE9"/><stop offset=".971" stop-color="#32E1FA"/><stop offset="1" stop-color="#2AF6FF"/></linearGradient><linearGradient id="opaint17_linear" x1="48.951" y1="65.295" x2="704.8" y2="435.672" gradientUnits="userSpaceOnUse"><stop offset=".005" stop-color="#FFE4A7"/><stop offset=".1" stop-color="#FAC098"/><stop offset=".202" stop-color="#F49587"/><stop offset=".464" stop-color="#A142B5"/><stop offset=".596" stop-color="#7C1DC9"/><stop offset=".635" stop-color="#7926CB"/><stop offset=".697" stop-color="#703ED1"/><stop offset=".776" stop-color="#6165DB"/><stop offset=".869" stop-color="#4C9CE9"/><stop offset=".971" stop-color="#32E1FA"/><stop offset="1" stop-color="#2AF6FF"/></linearGradient><linearGradient id="opaint18_linear" x1="-59.267" y1="120.842" x2="596.581" y2="491.217" gradientUnits="userSpaceOnUse"><stop offset=".005" stop-color="#FFE4A7"/><stop offset=".1" stop-color="#FAC098"/><stop offset=".202" stop-color="#F49587"/><stop offset=".464" stop-color="#A142B5"/><stop offset=".596" stop-color="#7C1DC9"/><stop offset=".635" stop-color="#7926CB"/><stop offset=".697" stop-color="#703ED1"/><stop offset=".776" stop-color="#6165DB"/><stop offset=".869" stop-color="#4C9CE9"/><stop offset=".971" stop-color="#32E1FA"/><stop offset="1" stop-color="#2AF6FF"/></linearGradient><linearGradient id="opaint19_linear" x1="-68.234" y1="119.893" x2="587.616" y2="490.27" gradientUnits="userSpaceOnUse"><stop offset=".005" stop-color="#FFE4A7"/><stop offset=".1" stop-color="#FAC098"/><stop offset=".202" stop-color="#F49587"/><stop offset=".464" stop-color="#A142B5"/><stop offset=".596" stop-color="#7C1DC9"/><stop offset=".635" stop-color="#7926CB"/><stop offset=".697" stop-color="#703ED1"/><stop offset=".776" stop-color="#6165DB"/><stop offset=".869" stop-color="#4C9CE9"/><stop offset=".971" stop-color="#32E1FA"/><stop offset="1" stop-color="#2AF6FF"/></linearGradient><linearGradient id="opaint20_linear" x1="78.691" y1="-6.133" x2="693.14" y2="340.864" gradientUnits="userSpaceOnUse"><stop offset=".005" stop-color="#FFE4A7"/><stop offset=".1" stop-color="#FAC098"/><stop offset=".202" stop-color="#F49587"/><stop offset=".464" stop-color="#A142B5"/><stop offset=".596" stop-color="#7C1DC9"/><stop offset=".635" stop-color="#7926CB"/><stop offset=".697" stop-color="#703ED1"/><stop offset=".776" stop-color="#6165DB"/><stop offset=".869" stop-color="#4C9CE9"/><stop offset=".971" stop-color="#32E1FA"/><stop offset="1" stop-color="#2AF6FF"/></linearGradient><linearGradient id="opaint21_linear" x1="-54.408" y1="134.146" x2="601.441" y2="504.522" gradientUnits="userSpaceOnUse"><stop offset=".005" stop-color="#FFE4A7"/><stop offset=".1" stop-color="#FAC098"/><stop offset=".202" stop-color="#F49587"/><stop offset=".464" stop-color="#A142B5"/><stop offset=".596" stop-color="#7C1DC9"/><stop offset=".635" stop-color="#7926CB"/><stop offset=".697" stop-color="#703ED1"/><stop offset=".776" stop-color="#6165DB"/><stop offset=".869" stop-color="#4C9CE9"/><stop offset=".971" stop-color="#32E1FA"/><stop offset="1" stop-color="#2AF6FF"/></linearGradient><linearGradient id="opaint22_linear" x1="12.525" y1="108.601" x2="668.372" y2="478.976" gradientUnits="userSpaceOnUse"><stop offset=".005" stop-color="#FFE4A7"/><stop offset=".1" stop-color="#FAC098"/><stop offset=".202" stop-color="#F49587"/><stop offset=".464" stop-color="#A142B5"/><stop offset=".596" stop-color="#7C1DC9"/><stop offset=".635" stop-color="#7926CB"/><stop offset=".697" stop-color="#703ED1"/><stop offset=".776" stop-color="#6165DB"/><stop offset=".869" stop-color="#4C9CE9"/><stop offset=".971" stop-color="#32E1FA"/><stop offset="1" stop-color="#2AF6FF"/></linearGradient><linearGradient id="opaint23_linear" x1="40.591" y1="80.1" x2="696.437" y2="450.473" gradientUnits="userSpaceOnUse"><stop offset=".005" stop-color="#FFE4A7"/><stop offset=".1" stop-color="#FAC098"/><stop offset=".202" stop-color="#F49587"/><stop offset=".464" stop-color="#A142B5"/><stop offset=".596" stop-color="#7C1DC9"/><stop offset=".635" stop-color="#7926CB"/><stop offset=".697" stop-color="#703ED1"/><stop offset=".776" stop-color="#6165DB"/><stop offset=".869" stop-color="#4C9CE9"/><stop offset=".971" stop-color="#32E1FA"/><stop offset="1" stop-color="#2AF6FF"/></linearGradient><linearGradient id="opaint24_linear" x1="-37.6" y1="111.96" x2="618.248" y2="482.336" gradientUnits="userSpaceOnUse"><stop offset=".005" stop-color="#FFE4A7"/><stop offset=".1" stop-color="#FAC098"/><stop offset=".202" stop-color="#F49587"/><stop offset=".464" stop-color="#A142B5"/><stop offset=".596" stop-color="#7C1DC9"/><stop offset=".635" stop-color="#7926CB"/><stop offset=".697" stop-color="#703ED1"/><stop offset=".776" stop-color="#6165DB"/><stop offset=".869" stop-color="#4C9CE9"/><stop offset=".971" stop-color="#32E1FA"/><stop offset="1" stop-color="#2AF6FF"/></linearGradient><linearGradient id="opaint25_linear" x1="142.058" y1="3.905" x2="661.232" y2="383.226" gradientUnits="userSpaceOnUse"><stop offset=".005" stop-color="#FFE4A7"/><stop offset=".1" stop-color="#FAC098"/><stop offset=".202" stop-color="#F49587"/><stop offset=".464" stop-color="#A142B5"/><stop offset=".596" stop-color="#7C1DC9"/><stop offset=".635" stop-color="#7926CB"/><stop offset=".697" stop-color="#703ED1"/><stop offset=".776" stop-color="#6165DB"/><stop offset=".869" stop-color="#4C9CE9"/><stop offset=".971" stop-color="#32E1FA"/><stop offset="1" stop-color="#2AF6FF"/></linearGradient><linearGradient id="opaint26_linear" x1="64.142" y1="110.548" x2="583.317" y2="489.87" gradientUnits="userSpaceOnUse"><stop offset=".005" stop-color="#FFE4A7"/><stop offset=".1" stop-color="#FAC098"/><stop offset=".202" stop-color="#F49587"/><stop offset=".464" stop-color="#A142B5"/><stop offset=".596" stop-color="#7C1DC9"/><stop offset=".635" stop-color="#7926CB"/><stop offset=".697" stop-color="#703ED1"/><stop offset=".776" stop-color="#6165DB"/><stop offset=".869" stop-color="#4C9CE9"/><stop offset=".971" stop-color="#32E1FA"/><stop offset="1" stop-color="#2AF6FF"/></linearGradient><linearGradient id="opaint27_linear" x1="26.808" y1="104.507" x2="682.656" y2="474.883" gradientUnits="userSpaceOnUse"><stop offset=".005" stop-color="#FFE4A7"/><stop offset=".1" stop-color="#FAC098"/><stop offset=".202" stop-color="#F49587"/><stop offset=".464" stop-color="#A142B5"/><stop offset=".596" stop-color="#7C1DC9"/><stop offset=".635" stop-color="#7926CB"/><stop offset=".697" stop-color="#703ED1"/><stop offset=".776" stop-color="#6165DB"/><stop offset=".869" stop-color="#4C9CE9"/><stop offset=".971" stop-color="#32E1FA"/><stop offset="1" stop-color="#2AF6FF"/></linearGradient><linearGradient id="opaint28_linear" x1="170.998" y1="-35.705" x2="690.173" y2="343.616" gradientUnits="userSpaceOnUse"><stop offset=".005" stop-color="#FFE4A7"/><stop offset=".1" stop-color="#FAC098"/><stop offset=".202" stop-color="#F49587"/><stop offset=".464" stop-color="#A142B5"/><stop offset=".596" stop-color="#7C1DC9"/><stop offset=".635" stop-color="#7926CB"/><stop offset=".697" stop-color="#703ED1"/><stop offset=".776" stop-color="#6165DB"/><stop offset=".869" stop-color="#4C9CE9"/><stop offset=".971" stop-color="#32E1FA"/><stop offset="1" stop-color="#2AF6FF"/></linearGradient><linearGradient id="opaint29_linear" x1="86.681" y1="12.263" x2="742.528" y2="382.639" gradientUnits="userSpaceOnUse"><stop offset=".005" stop-color="#FFE4A7"/><stop offset=".1" stop-color="#FAC098"/><stop offset=".202" stop-color="#F49587"/><stop offset=".464" stop-color="#A142B5"/><stop offset=".596" stop-color="#7C1DC9"/><stop offset=".635" stop-color="#7926CB"/><stop offset=".697" stop-color="#703ED1"/><stop offset=".776" stop-color="#6165DB"/><stop offset=".869" stop-color="#4C9CE9"/><stop offset=".971" stop-color="#32E1FA"/><stop offset="1" stop-color="#2AF6FF"/></linearGradient><linearGradient id="opaint30_linear" x1="289.977" y1="90.253" x2="714.031" y2="329.728" gradientUnits="userSpaceOnUse"><stop offset=".005" stop-color="#FFE4A7"/><stop offset=".1" stop-color="#FAC098"/><stop offset=".202" stop-color="#F49587"/><stop offset=".464" stop-color="#A142B5"/><stop offset=".596" stop-color="#7C1DC9"/><stop offset=".635" stop-color="#7926CB"/><stop offset=".697" stop-color="#703ED1"/><stop offset=".776" stop-color="#6165DB"/><stop offset=".869" stop-color="#4C9CE9"/><stop offset=".971" stop-color="#32E1FA"/><stop offset="1" stop-color="#2AF6FF"/></linearGradient><linearGradient id="opaint31_linear" x1="171.637" y1="-36.582" x2="690.813" y2="342.74" gradientUnits="userSpaceOnUse"><stop offset=".005" stop-color="#FFE4A7"/><stop offset=".1" stop-color="#FAC098"/><stop offset=".202" stop-color="#F49587"/><stop offset=".464" stop-color="#A142B5"/><stop offset=".596" stop-color="#7C1DC9"/><stop offset=".635" stop-color="#7926CB"/><stop offset=".697" stop-color="#703ED1"/><stop offset=".776" stop-color="#6165DB"/><stop offset=".869" stop-color="#4C9CE9"/><stop offset=".971" stop-color="#32E1FA"/><stop offset="1" stop-color="#2AF6FF"/></linearGradient><linearGradient id="opaint32_linear" x1="86.385" y1="-.987" x2="742.236" y2="369.391" gradientUnits="userSpaceOnUse"><stop offset=".005" stop-color="#FFE4A7"/><stop offset=".1" stop-color="#FAC098"/><stop offset=".202" stop-color="#F49587"/><stop offset=".464" stop-color="#A142B5"/><stop offset=".596" stop-color="#7C1DC9"/><stop offset=".635" stop-color="#7926CB"/><stop offset=".697" stop-color="#703ED1"/><stop offset=".776" stop-color="#6165DB"/><stop offset=".869" stop-color="#4C9CE9"/><stop offset=".971" stop-color="#32E1FA"/><stop offset="1" stop-color="#2AF6FF"/></linearGradient><linearGradient id="opaint33_linear" x1="119.362" y1="34.968" x2="638.537" y2="414.289" gradientUnits="userSpaceOnUse"><stop offset=".005" stop-color="#FFE4A7"/><stop offset=".1" stop-color="#FAC098"/><stop offset=".202" stop-color="#F49587"/><stop offset=".464" stop-color="#A142B5"/><stop offset=".596" stop-color="#7C1DC9"/><stop offset=".635" stop-color="#7926CB"/><stop offset=".697" stop-color="#703ED1"/><stop offset=".776" stop-color="#6165DB"/><stop offset=".869" stop-color="#4C9CE9"/><stop offset=".971" stop-color="#32E1FA"/><stop offset="1" stop-color="#2AF6FF"/></linearGradient><linearGradient id="opaint34_linear" x1="95.054" y1="68.24" x2="614.229" y2="447.561" gradientUnits="userSpaceOnUse"><stop offset=".005" stop-color="#FFE4A7"/><stop offset=".1" stop-color="#FAC098"/><stop offset=".202" stop-color="#F49587"/><stop offset=".464" stop-color="#A142B5"/><stop offset=".596" stop-color="#7C1DC9"/><stop offset=".635" stop-color="#7926CB"/><stop offset=".697" stop-color="#703ED1"/><stop offset=".776" stop-color="#6165DB"/><stop offset=".869" stop-color="#4C9CE9"/><stop offset=".971" stop-color="#32E1FA"/><stop offset="1" stop-color="#2AF6FF"/></linearGradient><radialGradient id="opaint35_radial" cx="0" cy="0" r="1" gradientUnits="userSpaceOnUse" gradientTransform="matrix(10.764 0 0 10.7691 146.517 185.781)"><stop stop-color="#fff"/><stop offset="1"/></radialGradient><radialGradient id="opaint36_radial" cx="0" cy="0" r="1" gradientUnits="userSpaceOnUse" gradientTransform="matrix(12.9739 0 0 12.978 650.038 237.323)"><stop stop-color="#fff"/><stop offset="1"/></radialGradient><radialGradient id="opaint37_radial" cx="0" cy="0" r="1" gradientUnits="userSpaceOnUse" gradientTransform="matrix(142.535 0 0 142.593 681.928 220.983)"><stop stop-color="#000FE9"/><stop offset=".363" stop-color="#003DF1"/><stop offset="1" stop-color="#0097FF"/></radialGradient><radialGradient id="opaint38_radial" cx="0" cy="0" r="1" gradientUnits="userSpaceOnUse" gradientTransform="matrix(130.902 0 0 130.955 38.848 50.788)"><stop stop-color="#000FE9"/><stop offset=".363" stop-color="#003DF1"/><stop offset="1" stop-color="#0097FF"/></radialGradient><radialGradient id="opaint39_radial" cx="0" cy="0" r="1" gradientUnits="userSpaceOnUse" gradientTransform="matrix(71.2533 0 0 71.2818 233.26 137.767)"><stop stop-color="#000FE9"/><stop offset=".363" stop-color="#003DF1"/><stop offset="1" stop-color="#0097FF"/></radialGradient><radialGradient id="opaint40_radial" cx="0" cy="0" r="1" gradientUnits="userSpaceOnUse" gradientTransform="matrix(79.7071 0 0 79.7392 504.53 314.32)"><stop stop-color="#000FE9"/><stop offset=".363" stop-color="#003DF1"/><stop offset="1" stop-color="#0097FF"/></radialGradient></defs></svg>