<?xml version="1.0" encoding="utf-8"?><svg width="541" height="556" fill="none" xmlns="http://www.w3.org/2000/svg" viewBox="0 0 541 556"><g opacity=".1"><path opacity=".1" d="M100.251 315.037l-24.56-14.279v28.335l24.56 14.279 24.56-14.279v-28.335l-24.56 14.279z" fill="#42E8E0"/><path opacity=".1" d="M100.251 343.372l-24.56-14.279v-28.335l24.56 14.279v28.335z" fill="#42E8E0"/><path opacity=".1" d="M124.811 329.093l-24.56 14.279v-28.335l24.56-14.279v28.335z" fill="#2FD3C7"/><path opacity=".1" d="M100.251 315.037l-24.56-14.279 24.56-14.057 24.56 14.057-24.56 14.279z" fill="#42E8E0"/><path opacity=".1" d="M100.251 315.037l-24.56-14.279v1.338l24.56 14.057 24.56-14.057v-1.338l-24.56 14.279z" fill="#fff"/></g><path opacity=".2" d="M100.251 297.857l-24.56-14.279 24.56-14.056 24.56 14.056-24.56 14.279z" fill="#03002D"/><path d="M100.251 248.103l-24.56-14.28v28.336l24.56 14.279 24.56-14.279v-28.336l-24.56 14.28z" fill="#42E8E0"/><path d="M100.251 276.438l-24.56-14.279v-28.336l24.56 14.28v28.335z" fill="#42E8E0"/><path d="M124.811 262.159l-24.56 14.279v-28.335l24.56-14.28v28.336z" fill="#2FD3C7"/><path d="M100.251 248.103l-24.56-14.28 24.56-14.056 24.56 14.056-24.56 14.28z" fill="#42E8E0"/><path d="M100.251 248.103l-24.56-14.28v1.339l24.56 14.056 24.56-14.056v-1.339l-24.56 14.28z" fill="#fff"/><g opacity=".1"><path opacity=".1" d="M206.084 483.711l-24.561-14.279v28.335l24.561 14.28 24.56-14.28v-28.335l-24.56 14.279z" fill="#42E8E0"/><path opacity=".1" d="M206.084 512.047l-24.561-14.28v-28.335l24.561 14.279v28.336z" fill="#42E8E0"/><path opacity=".1" d="M230.644 497.767l-24.56 14.28v-28.336l24.56-14.279v28.335z" fill="#2FD3C7"/><path opacity=".1" d="M206.084 483.711l-24.561-14.279 24.561-14.056 24.56 14.056-24.56 14.279z" fill="#42E8E0"/><path opacity=".1" d="M206.084 483.711l-24.561-14.279v1.338l24.561 14.057 24.56-14.057v-1.338l-24.56 14.279z" fill="#fff"/></g><path opacity=".2" d="M206.084 466.531l-24.561-14.279 24.561-14.056 24.56 14.279-24.56 14.056z" fill="#03002D"/><path d="M206.084 416.777l-24.561-14.056v28.112l24.561 14.279 24.56-14.279v-28.112l-24.56 14.056z" fill="#42E8E0"/><path d="M206.084 445.112l-24.561-14.279v-28.112l24.561 14.056v28.335z" fill="#42E8E0"/><path d="M230.644 430.833l-24.56 14.279v-28.335l24.56-14.056v28.112z" fill="#2FD3C7"/><path d="M206.084 416.777l-24.561-14.056 24.561-14.28 24.56 14.28-24.56 14.056z" fill="#42E8E0"/><path d="M206.084 416.777l-24.561-14.056v1.115l24.561 14.056 24.56-14.056v-1.115l-24.56 14.056z" fill="#fff"/><path opacity=".2" d="M382.25 484.604c0-54.887-32.599-99.286-73.012-99.286-40.413 0-73.011 44.399-73.011 99.286 0 54.886 32.598 71.396 73.011 71.396s73.012-16.51 73.012-71.396z" fill="url(#ppaint0_radial)"/><path opacity=".1" d="M325.315 109.995l-164.779 95.047v-43.507l164.779-95.047v43.507z" fill="#9FFFF8"/><path d="M171.924 178.937l-3.126 1.785V162.65l3.126-1.785v18.072zM171.924 181.615l-3.126 1.785v-1.116l3.126-1.785v1.116zM171.924 184.069l-3.126 1.785v-1.116l3.126-1.785v1.116zM171.924 186.523l-3.126 1.785v-1.115l3.126-1.785v1.115zM171.924 188.978l-3.126 1.784v-1.115l3.126-1.785v1.116zM171.924 191.432l-3.126 1.785v-1.116l3.126-1.785v1.116zM171.924 193.886l-3.126 1.785v-1.116l3.126-1.784v1.115zM177.729 178.268l-2.903 1.785v-1.339l2.903-1.561v1.115zM177.729 180.722l-2.903 1.785v-1.338l2.903-1.562v1.115zM177.729 183.177l-2.903 1.785v-1.339l2.903-1.562v1.116zM177.729 185.631l-2.903 1.562v-1.116l2.903-1.562v1.116zM177.729 188.085l-2.903 1.562v-1.116l2.903-1.561v1.115zM177.729 190.539l-2.903 1.562v-1.115l2.903-1.785v1.338zM189.785 181.169l-2.902 1.784v-1.338l2.902-1.562v1.116zM189.785 183.623l-2.902 1.562v-1.116l2.902-1.562v1.116zM183.757 186.97l-2.903 1.784v-1.115l2.903-1.785v1.116zM195.813 175.145l-3.125 1.784v-1.115l3.125-1.785v1.116zM195.813 177.599l-3.125 1.785v-1.116l3.125-1.785v1.116zM195.813 180.053l-3.125 1.785v-1.116l3.125-1.785v1.116zM201.619 164.435l-2.902 1.785v-1.116l2.902-1.785v1.116zM201.619 166.889l-2.902 1.785v-1.115l2.902-1.785v1.115zM201.619 169.344l-2.902 1.784v-1.115l2.902-1.785v1.116zM201.619 171.798l-2.902 1.785v-1.116l2.902-1.785v1.116zM201.619 174.252l-2.902 1.785v-1.116l2.902-1.785v1.116zM201.619 176.706l-2.902 1.785v-1.338l2.902-1.562v1.115zM207.648 161.088l-2.903 1.785v-1.338l2.903-1.562v1.115zM207.648 163.543l-2.903 1.784v-1.338l2.903-1.562v1.116zM207.648 165.997l-2.903 1.562v-1.116l2.903-1.562v1.116zM207.648 168.451l-2.903 1.562v-1.116l2.903-1.562v1.116zM207.648 170.905l-2.903 1.562v-1.115l2.903-1.785v1.338zM207.648 173.36l-2.903 1.561v-1.115l2.903-1.785v1.339zM213.676 162.427l-3.126 1.785v-1.116l3.126-1.785v1.116zM213.676 164.881l-3.126 1.785v-1.115l3.126-1.785v1.115zM213.676 167.335l-3.126 1.785v-1.115l3.126-1.785v1.115zM213.676 169.79l-3.126 1.785v-1.116l3.126-1.785v1.116zM219.481 166.443l-2.903 1.562v-1.116l2.903-1.562v1.116zM225.509 150.825l-2.903 1.562v-1.116l2.903-1.785v1.339zM225.509 153.279l-2.903 1.562v-1.115l2.903-1.785v1.338zM225.509 155.51l-2.903 1.785v-1.115l2.903-1.785v1.115zM225.509 157.965l-2.903 1.785v-1.116l2.903-1.785v1.116zM225.509 160.419l-2.903 1.785v-1.116l2.903-1.785v1.116zM225.509 162.873l-2.903 1.785v-1.115l2.903-1.785v1.115zM231.538 154.618l-3.126 1.785v-1.116l3.126-1.785v1.116zM231.538 157.072l-3.126 1.785v-1.339l3.126-1.561v1.115zM231.538 159.527l-3.126 1.784v-1.338l3.126-1.562v1.116zM237.344 151.271l-2.903 1.562v-1.115l2.903-1.785v1.338zM237.344 153.726l-2.903 1.561v-1.115l2.903-1.785v1.339zM237.344 155.957l-2.903 1.785v-1.116l2.903-1.785v1.116z" fill="#9FFFF8"/><path d="M177.729 178.045l-2.903 1.562v-15.841l2.903-1.785v16.064zM183.757 184.515l-2.903 1.785v-20.749l2.903-1.785v20.749zM189.785 178.714l-2.902 1.785v-12.717l2.902-1.785v12.717zM195.813 172.913l-3.125 1.562v-15.618l3.125-1.562v15.618zM201.619 161.981l-2.902 1.785v-13.164l2.902-1.785v13.164zM207.648 158.411l-2.903 1.785v-18.742l2.903-1.785v18.742zM213.676 159.973l-3.126 1.785v-19.857l3.126-1.785v19.857zM219.482 163.989l-2.903 1.562v-25.435l2.903-1.562v25.435zM225.509 159.527l-2.903 1.784v-18.964l2.903-1.562v18.742zM231.538 151.941l-3.126 1.785V135.43l3.126-1.785v18.296zM237.344 148.371l-2.903 1.785v-25.435l2.903-1.562v25.212z" fill="#9FFFF8"/><g opacity=".4" fill="#9FFFF8"><path opacity=".4" d="M310.579 89.692l-24.784 14.279v-6.693l24.784-14.28v6.694zM319.51 95.047l-33.715 19.41v-6.693l33.715-19.41v6.693zM301.201 116.019l-15.406 8.925v-6.694l15.406-8.924v6.693z"/></g><path d="M257.886 134.315l24.783-14.28v6.694l-24.783 14.279v-6.693zM248.954 128.96l33.715-19.411v6.693l-33.715 19.411v-6.693zM267.04 107.987l15.629-8.924v6.693l-15.629 9.148v-6.917zM261.234 111.334l2.68-1.562v6.694l-2.68 1.784v-6.916zM255.876 114.457l2.903-1.561v6.693l-2.903 1.562v-6.694zM250.74 117.358l2.68-1.562v6.917l-2.68 1.561v-6.916zM245.382 120.482l2.902-1.562v6.693l-2.902 1.785v-6.916zM298.075 94.377l-12.28 7.14v-1.785l12.28-7.14v1.785zM302.541 102.409l-16.746 9.594v-1.785l16.746-9.817v2.008zM293.163 118.25l-7.368 4.463v-2.008l7.368-4.239v1.784z" fill="#9FFFF8"/><g opacity=".2" fill="#9FFFF8"><path opacity=".1" d="M325.315 153.279l-164.779 95.047v-43.507l164.779-95.047v43.507z"/><path opacity=".2" d="M171.924 222.222l-3.126 1.561v-18.072l3.126-1.562v18.073z"/><g opacity=".2"><path opacity=".2" d="M171.924 224.899l-3.126 1.562v-1.116l3.126-1.562v1.116zM171.924 227.353l-3.126 1.562v-1.116l3.126-1.785v1.339zM171.924 229.807l-3.126 1.562v-1.115l3.126-1.785v1.338zM171.924 232.039l-3.126 1.784v-1.115l3.126-1.785v1.116zM171.924 234.493l-3.126 1.785v-1.116l3.126-1.785v1.116zM171.924 236.947l-3.126 1.785v-1.116l3.126-1.785v1.116z"/></g><g opacity=".2"><path opacity=".2" d="M177.729 221.329l-2.903 1.785v-1.116l2.903-1.784v1.115zM177.729 223.783l-2.903 1.785v-1.115l2.903-1.785v1.115zM177.729 226.238l-2.903 1.784v-1.115l2.903-1.785v1.116zM177.729 228.692l-2.903 1.785v-1.116l2.903-1.785v1.116zM177.729 231.146l-2.903 1.785v-1.116l2.903-1.784v1.115zM177.729 233.6l-2.903 1.785v-1.338l2.903-1.562v1.115z"/></g><g opacity=".2"><path opacity=".2" d="M189.785 224.23l-2.902 1.784v-1.115l2.902-1.785v1.116zM189.785 226.684l-2.902 1.785v-1.116l2.902-1.785v1.116zM183.757 230.254l-2.903 1.561V230.7l2.903-1.785v1.339z"/></g><g opacity=".2"><path opacity=".2" d="M195.813 218.429l-3.125 1.784v-1.338l3.125-1.562v1.116zM195.813 220.883l-3.125 1.562v-1.116l3.125-1.562v1.116zM195.813 223.337l-3.125 1.562v-1.116l3.125-1.562v1.116z"/></g><g opacity=".2"><path opacity=".2" d="M201.619 207.719l-2.902 1.562v-1.116l2.902-1.785v1.339zM201.619 210.173l-2.902 1.562v-1.115l2.902-1.785v1.338zM201.619 212.405l-2.902 1.784v-1.115l2.902-1.785v1.116zM201.619 214.859l-2.902 1.785v-1.116l2.902-1.785v1.116zM201.619 217.313l-2.902 1.785v-1.116l2.902-1.785v1.116zM201.619 219.767l-2.902 1.785v-1.115l2.902-1.785v1.115z"/></g><g opacity=".2"><path opacity=".2" d="M207.648 204.149l-2.903 1.785v-1.115l2.903-1.785v1.115zM207.648 206.604l-2.903 1.785v-1.116l2.903-1.785v1.116zM207.648 209.058l-2.903 1.785v-1.116l2.903-1.785v1.116zM207.648 211.512l-2.903 1.785v-1.116l2.903-1.784v1.115zM207.648 213.966l-2.903 1.785v-1.338l2.903-1.562v1.115zM207.648 216.421l-2.903 1.785v-1.339l2.903-1.562v1.116z"/></g><g opacity=".2"><path opacity=".2" d="M213.676 205.711l-3.126 1.562v-1.116l3.126-1.785v1.339zM213.676 208.165l-3.126 1.562v-1.115l3.126-1.785v1.338zM213.676 210.62l-3.126 1.561v-1.115l3.126-1.785v1.339zM213.676 212.851l-3.126 1.785v-1.116l3.126-1.785v1.116zM219.481 209.504l-2.903 1.785v-1.116l2.903-1.785v1.116z"/></g><g opacity=".2"><path opacity=".2" d="M225.509 193.886l-2.903 1.785v-1.116l2.903-1.784v1.115zM225.509 196.34l-2.903 1.785v-1.338l2.903-1.562v1.115zM225.509 198.795l-2.903 1.784v-1.338l2.903-1.562v1.116zM225.509 201.249l-2.903 1.562v-1.116l2.903-1.562v1.116zM225.509 203.703l-2.903 1.562v-1.116l2.903-1.561v1.115zM225.509 206.157l-2.903 1.562v-1.115l2.903-1.785v1.338z"/></g><g opacity=".2"><path opacity=".2" d="M231.538 197.679l-3.126 1.785v-1.116l3.126-1.785v1.116zM231.538 200.133l-3.126 1.785v-1.115l3.126-1.785v1.115zM231.538 202.587l-3.126 1.785v-1.115l3.126-1.785v1.115z"/></g><g opacity=".2"><path opacity=".2" d="M237.344 194.332l-2.903 1.785v-1.339l2.903-1.561v1.115zM237.344 196.786l-2.903 1.785v-1.338l2.903-1.562v1.115zM237.344 199.241l-2.903 1.562v-1.116l2.903-1.562v1.116z"/></g><path opacity=".2" d="M177.729 221.106l-2.903 1.785v-16.064l2.903-1.785v16.064zM183.757 227.799l-2.903 1.562v-20.749l2.903-1.785v20.972zM189.785 221.775l-2.902 1.785v-12.717l2.902-1.562v12.494zM195.813 215.974l-3.125 1.785v-15.618l3.125-1.785v15.618zM201.619 205.042l-2.902 1.785v-13.164l2.902-1.785v13.164zM207.648 201.695l-2.903 1.785v-18.965l2.903-1.562v18.742zM213.676 203.257l-3.126 1.562v-19.857l3.126-1.562v19.857zM219.482 207.05l-2.903 1.785V183.4l2.903-1.785v25.435zM225.509 202.811l-2.903 1.561v-18.741l2.903-1.785v18.965zM231.538 195.002l-3.126 1.785v-18.073l3.126-1.785v18.073zM237.344 191.655l-2.903 1.785v-25.435l2.903-1.785v25.435z"/><g opacity=".4"><path opacity=".4" d="M310.579 132.976l-24.784 14.279v-6.916l24.784-14.28v6.917zM319.51 138.331l-33.715 19.411v-6.917l33.715-19.411v6.917zM301.201 159.08l-15.406 9.148v-6.917l15.406-8.924v6.693z"/></g><g opacity=".2"><path opacity=".2" d="M257.886 177.376l24.783-14.28v6.917l-24.783 14.279v-6.916zM248.954 172.021l33.715-19.411v6.917l-33.715 19.41v-6.916zM267.04 151.048l15.629-8.924v6.916l-15.629 8.925v-6.917zM261.234 154.618l2.68-1.785v6.917l-2.68 1.561v-6.693zM255.876 157.519l2.903-1.562v6.693l-2.903 1.785v-6.916zM250.74 160.642l2.68-1.562v6.694l-2.68 1.562v-6.694zM245.382 163.543l2.902-1.562v6.916l-2.902 1.562v-6.916z"/></g><path opacity=".2" d="M298.075 137.438l-12.28 7.14v-1.785l12.28-7.14v1.785zM302.541 145.47l-16.746 9.817v-2.008l16.746-9.594v1.785zM293.163 161.535l-7.368 4.239v-1.785l7.368-4.463v2.009z"/></g><path opacity=".4" d="M390.735 186.523c1.786-1.562 1.786-4.239.223-6.024-1.563-1.785-4.242-1.785-6.028-.223-1.787 1.562-1.787 4.239-.224 6.024 1.786 1.562 4.466 1.785 6.029.223z" fill="#42E8E0"/><path d="M439.632 182.73c1.786-1.561 1.786-4.239.223-6.024-1.562-1.785-4.242-1.785-6.028-.223-1.786 1.562-1.786 4.239-.223 6.024 1.786 1.785 4.465 1.785 6.028.223z" fill="#42E8E0"/><path opacity=".4" d="M427.575 117.358c1.787-1.785 2.01-4.685.224-6.47-1.786-1.785-4.689-2.008-6.475-.223-1.787 1.784-2.01 4.685-.224 6.47 1.787 1.785 4.689 1.785 6.475.223zM422.439 130.299c1.116-1.116 1.116-2.678.223-3.793-1.116-1.116-2.679-1.116-3.795-.223-1.117 1.115-1.117 2.677-.224 3.792 1.117 1.116 2.68 1.116 3.796.224z" fill="#42E8E0"/><path opacity=".8" d="M416.858 123.382a1.75 1.75 0 000-2.454 1.752 1.752 0 00-2.456 0 1.75 1.75 0 000 2.454c.67.669 1.786.669 2.456 0zM428.468 162.204a1.75 1.75 0 000-2.454 1.752 1.752 0 00-2.456 0 1.75 1.75 0 000 2.454c.67.669 1.786.669 2.456 0z" fill="#42E8E0"/><path opacity=".4" d="M403.908 112.226c.223-.223.223-.446 0-.669-.224-.223-.447-.223-.67 0-.224.223-.224.446 0 .669.223.223.446.223.67 0z" fill="#42E8E0"/><path opacity=".8" d="M407.034 134.091c.223-.223.223-.446 0-.669-.224-.223-.447-.223-.67 0-.224.223-.224.446 0 .669.223.224.446.224.67 0zM413.954 175.814c.224-.223.224-.446 0-.669-.223-.224-.446-.224-.669 0-.224.223-.224.446 0 .669 0 .223.446.223.669 0zM409.043 169.344c.224-.224.224-.447 0-.67-.223-.223-.446-.223-.669 0-.224.223-.224.446 0 .67.223 0 .446.223.669 0z" fill="#42E8E0"/><path opacity=".4" d="M390.958 137.215c2.679-2.454 2.679-6.47.223-9.148-2.456-2.677-6.475-2.677-9.154-.223-2.68 2.455-2.68 6.471-.224 9.148 2.456 2.454 6.699 2.677 9.155.223z" fill="#42E8E0"/><path d="M356.35 149.709c1.34-1.115 1.34-3.346.223-4.462-1.116-1.339-3.349-1.338-4.465-.223-1.34 1.116-1.34 3.347-.223 4.462 1.116 1.339 3.125 1.339 4.465.223z" fill="#42E8E0"/><path opacity=".4" d="M414.402 149.709c1.34-1.115 1.339-3.346.223-4.462-1.116-1.339-3.349-1.338-4.465-.223-1.34 1.116-1.34 3.347-.224 4.462 1.117 1.339 3.126 1.339 4.466.223zM390.958 96.608c1.339-1.115 1.339-3.346.223-4.462-1.117-1.339-3.349-1.339-4.466-.223-1.339 1.116-1.339 3.347-.223 4.462 1.116 1.339 3.126 1.562 4.466.223zM350.544 119.812c1.34-1.115 1.34-3.347.224-4.462-1.117-1.339-3.349-1.339-4.466-.223-1.34 1.115-1.34 3.347-.223 4.462 1.116 1.339 3.126 1.339 4.465.223zM460.62 129.629c1.339-1.115 1.339-3.346.223-4.462-1.117-1.339-3.349-1.339-4.466-.223-1.339 1.115-1.339 3.347-.223 4.462 1.116 1.339 3.126 1.562 4.466.223zM437.399 73.628c1.339-1.116 1.339-3.347.223-4.463-1.116-1.338-3.349-1.338-4.466-.223-1.116 1.116-1.339 3.347-.223 4.463 1.117 1.338 3.126 1.338 4.466.223z" fill="#42E8E0"/><path d="M479.822 79.429c.67-.67.67-1.562 0-2.232-.67-.669-1.563-.669-2.233 0-.67.67-.67 1.562 0 2.232.447.669 1.563.669 2.233 0z" fill="#42E8E0"/><path opacity=".4" d="M400.336 175.591c.67-.67.893-2.008 0-2.678-.67-.669-2.01-.892-2.68 0-.669.67-.893 2.008 0 2.678.67.669 2.01.669 2.68 0z" fill="#42E8E0"/><path d="M396.763 122.266c.669-.669.893-2.008 0-2.677-.67-.669-2.01-.892-2.68 0-.67.669-.893 2.008 0 2.677.67.67 1.786.893 2.68 0zM372.648 121.597c.447-.446.447-1.339 0-1.785-.446-.446-1.339-.446-1.786 0-.446.446-.446 1.339 0 1.785.447.446 1.34.446 1.786 0zM369.076 121.597c.67-.669.67-1.785 0-2.677-.67-.67-1.786-.67-2.679 0-.67.669-.67 1.785 0 2.677.67.669 1.786.669 2.679 0zM368.406 125.836c.447-.446.447-1.115 0-1.338-.447-.447-1.116-.447-1.34 0-.446.446-.446 1.115 0 1.338.224.447.893.447 1.34 0z" fill="#42E8E0"/><path opacity=".4" d="M386.045 156.18c.446-.446.67-1.339 0-1.785-.447-.446-1.34-.669-1.786 0-.447.446-.67 1.339 0 1.785.446.446 1.339.669 1.786 0zM424.673 161.758c.446-.447.67-1.339 0-1.785-.447-.446-1.34-.67-1.786 0-.447.446-.67 1.338 0 1.785.446.446 1.339.446 1.786 0z" fill="#42E8E0"/><path d="M394.307 158.188a3.45 3.45 0 00.223-4.686 3.457 3.457 0 00-4.689-.223 3.45 3.45 0 00-.223 4.686c1.34 1.562 3.349 1.562 4.689.223z" fill="#42E8E0"/><path d="M214.569 296.965c-2.903 9.817-18.979 29.228-29.026 26.327-9.824-2.9-10.048-27.22-6.922-37.037 2.903-9.817 13.397-15.618 23.444-12.494 9.825 2.9 15.63 13.387 12.504 23.204z" fill="url(#ppaint1_radial)"/><path d="M214.569 296.965c-2.903 9.817-18.979 29.228-29.026 26.327-9.824-2.9-10.048-27.22-6.922-37.037 2.903-9.817 13.397-15.618 23.444-12.494 9.825 2.9 15.63 13.387 12.504 23.204z" fill="url(#ppaint2_linear)"/><path d="M195.591 273.761c5.136-.446 11.834 2.677 14.96 6.916 2.902 4.24 1.116 8.032-4.019 8.702-5.136.446-11.834-2.678-14.96-6.917-3.126-4.462-1.339-8.255 4.019-8.701z" fill="#251C72"/><path opacity=".5" d="M195.591 273.761c5.136-.446 11.834 2.677 14.96 6.916 2.902 4.24 1.116 8.032-4.019 8.702-5.136.446-11.834-2.678-14.96-6.917-3.126-4.462-1.339-8.255 4.019-8.701z" fill="url(#ppaint3_radial)"/><path d="M190.009 278.669c.893-.669 2.233-1.338 4.019-1.561 5.135-.447 11.833 2.677 14.959 6.916a10.523 10.523 0 011.563 3.793c1.786-1.562 2.01-4.239 0-7.14-2.902-4.239-9.601-7.362-14.959-6.916-3.796.223-5.582 2.231-5.582 4.908z" fill="#42E8E0"/><path opacity=".6" d="M213.005 268.629c-.893 0-1.563.67-1.563 1.339 0 .892.67 1.562 1.34 1.562.893 0 1.563-.67 1.563-1.339 0-.669-.447-1.562-1.34-1.562z" fill="#42E8E0"/><path d="M198.939 258.366c-2.009 0-3.795 1.562-3.795 3.57s1.562 3.793 3.572 3.793c2.009 0 3.796-1.562 3.796-3.57.223-2.008-1.34-3.793-3.573-3.793z" fill="#42E8E0"/><path opacity=".6" d="M220.373 249.888c-1.116 0-2.009.892-2.232 2.008 0 1.115.893 2.008 2.009 2.231 1.117 0 2.01-.893 2.233-2.008 0-1.116-.893-2.231-2.01-2.231z" fill="#42E8E0"/><path d="M212.113 251.673c-.893 0-1.34.669-1.563 1.338 0 .893.67 1.339 1.339 1.562.894 0 1.34-.669 1.563-1.339 0-.892-.669-1.561-1.339-1.561zM213.675 248.326c-.446 0-.893.446-.893.892 0 .447.447.893.893.893.447 0 .893-.446.893-.893 0-.446-.446-.892-.893-.892z" fill="#42E8E0"/><path opacity=".6" d="M201.619 275.992a2 2 0 00-2.01 2.008 2 2 0 002.01 2.008 2 2 0 002.009-2.008 2 2 0 00-2.009-2.008z" fill="#42E8E0"/><path d="M207.87 275.323c-1.786 0-3.126 1.338-3.126 3.123 0 1.785 1.34 3.124 3.126 3.124 1.786 0 3.126-1.339 3.126-3.124 0-1.785-1.34-3.123-3.126-3.123z" fill="#42E8E0"/><path d="M241.138 262.828c15.661 0 28.357-12.686 28.357-28.335 0-15.649-12.696-28.336-28.357-28.336-15.66 0-28.356 12.687-28.356 28.336s12.696 28.335 28.356 28.335z" fill="url(#ppaint4_radial)"/><path d="M256.321 210.843c13.173 8.478 16.969 25.881 8.708 39.045-8.485 13.163-25.9 16.956-39.074 8.701-13.173-8.478-16.969-25.881-8.708-39.045 8.485-13.387 25.901-17.18 39.074-8.701z" fill="url(#ppaint5_linear)"/><path d="M382.25 285.809c0 54.886-32.599 99.286-73.012 99.286-40.413 0-73.011-44.4-73.011-99.286s32.598-71.396 73.011-71.396 73.012 16.51 73.012 71.396z" fill="url(#ppaint6_radial)"/><path d="M382.25 285.809c0 54.886-32.599 99.286-73.012 99.286-40.413 0-73.011-44.4-73.011-99.286s32.598-71.396 73.011-71.396 73.012 16.51 73.012 71.396z" fill="url(#ppaint7_linear)"/><path d="M309.238 272.868c27.499 0 49.791-12.886 49.791-28.781 0-15.896-22.292-28.782-49.791-28.782-27.499 0-49.791 12.886-49.791 28.782 0 15.895 22.292 28.781 49.791 28.781z" fill="#251C72"/><path opacity=".5" d="M309.238 272.868c27.499 0 49.791-12.886 49.791-28.781 0-15.896-22.292-28.782-49.791-28.782-27.499 0-49.791 12.886-49.791 28.782 0 15.895 22.292 28.781 49.791 28.781z" fill="url(#ppaint8_radial)"/><path d="M273.96 231.369c19.425-11.155 50.907-11.155 70.555 0 8.038 4.686 12.727 10.487 14.067 16.511 2.009-8.479-2.679-17.626-14.067-24.097-19.425-11.155-50.907-11.155-70.555 0-11.387 6.694-16.076 15.618-14.066 24.097 1.339-6.024 6.028-11.825 14.066-16.511z" fill="#42E8E0"/><path d="M281.245 158.618c8.2-14.192 8.182-29.543-.041-34.288-8.222-4.744-21.536 2.916-29.736 17.108-8.2 14.193-8.182 29.544.041 34.288 8.222 4.744 21.536-2.915 29.736-17.108z" fill="#BCBEFF"/><path d="M312.141 249.888c41.186 0 74.574-33.364 74.574-74.52 0-41.157-33.388-74.52-74.574-74.52s-74.575 33.363-74.575 74.52c0 41.156 33.389 74.52 74.575 74.52z" fill="url(#ppaint9_radial)"/><path d="M312.141 249.888c41.186 0 74.574-33.364 74.574-74.52 0-41.157-33.388-74.52-74.574-74.52s-74.575 33.363-74.575 74.52c0 41.156 33.389 74.52 74.575 74.52z" fill="url(#ppaint10_linear)"/><path d="M288.919 210.62c-2.009 14.725-12.95 19.187-24.783 10.263-11.834-8.925-19.649-28.113-17.863-42.838 2.01-14.726 12.951-19.188 24.784-10.263 11.834 9.147 19.649 28.335 17.862 42.838z" fill="#251C72"/><path opacity=".5" d="M288.919 210.62c-2.009 14.725-12.95 19.187-24.783 10.263-11.834-8.925-19.649-28.113-17.863-42.838 2.01-14.726 12.951-19.188 24.784-10.263 11.834 9.147 19.649 28.335 17.862 42.838z" fill="url(#ppaint11_radial)"/><path d="M279.095 198.125c-.67 5.355-4.689 6.917-8.931 3.793-4.242-3.347-7.145-10.263-6.475-15.618.67-5.355 4.689-6.916 8.931-3.793 4.465 3.347 7.145 10.263 6.475 15.618z" fill="#42E8E0"/><path d="M269.718 218.875c-11.834-8.925-19.649-28.113-17.863-42.838.67-6.024 3.126-10.263 6.252-12.718-6.028.67-10.717 5.801-12.057 14.726-2.009 14.725 6.029 33.69 17.862 42.838 6.922 5.355 13.62 5.801 18.309 2.454-3.572.446-7.815-1.116-12.503-4.462z" fill="#42E8E0"/><path d="M265.252 220.437c-11.833-8.925-19.648-28.113-17.862-42.838.893-6.694 3.796-11.379 7.592-13.61-4.466 1.785-7.815 6.693-8.708 14.056-2.01 14.725 6.028 33.69 17.862 42.838 6.252 4.908 12.503 5.801 16.969 3.347-4.466 1.784-10.047.669-15.853-3.793z" fill="#42E8E0"/><path d="M389.394 333.109c15.661 0 28.356-12.686 28.356-28.335 0-15.65-12.695-28.336-28.356-28.336-15.66 0-28.356 12.686-28.356 28.336 0 15.649 12.696 28.335 28.356 28.335z" fill="url(#ppaint12_radial)"/><path d="M389.394 333.109c15.661 0 28.356-12.686 28.356-28.335 0-15.65-12.695-28.336-28.356-28.336-15.66 0-28.356 12.686-28.356 28.336 0 15.649 12.696 28.335 28.356 28.335z" fill="url(#ppaint13_linear)"/><path d="M416.634 305.22c0 8.032-5.582 17.626-12.504 21.642-6.921 4.016-12.503.669-12.503-7.14 0-8.032 5.582-17.626 12.503-21.642 6.922-4.016 12.504-.669 12.504 7.14z" fill="#251C72"/><path opacity=".5" d="M416.634 305.22c0 8.032-5.582 17.626-12.504 21.642-6.921 4.016-12.503.669-12.503-7.14 0-8.032 5.582-17.626 12.503-21.642 6.922-4.016 12.504-.669 12.504 7.14z" fill="url(#ppaint14_radial)"/><path d="M409.936 296.295c1.117 1.562 1.563 3.57 1.563 6.248 0 8.032-5.582 17.626-12.503 21.642-2.233 1.115-4.019 1.785-5.806 1.785 2.233 3.123 6.252 3.569 10.941.892 6.922-4.016 12.504-13.61 12.504-21.642 0-5.355-2.68-8.701-6.699-8.925z" fill="#42E8E0"/><path d="M374.881 202.588l-26.793 15.618v-31.013l26.793-15.618v31.013z" fill="#251C72"/><path opacity=".8" d="M370.862 173.806v26.774l-22.774 13.163v4.463l26.793-15.618v-31.013l-4.019 2.231z" fill="url(#ppaint15_radial)"/><path d="M353.224 195.671l-2.456 1.339v-2.678l2.456-1.561v2.9zM358.358 189.201l-2.456 1.338v-2.9l2.456-1.339v2.901zM363.494 189.647l-2.456 1.562v-2.901l2.456-1.339v2.678zM363.494 197.01l-2.456 1.338v-2.677l2.456-1.339v2.678zM360.369 202.588l-2.456 1.338v-2.677l2.456-1.339v2.678zM368.63 193.886l-2.456 1.562v-2.901l2.456-1.338v2.677z" fill="#42E8E0"/><path d="M396.763 194.555l2.902-5.131-2.902-1.785-27.017 15.618v31.013l2.903 1.785 2.902-5.132 21.212-12.048v-24.32z" fill="url(#ppaint16_linear)"/><path d="M399.665 220.437l-27.017 15.618v-31.236l27.017-15.395v31.013z" fill="url(#ppaint17_linear)"/><path d="M399.665 220.437l-27.017 15.618v-31.236l27.017-15.395v31.013z" fill="url(#ppaint18_linear)"/><path d="M408.82 384.202c-2.903 9.817-18.979 29.228-29.026 26.328-9.824-2.901-10.048-27.22-6.922-37.037 2.903-9.817 13.397-15.618 23.444-12.495 9.824 2.678 15.63 13.164 12.504 23.204z" fill="url(#ppaint19_radial)"/><path d="M408.82 384.202c-2.903 9.817-18.979 29.228-29.026 26.328-9.824-2.901-10.048-27.22-6.922-37.037 2.903-9.817 13.397-15.618 23.444-12.495 9.824 2.678 15.63 13.164 12.504 23.204z" fill="url(#ppaint20_linear)"/><path d="M389.842 360.775c5.136-.446 11.834 2.678 14.96 6.917 2.902 4.239 1.116 8.032-4.019 8.701-5.136.446-11.834-2.677-14.96-6.916-3.126-4.239-1.339-8.256 4.019-8.702z" fill="#251C72"/><path opacity=".5" d="M389.842 360.775c5.136-.446 11.834 2.678 14.96 6.917 2.902 4.239 1.116 8.032-4.019 8.701-5.136.446-11.834-2.677-14.96-6.916-3.126-4.239-1.339-8.256 4.019-8.702z" fill="url(#ppaint21_radial)"/><path d="M384.26 365.684c.893-.67 2.233-1.339 4.019-1.562 5.135-.446 11.833 2.677 14.959 6.917a10.519 10.519 0 011.563 3.792c1.786-1.561 2.01-4.239 0-7.139-2.902-4.239-9.601-7.363-14.959-6.917-3.796.446-5.582 2.454-5.582 4.909z" fill="#42E8E0"/><path opacity=".6" d="M404.577 348.95c.67-.669.67-1.562 0-2.008-.67-.669-1.563-.669-2.009 0-.67.67-.67 1.562 0 2.008.446.447 1.339.447 2.009 0z" fill="#42E8E0"/><path d="M421.77 346.496c1.563-1.339 1.563-3.793.223-5.355-1.34-1.562-3.796-1.562-5.359-.223-1.563 1.339-1.563 3.793-.223 5.355 1.34 1.562 3.796 1.562 5.359.223z" fill="#42E8E0"/><path opacity=".6" d="M412.393 367.469c.893-.893.893-2.008 0-2.901-.893-.892-2.01-.892-2.903 0-.893.893-.893 2.008 0 2.901.67.669 2.01.892 2.903 0z" fill="#42E8E0"/><path d="M417.081 360.329c.67-.446.67-1.339 0-2.008-.446-.669-1.339-.669-2.009 0-.67.446-.67 1.339 0 2.008s1.563.669 2.009 0zM418.197 363.899c.447-.446.447-.893 0-1.339-.447-.446-.893-.446-1.34 0-.446.446-.446.893 0 1.339.447.223 1.117.223 1.34 0z" fill="#42E8E0"/><path opacity=".6" d="M407.48 335.787c.893-.893.893-2.009 0-2.901-.893-.892-2.01-.892-2.903 0-.893.892-.893 2.008 0 2.901.893.669 2.233.669 2.903 0z" fill="#42E8E0"/><path d="M403.461 340.695c1.34-1.116 1.34-3.124.224-4.462-1.117-1.339-3.126-1.339-4.466-.223-1.34 1.115-1.34 3.123-.223 4.462 1.34 1.339 3.349 1.339 4.465.223z" fill="#42E8E0"/><path opacity=".1" d="M541 384.202l-169.69 98.17v-53.993L541 330.432v53.77z" fill="#9FFFF8"/><path d="M380.687 454.037l-3.125 1.785v-13.164l3.125-1.785v13.164zM386.939 450.467l-3.126 1.785v-17.849l3.126-1.785v17.849zM392.968 446.897l-3.126 1.785v-23.204l3.126-1.785v23.204zM399.22 443.327l-3.126 1.785V424.14l3.126-1.785v20.972zM405.248 439.758l-3.126 1.784v-17.849l3.126-1.784v17.849z" fill="#9FFFF8"/><path opacity=".9" d="M411.499 436.188l-3.126 1.785v-14.949l3.126-1.562v14.726zM417.529 432.618l-2.903 1.785v-11.379l2.903-1.785v11.379z" fill="#9FFFF8"/><path opacity=".7" d="M423.779 429.271l-3.126 1.785v-8.924l3.126-1.785v8.924zM429.809 425.701l-2.903 1.785v-6.916l2.903-1.785v6.916z" fill="#9FFFF8"/><path opacity=".5" d="M436.059 422.132l-3.125 1.785v-9.371l3.125-1.785v9.371zM442.089 418.562l-2.902 1.785v-13.61l2.902-1.785v13.61z" fill="#9FFFF8"/><path opacity=".3" d="M448.34 414.992l-3.126 1.785v-17.849l3.126-1.785v17.849zM454.368 411.422l-2.902 1.785v-14.279l2.902-1.785v14.279z" fill="#9FFFF8"/><path opacity=".1" d="M460.62 407.852l-3.126 1.785v-10.263l3.126-1.785v10.263zM466.649 404.282l-2.903 1.785v-7.585l2.903-1.785v7.585z" fill="#9FFFF8"/><path d="M531.623 349.173l2.903-1.785v17.85l-2.903 1.784v-17.849z" fill="#9FFFF8"/><path opacity=".9" d="M525.37 355.644l3.126-1.785v14.948l-3.126 1.785v-14.948zM519.119 362.56l3.126-1.785v11.602l-3.126 1.785V362.56z" fill="#9FFFF8"/><path opacity=".7" d="M513.09 368.807l3.126-1.785v8.925l-3.126 1.785v-8.925zM506.839 374.385l3.126-1.785v6.694l-3.126 1.785v-6.694z" fill="#9FFFF8"/><path opacity=".5" d="M500.81 375.278l3.125-1.785v9.371l-3.125 1.784v-9.37zM494.559 374.608l3.125-1.785v13.61l-3.125 1.785v-13.61z" fill="#9FFFF8"/><path opacity=".3" d="M488.529 373.939l3.126-1.785v17.849l-3.126 1.785v-17.849zM482.278 381.079l3.126-1.785v14.279l-3.126 1.785v-14.279z" fill="#9FFFF8"/><path opacity=".1" d="M476.25 388.664l3.126-1.784v10.263l-3.126 1.785v-10.264zM469.998 394.912l3.126-1.785v7.586l-3.126 1.785v-7.586z" fill="#9FFFF8"/><path d="M417.529 432.618l-2.903 1.785 2.903-1.785z" fill="#9FFFF8"/><g opacity=".1" fill="#9FFFF8"><g opacity=".1"><path opacity=".1" d="M380.687 459.392l-3.125 1.785v-2.901l3.125-1.785v2.901zM392.968 452.252l-3.126 1.785v-2.901l3.126-1.784v2.9zM399.22 448.905l-3.126 1.562v-2.9l3.126-1.785v3.123zM405.248 445.336l-3.126 1.784v-3.123l3.126-1.785v3.124zM411.499 441.766l-3.126 1.785v-2.901l3.126-1.785v2.901zM423.779 434.626l-3.126 1.785v-2.901l3.126-1.784v2.9zM429.809 431.056l-2.903 1.785v-2.9l2.903-1.785v2.9zM436.059 427.486l-3.125 1.785v-2.9l3.125-1.785v2.9zM442.089 423.917l-2.902 1.784v-2.9l2.902-1.785v2.901zM448.34 420.347l-3.126 1.785v-2.901l3.126-1.785v2.901zM460.62 413.43l-3.126 1.785v-3.124l3.126-1.784v3.123zM466.649 409.86l-2.903 1.785v-2.9l2.903-1.785v2.9zM472.9 406.291l-3.126 1.784v-2.9l3.126-1.785v2.901zM478.929 402.721l-2.903 1.785v-2.901l2.903-1.785v2.901zM485.181 399.151l-3.126 1.785v-2.901l3.126-1.785v2.901zM491.433 395.581l-3.126 1.785v-2.901l3.126-1.784v2.9zM497.461 392.011l-3.126 1.785v-2.9l3.126-1.785v2.9zM509.741 384.872l-3.126 1.784v-2.9l3.126-1.785v2.901zM515.993 381.525l-3.126 1.785v-3.124l3.126-1.785v3.124zM522.021 377.955l-3.125 1.785v-2.901l3.125-1.784v2.9zM528.273 374.385l-3.126 1.785v-2.9l3.126-1.785v2.9z"/></g><g opacity=".1"><path opacity=".1" d="M380.687 464.746l-3.125 1.785v-2.9l3.125-1.785v2.9zM386.939 461.177l-3.126 1.784v-2.9l3.126-1.785v2.901zM392.968 457.607l-3.126 1.785v-2.901l3.126-1.785v2.901zM399.22 454.037l-3.126 1.785v-2.901l3.126-1.785v2.901zM405.248 450.467l-3.126 1.785v-2.9l3.126-1.785v2.9zM411.499 446.897l-3.126 1.785v-2.9l3.126-1.785v2.9zM423.779 439.981l-3.126 1.561v-2.9l3.126-1.785v3.124zM436.059 432.841l-3.125 1.785v-2.901l3.125-1.784v2.9zM442.089 429.271l-2.902 1.785v-2.9l2.902-1.785v2.9zM448.34 425.701l-3.126 1.785v-2.9l3.126-1.785v2.9zM460.62 418.562l-3.126 1.785v-2.901l3.126-1.785v2.901zM466.649 414.992l-2.903 1.785v-2.901l2.903-1.784v2.9zM485.181 404.506l-3.126 1.784v-3.123l3.126-1.785v3.124zM491.433 400.936l-3.126 1.785v-2.901l3.126-1.785v2.901zM497.461 397.366l-3.126 1.785v-2.901l3.126-1.785v2.901zM509.741 390.226l-3.126 1.785v-2.9l3.126-1.785v2.9zM522.021 383.087l-3.125 1.785v-2.901l3.125-1.785v2.901zM528.273 379.517l-3.126 1.785v-2.901l3.126-1.785v2.901zM534.302 375.947l-3.126 1.785v-2.901l3.126-1.784v2.9z"/></g><g opacity=".1"><path opacity=".1" d="M380.687 469.878l-3.125 1.785v-2.901l3.125-1.784v2.9zM386.939 466.308l-3.126 1.785v-2.9l3.126-1.785v2.9zM411.499 452.252l-3.126 1.785v-2.901l3.126-1.784v2.9zM417.529 448.682l-2.903 1.785v-2.9l2.903-1.785v2.9zM423.779 445.112l-3.126 1.785v-2.9l3.126-1.785v2.9zM429.809 441.543l-2.903 1.784v-2.9l2.903-1.785v2.901zM436.059 437.973l-3.125 1.785v-2.901l3.125-1.785v2.901zM448.34 431.056l-3.126 1.562v-2.901l3.126-1.784v3.123zM454.368 427.486l-2.902 1.785v-3.123l2.902-1.785v3.123zM466.649 420.347l-2.903 1.785v-2.901l2.903-1.785v2.901zM472.9 416.777l-3.126 1.785v-2.901l3.126-1.785v2.901zM478.929 413.207l-2.903 1.785v-2.901l2.903-1.784v2.9zM485.181 409.637l-3.126 1.785v-2.9l3.126-1.785v2.9zM491.433 406.067l-3.126 1.785v-2.9l3.126-1.785v2.9zM503.713 399.151l-3.126 1.562v-2.901l3.126-1.785v3.124zM509.741 395.581l-3.126 1.785v-3.124l3.126-1.785v3.124zM515.993 392.011l-3.126 1.785v-2.9l3.126-1.785v2.9zM522.021 388.441l-3.125 1.785v-2.9l3.125-1.785v2.9zM528.273 384.872l-3.126 1.784v-2.9l3.126-1.785v2.901zM534.302 381.302l-3.126 1.785v-2.901l3.126-1.785v2.901z"/></g></g><path d="M386.939 455.822l-3.126 1.785v-2.901l3.126-1.785v2.901zM417.528 438.196l-2.903 1.785v-2.901l2.903-1.785v2.901zM454.368 416.777l-2.902 1.785v-2.901l2.902-1.785v2.901zM503.713 388.441l-3.126 1.785v-2.9l3.126-1.785v2.9zM534.302 370.815l-3.126 1.785v-2.9l3.126-1.785v2.9zM417.528 443.327l-2.903 1.785v-2.9l2.903-1.785v2.9zM429.808 436.411l-2.903 1.785v-3.124l2.903-1.785v3.124zM454.368 422.132l-2.902 1.785v-2.901l2.902-1.785v2.901zM472.9 411.422l-3.126 1.785v-2.9l3.126-1.785v2.9zM478.929 407.852l-2.903 1.785v-2.9l2.903-1.785v2.9zM503.713 393.796l-3.126 1.785v-2.9l3.126-1.785v2.9zM515.993 386.656l-3.126 1.785v-2.9l3.126-1.785v2.9zM392.968 462.961l-3.126 1.562v-2.9l3.126-1.785v3.123zM399.22 459.392l-3.126 1.785v-3.124l3.126-1.562v2.901zM405.247 455.822l-3.126 1.785v-2.901l3.126-1.785v2.901zM442.088 434.403l-2.902 1.785v-2.901l2.902-1.785v2.901zM460.62 423.917l-3.126 1.784v-2.9l3.126-1.785v2.901zM497.461 402.498l-3.126 1.785v-2.901l3.126-1.785v2.901z" fill="#9FFFF8"/><path opacity=".1" d="M164.778 381.302L0 476.348v-43.507l164.778-95.046v43.507z" fill="#9FFFF8"/><path opacity=".3" d="M8.262 466.085l5.358-12.717c1.787-4.016 5.359-6.471 7.592-5.355l.67.446c2.01 1.116 4.912-.669 6.921-4.016l8.708-15.395c2.01-3.346 5.135-5.131 6.922-4.016l5.358 3.124c1.563.892 4.02 0 5.805-2.454l2.233-2.901c1.786-2.008 3.796-3.124 5.359-2.677l9.154 2.677c1.786.446 4.242-.892 6.029-3.57l8.038-12.048c.223-.223.446-.669.67-.892l8.93-16.957c1.564-2.901 4.243-4.909 6.252-4.685 1.563.223 3.573-.893 5.359-3.124l4.689-6.024v30.566L8.262 466.085z" fill="#9FFFF8"/><path d="M9.154 466.308l-1.34-.669 5.36-12.718c1.116-2.677 3.348-5.131 5.581-5.801 1.116-.446 2.233-.446 3.126.224l.67.446c1.563.892 4.242-.893 5.805-3.793l8.708-15.395c1.34-2.454 3.349-4.016 5.135-4.685 1.117-.224 2.01-.223 2.903.223l5.358 3.123c1.117.67 3.126-.223 4.912-2.231l2.233-2.9c2.01-2.455 4.242-3.57 6.252-2.901l9.154 2.678c1.563.446 3.573-.893 5.136-3.347l8.038-12.048c.223-.223.446-.67.446-.893l8.931-16.956c1.787-3.347 4.689-5.355 7.145-5.132 1.34.223 3.126-.892 4.466-2.677l4.689-6.024 1.339.892-4.689 6.024c-1.786 2.454-4.019 3.57-6.028 3.347-1.563-.223-4.02 1.562-5.582 4.239l-8.931 16.957c-.223.446-.447.669-.67 1.115l-8.038 12.048c-2.01 2.901-4.689 4.463-6.922 4.016l-9.154-2.677c-1.34-.446-3.126.669-4.465 2.454l-2.233 2.901c-2.233 2.677-4.912 3.793-6.922 2.677l-5.358-3.123c-.447-.224-.894-.224-1.563-.224-1.563.447-3.126 1.785-4.243 3.793l-8.707 15.395c-2.233 3.793-5.582 5.578-8.038 4.239l-.67-.446c-.67-.446-1.34-.223-1.786 0-1.787.669-3.573 2.678-4.69 4.909l-5.358 12.94z" fill="#9FFFF8"/><path d="M63.187 410.753c0 1.785-1.34 3.793-2.68 4.685-1.563.893-2.679.223-2.679-1.562 0-1.785 1.34-3.793 2.68-4.685 1.34-.893 2.679-.223 2.679 1.562zM20.095 439.981c0 1.785-1.34 3.793-2.68 4.685-1.562.893-2.679.223-2.679-1.562 0-1.785 1.34-3.793 2.68-4.685 1.34-.892 2.679-.223 2.679 1.562zM103.601 402.944l-10.717 6.247v-1.785l10.717-6.247v1.785zM107.397 404.506l-14.513 8.478v-2.008l14.513-8.255v1.785zM46.665 436.857l-10.94 6.247v-1.785l10.94-6.47v2.008zM37.51 445.782l-1.785 1.115v-2.008l1.786-.892v1.785z" fill="#9FFFF8"/><path opacity=".3" d="M150.935 353.859l-26.123 14.948v30.121l26.123-14.949v-30.12z" fill="#9FFFF8"/><path opacity=".3" d="M131.063 369.477l-2.679 1.562v3.123l2.679-1.562v-3.123z" fill="#9FFFF8"/><path d="M136.422 366.353l-2.679 1.562v3.124l2.679-1.562v-3.124z" fill="#9FFFF8"/><path opacity=".3" d="M141.781 363.23l-2.679 1.561v3.124l2.679-1.562v-3.123zM147.139 360.329l-2.679 1.339v3.123l2.679-1.561v-2.901zM131.063 375.501l-2.679 1.562v3.123l2.679-1.562v-3.123z" fill="#9FFFF8"/><path d="M136.422 372.6l-2.679 1.562v2.901l2.679-1.562V372.6z" fill="#9FFFF8"/><path opacity=".3" d="M141.781 369.477l-2.679 1.562v3.123l2.679-1.562v-3.123zM147.139 366.353l-2.679 1.562v3.124l2.679-1.562v-3.124z" fill="#9FFFF8"/><path d="M131.063 381.748l-2.679 1.562v3.123l2.679-1.561v-3.124z" fill="#9FFFF8"/><path opacity=".3" d="M136.422 378.624l-2.679 1.562v3.124l2.679-1.562v-3.124zM141.781 375.501l-2.679 1.562v3.123l2.679-1.562v-3.123z" fill="#9FFFF8"/><path d="M147.139 372.6l-2.679 1.562v2.901l2.679-1.562V372.6z" fill="#9FFFF8"/><path opacity=".3" d="M131.063 387.995l-2.679 1.339v3.123l2.679-1.561v-2.901z" fill="#9FFFF8"/><path d="M136.422 384.872l-2.679 1.561v2.901l2.679-1.339v-3.123z" fill="#9FFFF8"/><path opacity=".3" d="M141.781 381.748l-2.679 1.562v3.123l2.679-1.561v-3.124zM147.139 378.624l-2.679 1.562v3.124l2.679-1.562v-3.124z" fill="#9FFFF8"/><g opacity=".2" fill="#9FFFF8"><g opacity=".2"><path opacity=".1" d="M164.778 425.478L0 520.525v-43.507l164.778-95.047v43.507z"/><path opacity=".3" d="M8.262 510.262l5.358-12.718c1.787-4.016 5.359-6.47 7.592-5.355l.67.447c2.01 1.115 4.912-.67 6.921-4.016l8.708-15.395c2.01-3.347 5.135-5.132 6.922-4.016l5.358 3.123c1.563.893 4.02 0 5.805-2.454l2.233-2.9c1.786-2.008 3.796-3.124 5.359-2.678l9.154 2.678c1.786.446 4.242-.893 6.029-3.57l8.038-12.048c.223-.224.446-.67.67-.893l8.93-16.957c1.564-2.9 4.243-4.908 6.252-4.685 1.563.223 3.573-.892 5.359-3.124l4.689-6.024v30.121L8.262 510.262z"/><path opacity=".2" d="M9.154 510.485l-1.34-.67 5.36-12.717c1.116-2.678 3.348-5.132 5.581-5.801 1.116-.446 2.233-.446 3.126.223l.67.446c1.563.893 4.242-.892 5.805-3.793l8.708-15.395c1.34-2.454 3.349-4.016 5.135-4.685 1.117-.223 2.01-.223 2.903.223l5.358 3.124c1.117.669 3.126-.223 4.912-2.231l2.233-2.901c2.01-2.454 4.242-3.57 6.252-2.9l9.154 2.677c1.34.446 3.573-.892 5.136-3.347l8.038-12.048c.223-.223.446-.669.446-.892l8.931-16.957c1.787-3.347 4.689-5.355 7.145-5.132 1.34.223 3.126-.892 4.466-2.677l4.689-6.024 1.339.892-4.689 6.024c-1.786 2.455-4.019 3.57-6.028 3.347-1.563-.223-4.02 1.562-5.582 4.239l-8.931 16.957c-.223.446-.447.669-.67 1.116l-8.038 12.048c-2.01 2.9-4.689 4.462-6.922 4.016l-9.154-2.678c-1.116-.446-3.126.67-4.465 2.455l-2.233 2.9c-2.233 2.678-4.912 3.793-6.922 2.678l-5.358-3.124c-.447-.223-.894-.223-1.563-.223-1.563.446-3.126 1.785-4.243 3.793l-8.707 15.395c-2.233 3.793-5.582 5.577-8.038 4.239l-.67-.446c-.67-.447-1.34-.224-1.786 0-1.787.669-3.573 2.677-4.69 4.908l-5.358 12.941z"/></g><path opacity=".2" d="M63.187 454.929c0 1.785-1.34 3.793-2.68 4.686-1.563.892-2.679.223-2.679-1.562 0-1.785 1.34-3.793 2.68-4.685 1.34-.893 2.679-.224 2.679 1.561zM20.095 484.157c0 1.785-1.34 3.793-2.68 4.686-1.562.892-2.679.223-2.679-1.562 0-1.785 1.34-3.793 2.68-4.686 1.34-1.115 2.679-.223 2.679 1.562z"/><g opacity=".2"><path opacity=".2" d="M103.601 447.12l-10.717 6.248v-2.008l10.717-6.025v1.785zM107.397 448.682l-14.513 8.255v-1.784l14.513-8.479v2.008z"/></g><g opacity=".2"><path opacity=".2" d="M46.665 480.811l-10.94 6.47v-2.008l10.94-6.247v1.785zM37.51 489.958l-1.785 1.116v-2.008l1.786-1.116v2.008z"/></g><path opacity=".3" d="M150.935 397.812l-26.123 15.172v30.12l26.123-15.171v-30.121z"/><path opacity=".3" d="M131.063 413.653l-2.679 1.562v2.901l2.679-1.562v-2.901z"/><path opacity=".2" d="M136.422 410.53l-2.679 1.561v3.124l2.679-1.562v-3.123z"/><path opacity=".3" d="M141.781 407.406l-2.679 1.562v3.123l2.679-1.561v-3.124zM147.139 404.282l-2.679 1.562v3.124l2.679-1.562v-3.124zM131.063 419.677l-2.679 1.562v3.124l2.679-1.562v-3.124z"/><path opacity=".2" d="M136.422 416.554l-2.679 1.562v3.123l2.679-1.562v-3.123z"/><path opacity=".3" d="M141.781 413.653l-2.679 1.562v2.901l2.679-1.562v-2.901zM147.139 410.53l-2.679 1.561v3.124l2.679-1.562v-3.123z"/><path opacity=".2" d="M131.063 425.925l-2.679 1.561v2.901l2.679-1.562v-2.9z"/><path opacity=".3" d="M136.422 422.801l-2.679 1.562v3.123l2.679-1.562v-3.123zM141.781 419.677l-2.679 1.562v3.124l2.679-1.562v-3.124z"/><path opacity=".2" d="M147.139 416.554l-2.679 1.562v3.123l2.679-1.562v-3.123z"/><path opacity=".3" d="M131.063 431.949l-2.679 1.561v3.124l2.679-1.562v-3.123z"/><path opacity=".2" d="M136.422 428.825l-2.679 1.562v3.123l2.679-1.561v-3.124z"/><path opacity=".3" d="M141.781 425.925l-2.679 1.561v2.901l2.679-1.562v-2.9zM147.139 422.801l-2.679 1.562v3.123l2.679-1.562v-3.123z"/></g><g opacity=".2"><g opacity=".2"><path opacity=".1" d="M540.999 430.164l-169.467 97.724v-44.846l169.467-97.724v44.846z" fill="#9FFFF8"/></g><g opacity=".2" fill="#9FFFF8"><g opacity=".2"><path opacity=".2" d="M380.91 503.568l-3.126 1.785v-10.932l3.126-1.785v10.932zM387.162 499.998l-3.126 1.785v-14.948l3.126-1.785v14.948zM393.19 496.429l-3.126 1.784v-19.41l3.126-1.562v19.188zM399.442 492.859l-3.126 1.785v-17.626l3.126-1.785v17.626zM405.471 489.289l-3.126 1.785v-14.726l3.126-1.785v14.726z"/><path opacity=".9" d="M411.722 485.719l-3.126 1.785v-12.271l3.126-1.785v12.271zM417.751 482.372l-3.126 1.562v-9.594l3.126-1.785v9.817z"/><path opacity=".7" d="M424.002 478.803l-3.126 1.784v-7.362l3.126-1.785v7.363zM430.031 475.233l-3.126 1.785v-5.801l3.126-1.785v5.801z"/><path opacity=".5" d="M436.282 471.663l-3.126 1.785v-7.809l3.126-1.785v7.809zM442.311 468.093l-3.125 1.785v-11.379l3.125-1.785v11.379z"/><path opacity=".3" d="M448.562 464.523l-3.125 1.785v-14.725l3.125-1.785v14.725zM454.592 460.953l-3.126 1.785v-11.825l3.126-1.785v11.825z"/><path opacity=".1" d="M460.619 457.384l-2.902 1.785v-8.479l2.902-1.785v8.479zM466.872 454.037l-3.126 1.785v-6.47l3.126-1.785v6.47z"/></g><g opacity=".2"><path opacity=".2" d="M531.622 401.828l2.903-1.785v14.726l-2.903 1.785v-14.726z"/><path opacity=".9" d="M525.37 407.852l3.126-1.785v12.272l-3.126 1.785v-12.272zM519.342 414.1l2.902-1.785v9.594l-2.902 1.784V414.1z"/><path opacity=".7" d="M513.09 419.9l3.126-1.784v7.362l-3.126 1.785V419.9zM507.062 425.032l2.902-1.785v5.801l-2.902 1.785v-5.801z"/><path opacity=".5" d="M500.81 426.594l3.125-1.785v7.809l-3.125 1.785v-7.809zM494.781 426.594l2.903-1.785v11.379l-2.903 1.785v-11.379z"/><path opacity=".3" d="M488.529 426.594l3.126-1.785v14.949l-3.126 1.561v-14.725zM482.501 433.064l2.903-1.785v11.825l-2.903 1.785v-11.825z"/><path opacity=".1" d="M476.249 439.981l3.126-1.785v8.478l-3.126 1.785v-8.478zM470.221 445.782l3.126-1.785v6.247l-3.126 1.785v-6.247z"/></g><path opacity=".2" d="M417.751 482.372l-3.126 1.562 3.126-1.562z"/></g><g opacity=".1" fill="#9FFFF8"><g opacity=".1"><path opacity=".1" d="M380.91 508.031l-3.126 1.784v-2.454l3.126-1.785v2.455zM393.19 500.891l-3.126 1.785v-2.454l3.126-1.785v2.454zM399.442 497.321l-3.126 1.785v-2.454l3.126-1.785v2.454zM405.471 493.974l-3.126 1.562v-2.231l3.126-1.785v2.454zM411.722 490.405l-3.126 1.784v-2.454l3.126-1.785v2.455zM424.002 483.265l-3.126 1.785v-2.454l3.126-1.785v2.454zM430.031 479.695l-3.126 1.785v-2.454l3.126-1.785v2.454zM436.282 476.125l-3.126 1.785v-2.454l3.126-1.785v2.454zM442.311 472.555l-3.125 1.785v-2.454l3.125-1.785v2.454zM448.562 468.986l-3.125 1.785v-2.455l3.125-1.562v2.232zM460.619 462.069l-2.902 1.785V461.4l2.902-1.785v2.454zM466.872 458.499l-3.126 1.785v-2.454l3.126-1.785v2.454zM472.9 454.929l-2.903 1.785v-2.454l2.903-1.785v2.454zM479.152 451.36l-3.126 1.784v-2.454l3.126-1.785v2.455zM485.18 447.79l-2.903 1.785v-2.455l2.903-1.785v2.455zM491.433 444.22l-3.126 1.785v-2.454l3.126-1.785v2.454zM497.46 440.873l-2.902 1.562v-2.231l2.902-1.785v2.454zM509.741 433.734l-2.903 1.784v-2.454l2.903-1.785v2.455zM515.993 430.164l-3.126 1.785v-2.455l3.126-1.785v2.455zM522.021 426.594l-2.903 1.785v-2.454l2.903-1.785v2.454zM528.272 423.024l-3.126 1.785v-2.454l3.126-1.785v2.454z"/></g><g opacity=".1"><path opacity=".1" d="M380.91 512.493l-3.126 1.785v-2.455l3.126-1.784v2.454zM387.162 508.923l-3.126 1.785v-2.454l3.126-1.785v2.454zM393.19 505.353l-3.126 1.785v-2.454l3.126-1.785v2.454zM399.442 501.783l-3.126 1.785v-2.454l3.126-1.785v2.454zM405.471 498.214l-3.126 1.784v-2.454l3.126-1.785v2.455zM411.722 494.644l-3.126 1.785v-2.455l3.126-1.785v2.455zM424.002 487.727l-3.126 1.562v-2.231l3.126-1.785v2.454zM436.282 480.588l-3.126 1.784v-2.454l3.126-1.785v2.455zM442.311 477.018l-3.125 1.785v-2.455l3.125-1.785v2.455zM448.562 473.448l-3.125 1.785v-2.454l3.125-1.785v2.454zM460.619 466.308l-2.902 1.785v-2.454l2.902-1.785v2.454zM466.872 462.738l-3.126 1.785v-2.454l3.126-1.562v2.231zM485.18 452.252l-2.903 1.785v-2.454l2.903-1.785v2.454zM491.433 448.682l-3.126 1.785v-2.454l3.126-1.785v2.454zM497.46 445.112l-2.902 1.785v-2.454l2.902-1.785v2.454zM509.741 437.973l-2.903 1.785v-2.455l2.903-1.561v2.231zM522.021 431.056l-2.903 1.785v-2.454l2.903-1.785v2.454zM528.272 427.486l-3.126 1.785v-2.454l3.126-1.785v2.454zM534.301 423.917l-2.903 1.784v-2.454l2.903-1.785v2.455z"/></g><g opacity=".1"><path opacity=".1" d="M380.91 516.732l-3.126 1.785v-2.454l3.126-1.785v2.454zM387.162 513.162l-3.126 1.785v-2.454l3.126-1.785v2.454zM411.722 499.106l-3.126 1.785v-2.454l3.126-1.785v2.454zM417.751 495.536l-3.126 1.785v-2.454l3.126-1.785v2.454zM424.002 491.966l-3.126 1.785v-2.454l3.126-1.785v2.454zM430.031 488.396l-3.126 1.785v-2.454l3.126-1.785v2.454zM436.282 484.827l-3.126 1.785v-2.455l3.126-1.561v2.231zM448.562 477.91l-3.125 1.785v-2.454l3.125-1.785v2.454zM454.592 474.34l-3.126 1.785v-2.454l3.126-1.785v2.454zM466.872 467.201l-3.126 1.785v-2.455l3.126-1.785v2.455zM472.9 463.631l-2.903 1.785v-2.455l2.903-1.784v2.454zM479.152 460.061l-3.126 1.785v-2.454l3.126-1.785v2.454zM485.18 456.714l-2.903 1.562v-2.231l2.903-1.785v2.454zM491.433 453.144l-3.126 1.785v-2.454l3.126-1.785v2.454zM503.713 446.005l-3.126 1.785v-2.455l3.126-1.784v2.454zM509.741 442.435l-2.903 1.785v-2.454l2.903-1.785v2.454zM515.993 438.865l-3.126 1.785v-2.454l3.126-1.785v2.454zM522.021 435.295l-2.903 1.785v-2.454l2.903-1.785v2.454zM528.272 431.726l-3.126 1.784v-2.454l3.126-1.562v2.232zM534.301 428.379l-2.903 1.785v-2.455l2.903-1.784v2.454z"/></g></g><path opacity=".2" d="M387.162 504.461l-3.126 1.785v-2.455l3.126-1.785v2.455zM417.75 486.835l-3.126 1.785v-2.455l3.126-1.785v2.455zM454.591 465.639l-3.126 1.785v-2.455l3.126-1.784v2.454zM503.712 437.303l-3.126 1.785v-2.454l3.126-1.785v2.454zM534.301 419.454l-2.903 1.785v-2.454l2.903-1.785v2.454zM417.75 491.074l-3.126 1.785v-2.455l3.126-1.784v2.454zM430.03 484.157l-3.126 1.785v-2.454l3.126-1.785v2.454zM454.591 469.878l-3.126 1.785v-2.454l3.126-1.785v2.454zM472.9 459.392l-2.903 1.785v-2.455l2.903-1.785v2.455zM479.151 455.822l-3.126 1.785v-2.454l3.126-1.785v2.454zM503.712 441.543l-3.126 1.784v-2.454l3.126-1.785v2.455zM515.992 434.626l-3.126 1.785v-2.454l3.126-1.785v2.454zM393.19 509.815l-3.126 1.562v-2.231l3.126-1.785v2.454zM399.442 506.246l-3.126 1.784v-2.454l3.126-1.785v2.455zM405.47 502.676l-3.126 1.785v-2.455l3.126-1.785v2.455zM442.31 481.48l-3.125 1.785v-2.454l3.125-1.785v2.454zM460.619 470.77l-2.902 1.785v-2.454l2.902-1.785v2.454zM497.46 449.575l-2.902 1.785v-2.455l2.902-1.785v2.455z" fill="#9FFFF8"/></g><defs><radialGradient id="ppaint0_radial" cx="0" cy="0" r="1" gradientUnits="userSpaceOnUse" gradientTransform="matrix(125.485 0 0 170.694 352.291 499.5)"><stop stop-color="#C0BFF6"/><stop offset="1" stop-color="#393091"/></radialGradient><radialGradient id="ppaint1_radial" cx="0" cy="0" r="1" gradientUnits="userSpaceOnUse" gradientTransform="rotate(16.745 -854.558 848.947) scale(53.3374 53.3049)"><stop stop-color="#C0BFF6"/><stop offset="1" stop-color="#393091"/></radialGradient><radialGradient id="ppaint3_radial" cx="0" cy="0" r="1" gradientUnits="userSpaceOnUse" gradientTransform="rotate(-95.11 229.591 51.919) scale(34.5914 34.6162)"><stop stop-color="#42E8E0"/><stop offset=".105" stop-color="#37B6BF"/><stop offset=".22" stop-color="#2C87A1"/><stop offset=".338" stop-color="#235F87"/><stop offset=".459" stop-color="#1C3F72"/><stop offset=".582" stop-color="#162561"/><stop offset=".711" stop-color="#121355"/><stop offset=".846" stop-color="#10084E"/><stop offset="1" stop-color="#0F054C"/></radialGradient><radialGradient id="ppaint4_radial" cx="0" cy="0" r="1" gradientUnits="userSpaceOnUse" gradientTransform="rotate(11.19 -548.21 1993.644) scale(163.245 163.135)"><stop stop-color="#C0BFF6"/><stop offset="1" stop-color="#393091"/></radialGradient><radialGradient id="ppaint6_radial" cx="0" cy="0" r="1" gradientUnits="userSpaceOnUse" gradientTransform="matrix(125.486 0 0 170.694 352.291 271.001)"><stop stop-color="#C0BFF6"/><stop offset="1" stop-color="#393091"/></radialGradient><radialGradient id="ppaint8_radial" cx="0" cy="0" r="1" gradientUnits="userSpaceOnUse" gradientTransform="matrix(97.1286 0 0 97.0577 307.273 271.708)"><stop stop-color="#42E8E0"/><stop offset=".105" stop-color="#37B6BF"/><stop offset=".22" stop-color="#2C87A1"/><stop offset=".338" stop-color="#235F87"/><stop offset=".459" stop-color="#1C3F72"/><stop offset=".582" stop-color="#162561"/><stop offset=".711" stop-color="#121355"/><stop offset=".846" stop-color="#10084E"/><stop offset="1" stop-color="#0F054C"/></radialGradient><radialGradient id="ppaint9_radial" cx="0" cy="0" r="1" gradientUnits="userSpaceOnUse" gradientTransform="matrix(125.87 0 0 125.778 358.58 164.436)"><stop stop-color="#C0BFF6"/><stop offset="1" stop-color="#393091"/></radialGradient><radialGradient id="ppaint11_radial" cx="0" cy="0" r="1" gradientUnits="userSpaceOnUse" gradientTransform="matrix(61.8245 0 0 61.7794 288.914 182.323)"><stop stop-color="#42E8E0"/><stop offset=".059" stop-color="#3CCBCD"/><stop offset=".178" stop-color="#3098AC"/><stop offset=".3" stop-color="#266B8F"/><stop offset=".421" stop-color="#1E4777"/><stop offset=".541" stop-color="#172A65"/><stop offset=".662" stop-color="#131657"/><stop offset=".782" stop-color="#100A50"/><stop offset=".902" stop-color="#0F064D"/><stop offset="1" stop-color="#0F054C"/></radialGradient><radialGradient id="ppaint12_radial" cx="0" cy="0" r="1" gradientUnits="userSpaceOnUse" gradientTransform="rotate(11.19 -1258.313 2216.584) scale(59.0005 58.9606)"><stop stop-color="#C0BFF6"/><stop offset="1" stop-color="#393091"/></radialGradient><radialGradient id="ppaint14_radial" cx="0" cy="0" r="1" gradientUnits="userSpaceOnUse" gradientTransform="matrix(52.6929 0 0 52.6545 398.856 308.069)"><stop stop-color="#42E8E0"/><stop offset=".105" stop-color="#37B6BF"/><stop offset=".22" stop-color="#2C87A1"/><stop offset=".338" stop-color="#235F87"/><stop offset=".459" stop-color="#1C3F72"/><stop offset=".582" stop-color="#162561"/><stop offset=".711" stop-color="#121355"/><stop offset=".846" stop-color="#10084E"/><stop offset="1" stop-color="#0F054C"/></radialGradient><radialGradient id="ppaint15_radial" cx="0" cy="0" r="1" gradientUnits="userSpaceOnUse" gradientTransform="matrix(49.6675 0 0 63.7612 356.435 141.707)"><stop stop-color="#2B237C"/><stop offset=".31" stop-color="#251C72"/><stop offset="1" stop-color="#0F054C"/></radialGradient><radialGradient id="ppaint19_radial" cx="0" cy="0" r="1" gradientUnits="userSpaceOnUse" gradientTransform="rotate(16.745 -1053.306 1552.527) scale(53.3371 53.3047)"><stop stop-color="#C0BFF6"/><stop offset="1" stop-color="#393091"/></radialGradient><radialGradient id="ppaint21_radial" cx="0" cy="0" r="1" gradientUnits="userSpaceOnUse" gradientTransform="rotate(-95.11 366.563 6.624) scale(34.5912 34.616)"><stop stop-color="#42E8E0"/><stop offset=".105" stop-color="#37B6BF"/><stop offset=".22" stop-color="#2C87A1"/><stop offset=".338" stop-color="#235F87"/><stop offset=".459" stop-color="#1C3F72"/><stop offset=".582" stop-color="#162561"/><stop offset=".711" stop-color="#121355"/><stop offset=".846" stop-color="#10084E"/><stop offset="1" stop-color="#0F054C"/></radialGradient><linearGradient id="ppaint2_linear" x1="174.294" y1="308.147" x2="214.292" y2="284.624" gradientUnits="userSpaceOnUse"><stop stop-color="#2FD3C7"/><stop offset=".088" stop-color="#31B6BD"/><stop offset=".229" stop-color="#338DB0"/><stop offset=".373" stop-color="#356BA5"/><stop offset=".521" stop-color="#37519C"/><stop offset=".671" stop-color="#383F96"/><stop offset=".828" stop-color="#393492"/><stop offset="1" stop-color="#393091"/></linearGradient><linearGradient id="ppaint5_linear" x1="225.999" y1="258.405" x2="256.354" y2="210.714" gradientUnits="userSpaceOnUse"><stop stop-color="#706EC4"/><stop offset=".022" stop-color="#6D6BC2"/><stop offset=".251" stop-color="#5651AC"/><stop offset=".486" stop-color="#463F9D"/><stop offset=".731" stop-color="#3C3494"/><stop offset="1" stop-color="#393091"/></linearGradient><linearGradient id="ppaint7_linear" x1="309.208" y1="385.214" x2="309.208" y2="214.59" gradientUnits="userSpaceOnUse"><stop stop-color="#2FD3C7"/><stop offset=".088" stop-color="#31B6BD"/><stop offset=".229" stop-color="#338DB0"/><stop offset=".373" stop-color="#356BA5"/><stop offset=".521" stop-color="#37519C"/><stop offset=".671" stop-color="#383F96"/><stop offset=".828" stop-color="#393492"/><stop offset="1" stop-color="#393091"/></linearGradient><linearGradient id="ppaint10_linear" x1="301.739" y1="249.163" x2="322.44" y2="101.755" gradientUnits="userSpaceOnUse"><stop stop-color="#2FD3C7"/><stop offset=".088" stop-color="#31B6BD"/><stop offset=".229" stop-color="#338DB0"/><stop offset=".373" stop-color="#356BA5"/><stop offset=".521" stop-color="#37519C"/><stop offset=".671" stop-color="#383F96"/><stop offset=".828" stop-color="#393492"/><stop offset="1" stop-color="#393091"/></linearGradient><linearGradient id="ppaint13_linear" x1="366.586" y1="321.375" x2="412.321" y2="288.12" gradientUnits="userSpaceOnUse"><stop stop-color="#2FD3C7"/><stop offset=".088" stop-color="#31B6BD"/><stop offset=".229" stop-color="#338DB0"/><stop offset=".373" stop-color="#356BA5"/><stop offset=".521" stop-color="#37519C"/><stop offset=".671" stop-color="#383F96"/><stop offset=".828" stop-color="#393492"/><stop offset="1" stop-color="#393091"/></linearGradient><linearGradient id="ppaint16_linear" x1="395.495" y1="208.575" x2="324.884" y2="230.063" gradientUnits="userSpaceOnUse"><stop stop-color="#BCBEFF"/><stop offset=".151" stop-color="#A3A7F5"/><stop offset=".387" stop-color="#8289E8"/><stop offset=".612" stop-color="#6A73DF"/><stop offset=".822" stop-color="#5C66D9"/><stop offset="1" stop-color="#5761D7"/></linearGradient><linearGradient id="ppaint17_linear" x1="383.271" y1="213.053" x2="286.503" y2="224.59" gradientUnits="userSpaceOnUse"><stop stop-color="#BCBEFF"/><stop offset=".151" stop-color="#A3A7F5"/><stop offset=".387" stop-color="#8289E8"/><stop offset=".612" stop-color="#6A73DF"/><stop offset=".822" stop-color="#5C66D9"/><stop offset="1" stop-color="#5761D7"/></linearGradient><linearGradient id="ppaint18_linear" x1="368.756" y1="241.481" x2="419.124" y2="158.112" gradientUnits="userSpaceOnUse"><stop stop-color="#42E8E0"/><stop offset=".119" stop-color="#42E2DE"/><stop offset=".27" stop-color="#41D3D7"/><stop offset=".439" stop-color="#40B9CC"/><stop offset=".62" stop-color="#3E94BC"/><stop offset=".81" stop-color="#3C66A8"/><stop offset="1" stop-color="#393091"/></linearGradient><linearGradient id="ppaint20_linear" x1="368.58" y1="395.246" x2="408.578" y2="371.722" gradientUnits="userSpaceOnUse"><stop stop-color="#2FD3C7"/><stop offset=".088" stop-color="#31B6BD"/><stop offset=".229" stop-color="#338DB0"/><stop offset=".373" stop-color="#356BA5"/><stop offset=".521" stop-color="#37519C"/><stop offset=".671" stop-color="#383F96"/><stop offset=".828" stop-color="#393492"/><stop offset="1" stop-color="#393091"/></linearGradient></defs></svg>