<?xml version="1.0" encoding="utf-8"?><svg width="538" height="411" fill="none" xmlns="http://www.w3.org/2000/svg" viewBox="0 0 538 411"><g clip-path="url(#rclip0)"><path d="M219.39 185.728c-4.271-11.55-6.377-30.874-6.896-39.092l8.453-4.664 9.343-3.554 14.237-4.442 14.682-2.887 23.803-1.334 14.682 1.334 14.015 3.109 10.678 2.666 10.678 3.998 14.683 7.774-1.558 9.55-2.447 15.327-4.894 15.991-10.233 22.211-13.57 18.658-16.906 16.881-17.575 13.104-19.576-13.772-11.567-11.105-10.456-12.216c-4.745-7.7-15.305-25.987-19.576-37.537z" fill="#6D7693"/><path d="M207.376 280.197c77.318 0 139.997-62.581 139.997-139.78 0-77.198-62.679-139.78-139.997-139.78C130.058.637 67.38 63.22 67.38 140.417c0 77.199 62.678 139.78 139.996 139.78z" stroke="#6D7693" stroke-width="2"/><path d="M352.42 280.197c77.317 0 139.996-62.581 139.996-139.78 0-77.198-62.679-139.78-139.996-139.78-77.318 0-139.997 62.582-139.997 139.78 0 77.199 62.679 139.78 139.997 139.78z" stroke="#6D7693" stroke-width="2"/><path d="M278.119 409.467c77.318 0 139.997-62.582 139.997-139.781 0-77.198-62.679-139.779-139.997-139.779-77.318 0-139.997 62.581-139.997 139.779 0 77.199 62.679 139.781 139.997 139.781z" stroke="#6D7693" stroke-width="2"/><path d="M170.894 96.883H.492v68.855h170.402V96.883zM517.27 97.048H391.503v68.44H517.27v-68.44z" fill="#1B2546"/><path d="M263.866 171.939v23.306h11.671c4.393 0 7.9-2.389 7.9-6.939 0-3.241-1.836-5.009-4.262-5.696 1.901-.851 3.18-2.553 3.18-4.811 0-4.125-3.343-5.86-7.442-5.86h-11.047zm4.983 3.961h4.655c1.968 0 3.869.393 3.869 2.749 0 2.357-2 2.718-3.869 2.718h-4.655V175.9zm0 8.936h4.885c2.295 0 4.589.36 4.589 3.175 0 2.749-2.131 3.175-4.327 3.175h-5.147v-6.35zm27.049-12.897h-5.146v23.306h5.146v-23.306zM478.977 123.543h-12.231v16.95h12.374v-2.547h-9.417v-5h8.607v-2.404h-8.607v-4.499h9.274v-2.5zm17.736 0h-13.804v2.572h5.412v14.378h2.981v-14.378h5.411v-2.572zm16.303 14.379h-8.631v-14.379h-3.004v16.95h11.635v-2.571zM5.253 119.362c0-1.934.415-3.491 1.245-4.671.83-1.187 1.997-1.781 3.5-1.781.659 0 1.245.135 1.761.403.524.261.976.639 1.358 1.132v-6.665h2.726v17.474h-2.288l-.27-1.501c-.389.568-.856 1.001-1.402 1.299-.546.291-1.182.437-1.907.437-1.488 0-2.648-.541-3.478-1.624-.83-1.083-1.245-2.505-1.245-4.268v-.235zm2.726.235c0 1.12.213 2.013.64 2.677.433.665 1.117.997 2.052.997.576 0 1.062-.123 1.459-.37.404-.246.733-.597.987-1.052v-5.288a2.825 2.825 0 00-.987-1.041c-.404-.254-.883-.381-1.436-.381-.928 0-1.612.392-2.053 1.177-.441.776-.662 1.792-.662 3.046v.235zm16.572 5.892c-1.72 0-3.093-.56-4.117-1.681-1.018-1.127-1.526-2.572-1.526-4.334v-.448c0-1.762.505-3.223 1.514-4.379 1.017-1.165 2.289-1.745 3.814-1.737 1.638 0 2.891.497 3.759 1.49.875.986 1.312 2.311 1.312 3.976v1.602h-7.572l-.023.056c.045.963.326 1.751.842 2.364.523.612 1.245.918 2.165.918.733 0 1.361-.09 1.885-.269a6.139 6.139 0 001.514-.773l.875 1.781c-.456.403-1.062.744-1.817 1.02-.756.276-1.63.414-2.625.414zm-.314-10.395c-.673 0-1.227.27-1.66.807-.435.53-.704 1.206-.809 2.027l.023.057h4.813v-.281c0-.769-.199-1.396-.595-1.882-.389-.485-.98-.728-1.773-.728zm12.858 8.222c.666 0 1.227-.194 1.683-.583.456-.396.684-.888.684-1.478h2.468l.022.067c.038 1.135-.426 2.114-1.39 2.935-.958.822-2.113 1.232-3.467 1.232-1.788 0-3.16-.575-4.117-1.725-.95-1.15-1.425-2.606-1.425-4.369v-.392c0-1.754.475-3.206 1.425-4.356.957-1.158 2.33-1.737 4.117-1.737 1.458 0 2.64.425 3.545 1.277.912.844 1.354 1.919 1.324 3.226l-.023.067h-2.479c0-.664-.22-1.228-.662-1.691-.434-.464-1.002-.695-1.705-.695-1.025 0-1.75.374-2.176 1.12-.427.74-.64 1.669-.64 2.789v.392c0 1.143.213 2.084.64 2.823.426.732 1.151 1.098 2.176 1.098zm10.536 1.938h-2.726v-12.12h2.726v12.12zm0-15.088h-2.726v-2.386h2.726v2.386zm10.458 11.795c0-.419-.18-.766-.539-1.042-.359-.276-1.028-.519-2.008-.728-1.45-.306-2.55-.739-3.298-1.299-.74-.568-1.11-1.338-1.11-2.308 0-1.016.43-1.882 1.29-2.599.86-.716 1.993-1.075 3.399-1.075 1.48 0 2.655.366 3.522 1.098.875.724 1.294 1.624 1.257 2.7l-.023.066h-2.614c0-.499-.19-.93-.572-1.288-.381-.358-.905-.537-1.57-.537-.658 0-1.16.149-1.503.448-.345.291-.517.649-.517 1.075 0 .426.161.765.483 1.019.329.247.99.467 1.986.661 1.525.314 2.654.758 3.388 1.333.74.568 1.11 1.344 1.11 2.33 0 1.09-.452 1.975-1.357 2.655-.898.679-2.083 1.019-3.556 1.019-1.579 0-2.824-.404-3.736-1.209-.913-.807-1.346-1.733-1.302-2.779l.023-.067h2.535c.03.702.284 1.214.763 1.535.479.32 1.062.481 1.75.481.703 0 1.245-.134 1.627-.403.381-.269.572-.631.572-1.086zm8.618 3.293H63.98v-12.12h2.726v12.12zm0-15.088H63.98v-2.386h2.726v2.386zm3.132 8.916c0-1.8.493-3.279 1.48-4.435 1.003-1.158 2.36-1.737 4.073-1.737 1.743 0 3.108.579 4.095 1.737.994 1.15 1.492 2.628 1.492 4.435v.235c0 1.822-.498 3.308-1.492 4.458-.987 1.143-2.345 1.714-4.073 1.714-1.735 0-3.1-.575-4.094-1.725-.987-1.15-1.481-2.632-1.481-4.447v-.235zm2.726.235c0 1.18.232 2.143.695 2.89.457.739 1.175 1.109 2.154 1.109.95 0 1.66-.37 2.132-1.109.479-.747.718-1.71.718-2.89v-.235c0-1.158-.24-2.11-.718-2.856-.471-.754-1.19-1.132-2.154-1.132-.95 0-1.66.378-2.132 1.132-.463.754-.695 1.706-.695 2.856v.235zm13.834-6.183l.157 1.748a4.299 4.299 0 011.493-1.445c.605-.351 1.286-.527 2.041-.527 1.264 0 2.248.384 2.95 1.154.711.762 1.066 1.953 1.066 3.573v7.617H91.38v-7.594c0-.911-.19-1.557-.572-1.938-.374-.389-.946-.583-1.716-.583-.531 0-1.006.12-1.425.359a2.887 2.887 0 00-1.032.963v8.793h-2.726v-12.12h2.49zm16.37 6.284h-5.89v-2.195h5.89v2.195zm-94.52 21.434l.145 1.58a4.106 4.106 0 011.492-1.333c.598-.314 1.29-.47 2.075-.47.793 0 1.474.179 2.042.538.569.358.995.895 1.28 1.612a4.249 4.249 0 011.48-1.579c.613-.381 1.331-.571 2.154-.571 1.219 0 2.18.418 2.883 1.255.71.828 1.066 2.09 1.066 3.786v7.302H20.14v-7.314c0-1.03-.18-1.755-.539-2.173-.351-.418-.882-.627-1.593-.627-.583 0-1.077.156-1.48.47-.404.313-.696.736-.876 1.266 0 .112.004.209.012.291.007.082.01.161.01.235v7.852H12.95v-7.314c0-.993-.184-1.706-.55-2.139-.359-.441-.89-.661-1.593-.661-.553 0-1.025.108-1.414.325a2.325 2.325 0 00-.908.895v8.894H5.758v-12.12h2.49zm25.377 12.12c-.097-.306-.18-.605-.246-.896a7.03 7.03 0 01-.124-.873 4.866 4.866 0 01-1.48 1.434c-.607.38-1.287.57-2.043.57-1.263 0-2.236-.325-2.916-.974-.673-.65-1.01-1.542-1.01-2.677 0-1.173.464-2.084 1.391-2.733.928-.657 2.233-.986 3.915-.986h2.12v-1.064c0-.635-.186-1.132-.56-1.49-.374-.358-.909-.537-1.605-.537-.62 0-1.114.149-1.48.448-.367.298-.55.684-.55 1.154h-2.625l-.011-.068c-.053-.956.374-1.803 1.279-2.543.912-.738 2.097-1.108 3.556-1.108 1.413 0 2.554.358 3.421 1.075.868.717 1.302 1.747 1.302 3.091v5.388c0 .501.033.983.1 1.445.068.455.176.903.326 1.344h-2.76zm-3.343-1.949c.688 0 1.305-.172 1.851-.515.554-.343.92-.735 1.1-1.176v-1.792h-2.166c-.792 0-1.413.198-1.862.594-.448.388-.673.847-.673 1.377 0 .463.15.833.449 1.109.306.268.74.403 1.301.403zm13.06-3.349h-1.222v5.298h-2.715v-17.473h2.715v9.991h1.133l3.062-4.638h3.209l-4.005 5.512 4.6 6.608h-3.164l-3.612-5.298zm11.558 5.298h-2.726v-12.12H54.9v12.12zm0-15.087h-2.726v-2.386H54.9v2.386zm6.105 2.967l.157 1.749a4.302 4.302 0 011.492-1.446c.605-.35 1.286-.526 2.041-.526 1.264 0 2.248.384 2.95 1.153.711.762 1.067 1.953 1.067 3.573v7.617h-2.726v-7.594c0-.911-.191-1.557-.573-1.937-.374-.389-.946-.583-1.716-.583-.53 0-1.006.119-1.425.358a2.889 2.889 0 00-1.032.964v8.792h-2.726v-12.12h2.49zm10.626 6.228c0-1.926.422-3.483 1.267-4.671.845-1.187 2.02-1.78 3.523-1.78.725 0 1.361.156 1.907.47.553.307 1.02.75 1.402 1.333l.27-1.58h2.266v12.12c0 1.561-.483 2.767-1.448 3.618-.964.851-2.333 1.277-4.105 1.277-.591 0-1.23-.086-1.919-.257a8.706 8.706 0 01-1.85-.662l.583-2.139c.448.231.942.411 1.48.538a7.035 7.035 0 001.683.201c.987 0 1.709-.212 2.165-.638.456-.418.685-1.064.685-1.938v-1.243a3.86 3.86 0 01-1.358 1.109c-.516.246-1.11.369-1.784.369-1.488 0-2.655-.541-3.5-1.624-.845-1.083-1.267-2.505-1.267-4.267v-.236zm2.726.236c0 1.112.22 2.005.661 2.677.45.664 1.141.997 2.076.997.583 0 1.073-.12 1.47-.359.403-.246.729-.597.976-1.053v-5.309a2.846 2.846 0 00-.988-1.03c-.396-.254-.875-.381-1.436-.381-.934 0-1.63.392-2.086 1.176-.449.784-.673 1.799-.673 3.046v.236zm21.038-9.409v2.945h2.177v2.017h-2.176v6.698c0 .5.108.859.325 1.076.217.208.504.313.863.313.15 0 .296-.011.438-.033.142-.031.276-.068.404-.113l.292 1.994a2.993 2.993 0 01-.83.291 4.385 4.385 0 01-.999.112c-1.002 0-1.787-.29-2.356-.873-.568-.59-.852-1.512-.852-2.767v-6.698H90.83v-2.017h1.85v-2.945h2.716zm4.67 8.893c0-1.799.493-3.278 1.48-4.435 1.002-1.157 2.36-1.736 4.072-1.736 1.744 0 3.108.579 4.096 1.736.994 1.15 1.491 2.629 1.491 4.435v.236c0 1.821-.497 3.308-1.491 4.457-.988 1.144-2.346 1.714-4.073 1.714-1.735 0-3.1-.574-4.095-1.724-.987-1.151-1.48-2.632-1.48-4.447v-.236zm2.725.236c0 1.18.232 2.142.696 2.89.456.739 1.174 1.109 2.154 1.109.95 0 1.66-.37 2.131-1.109.479-.748.718-1.71.718-2.89v-.236c0-1.157-.239-2.109-.718-2.856-.471-.754-1.189-1.131-2.154-1.131-.949 0-1.66.377-2.131 1.131-.464.755-.696 1.707-.696 2.856v.236zm10.862-.236c0-1.799.494-3.278 1.481-4.435 1.002-1.157 2.36-1.736 4.072-1.736 1.742 0 3.108.579 4.095 1.736.994 1.15 1.492 2.629 1.492 4.435v.236c0 1.821-.498 3.308-1.492 4.457-.987 1.144-2.345 1.714-4.073 1.714-1.734 0-3.1-.574-4.094-1.724-.987-1.151-1.481-2.632-1.481-4.447v-.236zm2.726.236c0 1.18.232 2.142.695 2.89.457.739 1.175 1.109 2.154 1.109.951 0 1.661-.37 2.132-1.109.479-.748.718-1.71.718-2.89v-.236c0-1.157-.239-2.109-.718-2.856-.471-.754-1.189-1.131-2.154-1.131-.949 0-1.66.377-2.132 1.131-.463.755-.695 1.707-.695 2.856v.236zm14.273 5.936h-2.727v-17.473h2.727v17.473zm10.457-3.293c0-.418-.18-.765-.539-1.042-.359-.276-1.028-.519-2.007-.728-1.452-.306-2.551-.739-3.299-1.299-.74-.568-1.111-1.337-1.111-2.307 0-1.016.43-1.882 1.291-2.599.859-.717 1.993-1.075 3.399-1.075 1.48 0 2.655.366 3.522 1.098.875.724 1.294 1.624 1.257 2.699l-.023.067h-2.613c0-.5-.191-.93-.573-1.288-.381-.359-.904-.538-1.57-.538-.658 0-1.159.15-1.504.449-.343.29-.516.649-.516 1.075 0 .425.161.765.483 1.019.329.247.991.466 1.985.66 1.526.315 2.656.758 3.388 1.334.741.568 1.111 1.344 1.111 2.33 0 1.09-.452 1.975-1.357 2.654-.898.68-2.083 1.019-3.556 1.019-1.579 0-2.824-.403-3.737-1.209-.912-.807-1.346-1.733-1.301-2.778l.022-.067h2.536c.03.701.285 1.214.763 1.535.479.32 1.062.48 1.75.48.703 0 1.246-.133 1.627-.402.382-.269.572-.632.572-1.087zM246.586 304.069c0 1.763-.416 3.185-1.246 4.268-.83 1.083-1.985 1.624-3.466 1.624-.688 0-1.298-.123-1.829-.369a3.766 3.766 0 01-1.369-1.087v5.88h-2.726v-16.779h2.3l.269 1.524c.389-.568.857-1.001 1.403-1.299.553-.3 1.193-.449 1.918-.449 1.496 0 2.659.594 3.489 1.781.837 1.18 1.257 2.737 1.257 4.671v.235zm-2.715-.235c0-1.24-.236-2.251-.707-3.036-.464-.791-1.159-1.187-2.087-1.187-.568 0-1.051.124-1.447.37a2.644 2.644 0 00-.954 1.009v5.476c.24.426.558.755.954.986.396.224.886.336 1.469.336.928 0 1.62-.34 2.076-1.02.464-.686.696-1.586.696-2.699v-.235zm10.873 6.127c-1.721 0-3.093-.56-4.118-1.68-1.017-1.127-1.526-2.573-1.526-4.335v-.447c0-1.763.505-3.223 1.515-4.38 1.018-1.165 2.289-1.744 3.815-1.737 1.637 0 2.89.497 3.757 1.49.875.986 1.313 2.312 1.313 3.977v1.602h-7.573l-.022.055c.045.963.326 1.751.842 2.364.523.612 1.244.918 2.164.918.734 0 1.362-.09 1.885-.268a6.187 6.187 0 001.515-.774l.875 1.781c-.456.403-1.062.744-1.817 1.02-.756.276-1.631.414-2.625.414zm-.314-10.395c-.674 0-1.228.27-1.661.807-.434.531-.703 1.206-.808 2.027l.023.057h4.812v-.28c0-.77-.198-1.397-.594-1.882-.389-.486-.98-.729-1.772-.729zm10.311-1.96l.157 1.748a4.307 4.307 0 011.492-1.445c.606-.351 1.287-.527 2.042-.527 1.264 0 2.248.385 2.95 1.154.711.762 1.066 1.953 1.066 3.573v7.617h-2.725v-7.594c0-.911-.192-1.557-.573-1.938-.374-.389-.946-.583-1.716-.583-.532 0-1.006.12-1.425.359a2.894 2.894 0 00-1.033.963v8.793h-2.725v-12.12h2.49zm14.508-2.946v2.946h2.176v2.017h-2.176v6.698c0 .5.108.858.325 1.075.216.209.505.314.864.314.15 0 .295-.012.437-.034a3.13 3.13 0 00.404-.112l.292 1.993a2.96 2.96 0 01-.83.292 4.387 4.387 0 01-.998.112c-1.003 0-1.788-.291-2.356-.874-.569-.59-.853-1.512-.853-2.766v-6.698h-1.851v-2.017h1.851v-2.946h2.715zm12.477 15.066c-.098-.306-.18-.605-.247-.896a7.097 7.097 0 01-.124-.874 4.866 4.866 0 01-1.48 1.434 3.757 3.757 0 01-2.042.571c-1.264 0-2.237-.325-2.917-.974-.673-.65-1.009-1.543-1.009-2.677 0-1.173.463-2.084 1.391-2.733.927-.658 2.232-.986 3.915-.986h2.12v-1.064c0-.635-.187-1.132-.56-1.49-.375-.359-.91-.538-1.605-.538-.621 0-1.114.15-1.481.449a1.417 1.417 0 00-.549 1.153h-2.625l-.012-.067c-.052-.956.374-1.803 1.279-2.543.913-.739 2.098-1.109 3.557-1.109 1.413 0 2.554.359 3.421 1.076.867.716 1.301 1.747 1.301 3.091v5.388c0 .5.033.982.101 1.445.067.455.176.903.325 1.344h-2.759zm-3.344-1.949a3.41 3.41 0 001.852-.515c.553-.344.92-.735 1.099-1.176v-1.792h-2.165c-.793 0-1.414.198-1.863.593-.448.388-.673.847-.673 1.378 0 .462.151.832.449 1.108.307.269.741.404 1.301.404zm11.581-10.171l.157 1.748a4.295 4.295 0 011.491-1.445c.606-.351 1.287-.527 2.042-.527 1.264 0 2.248.385 2.95 1.154.711.762 1.066 1.953 1.066 3.573v7.617h-2.726v-7.594c0-.911-.191-1.557-.572-1.938-.374-.389-.946-.583-1.717-.583-.531 0-1.006.12-1.424.359a2.883 2.883 0 00-1.032.963v8.793h-2.726v-12.12h2.491zm10.614 5.948c0-1.8.493-3.278 1.481-4.435 1.002-1.157 2.36-1.737 4.072-1.737 1.743 0 3.108.58 4.095 1.737.994 1.15 1.492 2.629 1.492 4.435v.235c0 1.822-.498 3.308-1.492 4.458-.987 1.143-2.345 1.714-4.073 1.714-1.734 0-3.099-.575-4.094-1.724-.988-1.151-1.481-2.633-1.481-4.448v-.235zm2.726.235c0 1.181.232 2.143.695 2.891.457.738 1.175 1.108 2.154 1.108.95 0 1.66-.37 2.132-1.108.479-.748.718-1.71.718-2.891v-.235c0-1.157-.239-2.109-.718-2.856-.472-.754-1.19-1.132-2.154-1.132-.95 0-1.661.378-2.132 1.132-.463.754-.695 1.706-.695 2.856v.235zm-124.844 21.536l.146 1.58a4.1 4.1 0 011.492-1.334c.598-.313 1.29-.47 2.075-.47.793 0 1.473.18 2.042.538.569.358.995.896 1.279 1.613a4.248 4.248 0 011.481-1.58c.612-.381 1.33-.571 2.154-.571 1.218 0 2.179.419 2.882 1.255.711.829 1.067 2.09 1.067 3.786v7.302h-2.727v-7.314c0-1.03-.179-1.754-.538-2.173-.352-.418-.882-.627-1.593-.627-.584 0-1.077.157-1.481.47-.404.314-.696.736-.875 1.267 0 .111.004.208.011.29.008.082.011.161.011.235v7.852h-2.726v-7.314c0-.993-.183-1.706-.549-2.139-.359-.44-.891-.661-1.593-.661-.554 0-1.025.108-1.413.325a2.329 2.329 0 00-.91.895v8.894h-2.725v-12.119h2.49zm25.636 10.35c-.382.641-.863 1.138-1.447 1.489-.583.344-1.256.515-2.019.515-1.302 0-2.319-.413-3.052-1.243-.733-.829-1.099-2.116-1.099-3.863v-7.248h2.715v7.27c0 1.059.172 1.803.516 2.228.343.426.863.639 1.559.639.658 0 1.208-.116 1.649-.347.449-.239.8-.583 1.055-1.03v-8.76h2.726v12.119h-2.379l-.224-1.769zm8.932 1.769h-2.726v-17.473h2.726v17.473zm7.025-15.065v2.946h2.176v2.016h-2.176v6.699c0 .5.108.858.326 1.075.216.208.504.313.863.313.15 0 .295-.011.438-.033.141-.031.276-.068.404-.113l.291 1.994a3.003 3.003 0 01-.83.292 4.44 4.44 0 01-.999.111c-1.002 0-1.787-.29-2.356-.873-.567-.59-.852-1.512-.852-2.766v-6.699h-1.851v-2.016h1.851v-2.946h2.715zm8.08 15.065h-2.727v-12.119h2.727v12.119zm0-15.087h-2.727v-2.386h2.727v2.386zm3.131 9.196c0-1.934.416-3.491 1.246-4.671.83-1.188 1.996-1.781 3.499-1.781.659 0 1.246.135 1.762.403.523.261.976.639 1.357 1.132v-6.665h2.727v17.473h-2.289l-.269-1.5c-.389.567-.857 1-1.403 1.299-.545.291-1.181.436-1.907.436-1.488 0-2.647-.541-3.477-1.623-.83-1.083-1.246-2.506-1.246-4.268v-.235zm2.726.235c0 1.12.214 2.013.64 2.677.434.664 1.118.997 2.053.997.576 0 1.062-.123 1.458-.37.404-.247.734-.597.987-1.052v-5.288a2.813 2.813 0 00-.987-1.041c-.404-.254-.882-.381-1.436-.381-.927 0-1.612.392-2.053 1.176-.44.777-.662 1.793-.662 3.047v.235zm14.273 5.656h-2.727v-12.119h2.727v12.119zm0-15.087h-2.727v-2.386h2.727v2.386zm6.126 2.968l.147 1.58a4.105 4.105 0 011.491-1.334c.599-.313 1.291-.47 2.076-.47.792 0 1.473.18 2.042.538.568.358.994.896 1.279 1.613a4.248 4.248 0 011.481-1.58c.613-.381 1.331-.571 2.154-.571 1.218 0 2.179.419 2.883 1.255.71.829 1.065 2.09 1.065 3.786v7.302h-2.726v-7.314c0-1.03-.179-1.754-.538-2.173-.351-.418-.883-.627-1.593-.627-.584 0-1.077.157-1.481.47-.404.314-.696.736-.875 1.267 0 .111.004.208.012.29.006.082.01.161.01.235v7.852h-2.725v-7.314c0-.993-.184-1.706-.551-2.139-.359-.44-.889-.661-1.593-.661-.553 0-1.024.108-1.413.325a2.317 2.317 0 00-.908.895v8.894h-2.726v-12.119h2.489zm23.281 12.354c-1.72 0-3.092-.56-4.117-1.68-1.017-1.127-1.525-2.572-1.525-4.334v-.448c0-1.762.504-3.223 1.514-4.379 1.017-1.166 2.288-1.745 3.814-1.737 1.638 0 2.891.497 3.758 1.49.875.985 1.313 2.311 1.313 3.976v1.602h-7.572l-.023.056c.045.963.325 1.751.841 2.363.524.613 1.245.919 2.165.919.734 0 1.362-.09 1.885-.269a6.183 6.183 0 001.515-.773l.875 1.781c-.457.403-1.063.743-1.818 1.02-.755.276-1.63.413-2.625.413zm-.314-10.394c-.673 0-1.226.269-1.66.807-.434.53-.704 1.206-.808 2.027l.022.056h4.813v-.28c0-.769-.198-1.396-.594-1.882-.39-.485-.98-.728-1.773-.728zm10.312-1.96l.157 1.748a4.29 4.29 0 011.492-1.445c.605-.351 1.286-.527 2.041-.527 1.265 0 2.248.384 2.951 1.154.711.761 1.066 1.952 1.066 3.572v7.617h-2.726v-7.594c0-.911-.191-1.557-.573-1.937-.373-.389-.946-.583-1.716-.583a2.83 2.83 0 00-1.425.358 2.902 2.902 0 00-1.032.964v8.792h-2.726v-12.119h2.491zm17.941 8.827c0-.419-.18-.766-.539-1.042-.359-.277-1.028-.519-2.009-.729-1.45-.305-2.55-.738-3.298-1.299-.74-.567-1.11-1.337-1.11-2.307 0-1.016.43-1.882 1.29-2.599.86-.717 1.993-1.075 3.399-1.075 1.481 0 2.655.366 3.523 1.098.875.724 1.294 1.624 1.257 2.699l-.023.067h-2.614c0-.5-.191-.93-.572-1.288-.381-.359-.905-.537-1.571-.537-.658 0-1.16.149-1.503.448-.344.291-.516.649-.516 1.075 0 .426.161.765.482 1.019.33.247.991.467 1.986.661 1.526.314 2.655.758 3.388 1.333.741.568 1.11 1.344 1.11 2.33 0 1.09-.452 1.975-1.357 2.655-.897.679-2.082 1.018-3.556 1.018-1.578 0-2.824-.403-3.736-1.209-.912-.806-1.346-1.733-1.301-2.778l.022-.067h2.536c.03.701.284 1.214.763 1.535.478.32 1.061.481 1.75.481.702 0 1.244-.134 1.626-.403.381-.269.573-.632.573-1.086zm8.617 3.292h-2.726v-12.119h2.726v12.119zm0-15.087h-2.726v-2.386h2.726v2.386zm3.132 8.916c0-1.8.493-3.279 1.481-4.435 1.003-1.158 2.359-1.737 4.073-1.737 1.742 0 3.107.579 4.094 1.737.995 1.149 1.492 2.628 1.492 4.435v.235c0 1.822-.497 3.308-1.492 4.458-.987 1.143-2.344 1.713-4.072 1.713-1.736 0-3.1-.574-4.095-1.724-.988-1.151-1.481-2.632-1.481-4.447v-.235zm2.726.235c0 1.18.233 2.143.696 2.89.456.739 1.174 1.109 2.154 1.109.949 0 1.66-.37 2.132-1.109.478-.747.718-1.71.718-2.89v-.235c0-1.158-.24-2.11-.718-2.856-.472-.755-1.19-1.132-2.154-1.132-.951 0-1.661.377-2.132 1.132-.463.754-.696 1.706-.696 2.856v.235zm13.835-6.183l.157 1.748a4.29 4.29 0 011.492-1.445c.605-.351 1.286-.527 2.041-.527 1.265 0 2.248.384 2.951 1.154.711.761 1.066 1.952 1.066 3.572v7.617h-2.726v-7.594c0-.911-.191-1.557-.573-1.937-.373-.389-.946-.583-1.716-.583-.531 0-1.005.119-1.425.358a2.902 2.902 0 00-1.032.964v8.792h-2.726v-12.119h2.491zm18.423 12.119c-.098-.306-.18-.605-.247-.895a6.937 6.937 0 01-.124-.874 4.859 4.859 0 01-1.481 1.434 3.76 3.76 0 01-2.041.57c-1.264 0-2.237-.325-2.917-.974-.673-.649-1.009-1.542-1.009-2.677 0-1.173.463-2.083 1.391-2.732.926-.658 2.232-.987 3.915-.987h2.119v-1.064c0-.634-.186-1.131-.561-1.49-.373-.358-.908-.537-1.603-.537-.621 0-1.114.149-1.481.448a1.42 1.42 0 00-.549 1.154h-2.626l-.011-.068c-.052-.956.374-1.803 1.279-2.542.912-.739 2.098-1.109 3.556-1.109 1.413 0 2.554.358 3.422 1.075.867.717 1.301 1.747 1.301 3.091v5.388c0 .501.033.983.1 1.445.068.455.176.904.326 1.344h-2.759zm-3.344-1.949c.688 0 1.306-.172 1.851-.515.554-.343.92-.735 1.099-1.175v-1.793h-2.164c-.793 0-1.414.198-1.863.594-.448.388-.673.847-.673 1.377 0 .463.149.833.449 1.109.306.269.74.403 1.301.403zm12.017 1.949h-2.725v-17.473h2.725v17.473zm-128.452 27.719a11.531 11.531 0 01-.246-.896 6.918 6.918 0 01-.123-.873 4.901 4.901 0 01-1.481 1.433 3.757 3.757 0 01-2.042.571c-1.264 0-2.236-.325-2.917-.974-.673-.65-1.01-1.543-1.01-2.677 0-1.173.464-2.084 1.392-2.733.927-.657 2.232-.986 3.914-.986h2.121v-1.064c0-.635-.187-1.132-.561-1.49-.374-.359-.909-.537-1.604-.537-.621 0-1.115.149-1.481.448-.366.298-.55.683-.55 1.154h-2.625l-.011-.068c-.052-.956.374-1.803 1.278-2.543.914-.739 2.099-1.108 3.557-1.108 1.414 0 2.554.358 3.422 1.075.867.717 1.301 1.747 1.301 3.091v5.388c0 .501.034.982.101 1.445.068.455.176.903.325 1.344h-2.76zm-3.343-1.949c.689 0 1.306-.172 1.852-.515.553-.343.92-.735 1.099-1.176v-1.792h-2.165c-.793 0-1.414.198-1.863.594-.449.388-.673.846-.673 1.377 0 .463.15.832.449 1.109.307.268.74.403 1.301.403zm11.58-10.171l.157 1.748a4.298 4.298 0 011.492-1.445c.606-.351 1.287-.526 2.042-.526 1.264 0 2.247.384 2.95 1.153.711.762 1.066 1.953 1.066 3.573v7.617h-2.726v-7.594c0-.911-.191-1.557-.572-1.937-.374-.389-.946-.584-1.716-.584a2.82 2.82 0 00-1.425.359 2.894 2.894 0 00-1.033.963v8.793h-2.725v-12.12h2.49zm18.423 12.12c-.098-.306-.18-.605-.247-.896a7.307 7.307 0 01-.124-.873 4.856 4.856 0 01-1.481 1.433 3.751 3.751 0 01-2.041.571c-1.264 0-2.236-.325-2.916-.974-.674-.65-1.01-1.543-1.01-2.677 0-1.173.463-2.084 1.391-2.733.927-.657 2.232-.986 3.915-.986h2.12v-1.064c0-.635-.187-1.132-.561-1.49-.374-.359-.908-.537-1.604-.537-.62 0-1.114.149-1.481.448a1.418 1.418 0 00-.549 1.154h-2.625l-.012-.068c-.052-.956.374-1.803 1.279-2.543.912-.739 2.098-1.108 3.556-1.108 1.413 0 2.555.358 3.422 1.075s1.301 1.747 1.301 3.091v5.388c0 .501.034.982.101 1.445.067.455.175.903.326 1.344h-2.76zm-3.343-1.949c.687 0 1.305-.172 1.85-.515.554-.343.92-.735 1.1-1.176v-1.792h-2.165c-.793 0-1.414.198-1.862.594-.449.388-.673.846-.673 1.377 0 .463.149.832.448 1.109.307.268.741.403 1.302.403zm12.017 1.949h-2.726V347.69h2.726v17.473zm7.664-4.861l.269 1.21h.068l2.658-8.469h2.984L286.514 367a6.215 6.215 0 01-1.358 2.162c-.583.597-1.409.896-2.479.896-.224 0-.468-.022-.729-.067a11.524 11.524 0 01-.741-.157l.304-2.106c.096.008.235.018.414.034.18.015.314.022.404.022.494 0 .887-.168 1.179-.504.298-.336.541-.724.728-1.165l.449-1.097-4.408-11.975h2.972l2.311 7.259zm15.012 1.568c0-.419-.179-.765-.538-1.042-.359-.276-1.029-.519-2.008-.728-1.451-.306-2.55-.739-3.298-1.299-.741-.568-1.111-1.337-1.111-2.307 0-1.016.43-1.882 1.29-2.599.861-.717 1.993-1.075 3.399-1.075 1.481 0 2.655.366 3.523 1.098.875.723 1.294 1.624 1.256 2.699l-.022.067h-2.614c0-.5-.191-.93-.572-1.289-.382-.358-.905-.537-1.571-.537-.658 0-1.159.149-1.503.449-.344.29-.516.649-.516 1.075 0 .425.16.765.482 1.019.329.246.992.466 1.986.66 1.525.315 2.655.758 3.388 1.334.74.567 1.111 1.343 1.111 2.33 0 1.089-.453 1.975-1.358 2.654-.898.68-2.083 1.019-3.556 1.019-1.578 0-2.823-.403-3.735-1.209-.913-.807-1.347-1.733-1.302-2.779l.023-.067h2.535c.029.702.284 1.214.763 1.536.478.32 1.061.48 1.749.48.704 0 1.246-.134 1.627-.402.382-.27.572-.632.572-1.087zm8.618 3.293h-2.725v-12.12h2.725v12.12zm0-15.088h-2.725v-2.385h2.725v2.385zm10.458 11.795c0-.419-.18-.765-.539-1.042-.359-.276-1.028-.519-2.008-.728-1.45-.306-2.55-.739-3.298-1.299-.74-.568-1.11-1.337-1.11-2.307 0-1.016.43-1.882 1.29-2.599.86-.717 1.993-1.075 3.399-1.075 1.48 0 2.655.366 3.522 1.098.875.723 1.295 1.624 1.257 2.699l-.023.067h-2.613c0-.5-.191-.93-.573-1.289-.381-.358-.904-.537-1.57-.537-.658 0-1.159.149-1.503.449-.344.29-.516.649-.516 1.075 0 .425.16.765.482 1.019.329.246.991.466 1.985.66 1.526.315 2.656.758 3.388 1.334.741.567 1.111 1.343 1.111 2.33 0 1.089-.452 1.975-1.358 2.654-.897.68-2.082 1.019-3.555 1.019-1.579 0-2.824-.403-3.736-1.209-.913-.807-1.346-1.733-1.301-2.779l.022-.067h2.536c.029.702.284 1.214.763 1.536.478.32 1.061.48 1.749.48.703 0 1.246-.134 1.627-.402.381-.27.572-.632.572-1.087z" fill="#fff"/></g><defs><clipPath id="rclip0"><path fill="#fff" d="M0 0h538v411H0z"/></clipPath></defs></svg>