<?xml version="1.0" encoding="utf-8"?><svg width="1920" height="1490" fill="none" xmlns="http://www.w3.org/2000/svg" viewBox="0 0 1920 1490"><g opacity=".5" fill="#2A365C"><path opacity=".5" d="M1556.36 163.127l-39.09-67.606 39.09-67.906h78.17l39.09 67.906-39.09 67.606h-78.17zM1044.32 310.657l-39.08-67.906 39.08-67.605h78.18l39.08 67.605-39.08 67.906h-78.18zM1300.19 310.657l-39.09-67.906 39.09-67.605h78.47l39.09 67.605-39.09 67.906h-78.47zM1428.27 236.742l-39.08-67.606 39.08-67.606h78.18l39.08 67.606-39.08 67.606h-78.18zM1300.19 457.887l-39.09-67.606 39.09-67.605h78.47l39.09 67.605-39.09 67.606h-78.47zM1556.36 457.887l-39.09-67.606 39.09-67.605h78.17l39.09 67.605-39.09 67.606h-78.17zM1684.44 384.271l-39.09-67.605 39.09-67.906h78.17l39.09 67.906-39.09 67.605h-78.17zM916.24 531.803l-39.087-67.906 39.087-67.606h78.173l39.087 67.606-39.087 67.906H916.24zM1044.32 605.418l-39.08-67.606 39.08-67.906h78.18l39.08 67.906-39.08 67.606h-78.18zM1172.41 531.803l-39.39-67.906 39.39-67.606h78.17l39.09 67.606-39.09 67.906h-78.17zM1428.27 531.803l-39.08-67.906 39.08-67.606h78.18l39.08 67.606-39.08 67.906h-78.18zM660.073 679.033l-39.087-67.606 39.087-67.606h78.173l39.387 67.606-39.387 67.606h-78.173zM1044.32 752.648l-39.08-67.606 39.08-67.605h78.18l39.08 67.605-39.08 67.606h-78.18zM1300.19 752.648l-39.09-67.606 39.09-67.605h78.47l39.09 67.605-39.09 67.606h-78.47zM1428.27 679.033l-39.08-67.606 39.08-67.606h78.18l39.08 67.606-39.08 67.606h-78.18zM1556.36 752.648l-39.09-67.606 39.09-67.605h78.17l39.09 67.605-39.09 67.606h-78.17zM916.24 826.563l-39.087-67.907 39.087-67.605h78.173l39.087 67.605-39.087 67.907H916.24zM1044.32 900.178l-39.08-67.606 39.08-67.906h78.18l39.08 67.906-39.08 67.606h-78.18zM1172.41 826.563l-39.39-67.907 39.39-67.605h78.17l39.09 67.605-39.09 67.907h-78.17zM1044.32 1047.71l-39.08-67.907 39.08-67.606h78.18l39.08 67.606-39.08 67.907h-78.18zM1300.19 1047.71l-39.09-67.907 39.09-67.606h78.47l39.09 67.606-39.09 67.907h-78.47zM1428.27 973.794l-39.08-67.605 39.08-67.606h78.18l39.08 67.606-39.08 67.605h-78.18zM788.156 1194.94l-39.087-67.61 39.087-67.6h78.173l39.086 67.6-39.086 67.61h-78.173zM660.073 1268.85l-39.087-67.9 39.087-67.61h78.173l39.387 67.61-39.387 67.9h-78.173zM916.24 1268.85l-39.087-67.9 39.087-67.61h78.173l39.087 67.61-39.087 67.9H916.24zM1172.41 1268.85l-39.39-67.9 39.39-67.61h78.17l39.09 67.61-39.09 67.9h-78.17zM788.156 1490l-39.087-67.91 39.087-67.6h78.173l39.086 67.6-39.086 67.91h-78.173zM916.24 1416.08l-39.087-67.6 39.087-67.61h78.173l39.087 67.61-39.087 67.6H916.24z"/><path opacity=".5" d="M1556.36 163.127l-39.09-67.606 39.09-67.906h78.17l39.09 67.906-39.09 67.606h-78.17zM1300.19 457.887l-39.09-67.606 39.09-67.605h78.47l39.09 67.605-39.09 67.606h-78.47zM1044.32 752.648l-39.08-67.606 39.08-67.605h78.18l39.08 67.605-39.08 67.606h-78.18zM1428.27 679.033l-39.08-67.606 39.08-67.606h78.18l39.08 67.606-39.08 67.606h-78.18zM1172.41 1268.85l-39.39-67.9 39.39-67.61h78.17l39.09 67.61-39.09 67.9h-78.17zM916.24 1416.08l-39.087-67.6 39.087-67.61h78.173l39.087 67.61-39.087 67.6H916.24z"/><g opacity=".5"><path opacity=".3" d="M1684.44 89.512l-39.09-67.906L1684.44-46h78.17l39.09 67.606-39.09 67.906h-78.17zM1940.31 89.512l-39.09-67.906L1940.31-46h78.47l39.09 67.606-39.09 67.906h-78.47zM1172.41 236.742l-39.39-67.606 39.39-67.606h78.17l39.09 67.606-39.09 67.606h-78.17zM788.156 457.887l-39.087-67.606 39.087-67.605h78.173l39.086 67.605-39.086 67.606h-78.173zM1428.27 384.271l-39.08-67.605 39.08-67.906h78.18l39.08 67.906-39.08 67.605h-78.18zM1940.31 384.271l-39.09-67.605 39.09-67.906h78.47l39.09 67.906-39.09 67.605h-78.47zM531.988 605.418l-39.087-67.606 39.087-67.906h78.474l39.086 67.906-39.086 67.606h-78.474zM788.156 605.418l-39.087-67.606 39.087-67.906h78.173l39.086 67.906-39.086 67.606h-78.173zM1684.44 531.803l-39.09-67.906 39.09-67.606h78.17l39.09 67.606-39.09 67.906h-78.17zM1172.41 679.033l-39.39-67.606 39.39-67.606h78.17l39.09 67.606-39.09 67.606h-78.17zM788.156 900.178l-39.087-67.606 39.087-67.906h78.173l39.086 67.906-39.086 67.606h-78.173zM1172.41 1121.32l-39.39-67.6 39.39-67.908h78.17l39.09 67.908-39.09 67.6h-78.17zM1428.27 1121.32l-39.08-67.6 39.08-67.908h78.18l39.08 67.908-39.08 67.6h-78.18zM1676.02 968.685l-24.05-41.465 24.05-41.765h48.11l24.05 41.765-24.05 41.465h-48.11zM1916.55 810.338l-24.05-41.766 24.05-41.465h48.11l24.05 41.465-24.05 41.766h-48.11zM1893.1 1285.98l-15.63-27.64 15.63-27.34h31.87l15.64 27.34-15.64 27.64h-31.87zM464.94 99.126l-15.634-27.643 15.634-27.342h31.871l15.634 27.342-15.634 27.643H464.94zM221.401 775.183l-15.935-27.643 15.935-27.343h31.57l15.935 27.343-15.935 27.643h-31.57zM446.9 1125.83l-15.935-27.34 15.935-27.64h31.57l15.935 27.64-15.935 27.34H446.9zM10.935 1421.19L-5 1393.55l15.935-27.34h31.57l15.935 27.34-15.935 27.64h-31.57zM1369.04 1306.11l-24.05-41.76 24.05-41.47h48.41l24.05 41.47-24.05 41.76h-48.41zM1850.11 539.915l-24.06-41.766 24.06-41.464h48.4l24.06 41.464-24.06 41.766h-48.4zM978.176 97.324l-24.053-41.465 24.053-41.765h48.404l24.06 41.765-24.06 41.465h-48.404zM542.211 915.503l-24.053-41.766 24.053-41.465h48.408l24.053 41.465-24.053 41.766h-48.408zM353.092 1374.32l-24.053-41.47 24.053-41.76h48.107l24.053 41.76-24.053 41.47h-48.107zM879.257 284.516l-24.053-41.765 24.053-41.465h48.107l24.053 41.465-24.053 41.765h-48.107zM668.791 194.376l-24.054-41.766 24.054-41.464h48.106l24.053 41.464-24.053 41.766h-48.106zM1630.92 1170.9l-24.05-41.76 24.05-41.47h48.11l24.05 41.47-24.05 41.76h-48.11zM653.758 457.887l-24.053-41.465 24.053-41.765h48.107l24.053 41.765-24.053 41.465h-48.107zM1540.72 1486.39l-24.05-41.76 24.05-41.47h48.11l24.05 41.47-24.05 41.76h-48.11zM172.693 1230.99l-24.053-41.76 24.053-41.47h48.106l24.054 41.47-24.054 41.76h-48.106zM531.988 1342.47l-39.087-67.61 39.087-67.9h78.474l39.086 67.9-39.086 67.61h-78.474zM1044.32 1490l-39.08-67.91 39.08-67.6h78.18l39.08 67.6-39.08 67.91h-78.18z"/></g><g opacity=".6"><path opacity=".6" d="M1428.27 89.512l-39.08-67.906L1428.27-46h78.18l39.08 67.606-39.08 67.906h-78.18zM1556.36 310.657l-39.09-67.906 39.09-67.605h78.17l39.09 67.605-39.09 67.906h-78.17zM1684.44 236.742l-39.09-67.606 39.09-67.606h78.17l39.09 67.606-39.09 67.606h-78.17zM1812.52 310.657l-39.08-67.906 39.08-67.605h78.18l39.08 67.605-39.08 67.906h-78.18zM1044.32 457.887l-39.08-67.606 39.08-67.605h78.18l39.08 67.605-39.08 67.606h-78.18zM1300.19 605.418l-39.09-67.606 39.09-67.906h78.47l39.09 67.906-39.09 67.606h-78.47zM916.239 679.033l-39.087-67.606 39.087-67.606h78.173l39.088 67.606-39.088 67.606h-78.173zM1684.44 679.033l-39.09-67.606 39.09-67.606h78.17l39.09 67.606-39.09 67.606h-78.17zM1300.19 900.178l-39.09-67.606 39.09-67.906h78.47l39.09 67.906-39.09 67.606h-78.47zM916.239 973.794l-39.087-67.605 39.087-67.606h78.173l39.088 67.606-39.088 67.605h-78.173zM1044.32 1194.94l-39.08-67.61 39.08-67.6h78.18l39.08 67.6-39.08 67.61h-78.18zM788.156 1342.47l-39.087-67.61 39.087-67.9h78.173l39.086 67.9-39.086 67.61h-78.173zM1172.41 1416.08l-39.39-67.6 39.39-67.61h78.17l39.09 67.61-39.09 67.6h-78.17z"/></g></g><g clip-path="url(#tclip0)"><path d="M1598.87 129.726L1588.59-2.566l1.48 1.048 166.81 122.774-158.01 8.47zM1590.35.937l10 127.156 151.79-8.162L1590.35.937z" fill="#2A365C"/><path d="M1247.26 269.287l33.87-110.916.21-.078 106.12-74.771-26.74-57.035 31.57-48.343 1.39.833-31.15 47.463 26.59 56.604 125.01 94.093 86.35-49.699 1.89 73.836-1.59-.03-1.97-71.01-84.92 48.938-.37-.353-123.91-93.398 22.65 179.561-165 4.305zm35.13-109.789l-32.93 108.138 160.8-4.123-22.54-178.26-105.33 74.245z" fill="#2A365C"/><path d="M1144.65 489.276l-14.57-141.452-.3-.499.29-.225 1.58-79.36 1.59.031-1.54 78.127 116.88-78.674.45.568 96.86 134.017 64.39-137.573-129.14-105.141-13.09-86.945 1.58-.332 13.08 86.222 129.72 105.415-66.31 141.68-.75-1.067-97.16-134.516-116.17 78.293 97.91 135.583-85.3 5.848zm-12.61-138.75l14.09 137.118 80.89-5.588-94.98-131.53z" fill="#2A365C"/><path d="M1239.85 533.297l-12.63-52.042 89.56 41.922-.68 1.467-86.49-40.482 11.83 48.804-1.59.331zM1064.07 549.184l-.97-1.351 80.6-59.184-57.32-26.827.68-1.467 59.81 27.994-82.8 60.835zM1311.35 441.247l-1.26-1.126 35.6-37.51 58.79 27.514 60.39-33.956.76 1.429-61.11 34.336-58.49-27.376-34.68 36.689zM1273.08 406.172l-48.24-31.7 22.55-105.84-37.13-52.78-72.54-16.072.4-1.603 73.19 16.199.08.215 37.8 53.631-.06.509-22.5 104.97 47.43 31.141-.98 1.33zM1443.53 368.837l-1.47-.686 20.39-43.56-52.83-60.845 69.84-12.905.33 1.585-67.1 12.399 51.71 59.426-20.87 44.586zM1766.9 189.955l-13.31-69.699 57.94-44.757 54.64-1.426-.03 1.594-53.91 1.407-56.88 44.005 13.13 68.545-1.58.331zM1589.6.233l-74.32-34.787.69-1.466 73.29 34.306 55.98-45.14.98 1.35L1589.6.233zM1598.97 203.971c4.69 2.196 8.12-5.138 3.43-7.333-4.69-2.196-8.12 5.138-3.43 7.333zM1452.36 177.011l.03-1.594 60.16 2.052-33.62-59.898 31.03-66.293 1.46.686-30.68 65.56 34.6 61.61-62.98-2.123z" fill="#2A365C"/><path d="M1468.91 85.046l-1.52.552 11.68 32.271 1.52-.552-11.68-32.271zM1588.74-1.191l-31.84 47.476 1.34.902L1590.08-.29l-1.34-.902zM1214.09 171.652l-1.62-.092-2.5 43.487 1.62.092 2.5-43.487zM1405.28 430.555l-1.34.905 26.39 39.214 1.34-.905-26.39-39.214zM1346.76 403.423l-1.58.35 28.67 129.626 1.58-.35-28.67-129.626zM1049.59 408.309l-.97-1.35 80.59-59.184-35.33-16.536.69-1.466 37.82 17.702-82.8 60.834zM1506.13 308.128l-43.07 15.619.55 1.522 43.07-15.619-.55-1.522z" fill="#2A365C"/><path d="M1503.87 313.225c4.69 2.195 8.12-5.138 3.43-7.333-4.84-2.265-8.27 5.069-3.43 7.333zM1460.88 331.008c9.38 4.391 16.24-10.276 6.86-14.667-9.38-4.391-16.25 10.276-6.86 14.667zM1399.77 444.011c14.22 6.655 24.51-15.345 10.29-22-14.22-6.655-24.51 15.345-10.29 22zM1358.83 37.401c14.22 6.656 24.52-15.344 10.3-22-14.22-6.655-24.52 15.345-10.3 22zM1203.38 224.435c14.22 6.655 24.52-15.345 10.3-22-14.22-6.655-24.52 15.344-10.3 22zM1369.74 540.991c9.38 4.391 16.25-10.275 6.87-14.666-9.38-4.392-16.25 10.275-6.87 14.666zM1235.19 543.633c9.38 4.391 16.25-10.275 6.87-14.666-9.38-4.392-16.4 10.206-6.87 14.666zM1129.25 275.916c9.38 4.391 16.25-10.275 6.87-14.667-9.39-4.391-16.25 10.276-6.87 14.667zM1207.81 176.801c9.38 4.391 16.25-10.276 6.86-14.667-9.38-4.391-16.24 10.276-6.86 14.667zM1762.01 194.284c9.38 4.391 16.25-10.276 6.87-14.667-9.53-4.459-16.4 10.207-6.87 14.667zM1477.39 125.435c9.38 4.391 16.25-10.275 6.87-14.667-9.38-4.391-16.4 10.207-6.87 14.667zM1810.17 78.794c4.69 2.196 8.12-5.138 3.43-7.333-4.69-2.196-8.27 5.069-3.43 7.333zM1862.73 78.364c4.69 2.195 8.13-5.138 3.43-7.334-4.69-2.195-8.12 5.138-3.43 7.334zM1555.96 49.208c4.69 2.196 8.12-5.137 3.43-7.333-4.84-2.264-8.27 5.069-3.43 7.333zM1507.88 57.634c4.69 2.196 8.12-5.137 3.43-7.333-4.69-2.196-8.13 5.138-3.43 7.333zM1464.85 91.137c4.69 2.195 8.13-5.138 3.44-7.333-4.84-2.265-8.27 5.069-3.44 7.333zM1441.12 370.929c4.69 2.196 8.12-5.138 3.43-7.333-4.84-2.265-8.27 5.069-3.43 7.333zM1478.14 255.947c4.69 2.195 8.12-5.138 3.43-7.334-4.69-2.195-8.12 5.138-3.43 7.334zM1265.89 75.61c4.69 2.196 8.13-5.137 3.43-7.332-4.69-2.196-8.12 5.137-3.43 7.333zM1138.38 202.951c4.69 2.195 8.13-5.138 3.44-7.334-4.69-2.195-8.13 5.138-3.44 7.334zM1093.13 335.533c4.69 2.196 8.12-5.138 3.43-7.333-4.69-2.196-8.27 5.069-3.43 7.333zM1083.77 464.715c4.69 2.196 8.13-5.137 3.44-7.333-4.7-2.196-8.13 5.138-3.44 7.333zM1060.88 551.803c4.69 2.196 8.13-5.137 3.44-7.333-4.7-2.196-8.13 5.138-3.44 7.333zM1313.74 525.864c4.69 2.195 8.12-5.138 3.43-7.334-4.69-2.195-8.12 5.138-3.43 7.334zM1428.77 473.678c4.69 2.196 8.12-5.138 3.43-7.333-4.84-2.265-8.27 5.069-3.43 7.333zM1461.17 401.771c4.7 2.196 8.13-5.138 3.44-7.333-4.69-2.196-8.13 5.137-3.44 7.333zM1308.22 443.357c4.69 2.196 8.12-5.138 3.43-7.333-4.69-2.196-8.12 5.137-3.43 7.333zM1223.73 382.179c9.38 4.391 16.25-10.275 6.87-14.666-9.39-4.392-16.4 10.206-6.87 14.666zM1269.26 409.749c4.69 2.196 8.13-5.137 3.44-7.333-4.84-2.264-8.27 5.069-3.44 7.333zM1389.14 84.13l-1.46-.687-34.33 73.333 1.47.686 34.32-73.332zM1713.78 38.675l-1.45.732 41.32 81.599 1.45-.732-41.32-81.599zM1650.97 269.256l-1.46-.686 34.05-72.746-84.47-66.177.97-1.329 85.51 67.019-34.6 73.919z" fill="#2A365C"/><path d="M1685.27 195.069l-1.34.905 26.39 39.214 1.34-.905-26.39-39.214z" fill="#2A365C"/><path d="M1680.69 202.708c9.38 4.392 16.25-10.275 6.87-14.666-9.39-4.391-16.4 10.207-6.87 14.666zM1047.26 410.616c4.69 2.196 8.13-5.138 3.43-7.333-4.69-2.196-8.27 5.069-3.43 7.333zM1648.07 274.693c4.69 2.195 8.12-5.138 3.43-7.333-4.69-2.196-8.12 5.137-3.43 7.333zM1709.47 237.813c4.69 2.196 8.13-5.138 3.43-7.333-4.69-2.196-8.12 5.137-3.43 7.333zM1712.23 43.682c4.69 2.195 8.13-5.138 3.44-7.334-4.7-2.195-8.27 5.07-3.44 7.334zM1351.15 158.428c4.69 2.195 8.13-5.138 3.44-7.334-4.7-2.195-8.27 5.069-3.44 7.334zM1451.1 178.927c4.7 2.196 8.13-5.137 3.44-7.333-4.69-2.196-8.13 5.138-3.44 7.333zM1329.3 305.538l-80.63-37.736-.69 1.466 80.63 37.737.69-1.467z" fill="#2A365C"/><path d="M1327.47 310.584c4.69 2.196 8.12-5.137 3.43-7.333-4.69-2.195-8.12 5.138-3.43 7.333z" fill="#2A365C"/><g clip-path="url(#tclip1)" fill="#939EBD"><path d="M1391.83 112.014c11.71-.157 21.08-9.779 20.93-21.493-.16-11.713-9.77-21.082-21.48-20.925-11.71.157-21.08 9.78-20.93 21.493.15 11.713 9.77 21.082 21.48 20.925z"/><path opacity=".2" d="M1391.83 112.014c11.71-.157 21.08-9.779 20.93-21.493-.16-11.713-9.77-21.082-21.48-20.925-11.71.157-21.08 9.78-20.93 21.493.15 11.713 9.77 21.082 21.48 20.925z"/><path opacity=".5" d="M1390.94 72.276c2.75 2.898 1.02 8.883-3.85 13.574-4.88 4.69-10.92 6.152-13.68 3.254-2.75-2.898-1.02-8.883 3.86-13.574 4.87-4.69 10.92-6.152 13.67-3.254z"/><path opacity=".3" d="M1405.44 89.79c2 1.83.6 6.358-2.93 10.072-3.52 3.714-8.04 5.353-10.05 3.522-2-1.831-.59-6.36 2.93-10.073 3.59-3.86 8.05-5.353 10.05-3.522z"/><path d="M1233.19 500.741c6.88-.092 12.39-5.748 12.3-12.633-.09-6.885-5.74-12.391-12.62-12.299-6.89.092-12.39 5.748-12.3 12.633.09 6.885 5.74 12.392 12.62 12.299z"/><path opacity=".2" d="M1233.19 500.741c6.88-.092 12.39-5.748 12.3-12.633-.09-6.885-5.74-12.391-12.62-12.299-6.89.092-12.39 5.748-12.3 12.633.09 6.885 5.74 12.392 12.62 12.299z"/><path opacity=".5" d="M1232.77 477.416c1.56 1.625.57 5.273-2.26 7.882-2.9 2.756-6.5 3.574-8.06 1.949-1.57-1.625-.57-5.273 2.26-7.882 2.75-2.824 6.35-3.643 8.06-1.949z"/><path opacity=".3" d="M1241.21 487.626c1.12 1.058.39 3.757-1.73 5.985-2.11 2.229-4.69 3.165-5.81 2.108-1.11-1.058-.38-3.757 1.73-5.985 2.12-2.229 4.7-3.165 5.81-2.108z"/><path d="M1599.52 144.148c6.44-.086 11.59-5.375 11.5-11.813-.08-6.438-5.37-11.587-11.8-11.501-6.44.086-11.59 5.375-11.5 11.813.08 6.438 5.37 11.587 11.8 11.501z"/><path opacity=".3" d="M1599.52 144.148c6.44-.086 11.59-5.375 11.5-11.813-.08-6.438-5.37-11.587-11.8-11.501-6.44.086-11.59 5.375-11.5 11.813.08 6.438 5.37 11.587 11.8 11.501z"/><path opacity=".5" d="M1599.18 122.183c1.57 1.625.56 4.911-2.05 7.442-2.62 2.531-6.07 3.418-7.63 1.793-1.56-1.625-.56-4.911 2.05-7.442 2.62-2.531 6.07-3.418 7.63-1.793z"/><path opacity=".3" d="M1607.11 131.973c1.11 1.057.31 3.541-1.59 5.691-2.05 2.082-4.42 2.94-5.53 1.883-1.11-1.058-.31-3.541 1.59-5.692 2.05-2.081 4.42-2.94 5.53-1.882z"/><path d="M1279.93 181.196c7.24-.097 13.03-6.047 12.94-13.289-.1-7.243-6.04-13.036-13.28-12.939-7.24.097-13.04 6.047-12.94 13.289.09 7.243 6.04 13.036 13.28 12.939z"/><path opacity=".3" d="M1279.93 181.196c7.24-.097 13.03-6.047 12.94-13.289-.1-7.243-6.04-13.036-13.28-12.939-7.24.097-13.04 6.047-12.94 13.289.09 7.243 6.04 13.036 13.28 12.939z"/><path opacity=".5" d="M1279.42 156.678c1.71 1.694.65 5.488-2.32 8.391-2.97 2.902-6.78 3.798-8.42 1.958-1.71-1.694-.65-5.488 2.32-8.391 2.89-2.756 6.71-3.652 8.42-1.958z"/><path opacity=".3" d="M1288.31 167.456c1.26 1.126.47 3.972-1.86 6.279-2.19 2.375-4.92 3.243-6.18 2.117-1.26-1.127-.46-3.972 1.87-6.279 2.11-2.228 4.91-3.243 6.17-2.117z"/><path d="M1142.93 514.075c11.35-.152 20.44-9.481 20.29-20.836-.15-11.356-9.47-20.438-20.82-20.287-11.36.152-20.44 9.481-20.29 20.837.15 11.356 9.47 20.438 20.82 20.286z"/><path opacity=".3" d="M1142.93 514.075c11.35-.152 20.44-9.481 20.29-20.836-.15-11.356-9.47-20.438-20.82-20.287-11.36.152-20.44 9.481-20.29 20.837.15 11.356 9.47 20.438 20.82 20.286z"/><path opacity=".5" d="M1142.05 475.364c2.61 2.829.95 8.668-3.64 13.134-4.6 4.466-10.64 5.927-13.25 3.098-2.61-2.83-.94-8.668 3.65-13.134 4.74-4.397 10.57-5.781 13.24-3.098z"/><path opacity=".3" d="M1156.18 492.526c1.85 1.762.67 6.212-2.86 9.926-3.53 3.713-7.83 5.274-9.69 3.512-1.85-1.763-.66-6.212 2.86-9.926 3.38-3.783 7.83-5.275 9.69-3.512z"/><path d="M1514.88 206.416c11.71-.156 21.08-9.779 20.93-21.492-.15-11.714-9.77-21.082-21.48-20.926-11.71.157-21.08 9.78-20.92 21.493.15 11.714 9.76 21.082 21.47 20.925z"/><path opacity=".2" d="M1514.88 206.416c11.71-.156 21.08-9.779 20.93-21.492-.15-11.714-9.77-21.082-21.48-20.926-11.71.157-21.08 9.78-20.92 21.493.15 11.714 9.76 21.082 21.47 20.925z"/><path opacity=".5" d="M1514.01 166.709c2.75 2.898 1.02 8.883-3.85 13.574-4.88 4.691-10.92 6.153-13.68 3.255-2.75-2.899-1.02-8.883 3.85-13.574 4.88-4.691 10.93-6.153 13.68-3.255z"/><path opacity=".3" d="M1528.51 184.224c2 1.831.6 6.359-2.93 10.072-3.52 3.714-8.04 5.353-10.05 3.522-2-1.831-.59-6.359 2.93-10.072 3.6-3.861 8.05-5.353 10.05-3.522z"/><path d="M1342.36 424.497c7.78-.104 14-6.495 13.9-14.274-.1-7.779-6.49-14.001-14.27-13.897-7.77.104-14 6.495-13.89 14.274.1 7.779 6.48 14.001 14.26 13.897z"/><path opacity=".2" d="M1342.36 424.497c7.78-.104 14-6.495 13.9-14.274-.1-7.779-6.49-14.001-14.27-13.897-7.77.104-14 6.495-13.89 14.274.1 7.779 6.48 14.001 14.26 13.897z"/><path opacity=".5" d="M1341.74 398.078c1.79 1.909.66 5.85-2.59 8.977-3.25 3.127-7.28 4.102-9.07 2.193-1.79-1.91-.66-5.851 2.59-8.978 3.18-2.98 7.21-3.955 9.07-2.192z"/><path opacity=".3" d="M1351.31 409.708c1.26 1.126.32 4.266-1.93 6.787-2.4 2.453-5.26 3.615-6.6 2.273-1.26-1.126-.33-4.265 1.92-6.787 2.33-2.306 5.35-3.399 6.61-2.273z"/><path d="M1136.31 371.086c8.14-.109 14.64-6.793 14.54-14.93-.11-8.137-6.79-14.645-14.92-14.536-8.13.109-14.64 6.794-14.54 14.93.11 8.137 6.79 14.645 14.92 14.536z"/><path opacity=".5" d="M1136.31 371.086c8.14-.109 14.64-6.793 14.54-14.93-.11-8.137-6.79-14.645-14.92-14.536-8.13.109-14.64 6.794-14.54 14.93.11 8.137 6.79 14.645 14.92 14.536z"/><path opacity=".5" d="M1135.69 343.477c1.94 1.977.67 6.212-2.58 9.339-3.32 3.274-7.5 4.18-9.43 2.202-1.93-1.978-.67-6.212 2.58-9.34 3.32-3.274 7.5-4.179 9.43-2.201z"/><path opacity=".3" d="M1145.78 355.528c1.34 1.341.41 4.48-2.06 7.08-2.47 2.6-5.48 3.693-6.89 2.498-1.34-1.342-.4-4.481 2.06-7.08 2.47-2.6 5.48-3.693 6.89-2.498z"/><path d="M1586.3 25.611c12.06-.161 21.72-10.078 21.56-22.149-.15-12.07-10.06-21.726-22.13-21.564-12.07.162-21.72 10.078-21.57 22.149.16 12.071 10.07 21.726 22.14 21.564z"/><path opacity=".5" d="M1586.3 25.611c12.06-.161 21.72-10.078 21.56-22.149-.15-12.07-10.06-21.726-22.13-21.564-12.07.162-21.72 10.078-21.57 22.149.16 12.071 10.07 21.726 22.14 21.564z"/><path opacity=".5" d="M1585.51-15.453c2.75 2.898 1.03 9.245-3.84 13.936-4.95 4.837-11.35 6.309-14.11 3.41-2.75-2.898-1.03-9.245 3.84-13.935 4.95-4.838 11.21-6.377 14.11-3.41z"/><path opacity=".3" d="M1600.31 2.56c2 1.831.68 6.574-2.92 10.435-3.59 3.86-8.26 5.43-10.26 3.6-2-1.831-.68-6.575 2.92-10.435 3.74-3.792 8.26-5.431 10.26-3.6z"/><path d="M1407.14 287.976c9.63 1.98 19.05-4.227 21.03-13.862 1.98-9.636-4.22-19.052-13.85-21.031-9.63-1.979-19.05 4.227-21.03 13.863-1.98 9.635 4.22 19.051 13.85 21.03z"/><path opacity=".3" d="M1407.14 287.976c9.63 1.98 19.05-4.227 21.03-13.862 1.98-9.636-4.22-19.052-13.85-21.031-9.63-1.979-19.05 4.227-21.03 13.863-1.98 9.635 4.22 19.051 13.85 21.03z"/><path opacity=".5" d="M1410.19 254.895c2.3 2.33.77 7.513-3.19 11.383-3.95 3.87-9.2 5.166-11.44 2.689-2.31-2.33-.77-7.513 3.18-11.383 4.1-3.802 9.21-5.166 11.45-2.689z"/><path opacity=".3" d="M1422.44 269.569c1.63 1.479.5 5.42-2.39 8.538-2.95 3.264-6.76 4.523-8.32 2.897-1.63-1.478-.5-5.419 2.39-8.537 2.88-3.118 6.69-4.376 8.32-2.898z"/><path d="M1251.78 299.528c13.05-.175 23.49-10.899 23.32-23.954-.17-13.054-10.89-23.496-23.94-23.321-13.05.175-23.49 10.899-23.32 23.954.17 13.054 10.89 23.496 23.94 23.321z"/><path opacity=".6" d="M1251.78 299.528c13.05-.175 23.49-10.899 23.32-23.954-.17-13.054-10.89-23.496-23.94-23.321-13.05.175-23.49 10.899-23.32 23.954.17 13.054 10.89 23.496 23.94 23.321z"/><path opacity=".5" d="M1250.81 255.215c2.98 3.182 1.05 9.969-4.24 15.178-5.45 5.14-12.28 6.767-15.26 3.586-2.98-3.182-1.06-9.969 4.24-15.178 5.45-5.14 12.28-6.768 15.26-3.586z"/><path opacity=".3" d="M1266.88 274.715c2.23 2.115.76 7.151-3.33 11.315-3.95 4.232-8.9 6.027-11.12 3.912-2.23-2.115-.77-7.152 3.33-11.315 4.09-4.163 8.97-5.812 11.12-3.912z"/><path d="M1752.67 140.087c7.78-.104 14-6.495 13.9-14.274-.1-7.779-6.49-14.001-14.27-13.897-7.77.104-14 6.495-13.89 14.274.1 7.779 6.48 14.001 14.26 13.897z"/><path opacity=".6" d="M1752.67 140.087c7.78-.104 14-6.495 13.9-14.274-.1-7.779-6.49-14.001-14.27-13.897-7.77.104-14 6.495-13.89 14.274.1 7.779 6.48 14.001 14.26 13.897z"/><path opacity=".5" d="M1752.05 113.631c1.78 1.909.65 5.85-2.45 9.046-3.25 3.127-7.28 4.102-9.07 2.193-1.78-1.91-.65-5.851 2.45-9.047 3.25-3.127 7.28-4.101 9.07-2.192z"/><path opacity=".3" d="M1761.76 125.33c1.26 1.126.48 4.334-1.92 6.787-2.4 2.453-5.42 3.546-6.68 2.42-1.26-1.127-.47-4.334 1.93-6.787 2.47-2.6 5.27-3.615 6.67-2.42z"/></g></g><defs><clipPath id="tclip0"><path fill="#fff" transform="rotate(25.082 1113.378 2873.634)" d="M0 0h611v793H0z"/></clipPath><clipPath id="tclip1"><path fill="#fff" transform="rotate(25.082 1029.655 2923.75)" d="M0 0h551.923v732.922H0z"/></clipPath></defs></svg>