<svg width="39" height="39" viewBox="0 0 39 39" fill="none" xmlns="http://www.w3.org/2000/svg">
<g clip-path="url(#clip0)">
<path d="M28.4289 37.8574H29.5715V39H28.4289V37.8574Z" fill="white"/>
<path d="M32.6555 31.2625L30.9308 30.4742C31.5886 29.8574 31.9995 29.0315 31.9995 28.2866V27.4383C34.6238 24.4236 36.0674 20.5725 36.0674 16.5674C36.0674 12.1421 34.3441 7.98167 31.2149 4.85253C28.0857 1.72331 23.9253 0 19.5 0C15.2963 0 11.2874 1.57767 8.21163 4.44242L8.99041 5.27856C11.8539 2.6114 15.5863 1.14258 19.5 1.14258C21.5606 1.14258 23.5277 1.54979 25.3262 2.28622L17.8276 5.32822L16.3095 10.328L17.3387 13.45L18.8608 15.5661L17.8297 18.4406L14.8125 20.1188L12.1584 18.5991L10.6762 14.7591L7.15223 17.3823L4.72311 20.9935C4.29708 19.5699 4.0752 18.0805 4.0752 16.5674C4.0752 12.6534 5.54402 8.92102 8.2111 6.05772L7.37511 5.27902C4.51029 8.35445 2.93262 12.3634 2.93262 16.5674C2.93262 20.5725 4.37615 24.4236 7.00042 27.4384V28.2867C7.00042 29.0316 7.41145 29.8574 8.06912 30.4743L6.34443 31.2626C5.6729 31.5696 4.89709 32.0932 4.85832 33.4285L4.85817 39H27.2864V37.8574H25.5726V32.846L25.5724 32.8294C25.5662 32.6141 25.5455 32.3835 25.488 32.1489L27.5384 31.2056C27.8887 31.3415 28.2658 31.4197 28.6595 31.4197C29.0536 31.4197 29.4311 31.3414 29.7815 31.2053L32.1806 32.3018C32.7804 32.576 32.9804 32.8565 32.9994 33.4537V37.8574H30.7143V39H34.142V33.445L34.1418 33.4284C34.1028 32.0932 33.327 31.5696 32.6555 31.2625ZM7.99127 18.1822L10.152 16.5738L11.2386 19.389L14.8045 21.4307L18.7604 19.2304L20.1392 15.3865L18.3689 12.9255L17.5079 10.3137L18.7625 6.18196L26.7346 2.94793C31.3004 5.38307 34.5048 10.0467 34.8857 15.4774L28.7589 11.4157L24.876 13.0768L25.2818 17.0215L23.8249 20.1049L19.8448 21.7384H19.0422C17.2694 21.7384 15.8271 23.1807 15.8271 24.9535V27.0675C15.8271 27.9134 16.3104 28.8541 17.077 29.5381L15.0522 30.4636C14.7141 30.618 14.3522 30.823 14.0555 31.1412L12.6097 30.476C13.2686 29.8589 13.6804 29.0322 13.6804 28.2865V26.3993C13.6804 24.7829 12.3654 23.4678 10.7489 23.4678H9.93182C8.55075 23.4678 7.39042 24.4281 7.08162 25.7159C6.30924 24.6689 5.67686 23.5341 5.19469 22.3393L7.99127 18.1822ZM19.5 29.3659C18.1033 29.3659 16.9698 27.9752 16.9698 27.0676V25.5249H22.0303V27.0676C22.0302 27.9753 20.8967 29.3659 19.5 29.3659ZM17.0505 24.3824C17.2992 23.5166 18.0977 22.8811 19.0423 22.8811H19.9576C20.9022 22.8811 21.7008 23.5166 21.9495 24.3824H17.0505ZM8.14308 26.9708H12.538V28.2867C12.538 29.0727 11.5535 30.277 10.3406 30.277C9.12752 30.277 8.14308 29.0726 8.14308 28.2867V26.9708ZM8.23715 25.8282C8.4761 25.1212 9.14535 24.6105 9.93198 24.6105H10.7491C11.5357 24.6105 12.2049 25.1212 12.4439 25.8282H8.23715ZM6.00074 33.4537C6.01979 32.8565 6.21966 32.576 6.81952 32.3018L9.21855 31.2052C9.56902 31.3413 9.94645 31.4196 10.3406 31.4196C10.7343 31.4196 11.1114 31.3414 11.4617 31.2055L13.5172 32.1513C13.4667 32.3534 13.435 32.5779 13.4277 32.8294L13.4274 37.8574H6.00074V33.4537ZM14.5699 37.8574V32.8546C14.592 32.1528 14.8256 31.8236 15.5273 31.5029L18.2395 30.2632C18.6323 30.4192 19.0567 30.5086 19.4999 30.5086C19.9432 30.5086 20.3676 30.4191 20.7604 30.2632L23.4727 31.5029C24.1744 31.8236 24.4079 32.1528 24.43 32.8546V37.8574H14.5699ZM24.9409 31.1429C24.7061 30.8955 24.3854 30.6638 23.9477 30.4637L21.9228 29.5382C22.6895 28.8543 23.1728 27.9136 23.1728 27.0677V24.9537C23.1728 23.806 22.5679 22.7974 21.6605 22.2284L24.6687 20.9937L26.4511 17.2216L26.0987 13.7966L28.6415 12.7087L34.9213 16.8718C34.8585 20.0738 33.806 23.157 31.9183 25.716C31.6095 24.4282 30.4492 23.4679 29.068 23.4679H28.2509C26.6345 23.4679 25.3195 24.783 25.3195 26.3993V28.2866C25.3195 29.0323 25.7312 29.859 26.3901 30.4761L24.9409 31.1429ZM30.7628 25.8281H26.5561C26.7951 25.1211 27.4642 24.6105 28.2509 24.6105H29.068C29.8547 24.6105 30.5238 25.1211 30.7628 25.8281ZM26.462 28.2867V26.9707H30.8569V28.2867C30.8569 29.0727 29.8725 30.277 28.6594 30.277C27.4464 30.277 26.462 29.0727 26.462 28.2867Z" fill="white"/>
<path d="M28.106 6.05219H29.2486V7.19476H28.106V6.05219Z" fill="white"/>
<path d="M25.8209 4.90967H26.9635V6.05225H25.8209V4.90967Z" fill="white"/>
<path d="M22.1448 32.846H23.2874V33.9886H22.1448V32.846Z" fill="white"/>
</g>
<defs>
<clipPath id="clip0">
<rect width="39" height="39" fill="white"/>
</clipPath>
</defs>
</svg>
