<svg width="48" height="48" viewBox="0 0 48 48" fill="none" xmlns="http://www.w3.org/2000/svg">
<path d="M33.3352 32.3288L30.75 31.0365V30H31.5C31.6989 30 31.8897 29.921 32.0303 29.7803C32.171 29.6397 32.25 29.4489 32.25 29.25V24.75C32.25 24.5511 32.171 24.3603 32.0303 24.2197C31.8897 24.079 31.6989 24 31.5 24H24.75V21.75C24.7488 20.7558 24.3533 19.8027 23.6503 19.0997C22.9473 18.3967 21.9942 18.0012 21 18V16.5H21.75C21.9489 16.5 22.1397 16.421 22.2803 16.2803C22.421 16.1397 22.5 15.9489 22.5 15.75V11.25C22.5 11.0511 22.421 10.8603 22.2803 10.7197C22.1397 10.579 21.9489 10.5 21.75 10.5H6.75C6.55109 10.5 6.36032 10.579 6.21967 10.7197C6.07902 10.8603 6 11.0511 6 11.25V15.75C6 15.9489 6.07902 16.1397 6.21967 16.2803C6.36032 16.421 6.55109 16.5 6.75 16.5H7.5V18C6.5058 18.0012 5.55267 18.3967 4.84966 19.0997C4.14666 19.8027 3.75119 20.7558 3.75 21.75V42.75C3.75119 43.7442 4.14666 44.6973 4.84966 45.4003C5.55267 46.1033 6.5058 46.4988 7.5 46.5H31.5C32.0967 46.5 32.669 46.2629 33.091 45.841C33.5129 45.419 33.75 44.8467 33.75 44.25V33C33.7501 32.8606 33.7113 32.724 33.638 32.6054C33.5648 32.4869 33.4599 32.3911 33.3352 32.3288ZM23.25 25.5H24.75V27H26.25V25.5H27.75V27H29.25V25.5H30.75V28.5H20.25V25.5H21.75V27H23.25V25.5ZM7.5 12H9V13.5H10.5V12H12V13.5H13.5V12H15V13.5H16.5V12H18V13.5H19.5V12H21V15H7.5V12ZM19.5 16.5V18H9V16.5H19.5ZM5.25 21.75C5.25 21.1533 5.48705 20.581 5.90901 20.159C6.33097 19.7371 6.90326 19.5 7.5 19.5H21C21.5967 19.5 22.169 19.7371 22.591 20.159C23.0129 20.581 23.25 21.1533 23.25 21.75V24H5.25V21.75ZM7.5 45C6.90326 45 6.33097 44.7629 5.90901 44.341C5.48705 43.919 5.25 43.3467 5.25 42.75V39H17.25V44.25C17.2525 44.5061 17.2992 44.7598 17.388 45H7.5ZM17.25 33V37.5H5.25V25.5H18.75V29.25C18.75 29.4489 18.829 29.6397 18.9697 29.7803C19.1103 29.921 19.3011 30 19.5 30H20.25V31.0365L17.6647 32.3288C17.5401 32.3911 17.4352 32.4869 17.362 32.6054C17.2887 32.724 17.2499 32.8606 17.25 33ZM32.25 44.25C32.25 44.4489 32.171 44.6397 32.0303 44.7803C31.8897 44.921 31.6989 45 31.5 45H19.5C19.3011 45 19.1103 44.921 18.9697 44.7803C18.829 44.6397 18.75 44.4489 18.75 44.25V40.5H32.25V44.25ZM32.25 39H18.75V36H32.25V39ZM32.25 34.5H18.75V33.4635L21.3353 32.175C21.4605 32.1124 21.5657 32.016 21.639 31.8967C21.7123 31.7774 21.7508 31.64 21.75 31.5V30H29.25V31.5C29.2492 31.64 29.2877 31.7774 29.361 31.8967C29.4343 32.016 29.5395 32.1124 29.6648 32.175L32.25 33.4635V34.5Z" fill="white"/>
<path d="M15 29.25H13.5V27.75C13.5 27.5511 13.421 27.3603 13.2803 27.2197C13.1397 27.079 12.9489 27 12.75 27H9.75C9.55109 27 9.36032 27.079 9.21967 27.2197C9.07902 27.3603 9 27.5511 9 27.75V29.25H7.5C7.30109 29.25 7.11032 29.329 6.96967 29.4697C6.82902 29.6103 6.75 29.8011 6.75 30V33C6.75 33.1989 6.82902 33.3897 6.96967 33.5303C7.11032 33.671 7.30109 33.75 7.5 33.75H9V35.25C9 35.4489 9.07902 35.6397 9.21967 35.7803C9.36032 35.921 9.55109 36 9.75 36H12.75C12.9489 36 13.1397 35.921 13.2803 35.7803C13.421 35.6397 13.5 35.4489 13.5 35.25V33.75H15C15.1989 33.75 15.3897 33.671 15.5303 33.5303C15.671 33.3897 15.75 33.1989 15.75 33V30C15.75 29.8011 15.671 29.6103 15.5303 29.4697C15.3897 29.329 15.1989 29.25 15 29.25ZM14.25 32.25H12.75C12.5511 32.25 12.3603 32.329 12.2197 32.4697C12.079 32.6103 12 32.8011 12 33V34.5H10.5V33C10.5 32.8011 10.421 32.6103 10.2803 32.4697C10.1397 32.329 9.94891 32.25 9.75 32.25H8.25V30.75H9.75C9.94891 30.75 10.1397 30.671 10.2803 30.5303C10.421 30.3897 10.5 30.1989 10.5 30V28.5H12V30C12 30.1989 12.079 30.3897 12.2197 30.5303C12.3603 30.671 12.5511 30.75 12.75 30.75H14.25V32.25Z" fill="white"/>
<path d="M6.75 21H8.25V22.5H6.75V21Z" fill="white"/>
<path d="M9.75 21H11.25V22.5H9.75V21Z" fill="white"/>
<path d="M29.25 42H30.75V43.5H29.25V42Z" fill="white"/>
<path d="M26.25 42H27.75V43.5H26.25V42Z" fill="white"/>
<path d="M29.2502 17.7409C29.9058 17.7421 30.5552 17.6137 31.161 17.3631C31.7669 17.1125 32.3172 16.7446 32.7805 16.2807L38.7805 10.2807C39.7022 9.34139 40.2158 8.07617 40.2096 6.76019C40.2033 5.44422 39.6778 4.18391 38.7473 3.25336C37.8167 2.32281 36.5564 1.79728 35.2404 1.79107C33.9245 1.78486 32.6592 2.29846 31.72 3.22018L25.72 9.22018C25.0214 9.91813 24.5457 10.8076 24.3529 11.776C24.1601 12.7445 24.2589 13.7484 24.6369 14.6606C25.0148 15.5728 25.6549 16.3525 26.4761 16.9008C27.2973 17.4491 28.2628 17.7415 29.2502 17.7409ZM32.7805 4.28068C33.1046 3.95608 33.4896 3.69857 33.9134 3.52287C34.3372 3.34718 34.7914 3.25674 35.2502 3.25674C35.709 3.25674 36.1632 3.34718 36.587 3.52287C37.0108 3.69857 37.3958 3.95608 37.72 4.28068C38.3737 4.93638 38.7408 5.82452 38.7408 6.75043C38.7408 7.67634 38.3737 8.56448 37.72 9.22018L35.2502 11.6899L30.3107 6.75043L32.7805 4.28068ZM26.7805 10.2807L29.2502 7.81093L34.1897 12.7504L31.72 15.2202C31.0649 15.8752 30.1765 16.2432 29.2502 16.2432C28.3239 16.2432 27.4355 15.8752 26.7805 15.2202C26.1254 14.5652 25.7575 13.6768 25.7575 12.7504C25.7575 11.8241 26.1254 10.9357 26.7805 10.2807Z" fill="white"/>
<path d="M36.2197 7.28095L37.2802 6.22045L36.3105 5.2507C36.0292 4.9695 35.6477 4.81152 35.25 4.81152C34.8522 4.81152 34.4708 4.9695 34.1895 5.2507L32.4697 6.97045L33.5302 8.03095L35.25 6.3112L36.2197 7.28095Z" fill="white"/>
<path d="M42 9.75C41.4067 9.75 40.8266 9.92595 40.3333 10.2556C39.8399 10.5852 39.4554 11.0538 39.2284 11.6019C39.0013 12.1501 38.9419 12.7533 39.0576 13.3353C39.1734 13.9172 39.4591 14.4518 39.8787 14.8713C40.2982 15.2909 40.8328 15.5766 41.4147 15.6924C41.9967 15.8081 42.5999 15.7487 43.1481 15.5216C43.6962 15.2946 44.1648 14.9101 44.4944 14.4167C44.8241 13.9234 45 13.3433 45 12.75C45 11.9544 44.6839 11.1913 44.1213 10.6287C43.5587 10.0661 42.7957 9.75 42 9.75ZM42 14.25C41.7033 14.25 41.4133 14.162 41.1666 13.9972C40.92 13.8324 40.7277 13.5981 40.6142 13.324C40.5007 13.0499 40.4709 12.7483 40.5288 12.4574C40.5867 12.1664 40.7296 11.8991 40.9393 11.6893C41.1491 11.4796 41.4164 11.3367 41.7074 11.2788C41.9983 11.2209 42.2999 11.2506 42.574 11.3642C42.8481 11.4777 43.0824 11.67 43.2472 11.9166C43.412 12.1633 43.5 12.4533 43.5 12.75C43.5 13.1478 43.342 13.5294 43.0607 13.8107C42.7794 14.092 42.3978 14.25 42 14.25Z" fill="white"/>
<path d="M37.5 15.75C36.4616 15.75 35.4466 16.0579 34.5833 16.6348C33.7199 17.2117 33.047 18.0316 32.6496 18.9909C32.2523 19.9502 32.1483 21.0058 32.3509 22.0242C32.5535 23.0426 33.0535 23.9781 33.7877 24.7123C34.5219 25.4465 35.4574 25.9465 36.4758 26.1491C37.4942 26.3517 38.5498 26.2477 39.5091 25.8504C40.4684 25.453 41.2883 24.7801 41.8652 23.9167C42.4421 23.0534 42.75 22.0383 42.75 21C42.7484 19.6081 42.1948 18.2737 41.2106 17.2894C40.2263 16.3052 38.8919 15.7516 37.5 15.75ZM37.5 17.25C38.2348 17.2501 38.9531 17.4675 39.5647 17.8747L34.3748 23.0647C34 22.5003 33.7855 21.8447 33.754 21.1678C33.7225 20.491 33.8753 19.8183 34.1961 19.2215C34.5169 18.6247 34.9936 18.1261 35.5754 17.7789C36.1573 17.4317 36.8224 17.2489 37.5 17.25ZM37.5 24.75C36.7652 24.7498 36.0469 24.5325 35.4353 24.1252L40.6252 18.9352C41 19.4997 41.2145 20.1553 41.246 20.8322C41.2775 21.509 41.1247 22.1817 40.8039 22.7785C40.4831 23.3753 40.0064 23.8739 39.4246 24.2211C38.8427 24.5683 38.1776 24.7511 37.5 24.75Z" fill="white"/>
</svg>
