<svg width="44" height="44" viewBox="0 0 44 44" fill="none" xmlns="http://www.w3.org/2000/svg">
<g clip-path="url(#clip0)">
<path d="M24.9648 6.86678C24.9648 5.23199 23.6348 3.90195 22 3.90195C20.3652 3.90195 19.0352 5.23199 19.0352 6.86678C19.0352 8.50156 20.3652 9.83161 22 9.83161C23.6348 9.83161 24.9648 8.50156 24.9648 6.86678ZM20.3242 6.86678C20.3242 5.94278 21.076 5.191 22 5.191C22.924 5.191 23.6758 5.94278 23.6758 6.86678C23.6758 7.79077 22.924 8.54255 22 8.54255C21.076 8.54255 20.3242 7.79077 20.3242 6.86678ZM41.11 16.638C42.6018 16.7313 44.0126 15.6465 43.9999 14.0599V12.1263C43.9893 11.9416 43.9285 11.7076 43.6613 11.5589L23.5625 0.416592C22.5842 -0.125843 21.4159 -0.125843 20.4375 0.416592L12.3285 4.91214C12.0171 5.0847 11.9046 5.477 12.0773 5.78835C12.2498 6.0997 12.6422 6.21228 12.9535 6.03955L21.0625 1.544C21.6497 1.21856 22.3506 1.21864 22.9376 1.544L40.8636 11.4818H3.13655L10.2931 7.51431C10.6044 7.34175 10.7169 6.94945 10.5442 6.6381C10.3717 6.32675 9.97938 6.21426 9.66803 6.3869L0.338867 11.5589C0.190711 11.6457 -0.00247563 11.8313 0.000102482 12.1263V14.0599C-0.0136475 15.5775 1.35825 16.8037 2.89 16.638L5.15633 19.8281V35.6458L2.89 38.8358H1.504C0.674795 38.8358 0.000102482 39.5105 0.000102482 40.3397V42.4882C0.000102482 43.3174 0.674795 43.9921 1.504 43.9921H42.496C43.3252 43.9921 43.9999 43.3174 43.9999 42.4882V40.3397C43.9999 39.5105 43.3252 38.8358 42.496 38.8358H41.11L38.8437 35.6458V19.8281L41.11 16.638ZM2.57822 15.3489C1.86743 15.3489 1.28916 14.7707 1.28916 14.0599V12.7708H42.7109V14.0599C42.7109 14.7707 42.1326 15.3489 41.4218 15.3489H2.57822ZM33.0214 28.2904C33.3774 28.2904 33.6659 28.0018 33.6659 27.6459V20.267H37.5546V35.207H33.6659V30.6537C33.6659 30.2977 33.3774 30.0091 33.0214 30.0091C32.6653 30.0091 32.3768 30.2977 32.3768 30.6537V35.6458L30.1105 38.8358H13.8896L11.6233 35.6458V19.8281L13.8896 16.638H30.1106L32.3769 19.8281V27.6459C32.3768 28.0018 32.6654 28.2904 33.0214 28.2904ZM4.47133 16.638H12.3084L10.6461 18.9779H6.13361L4.47133 16.638ZM10.3342 20.267V35.207H6.44539V20.267H10.3342ZM6.13361 36.496H10.646L12.3083 38.8358H4.47133L6.13361 36.496ZM42.496 40.1249C42.6145 40.1249 42.7109 40.2213 42.7109 40.3397V42.4882C42.7109 42.6066 42.6145 42.703 42.496 42.703H1.504C1.38558 42.703 1.28916 42.6066 1.28916 42.4882V40.3397C1.28916 40.2213 1.38558 40.1249 1.504 40.1249H42.496ZM39.5288 38.8358H31.6918L33.3542 36.496H37.8665L39.5288 38.8358ZM37.8664 18.9779H33.3541L31.6918 16.638H39.5287L37.8664 18.9779Z" fill="white"/>
</g>
<defs>
<clipPath id="clip0">
<rect width="44" height="44" fill="white"/>
</clipPath>
</defs>
</svg>
