<svg width="780" height="663" viewBox="0 0 780 663" fill="none" xmlns="http://www.w3.org/2000/svg">
<g clip-path="url(#clip0)">
<path opacity="0.5" d="M383.352 662.359C555.298 662.359 694.687 523.081 694.687 351.274C694.687 179.466 555.298 40.1885 383.352 40.1885C211.406 40.1885 72.0166 179.466 72.0166 351.274C72.0166 523.081 211.406 662.359 383.352 662.359Z" fill="#2A365C"/>
<path d="M388.338 364.558C476.147 364.558 547.33 292.689 547.33 204.034C547.33 115.379 476.147 43.5098 388.338 43.5098C300.529 43.5098 229.347 115.379 229.347 204.034C229.347 292.689 300.529 364.558 388.338 364.558Z" fill="#2F3C64"/>
<path d="M383.352 638.002C440.259 638.002 486.392 591.907 486.392 535.046C486.392 478.183 440.259 432.088 383.352 432.088C326.445 432.088 280.312 478.183 280.312 535.046C280.312 591.907 326.445 638.002 383.352 638.002Z" fill="#2F3C64"/>
<path d="M338.228 208.466H329.613V214.697H339.608V217.318H326.326V197.643H339.513V200.277H329.613V205.831H338.228V208.466ZM344.95 202.696L345.14 204.804C345.618 204.057 346.217 203.475 346.938 203.061C347.669 202.638 348.49 202.426 349.4 202.426C350.924 202.426 352.11 202.89 352.957 203.818C353.813 204.737 354.242 206.173 354.242 208.129V217.318H350.955V208.156C350.955 207.057 350.726 206.277 350.266 205.818C349.815 205.35 349.125 205.115 348.197 205.115C347.556 205.115 346.983 205.259 346.479 205.548C345.974 205.827 345.56 206.214 345.235 206.709V217.318H341.947V202.696H344.95ZM361.748 199.142V202.696H364.372V205.128H361.748V213.21C361.748 213.814 361.878 214.246 362.14 214.508C362.401 214.76 362.749 214.886 363.181 214.886C363.362 214.886 363.538 214.872 363.709 214.845C363.88 214.809 364.043 214.764 364.196 214.71L364.548 217.116C364.268 217.269 363.935 217.386 363.547 217.466C363.159 217.557 362.758 217.601 362.344 217.601C361.135 217.601 360.188 217.251 359.503 216.548C358.818 215.836 358.475 214.723 358.475 213.21V205.128H356.243V202.696H358.475V199.142H361.748ZM374.584 205.655L373.176 205.602C372.537 205.602 371.999 205.737 371.568 206.008C371.143 206.277 370.814 206.661 370.58 207.156V217.318H367.293V202.696H370.296L370.513 204.818C370.881 204.07 371.356 203.484 371.932 203.061C372.518 202.638 373.191 202.426 373.947 202.426C374.146 202.426 374.331 202.443 374.502 202.48C374.673 202.507 374.831 202.543 374.976 202.588L374.584 205.655ZM383.171 217.601C381.098 217.601 379.442 216.926 378.207 215.575C376.982 214.214 376.368 212.471 376.368 210.345V209.804C376.368 207.678 376.978 205.917 378.194 204.521C379.42 203.115 380.953 202.417 382.793 202.426C384.768 202.426 386.278 203.025 387.324 204.223C388.378 205.413 388.906 207.012 388.906 209.021V210.953H379.776L379.75 211.021C379.804 212.183 380.142 213.133 380.765 213.872C381.395 214.612 382.266 214.98 383.375 214.98C384.258 214.98 385.016 214.872 385.646 214.656C386.278 214.44 386.886 214.129 387.472 213.723L388.527 215.872C387.977 216.358 387.247 216.769 386.336 217.102C385.426 217.436 384.371 217.601 383.171 217.601ZM382.793 205.061C381.981 205.061 381.314 205.386 380.791 206.034C380.268 206.674 379.944 207.488 379.817 208.481L379.844 208.548H385.646V208.21C385.646 207.282 385.408 206.526 384.93 205.94C384.46 205.354 383.748 205.061 382.793 205.061ZM404.379 210.493C404.379 212.62 403.878 214.336 402.877 215.642C401.876 216.948 400.483 217.601 398.698 217.601C397.868 217.601 397.133 217.453 396.493 217.156C395.854 216.859 395.303 216.421 394.843 215.845V222.94H391.557V202.696H394.329L394.654 204.534C395.123 203.85 395.686 203.327 396.345 202.966C397.012 202.607 397.783 202.426 398.657 202.426C400.461 202.426 401.863 203.143 402.864 204.575C403.873 205.999 404.379 207.876 404.379 210.21V210.493ZM401.105 210.21C401.105 208.715 400.822 207.493 400.253 206.548C399.694 205.592 398.856 205.115 397.738 205.115C397.053 205.115 396.471 205.263 395.993 205.561C395.515 205.849 395.131 206.255 394.843 206.778V213.386C395.131 213.9 395.515 214.296 395.993 214.575C396.471 214.845 397.062 214.98 397.765 214.98C398.883 214.98 399.718 214.571 400.267 213.751C400.826 212.922 401.105 211.836 401.105 210.493V210.21ZM414.536 205.655L413.129 205.602C412.489 205.602 411.952 205.737 411.519 206.008C411.096 206.277 410.767 206.661 410.532 207.156V217.318H407.246V202.696H410.248L410.464 204.818C410.834 204.07 411.308 203.484 411.885 203.061C412.471 202.638 413.142 202.426 413.9 202.426C414.099 202.426 414.283 202.443 414.454 202.48C414.626 202.507 414.784 202.543 414.928 202.588L414.536 205.655ZM420.352 217.318H417.065V202.696H420.352V217.318ZM420.352 199.115H417.065V196.236H420.352V199.115ZM432.267 213.345C432.267 212.84 432.051 212.422 431.617 212.089C431.184 211.755 430.378 211.462 429.197 211.209C427.447 210.841 426.122 210.318 425.221 209.642C424.327 208.958 423.882 208.03 423.882 206.859C423.882 205.633 424.4 204.588 425.436 203.724C426.473 202.858 427.839 202.426 429.535 202.426C431.319 202.426 432.735 202.868 433.782 203.75C434.836 204.625 435.342 205.709 435.296 207.007L435.269 207.088H432.118C432.118 206.485 431.888 205.967 431.428 205.534C430.968 205.102 430.337 204.886 429.535 204.886C428.742 204.886 428.137 205.065 427.722 205.427C427.308 205.777 427.1 206.21 427.1 206.724C427.1 207.238 427.294 207.647 427.682 207.954C428.079 208.251 428.876 208.516 430.075 208.751C431.916 209.129 433.276 209.665 434.161 210.358C435.053 211.044 435.498 211.98 435.498 213.169C435.498 214.486 434.954 215.553 433.862 216.373C432.781 217.192 431.351 217.601 429.576 217.601C427.673 217.601 426.172 217.116 425.072 216.143C423.971 215.169 423.449 214.052 423.503 212.792L423.529 212.71H426.586C426.623 213.556 426.929 214.174 427.506 214.562C428.083 214.949 428.787 215.143 429.615 215.143C430.463 215.143 431.117 214.98 431.576 214.656C432.036 214.332 432.267 213.896 432.267 213.345ZM444.737 217.601C442.663 217.601 441.008 216.926 439.773 215.575C438.547 214.214 437.934 212.471 437.934 210.345V209.804C437.934 207.678 438.542 205.917 439.76 204.521C440.985 203.115 442.518 202.417 444.358 202.426C446.332 202.426 447.842 203.025 448.888 204.223C449.944 205.413 450.472 207.012 450.472 209.021V210.953H441.342L441.314 211.021C441.368 212.183 441.706 213.133 442.329 213.872C442.96 214.612 443.831 214.98 444.94 214.98C445.823 214.98 446.581 214.872 447.212 214.656C447.842 214.44 448.452 214.129 449.038 213.723L450.093 215.872C449.542 216.358 448.812 216.769 447.901 217.102C446.99 217.436 445.935 217.601 444.737 217.601ZM444.358 205.061C443.547 205.061 442.878 205.386 442.356 206.034C441.833 206.674 441.508 207.488 441.382 208.481L441.409 208.548H447.212V208.21C447.212 207.282 446.973 206.526 446.495 205.94C446.026 205.354 445.314 205.061 444.358 205.061Z" fill="white"/>
<path d="M329.681 542.347C329.158 543.095 328.296 543.775 327.097 544.387C325.908 544.991 324.374 545.293 322.499 545.293C320.127 545.293 318.176 544.545 316.643 543.05C315.111 541.545 314.344 539.604 314.344 537.225V533.117C314.344 530.738 315.065 528.801 316.507 527.306C317.959 525.801 319.83 525.049 322.12 525.049C324.437 525.049 326.236 525.621 327.516 526.766C328.805 527.901 329.464 529.382 329.492 531.212L329.464 531.293H326.354C326.282 530.211 325.894 529.341 325.191 528.684C324.496 528.018 323.486 527.684 322.161 527.684C320.799 527.684 319.7 528.193 318.861 529.211C318.031 530.23 317.616 531.521 317.616 533.089V537.225C317.616 538.81 318.067 540.117 318.97 541.144C319.88 542.161 321.057 542.671 322.499 542.671C323.527 542.671 324.361 542.554 325.001 542.32C325.641 542.076 326.105 541.793 326.394 541.469V537.468H322.485V535.009H329.681V542.347ZM332.697 537.563C332.697 535.392 333.292 533.607 334.482 532.211C335.691 530.815 337.327 530.117 339.392 530.117C341.492 530.117 343.138 530.815 344.328 532.211C345.527 533.599 346.126 535.383 346.126 537.563V537.847C346.126 540.045 345.527 541.838 344.328 543.226C343.138 544.604 341.502 545.293 339.419 545.293C337.327 545.293 335.681 544.599 334.482 543.211C333.292 541.824 332.697 540.036 332.697 537.847V537.563ZM335.983 537.847C335.983 539.27 336.262 540.432 336.822 541.334C337.371 542.224 338.238 542.671 339.419 542.671C340.564 542.671 341.42 542.224 341.988 541.334C342.566 540.432 342.854 539.27 342.854 537.847V537.563C342.854 536.167 342.566 535.018 341.988 534.117C341.42 533.206 340.555 532.752 339.392 532.752C338.247 532.752 337.39 533.206 336.822 534.117C336.262 535.027 335.983 536.176 335.983 537.563V537.847ZM353.863 540.063L354.107 541.252H354.188L354.445 540.063L357.352 530.387H360.747L355.554 545.009H352.7L347.479 530.387H350.874L353.863 540.063ZM368.903 545.293C366.829 545.293 365.174 544.617 363.939 543.265C362.713 541.905 362.1 540.163 362.1 538.036V537.496C362.1 535.369 362.708 533.607 363.926 532.211C365.152 530.805 366.684 530.108 368.524 530.117C370.498 530.117 372.01 530.716 373.055 531.914C374.11 533.104 374.638 534.702 374.638 536.711V538.643H365.508L365.481 538.712C365.534 539.873 365.874 540.825 366.495 541.563C367.126 542.302 367.996 542.671 369.105 542.671C369.99 542.671 370.747 542.564 371.378 542.347C372.01 542.131 372.617 541.82 373.204 541.415L374.259 543.564C373.709 544.05 372.977 544.46 372.067 544.793C371.157 545.126 370.101 545.293 368.903 545.293ZM368.524 532.752C367.713 532.752 367.046 533.076 366.523 533.725C366 534.364 365.675 535.18 365.549 536.171L365.575 536.239H371.378V535.9C371.378 534.972 371.139 534.216 370.661 533.631C370.192 533.045 369.48 532.752 368.524 532.752ZM384.578 533.347L383.171 533.293C382.532 533.293 381.995 533.428 381.562 533.698C381.138 533.969 380.809 534.351 380.575 534.846V545.009H377.288V530.387H380.29L380.508 532.508C380.877 531.761 381.351 531.176 381.927 530.753C382.513 530.328 383.186 530.117 383.942 530.117C384.14 530.117 384.326 530.135 384.497 530.171C384.668 530.198 384.826 530.234 384.97 530.278L384.578 533.347ZM389.866 530.387L390.055 532.495C390.534 531.748 391.132 531.167 391.854 530.753C392.585 530.328 393.405 530.117 394.316 530.117C395.839 530.117 397.025 530.581 397.873 531.508C398.73 532.427 399.158 533.864 399.158 535.819V545.009H395.871V535.847C395.871 534.748 395.641 533.969 395.181 533.509C394.731 533.041 394.041 532.806 393.112 532.806C392.473 532.806 391.899 532.95 391.394 533.239C390.89 533.518 390.475 533.905 390.15 534.4V545.009H386.864V530.387H389.866ZM405.582 530.387L405.758 532.293C406.235 531.599 406.836 531.062 407.557 530.685C408.278 530.306 409.113 530.117 410.059 530.117C411.015 530.117 411.835 530.333 412.52 530.766C413.205 531.198 413.72 531.846 414.062 532.711C414.513 531.9 415.107 531.265 415.848 530.805C416.587 530.346 417.452 530.117 418.444 530.117C419.914 530.117 421.073 530.622 421.921 531.63C422.777 532.63 423.204 534.153 423.204 536.198V545.009H419.919V536.185C419.919 534.941 419.702 534.067 419.269 533.563C418.846 533.058 418.205 532.806 417.349 532.806C416.645 532.806 416.051 532.995 415.563 533.374C415.077 533.752 414.724 534.26 414.509 534.9C414.509 535.036 414.513 535.153 414.522 535.253C414.531 535.351 414.536 535.445 414.536 535.536V545.009H411.248V536.185C411.248 534.986 411.029 534.126 410.586 533.603C410.153 533.072 409.514 532.806 408.666 532.806C407.998 532.806 407.43 532.937 406.962 533.198C406.502 533.451 406.137 533.81 405.866 534.279V545.009H402.58V530.387H405.582ZM432.957 545.293C430.883 545.293 429.228 544.617 427.993 543.265C426.766 541.905 426.153 540.163 426.153 538.036V537.496C426.153 535.369 426.762 533.607 427.979 532.211C429.206 530.805 430.739 530.108 432.578 530.117C434.552 530.117 436.062 530.716 437.108 531.914C438.163 533.104 438.69 534.702 438.69 536.711V538.643H429.562L429.534 538.712C429.589 539.873 429.927 540.825 430.549 541.563C431.18 542.302 432.051 542.671 433.16 542.671C434.043 542.671 434.8 542.564 435.431 542.347C436.062 542.131 436.671 541.82 437.257 541.415L438.311 543.564C437.762 544.05 437.032 544.46 436.121 544.793C435.21 545.126 434.155 545.293 432.957 545.293ZM432.578 532.752C431.765 532.752 431.099 533.076 430.576 533.725C430.053 534.364 429.728 535.18 429.602 536.171L429.63 536.239H435.431V535.9C435.431 534.972 435.193 534.216 434.714 533.631C434.246 533.045 433.533 532.752 432.578 532.752ZM444.317 530.387L444.506 532.495C444.985 531.748 445.584 531.167 446.306 530.753C447.036 530.328 447.857 530.117 448.767 530.117C450.291 530.117 451.476 530.581 452.324 531.508C453.18 532.427 453.609 533.864 453.609 535.819V545.009H450.322V535.847C450.322 534.748 450.092 533.969 449.632 533.509C449.182 533.041 448.491 532.806 447.563 532.806C446.922 532.806 446.351 532.95 445.846 533.239C445.34 533.518 444.926 533.905 444.601 534.4V545.009H441.314V530.387H444.317ZM461.116 526.833V530.387H463.739V532.82H461.116V540.901C461.116 541.504 461.246 541.937 461.508 542.198C461.77 542.451 462.116 542.577 462.548 542.577C462.728 542.577 462.905 542.564 463.077 542.536C463.248 542.501 463.41 542.455 463.563 542.401L463.914 544.807C463.635 544.959 463.302 545.076 462.914 545.158C462.526 545.249 462.125 545.293 461.71 545.293C460.502 545.293 459.556 544.941 458.869 544.239C458.185 543.527 457.842 542.414 457.842 540.901V532.82H455.61V530.387H457.842V526.833H461.116Z" fill="white"/>
<path d="M219.375 334.667C273.223 334.667 316.875 291.05 316.875 237.245C316.875 183.44 273.223 139.823 219.375 139.823C165.527 139.823 121.875 183.44 121.875 237.245C121.875 291.05 165.527 334.667 219.375 334.667Z" fill="#384671"/>
<path d="M152.738 243.887V224.212H159.283C161.467 224.212 163.17 224.661 164.396 225.563C165.623 226.455 166.236 227.792 166.236 229.577C166.236 230.467 165.979 231.266 165.465 231.968C164.951 232.671 164.239 233.193 163.328 233.536C164.5 233.796 165.402 234.36 166.033 235.225C166.664 236.09 166.98 237.095 166.98 238.238C166.98 240.086 166.376 241.491 165.167 242.455C163.959 243.41 162.291 243.887 160.163 243.887H152.738ZM156.024 234.941V241.266H160.163C161.299 241.266 162.174 241.009 162.787 240.495C163.4 239.973 163.707 239.222 163.707 238.238C163.707 237.193 163.45 236.383 162.936 235.806C162.421 235.229 161.619 234.941 160.528 234.941H156.024ZM156.024 232.495H159.649C160.668 232.495 161.471 232.256 162.057 231.779C162.652 231.293 162.949 230.608 162.949 229.725C162.949 228.752 162.639 228.031 162.016 227.563C161.394 227.086 160.483 226.847 159.283 226.847H156.024V232.495ZM173.566 243.887H170.279V222.806H173.566V243.887ZM176.65 236.442C176.65 234.271 177.245 232.486 178.435 231.09C179.644 229.694 181.28 228.996 183.344 228.996C185.446 228.996 187.091 229.694 188.281 231.09C189.48 232.477 190.081 234.262 190.081 236.442V236.725C190.081 238.923 189.48 240.716 188.281 242.104C187.091 243.482 185.455 244.171 183.372 244.171C181.28 244.171 179.635 243.478 178.435 242.09C177.245 240.703 176.65 238.914 176.65 236.725V236.442ZM179.936 236.725C179.936 238.149 180.216 239.311 180.775 240.212C181.325 241.103 182.19 241.549 183.372 241.549C184.517 241.549 185.374 241.103 185.941 240.212C186.519 239.311 186.806 238.149 186.806 236.725V236.442C186.806 235.045 186.519 233.896 185.941 232.995C185.374 232.085 184.507 231.63 183.344 231.63C182.199 231.63 181.343 232.085 180.775 232.995C180.216 233.905 179.936 235.054 179.936 236.442V236.725ZM198.993 241.549C199.795 241.549 200.472 241.316 201.021 240.847C201.571 240.369 201.847 239.775 201.847 239.063H204.822L204.85 239.144C204.894 240.513 204.336 241.693 203.172 242.685C202.018 243.676 200.625 244.171 198.993 244.171C196.838 244.171 195.184 243.478 194.029 242.09C192.883 240.703 192.312 238.946 192.312 236.82V236.346C192.312 234.23 192.883 232.477 194.029 231.09C195.184 229.694 196.838 228.996 198.993 228.996C200.751 228.996 202.176 229.509 203.266 230.535C204.367 231.554 204.898 232.851 204.863 234.427L204.835 234.509H201.847C201.847 233.707 201.581 233.028 201.048 232.468C200.525 231.911 199.84 231.63 198.993 231.63C197.758 231.63 196.883 232.081 196.369 232.982C195.855 233.874 195.598 234.995 195.598 236.346V236.82C195.598 238.198 195.855 239.333 196.369 240.226C196.883 241.107 197.758 241.549 198.993 241.549ZM212.26 237.496H210.787V243.887H207.513V222.806H210.787V234.861H212.152L215.844 229.265H219.712L214.884 235.915L220.429 243.887H216.616L212.26 237.496ZM227.746 241.549C228.548 241.549 229.226 241.316 229.775 240.847C230.326 240.369 230.6 239.775 230.6 239.063H233.575L233.603 239.144C233.647 240.513 233.089 241.693 231.926 242.685C230.771 243.676 229.378 244.171 227.746 244.171C225.592 244.171 223.937 243.478 222.783 242.09C221.638 240.703 221.066 238.946 221.066 236.82V236.346C221.066 234.23 221.638 232.477 222.783 231.09C223.937 229.694 225.592 228.996 227.746 228.996C229.505 228.996 230.929 229.509 232.021 230.535C233.12 231.554 233.653 232.851 233.616 234.427L233.59 234.509H230.6C230.6 233.707 230.335 233.028 229.803 232.468C229.28 231.911 228.594 231.63 227.746 231.63C226.511 231.63 225.637 232.081 225.123 232.982C224.609 233.874 224.351 234.995 224.351 236.346V236.82C224.351 238.198 224.609 239.333 225.123 240.226C225.637 241.107 226.511 241.549 227.746 241.549ZM239.5 231.158C239.988 230.472 240.578 229.94 241.271 229.564C241.975 229.185 242.751 228.996 243.598 228.996C245.149 228.996 246.357 229.486 247.222 230.467C248.098 231.441 248.534 232.946 248.534 234.982V243.887H245.247V234.954C245.247 233.801 245.019 232.969 244.558 232.455C244.098 231.941 243.409 231.684 242.489 231.684C241.849 231.684 241.271 231.82 240.757 232.089C240.253 232.351 239.833 232.716 239.5 233.184V243.887H236.214V222.806H239.5V231.158ZM260.747 243.887C260.631 243.518 260.531 243.158 260.45 242.806C260.378 242.455 260.328 242.104 260.3 241.752C259.851 242.438 259.255 243.014 258.516 243.482C257.786 243.942 256.965 244.171 256.053 244.171C254.53 244.171 253.358 243.779 252.538 242.996C251.726 242.211 251.32 241.135 251.32 239.766C251.32 238.351 251.88 237.252 252.998 236.468C254.116 235.676 255.689 235.279 257.718 235.279H260.274V233.995C260.274 233.23 260.049 232.631 259.598 232.198C259.147 231.766 258.503 231.549 257.663 231.549C256.915 231.549 256.321 231.73 255.879 232.089C255.437 232.451 255.216 232.915 255.216 233.483H252.051L252.037 233.401C251.974 232.248 252.488 231.225 253.58 230.333C254.679 229.441 256.108 228.996 257.866 228.996C259.57 228.996 260.945 229.427 261.992 230.293C263.037 231.158 263.56 232.401 263.56 234.023V240.522C263.56 241.126 263.601 241.708 263.682 242.265C263.763 242.816 263.894 243.356 264.074 243.887H260.747ZM256.717 241.536C257.546 241.536 258.291 241.33 258.949 240.914C259.616 240.5 260.058 240.027 260.274 239.496V237.333H257.663C256.707 237.333 255.959 237.572 255.419 238.05C254.877 238.519 254.607 239.072 254.607 239.712C254.607 240.271 254.787 240.716 255.149 241.05C255.517 241.374 256.04 241.536 256.717 241.536ZM270.513 243.887H267.225V229.265H270.513V243.887ZM270.513 225.684H267.225V222.806H270.513V225.684ZM277.18 229.265L277.369 231.373C277.848 230.626 278.446 230.045 279.168 229.631C279.898 229.207 280.719 228.996 281.629 228.996C283.153 228.996 284.338 229.459 285.187 230.387C286.044 231.306 286.472 232.742 286.472 234.698V243.887H283.185V234.726C283.185 233.626 282.955 232.847 282.495 232.388C282.044 231.919 281.355 231.684 280.426 231.684C279.786 231.684 279.213 231.829 278.708 232.117C278.204 232.397 277.788 232.783 277.464 233.278V243.887H274.178V229.265H277.18Z" fill="white"/>
<path d="M557.302 334.667C611.149 334.667 654.802 291.05 654.802 237.245C654.802 183.44 611.149 139.823 557.302 139.823C503.454 139.823 459.802 183.44 459.802 237.245C459.802 291.05 503.454 334.667 557.302 334.667Z" fill="#384671"/>
<path d="M488.189 238.834C488.189 238.014 487.882 237.343 487.269 236.82C486.666 236.298 485.592 235.83 484.051 235.414C481.85 234.837 480.155 234.077 478.965 233.13C477.784 232.176 477.193 230.927 477.193 229.387C477.193 227.802 477.847 226.496 479.154 225.468C480.471 224.441 482.166 223.928 484.24 223.928C486.404 223.928 488.14 224.509 489.447 225.671C490.763 226.834 491.399 228.229 491.355 229.86L491.327 229.94H488.176C488.176 228.932 487.834 228.116 487.148 227.495C486.463 226.864 485.485 226.548 484.213 226.548C483.013 226.548 482.09 226.81 481.44 227.333C480.8 227.855 480.48 228.532 480.48 229.359C480.48 230.108 480.827 230.729 481.521 231.225C482.225 231.721 483.384 232.189 484.997 232.631C487.117 233.198 488.725 233.982 489.826 234.982C490.926 235.982 491.475 237.256 491.475 238.806C491.475 240.446 490.818 241.752 489.501 242.725C488.194 243.69 486.471 244.171 484.335 244.171C482.279 244.171 480.476 243.631 478.924 242.551C477.375 241.46 476.621 239.968 476.666 238.077L476.693 237.996H479.858C479.858 239.194 480.272 240.09 481.102 240.685C481.932 241.271 483.009 241.563 484.335 241.563C485.552 241.563 486.498 241.32 487.175 240.833C487.851 240.339 488.189 239.671 488.189 238.834ZM503.634 241.752C503.174 242.527 502.594 243.126 501.89 243.55C501.186 243.964 500.375 244.171 499.456 244.171C497.887 244.171 496.661 243.672 495.776 242.671C494.893 241.671 494.451 240.117 494.451 238.009V229.265H497.724V238.036C497.724 239.315 497.931 240.212 498.347 240.726C498.761 241.239 499.387 241.495 500.226 241.495C501.019 241.495 501.683 241.356 502.215 241.077C502.755 240.789 503.179 240.374 503.485 239.834V229.265H506.773V243.887H503.905L503.634 241.752ZM523.029 237.062C523.029 239.189 522.529 240.905 521.527 242.211C520.527 243.518 519.135 244.171 517.348 244.171C516.52 244.171 515.784 244.022 515.144 243.726C514.504 243.428 513.953 242.991 513.493 242.414V249.509H510.208V229.265H512.981L513.305 231.103C513.774 230.419 514.336 229.896 514.995 229.536C515.663 229.176 516.433 228.996 517.308 228.996C519.111 228.996 520.513 229.712 521.514 231.144C522.524 232.568 523.029 234.445 523.029 236.779V237.062ZM519.755 236.779C519.755 235.284 519.472 234.063 518.904 233.117C518.346 232.161 517.506 231.684 516.389 231.684C515.703 231.684 515.121 231.833 514.644 232.13C514.166 232.419 513.783 232.824 513.493 233.347V239.955C513.783 240.469 514.166 240.866 514.644 241.144C515.121 241.415 515.712 241.549 516.416 241.549C517.534 241.549 518.368 241.14 518.917 240.32C519.477 239.491 519.755 238.405 519.755 237.062V236.779ZM538.718 237.062C538.718 239.189 538.218 240.905 537.217 242.211C536.216 243.518 534.823 244.171 533.038 244.171C532.208 244.171 531.473 244.022 530.833 243.726C530.192 243.428 529.643 242.991 529.184 242.414V249.509H525.896V229.265H528.669L528.994 231.103C529.462 230.419 530.025 229.896 530.684 229.536C531.351 229.176 532.123 228.996 532.997 228.996C534.801 228.996 536.202 229.712 537.202 231.144C538.213 232.568 538.718 234.445 538.718 236.779V237.062ZM535.445 236.779C535.445 235.284 535.161 234.063 534.593 233.117C534.034 232.161 533.195 231.684 532.077 231.684C531.391 231.684 530.81 231.833 530.333 232.13C529.854 232.419 529.471 232.824 529.184 233.347V239.955C529.471 240.469 529.854 240.866 530.333 241.144C530.81 241.415 531.401 241.549 532.104 241.549C533.222 241.549 534.056 241.14 534.607 240.32C535.165 239.491 535.445 238.405 535.445 237.062V236.779ZM545.088 243.887H541.802V222.806H545.088V243.887ZM553.636 238.023L553.961 239.482H554.042L557.247 229.265H560.844L554.785 246.104C554.399 247.123 553.852 247.991 553.149 248.712C552.446 249.433 551.449 249.793 550.161 249.793C549.89 249.793 549.596 249.766 549.281 249.712C548.975 249.658 548.677 249.594 548.389 249.522L548.753 246.982C548.87 246.992 549.038 247.005 549.254 247.023C549.47 247.041 549.633 247.049 549.741 247.049C550.335 247.049 550.809 246.847 551.16 246.442C551.522 246.036 551.814 245.568 552.04 245.037L552.581 243.712L547.265 229.265H550.85L553.636 238.023ZM584.499 237.361L584.527 237.441C584.562 239.433 583.913 241.055 582.579 242.306C581.254 243.55 579.455 244.171 577.182 244.171C574.883 244.171 573.013 243.401 571.569 241.861C570.136 240.311 569.42 238.333 569.42 235.928V232.185C569.42 229.788 570.127 227.815 571.543 226.266C572.968 224.707 574.816 223.928 577.088 223.928C579.414 223.928 581.245 224.541 582.579 225.765C583.923 226.982 584.577 228.621 584.541 230.685L584.513 230.766H581.334C581.334 229.441 580.973 228.41 580.253 227.671C579.54 226.932 578.485 226.563 577.088 226.563C575.744 226.563 574.676 227.094 573.883 228.157C573.098 229.22 572.706 230.554 572.706 232.157V235.928C572.706 237.55 573.107 238.891 573.909 239.955C574.721 241.018 575.811 241.549 577.182 241.549C578.544 241.549 579.577 241.185 580.28 240.454C580.983 239.725 581.334 238.693 581.334 237.361H584.499ZM590.572 231.158C591.059 230.472 591.65 229.94 592.344 229.564C593.047 229.185 593.823 228.996 594.67 228.996C596.222 228.996 597.429 229.486 598.295 230.467C599.169 231.441 599.607 232.946 599.607 234.982V243.887H596.32V234.954C596.32 233.801 596.09 232.969 595.63 232.455C595.171 231.941 594.48 231.684 593.561 231.684C592.92 231.684 592.344 231.82 591.83 232.089C591.325 232.351 590.905 232.716 590.572 233.184V243.887H587.286V222.806H590.572V231.158ZM611.82 243.887C611.703 243.518 611.603 243.158 611.522 242.806C611.45 242.455 611.4 242.104 611.374 241.752C610.923 242.438 610.328 243.014 609.587 243.482C608.857 243.942 608.037 244.171 607.127 244.171C605.602 244.171 604.43 243.779 603.61 242.996C602.798 242.211 602.393 241.135 602.393 239.766C602.393 238.351 602.952 237.252 604.07 236.468C605.188 235.676 606.761 235.279 608.79 235.279H611.346V233.995C611.346 233.23 611.121 232.631 610.67 232.198C610.219 231.766 609.574 231.549 608.735 231.549C607.988 231.549 607.393 231.73 606.951 232.089C606.508 232.451 606.288 232.915 606.288 233.483H603.123L603.11 233.401C603.046 232.248 603.561 231.225 604.652 230.333C605.752 229.441 607.181 228.996 608.939 228.996C610.644 228.996 612.018 229.427 613.064 230.293C614.11 231.158 614.633 232.401 614.633 234.023V240.522C614.633 241.126 614.673 241.708 614.754 242.265C614.836 242.816 614.967 243.356 615.146 243.887H611.82ZM607.79 241.536C608.62 241.536 609.363 241.33 610.02 240.914C610.688 240.5 611.13 240.027 611.346 239.496V237.333H608.735C607.781 237.333 607.032 237.572 606.491 238.05C605.95 238.519 605.68 239.072 605.68 239.712C605.68 240.271 605.86 240.716 606.221 241.05C606.59 241.374 607.112 241.536 607.79 241.536ZM621.584 243.887H618.299V229.265H621.584V243.887ZM621.584 225.684H618.299V222.806H621.584V225.684ZM628.252 229.265L628.442 231.373C628.919 230.626 629.519 230.045 630.241 229.631C630.971 229.207 631.791 228.996 632.702 228.996C634.226 228.996 635.412 229.459 636.259 230.387C637.116 231.306 637.544 232.742 637.544 234.698V243.887H634.257V234.726C634.257 233.626 634.027 232.847 633.567 232.388C633.117 231.919 632.427 231.684 631.499 231.684C630.858 231.684 630.285 231.829 629.78 232.117C629.276 232.397 628.86 232.783 628.535 233.278V243.887H625.25V229.265H628.252Z" fill="white"/>
<path d="M218.267 1.44047L562.84 1.44043" stroke="#626A84" stroke-width="2"/>
<path d="M260.044 544.685C260.478 544.253 260.478 543.551 260.044 543.12L252.994 536.074C252.562 535.641 251.859 535.641 251.427 536.074C250.993 536.506 250.993 537.208 251.427 537.639L257.694 543.902L251.427 550.164C250.993 550.596 250.993 551.299 251.427 551.73C251.859 552.163 252.562 552.163 252.994 551.73L260.044 544.685ZM0 545.009H259.261V542.795H1.93721e-07L0 545.009Z" fill="#626A84"/>
<path d="M84.988 208.137C85.4202 207.705 85.4202 207.003 84.988 206.571L77.9369 199.526C77.5043 199.093 76.8028 199.093 76.3701 199.526C75.9375 199.958 75.9375 200.66 76.3701 201.092L82.6373 207.354L76.3701 213.617C75.9375 214.049 75.9375 214.75 76.3701 215.182C76.8028 215.615 77.5043 215.615 77.9369 215.182L84.988 208.137ZM0 208.461H84.2047V206.248H1.93721e-07L0 208.461Z" fill="#626A84"/>
<path d="M1.1084 545.01L1.10842 206.248" stroke="#626A84" stroke-width="2"/>
<path d="M683.932 206.571C683.499 207.003 683.499 207.705 683.932 208.137L690.983 215.182C691.415 215.615 692.118 215.615 692.55 215.182C692.983 214.75 692.983 214.049 692.55 213.617L686.282 207.354L692.55 201.092C692.983 200.66 692.983 199.958 692.55 199.526C692.118 199.093 691.415 199.093 690.983 199.526L683.932 206.571ZM779.999 206.248H684.716V208.461H779.999V206.248Z" fill="#626A84"/>
<path d="M562.058 124.001C562.49 124.434 563.192 124.434 563.624 124.001L570.675 116.955C571.108 116.524 571.108 115.822 570.675 115.39C570.243 114.957 569.541 114.957 569.109 115.39L562.841 121.653L556.573 115.39C556.142 114.957 555.439 114.957 555.006 115.39C554.573 115.822 554.573 116.524 555.006 116.955L562.058 124.001ZM561.733 0.333984V123.218H563.949V0.333984H561.733Z" fill="#626A84"/>
<path d="M218.592 124.001C219.024 124.434 219.727 124.434 220.159 124.001L227.209 116.955C227.643 116.524 227.643 115.822 227.209 115.39C226.778 114.957 226.075 114.957 225.643 115.39L219.375 121.653L213.108 115.39C212.676 114.957 211.973 114.957 211.541 115.39C211.107 115.822 211.107 116.524 211.541 116.955L218.592 124.001ZM218.268 0.333984V123.218H220.483V0.333984H218.268Z" fill="#626A84"/>
<path d="M509.985 543.12C509.552 543.551 509.552 544.253 509.985 544.685L517.036 551.73C517.468 552.163 518.17 552.163 518.603 551.73C519.036 551.299 519.036 550.596 518.603 550.164L512.335 543.902L518.603 537.639C519.036 537.208 519.036 536.506 518.603 536.074C518.17 535.641 517.468 535.641 517.036 536.074L509.985 543.12ZM780.001 542.795H510.768V545.009H780.001V542.795Z" fill="#626A84"/>
<path d="M778.891 206.248V545.01" stroke="#626A84" stroke-width="2"/>
<path d="M255.329 385.119V408.459H264.45C268.124 408.459 270.093 407.804 272.028 405.87C274.554 403.346 275.309 399.871 275.309 396.396C275.309 392.659 274.095 389.512 271.864 387.512C269.633 385.513 267.107 385.119 264.22 385.119H255.329ZM259.397 388.594H263.958C269.075 388.594 271.208 391.807 271.208 396.593C271.208 401.379 269.699 405.017 264.22 405.017H259.397V388.594ZM293.442 385.086H289.078L280.056 408.459H284.288L286.585 402.264H295.837L298.068 408.459H302.464L293.442 385.086ZM294.754 399.182H287.635L291.276 389.348L294.754 399.182ZM322.187 385.119H303.191V388.66H310.639V408.459H314.74V388.66H322.187V385.119ZM336.294 385.086H331.931L322.909 408.459H327.141L329.437 402.264H338.689L340.92 408.459H345.316L336.294 385.086ZM337.606 399.182H330.487L334.129 389.348L337.606 399.182ZM380.988 392.003C380.791 386.791 377.018 384.66 372.261 384.66C367.012 384.66 363.633 387.316 363.633 391.479C363.633 396.232 367.471 397.052 372.425 398.33C375.87 399.215 377.871 399.641 377.871 402.067C377.871 404.362 376.001 405.739 372.852 405.739C369.538 405.739 366.815 404.329 366.815 400.723H362.78C362.78 406.361 367.077 408.984 372.622 408.984C377.215 408.984 381.906 406.952 381.906 401.674C381.906 396.658 377.445 395.708 373.475 394.691C368.98 393.511 367.537 393.38 367.537 391.151C367.537 389.119 369.21 387.906 371.999 387.906C374.886 387.906 376.821 389.086 377.084 392.003H380.988ZM409.25 399.576H405.149C404.723 403.018 402.984 405.542 399.178 405.542C394.191 405.542 392.288 401.116 392.288 396.789C392.288 392.495 394.29 388.07 399.211 388.07C402.229 388.07 404.427 389.741 404.985 392.561H409.053C408.266 387.152 403.935 384.595 399.276 384.595C392.19 384.595 388.155 390.168 388.155 396.789C388.155 404.165 392.485 409.017 399.08 409.017C404.919 409.017 408.823 405.247 409.25 399.576ZM420.853 385.119H416.719V408.459H420.853V385.119ZM446.388 385.119H429.558V408.459H446.585V404.952H433.626V398.068H445.47V394.757H433.626V388.561H446.388V385.119ZM472.958 385.119H469.021V402.329L458.26 385.119H453.963V408.459H457.834V391.282L468.726 408.459H472.958V385.119ZM501.49 399.576H497.389C496.963 403.018 495.224 405.542 491.418 405.542C486.431 405.542 484.529 401.116 484.529 396.789C484.529 392.495 486.53 388.07 491.451 388.07C494.469 388.07 496.667 389.741 497.225 392.561H501.293C500.506 387.152 496.175 384.595 491.517 384.595C484.43 384.595 480.395 390.168 480.395 396.789C480.395 404.165 484.725 409.017 491.32 409.017C497.159 409.017 501.064 405.247 501.49 399.576ZM525.724 385.119H508.894V408.459H525.921V404.952H512.962V398.068H524.806V394.757H512.962V388.561H525.724V385.119Z" fill="white"/>
</g>
<defs>
<clipPath id="clip0">
<rect width="780" height="663" fill="white"/>
</clipPath>
</defs>
</svg>
