<svg width="35" height="35" viewBox="0 0 35 35" fill="none" xmlns="http://www.w3.org/2000/svg">
<g clip-path="url(#clip0)">
<path d="M34.9325 19.1164C34.6183 15.9555 33.2062 12.9756 30.9561 10.7255C29.0333 8.80277 26.6798 7.56716 24.2034 7.01774V5.28084C25.2148 5.02921 25.9666 4.11366 25.9666 3.02543C25.9666 1.74381 24.924 0.701172 23.6424 0.701172H18.7204C17.4388 0.701172 16.3962 1.74381 16.3962 3.02543C16.3962 4.11359 17.148 5.02914 18.1594 5.28084V7.0226C15.6906 7.57434 13.3448 8.80824 11.4275 10.7256C11.0079 11.1452 10.621 11.5854 10.2668 12.0429C10.2496 12.0416 10.2325 12.0403 10.215 12.0403H5.34353C4.96604 12.0403 4.65993 12.3463 4.65993 12.7239C4.65993 13.1014 4.96604 13.4075 5.34353 13.4075H9.3366C8.83538 14.2466 8.43124 15.1278 8.12361 16.035H0.683604C0.306118 16.035 0 16.341 0 16.7186C0 17.0961 0.306118 17.4022 0.683604 17.4022H7.73731C7.54029 18.267 7.42723 19.1471 7.39804 20.0297H4.37507C3.99758 20.0297 3.69146 20.3358 3.69146 20.7133C3.69146 21.0909 3.99758 21.397 4.37507 21.397H7.41984C7.47754 22.2818 7.6198 23.162 7.84668 24.0245H3.41802C3.04054 24.0245 2.73442 24.3306 2.73442 24.7081C2.73442 25.0857 3.04054 25.3917 3.41802 25.3917H8.28296C8.95358 27.1658 10.0016 28.8285 11.4275 30.2543C13.6797 32.5065 16.6627 33.919 19.8268 34.2316C20.2784 34.2762 20.7303 34.2983 21.1816 34.2983C23.8492 34.2983 26.4828 33.5263 28.7175 32.071C29.0339 31.865 29.1234 31.4415 28.9174 31.1251C28.7113 30.8087 28.2878 30.7193 27.9715 30.9253C23.0798 34.1107 16.5286 33.422 12.3942 29.2876C7.54323 24.4366 7.54323 16.5435 12.3942 11.6924C17.2452 6.84151 25.1383 6.84151 29.9893 11.6924C34.1182 15.8214 34.8107 22.367 31.6358 27.2563C31.4302 27.5729 31.5202 27.9963 31.8368 28.2019C32.1536 28.4075 32.5769 28.3175 32.7825 28.0008C34.4788 25.3884 35.2423 22.2333 34.9325 19.1164ZM17.7634 3.02549C17.7634 2.49775 18.1927 2.06845 18.7204 2.06845H23.6424C24.1701 2.06845 24.5994 2.49775 24.5994 3.02549C24.5994 3.55324 24.1701 3.98254 23.6424 3.98254H23.5198H18.843H18.7204C18.1927 3.98254 17.7634 3.55317 17.7634 3.02549ZM19.5266 6.78757V5.34975H22.8361V6.78511C21.7372 6.65441 20.6254 6.65523 19.5266 6.78757Z" fill="white"/>
<path d="M30.4736 29.0879C30.2932 29.0879 30.1175 29.161 29.9904 29.2882C29.8626 29.4153 29.79 29.5917 29.79 29.7715C29.79 29.9513 29.8626 30.1276 29.9904 30.2548C30.1175 30.3826 30.2932 30.4551 30.4736 30.4551C30.6534 30.4551 30.8291 30.3826 30.9569 30.2548C31.0841 30.1276 31.1572 29.9513 31.1572 29.7715C31.1572 29.5917 31.0842 29.4153 30.9569 29.2882C30.8291 29.161 30.6533 29.0879 30.4736 29.0879Z" fill="white"/>
<path d="M21.1916 9.88477C15.3442 9.88477 10.5869 14.642 10.5869 20.4895C10.5869 26.3369 15.3442 31.0941 21.1916 31.0941C27.039 31.0941 31.7963 26.3369 31.7963 20.4895C31.7963 14.642 27.039 9.88477 21.1916 9.88477ZM21.1916 29.7269C16.098 29.7269 11.9541 25.583 11.9541 20.4895C11.9541 15.3959 16.098 11.252 21.1916 11.252C26.2852 11.252 30.4291 15.3959 30.4291 20.4895C30.4291 25.583 26.2852 29.7269 21.1916 29.7269Z" fill="white"/>
<path d="M25.5162 15.1983L22.1303 18.5841C21.8471 18.4441 21.5287 18.365 21.192 18.365C20.8552 18.365 20.5368 18.4441 20.2537 18.5841L18.7383 17.0687C18.4713 16.8018 18.0386 16.8018 17.7715 17.0687C17.5046 17.3357 17.5046 17.7685 17.7715 18.0355L19.2868 19.5508C19.1468 19.834 19.0677 20.1525 19.0677 20.4892C19.0677 21.6604 20.0206 22.6134 21.192 22.6134C22.3633 22.6134 23.3162 21.6604 23.3162 20.4892C23.3162 20.1525 23.2371 19.834 23.0971 19.5508L26.3836 16.2643L26.4829 16.165C26.7499 15.8981 26.7499 15.4652 26.4829 15.1983C26.216 14.9313 25.7833 14.9313 25.5162 15.1983ZM21.192 21.2462C20.7746 21.2462 20.435 20.9066 20.435 20.4892C20.435 20.0718 20.7746 19.7322 21.192 19.7322C21.6094 19.7322 21.949 20.0718 21.949 20.4892C21.949 20.9066 21.6094 21.2462 21.192 21.2462Z" fill="white"/>
<path d="M28.5015 19.8145H27.8682C27.4907 19.8145 27.1846 20.1205 27.1846 20.498C27.1846 20.8756 27.4907 21.1816 27.8682 21.1816H28.5015C28.879 21.1816 29.1851 20.8756 29.1851 20.498C29.1851 20.1205 28.879 19.8145 28.5015 19.8145Z" fill="white"/>
<path d="M14.5161 19.7969H13.8828C13.5053 19.7969 13.1992 20.1029 13.1992 20.4805C13.1992 20.858 13.5053 21.1641 13.8828 21.1641H14.5161C14.8936 21.1641 15.1997 20.858 15.1997 20.4805C15.1997 20.1029 14.8936 19.7969 14.5161 19.7969Z" fill="white"/>
<path d="M21.2002 14.4985C21.5777 14.4985 21.8838 14.1925 21.8838 13.8149V13.1816C21.8838 12.8041 21.5777 12.498 21.2002 12.498C20.8227 12.498 20.5166 12.8041 20.5166 13.1816V13.8149C20.5166 14.1925 20.8227 14.4985 21.2002 14.4985Z" fill="white"/>
<path d="M21.1836 26.4824C20.8061 26.4824 20.5 26.7885 20.5 27.166V27.7993C20.5 28.1768 20.8061 28.4829 21.1836 28.4829C21.5611 28.4829 21.8672 28.1768 21.8672 27.7993V27.166C21.8672 26.7885 21.5611 26.4824 21.1836 26.4824Z" fill="white"/>
<path d="M0.683594 24.0234C0.503809 24.0234 0.327441 24.0966 0.200293 24.2237C0.0731445 24.3509 0 24.5272 0 24.707C0 24.8875 0.0730762 25.0632 0.200293 25.1903C0.32751 25.3175 0.503809 25.3906 0.683594 25.3906C0.863379 25.3906 1.03975 25.3175 1.16683 25.1903C1.29397 25.0632 1.36719 24.8868 1.36719 24.707C1.36719 24.5272 1.29404 24.3509 1.16683 24.2237C1.03975 24.0966 0.863379 24.0234 0.683594 24.0234Z" fill="white"/>
</g>
<defs>
<clipPath id="clip0">
<rect width="35" height="35" fill="white"/>
</clipPath>
</defs>
</svg>
