<svg width="40" height="41" viewBox="0 0 40 41" fill="none" xmlns="http://www.w3.org/2000/svg">
<g clip-path="url(#clip0)">
<path d="M2.93988 11.701H11.9559C12.4099 11.701 12.7925 11.3934 12.9087 10.976H35.2714C35.4895 10.976 35.6895 10.8549 35.7907 10.6618L37.9813 6.47578C38.0703 6.30562 38.0703 6.10273 37.9813 5.9325L35.7907 1.74422C35.6896 1.55094 35.4896 1.42984 35.2714 1.42984H25.5439C25.2203 1.42984 24.958 1.69219 24.958 2.01578C24.958 2.33938 25.2203 2.60172 25.5439 2.60172H34.9168L36.8008 6.20398L34.9168 9.80414H12.9458V2.60164H22.8034C23.1271 2.60164 23.3893 2.3393 23.3893 2.0157C23.3893 1.69211 23.1271 1.42977 22.8034 1.42977H12.9086C12.7921 1.01359 12.4096 0.707031 11.9559 0.707031H2.93988C2.39527 0.707031 1.95215 1.15008 1.95215 1.69477V10.711C1.95215 11.2569 2.39527 11.701 2.93988 11.701ZM3.12402 1.87891H11.7739V10.5291H3.12402V1.87891Z" fill="white"/>
<path d="M35.7907 16.2461C35.6896 16.0528 35.4896 15.9317 35.2714 15.9317H12.9082C12.7911 15.5155 12.4091 15.209 11.9559 15.209H2.93988C2.39527 15.209 1.95215 15.6531 1.95215 16.1989V25.2152C1.95215 25.7598 2.3952 26.2029 2.93988 26.2029H11.9559C12.4096 26.2029 12.7921 25.8963 12.9086 25.4802H35.2714C35.4896 25.4802 35.6896 25.3591 35.7907 25.1658L37.9813 20.9775C38.0703 20.8074 38.0703 20.6045 37.9813 20.4344L35.7907 16.2461ZM11.7739 25.0311H3.12402V16.3809H11.7739V25.0311ZM34.9167 24.3084H12.9458V17.1037H34.9167L36.8008 20.706L34.9167 24.3084Z" fill="white"/>
<path d="M7.90875 3.46094H6.98633C6.66273 3.46094 6.40039 3.72328 6.40039 4.04687C6.40039 4.37047 6.66273 4.63281 6.98633 4.63281H7.32289V8.35859C7.32289 8.68219 7.58523 8.94453 7.90883 8.94453C8.23242 8.94453 8.49477 8.68219 8.49477 8.35859V4.04687C8.49469 3.72328 8.23242 3.46094 7.90875 3.46094Z" fill="white"/>
<path d="M8.62404 22.3077C8.26107 22.3124 7.8785 22.3158 7.53959 22.3172C7.76771 22.0094 8.06599 21.5983 8.4492 21.0506C8.73209 20.6472 8.9174 20.2641 9.00006 19.9121C9.00498 19.891 9.00881 19.8697 9.01139 19.8481L9.03162 19.6798C9.03443 19.6566 9.03584 19.6332 9.03584 19.6098C9.03584 18.6791 8.27764 17.9219 7.3456 17.9219C6.5392 17.9219 5.8424 18.495 5.68865 19.2846C5.62678 19.6023 5.8342 19.9099 6.15178 19.9717C6.46967 20.0337 6.77709 19.8262 6.83889 19.5086C6.88568 19.2682 7.09881 19.0937 7.3456 19.0937C7.62178 19.0937 7.84826 19.3099 7.86318 19.5812L7.85225 19.6722C7.81389 19.8169 7.71943 20.0502 7.48943 20.3782C6.80459 21.357 6.39795 21.8887 6.17951 22.1745C5.90849 22.529 5.7592 22.7242 5.85568 23.042C5.9131 23.231 6.05514 23.3766 6.24881 23.4427C6.32693 23.4687 6.39326 23.4909 7.23592 23.4909C7.56748 23.4909 8.0192 23.4874 8.63904 23.4795C8.96264 23.4753 9.22162 23.2096 9.2174 22.886C9.21326 22.5625 8.9481 22.301 8.62404 22.3077Z" fill="white"/>
<path d="M7.44895 32.416C6.64496 32.416 5.94738 32.9891 5.79027 33.7786C5.72707 34.0959 5.93316 34.4045 6.25051 34.4677C6.56816 34.5311 6.87645 34.3248 6.93957 34.0074C6.98801 33.7643 7.20223 33.5879 7.44902 33.5879C7.73363 33.5879 7.96512 33.8205 7.96512 34.1063C7.96512 34.3921 7.73363 34.6246 7.44902 34.6246C7.12543 34.6246 6.86309 34.887 6.86309 35.2105C6.86309 35.5341 7.12543 35.7965 7.44902 35.7965C7.73363 35.7965 7.96512 36.028 7.96512 36.3126C7.96512 36.5984 7.73363 36.8309 7.44902 36.8309C7.19168 36.8309 6.97129 36.6402 6.93699 36.3919C6.93246 36.3573 6.93066 36.3344 6.93066 36.3126C6.93066 35.989 6.66832 35.7266 6.34473 35.7266C6.02113 35.7266 5.75879 35.989 5.75879 36.3126C5.75879 36.3863 5.76371 36.4574 5.77551 36.5476C5.89012 37.3772 6.60949 38.0028 7.44902 38.0028C8.3798 38.0028 9.13699 37.2445 9.13699 36.3126C9.13699 35.8914 8.9816 35.5061 8.72566 35.2101C8.9816 34.9137 9.13699 34.5279 9.13699 34.1062C9.13691 33.1742 8.37965 32.416 7.44895 32.416Z" fill="white"/>
<path d="M15.5713 5.39648H19.1849C19.5085 5.39648 19.7708 5.13414 19.7708 4.81055C19.7708 4.48695 19.5085 4.22461 19.1849 4.22461H15.5713C15.2477 4.22461 14.9854 4.48695 14.9854 4.81055C14.9854 5.13414 15.2477 5.39648 15.5713 5.39648Z" fill="white"/>
<path d="M15.5713 8.27344H22.9174C23.2411 8.27344 23.5033 8.01109 23.5033 7.6875C23.5033 7.36391 23.2411 7.10156 22.9174 7.10156H15.5713C15.2477 7.10156 14.9854 7.36391 14.9854 7.6875C14.9854 8.01109 15.2477 8.27344 15.5713 8.27344Z" fill="white"/>
<path d="M15.5713 19.8027H19.1849C19.5085 19.8027 19.7708 19.5404 19.7708 19.2168C19.7708 18.8932 19.5085 18.6309 19.1849 18.6309H15.5713C15.2477 18.6309 14.9854 18.8932 14.9854 19.2168C14.9854 19.5404 15.2477 19.8027 15.5713 19.8027Z" fill="white"/>
<path d="M22.9174 21.5117H15.5713C15.2477 21.5117 14.9854 21.7741 14.9854 22.0977C14.9854 22.4212 15.2477 22.6836 15.5713 22.6836H22.9174C23.2411 22.6836 23.5033 22.4212 23.5033 22.0977C23.5033 21.7741 23.2411 21.5117 22.9174 21.5117Z" fill="white"/>
<path d="M15.5713 34.3984H19.1849C19.5085 34.3984 19.7708 34.1361 19.7708 33.8125C19.7708 33.4889 19.5085 33.2266 19.1849 33.2266H15.5713C15.2477 33.2266 14.9854 33.4889 14.9854 33.8125C14.9854 34.1361 15.2477 34.3984 15.5713 34.3984Z" fill="white"/>
<path d="M15.5713 37.2754H22.9174C23.2411 37.2754 23.5033 37.013 23.5033 36.6895C23.5033 36.3659 23.2411 36.1035 22.9174 36.1035H15.5713C15.2477 36.1035 14.9854 36.3659 14.9854 36.6895C14.9854 37.013 15.2477 37.2754 15.5713 37.2754Z" fill="white"/>
<path d="M35.7907 30.7499C35.6896 30.5566 35.4896 30.4355 35.2714 30.4355H25.5439C25.2203 30.4355 24.958 30.6979 24.958 31.0215C24.958 31.3451 25.2203 31.6074 25.5439 31.6074H34.9168L36.8008 35.2097L34.9168 38.8099H12.9458V31.6075H22.8034C23.1271 31.6075 23.3893 31.3452 23.3893 31.0216C23.3893 30.698 23.1271 30.4356 22.8034 30.4356H12.9086C12.7921 30.0195 12.4097 29.7129 11.956 29.7129H2.93988C2.39527 29.7129 1.95215 30.156 1.95215 30.7006V39.7169C1.95215 40.2627 2.3952 40.7068 2.93988 40.7068H11.9559C12.4099 40.7068 12.7925 40.3992 12.9087 39.9818H35.2714C35.4895 39.9818 35.6895 39.8607 35.7907 39.6676L37.9813 35.4815C38.0703 35.3113 38.0703 35.1084 37.9813 34.9382L35.7907 30.7499ZM11.7739 39.5349H3.12402V30.8846H11.7739V39.5349Z" fill="white"/>
</g>
<defs>
<clipPath id="clip0">
<rect width="40" height="40" fill="white" transform="translate(0 0.707031)"/>
</clipPath>
</defs>
</svg>
