<svg width="38" height="38" viewBox="0 0 38 38" fill="none" xmlns="http://www.w3.org/2000/svg">
<g clip-path="url(#clip0)">
<path d="M20.1348 22.0515C20.1348 22.3589 20.3839 22.6082 20.6914 22.6082C20.9989 22.6082 21.248 22.3589 21.248 22.0515C21.248 21.0505 20.4694 20.3023 19.5565 20.353V20.0453C19.5565 19.7378 19.3073 19.4886 18.9998 19.4886C18.6924 19.4886 18.4432 19.7378 18.4432 20.0453V20.353C17.5251 20.2911 16.75 21.0661 16.7516 22.0515V22.8127C16.747 23.7857 17.5251 24.5819 18.4432 24.5112V26.4428C18.1271 26.481 17.8649 26.244 17.8649 25.8576C17.8649 25.5502 17.6156 25.301 17.3082 25.301C17.0008 25.301 16.7516 25.5502 16.7516 25.8576C16.7516 26.8305 17.5251 27.6268 18.4432 27.5561V27.8639C18.4432 28.1714 18.6924 28.4206 18.9998 28.4206C19.3073 28.4206 19.5565 28.1714 19.5565 27.8639V27.5561C20.4658 27.6067 21.2505 26.8513 21.248 25.8576V25.0963C21.2503 24.0951 20.4693 23.3474 19.5565 23.3978V21.4663C19.8631 21.4137 20.1348 21.6759 20.1348 22.0515ZM18.4432 23.398C18.1272 23.4362 17.8653 23.1991 17.8649 22.8128V22.0516C17.8641 21.6841 18.1375 21.4094 18.4432 21.4664V23.398ZM20.1348 25.0964V25.8577C20.1301 26.2231 19.8665 26.5015 19.5565 26.4429V24.5113C19.8631 24.4584 20.1354 24.7209 20.1348 25.0964ZM21.5604 5.93039C21.5604 4.51853 20.4117 3.36985 18.9998 3.36985C17.588 3.36985 16.4393 4.51853 16.4393 5.93039C16.4393 7.34225 17.588 8.49092 18.9998 8.49092C20.4117 8.49092 21.5604 7.34225 21.5604 5.93039ZM17.5526 5.93039C17.5526 5.13239 18.2018 4.48313 18.9998 4.48313C19.7978 4.48313 20.4471 5.13239 20.4471 5.93039C20.4471 6.72838 19.7978 7.37765 18.9998 7.37765C18.2018 7.37765 17.5526 6.72838 17.5526 5.93039ZM18.9998 17.5765C15.4829 17.5765 12.6216 20.4377 12.6216 23.9546C12.6216 27.4715 15.4829 30.3328 18.9998 30.3328C22.5168 30.3328 25.378 27.4715 25.378 23.9546C25.378 20.4377 22.5168 17.5765 18.9998 17.5765ZM18.9998 29.2195C16.0968 29.2195 13.7349 26.8577 13.7349 23.9546C13.7349 21.0516 16.0968 18.6897 18.9998 18.6897C21.9029 18.6897 24.2647 21.0516 24.2647 23.9546C24.2647 26.8577 21.9029 29.2195 18.9998 29.2195ZM35.5039 14.3692C36.7923 14.4498 38.0107 13.5129 37.9997 12.1426V10.4727C37.9905 10.3132 37.9381 10.1111 37.7073 9.98272L20.3493 0.359773C19.5044 -0.108694 18.4954 -0.108694 17.6504 0.359773L10.6471 4.24229C10.3782 4.39132 10.2811 4.73013 10.4302 4.99902C10.5792 5.26791 10.9181 5.36514 11.1869 5.21596L18.1902 1.33344C18.6972 1.05238 19.3026 1.05245 19.8095 1.33344L35.2911 9.91607H2.70865L8.88926 6.48962C9.15816 6.34059 9.25531 6.00179 9.1062 5.73289C8.95717 5.464 8.61837 5.36685 8.34947 5.51595L0.292465 9.98264C0.164512 10.0576 -0.00233069 10.2179 -0.000104135 10.4727V12.1426C-0.0119791 13.4533 1.17284 14.5123 2.49571 14.3692L4.453 17.1242V30.785L2.49571 33.54H1.29872C0.582585 33.54 -0.000104135 34.1227 -0.000104135 34.8388V36.6943C-0.000104135 37.4104 0.582585 37.9931 1.29872 37.9931H36.7009C37.4171 37.9931 37.9997 37.4104 37.9997 36.6943V34.8388C37.9997 34.1227 37.4171 33.54 36.7009 33.54H35.5039L33.5466 30.785V17.1242L35.5039 14.3692ZM2.22645 13.2559C1.61259 13.2559 1.11317 12.7565 1.11317 12.1426V11.0293H36.8865V12.1426C36.8865 12.7565 36.387 13.2559 35.7732 13.2559H2.22645ZM28.5183 24.4326C28.8257 24.4326 29.0749 24.1834 29.0749 23.876V17.5033H32.4334V30.406H29.0749V26.4736C29.0749 26.1662 28.8257 25.917 28.5183 25.917C28.2108 25.917 27.9616 26.1662 27.9616 26.4736V30.785L26.0043 33.54H11.9954L10.0381 30.785V17.1242L11.9954 14.3692H26.0044L27.9617 17.1242V23.876C27.9616 24.1834 28.2108 24.4326 28.5183 24.4326ZM3.86141 14.3692H10.6298L9.19415 16.39H5.29702L3.86141 14.3692ZM8.92481 17.5033V30.406H5.56628V17.5033H8.92481ZM5.29702 31.5193H9.19408L10.6297 33.54H3.86141L5.29702 31.5193ZM36.7009 34.6533C36.8033 34.6533 36.8865 34.7366 36.8865 34.8388V36.6943C36.8865 36.7966 36.8033 36.8799 36.7009 36.8799H1.29872C1.19645 36.8799 1.11317 36.7966 1.11317 36.6943V34.8388C1.11317 34.7366 1.19645 34.6533 1.29872 34.6533H36.7009ZM34.1383 33.54H27.37L28.8057 31.5193H32.7027L34.1383 33.54ZM32.7026 16.39H28.8056L27.37 14.3692H34.1382L32.7026 16.39Z" fill="white"/>
</g>
<defs>
<clipPath id="clip0">
<rect width="38" height="38" fill="white"/>
</clipPath>
</defs>
</svg>
