<svg width="29" height="29" viewBox="0 0 29 29" fill="none" xmlns="http://www.w3.org/2000/svg">
<path d="M28.5614 6.69816C28.5593 6.68592 28.5598 6.67301 28.5566 6.661C28.5478 6.62797 28.5348 6.59621 28.5179 6.56652C28.5122 6.55633 28.5036 6.54817 28.4968 6.53866C28.4846 6.51953 28.4708 6.50149 28.4556 6.48473C28.4463 6.47522 28.4345 6.46865 28.4243 6.46004C28.4092 6.44609 28.393 6.43336 28.3758 6.42198L28.3729 6.42084L28.3704 6.41903L25.0578 4.52112C24.9978 4.48676 24.9298 4.46868 24.8607 4.46868C24.7915 4.46868 24.7236 4.48676 24.6636 4.52112L21.3492 6.4188L21.3467 6.42062L21.3438 6.42175C21.3265 6.4332 21.3102 6.44601 21.2951 6.46004C21.2849 6.46842 21.2724 6.47522 21.264 6.48451C21.2486 6.50146 21.2346 6.51973 21.2223 6.53911C21.2158 6.54862 21.2074 6.55655 21.2017 6.56652C21.1848 6.59622 21.1718 6.62797 21.163 6.661C21.1598 6.67255 21.1602 6.68502 21.1582 6.6968C21.1535 6.71849 21.1506 6.74054 21.1496 6.76273V7.57042L18.2018 5.72439C18.2061 5.70455 18.2088 5.6844 18.2099 5.66412V2.35042C18.2089 2.32862 18.206 2.30694 18.2013 2.28562C18.1993 2.27339 18.1998 2.26048 18.1966 2.24847C18.1878 2.21551 18.1748 2.18384 18.1578 2.15422C18.1499 2.14245 18.1414 2.1311 18.1322 2.12023C18.1213 2.10339 18.1091 2.08741 18.0958 2.07243C18.0838 2.06188 18.0713 2.05204 18.0582 2.04298C18.0447 2.0309 18.0305 2.01977 18.0156 2.00967H18.0133L18.0117 2.00627L14.6971 0.108585C14.6371 0.0742273 14.5691 0.0561523 14.5 0.0561523C14.4308 0.0561523 14.3629 0.0742273 14.3029 0.108585L10.9883 2.00627L10.9856 2.00831H10.9833C10.9682 2.01848 10.9539 2.02968 10.9405 2.04184C10.9274 2.05084 10.915 2.0606 10.9031 2.07107C10.8895 2.08625 10.8772 2.10246 10.8662 2.11955C10.8572 2.13021 10.8488 2.14133 10.841 2.15286C10.8241 2.18255 10.811 2.2143 10.8023 2.24733C10.7991 2.25889 10.7995 2.27135 10.7975 2.28313C10.7928 2.30482 10.7899 2.32688 10.7889 2.34906V5.66412C10.79 5.68447 10.7927 5.7047 10.7971 5.72462L7.84993 7.57042V6.76295C7.84888 6.74115 7.846 6.71947 7.84132 6.69816C7.83928 6.68592 7.83973 6.67301 7.83656 6.661C7.82778 6.62797 7.81475 6.59621 7.79782 6.56652C7.79215 6.55633 7.78355 6.54817 7.77675 6.53866C7.76458 6.51953 7.75079 6.50149 7.73551 6.48473C7.72622 6.47522 7.71444 6.46865 7.70425 6.46004C7.68912 6.44609 7.6729 6.43336 7.65576 6.42198L7.65282 6.42084L7.65033 6.41903L4.3373 4.52112C4.27729 4.48676 4.20934 4.46868 4.14019 4.46868C4.07104 4.46868 4.00309 4.48676 3.94308 4.52112L0.629381 6.4188L0.626888 6.42062L0.623943 6.42175C0.606718 6.4332 0.59043 6.44601 0.575232 6.46004C0.565037 6.46842 0.552576 6.47522 0.544193 6.48451C0.528731 6.50146 0.514782 6.51973 0.502506 6.53911C0.495935 6.54862 0.487553 6.55655 0.481888 6.56652C0.464963 6.59622 0.451941 6.62797 0.443146 6.661C0.439974 6.67255 0.440427 6.68502 0.438388 6.6968C0.433645 6.71849 0.430764 6.74054 0.429779 6.76273V10.0764C0.42977 10.1476 0.44893 10.2175 0.485247 10.2787C0.521565 10.34 0.5737 10.3903 0.636178 10.4244L3.74348 12.1212V16.661L0.629381 18.4445L0.626888 18.4463L0.623943 18.4475C0.606718 18.4589 0.59043 18.4717 0.575232 18.4858C0.565037 18.4941 0.552576 18.5009 0.544193 18.5102C0.528731 18.5272 0.514782 18.5454 0.502506 18.5648C0.495935 18.5743 0.487553 18.5823 0.481888 18.5922C0.464963 18.6219 0.451941 18.6537 0.443146 18.6867C0.439974 18.6983 0.440427 18.7107 0.438388 18.7225C0.433645 18.7442 0.430764 18.7663 0.429779 18.7884V22.1021C0.429814 22.1734 0.449042 22.2433 0.485442 22.3045C0.521842 22.3658 0.574068 22.4161 0.636631 22.4501L3.95011 24.2588C3.96873 24.2679 3.98805 24.2754 4.00788 24.2814C4.01853 24.2853 4.0285 24.291 4.03937 24.2937C4.10531 24.3116 4.17485 24.3116 4.24079 24.2937C4.25166 24.2907 4.26163 24.2851 4.27228 24.2814C4.29211 24.2754 4.31143 24.2679 4.33005 24.2588L7.14351 22.7229L10.7912 25.1514V26.7947C10.7912 26.8659 10.8103 26.9358 10.8466 26.997C10.8829 27.0582 10.9351 27.1086 10.9976 27.1427L14.311 28.9514C14.3297 28.9604 14.349 28.968 14.3688 28.974C14.3795 28.9779 14.3894 28.9835 14.4003 28.9862C14.4662 29.0042 14.5358 29.0042 14.6017 28.9862C14.6126 28.9833 14.6226 28.9776 14.6332 28.974C14.653 28.968 14.6724 28.9604 14.691 28.9514L18.0036 27.1423C18.066 27.1081 18.1182 27.0578 18.1545 26.9966C18.1908 26.9353 18.21 26.8654 18.2099 26.7942V25.151L21.8576 22.7225L24.6711 24.2583C24.6897 24.2674 24.709 24.275 24.7288 24.281C24.7395 24.2848 24.7495 24.2905 24.7603 24.2932C24.8263 24.3112 24.8958 24.3112 24.9617 24.2932C24.9726 24.2903 24.9826 24.2846 24.9932 24.281C25.0131 24.275 25.0324 24.2674 25.051 24.2583L28.3633 22.4501C28.4258 22.416 28.478 22.3657 28.5143 22.3044C28.5506 22.2432 28.5698 22.1733 28.5697 22.1021V18.7887C28.5687 18.7669 28.5658 18.7452 28.5611 18.7239C28.5591 18.7116 28.5596 18.6987 28.5564 18.6867C28.5476 18.6537 28.5346 18.6219 28.5176 18.5922C28.512 18.582 28.5034 18.5739 28.4966 18.5644C28.4844 18.5452 28.4706 18.5272 28.4553 18.5104C28.446 18.5009 28.4343 18.4944 28.4241 18.4858C28.4089 18.4718 28.3927 18.4591 28.3756 18.4477L28.3726 18.4466L28.3701 18.4447L25.256 16.6612V12.1212L28.3631 10.4251C28.4256 10.391 28.4777 10.3407 28.5141 10.2794C28.5504 10.2182 28.5695 10.1483 28.5695 10.0771V6.76295C28.5686 6.74116 28.5659 6.71949 28.5614 6.69816ZM16.8997 23.5284L14.5 24.8383L12.1002 23.5284L11.9987 23.4728L14.5 22.0405L17.0012 23.4719L16.8997 23.5284ZM7.05696 9.84126L4.53645 11.2169V8.807L7.05696 7.43131V9.84126ZM4.13997 17.3477L6.64122 18.7801L6.53972 18.8356L4.13997 20.1455L1.74022 18.8356L1.63872 18.7801L4.13997 17.3477ZM7.42014 18.3124L4.53645 16.6608V12.1212L7.16322 10.6872L10.79 13.0471V15.9399L7.42014 18.3124ZM11.583 5.42873V3.01878L14.1035 4.39537V6.80464L11.583 5.42873ZM17.417 5.42873L14.8965 6.80464V4.39537L17.417 3.01923V5.42873ZM14.5 11.3912L17.0012 12.8235L16.8997 12.879L14.5 14.189L12.1002 12.879L11.9987 12.8235L14.5 11.3912ZM11.583 13.5002L14.1035 14.8762V17.2868L11.583 15.9104V13.5002ZM14.8965 14.8762L17.417 13.5002V15.9104L14.8965 17.2868V14.8762ZM18.2099 13.0471L21.8368 10.6866L24.4635 12.1212V16.661L21.5798 18.3127L18.2099 15.9399V13.0471ZM24.4631 8.807V11.2169L21.943 9.84126V7.43131L24.4631 8.807ZM21.943 21.867V19.4568L24.4635 20.8327V23.2427L21.943 21.867ZM27.2598 18.8356L24.86 20.1455L22.46 18.8356L22.3585 18.7801L24.8598 17.3477L27.361 18.7801L27.2598 18.8356ZM24.86 5.32201L27.3613 6.75434L27.2598 6.80985L24.86 8.11983L22.46 6.80985L22.3585 6.75434L24.86 5.32201ZM21.1639 10.1782L17.8003 12.3674L14.8965 10.7045V7.70817L17.5563 6.25591L21.1498 8.50612V10.0762C21.15 10.1107 21.1548 10.1449 21.1639 10.1782ZM14.5 0.90971L17.001 2.34226L14.6096 3.64772L14.5 3.70753L14.3903 3.64772L11.999 2.34204L14.5 0.90971ZM11.4437 6.25659L14.1035 7.70885V10.7045L11.1997 12.3674L7.83611 10.1782C7.84513 10.1449 7.84978 10.1106 7.84993 10.0762V8.50612L11.4437 6.25659ZM4.13997 5.32201L6.64122 6.75434L6.53972 6.80985L4.13997 8.11983L1.74022 6.80985L1.63872 6.75434L4.13997 5.32201ZM1.22343 7.43131L3.74394 8.80723V11.2169L1.22343 9.84126V7.43131ZM1.22343 19.457L3.74394 20.8329V23.2429L1.22343 21.867V19.457ZM4.5369 20.8329L7.05741 19.457V21.867L4.5369 23.2427V20.8329ZM7.82795 22.2258C7.84212 22.186 7.84978 22.1442 7.85061 22.1019V18.9799L11.213 16.6119L14.1035 18.1896V21.3538L10.9883 23.1373L10.9858 23.1391L10.9828 23.1402C10.9656 23.1517 10.9493 23.1645 10.9341 23.1785C10.9239 23.1869 10.9115 23.1937 10.9031 23.203C10.8876 23.22 10.8737 23.2382 10.8614 23.2576C10.8548 23.2671 10.8464 23.2751 10.8408 23.285C10.8239 23.3147 10.8108 23.3465 10.802 23.3795C10.7989 23.3911 10.7993 23.4035 10.7973 23.4153C10.7925 23.437 10.7897 23.459 10.7887 23.4812V24.1985L7.82795 22.2258ZM11.583 24.9371V24.1494L14.1035 25.5253V27.9352L11.583 26.5595V24.9371ZM14.8965 27.9352V25.5255L17.417 24.1496V26.5598L14.8965 27.9352ZM18.2099 23.4812C18.2089 23.4594 18.206 23.4377 18.2013 23.4164C18.1993 23.4042 18.1998 23.3913 18.1966 23.3793C18.1878 23.3462 18.1748 23.3145 18.1578 23.2848C18.1522 23.2746 18.1436 23.2664 18.1368 23.2569C18.1246 23.2378 18.1108 23.2198 18.0955 23.203C18.0862 23.1935 18.0745 23.1869 18.0643 23.1783C18.0491 23.1644 18.0329 23.1516 18.0158 23.1402L18.0128 23.1391L18.0103 23.1373L14.8965 21.3538V18.1896L17.787 16.6119L21.1501 18.9799V22.1021C21.1509 22.1444 21.1585 22.1862 21.1727 22.2261L18.2106 24.1987L18.2099 23.4812ZM25.256 23.2424V20.8327L27.7766 19.4568V21.867L25.256 23.2424ZM25.256 11.2167V8.807L27.7766 7.43131V9.84126L25.256 11.2167Z" fill="white"/>
</svg>
