<svg width="29" height="29" viewBox="0 0 29 29" fill="none" xmlns="http://www.w3.org/2000/svg">
<g clip-path="url(#clip0)">
<path d="M24.2696 23.5927C23.8059 23.8357 23.2972 23.9862 22.7578 24.0401C22.6419 24.0518 22.5359 24.1104 22.4645 24.2024C22.3931 24.2943 22.3626 24.4116 22.3801 24.5267C22.4046 24.6872 22.4159 24.8195 22.4159 24.9429C22.4159 26.7116 20.7356 28.1504 18.6703 28.1504C17.1658 28.1504 15.8122 27.3832 15.2218 26.1958C15.1546 26.0608 15.0509 25.9517 14.9247 25.8766V20.5089C14.9569 20.5078 14.9892 20.5067 15.0221 20.5055C15.8523 20.4761 16.8848 20.439 17.46 20.9941C17.7561 21.2798 17.9286 21.7256 17.9756 22.3209C17.4876 22.4999 17.1385 22.9688 17.1385 23.5176C17.1385 24.2202 17.7108 24.7919 18.4141 24.7919C19.1174 24.7919 19.6896 24.2202 19.6896 23.5176C19.6896 22.9593 19.3282 22.4841 18.8271 22.3123C18.7708 21.4748 18.5102 20.8267 18.05 20.3826C17.2151 19.577 15.9301 19.623 14.9919 19.6564C14.9692 19.6572 14.9471 19.658 14.9247 19.6588V16.9882C19.2581 16.997 21.4453 17.1746 21.6347 19.5094C21.1468 19.6884 20.7977 20.1573 20.7977 20.706C20.7977 21.4087 21.37 21.9803 22.0733 21.9803C22.7766 21.9803 23.3488 21.4087 23.3488 20.706C23.3488 20.1475 22.9871 19.6722 22.4856 19.5005C22.3808 17.9947 21.5932 17.0336 20.0856 16.5688C18.7778 16.1656 16.9923 16.14 14.9247 16.1384V13.4841C16.9923 13.4825 18.7778 13.4569 20.0856 13.0537C21.5932 12.5889 22.3808 11.6279 22.4856 10.122C22.9871 9.95033 23.3488 9.47495 23.3488 8.91642C23.3488 8.21379 22.7766 7.64217 22.0733 7.64217C21.37 7.64217 20.7977 8.21379 20.7977 8.91642C20.7977 9.46521 21.1468 9.93408 21.6347 10.1131C21.4453 12.4479 19.2581 12.6255 14.9247 12.6343V10.048C14.9471 10.0488 14.9691 10.0496 14.9919 10.0504C15.1907 10.0575 15.405 10.0652 15.6273 10.0652C16.4545 10.0652 17.392 9.95917 18.05 9.32423C18.5102 8.88022 18.7708 8.23203 18.8271 7.39465C19.3282 7.22275 19.6896 6.74753 19.6896 6.18928C19.6896 5.48666 19.1174 4.91504 18.4141 4.91504C17.7108 4.91504 17.1385 5.48666 17.1385 6.18928C17.1385 6.73807 17.4876 7.207 17.9756 7.38599C17.9286 7.98134 17.7561 8.42715 17.46 8.71279C16.8848 9.26781 15.8519 9.23071 15.0222 9.20132C14.9892 9.20013 14.957 9.199 14.9247 9.19792V7.35744C14.9247 7.12278 14.7345 6.93263 14.4999 6.93263C14.2652 6.93263 14.0751 7.12278 14.0751 7.35744V25.8767C13.9488 25.9518 13.845 26.061 13.7779 26.1961C13.1875 27.3832 11.834 28.1504 10.3294 28.1504C8.26406 28.1504 6.58382 26.7116 6.58382 24.9429C6.58382 24.8195 6.59515 24.6872 6.61962 24.5267C6.62058 24.5197 6.72378 23.8157 7.20794 23.3486C7.37679 23.1858 7.3816 22.9168 7.2187 22.748C7.05581 22.5792 6.78682 22.5742 6.61809 22.7372C6.20099 23.1396 5.98501 23.6388 5.87734 23.9864C4.88834 23.799 4.00837 23.2658 3.47629 22.5162C3.34052 22.325 3.07527 22.2799 2.88394 22.4157C2.69267 22.5515 2.64764 22.8167 2.78346 23.008C3.45522 23.9543 4.51576 24.6028 5.73665 24.8263C5.73512 24.8657 5.73432 24.9045 5.73432 24.943C5.73432 27.1801 7.79576 29.0002 10.3295 29.0002C12.1223 29.0002 13.749 28.0805 14.5 26.6502C15.2509 28.0804 16.8775 29 18.6703 29C21.2041 29 23.2655 27.18 23.2655 24.9429C23.2655 24.9044 23.2647 24.8656 23.2632 24.8261C23.7566 24.7356 24.2262 24.5746 24.6639 24.3453C24.8717 24.2365 24.9519 23.9797 24.8431 23.7719C24.7342 23.564 24.4776 23.4838 24.2696 23.5927ZM18.414 23.093C18.6488 23.093 18.8399 23.2835 18.8399 23.5176C18.8399 23.7518 18.6489 23.9423 18.414 23.9423C18.1791 23.9423 17.9881 23.7518 17.9881 23.5176C17.9881 23.2835 18.1792 23.093 18.414 23.093ZM22.0732 20.2814C22.308 20.2814 22.4992 20.4719 22.4992 20.706C22.4992 20.9403 22.3081 21.1307 22.0732 21.1307C21.8383 21.1307 21.6473 20.9403 21.6473 20.706C21.6473 20.472 21.8384 20.2814 22.0732 20.2814ZM22.0732 8.49178C22.308 8.49178 22.4992 8.68226 22.4992 8.91642C22.4992 9.15062 22.3081 9.34111 22.0732 9.34111C21.8383 9.34111 21.6473 9.15062 21.6473 8.91642C21.6473 8.68226 21.8384 8.49178 22.0732 8.49178ZM18.414 5.76454C18.6488 5.76454 18.8399 5.95502 18.8399 6.18917C18.8399 6.42338 18.6489 6.61386 18.414 6.61386C18.1791 6.61386 17.9881 6.42338 17.9881 6.18917C17.9881 5.95507 18.1792 5.76454 18.414 5.76454Z" fill="white"/>
<path d="M2.93483 20.8566C2.93483 20.0883 3.25774 19.3228 3.82081 18.7566C3.92944 18.6472 3.97045 18.4877 3.92786 18.3396C3.88526 18.1916 3.76581 18.0781 3.61565 18.0433C1.98707 17.665 0.849609 16.3946 0.849609 14.954C0.849609 14.058 1.26699 13.2065 2.02485 12.5563C2.11558 12.4785 2.16928 12.3661 2.17285 12.2467C2.17647 12.1273 2.12963 12.0118 2.04388 11.9288C1.60995 11.5084 1.37099 10.9703 1.37099 10.4137C1.37099 9.16571 2.5209 8.15745 3.9888 8.11837C3.99543 8.11843 4.64334 8.12913 5.09868 8.53185C5.1795 8.60333 5.27993 8.63844 5.37995 8.63844C5.49743 8.63844 5.61439 8.59002 5.69833 8.49509C5.85375 8.31933 5.83727 8.05085 5.66157 7.89543C5.17208 7.46253 4.56472 7.32886 4.22902 7.28751C4.06464 6.9859 3.97747 6.65778 3.97747 6.32739C3.97747 5.6255 4.3487 4.97045 4.99593 4.53024C5.18992 4.39833 5.24022 4.1341 5.10825 3.9401C4.97633 3.74611 4.71205 3.69576 4.51811 3.82779C3.63452 4.42869 3.12781 5.33981 3.12781 6.32745C3.12781 6.67205 3.19232 7.01359 3.31704 7.33832C1.70602 7.64315 0.521377 8.89905 0.521377 10.4138C0.521377 11.0606 0.743805 11.6846 1.15507 12.2091C0.407133 12.9803 0 13.9409 0 14.954C0 16.5907 1.11627 18.0471 2.78411 18.6771C2.33473 19.3202 2.08522 20.0861 2.08522 20.8566C2.08522 21.0912 2.27537 21.2814 2.51003 21.2814C2.74469 21.2814 2.93483 21.0912 2.93483 20.8566Z" fill="white"/>
<path d="M28.9999 14.954C28.9999 13.9408 28.5928 12.9802 27.8447 12.2089C28.256 11.6845 28.4784 11.0604 28.4784 10.4137C28.4784 8.89892 27.2937 7.64303 25.6827 7.33819C25.8075 7.01347 25.872 6.67187 25.872 6.32732C25.872 4.59095 24.2783 3.17828 22.3194 3.17828C22.2803 3.17828 22.2383 3.17918 22.1945 3.18077C22.0859 2.37959 21.6676 1.63182 20.9929 1.04502C20.2329 0.38408 19.2434 0.0130273 18.2068 0.000396484C18.1879 0.000113281 18.1691 0 18.1502 0C16.6057 0 15.1865 0.777732 14.4999 1.99817C13.8133 0.777676 12.3942 0 10.8496 0C10.8308 0 10.8118 0.000113281 10.793 0.000396484C9.75628 0.013084 8.76683 0.38408 8.00683 1.04502C7.33218 1.6317 6.914 2.37942 6.80525 3.18077C6.76141 3.17918 6.71944 3.17828 6.68036 3.17828C6.4457 3.17828 6.25555 3.36842 6.25555 3.60308C6.25555 3.83774 6.4457 4.02788 6.68036 4.02788C6.81018 4.02788 6.99098 4.04108 7.15229 4.06232C7.28007 4.07914 7.40734 4.03751 7.50023 3.94932C7.59324 3.86108 7.64138 3.73562 7.6313 3.60784L7.62875 3.57884C7.62807 3.57119 7.62716 3.5636 7.62688 3.56003C7.65271 2.11179 9.10741 0.87068 10.8034 0.849836C12.0846 0.836809 13.2557 1.46841 13.7875 2.46579C13.8546 2.59171 13.9548 2.694 14.0751 2.76571V5.3961C14.0751 5.63076 14.2653 5.8209 14.4999 5.8209C14.7346 5.8209 14.9247 5.63076 14.9247 5.3961V2.76576C15.0451 2.69411 15.1453 2.59176 15.2124 2.46585C15.7377 1.48059 16.8871 0.849609 18.1497 0.849609C18.1653 0.849609 18.1808 0.849723 18.1964 0.849893C19.8923 0.87068 21.3471 2.11179 21.3729 3.55596C21.366 3.55108 21.3608 4.40755 20.9041 4.95339C20.7536 5.13334 20.7774 5.40119 20.9573 5.55174C21.0368 5.6183 21.1335 5.65075 21.2297 5.65075C21.3511 5.65075 21.4717 5.59898 21.5557 5.4985C21.9513 5.02572 22.1121 4.43768 22.1776 4.03202C22.2286 4.02936 22.2769 4.02783 22.3195 4.02783C23.8098 4.02783 25.0225 5.05937 25.0225 6.32727C25.0225 6.72075 24.9003 7.11163 24.6692 7.45764C24.5832 7.58628 24.574 7.7515 24.6452 7.88885C24.7163 8.02626 24.8564 8.11417 25.0111 8.11824C26.479 8.15733 27.6289 9.16559 27.6289 10.4135C27.6289 10.9702 27.39 11.5082 26.9561 11.9286C26.9518 11.933 26.4974 12.3853 25.9048 12.4324C25.6709 12.451 25.4964 12.6556 25.515 12.8895C25.5327 13.112 25.7187 13.2806 25.9381 13.2806C25.9493 13.2806 25.9607 13.2802 25.9722 13.2793C26.5104 13.2366 26.9527 12.9957 27.2321 12.7982C27.8265 13.411 28.1503 14.1651 28.1503 14.954C28.1503 16.3947 27.0128 17.665 25.3842 18.0432C25.2341 18.078 25.1146 18.1915 25.072 18.3396C25.0294 18.4877 25.0704 18.6472 25.1791 18.7565C25.7421 19.3228 26.065 20.0882 26.065 20.8565C26.065 21.394 25.9063 21.9256 25.606 22.394C25.4794 22.5915 25.5368 22.8543 25.7344 22.9809C25.8053 23.0264 25.8848 23.0481 25.9633 23.0481C26.1032 23.0481 26.2402 22.9791 26.3212 22.8526C26.7094 22.2471 26.9147 21.5569 26.9147 20.8566C26.9147 20.0862 26.6652 19.3202 26.2158 18.6771C27.8836 18.0472 28.9999 16.5908 28.9999 14.954Z" fill="white"/>
<path d="M4.79804 14.5332C4.7849 14.7675 4.96417 14.968 5.19832 14.9812C5.20648 14.9816 5.21452 14.9818 5.22256 14.9818C5.44624 14.9818 5.63361 14.807 5.64629 14.5809C5.64748 14.5595 5.79084 12.4423 7.93355 11.9211C8.16153 11.8656 8.30138 11.6359 8.24593 11.4079C8.19048 11.18 7.96091 11.0399 7.73276 11.0956C6.29675 11.4449 5.57379 12.3611 5.22013 13.0683C4.84166 13.8251 4.79963 14.5047 4.79804 14.5332Z" fill="white"/>
<path d="M11.3765 4.70829C11.1442 4.68649 10.9358 4.85771 10.9137 5.09135C10.7879 6.42456 9.4073 6.93523 9.34681 6.95692C9.12619 7.03503 9.01025 7.27688 9.08768 7.4979C9.14896 7.67286 9.31311 7.78229 9.48858 7.78229C9.53514 7.78229 9.5826 7.77453 9.62905 7.75827C9.70869 7.73035 11.582 7.05293 11.7595 5.1711C11.7816 4.93752 11.6101 4.73033 11.3765 4.70829Z" fill="white"/>
<path d="M11.0345 23.6384C11.0935 23.6664 11.1556 23.6797 11.2168 23.6797C11.3756 23.6797 11.5279 23.5902 11.6007 23.4373C11.7014 23.2255 11.6114 22.9719 11.3996 22.8712C9.76476 22.0933 9.90466 20.2441 9.91157 20.164C9.93264 19.9309 9.76125 19.7245 9.52806 19.7027C9.29493 19.6816 9.08734 19.8524 9.06548 20.0861C9.05602 20.1883 8.85613 22.6018 11.0345 23.6384Z" fill="white"/>
<path d="M10.0278 15.7535C9.81593 15.8542 9.72592 16.1077 9.82669 16.3195C9.89941 16.4725 10.0518 16.562 10.2105 16.562C10.2717 16.562 10.3338 16.5487 10.3928 16.5207C11.768 15.8664 11.6422 14.3462 11.6362 14.2819C11.6143 14.0482 11.4065 13.8774 11.1736 13.8985C10.94 13.9204 10.7684 14.1275 10.7902 14.3611C10.7912 14.3709 10.8728 15.3514 10.0278 15.7535Z" fill="white"/>
<path d="M20.1263 14.8534C20.1263 15.088 20.3165 15.2782 20.5512 15.2782C20.7859 15.2782 20.9761 15.088 20.9761 14.8534C20.9761 14.6188 20.7859 14.4286 20.5512 14.4286C20.3165 14.4286 20.1263 14.6188 20.1263 14.8534Z" fill="white"/>
<path d="M23.4398 15.2782C23.6744 15.2782 23.8646 15.088 23.8646 14.8534C23.8646 14.6188 23.6744 14.4286 23.4398 14.4286C23.2051 14.4286 23.0149 14.6188 23.0149 14.8534C23.0149 15.088 23.2051 15.2782 23.4398 15.2782Z" fill="white"/>
<path d="M17.9893 26.5497C17.9893 26.7843 18.1795 26.9745 18.4141 26.9745C18.6488 26.9745 18.839 26.7843 18.839 26.5497C18.839 26.3151 18.6488 26.1249 18.4141 26.1249C18.1795 26.1249 17.9893 26.3151 17.9893 26.5497Z" fill="white"/>
<path d="M18.839 3.1571C18.839 2.9225 18.6488 2.7323 18.4141 2.7323C18.1795 2.7323 17.9893 2.9225 17.9893 3.1571C17.9893 3.39171 18.1795 3.58191 18.4141 3.58191C18.6488 3.58191 18.839 3.39171 18.839 3.1571Z" fill="white"/>
</g>
<defs>
<clipPath id="clip0">
<rect width="29" height="29" fill="white"/>
</clipPath>
</defs>
</svg>
