<svg width="31" height="31" viewBox="0 0 31 31" fill="none" xmlns="http://www.w3.org/2000/svg">
<g clip-path="url(#clip0)">
<path d="M30.5456 15.0455H23.2341V14.0123H25.2068C25.4576 14.0123 25.6609 13.809 25.6609 13.5582C25.6609 13.3074 25.4576 13.1041 25.2068 13.1041H23.2341V12.0709H24.6037C25.1139 12.0709 25.5936 11.8722 25.9544 11.5114L28.9409 8.5249C29.1355 8.62184 29.3512 8.67342 29.575 8.67342C29.9556 8.67342 30.3134 8.5252 30.5825 8.25614C30.8516 7.98701 30.9998 7.62924 30.9998 7.24864C30.9998 6.86804 30.8516 6.51027 30.5825 6.24114C30.3134 5.97201 29.9556 5.8238 29.575 5.8238C29.1944 5.8238 28.8366 5.97201 28.5675 6.24108C28.2984 6.51021 28.1501 6.86798 28.1501 7.24858C28.1501 7.47236 28.2017 7.68809 28.2987 7.88268L25.3121 10.8692C25.1229 11.0584 24.8713 11.1627 24.6036 11.1627H23.2341V10.1608C23.2341 8.83987 22.1594 7.76528 20.8386 7.76528H19.8367V3.74529C20.4002 3.55523 20.8074 3.022 20.8074 2.3951C20.8074 1.60945 20.1682 0.970317 19.3826 0.970317C18.597 0.970317 17.9578 1.60951 17.9578 2.3951C17.9578 3.022 18.3649 3.55517 18.9285 3.74529V7.76522H17.8953V5.79255C17.8953 5.54177 17.692 5.33845 17.4412 5.33845C17.1904 5.33845 16.9871 5.54177 16.9871 5.79255V7.76522H15.9539V0.453734C15.9539 0.202949 15.7506 -0.000366211 15.4998 -0.000366211C15.249 -0.000366211 15.0457 0.202949 15.0457 0.453734V7.76522H14.0125V5.79255C14.0125 5.54177 13.8092 5.33845 13.5584 5.33845C13.3076 5.33845 13.1043 5.54177 13.1043 5.79255V7.76522H12.0711V6.39572C12.0711 5.88549 11.8724 5.40578 11.5116 5.04505L8.52407 2.05749C8.788 1.52462 8.69954 0.860183 8.2564 0.416982C7.70082 -0.138534 6.79692 -0.138473 6.2414 0.416982C5.68589 0.972497 5.68589 1.8764 6.2414 2.43197C6.51919 2.7097 6.88405 2.8486 7.2489 2.8486C7.46614 2.8486 7.68302 2.79816 7.88192 2.69965L10.8695 5.68726C11.0587 5.87647 11.1629 6.1281 11.1629 6.39572V7.76522H10.161C9.95848 7.76522 9.75704 7.79065 9.56233 7.84072C9.31947 7.90321 9.17325 8.15078 9.23574 8.3937C9.29822 8.63661 9.54586 8.78283 9.78871 8.72029C9.9095 8.68923 10.0347 8.67342 10.161 8.67342H20.8386C21.6587 8.67342 22.3259 9.34065 22.3259 10.1607V20.8384C22.3259 20.9645 22.3101 21.0897 22.2791 21.2103C22.2167 21.4532 22.363 21.7008 22.6058 21.7632C22.6437 21.7729 22.6818 21.7776 22.7192 21.7776C22.9215 21.7776 23.106 21.6414 23.1587 21.4364C23.2087 21.2419 23.2341 21.0407 23.2341 20.8383V19.8364H27.254C27.444 20.4 27.9773 20.8071 28.6042 20.8071C29.3898 20.8071 30.029 20.168 30.029 19.3823C30.029 18.5967 29.3898 17.9575 28.6042 17.9575C27.9773 17.9575 27.4441 18.3646 27.254 18.9282H23.2341V17.895H25.2067C25.4575 17.895 25.6608 17.6917 25.6608 17.4409C25.6608 17.1901 25.4575 16.9868 25.2067 16.9868H23.2341V15.9537H30.5456C30.7964 15.9537 30.9997 15.7504 30.9997 15.4996C30.9997 15.2488 30.7964 15.0455 30.5456 15.0455ZM29.2096 6.88336C29.3072 6.78576 29.4369 6.73206 29.5749 6.73206C29.7129 6.73206 29.8426 6.78576 29.9402 6.88336C30.0378 6.98096 30.0915 7.11065 30.0915 7.24864C30.0915 7.38663 30.0378 7.51632 29.9402 7.61392C29.8426 7.71152 29.7129 7.76522 29.5749 7.76522C29.4369 7.76522 29.3072 7.71152 29.2096 7.61392C29.112 7.51632 29.0583 7.38663 29.0583 7.24864C29.0583 7.11065 29.112 6.9809 29.2096 6.88336ZM7.61412 1.78982C7.41274 1.99113 7.085 1.99119 6.8835 1.78976C6.68206 1.58832 6.68206 1.26058 6.8835 1.0592C6.98425 0.95845 7.11648 0.908136 7.24884 0.908136C7.38113 0.908136 7.51343 0.958511 7.61412 1.0592C7.81556 1.26064 7.81556 1.58838 7.61412 1.78982ZM19.3826 2.91168C19.0978 2.91168 18.866 2.67991 18.866 2.3951C18.866 2.11029 19.0977 1.87852 19.3826 1.87852C19.6674 1.87852 19.8992 2.11029 19.8992 2.3951C19.8992 2.67991 19.6674 2.91168 19.3826 2.91168ZM28.6042 18.8658C28.8891 18.8658 29.1208 19.0976 29.1208 19.3824C29.1208 19.6672 28.8891 19.8989 28.6042 19.8989C28.3194 19.8989 28.0877 19.6672 28.0877 19.3824C28.0876 19.0975 28.3194 18.8658 28.6042 18.8658Z" fill="white"/>
<path d="M24.7584 28.5675C24.3152 28.1243 23.6507 28.0358 23.1179 28.2997L20.1303 25.3121C19.941 25.1229 19.8368 24.8713 19.8368 24.6037V23.2342H20.8388C21.0413 23.2342 21.2427 23.2087 21.4373 23.1587C21.6802 23.0962 21.8264 22.8486 21.7639 22.6057C21.7014 22.3628 21.454 22.2166 21.2109 22.2791C21.0902 22.3102 20.965 22.3259 20.8388 22.3259H10.1611C9.34101 22.3259 8.67385 21.6587 8.67385 20.8386V10.161C8.67385 10.0347 8.68959 9.90953 8.72065 9.78886C8.7832 9.54601 8.63698 9.29844 8.39412 9.23589C8.15121 9.17335 7.90364 9.31957 7.84115 9.56242C7.79102 9.75702 7.76565 9.95839 7.76565 10.161V11.1629H3.74566C3.5556 10.5993 3.02237 10.1922 2.39547 10.1922C1.60981 10.1922 0.970683 10.8314 0.970683 11.617C0.970683 12.4027 1.60987 13.0418 2.39547 13.0418C3.02237 13.0418 3.55554 12.6347 3.74566 12.0711H7.76559V13.1043H5.79292C5.54214 13.1043 5.33882 13.3077 5.33882 13.5584C5.33882 13.8092 5.54214 14.0125 5.79292 14.0125H7.76559V15.0457H0.4541C0.203316 15.0457 0 15.249 0 15.4998C0 15.7506 0.203316 15.9539 0.4541 15.9539H7.76559V16.9871H5.79292C5.54214 16.9871 5.33882 17.1904 5.33882 17.4412C5.33882 17.692 5.54214 17.8953 5.79292 17.8953H7.76559V18.9285H6.39602C5.8858 18.9285 5.40609 19.1272 5.04535 19.488L2.05883 22.4745C1.86423 22.3775 1.6485 22.326 1.42472 22.326C1.04413 22.326 0.686357 22.4742 0.417227 22.7432C0.148218 23.0124 0 23.3702 0 23.7507C0 24.1313 0.148218 24.4891 0.417348 24.7582C0.686417 25.0274 1.04425 25.1755 1.42484 25.1755C1.80544 25.1755 2.16321 25.0273 2.43234 24.7582C2.70147 24.4891 2.84969 24.1313 2.84969 23.7507C2.84969 23.527 2.7981 23.3112 2.70117 23.1166L5.68769 20.1301C5.8769 19.9409 6.12853 19.8366 6.39621 19.8366H7.76577V20.8386C7.76577 22.1595 8.84041 23.234 10.1612 23.234H11.1632V27.254C10.5996 27.444 10.1925 27.9773 10.1925 28.6042C10.1925 29.3898 10.8317 30.029 11.6173 30.029C12.4029 30.029 13.042 29.3898 13.042 28.6042C13.042 27.9773 12.6349 27.4441 12.0714 27.254V23.234H13.1045V25.2067C13.1045 25.4575 13.3078 25.6608 13.5586 25.6608C13.8094 25.6608 14.0127 25.4575 14.0127 25.2067V23.234H15.0458V30.5457C15.0458 30.7964 15.2492 30.9998 15.4999 30.9998C15.7507 30.9998 15.954 30.7964 15.954 30.5457V23.2342H16.9872V25.2068C16.9872 25.4576 17.1905 25.6609 17.4413 25.6609C17.6921 25.6609 17.8954 25.4576 17.8954 25.2068V23.2342H18.9286V24.6037C18.9286 25.1139 19.1273 25.5936 19.4881 25.9543L22.4756 28.9419C22.2117 29.4748 22.3002 30.1392 22.7434 30.5824C23.0211 30.8602 23.386 30.999 23.7509 30.999C24.1157 30.999 24.4806 30.8602 24.7584 30.5824C25.3139 30.0269 25.3139 29.123 24.7584 28.5675ZM2.39547 12.1336C2.11059 12.1336 1.87888 11.9018 1.87888 11.617C1.87888 11.3321 2.11066 11.1004 2.39547 11.1004C2.68028 11.1004 2.91205 11.3322 2.91205 11.617C2.91211 11.9019 2.68034 12.1336 2.39547 12.1336ZM1.79006 24.116C1.69246 24.2136 1.56277 24.2673 1.42478 24.2673C1.2868 24.2673 1.15711 24.2136 1.05951 24.116C0.961904 24.0184 0.908199 23.8887 0.908199 23.7507C0.908199 23.6128 0.961904 23.4831 1.05951 23.3855C1.15711 23.2879 1.2868 23.2342 1.42478 23.2342C1.56277 23.2342 1.69246 23.2879 1.79006 23.3855C1.88766 23.4831 1.94137 23.6128 1.94137 23.7507C1.94137 23.8887 1.88766 24.0185 1.79006 24.116ZM12.1337 28.6043C12.1337 28.8891 11.902 29.1209 11.6171 29.1209C11.3323 29.1209 11.1006 28.8891 11.1006 28.6043C11.1006 28.3195 11.3323 28.0877 11.6171 28.0877C11.902 28.0877 12.1337 28.3195 12.1337 28.6043ZM24.1162 29.9403C23.9148 30.1417 23.587 30.1416 23.3856 29.9403C23.1842 29.7388 23.1842 29.4111 23.3856 29.2097C23.4863 29.109 23.6186 29.0586 23.7509 29.0586C23.8832 29.0586 24.0155 29.109 24.1162 29.2097C24.3176 29.4111 24.3176 29.7388 24.1162 29.9403Z" fill="white"/>
<path d="M20.3222 14.2868C20.3222 13.3156 19.6119 12.493 18.6394 12.2257C18.6682 12.1069 18.6842 11.9848 18.6842 11.86C18.6842 10.9406 17.8681 10.1925 16.8651 10.1925C16.3217 10.1925 15.8336 10.4122 15.5 10.7595C15.1664 10.4122 14.6783 10.1925 14.135 10.1925C13.1319 10.1925 12.3159 10.9406 12.3159 11.86C12.3159 11.9848 12.3319 12.1069 12.3606 12.2257C11.3882 12.4929 10.6779 13.3156 10.6779 14.2868C10.6779 14.7614 10.8458 15.2092 11.1561 15.579C10.8527 15.9718 10.6779 16.4486 10.6779 16.9562C10.6777 17.7283 11.0903 18.4493 11.7698 18.8964C11.7698 18.8968 11.7698 18.8972 11.7698 18.8975C11.7698 19.9508 12.7083 20.8077 13.862 20.8077C14.525 20.8077 15.1165 20.5244 15.5 20.0838C15.8836 20.5244 16.4751 20.8077 17.1381 20.8077C18.2483 20.8077 19.1589 20.014 19.2258 19.0154C19.9001 18.6242 20.3222 17.9388 20.3222 17.1988C20.3222 16.6545 20.0901 16.1353 19.6907 15.7428C20.0901 15.3504 20.3222 14.831 20.3222 14.2868ZM18.7151 16.1444C19.1526 16.3753 19.4138 16.7695 19.4138 17.1988C19.4138 17.519 19.2651 17.8243 19.0138 18.0526C18.7751 17.6106 18.3531 17.2587 17.82 17.0912C17.5808 17.0161 17.3259 17.1491 17.2507 17.3883C17.1755 17.6276 17.3086 17.8825 17.5478 17.9576C18.0107 18.1031 18.3218 18.4809 18.3218 18.8976C18.3218 19.4501 17.7907 19.8996 17.1378 19.8996C16.485 19.8996 15.9539 19.4501 15.9539 18.8976V15.9855C15.9539 15.433 16.485 14.9836 17.1378 14.9836C17.3886 14.9836 17.5919 14.7802 17.5919 14.5295C17.5919 14.2787 17.3886 14.0754 17.1378 14.0754C16.6986 14.0754 16.2908 14.1998 15.9539 14.4118V13.8318C15.9539 13.581 15.7506 13.3777 15.4998 13.3777C15.249 13.3777 15.0457 13.581 15.0457 13.8318V16.3528C14.8929 16.2569 14.7253 16.1775 14.544 16.1205C14.3046 16.0453 14.0498 16.1784 13.9747 16.4175C13.8995 16.6568 14.0325 16.9117 14.2717 16.9869C14.7347 17.1324 15.0457 17.5102 15.0457 17.9269V18.8975C15.0457 19.45 14.5146 19.8995 13.8618 19.8995C13.2089 19.8995 12.6778 19.45 12.6778 18.8975C12.6778 18.6607 12.7782 18.4305 12.9604 18.2494C13.1383 18.0726 13.1391 17.7851 12.9623 17.6072C12.7855 17.4293 12.4981 17.4284 12.3202 17.6052C12.2114 17.7134 12.1177 17.8316 12.0399 17.9572C11.7531 17.686 11.5857 17.3291 11.5857 16.9561C11.5857 16.2833 12.1137 15.6923 12.8698 15.5188C13.1142 15.4627 13.2669 15.2191 13.2108 14.9747C13.1548 14.7302 12.9111 14.5775 12.6667 14.6336C12.3623 14.7034 12.0821 14.82 11.8336 14.973C11.6725 14.7706 11.5858 14.5336 11.5858 14.2867C11.5859 13.6036 12.2334 13.0476 13.0316 13.0423C13.0357 13.0424 13.0397 13.043 13.0437 13.043C13.1474 13.043 13.2516 13.0077 13.3369 12.9354C13.511 12.7881 13.5459 12.538 13.429 12.3499C13.4256 12.3443 13.4224 12.3386 13.4188 12.3333C13.4169 12.3305 13.4147 12.3279 13.4127 12.3252C13.4057 12.3153 13.3985 12.3056 13.3907 12.2963C13.3905 12.296 13.3903 12.2957 13.39 12.2955C13.3143 12.2059 13.2239 12.0577 13.2239 11.86C13.2239 11.4413 13.6326 11.1006 14.1348 11.1006C14.6371 11.1006 15.0458 11.4413 15.0458 11.86C15.0458 12.1107 15.2491 12.3141 15.4999 12.3141C15.7506 12.3141 15.954 12.1107 15.954 11.86C15.954 11.4413 16.3626 11.1006 16.8649 11.1006C17.3671 11.1006 17.7758 11.4413 17.7758 11.86C17.7758 11.9718 17.7465 12.0673 17.7077 12.1457C17.4494 12.1701 17.1996 12.2326 16.9624 12.3326C16.7313 12.43 16.623 12.6964 16.7204 12.9275C16.8178 13.1585 17.0842 13.2669 17.3153 13.1695C17.5116 13.0867 17.7228 13.0441 17.943 13.0424C17.9474 13.0426 17.9517 13.043 17.956 13.043C17.9601 13.043 17.9641 13.0424 17.9682 13.0423C18.7663 13.0475 19.4138 13.6036 19.4138 14.2867C19.4138 14.716 19.1526 15.1102 18.7151 15.3411C18.5661 15.4197 18.4729 15.5743 18.4729 15.7428C18.4729 15.9112 18.5661 16.0658 18.7151 16.1444Z" fill="white"/>
</g>
<defs>
<clipPath id="clip0">
<rect width="31" height="31" fill="white"/>
</clipPath>
</defs>
</svg>
