<svg width="26" height="26" viewBox="0 0 26 26" fill="none" xmlns="http://www.w3.org/2000/svg">
<g clip-path="url(#clip0)">
<path d="M20.836 9.36998C20.6258 9.36998 20.4554 9.19957 20.4554 8.98937C20.4554 8.77917 20.6258 8.60876 20.836 8.60876C21.0462 8.60876 21.2166 8.77917 21.2166 8.98937C21.2166 9.19957 21.0462 9.36998 20.836 9.36998Z" fill="white"/>
<path d="M25.8705 10.4746L22.7382 7.34231V6.29788C23.6533 5.68226 24.2566 4.63727 24.2566 3.45388C24.2566 1.56506 22.7199 0.0284236 20.8311 0.0284236C19.661 0.0284236 18.6265 0.618516 18.0083 1.51634H15.8751C15.6649 1.51634 15.4945 1.68675 15.4945 1.89695C15.4945 2.10714 15.6649 2.27755 15.8751 2.27755H17.6138C17.3443 3.0375 17.3365 3.79871 17.5904 4.56119H12.3875C12.6541 3.8083 12.6415 3.00213 12.3857 2.27755H14.2167C14.4269 2.27755 14.5973 2.10714 14.5973 1.89695C14.5973 1.68675 14.4269 1.51634 14.2167 1.51634H12.0058C11.2121 0.324688 9.65535 -0.260127 8.27207 0.110533C6.62902 0.550819 5.50582 2.26198 5.77489 3.95167L3.49759 7.89551C1.52965 8.22948 0.0166626 10.0144 0.0166626 12.0196C0.0166626 14.5638 2.37104 16.5532 4.87422 16.1522L8.83197 19.4734C8.83055 19.518 8.82928 23.2089 8.82928 23.2089H6.67251C6.46231 23.2089 6.2919 23.3793 6.2919 23.5895V25.6194C6.2919 25.8296 6.46231 26 6.67251 26H19.3594C19.5696 26 19.74 25.8296 19.74 25.6194V23.5895C19.74 23.3793 19.5696 23.2089 19.3594 23.2089H17.2026V22.4675C17.2026 22.2573 17.0322 22.0869 16.822 22.0869C16.6118 22.0869 16.4414 22.2573 16.4414 22.4675V23.2089H12.3227C12.1125 23.2089 11.9421 23.3793 11.9421 23.5895C11.9421 23.7997 12.1125 23.9701 12.3227 23.9701H18.9788V25.2388H7.05311V23.9701H10.6643C10.8745 23.9701 11.0449 23.7997 11.0449 23.5895C11.0449 23.3793 10.8745 23.2089 10.6643 23.2089H9.59049V19.6073C9.59049 17.7686 11.1839 16.1819 13.016 16.1819C14.9048 16.1819 16.4414 17.7185 16.4414 19.6073V20.809C16.4414 21.0192 16.6118 21.1896 16.822 21.1896C17.0322 21.1896 17.2026 21.0192 17.2026 20.809V19.6073C17.2026 17.2988 15.3245 15.4207 13.016 15.4207C12.7947 15.4207 12.5732 15.4386 12.3547 15.4731L8.38509 12.1428C8.40087 11.602 8.31272 11.0591 8.12064 10.5462L10.3911 6.61322C11.0318 6.36669 11.6025 5.92798 12.0066 5.32236H17.9623C18.2163 5.71088 18.5464 6.04515 18.9321 6.30305V7.33419L15.7917 10.4746C15.7203 10.546 15.6802 10.6428 15.6802 10.7437V12.7736C15.6802 12.8746 15.7203 12.9714 15.7917 13.0427L19.547 16.7981C19.7647 17.0158 20.1967 16.894 20.1967 16.5289V13.4841C20.1967 13.3831 20.1566 13.2863 20.0852 13.215L18.6289 11.7587L19.7597 10.6279C20.4747 11.0722 21.1901 11.0733 21.9058 10.6313L23.0332 11.7587L21.5769 13.215C21.5055 13.2863 21.4654 13.3831 21.4654 13.4841V16.5289C21.4654 16.894 21.8974 17.0159 22.1151 16.7981L25.8704 13.0427C25.9418 12.9714 25.9819 12.8746 25.9819 12.7736V10.7437C25.982 10.6428 25.9419 10.546 25.8705 10.4746ZM1.78121 14.4417C0.471817 13.1324 0.468874 10.9097 1.78121 9.59743C3.08907 8.28962 5.31471 8.28667 6.62552 9.59743C7.96109 10.933 7.96109 13.1062 6.62552 14.4417C5.30598 15.7613 3.10516 15.7656 1.78121 14.4417ZM11.4629 15.7186C10.2318 16.2127 9.28205 17.298 8.95635 18.584L5.76474 15.9057C6.99648 15.411 7.94292 14.327 8.2637 13.0346L11.4629 15.7186ZM7.71085 9.73364C6.98329 8.6178 5.73997 7.90475 4.40871 7.83994L6.08592 4.93531C6.68037 6.14645 8.04076 6.92649 9.38359 6.83616L7.71085 9.73364ZM7.82656 5.72656C6.55432 4.99204 6.11687 3.35939 6.85139 2.08715C7.57333 0.836731 9.25378 0.397714 10.4908 1.11199C11.763 1.84651 12.2005 3.47916 11.466 4.7514C10.7314 6.02359 9.0988 6.46113 7.82656 5.72656ZM20.8311 0.789637C22.3002 0.789637 23.4954 1.98479 23.4954 3.45388C23.4954 4.92297 22.3002 6.11813 20.8311 6.11813C19.362 6.11813 18.1669 4.92297 18.1669 3.45388C18.1669 1.98479 19.362 0.789637 20.8311 0.789637ZM17.8216 12.0278L19.4356 13.6418V15.6101L16.4415 12.616V10.9014L18.9322 8.4107C18.8898 8.94142 18.9559 9.65021 19.2308 10.0804L17.8216 11.4896C17.673 11.6382 17.673 11.8792 17.8216 12.0278ZM19.6934 9.05895V6.68432C20.4547 6.94526 21.2159 6.94435 21.977 6.68158V9.059C21.977 9.68863 21.4648 10.2008 20.8352 10.2008C20.2056 10.2008 19.6934 9.68857 19.6934 9.05895ZM25.2208 12.616L22.2267 15.6101V13.6418L23.8406 12.0278C23.9892 11.8792 23.9892 11.6382 23.8406 11.4896L22.4364 10.0854C22.7127 9.65584 22.7804 8.94969 22.7382 8.41887L25.2208 10.9014V12.616Z" fill="white"/>
<path d="M10.8599 19.5039C10.8599 20.6932 11.8274 21.6607 13.0167 21.6607C14.2059 21.6607 15.1734 20.6932 15.1734 19.5039C15.1734 18.3147 14.2059 17.3472 13.0167 17.3472C11.8274 17.3472 10.8599 18.3147 10.8599 19.5039ZM14.4122 19.5039C14.4122 20.2735 13.7862 20.8995 13.0167 20.8995C12.2471 20.8995 11.6211 20.2735 11.6211 19.5039C11.6211 18.7344 12.2471 18.1084 13.0167 18.1084C13.7862 18.1084 14.4122 18.7344 14.4122 19.5039Z" fill="white"/>
<path d="M5.72909 13.5447C6.57003 12.7037 6.57003 11.3355 5.72909 10.4945C4.89699 9.66244 3.51107 9.66249 2.67896 10.4945C1.84691 11.3266 1.84686 12.7126 2.67896 13.5447C3.51102 14.3768 4.89704 14.3767 5.72909 13.5447ZM2.80847 12.0196C2.80847 11.6468 2.95361 11.2964 3.21724 11.0328C3.87513 10.4878 4.53297 10.4878 5.19086 11.0328C5.73498 11.5769 5.73498 12.4623 5.19086 13.0064C4.53297 13.5515 3.87513 13.5515 3.21724 13.0064C2.95366 12.7428 2.80847 12.3924 2.80847 12.0196Z" fill="white"/>
<path d="M9.85712 2.21062C9.19065 1.82585 8.3355 2.05503 7.95073 2.72145C7.56597 3.38786 7.79514 4.24306 8.46156 4.62778C9.1264 5.01163 9.98794 4.7752 10.3679 4.11701C10.7527 3.45059 10.5235 2.59539 9.85712 2.21062ZM9.70873 3.7364C9.51564 4.02454 9.15939 4.12604 8.84222 3.96857C8.5289 3.81303 8.43517 3.40497 8.61 3.10205C8.78492 2.79909 9.1736 2.69496 9.47656 2.86983C9.77942 3.04476 9.88361 3.43349 9.70873 3.7364Z" fill="white"/>
<path d="M20.8318 4.84934C21.6013 4.84934 22.2273 4.22332 22.2273 3.45378C22.2273 2.68425 21.6013 2.05823 20.8318 2.05823C20.0622 2.05823 19.4362 2.68425 19.4362 3.45378C19.4362 4.22332 20.0623 4.84934 20.8318 4.84934ZM20.8318 2.81944C21.1816 2.81944 21.4661 3.10398 21.4661 3.45378C21.4661 3.80359 21.1816 4.08813 20.8318 4.08813C20.482 4.08813 20.1974 3.80359 20.1974 3.45378C20.1974 3.10398 20.482 2.81944 20.8318 2.81944Z" fill="white"/>
</g>
<defs>
<clipPath id="clip0">
<rect width="26" height="26" fill="white"/>
</clipPath>
</defs>
</svg>
